<svg width="1854" height="1067" viewBox="0 0 1854 1067" fill="none" xmlns="http://www.w3.org/2000/svg">
<rect x="49" y="651" width="364" height="364" stroke="#05AAF0" stroke-width="20"/>
<rect x="8.5" y="610.5" width="85" height="85" rx="17.5" fill="white" stroke="#05AAF0" stroke-width="15"/>
<rect x="369.5" y="610.5" width="85" height="85" rx="17.5" fill="white" stroke="#05AAF0" stroke-width="15"/>
<rect x="7.5" y="974.5" width="85" height="85" rx="17.5" fill="white" stroke="#05AAF0" stroke-width="15"/>
<rect x="369.5" y="972.5" width="85" height="85" rx="17.5" fill="white" stroke="#05AAF0" stroke-width="15"/>
<rect x="403.182" y="36.4849" width="247.636" height="247.636" stroke="#05AAF0" stroke-width="20"/>
<rect x="374.197" y="7.5" width="54.697" height="54.697" rx="17.5" fill="white" stroke="#05AAF0" stroke-width="15"/>
<rect x="625.803" y="7.5" width="54.697" height="54.697" rx="17.5" fill="white" stroke="#05AAF0" stroke-width="15"/>
<rect x="373.5" y="261.197" width="54.697" height="54.697" rx="17.5" fill="white" stroke="#05AAF0" stroke-width="15"/>
<rect x="625.803" y="259.803" width="54.697" height="54.697" rx="17.5" fill="white" stroke="#05AAF0" stroke-width="15"/>
<path fill-rule="evenodd" clip-rule="evenodd" d="M273.546 757.616C273.546 788.332 250.404 813.232 221.858 813.232C193.311 813.232 170.17 788.332 170.17 757.616C170.17 726.9 193.311 702 221.858 702C250.404 702 273.546 726.9 273.546 757.616ZM252.449 757.616C252.449 776.905 238.093 791.278 221.858 791.278C205.622 791.278 191.267 776.905 191.267 757.616C191.267 738.327 205.622 723.954 221.858 723.954C238.093 723.954 252.449 738.327 252.449 757.616Z" fill="url(#paint0_linear_764_1049)"/>
<path d="M181.108 848.298C197.472 846.525 208.893 846.217 223.628 848.261C229.403 849.062 234.709 844.84 235.479 838.831C236.248 832.822 232.191 827.301 226.417 826.5C209.506 824.154 196.313 824.578 178.922 826.463C154.307 829.131 132.687 836.509 116.899 847.443C101.213 858.306 89.998 873.735 90 892.31L90.0009 901.771C90.0022 919.968 104.181 934.708 121.661 934.708H212.364C218.19 934.708 222.913 929.794 222.913 923.731C222.913 917.669 218.19 912.755 212.364 912.755H121.661C115.825 912.755 111.099 907.835 111.098 901.77L111.097 892.307C111.096 883.777 116.232 874.276 128.588 865.719C140.842 857.233 158.957 850.699 181.108 848.298Z" fill="url(#paint1_linear_764_1049)"/>
<path d="M266.927 849.821C266.927 833.655 279.521 820.549 295.057 820.549H306.235C321.771 820.549 334.365 833.655 334.365 849.821V854.676H316.812V852.008C316.812 843.925 310.515 837.372 302.747 837.372H298.544C290.776 837.372 284.479 843.925 284.479 852.008V854.676H266.927V849.821Z" fill="url(#paint2_linear_764_1049)"/>
<path fill-rule="evenodd" clip-rule="evenodd" d="M257.372 854.962C241.836 854.962 229.242 868.067 229.242 884.233V933.729C229.242 949.895 241.836 963 257.372 963H343.87C359.406 963 372 949.895 372 933.729V884.233C372 868.067 359.406 854.962 343.87 854.962H257.372ZM310.328 879.77C305.047 879.77 300.765 884.226 300.765 889.721C300.765 895.217 305.047 899.672 310.328 899.672H338.588C343.87 899.672 348.151 895.217 348.151 889.721C348.151 884.226 343.87 879.77 338.588 879.77H310.328Z" fill="url(#paint3_linear_764_1049)"/>
<rect x="1441" y="187" width="364" height="364" stroke="#05AAF0" stroke-width="20"/>
<rect x="1400.5" y="146.5" width="85" height="85" rx="17.5" fill="white" stroke="#05AAF0" stroke-width="15"/>
<rect x="1761.5" y="146.5" width="85" height="85" rx="17.5" fill="white" stroke="#05AAF0" stroke-width="15"/>
<rect x="1399.5" y="510.5" width="85" height="85" rx="17.5" fill="white" stroke="#05AAF0" stroke-width="15"/>
<rect x="1761.5" y="508.5" width="85" height="85" rx="17.5" fill="white" stroke="#05AAF0" stroke-width="15"/>
<path fill-rule="evenodd" clip-rule="evenodd" d="M1687.27 303.259C1687.27 335.986 1661.65 362.517 1630.03 362.517C1598.42 362.517 1572.79 335.986 1572.79 303.259C1572.79 270.531 1598.42 244 1630.03 244C1661.65 244 1687.27 270.531 1687.27 303.259ZM1663.91 303.259C1663.91 323.811 1648.01 339.126 1630.03 339.126C1612.05 339.126 1596.15 323.811 1596.15 303.259C1596.15 282.706 1612.05 267.392 1630.03 267.392C1648.01 267.392 1663.91 282.706 1663.91 303.259Z" fill="url(#paint4_linear_764_1049)"/>
<path d="M1584.9 399.881C1603.02 397.991 1621.07 398.27 1633.15 399.881C1636.27 400.298 1648.81 404.685 1656.51 405.402C1664.57 406.152 1667.52 399.881 1668.58 397.215C1669.65 394.549 1668.58 387.659 1663.91 384.739C1658.07 381.09 1636.29 377.035 1633.15 376.615C1614.42 374.115 1601.74 374.607 1582.48 376.615C1555.22 379.458 1531.28 387.319 1513.79 398.97C1496.42 410.545 1484 426.984 1484 446.775L1484 456.856C1484 476.245 1499.71 491.951 1519.06 491.951H1598.1C1604.55 491.951 1610.17 487.104 1610.17 480.645C1610.17 474.185 1604.55 468.559 1598.1 468.559H1519.06C1512.6 468.559 1507.37 463.317 1507.37 456.855L1507.36 446.773C1507.36 437.684 1513.05 427.561 1526.74 418.443C1540.31 409.4 1560.37 402.439 1584.9 399.881Z" fill="url(#paint5_linear_764_1049)"/>
<path d="M1654.09 495.795C1647.46 489.147 1647.46 478.369 1654.09 471.722L1731.04 394.486C1737.67 387.838 1748.41 387.838 1755.03 394.486C1761.66 401.134 1761.66 411.912 1755.03 418.559L1678.07 495.795C1671.45 502.443 1660.71 502.443 1654.09 495.795Z" fill="url(#paint6_linear_764_1049)"/>
<path d="M1620.11 437.825C1626.73 431.177 1637.47 431.177 1644.09 437.825L1678.09 471.941C1684.71 478.588 1684.71 489.367 1678.09 496.014C1671.46 502.662 1660.72 502.662 1654.1 496.014L1620.11 461.899C1613.48 455.251 1613.48 444.473 1620.11 437.825Z" fill="url(#paint7_linear_764_1049)"/>
<path fill-rule="evenodd" clip-rule="evenodd" d="M568.298 114.541C568.298 135.827 551.617 153.083 531.041 153.083C510.465 153.083 493.785 135.827 493.785 114.541C493.785 93.2555 510.465 76 531.041 76C551.617 76 568.298 93.2555 568.298 114.541ZM553.091 114.541C553.091 127.908 542.744 137.869 531.041 137.869C519.339 137.869 508.992 127.908 508.992 114.541C508.992 101.174 519.339 91.2137 531.041 91.2137C542.744 91.2137 553.091 101.174 553.091 114.541Z" fill="#FEFFFF"/>
<path d="M501.669 177.384C513.464 176.154 521.697 175.941 532.317 177.358C536.48 177.913 540.304 174.987 540.859 170.823C541.414 166.659 538.49 162.833 534.327 162.278C522.138 160.652 512.629 160.946 500.094 162.252C482.351 164.101 466.769 169.214 455.389 176.791C444.082 184.319 435.999 195.011 436 207.883L436.001 214.44C436.002 227.05 446.222 237.265 458.821 237.265H524.198C528.398 237.265 531.802 233.859 531.802 229.658C531.802 225.457 528.398 222.051 524.198 222.051H458.821C454.615 222.051 451.208 218.642 451.207 214.439L451.207 207.882C451.206 201.97 454.908 195.386 463.814 189.456C472.646 183.575 485.704 179.047 501.669 177.384Z" fill="#FEFFFF"/>
<path d="M619.583 231.614C619.29 231.08 618.859 230.636 618.335 230.325L614.581 228.075C613.115 227.194 611.902 225.951 611.061 224.464C610.219 222.977 609.777 221.298 609.777 219.59V199.305C609.773 193.42 607.862 187.695 604.328 182.986C600.795 178.277 595.829 174.838 590.176 173.184C589.931 173.114 589.716 172.967 589.562 172.766C589.408 172.564 589.323 172.317 589.321 172.063C589.321 170.257 588.603 168.525 587.324 167.248C586.045 165.971 584.311 165.254 582.503 165.254C580.695 165.254 578.96 165.971 577.682 167.248C576.403 168.525 575.685 170.257 575.685 172.063C575.682 172.317 575.598 172.563 575.444 172.765C575.29 172.967 575.074 173.114 574.83 173.184C569.176 174.838 564.211 178.277 560.677 182.986C557.144 187.695 555.232 193.42 555.229 199.305V219.587C555.229 221.295 554.787 222.974 553.945 224.46C553.103 225.947 551.891 227.191 550.425 228.071L546.67 230.322C546.022 230.709 545.518 231.296 545.234 231.995C544.951 232.694 544.904 233.466 545.1 234.195C545.296 234.923 545.725 235.568 546.321 236.03C546.918 236.493 547.649 236.748 548.404 236.758H616.591C617.189 236.744 617.773 236.577 618.288 236.272C618.802 235.968 619.23 235.537 619.529 235.02C619.829 234.503 619.991 233.919 620 233.322C620.008 232.725 619.863 232.135 619.578 231.61L619.583 231.614Z" fill="#FEFFFF"/>
<path d="M574.69 250.931C576.727 252.424 579.069 253.407 581.535 253.803C584 254.199 586.52 253.997 588.897 253.213C591.274 252.429 593.443 251.085 595.234 249.285C597.025 247.486 598.389 245.281 599.218 242.843H568.804C569.915 246.103 571.97 248.928 574.69 250.931Z" fill="#FEFFFF"/>
<defs>
<linearGradient id="paint0_linear_764_1049" x1="231" y1="702" x2="231" y2="963" gradientUnits="userSpaceOnUse">
<stop stop-color="#7CA4B7"/>
<stop offset="1" stop-color="#1B7096"/>
</linearGradient>
<linearGradient id="paint1_linear_764_1049" x1="231" y1="702" x2="231" y2="963" gradientUnits="userSpaceOnUse">
<stop stop-color="#7CA4B7"/>
<stop offset="1" stop-color="#1B7096"/>
</linearGradient>
<linearGradient id="paint2_linear_764_1049" x1="231" y1="702" x2="231" y2="963" gradientUnits="userSpaceOnUse">
<stop stop-color="#7CA4B7"/>
<stop offset="1" stop-color="#1B7096"/>
</linearGradient>
<linearGradient id="paint3_linear_764_1049" x1="231" y1="702" x2="231" y2="963" gradientUnits="userSpaceOnUse">
<stop stop-color="#7CA4B7"/>
<stop offset="1" stop-color="#1B7096"/>
</linearGradient>
<linearGradient id="paint4_linear_764_1049" x1="1622" y1="316.5" x2="1622" y2="501" gradientUnits="userSpaceOnUse">
<stop stop-color="#F1FFDF"/>
<stop offset="1" stop-color="#C2F388"/>
</linearGradient>
<linearGradient id="paint5_linear_764_1049" x1="1622" y1="316.5" x2="1622" y2="501" gradientUnits="userSpaceOnUse">
<stop stop-color="#F1FFDF"/>
<stop offset="1" stop-color="#C2F388"/>
</linearGradient>
<linearGradient id="paint6_linear_764_1049" x1="1622" y1="316.5" x2="1622" y2="501" gradientUnits="userSpaceOnUse">
<stop stop-color="#F1FFDF"/>
<stop offset="1" stop-color="#C2F388"/>
</linearGradient>
<linearGradient id="paint7_linear_764_1049" x1="1622" y1="316.5" x2="1622" y2="501" gradientUnits="userSpaceOnUse">
<stop stop-color="#F1FFDF"/>
<stop offset="1" stop-color="#C2F388"/>
</linearGradient>
</defs>
</svg>
