<svg width="1740" height="971" viewBox="0 0 1740 971" fill="none" xmlns="http://www.w3.org/2000/svg">
<rect x="694" y="555" width="364" height="364" stroke="#F570B8" stroke-width="20"/>
<rect x="653.5" y="514.5" width="85" height="85" rx="17.5" fill="white" stroke="#F570B8" stroke-width="15"/>
<rect x="1014.5" y="514.5" width="85" height="85" rx="17.5" fill="white" stroke="#F570B8" stroke-width="15"/>
<rect x="652.5" y="878.5" width="85" height="85" rx="17.5" fill="white" stroke="#F570B8" stroke-width="15"/>
<rect x="1014.5" y="876.5" width="85" height="85" rx="17.5" fill="white" stroke="#F570B8" stroke-width="15"/>
<path fill-rule="evenodd" clip-rule="evenodd" d="M877.953 724.848C905.438 724.848 927.719 701.825 927.719 673.424C927.719 645.023 905.438 622 877.953 622C850.468 622 828.187 645.023 828.187 673.424C828.187 701.825 850.468 724.848 877.953 724.848ZM877.953 704.549C893.585 704.549 907.406 691.259 907.406 673.424C907.406 655.589 893.585 642.299 877.953 642.299C862.322 642.299 848.5 655.589 848.5 673.424C848.5 691.259 862.322 704.549 877.953 704.549Z" fill="url(#paint0_linear_764_1052)"/>
<path fill-rule="evenodd" clip-rule="evenodd" d="M1011 805.029C1011 841.464 982.353 871 947.016 871C911.678 871 883.031 841.464 883.031 805.029C883.031 768.593 911.678 739.057 947.016 739.057C982.353 739.057 1011 768.593 1011 805.029ZM937.875 807.058C937.875 802.014 941.967 797.924 947.016 797.924C952.064 797.924 956.156 802.014 956.156 807.058V836.83C956.156 841.875 952.064 845.965 947.016 845.965C941.967 845.965 937.875 841.875 937.875 836.83V807.058ZM947.016 789.804C952.064 789.804 956.156 785.563 956.156 780.332C956.156 775.1 952.064 770.859 947.016 770.859C941.967 770.859 937.875 775.1 937.875 780.332C937.875 785.563 941.967 789.804 947.016 789.804Z" fill="url(#paint1_linear_764_1052)"/>
<path d="M838.719 757.272C854.474 755.632 865.471 755.347 879.658 757.237C885.218 757.978 890.326 754.074 891.067 748.518C891.808 742.962 887.902 737.857 882.342 737.116C866.061 734.947 853.359 735.339 836.615 737.082C812.915 739.549 792.1 746.371 776.899 756.481C761.796 766.525 750.998 780.791 751 797.966L751.001 806.714C751.002 823.539 764.654 837.169 781.483 837.169H868.812C874.422 837.169 878.969 832.624 878.969 827.019C878.969 821.414 874.422 816.87 868.812 816.87H781.483C775.865 816.87 771.314 812.32 771.313 806.713L771.312 797.963C771.312 790.076 776.256 781.291 788.153 773.379C799.951 765.532 817.392 759.491 838.719 757.272Z" fill="url(#paint2_linear_764_1052)"/>
<rect x="1287.63" y="51.5366" width="399.74" height="399.74" stroke="#F570B8" stroke-width="20"/>
<rect x="1243.59" y="7.5" width="94.3074" height="94.3074" rx="17.5" fill="white" stroke="#FF93CD" stroke-width="15"/>
<rect x="1638.19" y="7.5" width="94.3074" height="94.3074" rx="17.5" fill="white" stroke="#FF93CD" stroke-width="15"/>
<rect x="1242.5" y="405.379" width="94.3074" height="94.3074" rx="17.5" fill="white" stroke="#FF93CD" stroke-width="15"/>
<rect x="1638.19" y="403.192" width="94.3074" height="94.3074" rx="17.5" fill="white" stroke="#FF93CD" stroke-width="15"/>
<path d="M1583.73 310.319L1598.91 319.525C1603.07 322.044 1607.85 323.246 1612.63 322.977C1617.42 322.707 1621.99 320.978 1625.77 318.012L1638.15 308.28C1642.78 304.648 1645.85 299.326 1646.73 293.398C1647.62 287.47 1646.27 281.382 1642.94 276.375C1630.69 257.954 1607.61 247.996 1587.33 259.472C1574 267.019 1557.9 278.564 1542.3 295.874C1529.15 310.403 1518.27 326.941 1510.05 344.914C1500.26 366.471 1511.44 389.537 1530.33 400.784C1535.39 403.799 1541.36 404.739 1547.01 403.414C1552.66 402.088 1557.58 398.597 1560.75 393.651L1569.42 380.122C1572.04 376.044 1573.39 371.239 1573.31 366.324C1573.23 361.408 1571.71 356.607 1568.96 352.536L1558.91 337.682C1559.35 336.856 1559.88 335.898 1560.5 334.829C1563.09 330.345 1566.12 326.15 1569.55 322.308C1573.04 318.524 1576.9 315.12 1581.08 312.149C1581.95 311.52 1582.83 310.91 1583.73 310.319Z" fill="url(#paint3_linear_764_1052)"/>
<path fill-rule="evenodd" clip-rule="evenodd" d="M1551.32 173.077C1551.32 209.018 1523.17 238.154 1488.43 238.154C1453.7 238.154 1425.54 209.018 1425.54 173.077C1425.54 137.136 1453.7 108 1488.43 108C1523.17 108 1551.32 137.136 1551.32 173.077ZM1525.65 173.077C1525.65 195.647 1508.19 212.466 1488.43 212.466C1468.68 212.466 1451.21 195.647 1451.21 173.077C1451.21 150.507 1468.68 133.688 1488.43 133.688C1508.19 133.688 1525.65 150.507 1525.65 173.077Z" fill="url(#paint4_linear_764_1052)"/>
<path d="M1438.85 279.186C1458.76 277.111 1478.59 277.417 1491.86 279.186C1495.29 279.645 1509.06 284.462 1517.52 285.249C1526.38 286.072 1529.62 279.186 1530.79 276.258C1531.96 273.33 1530.79 265.764 1525.65 262.558C1519.24 258.55 1495.31 254.097 1491.86 253.636C1471.28 250.891 1457.35 251.431 1436.19 253.636C1406.24 256.758 1379.94 265.391 1360.73 278.185C1341.64 290.897 1328 308.95 1328 330.685L1328 341.756C1328 363.048 1345.25 380.296 1366.52 380.296H1476.88C1483.97 380.296 1489.72 374.545 1489.72 367.452C1489.72 360.358 1483.97 354.608 1476.88 354.608H1366.52C1359.42 354.608 1353.67 348.851 1353.67 341.754L1353.67 330.682C1353.67 320.701 1359.92 309.583 1374.95 299.571C1389.86 289.64 1411.9 281.995 1438.85 279.186Z" fill="url(#paint5_linear_764_1052)"/>
<rect x="37.9417" y="371.225" width="255.117" height="255.117" stroke="#F570B8" stroke-width="20"/>
<rect x="8.21655" y="341.5" width="56.645" height="56.645" rx="17.5" fill="white" stroke="#F570B8" stroke-width="15"/>
<rect x="266.855" y="341.5" width="56.645" height="56.645" rx="17.5" fill="white" stroke="#F570B8" stroke-width="15"/>
<rect x="7.5" y="602.288" width="56.645" height="56.645" rx="17.5" fill="white" stroke="#F570B8" stroke-width="15"/>
<rect x="266.855" y="600.855" width="56.645" height="56.645" rx="17.5" fill="white" stroke="#F570B8" stroke-width="15"/>
<path fill-rule="evenodd" clip-rule="evenodd" d="M193.141 453.072C193.141 470.784 179.254 485.143 162.124 485.143C144.994 485.143 131.107 470.784 131.107 453.072C131.107 435.359 144.994 421 162.124 421C179.254 421 193.141 435.359 193.141 453.072ZM180.481 453.072C180.481 464.195 171.866 472.483 162.124 472.483C152.382 472.483 143.767 464.195 143.767 453.072C143.767 441.948 152.382 433.66 162.124 433.66C171.866 433.66 180.481 441.948 180.481 453.072ZM163.186 505.343C154.344 504.165 147.491 504.342 137.671 505.365C124.379 506.749 113.509 510.517 106.156 515.411C98.7409 520.345 95.6593 525.824 95.6598 530.743L95.6604 536.2C95.6606 539.697 98.497 542.535 101.999 542.535H156.427C159.923 542.535 162.757 545.369 162.757 548.864C162.757 552.36 159.923 555.194 156.427 555.194H101.999C91.5097 555.194 83.0013 546.694 83.0005 536.201L83 530.745C82.9988 520.033 89.7285 511.136 99.1414 504.872C108.615 498.566 121.589 494.312 136.36 492.773C146.796 491.686 154.712 491.442 164.86 492.795C168.325 493.257 170.759 496.44 170.297 499.906C169.835 503.371 166.652 505.806 163.186 505.343ZM248 535.36C248 558.2 229.485 576.716 206.645 576.716C183.805 576.716 165.289 558.2 165.289 535.36C165.289 512.52 183.805 494.005 206.645 494.005C229.485 494.005 248 512.52 248 535.36ZM195.945 516.883C193.797 514.736 190.315 514.736 188.168 516.883C186.02 519.031 186.02 522.513 188.168 524.66L198.82 535.312L188.168 545.965C186.02 548.112 186.02 551.594 188.168 553.742C190.315 555.889 193.797 555.889 195.944 553.742L206.597 543.089L217.173 553.665C219.321 555.813 222.803 555.813 224.95 553.665C227.098 551.518 227.098 548.036 224.95 545.889L214.374 535.312L224.95 524.736C227.097 522.589 227.097 519.107 224.95 516.959C222.802 514.812 219.32 514.812 217.173 516.959L206.597 527.535L195.945 516.883Z" fill="url(#paint6_linear_764_1052)"/>
<defs>
<linearGradient id="paint0_linear_764_1052" x1="881" y1="622" x2="881" y2="871" gradientUnits="userSpaceOnUse">
<stop stop-color="#FFF7F4"/>
<stop offset="1" stop-color="#FFD7C4"/>
</linearGradient>
<linearGradient id="paint1_linear_764_1052" x1="881" y1="622" x2="881" y2="871" gradientUnits="userSpaceOnUse">
<stop stop-color="#FFF7F4"/>
<stop offset="1" stop-color="#FFD7C4"/>
</linearGradient>
<linearGradient id="paint2_linear_764_1052" x1="881" y1="622" x2="881" y2="871" gradientUnits="userSpaceOnUse">
<stop stop-color="#FFF7F4"/>
<stop offset="1" stop-color="#FFD7C4"/>
</linearGradient>
<linearGradient id="paint3_linear_764_1052" x1="1437.5" y1="158.5" x2="1605.5" y2="306.5" gradientUnits="userSpaceOnUse">
<stop stop-color="white"/>
<stop offset="0.506523" stop-color="#E4D0FF"/>
<stop offset="1" stop-color="#9B4CFF"/>
</linearGradient>
<linearGradient id="paint4_linear_764_1052" x1="1437.5" y1="158.5" x2="1605.5" y2="306.5" gradientUnits="userSpaceOnUse">
<stop stop-color="white"/>
<stop offset="0.506523" stop-color="#E4D0FF"/>
<stop offset="1" stop-color="#9B4CFF"/>
</linearGradient>
<linearGradient id="paint5_linear_764_1052" x1="1437.5" y1="158.5" x2="1605.5" y2="306.5" gradientUnits="userSpaceOnUse">
<stop stop-color="white"/>
<stop offset="0.506523" stop-color="#E4D0FF"/>
<stop offset="1" stop-color="#9B4CFF"/>
</linearGradient>
<linearGradient id="paint6_linear_764_1052" x1="127" y1="445" x2="203" y2="556.5" gradientUnits="userSpaceOnUse">
<stop stop-color="#FFB9B9"/>
<stop offset="1" stop-color="#FF3055"/>
</linearGradient>
</defs>
</svg>
