<svg width="507" height="523" viewBox="0 0 507 523" fill="none" xmlns="http://www.w3.org/2000/svg">
<rect x="265.876" y="346.457" width="156.247" height="156.247" stroke="#05AAF0" stroke-width="5"/>
<rect x="249.92" y="330.5" width="36.9913" height="36.9913" rx="18.4957" fill="white" stroke="#05AAF0" stroke-width="5"/>
<rect x="401.509" y="330.5" width="36.9913" height="36.9913" rx="18.4957" fill="white" stroke="#05AAF0" stroke-width="5"/>
<rect x="249.5" y="483.349" width="36.9913" height="36.9913" rx="18.4957" fill="white" stroke="#05AAF0" stroke-width="5"/>
<rect x="401.509" y="482.509" width="36.9913" height="36.9913" rx="18.4957" fill="white" stroke="#05AAF0" stroke-width="5"/>
<rect x="18.8765" y="99.4567" width="156.247" height="156.247" stroke="#05AAF0" stroke-width="5"/>
<rect x="2.91992" y="83.5" width="36.9913" height="36.9913" rx="18.4957" fill="white" stroke="#05AAF0" stroke-width="5"/>
<rect x="154.509" y="83.5" width="36.9913" height="36.9913" rx="18.4957" fill="white" stroke="#05AAF0" stroke-width="5"/>
<rect x="2.5" y="236.349" width="36.9913" height="36.9913" rx="18.4957" fill="white" stroke="#05AAF0" stroke-width="5"/>
<rect x="154.509" y="235.509" width="36.9913" height="36.9913" rx="18.4957" fill="white" stroke="#05AAF0" stroke-width="5"/>
<rect x="18.8765" y="346.457" width="156.247" height="156.247" stroke="#FF06E6" stroke-width="5"/>
<rect x="2.91992" y="330.5" width="36.9913" height="36.9913" rx="18.4957" fill="white" stroke="#FF06E6" stroke-width="5"/>
<rect x="154.509" y="330.5" width="36.9913" height="36.9913" rx="18.4957" fill="white" stroke="#FF06E6" stroke-width="5"/>
<rect x="2.5" y="483.349" width="36.9913" height="36.9913" rx="18.4957" fill="white" stroke="#FF06E6" stroke-width="5"/>
<rect x="154.509" y="482.509" width="36.9913" height="36.9913" rx="18.4957" fill="white" stroke="#FF06E6" stroke-width="5"/>
<rect x="247.643" y="26.4221" width="232.714" height="232.714" stroke="#FF06E6" stroke-width="5"/>
<rect x="224.119" y="2.89832" width="56.9048" height="56.9048" rx="22.5" fill="white" stroke="#FF06E6" stroke-width="5"/>
<rect x="447.595" y="2.89832" width="56.9048" height="56.9048" rx="22.5" fill="white" stroke="#FF06E6" stroke-width="5"/>
<rect x="223.5" y="228.232" width="56.9048" height="56.9048" rx="22.5" fill="white" stroke="#FF06E6" stroke-width="5"/>
<rect x="447.595" y="226.994" width="56.9048" height="56.9048" rx="22.5" fill="white" stroke="#FF06E6" stroke-width="5"/>
<path fill-rule="evenodd" clip-rule="evenodd" d="M385.075 106.202C385.075 121.778 373.34 134.405 358.864 134.405C344.388 134.405 332.653 121.778 332.653 106.202C332.653 90.6266 344.388 78 358.864 78C373.34 78 385.075 90.6266 385.075 106.202ZM374.377 106.202C374.377 115.984 367.097 123.272 358.864 123.272C350.631 123.272 343.352 115.984 343.352 106.202C343.352 96.421 350.631 89.1325 358.864 89.1325C367.097 89.1325 374.377 96.421 374.377 106.202Z" fill="#191919"/>
<path d="M338.2 152.187C346.498 151.287 352.29 151.131 359.762 152.168C362.69 152.574 365.381 150.433 365.771 147.386C366.161 144.339 364.104 141.539 361.176 141.133C352.6 139.943 345.911 140.158 337.092 141.114C324.61 142.467 313.646 146.208 305.64 151.753C297.686 157.262 291.999 165.085 292 174.505L292 179.302C292.001 188.53 299.191 196.005 308.055 196.005H354.05C357.004 196.005 359.399 193.512 359.399 190.438C359.399 187.364 357.004 184.872 354.05 184.872H308.055C305.096 184.872 302.699 182.377 302.699 179.302L302.698 174.503C302.698 170.178 305.302 165.36 311.568 161.021C317.782 156.717 326.968 153.404 338.2 152.187Z" fill="#191919"/>
<path d="M381.718 152.959C381.718 144.761 388.105 138.116 395.983 138.116H401.651C409.529 138.116 415.915 144.761 415.915 152.959V155.421H407.015V154.068C407.015 149.969 403.821 146.646 399.882 146.646H397.751C393.812 146.646 390.619 149.969 390.619 154.068V155.421H381.718V152.959Z" fill="#191919"/>
<path fill-rule="evenodd" clip-rule="evenodd" d="M376.873 155.566C368.995 155.566 362.608 162.211 362.608 170.409V195.508C362.608 203.705 368.995 210.351 376.873 210.351H420.736C428.614 210.351 435 203.705 435 195.508V170.409C435 162.211 428.614 155.566 420.736 155.566H376.873ZM403.727 168.146C401.048 168.146 398.877 170.405 398.877 173.192C398.877 175.979 401.048 178.238 403.727 178.238H418.057C420.735 178.238 422.906 175.979 422.906 173.192C422.906 170.405 420.735 168.146 418.057 168.146H403.727Z" fill="#191919"/>
<path fill-rule="evenodd" clip-rule="evenodd" d="M362.149 399.271C362.149 409.914 353.809 418.541 343.521 418.541C333.233 418.541 324.893 409.914 324.893 399.271C324.893 388.628 333.233 380 343.521 380C353.809 380 362.149 388.628 362.149 399.271ZM354.545 399.271C354.545 405.954 349.372 410.934 343.521 410.934C337.67 410.934 332.496 405.954 332.496 399.271C332.496 392.587 337.67 387.607 343.521 387.607C349.372 387.607 354.545 392.587 354.545 399.271Z" fill="black"/>
<path d="M328.835 430.692C334.732 430.077 338.848 429.971 344.159 430.679C346.24 430.957 348.152 429.494 348.429 427.412C348.707 425.329 347.245 423.416 345.164 423.139C339.069 422.326 334.315 422.473 328.047 423.126C319.176 424.05 311.384 426.607 305.694 430.395C300.041 434.16 295.999 439.505 296 445.942L296 449.22C296.001 455.525 301.111 460.632 307.41 460.632H340.099C342.199 460.632 343.901 458.93 343.901 456.829C343.901 454.729 342.199 453.026 340.099 453.026H307.41C305.307 453.026 303.604 451.321 303.604 449.219L303.603 445.941C303.603 442.985 305.454 439.693 309.907 436.728C314.323 433.787 320.852 431.524 328.835 430.692Z" fill="black"/>
<path d="M387.792 457.807C387.645 457.54 387.43 457.318 387.168 457.163L385.29 456.037C384.558 455.597 383.951 454.975 383.53 454.232C383.109 453.489 382.888 452.649 382.888 451.795V441.652C382.887 438.71 381.931 435.847 380.164 433.493C378.397 431.139 375.915 429.419 373.088 428.592C372.966 428.557 372.858 428.484 372.781 428.383C372.704 428.282 372.662 428.159 372.66 428.032C372.66 427.129 372.301 426.263 371.662 425.624C371.023 424.986 370.156 424.627 369.251 424.627C368.347 424.627 367.48 424.986 366.841 425.624C366.202 426.263 365.842 427.129 365.842 428.032C365.841 428.159 365.799 428.282 365.722 428.383C365.645 428.484 365.537 428.557 365.415 428.592C362.588 429.419 360.105 431.139 358.339 433.493C356.572 435.847 355.616 438.71 355.614 441.652V451.793C355.615 452.647 355.393 453.487 354.972 454.23C354.552 454.974 353.945 455.595 353.213 456.036L351.335 457.161C351.011 457.354 350.759 457.648 350.617 457.998C350.475 458.347 350.452 458.733 350.55 459.097C350.648 459.462 350.862 459.784 351.161 460.015C351.459 460.246 351.824 460.374 352.202 460.379H386.296C386.595 460.372 386.887 460.288 387.144 460.136C387.401 459.984 387.615 459.768 387.765 459.51C387.915 459.252 387.996 458.959 388 458.661C388.004 458.362 387.932 458.068 387.789 457.805L387.792 457.807Z" fill="black"/>
<path d="M365.345 467.466C366.363 468.212 367.535 468.703 368.767 468.901C370 469.099 371.26 468.998 372.448 468.606C373.637 468.215 374.722 467.542 375.617 466.643C376.512 465.743 377.194 464.64 377.609 463.422H362.402C362.957 465.052 363.985 466.464 365.345 467.466Z" fill="black"/>
<path fill-rule="evenodd" clip-rule="evenodd" d="M118.495 400.06C118.495 411.139 109.859 420.121 99.2058 420.121C88.553 420.121 79.9171 411.139 79.9171 400.06C79.9171 388.981 88.553 380 99.2058 380C109.859 380 118.495 388.981 118.495 400.06ZM110.622 400.06C110.622 407.018 105.264 412.202 99.2058 412.202C93.1472 412.202 87.7901 407.018 87.7901 400.06C87.7901 393.103 93.1472 387.919 99.2058 387.919C105.264 387.919 110.622 393.103 110.622 400.06Z" fill="black"/>
<path d="M83.999 432.769C90.1057 432.129 96.1879 432.224 100.256 432.769C101.309 432.91 105.533 434.395 108.128 434.638C110.843 434.892 111.837 432.769 112.196 431.867C112.555 430.964 112.196 428.632 110.622 427.643C108.653 426.408 101.316 425.035 100.256 424.893C93.9449 424.047 89.6733 424.213 83.1834 424.893C73.9976 425.855 65.9298 428.517 60.0381 432.461C54.1844 436.379 49.9993 441.944 50 448.644L50.0003 452.056C50.0008 458.62 55.2921 463.937 61.815 463.937H88.4462C90.6202 463.937 92.5138 462.296 92.5138 460.109C92.5138 457.923 90.6202 456.018 88.4462 456.018H61.815C59.6373 456.018 57.8734 454.244 57.8733 452.056L57.8729 448.643C57.8726 445.566 59.789 442.139 64.4 439.053C68.973 435.992 75.7331 433.635 83.999 432.769Z" fill="black"/>
<path d="M107.311 465.238C105.08 462.988 105.08 459.339 107.311 457.089L133.243 430.943C135.475 428.692 139.094 428.692 141.326 430.943C143.558 433.193 143.558 436.842 141.326 439.092L115.394 465.238C113.162 467.488 109.543 467.488 107.311 465.238Z" fill="black"/>
<path d="M95.8618 445.614C98.0938 443.364 101.712 443.364 103.944 445.614L115.399 457.163C117.631 459.413 117.631 463.062 115.399 465.312C113.167 467.563 109.548 467.563 107.316 465.312L95.8618 453.763C93.6298 451.513 93.6298 447.864 95.8618 445.614Z" fill="black"/>
<path fill-rule="evenodd" clip-rule="evenodd" d="M94.9219 173.348C104.647 173.348 112.531 165.211 112.531 155.174C112.531 145.137 104.647 137 94.9219 137C85.1965 137 77.3125 145.137 77.3125 155.174C77.3125 165.211 85.1965 173.348 94.9219 173.348ZM94.9219 166.174C100.453 166.174 105.344 161.477 105.344 155.174C105.344 148.871 100.453 144.174 94.9219 144.174C89.3907 144.174 84.5 148.871 84.5 155.174C84.5 161.477 89.3907 166.174 94.9219 166.174Z" fill="black"/>
<path fill-rule="evenodd" clip-rule="evenodd" d="M142 201.685C142 214.561 131.863 225 119.359 225C106.855 225 96.7187 214.561 96.7187 201.685C96.7187 188.808 106.855 178.37 119.359 178.37C131.863 178.37 142 188.808 142 201.685ZM116.125 202.402C116.125 200.619 117.573 199.174 119.359 199.174C121.146 199.174 122.594 200.619 122.594 202.402V212.924C122.594 214.707 121.146 216.152 119.359 216.152C117.573 216.152 116.125 214.707 116.125 212.924V202.402ZM119.359 196.304C121.146 196.304 122.594 194.805 122.594 192.957C122.594 191.108 121.146 189.609 119.359 189.609C117.573 189.609 116.125 191.108 116.125 192.957C116.125 194.805 117.573 196.304 119.359 196.304Z" fill="black"/>
<path d="M81.039 184.807C86.614 184.227 90.505 184.127 95.5251 184.795C97.4924 185.056 99.2999 183.677 99.5622 181.713C99.8245 179.75 98.4423 177.945 96.4749 177.684C90.7137 176.917 86.2193 177.056 80.2944 177.672C71.9083 178.543 64.5429 180.954 59.1641 184.527C53.8201 188.077 49.9993 193.119 50 199.189L50.0003 202.28C50.0007 208.227 54.8313 213.043 60.7863 213.043H91.6875C93.6723 213.043 95.2812 211.438 95.2812 209.457C95.2812 207.476 93.6723 205.87 91.6875 205.87H60.7863C58.7983 205.87 57.1879 204.262 57.1878 202.28L57.1875 199.188C57.1872 196.4 58.9368 193.296 63.1463 190.499C67.3212 187.726 73.4927 185.591 81.039 184.807Z" fill="black"/>
</svg>
