<?xml version="1.0" encoding="UTF-8"?>
<svg id="Layer_2" data-name="Layer 2" xmlns="http://www.w3.org/2000/svg" viewBox="0 0 1851.16 1154.65">
  <defs>
    <style>
      .cls-1 {
        fill: #fff;
        stroke-width: 0px;
      }
    </style>
  </defs>
  <g id="Layer_1-2" data-name="Layer 1">
    <g>
      <path class="cls-1" d="M400.55,367.27c2.36,1.89,3.94,3.26,5.46,5,1.54,1.71,2.88,3.97,4.59,7.63.56,1.09,1.1,2.2,1.65,3.35l-.13,58.68c-6.26,1.83-13.82,3.22-21.46,3.08-1.88-.06-3.81-.18-5.6-.54-.91-.17-1.78-.4-2.7-.6-.95-.16-2-.2-3.06-.25-4.25-.23-8.09-1.5-11.8-3.23-3.68-1.78-7.16-4.13-10.33-7.18-3.18-3.03-5.98-6.83-8.55-11.19-.59-.98-1.25-2.08-1.98-3.28-.68-1.09-1.24-2.37-1.61-3.89-.76-3.02-1.5-6.05-2.11-9.28-1.23-6.44-1.93-13.7-1.9-21.98l9.17,50.14h.02c.05-.05.23-.17.49-.44l.05-.05s.03-.03,0,0l-.08.08-.13.15c-.08.1-.1.14-.15.21-.29.36-.54.71-.75,1.05-.11.18-.18.33-.29.51-.2.31-.39.62-.56.92-.35.62-.62,1.22-.87,1.84-.45.89-.84,1.78-1.15,2.66-.16.44-.3.88-.43,1.33-.23.58-.43,1.16-.62,1.74-.38,1.16-.68,2.31-.92,3.46l-.28,1.04-.14.53c-.02.08-.01.03-.02.04-.01,0-.03,0-.04,0s-.02-.02-.03-.04c-.02-.01-.12,0-.17,0-.9-.12-3.63-.34-7.27.16-.92.13-1.82.21-2.83.41l-1.49.25-1.56.32c-1.02.18-2.13.49-3.21.72l-4.07,1.1-4.13,1.11c-1.38.35-2.73.84-4.1,1.25-2.72.87-5.48,1.63-8.16,2.65-10.84,3.72-21.47,8.21-31.82,13.41-10.35,5.2-20.41,11.15-30.13,17.71-36.27,24.48-67.67,57.7-91.83,95.66-6.04,9.49-11.66,19.27-16.81,29.28-5.12,10.03-9.75,20.31-13.91,30.75-1.04,2.61-2.1,5.22-3.02,7.86l-1.44,3.96-.72,1.98-.64,1.95-2.54,7.79c-.45,1.29-.82,2.6-1.17,3.91l-1.1,3.92c-1.59,5.21-2.64,10.49-3.93,15.73l-1.5,7.91c-.23,1.32-.55,2.63-.72,3.95l-.57,3.96-.58,3.96-.29,1.98-.19,1.98-.8,7.93c-.2,2.65-.3,5.29-.47,7.93-.06,1.32-.21,2.65-.19,3.97l-.04,3.96c-.18,5.29.12,10.56.27,15.83l.61,7.88.15,1.97.24,1.96.48,3.92.46,3.93.65,3.9.64,3.9.31,1.95.41,1.94,1.62,7.76,1.96,7.7c2.77,10.24,6.19,20.35,10.22,30.28,16.42,39.7,43.38,76.12,76.56,106.98,33.21,30.91,72.51,56.44,114.66,75.75,42.17,19.3,87.34,32.48,132.88,38.23,22.76,2.89,45.61,3.83,68.1,2.72,11.23-.61,22.4-1.65,33.39-3.3,2.75-.41,5.47-.92,8.2-1.37,2.75-.41,5.43-1.02,8.13-1.59,2.7-.59,5.41-1.08,8.09-1.73l8.04-2.03c2.69-.62,5.34-1.44,8-2.23,2.65-.8,5.33-1.52,7.97-2.38l7.9-2.67c1.31-.46,2.65-.85,3.94-1.36l3.9-1.49c2.6-1.01,5.22-1.95,7.8-3l7.7-3.28c1.28-.56,2.58-1.06,3.84-1.66l3.79-1.79c2.52-1.2,5.07-2.36,7.58-3.59l7.45-3.87c1.24-.65,2.5-1.26,3.72-1.94l3.65-2.08,7.31-4.15,7.15-4.42c1.19-.74,2.4-1.45,3.57-2.21l3.49-2.34,6.99-4.68,6.81-4.93,3.41-2.46,3.31-2.59,6.63-5.17,6.42-5.42,3.22-2.7,3.1-2.83,6.22-5.64,5.99-5.87,3-2.93,2.87-3.04,5.76-6.07,5.51-6.28,2.76-3.13,2.62-3.24,5.26-6.46,4.98-6.66,2.5-3.32,2.35-3.42,4.71-6.82,4.41-6.99,2.21-3.49,2.05-3.58,4.11-7.14,3.79-7.29c.63-1.22,1.29-2.42,1.89-3.65l1.73-3.71c1.14-2.48,2.34-4.93,3.46-7.42l3.13-7.53c.51-1.26,1.09-2.5,1.54-3.77l1.39-3.82c.91-2.55,1.91-5.08,2.76-7.64,1.55-5.17,3.39-10.27,4.63-15.5,2.96-10.37,4.83-20.94,6.44-31.51.57-5.32,1.37-10.59,1.64-15.97l.3-4.02.15-4.03c.08-2.69.27-5.37.21-8.07-.02-2.7.05-5.39-.03-8.09l-.29-8.1-.57-8.11c-.07-1.35-.22-2.7-.37-4.05l-.43-4.05c-1.23-10.8-3.08-21.58-5.53-32.27-4.96-21.38-12.38-42.36-21.86-62.49-19.11-40.19-46.54-76.93-79.89-106.54l-3.12-2.78c-1.04-.93-2.13-1.79-3.19-2.7l-3.2-2.68-1.6-1.34-1.64-1.29-6.56-5.15-6.77-5.02c-9.13-6.58-18.58-12.75-28.32-18.5-9.73-5.76-19.76-11.09-30.06-15.94-10.29-4.87-20.81-9.31-31.52-13.33-21.44-8.01-43.69-14.22-66.34-18.79-11.34-2.24-22.78-4.06-34.3-5.47-11.51-1.42-23.09-2.42-34.71-2.94-2.9-.19-5.81-.23-8.72-.33l-4.36-.14-2.49-.02-5.51-.06c-3.67-.06-7.34.06-11.02.07-3.67.06-7.34.22-11.02.32l-11.01.57-10.99.83c-3.66.38-7.3.65-10.98,1.1-7.37.98-14.74,1.82-22.11,2.86,0,0-2.18.2-6.2.57-2.01.18-4.48.4-7.37.65-1.45.12-2.99.26-4.64.4-1.65.13-3.4.28-5.24.53-3.69.44-7.76.93-12.16,1.46-2.2.26-4.49.53-6.85.8-2.36.26-4.81.69-7.33,1.05-5.05.74-10.38,1.52-15.96,2.33-5.6.95-11.45,1.94-17.48,2.97-24.21,4.24-51.82,9.95-79.99,16.16-28.16,6.17-56.92,12.78-83.29,18-11.06,2.51-21.3,4.62-30.59,6.45-9.32,1.81-17.79,3.23-25.38,4.41-7.61,1.14-14.41,1.92-20.38,2.48-2.99.27-5.76.5-8.37.63-2.6.11-5.01.17-7.23.17-8.87,0-14.7-.92-17.92-2.57-3.23-1.68-3.86-4.08-2.28-7.06,1.56-3,5.29-6.59,10.78-10.62,2.75-2.02,5.93-4.14,9.51-6.37,3.57-2.29,7.53-4.67,11.83-7.13,8.6-4.87,18.57-10.32,29.52-15.89,10.97-5.67,22.92-11.53,35.58-17.57-2.92.45,10.9-5.94,33.48-15.86,22.63-9.88,54.16-23.27,87.18-35.64,4.09-1.59,8.28-3.06,12.44-4.56,4.17-1.49,8.32-2.97,12.45-4.45,4.1-1.51,8.31-2.82,12.41-4.2,4.12-1.36,8.19-2.7,12.21-4.03,1-.33,2-.66,3-.99,1.01-.3,2.01-.61,3.01-.91,2-.6,3.99-1.19,5.95-1.78,3.93-1.17,7.79-2.33,11.54-3.45,3.74-1.16,7.46-2.12,11.05-3.07,3.6-.95,7.08-1.87,10.42-2.75,1.67-.44,3.31-.87,4.91-1.29,1.6-.42,3.16-.84,4.72-1.17,3.1-.7,6.04-1.37,8.81-2,5.54-1.25,10.38-2.34,14.37-3.23,8.09-1.51,12.73-2.38,12.73-2.38l12.82-1.63c4.3-.48,8.65-.85,12.97-1.28l13.01-.97c4.34-.23,8.68-.49,13.03-.68,4.35-.13,8.69-.31,13.04-.39,4.35-.03,8.7-.14,13.05-.1l6.53.07,1.89.02c1.72,0,3.45.07,5.17.12,3.45.12,6.89.19,10.34.36,13.78.59,27.55,1.75,41.28,3.35,27.46,3.16,54.74,8.49,81.58,15.79,13.42,3.65,26.7,7.93,39.84,12.67,13.13,4.77,26.12,10.01,38.85,15.93,25.47,11.78,50.12,25.7,73.29,42l4.35,3.04,4.28,3.15,4.27,3.17,2.13,1.59,2.11,1.66c2.81,2.22,5.63,4.41,8.41,6.65l8.21,6.88c10.82,9.32,21.16,19.15,31.01,29.43,9.87,10.26,19.14,21.08,27.92,32.28,8.76,11.21,17.04,22.8,24.67,34.83,15.22,24.07,28.3,49.58,38.48,76.4,5.1,13.4,9.59,27.07,13.28,41.01,3.66,13.95,6.59,28.13,8.73,42.48.49,3.6,1.07,7.18,1.46,10.79l1.15,10.85.78,10.9c.15,1.81.21,3.64.27,5.46l.2,5.47c.42,14.6-.02,29.26-1.35,43.89l-1.27,10.97-.66,5.48-.89,5.44-1.82,10.88-2.3,10.76-1.17,5.38c-.44,1.78-.92,3.54-1.38,5.31l-2.82,10.62c-1.05,3.5-2.17,6.98-3.26,10.46l-1.66,5.22c-.58,1.73-1.23,3.43-1.84,5.15l-3.76,10.27c-1.34,3.38-2.77,6.72-4.16,10.08l-2.1,5.03c-.72,1.67-1.52,3.29-2.27,4.94l-4.62,9.85c-1.61,3.24-3.31,6.43-4.98,9.64l-2.51,4.81c-.84,1.6-1.78,3.14-2.66,4.71l-5.4,9.38c-1.85,3.09-3.81,6.1-5.72,9.15-15.36,24.36-33.47,46.67-53.26,67.16-1.21,1.31-2.48,2.56-3.75,3.8l-3.81,3.74-3.82,3.73-1.91,1.86-1.97,1.8c-5.27,4.78-10.48,9.62-15.98,14.12-10.79,9.26-22.2,17.74-33.8,25.92l-8.85,5.92c-1.48.98-2.94,1.99-4.45,2.93l-4.53,2.8-9.08,5.57-9.27,5.26-4.64,2.62-4.73,2.46-9.47,4.9-9.65,4.57-4.83,2.27c-1.62.75-3.27,1.42-4.9,2.12l-9.84,4.19c-3.3,1.35-6.66,2.58-9.98,3.86-6.63,2.65-13.46,4.79-20.22,7.1-13.66,4.26-27.48,8.13-41.59,10.96l-5.28,1.1-2.64.55-2.65.46-10.59,1.8c-7.07.99-14.15,2.05-21.22,2.7-7.08.82-14.15,1.24-21.23,1.73-7.07.3-14.14.65-21.18.65l-5.29.06c-1.76.02-3.52-.04-5.28-.06-3.51-.07-7.04-.1-10.54-.22l-10.51-.49c-1.75-.07-3.5-.18-5.24-.32l-5.23-.39-5.23-.39c-1.74-.14-3.48-.34-5.21-.51-3.47-.36-6.95-.69-10.42-1.1l-10.37-1.35-2.59-.34-2.58-.4-5.16-.81c-54.97-8.78-108.01-25.86-157.72-50.09-24.85-12.12-48.85-26.12-71.75-41.95l-8.54-6.02c-2.82-2.04-5.6-4.15-8.4-6.23-1.39-1.05-2.8-2.07-4.18-3.15l-4.12-3.25-4.11-3.25c-1.38-1.08-2.74-2.17-4.08-3.31l-8.06-6.74c-2.66-2.28-5.27-4.64-7.91-6.96-1.31-1.17-2.64-2.31-3.93-3.51l-3.85-3.61-3.85-3.61-1.92-1.81-1.88-1.87c-20.15-19.74-38.78-41.43-55.01-65.22-2-3-4.07-5.93-6-8.99l-5.75-9.19c-1.88-3.09-3.66-6.26-5.48-9.39-1.85-3.11-3.54-6.34-5.24-9.56-3.48-6.38-6.58-13.01-9.71-19.61l-4.39-10.07c-.75-1.67-1.41-3.39-2.08-5.1l-2-5.14c-.66-1.72-1.34-3.42-1.98-5.15l-1.81-5.22-1.79-5.23c-.29-.87-.61-1.74-.88-2.62l-.8-2.65-3.16-10.62-2.74-10.76c-3.41-14.42-5.98-29.07-7.5-43.86-1.43-14.79-1.93-29.67-1.51-44.49.6-14.81,2.05-29.53,4.39-44.06.62-3.62,1.34-7.22,2.01-10.82.35-1.8.67-3.61,1.05-5.4l1.24-5.34c.85-3.55,1.63-7.13,2.57-10.65l2.94-10.51c.93-3.53,2.12-6.93,3.23-10.38l1.69-5.16c.56-1.73,1.12-3.45,1.74-5.09l3.65-9.99,3.91-9.88c10.78-26.2,23.8-51.43,39.24-75.18,7.69-11.89,15.93-23.44,24.71-34.6,8.82-11.13,18.18-21.86,28.07-32.15,19.73-20.61,41.77-39.25,65.73-55.48,13.08-8.83,26.75-16.92,40.97-24.08,14.23-7.16,28.98-13.42,44.16-18.64,3.76-1.39,7.63-2.51,11.45-3.73,1.92-.58,3.82-1.23,5.77-1.74l5.82-1.59,2.91-.79,1.46-.39c.51-.13.92-.26,1.53-.4,2.28-.53,4.5-1.1,6.85-1.56l3.5-.71,3.59-.62c2.37-.43,4.89-.74,7.38-1.06,1.22-.17,2.54-.28,3.83-.4l3.89-.33,4.06-.19c1.36-.05,2.69-.12,4.14-.09l4.26.04,1.07.02,1.12.06,2.24.14c1.51.11,2.95.18,4.52.37,1.58.19,3.15.4,4.73.62.8.12,1.55.21,2.38.36l2.49.49c1.66.34,3.31.69,4.97,1.09,1.74.48,3.47.98,5.2,1.51l2.58.81,2.69,1.02c1.79.7,3.57,1.43,5.33,2.19,1.82.87,3.63,1.8,5.41,2.75l2.66,1.46c.89.55,1.78,1.12,2.67,1.7,1.77,1.16,3.51,2.35,5.22,3.58Z"/>
      <path class="cls-1" d="M1014.05,214.47c1.55-1.85,2.11-2.53,5.98-3.47,24.79-8.1,72.8-9.73,72.95,57.85,0,1.24-.67,6.55-1.81,8.59l-104.45,127.79-12.66,15.04-58.22,71.23s-103.67,110.82-182.57,183.45c-130.35,126.13-101.85,56.44-40.39-37.53-9.05,7.66,154.39-218.73,154.39-218.73l49.95-61.17,12.43-15.23,104.39-127.83Z"/>
      <path class="cls-1" d="M682.9,278.35c-1.83-1.6-2.5-2.18-3.36-6.08-3.82-12.53-5.86-30.8,1.55-45.73,7.4-14.94,24.23-26.52,57.92-25.92,1.23.03,6.51.8,8.51,1.98,41.62,35.53,83.55,70.7,125.77,105.5,25.86,21.4,51.81,42.69,77.91,63.8,11.89,9.56,23.75,19.15,35.7,28.62,11.94,9.49,23.84,19.04,35.84,28.45,0,0,6.97,6.36,18.66,17.02,5.83,5.34,12.84,11.76,20.75,19,7.89,7.27,16.66,15.36,26.05,24.01,37.49,34.71,84.73,78.54,122.68,116.23,8.19,7.8,15.65,14.95,22.36,21.56,6.71,6.61,12.66,12.67,17.92,18.2,10.53,11.04,18.28,19.95,23.52,27.03,10.49,14.16,11.06,20.88,4.41,21.99-6.64,1.1-20.49-3.42-38.78-11.77-9.16-4.15-19.35-9.36-30.34-15.26-10.98-5.9-22.72-12.53-34.81-19.75,4.06,4.35-52.55-31.81-109.56-70.1-14.23-9.6-28.57-19.22-41.98-28.36-13.39-9.18-25.94-17.77-36.72-25.16-21.47-14.9-35.88-24.9-35.88-24.9-20.72-16.46-41.44-32.92-62.03-49.55-26.44-21.26-52.73-42.7-78.93-64.25-42.69-35.16-85.08-70.68-127.16-106.57Z"/>
      <path class="cls-1" d="M1218.83,213.69c-1.64-1.68-2.24-2.28-2.72-6.16-.32-1.57-.61-3.22-.86-4.95-.12-.86-.23-1.74-.33-2.64l-.14-1.36-.06-.69-.03-.35v-.09s-.01-.04-.01-.04v-.02c-1.93,1.95,16.73-17.08,8.85-9.04l.32-.33c1.68-1.75,3.43-3.64,4.96-5.56,1.55-1.92,2.92-3.77,4.02-5.58,1.09-1.7,1.92-3.38,2.43-4.73.53-1.29.73-2.46.76-3.11.06-.62-.09-.95-.03-.79,0-.01,0,.02.03.07l.05.11.06.1.02.02h0c.97,1.64-1.32-2.2-1.09-1.81v-.02s-.08-.12-.08-.12c-.25-.36-.38-.45-.43-.47-.05-.03.12.07.38.09.25.02.66,0,1.04-.08.78-.16,1.49-.57,1.59-.64.14-.1-.28.17-.79.82-.53.63-1.03,1.56-1.1,2.15-.09.6.15.56-.18.29-.29-.27-1.05-.62-1.75-.75,1.77.44-15.5-3.85-8.18-2.03h.07s.1,0,.1,0h.59c.27,0,.53.01.78.02.52.02,1.05.04,1.57.08,1.05.07,2.11.19,3.16.34,2.11.32,4.24.81,6.37,1.5,2.13.69,4.25,1.57,6.37,2.67.13.08.27.12.39.23.1.18.2.38.29.58.18.42.37.8.46,1.35.07.59.11,1.21.07,1.89-.07.41-.16.83-.28,1.25-.06.21-.13.43-.2.64l-.12.32-.18.38c-.9,1.95-3.15,4.38-6.29,5.65-3.12,1.29-6.03,1.4-8.37,1.25-2.39-.18-4.17-.56-5.86-1.04-1.7-.49-3.18-1.05-4.66-1.78-1.48-.74-2.9-1.62-4.35-2.86-1.44-1.25-2.9-2.81-4.25-5.23-.34-.65-.67-1.32-.97-2.02-.31-.76-.59-1.61-.83-2.46-.24-.92-.44-1.96-.59-2.97-.13-1.12-.19-2.33-.17-3.54.06-1.34.18-2.66.47-4.08.31-1.46.7-2.9,1.28-4.37.58-1.46,1.3-2.93,2.12-4.26.41-.68.86-1.34,1.33-1.99.46-.64.91-1.19,1.4-1.77.49-.57,1.01-1.13,1.55-1.67.47-.48.96-.94,1.47-1.39.51-.45,1.04-.89,1.59-1.31l.91-.79c1.28-1.04,2.57-2.03,4.16-2.92,1.57-.89,3.25-1.71,5.02-2.34.89-.32,1.8-.62,2.74-.88.88-.24,1.78-.45,2.7-.62,1.93-.37,3.57-.55,5.39-.65.95-.05,1.7-.07,2.53-.06.82,0,1.65.03,2.48.08.73.04,1.48.09,2.23.17.75.08,1.54.18,2.18.26,1.35.18,2.78.45,3.94.68.61.12,1.27.28,1.85.41.56.13,1.13.26,1.7.41.54.15,1.09.29,1.64.44.52.15,1.05.31,1.58.46,2,.59,3.94,1.26,5.68,1.89.91.34,1.75.65,2.61.99.41.17.83.33,1.25.5l.63.26c.19.07.26.03.4.05.97.03,1.95.08,2.95.14,2,.12,4.06.3,6.19.53,1.25.14,6.56,1.43,8.53,2.81,10.11,9.95,19.86,20.25,29.74,30.42,9.66,10.38,19.44,20.65,28.86,31.25,9.57,10.46,18.81,21.22,28.12,31.9l13.7,16.26c2.27,2.72,4.58,5.41,6.82,8.16l6.7,8.25c64.54,79.2,121.53,164.42,170.73,253.87,15.19,27.7,29.57,55.83,43.23,84.31,0,0,.9,2.27,2.55,6.45,1.62,4.19,4.09,10.22,6.88,17.92,5.7,15.33,13.53,36.89,21.43,62,4.08,12.5,7.97,25.97,12,39.84,3.8,13.95,7.77,28.3,11.19,42.86,3.62,14.5,6.69,29.2,9.66,43.55,1.37,7.21,2.7,14.33,3.96,21.33.31,1.75.62,3.49.93,5.22.28,1.74.55,3.47.83,5.19.53,3.45,1.05,6.85,1.57,10.21,1.31,7.43,2.5,14.43,3.4,21.07.94,6.63,1.77,12.85,2.49,18.67,1.3,11.68,2.08,21.79,2.54,30.41l-25.71-1.86c34.57-51.49,40.29-33.56,31.5,12.93l-38.83-2.81c-2.19-4.43-4.44-9.2-6.73-14.26-2.32-5.05-4.56-10.43-7.08-15.98-2.46-5.57-4.96-11.37-7.47-17.37-2.54-5.98-5.16-12.15-7.84-18.46.15,1.45-1.19-1.31-3.64-7.23-2.45-5.92-6.25-14.92-10.72-26.07-9.2-22.21-22.12-52.63-36.24-82.82-3.59-7.52-7.08-15.1-10.69-22.5-3.63-7.38-7.22-14.66-10.69-21.72-3.58-6.99-7.06-13.76-10.35-20.19-1.62-3.22-3.28-6.32-4.89-9.32-1.6-3-3.15-5.9-4.63-8.69-5.86-11.18-11.1-20.34-14.65-26.81-1.79-3.23-3.2-5.77-4.16-7.5-.99-1.72-1.52-2.63-1.52-2.63l-8.51-17.15-2.13-4.28-2.2-4.25-4.4-8.5c-5.78-11.38-11.97-22.55-18-33.8-46.42-84.17-100.15-164.37-160.94-238.8l-6.3-7.76c-2.11-2.58-4.28-5.11-6.42-7.67l-12.89-15.29c-8.77-10.04-17.45-20.16-26.46-29.98-8.85-9.97-18.06-19.6-27.13-29.37-9.29-9.55-18.45-19.23-27.96-28.57Z"/>
      <path class="cls-1" d="M1208.85,153.45c-.02.4-.05.44-2.41,1.01-3.43,1.04-8.26,2.6-13.06,6.75-2.44,2.02-4.82,4.47-7.28,7.23-2.44,2.75-4.89,5.78-7.61,8.81-2.6,3.23-5.71,6.12-9.46,8.54-1.88,1.21-3.91,2.3-6.11,3.24-2.23.9-4.73,1.53-7.51,1.84-5.49.55-12.16-.31-19.55-4.23-3.7-1.96-7.51-4.68-11.31-8.48-3.8-3.82-7.5-8.61-10.76-14.36-.47-.84-1.61-3.3-2.57-6.12-.98-2.82-1.74-5.98-1.88-8.11.51-12.61,3.07-24.37,7.11-35.37,4.06-11,9.61-21.31,16.83-30.89l2.8-3.55c.97-1.16,1.97-2.34,2.96-3.46,1.85-2,3.71-3.99,5.6-5.94,1.93-1.85,3.88-3.72,5.85-5.51,1.99-1.7,4-3.43,6.03-5.07,8.14-6.47,16.55-11.76,24.83-16.17,16.6-8.81,32.61-14.33,47.41-18.82,1.83-.54,3.7-1.11,5.5-1.62l5.42-1.51,5.42-1.51,5.45-1.41,5.45-1.4,5.47-1.31c3.65-.86,7.29-1.74,10.97-2.51l7.56-1.63,7.6-1.48c5.06-1.03,10.16-1.83,15.24-2.73,10.19-1.63,20.42-3.11,30.7-4.21,10.27-1.19,20.59-1.97,30.92-2.62l7.76-.37,3.88-.18,3.89-.1,7.77-.2,7.78-.04c41.5-.11,83.28,4.5,124.17,14.29,20.43,4.94,40.63,11.18,60.39,18.77,4.91,1.98,9.86,3.84,14.72,5.99l7.3,3.15,7.23,3.33,3.61,1.67,3.6,1.77,7.19,3.57c2.38,1.22,4.72,2.5,7.09,3.76,2.36,1.26,4.73,2.5,7.03,3.85,18.61,10.5,36.49,22.23,53.31,35.32l6.3,4.92,6.17,5.09,3.08,2.55c1.02.86,2.01,1.75,3.02,2.62l6.02,5.27c7.89,7.17,15.64,14.5,23.01,22.23,7.45,7.64,14.5,15.69,21.39,23.86l5.05,6.24,2.51,3.13,2.44,3.2,4.86,6.4,4.69,6.54c12.47,17.46,23.47,36.06,33.07,55.45,1.24,2.4,2.34,4.88,3.49,7.33,1.13,2.46,2.31,4.9,3.38,7.39,2.1,5,4.33,9.95,6.23,15.05l2.92,7.61,2.7,7.71,1.34,3.86,1.22,3.91,2.43,7.82c2.96,10.52,5.75,21.11,7.78,31.9,1.15,5.36,1.95,10.8,2.84,16.22.47,2.71.73,5.43,1.1,8.14.32,2.72.74,5.42.96,8.15,2.2,21.75,2.62,43.6,1.06,65.17-.66,10.8-1.98,21.5-3.48,32.14l-1.3,7.94-.66,3.97-.76,3.94-1.53,7.88-1.74,7.81-.88,3.91-.97,3.87-1.96,7.74-2.15,7.67-1.08,3.83c-.37,1.27-.78,2.53-1.17,3.8l-2.36,7.59c-.82,2.52-1.69,5.01-2.53,7.51-1.65,5.03-3.55,9.94-5.36,14.9-7.51,19.69-16.25,38.78-26.02,57.23-15.9,29.89-34.55,58.06-55.48,84.34,0,0-1.73,1.94-4.96,5.44-1.64,1.73-3.66,3.85-6.01,6.33-1.17,1.25-2.45,2.53-3.83,3.88-1.37,1.35-2.82,2.79-4.35,4.3-3.06,3-6.43,6.31-10.06,9.88-3.75,3.42-7.79,7.1-12.06,10.99-2.15,1.92-4.3,3.97-6.63,5.92-2.32,1.96-4.69,3.96-7.12,6.01-2.43,2.04-4.91,4.12-7.43,6.24-.63.53-1.27,1.06-1.9,1.59-.65.51-1.31,1.03-1.97,1.54-1.32,1.03-2.65,2.07-3.98,3.12-21.32,16.94-46.35,34.37-72.38,50.03-26.01,15.71-52.96,29.71-77.79,41.01-10.42,4.96-19.94,9.4-28.75,13.11-4.4,1.87-8.56,3.66-12.57,5.25-4.01,1.58-7.81,3.05-11.42,4.4-7.2,2.73-13.68,4.88-19.41,6.65-5.73,1.77-10.72,3.12-15.06,4.02-17.29,3.71-23.59,1.35-21.8-5.15,3.48-13.09,39.61-42.31,82.4-76.57-1.34.55.92-1.51,5.87-5.52,2.48-2,5.64-4.49,9.34-7.39,3.66-2.94,7.87-6.31,12.52-10.04,18.53-14.91,43.48-35.84,66.72-58.37,2.86-2.85,5.72-5.7,8.57-8.55,2.84-2.85,5.74-5.63,8.42-8.55,2.72-2.88,5.43-5.74,8.11-8.57,1.32-1.42,2.7-2.79,3.96-4.23,1.27-1.43,2.53-2.85,3.78-4.27,2.5-2.81,4.96-5.58,7.37-8.3,1.22-1.34,2.37-2.72,3.49-4.08,1.13-1.36,2.24-2.7,3.34-4.03,2.2-2.65,4.33-5.22,6.4-7.71,1.05-1.23,2.01-2.5,2.96-3.73.95-1.23,1.88-2.44,2.79-3.63,7.41-9.47,13.18-17.37,17.04-23.09,1.99-2.81,3.46-5.08,4.48-6.62,1.02-1.54,1.56-2.36,1.56-2.36,14.3-18.98,27.18-38.99,38.24-59.81,7.91-14.97,14.93-30.32,20.89-45.96,1.42-3.93,2.95-7.83,4.24-11.79.66-1.97,1.36-3.94,2-5.92l1.85-5.95c.3-.99.63-1.98.92-2.98l.84-2.99,1.68-5.98,1.51-6.01.76-3,.67-3.01,1.35-6.02,1.17-6.04.59-3.02.5-3.03.99-6.05c1.11-8.08,2.14-16.16,2.61-24.23,1.18-16.15.81-32.23-.77-48.1-.14-1.99-.48-3.95-.71-5.93-.28-1.97-.44-3.96-.8-5.91-.67-3.9-1.21-7.82-2.06-11.7-1.45-7.8-3.52-15.5-5.65-23.18l-1.79-5.72-.89-2.86-.99-2.83-1.98-5.67-2.17-5.62c-1.38-3.77-3.07-7.43-4.61-11.15-.79-1.85-1.69-3.66-2.53-5.5-.86-1.83-1.66-3.68-2.61-5.47-7.19-14.48-15.47-28.55-25-41.85l-3.57-4.99-3.72-4.89-1.86-2.45-1.93-2.39-3.87-4.79c-5.31-6.27-10.71-12.47-16.47-18.36-5.67-5.97-11.68-11.62-17.78-17.17l-4.66-4.07c-.78-.68-1.54-1.37-2.33-2.03l-2.39-1.97-4.77-3.94-4.88-3.8c-13.02-10.14-26.86-19.18-41.18-27.27-1.77-1.05-3.6-1.99-5.41-2.96-1.82-.96-3.62-1.95-5.44-2.89l-5.51-2.73-2.76-1.37-2.83-1.3-5.65-2.61-5.73-2.46c-3.79-1.69-7.7-3.13-11.55-4.7-15.55-5.96-31.56-10.91-47.89-14.86-32.68-7.8-66.62-11.61-100.74-11.5l-6.4.03-6.41.17-3.2.08-3.2.15-6.41.3c-8.54.55-17.08,1.18-25.6,2.18-8.53.9-17.02,2.15-25.5,3.5-4.23.76-8.47,1.41-12.68,2.28l-6.33,1.23-6.3,1.36c-3.06.63-6.1,1.37-9.14,2.09l-4.56,1.09-4.54,1.17-4.54,1.17-4.52,1.26-4.52,1.26c-1.51.42-2.93.86-4.39,1.29-11.51,3.45-21.55,7.21-29.25,11.34-3.85,2.05-7.1,4.17-9.73,6.26-.64.53-1.23,1.06-1.87,1.57-.56.53-1.09,1.06-1.66,1.56-.48.54-.96,1.06-1.48,1.56-.14.18-.25.31-.39.46-.12.17-.25.34-.39.5-1.06,1.39-2.12,3.31-2.81,5.22-.71,1.9-1.03,3.76-1.06,4.9Z"/>
    </g>
  </g>
</svg>