<svg width="252" height="252" viewBox="0 0 252 252" fill="none" xmlns="http://www.w3.org/2000/svg">
<circle cx="126" cy="126" r="126" fill="#EB0910"/>
<path d="M156.89 75.9651C162.176 70.6783 170.748 70.6783 176.035 75.9651C181.322 81.252 181.322 89.8237 176.035 95.1105L95.1105 176.035C89.8237 181.322 81.252 181.322 75.9652 176.035C70.6784 170.748 70.6784 162.176 75.9652 156.89L156.89 75.9651Z" fill="white"/>
<path d="M75.9651 95.1105C70.6783 89.8236 70.6783 81.252 75.9651 75.9651C81.252 70.6783 89.8236 70.6783 95.1105 75.9651L176.035 156.89C181.322 162.176 181.322 170.748 176.035 176.035C170.748 181.322 162.176 181.322 156.889 176.035L75.9651 95.1105Z" fill="white"/>
</svg>
