<svg width="252" height="252" viewBox="0 0 252 252" fill="none" xmlns="http://www.w3.org/2000/svg">
<circle cx="126" cy="126" r="126" fill="#76BC21"/>
<path d="M96.6075 169.519C90.8918 163.795 90.8918 154.515 96.6075 148.792L163.015 82.2927C168.731 76.5691 177.998 76.5691 183.713 82.2927C189.429 88.0163 189.429 97.2961 183.713 103.02L117.306 169.519C111.59 175.242 102.323 175.242 96.6075 169.519Z" fill="white"/>
<path d="M67.2868 119.607C73.0025 113.884 82.2695 113.884 87.9852 119.607L117.318 148.98C123.033 154.704 123.033 163.984 117.318 169.707C111.602 175.431 102.335 175.431 96.6194 169.707L67.2868 140.334C61.5711 134.611 61.5711 125.331 67.2868 119.607Z" fill="white"/>
</svg>
