<svg width="667" height="217" viewBox="0 0 667 217" fill="none" xmlns="http://www.w3.org/2000/svg">
<rect x="225.166" y="178.857" width="252" height="53" rx="26.5" transform="rotate(-45 225.166 178.857)" fill="black"/>
<rect x="403.191" y="215.667" width="252" height="53" rx="26.5" transform="rotate(-135 403.191 215.667)" fill="black"/>
<rect x="467" y="7" width="200" height="200" rx="50" fill="black"/>
<path fill-rule="evenodd" clip-rule="evenodd" d="M100 207C155.228 207 200 162.228 200 107C200 51.7715 155.228 7 100 7C44.7715 7 0 51.7715 0 107C0 162.228 44.7715 207 100 207ZM100.5 159C129.495 159 153 135.495 153 106.5C153 77.5051 129.495 54 100.5 54C71.5051 54 48 77.5051 48 106.5C48 135.495 71.5051 159 100.5 159Z" fill="black"/>
<rect x="524" y="64" width="86" height="86" rx="25" fill="white"/>
</svg>
