<?xml version="1.0" encoding="UTF-8"?>
<svg id="Layer_2" data-name="Layer 2" xmlns="http://www.w3.org/2000/svg" viewBox="0 0 256.11 256.13">
  <defs>
    <style>
      .cls-1 {
        fill: #000;
      }

      .cls-1, .cls-2 {
        stroke-width: 0px;
      }

      .cls-2 {
        fill: #fff;
      }
    </style>
  </defs>
  <g id="Layer_1-2" data-name="Layer 1">
    <g>
      <path class="cls-1" d="M60.05,225.3c-25.72-37.03-30.37-76.03-14.65-117.83-3.48,3.55-6.95,7.12-10.45,10.65-3.23,3.26-6.43,6.54-9.76,9.68-1.3,1.22-1.68,2.24-1.14,4.07,1.92,6.51-2,13.29-8.46,15.06-6.44,1.76-13.09-1.9-15.03-8.27-1.98-6.5,1.56-13.46,8.14-15.19,2.36-.62,5.05,0,7.59-.01.8,0,1.88,0,2.35-.46,12.63-12.58,25.21-25.22,37.79-37.85-4.98-11.24-3.93-19.73,3.3-26.5,5.69-5.32,15.37-8.13,25.39-2.15.54-.49,1.16-1.01,1.73-1.58,11.84-11.85,23.66-23.72,35.54-35.53,1.21-1.2,1.47-2.17.95-3.85-1.64-5.28.71-10.96,5.44-13.82,4.77-2.88,11-2.11,14.97,1.83,3.88,3.86,4.7,9.96,1.98,14.74-2.74,4.82-8.28,7.27-13.66,5.73-1.93-.55-2.99-.06-4.28,1.25-6.62,6.79-13.33,13.5-20.13,20.36,41.63-16.02,80.63-11.38,117.85,14.5,1.66-1.86,3.45-4.02,5.41-6.03,2.65-2.71,4.57-2.69,7.23-.05,5.38,5.34,10.75,10.7,16.09,16.09,2.56,2.58,2.54,4.47-.05,7.06-5.35,5.38-10.71,10.74-16.09,16.09-2.57,2.55-4.5,2.56-7.08.02-5.46-5.38-10.9-10.78-16.33-16.2-2.4-2.4-2.36-4.48.03-6.9,1.35-1.36,2.72-2.7,4.07-4.05.05-.05.07-.15.1-.23-34.14-26.72-87.99-29.66-126.89-2.05,3.93,9.41,3.06,18.17-4.85,25.18-6.88,6.09-14.84,6.47-23.09,2.81-23.82,31.93-28.88,85.75,1.98,127.33,1.43-1.54,2.76-3.08,4.2-4.5,2.45-2.43,4.53-2.47,6.92-.09,5.48,5.47,10.94,10.98,16.37,16.51,2.31,2.36,2.31,4.39,0,6.72-5.46,5.5-10.94,10.98-16.45,16.43-2.39,2.37-4.35,2.42-6.7.09-5.57-5.51-11.11-11.05-16.62-16.62-2.23-2.26-2.23-4.28-.01-6.51,2.05-2.07,4.22-4.01,6.3-5.97ZM73.76,86.19c7-.02,12.46-5.56,12.41-12.59-.05-6.86-5.56-12.39-12.37-12.44-6.83-.05-12.59,5.68-12.62,12.53-.02,6.9,5.63,12.52,12.58,12.5ZM85.13,234.31c-3.79-3.8-7.61-7.63-11.3-11.33-3.8,3.8-7.68,7.68-11.4,11.4,3.72,3.72,7.58,7.58,11.3,11.3,3.7-3.7,7.57-7.56,11.4-11.38ZM223.47,73.46c3.75,3.77,7.59,7.63,11.26,11.32,3.62-3.62,7.43-7.43,11.07-11.07-3.72-3.73-7.57-7.59-11.27-11.31-3.64,3.64-7.44,7.45-11.05,11.06ZM139.31,12.36c.03-2.34-1.9-4.29-4.23-4.29-2.26,0-4.09,1.79-4.17,4.07-.09,2.39,1.72,4.34,4.07,4.4,2.34.06,4.3-1.83,4.33-4.18ZM16.55,134.93c-.07-2.38-2.03-4.15-4.46-4.02-2.23.12-3.67,1.65-3.66,3.89.01,2.4,1.95,4.28,4.3,4.21,2.24-.07,3.87-1.82,3.81-4.08Z"/>
      <path class="cls-1" d="M256.04,190.79c-.35.52-.86,1.6-1.64,2.38-20.36,20.4-40.73,40.79-61.13,61.15-2.82,2.82-5.51,2.31-7.33-1.3-3.94-7.79-7.78-15.64-11.81-23.39-.61-1.18-1.88-2.35-3.11-2.83-13.16-5.17-26.35-10.24-39.58-15.22-2.39-.9-3.77-2.32-4.71-4.68-13.31-33.46-26.68-66.89-40.1-100.3-1.16-2.88-.8-4.97,1.49-7.11,4.07-3.81,7.97-7.81,11.85-11.82,1.81-1.87,3.65-2.21,6.06-1.25,33.81,13.55,67.63,27.07,101.47,40.54,2.16.86,3.27,2.3,4.05,4.36,4.99,13.14,10.07,26.24,15.05,39.38.66,1.75,1.64,2.87,3.34,3.7,7.78,3.79,15.49,7.72,23.23,11.57,1.78.89,2.99,2.09,2.87,4.82ZM102.64,96.55c17.18,17.18,34.25,34.26,51.36,51.38,14.09-6.48,25.65-4.32,32.89,6.22,6.46,9.41,5.18,22.31-3,30.19-8.37,8.07-21.12,8.86-30.47,2.01-7.83-5.73-13.78-18.68-5.56-32.17-17.16-17.16-34.28-34.27-51.46-51.46-1.23.78-2.07,1.65-1.26,3.66,12.86,31.95,25.62,63.93,38.49,95.87.4.99,1.48,2,2.48,2.39,12.31,4.84,24.67,9.53,36.99,14.35,1.58.62,2.49.32,3.65-.85,13.74-13.83,27.52-27.63,41.36-41.36,1.38-1.37,1.42-2.43.76-4.1-4.66-11.93-9.27-23.88-13.78-35.87-.7-1.87-1.74-2.94-3.6-3.68-31.61-12.58-63.2-25.21-94.77-37.91-1.99-.8-3.1-.39-4.08,1.32ZM190.63,244.5c18.02-18.02,35.94-35.93,53.86-53.84-6.17-3.08-12.69-6.34-18.98-9.48-14.88,14.88-29.55,29.53-44.37,44.34,3.18,6.37,6.44,12.88,9.49,18.98ZM167.39,151.98c-8.67.04-15.47,6.91-15.42,15.59.04,8.49,6.94,15.39,15.4,15.43,8.52.04,15.62-7.03,15.62-15.54,0-8.57-7-15.52-15.6-15.48Z"/>
      <path class="cls-2" d="M73.76,86.19c-6.95.02-12.6-5.6-12.58-12.5.02-6.86,5.79-12.59,12.62-12.53,6.82.05,12.32,5.59,12.37,12.44.05,7.02-5.41,12.57-12.41,12.59Z"/>
      <path class="cls-2" d="M85.13,234.31c-3.83,3.82-7.7,7.68-11.4,11.38-3.72-3.72-7.58-7.59-11.3-11.3,3.73-3.73,7.6-7.6,11.4-11.4,3.69,3.7,7.51,7.53,11.3,11.33Z"/>
      <path class="cls-2" d="M223.47,73.46c3.61-3.61,7.41-7.42,11.05-11.06,3.71,3.72,7.56,7.58,11.27,11.31-3.64,3.64-7.44,7.45-11.07,11.07-3.67-3.69-7.51-7.56-11.26-11.32Z"/>
      <path class="cls-2" d="M139.31,12.36c-.03,2.35-1.99,4.24-4.33,4.18-2.36-.06-4.16-2.01-4.07-4.4.09-2.28,1.92-4.06,4.17-4.07,2.33,0,4.26,1.95,4.23,4.29Z"/>
      <path class="cls-2" d="M16.55,134.93c.06,2.26-1.57,4.01-3.81,4.08-2.36.08-4.29-1.81-4.3-4.21-.01-2.24,1.43-3.78,3.66-3.89,2.43-.13,4.39,1.64,4.46,4.02Z"/>
      <path class="cls-2" d="M102.64,96.55c.98-1.71,2.09-2.12,4.08-1.32,31.56,12.7,63.15,25.33,94.77,37.91,1.87.74,2.9,1.81,3.6,3.68,4.52,11.99,9.12,23.94,13.78,35.87.65,1.67.61,2.74-.76,4.1-13.85,13.73-27.62,27.53-41.36,41.36-1.16,1.17-2.07,1.47-3.65.85-12.31-4.82-24.68-9.52-36.99-14.35-1-.39-2.09-1.41-2.48-2.39-12.86-31.94-25.63-63.93-38.49-95.87-.81-2.01.02-2.89,1.26-3.66,17.19,17.18,34.3,34.3,51.46,51.46-8.22,13.49-2.27,26.44,5.56,32.17,9.35,6.85,22.09,6.06,30.47-2.01,8.18-7.88,9.47-20.78,3-30.19-7.24-10.54-18.8-12.7-32.89-6.22-17.11-17.11-34.18-34.19-51.36-51.38Z"/>
      <path class="cls-2" d="M190.63,244.5c-3.05-6.1-6.31-12.62-9.49-18.98,14.82-14.81,29.48-29.47,44.37-44.34,6.29,3.14,12.81,6.4,18.98,9.48-17.92,17.91-35.83,35.82-53.86,53.84Z"/>
      <path class="cls-2" d="M167.39,151.98c8.6-.04,15.61,6.91,15.6,15.48,0,8.51-7.1,15.58-15.62,15.54-8.47-.04-15.36-6.94-15.4-15.43-.05-8.68,6.75-15.55,15.42-15.59Z"/>
    </g>
  </g>
</svg>