<svg width="500" height="519" viewBox="0 0 500 519" fill="none" xmlns="http://www.w3.org/2000/svg">
<path d="M456.205 313.869H310.219C302.157 313.869 295.621 320.405 295.621 328.467V474.452C295.621 482.515 302.157 489.051 310.219 489.051H456.205C464.267 489.051 470.803 482.515 470.803 474.452V328.467C470.803 320.405 464.267 313.869 456.205 313.869Z" fill="#2F88FF" stroke="black" stroke-width="14.5985" stroke-linecap="round" stroke-linejoin="round"/>
<path d="M383.211 391.727V411.192" stroke="white" stroke-width="14.5985" stroke-linecap="round"/>
<path d="M412.409 372.263V430.657" stroke="white" stroke-width="14.5985" stroke-linecap="round"/>
<path d="M441.606 381.995V420.925" stroke="white" stroke-width="14.5985" stroke-linecap="round"/>
<path d="M192.746 29.6533H44.48C36.2914 29.6533 29.6533 36.2914 29.6533 44.48V192.746C29.6533 200.935 36.2914 207.573 44.48 207.573H192.746C200.935 207.573 207.573 200.935 207.573 192.746V44.48C207.573 36.2914 200.935 29.6533 192.746 29.6533Z" fill="#2F88FF" stroke="black" stroke-width="14.5985" stroke-linecap="round" stroke-linejoin="round"/>
<path d="M59.3066 108.729V128.498" stroke="white" stroke-width="14.5985" stroke-linecap="round"/>
<path d="M88.96 88.9598V148.266" stroke="white" stroke-width="14.5985" stroke-linecap="round"/>
<path d="M118.613 98.8442V138.382" stroke="white" stroke-width="14.5985" stroke-linecap="round"/>
<path d="M313.869 58.394H452.555" stroke="black" stroke-width="14.5985" stroke-linecap="round"/>
<path d="M313.869 175.182H452.555" stroke="black" stroke-width="14.5985" stroke-linecap="round"/>
<path d="M419.708 102.19H346.715V131.387H419.708V102.19Z" fill="#2F88FF" stroke="black" stroke-width="14.5985" stroke-linecap="round" stroke-linejoin="round"/>
<path d="M62.0439 470.803V332.117" stroke="black" stroke-width="14.5985" stroke-linecap="round"/>
<path d="M178.832 470.803V332.117" stroke="black" stroke-width="14.5985" stroke-linecap="round"/>
<path d="M135.036 364.964H105.839V437.956H135.036V364.964Z" fill="#2F88FF" stroke="black" stroke-width="14.5985" stroke-linecap="round" stroke-linejoin="round"/>
</svg>
