<svg width="921" height="919" viewBox="0 0 921 919" fill="none" xmlns="http://www.w3.org/2000/svg">
<path d="M358.183 630.031L357.284 637.206C356.96 639.594 356.503 641.962 356.116 644.339C355.4 649.105 354.25 653.79 353.272 658.501C352.725 660.844 352.08 663.165 351.487 665.496C350.893 667.828 350.288 670.156 349.548 672.447L347.436 679.345C346.675 681.626 345.848 683.886 345.056 686.155L343.855 689.554C343.437 690.681 342.969 691.79 342.529 692.907L339.843 699.598L336.891 706.176L335.408 709.46L333.798 712.685L330.56 719.124L327.06 725.425L325.306 728.572L323.425 731.647L319.656 737.789L308.753 724.226C313.985 722.475 319.224 720.721 324.465 718.967C345.922 711.829 367.239 704.928 387.034 695.474C395.007 691.666 402.78 687.492 410.379 682.982C412.29 681.878 414.178 680.728 416.046 679.541L421.752 675.965L433.274 668.713C440.829 663.897 448.247 658.986 455.173 653.752C458.63 651.142 461.989 648.452 464.974 645.664C466.528 644.288 467.86 642.863 469.172 641.47L470.929 639.39C471.365 638.728 471.815 638.08 472.282 637.441L486.256 649.308C469.587 663.746 450.074 674.492 429.456 681.633C408.815 688.755 386.964 692.335 365.023 691.917C359.438 691.81 355.019 687.213 355.151 681.648C355.257 677.216 358.218 673.507 362.24 672.234L362.403 672.186C381.116 666.295 398.697 655.83 412.332 642.041C419.13 635.142 424.9 627.375 429.071 618.991C433.25 610.616 435.786 601.637 436.295 592.541C436.706 584.505 435.845 576.314 433.966 568.112C432.032 559.906 429.191 551.705 425.862 543.505C422.499 535.298 418.687 527.082 414.815 518.696C410.934 510.334 407.004 501.535 403.654 492.496C400.279 483.437 397.473 473.943 395.702 464.011C393.89 454.108 393.457 443.59 394.876 433.078C396.248 422.565 400.085 412.111 405.354 403.115C410.62 394.053 417.165 386.207 424.066 379.128C430.998 372.073 438.249 365.692 445.946 359.695C453.626 353.719 461.675 348.223 470.031 343.243C486.722 333.256 504.734 325.434 523.372 319.914C541.906 314.469 559.994 311.125 576.281 305.178C580.332 303.694 584.312 302.05 588.012 300.255C591.738 298.42 595.314 296.327 598.717 294.044C602.136 291.774 605.287 289.208 608.188 286.479C611.083 283.746 613.727 280.818 615.891 277.674C618.547 273.905 620.66 269.903 622.088 265.727C622.801 263.638 623.37 261.521 623.686 259.303C624.206 257.122 624.171 254.874 624.391 252.637C624.376 248.127 623.768 243.527 622.622 238.906C621.323 234.301 619.572 229.699 617.391 225.188C613.119 216.569 608.797 209.446 605.467 203.336C602.112 197.227 599.606 192.167 598.095 187.9C595.851 181.709 597.728 179.965 602.873 182.544C604.163 183.18 605.642 184.109 607.304 185.319C608.977 186.512 610.811 188.014 612.801 189.811C616.767 193.419 621.403 198.179 626.116 204.548C632.102 212.541 637.564 221.985 641.093 232.737C641.539 234.073 641.854 235.482 642.231 236.857C642.593 238.24 642.975 239.613 643.172 241.061L643.87 245.353C644.046 246.796 644.092 248.271 644.194 249.726L644.318 251.914C644.355 252.643 644.282 253.382 644.265 254.114C644.194 255.58 644.124 257.044 644.054 258.504C643.906 259.957 643.635 261.398 643.419 262.836C643.186 264.273 642.984 265.707 642.566 267.11C640.966 273.624 638.242 279.788 634.776 285.313C631.308 290.85 627.126 295.772 622.555 300.118C613.38 308.801 602.739 315.299 591.54 320.106C580.448 324.846 569.105 328.036 558.039 330.883C546.964 333.725 536.1 336.242 525.75 339.498C505.094 346.031 485.437 355.782 467.816 368.329C459.012 374.598 450.683 381.544 442.998 389.073C435.348 396.564 428.583 404.613 423.714 413.272C421.078 418.071 418.953 423.024 417.741 428.198C416.433 433.359 415.781 438.719 415.779 444.181C415.858 455.122 418.077 466.311 421.244 477.176C423.691 485.87 427.043 494.528 430.729 503.169C434.46 511.862 438.532 520.719 442.339 529.824C446.145 538.945 449.696 548.408 452.375 558.35C452.964 560.874 453.678 563.341 454.139 565.92L454.896 569.757L455.475 573.658L455.761 575.609L455.947 577.587L456.31 581.545L456.449 585.543L456.511 587.543L456.462 589.553C456.384 600.319 454.021 611.232 449.947 621.165C445.864 631.138 440.13 640.277 433.332 648.327C419.696 664.451 402.277 676.618 383.291 684.744C378.288 686.874 373.165 688.734 367.904 690.3L365.603 672.975C385.116 673.645 404.922 670.641 423.593 664.38C442.257 658.114 459.86 648.558 474.724 635.925L475.116 635.592C478.637 632.6 483.913 633.007 486.9 636.502C489.411 639.44 489.499 643.63 487.373 646.667L485.835 648.863C485.316 649.589 484.796 650.345 484.252 650.935C483.17 652.159 482.101 653.524 480.981 654.584C478.768 656.879 476.497 658.917 474.204 660.878C469.616 664.781 464.906 668.227 460.148 671.528C448.872 679.354 437.276 686.169 425.983 693.105L421.611 695.75L417.172 698.293C414.233 700.022 411.191 701.581 408.197 703.218C402.134 706.353 396.014 709.397 389.775 712.131C377.338 717.722 364.615 722.374 351.967 726.794L314.155 739.637L314.044 739.676C310.312 740.943 306.27 738.961 305.014 735.248C304.306 733.153 304.655 730.925 305.749 729.18C318.636 708.844 328.444 686.553 334.699 663.299C341.016 640.056 343.487 615.802 342.176 591.791C341.966 586.447 341.335 581.184 340.86 576.063L340.828 575.723C340.531 572.516 342.9 569.664 346.12 569.353C348.972 569.077 351.535 570.891 352.289 573.538C357.11 590.414 361.019 607.102 363.422 623.392C365.849 639.662 366.726 655.569 365.555 670.471C365.263 674.428 364.618 677.317 363.907 679.134C363.204 680.952 362.428 681.702 361.675 681.414C360.121 680.823 358.907 676.143 357.924 667.356C355.045 642.423 348.412 616.7 340.628 591.319C339.302 587.029 337.969 582.715 336.61 578.319L357.087 573.796C358.247 582.993 359.165 592.334 359.154 601.719C359.325 606.409 359.044 611.1 358.947 615.788C358.862 618.131 358.636 620.466 358.489 622.802C358.313 625.137 358.202 627.476 357.899 629.794C357.995 629.869 358.085 629.939 358.183 630.031Z" fill="black"/>
</svg>
