<svg width="300" height="66" viewBox="0 0 300 66" fill="none" xmlns="http://www.w3.org/2000/svg">
<rect x="0.5" y="21.5" width="299" height="44" rx="11.5" stroke="#E8EAEF"/>
<path d="M13.612 47.584C13.46 47.584 13.34 47.54 13.252 47.452C13.164 47.356 13.12 47.228 13.12 47.068V39.892H10.42C10.276 39.892 10.164 39.852 10.084 39.772C10.004 39.692 9.964 39.588 9.964 39.46C9.964 39.324 10.004 39.22 10.084 39.148C10.164 39.076 10.276 39.04 10.42 39.04H16.816C16.96 39.04 17.072 39.076 17.152 39.148C17.232 39.22 17.272 39.324 17.272 39.46C17.272 39.596 17.232 39.704 17.152 39.784C17.072 39.856 16.96 39.892 16.816 39.892H14.116V47.068C14.116 47.228 14.072 47.356 13.984 47.452C13.904 47.54 13.78 47.584 13.612 47.584ZM18.5596 49.744C18.4396 49.744 18.3436 49.712 18.2716 49.648C18.1996 49.584 18.1556 49.496 18.1396 49.384C18.1316 49.28 18.1516 49.172 18.1996 49.06L19.0276 47.2V47.62L16.7236 42.268C16.6756 42.148 16.6596 42.036 16.6756 41.932C16.6916 41.828 16.7396 41.744 16.8196 41.68C16.8996 41.616 17.0116 41.584 17.1556 41.584C17.2836 41.584 17.3836 41.612 17.4556 41.668C17.5276 41.724 17.5916 41.824 17.6476 41.968L19.6156 46.792H19.2916L21.2836 41.968C21.3476 41.824 21.4156 41.724 21.4876 41.668C21.5596 41.612 21.6636 41.584 21.7996 41.584C21.9276 41.584 22.0236 41.616 22.0876 41.68C22.1596 41.744 22.1996 41.828 22.2076 41.932C22.2236 42.028 22.2076 42.136 22.1596 42.256L19.0876 49.36C19.0236 49.504 18.9516 49.604 18.8716 49.66C18.7996 49.716 18.6956 49.744 18.5596 49.744ZM23.9076 49.744C23.7476 49.744 23.6276 49.7 23.5476 49.612C23.4676 49.532 23.4276 49.412 23.4276 49.252V42.076C23.4276 41.916 23.4676 41.796 23.5476 41.716C23.6276 41.628 23.7436 41.584 23.8956 41.584C24.0556 41.584 24.1756 41.628 24.2556 41.716C24.3436 41.796 24.3876 41.916 24.3876 42.076V43.216L24.2556 43.048C24.3836 42.592 24.6356 42.232 25.0116 41.968C25.3956 41.696 25.8516 41.56 26.3796 41.56C26.8996 41.56 27.3516 41.684 27.7356 41.932C28.1276 42.172 28.4276 42.52 28.6356 42.976C28.8516 43.424 28.9596 43.96 28.9596 44.584C28.9596 45.2 28.8516 45.736 28.6356 46.192C28.4276 46.64 28.1316 46.988 27.7476 47.236C27.3636 47.484 26.9076 47.608 26.3796 47.608C25.8516 47.608 25.3996 47.476 25.0236 47.212C24.6476 46.94 24.3916 46.58 24.2556 46.132H24.3996V49.252C24.3996 49.412 24.3556 49.532 24.2676 49.612C24.1796 49.7 24.0596 49.744 23.9076 49.744ZM26.1756 46.828C26.5436 46.828 26.8596 46.74 27.1236 46.564C27.3956 46.388 27.6036 46.132 27.7476 45.796C27.8996 45.46 27.9756 45.056 27.9756 44.584C27.9756 43.856 27.8116 43.3 27.4836 42.916C27.1636 42.532 26.7276 42.34 26.1756 42.34C25.8156 42.34 25.4996 42.428 25.2276 42.604C24.9556 42.772 24.7436 43.024 24.5916 43.36C24.4476 43.688 24.3756 44.096 24.3756 44.584C24.3756 45.304 24.5396 45.86 24.8676 46.252C25.1956 46.636 25.6316 46.828 26.1756 46.828ZM33.0517 47.608C32.4357 47.608 31.9037 47.488 31.4557 47.248C31.0157 47 30.6717 46.652 30.4237 46.204C30.1837 45.756 30.0637 45.22 30.0637 44.596C30.0637 43.988 30.1837 43.46 30.4237 43.012C30.6637 42.556 30.9917 42.2 31.4077 41.944C31.8317 41.688 32.3197 41.56 32.8717 41.56C33.2637 41.56 33.6157 41.628 33.9277 41.764C34.2397 41.892 34.5037 42.08 34.7197 42.328C34.9437 42.576 35.1117 42.876 35.2237 43.228C35.3437 43.58 35.4037 43.976 35.4037 44.416C35.4037 44.544 35.3677 44.64 35.2957 44.704C35.2237 44.76 35.1197 44.788 34.9837 44.788H30.8077V44.152H34.7557L34.5637 44.308C34.5637 43.876 34.4997 43.512 34.3717 43.216C34.2437 42.912 34.0557 42.68 33.8077 42.52C33.5677 42.36 33.2637 42.28 32.8957 42.28C32.4877 42.28 32.1397 42.376 31.8517 42.568C31.5717 42.752 31.3597 43.012 31.2157 43.348C31.0717 43.676 30.9997 44.06 30.9997 44.5V44.572C30.9997 45.308 31.1757 45.868 31.5277 46.252C31.8877 46.636 32.3957 46.828 33.0517 46.828C33.3237 46.828 33.5917 46.792 33.8557 46.72C34.1277 46.648 34.3917 46.528 34.6477 46.36C34.7597 46.288 34.8597 46.256 34.9477 46.264C35.0437 46.264 35.1197 46.292 35.1757 46.348C35.2317 46.396 35.2677 46.46 35.2837 46.54C35.3077 46.612 35.2997 46.692 35.2597 46.78C35.2277 46.868 35.1597 46.944 35.0557 47.008C34.7917 47.2 34.4797 47.348 34.1197 47.452C33.7597 47.556 33.4037 47.608 33.0517 47.608ZM40.6962 47.584C40.5442 47.584 40.4242 47.54 40.3362 47.452C40.2562 47.364 40.2162 47.24 40.2162 47.08V42.424H39.4482C39.3202 42.424 39.2162 42.392 39.1362 42.328C39.0642 42.256 39.0282 42.16 39.0282 42.04C39.0282 41.92 39.0642 41.828 39.1362 41.764C39.2162 41.7 39.3202 41.668 39.4482 41.668H40.4802L40.2162 41.92V41.464C40.2162 40.704 40.4002 40.124 40.7682 39.724C41.1442 39.324 41.6922 39.092 42.4122 39.028L42.7602 38.992C42.8722 38.984 42.9602 39.004 43.0242 39.052C43.0962 39.1 43.1402 39.16 43.1562 39.232C43.1802 39.304 43.1842 39.38 43.1682 39.46C43.1522 39.532 43.1162 39.596 43.0602 39.652C43.0042 39.708 42.9362 39.74 42.8562 39.748L42.5802 39.772C42.0922 39.812 41.7362 39.96 41.5122 40.216C41.2962 40.472 41.1882 40.848 41.1882 41.344V41.848L41.0442 41.668H42.4842C42.6202 41.668 42.7242 41.7 42.7962 41.764C42.8682 41.828 42.9042 41.92 42.9042 42.04C42.9042 42.16 42.8682 42.256 42.7962 42.328C42.7242 42.392 42.6202 42.424 42.4842 42.424H41.1882V47.08C41.1882 47.416 41.0242 47.584 40.6962 47.584ZM46.1602 47.608C45.5922 47.608 45.1002 47.484 44.6842 47.236C44.2682 46.988 43.9442 46.64 43.7122 46.192C43.4882 45.736 43.3762 45.2 43.3762 44.584C43.3762 44.12 43.4402 43.704 43.5682 43.336C43.6962 42.96 43.8842 42.64 44.1322 42.376C44.3802 42.112 44.6722 41.912 45.0082 41.776C45.3522 41.632 45.7362 41.56 46.1602 41.56C46.7282 41.56 47.2202 41.684 47.6362 41.932C48.0522 42.18 48.3722 42.532 48.5962 42.988C48.8282 43.436 48.9442 43.968 48.9442 44.584C48.9442 45.048 48.8802 45.464 48.7522 45.832C48.6242 46.2 48.4362 46.52 48.1882 46.792C47.9402 47.056 47.6442 47.26 47.3002 47.404C46.9642 47.54 46.5842 47.608 46.1602 47.608ZM46.1602 46.828C46.5202 46.828 46.8362 46.74 47.1082 46.564C47.3802 46.388 47.5882 46.132 47.7322 45.796C47.8842 45.46 47.9602 45.056 47.9602 44.584C47.9602 43.856 47.7962 43.3 47.4682 42.916C47.1482 42.532 46.7122 42.34 46.1602 42.34C45.7922 42.34 45.4722 42.428 45.2002 42.604C44.9362 42.772 44.7282 43.024 44.5762 43.36C44.4322 43.688 44.3602 44.096 44.3602 44.584C44.3602 45.304 44.5242 45.86 44.8522 46.252C45.1802 46.636 45.6162 46.828 46.1602 46.828ZM50.8962 47.584C50.7362 47.584 50.6122 47.54 50.5242 47.452C50.4442 47.364 50.4042 47.24 50.4042 47.08V42.076C50.4042 41.916 50.4442 41.796 50.5242 41.716C50.6042 41.628 50.7202 41.584 50.8722 41.584C51.0242 41.584 51.1402 41.628 51.2202 41.716C51.3082 41.796 51.3522 41.916 51.3522 42.076V43.048H51.2322C51.3602 42.576 51.6042 42.212 51.9642 41.956C52.3242 41.7 52.7682 41.564 53.2962 41.548C53.4162 41.54 53.5122 41.568 53.5842 41.632C53.6562 41.688 53.6962 41.788 53.7042 41.932C53.7122 42.068 53.6802 42.176 53.6082 42.256C53.5362 42.336 53.4242 42.384 53.2722 42.4L53.0802 42.424C52.5362 42.472 52.1162 42.648 51.8202 42.952C51.5322 43.248 51.3882 43.656 51.3882 44.176V47.08C51.3882 47.24 51.3442 47.364 51.2562 47.452C51.1762 47.54 51.0562 47.584 50.8962 47.584ZM58.2787 47.584C58.1187 47.584 57.9987 47.54 57.9187 47.452C57.8387 47.364 57.7987 47.24 57.7987 47.08V39.448C57.7987 39.288 57.8387 39.168 57.9187 39.088C57.9987 39 58.1187 38.956 58.2787 38.956C58.4307 38.956 58.5507 39 58.6387 39.088C58.7267 39.168 58.7707 39.288 58.7707 39.448V42.964H58.6147C58.7827 42.5 59.0547 42.152 59.4307 41.92C59.8147 41.68 60.2547 41.56 60.7507 41.56C61.2147 41.56 61.5987 41.644 61.9027 41.812C62.2147 41.98 62.4467 42.236 62.5987 42.58C62.7507 42.916 62.8267 43.344 62.8267 43.864V47.08C62.8267 47.24 62.7827 47.364 62.6947 47.452C62.6147 47.54 62.4987 47.584 62.3467 47.584C62.1867 47.584 62.0627 47.54 61.9747 47.452C61.8947 47.364 61.8547 47.24 61.8547 47.08V43.924C61.8547 43.38 61.7467 42.984 61.5307 42.736C61.3227 42.48 60.9867 42.352 60.5227 42.352C59.9867 42.352 59.5587 42.52 59.2387 42.856C58.9267 43.184 58.7707 43.624 58.7707 44.176V47.08C58.7707 47.416 58.6067 47.584 58.2787 47.584ZM65.099 47.56C64.939 47.56 64.819 47.516 64.739 47.428C64.659 47.332 64.619 47.2 64.619 47.032V42.124C64.619 41.956 64.659 41.828 64.739 41.74C64.819 41.652 64.939 41.608 65.099 41.608C65.251 41.608 65.371 41.652 65.459 41.74C65.547 41.828 65.591 41.956 65.591 42.124V47.032C65.591 47.2 65.547 47.332 65.459 47.428C65.379 47.516 65.259 47.56 65.099 47.56ZM65.099 40.264C64.899 40.264 64.743 40.212 64.631 40.108C64.519 39.996 64.463 39.848 64.463 39.664C64.463 39.472 64.519 39.328 64.631 39.232C64.743 39.128 64.899 39.076 65.099 39.076C65.307 39.076 65.463 39.128 65.567 39.232C65.679 39.328 65.735 39.472 65.735 39.664C65.735 39.848 65.679 39.996 65.567 40.108C65.463 40.212 65.307 40.264 65.099 40.264ZM67.8881 47.584C67.7281 47.584 67.6081 47.54 67.5281 47.452C67.4481 47.364 67.4081 47.24 67.4081 47.08V42.076C67.4081 41.916 67.4481 41.796 67.5281 41.716C67.6081 41.628 67.7241 41.584 67.8761 41.584C68.0281 41.584 68.1441 41.628 68.2241 41.716C68.3121 41.796 68.3561 41.916 68.3561 42.076V43.108L68.2241 42.964C68.3921 42.5 68.6641 42.152 69.0401 41.92C69.4241 41.68 69.8641 41.56 70.3601 41.56C70.8241 41.56 71.2081 41.644 71.5121 41.812C71.8241 41.98 72.0561 42.236 72.2081 42.58C72.3601 42.916 72.4361 43.344 72.4361 43.864V47.08C72.4361 47.24 72.3921 47.364 72.3041 47.452C72.2241 47.54 72.1081 47.584 71.9561 47.584C71.7961 47.584 71.6721 47.54 71.5841 47.452C71.5041 47.364 71.4641 47.24 71.4641 47.08V43.924C71.4641 43.38 71.3561 42.984 71.1401 42.736C70.9321 42.48 70.5961 42.352 70.1321 42.352C69.5961 42.352 69.1681 42.52 68.8481 42.856C68.5361 43.184 68.3801 43.624 68.3801 44.176V47.08C68.3801 47.416 68.2161 47.584 67.8881 47.584ZM76.5684 47.608C76.1124 47.608 75.7284 47.528 75.4164 47.368C75.1124 47.2 74.8844 46.96 74.7324 46.648C74.5804 46.328 74.5044 45.94 74.5044 45.484V42.424H73.7004C73.5644 42.424 73.4604 42.392 73.3884 42.328C73.3164 42.256 73.2804 42.16 73.2804 42.04C73.2804 41.92 73.3164 41.828 73.3884 41.764C73.4604 41.7 73.5644 41.668 73.7004 41.668H74.5044V40.288C74.5044 40.128 74.5484 40.008 74.6364 39.928C74.7244 39.84 74.8444 39.796 74.9964 39.796C75.1484 39.796 75.2644 39.84 75.3444 39.928C75.4324 40.008 75.4764 40.128 75.4764 40.288V41.668H76.9884C77.1244 41.668 77.2284 41.7 77.3004 41.764C77.3724 41.828 77.4084 41.92 77.4084 42.04C77.4084 42.16 77.3724 42.256 77.3004 42.328C77.2284 42.392 77.1244 42.424 76.9884 42.424H75.4764V45.388C75.4764 45.844 75.5724 46.192 75.7644 46.432C75.9564 46.664 76.2684 46.78 76.7004 46.78C76.8524 46.78 76.9804 46.764 77.0844 46.732C77.1964 46.7 77.2884 46.684 77.3604 46.684C77.4324 46.676 77.4924 46.7 77.5404 46.756C77.5884 46.812 77.6124 46.908 77.6124 47.044C77.6124 47.14 77.5924 47.228 77.5524 47.308C77.5204 47.388 77.4604 47.444 77.3724 47.476C77.2764 47.508 77.1484 47.536 76.9884 47.56C76.8364 47.592 76.6964 47.608 76.5684 47.608ZM79.0558 47.548C78.8558 47.548 78.6958 47.488 78.5758 47.368C78.4558 47.24 78.3958 47.08 78.3958 46.888C78.3958 46.696 78.4558 46.54 78.5758 46.42C78.6958 46.292 78.8558 46.228 79.0558 46.228C79.2558 46.228 79.4118 46.292 79.5238 46.42C79.6438 46.54 79.7038 46.696 79.7038 46.888C79.7038 47.08 79.6438 47.24 79.5238 47.368C79.4118 47.488 79.2558 47.548 79.0558 47.548ZM81.7863 47.548C81.5863 47.548 81.4263 47.488 81.3063 47.368C81.1863 47.24 81.1263 47.08 81.1263 46.888C81.1263 46.696 81.1863 46.54 81.3063 46.42C81.4263 46.292 81.5863 46.228 81.7863 46.228C81.9863 46.228 82.1423 46.292 82.2543 46.42C82.3743 46.54 82.4343 46.696 82.4343 46.888C82.4343 47.08 82.3743 47.24 82.2543 47.368C82.1423 47.488 81.9863 47.548 81.7863 47.548Z" fill="#929BAA"/>
<path d="M3.804 12.108C3.436 12.108 3.076 12.08 2.724 12.024C2.372 11.968 2.04 11.884 1.728 11.772C1.416 11.652 1.136 11.508 0.888 11.34C0.768 11.252 0.684 11.152 0.636 11.04C0.596 10.928 0.584 10.82 0.6 10.716C0.624 10.604 0.672 10.508 0.744 10.428C0.816 10.348 0.904 10.3 1.008 10.284C1.112 10.26 1.228 10.292 1.356 10.38C1.716 10.612 2.096 10.784 2.496 10.896C2.896 11 3.332 11.052 3.804 11.052C4.484 11.052 4.984 10.932 5.304 10.692C5.632 10.444 5.796 10.124 5.796 9.732C5.796 9.412 5.68 9.16 5.448 8.976C5.216 8.784 4.828 8.632 4.284 8.52L3 8.256C2.24 8.096 1.672 7.832 1.296 7.464C0.928 7.096 0.744 6.6 0.744 5.976C0.744 5.6 0.82 5.256 0.972 4.944C1.132 4.632 1.352 4.364 1.632 4.14C1.912 3.908 2.248 3.732 2.64 3.612C3.032 3.492 3.46 3.432 3.924 3.432C4.42 3.432 4.884 3.496 5.316 3.624C5.756 3.752 6.148 3.948 6.492 4.212C6.596 4.284 6.664 4.376 6.696 4.488C6.736 4.592 6.744 4.696 6.72 4.8C6.704 4.904 6.66 4.992 6.588 5.064C6.516 5.136 6.424 5.18 6.312 5.196C6.2 5.204 6.076 5.164 5.94 5.076C5.628 4.868 5.308 4.72 4.98 4.632C4.66 4.536 4.304 4.488 3.912 4.488C3.52 4.488 3.176 4.548 2.88 4.668C2.592 4.788 2.368 4.956 2.208 5.172C2.056 5.388 1.98 5.644 1.98 5.94C1.98 6.276 2.088 6.544 2.304 6.744C2.52 6.944 2.88 7.096 3.384 7.2L4.656 7.464C5.456 7.632 6.052 7.892 6.444 8.244C6.836 8.596 7.032 9.064 7.032 9.648C7.032 10.024 6.956 10.364 6.804 10.668C6.652 10.964 6.436 11.22 6.156 11.436C5.876 11.652 5.536 11.82 5.136 11.94C4.744 12.052 4.3 12.108 3.804 12.108ZM11.0648 12.108C10.4248 12.108 9.87284 11.988 9.40884 11.748C8.95284 11.5 8.59684 11.152 8.34084 10.704C8.09284 10.248 7.96884 9.708 7.96884 9.084C7.96884 8.476 8.09284 7.944 8.34084 7.488C8.58884 7.032 8.92884 6.676 9.36084 6.42C9.79284 6.164 10.2848 6.036 10.8368 6.036C11.2448 6.036 11.6088 6.104 11.9288 6.24C12.2488 6.368 12.5208 6.56 12.7448 6.816C12.9768 7.064 13.1488 7.368 13.2608 7.728C13.3808 8.088 13.4408 8.492 13.4408 8.94C13.4408 9.076 13.4008 9.18 13.3208 9.252C13.2408 9.316 13.1208 9.348 12.9608 9.348H8.92884V8.604H12.6248L12.4208 8.772C12.4208 8.372 12.3608 8.032 12.2408 7.752C12.1288 7.472 11.9568 7.26 11.7248 7.116C11.5008 6.964 11.2208 6.888 10.8848 6.888C10.5088 6.888 10.1888 6.976 9.92484 7.152C9.66884 7.328 9.47284 7.572 9.33684 7.884C9.20084 8.196 9.13284 8.56 9.13284 8.976V9.048C9.13284 9.752 9.29684 10.284 9.62484 10.644C9.96084 10.996 10.4448 11.172 11.0768 11.172C11.3168 11.172 11.5688 11.14 11.8328 11.076C12.1048 11.012 12.3608 10.904 12.6008 10.752C12.7368 10.672 12.8568 10.636 12.9608 10.644C13.0728 10.652 13.1608 10.688 13.2248 10.752C13.2968 10.816 13.3408 10.896 13.3568 10.992C13.3728 11.088 13.3568 11.188 13.3088 11.292C13.2608 11.388 13.1768 11.476 13.0568 11.556C12.7848 11.74 12.4688 11.88 12.1088 11.976C11.7488 12.064 11.4008 12.108 11.0648 12.108ZM16.6462 12.108C16.0222 12.108 15.5502 11.928 15.2302 11.568C14.9182 11.2 14.7622 10.672 14.7622 9.984V4.068C14.7622 3.868 14.8142 3.716 14.9182 3.612C15.0222 3.508 15.1702 3.456 15.3622 3.456C15.5542 3.456 15.7022 3.508 15.8062 3.612C15.9182 3.716 15.9742 3.868 15.9742 4.068V9.912C15.9742 10.312 16.0542 10.612 16.2142 10.812C16.3822 11.004 16.6222 11.1 16.9342 11.1C17.0062 11.1 17.0702 11.1 17.1262 11.1C17.1822 11.092 17.2382 11.084 17.2942 11.076C17.3902 11.068 17.4582 11.096 17.4982 11.16C17.5382 11.216 17.5582 11.336 17.5582 11.52C17.5582 11.688 17.5222 11.82 17.4502 11.916C17.3782 12.004 17.2622 12.06 17.1022 12.084C17.0302 12.092 16.9542 12.096 16.8742 12.096C16.7942 12.104 16.7182 12.108 16.6462 12.108ZM21.1195 12.108C20.4795 12.108 19.9275 11.988 19.4635 11.748C19.0075 11.5 18.6515 11.152 18.3955 10.704C18.1475 10.248 18.0235 9.708 18.0235 9.084C18.0235 8.476 18.1475 7.944 18.3955 7.488C18.6435 7.032 18.9835 6.676 19.4155 6.42C19.8475 6.164 20.3395 6.036 20.8915 6.036C21.2995 6.036 21.6635 6.104 21.9835 6.24C22.3035 6.368 22.5755 6.56 22.7995 6.816C23.0315 7.064 23.2035 7.368 23.3155 7.728C23.4355 8.088 23.4955 8.492 23.4955 8.94C23.4955 9.076 23.4555 9.18 23.3755 9.252C23.2955 9.316 23.1755 9.348 23.0155 9.348H18.9835V8.604H22.6795L22.4755 8.772C22.4755 8.372 22.4155 8.032 22.2955 7.752C22.1835 7.472 22.0115 7.26 21.7795 7.116C21.5555 6.964 21.2755 6.888 20.9395 6.888C20.5635 6.888 20.2435 6.976 19.9795 7.152C19.7235 7.328 19.5275 7.572 19.3915 7.884C19.2555 8.196 19.1875 8.56 19.1875 8.976V9.048C19.1875 9.752 19.3515 10.284 19.6795 10.644C20.0155 10.996 20.4995 11.172 21.1315 11.172C21.3715 11.172 21.6235 11.14 21.8875 11.076C22.1595 11.012 22.4155 10.904 22.6555 10.752C22.7915 10.672 22.9115 10.636 23.0155 10.644C23.1275 10.652 23.2155 10.688 23.2795 10.752C23.3515 10.816 23.3955 10.896 23.4115 10.992C23.4275 11.088 23.4115 11.188 23.3635 11.292C23.3155 11.388 23.2315 11.476 23.1115 11.556C22.8395 11.74 22.5235 11.88 22.1635 11.976C21.8035 12.064 21.4555 12.108 21.1195 12.108ZM27.3968 12.108C26.7968 12.108 26.2768 11.984 25.8368 11.736C25.4048 11.48 25.0688 11.124 24.8288 10.668C24.5888 10.204 24.4688 9.66 24.4688 9.036C24.4688 8.572 24.5368 8.156 24.6728 7.788C24.8088 7.412 25.0008 7.096 25.2488 6.84C25.5048 6.584 25.8128 6.388 26.1728 6.252C26.5408 6.108 26.9488 6.036 27.3968 6.036C27.6768 6.036 27.9688 6.08 28.2728 6.168C28.5848 6.248 28.8728 6.384 29.1368 6.576C29.2408 6.64 29.3048 6.72 29.3288 6.816C29.3608 6.904 29.3648 6.996 29.3408 7.092C29.3248 7.188 29.2808 7.272 29.2088 7.344C29.1448 7.408 29.0648 7.448 28.9688 7.464C28.8728 7.472 28.7688 7.444 28.6568 7.38C28.4648 7.244 28.2688 7.148 28.0688 7.092C27.8688 7.028 27.6768 6.996 27.4928 6.996C27.2048 6.996 26.9488 7.044 26.7248 7.14C26.5088 7.228 26.3248 7.36 26.1728 7.536C26.0208 7.704 25.9048 7.916 25.8248 8.172C25.7528 8.428 25.7168 8.72 25.7168 9.048C25.7168 9.704 25.8688 10.22 26.1728 10.596C26.4848 10.964 26.9248 11.148 27.4928 11.148C27.6768 11.148 27.8688 11.12 28.0688 11.064C28.2688 11.008 28.4648 10.912 28.6568 10.776C28.7688 10.712 28.8728 10.688 28.9688 10.704C29.0648 10.72 29.1408 10.764 29.1968 10.836C29.2608 10.9 29.3008 10.98 29.3168 11.076C29.3408 11.164 29.3368 11.256 29.3048 11.352C29.2728 11.448 29.2048 11.528 29.1008 11.592C28.8448 11.776 28.5648 11.908 28.2608 11.988C27.9648 12.068 27.6768 12.108 27.3968 12.108ZM32.9261 12.108C32.4461 12.108 32.0421 12.024 31.7141 11.856C31.3861 11.688 31.1421 11.44 30.9821 11.112C30.8221 10.784 30.7421 10.384 30.7421 9.912V7.08H30.0221C29.8621 7.08 29.7381 7.04 29.6501 6.96C29.5621 6.872 29.5181 6.756 29.5181 6.612C29.5181 6.46 29.5621 6.344 29.6501 6.264C29.7381 6.184 29.8621 6.144 30.0221 6.144H30.7421V4.908C30.7421 4.708 30.7941 4.556 30.8981 4.452C31.0101 4.348 31.1621 4.296 31.3541 4.296C31.5461 4.296 31.6941 4.348 31.7981 4.452C31.9021 4.556 31.9541 4.708 31.9541 4.908V6.144H33.3581C33.5181 6.144 33.6421 6.184 33.7301 6.264C33.8181 6.344 33.8621 6.46 33.8621 6.612C33.8621 6.756 33.8181 6.872 33.7301 6.96C33.6421 7.04 33.5181 7.08 33.3581 7.08H31.9541V9.816C31.9541 10.24 32.0421 10.56 32.2181 10.776C32.4021 10.992 32.6981 11.1 33.1061 11.1C33.2501 11.1 33.3741 11.088 33.4781 11.064C33.5901 11.032 33.6821 11.012 33.7541 11.004C33.8421 11.004 33.9141 11.036 33.9701 11.1C34.0261 11.156 34.0541 11.268 34.0541 11.436C34.0541 11.556 34.0301 11.668 33.9821 11.772C33.9421 11.876 33.8661 11.944 33.7541 11.976C33.6581 12.008 33.5261 12.036 33.3581 12.06C33.1981 12.092 33.0541 12.108 32.9261 12.108ZM38.781 12C38.565 12 38.397 11.944 38.277 11.832C38.165 11.712 38.109 11.544 38.109 11.328V4.212C38.109 3.996 38.165 3.832 38.277 3.72C38.397 3.6 38.565 3.54 38.781 3.54H43.161C43.329 3.54 43.457 3.584 43.545 3.672C43.633 3.752 43.677 3.872 43.677 4.032C43.677 4.2 43.633 4.328 43.545 4.416C43.457 4.504 43.329 4.548 43.161 4.548H39.309V7.2H42.897C43.073 7.2 43.201 7.244 43.281 7.332C43.369 7.42 43.413 7.544 43.413 7.704C43.413 7.872 43.369 8 43.281 8.088C43.201 8.168 43.073 8.208 42.897 8.208H39.309V10.992H43.161C43.329 10.992 43.457 11.036 43.545 11.124C43.633 11.212 43.677 11.336 43.677 11.496C43.677 11.664 43.633 11.792 43.545 11.88C43.457 11.96 43.329 12 43.161 12H38.781ZM45.6674 12.084C45.4754 12.084 45.3274 12.032 45.2234 11.928C45.1194 11.816 45.0674 11.664 45.0674 11.472V6.672C45.0674 6.472 45.1194 6.32 45.2234 6.216C45.3274 6.112 45.4714 6.06 45.6554 6.06C45.8474 6.06 45.9914 6.112 46.0874 6.216C46.1914 6.32 46.2434 6.472 46.2434 6.672V7.656L46.1114 7.392C46.2714 6.968 46.5194 6.636 46.8554 6.396C47.1914 6.156 47.5954 6.036 48.0674 6.036C48.5554 6.036 48.9514 6.152 49.2554 6.384C49.5594 6.616 49.7674 6.972 49.8794 7.452H49.7114C49.8634 7.012 50.1234 6.668 50.4914 6.42C50.8594 6.164 51.2874 6.036 51.7754 6.036C52.2234 6.036 52.5914 6.124 52.8794 6.3C53.1674 6.468 53.3834 6.728 53.5274 7.08C53.6714 7.424 53.7434 7.86 53.7434 8.388V11.472C53.7434 11.664 53.6874 11.816 53.5754 11.928C53.4714 12.032 53.3234 12.084 53.1314 12.084C52.9394 12.084 52.7914 12.032 52.6874 11.928C52.5834 11.816 52.5314 11.664 52.5314 11.472V8.448C52.5314 7.952 52.4434 7.588 52.2674 7.356C52.0994 7.124 51.8194 7.008 51.4274 7.008C50.9874 7.008 50.6394 7.16 50.3834 7.464C50.1274 7.768 49.9994 8.188 49.9994 8.724V11.472C49.9994 11.664 49.9474 11.816 49.8434 11.928C49.7394 12.032 49.5914 12.084 49.3994 12.084C49.2074 12.084 49.0554 12.032 48.9434 11.928C48.8394 11.816 48.7874 11.664 48.7874 11.472V8.448C48.7874 7.952 48.7034 7.588 48.5354 7.356C48.3674 7.124 48.0874 7.008 47.6954 7.008C47.2554 7.008 46.9074 7.16 46.6514 7.464C46.4034 7.768 46.2794 8.188 46.2794 8.724V11.472C46.2794 11.88 46.0754 12.084 45.6674 12.084ZM56.0379 14.244C55.8459 14.244 55.6979 14.192 55.5939 14.088C55.4899 13.984 55.4379 13.832 55.4379 13.632V6.672C55.4379 6.472 55.4899 6.32 55.5939 6.216C55.6979 6.112 55.8419 6.06 56.0259 6.06C56.2179 6.06 56.3659 6.112 56.4699 6.216C56.5739 6.32 56.6259 6.472 56.6259 6.672V7.716L56.4939 7.464C56.6219 7.032 56.8739 6.688 57.2499 6.432C57.6259 6.168 58.0699 6.036 58.5819 6.036C59.1019 6.036 59.5539 6.16 59.9379 6.408C60.3299 6.656 60.6299 7.004 60.8379 7.452C61.0539 7.9 61.1619 8.44 61.1619 9.072C61.1619 9.688 61.0539 10.228 60.8379 10.692C60.6299 11.148 60.3339 11.5 59.9499 11.748C59.5659 11.988 59.1099 12.108 58.5819 12.108C58.0779 12.108 57.6379 11.98 57.2619 11.724C56.8859 11.468 56.6339 11.128 56.5059 10.704H56.6499V13.632C56.6499 13.832 56.5939 13.984 56.4819 14.088C56.3779 14.192 56.2299 14.244 56.0379 14.244ZM58.2819 11.172C58.6179 11.172 58.9099 11.092 59.1579 10.932C59.4059 10.772 59.5979 10.536 59.7339 10.224C59.8699 9.912 59.9379 9.528 59.9379 9.072C59.9379 8.384 59.7859 7.864 59.4819 7.512C59.1859 7.16 58.7859 6.984 58.2819 6.984C57.9539 6.984 57.6619 7.064 57.4059 7.224C57.1579 7.376 56.9659 7.608 56.8299 7.92C56.6939 8.232 56.6259 8.616 56.6259 9.072C56.6259 9.752 56.7779 10.272 57.0819 10.632C57.3859 10.992 57.7859 11.172 58.2819 11.172ZM64.4118 12.108C63.7878 12.108 63.3158 11.928 62.9958 11.568C62.6838 11.2 62.5278 10.672 62.5278 9.984V4.068C62.5278 3.868 62.5798 3.716 62.6838 3.612C62.7878 3.508 62.9358 3.456 63.1278 3.456C63.3198 3.456 63.4678 3.508 63.5718 3.612C63.6838 3.716 63.7398 3.868 63.7398 4.068V9.912C63.7398 10.312 63.8198 10.612 63.9798 10.812C64.1478 11.004 64.3878 11.1 64.6998 11.1C64.7718 11.1 64.8358 11.1 64.8918 11.1C64.9478 11.092 65.0038 11.084 65.0598 11.076C65.1558 11.068 65.2238 11.096 65.2638 11.16C65.3038 11.216 65.3238 11.336 65.3238 11.52C65.3238 11.688 65.2878 11.82 65.2158 11.916C65.1438 12.004 65.0278 12.06 64.8678 12.084C64.7958 12.092 64.7198 12.096 64.6398 12.096C64.5598 12.104 64.4838 12.108 64.4118 12.108ZM68.6812 12.108C68.0892 12.108 67.5772 11.984 67.1452 11.736C66.7212 11.488 66.3892 11.136 66.1492 10.68C65.9092 10.224 65.7892 9.688 65.7892 9.072C65.7892 8.6 65.8572 8.18 65.9932 7.812C66.1292 7.444 66.3212 7.128 66.5692 6.864C66.8252 6.592 67.1292 6.388 67.4812 6.252C67.8412 6.108 68.2412 6.036 68.6812 6.036C69.2652 6.036 69.7692 6.16 70.1932 6.408C70.6252 6.656 70.9612 7.008 71.2012 7.464C71.4412 7.912 71.5612 8.448 71.5612 9.072C71.5612 9.536 71.4932 9.956 71.3572 10.332C71.2212 10.708 71.0252 11.028 70.7692 11.292C70.5212 11.556 70.2172 11.76 69.8572 11.904C69.5052 12.04 69.1132 12.108 68.6812 12.108ZM68.6812 11.172C69.0092 11.172 69.2972 11.092 69.5452 10.932C69.7932 10.772 69.9852 10.536 70.1212 10.224C70.2652 9.912 70.3372 9.528 70.3372 9.072C70.3372 8.384 70.1852 7.864 69.8812 7.512C69.5772 7.16 69.1772 6.984 68.6812 6.984C68.3452 6.984 68.0532 7.064 67.8052 7.224C67.5572 7.376 67.3612 7.608 67.2172 7.92C67.0812 8.232 67.0132 8.616 67.0132 9.072C67.0132 9.752 67.1652 10.272 67.4692 10.632C67.7732 10.992 68.1772 11.172 68.6812 11.172ZM74.1968 14.244C74.0528 14.244 73.9328 14.204 73.8368 14.124C73.7488 14.052 73.6968 13.952 73.6808 13.824C73.6728 13.704 73.6968 13.572 73.7528 13.428L74.5688 11.592V12.108L72.3248 6.888C72.2688 6.744 72.2488 6.608 72.2648 6.48C72.2808 6.352 72.3408 6.252 72.4448 6.18C72.5488 6.1 72.6888 6.06 72.8648 6.06C73.0168 6.06 73.1368 6.096 73.2248 6.168C73.3128 6.24 73.3928 6.364 73.4648 6.54L75.2768 11.016H74.9408L76.7768 6.54C76.8488 6.356 76.9328 6.232 77.0288 6.168C77.1248 6.096 77.2568 6.06 77.4248 6.06C77.5688 6.06 77.6808 6.1 77.7608 6.18C77.8488 6.252 77.9008 6.352 77.9168 6.48C77.9408 6.6 77.9208 6.732 77.8568 6.876L74.8568 13.776C74.7768 13.96 74.6848 14.084 74.5808 14.148C74.4848 14.212 74.3568 14.244 74.1968 14.244ZM81.6938 12.108C81.0538 12.108 80.5018 11.988 80.0378 11.748C79.5818 11.5 79.2258 11.152 78.9698 10.704C78.7218 10.248 78.5978 9.708 78.5978 9.084C78.5978 8.476 78.7218 7.944 78.9698 7.488C79.2178 7.032 79.5578 6.676 79.9898 6.42C80.4218 6.164 80.9138 6.036 81.4658 6.036C81.8738 6.036 82.2378 6.104 82.5578 6.24C82.8778 6.368 83.1498 6.56 83.3738 6.816C83.6058 7.064 83.7778 7.368 83.8898 7.728C84.0098 8.088 84.0698 8.492 84.0698 8.94C84.0698 9.076 84.0298 9.18 83.9498 9.252C83.8698 9.316 83.7498 9.348 83.5898 9.348H79.5578V8.604H83.2538L83.0498 8.772C83.0498 8.372 82.9898 8.032 82.8698 7.752C82.7578 7.472 82.5858 7.26 82.3538 7.116C82.1298 6.964 81.8498 6.888 81.5138 6.888C81.1378 6.888 80.8178 6.976 80.5538 7.152C80.2978 7.328 80.1018 7.572 79.9658 7.884C79.8298 8.196 79.7618 8.56 79.7618 8.976V9.048C79.7618 9.752 79.9258 10.284 80.2538 10.644C80.5898 10.996 81.0738 11.172 81.7058 11.172C81.9458 11.172 82.1978 11.14 82.4618 11.076C82.7338 11.012 82.9898 10.904 83.2298 10.752C83.3658 10.672 83.4858 10.636 83.5898 10.644C83.7018 10.652 83.7898 10.688 83.8538 10.752C83.9258 10.816 83.9698 10.896 83.9858 10.992C84.0018 11.088 83.9858 11.188 83.9378 11.292C83.8898 11.388 83.8058 11.476 83.6858 11.556C83.4138 11.74 83.0978 11.88 82.7378 11.976C82.3778 12.064 82.0298 12.108 81.6938 12.108ZM88.1391 12.108C87.4991 12.108 86.9471 11.988 86.4831 11.748C86.0271 11.5 85.6711 11.152 85.4151 10.704C85.1671 10.248 85.0431 9.708 85.0431 9.084C85.0431 8.476 85.1671 7.944 85.4151 7.488C85.6631 7.032 86.0031 6.676 86.4351 6.42C86.8671 6.164 87.3591 6.036 87.9111 6.036C88.3191 6.036 88.6831 6.104 89.0031 6.24C89.3231 6.368 89.5951 6.56 89.8191 6.816C90.0511 7.064 90.2231 7.368 90.3351 7.728C90.4551 8.088 90.5151 8.492 90.5151 8.94C90.5151 9.076 90.4751 9.18 90.3951 9.252C90.3151 9.316 90.1951 9.348 90.0351 9.348H86.0031V8.604H89.6991L89.4951 8.772C89.4951 8.372 89.4351 8.032 89.3151 7.752C89.2031 7.472 89.0311 7.26 88.7991 7.116C88.5751 6.964 88.2951 6.888 87.9591 6.888C87.5831 6.888 87.2631 6.976 86.9991 7.152C86.7431 7.328 86.5471 7.572 86.4111 7.884C86.2751 8.196 86.2071 8.56 86.2071 8.976V9.048C86.2071 9.752 86.3711 10.284 86.6991 10.644C87.0351 10.996 87.5191 11.172 88.1511 11.172C88.3911 11.172 88.6431 11.14 88.9071 11.076C89.1791 11.012 89.4351 10.904 89.6751 10.752C89.8111 10.672 89.9311 10.636 90.0351 10.644C90.1471 10.652 90.2351 10.688 90.2991 10.752C90.3711 10.816 90.4151 10.896 90.4311 10.992C90.4471 11.088 90.4311 11.188 90.3831 11.292C90.3351 11.388 90.2511 11.476 90.1311 11.556C89.8591 11.74 89.5431 11.88 89.1831 11.976C88.8231 12.064 88.4751 12.108 88.1391 12.108Z" fill="#64728C"/>
</svg>
