<svg width="310" height="75" viewBox="0 0 310 75" fill="none" xmlns="http://www.w3.org/2000/svg">
<g filter="url(#filter0_d_606_5595)">
<rect x="5" y="21" width="300" height="45" rx="12" fill="white" shape-rendering="crispEdges"/>
<rect x="5.5" y="21.5" width="299" height="44" rx="11.5" stroke="#64728C" shape-rendering="crispEdges"/>
<path d="M18.612 47.584C18.46 47.584 18.34 47.54 18.252 47.452C18.164 47.356 18.12 47.228 18.12 47.068V39.892H15.42C15.276 39.892 15.164 39.852 15.084 39.772C15.004 39.692 14.964 39.588 14.964 39.46C14.964 39.324 15.004 39.22 15.084 39.148C15.164 39.076 15.276 39.04 15.42 39.04H21.816C21.96 39.04 22.072 39.076 22.152 39.148C22.232 39.22 22.272 39.324 22.272 39.46C22.272 39.596 22.232 39.704 22.152 39.784C22.072 39.856 21.96 39.892 21.816 39.892H19.116V47.068C19.116 47.228 19.072 47.356 18.984 47.452C18.904 47.54 18.78 47.584 18.612 47.584ZM23.5596 49.744C23.4396 49.744 23.3436 49.712 23.2716 49.648C23.1996 49.584 23.1556 49.496 23.1396 49.384C23.1316 49.28 23.1516 49.172 23.1996 49.06L24.0276 47.2V47.62L21.7236 42.268C21.6756 42.148 21.6596 42.036 21.6756 41.932C21.6916 41.828 21.7396 41.744 21.8196 41.68C21.8996 41.616 22.0116 41.584 22.1556 41.584C22.2836 41.584 22.3836 41.612 22.4556 41.668C22.5276 41.724 22.5916 41.824 22.6476 41.968L24.6156 46.792H24.2916L26.2836 41.968C26.3476 41.824 26.4156 41.724 26.4876 41.668C26.5596 41.612 26.6636 41.584 26.7996 41.584C26.9276 41.584 27.0236 41.616 27.0876 41.68C27.1596 41.744 27.1996 41.828 27.2076 41.932C27.2236 42.028 27.2076 42.136 27.1596 42.256L24.0876 49.36C24.0236 49.504 23.9516 49.604 23.8716 49.66C23.7996 49.716 23.6956 49.744 23.5596 49.744ZM28.9076 49.744C28.7476 49.744 28.6276 49.7 28.5476 49.612C28.4676 49.532 28.4276 49.412 28.4276 49.252V42.076C28.4276 41.916 28.4676 41.796 28.5476 41.716C28.6276 41.628 28.7436 41.584 28.8956 41.584C29.0556 41.584 29.1756 41.628 29.2556 41.716C29.3436 41.796 29.3876 41.916 29.3876 42.076V43.216L29.2556 43.048C29.3836 42.592 29.6356 42.232 30.0116 41.968C30.3956 41.696 30.8516 41.56 31.3796 41.56C31.8996 41.56 32.3516 41.684 32.7356 41.932C33.1276 42.172 33.4276 42.52 33.6356 42.976C33.8516 43.424 33.9596 43.96 33.9596 44.584C33.9596 45.2 33.8516 45.736 33.6356 46.192C33.4276 46.64 33.1316 46.988 32.7476 47.236C32.3636 47.484 31.9076 47.608 31.3796 47.608C30.8516 47.608 30.3996 47.476 30.0236 47.212C29.6476 46.94 29.3916 46.58 29.2556 46.132H29.3996V49.252C29.3996 49.412 29.3556 49.532 29.2676 49.612C29.1796 49.7 29.0596 49.744 28.9076 49.744ZM31.1756 46.828C31.5436 46.828 31.8596 46.74 32.1236 46.564C32.3956 46.388 32.6036 46.132 32.7476 45.796C32.8996 45.46 32.9756 45.056 32.9756 44.584C32.9756 43.856 32.8116 43.3 32.4836 42.916C32.1636 42.532 31.7276 42.34 31.1756 42.34C30.8156 42.34 30.4996 42.428 30.2276 42.604C29.9556 42.772 29.7436 43.024 29.5916 43.36C29.4476 43.688 29.3756 44.096 29.3756 44.584C29.3756 45.304 29.5396 45.86 29.8676 46.252C30.1956 46.636 30.6316 46.828 31.1756 46.828ZM38.0517 47.608C37.4357 47.608 36.9037 47.488 36.4557 47.248C36.0157 47 35.6717 46.652 35.4237 46.204C35.1837 45.756 35.0637 45.22 35.0637 44.596C35.0637 43.988 35.1837 43.46 35.4237 43.012C35.6637 42.556 35.9917 42.2 36.4077 41.944C36.8317 41.688 37.3197 41.56 37.8717 41.56C38.2637 41.56 38.6157 41.628 38.9277 41.764C39.2397 41.892 39.5037 42.08 39.7197 42.328C39.9437 42.576 40.1117 42.876 40.2237 43.228C40.3437 43.58 40.4037 43.976 40.4037 44.416C40.4037 44.544 40.3677 44.64 40.2957 44.704C40.2237 44.76 40.1197 44.788 39.9837 44.788H35.8077V44.152H39.7557L39.5637 44.308C39.5637 43.876 39.4997 43.512 39.3717 43.216C39.2437 42.912 39.0557 42.68 38.8077 42.52C38.5677 42.36 38.2637 42.28 37.8957 42.28C37.4877 42.28 37.1397 42.376 36.8517 42.568C36.5717 42.752 36.3597 43.012 36.2157 43.348C36.0717 43.676 35.9997 44.06 35.9997 44.5V44.572C35.9997 45.308 36.1757 45.868 36.5277 46.252C36.8877 46.636 37.3957 46.828 38.0517 46.828C38.3237 46.828 38.5917 46.792 38.8557 46.72C39.1277 46.648 39.3917 46.528 39.6477 46.36C39.7597 46.288 39.8597 46.256 39.9477 46.264C40.0437 46.264 40.1197 46.292 40.1757 46.348C40.2317 46.396 40.2677 46.46 40.2837 46.54C40.3077 46.612 40.2997 46.692 40.2597 46.78C40.2277 46.868 40.1597 46.944 40.0557 47.008C39.7917 47.2 39.4797 47.348 39.1197 47.452C38.7597 47.556 38.4037 47.608 38.0517 47.608ZM45.6962 47.584C45.5442 47.584 45.4242 47.54 45.3362 47.452C45.2562 47.364 45.2162 47.24 45.2162 47.08V42.424H44.4482C44.3202 42.424 44.2162 42.392 44.1362 42.328C44.0642 42.256 44.0282 42.16 44.0282 42.04C44.0282 41.92 44.0642 41.828 44.1362 41.764C44.2162 41.7 44.3202 41.668 44.4482 41.668H45.4802L45.2162 41.92V41.464C45.2162 40.704 45.4002 40.124 45.7682 39.724C46.1442 39.324 46.6922 39.092 47.4122 39.028L47.7602 38.992C47.8722 38.984 47.9602 39.004 48.0242 39.052C48.0962 39.1 48.1402 39.16 48.1562 39.232C48.1802 39.304 48.1842 39.38 48.1682 39.46C48.1522 39.532 48.1162 39.596 48.0602 39.652C48.0042 39.708 47.9362 39.74 47.8562 39.748L47.5802 39.772C47.0922 39.812 46.7362 39.96 46.5122 40.216C46.2962 40.472 46.1882 40.848 46.1882 41.344V41.848L46.0442 41.668H47.4842C47.6202 41.668 47.7242 41.7 47.7962 41.764C47.8682 41.828 47.9042 41.92 47.9042 42.04C47.9042 42.16 47.8682 42.256 47.7962 42.328C47.7242 42.392 47.6202 42.424 47.4842 42.424H46.1882V47.08C46.1882 47.416 46.0242 47.584 45.6962 47.584ZM51.1602 47.608C50.5922 47.608 50.1002 47.484 49.6842 47.236C49.2682 46.988 48.9442 46.64 48.7122 46.192C48.4882 45.736 48.3762 45.2 48.3762 44.584C48.3762 44.12 48.4402 43.704 48.5682 43.336C48.6962 42.96 48.8842 42.64 49.1322 42.376C49.3802 42.112 49.6722 41.912 50.0082 41.776C50.3522 41.632 50.7362 41.56 51.1602 41.56C51.7282 41.56 52.2202 41.684 52.6362 41.932C53.0522 42.18 53.3722 42.532 53.5962 42.988C53.8282 43.436 53.9442 43.968 53.9442 44.584C53.9442 45.048 53.8802 45.464 53.7522 45.832C53.6242 46.2 53.4362 46.52 53.1882 46.792C52.9402 47.056 52.6442 47.26 52.3002 47.404C51.9642 47.54 51.5842 47.608 51.1602 47.608ZM51.1602 46.828C51.5202 46.828 51.8362 46.74 52.1082 46.564C52.3802 46.388 52.5882 46.132 52.7322 45.796C52.8842 45.46 52.9602 45.056 52.9602 44.584C52.9602 43.856 52.7962 43.3 52.4682 42.916C52.1482 42.532 51.7122 42.34 51.1602 42.34C50.7922 42.34 50.4722 42.428 50.2002 42.604C49.9362 42.772 49.7282 43.024 49.5762 43.36C49.4322 43.688 49.3602 44.096 49.3602 44.584C49.3602 45.304 49.5242 45.86 49.8522 46.252C50.1802 46.636 50.6162 46.828 51.1602 46.828ZM55.8962 47.584C55.7362 47.584 55.6122 47.54 55.5242 47.452C55.4442 47.364 55.4042 47.24 55.4042 47.08V42.076C55.4042 41.916 55.4442 41.796 55.5242 41.716C55.6042 41.628 55.7202 41.584 55.8722 41.584C56.0242 41.584 56.1402 41.628 56.2202 41.716C56.3082 41.796 56.3522 41.916 56.3522 42.076V43.048H56.2322C56.3602 42.576 56.6042 42.212 56.9642 41.956C57.3242 41.7 57.7682 41.564 58.2962 41.548C58.4162 41.54 58.5122 41.568 58.5842 41.632C58.6562 41.688 58.6962 41.788 58.7042 41.932C58.7122 42.068 58.6802 42.176 58.6082 42.256C58.5362 42.336 58.4242 42.384 58.2722 42.4L58.0802 42.424C57.5362 42.472 57.1162 42.648 56.8202 42.952C56.5322 43.248 56.3882 43.656 56.3882 44.176V47.08C56.3882 47.24 56.3442 47.364 56.2562 47.452C56.1762 47.54 56.0562 47.584 55.8962 47.584ZM63.2787 47.584C63.1187 47.584 62.9987 47.54 62.9187 47.452C62.8387 47.364 62.7987 47.24 62.7987 47.08V39.448C62.7987 39.288 62.8387 39.168 62.9187 39.088C62.9987 39 63.1187 38.956 63.2787 38.956C63.4307 38.956 63.5507 39 63.6387 39.088C63.7267 39.168 63.7707 39.288 63.7707 39.448V42.964H63.6147C63.7827 42.5 64.0547 42.152 64.4307 41.92C64.8147 41.68 65.2547 41.56 65.7507 41.56C66.2147 41.56 66.5987 41.644 66.9027 41.812C67.2147 41.98 67.4467 42.236 67.5987 42.58C67.7507 42.916 67.8267 43.344 67.8267 43.864V47.08C67.8267 47.24 67.7827 47.364 67.6947 47.452C67.6147 47.54 67.4987 47.584 67.3467 47.584C67.1867 47.584 67.0627 47.54 66.9747 47.452C66.8947 47.364 66.8547 47.24 66.8547 47.08V43.924C66.8547 43.38 66.7467 42.984 66.5307 42.736C66.3227 42.48 65.9867 42.352 65.5227 42.352C64.9867 42.352 64.5587 42.52 64.2387 42.856C63.9267 43.184 63.7707 43.624 63.7707 44.176V47.08C63.7707 47.416 63.6067 47.584 63.2787 47.584ZM70.099 47.56C69.939 47.56 69.819 47.516 69.739 47.428C69.659 47.332 69.619 47.2 69.619 47.032V42.124C69.619 41.956 69.659 41.828 69.739 41.74C69.819 41.652 69.939 41.608 70.099 41.608C70.251 41.608 70.371 41.652 70.459 41.74C70.547 41.828 70.591 41.956 70.591 42.124V47.032C70.591 47.2 70.547 47.332 70.459 47.428C70.379 47.516 70.259 47.56 70.099 47.56ZM70.099 40.264C69.899 40.264 69.743 40.212 69.631 40.108C69.519 39.996 69.463 39.848 69.463 39.664C69.463 39.472 69.519 39.328 69.631 39.232C69.743 39.128 69.899 39.076 70.099 39.076C70.307 39.076 70.463 39.128 70.567 39.232C70.679 39.328 70.735 39.472 70.735 39.664C70.735 39.848 70.679 39.996 70.567 40.108C70.463 40.212 70.307 40.264 70.099 40.264ZM72.8881 47.584C72.7281 47.584 72.6081 47.54 72.5281 47.452C72.4481 47.364 72.4081 47.24 72.4081 47.08V42.076C72.4081 41.916 72.4481 41.796 72.5281 41.716C72.6081 41.628 72.7241 41.584 72.8761 41.584C73.0281 41.584 73.1441 41.628 73.2241 41.716C73.3121 41.796 73.3561 41.916 73.3561 42.076V43.108L73.2241 42.964C73.3921 42.5 73.6641 42.152 74.0401 41.92C74.4241 41.68 74.8641 41.56 75.3601 41.56C75.8241 41.56 76.2081 41.644 76.5121 41.812C76.8241 41.98 77.0561 42.236 77.2081 42.58C77.3601 42.916 77.4361 43.344 77.4361 43.864V47.08C77.4361 47.24 77.3921 47.364 77.3041 47.452C77.2241 47.54 77.1081 47.584 76.9561 47.584C76.7961 47.584 76.6721 47.54 76.5841 47.452C76.5041 47.364 76.4641 47.24 76.4641 47.08V43.924C76.4641 43.38 76.3561 42.984 76.1401 42.736C75.9321 42.48 75.5961 42.352 75.1321 42.352C74.5961 42.352 74.1681 42.52 73.8481 42.856C73.5361 43.184 73.3801 43.624 73.3801 44.176V47.08C73.3801 47.416 73.2161 47.584 72.8881 47.584ZM81.5684 47.608C81.1124 47.608 80.7284 47.528 80.4164 47.368C80.1124 47.2 79.8844 46.96 79.7324 46.648C79.5804 46.328 79.5044 45.94 79.5044 45.484V42.424H78.7004C78.5644 42.424 78.4604 42.392 78.3884 42.328C78.3164 42.256 78.2804 42.16 78.2804 42.04C78.2804 41.92 78.3164 41.828 78.3884 41.764C78.4604 41.7 78.5644 41.668 78.7004 41.668H79.5044V40.288C79.5044 40.128 79.5484 40.008 79.6364 39.928C79.7244 39.84 79.8444 39.796 79.9964 39.796C80.1484 39.796 80.2644 39.84 80.3444 39.928C80.4324 40.008 80.4764 40.128 80.4764 40.288V41.668H81.9884C82.1244 41.668 82.2284 41.7 82.3004 41.764C82.3724 41.828 82.4084 41.92 82.4084 42.04C82.4084 42.16 82.3724 42.256 82.3004 42.328C82.2284 42.392 82.1244 42.424 81.9884 42.424H80.4764V45.388C80.4764 45.844 80.5724 46.192 80.7644 46.432C80.9564 46.664 81.2684 46.78 81.7004 46.78C81.8524 46.78 81.9804 46.764 82.0844 46.732C82.1964 46.7 82.2884 46.684 82.3604 46.684C82.4324 46.676 82.4924 46.7 82.5404 46.756C82.5884 46.812 82.6124 46.908 82.6124 47.044C82.6124 47.14 82.5924 47.228 82.5524 47.308C82.5204 47.388 82.4604 47.444 82.3724 47.476C82.2764 47.508 82.1484 47.536 81.9884 47.56C81.8364 47.592 81.6964 47.608 81.5684 47.608ZM84.0558 47.548C83.8558 47.548 83.6958 47.488 83.5758 47.368C83.4558 47.24 83.3958 47.08 83.3958 46.888C83.3958 46.696 83.4558 46.54 83.5758 46.42C83.6958 46.292 83.8558 46.228 84.0558 46.228C84.2558 46.228 84.4118 46.292 84.5238 46.42C84.6438 46.54 84.7038 46.696 84.7038 46.888C84.7038 47.08 84.6438 47.24 84.5238 47.368C84.4118 47.488 84.2558 47.548 84.0558 47.548ZM86.7863 47.548C86.5863 47.548 86.4263 47.488 86.3063 47.368C86.1863 47.24 86.1263 47.08 86.1263 46.888C86.1263 46.696 86.1863 46.54 86.3063 46.42C86.4263 46.292 86.5863 46.228 86.7863 46.228C86.9863 46.228 87.1423 46.292 87.2543 46.42C87.3743 46.54 87.4343 46.696 87.4343 46.888C87.4343 47.08 87.3743 47.24 87.2543 47.368C87.1423 47.488 86.9863 47.548 86.7863 47.548Z" fill="#929BAA"/>
</g>
<path d="M8.804 12.108C8.436 12.108 8.076 12.08 7.724 12.024C7.372 11.968 7.04 11.884 6.728 11.772C6.416 11.652 6.136 11.508 5.888 11.34C5.768 11.252 5.684 11.152 5.636 11.04C5.596 10.928 5.584 10.82 5.6 10.716C5.624 10.604 5.672 10.508 5.744 10.428C5.816 10.348 5.904 10.3 6.008 10.284C6.112 10.26 6.228 10.292 6.356 10.38C6.716 10.612 7.096 10.784 7.496 10.896C7.896 11 8.332 11.052 8.804 11.052C9.484 11.052 9.984 10.932 10.304 10.692C10.632 10.444 10.796 10.124 10.796 9.732C10.796 9.412 10.68 9.16 10.448 8.976C10.216 8.784 9.828 8.632 9.284 8.52L8 8.256C7.24 8.096 6.672 7.832 6.296 7.464C5.928 7.096 5.744 6.6 5.744 5.976C5.744 5.6 5.82 5.256 5.972 4.944C6.132 4.632 6.352 4.364 6.632 4.14C6.912 3.908 7.248 3.732 7.64 3.612C8.032 3.492 8.46 3.432 8.924 3.432C9.42 3.432 9.884 3.496 10.316 3.624C10.756 3.752 11.148 3.948 11.492 4.212C11.596 4.284 11.664 4.376 11.696 4.488C11.736 4.592 11.744 4.696 11.72 4.8C11.704 4.904 11.66 4.992 11.588 5.064C11.516 5.136 11.424 5.18 11.312 5.196C11.2 5.204 11.076 5.164 10.94 5.076C10.628 4.868 10.308 4.72 9.98 4.632C9.66 4.536 9.304 4.488 8.912 4.488C8.52 4.488 8.176 4.548 7.88 4.668C7.592 4.788 7.368 4.956 7.208 5.172C7.056 5.388 6.98 5.644 6.98 5.94C6.98 6.276 7.088 6.544 7.304 6.744C7.52 6.944 7.88 7.096 8.384 7.2L9.656 7.464C10.456 7.632 11.052 7.892 11.444 8.244C11.836 8.596 12.032 9.064 12.032 9.648C12.032 10.024 11.956 10.364 11.804 10.668C11.652 10.964 11.436 11.22 11.156 11.436C10.876 11.652 10.536 11.82 10.136 11.94C9.744 12.052 9.3 12.108 8.804 12.108ZM16.0648 12.108C15.4248 12.108 14.8728 11.988 14.4088 11.748C13.9528 11.5 13.5968 11.152 13.3408 10.704C13.0928 10.248 12.9688 9.708 12.9688 9.084C12.9688 8.476 13.0928 7.944 13.3408 7.488C13.5888 7.032 13.9288 6.676 14.3608 6.42C14.7928 6.164 15.2848 6.036 15.8368 6.036C16.2448 6.036 16.6088 6.104 16.9288 6.24C17.2488 6.368 17.5208 6.56 17.7448 6.816C17.9768 7.064 18.1488 7.368 18.2608 7.728C18.3808 8.088 18.4408 8.492 18.4408 8.94C18.4408 9.076 18.4008 9.18 18.3208 9.252C18.2408 9.316 18.1208 9.348 17.9608 9.348H13.9288V8.604H17.6248L17.4208 8.772C17.4208 8.372 17.3608 8.032 17.2408 7.752C17.1288 7.472 16.9568 7.26 16.7248 7.116C16.5008 6.964 16.2208 6.888 15.8848 6.888C15.5088 6.888 15.1888 6.976 14.9248 7.152C14.6688 7.328 14.4728 7.572 14.3368 7.884C14.2008 8.196 14.1328 8.56 14.1328 8.976V9.048C14.1328 9.752 14.2968 10.284 14.6248 10.644C14.9608 10.996 15.4448 11.172 16.0768 11.172C16.3168 11.172 16.5688 11.14 16.8328 11.076C17.1048 11.012 17.3608 10.904 17.6008 10.752C17.7368 10.672 17.8568 10.636 17.9608 10.644C18.0728 10.652 18.1608 10.688 18.2248 10.752C18.2968 10.816 18.3408 10.896 18.3568 10.992C18.3728 11.088 18.3568 11.188 18.3088 11.292C18.2608 11.388 18.1768 11.476 18.0568 11.556C17.7848 11.74 17.4688 11.88 17.1088 11.976C16.7488 12.064 16.4008 12.108 16.0648 12.108ZM21.6462 12.108C21.0222 12.108 20.5502 11.928 20.2302 11.568C19.9182 11.2 19.7622 10.672 19.7622 9.984V4.068C19.7622 3.868 19.8142 3.716 19.9182 3.612C20.0222 3.508 20.1702 3.456 20.3622 3.456C20.5542 3.456 20.7022 3.508 20.8062 3.612C20.9182 3.716 20.9742 3.868 20.9742 4.068V9.912C20.9742 10.312 21.0542 10.612 21.2142 10.812C21.3822 11.004 21.6222 11.1 21.9342 11.1C22.0062 11.1 22.0702 11.1 22.1262 11.1C22.1822 11.092 22.2382 11.084 22.2942 11.076C22.3902 11.068 22.4582 11.096 22.4982 11.16C22.5382 11.216 22.5582 11.336 22.5582 11.52C22.5582 11.688 22.5222 11.82 22.4502 11.916C22.3782 12.004 22.2622 12.06 22.1022 12.084C22.0302 12.092 21.9542 12.096 21.8742 12.096C21.7942 12.104 21.7182 12.108 21.6462 12.108ZM26.1195 12.108C25.4795 12.108 24.9275 11.988 24.4635 11.748C24.0075 11.5 23.6515 11.152 23.3955 10.704C23.1475 10.248 23.0235 9.708 23.0235 9.084C23.0235 8.476 23.1475 7.944 23.3955 7.488C23.6435 7.032 23.9835 6.676 24.4155 6.42C24.8475 6.164 25.3395 6.036 25.8915 6.036C26.2995 6.036 26.6635 6.104 26.9835 6.24C27.3035 6.368 27.5755 6.56 27.7995 6.816C28.0315 7.064 28.2035 7.368 28.3155 7.728C28.4355 8.088 28.4955 8.492 28.4955 8.94C28.4955 9.076 28.4555 9.18 28.3755 9.252C28.2955 9.316 28.1755 9.348 28.0155 9.348H23.9835V8.604H27.6795L27.4755 8.772C27.4755 8.372 27.4155 8.032 27.2955 7.752C27.1835 7.472 27.0115 7.26 26.7795 7.116C26.5555 6.964 26.2755 6.888 25.9395 6.888C25.5635 6.888 25.2435 6.976 24.9795 7.152C24.7235 7.328 24.5275 7.572 24.3915 7.884C24.2555 8.196 24.1875 8.56 24.1875 8.976V9.048C24.1875 9.752 24.3515 10.284 24.6795 10.644C25.0155 10.996 25.4995 11.172 26.1315 11.172C26.3715 11.172 26.6235 11.14 26.8875 11.076C27.1595 11.012 27.4155 10.904 27.6555 10.752C27.7915 10.672 27.9115 10.636 28.0155 10.644C28.1275 10.652 28.2155 10.688 28.2795 10.752C28.3515 10.816 28.3955 10.896 28.4115 10.992C28.4275 11.088 28.4115 11.188 28.3635 11.292C28.3155 11.388 28.2315 11.476 28.1115 11.556C27.8395 11.74 27.5235 11.88 27.1635 11.976C26.8035 12.064 26.4555 12.108 26.1195 12.108ZM32.3968 12.108C31.7968 12.108 31.2768 11.984 30.8368 11.736C30.4048 11.48 30.0688 11.124 29.8288 10.668C29.5888 10.204 29.4688 9.66 29.4688 9.036C29.4688 8.572 29.5368 8.156 29.6728 7.788C29.8088 7.412 30.0008 7.096 30.2488 6.84C30.5048 6.584 30.8128 6.388 31.1728 6.252C31.5408 6.108 31.9488 6.036 32.3968 6.036C32.6768 6.036 32.9688 6.08 33.2728 6.168C33.5848 6.248 33.8728 6.384 34.1368 6.576C34.2408 6.64 34.3048 6.72 34.3288 6.816C34.3608 6.904 34.3648 6.996 34.3408 7.092C34.3248 7.188 34.2808 7.272 34.2088 7.344C34.1448 7.408 34.0648 7.448 33.9688 7.464C33.8728 7.472 33.7688 7.444 33.6568 7.38C33.4648 7.244 33.2688 7.148 33.0688 7.092C32.8688 7.028 32.6768 6.996 32.4928 6.996C32.2048 6.996 31.9488 7.044 31.7248 7.14C31.5088 7.228 31.3248 7.36 31.1728 7.536C31.0208 7.704 30.9048 7.916 30.8248 8.172C30.7528 8.428 30.7168 8.72 30.7168 9.048C30.7168 9.704 30.8688 10.22 31.1728 10.596C31.4848 10.964 31.9248 11.148 32.4928 11.148C32.6768 11.148 32.8688 11.12 33.0688 11.064C33.2688 11.008 33.4648 10.912 33.6568 10.776C33.7688 10.712 33.8728 10.688 33.9688 10.704C34.0648 10.72 34.1408 10.764 34.1968 10.836C34.2608 10.9 34.3008 10.98 34.3168 11.076C34.3408 11.164 34.3368 11.256 34.3048 11.352C34.2728 11.448 34.2048 11.528 34.1008 11.592C33.8448 11.776 33.5648 11.908 33.2608 11.988C32.9648 12.068 32.6768 12.108 32.3968 12.108ZM37.9261 12.108C37.4461 12.108 37.0421 12.024 36.7141 11.856C36.3861 11.688 36.1421 11.44 35.9821 11.112C35.8221 10.784 35.7421 10.384 35.7421 9.912V7.08H35.0221C34.8621 7.08 34.7381 7.04 34.6501 6.96C34.5621 6.872 34.5181 6.756 34.5181 6.612C34.5181 6.46 34.5621 6.344 34.6501 6.264C34.7381 6.184 34.8621 6.144 35.0221 6.144H35.7421V4.908C35.7421 4.708 35.7941 4.556 35.8981 4.452C36.0101 4.348 36.1621 4.296 36.3541 4.296C36.5461 4.296 36.6941 4.348 36.7981 4.452C36.9021 4.556 36.9541 4.708 36.9541 4.908V6.144H38.3581C38.5181 6.144 38.6421 6.184 38.7301 6.264C38.8181 6.344 38.8621 6.46 38.8621 6.612C38.8621 6.756 38.8181 6.872 38.7301 6.96C38.6421 7.04 38.5181 7.08 38.3581 7.08H36.9541V9.816C36.9541 10.24 37.0421 10.56 37.2181 10.776C37.4021 10.992 37.6981 11.1 38.1061 11.1C38.2501 11.1 38.3741 11.088 38.4781 11.064C38.5901 11.032 38.6821 11.012 38.7541 11.004C38.8421 11.004 38.9141 11.036 38.9701 11.1C39.0261 11.156 39.0541 11.268 39.0541 11.436C39.0541 11.556 39.0301 11.668 38.9821 11.772C38.9421 11.876 38.8661 11.944 38.7541 11.976C38.6581 12.008 38.5261 12.036 38.3581 12.06C38.1981 12.092 38.0541 12.108 37.9261 12.108ZM43.781 12C43.565 12 43.397 11.944 43.277 11.832C43.165 11.712 43.109 11.544 43.109 11.328V4.212C43.109 3.996 43.165 3.832 43.277 3.72C43.397 3.6 43.565 3.54 43.781 3.54H48.161C48.329 3.54 48.457 3.584 48.545 3.672C48.633 3.752 48.677 3.872 48.677 4.032C48.677 4.2 48.633 4.328 48.545 4.416C48.457 4.504 48.329 4.548 48.161 4.548H44.309V7.2H47.897C48.073 7.2 48.201 7.244 48.281 7.332C48.369 7.42 48.413 7.544 48.413 7.704C48.413 7.872 48.369 8 48.281 8.088C48.201 8.168 48.073 8.208 47.897 8.208H44.309V10.992H48.161C48.329 10.992 48.457 11.036 48.545 11.124C48.633 11.212 48.677 11.336 48.677 11.496C48.677 11.664 48.633 11.792 48.545 11.88C48.457 11.96 48.329 12 48.161 12H43.781ZM50.6674 12.084C50.4754 12.084 50.3274 12.032 50.2234 11.928C50.1194 11.816 50.0674 11.664 50.0674 11.472V6.672C50.0674 6.472 50.1194 6.32 50.2234 6.216C50.3274 6.112 50.4714 6.06 50.6554 6.06C50.8474 6.06 50.9914 6.112 51.0874 6.216C51.1914 6.32 51.2434 6.472 51.2434 6.672V7.656L51.1114 7.392C51.2714 6.968 51.5194 6.636 51.8554 6.396C52.1914 6.156 52.5954 6.036 53.0674 6.036C53.5554 6.036 53.9514 6.152 54.2554 6.384C54.5594 6.616 54.7674 6.972 54.8794 7.452H54.7114C54.8634 7.012 55.1234 6.668 55.4914 6.42C55.8594 6.164 56.2874 6.036 56.7754 6.036C57.2234 6.036 57.5914 6.124 57.8794 6.3C58.1674 6.468 58.3834 6.728 58.5274 7.08C58.6714 7.424 58.7434 7.86 58.7434 8.388V11.472C58.7434 11.664 58.6874 11.816 58.5754 11.928C58.4714 12.032 58.3234 12.084 58.1314 12.084C57.9394 12.084 57.7914 12.032 57.6874 11.928C57.5834 11.816 57.5314 11.664 57.5314 11.472V8.448C57.5314 7.952 57.4434 7.588 57.2674 7.356C57.0994 7.124 56.8194 7.008 56.4274 7.008C55.9874 7.008 55.6394 7.16 55.3834 7.464C55.1274 7.768 54.9994 8.188 54.9994 8.724V11.472C54.9994 11.664 54.9474 11.816 54.8434 11.928C54.7394 12.032 54.5914 12.084 54.3994 12.084C54.2074 12.084 54.0554 12.032 53.9434 11.928C53.8394 11.816 53.7874 11.664 53.7874 11.472V8.448C53.7874 7.952 53.7034 7.588 53.5354 7.356C53.3674 7.124 53.0874 7.008 52.6954 7.008C52.2554 7.008 51.9074 7.16 51.6514 7.464C51.4034 7.768 51.2794 8.188 51.2794 8.724V11.472C51.2794 11.88 51.0754 12.084 50.6674 12.084ZM61.0379 14.244C60.8459 14.244 60.6979 14.192 60.5939 14.088C60.4899 13.984 60.4379 13.832 60.4379 13.632V6.672C60.4379 6.472 60.4899 6.32 60.5939 6.216C60.6979 6.112 60.8419 6.06 61.0259 6.06C61.2179 6.06 61.3659 6.112 61.4699 6.216C61.5739 6.32 61.6259 6.472 61.6259 6.672V7.716L61.4939 7.464C61.6219 7.032 61.8739 6.688 62.2499 6.432C62.6259 6.168 63.0699 6.036 63.5819 6.036C64.1019 6.036 64.5539 6.16 64.9379 6.408C65.3299 6.656 65.6299 7.004 65.8379 7.452C66.0539 7.9 66.1619 8.44 66.1619 9.072C66.1619 9.688 66.0539 10.228 65.8379 10.692C65.6299 11.148 65.3339 11.5 64.9499 11.748C64.5659 11.988 64.1099 12.108 63.5819 12.108C63.0779 12.108 62.6379 11.98 62.2619 11.724C61.8859 11.468 61.6339 11.128 61.5059 10.704H61.6499V13.632C61.6499 13.832 61.5939 13.984 61.4819 14.088C61.3779 14.192 61.2299 14.244 61.0379 14.244ZM63.2819 11.172C63.6179 11.172 63.9099 11.092 64.1579 10.932C64.4059 10.772 64.5979 10.536 64.7339 10.224C64.8699 9.912 64.9379 9.528 64.9379 9.072C64.9379 8.384 64.7859 7.864 64.4819 7.512C64.1859 7.16 63.7859 6.984 63.2819 6.984C62.9539 6.984 62.6619 7.064 62.4059 7.224C62.1579 7.376 61.9659 7.608 61.8299 7.92C61.6939 8.232 61.6259 8.616 61.6259 9.072C61.6259 9.752 61.7779 10.272 62.0819 10.632C62.3859 10.992 62.7859 11.172 63.2819 11.172ZM69.4118 12.108C68.7878 12.108 68.3158 11.928 67.9958 11.568C67.6838 11.2 67.5278 10.672 67.5278 9.984V4.068C67.5278 3.868 67.5798 3.716 67.6838 3.612C67.7878 3.508 67.9358 3.456 68.1278 3.456C68.3198 3.456 68.4678 3.508 68.5718 3.612C68.6838 3.716 68.7398 3.868 68.7398 4.068V9.912C68.7398 10.312 68.8198 10.612 68.9798 10.812C69.1478 11.004 69.3878 11.1 69.6998 11.1C69.7718 11.1 69.8358 11.1 69.8918 11.1C69.9478 11.092 70.0038 11.084 70.0598 11.076C70.1558 11.068 70.2238 11.096 70.2638 11.16C70.3038 11.216 70.3238 11.336 70.3238 11.52C70.3238 11.688 70.2878 11.82 70.2158 11.916C70.1438 12.004 70.0278 12.06 69.8678 12.084C69.7958 12.092 69.7198 12.096 69.6398 12.096C69.5598 12.104 69.4838 12.108 69.4118 12.108ZM73.6812 12.108C73.0892 12.108 72.5772 11.984 72.1452 11.736C71.7212 11.488 71.3892 11.136 71.1492 10.68C70.9092 10.224 70.7892 9.688 70.7892 9.072C70.7892 8.6 70.8572 8.18 70.9932 7.812C71.1292 7.444 71.3212 7.128 71.5692 6.864C71.8252 6.592 72.1292 6.388 72.4812 6.252C72.8412 6.108 73.2412 6.036 73.6812 6.036C74.2652 6.036 74.7692 6.16 75.1932 6.408C75.6252 6.656 75.9612 7.008 76.2012 7.464C76.4412 7.912 76.5612 8.448 76.5612 9.072C76.5612 9.536 76.4932 9.956 76.3572 10.332C76.2212 10.708 76.0252 11.028 75.7692 11.292C75.5212 11.556 75.2172 11.76 74.8572 11.904C74.5052 12.04 74.1132 12.108 73.6812 12.108ZM73.6812 11.172C74.0092 11.172 74.2972 11.092 74.5452 10.932C74.7932 10.772 74.9852 10.536 75.1212 10.224C75.2652 9.912 75.3372 9.528 75.3372 9.072C75.3372 8.384 75.1852 7.864 74.8812 7.512C74.5772 7.16 74.1772 6.984 73.6812 6.984C73.3452 6.984 73.0532 7.064 72.8052 7.224C72.5572 7.376 72.3612 7.608 72.2172 7.92C72.0812 8.232 72.0132 8.616 72.0132 9.072C72.0132 9.752 72.1652 10.272 72.4692 10.632C72.7732 10.992 73.1772 11.172 73.6812 11.172ZM79.1968 14.244C79.0528 14.244 78.9328 14.204 78.8368 14.124C78.7488 14.052 78.6968 13.952 78.6808 13.824C78.6728 13.704 78.6968 13.572 78.7528 13.428L79.5688 11.592V12.108L77.3248 6.888C77.2688 6.744 77.2488 6.608 77.2648 6.48C77.2808 6.352 77.3408 6.252 77.4448 6.18C77.5488 6.1 77.6888 6.06 77.8648 6.06C78.0168 6.06 78.1368 6.096 78.2248 6.168C78.3128 6.24 78.3928 6.364 78.4648 6.54L80.2768 11.016H79.9408L81.7768 6.54C81.8488 6.356 81.9328 6.232 82.0288 6.168C82.1248 6.096 82.2568 6.06 82.4248 6.06C82.5688 6.06 82.6808 6.1 82.7608 6.18C82.8488 6.252 82.9008 6.352 82.9168 6.48C82.9408 6.6 82.9208 6.732 82.8568 6.876L79.8568 13.776C79.7768 13.96 79.6848 14.084 79.5808 14.148C79.4848 14.212 79.3568 14.244 79.1968 14.244ZM86.6938 12.108C86.0538 12.108 85.5018 11.988 85.0378 11.748C84.5818 11.5 84.2258 11.152 83.9698 10.704C83.7218 10.248 83.5978 9.708 83.5978 9.084C83.5978 8.476 83.7218 7.944 83.9698 7.488C84.2178 7.032 84.5578 6.676 84.9898 6.42C85.4218 6.164 85.9138 6.036 86.4658 6.036C86.8738 6.036 87.2378 6.104 87.5578 6.24C87.8778 6.368 88.1498 6.56 88.3738 6.816C88.6058 7.064 88.7778 7.368 88.8898 7.728C89.0098 8.088 89.0698 8.492 89.0698 8.94C89.0698 9.076 89.0298 9.18 88.9498 9.252C88.8698 9.316 88.7498 9.348 88.5898 9.348H84.5578V8.604H88.2538L88.0498 8.772C88.0498 8.372 87.9898 8.032 87.8698 7.752C87.7578 7.472 87.5858 7.26 87.3538 7.116C87.1298 6.964 86.8498 6.888 86.5138 6.888C86.1378 6.888 85.8178 6.976 85.5538 7.152C85.2978 7.328 85.1018 7.572 84.9658 7.884C84.8298 8.196 84.7618 8.56 84.7618 8.976V9.048C84.7618 9.752 84.9258 10.284 85.2538 10.644C85.5898 10.996 86.0738 11.172 86.7058 11.172C86.9458 11.172 87.1978 11.14 87.4618 11.076C87.7338 11.012 87.9898 10.904 88.2298 10.752C88.3658 10.672 88.4858 10.636 88.5898 10.644C88.7018 10.652 88.7898 10.688 88.8538 10.752C88.9258 10.816 88.9698 10.896 88.9858 10.992C89.0018 11.088 88.9858 11.188 88.9378 11.292C88.8898 11.388 88.8058 11.476 88.6858 11.556C88.4138 11.74 88.0978 11.88 87.7378 11.976C87.3778 12.064 87.0298 12.108 86.6938 12.108ZM93.1391 12.108C92.4991 12.108 91.9471 11.988 91.4831 11.748C91.0271 11.5 90.6711 11.152 90.4151 10.704C90.1671 10.248 90.0431 9.708 90.0431 9.084C90.0431 8.476 90.1671 7.944 90.4151 7.488C90.6631 7.032 91.0031 6.676 91.4351 6.42C91.8671 6.164 92.3591 6.036 92.9111 6.036C93.3191 6.036 93.6831 6.104 94.0031 6.24C94.3231 6.368 94.5951 6.56 94.8191 6.816C95.0511 7.064 95.2231 7.368 95.3351 7.728C95.4551 8.088 95.5151 8.492 95.5151 8.94C95.5151 9.076 95.4751 9.18 95.3951 9.252C95.3151 9.316 95.1951 9.348 95.0351 9.348H91.0031V8.604H94.6991L94.4951 8.772C94.4951 8.372 94.4351 8.032 94.3151 7.752C94.2031 7.472 94.0311 7.26 93.7991 7.116C93.5751 6.964 93.2951 6.888 92.9591 6.888C92.5831 6.888 92.2631 6.976 91.9991 7.152C91.7431 7.328 91.5471 7.572 91.4111 7.884C91.2751 8.196 91.2071 8.56 91.2071 8.976V9.048C91.2071 9.752 91.3711 10.284 91.6991 10.644C92.0351 10.996 92.5191 11.172 93.1511 11.172C93.3911 11.172 93.6431 11.14 93.9071 11.076C94.1791 11.012 94.4351 10.904 94.6751 10.752C94.8111 10.672 94.9311 10.636 95.0351 10.644C95.1471 10.652 95.2351 10.688 95.2991 10.752C95.3711 10.816 95.4151 10.896 95.4311 10.992C95.4471 11.088 95.4311 11.188 95.3831 11.292C95.3351 11.388 95.2511 11.476 95.1311 11.556C94.8591 11.74 94.5431 11.88 94.1831 11.976C93.8231 12.064 93.4751 12.108 93.1391 12.108Z" fill="#64728C"/>
<defs>
<filter id="filter0_d_606_5595" x="0" y="20" width="310" height="55" filterUnits="userSpaceOnUse" color-interpolation-filters="sRGB">
<feFlood flood-opacity="0" result="BackgroundImageFix"/>
<feColorMatrix in="SourceAlpha" type="matrix" values="0 0 0 0 0 0 0 0 0 0 0 0 0 0 0 0 0 0 127 0" result="hardAlpha"/>
<feOffset dy="4"/>
<feGaussianBlur stdDeviation="2.5"/>
<feComposite in2="hardAlpha" operator="out"/>
<feColorMatrix type="matrix" values="0 0 0 0 0.392157 0 0 0 0 0.447059 0 0 0 0 0.54902 0 0 0 0.15 0"/>
<feBlend mode="normal" in2="BackgroundImageFix" result="effect1_dropShadow_606_5595"/>
<feBlend mode="normal" in="SourceGraphic" in2="effect1_dropShadow_606_5595" result="shape"/>
</filter>
</defs>
</svg>
