<svg width="300" height="66" viewBox="0 0 300 66" fill="none" xmlns="http://www.w3.org/2000/svg">
<rect x="0.5" y="21.5" width="299" height="44" rx="11.5" fill="#E8EAEF"/>
<rect x="0.5" y="21.5" width="299" height="44" rx="11.5" stroke="#E8EAEF"/>
<path d="M10.336 47.572C10.184 47.58 10.068 47.54 9.988 47.452C9.9 47.364 9.856 47.256 9.856 47.128C9.856 47.032 9.888 46.944 9.952 46.864C10.008 46.784 10.1 46.74 10.228 46.732L10.6 46.708C11.008 46.676 11.32 46.536 11.536 46.288C11.752 46.032 11.86 45.684 11.86 45.244V39.46C11.86 39.292 11.9 39.168 11.98 39.088C12.068 39 12.192 38.956 12.352 38.956C12.512 38.956 12.632 39 12.712 39.088C12.8 39.168 12.844 39.292 12.844 39.46V45.256C12.844 45.712 12.764 46.108 12.604 46.444C12.444 46.772 12.204 47.028 11.884 47.212C11.572 47.396 11.188 47.504 10.732 47.536L10.336 47.572ZM17.2266 47.608C16.6586 47.608 16.1666 47.484 15.7506 47.236C15.3346 46.988 15.0106 46.64 14.7786 46.192C14.5546 45.736 14.4426 45.2 14.4426 44.584C14.4426 44.12 14.5066 43.704 14.6346 43.336C14.7626 42.96 14.9506 42.64 15.1986 42.376C15.4466 42.112 15.7386 41.912 16.0746 41.776C16.4186 41.632 16.8026 41.56 17.2266 41.56C17.7946 41.56 18.2866 41.684 18.7026 41.932C19.1186 42.18 19.4386 42.532 19.6626 42.988C19.8946 43.436 20.0106 43.968 20.0106 44.584C20.0106 45.048 19.9466 45.464 19.8186 45.832C19.6906 46.2 19.5026 46.52 19.2546 46.792C19.0066 47.056 18.7106 47.26 18.3666 47.404C18.0306 47.54 17.6506 47.608 17.2266 47.608ZM17.2266 46.828C17.5866 46.828 17.9026 46.74 18.1746 46.564C18.4466 46.388 18.6546 46.132 18.7986 45.796C18.9506 45.46 19.0266 45.056 19.0266 44.584C19.0266 43.856 18.8626 43.3 18.5346 42.916C18.2146 42.532 17.7786 42.34 17.2266 42.34C16.8586 42.34 16.5386 42.428 16.2666 42.604C16.0026 42.772 15.7946 43.024 15.6426 43.36C15.4986 43.688 15.4266 44.096 15.4266 44.584C15.4266 45.304 15.5906 45.86 15.9186 46.252C16.2466 46.636 16.6826 46.828 17.2266 46.828ZM21.9506 47.584C21.7906 47.584 21.6706 47.54 21.5906 47.452C21.5106 47.364 21.4706 47.24 21.4706 47.08V39.448C21.4706 39.288 21.5106 39.168 21.5906 39.088C21.6706 39 21.7906 38.956 21.9506 38.956C22.1026 38.956 22.2226 39 22.3106 39.088C22.3986 39.168 22.4426 39.288 22.4426 39.448V42.964H22.2866C22.4546 42.5 22.7266 42.152 23.1026 41.92C23.4866 41.68 23.9266 41.56 24.4226 41.56C24.8866 41.56 25.2706 41.644 25.5746 41.812C25.8866 41.98 26.1186 42.236 26.2706 42.58C26.4226 42.916 26.4986 43.344 26.4986 43.864V47.08C26.4986 47.24 26.4546 47.364 26.3666 47.452C26.2866 47.54 26.1706 47.584 26.0186 47.584C25.8586 47.584 25.7346 47.54 25.6466 47.452C25.5666 47.364 25.5266 47.24 25.5266 47.08V43.924C25.5266 43.38 25.4186 42.984 25.2026 42.736C24.9946 42.48 24.6586 42.352 24.1946 42.352C23.6586 42.352 23.2306 42.52 22.9106 42.856C22.5986 43.184 22.4426 43.624 22.4426 44.176V47.08C22.4426 47.416 22.2786 47.584 21.9506 47.584ZM28.7709 47.584C28.6109 47.584 28.4909 47.54 28.4109 47.452C28.3309 47.364 28.2909 47.24 28.2909 47.08V42.076C28.2909 41.916 28.3309 41.796 28.4109 41.716C28.4909 41.628 28.6069 41.584 28.7589 41.584C28.9109 41.584 29.0269 41.628 29.1069 41.716C29.1949 41.796 29.2389 41.916 29.2389 42.076V43.108L29.1069 42.964C29.2749 42.5 29.5469 42.152 29.9229 41.92C30.3069 41.68 30.7469 41.56 31.2429 41.56C31.7069 41.56 32.0909 41.644 32.3949 41.812C32.7069 41.98 32.9389 42.236 33.0909 42.58C33.2429 42.916 33.3189 43.344 33.3189 43.864V47.08C33.3189 47.24 33.2749 47.364 33.1869 47.452C33.1069 47.54 32.9909 47.584 32.8389 47.584C32.6789 47.584 32.5549 47.54 32.4669 47.452C32.3869 47.364 32.3469 47.24 32.3469 47.08V43.924C32.3469 43.38 32.2389 42.984 32.0229 42.736C31.8149 42.48 31.4789 42.352 31.0149 42.352C30.4789 42.352 30.0509 42.52 29.7309 42.856C29.4189 43.184 29.2629 43.624 29.2629 44.176V47.08C29.2629 47.416 29.0989 47.584 28.7709 47.584ZM38.877 47.5C38.701 47.5 38.565 47.456 38.469 47.368C38.381 47.272 38.337 47.136 38.337 46.96V39.58C38.337 39.404 38.381 39.272 38.469 39.184C38.565 39.088 38.701 39.04 38.877 39.04H41.193C42.561 39.04 43.617 39.4 44.361 40.12C45.105 40.84 45.477 41.888 45.477 43.264C45.477 43.952 45.381 44.56 45.189 45.088C45.005 45.608 44.729 46.048 44.361 46.408C43.993 46.768 43.545 47.04 43.017 47.224C42.489 47.408 41.881 47.5 41.193 47.5H38.877ZM39.321 46.66H41.121C41.681 46.66 42.165 46.588 42.573 46.444C42.989 46.3 43.333 46.088 43.605 45.808C43.885 45.528 44.093 45.176 44.229 44.752C44.365 44.32 44.433 43.824 44.433 43.264C44.433 42.136 44.157 41.292 43.605 40.732C43.053 40.164 42.225 39.88 41.121 39.88H39.321V46.66ZM49.5352 47.608C48.9672 47.608 48.4752 47.484 48.0592 47.236C47.6432 46.988 47.3192 46.64 47.0872 46.192C46.8632 45.736 46.7512 45.2 46.7512 44.584C46.7512 44.12 46.8152 43.704 46.9432 43.336C47.0712 42.96 47.2592 42.64 47.5072 42.376C47.7552 42.112 48.0472 41.912 48.3832 41.776C48.7272 41.632 49.1112 41.56 49.5352 41.56C50.1032 41.56 50.5952 41.684 51.0112 41.932C51.4272 42.18 51.7472 42.532 51.9712 42.988C52.2032 43.436 52.3192 43.968 52.3192 44.584C52.3192 45.048 52.2552 45.464 52.1272 45.832C51.9992 46.2 51.8112 46.52 51.5632 46.792C51.3152 47.056 51.0192 47.26 50.6752 47.404C50.3392 47.54 49.9592 47.608 49.5352 47.608ZM49.5352 46.828C49.8952 46.828 50.2112 46.74 50.4832 46.564C50.7552 46.388 50.9632 46.132 51.1072 45.796C51.2592 45.46 51.3352 45.056 51.3352 44.584C51.3352 43.856 51.1712 43.3 50.8432 42.916C50.5232 42.532 50.0872 42.34 49.5352 42.34C49.1672 42.34 48.8472 42.428 48.5752 42.604C48.3112 42.772 48.1032 43.024 47.9512 43.36C47.8072 43.688 47.7352 44.096 47.7352 44.584C47.7352 45.304 47.8992 45.86 48.2272 46.252C48.5552 46.636 48.9912 46.828 49.5352 46.828ZM56.3592 49.768C55.9352 49.768 55.5192 49.716 55.1112 49.612C54.7112 49.516 54.3472 49.36 54.0192 49.144C53.9232 49.088 53.8592 49.02 53.8272 48.94C53.8032 48.86 53.7992 48.78 53.8152 48.7C53.8312 48.628 53.8672 48.56 53.9232 48.496C53.9792 48.44 54.0432 48.404 54.1152 48.388C54.1952 48.372 54.2752 48.384 54.3552 48.424C54.7072 48.64 55.0432 48.788 55.3632 48.868C55.6832 48.948 55.9992 48.988 56.3112 48.988C56.8792 48.988 57.3072 48.836 57.5952 48.532C57.8912 48.228 58.0392 47.788 58.0392 47.212V45.856H58.1592C58.0392 46.32 57.7832 46.688 57.3912 46.96C57.0072 47.232 56.5552 47.368 56.0352 47.368C55.4992 47.368 55.0352 47.248 54.6432 47.008C54.2512 46.76 53.9472 46.416 53.7312 45.976C53.5232 45.536 53.4192 45.028 53.4192 44.452C53.4192 44.02 53.4792 43.628 53.5992 43.276C53.7192 42.916 53.8912 42.612 54.1152 42.364C54.3472 42.108 54.6232 41.912 54.9432 41.776C55.2712 41.632 55.6352 41.56 56.0352 41.56C56.5632 41.56 57.0192 41.696 57.4032 41.968C57.7872 42.232 58.0352 42.592 58.1472 43.048L58.0272 43.192V42.076C58.0272 41.916 58.0672 41.796 58.1472 41.716C58.2352 41.628 58.3552 41.584 58.5072 41.584C58.6672 41.584 58.7872 41.628 58.8672 41.716C58.9472 41.796 58.9872 41.916 58.9872 42.076V47.08C58.9872 47.968 58.7632 48.636 58.3152 49.084C57.8752 49.54 57.2232 49.768 56.3592 49.768ZM56.2152 46.576C56.5912 46.576 56.9152 46.492 57.1872 46.324C57.4592 46.148 57.6672 45.9 57.8112 45.58C57.9632 45.26 58.0392 44.884 58.0392 44.452C58.0392 43.804 57.8752 43.292 57.5472 42.916C57.2192 42.532 56.7752 42.34 56.2152 42.34C55.8472 42.34 55.5272 42.428 55.2552 42.604C54.9832 42.772 54.7712 43.016 54.6192 43.336C54.4752 43.648 54.4032 44.02 54.4032 44.452C54.4032 45.1 54.5672 45.616 54.8952 46C55.2232 46.384 55.6632 46.576 56.2152 46.576ZM63.3904 49.768C62.9664 49.768 62.5504 49.716 62.1424 49.612C61.7424 49.516 61.3784 49.36 61.0504 49.144C60.9544 49.088 60.8904 49.02 60.8584 48.94C60.8344 48.86 60.8304 48.78 60.8464 48.7C60.8624 48.628 60.8984 48.56 60.9544 48.496C61.0104 48.44 61.0744 48.404 61.1464 48.388C61.2264 48.372 61.3064 48.384 61.3864 48.424C61.7384 48.64 62.0744 48.788 62.3944 48.868C62.7144 48.948 63.0304 48.988 63.3424 48.988C63.9104 48.988 64.3384 48.836 64.6264 48.532C64.9224 48.228 65.0704 47.788 65.0704 47.212V45.856H65.1904C65.0704 46.32 64.8144 46.688 64.4224 46.96C64.0384 47.232 63.5864 47.368 63.0664 47.368C62.5304 47.368 62.0664 47.248 61.6744 47.008C61.2824 46.76 60.9784 46.416 60.7624 45.976C60.5544 45.536 60.4504 45.028 60.4504 44.452C60.4504 44.02 60.5104 43.628 60.6304 43.276C60.7504 42.916 60.9224 42.612 61.1464 42.364C61.3784 42.108 61.6544 41.912 61.9744 41.776C62.3024 41.632 62.6664 41.56 63.0664 41.56C63.5944 41.56 64.0504 41.696 64.4344 41.968C64.8184 42.232 65.0664 42.592 65.1784 43.048L65.0584 43.192V42.076C65.0584 41.916 65.0984 41.796 65.1784 41.716C65.2664 41.628 65.3864 41.584 65.5384 41.584C65.6984 41.584 65.8184 41.628 65.8984 41.716C65.9784 41.796 66.0184 41.916 66.0184 42.076V47.08C66.0184 47.968 65.7944 48.636 65.3464 49.084C64.9064 49.54 64.2544 49.768 63.3904 49.768ZM63.2464 46.576C63.6224 46.576 63.9464 46.492 64.2184 46.324C64.4904 46.148 64.6984 45.9 64.8424 45.58C64.9944 45.26 65.0704 44.884 65.0704 44.452C65.0704 43.804 64.9064 43.292 64.5784 42.916C64.2504 42.532 63.8064 42.34 63.2464 42.34C62.8784 42.34 62.5584 42.428 62.2864 42.604C62.0144 42.772 61.8024 43.016 61.6504 43.336C61.5064 43.648 61.4344 44.02 61.4344 44.452C61.4344 45.1 61.5984 45.616 61.9264 46C62.2544 46.384 62.6944 46.576 63.2464 46.576ZM70.4697 47.608C69.8537 47.608 69.3217 47.488 68.8737 47.248C68.4337 47 68.0897 46.652 67.8417 46.204C67.6017 45.756 67.4817 45.22 67.4817 44.596C67.4817 43.988 67.6017 43.46 67.8417 43.012C68.0817 42.556 68.4097 42.2 68.8257 41.944C69.2497 41.688 69.7377 41.56 70.2897 41.56C70.6817 41.56 71.0337 41.628 71.3457 41.764C71.6577 41.892 71.9217 42.08 72.1377 42.328C72.3617 42.576 72.5297 42.876 72.6417 43.228C72.7617 43.58 72.8217 43.976 72.8217 44.416C72.8217 44.544 72.7857 44.64 72.7137 44.704C72.6417 44.76 72.5377 44.788 72.4017 44.788H68.2257V44.152H72.1737L71.9817 44.308C71.9817 43.876 71.9177 43.512 71.7897 43.216C71.6617 42.912 71.4737 42.68 71.2257 42.52C70.9857 42.36 70.6817 42.28 70.3137 42.28C69.9057 42.28 69.5577 42.376 69.2697 42.568C68.9897 42.752 68.7777 43.012 68.6337 43.348C68.4897 43.676 68.4177 44.06 68.4177 44.5V44.572C68.4177 45.308 68.5937 45.868 68.9457 46.252C69.3057 46.636 69.8137 46.828 70.4697 46.828C70.7417 46.828 71.0097 46.792 71.2737 46.72C71.5457 46.648 71.8097 46.528 72.0657 46.36C72.1777 46.288 72.2777 46.256 72.3657 46.264C72.4617 46.264 72.5377 46.292 72.5937 46.348C72.6497 46.396 72.6857 46.46 72.7017 46.54C72.7257 46.612 72.7177 46.692 72.6777 46.78C72.6457 46.868 72.5777 46.944 72.4737 47.008C72.2097 47.2 71.8977 47.348 71.5377 47.452C71.1777 47.556 70.8217 47.608 70.4697 47.608ZM76.5684 47.608C76.1124 47.608 75.7284 47.528 75.4164 47.368C75.1124 47.2 74.8844 46.96 74.7324 46.648C74.5804 46.328 74.5044 45.94 74.5044 45.484V42.424H73.7004C73.5644 42.424 73.4604 42.392 73.3884 42.328C73.3164 42.256 73.2804 42.16 73.2804 42.04C73.2804 41.92 73.3164 41.828 73.3884 41.764C73.4604 41.7 73.5644 41.668 73.7004 41.668H74.5044V40.288C74.5044 40.128 74.5484 40.008 74.6364 39.928C74.7244 39.84 74.8444 39.796 74.9964 39.796C75.1484 39.796 75.2644 39.84 75.3444 39.928C75.4324 40.008 75.4764 40.128 75.4764 40.288V41.668H76.9884C77.1244 41.668 77.2284 41.7 77.3004 41.764C77.3724 41.828 77.4084 41.92 77.4084 42.04C77.4084 42.16 77.3724 42.256 77.3004 42.328C77.2284 42.392 77.1244 42.424 76.9884 42.424H75.4764V45.388C75.4764 45.844 75.5724 46.192 75.7644 46.432C75.9564 46.664 76.2684 46.78 76.7004 46.78C76.8524 46.78 76.9804 46.764 77.0844 46.732C77.1964 46.7 77.2884 46.684 77.3604 46.684C77.4324 46.676 77.4924 46.7 77.5404 46.756C77.5884 46.812 77.6124 46.908 77.6124 47.044C77.6124 47.14 77.5924 47.228 77.5524 47.308C77.5204 47.388 77.4604 47.444 77.3724 47.476C77.2764 47.508 77.1484 47.536 76.9884 47.56C76.8364 47.592 76.6964 47.608 76.5684 47.608Z" fill="#64728C"/>
<path d="M3.804 12.108C3.436 12.108 3.076 12.08 2.724 12.024C2.372 11.968 2.04 11.884 1.728 11.772C1.416 11.652 1.136 11.508 0.888 11.34C0.768 11.252 0.684 11.152 0.636 11.04C0.596 10.928 0.584 10.82 0.6 10.716C0.624 10.604 0.672 10.508 0.744 10.428C0.816 10.348 0.904 10.3 1.008 10.284C1.112 10.26 1.228 10.292 1.356 10.38C1.716 10.612 2.096 10.784 2.496 10.896C2.896 11 3.332 11.052 3.804 11.052C4.484 11.052 4.984 10.932 5.304 10.692C5.632 10.444 5.796 10.124 5.796 9.732C5.796 9.412 5.68 9.16 5.448 8.976C5.216 8.784 4.828 8.632 4.284 8.52L3 8.256C2.24 8.096 1.672 7.832 1.296 7.464C0.928 7.096 0.744 6.6 0.744 5.976C0.744 5.6 0.82 5.256 0.972 4.944C1.132 4.632 1.352 4.364 1.632 4.14C1.912 3.908 2.248 3.732 2.64 3.612C3.032 3.492 3.46 3.432 3.924 3.432C4.42 3.432 4.884 3.496 5.316 3.624C5.756 3.752 6.148 3.948 6.492 4.212C6.596 4.284 6.664 4.376 6.696 4.488C6.736 4.592 6.744 4.696 6.72 4.8C6.704 4.904 6.66 4.992 6.588 5.064C6.516 5.136 6.424 5.18 6.312 5.196C6.2 5.204 6.076 5.164 5.94 5.076C5.628 4.868 5.308 4.72 4.98 4.632C4.66 4.536 4.304 4.488 3.912 4.488C3.52 4.488 3.176 4.548 2.88 4.668C2.592 4.788 2.368 4.956 2.208 5.172C2.056 5.388 1.98 5.644 1.98 5.94C1.98 6.276 2.088 6.544 2.304 6.744C2.52 6.944 2.88 7.096 3.384 7.2L4.656 7.464C5.456 7.632 6.052 7.892 6.444 8.244C6.836 8.596 7.032 9.064 7.032 9.648C7.032 10.024 6.956 10.364 6.804 10.668C6.652 10.964 6.436 11.22 6.156 11.436C5.876 11.652 5.536 11.82 5.136 11.94C4.744 12.052 4.3 12.108 3.804 12.108ZM11.0648 12.108C10.4248 12.108 9.87284 11.988 9.40884 11.748C8.95284 11.5 8.59684 11.152 8.34084 10.704C8.09284 10.248 7.96884 9.708 7.96884 9.084C7.96884 8.476 8.09284 7.944 8.34084 7.488C8.58884 7.032 8.92884 6.676 9.36084 6.42C9.79284 6.164 10.2848 6.036 10.8368 6.036C11.2448 6.036 11.6088 6.104 11.9288 6.24C12.2488 6.368 12.5208 6.56 12.7448 6.816C12.9768 7.064 13.1488 7.368 13.2608 7.728C13.3808 8.088 13.4408 8.492 13.4408 8.94C13.4408 9.076 13.4008 9.18 13.3208 9.252C13.2408 9.316 13.1208 9.348 12.9608 9.348H8.92884V8.604H12.6248L12.4208 8.772C12.4208 8.372 12.3608 8.032 12.2408 7.752C12.1288 7.472 11.9568 7.26 11.7248 7.116C11.5008 6.964 11.2208 6.888 10.8848 6.888C10.5088 6.888 10.1888 6.976 9.92484 7.152C9.66884 7.328 9.47284 7.572 9.33684 7.884C9.20084 8.196 9.13284 8.56 9.13284 8.976V9.048C9.13284 9.752 9.29684 10.284 9.62484 10.644C9.96084 10.996 10.4448 11.172 11.0768 11.172C11.3168 11.172 11.5688 11.14 11.8328 11.076C12.1048 11.012 12.3608 10.904 12.6008 10.752C12.7368 10.672 12.8568 10.636 12.9608 10.644C13.0728 10.652 13.1608 10.688 13.2248 10.752C13.2968 10.816 13.3408 10.896 13.3568 10.992C13.3728 11.088 13.3568 11.188 13.3088 11.292C13.2608 11.388 13.1768 11.476 13.0568 11.556C12.7848 11.74 12.4688 11.88 12.1088 11.976C11.7488 12.064 11.4008 12.108 11.0648 12.108ZM16.6462 12.108C16.0222 12.108 15.5502 11.928 15.2302 11.568C14.9182 11.2 14.7622 10.672 14.7622 9.984V4.068C14.7622 3.868 14.8142 3.716 14.9182 3.612C15.0222 3.508 15.1702 3.456 15.3622 3.456C15.5542 3.456 15.7022 3.508 15.8062 3.612C15.9182 3.716 15.9742 3.868 15.9742 4.068V9.912C15.9742 10.312 16.0542 10.612 16.2142 10.812C16.3822 11.004 16.6222 11.1 16.9342 11.1C17.0062 11.1 17.0702 11.1 17.1262 11.1C17.1822 11.092 17.2382 11.084 17.2942 11.076C17.3902 11.068 17.4582 11.096 17.4982 11.16C17.5382 11.216 17.5582 11.336 17.5582 11.52C17.5582 11.688 17.5222 11.82 17.4502 11.916C17.3782 12.004 17.2622 12.06 17.1022 12.084C17.0302 12.092 16.9542 12.096 16.8742 12.096C16.7942 12.104 16.7182 12.108 16.6462 12.108ZM21.1195 12.108C20.4795 12.108 19.9275 11.988 19.4635 11.748C19.0075 11.5 18.6515 11.152 18.3955 10.704C18.1475 10.248 18.0235 9.708 18.0235 9.084C18.0235 8.476 18.1475 7.944 18.3955 7.488C18.6435 7.032 18.9835 6.676 19.4155 6.42C19.8475 6.164 20.3395 6.036 20.8915 6.036C21.2995 6.036 21.6635 6.104 21.9835 6.24C22.3035 6.368 22.5755 6.56 22.7995 6.816C23.0315 7.064 23.2035 7.368 23.3155 7.728C23.4355 8.088 23.4955 8.492 23.4955 8.94C23.4955 9.076 23.4555 9.18 23.3755 9.252C23.2955 9.316 23.1755 9.348 23.0155 9.348H18.9835V8.604H22.6795L22.4755 8.772C22.4755 8.372 22.4155 8.032 22.2955 7.752C22.1835 7.472 22.0115 7.26 21.7795 7.116C21.5555 6.964 21.2755 6.888 20.9395 6.888C20.5635 6.888 20.2435 6.976 19.9795 7.152C19.7235 7.328 19.5275 7.572 19.3915 7.884C19.2555 8.196 19.1875 8.56 19.1875 8.976V9.048C19.1875 9.752 19.3515 10.284 19.6795 10.644C20.0155 10.996 20.4995 11.172 21.1315 11.172C21.3715 11.172 21.6235 11.14 21.8875 11.076C22.1595 11.012 22.4155 10.904 22.6555 10.752C22.7915 10.672 22.9115 10.636 23.0155 10.644C23.1275 10.652 23.2155 10.688 23.2795 10.752C23.3515 10.816 23.3955 10.896 23.4115 10.992C23.4275 11.088 23.4115 11.188 23.3635 11.292C23.3155 11.388 23.2315 11.476 23.1115 11.556C22.8395 11.74 22.5235 11.88 22.1635 11.976C21.8035 12.064 21.4555 12.108 21.1195 12.108ZM27.3968 12.108C26.7968 12.108 26.2768 11.984 25.8368 11.736C25.4048 11.48 25.0688 11.124 24.8288 10.668C24.5888 10.204 24.4688 9.66 24.4688 9.036C24.4688 8.572 24.5368 8.156 24.6728 7.788C24.8088 7.412 25.0008 7.096 25.2488 6.84C25.5048 6.584 25.8128 6.388 26.1728 6.252C26.5408 6.108 26.9488 6.036 27.3968 6.036C27.6768 6.036 27.9688 6.08 28.2728 6.168C28.5848 6.248 28.8728 6.384 29.1368 6.576C29.2408 6.64 29.3048 6.72 29.3288 6.816C29.3608 6.904 29.3648 6.996 29.3408 7.092C29.3248 7.188 29.2808 7.272 29.2088 7.344C29.1448 7.408 29.0648 7.448 28.9688 7.464C28.8728 7.472 28.7688 7.444 28.6568 7.38C28.4648 7.244 28.2688 7.148 28.0688 7.092C27.8688 7.028 27.6768 6.996 27.4928 6.996C27.2048 6.996 26.9488 7.044 26.7248 7.14C26.5088 7.228 26.3248 7.36 26.1728 7.536C26.0208 7.704 25.9048 7.916 25.8248 8.172C25.7528 8.428 25.7168 8.72 25.7168 9.048C25.7168 9.704 25.8688 10.22 26.1728 10.596C26.4848 10.964 26.9248 11.148 27.4928 11.148C27.6768 11.148 27.8688 11.12 28.0688 11.064C28.2688 11.008 28.4648 10.912 28.6568 10.776C28.7688 10.712 28.8728 10.688 28.9688 10.704C29.0648 10.72 29.1408 10.764 29.1968 10.836C29.2608 10.9 29.3008 10.98 29.3168 11.076C29.3408 11.164 29.3368 11.256 29.3048 11.352C29.2728 11.448 29.2048 11.528 29.1008 11.592C28.8448 11.776 28.5648 11.908 28.2608 11.988C27.9648 12.068 27.6768 12.108 27.3968 12.108ZM32.9261 12.108C32.4461 12.108 32.0421 12.024 31.7141 11.856C31.3861 11.688 31.1421 11.44 30.9821 11.112C30.8221 10.784 30.7421 10.384 30.7421 9.912V7.08H30.0221C29.8621 7.08 29.7381 7.04 29.6501 6.96C29.5621 6.872 29.5181 6.756 29.5181 6.612C29.5181 6.46 29.5621 6.344 29.6501 6.264C29.7381 6.184 29.8621 6.144 30.0221 6.144H30.7421V4.908C30.7421 4.708 30.7941 4.556 30.8981 4.452C31.0101 4.348 31.1621 4.296 31.3541 4.296C31.5461 4.296 31.6941 4.348 31.7981 4.452C31.9021 4.556 31.9541 4.708 31.9541 4.908V6.144H33.3581C33.5181 6.144 33.6421 6.184 33.7301 6.264C33.8181 6.344 33.8621 6.46 33.8621 6.612C33.8621 6.756 33.8181 6.872 33.7301 6.96C33.6421 7.04 33.5181 7.08 33.3581 7.08H31.9541V9.816C31.9541 10.24 32.0421 10.56 32.2181 10.776C32.4021 10.992 32.6981 11.1 33.1061 11.1C33.2501 11.1 33.3741 11.088 33.4781 11.064C33.5901 11.032 33.6821 11.012 33.7541 11.004C33.8421 11.004 33.9141 11.036 33.9701 11.1C34.0261 11.156 34.0541 11.268 34.0541 11.436C34.0541 11.556 34.0301 11.668 33.9821 11.772C33.9421 11.876 33.8661 11.944 33.7541 11.976C33.6581 12.008 33.5261 12.036 33.3581 12.06C33.1981 12.092 33.0541 12.108 32.9261 12.108ZM38.781 12C38.565 12 38.397 11.944 38.277 11.832C38.165 11.712 38.109 11.544 38.109 11.328V4.212C38.109 3.996 38.165 3.832 38.277 3.72C38.397 3.6 38.565 3.54 38.781 3.54H43.161C43.329 3.54 43.457 3.584 43.545 3.672C43.633 3.752 43.677 3.872 43.677 4.032C43.677 4.2 43.633 4.328 43.545 4.416C43.457 4.504 43.329 4.548 43.161 4.548H39.309V7.2H42.897C43.073 7.2 43.201 7.244 43.281 7.332C43.369 7.42 43.413 7.544 43.413 7.704C43.413 7.872 43.369 8 43.281 8.088C43.201 8.168 43.073 8.208 42.897 8.208H39.309V10.992H43.161C43.329 10.992 43.457 11.036 43.545 11.124C43.633 11.212 43.677 11.336 43.677 11.496C43.677 11.664 43.633 11.792 43.545 11.88C43.457 11.96 43.329 12 43.161 12H38.781ZM45.6674 12.084C45.4754 12.084 45.3274 12.032 45.2234 11.928C45.1194 11.816 45.0674 11.664 45.0674 11.472V6.672C45.0674 6.472 45.1194 6.32 45.2234 6.216C45.3274 6.112 45.4714 6.06 45.6554 6.06C45.8474 6.06 45.9914 6.112 46.0874 6.216C46.1914 6.32 46.2434 6.472 46.2434 6.672V7.656L46.1114 7.392C46.2714 6.968 46.5194 6.636 46.8554 6.396C47.1914 6.156 47.5954 6.036 48.0674 6.036C48.5554 6.036 48.9514 6.152 49.2554 6.384C49.5594 6.616 49.7674 6.972 49.8794 7.452H49.7114C49.8634 7.012 50.1234 6.668 50.4914 6.42C50.8594 6.164 51.2874 6.036 51.7754 6.036C52.2234 6.036 52.5914 6.124 52.8794 6.3C53.1674 6.468 53.3834 6.728 53.5274 7.08C53.6714 7.424 53.7434 7.86 53.7434 8.388V11.472C53.7434 11.664 53.6874 11.816 53.5754 11.928C53.4714 12.032 53.3234 12.084 53.1314 12.084C52.9394 12.084 52.7914 12.032 52.6874 11.928C52.5834 11.816 52.5314 11.664 52.5314 11.472V8.448C52.5314 7.952 52.4434 7.588 52.2674 7.356C52.0994 7.124 51.8194 7.008 51.4274 7.008C50.9874 7.008 50.6394 7.16 50.3834 7.464C50.1274 7.768 49.9994 8.188 49.9994 8.724V11.472C49.9994 11.664 49.9474 11.816 49.8434 11.928C49.7394 12.032 49.5914 12.084 49.3994 12.084C49.2074 12.084 49.0554 12.032 48.9434 11.928C48.8394 11.816 48.7874 11.664 48.7874 11.472V8.448C48.7874 7.952 48.7034 7.588 48.5354 7.356C48.3674 7.124 48.0874 7.008 47.6954 7.008C47.2554 7.008 46.9074 7.16 46.6514 7.464C46.4034 7.768 46.2794 8.188 46.2794 8.724V11.472C46.2794 11.88 46.0754 12.084 45.6674 12.084ZM56.0379 14.244C55.8459 14.244 55.6979 14.192 55.5939 14.088C55.4899 13.984 55.4379 13.832 55.4379 13.632V6.672C55.4379 6.472 55.4899 6.32 55.5939 6.216C55.6979 6.112 55.8419 6.06 56.0259 6.06C56.2179 6.06 56.3659 6.112 56.4699 6.216C56.5739 6.32 56.6259 6.472 56.6259 6.672V7.716L56.4939 7.464C56.6219 7.032 56.8739 6.688 57.2499 6.432C57.6259 6.168 58.0699 6.036 58.5819 6.036C59.1019 6.036 59.5539 6.16 59.9379 6.408C60.3299 6.656 60.6299 7.004 60.8379 7.452C61.0539 7.9 61.1619 8.44 61.1619 9.072C61.1619 9.688 61.0539 10.228 60.8379 10.692C60.6299 11.148 60.3339 11.5 59.9499 11.748C59.5659 11.988 59.1099 12.108 58.5819 12.108C58.0779 12.108 57.6379 11.98 57.2619 11.724C56.8859 11.468 56.6339 11.128 56.5059 10.704H56.6499V13.632C56.6499 13.832 56.5939 13.984 56.4819 14.088C56.3779 14.192 56.2299 14.244 56.0379 14.244ZM58.2819 11.172C58.6179 11.172 58.9099 11.092 59.1579 10.932C59.4059 10.772 59.5979 10.536 59.7339 10.224C59.8699 9.912 59.9379 9.528 59.9379 9.072C59.9379 8.384 59.7859 7.864 59.4819 7.512C59.1859 7.16 58.7859 6.984 58.2819 6.984C57.9539 6.984 57.6619 7.064 57.4059 7.224C57.1579 7.376 56.9659 7.608 56.8299 7.92C56.6939 8.232 56.6259 8.616 56.6259 9.072C56.6259 9.752 56.7779 10.272 57.0819 10.632C57.3859 10.992 57.7859 11.172 58.2819 11.172ZM64.4118 12.108C63.7878 12.108 63.3158 11.928 62.9958 11.568C62.6838 11.2 62.5278 10.672 62.5278 9.984V4.068C62.5278 3.868 62.5798 3.716 62.6838 3.612C62.7878 3.508 62.9358 3.456 63.1278 3.456C63.3198 3.456 63.4678 3.508 63.5718 3.612C63.6838 3.716 63.7398 3.868 63.7398 4.068V9.912C63.7398 10.312 63.8198 10.612 63.9798 10.812C64.1478 11.004 64.3878 11.1 64.6998 11.1C64.7718 11.1 64.8358 11.1 64.8918 11.1C64.9478 11.092 65.0038 11.084 65.0598 11.076C65.1558 11.068 65.2238 11.096 65.2638 11.16C65.3038 11.216 65.3238 11.336 65.3238 11.52C65.3238 11.688 65.2878 11.82 65.2158 11.916C65.1438 12.004 65.0278 12.06 64.8678 12.084C64.7958 12.092 64.7198 12.096 64.6398 12.096C64.5598 12.104 64.4838 12.108 64.4118 12.108ZM68.6812 12.108C68.0892 12.108 67.5772 11.984 67.1452 11.736C66.7212 11.488 66.3892 11.136 66.1492 10.68C65.9092 10.224 65.7892 9.688 65.7892 9.072C65.7892 8.6 65.8572 8.18 65.9932 7.812C66.1292 7.444 66.3212 7.128 66.5692 6.864C66.8252 6.592 67.1292 6.388 67.4812 6.252C67.8412 6.108 68.2412 6.036 68.6812 6.036C69.2652 6.036 69.7692 6.16 70.1932 6.408C70.6252 6.656 70.9612 7.008 71.2012 7.464C71.4412 7.912 71.5612 8.448 71.5612 9.072C71.5612 9.536 71.4932 9.956 71.3572 10.332C71.2212 10.708 71.0252 11.028 70.7692 11.292C70.5212 11.556 70.2172 11.76 69.8572 11.904C69.5052 12.04 69.1132 12.108 68.6812 12.108ZM68.6812 11.172C69.0092 11.172 69.2972 11.092 69.5452 10.932C69.7932 10.772 69.9852 10.536 70.1212 10.224C70.2652 9.912 70.3372 9.528 70.3372 9.072C70.3372 8.384 70.1852 7.864 69.8812 7.512C69.5772 7.16 69.1772 6.984 68.6812 6.984C68.3452 6.984 68.0532 7.064 67.8052 7.224C67.5572 7.376 67.3612 7.608 67.2172 7.92C67.0812 8.232 67.0132 8.616 67.0132 9.072C67.0132 9.752 67.1652 10.272 67.4692 10.632C67.7732 10.992 68.1772 11.172 68.6812 11.172ZM74.1968 14.244C74.0528 14.244 73.9328 14.204 73.8368 14.124C73.7488 14.052 73.6968 13.952 73.6808 13.824C73.6728 13.704 73.6968 13.572 73.7528 13.428L74.5688 11.592V12.108L72.3248 6.888C72.2688 6.744 72.2488 6.608 72.2648 6.48C72.2808 6.352 72.3408 6.252 72.4448 6.18C72.5488 6.1 72.6888 6.06 72.8648 6.06C73.0168 6.06 73.1368 6.096 73.2248 6.168C73.3128 6.24 73.3928 6.364 73.4648 6.54L75.2768 11.016H74.9408L76.7768 6.54C76.8488 6.356 76.9328 6.232 77.0288 6.168C77.1248 6.096 77.2568 6.06 77.4248 6.06C77.5688 6.06 77.6808 6.1 77.7608 6.18C77.8488 6.252 77.9008 6.352 77.9168 6.48C77.9408 6.6 77.9208 6.732 77.8568 6.876L74.8568 13.776C74.7768 13.96 74.6848 14.084 74.5808 14.148C74.4848 14.212 74.3568 14.244 74.1968 14.244ZM81.6938 12.108C81.0538 12.108 80.5018 11.988 80.0378 11.748C79.5818 11.5 79.2258 11.152 78.9698 10.704C78.7218 10.248 78.5978 9.708 78.5978 9.084C78.5978 8.476 78.7218 7.944 78.9698 7.488C79.2178 7.032 79.5578 6.676 79.9898 6.42C80.4218 6.164 80.9138 6.036 81.4658 6.036C81.8738 6.036 82.2378 6.104 82.5578 6.24C82.8778 6.368 83.1498 6.56 83.3738 6.816C83.6058 7.064 83.7778 7.368 83.8898 7.728C84.0098 8.088 84.0698 8.492 84.0698 8.94C84.0698 9.076 84.0298 9.18 83.9498 9.252C83.8698 9.316 83.7498 9.348 83.5898 9.348H79.5578V8.604H83.2538L83.0498 8.772C83.0498 8.372 82.9898 8.032 82.8698 7.752C82.7578 7.472 82.5858 7.26 82.3538 7.116C82.1298 6.964 81.8498 6.888 81.5138 6.888C81.1378 6.888 80.8178 6.976 80.5538 7.152C80.2978 7.328 80.1018 7.572 79.9658 7.884C79.8298 8.196 79.7618 8.56 79.7618 8.976V9.048C79.7618 9.752 79.9258 10.284 80.2538 10.644C80.5898 10.996 81.0738 11.172 81.7058 11.172C81.9458 11.172 82.1978 11.14 82.4618 11.076C82.7338 11.012 82.9898 10.904 83.2298 10.752C83.3658 10.672 83.4858 10.636 83.5898 10.644C83.7018 10.652 83.7898 10.688 83.8538 10.752C83.9258 10.816 83.9698 10.896 83.9858 10.992C84.0018 11.088 83.9858 11.188 83.9378 11.292C83.8898 11.388 83.8058 11.476 83.6858 11.556C83.4138 11.74 83.0978 11.88 82.7378 11.976C82.3778 12.064 82.0298 12.108 81.6938 12.108ZM88.1391 12.108C87.4991 12.108 86.9471 11.988 86.4831 11.748C86.0271 11.5 85.6711 11.152 85.4151 10.704C85.1671 10.248 85.0431 9.708 85.0431 9.084C85.0431 8.476 85.1671 7.944 85.4151 7.488C85.6631 7.032 86.0031 6.676 86.4351 6.42C86.8671 6.164 87.3591 6.036 87.9111 6.036C88.3191 6.036 88.6831 6.104 89.0031 6.24C89.3231 6.368 89.5951 6.56 89.8191 6.816C90.0511 7.064 90.2231 7.368 90.3351 7.728C90.4551 8.088 90.5151 8.492 90.5151 8.94C90.5151 9.076 90.4751 9.18 90.3951 9.252C90.3151 9.316 90.1951 9.348 90.0351 9.348H86.0031V8.604H89.6991L89.4951 8.772C89.4951 8.372 89.4351 8.032 89.3151 7.752C89.2031 7.472 89.0311 7.26 88.7991 7.116C88.5751 6.964 88.2951 6.888 87.9591 6.888C87.5831 6.888 87.2631 6.976 86.9991 7.152C86.7431 7.328 86.5471 7.572 86.4111 7.884C86.2751 8.196 86.2071 8.56 86.2071 8.976V9.048C86.2071 9.752 86.3711 10.284 86.6991 10.644C87.0351 10.996 87.5191 11.172 88.1511 11.172C88.3911 11.172 88.6431 11.14 88.9071 11.076C89.1791 11.012 89.4351 10.904 89.6751 10.752C89.8111 10.672 89.9311 10.636 90.0351 10.644C90.1471 10.652 90.2351 10.688 90.2991 10.752C90.3711 10.816 90.4151 10.896 90.4311 10.992C90.4471 11.088 90.4311 11.188 90.3831 11.292C90.3351 11.388 90.2511 11.476 90.1311 11.556C89.8591 11.74 89.5431 11.88 89.1831 11.976C88.8231 12.064 88.4751 12.108 88.1391 12.108Z" fill="#64728C"/>
</svg>
