<svg width="310" height="75" viewBox="0 0 310 75" fill="none" xmlns="http://www.w3.org/2000/svg">
<g filter="url(#filter0_d_606_5601)">
<rect x="5" y="21" width="300" height="45" rx="12" fill="white" shape-rendering="crispEdges"/>
<rect x="5.5" y="21.5" width="299" height="44" rx="11.5" stroke="#EB0910" shape-rendering="crispEdges"/>
<path d="M16.524 47.584C16.38 47.584 16.268 47.544 16.188 47.464C16.108 47.376 16.068 47.256 16.068 47.104V39.436C16.068 39.276 16.108 39.156 16.188 39.076C16.268 38.996 16.38 38.956 16.524 38.956C16.652 38.956 16.752 38.984 16.824 39.04C16.904 39.088 16.976 39.172 17.04 39.292L20.328 45.484H19.968L23.244 39.292C23.308 39.172 23.376 39.088 23.448 39.04C23.52 38.984 23.624 38.956 23.76 38.956C23.896 38.956 24.004 38.996 24.084 39.076C24.164 39.156 24.204 39.276 24.204 39.436V47.104C24.204 47.256 24.164 47.376 24.084 47.464C24.012 47.544 23.9 47.584 23.748 47.584C23.604 47.584 23.492 47.544 23.412 47.464C23.332 47.376 23.292 47.256 23.292 47.104V40.36H23.58L20.58 45.988C20.524 46.092 20.464 46.168 20.4 46.216C20.344 46.256 20.26 46.276 20.148 46.276C20.036 46.276 19.948 46.252 19.884 46.204C19.82 46.156 19.764 46.084 19.716 45.988L16.68 40.348H16.968V47.104C16.968 47.256 16.928 47.376 16.848 47.464C16.776 47.544 16.668 47.584 16.524 47.584ZM28.0136 47.608C27.6136 47.608 27.2536 47.532 26.9336 47.38C26.6216 47.22 26.3736 47.004 26.1896 46.732C26.0056 46.46 25.9136 46.156 25.9136 45.82C25.9136 45.388 26.0216 45.048 26.2376 44.8C26.4616 44.552 26.8256 44.376 27.3296 44.272C27.8416 44.168 28.5376 44.116 29.4176 44.116H29.9576V44.752H29.4296C28.7816 44.752 28.2696 44.784 27.8936 44.848C27.5256 44.904 27.2656 45.004 27.1136 45.148C26.9696 45.292 26.8976 45.496 26.8976 45.76C26.8976 46.088 27.0096 46.356 27.2336 46.564C27.4656 46.772 27.7776 46.876 28.1696 46.876C28.4896 46.876 28.7696 46.8 29.0096 46.648C29.2576 46.496 29.4496 46.288 29.5856 46.024C29.7296 45.76 29.8016 45.456 29.8016 45.112V43.744C29.8016 43.248 29.7016 42.892 29.5016 42.676C29.3016 42.452 28.9736 42.34 28.5176 42.34C28.2376 42.34 27.9576 42.376 27.6776 42.448C27.3976 42.52 27.1016 42.636 26.7896 42.796C26.6776 42.852 26.5816 42.872 26.5016 42.856C26.4216 42.832 26.3576 42.788 26.3096 42.724C26.2616 42.66 26.2336 42.588 26.2256 42.508C26.2176 42.42 26.2336 42.336 26.2736 42.256C26.3216 42.176 26.3936 42.112 26.4896 42.064C26.8416 41.888 27.1896 41.76 27.5336 41.68C27.8776 41.6 28.2056 41.56 28.5176 41.56C29.0216 41.56 29.4376 41.644 29.7656 41.812C30.0936 41.972 30.3376 42.22 30.4976 42.556C30.6576 42.884 30.7376 43.308 30.7376 43.828V47.08C30.7376 47.24 30.6976 47.364 30.6176 47.452C30.5456 47.54 30.4376 47.584 30.2936 47.584C30.1416 47.584 30.0256 47.54 29.9456 47.452C29.8656 47.364 29.8256 47.24 29.8256 47.08V46.144H29.9336C29.8696 46.448 29.7456 46.708 29.5616 46.924C29.3856 47.14 29.1656 47.308 28.9016 47.428C28.6376 47.548 28.3416 47.608 28.0136 47.608ZM35.1209 49.768C34.6969 49.768 34.2809 49.716 33.8729 49.612C33.4729 49.516 33.1089 49.36 32.7809 49.144C32.6849 49.088 32.6209 49.02 32.5889 48.94C32.5649 48.86 32.5609 48.78 32.5769 48.7C32.5929 48.628 32.6289 48.56 32.6849 48.496C32.7409 48.44 32.8049 48.404 32.8769 48.388C32.9569 48.372 33.0369 48.384 33.1169 48.424C33.4689 48.64 33.8049 48.788 34.1249 48.868C34.4449 48.948 34.7609 48.988 35.0729 48.988C35.6409 48.988 36.0689 48.836 36.3569 48.532C36.6529 48.228 36.8009 47.788 36.8009 47.212V45.856H36.9209C36.8009 46.32 36.5449 46.688 36.1529 46.96C35.7689 47.232 35.3169 47.368 34.7969 47.368C34.2609 47.368 33.7969 47.248 33.4049 47.008C33.0129 46.76 32.7089 46.416 32.4929 45.976C32.2849 45.536 32.1809 45.028 32.1809 44.452C32.1809 44.02 32.2409 43.628 32.3609 43.276C32.4809 42.916 32.6529 42.612 32.8769 42.364C33.1089 42.108 33.3849 41.912 33.7049 41.776C34.0329 41.632 34.3969 41.56 34.7969 41.56C35.3249 41.56 35.7809 41.696 36.1649 41.968C36.5489 42.232 36.7969 42.592 36.9089 43.048L36.7889 43.192V42.076C36.7889 41.916 36.8289 41.796 36.9089 41.716C36.9969 41.628 37.1169 41.584 37.2689 41.584C37.4289 41.584 37.5489 41.628 37.6289 41.716C37.7089 41.796 37.7489 41.916 37.7489 42.076V47.08C37.7489 47.968 37.5249 48.636 37.0769 49.084C36.6369 49.54 35.9849 49.768 35.1209 49.768ZM34.9769 46.576C35.3529 46.576 35.6769 46.492 35.9489 46.324C36.2209 46.148 36.4289 45.9 36.5729 45.58C36.7249 45.26 36.8009 44.884 36.8009 44.452C36.8009 43.804 36.6369 43.292 36.3089 42.916C35.9809 42.532 35.5369 42.34 34.9769 42.34C34.6089 42.34 34.2889 42.428 34.0169 42.604C33.7449 42.772 33.5329 43.016 33.3809 43.336C33.2369 43.648 33.1649 44.02 33.1649 44.452C33.1649 45.1 33.3289 45.616 33.6569 46C33.9849 46.384 34.4249 46.576 34.9769 46.576ZM42.1522 49.768C41.7282 49.768 41.3122 49.716 40.9042 49.612C40.5042 49.516 40.1402 49.36 39.8122 49.144C39.7162 49.088 39.6522 49.02 39.6202 48.94C39.5962 48.86 39.5922 48.78 39.6082 48.7C39.6242 48.628 39.6602 48.56 39.7162 48.496C39.7722 48.44 39.8362 48.404 39.9082 48.388C39.9882 48.372 40.0682 48.384 40.1482 48.424C40.5002 48.64 40.8362 48.788 41.1562 48.868C41.4762 48.948 41.7922 48.988 42.1042 48.988C42.6722 48.988 43.1002 48.836 43.3882 48.532C43.6842 48.228 43.8322 47.788 43.8322 47.212V45.856H43.9522C43.8322 46.32 43.5762 46.688 43.1842 46.96C42.8002 47.232 42.3482 47.368 41.8282 47.368C41.2922 47.368 40.8282 47.248 40.4362 47.008C40.0442 46.76 39.7402 46.416 39.5242 45.976C39.3162 45.536 39.2122 45.028 39.2122 44.452C39.2122 44.02 39.2722 43.628 39.3922 43.276C39.5122 42.916 39.6842 42.612 39.9082 42.364C40.1402 42.108 40.4162 41.912 40.7362 41.776C41.0642 41.632 41.4282 41.56 41.8282 41.56C42.3562 41.56 42.8122 41.696 43.1962 41.968C43.5802 42.232 43.8282 42.592 43.9402 43.048L43.8202 43.192V42.076C43.8202 41.916 43.8602 41.796 43.9402 41.716C44.0282 41.628 44.1482 41.584 44.3002 41.584C44.4602 41.584 44.5802 41.628 44.6602 41.716C44.7402 41.796 44.7802 41.916 44.7802 42.076V47.08C44.7802 47.968 44.5562 48.636 44.1082 49.084C43.6682 49.54 43.0162 49.768 42.1522 49.768ZM42.0082 46.576C42.3842 46.576 42.7082 46.492 42.9802 46.324C43.2522 46.148 43.4602 45.9 43.6042 45.58C43.7562 45.26 43.8322 44.884 43.8322 44.452C43.8322 43.804 43.6682 43.292 43.3402 42.916C43.0122 42.532 42.5682 42.34 42.0082 42.34C41.6402 42.34 41.3202 42.428 41.0482 42.604C40.7762 42.772 40.5642 43.016 40.4122 43.336C40.2682 43.648 40.1962 44.02 40.1962 44.452C40.1962 45.1 40.3602 45.616 40.6882 46C41.0162 46.384 41.4562 46.576 42.0082 46.576ZM47.8994 49.744C47.7794 49.744 47.6834 49.712 47.6114 49.648C47.5394 49.584 47.4954 49.496 47.4794 49.384C47.4714 49.28 47.4914 49.172 47.5394 49.06L48.3674 47.2V47.62L46.0634 42.268C46.0154 42.148 45.9994 42.036 46.0154 41.932C46.0314 41.828 46.0794 41.744 46.1594 41.68C46.2394 41.616 46.3514 41.584 46.4954 41.584C46.6234 41.584 46.7234 41.612 46.7954 41.668C46.8674 41.724 46.9314 41.824 46.9874 41.968L48.9554 46.792H48.6314L50.6234 41.968C50.6874 41.824 50.7554 41.724 50.8274 41.668C50.8994 41.612 51.0034 41.584 51.1394 41.584C51.2674 41.584 51.3634 41.616 51.4274 41.68C51.4994 41.744 51.5394 41.828 51.5474 41.932C51.5634 42.028 51.5474 42.136 51.4994 42.256L48.4274 49.36C48.3634 49.504 48.2914 49.604 48.2114 49.66C48.1394 49.716 48.0354 49.744 47.8994 49.744ZM59.8572 47.608C58.9532 47.608 58.1892 47.436 57.5652 47.092C56.9492 46.748 56.4812 46.252 56.1612 45.604C55.8412 44.956 55.6812 44.18 55.6812 43.276C55.6812 42.604 55.7692 42 55.9452 41.464C56.1292 40.928 56.3932 40.476 56.7372 40.108C57.0892 39.732 57.5132 39.444 58.0092 39.244C58.5132 39.036 59.0812 38.932 59.7132 38.932C60.2172 38.932 60.7052 39.004 61.1772 39.148C61.6492 39.284 62.0692 39.504 62.4372 39.808C62.5332 39.88 62.5932 39.96 62.6172 40.048C62.6412 40.136 62.6372 40.224 62.6052 40.312C62.5812 40.4 62.5372 40.476 62.4732 40.54C62.4172 40.596 62.3412 40.628 62.2452 40.636C62.1572 40.644 62.0652 40.616 61.9692 40.552C61.6412 40.296 61.2932 40.112 60.9252 40C60.5572 39.88 60.1492 39.82 59.7012 39.82C59.0612 39.82 58.5172 39.956 58.0692 40.228C57.6292 40.5 57.2932 40.892 57.0612 41.404C56.8372 41.916 56.7252 42.54 56.7252 43.276C56.7252 44.396 56.9852 45.252 57.5052 45.844C58.0332 46.436 58.8252 46.732 59.8812 46.732C60.2652 46.732 60.6412 46.696 61.0092 46.624C61.3772 46.544 61.7252 46.436 62.0532 46.3L61.8372 46.864V43.876H60.1212C59.9772 43.876 59.8692 43.84 59.7972 43.768C59.7252 43.696 59.6892 43.6 59.6892 43.48C59.6892 43.352 59.7252 43.256 59.7972 43.192C59.8692 43.128 59.9772 43.096 60.1212 43.096H62.2692C62.4052 43.096 62.5092 43.132 62.5812 43.204C62.6532 43.276 62.6892 43.38 62.6892 43.516V46.648C62.6892 46.768 62.6692 46.868 62.6292 46.948C62.5892 47.028 62.5212 47.088 62.4252 47.128C62.0892 47.264 61.6852 47.38 61.2132 47.476C60.7492 47.564 60.2972 47.608 59.8572 47.608ZM66.6323 47.608C66.1603 47.608 65.7683 47.524 65.4563 47.356C65.1523 47.18 64.9203 46.92 64.7603 46.576C64.6083 46.232 64.5323 45.804 64.5323 45.292V42.076C64.5323 41.908 64.5723 41.784 64.6523 41.704C64.7403 41.624 64.8603 41.584 65.0123 41.584C65.1723 41.584 65.2923 41.624 65.3723 41.704C65.4603 41.784 65.5043 41.908 65.5043 42.076V45.28C65.5043 45.792 65.6083 46.176 65.8163 46.432C66.0323 46.68 66.3683 46.804 66.8242 46.804C67.3203 46.804 67.7243 46.636 68.0363 46.3C68.3483 45.964 68.5043 45.524 68.5043 44.98V42.076C68.5043 41.908 68.5443 41.784 68.6243 41.704C68.7123 41.624 68.8363 41.584 68.9963 41.584C69.1483 41.584 69.2643 41.624 69.3443 41.704C69.4323 41.784 69.4763 41.908 69.4763 42.076V47.08C69.4763 47.416 69.3203 47.584 69.0083 47.584C68.8563 47.584 68.7363 47.54 68.6483 47.452C68.5683 47.364 68.5283 47.24 68.5283 47.08V45.988L68.6843 46.156C68.5243 46.628 68.2603 46.988 67.8923 47.236C67.5323 47.484 67.1123 47.608 66.6323 47.608ZM71.7868 47.584C71.6268 47.584 71.5028 47.54 71.4148 47.452C71.3348 47.364 71.2948 47.24 71.2948 47.08V42.076C71.2948 41.916 71.3348 41.796 71.4148 41.716C71.4948 41.628 71.6108 41.584 71.7628 41.584C71.9148 41.584 72.0308 41.628 72.1108 41.716C72.1988 41.796 72.2428 41.916 72.2428 42.076V43.048H72.1228C72.2508 42.576 72.4948 42.212 72.8548 41.956C73.2148 41.7 73.6588 41.564 74.1868 41.548C74.3068 41.54 74.4028 41.568 74.4748 41.632C74.5468 41.688 74.5868 41.788 74.5948 41.932C74.6028 42.068 74.5708 42.176 74.4988 42.256C74.4268 42.336 74.3148 42.384 74.1628 42.4L73.9708 42.424C73.4268 42.472 73.0068 42.648 72.7108 42.952C72.4228 43.248 72.2788 43.656 72.2788 44.176V47.08C72.2788 47.24 72.2348 47.364 72.1468 47.452C72.0668 47.54 71.9468 47.584 71.7868 47.584ZM77.373 47.608C76.973 47.608 76.613 47.532 76.293 47.38C75.981 47.22 75.733 47.004 75.549 46.732C75.365 46.46 75.273 46.156 75.273 45.82C75.273 45.388 75.381 45.048 75.597 44.8C75.821 44.552 76.185 44.376 76.689 44.272C77.201 44.168 77.897 44.116 78.777 44.116H79.317V44.752H78.789C78.141 44.752 77.629 44.784 77.253 44.848C76.885 44.904 76.625 45.004 76.473 45.148C76.329 45.292 76.257 45.496 76.257 45.76C76.257 46.088 76.369 46.356 76.593 46.564C76.825 46.772 77.137 46.876 77.529 46.876C77.849 46.876 78.129 46.8 78.369 46.648C78.617 46.496 78.809 46.288 78.945 46.024C79.089 45.76 79.161 45.456 79.161 45.112V43.744C79.161 43.248 79.061 42.892 78.861 42.676C78.661 42.452 78.333 42.34 77.877 42.34C77.597 42.34 77.317 42.376 77.037 42.448C76.757 42.52 76.461 42.636 76.149 42.796C76.037 42.852 75.941 42.872 75.861 42.856C75.781 42.832 75.717 42.788 75.669 42.724C75.621 42.66 75.593 42.588 75.585 42.508C75.577 42.42 75.593 42.336 75.633 42.256C75.681 42.176 75.753 42.112 75.849 42.064C76.201 41.888 76.549 41.76 76.893 41.68C77.237 41.6 77.565 41.56 77.877 41.56C78.381 41.56 78.797 41.644 79.125 41.812C79.453 41.972 79.697 42.22 79.857 42.556C80.017 42.884 80.097 43.308 80.097 43.828V47.08C80.097 47.24 80.057 47.364 79.977 47.452C79.905 47.54 79.797 47.584 79.653 47.584C79.501 47.584 79.385 47.54 79.305 47.452C79.225 47.364 79.185 47.24 79.185 47.08V46.144H79.293C79.229 46.448 79.105 46.708 78.921 46.924C78.745 47.14 78.525 47.308 78.261 47.428C77.997 47.548 77.701 47.608 77.373 47.608ZM82.3923 47.584C82.2323 47.584 82.1083 47.54 82.0203 47.452C81.9403 47.364 81.9003 47.24 81.9003 47.08V42.076C81.9003 41.916 81.9403 41.796 82.0203 41.716C82.1003 41.628 82.2163 41.584 82.3683 41.584C82.5203 41.584 82.6363 41.628 82.7163 41.716C82.8043 41.796 82.8483 41.916 82.8483 42.076V43.048H82.7283C82.8563 42.576 83.1003 42.212 83.4603 41.956C83.8203 41.7 84.2643 41.564 84.7923 41.548C84.9123 41.54 85.0083 41.568 85.0803 41.632C85.1523 41.688 85.1923 41.788 85.2003 41.932C85.2083 42.068 85.1763 42.176 85.1043 42.256C85.0323 42.336 84.9203 42.384 84.7683 42.4L84.5763 42.424C84.0323 42.472 83.6123 42.648 83.3163 42.952C83.0283 43.248 82.8843 43.656 82.8843 44.176V47.08C82.8843 47.24 82.8403 47.364 82.7523 47.452C82.6723 47.54 82.5523 47.584 82.3923 47.584ZM88.5548 47.608C87.9868 47.608 87.4948 47.484 87.0788 47.236C86.6628 46.988 86.3388 46.64 86.1068 46.192C85.8828 45.736 85.7708 45.2 85.7708 44.584C85.7708 44.12 85.8348 43.704 85.9628 43.336C86.0908 42.96 86.2788 42.64 86.5268 42.376C86.7748 42.112 87.0668 41.912 87.4028 41.776C87.7468 41.632 88.1308 41.56 88.5548 41.56C89.1228 41.56 89.6148 41.684 90.0308 41.932C90.4468 42.18 90.7668 42.532 90.9908 42.988C91.2228 43.436 91.3388 43.968 91.3388 44.584C91.3388 45.048 91.2748 45.464 91.1468 45.832C91.0188 46.2 90.8308 46.52 90.5828 46.792C90.3348 47.056 90.0388 47.26 89.6948 47.404C89.3588 47.54 88.9788 47.608 88.5548 47.608ZM88.5548 46.828C88.9148 46.828 89.2308 46.74 89.5028 46.564C89.7748 46.388 89.9828 46.132 90.1268 45.796C90.2788 45.46 90.3548 45.056 90.3548 44.584C90.3548 43.856 90.1908 43.3 89.8628 42.916C89.5428 42.532 89.1068 42.34 88.5548 42.34C88.1868 42.34 87.8668 42.428 87.5948 42.604C87.3308 42.772 87.1228 43.024 86.9708 43.36C86.8268 43.688 86.7548 44.096 86.7548 44.584C86.7548 45.304 86.9188 45.86 87.2468 46.252C87.5748 46.636 88.0108 46.828 88.5548 46.828Z" fill="#64728C"/>
</g>
<path d="M8.804 12.108C8.436 12.108 8.076 12.08 7.724 12.024C7.372 11.968 7.04 11.884 6.728 11.772C6.416 11.652 6.136 11.508 5.888 11.34C5.768 11.252 5.684 11.152 5.636 11.04C5.596 10.928 5.584 10.82 5.6 10.716C5.624 10.604 5.672 10.508 5.744 10.428C5.816 10.348 5.904 10.3 6.008 10.284C6.112 10.26 6.228 10.292 6.356 10.38C6.716 10.612 7.096 10.784 7.496 10.896C7.896 11 8.332 11.052 8.804 11.052C9.484 11.052 9.984 10.932 10.304 10.692C10.632 10.444 10.796 10.124 10.796 9.732C10.796 9.412 10.68 9.16 10.448 8.976C10.216 8.784 9.828 8.632 9.284 8.52L8 8.256C7.24 8.096 6.672 7.832 6.296 7.464C5.928 7.096 5.744 6.6 5.744 5.976C5.744 5.6 5.82 5.256 5.972 4.944C6.132 4.632 6.352 4.364 6.632 4.14C6.912 3.908 7.248 3.732 7.64 3.612C8.032 3.492 8.46 3.432 8.924 3.432C9.42 3.432 9.884 3.496 10.316 3.624C10.756 3.752 11.148 3.948 11.492 4.212C11.596 4.284 11.664 4.376 11.696 4.488C11.736 4.592 11.744 4.696 11.72 4.8C11.704 4.904 11.66 4.992 11.588 5.064C11.516 5.136 11.424 5.18 11.312 5.196C11.2 5.204 11.076 5.164 10.94 5.076C10.628 4.868 10.308 4.72 9.98 4.632C9.66 4.536 9.304 4.488 8.912 4.488C8.52 4.488 8.176 4.548 7.88 4.668C7.592 4.788 7.368 4.956 7.208 5.172C7.056 5.388 6.98 5.644 6.98 5.94C6.98 6.276 7.088 6.544 7.304 6.744C7.52 6.944 7.88 7.096 8.384 7.2L9.656 7.464C10.456 7.632 11.052 7.892 11.444 8.244C11.836 8.596 12.032 9.064 12.032 9.648C12.032 10.024 11.956 10.364 11.804 10.668C11.652 10.964 11.436 11.22 11.156 11.436C10.876 11.652 10.536 11.82 10.136 11.94C9.744 12.052 9.3 12.108 8.804 12.108ZM16.0648 12.108C15.4248 12.108 14.8728 11.988 14.4088 11.748C13.9528 11.5 13.5968 11.152 13.3408 10.704C13.0928 10.248 12.9688 9.708 12.9688 9.084C12.9688 8.476 13.0928 7.944 13.3408 7.488C13.5888 7.032 13.9288 6.676 14.3608 6.42C14.7928 6.164 15.2848 6.036 15.8368 6.036C16.2448 6.036 16.6088 6.104 16.9288 6.24C17.2488 6.368 17.5208 6.56 17.7448 6.816C17.9768 7.064 18.1488 7.368 18.2608 7.728C18.3808 8.088 18.4408 8.492 18.4408 8.94C18.4408 9.076 18.4008 9.18 18.3208 9.252C18.2408 9.316 18.1208 9.348 17.9608 9.348H13.9288V8.604H17.6248L17.4208 8.772C17.4208 8.372 17.3608 8.032 17.2408 7.752C17.1288 7.472 16.9568 7.26 16.7248 7.116C16.5008 6.964 16.2208 6.888 15.8848 6.888C15.5088 6.888 15.1888 6.976 14.9248 7.152C14.6688 7.328 14.4728 7.572 14.3368 7.884C14.2008 8.196 14.1328 8.56 14.1328 8.976V9.048C14.1328 9.752 14.2968 10.284 14.6248 10.644C14.9608 10.996 15.4448 11.172 16.0768 11.172C16.3168 11.172 16.5688 11.14 16.8328 11.076C17.1048 11.012 17.3608 10.904 17.6008 10.752C17.7368 10.672 17.8568 10.636 17.9608 10.644C18.0728 10.652 18.1608 10.688 18.2248 10.752C18.2968 10.816 18.3408 10.896 18.3568 10.992C18.3728 11.088 18.3568 11.188 18.3088 11.292C18.2608 11.388 18.1768 11.476 18.0568 11.556C17.7848 11.74 17.4688 11.88 17.1088 11.976C16.7488 12.064 16.4008 12.108 16.0648 12.108ZM21.6462 12.108C21.0222 12.108 20.5502 11.928 20.2302 11.568C19.9182 11.2 19.7622 10.672 19.7622 9.984V4.068C19.7622 3.868 19.8142 3.716 19.9182 3.612C20.0222 3.508 20.1702 3.456 20.3622 3.456C20.5542 3.456 20.7022 3.508 20.8062 3.612C20.9182 3.716 20.9742 3.868 20.9742 4.068V9.912C20.9742 10.312 21.0542 10.612 21.2142 10.812C21.3822 11.004 21.6222 11.1 21.9342 11.1C22.0062 11.1 22.0702 11.1 22.1262 11.1C22.1822 11.092 22.2382 11.084 22.2942 11.076C22.3902 11.068 22.4582 11.096 22.4982 11.16C22.5382 11.216 22.5582 11.336 22.5582 11.52C22.5582 11.688 22.5222 11.82 22.4502 11.916C22.3782 12.004 22.2622 12.06 22.1022 12.084C22.0302 12.092 21.9542 12.096 21.8742 12.096C21.7942 12.104 21.7182 12.108 21.6462 12.108ZM26.1195 12.108C25.4795 12.108 24.9275 11.988 24.4635 11.748C24.0075 11.5 23.6515 11.152 23.3955 10.704C23.1475 10.248 23.0235 9.708 23.0235 9.084C23.0235 8.476 23.1475 7.944 23.3955 7.488C23.6435 7.032 23.9835 6.676 24.4155 6.42C24.8475 6.164 25.3395 6.036 25.8915 6.036C26.2995 6.036 26.6635 6.104 26.9835 6.24C27.3035 6.368 27.5755 6.56 27.7995 6.816C28.0315 7.064 28.2035 7.368 28.3155 7.728C28.4355 8.088 28.4955 8.492 28.4955 8.94C28.4955 9.076 28.4555 9.18 28.3755 9.252C28.2955 9.316 28.1755 9.348 28.0155 9.348H23.9835V8.604H27.6795L27.4755 8.772C27.4755 8.372 27.4155 8.032 27.2955 7.752C27.1835 7.472 27.0115 7.26 26.7795 7.116C26.5555 6.964 26.2755 6.888 25.9395 6.888C25.5635 6.888 25.2435 6.976 24.9795 7.152C24.7235 7.328 24.5275 7.572 24.3915 7.884C24.2555 8.196 24.1875 8.56 24.1875 8.976V9.048C24.1875 9.752 24.3515 10.284 24.6795 10.644C25.0155 10.996 25.4995 11.172 26.1315 11.172C26.3715 11.172 26.6235 11.14 26.8875 11.076C27.1595 11.012 27.4155 10.904 27.6555 10.752C27.7915 10.672 27.9115 10.636 28.0155 10.644C28.1275 10.652 28.2155 10.688 28.2795 10.752C28.3515 10.816 28.3955 10.896 28.4115 10.992C28.4275 11.088 28.4115 11.188 28.3635 11.292C28.3155 11.388 28.2315 11.476 28.1115 11.556C27.8395 11.74 27.5235 11.88 27.1635 11.976C26.8035 12.064 26.4555 12.108 26.1195 12.108ZM32.3968 12.108C31.7968 12.108 31.2768 11.984 30.8368 11.736C30.4048 11.48 30.0688 11.124 29.8288 10.668C29.5888 10.204 29.4688 9.66 29.4688 9.036C29.4688 8.572 29.5368 8.156 29.6728 7.788C29.8088 7.412 30.0008 7.096 30.2488 6.84C30.5048 6.584 30.8128 6.388 31.1728 6.252C31.5408 6.108 31.9488 6.036 32.3968 6.036C32.6768 6.036 32.9688 6.08 33.2728 6.168C33.5848 6.248 33.8728 6.384 34.1368 6.576C34.2408 6.64 34.3048 6.72 34.3288 6.816C34.3608 6.904 34.3648 6.996 34.3408 7.092C34.3248 7.188 34.2808 7.272 34.2088 7.344C34.1448 7.408 34.0648 7.448 33.9688 7.464C33.8728 7.472 33.7688 7.444 33.6568 7.38C33.4648 7.244 33.2688 7.148 33.0688 7.092C32.8688 7.028 32.6768 6.996 32.4928 6.996C32.2048 6.996 31.9488 7.044 31.7248 7.14C31.5088 7.228 31.3248 7.36 31.1728 7.536C31.0208 7.704 30.9048 7.916 30.8248 8.172C30.7528 8.428 30.7168 8.72 30.7168 9.048C30.7168 9.704 30.8688 10.22 31.1728 10.596C31.4848 10.964 31.9248 11.148 32.4928 11.148C32.6768 11.148 32.8688 11.12 33.0688 11.064C33.2688 11.008 33.4648 10.912 33.6568 10.776C33.7688 10.712 33.8728 10.688 33.9688 10.704C34.0648 10.72 34.1408 10.764 34.1968 10.836C34.2608 10.9 34.3008 10.98 34.3168 11.076C34.3408 11.164 34.3368 11.256 34.3048 11.352C34.2728 11.448 34.2048 11.528 34.1008 11.592C33.8448 11.776 33.5648 11.908 33.2608 11.988C32.9648 12.068 32.6768 12.108 32.3968 12.108ZM37.9261 12.108C37.4461 12.108 37.0421 12.024 36.7141 11.856C36.3861 11.688 36.1421 11.44 35.9821 11.112C35.8221 10.784 35.7421 10.384 35.7421 9.912V7.08H35.0221C34.8621 7.08 34.7381 7.04 34.6501 6.96C34.5621 6.872 34.5181 6.756 34.5181 6.612C34.5181 6.46 34.5621 6.344 34.6501 6.264C34.7381 6.184 34.8621 6.144 35.0221 6.144H35.7421V4.908C35.7421 4.708 35.7941 4.556 35.8981 4.452C36.0101 4.348 36.1621 4.296 36.3541 4.296C36.5461 4.296 36.6941 4.348 36.7981 4.452C36.9021 4.556 36.9541 4.708 36.9541 4.908V6.144H38.3581C38.5181 6.144 38.6421 6.184 38.7301 6.264C38.8181 6.344 38.8621 6.46 38.8621 6.612C38.8621 6.756 38.8181 6.872 38.7301 6.96C38.6421 7.04 38.5181 7.08 38.3581 7.08H36.9541V9.816C36.9541 10.24 37.0421 10.56 37.2181 10.776C37.4021 10.992 37.6981 11.1 38.1061 11.1C38.2501 11.1 38.3741 11.088 38.4781 11.064C38.5901 11.032 38.6821 11.012 38.7541 11.004C38.8421 11.004 38.9141 11.036 38.9701 11.1C39.0261 11.156 39.0541 11.268 39.0541 11.436C39.0541 11.556 39.0301 11.668 38.9821 11.772C38.9421 11.876 38.8661 11.944 38.7541 11.976C38.6581 12.008 38.5261 12.036 38.3581 12.06C38.1981 12.092 38.0541 12.108 37.9261 12.108ZM43.781 12C43.565 12 43.397 11.944 43.277 11.832C43.165 11.712 43.109 11.544 43.109 11.328V4.212C43.109 3.996 43.165 3.832 43.277 3.72C43.397 3.6 43.565 3.54 43.781 3.54H48.161C48.329 3.54 48.457 3.584 48.545 3.672C48.633 3.752 48.677 3.872 48.677 4.032C48.677 4.2 48.633 4.328 48.545 4.416C48.457 4.504 48.329 4.548 48.161 4.548H44.309V7.2H47.897C48.073 7.2 48.201 7.244 48.281 7.332C48.369 7.42 48.413 7.544 48.413 7.704C48.413 7.872 48.369 8 48.281 8.088C48.201 8.168 48.073 8.208 47.897 8.208H44.309V10.992H48.161C48.329 10.992 48.457 11.036 48.545 11.124C48.633 11.212 48.677 11.336 48.677 11.496C48.677 11.664 48.633 11.792 48.545 11.88C48.457 11.96 48.329 12 48.161 12H43.781ZM50.6674 12.084C50.4754 12.084 50.3274 12.032 50.2234 11.928C50.1194 11.816 50.0674 11.664 50.0674 11.472V6.672C50.0674 6.472 50.1194 6.32 50.2234 6.216C50.3274 6.112 50.4714 6.06 50.6554 6.06C50.8474 6.06 50.9914 6.112 51.0874 6.216C51.1914 6.32 51.2434 6.472 51.2434 6.672V7.656L51.1114 7.392C51.2714 6.968 51.5194 6.636 51.8554 6.396C52.1914 6.156 52.5954 6.036 53.0674 6.036C53.5554 6.036 53.9514 6.152 54.2554 6.384C54.5594 6.616 54.7674 6.972 54.8794 7.452H54.7114C54.8634 7.012 55.1234 6.668 55.4914 6.42C55.8594 6.164 56.2874 6.036 56.7754 6.036C57.2234 6.036 57.5914 6.124 57.8794 6.3C58.1674 6.468 58.3834 6.728 58.5274 7.08C58.6714 7.424 58.7434 7.86 58.7434 8.388V11.472C58.7434 11.664 58.6874 11.816 58.5754 11.928C58.4714 12.032 58.3234 12.084 58.1314 12.084C57.9394 12.084 57.7914 12.032 57.6874 11.928C57.5834 11.816 57.5314 11.664 57.5314 11.472V8.448C57.5314 7.952 57.4434 7.588 57.2674 7.356C57.0994 7.124 56.8194 7.008 56.4274 7.008C55.9874 7.008 55.6394 7.16 55.3834 7.464C55.1274 7.768 54.9994 8.188 54.9994 8.724V11.472C54.9994 11.664 54.9474 11.816 54.8434 11.928C54.7394 12.032 54.5914 12.084 54.3994 12.084C54.2074 12.084 54.0554 12.032 53.9434 11.928C53.8394 11.816 53.7874 11.664 53.7874 11.472V8.448C53.7874 7.952 53.7034 7.588 53.5354 7.356C53.3674 7.124 53.0874 7.008 52.6954 7.008C52.2554 7.008 51.9074 7.16 51.6514 7.464C51.4034 7.768 51.2794 8.188 51.2794 8.724V11.472C51.2794 11.88 51.0754 12.084 50.6674 12.084ZM61.0379 14.244C60.8459 14.244 60.6979 14.192 60.5939 14.088C60.4899 13.984 60.4379 13.832 60.4379 13.632V6.672C60.4379 6.472 60.4899 6.32 60.5939 6.216C60.6979 6.112 60.8419 6.06 61.0259 6.06C61.2179 6.06 61.3659 6.112 61.4699 6.216C61.5739 6.32 61.6259 6.472 61.6259 6.672V7.716L61.4939 7.464C61.6219 7.032 61.8739 6.688 62.2499 6.432C62.6259 6.168 63.0699 6.036 63.5819 6.036C64.1019 6.036 64.5539 6.16 64.9379 6.408C65.3299 6.656 65.6299 7.004 65.8379 7.452C66.0539 7.9 66.1619 8.44 66.1619 9.072C66.1619 9.688 66.0539 10.228 65.8379 10.692C65.6299 11.148 65.3339 11.5 64.9499 11.748C64.5659 11.988 64.1099 12.108 63.5819 12.108C63.0779 12.108 62.6379 11.98 62.2619 11.724C61.8859 11.468 61.6339 11.128 61.5059 10.704H61.6499V13.632C61.6499 13.832 61.5939 13.984 61.4819 14.088C61.3779 14.192 61.2299 14.244 61.0379 14.244ZM63.2819 11.172C63.6179 11.172 63.9099 11.092 64.1579 10.932C64.4059 10.772 64.5979 10.536 64.7339 10.224C64.8699 9.912 64.9379 9.528 64.9379 9.072C64.9379 8.384 64.7859 7.864 64.4819 7.512C64.1859 7.16 63.7859 6.984 63.2819 6.984C62.9539 6.984 62.6619 7.064 62.4059 7.224C62.1579 7.376 61.9659 7.608 61.8299 7.92C61.6939 8.232 61.6259 8.616 61.6259 9.072C61.6259 9.752 61.7779 10.272 62.0819 10.632C62.3859 10.992 62.7859 11.172 63.2819 11.172ZM69.4118 12.108C68.7878 12.108 68.3158 11.928 67.9958 11.568C67.6838 11.2 67.5278 10.672 67.5278 9.984V4.068C67.5278 3.868 67.5798 3.716 67.6838 3.612C67.7878 3.508 67.9358 3.456 68.1278 3.456C68.3198 3.456 68.4678 3.508 68.5718 3.612C68.6838 3.716 68.7398 3.868 68.7398 4.068V9.912C68.7398 10.312 68.8198 10.612 68.9798 10.812C69.1478 11.004 69.3878 11.1 69.6998 11.1C69.7718 11.1 69.8358 11.1 69.8918 11.1C69.9478 11.092 70.0038 11.084 70.0598 11.076C70.1558 11.068 70.2238 11.096 70.2638 11.16C70.3038 11.216 70.3238 11.336 70.3238 11.52C70.3238 11.688 70.2878 11.82 70.2158 11.916C70.1438 12.004 70.0278 12.06 69.8678 12.084C69.7958 12.092 69.7198 12.096 69.6398 12.096C69.5598 12.104 69.4838 12.108 69.4118 12.108ZM73.6812 12.108C73.0892 12.108 72.5772 11.984 72.1452 11.736C71.7212 11.488 71.3892 11.136 71.1492 10.68C70.9092 10.224 70.7892 9.688 70.7892 9.072C70.7892 8.6 70.8572 8.18 70.9932 7.812C71.1292 7.444 71.3212 7.128 71.5692 6.864C71.8252 6.592 72.1292 6.388 72.4812 6.252C72.8412 6.108 73.2412 6.036 73.6812 6.036C74.2652 6.036 74.7692 6.16 75.1932 6.408C75.6252 6.656 75.9612 7.008 76.2012 7.464C76.4412 7.912 76.5612 8.448 76.5612 9.072C76.5612 9.536 76.4932 9.956 76.3572 10.332C76.2212 10.708 76.0252 11.028 75.7692 11.292C75.5212 11.556 75.2172 11.76 74.8572 11.904C74.5052 12.04 74.1132 12.108 73.6812 12.108ZM73.6812 11.172C74.0092 11.172 74.2972 11.092 74.5452 10.932C74.7932 10.772 74.9852 10.536 75.1212 10.224C75.2652 9.912 75.3372 9.528 75.3372 9.072C75.3372 8.384 75.1852 7.864 74.8812 7.512C74.5772 7.16 74.1772 6.984 73.6812 6.984C73.3452 6.984 73.0532 7.064 72.8052 7.224C72.5572 7.376 72.3612 7.608 72.2172 7.92C72.0812 8.232 72.0132 8.616 72.0132 9.072C72.0132 9.752 72.1652 10.272 72.4692 10.632C72.7732 10.992 73.1772 11.172 73.6812 11.172ZM79.1968 14.244C79.0528 14.244 78.9328 14.204 78.8368 14.124C78.7488 14.052 78.6968 13.952 78.6808 13.824C78.6728 13.704 78.6968 13.572 78.7528 13.428L79.5688 11.592V12.108L77.3248 6.888C77.2688 6.744 77.2488 6.608 77.2648 6.48C77.2808 6.352 77.3408 6.252 77.4448 6.18C77.5488 6.1 77.6888 6.06 77.8648 6.06C78.0168 6.06 78.1368 6.096 78.2248 6.168C78.3128 6.24 78.3928 6.364 78.4648 6.54L80.2768 11.016H79.9408L81.7768 6.54C81.8488 6.356 81.9328 6.232 82.0288 6.168C82.1248 6.096 82.2568 6.06 82.4248 6.06C82.5688 6.06 82.6808 6.1 82.7608 6.18C82.8488 6.252 82.9008 6.352 82.9168 6.48C82.9408 6.6 82.9208 6.732 82.8568 6.876L79.8568 13.776C79.7768 13.96 79.6848 14.084 79.5808 14.148C79.4848 14.212 79.3568 14.244 79.1968 14.244ZM86.6938 12.108C86.0538 12.108 85.5018 11.988 85.0378 11.748C84.5818 11.5 84.2258 11.152 83.9698 10.704C83.7218 10.248 83.5978 9.708 83.5978 9.084C83.5978 8.476 83.7218 7.944 83.9698 7.488C84.2178 7.032 84.5578 6.676 84.9898 6.42C85.4218 6.164 85.9138 6.036 86.4658 6.036C86.8738 6.036 87.2378 6.104 87.5578 6.24C87.8778 6.368 88.1498 6.56 88.3738 6.816C88.6058 7.064 88.7778 7.368 88.8898 7.728C89.0098 8.088 89.0698 8.492 89.0698 8.94C89.0698 9.076 89.0298 9.18 88.9498 9.252C88.8698 9.316 88.7498 9.348 88.5898 9.348H84.5578V8.604H88.2538L88.0498 8.772C88.0498 8.372 87.9898 8.032 87.8698 7.752C87.7578 7.472 87.5858 7.26 87.3538 7.116C87.1298 6.964 86.8498 6.888 86.5138 6.888C86.1378 6.888 85.8178 6.976 85.5538 7.152C85.2978 7.328 85.1018 7.572 84.9658 7.884C84.8298 8.196 84.7618 8.56 84.7618 8.976V9.048C84.7618 9.752 84.9258 10.284 85.2538 10.644C85.5898 10.996 86.0738 11.172 86.7058 11.172C86.9458 11.172 87.1978 11.14 87.4618 11.076C87.7338 11.012 87.9898 10.904 88.2298 10.752C88.3658 10.672 88.4858 10.636 88.5898 10.644C88.7018 10.652 88.7898 10.688 88.8538 10.752C88.9258 10.816 88.9698 10.896 88.9858 10.992C89.0018 11.088 88.9858 11.188 88.9378 11.292C88.8898 11.388 88.8058 11.476 88.6858 11.556C88.4138 11.74 88.0978 11.88 87.7378 11.976C87.3778 12.064 87.0298 12.108 86.6938 12.108ZM93.1391 12.108C92.4991 12.108 91.9471 11.988 91.4831 11.748C91.0271 11.5 90.6711 11.152 90.4151 10.704C90.1671 10.248 90.0431 9.708 90.0431 9.084C90.0431 8.476 90.1671 7.944 90.4151 7.488C90.6631 7.032 91.0031 6.676 91.4351 6.42C91.8671 6.164 92.3591 6.036 92.9111 6.036C93.3191 6.036 93.6831 6.104 94.0031 6.24C94.3231 6.368 94.5951 6.56 94.8191 6.816C95.0511 7.064 95.2231 7.368 95.3351 7.728C95.4551 8.088 95.5151 8.492 95.5151 8.94C95.5151 9.076 95.4751 9.18 95.3951 9.252C95.3151 9.316 95.1951 9.348 95.0351 9.348H91.0031V8.604H94.6991L94.4951 8.772C94.4951 8.372 94.4351 8.032 94.3151 7.752C94.2031 7.472 94.0311 7.26 93.7991 7.116C93.5751 6.964 93.2951 6.888 92.9591 6.888C92.5831 6.888 92.2631 6.976 91.9991 7.152C91.7431 7.328 91.5471 7.572 91.4111 7.884C91.2751 8.196 91.2071 8.56 91.2071 8.976V9.048C91.2071 9.752 91.3711 10.284 91.6991 10.644C92.0351 10.996 92.5191 11.172 93.1511 11.172C93.3911 11.172 93.6431 11.14 93.9071 11.076C94.1791 11.012 94.4351 10.904 94.6751 10.752C94.8111 10.672 94.9311 10.636 95.0351 10.644C95.1471 10.652 95.2351 10.688 95.2991 10.752C95.3711 10.816 95.4151 10.896 95.4311 10.992C95.4471 11.088 95.4311 11.188 95.3831 11.292C95.3351 11.388 95.2511 11.476 95.1311 11.556C94.8591 11.74 94.5431 11.88 94.1831 11.976C93.8231 12.064 93.4751 12.108 93.1391 12.108Z" fill="#64728C"/>
<defs>
<filter id="filter0_d_606_5601" x="0" y="20" width="310" height="55" filterUnits="userSpaceOnUse" color-interpolation-filters="sRGB">
<feFlood flood-opacity="0" result="BackgroundImageFix"/>
<feColorMatrix in="SourceAlpha" type="matrix" values="0 0 0 0 0 0 0 0 0 0 0 0 0 0 0 0 0 0 127 0" result="hardAlpha"/>
<feOffset dy="4"/>
<feGaussianBlur stdDeviation="2.5"/>
<feComposite in2="hardAlpha" operator="out"/>
<feColorMatrix type="matrix" values="0 0 0 0 0.921569 0 0 0 0 0.0352941 0 0 0 0 0.0627451 0 0 0 0.15 0"/>
<feBlend mode="normal" in2="BackgroundImageFix" result="effect1_dropShadow_606_5601"/>
<feBlend mode="normal" in="SourceGraphic" in2="effect1_dropShadow_606_5601" result="shape"/>
</filter>
</defs>
</svg>
