<svg width="310" height="75" viewBox="0 0 310 75" fill="none" xmlns="http://www.w3.org/2000/svg">
<g filter="url(#filter0_d_606_5607)">
<rect x="5" y="21" width="300" height="45" rx="12" fill="white" shape-rendering="crispEdges"/>
<rect x="5.5" y="21.5" width="299" height="44" rx="11.5" stroke="#34BC40" shape-rendering="crispEdges"/>
<path d="M15.336 47.572C15.184 47.58 15.068 47.54 14.988 47.452C14.9 47.364 14.856 47.256 14.856 47.128C14.856 47.032 14.888 46.944 14.952 46.864C15.008 46.784 15.1 46.74 15.228 46.732L15.6 46.708C16.008 46.676 16.32 46.536 16.536 46.288C16.752 46.032 16.86 45.684 16.86 45.244V39.46C16.86 39.292 16.9 39.168 16.98 39.088C17.068 39 17.192 38.956 17.352 38.956C17.512 38.956 17.632 39 17.712 39.088C17.8 39.168 17.844 39.292 17.844 39.46V45.256C17.844 45.712 17.764 46.108 17.604 46.444C17.444 46.772 17.204 47.028 16.884 47.212C16.572 47.396 16.188 47.504 15.732 47.536L15.336 47.572ZM22.2266 47.608C21.6586 47.608 21.1666 47.484 20.7506 47.236C20.3346 46.988 20.0106 46.64 19.7786 46.192C19.5546 45.736 19.4426 45.2 19.4426 44.584C19.4426 44.12 19.5066 43.704 19.6346 43.336C19.7626 42.96 19.9506 42.64 20.1986 42.376C20.4466 42.112 20.7386 41.912 21.0746 41.776C21.4186 41.632 21.8026 41.56 22.2266 41.56C22.7946 41.56 23.2866 41.684 23.7026 41.932C24.1186 42.18 24.4386 42.532 24.6626 42.988C24.8946 43.436 25.0106 43.968 25.0106 44.584C25.0106 45.048 24.9466 45.464 24.8186 45.832C24.6906 46.2 24.5026 46.52 24.2546 46.792C24.0066 47.056 23.7106 47.26 23.3666 47.404C23.0306 47.54 22.6506 47.608 22.2266 47.608ZM22.2266 46.828C22.5866 46.828 22.9026 46.74 23.1746 46.564C23.4466 46.388 23.6546 46.132 23.7986 45.796C23.9506 45.46 24.0266 45.056 24.0266 44.584C24.0266 43.856 23.8626 43.3 23.5346 42.916C23.2146 42.532 22.7786 42.34 22.2266 42.34C21.8586 42.34 21.5386 42.428 21.2666 42.604C21.0026 42.772 20.7946 43.024 20.6426 43.36C20.4986 43.688 20.4266 44.096 20.4266 44.584C20.4266 45.304 20.5906 45.86 20.9186 46.252C21.2466 46.636 21.6826 46.828 22.2266 46.828ZM26.9506 47.584C26.7906 47.584 26.6706 47.54 26.5906 47.452C26.5106 47.364 26.4706 47.24 26.4706 47.08V39.448C26.4706 39.288 26.5106 39.168 26.5906 39.088C26.6706 39 26.7906 38.956 26.9506 38.956C27.1026 38.956 27.2226 39 27.3106 39.088C27.3986 39.168 27.4426 39.288 27.4426 39.448V42.964H27.2866C27.4546 42.5 27.7266 42.152 28.1026 41.92C28.4866 41.68 28.9266 41.56 29.4226 41.56C29.8866 41.56 30.2706 41.644 30.5746 41.812C30.8866 41.98 31.1186 42.236 31.2706 42.58C31.4226 42.916 31.4986 43.344 31.4986 43.864V47.08C31.4986 47.24 31.4546 47.364 31.3666 47.452C31.2866 47.54 31.1706 47.584 31.0186 47.584C30.8586 47.584 30.7346 47.54 30.6466 47.452C30.5666 47.364 30.5266 47.24 30.5266 47.08V43.924C30.5266 43.38 30.4186 42.984 30.2026 42.736C29.9946 42.48 29.6586 42.352 29.1946 42.352C28.6586 42.352 28.2306 42.52 27.9106 42.856C27.5986 43.184 27.4426 43.624 27.4426 44.176V47.08C27.4426 47.416 27.2786 47.584 26.9506 47.584ZM33.7709 47.584C33.6109 47.584 33.4909 47.54 33.4109 47.452C33.3309 47.364 33.2909 47.24 33.2909 47.08V42.076C33.2909 41.916 33.3309 41.796 33.4109 41.716C33.4909 41.628 33.6069 41.584 33.7589 41.584C33.9109 41.584 34.0269 41.628 34.1069 41.716C34.1949 41.796 34.2389 41.916 34.2389 42.076V43.108L34.1069 42.964C34.2749 42.5 34.5469 42.152 34.9229 41.92C35.3069 41.68 35.7469 41.56 36.2429 41.56C36.7069 41.56 37.0909 41.644 37.3949 41.812C37.7069 41.98 37.9389 42.236 38.0909 42.58C38.2429 42.916 38.3189 43.344 38.3189 43.864V47.08C38.3189 47.24 38.2749 47.364 38.1869 47.452C38.1069 47.54 37.9909 47.584 37.8389 47.584C37.6789 47.584 37.5549 47.54 37.4669 47.452C37.3869 47.364 37.3469 47.24 37.3469 47.08V43.924C37.3469 43.38 37.2389 42.984 37.0229 42.736C36.8149 42.48 36.4789 42.352 36.0149 42.352C35.4789 42.352 35.0509 42.52 34.7309 42.856C34.4189 43.184 34.2629 43.624 34.2629 44.176V47.08C34.2629 47.416 34.0989 47.584 33.7709 47.584ZM43.877 47.5C43.701 47.5 43.565 47.456 43.469 47.368C43.381 47.272 43.337 47.136 43.337 46.96V39.58C43.337 39.404 43.381 39.272 43.469 39.184C43.565 39.088 43.701 39.04 43.877 39.04H46.193C47.561 39.04 48.617 39.4 49.361 40.12C50.105 40.84 50.477 41.888 50.477 43.264C50.477 43.952 50.381 44.56 50.189 45.088C50.005 45.608 49.729 46.048 49.361 46.408C48.993 46.768 48.545 47.04 48.017 47.224C47.489 47.408 46.881 47.5 46.193 47.5H43.877ZM44.321 46.66H46.121C46.681 46.66 47.165 46.588 47.573 46.444C47.989 46.3 48.333 46.088 48.605 45.808C48.885 45.528 49.093 45.176 49.229 44.752C49.365 44.32 49.433 43.824 49.433 43.264C49.433 42.136 49.157 41.292 48.605 40.732C48.053 40.164 47.225 39.88 46.121 39.88H44.321V46.66ZM54.5352 47.608C53.9672 47.608 53.4752 47.484 53.0592 47.236C52.6432 46.988 52.3192 46.64 52.0872 46.192C51.8632 45.736 51.7512 45.2 51.7512 44.584C51.7512 44.12 51.8152 43.704 51.9432 43.336C52.0712 42.96 52.2592 42.64 52.5072 42.376C52.7552 42.112 53.0472 41.912 53.3832 41.776C53.7272 41.632 54.1112 41.56 54.5352 41.56C55.1032 41.56 55.5952 41.684 56.0112 41.932C56.4272 42.18 56.7472 42.532 56.9712 42.988C57.2032 43.436 57.3192 43.968 57.3192 44.584C57.3192 45.048 57.2552 45.464 57.1272 45.832C56.9992 46.2 56.8112 46.52 56.5632 46.792C56.3152 47.056 56.0192 47.26 55.6752 47.404C55.3392 47.54 54.9592 47.608 54.5352 47.608ZM54.5352 46.828C54.8952 46.828 55.2112 46.74 55.4832 46.564C55.7552 46.388 55.9632 46.132 56.1072 45.796C56.2592 45.46 56.3352 45.056 56.3352 44.584C56.3352 43.856 56.1712 43.3 55.8432 42.916C55.5232 42.532 55.0872 42.34 54.5352 42.34C54.1672 42.34 53.8472 42.428 53.5752 42.604C53.3112 42.772 53.1032 43.024 52.9512 43.36C52.8072 43.688 52.7352 44.096 52.7352 44.584C52.7352 45.304 52.8992 45.86 53.2272 46.252C53.5552 46.636 53.9912 46.828 54.5352 46.828ZM61.3592 49.768C60.9352 49.768 60.5192 49.716 60.1112 49.612C59.7112 49.516 59.3472 49.36 59.0192 49.144C58.9232 49.088 58.8592 49.02 58.8272 48.94C58.8032 48.86 58.7992 48.78 58.8152 48.7C58.8312 48.628 58.8672 48.56 58.9232 48.496C58.9792 48.44 59.0432 48.404 59.1152 48.388C59.1952 48.372 59.2752 48.384 59.3552 48.424C59.7072 48.64 60.0432 48.788 60.3632 48.868C60.6832 48.948 60.9992 48.988 61.3112 48.988C61.8792 48.988 62.3072 48.836 62.5952 48.532C62.8912 48.228 63.0392 47.788 63.0392 47.212V45.856H63.1592C63.0392 46.32 62.7832 46.688 62.3912 46.96C62.0072 47.232 61.5552 47.368 61.0352 47.368C60.4992 47.368 60.0352 47.248 59.6432 47.008C59.2512 46.76 58.9472 46.416 58.7312 45.976C58.5232 45.536 58.4192 45.028 58.4192 44.452C58.4192 44.02 58.4792 43.628 58.5992 43.276C58.7192 42.916 58.8912 42.612 59.1152 42.364C59.3472 42.108 59.6232 41.912 59.9432 41.776C60.2712 41.632 60.6352 41.56 61.0352 41.56C61.5632 41.56 62.0192 41.696 62.4032 41.968C62.7872 42.232 63.0352 42.592 63.1472 43.048L63.0272 43.192V42.076C63.0272 41.916 63.0672 41.796 63.1472 41.716C63.2352 41.628 63.3552 41.584 63.5072 41.584C63.6672 41.584 63.7872 41.628 63.8672 41.716C63.9472 41.796 63.9872 41.916 63.9872 42.076V47.08C63.9872 47.968 63.7632 48.636 63.3152 49.084C62.8752 49.54 62.2232 49.768 61.3592 49.768ZM61.2152 46.576C61.5912 46.576 61.9152 46.492 62.1872 46.324C62.4592 46.148 62.6672 45.9 62.8112 45.58C62.9632 45.26 63.0392 44.884 63.0392 44.452C63.0392 43.804 62.8752 43.292 62.5472 42.916C62.2192 42.532 61.7752 42.34 61.2152 42.34C60.8472 42.34 60.5272 42.428 60.2552 42.604C59.9832 42.772 59.7712 43.016 59.6192 43.336C59.4752 43.648 59.4032 44.02 59.4032 44.452C59.4032 45.1 59.5672 45.616 59.8952 46C60.2232 46.384 60.6632 46.576 61.2152 46.576ZM68.3904 49.768C67.9664 49.768 67.5504 49.716 67.1424 49.612C66.7424 49.516 66.3784 49.36 66.0504 49.144C65.9544 49.088 65.8904 49.02 65.8584 48.94C65.8344 48.86 65.8304 48.78 65.8464 48.7C65.8624 48.628 65.8984 48.56 65.9544 48.496C66.0104 48.44 66.0744 48.404 66.1464 48.388C66.2264 48.372 66.3064 48.384 66.3864 48.424C66.7384 48.64 67.0744 48.788 67.3944 48.868C67.7144 48.948 68.0304 48.988 68.3424 48.988C68.9104 48.988 69.3384 48.836 69.6264 48.532C69.9224 48.228 70.0704 47.788 70.0704 47.212V45.856H70.1904C70.0704 46.32 69.8144 46.688 69.4224 46.96C69.0384 47.232 68.5864 47.368 68.0664 47.368C67.5304 47.368 67.0664 47.248 66.6744 47.008C66.2824 46.76 65.9784 46.416 65.7624 45.976C65.5544 45.536 65.4504 45.028 65.4504 44.452C65.4504 44.02 65.5104 43.628 65.6304 43.276C65.7504 42.916 65.9224 42.612 66.1464 42.364C66.3784 42.108 66.6544 41.912 66.9744 41.776C67.3024 41.632 67.6664 41.56 68.0664 41.56C68.5944 41.56 69.0504 41.696 69.4344 41.968C69.8184 42.232 70.0664 42.592 70.1784 43.048L70.0584 43.192V42.076C70.0584 41.916 70.0984 41.796 70.1784 41.716C70.2664 41.628 70.3864 41.584 70.5384 41.584C70.6984 41.584 70.8184 41.628 70.8984 41.716C70.9784 41.796 71.0184 41.916 71.0184 42.076V47.08C71.0184 47.968 70.7944 48.636 70.3464 49.084C69.9064 49.54 69.2544 49.768 68.3904 49.768ZM68.2464 46.576C68.6224 46.576 68.9464 46.492 69.2184 46.324C69.4904 46.148 69.6984 45.9 69.8424 45.58C69.9944 45.26 70.0704 44.884 70.0704 44.452C70.0704 43.804 69.9064 43.292 69.5784 42.916C69.2504 42.532 68.8064 42.34 68.2464 42.34C67.8784 42.34 67.5584 42.428 67.2864 42.604C67.0144 42.772 66.8024 43.016 66.6504 43.336C66.5064 43.648 66.4344 44.02 66.4344 44.452C66.4344 45.1 66.5984 45.616 66.9264 46C67.2544 46.384 67.6944 46.576 68.2464 46.576ZM75.4697 47.608C74.8537 47.608 74.3217 47.488 73.8737 47.248C73.4337 47 73.0897 46.652 72.8417 46.204C72.6017 45.756 72.4817 45.22 72.4817 44.596C72.4817 43.988 72.6017 43.46 72.8417 43.012C73.0817 42.556 73.4097 42.2 73.8257 41.944C74.2497 41.688 74.7377 41.56 75.2897 41.56C75.6817 41.56 76.0337 41.628 76.3457 41.764C76.6577 41.892 76.9217 42.08 77.1377 42.328C77.3617 42.576 77.5297 42.876 77.6417 43.228C77.7617 43.58 77.8217 43.976 77.8217 44.416C77.8217 44.544 77.7857 44.64 77.7137 44.704C77.6417 44.76 77.5377 44.788 77.4017 44.788H73.2257V44.152H77.1737L76.9817 44.308C76.9817 43.876 76.9177 43.512 76.7897 43.216C76.6617 42.912 76.4737 42.68 76.2257 42.52C75.9857 42.36 75.6817 42.28 75.3137 42.28C74.9057 42.28 74.5577 42.376 74.2697 42.568C73.9897 42.752 73.7777 43.012 73.6337 43.348C73.4897 43.676 73.4177 44.06 73.4177 44.5V44.572C73.4177 45.308 73.5937 45.868 73.9457 46.252C74.3057 46.636 74.8137 46.828 75.4697 46.828C75.7417 46.828 76.0097 46.792 76.2737 46.72C76.5457 46.648 76.8097 46.528 77.0657 46.36C77.1777 46.288 77.2777 46.256 77.3657 46.264C77.4617 46.264 77.5377 46.292 77.5937 46.348C77.6497 46.396 77.6857 46.46 77.7017 46.54C77.7257 46.612 77.7177 46.692 77.6777 46.78C77.6457 46.868 77.5777 46.944 77.4737 47.008C77.2097 47.2 76.8977 47.348 76.5377 47.452C76.1777 47.556 75.8217 47.608 75.4697 47.608ZM81.5684 47.608C81.1124 47.608 80.7284 47.528 80.4164 47.368C80.1124 47.2 79.8844 46.96 79.7324 46.648C79.5804 46.328 79.5044 45.94 79.5044 45.484V42.424H78.7004C78.5644 42.424 78.4604 42.392 78.3884 42.328C78.3164 42.256 78.2804 42.16 78.2804 42.04C78.2804 41.92 78.3164 41.828 78.3884 41.764C78.4604 41.7 78.5644 41.668 78.7004 41.668H79.5044V40.288C79.5044 40.128 79.5484 40.008 79.6364 39.928C79.7244 39.84 79.8444 39.796 79.9964 39.796C80.1484 39.796 80.2644 39.84 80.3444 39.928C80.4324 40.008 80.4764 40.128 80.4764 40.288V41.668H81.9884C82.1244 41.668 82.2284 41.7 82.3004 41.764C82.3724 41.828 82.4084 41.92 82.4084 42.04C82.4084 42.16 82.3724 42.256 82.3004 42.328C82.2284 42.392 82.1244 42.424 81.9884 42.424H80.4764V45.388C80.4764 45.844 80.5724 46.192 80.7644 46.432C80.9564 46.664 81.2684 46.78 81.7004 46.78C81.8524 46.78 81.9804 46.764 82.0844 46.732C82.1964 46.7 82.2884 46.684 82.3604 46.684C82.4324 46.676 82.4924 46.7 82.5404 46.756C82.5884 46.812 82.6124 46.908 82.6124 47.044C82.6124 47.14 82.5924 47.228 82.5524 47.308C82.5204 47.388 82.4604 47.444 82.3724 47.476C82.2764 47.508 82.1484 47.536 81.9884 47.56C81.8364 47.592 81.6964 47.608 81.5684 47.608Z" fill="#64728C"/>
</g>
<path d="M8.804 12.108C8.436 12.108 8.076 12.08 7.724 12.024C7.372 11.968 7.04 11.884 6.728 11.772C6.416 11.652 6.136 11.508 5.888 11.34C5.768 11.252 5.684 11.152 5.636 11.04C5.596 10.928 5.584 10.82 5.6 10.716C5.624 10.604 5.672 10.508 5.744 10.428C5.816 10.348 5.904 10.3 6.008 10.284C6.112 10.26 6.228 10.292 6.356 10.38C6.716 10.612 7.096 10.784 7.496 10.896C7.896 11 8.332 11.052 8.804 11.052C9.484 11.052 9.984 10.932 10.304 10.692C10.632 10.444 10.796 10.124 10.796 9.732C10.796 9.412 10.68 9.16 10.448 8.976C10.216 8.784 9.828 8.632 9.284 8.52L8 8.256C7.24 8.096 6.672 7.832 6.296 7.464C5.928 7.096 5.744 6.6 5.744 5.976C5.744 5.6 5.82 5.256 5.972 4.944C6.132 4.632 6.352 4.364 6.632 4.14C6.912 3.908 7.248 3.732 7.64 3.612C8.032 3.492 8.46 3.432 8.924 3.432C9.42 3.432 9.884 3.496 10.316 3.624C10.756 3.752 11.148 3.948 11.492 4.212C11.596 4.284 11.664 4.376 11.696 4.488C11.736 4.592 11.744 4.696 11.72 4.8C11.704 4.904 11.66 4.992 11.588 5.064C11.516 5.136 11.424 5.18 11.312 5.196C11.2 5.204 11.076 5.164 10.94 5.076C10.628 4.868 10.308 4.72 9.98 4.632C9.66 4.536 9.304 4.488 8.912 4.488C8.52 4.488 8.176 4.548 7.88 4.668C7.592 4.788 7.368 4.956 7.208 5.172C7.056 5.388 6.98 5.644 6.98 5.94C6.98 6.276 7.088 6.544 7.304 6.744C7.52 6.944 7.88 7.096 8.384 7.2L9.656 7.464C10.456 7.632 11.052 7.892 11.444 8.244C11.836 8.596 12.032 9.064 12.032 9.648C12.032 10.024 11.956 10.364 11.804 10.668C11.652 10.964 11.436 11.22 11.156 11.436C10.876 11.652 10.536 11.82 10.136 11.94C9.744 12.052 9.3 12.108 8.804 12.108ZM16.0648 12.108C15.4248 12.108 14.8728 11.988 14.4088 11.748C13.9528 11.5 13.5968 11.152 13.3408 10.704C13.0928 10.248 12.9688 9.708 12.9688 9.084C12.9688 8.476 13.0928 7.944 13.3408 7.488C13.5888 7.032 13.9288 6.676 14.3608 6.42C14.7928 6.164 15.2848 6.036 15.8368 6.036C16.2448 6.036 16.6088 6.104 16.9288 6.24C17.2488 6.368 17.5208 6.56 17.7448 6.816C17.9768 7.064 18.1488 7.368 18.2608 7.728C18.3808 8.088 18.4408 8.492 18.4408 8.94C18.4408 9.076 18.4008 9.18 18.3208 9.252C18.2408 9.316 18.1208 9.348 17.9608 9.348H13.9288V8.604H17.6248L17.4208 8.772C17.4208 8.372 17.3608 8.032 17.2408 7.752C17.1288 7.472 16.9568 7.26 16.7248 7.116C16.5008 6.964 16.2208 6.888 15.8848 6.888C15.5088 6.888 15.1888 6.976 14.9248 7.152C14.6688 7.328 14.4728 7.572 14.3368 7.884C14.2008 8.196 14.1328 8.56 14.1328 8.976V9.048C14.1328 9.752 14.2968 10.284 14.6248 10.644C14.9608 10.996 15.4448 11.172 16.0768 11.172C16.3168 11.172 16.5688 11.14 16.8328 11.076C17.1048 11.012 17.3608 10.904 17.6008 10.752C17.7368 10.672 17.8568 10.636 17.9608 10.644C18.0728 10.652 18.1608 10.688 18.2248 10.752C18.2968 10.816 18.3408 10.896 18.3568 10.992C18.3728 11.088 18.3568 11.188 18.3088 11.292C18.2608 11.388 18.1768 11.476 18.0568 11.556C17.7848 11.74 17.4688 11.88 17.1088 11.976C16.7488 12.064 16.4008 12.108 16.0648 12.108ZM21.6462 12.108C21.0222 12.108 20.5502 11.928 20.2302 11.568C19.9182 11.2 19.7622 10.672 19.7622 9.984V4.068C19.7622 3.868 19.8142 3.716 19.9182 3.612C20.0222 3.508 20.1702 3.456 20.3622 3.456C20.5542 3.456 20.7022 3.508 20.8062 3.612C20.9182 3.716 20.9742 3.868 20.9742 4.068V9.912C20.9742 10.312 21.0542 10.612 21.2142 10.812C21.3822 11.004 21.6222 11.1 21.9342 11.1C22.0062 11.1 22.0702 11.1 22.1262 11.1C22.1822 11.092 22.2382 11.084 22.2942 11.076C22.3902 11.068 22.4582 11.096 22.4982 11.16C22.5382 11.216 22.5582 11.336 22.5582 11.52C22.5582 11.688 22.5222 11.82 22.4502 11.916C22.3782 12.004 22.2622 12.06 22.1022 12.084C22.0302 12.092 21.9542 12.096 21.8742 12.096C21.7942 12.104 21.7182 12.108 21.6462 12.108ZM26.1195 12.108C25.4795 12.108 24.9275 11.988 24.4635 11.748C24.0075 11.5 23.6515 11.152 23.3955 10.704C23.1475 10.248 23.0235 9.708 23.0235 9.084C23.0235 8.476 23.1475 7.944 23.3955 7.488C23.6435 7.032 23.9835 6.676 24.4155 6.42C24.8475 6.164 25.3395 6.036 25.8915 6.036C26.2995 6.036 26.6635 6.104 26.9835 6.24C27.3035 6.368 27.5755 6.56 27.7995 6.816C28.0315 7.064 28.2035 7.368 28.3155 7.728C28.4355 8.088 28.4955 8.492 28.4955 8.94C28.4955 9.076 28.4555 9.18 28.3755 9.252C28.2955 9.316 28.1755 9.348 28.0155 9.348H23.9835V8.604H27.6795L27.4755 8.772C27.4755 8.372 27.4155 8.032 27.2955 7.752C27.1835 7.472 27.0115 7.26 26.7795 7.116C26.5555 6.964 26.2755 6.888 25.9395 6.888C25.5635 6.888 25.2435 6.976 24.9795 7.152C24.7235 7.328 24.5275 7.572 24.3915 7.884C24.2555 8.196 24.1875 8.56 24.1875 8.976V9.048C24.1875 9.752 24.3515 10.284 24.6795 10.644C25.0155 10.996 25.4995 11.172 26.1315 11.172C26.3715 11.172 26.6235 11.14 26.8875 11.076C27.1595 11.012 27.4155 10.904 27.6555 10.752C27.7915 10.672 27.9115 10.636 28.0155 10.644C28.1275 10.652 28.2155 10.688 28.2795 10.752C28.3515 10.816 28.3955 10.896 28.4115 10.992C28.4275 11.088 28.4115 11.188 28.3635 11.292C28.3155 11.388 28.2315 11.476 28.1115 11.556C27.8395 11.74 27.5235 11.88 27.1635 11.976C26.8035 12.064 26.4555 12.108 26.1195 12.108ZM32.3968 12.108C31.7968 12.108 31.2768 11.984 30.8368 11.736C30.4048 11.48 30.0688 11.124 29.8288 10.668C29.5888 10.204 29.4688 9.66 29.4688 9.036C29.4688 8.572 29.5368 8.156 29.6728 7.788C29.8088 7.412 30.0008 7.096 30.2488 6.84C30.5048 6.584 30.8128 6.388 31.1728 6.252C31.5408 6.108 31.9488 6.036 32.3968 6.036C32.6768 6.036 32.9688 6.08 33.2728 6.168C33.5848 6.248 33.8728 6.384 34.1368 6.576C34.2408 6.64 34.3048 6.72 34.3288 6.816C34.3608 6.904 34.3648 6.996 34.3408 7.092C34.3248 7.188 34.2808 7.272 34.2088 7.344C34.1448 7.408 34.0648 7.448 33.9688 7.464C33.8728 7.472 33.7688 7.444 33.6568 7.38C33.4648 7.244 33.2688 7.148 33.0688 7.092C32.8688 7.028 32.6768 6.996 32.4928 6.996C32.2048 6.996 31.9488 7.044 31.7248 7.14C31.5088 7.228 31.3248 7.36 31.1728 7.536C31.0208 7.704 30.9048 7.916 30.8248 8.172C30.7528 8.428 30.7168 8.72 30.7168 9.048C30.7168 9.704 30.8688 10.22 31.1728 10.596C31.4848 10.964 31.9248 11.148 32.4928 11.148C32.6768 11.148 32.8688 11.12 33.0688 11.064C33.2688 11.008 33.4648 10.912 33.6568 10.776C33.7688 10.712 33.8728 10.688 33.9688 10.704C34.0648 10.72 34.1408 10.764 34.1968 10.836C34.2608 10.9 34.3008 10.98 34.3168 11.076C34.3408 11.164 34.3368 11.256 34.3048 11.352C34.2728 11.448 34.2048 11.528 34.1008 11.592C33.8448 11.776 33.5648 11.908 33.2608 11.988C32.9648 12.068 32.6768 12.108 32.3968 12.108ZM37.9261 12.108C37.4461 12.108 37.0421 12.024 36.7141 11.856C36.3861 11.688 36.1421 11.44 35.9821 11.112C35.8221 10.784 35.7421 10.384 35.7421 9.912V7.08H35.0221C34.8621 7.08 34.7381 7.04 34.6501 6.96C34.5621 6.872 34.5181 6.756 34.5181 6.612C34.5181 6.46 34.5621 6.344 34.6501 6.264C34.7381 6.184 34.8621 6.144 35.0221 6.144H35.7421V4.908C35.7421 4.708 35.7941 4.556 35.8981 4.452C36.0101 4.348 36.1621 4.296 36.3541 4.296C36.5461 4.296 36.6941 4.348 36.7981 4.452C36.9021 4.556 36.9541 4.708 36.9541 4.908V6.144H38.3581C38.5181 6.144 38.6421 6.184 38.7301 6.264C38.8181 6.344 38.8621 6.46 38.8621 6.612C38.8621 6.756 38.8181 6.872 38.7301 6.96C38.6421 7.04 38.5181 7.08 38.3581 7.08H36.9541V9.816C36.9541 10.24 37.0421 10.56 37.2181 10.776C37.4021 10.992 37.6981 11.1 38.1061 11.1C38.2501 11.1 38.3741 11.088 38.4781 11.064C38.5901 11.032 38.6821 11.012 38.7541 11.004C38.8421 11.004 38.9141 11.036 38.9701 11.1C39.0261 11.156 39.0541 11.268 39.0541 11.436C39.0541 11.556 39.0301 11.668 38.9821 11.772C38.9421 11.876 38.8661 11.944 38.7541 11.976C38.6581 12.008 38.5261 12.036 38.3581 12.06C38.1981 12.092 38.0541 12.108 37.9261 12.108ZM43.781 12C43.565 12 43.397 11.944 43.277 11.832C43.165 11.712 43.109 11.544 43.109 11.328V4.212C43.109 3.996 43.165 3.832 43.277 3.72C43.397 3.6 43.565 3.54 43.781 3.54H48.161C48.329 3.54 48.457 3.584 48.545 3.672C48.633 3.752 48.677 3.872 48.677 4.032C48.677 4.2 48.633 4.328 48.545 4.416C48.457 4.504 48.329 4.548 48.161 4.548H44.309V7.2H47.897C48.073 7.2 48.201 7.244 48.281 7.332C48.369 7.42 48.413 7.544 48.413 7.704C48.413 7.872 48.369 8 48.281 8.088C48.201 8.168 48.073 8.208 47.897 8.208H44.309V10.992H48.161C48.329 10.992 48.457 11.036 48.545 11.124C48.633 11.212 48.677 11.336 48.677 11.496C48.677 11.664 48.633 11.792 48.545 11.88C48.457 11.96 48.329 12 48.161 12H43.781ZM50.6674 12.084C50.4754 12.084 50.3274 12.032 50.2234 11.928C50.1194 11.816 50.0674 11.664 50.0674 11.472V6.672C50.0674 6.472 50.1194 6.32 50.2234 6.216C50.3274 6.112 50.4714 6.06 50.6554 6.06C50.8474 6.06 50.9914 6.112 51.0874 6.216C51.1914 6.32 51.2434 6.472 51.2434 6.672V7.656L51.1114 7.392C51.2714 6.968 51.5194 6.636 51.8554 6.396C52.1914 6.156 52.5954 6.036 53.0674 6.036C53.5554 6.036 53.9514 6.152 54.2554 6.384C54.5594 6.616 54.7674 6.972 54.8794 7.452H54.7114C54.8634 7.012 55.1234 6.668 55.4914 6.42C55.8594 6.164 56.2874 6.036 56.7754 6.036C57.2234 6.036 57.5914 6.124 57.8794 6.3C58.1674 6.468 58.3834 6.728 58.5274 7.08C58.6714 7.424 58.7434 7.86 58.7434 8.388V11.472C58.7434 11.664 58.6874 11.816 58.5754 11.928C58.4714 12.032 58.3234 12.084 58.1314 12.084C57.9394 12.084 57.7914 12.032 57.6874 11.928C57.5834 11.816 57.5314 11.664 57.5314 11.472V8.448C57.5314 7.952 57.4434 7.588 57.2674 7.356C57.0994 7.124 56.8194 7.008 56.4274 7.008C55.9874 7.008 55.6394 7.16 55.3834 7.464C55.1274 7.768 54.9994 8.188 54.9994 8.724V11.472C54.9994 11.664 54.9474 11.816 54.8434 11.928C54.7394 12.032 54.5914 12.084 54.3994 12.084C54.2074 12.084 54.0554 12.032 53.9434 11.928C53.8394 11.816 53.7874 11.664 53.7874 11.472V8.448C53.7874 7.952 53.7034 7.588 53.5354 7.356C53.3674 7.124 53.0874 7.008 52.6954 7.008C52.2554 7.008 51.9074 7.16 51.6514 7.464C51.4034 7.768 51.2794 8.188 51.2794 8.724V11.472C51.2794 11.88 51.0754 12.084 50.6674 12.084ZM61.0379 14.244C60.8459 14.244 60.6979 14.192 60.5939 14.088C60.4899 13.984 60.4379 13.832 60.4379 13.632V6.672C60.4379 6.472 60.4899 6.32 60.5939 6.216C60.6979 6.112 60.8419 6.06 61.0259 6.06C61.2179 6.06 61.3659 6.112 61.4699 6.216C61.5739 6.32 61.6259 6.472 61.6259 6.672V7.716L61.4939 7.464C61.6219 7.032 61.8739 6.688 62.2499 6.432C62.6259 6.168 63.0699 6.036 63.5819 6.036C64.1019 6.036 64.5539 6.16 64.9379 6.408C65.3299 6.656 65.6299 7.004 65.8379 7.452C66.0539 7.9 66.1619 8.44 66.1619 9.072C66.1619 9.688 66.0539 10.228 65.8379 10.692C65.6299 11.148 65.3339 11.5 64.9499 11.748C64.5659 11.988 64.1099 12.108 63.5819 12.108C63.0779 12.108 62.6379 11.98 62.2619 11.724C61.8859 11.468 61.6339 11.128 61.5059 10.704H61.6499V13.632C61.6499 13.832 61.5939 13.984 61.4819 14.088C61.3779 14.192 61.2299 14.244 61.0379 14.244ZM63.2819 11.172C63.6179 11.172 63.9099 11.092 64.1579 10.932C64.4059 10.772 64.5979 10.536 64.7339 10.224C64.8699 9.912 64.9379 9.528 64.9379 9.072C64.9379 8.384 64.7859 7.864 64.4819 7.512C64.1859 7.16 63.7859 6.984 63.2819 6.984C62.9539 6.984 62.6619 7.064 62.4059 7.224C62.1579 7.376 61.9659 7.608 61.8299 7.92C61.6939 8.232 61.6259 8.616 61.6259 9.072C61.6259 9.752 61.7779 10.272 62.0819 10.632C62.3859 10.992 62.7859 11.172 63.2819 11.172ZM69.4118 12.108C68.7878 12.108 68.3158 11.928 67.9958 11.568C67.6838 11.2 67.5278 10.672 67.5278 9.984V4.068C67.5278 3.868 67.5798 3.716 67.6838 3.612C67.7878 3.508 67.9358 3.456 68.1278 3.456C68.3198 3.456 68.4678 3.508 68.5718 3.612C68.6838 3.716 68.7398 3.868 68.7398 4.068V9.912C68.7398 10.312 68.8198 10.612 68.9798 10.812C69.1478 11.004 69.3878 11.1 69.6998 11.1C69.7718 11.1 69.8358 11.1 69.8918 11.1C69.9478 11.092 70.0038 11.084 70.0598 11.076C70.1558 11.068 70.2238 11.096 70.2638 11.16C70.3038 11.216 70.3238 11.336 70.3238 11.52C70.3238 11.688 70.2878 11.82 70.2158 11.916C70.1438 12.004 70.0278 12.06 69.8678 12.084C69.7958 12.092 69.7198 12.096 69.6398 12.096C69.5598 12.104 69.4838 12.108 69.4118 12.108ZM73.6812 12.108C73.0892 12.108 72.5772 11.984 72.1452 11.736C71.7212 11.488 71.3892 11.136 71.1492 10.68C70.9092 10.224 70.7892 9.688 70.7892 9.072C70.7892 8.6 70.8572 8.18 70.9932 7.812C71.1292 7.444 71.3212 7.128 71.5692 6.864C71.8252 6.592 72.1292 6.388 72.4812 6.252C72.8412 6.108 73.2412 6.036 73.6812 6.036C74.2652 6.036 74.7692 6.16 75.1932 6.408C75.6252 6.656 75.9612 7.008 76.2012 7.464C76.4412 7.912 76.5612 8.448 76.5612 9.072C76.5612 9.536 76.4932 9.956 76.3572 10.332C76.2212 10.708 76.0252 11.028 75.7692 11.292C75.5212 11.556 75.2172 11.76 74.8572 11.904C74.5052 12.04 74.1132 12.108 73.6812 12.108ZM73.6812 11.172C74.0092 11.172 74.2972 11.092 74.5452 10.932C74.7932 10.772 74.9852 10.536 75.1212 10.224C75.2652 9.912 75.3372 9.528 75.3372 9.072C75.3372 8.384 75.1852 7.864 74.8812 7.512C74.5772 7.16 74.1772 6.984 73.6812 6.984C73.3452 6.984 73.0532 7.064 72.8052 7.224C72.5572 7.376 72.3612 7.608 72.2172 7.92C72.0812 8.232 72.0132 8.616 72.0132 9.072C72.0132 9.752 72.1652 10.272 72.4692 10.632C72.7732 10.992 73.1772 11.172 73.6812 11.172ZM79.1968 14.244C79.0528 14.244 78.9328 14.204 78.8368 14.124C78.7488 14.052 78.6968 13.952 78.6808 13.824C78.6728 13.704 78.6968 13.572 78.7528 13.428L79.5688 11.592V12.108L77.3248 6.888C77.2688 6.744 77.2488 6.608 77.2648 6.48C77.2808 6.352 77.3408 6.252 77.4448 6.18C77.5488 6.1 77.6888 6.06 77.8648 6.06C78.0168 6.06 78.1368 6.096 78.2248 6.168C78.3128 6.24 78.3928 6.364 78.4648 6.54L80.2768 11.016H79.9408L81.7768 6.54C81.8488 6.356 81.9328 6.232 82.0288 6.168C82.1248 6.096 82.2568 6.06 82.4248 6.06C82.5688 6.06 82.6808 6.1 82.7608 6.18C82.8488 6.252 82.9008 6.352 82.9168 6.48C82.9408 6.6 82.9208 6.732 82.8568 6.876L79.8568 13.776C79.7768 13.96 79.6848 14.084 79.5808 14.148C79.4848 14.212 79.3568 14.244 79.1968 14.244ZM86.6938 12.108C86.0538 12.108 85.5018 11.988 85.0378 11.748C84.5818 11.5 84.2258 11.152 83.9698 10.704C83.7218 10.248 83.5978 9.708 83.5978 9.084C83.5978 8.476 83.7218 7.944 83.9698 7.488C84.2178 7.032 84.5578 6.676 84.9898 6.42C85.4218 6.164 85.9138 6.036 86.4658 6.036C86.8738 6.036 87.2378 6.104 87.5578 6.24C87.8778 6.368 88.1498 6.56 88.3738 6.816C88.6058 7.064 88.7778 7.368 88.8898 7.728C89.0098 8.088 89.0698 8.492 89.0698 8.94C89.0698 9.076 89.0298 9.18 88.9498 9.252C88.8698 9.316 88.7498 9.348 88.5898 9.348H84.5578V8.604H88.2538L88.0498 8.772C88.0498 8.372 87.9898 8.032 87.8698 7.752C87.7578 7.472 87.5858 7.26 87.3538 7.116C87.1298 6.964 86.8498 6.888 86.5138 6.888C86.1378 6.888 85.8178 6.976 85.5538 7.152C85.2978 7.328 85.1018 7.572 84.9658 7.884C84.8298 8.196 84.7618 8.56 84.7618 8.976V9.048C84.7618 9.752 84.9258 10.284 85.2538 10.644C85.5898 10.996 86.0738 11.172 86.7058 11.172C86.9458 11.172 87.1978 11.14 87.4618 11.076C87.7338 11.012 87.9898 10.904 88.2298 10.752C88.3658 10.672 88.4858 10.636 88.5898 10.644C88.7018 10.652 88.7898 10.688 88.8538 10.752C88.9258 10.816 88.9698 10.896 88.9858 10.992C89.0018 11.088 88.9858 11.188 88.9378 11.292C88.8898 11.388 88.8058 11.476 88.6858 11.556C88.4138 11.74 88.0978 11.88 87.7378 11.976C87.3778 12.064 87.0298 12.108 86.6938 12.108ZM93.1391 12.108C92.4991 12.108 91.9471 11.988 91.4831 11.748C91.0271 11.5 90.6711 11.152 90.4151 10.704C90.1671 10.248 90.0431 9.708 90.0431 9.084C90.0431 8.476 90.1671 7.944 90.4151 7.488C90.6631 7.032 91.0031 6.676 91.4351 6.42C91.8671 6.164 92.3591 6.036 92.9111 6.036C93.3191 6.036 93.6831 6.104 94.0031 6.24C94.3231 6.368 94.5951 6.56 94.8191 6.816C95.0511 7.064 95.2231 7.368 95.3351 7.728C95.4551 8.088 95.5151 8.492 95.5151 8.94C95.5151 9.076 95.4751 9.18 95.3951 9.252C95.3151 9.316 95.1951 9.348 95.0351 9.348H91.0031V8.604H94.6991L94.4951 8.772C94.4951 8.372 94.4351 8.032 94.3151 7.752C94.2031 7.472 94.0311 7.26 93.7991 7.116C93.5751 6.964 93.2951 6.888 92.9591 6.888C92.5831 6.888 92.2631 6.976 91.9991 7.152C91.7431 7.328 91.5471 7.572 91.4111 7.884C91.2751 8.196 91.2071 8.56 91.2071 8.976V9.048C91.2071 9.752 91.3711 10.284 91.6991 10.644C92.0351 10.996 92.5191 11.172 93.1511 11.172C93.3911 11.172 93.6431 11.14 93.9071 11.076C94.1791 11.012 94.4351 10.904 94.6751 10.752C94.8111 10.672 94.9311 10.636 95.0351 10.644C95.1471 10.652 95.2351 10.688 95.2991 10.752C95.3711 10.816 95.4151 10.896 95.4311 10.992C95.4471 11.088 95.4311 11.188 95.3831 11.292C95.3351 11.388 95.2511 11.476 95.1311 11.556C94.8591 11.74 94.5431 11.88 94.1831 11.976C93.8231 12.064 93.4751 12.108 93.1391 12.108Z" fill="#64728C"/>
<defs>
<filter id="filter0_d_606_5607" x="0" y="20" width="310" height="55" filterUnits="userSpaceOnUse" color-interpolation-filters="sRGB">
<feFlood flood-opacity="0" result="BackgroundImageFix"/>
<feColorMatrix in="SourceAlpha" type="matrix" values="0 0 0 0 0 0 0 0 0 0 0 0 0 0 0 0 0 0 127 0" result="hardAlpha"/>
<feOffset dy="4"/>
<feGaussianBlur stdDeviation="2.5"/>
<feComposite in2="hardAlpha" operator="out"/>
<feColorMatrix type="matrix" values="0 0 0 0 0.203922 0 0 0 0 0.737255 0 0 0 0 0.25098 0 0 0 0.15 0"/>
<feBlend mode="normal" in2="BackgroundImageFix" result="effect1_dropShadow_606_5607"/>
<feBlend mode="normal" in="SourceGraphic" in2="effect1_dropShadow_606_5607" result="shape"/>
</filter>
</defs>
</svg>
