<svg width="310" height="75" viewBox="0 0 310 75" fill="none" xmlns="http://www.w3.org/2000/svg">
<g filter="url(#filter0_d_606_5613)">
<rect x="5" y="21" width="300" height="45" rx="12" fill="white" shape-rendering="crispEdges"/>
<rect x="5.5" y="21.5" width="299" height="44" rx="11.5" stroke="#057FF0" shape-rendering="crispEdges"/>
<path d="M15.864 47.584C15.736 47.584 15.632 47.556 15.552 47.5C15.48 47.436 15.436 47.356 15.42 47.26C15.412 47.156 15.436 47.04 15.492 46.912L18.792 39.4C18.864 39.24 18.948 39.128 19.044 39.064C19.148 38.992 19.26 38.956 19.38 38.956C19.5 38.956 19.608 38.992 19.704 39.064C19.808 39.128 19.892 39.24 19.956 39.4L23.268 46.912C23.332 47.04 23.356 47.156 23.34 47.26C23.332 47.364 23.292 47.444 23.22 47.5C23.148 47.556 23.048 47.584 22.92 47.584C22.776 47.584 22.66 47.548 22.572 47.476C22.484 47.396 22.412 47.284 22.356 47.14L21.468 45.088L21.948 45.34H16.788L17.28 45.088L16.404 47.14C16.332 47.292 16.256 47.404 16.176 47.476C16.096 47.548 15.992 47.584 15.864 47.584ZM19.368 40.192L17.436 44.74L17.148 44.512H21.588L21.324 44.74L19.392 40.192H19.368ZM26.4302 47.608C25.8542 47.608 25.4142 47.432 25.1102 47.08C24.8062 46.728 24.6542 46.224 24.6542 45.568V39.448C24.6542 39.288 24.6942 39.168 24.7742 39.088C24.8542 39 24.9742 38.956 25.1342 38.956C25.2862 38.956 25.4062 39 25.4942 39.088C25.5822 39.168 25.6262 39.288 25.6262 39.448V45.496C25.6262 45.928 25.7102 46.252 25.8782 46.468C26.0542 46.676 26.3102 46.78 26.6462 46.78C26.7182 46.78 26.7822 46.776 26.8382 46.768C26.8942 46.76 26.9502 46.756 27.0062 46.756C27.0942 46.748 27.1542 46.768 27.1862 46.816C27.2262 46.864 27.2462 46.96 27.2462 47.104C27.2462 47.248 27.2142 47.356 27.1502 47.428C27.0862 47.5 26.9822 47.548 26.8382 47.572C26.7742 47.58 26.7062 47.588 26.6342 47.596C26.5622 47.604 26.4942 47.608 26.4302 47.608ZM30.7744 47.608C30.1584 47.608 29.6264 47.488 29.1784 47.248C28.7384 47 28.3944 46.652 28.1464 46.204C27.9064 45.756 27.7864 45.22 27.7864 44.596C27.7864 43.988 27.9064 43.46 28.1464 43.012C28.3864 42.556 28.7144 42.2 29.1304 41.944C29.5544 41.688 30.0424 41.56 30.5944 41.56C30.9864 41.56 31.3384 41.628 31.6504 41.764C31.9624 41.892 32.2264 42.08 32.4424 42.328C32.6664 42.576 32.8344 42.876 32.9464 43.228C33.0664 43.58 33.1264 43.976 33.1264 44.416C33.1264 44.544 33.0904 44.64 33.0184 44.704C32.9464 44.76 32.8424 44.788 32.7064 44.788H28.5304V44.152H32.4784L32.2864 44.308C32.2864 43.876 32.2224 43.512 32.0944 43.216C31.9664 42.912 31.7784 42.68 31.5304 42.52C31.2904 42.36 30.9864 42.28 30.6184 42.28C30.2104 42.28 29.8624 42.376 29.5744 42.568C29.2944 42.752 29.0824 43.012 28.9384 43.348C28.7944 43.676 28.7224 44.06 28.7224 44.5V44.572C28.7224 45.308 28.8984 45.868 29.2504 46.252C29.6104 46.636 30.1184 46.828 30.7744 46.828C31.0464 46.828 31.3144 46.792 31.5784 46.72C31.8504 46.648 32.1144 46.528 32.3704 46.36C32.4824 46.288 32.5824 46.256 32.6704 46.264C32.7664 46.264 32.8424 46.292 32.8984 46.348C32.9544 46.396 32.9904 46.46 33.0064 46.54C33.0304 46.612 33.0224 46.692 32.9824 46.78C32.9504 46.868 32.8824 46.944 32.7784 47.008C32.5144 47.2 32.2024 47.348 31.8424 47.452C31.4824 47.556 31.1264 47.608 30.7744 47.608ZM34.5102 47.572C34.4062 47.572 34.3142 47.54 34.2342 47.476C34.1542 47.412 34.1102 47.328 34.1022 47.224C34.1022 47.112 34.1542 46.996 34.2582 46.876L36.3582 44.236V44.74L34.3902 42.28C34.2862 42.152 34.2342 42.036 34.2342 41.932C34.2422 41.828 34.2862 41.744 34.3662 41.68C34.4462 41.616 34.5382 41.584 34.6422 41.584C34.7622 41.584 34.8622 41.608 34.9422 41.656C35.0302 41.696 35.1102 41.764 35.1822 41.86L36.8982 44.032H36.5622L38.2902 41.86C38.3622 41.764 38.4382 41.696 38.5182 41.656C38.5982 41.608 38.6982 41.584 38.8182 41.584C38.9302 41.584 39.0222 41.616 39.0942 41.68C39.1742 41.744 39.2142 41.832 39.2142 41.944C39.2222 42.048 39.1742 42.164 39.0702 42.292L37.1142 44.716V44.272L39.2142 46.876C39.3102 46.996 39.3542 47.112 39.3462 47.224C39.3462 47.328 39.3062 47.412 39.2262 47.476C39.1462 47.54 39.0502 47.572 38.9382 47.572C38.8262 47.572 38.7262 47.548 38.6382 47.5C38.5582 47.46 38.4782 47.392 38.3982 47.296L36.5502 44.968H36.8982L35.0502 47.296C34.9782 47.384 34.8982 47.452 34.8102 47.5C34.7302 47.548 34.6302 47.572 34.5102 47.572ZM42.7003 47.608C42.3403 47.608 41.9763 47.564 41.6083 47.476C41.2483 47.388 40.9123 47.236 40.6003 47.02C40.5203 46.964 40.4643 46.9 40.4323 46.828C40.4003 46.748 40.3883 46.672 40.3963 46.6C40.4123 46.52 40.4443 46.452 40.4923 46.396C40.5483 46.34 40.6123 46.308 40.6843 46.3C40.7643 46.284 40.8523 46.3 40.9483 46.348C41.2603 46.54 41.5603 46.676 41.8483 46.756C42.1443 46.828 42.4363 46.864 42.7243 46.864C43.1803 46.864 43.5243 46.78 43.7563 46.612C43.9883 46.444 44.1043 46.216 44.1043 45.928C44.1043 45.704 44.0283 45.528 43.8763 45.4C43.7243 45.264 43.4843 45.16 43.1563 45.088L42.0643 44.848C41.5603 44.744 41.1843 44.564 40.9363 44.308C40.6963 44.052 40.5763 43.72 40.5763 43.312C40.5763 42.952 40.6683 42.644 40.8523 42.388C41.0443 42.124 41.3123 41.92 41.6563 41.776C42.0003 41.632 42.4003 41.56 42.8563 41.56C43.2083 41.56 43.5403 41.608 43.8523 41.704C44.1723 41.792 44.4603 41.936 44.7163 42.136C44.7963 42.192 44.8483 42.26 44.8723 42.34C44.9043 42.412 44.9083 42.488 44.8843 42.568C44.8683 42.64 44.8323 42.704 44.7763 42.76C44.7203 42.808 44.6523 42.836 44.5723 42.844C44.4923 42.852 44.4083 42.828 44.3203 42.772C44.0803 42.612 43.8363 42.496 43.5883 42.424C43.3403 42.344 43.0963 42.304 42.8563 42.304C42.4083 42.304 42.0683 42.392 41.8363 42.568C41.6043 42.744 41.4883 42.976 41.4883 43.264C41.4883 43.488 41.5603 43.672 41.7043 43.816C41.8483 43.96 42.0723 44.064 42.3763 44.128L43.4683 44.356C43.9883 44.468 44.3763 44.648 44.6323 44.896C44.8963 45.136 45.0283 45.464 45.0283 45.88C45.0283 46.408 44.8163 46.828 44.3923 47.14C43.9683 47.452 43.4043 47.608 42.7003 47.608ZM48.3457 47.608C47.9457 47.608 47.5857 47.532 47.2657 47.38C46.9537 47.22 46.7057 47.004 46.5217 46.732C46.3377 46.46 46.2457 46.156 46.2457 45.82C46.2457 45.388 46.3537 45.048 46.5697 44.8C46.7937 44.552 47.1577 44.376 47.6617 44.272C48.1737 44.168 48.8697 44.116 49.7497 44.116H50.2897V44.752H49.7617C49.1137 44.752 48.6017 44.784 48.2257 44.848C47.8577 44.904 47.5977 45.004 47.4457 45.148C47.3017 45.292 47.2297 45.496 47.2297 45.76C47.2297 46.088 47.3417 46.356 47.5657 46.564C47.7977 46.772 48.1097 46.876 48.5017 46.876C48.8217 46.876 49.1017 46.8 49.3417 46.648C49.5897 46.496 49.7817 46.288 49.9177 46.024C50.0617 45.76 50.1337 45.456 50.1337 45.112V43.744C50.1337 43.248 50.0337 42.892 49.8337 42.676C49.6337 42.452 49.3057 42.34 48.8497 42.34C48.5697 42.34 48.2897 42.376 48.0097 42.448C47.7297 42.52 47.4337 42.636 47.1217 42.796C47.0097 42.852 46.9137 42.872 46.8337 42.856C46.7537 42.832 46.6897 42.788 46.6417 42.724C46.5937 42.66 46.5657 42.588 46.5577 42.508C46.5497 42.42 46.5657 42.336 46.6057 42.256C46.6537 42.176 46.7257 42.112 46.8217 42.064C47.1737 41.888 47.5217 41.76 47.8657 41.68C48.2097 41.6 48.5377 41.56 48.8497 41.56C49.3537 41.56 49.7697 41.644 50.0977 41.812C50.4257 41.972 50.6697 42.22 50.8297 42.556C50.9897 42.884 51.0697 43.308 51.0697 43.828V47.08C51.0697 47.24 51.0297 47.364 50.9497 47.452C50.8777 47.54 50.7697 47.584 50.6257 47.584C50.4737 47.584 50.3577 47.54 50.2777 47.452C50.1977 47.364 50.1577 47.24 50.1577 47.08V46.144H50.2657C50.2017 46.448 50.0777 46.708 49.8937 46.924C49.7177 47.14 49.4977 47.308 49.2337 47.428C48.9697 47.548 48.6737 47.608 48.3457 47.608ZM53.3529 47.584C53.1929 47.584 53.0729 47.54 52.9929 47.452C52.9129 47.364 52.8729 47.24 52.8729 47.08V42.076C52.8729 41.916 52.9129 41.796 52.9929 41.716C53.0729 41.628 53.1889 41.584 53.3409 41.584C53.4929 41.584 53.6089 41.628 53.6889 41.716C53.7769 41.796 53.8209 41.916 53.8209 42.076V43.108L53.6889 42.964C53.8569 42.5 54.1289 42.152 54.5049 41.92C54.8889 41.68 55.3289 41.56 55.8249 41.56C56.2889 41.56 56.6729 41.644 56.9769 41.812C57.2889 41.98 57.5209 42.236 57.6729 42.58C57.8249 42.916 57.9009 43.344 57.9009 43.864V47.08C57.9009 47.24 57.8569 47.364 57.7689 47.452C57.6889 47.54 57.5729 47.584 57.4209 47.584C57.2609 47.584 57.1369 47.54 57.0489 47.452C56.9689 47.364 56.9289 47.24 56.9289 47.08V43.924C56.9289 43.38 56.8209 42.984 56.6049 42.736C56.3969 42.48 56.0609 42.352 55.5969 42.352C55.0609 42.352 54.6329 42.52 54.3129 42.856C54.0009 43.184 53.8449 43.624 53.8449 44.176V47.08C53.8449 47.416 53.6809 47.584 53.3529 47.584ZM61.9133 47.608C61.3933 47.608 60.9373 47.484 60.5452 47.236C60.1613 46.988 59.8613 46.64 59.6453 46.192C59.4373 45.736 59.3333 45.2 59.3333 44.584C59.3333 43.96 59.4373 43.424 59.6453 42.976C59.8613 42.52 60.1613 42.172 60.5452 41.932C60.9373 41.684 61.3933 41.56 61.9133 41.56C62.4413 41.56 62.8933 41.692 63.2693 41.956C63.6453 42.22 63.8973 42.576 64.0253 43.024H63.8933V39.448C63.8933 39.288 63.9333 39.168 64.0133 39.088C64.1013 39 64.2253 38.956 64.3853 38.956C64.5373 38.956 64.6533 39 64.7333 39.088C64.8213 39.168 64.8653 39.288 64.8653 39.448V47.08C64.8653 47.24 64.8253 47.364 64.7453 47.452C64.6653 47.54 64.5453 47.584 64.3853 47.584C64.2333 47.584 64.1133 47.54 64.0253 47.452C63.9453 47.364 63.9053 47.24 63.9053 47.08V45.94L64.0373 46.108C63.9093 46.564 63.6533 46.928 63.2693 47.2C62.8933 47.472 62.4413 47.608 61.9133 47.608ZM62.1173 46.828C62.4773 46.828 62.7933 46.74 63.0653 46.564C63.3373 46.388 63.5453 46.132 63.6893 45.796C63.8413 45.46 63.9173 45.056 63.9173 44.584C63.9173 43.856 63.7533 43.3 63.4253 42.916C63.1053 42.532 62.6693 42.34 62.1173 42.34C61.7493 42.34 61.4293 42.428 61.1573 42.604C60.8933 42.772 60.6853 43.024 60.5333 43.36C60.3893 43.688 60.3173 44.096 60.3173 44.584C60.3173 45.304 60.4813 45.86 60.8093 46.252C61.1373 46.636 61.5733 46.828 62.1173 46.828ZM68.5253 47.608C68.1253 47.608 67.7653 47.532 67.4453 47.38C67.1333 47.22 66.8853 47.004 66.7013 46.732C66.5173 46.46 66.4253 46.156 66.4253 45.82C66.4253 45.388 66.5333 45.048 66.7493 44.8C66.9733 44.552 67.3373 44.376 67.8413 44.272C68.3533 44.168 69.0493 44.116 69.9293 44.116H70.4693V44.752H69.9413C69.2933 44.752 68.7813 44.784 68.4053 44.848C68.0373 44.904 67.7773 45.004 67.6253 45.148C67.4813 45.292 67.4093 45.496 67.4093 45.76C67.4093 46.088 67.5213 46.356 67.7453 46.564C67.9773 46.772 68.2893 46.876 68.6813 46.876C69.0013 46.876 69.2813 46.8 69.5213 46.648C69.7693 46.496 69.9613 46.288 70.0973 46.024C70.2413 45.76 70.3133 45.456 70.3133 45.112V43.744C70.3133 43.248 70.2133 42.892 70.0133 42.676C69.8133 42.452 69.4853 42.34 69.0293 42.34C68.7493 42.34 68.4693 42.376 68.1893 42.448C67.9093 42.52 67.6133 42.636 67.3013 42.796C67.1893 42.852 67.0933 42.872 67.0133 42.856C66.9333 42.832 66.8693 42.788 66.8213 42.724C66.7733 42.66 66.7453 42.588 66.7373 42.508C66.7293 42.42 66.7453 42.336 66.7853 42.256C66.8333 42.176 66.9053 42.112 67.0013 42.064C67.3533 41.888 67.7013 41.76 68.0453 41.68C68.3893 41.6 68.7173 41.56 69.0293 41.56C69.5333 41.56 69.9493 41.644 70.2773 41.812C70.6053 41.972 70.8493 42.22 71.0093 42.556C71.1693 42.884 71.2493 43.308 71.2493 43.828V47.08C71.2493 47.24 71.2093 47.364 71.1293 47.452C71.0573 47.54 70.9493 47.584 70.8053 47.584C70.6533 47.584 70.5373 47.54 70.4573 47.452C70.3773 47.364 70.3373 47.24 70.3373 47.08V46.144H70.4453C70.3813 46.448 70.2573 46.708 70.0733 46.924C69.8973 47.14 69.6773 47.308 69.4133 47.428C69.1493 47.548 68.8533 47.608 68.5253 47.608ZM73.5446 47.584C73.3846 47.584 73.2606 47.54 73.1726 47.452C73.0926 47.364 73.0526 47.24 73.0526 47.08V42.076C73.0526 41.916 73.0926 41.796 73.1726 41.716C73.2526 41.628 73.3686 41.584 73.5206 41.584C73.6726 41.584 73.7886 41.628 73.8686 41.716C73.9566 41.796 74.0006 41.916 74.0006 42.076V43.048H73.8806C74.0086 42.576 74.2526 42.212 74.6126 41.956C74.9726 41.7 75.4166 41.564 75.9446 41.548C76.0646 41.54 76.1606 41.568 76.2326 41.632C76.3046 41.688 76.3446 41.788 76.3526 41.932C76.3606 42.068 76.3286 42.176 76.2566 42.256C76.1846 42.336 76.0726 42.384 75.9206 42.4L75.7286 42.424C75.1846 42.472 74.7646 42.648 74.4686 42.952C74.1806 43.248 74.0366 43.656 74.0366 44.176V47.08C74.0366 47.24 73.9926 47.364 73.9046 47.452C73.8246 47.54 73.7046 47.584 73.5446 47.584ZM79.1308 47.608C78.7308 47.608 78.3708 47.532 78.0508 47.38C77.7388 47.22 77.4908 47.004 77.3068 46.732C77.1228 46.46 77.0308 46.156 77.0308 45.82C77.0308 45.388 77.1388 45.048 77.3548 44.8C77.5788 44.552 77.9428 44.376 78.4468 44.272C78.9588 44.168 79.6548 44.116 80.5348 44.116H81.0748V44.752H80.5468C79.8988 44.752 79.3868 44.784 79.0108 44.848C78.6428 44.904 78.3828 45.004 78.2308 45.148C78.0868 45.292 78.0148 45.496 78.0148 45.76C78.0148 46.088 78.1268 46.356 78.3508 46.564C78.5828 46.772 78.8948 46.876 79.2868 46.876C79.6068 46.876 79.8868 46.8 80.1268 46.648C80.3748 46.496 80.5668 46.288 80.7028 46.024C80.8468 45.76 80.9188 45.456 80.9188 45.112V43.744C80.9188 43.248 80.8188 42.892 80.6188 42.676C80.4188 42.452 80.0908 42.34 79.6348 42.34C79.3548 42.34 79.0748 42.376 78.7948 42.448C78.5148 42.52 78.2188 42.636 77.9068 42.796C77.7948 42.852 77.6988 42.872 77.6188 42.856C77.5388 42.832 77.4748 42.788 77.4268 42.724C77.3788 42.66 77.3508 42.588 77.3428 42.508C77.3348 42.42 77.3508 42.336 77.3908 42.256C77.4388 42.176 77.5108 42.112 77.6068 42.064C77.9588 41.888 78.3068 41.76 78.6508 41.68C78.9948 41.6 79.3228 41.56 79.6348 41.56C80.1388 41.56 80.5548 41.644 80.8828 41.812C81.2108 41.972 81.4548 42.22 81.6148 42.556C81.7748 42.884 81.8548 43.308 81.8548 43.828V47.08C81.8548 47.24 81.8148 47.364 81.7348 47.452C81.6628 47.54 81.5548 47.584 81.4108 47.584C81.2588 47.584 81.1428 47.54 81.0628 47.452C80.9828 47.364 80.9428 47.24 80.9428 47.08V46.144H81.0508C80.9868 46.448 80.8628 46.708 80.6788 46.924C80.5028 47.14 80.2828 47.308 80.0188 47.428C79.7548 47.548 79.4588 47.608 79.1308 47.608ZM87.3638 47.584C87.2198 47.584 87.1078 47.544 87.0278 47.464C86.9478 47.376 86.9078 47.256 86.9078 47.104V39.436C86.9078 39.276 86.9478 39.156 87.0278 39.076C87.1078 38.996 87.2198 38.956 87.3638 38.956C87.4918 38.956 87.5918 38.984 87.6638 39.04C87.7438 39.088 87.8158 39.172 87.8798 39.292L91.1678 45.484H90.8078L94.0838 39.292C94.1478 39.172 94.2158 39.088 94.2878 39.04C94.3598 38.984 94.4638 38.956 94.5998 38.956C94.7358 38.956 94.8438 38.996 94.9238 39.076C95.0038 39.156 95.0438 39.276 95.0438 39.436V47.104C95.0438 47.256 95.0038 47.376 94.9238 47.464C94.8518 47.544 94.7398 47.584 94.5878 47.584C94.4438 47.584 94.3318 47.544 94.2518 47.464C94.1718 47.376 94.1318 47.256 94.1318 47.104V40.36H94.4198L91.4198 45.988C91.3638 46.092 91.3038 46.168 91.2398 46.216C91.1838 46.256 91.0998 46.276 90.9878 46.276C90.8758 46.276 90.7878 46.252 90.7238 46.204C90.6598 46.156 90.6038 46.084 90.5558 45.988L87.5198 40.348H87.8078V47.104C87.8078 47.256 87.7678 47.376 87.6878 47.464C87.6158 47.544 87.5078 47.584 87.3638 47.584ZM99.4895 47.608C98.9055 47.608 98.4015 47.48 97.9775 47.224C97.5535 46.968 97.2255 46.612 96.9935 46.156C96.7695 45.692 96.6575 45.156 96.6575 44.548C96.6575 44.084 96.7215 43.668 96.8495 43.3C96.9775 42.932 97.1655 42.62 97.4135 42.364C97.6615 42.1 97.9575 41.9 98.3015 41.764C98.6535 41.628 99.0495 41.56 99.4895 41.56C99.7775 41.56 100.077 41.604 100.389 41.692C100.701 41.78 100.985 41.932 101.241 42.148C101.321 42.204 101.373 42.272 101.397 42.352C101.421 42.432 101.421 42.512 101.397 42.592C101.373 42.664 101.333 42.728 101.277 42.784C101.221 42.832 101.149 42.86 101.061 42.868C100.981 42.876 100.897 42.848 100.809 42.784C100.601 42.624 100.389 42.512 100.173 42.448C99.9575 42.384 99.7495 42.352 99.5495 42.352C99.2375 42.352 98.9655 42.404 98.7335 42.508C98.5015 42.604 98.3055 42.744 98.1455 42.928C97.9855 43.112 97.8615 43.34 97.7735 43.612C97.6935 43.884 97.6535 44.2 97.6535 44.56C97.6535 45.256 97.8175 45.808 98.1455 46.216C98.4735 46.616 98.9415 46.816 99.5495 46.816C99.7495 46.816 99.9535 46.784 100.161 46.72C100.377 46.656 100.593 46.544 100.809 46.384C100.897 46.32 100.981 46.292 101.061 46.3C101.141 46.308 101.209 46.34 101.265 46.396C101.321 46.444 101.357 46.508 101.373 46.588C101.397 46.668 101.397 46.748 101.373 46.828C101.349 46.9 101.297 46.964 101.217 47.02C100.961 47.228 100.681 47.38 100.377 47.476C100.073 47.564 99.7775 47.608 99.4895 47.608ZM107.147 49.744C106.987 49.744 106.863 49.7 106.775 49.612C106.695 49.532 106.655 49.412 106.655 49.252V46.132H106.787C106.659 46.58 106.407 46.94 106.031 47.212C105.655 47.476 105.203 47.608 104.675 47.608C104.155 47.608 103.699 47.484 103.307 47.236C102.923 46.988 102.623 46.64 102.407 46.192C102.199 45.736 102.095 45.2 102.095 44.584C102.095 43.96 102.199 43.424 102.407 42.976C102.623 42.52 102.923 42.172 103.307 41.932C103.699 41.684 104.155 41.56 104.675 41.56C105.203 41.56 105.655 41.696 106.031 41.968C106.415 42.232 106.671 42.592 106.799 43.048L106.667 43.216V42.076C106.667 41.916 106.707 41.796 106.787 41.716C106.875 41.628 106.995 41.584 107.147 41.584C107.307 41.584 107.427 41.628 107.507 41.716C107.587 41.796 107.627 41.916 107.627 42.076V49.252C107.627 49.412 107.583 49.532 107.495 49.612C107.415 49.7 107.299 49.744 107.147 49.744ZM104.879 46.828C105.239 46.828 105.555 46.74 105.827 46.564C106.099 46.388 106.307 46.132 106.451 45.796C106.603 45.46 106.679 45.056 106.679 44.584C106.679 43.856 106.515 43.3 106.187 42.916C105.867 42.532 105.431 42.34 104.879 42.34C104.511 42.34 104.191 42.428 103.919 42.604C103.655 42.772 103.447 43.024 103.295 43.36C103.151 43.688 103.079 44.096 103.079 44.584C103.079 45.304 103.243 45.86 103.571 46.252C103.899 46.636 104.335 46.828 104.879 46.828ZM111.515 47.608C111.043 47.608 110.651 47.524 110.339 47.356C110.035 47.18 109.803 46.92 109.643 46.576C109.491 46.232 109.415 45.804 109.415 45.292V42.076C109.415 41.908 109.455 41.784 109.535 41.704C109.623 41.624 109.743 41.584 109.895 41.584C110.055 41.584 110.175 41.624 110.255 41.704C110.343 41.784 110.387 41.908 110.387 42.076V45.28C110.387 45.792 110.491 46.176 110.699 46.432C110.915 46.68 111.251 46.804 111.707 46.804C112.203 46.804 112.607 46.636 112.919 46.3C113.231 45.964 113.387 45.524 113.387 44.98V42.076C113.387 41.908 113.427 41.784 113.507 41.704C113.595 41.624 113.719 41.584 113.879 41.584C114.031 41.584 114.147 41.624 114.227 41.704C114.315 41.784 114.359 41.908 114.359 42.076V47.08C114.359 47.416 114.203 47.584 113.891 47.584C113.739 47.584 113.619 47.54 113.531 47.452C113.451 47.364 113.411 47.24 113.411 47.08V45.988L113.567 46.156C113.407 46.628 113.143 46.988 112.775 47.236C112.415 47.484 111.995 47.608 111.515 47.608ZM118.806 47.608C118.19 47.608 117.658 47.488 117.21 47.248C116.77 47 116.426 46.652 116.178 46.204C115.938 45.756 115.818 45.22 115.818 44.596C115.818 43.988 115.938 43.46 116.178 43.012C116.418 42.556 116.746 42.2 117.162 41.944C117.586 41.688 118.074 41.56 118.626 41.56C119.018 41.56 119.37 41.628 119.682 41.764C119.994 41.892 120.258 42.08 120.474 42.328C120.698 42.576 120.866 42.876 120.978 43.228C121.098 43.58 121.158 43.976 121.158 44.416C121.158 44.544 121.122 44.64 121.05 44.704C120.978 44.76 120.874 44.788 120.738 44.788H116.562V44.152H120.51L120.318 44.308C120.318 43.876 120.254 43.512 120.126 43.216C119.998 42.912 119.81 42.68 119.562 42.52C119.322 42.36 119.018 42.28 118.65 42.28C118.242 42.28 117.894 42.376 117.606 42.568C117.326 42.752 117.114 43.012 116.97 43.348C116.826 43.676 116.754 44.06 116.754 44.5V44.572C116.754 45.308 116.93 45.868 117.282 46.252C117.642 46.636 118.15 46.828 118.806 46.828C119.078 46.828 119.346 46.792 119.61 46.72C119.882 46.648 120.146 46.528 120.402 46.36C120.514 46.288 120.614 46.256 120.702 46.264C120.798 46.264 120.874 46.292 120.93 46.348C120.986 46.396 121.022 46.46 121.038 46.54C121.062 46.612 121.054 46.692 121.014 46.78C120.982 46.868 120.914 46.944 120.81 47.008C120.546 47.2 120.234 47.348 119.874 47.452C119.514 47.556 119.158 47.608 118.806 47.608ZM125.192 47.608C124.576 47.608 124.044 47.488 123.596 47.248C123.156 47 122.812 46.652 122.564 46.204C122.324 45.756 122.204 45.22 122.204 44.596C122.204 43.988 122.324 43.46 122.564 43.012C122.804 42.556 123.132 42.2 123.548 41.944C123.972 41.688 124.46 41.56 125.012 41.56C125.404 41.56 125.756 41.628 126.068 41.764C126.38 41.892 126.644 42.08 126.86 42.328C127.084 42.576 127.252 42.876 127.364 43.228C127.484 43.58 127.544 43.976 127.544 44.416C127.544 44.544 127.508 44.64 127.436 44.704C127.364 44.76 127.26 44.788 127.124 44.788H122.948V44.152H126.896L126.704 44.308C126.704 43.876 126.64 43.512 126.512 43.216C126.384 42.912 126.196 42.68 125.948 42.52C125.708 42.36 125.404 42.28 125.036 42.28C124.628 42.28 124.28 42.376 123.992 42.568C123.712 42.752 123.5 43.012 123.356 43.348C123.212 43.676 123.14 44.06 123.14 44.5V44.572C123.14 45.308 123.316 45.868 123.668 46.252C124.028 46.636 124.536 46.828 125.192 46.828C125.464 46.828 125.732 46.792 125.996 46.72C126.268 46.648 126.532 46.528 126.788 46.36C126.9 46.288 127 46.256 127.088 46.264C127.184 46.264 127.26 46.292 127.316 46.348C127.372 46.396 127.408 46.46 127.424 46.54C127.448 46.612 127.44 46.692 127.4 46.78C127.368 46.868 127.3 46.944 127.196 47.008C126.932 47.2 126.62 47.348 126.26 47.452C125.9 47.556 125.544 47.608 125.192 47.608ZM131.579 47.608C130.963 47.608 130.431 47.488 129.983 47.248C129.543 47 129.199 46.652 128.951 46.204C128.711 45.756 128.591 45.22 128.591 44.596C128.591 43.988 128.711 43.46 128.951 43.012C129.191 42.556 129.519 42.2 129.935 41.944C130.359 41.688 130.847 41.56 131.399 41.56C131.791 41.56 132.143 41.628 132.455 41.764C132.767 41.892 133.031 42.08 133.247 42.328C133.471 42.576 133.639 42.876 133.751 43.228C133.871 43.58 133.931 43.976 133.931 44.416C133.931 44.544 133.895 44.64 133.823 44.704C133.751 44.76 133.647 44.788 133.511 44.788H129.335V44.152H133.283L133.091 44.308C133.091 43.876 133.027 43.512 132.899 43.216C132.771 42.912 132.583 42.68 132.335 42.52C132.095 42.36 131.791 42.28 131.423 42.28C131.015 42.28 130.667 42.376 130.379 42.568C130.099 42.752 129.887 43.012 129.743 43.348C129.599 43.676 129.527 44.06 129.527 44.5V44.572C129.527 45.308 129.703 45.868 130.055 46.252C130.415 46.636 130.923 46.828 131.579 46.828C131.851 46.828 132.119 46.792 132.383 46.72C132.655 46.648 132.919 46.528 133.175 46.36C133.287 46.288 133.387 46.256 133.475 46.264C133.571 46.264 133.647 46.292 133.703 46.348C133.759 46.396 133.795 46.46 133.811 46.54C133.835 46.612 133.827 46.692 133.787 46.78C133.755 46.868 133.687 46.944 133.583 47.008C133.319 47.2 133.007 47.348 132.647 47.452C132.287 47.556 131.931 47.608 131.579 47.608ZM135.818 47.584C135.658 47.584 135.538 47.54 135.458 47.452C135.378 47.364 135.338 47.24 135.338 47.08V42.076C135.338 41.916 135.378 41.796 135.458 41.716C135.538 41.628 135.654 41.584 135.806 41.584C135.958 41.584 136.074 41.628 136.154 41.716C136.242 41.796 136.286 41.916 136.286 42.076V43.108L136.154 42.964C136.322 42.5 136.594 42.152 136.97 41.92C137.354 41.68 137.794 41.56 138.29 41.56C138.754 41.56 139.138 41.644 139.442 41.812C139.754 41.98 139.986 42.236 140.138 42.58C140.29 42.916 140.366 43.344 140.366 43.864V47.08C140.366 47.24 140.322 47.364 140.234 47.452C140.154 47.54 140.038 47.584 139.886 47.584C139.726 47.584 139.602 47.54 139.514 47.452C139.434 47.364 139.394 47.24 139.394 47.08V43.924C139.394 43.38 139.286 42.984 139.07 42.736C138.862 42.48 138.526 42.352 138.062 42.352C137.526 42.352 137.098 42.52 136.778 42.856C136.466 43.184 136.31 43.624 136.31 44.176V47.08C136.31 47.416 136.146 47.584 135.818 47.584Z" fill="#64728C"/>
</g>
<path d="M8.804 12.108C8.436 12.108 8.076 12.08 7.724 12.024C7.372 11.968 7.04 11.884 6.728 11.772C6.416 11.652 6.136 11.508 5.888 11.34C5.768 11.252 5.684 11.152 5.636 11.04C5.596 10.928 5.584 10.82 5.6 10.716C5.624 10.604 5.672 10.508 5.744 10.428C5.816 10.348 5.904 10.3 6.008 10.284C6.112 10.26 6.228 10.292 6.356 10.38C6.716 10.612 7.096 10.784 7.496 10.896C7.896 11 8.332 11.052 8.804 11.052C9.484 11.052 9.984 10.932 10.304 10.692C10.632 10.444 10.796 10.124 10.796 9.732C10.796 9.412 10.68 9.16 10.448 8.976C10.216 8.784 9.828 8.632 9.284 8.52L8 8.256C7.24 8.096 6.672 7.832 6.296 7.464C5.928 7.096 5.744 6.6 5.744 5.976C5.744 5.6 5.82 5.256 5.972 4.944C6.132 4.632 6.352 4.364 6.632 4.14C6.912 3.908 7.248 3.732 7.64 3.612C8.032 3.492 8.46 3.432 8.924 3.432C9.42 3.432 9.884 3.496 10.316 3.624C10.756 3.752 11.148 3.948 11.492 4.212C11.596 4.284 11.664 4.376 11.696 4.488C11.736 4.592 11.744 4.696 11.72 4.8C11.704 4.904 11.66 4.992 11.588 5.064C11.516 5.136 11.424 5.18 11.312 5.196C11.2 5.204 11.076 5.164 10.94 5.076C10.628 4.868 10.308 4.72 9.98 4.632C9.66 4.536 9.304 4.488 8.912 4.488C8.52 4.488 8.176 4.548 7.88 4.668C7.592 4.788 7.368 4.956 7.208 5.172C7.056 5.388 6.98 5.644 6.98 5.94C6.98 6.276 7.088 6.544 7.304 6.744C7.52 6.944 7.88 7.096 8.384 7.2L9.656 7.464C10.456 7.632 11.052 7.892 11.444 8.244C11.836 8.596 12.032 9.064 12.032 9.648C12.032 10.024 11.956 10.364 11.804 10.668C11.652 10.964 11.436 11.22 11.156 11.436C10.876 11.652 10.536 11.82 10.136 11.94C9.744 12.052 9.3 12.108 8.804 12.108ZM16.0648 12.108C15.4248 12.108 14.8728 11.988 14.4088 11.748C13.9528 11.5 13.5968 11.152 13.3408 10.704C13.0928 10.248 12.9688 9.708 12.9688 9.084C12.9688 8.476 13.0928 7.944 13.3408 7.488C13.5888 7.032 13.9288 6.676 14.3608 6.42C14.7928 6.164 15.2848 6.036 15.8368 6.036C16.2448 6.036 16.6088 6.104 16.9288 6.24C17.2488 6.368 17.5208 6.56 17.7448 6.816C17.9768 7.064 18.1488 7.368 18.2608 7.728C18.3808 8.088 18.4408 8.492 18.4408 8.94C18.4408 9.076 18.4008 9.18 18.3208 9.252C18.2408 9.316 18.1208 9.348 17.9608 9.348H13.9288V8.604H17.6248L17.4208 8.772C17.4208 8.372 17.3608 8.032 17.2408 7.752C17.1288 7.472 16.9568 7.26 16.7248 7.116C16.5008 6.964 16.2208 6.888 15.8848 6.888C15.5088 6.888 15.1888 6.976 14.9248 7.152C14.6688 7.328 14.4728 7.572 14.3368 7.884C14.2008 8.196 14.1328 8.56 14.1328 8.976V9.048C14.1328 9.752 14.2968 10.284 14.6248 10.644C14.9608 10.996 15.4448 11.172 16.0768 11.172C16.3168 11.172 16.5688 11.14 16.8328 11.076C17.1048 11.012 17.3608 10.904 17.6008 10.752C17.7368 10.672 17.8568 10.636 17.9608 10.644C18.0728 10.652 18.1608 10.688 18.2248 10.752C18.2968 10.816 18.3408 10.896 18.3568 10.992C18.3728 11.088 18.3568 11.188 18.3088 11.292C18.2608 11.388 18.1768 11.476 18.0568 11.556C17.7848 11.74 17.4688 11.88 17.1088 11.976C16.7488 12.064 16.4008 12.108 16.0648 12.108ZM21.6462 12.108C21.0222 12.108 20.5502 11.928 20.2302 11.568C19.9182 11.2 19.7622 10.672 19.7622 9.984V4.068C19.7622 3.868 19.8142 3.716 19.9182 3.612C20.0222 3.508 20.1702 3.456 20.3622 3.456C20.5542 3.456 20.7022 3.508 20.8062 3.612C20.9182 3.716 20.9742 3.868 20.9742 4.068V9.912C20.9742 10.312 21.0542 10.612 21.2142 10.812C21.3822 11.004 21.6222 11.1 21.9342 11.1C22.0062 11.1 22.0702 11.1 22.1262 11.1C22.1822 11.092 22.2382 11.084 22.2942 11.076C22.3902 11.068 22.4582 11.096 22.4982 11.16C22.5382 11.216 22.5582 11.336 22.5582 11.52C22.5582 11.688 22.5222 11.82 22.4502 11.916C22.3782 12.004 22.2622 12.06 22.1022 12.084C22.0302 12.092 21.9542 12.096 21.8742 12.096C21.7942 12.104 21.7182 12.108 21.6462 12.108ZM26.1195 12.108C25.4795 12.108 24.9275 11.988 24.4635 11.748C24.0075 11.5 23.6515 11.152 23.3955 10.704C23.1475 10.248 23.0235 9.708 23.0235 9.084C23.0235 8.476 23.1475 7.944 23.3955 7.488C23.6435 7.032 23.9835 6.676 24.4155 6.42C24.8475 6.164 25.3395 6.036 25.8915 6.036C26.2995 6.036 26.6635 6.104 26.9835 6.24C27.3035 6.368 27.5755 6.56 27.7995 6.816C28.0315 7.064 28.2035 7.368 28.3155 7.728C28.4355 8.088 28.4955 8.492 28.4955 8.94C28.4955 9.076 28.4555 9.18 28.3755 9.252C28.2955 9.316 28.1755 9.348 28.0155 9.348H23.9835V8.604H27.6795L27.4755 8.772C27.4755 8.372 27.4155 8.032 27.2955 7.752C27.1835 7.472 27.0115 7.26 26.7795 7.116C26.5555 6.964 26.2755 6.888 25.9395 6.888C25.5635 6.888 25.2435 6.976 24.9795 7.152C24.7235 7.328 24.5275 7.572 24.3915 7.884C24.2555 8.196 24.1875 8.56 24.1875 8.976V9.048C24.1875 9.752 24.3515 10.284 24.6795 10.644C25.0155 10.996 25.4995 11.172 26.1315 11.172C26.3715 11.172 26.6235 11.14 26.8875 11.076C27.1595 11.012 27.4155 10.904 27.6555 10.752C27.7915 10.672 27.9115 10.636 28.0155 10.644C28.1275 10.652 28.2155 10.688 28.2795 10.752C28.3515 10.816 28.3955 10.896 28.4115 10.992C28.4275 11.088 28.4115 11.188 28.3635 11.292C28.3155 11.388 28.2315 11.476 28.1115 11.556C27.8395 11.74 27.5235 11.88 27.1635 11.976C26.8035 12.064 26.4555 12.108 26.1195 12.108ZM32.3968 12.108C31.7968 12.108 31.2768 11.984 30.8368 11.736C30.4048 11.48 30.0688 11.124 29.8288 10.668C29.5888 10.204 29.4688 9.66 29.4688 9.036C29.4688 8.572 29.5368 8.156 29.6728 7.788C29.8088 7.412 30.0008 7.096 30.2488 6.84C30.5048 6.584 30.8128 6.388 31.1728 6.252C31.5408 6.108 31.9488 6.036 32.3968 6.036C32.6768 6.036 32.9688 6.08 33.2728 6.168C33.5848 6.248 33.8728 6.384 34.1368 6.576C34.2408 6.64 34.3048 6.72 34.3288 6.816C34.3608 6.904 34.3648 6.996 34.3408 7.092C34.3248 7.188 34.2808 7.272 34.2088 7.344C34.1448 7.408 34.0648 7.448 33.9688 7.464C33.8728 7.472 33.7688 7.444 33.6568 7.38C33.4648 7.244 33.2688 7.148 33.0688 7.092C32.8688 7.028 32.6768 6.996 32.4928 6.996C32.2048 6.996 31.9488 7.044 31.7248 7.14C31.5088 7.228 31.3248 7.36 31.1728 7.536C31.0208 7.704 30.9048 7.916 30.8248 8.172C30.7528 8.428 30.7168 8.72 30.7168 9.048C30.7168 9.704 30.8688 10.22 31.1728 10.596C31.4848 10.964 31.9248 11.148 32.4928 11.148C32.6768 11.148 32.8688 11.12 33.0688 11.064C33.2688 11.008 33.4648 10.912 33.6568 10.776C33.7688 10.712 33.8728 10.688 33.9688 10.704C34.0648 10.72 34.1408 10.764 34.1968 10.836C34.2608 10.9 34.3008 10.98 34.3168 11.076C34.3408 11.164 34.3368 11.256 34.3048 11.352C34.2728 11.448 34.2048 11.528 34.1008 11.592C33.8448 11.776 33.5648 11.908 33.2608 11.988C32.9648 12.068 32.6768 12.108 32.3968 12.108ZM37.9261 12.108C37.4461 12.108 37.0421 12.024 36.7141 11.856C36.3861 11.688 36.1421 11.44 35.9821 11.112C35.8221 10.784 35.7421 10.384 35.7421 9.912V7.08H35.0221C34.8621 7.08 34.7381 7.04 34.6501 6.96C34.5621 6.872 34.5181 6.756 34.5181 6.612C34.5181 6.46 34.5621 6.344 34.6501 6.264C34.7381 6.184 34.8621 6.144 35.0221 6.144H35.7421V4.908C35.7421 4.708 35.7941 4.556 35.8981 4.452C36.0101 4.348 36.1621 4.296 36.3541 4.296C36.5461 4.296 36.6941 4.348 36.7981 4.452C36.9021 4.556 36.9541 4.708 36.9541 4.908V6.144H38.3581C38.5181 6.144 38.6421 6.184 38.7301 6.264C38.8181 6.344 38.8621 6.46 38.8621 6.612C38.8621 6.756 38.8181 6.872 38.7301 6.96C38.6421 7.04 38.5181 7.08 38.3581 7.08H36.9541V9.816C36.9541 10.24 37.0421 10.56 37.2181 10.776C37.4021 10.992 37.6981 11.1 38.1061 11.1C38.2501 11.1 38.3741 11.088 38.4781 11.064C38.5901 11.032 38.6821 11.012 38.7541 11.004C38.8421 11.004 38.9141 11.036 38.9701 11.1C39.0261 11.156 39.0541 11.268 39.0541 11.436C39.0541 11.556 39.0301 11.668 38.9821 11.772C38.9421 11.876 38.8661 11.944 38.7541 11.976C38.6581 12.008 38.5261 12.036 38.3581 12.06C38.1981 12.092 38.0541 12.108 37.9261 12.108ZM43.781 12C43.565 12 43.397 11.944 43.277 11.832C43.165 11.712 43.109 11.544 43.109 11.328V4.212C43.109 3.996 43.165 3.832 43.277 3.72C43.397 3.6 43.565 3.54 43.781 3.54H48.161C48.329 3.54 48.457 3.584 48.545 3.672C48.633 3.752 48.677 3.872 48.677 4.032C48.677 4.2 48.633 4.328 48.545 4.416C48.457 4.504 48.329 4.548 48.161 4.548H44.309V7.2H47.897C48.073 7.2 48.201 7.244 48.281 7.332C48.369 7.42 48.413 7.544 48.413 7.704C48.413 7.872 48.369 8 48.281 8.088C48.201 8.168 48.073 8.208 47.897 8.208H44.309V10.992H48.161C48.329 10.992 48.457 11.036 48.545 11.124C48.633 11.212 48.677 11.336 48.677 11.496C48.677 11.664 48.633 11.792 48.545 11.88C48.457 11.96 48.329 12 48.161 12H43.781ZM50.6674 12.084C50.4754 12.084 50.3274 12.032 50.2234 11.928C50.1194 11.816 50.0674 11.664 50.0674 11.472V6.672C50.0674 6.472 50.1194 6.32 50.2234 6.216C50.3274 6.112 50.4714 6.06 50.6554 6.06C50.8474 6.06 50.9914 6.112 51.0874 6.216C51.1914 6.32 51.2434 6.472 51.2434 6.672V7.656L51.1114 7.392C51.2714 6.968 51.5194 6.636 51.8554 6.396C52.1914 6.156 52.5954 6.036 53.0674 6.036C53.5554 6.036 53.9514 6.152 54.2554 6.384C54.5594 6.616 54.7674 6.972 54.8794 7.452H54.7114C54.8634 7.012 55.1234 6.668 55.4914 6.42C55.8594 6.164 56.2874 6.036 56.7754 6.036C57.2234 6.036 57.5914 6.124 57.8794 6.3C58.1674 6.468 58.3834 6.728 58.5274 7.08C58.6714 7.424 58.7434 7.86 58.7434 8.388V11.472C58.7434 11.664 58.6874 11.816 58.5754 11.928C58.4714 12.032 58.3234 12.084 58.1314 12.084C57.9394 12.084 57.7914 12.032 57.6874 11.928C57.5834 11.816 57.5314 11.664 57.5314 11.472V8.448C57.5314 7.952 57.4434 7.588 57.2674 7.356C57.0994 7.124 56.8194 7.008 56.4274 7.008C55.9874 7.008 55.6394 7.16 55.3834 7.464C55.1274 7.768 54.9994 8.188 54.9994 8.724V11.472C54.9994 11.664 54.9474 11.816 54.8434 11.928C54.7394 12.032 54.5914 12.084 54.3994 12.084C54.2074 12.084 54.0554 12.032 53.9434 11.928C53.8394 11.816 53.7874 11.664 53.7874 11.472V8.448C53.7874 7.952 53.7034 7.588 53.5354 7.356C53.3674 7.124 53.0874 7.008 52.6954 7.008C52.2554 7.008 51.9074 7.16 51.6514 7.464C51.4034 7.768 51.2794 8.188 51.2794 8.724V11.472C51.2794 11.88 51.0754 12.084 50.6674 12.084ZM61.0379 14.244C60.8459 14.244 60.6979 14.192 60.5939 14.088C60.4899 13.984 60.4379 13.832 60.4379 13.632V6.672C60.4379 6.472 60.4899 6.32 60.5939 6.216C60.6979 6.112 60.8419 6.06 61.0259 6.06C61.2179 6.06 61.3659 6.112 61.4699 6.216C61.5739 6.32 61.6259 6.472 61.6259 6.672V7.716L61.4939 7.464C61.6219 7.032 61.8739 6.688 62.2499 6.432C62.6259 6.168 63.0699 6.036 63.5819 6.036C64.1019 6.036 64.5539 6.16 64.9379 6.408C65.3299 6.656 65.6299 7.004 65.8379 7.452C66.0539 7.9 66.1619 8.44 66.1619 9.072C66.1619 9.688 66.0539 10.228 65.8379 10.692C65.6299 11.148 65.3339 11.5 64.9499 11.748C64.5659 11.988 64.1099 12.108 63.5819 12.108C63.0779 12.108 62.6379 11.98 62.2619 11.724C61.8859 11.468 61.6339 11.128 61.5059 10.704H61.6499V13.632C61.6499 13.832 61.5939 13.984 61.4819 14.088C61.3779 14.192 61.2299 14.244 61.0379 14.244ZM63.2819 11.172C63.6179 11.172 63.9099 11.092 64.1579 10.932C64.4059 10.772 64.5979 10.536 64.7339 10.224C64.8699 9.912 64.9379 9.528 64.9379 9.072C64.9379 8.384 64.7859 7.864 64.4819 7.512C64.1859 7.16 63.7859 6.984 63.2819 6.984C62.9539 6.984 62.6619 7.064 62.4059 7.224C62.1579 7.376 61.9659 7.608 61.8299 7.92C61.6939 8.232 61.6259 8.616 61.6259 9.072C61.6259 9.752 61.7779 10.272 62.0819 10.632C62.3859 10.992 62.7859 11.172 63.2819 11.172ZM69.4118 12.108C68.7878 12.108 68.3158 11.928 67.9958 11.568C67.6838 11.2 67.5278 10.672 67.5278 9.984V4.068C67.5278 3.868 67.5798 3.716 67.6838 3.612C67.7878 3.508 67.9358 3.456 68.1278 3.456C68.3198 3.456 68.4678 3.508 68.5718 3.612C68.6838 3.716 68.7398 3.868 68.7398 4.068V9.912C68.7398 10.312 68.8198 10.612 68.9798 10.812C69.1478 11.004 69.3878 11.1 69.6998 11.1C69.7718 11.1 69.8358 11.1 69.8918 11.1C69.9478 11.092 70.0038 11.084 70.0598 11.076C70.1558 11.068 70.2238 11.096 70.2638 11.16C70.3038 11.216 70.3238 11.336 70.3238 11.52C70.3238 11.688 70.2878 11.82 70.2158 11.916C70.1438 12.004 70.0278 12.06 69.8678 12.084C69.7958 12.092 69.7198 12.096 69.6398 12.096C69.5598 12.104 69.4838 12.108 69.4118 12.108ZM73.6812 12.108C73.0892 12.108 72.5772 11.984 72.1452 11.736C71.7212 11.488 71.3892 11.136 71.1492 10.68C70.9092 10.224 70.7892 9.688 70.7892 9.072C70.7892 8.6 70.8572 8.18 70.9932 7.812C71.1292 7.444 71.3212 7.128 71.5692 6.864C71.8252 6.592 72.1292 6.388 72.4812 6.252C72.8412 6.108 73.2412 6.036 73.6812 6.036C74.2652 6.036 74.7692 6.16 75.1932 6.408C75.6252 6.656 75.9612 7.008 76.2012 7.464C76.4412 7.912 76.5612 8.448 76.5612 9.072C76.5612 9.536 76.4932 9.956 76.3572 10.332C76.2212 10.708 76.0252 11.028 75.7692 11.292C75.5212 11.556 75.2172 11.76 74.8572 11.904C74.5052 12.04 74.1132 12.108 73.6812 12.108ZM73.6812 11.172C74.0092 11.172 74.2972 11.092 74.5452 10.932C74.7932 10.772 74.9852 10.536 75.1212 10.224C75.2652 9.912 75.3372 9.528 75.3372 9.072C75.3372 8.384 75.1852 7.864 74.8812 7.512C74.5772 7.16 74.1772 6.984 73.6812 6.984C73.3452 6.984 73.0532 7.064 72.8052 7.224C72.5572 7.376 72.3612 7.608 72.2172 7.92C72.0812 8.232 72.0132 8.616 72.0132 9.072C72.0132 9.752 72.1652 10.272 72.4692 10.632C72.7732 10.992 73.1772 11.172 73.6812 11.172ZM79.1968 14.244C79.0528 14.244 78.9328 14.204 78.8368 14.124C78.7488 14.052 78.6968 13.952 78.6808 13.824C78.6728 13.704 78.6968 13.572 78.7528 13.428L79.5688 11.592V12.108L77.3248 6.888C77.2688 6.744 77.2488 6.608 77.2648 6.48C77.2808 6.352 77.3408 6.252 77.4448 6.18C77.5488 6.1 77.6888 6.06 77.8648 6.06C78.0168 6.06 78.1368 6.096 78.2248 6.168C78.3128 6.24 78.3928 6.364 78.4648 6.54L80.2768 11.016H79.9408L81.7768 6.54C81.8488 6.356 81.9328 6.232 82.0288 6.168C82.1248 6.096 82.2568 6.06 82.4248 6.06C82.5688 6.06 82.6808 6.1 82.7608 6.18C82.8488 6.252 82.9008 6.352 82.9168 6.48C82.9408 6.6 82.9208 6.732 82.8568 6.876L79.8568 13.776C79.7768 13.96 79.6848 14.084 79.5808 14.148C79.4848 14.212 79.3568 14.244 79.1968 14.244ZM86.6938 12.108C86.0538 12.108 85.5018 11.988 85.0378 11.748C84.5818 11.5 84.2258 11.152 83.9698 10.704C83.7218 10.248 83.5978 9.708 83.5978 9.084C83.5978 8.476 83.7218 7.944 83.9698 7.488C84.2178 7.032 84.5578 6.676 84.9898 6.42C85.4218 6.164 85.9138 6.036 86.4658 6.036C86.8738 6.036 87.2378 6.104 87.5578 6.24C87.8778 6.368 88.1498 6.56 88.3738 6.816C88.6058 7.064 88.7778 7.368 88.8898 7.728C89.0098 8.088 89.0698 8.492 89.0698 8.94C89.0698 9.076 89.0298 9.18 88.9498 9.252C88.8698 9.316 88.7498 9.348 88.5898 9.348H84.5578V8.604H88.2538L88.0498 8.772C88.0498 8.372 87.9898 8.032 87.8698 7.752C87.7578 7.472 87.5858 7.26 87.3538 7.116C87.1298 6.964 86.8498 6.888 86.5138 6.888C86.1378 6.888 85.8178 6.976 85.5538 7.152C85.2978 7.328 85.1018 7.572 84.9658 7.884C84.8298 8.196 84.7618 8.56 84.7618 8.976V9.048C84.7618 9.752 84.9258 10.284 85.2538 10.644C85.5898 10.996 86.0738 11.172 86.7058 11.172C86.9458 11.172 87.1978 11.14 87.4618 11.076C87.7338 11.012 87.9898 10.904 88.2298 10.752C88.3658 10.672 88.4858 10.636 88.5898 10.644C88.7018 10.652 88.7898 10.688 88.8538 10.752C88.9258 10.816 88.9698 10.896 88.9858 10.992C89.0018 11.088 88.9858 11.188 88.9378 11.292C88.8898 11.388 88.8058 11.476 88.6858 11.556C88.4138 11.74 88.0978 11.88 87.7378 11.976C87.3778 12.064 87.0298 12.108 86.6938 12.108ZM93.1391 12.108C92.4991 12.108 91.9471 11.988 91.4831 11.748C91.0271 11.5 90.6711 11.152 90.4151 10.704C90.1671 10.248 90.0431 9.708 90.0431 9.084C90.0431 8.476 90.1671 7.944 90.4151 7.488C90.6631 7.032 91.0031 6.676 91.4351 6.42C91.8671 6.164 92.3591 6.036 92.9111 6.036C93.3191 6.036 93.6831 6.104 94.0031 6.24C94.3231 6.368 94.5951 6.56 94.8191 6.816C95.0511 7.064 95.2231 7.368 95.3351 7.728C95.4551 8.088 95.5151 8.492 95.5151 8.94C95.5151 9.076 95.4751 9.18 95.3951 9.252C95.3151 9.316 95.1951 9.348 95.0351 9.348H91.0031V8.604H94.6991L94.4951 8.772C94.4951 8.372 94.4351 8.032 94.3151 7.752C94.2031 7.472 94.0311 7.26 93.7991 7.116C93.5751 6.964 93.2951 6.888 92.9591 6.888C92.5831 6.888 92.2631 6.976 91.9991 7.152C91.7431 7.328 91.5471 7.572 91.4111 7.884C91.2751 8.196 91.2071 8.56 91.2071 8.976V9.048C91.2071 9.752 91.3711 10.284 91.6991 10.644C92.0351 10.996 92.5191 11.172 93.1511 11.172C93.3911 11.172 93.6431 11.14 93.9071 11.076C94.1791 11.012 94.4351 10.904 94.6751 10.752C94.8111 10.672 94.9311 10.636 95.0351 10.644C95.1471 10.652 95.2351 10.688 95.2991 10.752C95.3711 10.816 95.4151 10.896 95.4311 10.992C95.4471 11.088 95.4311 11.188 95.3831 11.292C95.3351 11.388 95.2511 11.476 95.1311 11.556C94.8591 11.74 94.5431 11.88 94.1831 11.976C93.8231 12.064 93.4751 12.108 93.1391 12.108Z" fill="#64728C"/>
<defs>
<filter id="filter0_d_606_5613" x="0" y="20" width="310" height="55" filterUnits="userSpaceOnUse" color-interpolation-filters="sRGB">
<feFlood flood-opacity="0" result="BackgroundImageFix"/>
<feColorMatrix in="SourceAlpha" type="matrix" values="0 0 0 0 0 0 0 0 0 0 0 0 0 0 0 0 0 0 127 0" result="hardAlpha"/>
<feOffset dy="4"/>
<feGaussianBlur stdDeviation="2.5"/>
<feComposite in2="hardAlpha" operator="out"/>
<feColorMatrix type="matrix" values="0 0 0 0 0.0196078 0 0 0 0 0.498039 0 0 0 0 0.941176 0 0 0 0.15 0"/>
<feBlend mode="normal" in2="BackgroundImageFix" result="effect1_dropShadow_606_5613"/>
<feBlend mode="normal" in="SourceGraphic" in2="effect1_dropShadow_606_5613" result="shape"/>
</filter>
</defs>
</svg>
