<svg width="300" height="66" viewBox="0 0 300 66" fill="none" xmlns="http://www.w3.org/2000/svg">
<rect x="0.5" y="21.5" width="299" height="44" rx="11.5" fill="white"/>
<rect x="0.5" y="21.5" width="299" height="44" rx="11.5" stroke="#FFAA00"/>
<path d="M10.336 47.572C10.184 47.58 10.068 47.54 9.988 47.452C9.9 47.364 9.856 47.256 9.856 47.128C9.856 47.032 9.888 46.944 9.952 46.864C10.008 46.784 10.1 46.74 10.228 46.732L10.6 46.708C11.008 46.676 11.32 46.536 11.536 46.288C11.752 46.032 11.86 45.684 11.86 45.244V39.46C11.86 39.292 11.9 39.168 11.98 39.088C12.068 39 12.192 38.956 12.352 38.956C12.512 38.956 12.632 39 12.712 39.088C12.8 39.168 12.844 39.292 12.844 39.46V45.256C12.844 45.712 12.764 46.108 12.604 46.444C12.444 46.772 12.204 47.028 11.884 47.212C11.572 47.396 11.188 47.504 10.732 47.536L10.336 47.572ZM17.2266 47.608C16.6586 47.608 16.1666 47.484 15.7506 47.236C15.3346 46.988 15.0106 46.64 14.7786 46.192C14.5546 45.736 14.4426 45.2 14.4426 44.584C14.4426 44.12 14.5066 43.704 14.6346 43.336C14.7626 42.96 14.9506 42.64 15.1986 42.376C15.4466 42.112 15.7386 41.912 16.0746 41.776C16.4186 41.632 16.8026 41.56 17.2266 41.56C17.7946 41.56 18.2866 41.684 18.7026 41.932C19.1186 42.18 19.4386 42.532 19.6626 42.988C19.8946 43.436 20.0106 43.968 20.0106 44.584C20.0106 45.048 19.9466 45.464 19.8186 45.832C19.6906 46.2 19.5026 46.52 19.2546 46.792C19.0066 47.056 18.7106 47.26 18.3666 47.404C18.0306 47.54 17.6506 47.608 17.2266 47.608ZM17.2266 46.828C17.5866 46.828 17.9026 46.74 18.1746 46.564C18.4466 46.388 18.6546 46.132 18.7986 45.796C18.9506 45.46 19.0266 45.056 19.0266 44.584C19.0266 43.856 18.8626 43.3 18.5346 42.916C18.2146 42.532 17.7786 42.34 17.2266 42.34C16.8586 42.34 16.5386 42.428 16.2666 42.604C16.0026 42.772 15.7946 43.024 15.6426 43.36C15.4986 43.688 15.4266 44.096 15.4266 44.584C15.4266 45.304 15.5906 45.86 15.9186 46.252C16.2466 46.636 16.6826 46.828 17.2266 46.828ZM21.9506 47.584C21.7906 47.584 21.6706 47.54 21.5906 47.452C21.5106 47.364 21.4706 47.24 21.4706 47.08V39.448C21.4706 39.288 21.5106 39.168 21.5906 39.088C21.6706 39 21.7906 38.956 21.9506 38.956C22.1026 38.956 22.2226 39 22.3106 39.088C22.3986 39.168 22.4426 39.288 22.4426 39.448V42.964H22.2866C22.4546 42.5 22.7266 42.152 23.1026 41.92C23.4866 41.68 23.9266 41.56 24.4226 41.56C24.8866 41.56 25.2706 41.644 25.5746 41.812C25.8866 41.98 26.1186 42.236 26.2706 42.58C26.4226 42.916 26.4986 43.344 26.4986 43.864V47.08C26.4986 47.24 26.4546 47.364 26.3666 47.452C26.2866 47.54 26.1706 47.584 26.0186 47.584C25.8586 47.584 25.7346 47.54 25.6466 47.452C25.5666 47.364 25.5266 47.24 25.5266 47.08V43.924C25.5266 43.38 25.4186 42.984 25.2026 42.736C24.9946 42.48 24.6586 42.352 24.1946 42.352C23.6586 42.352 23.2306 42.52 22.9106 42.856C22.5986 43.184 22.4426 43.624 22.4426 44.176V47.08C22.4426 47.416 22.2786 47.584 21.9506 47.584ZM28.7709 47.584C28.6109 47.584 28.4909 47.54 28.4109 47.452C28.3309 47.364 28.2909 47.24 28.2909 47.08V42.076C28.2909 41.916 28.3309 41.796 28.4109 41.716C28.4909 41.628 28.6069 41.584 28.7589 41.584C28.9109 41.584 29.0269 41.628 29.1069 41.716C29.1949 41.796 29.2389 41.916 29.2389 42.076V43.108L29.1069 42.964C29.2749 42.5 29.5469 42.152 29.9229 41.92C30.3069 41.68 30.7469 41.56 31.2429 41.56C31.7069 41.56 32.0909 41.644 32.3949 41.812C32.7069 41.98 32.9389 42.236 33.0909 42.58C33.2429 42.916 33.3189 43.344 33.3189 43.864V47.08C33.3189 47.24 33.2749 47.364 33.1869 47.452C33.1069 47.54 32.9909 47.584 32.8389 47.584C32.6789 47.584 32.5549 47.54 32.4669 47.452C32.3869 47.364 32.3469 47.24 32.3469 47.08V43.924C32.3469 43.38 32.2389 42.984 32.0229 42.736C31.8149 42.48 31.4789 42.352 31.0149 42.352C30.4789 42.352 30.0509 42.52 29.7309 42.856C29.4189 43.184 29.2629 43.624 29.2629 44.176V47.08C29.2629 47.416 29.0989 47.584 28.7709 47.584ZM41.073 47.608C40.697 47.608 40.329 47.576 39.969 47.512C39.609 47.448 39.273 47.356 38.961 47.236C38.657 47.116 38.381 46.964 38.133 46.78C38.037 46.708 37.969 46.628 37.929 46.54C37.897 46.444 37.889 46.352 37.905 46.264C37.929 46.168 37.969 46.088 38.025 46.024C38.089 45.96 38.165 45.924 38.253 45.916C38.341 45.908 38.437 45.936 38.541 46C38.901 46.256 39.285 46.444 39.693 46.564C40.101 46.676 40.561 46.732 41.073 46.732C41.793 46.732 42.325 46.6 42.669 46.336C43.021 46.064 43.197 45.708 43.197 45.268C43.197 44.908 43.069 44.628 42.813 44.428C42.565 44.22 42.145 44.056 41.553 43.936L40.305 43.684C39.553 43.524 38.989 43.264 38.613 42.904C38.245 42.536 38.061 42.048 38.061 41.44C38.061 41.064 38.137 40.724 38.289 40.42C38.441 40.108 38.653 39.844 38.925 39.628C39.197 39.404 39.521 39.232 39.897 39.112C40.273 38.992 40.689 38.932 41.145 38.932C41.649 38.932 42.117 39.004 42.549 39.148C42.989 39.284 43.385 39.492 43.737 39.772C43.825 39.844 43.885 39.928 43.917 40.024C43.949 40.112 43.953 40.2 43.929 40.288C43.905 40.368 43.861 40.436 43.797 40.492C43.741 40.548 43.665 40.58 43.569 40.588C43.481 40.596 43.381 40.564 43.269 40.492C42.949 40.252 42.617 40.08 42.273 39.976C41.929 39.864 41.549 39.808 41.133 39.808C40.709 39.808 40.341 39.872 40.029 40C39.725 40.128 39.485 40.316 39.309 40.564C39.141 40.804 39.057 41.084 39.057 41.404C39.057 41.788 39.173 42.092 39.405 42.316C39.645 42.54 40.033 42.704 40.569 42.808L41.817 43.072C42.625 43.24 43.221 43.496 43.605 43.84C43.997 44.176 44.193 44.636 44.193 45.22C44.193 45.572 44.121 45.896 43.977 46.192C43.833 46.488 43.625 46.744 43.353 46.96C43.081 47.168 42.753 47.328 42.369 47.44C41.985 47.552 41.553 47.608 41.073 47.608ZM46.0678 47.584C45.9078 47.584 45.7878 47.54 45.7078 47.452C45.6278 47.364 45.5878 47.24 45.5878 47.08V42.076C45.5878 41.916 45.6278 41.796 45.7078 41.716C45.7878 41.628 45.9038 41.584 46.0558 41.584C46.2078 41.584 46.3238 41.628 46.4038 41.716C46.4918 41.796 46.5358 41.916 46.5358 42.076V43.108L46.4038 42.964C46.5718 42.5 46.8438 42.152 47.2198 41.92C47.6038 41.68 48.0438 41.56 48.5398 41.56C49.0038 41.56 49.3878 41.644 49.6918 41.812C50.0038 41.98 50.2358 42.236 50.3878 42.58C50.5398 42.916 50.6158 43.344 50.6158 43.864V47.08C50.6158 47.24 50.5718 47.364 50.4838 47.452C50.4038 47.54 50.2878 47.584 50.1358 47.584C49.9758 47.584 49.8518 47.54 49.7638 47.452C49.6838 47.364 49.6438 47.24 49.6438 47.08V43.924C49.6438 43.38 49.5358 42.984 49.3198 42.736C49.1118 42.48 48.7758 42.352 48.3118 42.352C47.7758 42.352 47.3478 42.52 47.0278 42.856C46.7158 43.184 46.5598 43.624 46.5598 44.176V47.08C46.5598 47.416 46.3958 47.584 46.0678 47.584ZM54.8321 47.608C54.2641 47.608 53.7721 47.484 53.3561 47.236C52.9401 46.988 52.6161 46.64 52.3841 46.192C52.1601 45.736 52.0481 45.2 52.0481 44.584C52.0481 44.12 52.1121 43.704 52.2401 43.336C52.3681 42.96 52.5561 42.64 52.8041 42.376C53.0521 42.112 53.3441 41.912 53.6801 41.776C54.0241 41.632 54.4081 41.56 54.8321 41.56C55.4001 41.56 55.8921 41.684 56.3081 41.932C56.7241 42.18 57.0441 42.532 57.2681 42.988C57.5001 43.436 57.6161 43.968 57.6161 44.584C57.6161 45.048 57.5521 45.464 57.4241 45.832C57.2961 46.2 57.1081 46.52 56.8601 46.792C56.6121 47.056 56.3161 47.26 55.9721 47.404C55.6361 47.54 55.2561 47.608 54.8321 47.608ZM54.8321 46.828C55.1921 46.828 55.5081 46.74 55.7801 46.564C56.0521 46.388 56.2601 46.132 56.4041 45.796C56.5561 45.46 56.6321 45.056 56.6321 44.584C56.6321 43.856 56.4681 43.3 56.1401 42.916C55.8201 42.532 55.3841 42.34 54.8321 42.34C54.4641 42.34 54.1441 42.428 53.8721 42.604C53.6081 42.772 53.4001 43.024 53.2481 43.36C53.1041 43.688 53.0321 44.096 53.0321 44.584C53.0321 45.304 53.1961 45.86 53.5241 46.252C53.8521 46.636 54.2881 46.828 54.8321 46.828ZM61.01 47.584C60.874 47.584 60.754 47.548 60.65 47.476C60.546 47.404 60.462 47.288 60.398 47.128L58.61 42.268C58.562 42.132 58.546 42.012 58.562 41.908C58.586 41.804 58.638 41.724 58.718 41.668C58.798 41.612 58.898 41.584 59.018 41.584C59.138 41.584 59.234 41.612 59.306 41.668C59.386 41.724 59.45 41.828 59.498 41.98L61.178 46.78H60.89L62.618 41.98C62.674 41.836 62.742 41.736 62.822 41.68C62.91 41.616 63.022 41.584 63.158 41.584C63.286 41.584 63.394 41.616 63.482 41.68C63.57 41.744 63.638 41.844 63.686 41.98L65.378 46.78H65.102L66.806 41.956C66.862 41.812 66.93 41.716 67.01 41.668C67.09 41.612 67.186 41.584 67.298 41.584C67.426 41.584 67.522 41.616 67.586 41.68C67.658 41.744 67.698 41.828 67.706 41.932C67.714 42.036 67.694 42.148 67.646 42.268L65.858 47.128C65.802 47.28 65.718 47.396 65.606 47.476C65.502 47.548 65.382 47.584 65.246 47.584C65.11 47.584 64.99 47.548 64.886 47.476C64.782 47.396 64.702 47.28 64.646 47.128L62.87 42.256H63.386L61.622 47.128C61.566 47.28 61.486 47.396 61.382 47.476C61.278 47.548 61.154 47.584 61.01 47.584Z" fill="#64728C"/>
<path d="M3.804 12.108C3.436 12.108 3.076 12.08 2.724 12.024C2.372 11.968 2.04 11.884 1.728 11.772C1.416 11.652 1.136 11.508 0.888 11.34C0.768 11.252 0.684 11.152 0.636 11.04C0.596 10.928 0.584 10.82 0.6 10.716C0.624 10.604 0.672 10.508 0.744 10.428C0.816 10.348 0.904 10.3 1.008 10.284C1.112 10.26 1.228 10.292 1.356 10.38C1.716 10.612 2.096 10.784 2.496 10.896C2.896 11 3.332 11.052 3.804 11.052C4.484 11.052 4.984 10.932 5.304 10.692C5.632 10.444 5.796 10.124 5.796 9.732C5.796 9.412 5.68 9.16 5.448 8.976C5.216 8.784 4.828 8.632 4.284 8.52L3 8.256C2.24 8.096 1.672 7.832 1.296 7.464C0.928 7.096 0.744 6.6 0.744 5.976C0.744 5.6 0.82 5.256 0.972 4.944C1.132 4.632 1.352 4.364 1.632 4.14C1.912 3.908 2.248 3.732 2.64 3.612C3.032 3.492 3.46 3.432 3.924 3.432C4.42 3.432 4.884 3.496 5.316 3.624C5.756 3.752 6.148 3.948 6.492 4.212C6.596 4.284 6.664 4.376 6.696 4.488C6.736 4.592 6.744 4.696 6.72 4.8C6.704 4.904 6.66 4.992 6.588 5.064C6.516 5.136 6.424 5.18 6.312 5.196C6.2 5.204 6.076 5.164 5.94 5.076C5.628 4.868 5.308 4.72 4.98 4.632C4.66 4.536 4.304 4.488 3.912 4.488C3.52 4.488 3.176 4.548 2.88 4.668C2.592 4.788 2.368 4.956 2.208 5.172C2.056 5.388 1.98 5.644 1.98 5.94C1.98 6.276 2.088 6.544 2.304 6.744C2.52 6.944 2.88 7.096 3.384 7.2L4.656 7.464C5.456 7.632 6.052 7.892 6.444 8.244C6.836 8.596 7.032 9.064 7.032 9.648C7.032 10.024 6.956 10.364 6.804 10.668C6.652 10.964 6.436 11.22 6.156 11.436C5.876 11.652 5.536 11.82 5.136 11.94C4.744 12.052 4.3 12.108 3.804 12.108ZM11.0648 12.108C10.4248 12.108 9.87284 11.988 9.40884 11.748C8.95284 11.5 8.59684 11.152 8.34084 10.704C8.09284 10.248 7.96884 9.708 7.96884 9.084C7.96884 8.476 8.09284 7.944 8.34084 7.488C8.58884 7.032 8.92884 6.676 9.36084 6.42C9.79284 6.164 10.2848 6.036 10.8368 6.036C11.2448 6.036 11.6088 6.104 11.9288 6.24C12.2488 6.368 12.5208 6.56 12.7448 6.816C12.9768 7.064 13.1488 7.368 13.2608 7.728C13.3808 8.088 13.4408 8.492 13.4408 8.94C13.4408 9.076 13.4008 9.18 13.3208 9.252C13.2408 9.316 13.1208 9.348 12.9608 9.348H8.92884V8.604H12.6248L12.4208 8.772C12.4208 8.372 12.3608 8.032 12.2408 7.752C12.1288 7.472 11.9568 7.26 11.7248 7.116C11.5008 6.964 11.2208 6.888 10.8848 6.888C10.5088 6.888 10.1888 6.976 9.92484 7.152C9.66884 7.328 9.47284 7.572 9.33684 7.884C9.20084 8.196 9.13284 8.56 9.13284 8.976V9.048C9.13284 9.752 9.29684 10.284 9.62484 10.644C9.96084 10.996 10.4448 11.172 11.0768 11.172C11.3168 11.172 11.5688 11.14 11.8328 11.076C12.1048 11.012 12.3608 10.904 12.6008 10.752C12.7368 10.672 12.8568 10.636 12.9608 10.644C13.0728 10.652 13.1608 10.688 13.2248 10.752C13.2968 10.816 13.3408 10.896 13.3568 10.992C13.3728 11.088 13.3568 11.188 13.3088 11.292C13.2608 11.388 13.1768 11.476 13.0568 11.556C12.7848 11.74 12.4688 11.88 12.1088 11.976C11.7488 12.064 11.4008 12.108 11.0648 12.108ZM16.6462 12.108C16.0222 12.108 15.5502 11.928 15.2302 11.568C14.9182 11.2 14.7622 10.672 14.7622 9.984V4.068C14.7622 3.868 14.8142 3.716 14.9182 3.612C15.0222 3.508 15.1702 3.456 15.3622 3.456C15.5542 3.456 15.7022 3.508 15.8062 3.612C15.9182 3.716 15.9742 3.868 15.9742 4.068V9.912C15.9742 10.312 16.0542 10.612 16.2142 10.812C16.3822 11.004 16.6222 11.1 16.9342 11.1C17.0062 11.1 17.0702 11.1 17.1262 11.1C17.1822 11.092 17.2382 11.084 17.2942 11.076C17.3902 11.068 17.4582 11.096 17.4982 11.16C17.5382 11.216 17.5582 11.336 17.5582 11.52C17.5582 11.688 17.5222 11.82 17.4502 11.916C17.3782 12.004 17.2622 12.06 17.1022 12.084C17.0302 12.092 16.9542 12.096 16.8742 12.096C16.7942 12.104 16.7182 12.108 16.6462 12.108ZM21.1195 12.108C20.4795 12.108 19.9275 11.988 19.4635 11.748C19.0075 11.5 18.6515 11.152 18.3955 10.704C18.1475 10.248 18.0235 9.708 18.0235 9.084C18.0235 8.476 18.1475 7.944 18.3955 7.488C18.6435 7.032 18.9835 6.676 19.4155 6.42C19.8475 6.164 20.3395 6.036 20.8915 6.036C21.2995 6.036 21.6635 6.104 21.9835 6.24C22.3035 6.368 22.5755 6.56 22.7995 6.816C23.0315 7.064 23.2035 7.368 23.3155 7.728C23.4355 8.088 23.4955 8.492 23.4955 8.94C23.4955 9.076 23.4555 9.18 23.3755 9.252C23.2955 9.316 23.1755 9.348 23.0155 9.348H18.9835V8.604H22.6795L22.4755 8.772C22.4755 8.372 22.4155 8.032 22.2955 7.752C22.1835 7.472 22.0115 7.26 21.7795 7.116C21.5555 6.964 21.2755 6.888 20.9395 6.888C20.5635 6.888 20.2435 6.976 19.9795 7.152C19.7235 7.328 19.5275 7.572 19.3915 7.884C19.2555 8.196 19.1875 8.56 19.1875 8.976V9.048C19.1875 9.752 19.3515 10.284 19.6795 10.644C20.0155 10.996 20.4995 11.172 21.1315 11.172C21.3715 11.172 21.6235 11.14 21.8875 11.076C22.1595 11.012 22.4155 10.904 22.6555 10.752C22.7915 10.672 22.9115 10.636 23.0155 10.644C23.1275 10.652 23.2155 10.688 23.2795 10.752C23.3515 10.816 23.3955 10.896 23.4115 10.992C23.4275 11.088 23.4115 11.188 23.3635 11.292C23.3155 11.388 23.2315 11.476 23.1115 11.556C22.8395 11.74 22.5235 11.88 22.1635 11.976C21.8035 12.064 21.4555 12.108 21.1195 12.108ZM27.3968 12.108C26.7968 12.108 26.2768 11.984 25.8368 11.736C25.4048 11.48 25.0688 11.124 24.8288 10.668C24.5888 10.204 24.4688 9.66 24.4688 9.036C24.4688 8.572 24.5368 8.156 24.6728 7.788C24.8088 7.412 25.0008 7.096 25.2488 6.84C25.5048 6.584 25.8128 6.388 26.1728 6.252C26.5408 6.108 26.9488 6.036 27.3968 6.036C27.6768 6.036 27.9688 6.08 28.2728 6.168C28.5848 6.248 28.8728 6.384 29.1368 6.576C29.2408 6.64 29.3048 6.72 29.3288 6.816C29.3608 6.904 29.3648 6.996 29.3408 7.092C29.3248 7.188 29.2808 7.272 29.2088 7.344C29.1448 7.408 29.0648 7.448 28.9688 7.464C28.8728 7.472 28.7688 7.444 28.6568 7.38C28.4648 7.244 28.2688 7.148 28.0688 7.092C27.8688 7.028 27.6768 6.996 27.4928 6.996C27.2048 6.996 26.9488 7.044 26.7248 7.14C26.5088 7.228 26.3248 7.36 26.1728 7.536C26.0208 7.704 25.9048 7.916 25.8248 8.172C25.7528 8.428 25.7168 8.72 25.7168 9.048C25.7168 9.704 25.8688 10.22 26.1728 10.596C26.4848 10.964 26.9248 11.148 27.4928 11.148C27.6768 11.148 27.8688 11.12 28.0688 11.064C28.2688 11.008 28.4648 10.912 28.6568 10.776C28.7688 10.712 28.8728 10.688 28.9688 10.704C29.0648 10.72 29.1408 10.764 29.1968 10.836C29.2608 10.9 29.3008 10.98 29.3168 11.076C29.3408 11.164 29.3368 11.256 29.3048 11.352C29.2728 11.448 29.2048 11.528 29.1008 11.592C28.8448 11.776 28.5648 11.908 28.2608 11.988C27.9648 12.068 27.6768 12.108 27.3968 12.108ZM32.9261 12.108C32.4461 12.108 32.0421 12.024 31.7141 11.856C31.3861 11.688 31.1421 11.44 30.9821 11.112C30.8221 10.784 30.7421 10.384 30.7421 9.912V7.08H30.0221C29.8621 7.08 29.7381 7.04 29.6501 6.96C29.5621 6.872 29.5181 6.756 29.5181 6.612C29.5181 6.46 29.5621 6.344 29.6501 6.264C29.7381 6.184 29.8621 6.144 30.0221 6.144H30.7421V4.908C30.7421 4.708 30.7941 4.556 30.8981 4.452C31.0101 4.348 31.1621 4.296 31.3541 4.296C31.5461 4.296 31.6941 4.348 31.7981 4.452C31.9021 4.556 31.9541 4.708 31.9541 4.908V6.144H33.3581C33.5181 6.144 33.6421 6.184 33.7301 6.264C33.8181 6.344 33.8621 6.46 33.8621 6.612C33.8621 6.756 33.8181 6.872 33.7301 6.96C33.6421 7.04 33.5181 7.08 33.3581 7.08H31.9541V9.816C31.9541 10.24 32.0421 10.56 32.2181 10.776C32.4021 10.992 32.6981 11.1 33.1061 11.1C33.2501 11.1 33.3741 11.088 33.4781 11.064C33.5901 11.032 33.6821 11.012 33.7541 11.004C33.8421 11.004 33.9141 11.036 33.9701 11.1C34.0261 11.156 34.0541 11.268 34.0541 11.436C34.0541 11.556 34.0301 11.668 33.9821 11.772C33.9421 11.876 33.8661 11.944 33.7541 11.976C33.6581 12.008 33.5261 12.036 33.3581 12.06C33.1981 12.092 33.0541 12.108 32.9261 12.108ZM38.781 12C38.565 12 38.397 11.944 38.277 11.832C38.165 11.712 38.109 11.544 38.109 11.328V4.212C38.109 3.996 38.165 3.832 38.277 3.72C38.397 3.6 38.565 3.54 38.781 3.54H43.161C43.329 3.54 43.457 3.584 43.545 3.672C43.633 3.752 43.677 3.872 43.677 4.032C43.677 4.2 43.633 4.328 43.545 4.416C43.457 4.504 43.329 4.548 43.161 4.548H39.309V7.2H42.897C43.073 7.2 43.201 7.244 43.281 7.332C43.369 7.42 43.413 7.544 43.413 7.704C43.413 7.872 43.369 8 43.281 8.088C43.201 8.168 43.073 8.208 42.897 8.208H39.309V10.992H43.161C43.329 10.992 43.457 11.036 43.545 11.124C43.633 11.212 43.677 11.336 43.677 11.496C43.677 11.664 43.633 11.792 43.545 11.88C43.457 11.96 43.329 12 43.161 12H38.781ZM45.6674 12.084C45.4754 12.084 45.3274 12.032 45.2234 11.928C45.1194 11.816 45.0674 11.664 45.0674 11.472V6.672C45.0674 6.472 45.1194 6.32 45.2234 6.216C45.3274 6.112 45.4714 6.06 45.6554 6.06C45.8474 6.06 45.9914 6.112 46.0874 6.216C46.1914 6.32 46.2434 6.472 46.2434 6.672V7.656L46.1114 7.392C46.2714 6.968 46.5194 6.636 46.8554 6.396C47.1914 6.156 47.5954 6.036 48.0674 6.036C48.5554 6.036 48.9514 6.152 49.2554 6.384C49.5594 6.616 49.7674 6.972 49.8794 7.452H49.7114C49.8634 7.012 50.1234 6.668 50.4914 6.42C50.8594 6.164 51.2874 6.036 51.7754 6.036C52.2234 6.036 52.5914 6.124 52.8794 6.3C53.1674 6.468 53.3834 6.728 53.5274 7.08C53.6714 7.424 53.7434 7.86 53.7434 8.388V11.472C53.7434 11.664 53.6874 11.816 53.5754 11.928C53.4714 12.032 53.3234 12.084 53.1314 12.084C52.9394 12.084 52.7914 12.032 52.6874 11.928C52.5834 11.816 52.5314 11.664 52.5314 11.472V8.448C52.5314 7.952 52.4434 7.588 52.2674 7.356C52.0994 7.124 51.8194 7.008 51.4274 7.008C50.9874 7.008 50.6394 7.16 50.3834 7.464C50.1274 7.768 49.9994 8.188 49.9994 8.724V11.472C49.9994 11.664 49.9474 11.816 49.8434 11.928C49.7394 12.032 49.5914 12.084 49.3994 12.084C49.2074 12.084 49.0554 12.032 48.9434 11.928C48.8394 11.816 48.7874 11.664 48.7874 11.472V8.448C48.7874 7.952 48.7034 7.588 48.5354 7.356C48.3674 7.124 48.0874 7.008 47.6954 7.008C47.2554 7.008 46.9074 7.16 46.6514 7.464C46.4034 7.768 46.2794 8.188 46.2794 8.724V11.472C46.2794 11.88 46.0754 12.084 45.6674 12.084ZM56.0379 14.244C55.8459 14.244 55.6979 14.192 55.5939 14.088C55.4899 13.984 55.4379 13.832 55.4379 13.632V6.672C55.4379 6.472 55.4899 6.32 55.5939 6.216C55.6979 6.112 55.8419 6.06 56.0259 6.06C56.2179 6.06 56.3659 6.112 56.4699 6.216C56.5739 6.32 56.6259 6.472 56.6259 6.672V7.716L56.4939 7.464C56.6219 7.032 56.8739 6.688 57.2499 6.432C57.6259 6.168 58.0699 6.036 58.5819 6.036C59.1019 6.036 59.5539 6.16 59.9379 6.408C60.3299 6.656 60.6299 7.004 60.8379 7.452C61.0539 7.9 61.1619 8.44 61.1619 9.072C61.1619 9.688 61.0539 10.228 60.8379 10.692C60.6299 11.148 60.3339 11.5 59.9499 11.748C59.5659 11.988 59.1099 12.108 58.5819 12.108C58.0779 12.108 57.6379 11.98 57.2619 11.724C56.8859 11.468 56.6339 11.128 56.5059 10.704H56.6499V13.632C56.6499 13.832 56.5939 13.984 56.4819 14.088C56.3779 14.192 56.2299 14.244 56.0379 14.244ZM58.2819 11.172C58.6179 11.172 58.9099 11.092 59.1579 10.932C59.4059 10.772 59.5979 10.536 59.7339 10.224C59.8699 9.912 59.9379 9.528 59.9379 9.072C59.9379 8.384 59.7859 7.864 59.4819 7.512C59.1859 7.16 58.7859 6.984 58.2819 6.984C57.9539 6.984 57.6619 7.064 57.4059 7.224C57.1579 7.376 56.9659 7.608 56.8299 7.92C56.6939 8.232 56.6259 8.616 56.6259 9.072C56.6259 9.752 56.7779 10.272 57.0819 10.632C57.3859 10.992 57.7859 11.172 58.2819 11.172ZM64.4118 12.108C63.7878 12.108 63.3158 11.928 62.9958 11.568C62.6838 11.2 62.5278 10.672 62.5278 9.984V4.068C62.5278 3.868 62.5798 3.716 62.6838 3.612C62.7878 3.508 62.9358 3.456 63.1278 3.456C63.3198 3.456 63.4678 3.508 63.5718 3.612C63.6838 3.716 63.7398 3.868 63.7398 4.068V9.912C63.7398 10.312 63.8198 10.612 63.9798 10.812C64.1478 11.004 64.3878 11.1 64.6998 11.1C64.7718 11.1 64.8358 11.1 64.8918 11.1C64.9478 11.092 65.0038 11.084 65.0598 11.076C65.1558 11.068 65.2238 11.096 65.2638 11.16C65.3038 11.216 65.3238 11.336 65.3238 11.52C65.3238 11.688 65.2878 11.82 65.2158 11.916C65.1438 12.004 65.0278 12.06 64.8678 12.084C64.7958 12.092 64.7198 12.096 64.6398 12.096C64.5598 12.104 64.4838 12.108 64.4118 12.108ZM68.6812 12.108C68.0892 12.108 67.5772 11.984 67.1452 11.736C66.7212 11.488 66.3892 11.136 66.1492 10.68C65.9092 10.224 65.7892 9.688 65.7892 9.072C65.7892 8.6 65.8572 8.18 65.9932 7.812C66.1292 7.444 66.3212 7.128 66.5692 6.864C66.8252 6.592 67.1292 6.388 67.4812 6.252C67.8412 6.108 68.2412 6.036 68.6812 6.036C69.2652 6.036 69.7692 6.16 70.1932 6.408C70.6252 6.656 70.9612 7.008 71.2012 7.464C71.4412 7.912 71.5612 8.448 71.5612 9.072C71.5612 9.536 71.4932 9.956 71.3572 10.332C71.2212 10.708 71.0252 11.028 70.7692 11.292C70.5212 11.556 70.2172 11.76 69.8572 11.904C69.5052 12.04 69.1132 12.108 68.6812 12.108ZM68.6812 11.172C69.0092 11.172 69.2972 11.092 69.5452 10.932C69.7932 10.772 69.9852 10.536 70.1212 10.224C70.2652 9.912 70.3372 9.528 70.3372 9.072C70.3372 8.384 70.1852 7.864 69.8812 7.512C69.5772 7.16 69.1772 6.984 68.6812 6.984C68.3452 6.984 68.0532 7.064 67.8052 7.224C67.5572 7.376 67.3612 7.608 67.2172 7.92C67.0812 8.232 67.0132 8.616 67.0132 9.072C67.0132 9.752 67.1652 10.272 67.4692 10.632C67.7732 10.992 68.1772 11.172 68.6812 11.172ZM74.1968 14.244C74.0528 14.244 73.9328 14.204 73.8368 14.124C73.7488 14.052 73.6968 13.952 73.6808 13.824C73.6728 13.704 73.6968 13.572 73.7528 13.428L74.5688 11.592V12.108L72.3248 6.888C72.2688 6.744 72.2488 6.608 72.2648 6.48C72.2808 6.352 72.3408 6.252 72.4448 6.18C72.5488 6.1 72.6888 6.06 72.8648 6.06C73.0168 6.06 73.1368 6.096 73.2248 6.168C73.3128 6.24 73.3928 6.364 73.4648 6.54L75.2768 11.016H74.9408L76.7768 6.54C76.8488 6.356 76.9328 6.232 77.0288 6.168C77.1248 6.096 77.2568 6.06 77.4248 6.06C77.5688 6.06 77.6808 6.1 77.7608 6.18C77.8488 6.252 77.9008 6.352 77.9168 6.48C77.9408 6.6 77.9208 6.732 77.8568 6.876L74.8568 13.776C74.7768 13.96 74.6848 14.084 74.5808 14.148C74.4848 14.212 74.3568 14.244 74.1968 14.244ZM81.6938 12.108C81.0538 12.108 80.5018 11.988 80.0378 11.748C79.5818 11.5 79.2258 11.152 78.9698 10.704C78.7218 10.248 78.5978 9.708 78.5978 9.084C78.5978 8.476 78.7218 7.944 78.9698 7.488C79.2178 7.032 79.5578 6.676 79.9898 6.42C80.4218 6.164 80.9138 6.036 81.4658 6.036C81.8738 6.036 82.2378 6.104 82.5578 6.24C82.8778 6.368 83.1498 6.56 83.3738 6.816C83.6058 7.064 83.7778 7.368 83.8898 7.728C84.0098 8.088 84.0698 8.492 84.0698 8.94C84.0698 9.076 84.0298 9.18 83.9498 9.252C83.8698 9.316 83.7498 9.348 83.5898 9.348H79.5578V8.604H83.2538L83.0498 8.772C83.0498 8.372 82.9898 8.032 82.8698 7.752C82.7578 7.472 82.5858 7.26 82.3538 7.116C82.1298 6.964 81.8498 6.888 81.5138 6.888C81.1378 6.888 80.8178 6.976 80.5538 7.152C80.2978 7.328 80.1018 7.572 79.9658 7.884C79.8298 8.196 79.7618 8.56 79.7618 8.976V9.048C79.7618 9.752 79.9258 10.284 80.2538 10.644C80.5898 10.996 81.0738 11.172 81.7058 11.172C81.9458 11.172 82.1978 11.14 82.4618 11.076C82.7338 11.012 82.9898 10.904 83.2298 10.752C83.3658 10.672 83.4858 10.636 83.5898 10.644C83.7018 10.652 83.7898 10.688 83.8538 10.752C83.9258 10.816 83.9698 10.896 83.9858 10.992C84.0018 11.088 83.9858 11.188 83.9378 11.292C83.8898 11.388 83.8058 11.476 83.6858 11.556C83.4138 11.74 83.0978 11.88 82.7378 11.976C82.3778 12.064 82.0298 12.108 81.6938 12.108ZM88.1391 12.108C87.4991 12.108 86.9471 11.988 86.4831 11.748C86.0271 11.5 85.6711 11.152 85.4151 10.704C85.1671 10.248 85.0431 9.708 85.0431 9.084C85.0431 8.476 85.1671 7.944 85.4151 7.488C85.6631 7.032 86.0031 6.676 86.4351 6.42C86.8671 6.164 87.3591 6.036 87.9111 6.036C88.3191 6.036 88.6831 6.104 89.0031 6.24C89.3231 6.368 89.5951 6.56 89.8191 6.816C90.0511 7.064 90.2231 7.368 90.3351 7.728C90.4551 8.088 90.5151 8.492 90.5151 8.94C90.5151 9.076 90.4751 9.18 90.3951 9.252C90.3151 9.316 90.1951 9.348 90.0351 9.348H86.0031V8.604H89.6991L89.4951 8.772C89.4951 8.372 89.4351 8.032 89.3151 7.752C89.2031 7.472 89.0311 7.26 88.7991 7.116C88.5751 6.964 88.2951 6.888 87.9591 6.888C87.5831 6.888 87.2631 6.976 86.9991 7.152C86.7431 7.328 86.5471 7.572 86.4111 7.884C86.2751 8.196 86.2071 8.56 86.2071 8.976V9.048C86.2071 9.752 86.3711 10.284 86.6991 10.644C87.0351 10.996 87.5191 11.172 88.1511 11.172C88.3911 11.172 88.6431 11.14 88.9071 11.076C89.1791 11.012 89.4351 10.904 89.6751 10.752C89.8111 10.672 89.9311 10.636 90.0351 10.644C90.1471 10.652 90.2351 10.688 90.2991 10.752C90.3711 10.816 90.4151 10.896 90.4311 10.992C90.4471 11.088 90.4311 11.188 90.3831 11.292C90.3351 11.388 90.2511 11.476 90.1311 11.556C89.8591 11.74 89.5431 11.88 89.1831 11.976C88.8231 12.064 88.4751 12.108 88.1391 12.108Z" fill="#64728C"/>
</svg>
