<svg width="77" height="34" viewBox="0 0 77 34" fill="none" xmlns="http://www.w3.org/2000/svg">
<rect x="0.5" y="0.5" width="76" height="33" rx="16.5" fill="#FF7B1D"/>
<rect x="0.5" y="0.5" width="76" height="33" rx="16.5" stroke="url(#paint0_linear_482_419)"/>
<path d="M18.608 21.084C18.408 21.084 18.252 21.028 18.14 20.916C18.036 20.804 17.984 20.648 17.984 20.448V13.176C17.984 12.968 18.04 12.812 18.152 12.708C18.264 12.596 18.42 12.54 18.62 12.54H21.488C22.4 12.54 23.104 12.768 23.6 13.224C24.096 13.672 24.344 14.304 24.344 15.12C24.344 15.944 24.096 16.584 23.6 17.04C23.104 17.488 22.4 17.712 21.488 17.712H19.232V20.448C19.232 20.648 19.18 20.804 19.076 20.916C18.972 21.028 18.816 21.084 18.608 21.084ZM19.232 16.716H21.308C21.908 16.716 22.36 16.584 22.664 16.32C22.976 16.048 23.132 15.648 23.132 15.12C23.132 14.6 22.976 14.208 22.664 13.944C22.36 13.672 21.908 13.536 21.308 13.536H19.232V16.716ZM26.046 21.084C25.846 21.084 25.694 21.032 25.59 20.928C25.486 20.816 25.434 20.664 25.434 20.472V15.672C25.434 15.472 25.486 15.32 25.59 15.216C25.694 15.112 25.838 15.06 26.022 15.06C26.214 15.06 26.358 15.112 26.454 15.216C26.558 15.32 26.61 15.472 26.61 15.672V16.548H26.49C26.618 16.068 26.854 15.704 27.198 15.456C27.542 15.208 27.982 15.064 28.518 15.024C28.662 15.016 28.774 15.052 28.854 15.132C28.942 15.212 28.99 15.336 28.998 15.504C29.014 15.672 28.978 15.808 28.89 15.912C28.802 16.008 28.666 16.064 28.482 16.08L28.254 16.104C27.734 16.152 27.338 16.316 27.066 16.596C26.794 16.876 26.658 17.26 26.658 17.748V20.472C26.658 20.664 26.606 20.816 26.502 20.928C26.406 21.032 26.254 21.084 26.046 21.084ZM30.5106 21.072C30.3186 21.072 30.1706 21.016 30.0666 20.904C29.9626 20.784 29.9106 20.62 29.9106 20.412V15.732C29.9106 15.524 29.9626 15.364 30.0666 15.252C30.1706 15.14 30.3186 15.084 30.5106 15.084C30.7026 15.084 30.8506 15.14 30.9546 15.252C31.0666 15.364 31.1226 15.524 31.1226 15.732V20.412C31.1226 20.62 31.0706 20.784 30.9666 20.904C30.8626 21.016 30.7106 21.072 30.5106 21.072ZM30.5106 13.836C30.2706 13.836 30.0826 13.776 29.9466 13.656C29.8186 13.536 29.7546 13.368 29.7546 13.152C29.7546 12.928 29.8186 12.76 29.9466 12.648C30.0826 12.528 30.2706 12.468 30.5106 12.468C30.7506 12.468 30.9346 12.528 31.0626 12.648C31.1986 12.76 31.2666 12.928 31.2666 13.152C31.2666 13.368 31.1986 13.536 31.0626 13.656C30.9346 13.776 30.7506 13.836 30.5106 13.836ZM33.4526 21.084C33.2606 21.084 33.1126 21.032 33.0086 20.928C32.9046 20.816 32.8526 20.664 32.8526 20.472V15.672C32.8526 15.472 32.9046 15.32 33.0086 15.216C33.1126 15.112 33.2566 15.06 33.4406 15.06C33.6326 15.06 33.7766 15.112 33.8726 15.216C33.9766 15.32 34.0286 15.472 34.0286 15.672V16.656L33.8966 16.392C34.0566 15.968 34.3046 15.636 34.6406 15.396C34.9766 15.156 35.3806 15.036 35.8526 15.036C36.3406 15.036 36.7366 15.152 37.0406 15.384C37.3446 15.616 37.5526 15.972 37.6646 16.452H37.4966C37.6486 16.012 37.9086 15.668 38.2766 15.42C38.6446 15.164 39.0726 15.036 39.5606 15.036C40.0086 15.036 40.3766 15.124 40.6646 15.3C40.9526 15.468 41.1686 15.728 41.3126 16.08C41.4566 16.424 41.5286 16.86 41.5286 17.388V20.472C41.5286 20.664 41.4726 20.816 41.3606 20.928C41.2566 21.032 41.1086 21.084 40.9166 21.084C40.7246 21.084 40.5766 21.032 40.4726 20.928C40.3686 20.816 40.3166 20.664 40.3166 20.472V17.448C40.3166 16.952 40.2286 16.588 40.0526 16.356C39.8846 16.124 39.6046 16.008 39.2126 16.008C38.7726 16.008 38.4246 16.16 38.1686 16.464C37.9126 16.768 37.7846 17.188 37.7846 17.724V20.472C37.7846 20.664 37.7326 20.816 37.6286 20.928C37.5246 21.032 37.3766 21.084 37.1846 21.084C36.9926 21.084 36.8406 21.032 36.7286 20.928C36.6246 20.816 36.5726 20.664 36.5726 20.472V17.448C36.5726 16.952 36.4886 16.588 36.3206 16.356C36.1526 16.124 35.8726 16.008 35.4806 16.008C35.0406 16.008 34.6926 16.16 34.4366 16.464C34.1886 16.768 34.0646 17.188 34.0646 17.724V20.472C34.0646 20.88 33.8606 21.084 33.4526 21.084ZM45.0951 21.108C44.6871 21.108 44.3191 21.028 43.9911 20.868C43.6711 20.708 43.4191 20.492 43.2351 20.22C43.0511 19.948 42.9591 19.64 42.9591 19.296C42.9591 18.864 43.0671 18.524 43.2831 18.276C43.5071 18.02 43.8711 17.84 44.3751 17.736C44.8871 17.624 45.5751 17.568 46.4391 17.568H47.0031V18.312H46.4511C45.8751 18.312 45.4191 18.34 45.0831 18.396C44.7471 18.452 44.5071 18.548 44.3631 18.684C44.2271 18.812 44.1591 18.992 44.1591 19.224C44.1591 19.528 44.2631 19.776 44.4711 19.968C44.6791 20.152 44.9671 20.244 45.3351 20.244C45.6311 20.244 45.8911 20.176 46.1151 20.04C46.3391 19.896 46.5151 19.704 46.6431 19.464C46.7791 19.224 46.8471 18.948 46.8471 18.636V17.256C46.8471 16.8 46.7511 16.472 46.5591 16.272C46.3671 16.072 46.0511 15.972 45.6111 15.972C45.3551 15.972 45.0871 16.004 44.8071 16.068C44.5351 16.132 44.2511 16.24 43.9551 16.392C43.8191 16.456 43.7031 16.476 43.6071 16.452C43.5111 16.428 43.4351 16.376 43.3791 16.296C43.3231 16.208 43.2911 16.116 43.2831 16.02C43.2831 15.916 43.3071 15.816 43.3551 15.72C43.4111 15.624 43.5031 15.552 43.6311 15.504C43.9831 15.336 44.3311 15.216 44.6751 15.144C45.0191 15.072 45.3431 15.036 45.6471 15.036C46.1831 15.036 46.6231 15.12 46.9671 15.288C47.3191 15.456 47.5791 15.712 47.7471 16.056C47.9151 16.4 47.9991 16.844 47.9991 17.388V20.472C47.9991 20.664 47.9511 20.816 47.8551 20.928C47.7591 21.032 47.6191 21.084 47.4351 21.084C47.2591 21.084 47.1191 21.032 47.0151 20.928C46.9111 20.816 46.8591 20.664 46.8591 20.472V19.692H46.9671C46.9031 19.988 46.7831 20.244 46.6071 20.46C46.4391 20.668 46.2271 20.828 45.9711 20.94C45.7151 21.052 45.4231 21.108 45.0951 21.108ZM50.2804 21.084C50.0804 21.084 49.9284 21.032 49.8244 20.928C49.7204 20.816 49.6684 20.664 49.6684 20.472V15.672C49.6684 15.472 49.7204 15.32 49.8244 15.216C49.9284 15.112 50.0724 15.06 50.2564 15.06C50.4484 15.06 50.5924 15.112 50.6884 15.216C50.7924 15.32 50.8444 15.472 50.8444 15.672V16.548H50.7244C50.8524 16.068 51.0884 15.704 51.4324 15.456C51.7764 15.208 52.2164 15.064 52.7524 15.024C52.8964 15.016 53.0084 15.052 53.0884 15.132C53.1764 15.212 53.2244 15.336 53.2324 15.504C53.2484 15.672 53.2124 15.808 53.1244 15.912C53.0364 16.008 52.9004 16.064 52.7164 16.08L52.4884 16.104C51.9684 16.152 51.5724 16.316 51.3004 16.596C51.0284 16.876 50.8924 17.26 50.8924 17.748V20.472C50.8924 20.664 50.8404 20.816 50.7364 20.928C50.6404 21.032 50.4884 21.084 50.2804 21.084ZM55.8883 23.244C55.7443 23.244 55.6243 23.204 55.5283 23.124C55.4403 23.052 55.3883 22.952 55.3723 22.824C55.3643 22.704 55.3883 22.572 55.4443 22.428L56.2603 20.592V21.108L54.0163 15.888C53.9603 15.744 53.9403 15.608 53.9563 15.48C53.9723 15.352 54.0323 15.252 54.1363 15.18C54.2403 15.1 54.3803 15.06 54.5563 15.06C54.7083 15.06 54.8283 15.096 54.9163 15.168C55.0043 15.24 55.0843 15.364 55.1562 15.54L56.9683 20.016H56.6323L58.4683 15.54C58.5403 15.356 58.6243 15.232 58.7203 15.168C58.8163 15.096 58.9483 15.06 59.1163 15.06C59.2603 15.06 59.3723 15.1 59.4523 15.18C59.5403 15.252 59.5923 15.352 59.6083 15.48C59.6323 15.6 59.6123 15.732 59.5483 15.876L56.5483 22.776C56.4683 22.96 56.3763 23.084 56.2723 23.148C56.1763 23.212 56.0483 23.244 55.8883 23.244Z" fill="white"/>
<defs>
<linearGradient id="paint0_linear_482_419" x1="44.6422" y1="1" x2="44.6422" y2="33" gradientUnits="userSpaceOnUse">
<stop stop-color="#FF7B1D" stop-opacity="0.75"/>
<stop offset="1" stop-color="#EB711A"/>
</linearGradient>
</defs>
</svg>
