<svg width="65" height="34" viewBox="0 0 65 34" fill="none" xmlns="http://www.w3.org/2000/svg">
<rect x="1" y="1" width="63" height="32" rx="16" fill="#64728C" fill-opacity="0.15"/>
<rect x="0.5" y="0.5" width="64" height="33" rx="16.5" stroke="url(#paint0_linear_478_110)" stroke-opacity="0.15"/>
<path d="M21.776 21.108C20.92 21.108 20.188 20.932 19.58 20.58C18.972 20.228 18.504 19.728 18.176 19.08C17.856 18.424 17.696 17.652 17.696 16.764C17.696 16.1 17.788 15.504 17.972 14.976C18.156 14.44 18.42 13.984 18.764 13.608C19.116 13.224 19.544 12.932 20.048 12.732C20.56 12.532 21.136 12.432 21.776 12.432C22.248 12.432 22.7 12.496 23.132 12.624C23.572 12.752 23.952 12.936 24.272 13.176C24.408 13.264 24.496 13.372 24.536 13.5C24.584 13.62 24.592 13.736 24.56 13.848C24.536 13.96 24.484 14.056 24.404 14.136C24.324 14.208 24.22 14.248 24.092 14.256C23.972 14.264 23.84 14.22 23.696 14.124C23.432 13.924 23.14 13.776 22.82 13.68C22.5 13.584 22.164 13.536 21.812 13.536C21.204 13.536 20.692 13.664 20.276 13.92C19.86 14.168 19.544 14.532 19.328 15.012C19.112 15.492 19.004 16.076 19.004 16.764C19.004 17.452 19.112 18.04 19.328 18.528C19.544 19.008 19.86 19.376 20.276 19.632C20.692 19.88 21.204 20.004 21.812 20.004C22.164 20.004 22.5 19.956 22.82 19.86C23.148 19.756 23.456 19.604 23.744 19.404C23.888 19.316 24.016 19.276 24.128 19.284C24.248 19.292 24.348 19.332 24.428 19.404C24.508 19.476 24.56 19.568 24.584 19.68C24.616 19.784 24.612 19.896 24.572 20.016C24.54 20.128 24.464 20.224 24.344 20.304C24.016 20.568 23.628 20.768 23.18 20.904C22.732 21.04 22.264 21.108 21.776 21.108ZM27.8454 21.108C27.2214 21.108 26.7494 20.928 26.4294 20.568C26.1174 20.2 25.9614 19.672 25.9614 18.984V13.068C25.9614 12.868 26.0134 12.716 26.1174 12.612C26.2214 12.508 26.3694 12.456 26.5614 12.456C26.7534 12.456 26.9014 12.508 27.0054 12.612C27.1174 12.716 27.1734 12.868 27.1734 13.068V18.912C27.1734 19.312 27.2534 19.612 27.4134 19.812C27.5814 20.004 27.8214 20.1 28.1334 20.1C28.2054 20.1 28.2694 20.1 28.3254 20.1C28.3814 20.092 28.4374 20.084 28.4934 20.076C28.5894 20.068 28.6574 20.096 28.6974 20.16C28.7374 20.216 28.7574 20.336 28.7574 20.52C28.7574 20.688 28.7214 20.82 28.6494 20.916C28.5774 21.004 28.4614 21.06 28.3014 21.084C28.2294 21.092 28.1534 21.096 28.0734 21.096C27.9934 21.104 27.9174 21.108 27.8454 21.108ZM32.1148 21.108C31.5228 21.108 31.0108 20.984 30.5788 20.736C30.1548 20.488 29.8228 20.136 29.5828 19.68C29.3428 19.224 29.2228 18.688 29.2228 18.072C29.2228 17.6 29.2908 17.18 29.4268 16.812C29.5628 16.444 29.7548 16.128 30.0028 15.864C30.2588 15.592 30.5628 15.388 30.9148 15.252C31.2748 15.108 31.6748 15.036 32.1148 15.036C32.6988 15.036 33.2028 15.16 33.6268 15.408C34.0588 15.656 34.3948 16.008 34.6348 16.464C34.8748 16.912 34.9948 17.448 34.9948 18.072C34.9948 18.536 34.9268 18.956 34.7908 19.332C34.6548 19.708 34.4588 20.028 34.2028 20.292C33.9548 20.556 33.6508 20.76 33.2908 20.904C32.9388 21.04 32.5468 21.108 32.1148 21.108ZM32.1148 20.172C32.4428 20.172 32.7308 20.092 32.9788 19.932C33.2268 19.772 33.4188 19.536 33.5548 19.224C33.6988 18.912 33.7708 18.528 33.7708 18.072C33.7708 17.384 33.6188 16.864 33.3148 16.512C33.0108 16.16 32.6108 15.984 32.1148 15.984C31.7788 15.984 31.4868 16.064 31.2388 16.224C30.9908 16.376 30.7948 16.608 30.6508 16.92C30.5148 17.232 30.4468 17.616 30.4468 18.072C30.4468 18.752 30.5988 19.272 30.9028 19.632C31.2068 19.992 31.6108 20.172 32.1148 20.172ZM38.4079 21.108C38.0559 21.108 37.6919 21.068 37.3159 20.988C36.9479 20.908 36.6079 20.772 36.2959 20.58C36.1919 20.508 36.1199 20.428 36.0799 20.34C36.0399 20.252 36.0239 20.164 36.0319 20.076C36.0479 19.98 36.0839 19.9 36.1399 19.836C36.2039 19.764 36.2799 19.72 36.3679 19.704C36.4639 19.688 36.5639 19.708 36.6679 19.764C36.9799 19.94 37.2799 20.064 37.5679 20.136C37.8559 20.2 38.1399 20.232 38.4199 20.232C38.8439 20.232 39.1639 20.156 39.3799 20.004C39.5959 19.852 39.7039 19.648 39.7039 19.392C39.7039 19.184 39.6319 19.024 39.4879 18.912C39.3439 18.792 39.1279 18.7 38.8399 18.636L37.6999 18.408C37.2039 18.304 36.8279 18.12 36.5719 17.856C36.3159 17.592 36.1879 17.256 36.1879 16.848C36.1879 16.48 36.2879 16.16 36.4879 15.888C36.6879 15.616 36.9679 15.408 37.3279 15.264C37.6879 15.112 38.1039 15.036 38.5759 15.036C38.9279 15.036 39.2599 15.08 39.5719 15.168C39.8839 15.256 40.1719 15.388 40.4359 15.564C40.5399 15.62 40.6079 15.696 40.6399 15.792C40.6719 15.88 40.6759 15.968 40.6519 16.056C40.6359 16.144 40.5959 16.224 40.5319 16.296C40.4679 16.36 40.3879 16.4 40.2919 16.416C40.2039 16.424 40.1039 16.4 39.9919 16.344C39.7519 16.192 39.5119 16.084 39.2719 16.02C39.0399 15.956 38.8079 15.924 38.5759 15.924C38.1519 15.924 37.8319 16.004 37.6159 16.164C37.4079 16.316 37.3039 16.524 37.3039 16.788C37.3039 16.988 37.3679 17.152 37.4959 17.28C37.6239 17.408 37.8239 17.5 38.0959 17.556L39.2359 17.784C39.7559 17.888 40.1479 18.064 40.4119 18.312C40.6839 18.56 40.8199 18.896 40.8199 19.32C40.8199 19.872 40.5999 20.308 40.1599 20.628C39.7199 20.948 39.1359 21.108 38.4079 21.108ZM44.9164 21.108C44.2764 21.108 43.7244 20.988 43.2604 20.748C42.8044 20.5 42.4484 20.152 42.1924 19.704C41.9444 19.248 41.8204 18.708 41.8204 18.084C41.8204 17.476 41.9444 16.944 42.1924 16.488C42.4404 16.032 42.7804 15.676 43.2124 15.42C43.6444 15.164 44.1364 15.036 44.6884 15.036C45.0964 15.036 45.4604 15.104 45.7804 15.24C46.1004 15.368 46.3724 15.56 46.5964 15.816C46.8284 16.064 47.0004 16.368 47.1124 16.728C47.2324 17.088 47.2924 17.492 47.2924 17.94C47.2924 18.076 47.2524 18.18 47.1724 18.252C47.0924 18.316 46.9724 18.348 46.8124 18.348H42.7804V17.604H46.4764L46.2724 17.772C46.2724 17.372 46.2124 17.032 46.0924 16.752C45.9804 16.472 45.8084 16.26 45.5764 16.116C45.3524 15.964 45.0724 15.888 44.7364 15.888C44.3604 15.888 44.0404 15.976 43.7764 16.152C43.5204 16.328 43.3244 16.572 43.1884 16.884C43.0524 17.196 42.9844 17.56 42.9844 17.976V18.048C42.9844 18.752 43.1484 19.284 43.4764 19.644C43.8124 19.996 44.2964 20.172 44.9284 20.172C45.1684 20.172 45.4204 20.14 45.6844 20.076C45.9564 20.012 46.2124 19.904 46.4524 19.752C46.5884 19.672 46.7084 19.636 46.8124 19.644C46.9244 19.652 47.0124 19.688 47.0764 19.752C47.1484 19.816 47.1924 19.896 47.2084 19.992C47.2244 20.088 47.2084 20.188 47.1604 20.292C47.1124 20.388 47.0284 20.476 46.9084 20.556C46.6364 20.74 46.3204 20.88 45.9604 20.976C45.6004 21.064 45.2524 21.108 44.9164 21.108Z" fill="#64728C"/>
<defs>
<linearGradient id="paint0_linear_478_110" x1="37.6595" y1="1" x2="37.6595" y2="33" gradientUnits="userSpaceOnUse">
<stop stop-color="#64728C" stop-opacity="0.75"/>
<stop offset="1" stop-color="#546076"/>
</linearGradient>
</defs>
</svg>
