<svg width="92" height="34" viewBox="0 0 92 34" fill="none" xmlns="http://www.w3.org/2000/svg">
<rect x="1" y="1" width="90" height="32" rx="16" fill="#76BC21" fill-opacity="0.15"/>
<rect x="0.5" y="0.5" width="91" height="33" rx="16.5" stroke="url(#paint0_linear_478_106)" stroke-opacity="0.15"/>
<path d="M20.804 21.108C20.436 21.108 20.076 21.08 19.724 21.024C19.372 20.968 19.04 20.884 18.728 20.772C18.416 20.652 18.136 20.508 17.888 20.34C17.768 20.252 17.684 20.152 17.636 20.04C17.596 19.928 17.584 19.82 17.6 19.716C17.624 19.604 17.672 19.508 17.744 19.428C17.816 19.348 17.904 19.3 18.008 19.284C18.112 19.26 18.228 19.292 18.356 19.38C18.716 19.612 19.096 19.784 19.496 19.896C19.896 20 20.332 20.052 20.804 20.052C21.484 20.052 21.984 19.932 22.304 19.692C22.632 19.444 22.796 19.124 22.796 18.732C22.796 18.412 22.68 18.16 22.448 17.976C22.216 17.784 21.828 17.632 21.284 17.52L20 17.256C19.24 17.096 18.672 16.832 18.296 16.464C17.928 16.096 17.744 15.6 17.744 14.976C17.744 14.6 17.82 14.256 17.972 13.944C18.132 13.632 18.352 13.364 18.632 13.14C18.912 12.908 19.248 12.732 19.64 12.612C20.032 12.492 20.46 12.432 20.924 12.432C21.42 12.432 21.884 12.496 22.316 12.624C22.756 12.752 23.148 12.948 23.492 13.212C23.596 13.284 23.664 13.376 23.696 13.488C23.736 13.592 23.744 13.696 23.72 13.8C23.704 13.904 23.66 13.992 23.588 14.064C23.516 14.136 23.424 14.18 23.312 14.196C23.2 14.204 23.076 14.164 22.94 14.076C22.628 13.868 22.308 13.72 21.98 13.632C21.66 13.536 21.304 13.488 20.912 13.488C20.52 13.488 20.176 13.548 19.88 13.668C19.592 13.788 19.368 13.956 19.208 14.172C19.056 14.388 18.98 14.644 18.98 14.94C18.98 15.276 19.088 15.544 19.304 15.744C19.52 15.944 19.88 16.096 20.384 16.2L21.656 16.464C22.456 16.632 23.052 16.892 23.444 17.244C23.836 17.596 24.032 18.064 24.032 18.648C24.032 19.024 23.956 19.364 23.804 19.668C23.652 19.964 23.436 20.22 23.156 20.436C22.876 20.652 22.536 20.82 22.136 20.94C21.744 21.052 21.3 21.108 20.804 21.108ZM27.1888 21.108C26.7808 21.108 26.4128 21.028 26.0848 20.868C25.7648 20.708 25.5128 20.492 25.3288 20.22C25.1448 19.948 25.0528 19.64 25.0528 19.296C25.0528 18.864 25.1608 18.524 25.3768 18.276C25.6008 18.02 25.9648 17.84 26.4688 17.736C26.9808 17.624 27.6688 17.568 28.5328 17.568H29.0968V18.312H28.5448C27.9688 18.312 27.5128 18.34 27.1768 18.396C26.8408 18.452 26.6008 18.548 26.4568 18.684C26.3208 18.812 26.2528 18.992 26.2528 19.224C26.2528 19.528 26.3568 19.776 26.5648 19.968C26.7728 20.152 27.0608 20.244 27.4288 20.244C27.7248 20.244 27.9848 20.176 28.2088 20.04C28.4328 19.896 28.6088 19.704 28.7368 19.464C28.8728 19.224 28.9408 18.948 28.9408 18.636V17.256C28.9408 16.8 28.8448 16.472 28.6528 16.272C28.4608 16.072 28.1448 15.972 27.7048 15.972C27.4488 15.972 27.1808 16.004 26.9008 16.068C26.6288 16.132 26.3448 16.24 26.0488 16.392C25.9128 16.456 25.7968 16.476 25.7008 16.452C25.6048 16.428 25.5288 16.376 25.4728 16.296C25.4168 16.208 25.3848 16.116 25.3768 16.02C25.3768 15.916 25.4008 15.816 25.4488 15.72C25.5048 15.624 25.5968 15.552 25.7248 15.504C26.0768 15.336 26.4248 15.216 26.7688 15.144C27.1128 15.072 27.4368 15.036 27.7408 15.036C28.2768 15.036 28.7168 15.12 29.0608 15.288C29.4128 15.456 29.6728 15.712 29.8408 16.056C30.0088 16.4 30.0928 16.844 30.0928 17.388V20.472C30.0928 20.664 30.0448 20.816 29.9488 20.928C29.8528 21.032 29.7128 21.084 29.5288 21.084C29.3528 21.084 29.2128 21.032 29.1088 20.928C29.0048 20.816 28.9528 20.664 28.9528 20.472V19.692H29.0608C28.9968 19.988 28.8768 20.244 28.7008 20.46C28.5328 20.668 28.3208 20.828 28.0648 20.94C27.8088 21.052 27.5168 21.108 27.1888 21.108ZM33.9716 21.084C33.8036 21.084 33.6556 21.04 33.5276 20.952C33.4076 20.864 33.3076 20.728 33.2276 20.544L31.2236 15.888C31.1596 15.744 31.1356 15.608 31.1516 15.48C31.1676 15.352 31.2276 15.252 31.3316 15.18C31.4356 15.1 31.5756 15.06 31.7516 15.06C31.9036 15.06 32.0236 15.096 32.1116 15.168C32.1996 15.24 32.2796 15.364 32.3516 15.54L34.1636 20.004H33.8276L35.6756 15.54C35.7476 15.364 35.8276 15.24 35.9156 15.168C36.0116 15.096 36.1436 15.06 36.3116 15.06C36.4556 15.06 36.5676 15.1 36.6476 15.18C36.7356 15.252 36.7876 15.352 36.8036 15.48C36.8276 15.6 36.8076 15.732 36.7436 15.876L34.7156 20.544C34.6436 20.728 34.5436 20.864 34.4156 20.952C34.2876 21.04 34.1396 21.084 33.9716 21.084ZM40.5805 21.108C39.9405 21.108 39.3885 20.988 38.9245 20.748C38.4685 20.5 38.1125 20.152 37.8565 19.704C37.6085 19.248 37.4845 18.708 37.4845 18.084C37.4845 17.476 37.6085 16.944 37.8565 16.488C38.1045 16.032 38.4445 15.676 38.8765 15.42C39.3085 15.164 39.8005 15.036 40.3525 15.036C40.7605 15.036 41.1245 15.104 41.4445 15.24C41.7645 15.368 42.0365 15.56 42.2605 15.816C42.4925 16.064 42.6645 16.368 42.7765 16.728C42.8965 17.088 42.9565 17.492 42.9565 17.94C42.9565 18.076 42.9165 18.18 42.8365 18.252C42.7565 18.316 42.6365 18.348 42.4765 18.348H38.4445V17.604H42.1405L41.9365 17.772C41.9365 17.372 41.8765 17.032 41.7565 16.752C41.6445 16.472 41.4725 16.26 41.2405 16.116C41.0165 15.964 40.7365 15.888 40.4005 15.888C40.0245 15.888 39.7045 15.976 39.4405 16.152C39.1845 16.328 38.9885 16.572 38.8525 16.884C38.7165 17.196 38.6485 17.56 38.6485 17.976V18.048C38.6485 18.752 38.8125 19.284 39.1405 19.644C39.4765 19.996 39.9605 20.172 40.5925 20.172C40.8325 20.172 41.0845 20.14 41.3485 20.076C41.6205 20.012 41.8765 19.904 42.1165 19.752C42.2525 19.672 42.3725 19.636 42.4765 19.644C42.5885 19.652 42.6765 19.688 42.7405 19.752C42.8125 19.816 42.8565 19.896 42.8725 19.992C42.8885 20.088 42.8725 20.188 42.8245 20.292C42.7765 20.388 42.6925 20.476 42.5725 20.556C42.3005 20.74 41.9845 20.88 41.6245 20.976C41.2645 21.064 40.9165 21.108 40.5805 21.108ZM48.2338 21.084C48.0258 21.084 47.8618 21.028 47.7418 20.916C47.6298 20.804 47.5738 20.64 47.5738 20.424V13.212C47.5738 12.996 47.6298 12.832 47.7418 12.72C47.8618 12.6 48.0298 12.54 48.2458 12.54H52.5178C52.6938 12.54 52.8218 12.584 52.9018 12.672C52.9898 12.752 53.0338 12.872 53.0338 13.032C53.0338 13.2 52.9898 13.328 52.9018 13.416C52.8218 13.504 52.6938 13.548 52.5178 13.548H48.8218V16.248H52.2778C52.4378 16.248 52.5618 16.292 52.6498 16.38C52.7458 16.46 52.7938 16.58 52.7938 16.74C52.7938 16.908 52.7458 17.036 52.6498 17.124C52.5618 17.212 52.4378 17.256 52.2778 17.256H48.8218V20.424C48.8218 20.864 48.6258 21.084 48.2338 21.084ZM56.4077 21.108C55.8157 21.108 55.3037 20.984 54.8717 20.736C54.4477 20.488 54.1157 20.136 53.8757 19.68C53.6357 19.224 53.5157 18.688 53.5157 18.072C53.5157 17.6 53.5837 17.18 53.7197 16.812C53.8557 16.444 54.0477 16.128 54.2957 15.864C54.5517 15.592 54.8557 15.388 55.2077 15.252C55.5677 15.108 55.9677 15.036 56.4077 15.036C56.9917 15.036 57.4957 15.16 57.9197 15.408C58.3517 15.656 58.6877 16.008 58.9277 16.464C59.1677 16.912 59.2877 17.448 59.2877 18.072C59.2877 18.536 59.2197 18.956 59.0837 19.332C58.9477 19.708 58.7517 20.028 58.4957 20.292C58.2477 20.556 57.9437 20.76 57.5837 20.904C57.2317 21.04 56.8397 21.108 56.4077 21.108ZM56.4077 20.172C56.7357 20.172 57.0237 20.092 57.2717 19.932C57.5197 19.772 57.7117 19.536 57.8477 19.224C57.9917 18.912 58.0637 18.528 58.0637 18.072C58.0637 17.384 57.9117 16.864 57.6077 16.512C57.3037 16.16 56.9037 15.984 56.4077 15.984C56.0717 15.984 55.7797 16.064 55.5317 16.224C55.2837 16.376 55.0877 16.608 54.9437 16.92C54.8077 17.232 54.7397 17.616 54.7397 18.072C54.7397 18.752 54.8917 19.272 55.1957 19.632C55.4997 19.992 55.9037 20.172 56.4077 20.172ZM61.2609 21.084C61.0609 21.084 60.9089 21.032 60.8049 20.928C60.7009 20.816 60.6489 20.664 60.6489 20.472V15.672C60.6489 15.472 60.7009 15.32 60.8049 15.216C60.9089 15.112 61.0529 15.06 61.2369 15.06C61.4289 15.06 61.5729 15.112 61.6689 15.216C61.7729 15.32 61.8249 15.472 61.8249 15.672V16.548H61.7049C61.8329 16.068 62.0689 15.704 62.4129 15.456C62.7569 15.208 63.1969 15.064 63.7329 15.024C63.8769 15.016 63.9889 15.052 64.0689 15.132C64.1569 15.212 64.2049 15.336 64.2129 15.504C64.2289 15.672 64.1929 15.808 64.1049 15.912C64.0169 16.008 63.8809 16.064 63.6969 16.08L63.4689 16.104C62.9489 16.152 62.5529 16.316 62.2809 16.596C62.0089 16.876 61.8729 17.26 61.8729 17.748V20.472C61.8729 20.664 61.8209 20.816 61.7169 20.928C61.6209 21.032 61.4689 21.084 61.2609 21.084ZM65.7494 21.084C65.5574 21.084 65.4094 21.032 65.3054 20.928C65.2014 20.816 65.1494 20.664 65.1494 20.472V15.672C65.1494 15.472 65.2014 15.32 65.3054 15.216C65.4094 15.112 65.5534 15.06 65.7374 15.06C65.9294 15.06 66.0734 15.112 66.1694 15.216C66.2734 15.32 66.3254 15.472 66.3254 15.672V16.656L66.1934 16.392C66.3534 15.968 66.6014 15.636 66.9374 15.396C67.2734 15.156 67.6774 15.036 68.1494 15.036C68.6374 15.036 69.0334 15.152 69.3374 15.384C69.6414 15.616 69.8494 15.972 69.9614 16.452H69.7934C69.9454 16.012 70.2054 15.668 70.5734 15.42C70.9414 15.164 71.3694 15.036 71.8574 15.036C72.3054 15.036 72.6734 15.124 72.9614 15.3C73.2494 15.468 73.4654 15.728 73.6094 16.08C73.7534 16.424 73.8254 16.86 73.8254 17.388V20.472C73.8254 20.664 73.7694 20.816 73.6574 20.928C73.5534 21.032 73.4054 21.084 73.2134 21.084C73.0214 21.084 72.8734 21.032 72.7694 20.928C72.6654 20.816 72.6134 20.664 72.6134 20.472V17.448C72.6134 16.952 72.5254 16.588 72.3494 16.356C72.1814 16.124 71.9014 16.008 71.5094 16.008C71.0694 16.008 70.7214 16.16 70.4654 16.464C70.2094 16.768 70.0814 17.188 70.0814 17.724V20.472C70.0814 20.664 70.0294 20.816 69.9254 20.928C69.8214 21.032 69.6734 21.084 69.4814 21.084C69.2894 21.084 69.1374 21.032 69.0254 20.928C68.9214 20.816 68.8694 20.664 68.8694 20.472V17.448C68.8694 16.952 68.7854 16.588 68.6174 16.356C68.4494 16.124 68.1694 16.008 67.7774 16.008C67.3374 16.008 66.9894 16.16 66.7334 16.464C66.4854 16.768 66.3614 17.188 66.3614 17.724V20.472C66.3614 20.88 66.1574 21.084 65.7494 21.084Z" fill="#76BC21"/>
<defs>
<linearGradient id="paint0_linear_478_106" x1="53.3707" y1="1" x2="53.3707" y2="33" gradientUnits="userSpaceOnUse">
<stop stop-color="#76BC21" stop-opacity="0.75"/>
<stop offset="1" stop-color="#6EAF20"/>
</linearGradient>
</defs>
</svg>
