<svg width="32" height="32" viewBox="0 0 32 32" fill="none" xmlns="http://www.w3.org/2000/svg">
<rect x="1" y="1" width="30" height="30" rx="15" fill="#64728C" fill-opacity="0.15"/>
<rect x="0.5" y="0.5" width="31" height="31" rx="15.5" stroke="url(#paint0_linear_482_424)" stroke-opacity="0.15"/>
<path fill-rule="evenodd" clip-rule="evenodd" d="M15.8359 14.7826C17.3159 14.7826 18.5156 13.4881 18.5156 11.8913C18.5156 10.2945 17.3159 9 15.8359 9C14.356 9 13.1562 10.2945 13.1562 11.8913C13.1562 13.4881 14.356 14.7826 15.8359 14.7826ZM15.8359 13.6413C16.6776 13.6413 17.4219 12.8941 17.4219 11.8913C17.4219 10.8885 16.6776 10.1413 15.8359 10.1413C14.9942 10.1413 14.25 10.8885 14.25 11.8913C14.25 12.8941 14.9942 13.6413 15.8359 13.6413Z" fill="#64728C"/>
<path fill-rule="evenodd" clip-rule="evenodd" d="M23 19.2908C23 21.3393 21.4575 23 19.5547 23C17.6519 23 16.1094 21.3393 16.1094 19.2908C16.1094 17.2422 17.6519 15.5815 19.5547 15.5815C21.4575 15.5815 23 17.2422 23 19.2908ZM19.0625 19.4049C19.0625 19.1212 19.2829 18.8913 19.5547 18.8913C19.8265 18.8913 20.0469 19.1212 20.0469 19.4049V21.0788C20.0469 21.3624 19.8265 21.5924 19.5547 21.5924C19.2829 21.5924 19.0625 21.3624 19.0625 21.0788V19.4049ZM19.5547 18.4348C19.8265 18.4348 20.0469 18.1963 20.0469 17.9022C20.0469 17.608 19.8265 17.3696 19.5547 17.3696C19.2829 17.3696 19.0625 17.608 19.0625 17.9022C19.0625 18.1963 19.2829 18.4348 19.5547 18.4348Z" fill="#64728C"/>
<path d="M13.7233 16.6056C14.5717 16.5134 15.1638 16.4974 15.9277 16.6037C16.2271 16.6453 16.5022 16.4259 16.5421 16.1135C16.582 15.8011 16.3717 15.5141 16.0723 15.4724C15.1956 15.3504 14.5116 15.3725 13.61 15.4705C12.3339 15.6092 11.2131 15.9927 10.3945 16.5612C9.58131 17.1259 8.9999 17.928 9 18.8937L9.00004 19.3855C9.00011 20.3315 9.7352 21.0978 10.6414 21.0978H15.3437C15.6458 21.0978 15.8906 20.8423 15.8906 20.5272C15.8906 20.212 15.6458 19.9565 15.3437 19.9565H10.6414C10.3389 19.9565 10.0938 19.7007 10.0938 19.3854L10.0937 18.8935C10.0937 18.4501 10.3599 17.9561 11.0005 17.5113C11.6358 17.0701 12.575 16.7304 13.7233 16.6056Z" fill="#64728C"/>
<defs>
<linearGradient id="paint0_linear_482_424" x1="18.4569" y1="1" x2="18.4569" y2="31" gradientUnits="userSpaceOnUse">
<stop stop-color="#64728C" stop-opacity="0.75"/>
<stop offset="1" stop-color="#546076"/>
</linearGradient>
</defs>
</svg>
