<svg width="16" height="14" viewBox="0 0 16 14" fill="none" xmlns="http://www.w3.org/2000/svg">
<path fill-rule="evenodd" clip-rule="evenodd" d="M14.0082 10.0356L13.8646 9.93059C13.9144 9.96537 13.9622 10.0004 14.0082 10.0356ZM12.6676 3.38854C12.6676 5.25997 11.1857 6.77707 9.3577 6.77707C7.5297 6.77707 6.04781 5.25997 6.04781 3.38854C6.04781 1.5171 7.5297 0 9.3577 0C11.1857 0 12.6676 1.5171 12.6676 3.38854ZM2.7154 11.5701C2.7154 10.6034 4.15424 7.9363 9.39712 7.93631C14.64 7.93631 16 10.6561 16 11.5924V12.4395C16 13.3013 15.2943 14 14.4239 14H4.29154C3.42106 14 2.7154 13.3013 2.7154 12.4395V11.5701ZM0 1.19411C0 0.807511 0.313401 0.49411 0.7 0.49411H3.60287C3.98947 0.49411 4.30287 0.807511 4.30287 1.19411C4.30287 1.58071 3.98947 1.89411 3.60287 1.89411H0.7C0.313401 1.89411 0 1.58071 0 1.19411ZM0 3.6647C0 3.2781 0.313401 2.9647 0.7 2.9647H3.60287C3.98947 2.9647 4.30287 3.2781 4.30287 3.6647C4.30287 4.0513 3.98947 4.3647 3.60287 4.3647H0.7C0.313401 4.3647 0 4.0513 0 3.6647ZM0.7 5.27058C0.313401 5.27058 0 5.58398 0 5.97058C0 6.35718 0.313401 6.67058 0.7 6.67058H3.60287C3.98947 6.67058 4.30287 6.35718 4.30287 5.97058C4.30287 5.58398 3.98947 5.27058 3.60287 5.27058H0.7Z" fill="#64728C"/>
</svg>
