<svg width="104" height="34" viewBox="0 0 104 34" fill="none" xmlns="http://www.w3.org/2000/svg">
<rect x="0.5" y="0.5" width="103" height="33" rx="16.5" fill="#FE5000"/>
<rect x="0.5" y="0.5" width="103" height="33" rx="16.5" stroke="url(#paint0_linear_478_166)"/>
<path fill-rule="evenodd" clip-rule="evenodd" d="M25.7933 12.9299C25.7933 14.5481 24.6847 15.8599 23.3171 15.8599C21.9494 15.8599 20.8408 14.5481 20.8408 12.9299C20.8408 11.3118 21.9494 10 23.3171 10C24.6847 10 25.7933 11.3118 25.7933 12.9299ZM24.7826 12.9299C24.7826 13.9461 24.0949 14.7033 23.3171 14.7033C22.5393 14.7033 21.8515 13.9461 21.8515 12.9299C21.8515 11.9138 22.5393 11.1566 23.3171 11.1566C24.0949 11.1566 24.7826 11.9138 24.7826 12.9299Z" fill="white"/>
<path d="M21.3648 17.7072C22.1488 17.6138 22.6959 17.5976 23.4019 17.7053C23.6785 17.7475 23.9327 17.5251 23.9696 17.2085C24.0065 16.8919 23.8121 16.6011 23.5355 16.5589C22.7253 16.4353 22.0933 16.4576 21.2601 16.5569C20.0808 16.6975 19.0451 17.0862 18.2887 17.6622C17.5372 18.2345 16.9999 19.0473 17 20.0258L17 20.5243C17.0001 21.4829 17.6794 22.2595 18.5168 22.2595H22.8622C23.1413 22.2595 23.3676 22.0006 23.3676 21.6812C23.3676 21.3618 23.1413 21.1029 22.8622 21.1029H18.5168C18.2372 21.1029 18.0108 20.8437 18.0108 20.5242L18.0107 20.0257C18.0107 19.5763 18.2567 19.0758 18.8487 18.625C19.4358 18.1779 20.3036 17.8337 21.3648 17.7072Z" fill="white"/>
<path d="M23.15 19.4212L24.8798 20.9959L24.3418 23.3636C24.2361 23.8053 24.6899 24.1678 25.0589 23.9187L26.9894 22.6383L28.9197 23.9184C29.2785 24.1561 29.7319 23.8052 29.6369 23.3633L29.0989 20.9958L30.8289 19.421C31.1557 19.1266 30.987 18.5488 30.5546 18.5148L28.2866 18.3334L27.4323 16.0793C27.2741 15.6602 26.715 15.6602 26.5461 16.0793L25.6918 18.3335L23.4239 18.5149C22.9917 18.5604 22.8228 19.1267 23.15 19.4212Z" fill="white"/>
<path d="M40.944 21.108C40.024 21.108 39.248 20.936 38.616 20.592C37.984 20.24 37.504 19.74 37.176 19.092C36.856 18.444 36.696 17.672 36.696 16.776C36.696 16.104 36.788 15.504 36.972 14.976C37.164 14.44 37.436 13.984 37.788 13.608C38.148 13.224 38.584 12.932 39.096 12.732C39.616 12.532 40.204 12.432 40.86 12.432C41.34 12.432 41.812 12.496 42.276 12.624C42.74 12.744 43.164 12.944 43.548 13.224C43.66 13.304 43.732 13.396 43.764 13.5C43.796 13.604 43.796 13.712 43.764 13.824C43.74 13.928 43.688 14.02 43.608 14.1C43.536 14.18 43.444 14.228 43.332 14.244C43.228 14.26 43.112 14.228 42.984 14.148C42.672 13.932 42.344 13.776 42 13.68C41.656 13.576 41.276 13.524 40.86 13.524C40.236 13.524 39.708 13.652 39.276 13.908C38.852 14.164 38.532 14.536 38.316 15.024C38.1 15.504 37.992 16.088 37.992 16.776C37.992 17.84 38.244 18.648 38.748 19.2C39.252 19.752 40 20.028 40.992 20.028C41.352 20.028 41.704 19.996 42.048 19.932C42.4 19.86 42.736 19.76 43.056 19.632L42.804 20.256V17.46H41.256C41.096 17.46 40.968 17.42 40.872 17.34C40.784 17.252 40.74 17.132 40.74 16.98C40.74 16.828 40.784 16.716 40.872 16.644C40.968 16.564 41.096 16.524 41.256 16.524H43.332C43.5 16.524 43.628 16.568 43.716 16.656C43.804 16.744 43.848 16.872 43.848 17.04V20.064C43.848 20.208 43.82 20.332 43.764 20.436C43.716 20.532 43.632 20.604 43.512 20.652C43.168 20.788 42.764 20.9 42.3 20.988C41.836 21.068 41.384 21.108 40.944 21.108ZM48.3773 21.108C47.7373 21.108 47.1853 20.988 46.7213 20.748C46.2653 20.5 45.9093 20.152 45.6533 19.704C45.4053 19.248 45.2813 18.708 45.2813 18.084C45.2813 17.476 45.4053 16.944 45.6533 16.488C45.9013 16.032 46.2413 15.676 46.6733 15.42C47.1053 15.164 47.5973 15.036 48.1493 15.036C48.5573 15.036 48.9213 15.104 49.2413 15.24C49.5613 15.368 49.8333 15.56 50.0573 15.816C50.2893 16.064 50.4613 16.368 50.5733 16.728C50.6933 17.088 50.7533 17.492 50.7533 17.94C50.7533 18.076 50.7133 18.18 50.6333 18.252C50.5533 18.316 50.4333 18.348 50.2733 18.348H46.2413V17.604H49.9373L49.7333 17.772C49.7333 17.372 49.6733 17.032 49.5533 16.752C49.4413 16.472 49.2693 16.26 49.0373 16.116C48.8133 15.964 48.5333 15.888 48.1973 15.888C47.8213 15.888 47.5013 15.976 47.2373 16.152C46.9813 16.328 46.7853 16.572 46.6493 16.884C46.5133 17.196 46.4453 17.56 46.4453 17.976V18.048C46.4453 18.752 46.6093 19.284 46.9373 19.644C47.2733 19.996 47.7573 20.172 48.3893 20.172C48.6293 20.172 48.8813 20.14 49.1453 20.076C49.4173 20.012 49.6733 19.904 49.9133 19.752C50.0493 19.672 50.1693 19.636 50.2733 19.644C50.3853 19.652 50.4733 19.688 50.5373 19.752C50.6093 19.816 50.6533 19.896 50.6693 19.992C50.6853 20.088 50.6693 20.188 50.6213 20.292C50.5733 20.388 50.4893 20.476 50.3693 20.556C50.0973 20.74 49.7813 20.88 49.4213 20.976C49.0613 21.064 48.7133 21.108 48.3773 21.108ZM52.6747 21.084C52.4827 21.084 52.3347 21.032 52.2307 20.928C52.1267 20.816 52.0747 20.664 52.0747 20.472V15.672C52.0747 15.472 52.1267 15.32 52.2307 15.216C52.3347 15.112 52.4787 15.06 52.6627 15.06C52.8547 15.06 52.9987 15.112 53.0947 15.216C53.1987 15.32 53.2507 15.472 53.2507 15.672V16.608L53.1187 16.392C53.2947 15.944 53.5707 15.608 53.9467 15.384C54.3227 15.152 54.7547 15.036 55.2427 15.036C55.7067 15.036 56.0907 15.124 56.3947 15.3C56.7067 15.468 56.9387 15.728 57.0907 16.08C57.2427 16.424 57.3187 16.86 57.3187 17.388V20.472C57.3187 20.664 57.2667 20.816 57.1627 20.928C57.0587 21.032 56.9107 21.084 56.7187 21.084C56.5187 21.084 56.3667 21.032 56.2627 20.928C56.1587 20.816 56.1067 20.664 56.1067 20.472V17.46C56.1067 16.956 56.0067 16.588 55.8067 16.356C55.6147 16.124 55.3107 16.008 54.8947 16.008C54.4067 16.008 54.0147 16.16 53.7187 16.464C53.4307 16.768 53.2867 17.176 53.2867 17.688V20.472C53.2867 20.88 53.0827 21.084 52.6747 21.084ZM61.7367 21.108C61.0967 21.108 60.5447 20.988 60.0807 20.748C59.6247 20.5 59.2687 20.152 59.0127 19.704C58.7647 19.248 58.6407 18.708 58.6407 18.084C58.6407 17.476 58.7647 16.944 59.0127 16.488C59.2607 16.032 59.6007 15.676 60.0327 15.42C60.4647 15.164 60.9567 15.036 61.5087 15.036C61.9167 15.036 62.2807 15.104 62.6007 15.24C62.9207 15.368 63.1927 15.56 63.4167 15.816C63.6487 16.064 63.8207 16.368 63.9327 16.728C64.0527 17.088 64.1127 17.492 64.1127 17.94C64.1127 18.076 64.0727 18.18 63.9927 18.252C63.9127 18.316 63.7927 18.348 63.6327 18.348H59.6007V17.604H63.2967L63.0927 17.772C63.0927 17.372 63.0327 17.032 62.9127 16.752C62.8007 16.472 62.6287 16.26 62.3967 16.116C62.1727 15.964 61.8927 15.888 61.5567 15.888C61.1807 15.888 60.8607 15.976 60.5967 16.152C60.3407 16.328 60.1447 16.572 60.0087 16.884C59.8727 17.196 59.8047 17.56 59.8047 17.976V18.048C59.8047 18.752 59.9687 19.284 60.2967 19.644C60.6327 19.996 61.1167 20.172 61.7487 20.172C61.9887 20.172 62.2407 20.14 62.5047 20.076C62.7767 20.012 63.0327 19.904 63.2727 19.752C63.4087 19.672 63.5287 19.636 63.6327 19.644C63.7447 19.652 63.8327 19.688 63.8967 19.752C63.9687 19.816 64.0127 19.896 64.0287 19.992C64.0447 20.088 64.0287 20.188 63.9807 20.292C63.9327 20.388 63.8487 20.476 63.7287 20.556C63.4567 20.74 63.1407 20.88 62.7807 20.976C62.4207 21.064 62.0727 21.108 61.7367 21.108ZM66.046 21.084C65.846 21.084 65.694 21.032 65.59 20.928C65.486 20.816 65.434 20.664 65.434 20.472V15.672C65.434 15.472 65.486 15.32 65.59 15.216C65.694 15.112 65.838 15.06 66.022 15.06C66.214 15.06 66.358 15.112 66.454 15.216C66.558 15.32 66.61 15.472 66.61 15.672V16.548H66.49C66.618 16.068 66.854 15.704 67.198 15.456C67.542 15.208 67.982 15.064 68.518 15.024C68.662 15.016 68.774 15.052 68.854 15.132C68.942 15.212 68.99 15.336 68.998 15.504C69.014 15.672 68.978 15.808 68.89 15.912C68.802 16.008 68.666 16.064 68.482 16.08L68.254 16.104C67.734 16.152 67.338 16.316 67.066 16.596C66.794 16.876 66.658 17.26 66.658 17.748V20.472C66.658 20.664 66.606 20.816 66.502 20.928C66.406 21.032 66.254 21.084 66.046 21.084ZM71.724 21.108C71.316 21.108 70.948 21.028 70.62 20.868C70.3 20.708 70.048 20.492 69.864 20.22C69.68 19.948 69.588 19.64 69.588 19.296C69.588 18.864 69.696 18.524 69.912 18.276C70.136 18.02 70.5 17.84 71.004 17.736C71.516 17.624 72.204 17.568 73.068 17.568H73.632V18.312H73.08C72.504 18.312 72.048 18.34 71.712 18.396C71.376 18.452 71.136 18.548 70.992 18.684C70.856 18.812 70.788 18.992 70.788 19.224C70.788 19.528 70.892 19.776 71.1 19.968C71.308 20.152 71.596 20.244 71.964 20.244C72.26 20.244 72.52 20.176 72.744 20.04C72.968 19.896 73.144 19.704 73.272 19.464C73.408 19.224 73.476 18.948 73.476 18.636V17.256C73.476 16.8 73.38 16.472 73.188 16.272C72.996 16.072 72.68 15.972 72.24 15.972C71.984 15.972 71.716 16.004 71.436 16.068C71.164 16.132 70.88 16.24 70.584 16.392C70.448 16.456 70.332 16.476 70.236 16.452C70.14 16.428 70.064 16.376 70.008 16.296C69.952 16.208 69.92 16.116 69.912 16.02C69.912 15.916 69.936 15.816 69.984 15.72C70.04 15.624 70.132 15.552 70.26 15.504C70.612 15.336 70.96 15.216 71.304 15.144C71.648 15.072 71.972 15.036 72.276 15.036C72.812 15.036 73.252 15.12 73.596 15.288C73.948 15.456 74.208 15.712 74.376 16.056C74.544 16.4 74.628 16.844 74.628 17.388V20.472C74.628 20.664 74.58 20.816 74.484 20.928C74.388 21.032 74.248 21.084 74.064 21.084C73.888 21.084 73.748 21.032 73.644 20.928C73.54 20.816 73.488 20.664 73.488 20.472V19.692H73.596C73.532 19.988 73.412 20.244 73.236 20.46C73.068 20.668 72.856 20.828 72.6 20.94C72.344 21.052 72.052 21.108 71.724 21.108ZM78.7933 21.108C78.3133 21.108 77.9093 21.024 77.5813 20.856C77.2533 20.688 77.0093 20.44 76.8493 20.112C76.6893 19.784 76.6093 19.384 76.6093 18.912V16.08H75.8893C75.7293 16.08 75.6053 16.04 75.5173 15.96C75.4293 15.872 75.3853 15.756 75.3853 15.612C75.3853 15.46 75.4293 15.344 75.5173 15.264C75.6053 15.184 75.7293 15.144 75.8893 15.144H76.6093V13.908C76.6093 13.708 76.6613 13.556 76.7653 13.452C76.8773 13.348 77.0293 13.296 77.2213 13.296C77.4133 13.296 77.5613 13.348 77.6653 13.452C77.7693 13.556 77.8213 13.708 77.8213 13.908V15.144H79.2253C79.3853 15.144 79.5093 15.184 79.5973 15.264C79.6853 15.344 79.7293 15.46 79.7293 15.612C79.7293 15.756 79.6853 15.872 79.5973 15.96C79.5093 16.04 79.3853 16.08 79.2253 16.08H77.8213V18.816C77.8213 19.24 77.9093 19.56 78.0853 19.776C78.2693 19.992 78.5653 20.1 78.9733 20.1C79.1173 20.1 79.2413 20.088 79.3453 20.064C79.4573 20.032 79.5493 20.012 79.6213 20.004C79.7093 20.004 79.7813 20.036 79.8373 20.1C79.8933 20.156 79.9213 20.268 79.9213 20.436C79.9213 20.556 79.8973 20.668 79.8493 20.772C79.8093 20.876 79.7333 20.944 79.6213 20.976C79.5253 21.008 79.3933 21.036 79.2253 21.06C79.0653 21.092 78.9213 21.108 78.7933 21.108ZM83.3695 21.108C82.7295 21.108 82.1775 20.988 81.7135 20.748C81.2575 20.5 80.9015 20.152 80.6455 19.704C80.3975 19.248 80.2735 18.708 80.2735 18.084C80.2735 17.476 80.3975 16.944 80.6455 16.488C80.8935 16.032 81.2335 15.676 81.6655 15.42C82.0975 15.164 82.5895 15.036 83.1415 15.036C83.5495 15.036 83.9135 15.104 84.2335 15.24C84.5535 15.368 84.8255 15.56 85.0495 15.816C85.2815 16.064 85.4535 16.368 85.5655 16.728C85.6855 17.088 85.7455 17.492 85.7455 17.94C85.7455 18.076 85.7055 18.18 85.6255 18.252C85.5455 18.316 85.4255 18.348 85.2655 18.348H81.2335V17.604H84.9295L84.7255 17.772C84.7255 17.372 84.6655 17.032 84.5455 16.752C84.4335 16.472 84.2615 16.26 84.0295 16.116C83.8055 15.964 83.5255 15.888 83.1895 15.888C82.8135 15.888 82.4935 15.976 82.2295 16.152C81.9735 16.328 81.7775 16.572 81.6415 16.884C81.5055 17.196 81.4375 17.56 81.4375 17.976V18.048C81.4375 18.752 81.6015 19.284 81.9295 19.644C82.2655 19.996 82.7495 20.172 83.3815 20.172C83.6215 20.172 83.8735 20.14 84.1375 20.076C84.4095 20.012 84.6655 19.904 84.9055 19.752C85.0415 19.672 85.1615 19.636 85.2655 19.644C85.3775 19.652 85.4655 19.688 85.5295 19.752C85.6015 19.816 85.6455 19.896 85.6615 19.992C85.6775 20.088 85.6615 20.188 85.6135 20.292C85.5655 20.388 85.4815 20.476 85.3615 20.556C85.0895 20.74 84.7735 20.88 84.4135 20.976C84.0535 21.064 83.7055 21.108 83.3695 21.108Z" fill="white"/>
<defs>
<linearGradient id="paint0_linear_478_166" x1="60.3534" y1="1" x2="60.3534" y2="33" gradientUnits="userSpaceOnUse">
<stop stop-color="#FE5000" stop-opacity="0.74"/>
<stop offset="1" stop-color="#E74A02"/>
</linearGradient>
</defs>
</svg>
