<svg width="135" height="34" viewBox="0 0 135 34" fill="none" xmlns="http://www.w3.org/2000/svg">
<rect x="0.5" y="0.5" width="134" height="33" rx="16.5" fill="#FFAA00"/>
<rect x="0.5" y="0.5" width="134" height="33" rx="16.5" stroke="url(#paint0_linear_490_608)"/>
<path d="M20.804 21.108C20.436 21.108 20.076 21.08 19.724 21.024C19.372 20.968 19.04 20.884 18.728 20.772C18.416 20.652 18.136 20.508 17.888 20.34C17.768 20.252 17.684 20.152 17.636 20.04C17.596 19.928 17.584 19.82 17.6 19.716C17.624 19.604 17.672 19.508 17.744 19.428C17.816 19.348 17.904 19.3 18.008 19.284C18.112 19.26 18.228 19.292 18.356 19.38C18.716 19.612 19.096 19.784 19.496 19.896C19.896 20 20.332 20.052 20.804 20.052C21.484 20.052 21.984 19.932 22.304 19.692C22.632 19.444 22.796 19.124 22.796 18.732C22.796 18.412 22.68 18.16 22.448 17.976C22.216 17.784 21.828 17.632 21.284 17.52L20 17.256C19.24 17.096 18.672 16.832 18.296 16.464C17.928 16.096 17.744 15.6 17.744 14.976C17.744 14.6 17.82 14.256 17.972 13.944C18.132 13.632 18.352 13.364 18.632 13.14C18.912 12.908 19.248 12.732 19.64 12.612C20.032 12.492 20.46 12.432 20.924 12.432C21.42 12.432 21.884 12.496 22.316 12.624C22.756 12.752 23.148 12.948 23.492 13.212C23.596 13.284 23.664 13.376 23.696 13.488C23.736 13.592 23.744 13.696 23.72 13.8C23.704 13.904 23.66 13.992 23.588 14.064C23.516 14.136 23.424 14.18 23.312 14.196C23.2 14.204 23.076 14.164 22.94 14.076C22.628 13.868 22.308 13.72 21.98 13.632C21.66 13.536 21.304 13.488 20.912 13.488C20.52 13.488 20.176 13.548 19.88 13.668C19.592 13.788 19.368 13.956 19.208 14.172C19.056 14.388 18.98 14.644 18.98 14.94C18.98 15.276 19.088 15.544 19.304 15.744C19.52 15.944 19.88 16.096 20.384 16.2L21.656 16.464C22.456 16.632 23.052 16.892 23.444 17.244C23.836 17.596 24.032 18.064 24.032 18.648C24.032 19.024 23.956 19.364 23.804 19.668C23.652 19.964 23.436 20.22 23.156 20.436C22.876 20.652 22.536 20.82 22.136 20.94C21.744 21.052 21.3 21.108 20.804 21.108ZM28.0648 21.108C27.4248 21.108 26.8728 20.988 26.4088 20.748C25.9528 20.5 25.5968 20.152 25.3408 19.704C25.0928 19.248 24.9688 18.708 24.9688 18.084C24.9688 17.476 25.0928 16.944 25.3408 16.488C25.5888 16.032 25.9288 15.676 26.3608 15.42C26.7928 15.164 27.2848 15.036 27.8368 15.036C28.2448 15.036 28.6088 15.104 28.9288 15.24C29.2488 15.368 29.5208 15.56 29.7448 15.816C29.9768 16.064 30.1488 16.368 30.2608 16.728C30.3808 17.088 30.4408 17.492 30.4408 17.94C30.4408 18.076 30.4008 18.18 30.3208 18.252C30.2408 18.316 30.1208 18.348 29.9608 18.348H25.9288V17.604H29.6248L29.4208 17.772C29.4208 17.372 29.3608 17.032 29.2408 16.752C29.1288 16.472 28.9568 16.26 28.7248 16.116C28.5008 15.964 28.2208 15.888 27.8848 15.888C27.5088 15.888 27.1888 15.976 26.9248 16.152C26.6688 16.328 26.4728 16.572 26.3368 16.884C26.2008 17.196 26.1328 17.56 26.1328 17.976V18.048C26.1328 18.752 26.2968 19.284 26.6248 19.644C26.9608 19.996 27.4448 20.172 28.0768 20.172C28.3168 20.172 28.5688 20.14 28.8328 20.076C29.1048 20.012 29.3608 19.904 29.6008 19.752C29.7368 19.672 29.8568 19.636 29.9608 19.644C30.0728 19.652 30.1608 19.688 30.2248 19.752C30.2968 19.816 30.3408 19.896 30.3568 19.992C30.3728 20.088 30.3568 20.188 30.3088 20.292C30.2608 20.388 30.1768 20.476 30.0568 20.556C29.7848 20.74 29.4688 20.88 29.1088 20.976C28.7488 21.064 28.4008 21.108 28.0648 21.108ZM32.3622 21.084C32.1702 21.084 32.0222 21.032 31.9182 20.928C31.8142 20.816 31.7622 20.664 31.7622 20.472V15.672C31.7622 15.472 31.8142 15.32 31.9182 15.216C32.0222 15.112 32.1662 15.06 32.3502 15.06C32.5422 15.06 32.6862 15.112 32.7822 15.216C32.8862 15.32 32.9382 15.472 32.9382 15.672V16.608L32.8062 16.392C32.9822 15.944 33.2582 15.608 33.6342 15.384C34.0102 15.152 34.4422 15.036 34.9302 15.036C35.3942 15.036 35.7782 15.124 36.0822 15.3C36.3942 15.468 36.6262 15.728 36.7782 16.08C36.9302 16.424 37.0062 16.86 37.0062 17.388V20.472C37.0062 20.664 36.9542 20.816 36.8502 20.928C36.7462 21.032 36.5982 21.084 36.4062 21.084C36.2062 21.084 36.0542 21.032 35.9502 20.928C35.8462 20.816 35.7942 20.664 35.7942 20.472V17.46C35.7942 16.956 35.6942 16.588 35.4942 16.356C35.3022 16.124 34.9982 16.008 34.5822 16.008C34.0942 16.008 33.7022 16.16 33.4062 16.464C33.1182 16.768 32.9742 17.176 32.9742 17.688V20.472C32.9742 20.88 32.7702 21.084 32.3622 21.084ZM40.9082 21.108C40.3962 21.108 39.9442 20.988 39.5522 20.748C39.1682 20.5 38.8682 20.148 38.6522 19.692C38.4362 19.228 38.3282 18.688 38.3282 18.072C38.3282 17.44 38.4362 16.9 38.6522 16.452C38.8682 16.004 39.1682 15.656 39.5522 15.408C39.9442 15.16 40.3962 15.036 40.9082 15.036C41.4202 15.036 41.8602 15.164 42.2282 15.42C42.6042 15.668 42.8562 16.004 42.9842 16.428H42.8522V13.068C42.8522 12.868 42.9042 12.716 43.0082 12.612C43.1122 12.508 43.2602 12.456 43.4522 12.456C43.6442 12.456 43.7922 12.508 43.8962 12.612C44.0082 12.716 44.0642 12.868 44.0642 13.068V20.472C44.0642 20.664 44.0122 20.816 43.9082 20.928C43.8042 21.032 43.6562 21.084 43.4642 21.084C43.2722 21.084 43.1242 21.032 43.0202 20.928C42.9162 20.816 42.8642 20.664 42.8642 20.472V19.416L42.9962 19.68C42.8682 20.112 42.6162 20.46 42.2402 20.724C41.8722 20.98 41.4282 21.108 40.9082 21.108ZM41.2202 20.172C41.5482 20.172 41.8362 20.092 42.0842 19.932C42.3322 19.772 42.5242 19.536 42.6602 19.224C42.8042 18.912 42.8762 18.528 42.8762 18.072C42.8762 17.384 42.7242 16.864 42.4202 16.512C42.1162 16.16 41.7162 15.984 41.2202 15.984C40.8842 15.984 40.5922 16.064 40.3442 16.224C40.0962 16.376 39.9002 16.608 39.7562 16.92C39.6202 17.232 39.5522 17.616 39.5522 18.072C39.5522 18.752 39.7042 19.272 40.0082 19.632C40.3122 19.992 40.7162 20.172 41.2202 20.172ZM49.6861 21.084C49.4861 21.084 49.3301 21.028 49.2181 20.916C49.1141 20.804 49.0621 20.648 49.0621 20.448V13.176C49.0621 12.968 49.1181 12.812 49.2301 12.708C49.3421 12.596 49.4981 12.54 49.6981 12.54H52.5661C53.4781 12.54 54.1821 12.756 54.6781 13.188C55.1741 13.62 55.4221 14.232 55.4221 15.024C55.4221 15.536 55.3101 15.976 55.0861 16.344C54.8621 16.712 54.5341 16.992 54.1021 17.184C53.6781 17.376 53.1661 17.472 52.5661 17.472L52.6741 17.304H52.9861C53.3061 17.304 53.5821 17.384 53.8141 17.544C54.0541 17.704 54.2701 17.96 54.4621 18.312L55.4941 20.232C55.5741 20.376 55.6101 20.516 55.6021 20.652C55.6021 20.78 55.5541 20.884 55.4581 20.964C55.3701 21.044 55.2421 21.084 55.0741 21.084C54.8981 21.084 54.7541 21.048 54.6421 20.976C54.5381 20.896 54.4421 20.78 54.3541 20.628L53.0941 18.3C52.9261 17.988 52.7341 17.78 52.5181 17.676C52.3021 17.564 52.0181 17.508 51.6661 17.508H50.3101V20.448C50.3101 20.648 50.2581 20.804 50.1541 20.916C50.0501 21.028 49.8941 21.084 49.6861 21.084ZM50.3101 16.572H52.3621C52.9701 16.572 53.4301 16.444 53.7421 16.188C54.0541 15.932 54.2101 15.552 54.2101 15.048C54.2101 14.552 54.0541 14.176 53.7421 13.92C53.4301 13.664 52.9701 13.536 52.3621 13.536H50.3101V16.572ZM59.6586 21.108C59.0186 21.108 58.4666 20.988 58.0026 20.748C57.5466 20.5 57.1906 20.152 56.9346 19.704C56.6866 19.248 56.5626 18.708 56.5626 18.084C56.5626 17.476 56.6866 16.944 56.9346 16.488C57.1826 16.032 57.5226 15.676 57.9546 15.42C58.3866 15.164 58.8786 15.036 59.4306 15.036C59.8386 15.036 60.2026 15.104 60.5226 15.24C60.8426 15.368 61.1146 15.56 61.3386 15.816C61.5706 16.064 61.7426 16.368 61.8546 16.728C61.9746 17.088 62.0346 17.492 62.0346 17.94C62.0346 18.076 61.9946 18.18 61.9146 18.252C61.8346 18.316 61.7146 18.348 61.5546 18.348H57.5226V17.604H61.2186L61.0146 17.772C61.0146 17.372 60.9546 17.032 60.8346 16.752C60.7226 16.472 60.5506 16.26 60.3186 16.116C60.0946 15.964 59.8146 15.888 59.4786 15.888C59.1026 15.888 58.7826 15.976 58.5186 16.152C58.2626 16.328 58.0666 16.572 57.9306 16.884C57.7946 17.196 57.7266 17.56 57.7266 17.976V18.048C57.7266 18.752 57.8906 19.284 58.2186 19.644C58.5546 19.996 59.0386 20.172 59.6706 20.172C59.9106 20.172 60.1626 20.14 60.4266 20.076C60.6986 20.012 60.9546 19.904 61.1946 19.752C61.3306 19.672 61.4506 19.636 61.5546 19.644C61.6666 19.652 61.7546 19.688 61.8186 19.752C61.8906 19.816 61.9346 19.896 61.9506 19.992C61.9666 20.088 61.9506 20.188 61.9026 20.292C61.8546 20.388 61.7706 20.476 61.6506 20.556C61.3786 20.74 61.0626 20.88 60.7026 20.976C60.3426 21.064 59.9946 21.108 59.6586 21.108ZM63.9799 21.084C63.7879 21.084 63.6399 21.032 63.5359 20.928C63.4319 20.816 63.3799 20.664 63.3799 20.472V15.672C63.3799 15.472 63.4319 15.32 63.5359 15.216C63.6399 15.112 63.7839 15.06 63.9679 15.06C64.1599 15.06 64.3039 15.112 64.3999 15.216C64.5039 15.32 64.5559 15.472 64.5559 15.672V16.656L64.4239 16.392C64.5839 15.968 64.8319 15.636 65.1679 15.396C65.5039 15.156 65.9079 15.036 66.3799 15.036C66.8679 15.036 67.2639 15.152 67.5679 15.384C67.8719 15.616 68.0799 15.972 68.1919 16.452H68.0239C68.1759 16.012 68.4359 15.668 68.8039 15.42C69.1719 15.164 69.5999 15.036 70.0879 15.036C70.5359 15.036 70.9039 15.124 71.1919 15.3C71.4799 15.468 71.6959 15.728 71.8399 16.08C71.9839 16.424 72.0559 16.86 72.0559 17.388V20.472C72.0559 20.664 71.9999 20.816 71.8879 20.928C71.7839 21.032 71.6359 21.084 71.4439 21.084C71.2519 21.084 71.1039 21.032 70.9999 20.928C70.8959 20.816 70.8439 20.664 70.8439 20.472V17.448C70.8439 16.952 70.7559 16.588 70.5799 16.356C70.4119 16.124 70.1319 16.008 69.7399 16.008C69.2999 16.008 68.9519 16.16 68.6959 16.464C68.4399 16.768 68.3119 17.188 68.3119 17.724V20.472C68.3119 20.664 68.2599 20.816 68.1559 20.928C68.0519 21.032 67.9039 21.084 67.7119 21.084C67.5199 21.084 67.3679 21.032 67.2559 20.928C67.1519 20.816 67.0999 20.664 67.0999 20.472V17.448C67.0999 16.952 67.0159 16.588 66.8479 16.356C66.6799 16.124 66.3999 16.008 66.0079 16.008C65.5679 16.008 65.2199 16.16 64.9639 16.464C64.7159 16.768 64.5919 17.188 64.5919 17.724V20.472C64.5919 20.88 64.3879 21.084 63.9799 21.084ZM74.3504 21.072C74.1584 21.072 74.0104 21.016 73.9064 20.904C73.8024 20.784 73.7504 20.62 73.7504 20.412V15.732C73.7504 15.524 73.8024 15.364 73.9064 15.252C74.0104 15.14 74.1584 15.084 74.3504 15.084C74.5424 15.084 74.6904 15.14 74.7944 15.252C74.9064 15.364 74.9624 15.524 74.9624 15.732V20.412C74.9624 20.62 74.9104 20.784 74.8064 20.904C74.7024 21.016 74.5504 21.072 74.3504 21.072ZM74.3504 13.836C74.1104 13.836 73.9224 13.776 73.7864 13.656C73.6584 13.536 73.5944 13.368 73.5944 13.152C73.5944 12.928 73.6584 12.76 73.7864 12.648C73.9224 12.528 74.1104 12.468 74.3504 12.468C74.5904 12.468 74.7744 12.528 74.9024 12.648C75.0384 12.76 75.1064 12.928 75.1064 13.152C75.1064 13.368 75.0384 13.536 74.9024 13.656C74.7744 13.776 74.5904 13.836 74.3504 13.836ZM77.2684 21.084C77.0764 21.084 76.9284 21.032 76.8244 20.928C76.7204 20.816 76.6684 20.664 76.6684 20.472V15.672C76.6684 15.472 76.7204 15.32 76.8244 15.216C76.9284 15.112 77.0724 15.06 77.2564 15.06C77.4484 15.06 77.5924 15.112 77.6884 15.216C77.7924 15.32 77.8444 15.472 77.8444 15.672V16.608L77.7124 16.392C77.8884 15.944 78.1644 15.608 78.5404 15.384C78.9164 15.152 79.3484 15.036 79.8364 15.036C80.3004 15.036 80.6844 15.124 80.9884 15.3C81.3004 15.468 81.5324 15.728 81.6844 16.08C81.8364 16.424 81.9124 16.86 81.9124 17.388V20.472C81.9124 20.664 81.8604 20.816 81.7564 20.928C81.6524 21.032 81.5044 21.084 81.3124 21.084C81.1124 21.084 80.9604 21.032 80.8564 20.928C80.7524 20.816 80.7004 20.664 80.7004 20.472V17.46C80.7004 16.956 80.6004 16.588 80.4004 16.356C80.2084 16.124 79.9044 16.008 79.4884 16.008C79.0004 16.008 78.6084 16.16 78.3124 16.464C78.0244 16.768 77.8804 17.176 77.8804 17.688V20.472C77.8804 20.88 77.6764 21.084 77.2684 21.084ZM85.8145 21.108C85.3025 21.108 84.8505 20.988 84.4585 20.748C84.0745 20.5 83.7745 20.148 83.5585 19.692C83.3425 19.228 83.2345 18.688 83.2345 18.072C83.2345 17.44 83.3425 16.9 83.5585 16.452C83.7745 16.004 84.0745 15.656 84.4585 15.408C84.8505 15.16 85.3025 15.036 85.8145 15.036C86.3265 15.036 86.7665 15.164 87.1345 15.42C87.5105 15.668 87.7625 16.004 87.8905 16.428H87.7585V13.068C87.7585 12.868 87.8105 12.716 87.9145 12.612C88.0185 12.508 88.1665 12.456 88.3585 12.456C88.5505 12.456 88.6985 12.508 88.8025 12.612C88.9145 12.716 88.9705 12.868 88.9705 13.068V20.472C88.9705 20.664 88.9185 20.816 88.8145 20.928C88.7105 21.032 88.5625 21.084 88.3705 21.084C88.1785 21.084 88.0305 21.032 87.9265 20.928C87.8225 20.816 87.7705 20.664 87.7705 20.472V19.416L87.9025 19.68C87.7745 20.112 87.5225 20.46 87.1465 20.724C86.7785 20.98 86.3345 21.108 85.8145 21.108ZM86.1265 20.172C86.4545 20.172 86.7425 20.092 86.9905 19.932C87.2385 19.772 87.4305 19.536 87.5665 19.224C87.7105 18.912 87.7825 18.528 87.7825 18.072C87.7825 17.384 87.6305 16.864 87.3265 16.512C87.0225 16.16 86.6225 15.984 86.1265 15.984C85.7905 15.984 85.4985 16.064 85.2505 16.224C85.0025 16.376 84.8065 16.608 84.6625 16.92C84.5265 17.232 84.4585 17.616 84.4585 18.072C84.4585 18.752 84.6105 19.272 84.9145 19.632C85.2185 19.992 85.6225 20.172 86.1265 20.172ZM93.4203 21.108C92.7803 21.108 92.2283 20.988 91.7643 20.748C91.3083 20.5 90.9523 20.152 90.6963 19.704C90.4483 19.248 90.3243 18.708 90.3243 18.084C90.3243 17.476 90.4483 16.944 90.6963 16.488C90.9443 16.032 91.2843 15.676 91.7163 15.42C92.1483 15.164 92.6403 15.036 93.1923 15.036C93.6003 15.036 93.9643 15.104 94.2843 15.24C94.6043 15.368 94.8763 15.56 95.1003 15.816C95.3323 16.064 95.5043 16.368 95.6163 16.728C95.7363 17.088 95.7963 17.492 95.7963 17.94C95.7963 18.076 95.7563 18.18 95.6763 18.252C95.5963 18.316 95.4763 18.348 95.3163 18.348H91.2843V17.604H94.9803L94.7763 17.772C94.7763 17.372 94.7163 17.032 94.5963 16.752C94.4843 16.472 94.3123 16.26 94.0803 16.116C93.8563 15.964 93.5763 15.888 93.2403 15.888C92.8643 15.888 92.5443 15.976 92.2803 16.152C92.0243 16.328 91.8283 16.572 91.6923 16.884C91.5563 17.196 91.4883 17.56 91.4883 17.976V18.048C91.4883 18.752 91.6523 19.284 91.9803 19.644C92.3163 19.996 92.8003 20.172 93.4323 20.172C93.6723 20.172 93.9243 20.14 94.1883 20.076C94.4603 20.012 94.7163 19.904 94.9563 19.752C95.0923 19.672 95.2123 19.636 95.3163 19.644C95.4283 19.652 95.5163 19.688 95.5803 19.752C95.6523 19.816 95.6963 19.896 95.7123 19.992C95.7283 20.088 95.7123 20.188 95.6643 20.292C95.6163 20.388 95.5323 20.476 95.4123 20.556C95.1403 20.74 94.8243 20.88 94.4643 20.976C94.1043 21.064 93.7563 21.108 93.4203 21.108ZM97.7296 21.084C97.5296 21.084 97.3776 21.032 97.2736 20.928C97.1696 20.816 97.1176 20.664 97.1176 20.472V15.672C97.1176 15.472 97.1696 15.32 97.2736 15.216C97.3776 15.112 97.5216 15.06 97.7056 15.06C97.8976 15.06 98.0416 15.112 98.1376 15.216C98.2416 15.32 98.2936 15.472 98.2936 15.672V16.548H98.1736C98.3016 16.068 98.5376 15.704 98.8816 15.456C99.2256 15.208 99.6656 15.064 100.202 15.024C100.346 15.016 100.458 15.052 100.538 15.132C100.626 15.212 100.674 15.336 100.682 15.504C100.698 15.672 100.662 15.808 100.574 15.912C100.486 16.008 100.35 16.064 100.166 16.08L99.9376 16.104C99.4176 16.152 99.0216 16.316 98.7496 16.596C98.4776 16.876 98.3416 17.26 98.3416 17.748V20.472C98.3416 20.664 98.2896 20.816 98.1856 20.928C98.0896 21.032 97.9376 21.084 97.7296 21.084Z" fill="white"/>
<path d="M111.371 20.1701C111.749 20.5803 112.362 20.5803 112.741 20.1701L117.216 15.3156C117.595 14.9054 117.595 14.2402 117.216 13.83C116.838 13.4198 116.225 13.4198 115.847 13.83L111.371 18.6844C110.993 19.0947 110.993 19.7598 111.371 20.1701Z" fill="white"/>
<path d="M112.67 20.1923C113.049 19.7821 113.049 19.1169 112.67 18.7067L108.153 13.8077C107.775 13.3974 107.162 13.3974 106.784 13.8077C106.405 14.2179 106.405 14.8831 106.784 15.2933L111.301 20.1923C111.679 20.6026 112.292 20.6026 112.67 20.1923Z" fill="white"/>
<defs>
<linearGradient id="paint0_linear_490_608" x1="78.3922" y1="1" x2="78.3922" y2="33" gradientUnits="userSpaceOnUse">
<stop stop-color="#FFAA00" stop-opacity="0.75"/>
<stop offset="1" stop-color="#E89B01"/>
</linearGradient>
</defs>
</svg>
