<svg width="54" height="30" viewBox="0 0 54 30" fill="none" xmlns="http://www.w3.org/2000/svg">
<g filter="url(#filter0_i_484_436)">
<rect width="54" height="30" rx="15" fill="#64728C" fill-opacity="0.1"/>
<rect x="2" y="2" width="26" height="26" rx="13" fill="white"/>
<path d="M11.6963 15.4262L15.4086 11.7138C16.1604 10.9621 17.3792 10.9621 18.1309 11.7138C18.8827 12.4656 18.8827 13.6844 18.1309 14.4362L13.6762 18.891C13.3345 19.2327 12.7805 19.2327 12.4387 18.891C12.097 18.5492 12.097 17.9952 12.4387 17.6535L16.3985 13.6937C16.6035 13.4887 16.6035 13.1563 16.3985 12.9513C16.1935 12.7462 15.8611 12.7462 15.6561 12.9513L11.6963 16.9111C10.9445 17.6628 10.9445 18.8816 11.6963 19.6334C12.448 20.3852 13.6669 20.3852 14.4186 19.6334L18.8734 15.1786C20.0352 14.0168 20.0352 12.1332 18.8734 10.9714C17.7116 9.80955 15.8279 9.80955 14.6661 10.9714L10.9538 14.6837C10.7488 14.8887 10.7488 15.2211 10.9538 15.4262C11.1588 15.6312 11.4913 15.6312 11.6963 15.4262Z" fill="#64728C"/>
<path d="M39.3708 18.1701C39.7491 18.5803 40.3623 18.5803 40.7406 18.1701L45.2163 13.3156C45.5946 12.9054 45.5946 12.2402 45.2163 11.83C44.8381 11.4198 44.2248 11.4198 43.8466 11.83L39.3708 16.6844C38.9926 17.0947 38.9926 17.7598 39.3708 18.1701Z" fill="#64728C"/>
<path d="M40.6703 18.1923C41.0485 17.7821 41.0485 17.1169 40.6703 16.7067L36.1534 11.8077C35.7752 11.3974 35.1619 11.3974 34.7837 11.8077C34.4054 12.2179 34.4054 12.8831 34.7837 13.2933L39.3005 18.1923C39.6788 18.6026 40.292 18.6026 40.6703 18.1923Z" fill="#64728C"/>
</g>
<defs>
<filter id="filter0_i_484_436" x="0" y="0" width="54" height="34" filterUnits="userSpaceOnUse" color-interpolation-filters="sRGB">
<feFlood flood-opacity="0" result="BackgroundImageFix"/>
<feBlend mode="normal" in="SourceGraphic" in2="BackgroundImageFix" result="shape"/>
<feColorMatrix in="SourceAlpha" type="matrix" values="0 0 0 0 0 0 0 0 0 0 0 0 0 0 0 0 0 0 127 0" result="hardAlpha"/>
<feOffset dy="4"/>
<feGaussianBlur stdDeviation="2.5"/>
<feComposite in2="hardAlpha" operator="arithmetic" k2="-1" k3="1"/>
<feColorMatrix type="matrix" values="0 0 0 0 0 0 0 0 0 0 0 0 0 0 0 0 0 0 0.05 0"/>
<feBlend mode="normal" in2="shape" result="effect1_innerShadow_484_436"/>
</filter>
</defs>
</svg>
