<svg width="65" height="30" viewBox="0 0 65 30" fill="none" xmlns="http://www.w3.org/2000/svg">
<rect width="30" height="30" rx="15" fill="#64728C" fill-opacity="0.15"/>
<path d="M13.7423 15.0003L18.1858 11.2976C18.3632 11.1486 18.4743 10.9355 18.4948 10.7047C18.5153 10.474 18.4435 10.2446 18.2952 10.0666C18.1469 9.88873 17.9342 9.77682 17.7035 9.75545C17.4729 9.73407 17.2432 9.80496 17.0647 9.9526L11.8145 14.3278C11.716 14.41 11.6368 14.5129 11.5825 14.6291C11.5282 14.7453 11.5 14.872 11.5 15.0003C11.5 15.1286 11.5282 15.2553 11.5825 15.3715C11.6368 15.4877 11.716 15.5906 11.8145 15.6728L17.0647 20.048C17.2431 20.1964 17.4731 20.2678 17.7041 20.2467C17.9352 20.2256 18.1484 20.1136 18.297 19.9354C18.4455 19.7572 18.5173 19.5273 18.4964 19.2962C18.4756 19.0651 18.3639 18.8518 18.1858 18.703L13.7423 15.0003Z" fill="#64728C" stroke="#64728C"/>
<rect x="35" width="30" height="30" rx="15" fill="#64728C" fill-opacity="0.15"/>
<path d="M53.1855 14.3274L47.9353 9.95217C47.7568 9.80454 47.5271 9.73364 47.2964 9.75502C47.0658 9.7764 46.853 9.8883 46.7047 10.0662C46.5564 10.2441 46.4847 10.4736 46.5052 10.7043C46.5257 10.935 46.6368 11.1482 46.8141 11.2972L51.2577 14.9999L46.8141 18.7026C46.6361 18.8514 46.5244 19.0647 46.5035 19.2958C46.4827 19.5269 46.5544 19.7568 46.703 19.935C46.8516 20.1132 47.0648 20.2252 47.2958 20.2463C47.5269 20.2674 47.7569 20.196 47.9353 20.0476L53.1855 15.6724C53.2839 15.5901 53.3631 15.4873 53.4175 15.3711C53.4718 15.2549 53.5 15.1282 53.5 14.9999C53.5 14.8716 53.4718 14.7449 53.4175 14.6287C53.3631 14.5125 53.2839 14.4096 53.1855 14.3274Z" fill="#64728C" stroke="#64728C"/>
</svg>
