<svg width="118" height="226" viewBox="0 0 118 226" fill="none" xmlns="http://www.w3.org/2000/svg">
<rect x="13.5" y="45.5" width="91" height="33" rx="16.5" fill="#76BC21"/>
<rect x="13.5" y="45.5" width="91" height="33" rx="16.5" stroke="url(#paint0_linear_493_708)"/>
<path d="M33.804 66.108C33.436 66.108 33.076 66.08 32.724 66.024C32.372 65.968 32.04 65.884 31.728 65.772C31.416 65.652 31.136 65.508 30.888 65.34C30.768 65.252 30.684 65.152 30.636 65.04C30.596 64.928 30.584 64.82 30.6 64.716C30.624 64.604 30.672 64.508 30.744 64.428C30.816 64.348 30.904 64.3 31.008 64.284C31.112 64.26 31.228 64.292 31.356 64.38C31.716 64.612 32.096 64.784 32.496 64.896C32.896 65 33.332 65.052 33.804 65.052C34.484 65.052 34.984 64.932 35.304 64.692C35.632 64.444 35.796 64.124 35.796 63.732C35.796 63.412 35.68 63.16 35.448 62.976C35.216 62.784 34.828 62.632 34.284 62.52L33 62.256C32.24 62.096 31.672 61.832 31.296 61.464C30.928 61.096 30.744 60.6 30.744 59.976C30.744 59.6 30.82 59.256 30.972 58.944C31.132 58.632 31.352 58.364 31.632 58.14C31.912 57.908 32.248 57.732 32.64 57.612C33.032 57.492 33.46 57.432 33.924 57.432C34.42 57.432 34.884 57.496 35.316 57.624C35.756 57.752 36.148 57.948 36.492 58.212C36.596 58.284 36.664 58.376 36.696 58.488C36.736 58.592 36.744 58.696 36.72 58.8C36.704 58.904 36.66 58.992 36.588 59.064C36.516 59.136 36.424 59.18 36.312 59.196C36.2 59.204 36.076 59.164 35.94 59.076C35.628 58.868 35.308 58.72 34.98 58.632C34.66 58.536 34.304 58.488 33.912 58.488C33.52 58.488 33.176 58.548 32.88 58.668C32.592 58.788 32.368 58.956 32.208 59.172C32.056 59.388 31.98 59.644 31.98 59.94C31.98 60.276 32.088 60.544 32.304 60.744C32.52 60.944 32.88 61.096 33.384 61.2L34.656 61.464C35.456 61.632 36.052 61.892 36.444 62.244C36.836 62.596 37.032 63.064 37.032 63.648C37.032 64.024 36.956 64.364 36.804 64.668C36.652 64.964 36.436 65.22 36.156 65.436C35.876 65.652 35.536 65.82 35.136 65.94C34.744 66.052 34.3 66.108 33.804 66.108ZM40.1888 66.108C39.7808 66.108 39.4128 66.028 39.0848 65.868C38.7648 65.708 38.5128 65.492 38.3288 65.22C38.1448 64.948 38.0528 64.64 38.0528 64.296C38.0528 63.864 38.1608 63.524 38.3768 63.276C38.6008 63.02 38.9648 62.84 39.4688 62.736C39.9808 62.624 40.6688 62.568 41.5328 62.568H42.0968V63.312H41.5448C40.9688 63.312 40.5128 63.34 40.1768 63.396C39.8408 63.452 39.6008 63.548 39.4568 63.684C39.3208 63.812 39.2528 63.992 39.2528 64.224C39.2528 64.528 39.3568 64.776 39.5648 64.968C39.7728 65.152 40.0608 65.244 40.4288 65.244C40.7248 65.244 40.9848 65.176 41.2088 65.04C41.4328 64.896 41.6088 64.704 41.7368 64.464C41.8728 64.224 41.9408 63.948 41.9408 63.636V62.256C41.9408 61.8 41.8448 61.472 41.6528 61.272C41.4608 61.072 41.1448 60.972 40.7048 60.972C40.4488 60.972 40.1808 61.004 39.9008 61.068C39.6288 61.132 39.3448 61.24 39.0488 61.392C38.9128 61.456 38.7968 61.476 38.7008 61.452C38.6048 61.428 38.5288 61.376 38.4728 61.296C38.4168 61.208 38.3848 61.116 38.3768 61.02C38.3768 60.916 38.4008 60.816 38.4488 60.72C38.5048 60.624 38.5968 60.552 38.7248 60.504C39.0768 60.336 39.4248 60.216 39.7688 60.144C40.1128 60.072 40.4368 60.036 40.7408 60.036C41.2768 60.036 41.7168 60.12 42.0608 60.288C42.4128 60.456 42.6728 60.712 42.8408 61.056C43.0088 61.4 43.0928 61.844 43.0928 62.388V65.472C43.0928 65.664 43.0448 65.816 42.9488 65.928C42.8528 66.032 42.7128 66.084 42.5288 66.084C42.3528 66.084 42.2128 66.032 42.1088 65.928C42.0048 65.816 41.9528 65.664 41.9528 65.472V64.692H42.0608C41.9968 64.988 41.8768 65.244 41.7008 65.46C41.5328 65.668 41.3208 65.828 41.0648 65.94C40.8088 66.052 40.5168 66.108 40.1888 66.108ZM46.9716 66.084C46.8036 66.084 46.6556 66.04 46.5276 65.952C46.4076 65.864 46.3076 65.728 46.2276 65.544L44.2236 60.888C44.1596 60.744 44.1356 60.608 44.1516 60.48C44.1676 60.352 44.2276 60.252 44.3316 60.18C44.4356 60.1 44.5756 60.06 44.7516 60.06C44.9036 60.06 45.0236 60.096 45.1116 60.168C45.1996 60.24 45.2796 60.364 45.3516 60.54L47.1636 65.004H46.8276L48.6756 60.54C48.7476 60.364 48.8276 60.24 48.9156 60.168C49.0116 60.096 49.1436 60.06 49.3116 60.06C49.4556 60.06 49.5676 60.1 49.6476 60.18C49.7356 60.252 49.7876 60.352 49.8036 60.48C49.8276 60.6 49.8076 60.732 49.7436 60.876L47.7156 65.544C47.6436 65.728 47.5436 65.864 47.4156 65.952C47.2876 66.04 47.1396 66.084 46.9716 66.084ZM53.5805 66.108C52.9405 66.108 52.3885 65.988 51.9245 65.748C51.4685 65.5 51.1125 65.152 50.8565 64.704C50.6085 64.248 50.4845 63.708 50.4845 63.084C50.4845 62.476 50.6085 61.944 50.8565 61.488C51.1045 61.032 51.4445 60.676 51.8765 60.42C52.3085 60.164 52.8005 60.036 53.3525 60.036C53.7605 60.036 54.1245 60.104 54.4445 60.24C54.7645 60.368 55.0365 60.56 55.2605 60.816C55.4925 61.064 55.6645 61.368 55.7765 61.728C55.8965 62.088 55.9565 62.492 55.9565 62.94C55.9565 63.076 55.9165 63.18 55.8365 63.252C55.7565 63.316 55.6365 63.348 55.4765 63.348H51.4445V62.604H55.1405L54.9365 62.772C54.9365 62.372 54.8765 62.032 54.7565 61.752C54.6445 61.472 54.4725 61.26 54.2405 61.116C54.0165 60.964 53.7365 60.888 53.4005 60.888C53.0245 60.888 52.7045 60.976 52.4405 61.152C52.1845 61.328 51.9885 61.572 51.8525 61.884C51.7165 62.196 51.6485 62.56 51.6485 62.976V63.048C51.6485 63.752 51.8125 64.284 52.1405 64.644C52.4765 64.996 52.9605 65.172 53.5925 65.172C53.8325 65.172 54.0845 65.14 54.3485 65.076C54.6205 65.012 54.8765 64.904 55.1165 64.752C55.2525 64.672 55.3725 64.636 55.4765 64.644C55.5885 64.652 55.6765 64.688 55.7405 64.752C55.8125 64.816 55.8565 64.896 55.8725 64.992C55.8885 65.088 55.8725 65.188 55.8245 65.292C55.7765 65.388 55.6925 65.476 55.5725 65.556C55.3005 65.74 54.9845 65.88 54.6245 65.976C54.2645 66.064 53.9165 66.108 53.5805 66.108ZM61.2338 66.084C61.0258 66.084 60.8618 66.028 60.7418 65.916C60.6298 65.804 60.5738 65.64 60.5738 65.424V58.212C60.5738 57.996 60.6298 57.832 60.7418 57.72C60.8618 57.6 61.0298 57.54 61.2458 57.54H65.5178C65.6938 57.54 65.8218 57.584 65.9018 57.672C65.9898 57.752 66.0338 57.872 66.0338 58.032C66.0338 58.2 65.9898 58.328 65.9018 58.416C65.8218 58.504 65.6938 58.548 65.5178 58.548H61.8218V61.248H65.2778C65.4378 61.248 65.5618 61.292 65.6498 61.38C65.7458 61.46 65.7938 61.58 65.7938 61.74C65.7938 61.908 65.7458 62.036 65.6498 62.124C65.5618 62.212 65.4378 62.256 65.2778 62.256H61.8218V65.424C61.8218 65.864 61.6258 66.084 61.2338 66.084ZM69.4077 66.108C68.8157 66.108 68.3037 65.984 67.8717 65.736C67.4477 65.488 67.1157 65.136 66.8757 64.68C66.6357 64.224 66.5157 63.688 66.5157 63.072C66.5157 62.6 66.5837 62.18 66.7197 61.812C66.8557 61.444 67.0477 61.128 67.2957 60.864C67.5517 60.592 67.8557 60.388 68.2077 60.252C68.5677 60.108 68.9677 60.036 69.4077 60.036C69.9917 60.036 70.4957 60.16 70.9197 60.408C71.3517 60.656 71.6877 61.008 71.9277 61.464C72.1677 61.912 72.2877 62.448 72.2877 63.072C72.2877 63.536 72.2197 63.956 72.0837 64.332C71.9477 64.708 71.7517 65.028 71.4957 65.292C71.2477 65.556 70.9437 65.76 70.5837 65.904C70.2317 66.04 69.8397 66.108 69.4077 66.108ZM69.4077 65.172C69.7357 65.172 70.0237 65.092 70.2717 64.932C70.5197 64.772 70.7117 64.536 70.8477 64.224C70.9917 63.912 71.0637 63.528 71.0637 63.072C71.0637 62.384 70.9117 61.864 70.6077 61.512C70.3037 61.16 69.9037 60.984 69.4077 60.984C69.0717 60.984 68.7797 61.064 68.5317 61.224C68.2837 61.376 68.0877 61.608 67.9437 61.92C67.8077 62.232 67.7397 62.616 67.7397 63.072C67.7397 63.752 67.8917 64.272 68.1957 64.632C68.4997 64.992 68.9037 65.172 69.4077 65.172ZM74.2609 66.084C74.0609 66.084 73.9089 66.032 73.8049 65.928C73.7009 65.816 73.6489 65.664 73.6489 65.472V60.672C73.6489 60.472 73.7009 60.32 73.8049 60.216C73.9089 60.112 74.0529 60.06 74.2369 60.06C74.4289 60.06 74.5729 60.112 74.6689 60.216C74.7729 60.32 74.8249 60.472 74.8249 60.672V61.548H74.7049C74.8329 61.068 75.0689 60.704 75.4129 60.456C75.7569 60.208 76.1969 60.064 76.7329 60.024C76.8769 60.016 76.9889 60.052 77.0689 60.132C77.1569 60.212 77.2049 60.336 77.2129 60.504C77.2289 60.672 77.1929 60.808 77.1049 60.912C77.0169 61.008 76.8809 61.064 76.6969 61.08L76.4689 61.104C75.9489 61.152 75.5529 61.316 75.2809 61.596C75.0089 61.876 74.8729 62.26 74.8729 62.748V65.472C74.8729 65.664 74.8209 65.816 74.7169 65.928C74.6209 66.032 74.4689 66.084 74.2609 66.084ZM78.7494 66.084C78.5574 66.084 78.4094 66.032 78.3054 65.928C78.2014 65.816 78.1494 65.664 78.1494 65.472V60.672C78.1494 60.472 78.2014 60.32 78.3054 60.216C78.4094 60.112 78.5534 60.06 78.7374 60.06C78.9294 60.06 79.0734 60.112 79.1694 60.216C79.2734 60.32 79.3254 60.472 79.3254 60.672V61.656L79.1934 61.392C79.3534 60.968 79.6014 60.636 79.9374 60.396C80.2734 60.156 80.6774 60.036 81.1494 60.036C81.6374 60.036 82.0334 60.152 82.3374 60.384C82.6414 60.616 82.8494 60.972 82.9614 61.452H82.7934C82.9454 61.012 83.2054 60.668 83.5734 60.42C83.9414 60.164 84.3694 60.036 84.8574 60.036C85.3054 60.036 85.6734 60.124 85.9614 60.3C86.2494 60.468 86.4654 60.728 86.6094 61.08C86.7534 61.424 86.8254 61.86 86.8254 62.388V65.472C86.8254 65.664 86.7694 65.816 86.6574 65.928C86.5534 66.032 86.4054 66.084 86.2134 66.084C86.0214 66.084 85.8734 66.032 85.7694 65.928C85.6654 65.816 85.6134 65.664 85.6134 65.472V62.448C85.6134 61.952 85.5254 61.588 85.3494 61.356C85.1814 61.124 84.9014 61.008 84.5094 61.008C84.0694 61.008 83.7214 61.16 83.4654 61.464C83.2094 61.768 83.0814 62.188 83.0814 62.724V65.472C83.0814 65.664 83.0294 65.816 82.9254 65.928C82.8214 66.032 82.6734 66.084 82.4814 66.084C82.2894 66.084 82.1374 66.032 82.0254 65.928C81.9214 65.816 81.8694 65.664 81.8694 65.472V62.448C81.8694 61.952 81.7854 61.588 81.6174 61.356C81.4494 61.124 81.1694 61.008 80.7774 61.008C80.3374 61.008 79.9894 61.16 79.7334 61.464C79.4854 61.768 79.3614 62.188 79.3614 62.724V65.472C79.3614 65.88 79.1574 66.084 78.7494 66.084Z" fill="white"/>
<rect x="35.5" y="0.5" width="47" height="31" rx="15.5" fill="#006837"/>
<rect x="35.5" y="0.5" width="47" height="31" rx="15.5" stroke="url(#paint1_linear_493_708)"/>
<path fill-rule="evenodd" clip-rule="evenodd" d="M58.9444 14.9441C60.4479 14.9441 61.6667 13.6135 61.6667 11.9721C61.6667 10.3306 60.4479 9 58.9444 9C57.441 9 56.2222 10.3306 56.2222 11.9721C56.2222 13.6135 57.441 14.9441 58.9444 14.9441ZM58.9444 13.7709C59.7995 13.7709 60.5556 13.0029 60.5556 11.9721C60.5556 10.9413 59.7995 10.1732 58.9444 10.1732C58.0894 10.1732 57.3333 10.9413 57.3333 11.9721C57.3333 13.0029 58.0894 13.7709 58.9444 13.7709Z" fill="white"/>
<path d="M59.0377 16.8161C58.2616 16.7068 57.6601 16.7233 56.7983 16.8181C55.6317 16.9464 54.6777 17.2955 54.0323 17.749C53.3815 18.2063 53.1111 18.714 53.1111 19.1699L53.1112 19.6755C53.1112 19.9997 53.3601 20.2626 53.6675 20.2626H58.4444C58.7513 20.2626 59 20.5252 59 20.8492C59 21.1731 58.7513 21.4358 58.4444 21.4358H53.6675C52.7469 21.4358 52.0001 20.648 52 19.6756L52 19.17C51.9999 18.1774 52.5905 17.3529 53.4167 16.7724C54.2482 16.1881 55.3868 15.7938 56.6832 15.6512C57.5991 15.5505 58.2939 15.5278 59.1845 15.6532C59.4887 15.696 59.7023 15.991 59.6618 16.3122C59.6212 16.6333 59.3418 16.8589 59.0377 16.8161Z" fill="white"/>
<path d="M62.5926 17.4078C62.4085 17.4078 62.2593 17.5654 62.2593 17.7598V19.7542C62.2593 19.8985 62.3415 20.0225 62.4592 20.0768L63.2647 20.5679C63.4241 20.6651 63.628 20.6074 63.7201 20.4391C63.8121 20.2707 63.7575 20.0555 63.598 19.9583L62.9259 19.5485V17.7598C62.9259 17.5654 62.7767 17.4078 62.5926 17.4078Z" fill="white"/>
<path fill-rule="evenodd" clip-rule="evenodd" d="M66 19.4609C66 21.4155 64.4993 23 62.6481 23C60.797 23 59.2963 21.4155 59.2963 19.4609C59.2963 17.5063 60.797 15.9218 62.6481 15.9218C64.4993 15.9218 66 17.5063 66 19.4609ZM65.0741 19.4609C65.0741 20.8755 63.988 22.0223 62.6481 22.0223C61.3083 22.0223 60.2222 20.8755 60.2222 19.4609C60.2222 18.0462 61.3083 16.8994 62.6481 16.8994C63.988 16.8994 65.0741 18.0462 65.0741 19.4609Z" fill="white"/>
<rect x="0.5" y="92.5" width="117" height="33" rx="16.5" fill="#FFAA00"/>
<rect x="0.5" y="92.5" width="117" height="33" rx="16.5" stroke="url(#paint2_linear_493_708)"/>
<path d="M20.804 113.108C20.436 113.108 20.076 113.08 19.724 113.024C19.372 112.968 19.04 112.884 18.728 112.772C18.416 112.652 18.136 112.508 17.888 112.34C17.768 112.252 17.684 112.152 17.636 112.04C17.596 111.928 17.584 111.82 17.6 111.716C17.624 111.604 17.672 111.508 17.744 111.428C17.816 111.348 17.904 111.3 18.008 111.284C18.112 111.26 18.228 111.292 18.356 111.38C18.716 111.612 19.096 111.784 19.496 111.896C19.896 112 20.332 112.052 20.804 112.052C21.484 112.052 21.984 111.932 22.304 111.692C22.632 111.444 22.796 111.124 22.796 110.732C22.796 110.412 22.68 110.16 22.448 109.976C22.216 109.784 21.828 109.632 21.284 109.52L20 109.256C19.24 109.096 18.672 108.832 18.296 108.464C17.928 108.096 17.744 107.6 17.744 106.976C17.744 106.6 17.82 106.256 17.972 105.944C18.132 105.632 18.352 105.364 18.632 105.14C18.912 104.908 19.248 104.732 19.64 104.612C20.032 104.492 20.46 104.432 20.924 104.432C21.42 104.432 21.884 104.496 22.316 104.624C22.756 104.752 23.148 104.948 23.492 105.212C23.596 105.284 23.664 105.376 23.696 105.488C23.736 105.592 23.744 105.696 23.72 105.8C23.704 105.904 23.66 105.992 23.588 106.064C23.516 106.136 23.424 106.18 23.312 106.196C23.2 106.204 23.076 106.164 22.94 106.076C22.628 105.868 22.308 105.72 21.98 105.632C21.66 105.536 21.304 105.488 20.912 105.488C20.52 105.488 20.176 105.548 19.88 105.668C19.592 105.788 19.368 105.956 19.208 106.172C19.056 106.388 18.98 106.644 18.98 106.94C18.98 107.276 19.088 107.544 19.304 107.744C19.52 107.944 19.88 108.096 20.384 108.2L21.656 108.464C22.456 108.632 23.052 108.892 23.444 109.244C23.836 109.596 24.032 110.064 24.032 110.648C24.032 111.024 23.956 111.364 23.804 111.668C23.652 111.964 23.436 112.22 23.156 112.436C22.876 112.652 22.536 112.82 22.136 112.94C21.744 113.052 21.3 113.108 20.804 113.108ZM28.0648 113.108C27.4248 113.108 26.8728 112.988 26.4088 112.748C25.9528 112.5 25.5968 112.152 25.3408 111.704C25.0928 111.248 24.9688 110.708 24.9688 110.084C24.9688 109.476 25.0928 108.944 25.3408 108.488C25.5888 108.032 25.9288 107.676 26.3608 107.42C26.7928 107.164 27.2848 107.036 27.8368 107.036C28.2448 107.036 28.6088 107.104 28.9288 107.24C29.2488 107.368 29.5208 107.56 29.7448 107.816C29.9768 108.064 30.1488 108.368 30.2608 108.728C30.3808 109.088 30.4408 109.492 30.4408 109.94C30.4408 110.076 30.4008 110.18 30.3208 110.252C30.2408 110.316 30.1208 110.348 29.9608 110.348H25.9288V109.604H29.6248L29.4208 109.772C29.4208 109.372 29.3608 109.032 29.2408 108.752C29.1288 108.472 28.9568 108.26 28.7248 108.116C28.5008 107.964 28.2208 107.888 27.8848 107.888C27.5088 107.888 27.1888 107.976 26.9248 108.152C26.6688 108.328 26.4728 108.572 26.3368 108.884C26.2008 109.196 26.1328 109.56 26.1328 109.976V110.048C26.1328 110.752 26.2968 111.284 26.6248 111.644C26.9608 111.996 27.4448 112.172 28.0768 112.172C28.3168 112.172 28.5688 112.14 28.8328 112.076C29.1048 112.012 29.3608 111.904 29.6008 111.752C29.7368 111.672 29.8568 111.636 29.9608 111.644C30.0728 111.652 30.1608 111.688 30.2248 111.752C30.2968 111.816 30.3408 111.896 30.3568 111.992C30.3728 112.088 30.3568 112.188 30.3088 112.292C30.2608 112.388 30.1768 112.476 30.0568 112.556C29.7848 112.74 29.4688 112.88 29.1088 112.976C28.7488 113.064 28.4008 113.108 28.0648 113.108ZM32.3622 113.084C32.1702 113.084 32.0222 113.032 31.9182 112.928C31.8142 112.816 31.7622 112.664 31.7622 112.472V107.672C31.7622 107.472 31.8142 107.32 31.9182 107.216C32.0222 107.112 32.1662 107.06 32.3502 107.06C32.5422 107.06 32.6862 107.112 32.7822 107.216C32.8862 107.32 32.9382 107.472 32.9382 107.672V108.608L32.8062 108.392C32.9822 107.944 33.2582 107.608 33.6342 107.384C34.0102 107.152 34.4422 107.036 34.9302 107.036C35.3942 107.036 35.7782 107.124 36.0822 107.3C36.3942 107.468 36.6262 107.728 36.7782 108.08C36.9302 108.424 37.0062 108.86 37.0062 109.388V112.472C37.0062 112.664 36.9542 112.816 36.8502 112.928C36.7462 113.032 36.5982 113.084 36.4062 113.084C36.2062 113.084 36.0542 113.032 35.9502 112.928C35.8462 112.816 35.7942 112.664 35.7942 112.472V109.46C35.7942 108.956 35.6942 108.588 35.4942 108.356C35.3022 108.124 34.9982 108.008 34.5822 108.008C34.0942 108.008 33.7022 108.16 33.4062 108.464C33.1182 108.768 32.9742 109.176 32.9742 109.688V112.472C32.9742 112.88 32.7702 113.084 32.3622 113.084ZM40.9082 113.108C40.3962 113.108 39.9442 112.988 39.5522 112.748C39.1682 112.5 38.8682 112.148 38.6522 111.692C38.4362 111.228 38.3282 110.688 38.3282 110.072C38.3282 109.44 38.4362 108.9 38.6522 108.452C38.8682 108.004 39.1682 107.656 39.5522 107.408C39.9442 107.16 40.3962 107.036 40.9082 107.036C41.4202 107.036 41.8602 107.164 42.2282 107.42C42.6042 107.668 42.8562 108.004 42.9842 108.428H42.8522V105.068C42.8522 104.868 42.9042 104.716 43.0082 104.612C43.1122 104.508 43.2602 104.456 43.4522 104.456C43.6442 104.456 43.7922 104.508 43.8962 104.612C44.0082 104.716 44.0642 104.868 44.0642 105.068V112.472C44.0642 112.664 44.0122 112.816 43.9082 112.928C43.8042 113.032 43.6562 113.084 43.4642 113.084C43.2722 113.084 43.1242 113.032 43.0202 112.928C42.9162 112.816 42.8642 112.664 42.8642 112.472V111.416L42.9962 111.68C42.8682 112.112 42.6162 112.46 42.2402 112.724C41.8722 112.98 41.4282 113.108 40.9082 113.108ZM41.2202 112.172C41.5482 112.172 41.8362 112.092 42.0842 111.932C42.3322 111.772 42.5242 111.536 42.6602 111.224C42.8042 110.912 42.8762 110.528 42.8762 110.072C42.8762 109.384 42.7242 108.864 42.4202 108.512C42.1162 108.16 41.7162 107.984 41.2202 107.984C40.8842 107.984 40.5922 108.064 40.3442 108.224C40.0962 108.376 39.9002 108.608 39.7562 108.92C39.6202 109.232 39.5522 109.616 39.5522 110.072C39.5522 110.752 39.7042 111.272 40.0082 111.632C40.3122 111.992 40.7162 112.172 41.2202 112.172ZM49.6861 113.084C49.4861 113.084 49.3301 113.028 49.2181 112.916C49.1141 112.804 49.0621 112.648 49.0621 112.448V105.176C49.0621 104.968 49.1181 104.812 49.2301 104.708C49.3421 104.596 49.4981 104.54 49.6981 104.54H52.5661C53.4781 104.54 54.1821 104.756 54.6781 105.188C55.1741 105.62 55.4221 106.232 55.4221 107.024C55.4221 107.536 55.3101 107.976 55.0861 108.344C54.8621 108.712 54.5341 108.992 54.1021 109.184C53.6781 109.376 53.1661 109.472 52.5661 109.472L52.6741 109.304H52.9861C53.3061 109.304 53.5821 109.384 53.8141 109.544C54.0541 109.704 54.2701 109.96 54.4621 110.312L55.4941 112.232C55.5741 112.376 55.6101 112.516 55.6021 112.652C55.6021 112.78 55.5541 112.884 55.4581 112.964C55.3701 113.044 55.2421 113.084 55.0741 113.084C54.8981 113.084 54.7541 113.048 54.6421 112.976C54.5381 112.896 54.4421 112.78 54.3541 112.628L53.0941 110.3C52.9261 109.988 52.7341 109.78 52.5181 109.676C52.3021 109.564 52.0181 109.508 51.6661 109.508H50.3101V112.448C50.3101 112.648 50.2581 112.804 50.1541 112.916C50.0501 113.028 49.8941 113.084 49.6861 113.084ZM50.3101 108.572H52.3621C52.9701 108.572 53.4301 108.444 53.7421 108.188C54.0541 107.932 54.2101 107.552 54.2101 107.048C54.2101 106.552 54.0541 106.176 53.7421 105.92C53.4301 105.664 52.9701 105.536 52.3621 105.536H50.3101V108.572ZM59.6586 113.108C59.0186 113.108 58.4666 112.988 58.0026 112.748C57.5466 112.5 57.1906 112.152 56.9346 111.704C56.6866 111.248 56.5626 110.708 56.5626 110.084C56.5626 109.476 56.6866 108.944 56.9346 108.488C57.1826 108.032 57.5226 107.676 57.9546 107.42C58.3866 107.164 58.8786 107.036 59.4306 107.036C59.8386 107.036 60.2026 107.104 60.5226 107.24C60.8426 107.368 61.1146 107.56 61.3386 107.816C61.5706 108.064 61.7426 108.368 61.8546 108.728C61.9746 109.088 62.0346 109.492 62.0346 109.94C62.0346 110.076 61.9946 110.18 61.9146 110.252C61.8346 110.316 61.7146 110.348 61.5546 110.348H57.5226V109.604H61.2186L61.0146 109.772C61.0146 109.372 60.9546 109.032 60.8346 108.752C60.7226 108.472 60.5506 108.26 60.3186 108.116C60.0946 107.964 59.8146 107.888 59.4786 107.888C59.1026 107.888 58.7826 107.976 58.5186 108.152C58.2626 108.328 58.0666 108.572 57.9306 108.884C57.7946 109.196 57.7266 109.56 57.7266 109.976V110.048C57.7266 110.752 57.8906 111.284 58.2186 111.644C58.5546 111.996 59.0386 112.172 59.6706 112.172C59.9106 112.172 60.1626 112.14 60.4266 112.076C60.6986 112.012 60.9546 111.904 61.1946 111.752C61.3306 111.672 61.4506 111.636 61.5546 111.644C61.6666 111.652 61.7546 111.688 61.8186 111.752C61.8906 111.816 61.9346 111.896 61.9506 111.992C61.9666 112.088 61.9506 112.188 61.9026 112.292C61.8546 112.388 61.7706 112.476 61.6506 112.556C61.3786 112.74 61.0626 112.88 60.7026 112.976C60.3426 113.064 59.9946 113.108 59.6586 113.108ZM63.9799 113.084C63.7879 113.084 63.6399 113.032 63.5359 112.928C63.4319 112.816 63.3799 112.664 63.3799 112.472V107.672C63.3799 107.472 63.4319 107.32 63.5359 107.216C63.6399 107.112 63.7839 107.06 63.9679 107.06C64.1599 107.06 64.3039 107.112 64.3999 107.216C64.5039 107.32 64.5559 107.472 64.5559 107.672V108.656L64.4239 108.392C64.5839 107.968 64.8319 107.636 65.1679 107.396C65.5039 107.156 65.9079 107.036 66.3799 107.036C66.8679 107.036 67.2639 107.152 67.5679 107.384C67.8719 107.616 68.0799 107.972 68.1919 108.452H68.0239C68.1759 108.012 68.4359 107.668 68.8039 107.42C69.1719 107.164 69.5999 107.036 70.0879 107.036C70.5359 107.036 70.9039 107.124 71.1919 107.3C71.4799 107.468 71.6959 107.728 71.8399 108.08C71.9839 108.424 72.0559 108.86 72.0559 109.388V112.472C72.0559 112.664 71.9999 112.816 71.8879 112.928C71.7839 113.032 71.6359 113.084 71.4439 113.084C71.2519 113.084 71.1039 113.032 70.9999 112.928C70.8959 112.816 70.8439 112.664 70.8439 112.472V109.448C70.8439 108.952 70.7559 108.588 70.5799 108.356C70.4119 108.124 70.1319 108.008 69.7399 108.008C69.2999 108.008 68.9519 108.16 68.6959 108.464C68.4399 108.768 68.3119 109.188 68.3119 109.724V112.472C68.3119 112.664 68.2599 112.816 68.1559 112.928C68.0519 113.032 67.9039 113.084 67.7119 113.084C67.5199 113.084 67.3679 113.032 67.2559 112.928C67.1519 112.816 67.0999 112.664 67.0999 112.472V109.448C67.0999 108.952 67.0159 108.588 66.8479 108.356C66.6799 108.124 66.3999 108.008 66.0079 108.008C65.5679 108.008 65.2199 108.16 64.9639 108.464C64.7159 108.768 64.5919 109.188 64.5919 109.724V112.472C64.5919 112.88 64.3879 113.084 63.9799 113.084ZM74.3504 113.072C74.1584 113.072 74.0104 113.016 73.9064 112.904C73.8024 112.784 73.7504 112.62 73.7504 112.412V107.732C73.7504 107.524 73.8024 107.364 73.9064 107.252C74.0104 107.14 74.1584 107.084 74.3504 107.084C74.5424 107.084 74.6904 107.14 74.7944 107.252C74.9064 107.364 74.9624 107.524 74.9624 107.732V112.412C74.9624 112.62 74.9104 112.784 74.8064 112.904C74.7024 113.016 74.5504 113.072 74.3504 113.072ZM74.3504 105.836C74.1104 105.836 73.9224 105.776 73.7864 105.656C73.6584 105.536 73.5944 105.368 73.5944 105.152C73.5944 104.928 73.6584 104.76 73.7864 104.648C73.9224 104.528 74.1104 104.468 74.3504 104.468C74.5904 104.468 74.7744 104.528 74.9024 104.648C75.0384 104.76 75.1064 104.928 75.1064 105.152C75.1064 105.368 75.0384 105.536 74.9024 105.656C74.7744 105.776 74.5904 105.836 74.3504 105.836ZM77.2684 113.084C77.0764 113.084 76.9284 113.032 76.8244 112.928C76.7204 112.816 76.6684 112.664 76.6684 112.472V107.672C76.6684 107.472 76.7204 107.32 76.8244 107.216C76.9284 107.112 77.0724 107.06 77.2564 107.06C77.4484 107.06 77.5924 107.112 77.6884 107.216C77.7924 107.32 77.8444 107.472 77.8444 107.672V108.608L77.7124 108.392C77.8884 107.944 78.1644 107.608 78.5404 107.384C78.9164 107.152 79.3484 107.036 79.8364 107.036C80.3004 107.036 80.6844 107.124 80.9884 107.3C81.3004 107.468 81.5324 107.728 81.6844 108.08C81.8364 108.424 81.9124 108.86 81.9124 109.388V112.472C81.9124 112.664 81.8604 112.816 81.7564 112.928C81.6524 113.032 81.5044 113.084 81.3124 113.084C81.1124 113.084 80.9604 113.032 80.8564 112.928C80.7524 112.816 80.7004 112.664 80.7004 112.472V109.46C80.7004 108.956 80.6004 108.588 80.4004 108.356C80.2084 108.124 79.9044 108.008 79.4884 108.008C79.0004 108.008 78.6084 108.16 78.3124 108.464C78.0244 108.768 77.8804 109.176 77.8804 109.688V112.472C77.8804 112.88 77.6764 113.084 77.2684 113.084ZM85.8145 113.108C85.3025 113.108 84.8505 112.988 84.4585 112.748C84.0745 112.5 83.7745 112.148 83.5585 111.692C83.3425 111.228 83.2345 110.688 83.2345 110.072C83.2345 109.44 83.3425 108.9 83.5585 108.452C83.7745 108.004 84.0745 107.656 84.4585 107.408C84.8505 107.16 85.3025 107.036 85.8145 107.036C86.3265 107.036 86.7665 107.164 87.1345 107.42C87.5105 107.668 87.7625 108.004 87.8905 108.428H87.7585V105.068C87.7585 104.868 87.8105 104.716 87.9145 104.612C88.0185 104.508 88.1665 104.456 88.3585 104.456C88.5505 104.456 88.6985 104.508 88.8025 104.612C88.9145 104.716 88.9705 104.868 88.9705 105.068V112.472C88.9705 112.664 88.9185 112.816 88.8145 112.928C88.7105 113.032 88.5625 113.084 88.3705 113.084C88.1785 113.084 88.0305 113.032 87.9265 112.928C87.8225 112.816 87.7705 112.664 87.7705 112.472V111.416L87.9025 111.68C87.7745 112.112 87.5225 112.46 87.1465 112.724C86.7785 112.98 86.3345 113.108 85.8145 113.108ZM86.1265 112.172C86.4545 112.172 86.7425 112.092 86.9905 111.932C87.2385 111.772 87.4305 111.536 87.5665 111.224C87.7105 110.912 87.7825 110.528 87.7825 110.072C87.7825 109.384 87.6305 108.864 87.3265 108.512C87.0225 108.16 86.6225 107.984 86.1265 107.984C85.7905 107.984 85.4985 108.064 85.2505 108.224C85.0025 108.376 84.8065 108.608 84.6625 108.92C84.5265 109.232 84.4585 109.616 84.4585 110.072C84.4585 110.752 84.6105 111.272 84.9145 111.632C85.2185 111.992 85.6225 112.172 86.1265 112.172ZM93.4203 113.108C92.7803 113.108 92.2283 112.988 91.7643 112.748C91.3083 112.5 90.9523 112.152 90.6963 111.704C90.4483 111.248 90.3243 110.708 90.3243 110.084C90.3243 109.476 90.4483 108.944 90.6963 108.488C90.9443 108.032 91.2843 107.676 91.7163 107.42C92.1483 107.164 92.6403 107.036 93.1923 107.036C93.6003 107.036 93.9643 107.104 94.2843 107.24C94.6043 107.368 94.8763 107.56 95.1003 107.816C95.3323 108.064 95.5043 108.368 95.6163 108.728C95.7363 109.088 95.7963 109.492 95.7963 109.94C95.7963 110.076 95.7563 110.18 95.6763 110.252C95.5963 110.316 95.4763 110.348 95.3163 110.348H91.2843V109.604H94.9803L94.7763 109.772C94.7763 109.372 94.7163 109.032 94.5963 108.752C94.4843 108.472 94.3123 108.26 94.0803 108.116C93.8563 107.964 93.5763 107.888 93.2403 107.888C92.8643 107.888 92.5443 107.976 92.2803 108.152C92.0243 108.328 91.8283 108.572 91.6923 108.884C91.5563 109.196 91.4883 109.56 91.4883 109.976V110.048C91.4883 110.752 91.6523 111.284 91.9803 111.644C92.3163 111.996 92.8003 112.172 93.4323 112.172C93.6723 112.172 93.9243 112.14 94.1883 112.076C94.4603 112.012 94.7163 111.904 94.9563 111.752C95.0923 111.672 95.2123 111.636 95.3163 111.644C95.4283 111.652 95.5163 111.688 95.5803 111.752C95.6523 111.816 95.6963 111.896 95.7123 111.992C95.7283 112.088 95.7123 112.188 95.6643 112.292C95.6163 112.388 95.5323 112.476 95.4123 112.556C95.1403 112.74 94.8243 112.88 94.4643 112.976C94.1043 113.064 93.7563 113.108 93.4203 113.108ZM97.7296 113.084C97.5296 113.084 97.3776 113.032 97.2736 112.928C97.1696 112.816 97.1176 112.664 97.1176 112.472V107.672C97.1176 107.472 97.1696 107.32 97.2736 107.216C97.3776 107.112 97.5216 107.06 97.7056 107.06C97.8976 107.06 98.0416 107.112 98.1376 107.216C98.2416 107.32 98.2936 107.472 98.2936 107.672V108.548H98.1736C98.3016 108.068 98.5376 107.704 98.8816 107.456C99.2256 107.208 99.6656 107.064 100.202 107.024C100.346 107.016 100.458 107.052 100.538 107.132C100.626 107.212 100.674 107.336 100.682 107.504C100.698 107.672 100.662 107.808 100.574 107.912C100.486 108.008 100.35 108.064 100.166 108.08L99.9376 108.104C99.4176 108.152 99.0216 108.316 98.7496 108.596C98.4776 108.876 98.3416 109.26 98.3416 109.748V112.472C98.3416 112.664 98.2896 112.816 98.1856 112.928C98.0896 113.032 97.9376 113.084 97.7296 113.084Z" fill="white"/>
<rect x="7.5" y="192.5" width="103" height="33" rx="16.5" fill="#FE5000"/>
<rect x="7.5" y="192.5" width="103" height="33" rx="16.5" stroke="url(#paint3_linear_493_708)"/>
<path fill-rule="evenodd" clip-rule="evenodd" d="M32.7933 204.93C32.7933 206.548 31.6847 207.86 30.3171 207.86C28.9494 207.86 27.8408 206.548 27.8408 204.93C27.8408 203.312 28.9494 202 30.3171 202C31.6847 202 32.7933 203.312 32.7933 204.93ZM31.7826 204.93C31.7826 205.946 31.0949 206.703 30.3171 206.703C29.5393 206.703 28.8515 205.946 28.8515 204.93C28.8515 203.914 29.5393 203.157 30.3171 203.157C31.0949 203.157 31.7826 203.914 31.7826 204.93Z" fill="white"/>
<path d="M28.3648 209.707C29.1488 209.614 29.6959 209.598 30.4019 209.705C30.6785 209.747 30.9327 209.525 30.9696 209.209C31.0065 208.892 30.8121 208.601 30.5355 208.559C29.7253 208.435 29.0933 208.458 28.2601 208.557C27.0808 208.697 26.0451 209.086 25.2887 209.662C24.5372 210.234 23.9999 211.047 24 212.026L24 212.524C24.0001 213.483 24.6794 214.259 25.5168 214.259H29.8622C30.1413 214.259 30.3676 214.001 30.3676 213.681C30.3676 213.362 30.1413 213.103 29.8622 213.103H25.5168C25.2372 213.103 25.0108 212.844 25.0108 212.524L25.0107 212.026C25.0107 211.576 25.2567 211.076 25.8487 210.625C26.4358 210.178 27.3036 209.834 28.3648 209.707Z" fill="white"/>
<path d="M30.15 211.421L31.8798 212.996L31.3418 215.364C31.2361 215.805 31.6899 216.168 32.0589 215.919L33.9894 214.638L35.9197 215.918C36.2785 216.156 36.7319 215.805 36.6369 215.363L36.0989 212.996L37.8289 211.421C38.1557 211.127 37.987 210.549 37.5546 210.515L35.2866 210.333L34.4323 208.079C34.2741 207.66 33.715 207.66 33.5461 208.079L32.6918 210.334L30.4239 210.515C29.9917 210.56 29.8228 211.127 30.15 211.421Z" fill="white"/>
<path d="M47.944 213.108C47.024 213.108 46.248 212.936 45.616 212.592C44.984 212.24 44.504 211.74 44.176 211.092C43.856 210.444 43.696 209.672 43.696 208.776C43.696 208.104 43.788 207.504 43.972 206.976C44.164 206.44 44.436 205.984 44.788 205.608C45.148 205.224 45.584 204.932 46.096 204.732C46.616 204.532 47.204 204.432 47.86 204.432C48.34 204.432 48.812 204.496 49.276 204.624C49.74 204.744 50.164 204.944 50.548 205.224C50.66 205.304 50.732 205.396 50.764 205.5C50.796 205.604 50.796 205.712 50.764 205.824C50.74 205.928 50.688 206.02 50.608 206.1C50.536 206.18 50.444 206.228 50.332 206.244C50.228 206.26 50.112 206.228 49.984 206.148C49.672 205.932 49.344 205.776 49 205.68C48.656 205.576 48.276 205.524 47.86 205.524C47.236 205.524 46.708 205.652 46.276 205.908C45.852 206.164 45.532 206.536 45.316 207.024C45.1 207.504 44.992 208.088 44.992 208.776C44.992 209.84 45.244 210.648 45.748 211.2C46.252 211.752 47 212.028 47.992 212.028C48.352 212.028 48.704 211.996 49.048 211.932C49.4 211.86 49.736 211.76 50.056 211.632L49.804 212.256V209.46H48.256C48.096 209.46 47.968 209.42 47.872 209.34C47.784 209.252 47.74 209.132 47.74 208.98C47.74 208.828 47.784 208.716 47.872 208.644C47.968 208.564 48.096 208.524 48.256 208.524H50.332C50.5 208.524 50.628 208.568 50.716 208.656C50.804 208.744 50.848 208.872 50.848 209.04V212.064C50.848 212.208 50.82 212.332 50.764 212.436C50.716 212.532 50.632 212.604 50.512 212.652C50.168 212.788 49.764 212.9 49.3 212.988C48.836 213.068 48.384 213.108 47.944 213.108ZM55.3773 213.108C54.7373 213.108 54.1853 212.988 53.7213 212.748C53.2653 212.5 52.9093 212.152 52.6533 211.704C52.4053 211.248 52.2813 210.708 52.2813 210.084C52.2813 209.476 52.4053 208.944 52.6533 208.488C52.9013 208.032 53.2413 207.676 53.6733 207.42C54.1053 207.164 54.5973 207.036 55.1493 207.036C55.5573 207.036 55.9213 207.104 56.2413 207.24C56.5613 207.368 56.8333 207.56 57.0573 207.816C57.2893 208.064 57.4613 208.368 57.5733 208.728C57.6933 209.088 57.7533 209.492 57.7533 209.94C57.7533 210.076 57.7133 210.18 57.6333 210.252C57.5533 210.316 57.4333 210.348 57.2733 210.348H53.2413V209.604H56.9373L56.7333 209.772C56.7333 209.372 56.6733 209.032 56.5533 208.752C56.4413 208.472 56.2693 208.26 56.0373 208.116C55.8133 207.964 55.5333 207.888 55.1973 207.888C54.8213 207.888 54.5013 207.976 54.2373 208.152C53.9813 208.328 53.7853 208.572 53.6493 208.884C53.5133 209.196 53.4453 209.56 53.4453 209.976V210.048C53.4453 210.752 53.6093 211.284 53.9373 211.644C54.2733 211.996 54.7573 212.172 55.3893 212.172C55.6293 212.172 55.8813 212.14 56.1453 212.076C56.4173 212.012 56.6733 211.904 56.9133 211.752C57.0493 211.672 57.1693 211.636 57.2733 211.644C57.3853 211.652 57.4733 211.688 57.5373 211.752C57.6093 211.816 57.6533 211.896 57.6693 211.992C57.6853 212.088 57.6693 212.188 57.6213 212.292C57.5733 212.388 57.4893 212.476 57.3693 212.556C57.0973 212.74 56.7813 212.88 56.4213 212.976C56.0613 213.064 55.7133 213.108 55.3773 213.108ZM59.6747 213.084C59.4827 213.084 59.3347 213.032 59.2307 212.928C59.1267 212.816 59.0747 212.664 59.0747 212.472V207.672C59.0747 207.472 59.1267 207.32 59.2307 207.216C59.3347 207.112 59.4787 207.06 59.6627 207.06C59.8547 207.06 59.9987 207.112 60.0947 207.216C60.1987 207.32 60.2507 207.472 60.2507 207.672V208.608L60.1187 208.392C60.2947 207.944 60.5707 207.608 60.9467 207.384C61.3227 207.152 61.7547 207.036 62.2427 207.036C62.7067 207.036 63.0907 207.124 63.3947 207.3C63.7067 207.468 63.9387 207.728 64.0907 208.08C64.2427 208.424 64.3187 208.86 64.3187 209.388V212.472C64.3187 212.664 64.2667 212.816 64.1627 212.928C64.0587 213.032 63.9107 213.084 63.7187 213.084C63.5187 213.084 63.3667 213.032 63.2627 212.928C63.1587 212.816 63.1067 212.664 63.1067 212.472V209.46C63.1067 208.956 63.0067 208.588 62.8067 208.356C62.6147 208.124 62.3107 208.008 61.8947 208.008C61.4067 208.008 61.0147 208.16 60.7187 208.464C60.4307 208.768 60.2867 209.176 60.2867 209.688V212.472C60.2867 212.88 60.0827 213.084 59.6747 213.084ZM68.7367 213.108C68.0967 213.108 67.5447 212.988 67.0807 212.748C66.6247 212.5 66.2687 212.152 66.0127 211.704C65.7647 211.248 65.6407 210.708 65.6407 210.084C65.6407 209.476 65.7647 208.944 66.0127 208.488C66.2607 208.032 66.6007 207.676 67.0327 207.42C67.4647 207.164 67.9567 207.036 68.5087 207.036C68.9167 207.036 69.2807 207.104 69.6007 207.24C69.9207 207.368 70.1927 207.56 70.4167 207.816C70.6487 208.064 70.8207 208.368 70.9327 208.728C71.0527 209.088 71.1127 209.492 71.1127 209.94C71.1127 210.076 71.0727 210.18 70.9927 210.252C70.9127 210.316 70.7927 210.348 70.6327 210.348H66.6007V209.604H70.2967L70.0927 209.772C70.0927 209.372 70.0327 209.032 69.9127 208.752C69.8007 208.472 69.6287 208.26 69.3967 208.116C69.1727 207.964 68.8927 207.888 68.5567 207.888C68.1807 207.888 67.8607 207.976 67.5967 208.152C67.3407 208.328 67.1447 208.572 67.0087 208.884C66.8727 209.196 66.8047 209.56 66.8047 209.976V210.048C66.8047 210.752 66.9687 211.284 67.2967 211.644C67.6327 211.996 68.1167 212.172 68.7487 212.172C68.9887 212.172 69.2407 212.14 69.5047 212.076C69.7767 212.012 70.0327 211.904 70.2727 211.752C70.4087 211.672 70.5287 211.636 70.6327 211.644C70.7447 211.652 70.8327 211.688 70.8967 211.752C70.9687 211.816 71.0127 211.896 71.0287 211.992C71.0447 212.088 71.0287 212.188 70.9807 212.292C70.9327 212.388 70.8487 212.476 70.7287 212.556C70.4567 212.74 70.1407 212.88 69.7807 212.976C69.4207 213.064 69.0727 213.108 68.7367 213.108ZM73.046 213.084C72.846 213.084 72.694 213.032 72.59 212.928C72.486 212.816 72.434 212.664 72.434 212.472V207.672C72.434 207.472 72.486 207.32 72.59 207.216C72.694 207.112 72.838 207.06 73.022 207.06C73.214 207.06 73.358 207.112 73.454 207.216C73.558 207.32 73.61 207.472 73.61 207.672V208.548H73.49C73.618 208.068 73.854 207.704 74.198 207.456C74.542 207.208 74.982 207.064 75.518 207.024C75.662 207.016 75.774 207.052 75.854 207.132C75.942 207.212 75.99 207.336 75.998 207.504C76.014 207.672 75.978 207.808 75.89 207.912C75.802 208.008 75.666 208.064 75.482 208.08L75.254 208.104C74.734 208.152 74.338 208.316 74.066 208.596C73.794 208.876 73.658 209.26 73.658 209.748V212.472C73.658 212.664 73.606 212.816 73.502 212.928C73.406 213.032 73.254 213.084 73.046 213.084ZM78.724 213.108C78.316 213.108 77.948 213.028 77.62 212.868C77.3 212.708 77.048 212.492 76.864 212.22C76.68 211.948 76.588 211.64 76.588 211.296C76.588 210.864 76.696 210.524 76.912 210.276C77.136 210.02 77.5 209.84 78.004 209.736C78.516 209.624 79.204 209.568 80.068 209.568H80.632V210.312H80.08C79.504 210.312 79.048 210.34 78.712 210.396C78.376 210.452 78.136 210.548 77.992 210.684C77.856 210.812 77.788 210.992 77.788 211.224C77.788 211.528 77.892 211.776 78.1 211.968C78.308 212.152 78.596 212.244 78.964 212.244C79.26 212.244 79.52 212.176 79.744 212.04C79.968 211.896 80.144 211.704 80.272 211.464C80.408 211.224 80.476 210.948 80.476 210.636V209.256C80.476 208.8 80.38 208.472 80.188 208.272C79.996 208.072 79.68 207.972 79.24 207.972C78.984 207.972 78.716 208.004 78.436 208.068C78.164 208.132 77.88 208.24 77.584 208.392C77.448 208.456 77.332 208.476 77.236 208.452C77.14 208.428 77.064 208.376 77.008 208.296C76.952 208.208 76.92 208.116 76.912 208.02C76.912 207.916 76.936 207.816 76.984 207.72C77.04 207.624 77.132 207.552 77.26 207.504C77.612 207.336 77.96 207.216 78.304 207.144C78.648 207.072 78.972 207.036 79.276 207.036C79.812 207.036 80.252 207.12 80.596 207.288C80.948 207.456 81.208 207.712 81.376 208.056C81.544 208.4 81.628 208.844 81.628 209.388V212.472C81.628 212.664 81.58 212.816 81.484 212.928C81.388 213.032 81.248 213.084 81.064 213.084C80.888 213.084 80.748 213.032 80.644 212.928C80.54 212.816 80.488 212.664 80.488 212.472V211.692H80.596C80.532 211.988 80.412 212.244 80.236 212.46C80.068 212.668 79.856 212.828 79.6 212.94C79.344 213.052 79.052 213.108 78.724 213.108ZM85.7933 213.108C85.3133 213.108 84.9093 213.024 84.5813 212.856C84.2533 212.688 84.0093 212.44 83.8493 212.112C83.6893 211.784 83.6093 211.384 83.6093 210.912V208.08H82.8893C82.7293 208.08 82.6053 208.04 82.5173 207.96C82.4293 207.872 82.3853 207.756 82.3853 207.612C82.3853 207.46 82.4293 207.344 82.5173 207.264C82.6053 207.184 82.7293 207.144 82.8893 207.144H83.6093V205.908C83.6093 205.708 83.6613 205.556 83.7653 205.452C83.8773 205.348 84.0293 205.296 84.2213 205.296C84.4133 205.296 84.5613 205.348 84.6653 205.452C84.7693 205.556 84.8213 205.708 84.8213 205.908V207.144H86.2253C86.3853 207.144 86.5093 207.184 86.5973 207.264C86.6853 207.344 86.7293 207.46 86.7293 207.612C86.7293 207.756 86.6853 207.872 86.5973 207.96C86.5093 208.04 86.3853 208.08 86.2253 208.08H84.8213V210.816C84.8213 211.24 84.9093 211.56 85.0853 211.776C85.2693 211.992 85.5653 212.1 85.9733 212.1C86.1173 212.1 86.2413 212.088 86.3453 212.064C86.4573 212.032 86.5493 212.012 86.6213 212.004C86.7093 212.004 86.7813 212.036 86.8373 212.1C86.8933 212.156 86.9213 212.268 86.9213 212.436C86.9213 212.556 86.8973 212.668 86.8493 212.772C86.8093 212.876 86.7333 212.944 86.6213 212.976C86.5253 213.008 86.3933 213.036 86.2253 213.06C86.0653 213.092 85.9213 213.108 85.7933 213.108ZM90.3695 213.108C89.7295 213.108 89.1775 212.988 88.7135 212.748C88.2575 212.5 87.9015 212.152 87.6455 211.704C87.3975 211.248 87.2735 210.708 87.2735 210.084C87.2735 209.476 87.3975 208.944 87.6455 208.488C87.8935 208.032 88.2335 207.676 88.6655 207.42C89.0975 207.164 89.5895 207.036 90.1415 207.036C90.5495 207.036 90.9135 207.104 91.2335 207.24C91.5535 207.368 91.8255 207.56 92.0495 207.816C92.2815 208.064 92.4535 208.368 92.5655 208.728C92.6855 209.088 92.7455 209.492 92.7455 209.94C92.7455 210.076 92.7055 210.18 92.6255 210.252C92.5455 210.316 92.4255 210.348 92.2655 210.348H88.2335V209.604H91.9295L91.7255 209.772C91.7255 209.372 91.6655 209.032 91.5455 208.752C91.4335 208.472 91.2615 208.26 91.0295 208.116C90.8055 207.964 90.5255 207.888 90.1895 207.888C89.8135 207.888 89.4935 207.976 89.2295 208.152C88.9735 208.328 88.7775 208.572 88.6415 208.884C88.5055 209.196 88.4375 209.56 88.4375 209.976V210.048C88.4375 210.752 88.6015 211.284 88.9295 211.644C89.2655 211.996 89.7495 212.172 90.3815 212.172C90.6215 212.172 90.8735 212.14 91.1375 212.076C91.4095 212.012 91.6655 211.904 91.9055 211.752C92.0415 211.672 92.1615 211.636 92.2655 211.644C92.3775 211.652 92.4655 211.688 92.5295 211.752C92.6015 211.816 92.6455 211.896 92.6615 211.992C92.6775 212.088 92.6615 212.188 92.6135 212.292C92.5655 212.388 92.4815 212.476 92.3615 212.556C92.0895 212.74 91.7735 212.88 91.4135 212.976C91.0535 213.064 90.7055 213.108 90.3695 213.108Z" fill="white"/>
<rect x="12.5" y="142.5" width="93" height="33" rx="16.5" fill="#FF7B1D"/>
<rect x="12.5" y="142.5" width="93" height="33" rx="16.5" stroke="url(#paint4_linear_493_708)"/>
<path d="M33.776 163.108C32.92 163.108 32.188 162.932 31.58 162.58C30.972 162.228 30.504 161.728 30.176 161.08C29.856 160.424 29.696 159.652 29.696 158.764C29.696 158.1 29.788 157.504 29.972 156.976C30.156 156.44 30.42 155.984 30.764 155.608C31.116 155.224 31.544 154.932 32.048 154.732C32.56 154.532 33.136 154.432 33.776 154.432C34.248 154.432 34.7 154.496 35.132 154.624C35.572 154.752 35.952 154.936 36.272 155.176C36.408 155.264 36.496 155.372 36.536 155.5C36.584 155.62 36.592 155.736 36.56 155.848C36.536 155.96 36.484 156.056 36.404 156.136C36.324 156.208 36.22 156.248 36.092 156.256C35.972 156.264 35.84 156.22 35.696 156.124C35.432 155.924 35.14 155.776 34.82 155.68C34.5 155.584 34.164 155.536 33.812 155.536C33.204 155.536 32.692 155.664 32.276 155.92C31.86 156.168 31.544 156.532 31.328 157.012C31.112 157.492 31.004 158.076 31.004 158.764C31.004 159.452 31.112 160.04 31.328 160.528C31.544 161.008 31.86 161.376 32.276 161.632C32.692 161.88 33.204 162.004 33.812 162.004C34.164 162.004 34.5 161.956 34.82 161.86C35.148 161.756 35.456 161.604 35.744 161.404C35.888 161.316 36.016 161.276 36.128 161.284C36.248 161.292 36.348 161.332 36.428 161.404C36.508 161.476 36.56 161.568 36.584 161.68C36.616 161.784 36.612 161.896 36.572 162.016C36.54 162.128 36.464 162.224 36.344 162.304C36.016 162.568 35.628 162.768 35.18 162.904C34.732 163.04 34.264 163.108 33.776 163.108ZM40.0835 163.108C39.4915 163.108 38.9795 162.984 38.5475 162.736C38.1235 162.488 37.7915 162.136 37.5515 161.68C37.3115 161.224 37.1915 160.688 37.1915 160.072C37.1915 159.6 37.2595 159.18 37.3955 158.812C37.5315 158.444 37.7235 158.128 37.9715 157.864C38.2275 157.592 38.5315 157.388 38.8835 157.252C39.2435 157.108 39.6435 157.036 40.0835 157.036C40.6675 157.036 41.1715 157.16 41.5955 157.408C42.0275 157.656 42.3635 158.008 42.6035 158.464C42.8435 158.912 42.9635 159.448 42.9635 160.072C42.9635 160.536 42.8955 160.956 42.7595 161.332C42.6235 161.708 42.4275 162.028 42.1715 162.292C41.9235 162.556 41.6195 162.76 41.2595 162.904C40.9075 163.04 40.5155 163.108 40.0835 163.108ZM40.0835 162.172C40.4115 162.172 40.6995 162.092 40.9475 161.932C41.1955 161.772 41.3875 161.536 41.5235 161.224C41.6675 160.912 41.7395 160.528 41.7395 160.072C41.7395 159.384 41.5875 158.864 41.2835 158.512C40.9795 158.16 40.5795 157.984 40.0835 157.984C39.7475 157.984 39.4555 158.064 39.2075 158.224C38.9595 158.376 38.7635 158.608 38.6195 158.92C38.4835 159.232 38.4155 159.616 38.4155 160.072C38.4155 160.752 38.5675 161.272 38.8715 161.632C39.1755 161.992 39.5795 162.172 40.0835 162.172ZM44.9247 163.084C44.7327 163.084 44.5847 163.032 44.4807 162.928C44.3767 162.816 44.3247 162.664 44.3247 162.472V157.672C44.3247 157.472 44.3767 157.32 44.4807 157.216C44.5847 157.112 44.7287 157.06 44.9127 157.06C45.1047 157.06 45.2487 157.112 45.3447 157.216C45.4487 157.32 45.5007 157.472 45.5007 157.672V158.608L45.3687 158.392C45.5447 157.944 45.8207 157.608 46.1967 157.384C46.5727 157.152 47.0047 157.036 47.4927 157.036C47.9567 157.036 48.3407 157.124 48.6447 157.3C48.9567 157.468 49.1887 157.728 49.3407 158.08C49.4927 158.424 49.5687 158.86 49.5687 159.388V162.472C49.5687 162.664 49.5167 162.816 49.4127 162.928C49.3087 163.032 49.1607 163.084 48.9687 163.084C48.7687 163.084 48.6167 163.032 48.5127 162.928C48.4087 162.816 48.3567 162.664 48.3567 162.472V159.46C48.3567 158.956 48.2567 158.588 48.0567 158.356C47.8647 158.124 47.5607 158.008 47.1447 158.008C46.6567 158.008 46.2647 158.16 45.9687 158.464C45.6807 158.768 45.5367 159.176 45.5367 159.688V162.472C45.5367 162.88 45.3327 163.084 44.9247 163.084ZM53.7347 163.108C53.2547 163.108 52.8507 163.024 52.5227 162.856C52.1947 162.688 51.9507 162.44 51.7907 162.112C51.6307 161.784 51.5507 161.384 51.5507 160.912V158.08H50.8307C50.6707 158.08 50.5467 158.04 50.4587 157.96C50.3707 157.872 50.3267 157.756 50.3267 157.612C50.3267 157.46 50.3707 157.344 50.4587 157.264C50.5467 157.184 50.6707 157.144 50.8307 157.144H51.5507V155.908C51.5507 155.708 51.6027 155.556 51.7067 155.452C51.8187 155.348 51.9707 155.296 52.1627 155.296C52.3547 155.296 52.5027 155.348 52.6067 155.452C52.7107 155.556 52.7627 155.708 52.7627 155.908V157.144H54.1667C54.3267 157.144 54.4507 157.184 54.5387 157.264C54.6267 157.344 54.6707 157.46 54.6707 157.612C54.6707 157.756 54.6267 157.872 54.5387 157.96C54.4507 158.04 54.3267 158.08 54.1667 158.08H52.7627V160.816C52.7627 161.24 52.8507 161.56 53.0267 161.776C53.2107 161.992 53.5067 162.1 53.9147 162.1C54.0587 162.1 54.1827 162.088 54.2867 162.064C54.3987 162.032 54.4907 162.012 54.5627 162.004C54.6507 162.004 54.7227 162.036 54.7787 162.1C54.8347 162.156 54.8627 162.268 54.8627 162.436C54.8627 162.556 54.8387 162.668 54.7907 162.772C54.7507 162.876 54.6747 162.944 54.5627 162.976C54.4667 163.008 54.3347 163.036 54.1667 163.06C54.0067 163.092 53.8627 163.108 53.7347 163.108ZM57.4935 163.108C57.0855 163.108 56.7175 163.028 56.3895 162.868C56.0695 162.708 55.8175 162.492 55.6335 162.22C55.4495 161.948 55.3575 161.64 55.3575 161.296C55.3575 160.864 55.4655 160.524 55.6815 160.276C55.9055 160.02 56.2695 159.84 56.7735 159.736C57.2855 159.624 57.9735 159.568 58.8375 159.568H59.4015V160.312H58.8495C58.2735 160.312 57.8175 160.34 57.4815 160.396C57.1455 160.452 56.9055 160.548 56.7615 160.684C56.6255 160.812 56.5575 160.992 56.5575 161.224C56.5575 161.528 56.6615 161.776 56.8695 161.968C57.0775 162.152 57.3655 162.244 57.7335 162.244C58.0295 162.244 58.2895 162.176 58.5135 162.04C58.7375 161.896 58.9135 161.704 59.0415 161.464C59.1775 161.224 59.2455 160.948 59.2455 160.636V159.256C59.2455 158.8 59.1495 158.472 58.9575 158.272C58.7655 158.072 58.4495 157.972 58.0095 157.972C57.7535 157.972 57.4855 158.004 57.2055 158.068C56.9335 158.132 56.6495 158.24 56.3535 158.392C56.2175 158.456 56.1015 158.476 56.0055 158.452C55.9095 158.428 55.8335 158.376 55.7775 158.296C55.7215 158.208 55.6895 158.116 55.6815 158.02C55.6815 157.916 55.7055 157.816 55.7535 157.72C55.8095 157.624 55.9015 157.552 56.0295 157.504C56.3815 157.336 56.7295 157.216 57.0735 157.144C57.4175 157.072 57.7415 157.036 58.0455 157.036C58.5815 157.036 59.0215 157.12 59.3655 157.288C59.7175 157.456 59.9775 157.712 60.1455 158.056C60.3135 158.4 60.3975 158.844 60.3975 159.388V162.472C60.3975 162.664 60.3495 162.816 60.2535 162.928C60.1575 163.032 60.0175 163.084 59.8335 163.084C59.6575 163.084 59.5175 163.032 59.4135 162.928C59.3095 162.816 59.2575 162.664 59.2575 162.472V161.692H59.3655C59.3015 161.988 59.1815 162.244 59.0055 162.46C58.8375 162.668 58.6255 162.828 58.3695 162.94C58.1135 163.052 57.8215 163.108 57.4935 163.108ZM64.6468 163.108C64.0468 163.108 63.5268 162.984 63.0868 162.736C62.6548 162.48 62.3188 162.124 62.0788 161.668C61.8388 161.204 61.7188 160.66 61.7188 160.036C61.7188 159.572 61.7868 159.156 61.9228 158.788C62.0588 158.412 62.2508 158.096 62.4988 157.84C62.7548 157.584 63.0628 157.388 63.4228 157.252C63.7908 157.108 64.1988 157.036 64.6468 157.036C64.9268 157.036 65.2188 157.08 65.5228 157.168C65.8348 157.248 66.1228 157.384 66.3868 157.576C66.4908 157.64 66.5548 157.72 66.5788 157.816C66.6108 157.904 66.6148 157.996 66.5908 158.092C66.5748 158.188 66.5308 158.272 66.4588 158.344C66.3948 158.408 66.3148 158.448 66.2188 158.464C66.1228 158.472 66.0188 158.444 65.9068 158.38C65.7148 158.244 65.5188 158.148 65.3188 158.092C65.1188 158.028 64.9268 157.996 64.7428 157.996C64.4548 157.996 64.1988 158.044 63.9748 158.14C63.7588 158.228 63.5748 158.36 63.4228 158.536C63.2708 158.704 63.1548 158.916 63.0748 159.172C63.0028 159.428 62.9668 159.72 62.9668 160.048C62.9668 160.704 63.1188 161.22 63.4228 161.596C63.7348 161.964 64.1748 162.148 64.7428 162.148C64.9268 162.148 65.1188 162.12 65.3188 162.064C65.5188 162.008 65.7148 161.912 65.9068 161.776C66.0188 161.712 66.1228 161.688 66.2188 161.704C66.3148 161.72 66.3908 161.764 66.4468 161.836C66.5108 161.9 66.5508 161.98 66.5668 162.076C66.5908 162.164 66.5868 162.256 66.5548 162.352C66.5228 162.448 66.4548 162.528 66.3508 162.592C66.0948 162.776 65.8148 162.908 65.5108 162.988C65.2148 163.068 64.9268 163.108 64.6468 163.108ZM70.1761 163.108C69.6961 163.108 69.2921 163.024 68.9641 162.856C68.6361 162.688 68.3921 162.44 68.2321 162.112C68.0721 161.784 67.9921 161.384 67.9921 160.912V158.08H67.2721C67.1121 158.08 66.9881 158.04 66.9001 157.96C66.8121 157.872 66.7681 157.756 66.7681 157.612C66.7681 157.46 66.8121 157.344 66.9001 157.264C66.9881 157.184 67.1121 157.144 67.2721 157.144H67.9921V155.908C67.9921 155.708 68.0441 155.556 68.1481 155.452C68.2601 155.348 68.4121 155.296 68.6041 155.296C68.7961 155.296 68.9441 155.348 69.0481 155.452C69.1521 155.556 69.2041 155.708 69.2041 155.908V157.144H70.6081C70.7681 157.144 70.8921 157.184 70.9801 157.264C71.0681 157.344 71.1121 157.46 71.1121 157.612C71.1121 157.756 71.0681 157.872 70.9801 157.96C70.8921 158.04 70.7681 158.08 70.6081 158.08H69.2041V160.816C69.2041 161.24 69.2921 161.56 69.4681 161.776C69.6521 161.992 69.9481 162.1 70.3561 162.1C70.5001 162.1 70.6241 162.088 70.7281 162.064C70.8401 162.032 70.9321 162.012 71.0041 162.004C71.0921 162.004 71.1641 162.036 71.2201 162.1C71.2761 162.156 71.3041 162.268 71.3041 162.436C71.3041 162.556 71.2801 162.668 71.2321 162.772C71.1921 162.876 71.1161 162.944 71.0041 162.976C70.9081 163.008 70.7761 163.036 70.6081 163.06C70.4481 163.092 70.3041 163.108 70.1761 163.108Z" fill="white"/>
<path d="M82.3708 162.17C82.7491 162.58 83.3623 162.58 83.7406 162.17L88.2163 157.316C88.5946 156.905 88.5946 156.24 88.2163 155.83C87.8381 155.42 87.2248 155.42 86.8466 155.83L82.3708 160.684C81.9926 161.095 81.9926 161.76 82.3708 162.17Z" fill="white"/>
<path d="M83.6703 162.192C84.0485 161.782 84.0485 161.117 83.6703 160.707L79.1534 155.808C78.7752 155.397 78.1619 155.397 77.7837 155.808C77.4054 156.218 77.4054 156.883 77.7837 157.293L82.3005 162.192C82.6788 162.603 83.292 162.603 83.6703 162.192Z" fill="white"/>
<defs>
<linearGradient id="paint0_linear_493_708" x1="66.3707" y1="46" x2="66.3707" y2="78" gradientUnits="userSpaceOnUse">
<stop stop-color="#76BC21" stop-opacity="0.75"/>
<stop offset="1" stop-color="#6EAF20"/>
</linearGradient>
<linearGradient id="paint1_linear_493_708" x1="62.7672" y1="1" x2="62.7672" y2="31" gradientUnits="userSpaceOnUse">
<stop stop-color="#006837" stop-opacity="0.75"/>
<stop offset="1" stop-color="#01592F"/>
</linearGradient>
<linearGradient id="paint2_linear_493_708" x1="68.5" y1="93" x2="68.5" y2="125" gradientUnits="userSpaceOnUse">
<stop stop-color="#FFAA00" stop-opacity="0.75"/>
<stop offset="1" stop-color="#E89B01"/>
</linearGradient>
<linearGradient id="paint3_linear_493_708" x1="67.3534" y1="193" x2="67.3534" y2="225" gradientUnits="userSpaceOnUse">
<stop stop-color="#FE5000" stop-opacity="0.74"/>
<stop offset="1" stop-color="#E74A02"/>
</linearGradient>
<linearGradient id="paint4_linear_493_708" x1="66.5345" y1="143" x2="66.5345" y2="175" gradientUnits="userSpaceOnUse">
<stop stop-color="#FF7B1D" stop-opacity="0.75"/>
<stop offset="1" stop-color="#EB711A"/>
</linearGradient>
</defs>
</svg>
