<svg width="118" height="229" viewBox="0 0 118 229" fill="none" xmlns="http://www.w3.org/2000/svg">
<rect x="14" y="49" width="90" height="32" rx="16" fill="#76BC21" fill-opacity="0.15"/>
<rect x="13.5" y="48.5" width="91" height="33" rx="16.5" stroke="url(#paint0_linear_493_709)" stroke-opacity="0.15"/>
<path d="M33.804 69.108C33.436 69.108 33.076 69.08 32.724 69.024C32.372 68.968 32.04 68.884 31.728 68.772C31.416 68.652 31.136 68.508 30.888 68.34C30.768 68.252 30.684 68.152 30.636 68.04C30.596 67.928 30.584 67.82 30.6 67.716C30.624 67.604 30.672 67.508 30.744 67.428C30.816 67.348 30.904 67.3 31.008 67.284C31.112 67.26 31.228 67.292 31.356 67.38C31.716 67.612 32.096 67.784 32.496 67.896C32.896 68 33.332 68.052 33.804 68.052C34.484 68.052 34.984 67.932 35.304 67.692C35.632 67.444 35.796 67.124 35.796 66.732C35.796 66.412 35.68 66.16 35.448 65.976C35.216 65.784 34.828 65.632 34.284 65.52L33 65.256C32.24 65.096 31.672 64.832 31.296 64.464C30.928 64.096 30.744 63.6 30.744 62.976C30.744 62.6 30.82 62.256 30.972 61.944C31.132 61.632 31.352 61.364 31.632 61.14C31.912 60.908 32.248 60.732 32.64 60.612C33.032 60.492 33.46 60.432 33.924 60.432C34.42 60.432 34.884 60.496 35.316 60.624C35.756 60.752 36.148 60.948 36.492 61.212C36.596 61.284 36.664 61.376 36.696 61.488C36.736 61.592 36.744 61.696 36.72 61.8C36.704 61.904 36.66 61.992 36.588 62.064C36.516 62.136 36.424 62.18 36.312 62.196C36.2 62.204 36.076 62.164 35.94 62.076C35.628 61.868 35.308 61.72 34.98 61.632C34.66 61.536 34.304 61.488 33.912 61.488C33.52 61.488 33.176 61.548 32.88 61.668C32.592 61.788 32.368 61.956 32.208 62.172C32.056 62.388 31.98 62.644 31.98 62.94C31.98 63.276 32.088 63.544 32.304 63.744C32.52 63.944 32.88 64.096 33.384 64.2L34.656 64.464C35.456 64.632 36.052 64.892 36.444 65.244C36.836 65.596 37.032 66.064 37.032 66.648C37.032 67.024 36.956 67.364 36.804 67.668C36.652 67.964 36.436 68.22 36.156 68.436C35.876 68.652 35.536 68.82 35.136 68.94C34.744 69.052 34.3 69.108 33.804 69.108ZM40.1888 69.108C39.7808 69.108 39.4128 69.028 39.0848 68.868C38.7648 68.708 38.5128 68.492 38.3288 68.22C38.1448 67.948 38.0528 67.64 38.0528 67.296C38.0528 66.864 38.1608 66.524 38.3768 66.276C38.6008 66.02 38.9648 65.84 39.4688 65.736C39.9808 65.624 40.6688 65.568 41.5328 65.568H42.0968V66.312H41.5448C40.9688 66.312 40.5128 66.34 40.1768 66.396C39.8408 66.452 39.6008 66.548 39.4568 66.684C39.3208 66.812 39.2528 66.992 39.2528 67.224C39.2528 67.528 39.3568 67.776 39.5648 67.968C39.7728 68.152 40.0608 68.244 40.4288 68.244C40.7248 68.244 40.9848 68.176 41.2088 68.04C41.4328 67.896 41.6088 67.704 41.7368 67.464C41.8728 67.224 41.9408 66.948 41.9408 66.636V65.256C41.9408 64.8 41.8448 64.472 41.6528 64.272C41.4608 64.072 41.1448 63.972 40.7048 63.972C40.4488 63.972 40.1808 64.004 39.9008 64.068C39.6288 64.132 39.3448 64.24 39.0488 64.392C38.9128 64.456 38.7968 64.476 38.7008 64.452C38.6048 64.428 38.5288 64.376 38.4728 64.296C38.4168 64.208 38.3848 64.116 38.3768 64.02C38.3768 63.916 38.4008 63.816 38.4488 63.72C38.5048 63.624 38.5968 63.552 38.7248 63.504C39.0768 63.336 39.4248 63.216 39.7688 63.144C40.1128 63.072 40.4368 63.036 40.7408 63.036C41.2768 63.036 41.7168 63.12 42.0608 63.288C42.4128 63.456 42.6728 63.712 42.8408 64.056C43.0088 64.4 43.0928 64.844 43.0928 65.388V68.472C43.0928 68.664 43.0448 68.816 42.9488 68.928C42.8528 69.032 42.7128 69.084 42.5288 69.084C42.3528 69.084 42.2128 69.032 42.1088 68.928C42.0048 68.816 41.9528 68.664 41.9528 68.472V67.692H42.0608C41.9968 67.988 41.8768 68.244 41.7008 68.46C41.5328 68.668 41.3208 68.828 41.0648 68.94C40.8088 69.052 40.5168 69.108 40.1888 69.108ZM46.9716 69.084C46.8036 69.084 46.6556 69.04 46.5276 68.952C46.4076 68.864 46.3076 68.728 46.2276 68.544L44.2236 63.888C44.1596 63.744 44.1356 63.608 44.1516 63.48C44.1676 63.352 44.2276 63.252 44.3316 63.18C44.4356 63.1 44.5756 63.06 44.7516 63.06C44.9036 63.06 45.0236 63.096 45.1116 63.168C45.1996 63.24 45.2796 63.364 45.3516 63.54L47.1636 68.004H46.8276L48.6756 63.54C48.7476 63.364 48.8276 63.24 48.9156 63.168C49.0116 63.096 49.1436 63.06 49.3116 63.06C49.4556 63.06 49.5676 63.1 49.6476 63.18C49.7356 63.252 49.7876 63.352 49.8036 63.48C49.8276 63.6 49.8076 63.732 49.7436 63.876L47.7156 68.544C47.6436 68.728 47.5436 68.864 47.4156 68.952C47.2876 69.04 47.1396 69.084 46.9716 69.084ZM53.5805 69.108C52.9405 69.108 52.3885 68.988 51.9245 68.748C51.4685 68.5 51.1125 68.152 50.8565 67.704C50.6085 67.248 50.4845 66.708 50.4845 66.084C50.4845 65.476 50.6085 64.944 50.8565 64.488C51.1045 64.032 51.4445 63.676 51.8765 63.42C52.3085 63.164 52.8005 63.036 53.3525 63.036C53.7605 63.036 54.1245 63.104 54.4445 63.24C54.7645 63.368 55.0365 63.56 55.2605 63.816C55.4925 64.064 55.6645 64.368 55.7765 64.728C55.8965 65.088 55.9565 65.492 55.9565 65.94C55.9565 66.076 55.9165 66.18 55.8365 66.252C55.7565 66.316 55.6365 66.348 55.4765 66.348H51.4445V65.604H55.1405L54.9365 65.772C54.9365 65.372 54.8765 65.032 54.7565 64.752C54.6445 64.472 54.4725 64.26 54.2405 64.116C54.0165 63.964 53.7365 63.888 53.4005 63.888C53.0245 63.888 52.7045 63.976 52.4405 64.152C52.1845 64.328 51.9885 64.572 51.8525 64.884C51.7165 65.196 51.6485 65.56 51.6485 65.976V66.048C51.6485 66.752 51.8125 67.284 52.1405 67.644C52.4765 67.996 52.9605 68.172 53.5925 68.172C53.8325 68.172 54.0845 68.14 54.3485 68.076C54.6205 68.012 54.8765 67.904 55.1165 67.752C55.2525 67.672 55.3725 67.636 55.4765 67.644C55.5885 67.652 55.6765 67.688 55.7405 67.752C55.8125 67.816 55.8565 67.896 55.8725 67.992C55.8885 68.088 55.8725 68.188 55.8245 68.292C55.7765 68.388 55.6925 68.476 55.5725 68.556C55.3005 68.74 54.9845 68.88 54.6245 68.976C54.2645 69.064 53.9165 69.108 53.5805 69.108ZM61.2338 69.084C61.0258 69.084 60.8618 69.028 60.7418 68.916C60.6298 68.804 60.5738 68.64 60.5738 68.424V61.212C60.5738 60.996 60.6298 60.832 60.7418 60.72C60.8618 60.6 61.0298 60.54 61.2458 60.54H65.5178C65.6938 60.54 65.8218 60.584 65.9018 60.672C65.9898 60.752 66.0338 60.872 66.0338 61.032C66.0338 61.2 65.9898 61.328 65.9018 61.416C65.8218 61.504 65.6938 61.548 65.5178 61.548H61.8218V64.248H65.2778C65.4378 64.248 65.5618 64.292 65.6498 64.38C65.7458 64.46 65.7938 64.58 65.7938 64.74C65.7938 64.908 65.7458 65.036 65.6498 65.124C65.5618 65.212 65.4378 65.256 65.2778 65.256H61.8218V68.424C61.8218 68.864 61.6258 69.084 61.2338 69.084ZM69.4077 69.108C68.8157 69.108 68.3037 68.984 67.8717 68.736C67.4477 68.488 67.1157 68.136 66.8757 67.68C66.6357 67.224 66.5157 66.688 66.5157 66.072C66.5157 65.6 66.5837 65.18 66.7197 64.812C66.8557 64.444 67.0477 64.128 67.2957 63.864C67.5517 63.592 67.8557 63.388 68.2077 63.252C68.5677 63.108 68.9677 63.036 69.4077 63.036C69.9917 63.036 70.4957 63.16 70.9197 63.408C71.3517 63.656 71.6877 64.008 71.9277 64.464C72.1677 64.912 72.2877 65.448 72.2877 66.072C72.2877 66.536 72.2197 66.956 72.0837 67.332C71.9477 67.708 71.7517 68.028 71.4957 68.292C71.2477 68.556 70.9437 68.76 70.5837 68.904C70.2317 69.04 69.8397 69.108 69.4077 69.108ZM69.4077 68.172C69.7357 68.172 70.0237 68.092 70.2717 67.932C70.5197 67.772 70.7117 67.536 70.8477 67.224C70.9917 66.912 71.0637 66.528 71.0637 66.072C71.0637 65.384 70.9117 64.864 70.6077 64.512C70.3037 64.16 69.9037 63.984 69.4077 63.984C69.0717 63.984 68.7797 64.064 68.5317 64.224C68.2837 64.376 68.0877 64.608 67.9437 64.92C67.8077 65.232 67.7397 65.616 67.7397 66.072C67.7397 66.752 67.8917 67.272 68.1957 67.632C68.4997 67.992 68.9037 68.172 69.4077 68.172ZM74.2609 69.084C74.0609 69.084 73.9089 69.032 73.8049 68.928C73.7009 68.816 73.6489 68.664 73.6489 68.472V63.672C73.6489 63.472 73.7009 63.32 73.8049 63.216C73.9089 63.112 74.0529 63.06 74.2369 63.06C74.4289 63.06 74.5729 63.112 74.6689 63.216C74.7729 63.32 74.8249 63.472 74.8249 63.672V64.548H74.7049C74.8329 64.068 75.0689 63.704 75.4129 63.456C75.7569 63.208 76.1969 63.064 76.7329 63.024C76.8769 63.016 76.9889 63.052 77.0689 63.132C77.1569 63.212 77.2049 63.336 77.2129 63.504C77.2289 63.672 77.1929 63.808 77.1049 63.912C77.0169 64.008 76.8809 64.064 76.6969 64.08L76.4689 64.104C75.9489 64.152 75.5529 64.316 75.2809 64.596C75.0089 64.876 74.8729 65.26 74.8729 65.748V68.472C74.8729 68.664 74.8209 68.816 74.7169 68.928C74.6209 69.032 74.4689 69.084 74.2609 69.084ZM78.7494 69.084C78.5574 69.084 78.4094 69.032 78.3054 68.928C78.2014 68.816 78.1494 68.664 78.1494 68.472V63.672C78.1494 63.472 78.2014 63.32 78.3054 63.216C78.4094 63.112 78.5534 63.06 78.7374 63.06C78.9294 63.06 79.0734 63.112 79.1694 63.216C79.2734 63.32 79.3254 63.472 79.3254 63.672V64.656L79.1934 64.392C79.3534 63.968 79.6014 63.636 79.9374 63.396C80.2734 63.156 80.6774 63.036 81.1494 63.036C81.6374 63.036 82.0334 63.152 82.3374 63.384C82.6414 63.616 82.8494 63.972 82.9614 64.452H82.7934C82.9454 64.012 83.2054 63.668 83.5734 63.42C83.9414 63.164 84.3694 63.036 84.8574 63.036C85.3054 63.036 85.6734 63.124 85.9614 63.3C86.2494 63.468 86.4654 63.728 86.6094 64.08C86.7534 64.424 86.8254 64.86 86.8254 65.388V68.472C86.8254 68.664 86.7694 68.816 86.6574 68.928C86.5534 69.032 86.4054 69.084 86.2134 69.084C86.0214 69.084 85.8734 69.032 85.7694 68.928C85.6654 68.816 85.6134 68.664 85.6134 68.472V65.448C85.6134 64.952 85.5254 64.588 85.3494 64.356C85.1814 64.124 84.9014 64.008 84.5094 64.008C84.0694 64.008 83.7214 64.16 83.4654 64.464C83.2094 64.768 83.0814 65.188 83.0814 65.724V68.472C83.0814 68.664 83.0294 68.816 82.9254 68.928C82.8214 69.032 82.6734 69.084 82.4814 69.084C82.2894 69.084 82.1374 69.032 82.0254 68.928C81.9214 68.816 81.8694 68.664 81.8694 68.472V65.448C81.8694 64.952 81.7854 64.588 81.6174 64.356C81.4494 64.124 81.1694 64.008 80.7774 64.008C80.3374 64.008 79.9894 64.16 79.7334 64.464C79.4854 64.768 79.3614 65.188 79.3614 65.724V68.472C79.3614 68.88 79.1574 69.084 78.7494 69.084Z" fill="#76BC21"/>
<rect x="36" y="1" width="46" height="30" rx="15" fill="#006837" fill-opacity="0.15"/>
<rect x="35.5" y="0.5" width="47" height="31" rx="15.5" stroke="url(#paint1_linear_493_709)" stroke-opacity="0.15"/>
<path fill-rule="evenodd" clip-rule="evenodd" d="M58.9444 14.9441C60.4479 14.9441 61.6667 13.6135 61.6667 11.9721C61.6667 10.3306 60.4479 9 58.9444 9C57.441 9 56.2222 10.3306 56.2222 11.9721C56.2222 13.6135 57.441 14.9441 58.9444 14.9441ZM58.9444 13.7709C59.7995 13.7709 60.5556 13.0029 60.5556 11.9721C60.5556 10.9413 59.7995 10.1732 58.9444 10.1732C58.0894 10.1732 57.3333 10.9413 57.3333 11.9721C57.3333 13.0029 58.0894 13.7709 58.9444 13.7709Z" fill="#006837"/>
<path d="M59.0377 16.8161C58.2616 16.7068 57.6601 16.7233 56.7983 16.8181C55.6317 16.9464 54.6777 17.2955 54.0323 17.749C53.3815 18.2063 53.1111 18.714 53.1111 19.1699L53.1112 19.6755C53.1112 19.9997 53.3601 20.2626 53.6675 20.2626H58.4444C58.7513 20.2626 59 20.5252 59 20.8492C59 21.1731 58.7513 21.4358 58.4444 21.4358H53.6675C52.7469 21.4358 52.0001 20.648 52 19.6756L52 19.17C51.9999 18.1774 52.5905 17.3529 53.4167 16.7724C54.2482 16.1881 55.3868 15.7938 56.6832 15.6512C57.5991 15.5505 58.2939 15.5278 59.1845 15.6532C59.4887 15.696 59.7023 15.991 59.6618 16.3122C59.6212 16.6333 59.3418 16.8589 59.0377 16.8161Z" fill="#006837"/>
<path d="M62.5926 17.4078C62.4085 17.4078 62.2593 17.5654 62.2593 17.7598V19.7542C62.2593 19.8985 62.3415 20.0225 62.4592 20.0768L63.2647 20.5679C63.4241 20.6651 63.628 20.6074 63.7201 20.4391C63.8121 20.2707 63.7575 20.0555 63.598 19.9583L62.9259 19.5485V17.7598C62.9259 17.5654 62.7767 17.4078 62.5926 17.4078Z" fill="#006837"/>
<path fill-rule="evenodd" clip-rule="evenodd" d="M66 19.4609C66 21.4155 64.4993 23 62.6481 23C60.797 23 59.2963 21.4155 59.2963 19.4609C59.2963 17.5063 60.797 15.9218 62.6481 15.9218C64.4993 15.9218 66 17.5063 66 19.4609ZM65.0741 19.4609C65.0741 20.8755 63.988 22.0223 62.6481 22.0223C61.3083 22.0223 60.2222 20.8755 60.2222 19.4609C60.2222 18.0462 61.3083 16.8994 62.6481 16.8994C63.988 16.8994 65.0741 18.0462 65.0741 19.4609Z" fill="#006837"/>
<rect x="1" y="96" width="116" height="32" rx="16" fill="#FFAA00" fill-opacity="0.15"/>
<rect x="0.5" y="95.5" width="117" height="33" rx="16.5" stroke="url(#paint2_linear_493_709)" stroke-opacity="0.15"/>
<path d="M20.804 116.108C20.436 116.108 20.076 116.08 19.724 116.024C19.372 115.968 19.04 115.884 18.728 115.772C18.416 115.652 18.136 115.508 17.888 115.34C17.768 115.252 17.684 115.152 17.636 115.04C17.596 114.928 17.584 114.82 17.6 114.716C17.624 114.604 17.672 114.508 17.744 114.428C17.816 114.348 17.904 114.3 18.008 114.284C18.112 114.26 18.228 114.292 18.356 114.38C18.716 114.612 19.096 114.784 19.496 114.896C19.896 115 20.332 115.052 20.804 115.052C21.484 115.052 21.984 114.932 22.304 114.692C22.632 114.444 22.796 114.124 22.796 113.732C22.796 113.412 22.68 113.16 22.448 112.976C22.216 112.784 21.828 112.632 21.284 112.52L20 112.256C19.24 112.096 18.672 111.832 18.296 111.464C17.928 111.096 17.744 110.6 17.744 109.976C17.744 109.6 17.82 109.256 17.972 108.944C18.132 108.632 18.352 108.364 18.632 108.14C18.912 107.908 19.248 107.732 19.64 107.612C20.032 107.492 20.46 107.432 20.924 107.432C21.42 107.432 21.884 107.496 22.316 107.624C22.756 107.752 23.148 107.948 23.492 108.212C23.596 108.284 23.664 108.376 23.696 108.488C23.736 108.592 23.744 108.696 23.72 108.8C23.704 108.904 23.66 108.992 23.588 109.064C23.516 109.136 23.424 109.18 23.312 109.196C23.2 109.204 23.076 109.164 22.94 109.076C22.628 108.868 22.308 108.72 21.98 108.632C21.66 108.536 21.304 108.488 20.912 108.488C20.52 108.488 20.176 108.548 19.88 108.668C19.592 108.788 19.368 108.956 19.208 109.172C19.056 109.388 18.98 109.644 18.98 109.94C18.98 110.276 19.088 110.544 19.304 110.744C19.52 110.944 19.88 111.096 20.384 111.2L21.656 111.464C22.456 111.632 23.052 111.892 23.444 112.244C23.836 112.596 24.032 113.064 24.032 113.648C24.032 114.024 23.956 114.364 23.804 114.668C23.652 114.964 23.436 115.22 23.156 115.436C22.876 115.652 22.536 115.82 22.136 115.94C21.744 116.052 21.3 116.108 20.804 116.108ZM28.0648 116.108C27.4248 116.108 26.8728 115.988 26.4088 115.748C25.9528 115.5 25.5968 115.152 25.3408 114.704C25.0928 114.248 24.9688 113.708 24.9688 113.084C24.9688 112.476 25.0928 111.944 25.3408 111.488C25.5888 111.032 25.9288 110.676 26.3608 110.42C26.7928 110.164 27.2848 110.036 27.8368 110.036C28.2448 110.036 28.6088 110.104 28.9288 110.24C29.2488 110.368 29.5208 110.56 29.7448 110.816C29.9768 111.064 30.1488 111.368 30.2608 111.728C30.3808 112.088 30.4408 112.492 30.4408 112.94C30.4408 113.076 30.4008 113.18 30.3208 113.252C30.2408 113.316 30.1208 113.348 29.9608 113.348H25.9288V112.604H29.6248L29.4208 112.772C29.4208 112.372 29.3608 112.032 29.2408 111.752C29.1288 111.472 28.9568 111.26 28.7248 111.116C28.5008 110.964 28.2208 110.888 27.8848 110.888C27.5088 110.888 27.1888 110.976 26.9248 111.152C26.6688 111.328 26.4728 111.572 26.3368 111.884C26.2008 112.196 26.1328 112.56 26.1328 112.976V113.048C26.1328 113.752 26.2968 114.284 26.6248 114.644C26.9608 114.996 27.4448 115.172 28.0768 115.172C28.3168 115.172 28.5688 115.14 28.8328 115.076C29.1048 115.012 29.3608 114.904 29.6008 114.752C29.7368 114.672 29.8568 114.636 29.9608 114.644C30.0728 114.652 30.1608 114.688 30.2248 114.752C30.2968 114.816 30.3408 114.896 30.3568 114.992C30.3728 115.088 30.3568 115.188 30.3088 115.292C30.2608 115.388 30.1768 115.476 30.0568 115.556C29.7848 115.74 29.4688 115.88 29.1088 115.976C28.7488 116.064 28.4008 116.108 28.0648 116.108ZM32.3622 116.084C32.1702 116.084 32.0222 116.032 31.9182 115.928C31.8142 115.816 31.7622 115.664 31.7622 115.472V110.672C31.7622 110.472 31.8142 110.32 31.9182 110.216C32.0222 110.112 32.1662 110.06 32.3502 110.06C32.5422 110.06 32.6862 110.112 32.7822 110.216C32.8862 110.32 32.9382 110.472 32.9382 110.672V111.608L32.8062 111.392C32.9822 110.944 33.2582 110.608 33.6342 110.384C34.0102 110.152 34.4422 110.036 34.9302 110.036C35.3942 110.036 35.7782 110.124 36.0822 110.3C36.3942 110.468 36.6262 110.728 36.7782 111.08C36.9302 111.424 37.0062 111.86 37.0062 112.388V115.472C37.0062 115.664 36.9542 115.816 36.8502 115.928C36.7462 116.032 36.5982 116.084 36.4062 116.084C36.2062 116.084 36.0542 116.032 35.9502 115.928C35.8462 115.816 35.7942 115.664 35.7942 115.472V112.46C35.7942 111.956 35.6942 111.588 35.4942 111.356C35.3022 111.124 34.9982 111.008 34.5822 111.008C34.0942 111.008 33.7022 111.16 33.4062 111.464C33.1182 111.768 32.9742 112.176 32.9742 112.688V115.472C32.9742 115.88 32.7702 116.084 32.3622 116.084ZM40.9082 116.108C40.3962 116.108 39.9442 115.988 39.5522 115.748C39.1682 115.5 38.8682 115.148 38.6522 114.692C38.4362 114.228 38.3282 113.688 38.3282 113.072C38.3282 112.44 38.4362 111.9 38.6522 111.452C38.8682 111.004 39.1682 110.656 39.5522 110.408C39.9442 110.16 40.3962 110.036 40.9082 110.036C41.4202 110.036 41.8602 110.164 42.2282 110.42C42.6042 110.668 42.8562 111.004 42.9842 111.428H42.8522V108.068C42.8522 107.868 42.9042 107.716 43.0082 107.612C43.1122 107.508 43.2602 107.456 43.4522 107.456C43.6442 107.456 43.7922 107.508 43.8962 107.612C44.0082 107.716 44.0642 107.868 44.0642 108.068V115.472C44.0642 115.664 44.0122 115.816 43.9082 115.928C43.8042 116.032 43.6562 116.084 43.4642 116.084C43.2722 116.084 43.1242 116.032 43.0202 115.928C42.9162 115.816 42.8642 115.664 42.8642 115.472V114.416L42.9962 114.68C42.8682 115.112 42.6162 115.46 42.2402 115.724C41.8722 115.98 41.4282 116.108 40.9082 116.108ZM41.2202 115.172C41.5482 115.172 41.8362 115.092 42.0842 114.932C42.3322 114.772 42.5242 114.536 42.6602 114.224C42.8042 113.912 42.8762 113.528 42.8762 113.072C42.8762 112.384 42.7242 111.864 42.4202 111.512C42.1162 111.16 41.7162 110.984 41.2202 110.984C40.8842 110.984 40.5922 111.064 40.3442 111.224C40.0962 111.376 39.9002 111.608 39.7562 111.92C39.6202 112.232 39.5522 112.616 39.5522 113.072C39.5522 113.752 39.7042 114.272 40.0082 114.632C40.3122 114.992 40.7162 115.172 41.2202 115.172ZM49.6861 116.084C49.4861 116.084 49.3301 116.028 49.2181 115.916C49.1141 115.804 49.0621 115.648 49.0621 115.448V108.176C49.0621 107.968 49.1181 107.812 49.2301 107.708C49.3421 107.596 49.4981 107.54 49.6981 107.54H52.5661C53.4781 107.54 54.1821 107.756 54.6781 108.188C55.1741 108.62 55.4221 109.232 55.4221 110.024C55.4221 110.536 55.3101 110.976 55.0861 111.344C54.8621 111.712 54.5341 111.992 54.1021 112.184C53.6781 112.376 53.1661 112.472 52.5661 112.472L52.6741 112.304H52.9861C53.3061 112.304 53.5821 112.384 53.8141 112.544C54.0541 112.704 54.2701 112.96 54.4621 113.312L55.4941 115.232C55.5741 115.376 55.6101 115.516 55.6021 115.652C55.6021 115.78 55.5541 115.884 55.4581 115.964C55.3701 116.044 55.2421 116.084 55.0741 116.084C54.8981 116.084 54.7541 116.048 54.6421 115.976C54.5381 115.896 54.4421 115.78 54.3541 115.628L53.0941 113.3C52.9261 112.988 52.7341 112.78 52.5181 112.676C52.3021 112.564 52.0181 112.508 51.6661 112.508H50.3101V115.448C50.3101 115.648 50.2581 115.804 50.1541 115.916C50.0501 116.028 49.8941 116.084 49.6861 116.084ZM50.3101 111.572H52.3621C52.9701 111.572 53.4301 111.444 53.7421 111.188C54.0541 110.932 54.2101 110.552 54.2101 110.048C54.2101 109.552 54.0541 109.176 53.7421 108.92C53.4301 108.664 52.9701 108.536 52.3621 108.536H50.3101V111.572ZM59.6586 116.108C59.0186 116.108 58.4666 115.988 58.0026 115.748C57.5466 115.5 57.1906 115.152 56.9346 114.704C56.6866 114.248 56.5626 113.708 56.5626 113.084C56.5626 112.476 56.6866 111.944 56.9346 111.488C57.1826 111.032 57.5226 110.676 57.9546 110.42C58.3866 110.164 58.8786 110.036 59.4306 110.036C59.8386 110.036 60.2026 110.104 60.5226 110.24C60.8426 110.368 61.1146 110.56 61.3386 110.816C61.5706 111.064 61.7426 111.368 61.8546 111.728C61.9746 112.088 62.0346 112.492 62.0346 112.94C62.0346 113.076 61.9946 113.18 61.9146 113.252C61.8346 113.316 61.7146 113.348 61.5546 113.348H57.5226V112.604H61.2186L61.0146 112.772C61.0146 112.372 60.9546 112.032 60.8346 111.752C60.7226 111.472 60.5506 111.26 60.3186 111.116C60.0946 110.964 59.8146 110.888 59.4786 110.888C59.1026 110.888 58.7826 110.976 58.5186 111.152C58.2626 111.328 58.0666 111.572 57.9306 111.884C57.7946 112.196 57.7266 112.56 57.7266 112.976V113.048C57.7266 113.752 57.8906 114.284 58.2186 114.644C58.5546 114.996 59.0386 115.172 59.6706 115.172C59.9106 115.172 60.1626 115.14 60.4266 115.076C60.6986 115.012 60.9546 114.904 61.1946 114.752C61.3306 114.672 61.4506 114.636 61.5546 114.644C61.6666 114.652 61.7546 114.688 61.8186 114.752C61.8906 114.816 61.9346 114.896 61.9506 114.992C61.9666 115.088 61.9506 115.188 61.9026 115.292C61.8546 115.388 61.7706 115.476 61.6506 115.556C61.3786 115.74 61.0626 115.88 60.7026 115.976C60.3426 116.064 59.9946 116.108 59.6586 116.108ZM63.9799 116.084C63.7879 116.084 63.6399 116.032 63.5359 115.928C63.4319 115.816 63.3799 115.664 63.3799 115.472V110.672C63.3799 110.472 63.4319 110.32 63.5359 110.216C63.6399 110.112 63.7839 110.06 63.9679 110.06C64.1599 110.06 64.3039 110.112 64.3999 110.216C64.5039 110.32 64.5559 110.472 64.5559 110.672V111.656L64.4239 111.392C64.5839 110.968 64.8319 110.636 65.1679 110.396C65.5039 110.156 65.9079 110.036 66.3799 110.036C66.8679 110.036 67.2639 110.152 67.5679 110.384C67.8719 110.616 68.0799 110.972 68.1919 111.452H68.0239C68.1759 111.012 68.4359 110.668 68.8039 110.42C69.1719 110.164 69.5999 110.036 70.0879 110.036C70.5359 110.036 70.9039 110.124 71.1919 110.3C71.4799 110.468 71.6959 110.728 71.8399 111.08C71.9839 111.424 72.0559 111.86 72.0559 112.388V115.472C72.0559 115.664 71.9999 115.816 71.8879 115.928C71.7839 116.032 71.6359 116.084 71.4439 116.084C71.2519 116.084 71.1039 116.032 70.9999 115.928C70.8959 115.816 70.8439 115.664 70.8439 115.472V112.448C70.8439 111.952 70.7559 111.588 70.5799 111.356C70.4119 111.124 70.1319 111.008 69.7399 111.008C69.2999 111.008 68.9519 111.16 68.6959 111.464C68.4399 111.768 68.3119 112.188 68.3119 112.724V115.472C68.3119 115.664 68.2599 115.816 68.1559 115.928C68.0519 116.032 67.9039 116.084 67.7119 116.084C67.5199 116.084 67.3679 116.032 67.2559 115.928C67.1519 115.816 67.0999 115.664 67.0999 115.472V112.448C67.0999 111.952 67.0159 111.588 66.8479 111.356C66.6799 111.124 66.3999 111.008 66.0079 111.008C65.5679 111.008 65.2199 111.16 64.9639 111.464C64.7159 111.768 64.5919 112.188 64.5919 112.724V115.472C64.5919 115.88 64.3879 116.084 63.9799 116.084ZM74.3504 116.072C74.1584 116.072 74.0104 116.016 73.9064 115.904C73.8024 115.784 73.7504 115.62 73.7504 115.412V110.732C73.7504 110.524 73.8024 110.364 73.9064 110.252C74.0104 110.14 74.1584 110.084 74.3504 110.084C74.5424 110.084 74.6904 110.14 74.7944 110.252C74.9064 110.364 74.9624 110.524 74.9624 110.732V115.412C74.9624 115.62 74.9104 115.784 74.8064 115.904C74.7024 116.016 74.5504 116.072 74.3504 116.072ZM74.3504 108.836C74.1104 108.836 73.9224 108.776 73.7864 108.656C73.6584 108.536 73.5944 108.368 73.5944 108.152C73.5944 107.928 73.6584 107.76 73.7864 107.648C73.9224 107.528 74.1104 107.468 74.3504 107.468C74.5904 107.468 74.7744 107.528 74.9024 107.648C75.0384 107.76 75.1064 107.928 75.1064 108.152C75.1064 108.368 75.0384 108.536 74.9024 108.656C74.7744 108.776 74.5904 108.836 74.3504 108.836ZM77.2684 116.084C77.0764 116.084 76.9284 116.032 76.8244 115.928C76.7204 115.816 76.6684 115.664 76.6684 115.472V110.672C76.6684 110.472 76.7204 110.32 76.8244 110.216C76.9284 110.112 77.0724 110.06 77.2564 110.06C77.4484 110.06 77.5924 110.112 77.6884 110.216C77.7924 110.32 77.8444 110.472 77.8444 110.672V111.608L77.7124 111.392C77.8884 110.944 78.1644 110.608 78.5404 110.384C78.9164 110.152 79.3484 110.036 79.8364 110.036C80.3004 110.036 80.6844 110.124 80.9884 110.3C81.3004 110.468 81.5324 110.728 81.6844 111.08C81.8364 111.424 81.9124 111.86 81.9124 112.388V115.472C81.9124 115.664 81.8604 115.816 81.7564 115.928C81.6524 116.032 81.5044 116.084 81.3124 116.084C81.1124 116.084 80.9604 116.032 80.8564 115.928C80.7524 115.816 80.7004 115.664 80.7004 115.472V112.46C80.7004 111.956 80.6004 111.588 80.4004 111.356C80.2084 111.124 79.9044 111.008 79.4884 111.008C79.0004 111.008 78.6084 111.16 78.3124 111.464C78.0244 111.768 77.8804 112.176 77.8804 112.688V115.472C77.8804 115.88 77.6764 116.084 77.2684 116.084ZM85.8145 116.108C85.3025 116.108 84.8505 115.988 84.4585 115.748C84.0745 115.5 83.7745 115.148 83.5585 114.692C83.3425 114.228 83.2345 113.688 83.2345 113.072C83.2345 112.44 83.3425 111.9 83.5585 111.452C83.7745 111.004 84.0745 110.656 84.4585 110.408C84.8505 110.16 85.3025 110.036 85.8145 110.036C86.3265 110.036 86.7665 110.164 87.1345 110.42C87.5105 110.668 87.7625 111.004 87.8905 111.428H87.7585V108.068C87.7585 107.868 87.8105 107.716 87.9145 107.612C88.0185 107.508 88.1665 107.456 88.3585 107.456C88.5505 107.456 88.6985 107.508 88.8025 107.612C88.9145 107.716 88.9705 107.868 88.9705 108.068V115.472C88.9705 115.664 88.9185 115.816 88.8145 115.928C88.7105 116.032 88.5625 116.084 88.3705 116.084C88.1785 116.084 88.0305 116.032 87.9265 115.928C87.8225 115.816 87.7705 115.664 87.7705 115.472V114.416L87.9025 114.68C87.7745 115.112 87.5225 115.46 87.1465 115.724C86.7785 115.98 86.3345 116.108 85.8145 116.108ZM86.1265 115.172C86.4545 115.172 86.7425 115.092 86.9905 114.932C87.2385 114.772 87.4305 114.536 87.5665 114.224C87.7105 113.912 87.7825 113.528 87.7825 113.072C87.7825 112.384 87.6305 111.864 87.3265 111.512C87.0225 111.16 86.6225 110.984 86.1265 110.984C85.7905 110.984 85.4985 111.064 85.2505 111.224C85.0025 111.376 84.8065 111.608 84.6625 111.92C84.5265 112.232 84.4585 112.616 84.4585 113.072C84.4585 113.752 84.6105 114.272 84.9145 114.632C85.2185 114.992 85.6225 115.172 86.1265 115.172ZM93.4203 116.108C92.7803 116.108 92.2283 115.988 91.7643 115.748C91.3083 115.5 90.9523 115.152 90.6963 114.704C90.4483 114.248 90.3243 113.708 90.3243 113.084C90.3243 112.476 90.4483 111.944 90.6963 111.488C90.9443 111.032 91.2843 110.676 91.7163 110.42C92.1483 110.164 92.6403 110.036 93.1923 110.036C93.6003 110.036 93.9643 110.104 94.2843 110.24C94.6043 110.368 94.8763 110.56 95.1003 110.816C95.3323 111.064 95.5043 111.368 95.6163 111.728C95.7363 112.088 95.7963 112.492 95.7963 112.94C95.7963 113.076 95.7563 113.18 95.6763 113.252C95.5963 113.316 95.4763 113.348 95.3163 113.348H91.2843V112.604H94.9803L94.7763 112.772C94.7763 112.372 94.7163 112.032 94.5963 111.752C94.4843 111.472 94.3123 111.26 94.0803 111.116C93.8563 110.964 93.5763 110.888 93.2403 110.888C92.8643 110.888 92.5443 110.976 92.2803 111.152C92.0243 111.328 91.8283 111.572 91.6923 111.884C91.5563 112.196 91.4883 112.56 91.4883 112.976V113.048C91.4883 113.752 91.6523 114.284 91.9803 114.644C92.3163 114.996 92.8003 115.172 93.4323 115.172C93.6723 115.172 93.9243 115.14 94.1883 115.076C94.4603 115.012 94.7163 114.904 94.9563 114.752C95.0923 114.672 95.2123 114.636 95.3163 114.644C95.4283 114.652 95.5163 114.688 95.5803 114.752C95.6523 114.816 95.6963 114.896 95.7123 114.992C95.7283 115.088 95.7123 115.188 95.6643 115.292C95.6163 115.388 95.5323 115.476 95.4123 115.556C95.1403 115.74 94.8243 115.88 94.4643 115.976C94.1043 116.064 93.7563 116.108 93.4203 116.108ZM97.7296 116.084C97.5296 116.084 97.3776 116.032 97.2736 115.928C97.1696 115.816 97.1176 115.664 97.1176 115.472V110.672C97.1176 110.472 97.1696 110.32 97.2736 110.216C97.3776 110.112 97.5216 110.06 97.7056 110.06C97.8976 110.06 98.0416 110.112 98.1376 110.216C98.2416 110.32 98.2936 110.472 98.2936 110.672V111.548H98.1736C98.3016 111.068 98.5376 110.704 98.8816 110.456C99.2256 110.208 99.6656 110.064 100.202 110.024C100.346 110.016 100.458 110.052 100.538 110.132C100.626 110.212 100.674 110.336 100.682 110.504C100.698 110.672 100.662 110.808 100.574 110.912C100.486 111.008 100.35 111.064 100.166 111.08L99.9376 111.104C99.4176 111.152 99.0216 111.316 98.7496 111.596C98.4776 111.876 98.3416 112.26 98.3416 112.748V115.472C98.3416 115.664 98.2896 115.816 98.1856 115.928C98.0896 116.032 97.9376 116.084 97.7296 116.084Z" fill="#FF8A00"/>
<rect x="8" y="196" width="102" height="32" rx="16" fill="#FE5000" fill-opacity="0.15"/>
<rect x="7.5" y="195.5" width="103" height="33" rx="16.5" stroke="url(#paint3_linear_493_709)" stroke-opacity="0.15"/>
<path fill-rule="evenodd" clip-rule="evenodd" d="M32.7933 207.93C32.7933 209.548 31.6847 210.86 30.3171 210.86C28.9494 210.86 27.8408 209.548 27.8408 207.93C27.8408 206.312 28.9494 205 30.3171 205C31.6847 205 32.7933 206.312 32.7933 207.93ZM31.7826 207.93C31.7826 208.946 31.0949 209.703 30.3171 209.703C29.5393 209.703 28.8515 208.946 28.8515 207.93C28.8515 206.914 29.5393 206.157 30.3171 206.157C31.0949 206.157 31.7826 206.914 31.7826 207.93Z" fill="#FE5000"/>
<path d="M28.3648 212.707C29.1488 212.614 29.6959 212.598 30.4019 212.705C30.6785 212.747 30.9327 212.525 30.9696 212.209C31.0065 211.892 30.8121 211.601 30.5355 211.559C29.7253 211.435 29.0933 211.458 28.2601 211.557C27.0808 211.697 26.0451 212.086 25.2887 212.662C24.5372 213.234 23.9999 214.047 24 215.026L24 215.524C24.0001 216.483 24.6794 217.259 25.5168 217.259H29.8622C30.1413 217.259 30.3676 217.001 30.3676 216.681C30.3676 216.362 30.1413 216.103 29.8622 216.103H25.5168C25.2372 216.103 25.0108 215.844 25.0108 215.524L25.0107 215.026C25.0107 214.576 25.2567 214.076 25.8487 213.625C26.4358 213.178 27.3036 212.834 28.3648 212.707Z" fill="#FE5000"/>
<path d="M30.15 214.421L31.8798 215.996L31.3418 218.364C31.2361 218.805 31.6899 219.168 32.0589 218.919L33.9894 217.638L35.9197 218.918C36.2785 219.156 36.7319 218.805 36.6369 218.363L36.0989 215.996L37.8289 214.421C38.1557 214.127 37.987 213.549 37.5546 213.515L35.2866 213.333L34.4323 211.079C34.2741 210.66 33.715 210.66 33.5461 211.079L32.6918 213.334L30.4239 213.515C29.9917 213.56 29.8228 214.127 30.15 214.421Z" fill="#FE5000"/>
<path d="M47.944 216.108C47.024 216.108 46.248 215.936 45.616 215.592C44.984 215.24 44.504 214.74 44.176 214.092C43.856 213.444 43.696 212.672 43.696 211.776C43.696 211.104 43.788 210.504 43.972 209.976C44.164 209.44 44.436 208.984 44.788 208.608C45.148 208.224 45.584 207.932 46.096 207.732C46.616 207.532 47.204 207.432 47.86 207.432C48.34 207.432 48.812 207.496 49.276 207.624C49.74 207.744 50.164 207.944 50.548 208.224C50.66 208.304 50.732 208.396 50.764 208.5C50.796 208.604 50.796 208.712 50.764 208.824C50.74 208.928 50.688 209.02 50.608 209.1C50.536 209.18 50.444 209.228 50.332 209.244C50.228 209.26 50.112 209.228 49.984 209.148C49.672 208.932 49.344 208.776 49 208.68C48.656 208.576 48.276 208.524 47.86 208.524C47.236 208.524 46.708 208.652 46.276 208.908C45.852 209.164 45.532 209.536 45.316 210.024C45.1 210.504 44.992 211.088 44.992 211.776C44.992 212.84 45.244 213.648 45.748 214.2C46.252 214.752 47 215.028 47.992 215.028C48.352 215.028 48.704 214.996 49.048 214.932C49.4 214.86 49.736 214.76 50.056 214.632L49.804 215.256V212.46H48.256C48.096 212.46 47.968 212.42 47.872 212.34C47.784 212.252 47.74 212.132 47.74 211.98C47.74 211.828 47.784 211.716 47.872 211.644C47.968 211.564 48.096 211.524 48.256 211.524H50.332C50.5 211.524 50.628 211.568 50.716 211.656C50.804 211.744 50.848 211.872 50.848 212.04V215.064C50.848 215.208 50.82 215.332 50.764 215.436C50.716 215.532 50.632 215.604 50.512 215.652C50.168 215.788 49.764 215.9 49.3 215.988C48.836 216.068 48.384 216.108 47.944 216.108ZM55.3773 216.108C54.7373 216.108 54.1853 215.988 53.7213 215.748C53.2653 215.5 52.9093 215.152 52.6533 214.704C52.4053 214.248 52.2813 213.708 52.2813 213.084C52.2813 212.476 52.4053 211.944 52.6533 211.488C52.9013 211.032 53.2413 210.676 53.6733 210.42C54.1053 210.164 54.5973 210.036 55.1493 210.036C55.5573 210.036 55.9213 210.104 56.2413 210.24C56.5613 210.368 56.8333 210.56 57.0573 210.816C57.2893 211.064 57.4613 211.368 57.5733 211.728C57.6933 212.088 57.7533 212.492 57.7533 212.94C57.7533 213.076 57.7133 213.18 57.6333 213.252C57.5533 213.316 57.4333 213.348 57.2733 213.348H53.2413V212.604H56.9373L56.7333 212.772C56.7333 212.372 56.6733 212.032 56.5533 211.752C56.4413 211.472 56.2693 211.26 56.0373 211.116C55.8133 210.964 55.5333 210.888 55.1973 210.888C54.8213 210.888 54.5013 210.976 54.2373 211.152C53.9813 211.328 53.7853 211.572 53.6493 211.884C53.5133 212.196 53.4453 212.56 53.4453 212.976V213.048C53.4453 213.752 53.6093 214.284 53.9373 214.644C54.2733 214.996 54.7573 215.172 55.3893 215.172C55.6293 215.172 55.8813 215.14 56.1453 215.076C56.4173 215.012 56.6733 214.904 56.9133 214.752C57.0493 214.672 57.1693 214.636 57.2733 214.644C57.3853 214.652 57.4733 214.688 57.5373 214.752C57.6093 214.816 57.6533 214.896 57.6693 214.992C57.6853 215.088 57.6693 215.188 57.6213 215.292C57.5733 215.388 57.4893 215.476 57.3693 215.556C57.0973 215.74 56.7813 215.88 56.4213 215.976C56.0613 216.064 55.7133 216.108 55.3773 216.108ZM59.6747 216.084C59.4827 216.084 59.3347 216.032 59.2307 215.928C59.1267 215.816 59.0747 215.664 59.0747 215.472V210.672C59.0747 210.472 59.1267 210.32 59.2307 210.216C59.3347 210.112 59.4787 210.06 59.6627 210.06C59.8547 210.06 59.9987 210.112 60.0947 210.216C60.1987 210.32 60.2507 210.472 60.2507 210.672V211.608L60.1187 211.392C60.2947 210.944 60.5707 210.608 60.9467 210.384C61.3227 210.152 61.7547 210.036 62.2427 210.036C62.7067 210.036 63.0907 210.124 63.3947 210.3C63.7067 210.468 63.9387 210.728 64.0907 211.08C64.2427 211.424 64.3187 211.86 64.3187 212.388V215.472C64.3187 215.664 64.2667 215.816 64.1627 215.928C64.0587 216.032 63.9107 216.084 63.7187 216.084C63.5187 216.084 63.3667 216.032 63.2627 215.928C63.1587 215.816 63.1067 215.664 63.1067 215.472V212.46C63.1067 211.956 63.0067 211.588 62.8067 211.356C62.6147 211.124 62.3107 211.008 61.8947 211.008C61.4067 211.008 61.0147 211.16 60.7187 211.464C60.4307 211.768 60.2867 212.176 60.2867 212.688V215.472C60.2867 215.88 60.0827 216.084 59.6747 216.084ZM68.7367 216.108C68.0967 216.108 67.5447 215.988 67.0807 215.748C66.6247 215.5 66.2687 215.152 66.0127 214.704C65.7647 214.248 65.6407 213.708 65.6407 213.084C65.6407 212.476 65.7647 211.944 66.0127 211.488C66.2607 211.032 66.6007 210.676 67.0327 210.42C67.4647 210.164 67.9567 210.036 68.5087 210.036C68.9167 210.036 69.2807 210.104 69.6007 210.24C69.9207 210.368 70.1927 210.56 70.4167 210.816C70.6487 211.064 70.8207 211.368 70.9327 211.728C71.0527 212.088 71.1127 212.492 71.1127 212.94C71.1127 213.076 71.0727 213.18 70.9927 213.252C70.9127 213.316 70.7927 213.348 70.6327 213.348H66.6007V212.604H70.2967L70.0927 212.772C70.0927 212.372 70.0327 212.032 69.9127 211.752C69.8007 211.472 69.6287 211.26 69.3967 211.116C69.1727 210.964 68.8927 210.888 68.5567 210.888C68.1807 210.888 67.8607 210.976 67.5967 211.152C67.3407 211.328 67.1447 211.572 67.0087 211.884C66.8727 212.196 66.8047 212.56 66.8047 212.976V213.048C66.8047 213.752 66.9687 214.284 67.2967 214.644C67.6327 214.996 68.1167 215.172 68.7487 215.172C68.9887 215.172 69.2407 215.14 69.5047 215.076C69.7767 215.012 70.0327 214.904 70.2727 214.752C70.4087 214.672 70.5287 214.636 70.6327 214.644C70.7447 214.652 70.8327 214.688 70.8967 214.752C70.9687 214.816 71.0127 214.896 71.0287 214.992C71.0447 215.088 71.0287 215.188 70.9807 215.292C70.9327 215.388 70.8487 215.476 70.7287 215.556C70.4567 215.74 70.1407 215.88 69.7807 215.976C69.4207 216.064 69.0727 216.108 68.7367 216.108ZM73.046 216.084C72.846 216.084 72.694 216.032 72.59 215.928C72.486 215.816 72.434 215.664 72.434 215.472V210.672C72.434 210.472 72.486 210.32 72.59 210.216C72.694 210.112 72.838 210.06 73.022 210.06C73.214 210.06 73.358 210.112 73.454 210.216C73.558 210.32 73.61 210.472 73.61 210.672V211.548H73.49C73.618 211.068 73.854 210.704 74.198 210.456C74.542 210.208 74.982 210.064 75.518 210.024C75.662 210.016 75.774 210.052 75.854 210.132C75.942 210.212 75.99 210.336 75.998 210.504C76.014 210.672 75.978 210.808 75.89 210.912C75.802 211.008 75.666 211.064 75.482 211.08L75.254 211.104C74.734 211.152 74.338 211.316 74.066 211.596C73.794 211.876 73.658 212.26 73.658 212.748V215.472C73.658 215.664 73.606 215.816 73.502 215.928C73.406 216.032 73.254 216.084 73.046 216.084ZM78.724 216.108C78.316 216.108 77.948 216.028 77.62 215.868C77.3 215.708 77.048 215.492 76.864 215.22C76.68 214.948 76.588 214.64 76.588 214.296C76.588 213.864 76.696 213.524 76.912 213.276C77.136 213.02 77.5 212.84 78.004 212.736C78.516 212.624 79.204 212.568 80.068 212.568H80.632V213.312H80.08C79.504 213.312 79.048 213.34 78.712 213.396C78.376 213.452 78.136 213.548 77.992 213.684C77.856 213.812 77.788 213.992 77.788 214.224C77.788 214.528 77.892 214.776 78.1 214.968C78.308 215.152 78.596 215.244 78.964 215.244C79.26 215.244 79.52 215.176 79.744 215.04C79.968 214.896 80.144 214.704 80.272 214.464C80.408 214.224 80.476 213.948 80.476 213.636V212.256C80.476 211.8 80.38 211.472 80.188 211.272C79.996 211.072 79.68 210.972 79.24 210.972C78.984 210.972 78.716 211.004 78.436 211.068C78.164 211.132 77.88 211.24 77.584 211.392C77.448 211.456 77.332 211.476 77.236 211.452C77.14 211.428 77.064 211.376 77.008 211.296C76.952 211.208 76.92 211.116 76.912 211.02C76.912 210.916 76.936 210.816 76.984 210.72C77.04 210.624 77.132 210.552 77.26 210.504C77.612 210.336 77.96 210.216 78.304 210.144C78.648 210.072 78.972 210.036 79.276 210.036C79.812 210.036 80.252 210.12 80.596 210.288C80.948 210.456 81.208 210.712 81.376 211.056C81.544 211.4 81.628 211.844 81.628 212.388V215.472C81.628 215.664 81.58 215.816 81.484 215.928C81.388 216.032 81.248 216.084 81.064 216.084C80.888 216.084 80.748 216.032 80.644 215.928C80.54 215.816 80.488 215.664 80.488 215.472V214.692H80.596C80.532 214.988 80.412 215.244 80.236 215.46C80.068 215.668 79.856 215.828 79.6 215.94C79.344 216.052 79.052 216.108 78.724 216.108ZM85.7933 216.108C85.3133 216.108 84.9093 216.024 84.5813 215.856C84.2533 215.688 84.0093 215.44 83.8493 215.112C83.6893 214.784 83.6093 214.384 83.6093 213.912V211.08H82.8893C82.7293 211.08 82.6053 211.04 82.5173 210.96C82.4293 210.872 82.3853 210.756 82.3853 210.612C82.3853 210.46 82.4293 210.344 82.5173 210.264C82.6053 210.184 82.7293 210.144 82.8893 210.144H83.6093V208.908C83.6093 208.708 83.6613 208.556 83.7653 208.452C83.8773 208.348 84.0293 208.296 84.2213 208.296C84.4133 208.296 84.5613 208.348 84.6653 208.452C84.7693 208.556 84.8213 208.708 84.8213 208.908V210.144H86.2253C86.3853 210.144 86.5093 210.184 86.5973 210.264C86.6853 210.344 86.7293 210.46 86.7293 210.612C86.7293 210.756 86.6853 210.872 86.5973 210.96C86.5093 211.04 86.3853 211.08 86.2253 211.08H84.8213V213.816C84.8213 214.24 84.9093 214.56 85.0853 214.776C85.2693 214.992 85.5653 215.1 85.9733 215.1C86.1173 215.1 86.2413 215.088 86.3453 215.064C86.4573 215.032 86.5493 215.012 86.6213 215.004C86.7093 215.004 86.7813 215.036 86.8373 215.1C86.8933 215.156 86.9213 215.268 86.9213 215.436C86.9213 215.556 86.8973 215.668 86.8493 215.772C86.8093 215.876 86.7333 215.944 86.6213 215.976C86.5253 216.008 86.3933 216.036 86.2253 216.06C86.0653 216.092 85.9213 216.108 85.7933 216.108ZM90.3695 216.108C89.7295 216.108 89.1775 215.988 88.7135 215.748C88.2575 215.5 87.9015 215.152 87.6455 214.704C87.3975 214.248 87.2735 213.708 87.2735 213.084C87.2735 212.476 87.3975 211.944 87.6455 211.488C87.8935 211.032 88.2335 210.676 88.6655 210.42C89.0975 210.164 89.5895 210.036 90.1415 210.036C90.5495 210.036 90.9135 210.104 91.2335 210.24C91.5535 210.368 91.8255 210.56 92.0495 210.816C92.2815 211.064 92.4535 211.368 92.5655 211.728C92.6855 212.088 92.7455 212.492 92.7455 212.94C92.7455 213.076 92.7055 213.18 92.6255 213.252C92.5455 213.316 92.4255 213.348 92.2655 213.348H88.2335V212.604H91.9295L91.7255 212.772C91.7255 212.372 91.6655 212.032 91.5455 211.752C91.4335 211.472 91.2615 211.26 91.0295 211.116C90.8055 210.964 90.5255 210.888 90.1895 210.888C89.8135 210.888 89.4935 210.976 89.2295 211.152C88.9735 211.328 88.7775 211.572 88.6415 211.884C88.5055 212.196 88.4375 212.56 88.4375 212.976V213.048C88.4375 213.752 88.6015 214.284 88.9295 214.644C89.2655 214.996 89.7495 215.172 90.3815 215.172C90.6215 215.172 90.8735 215.14 91.1375 215.076C91.4095 215.012 91.6655 214.904 91.9055 214.752C92.0415 214.672 92.1615 214.636 92.2655 214.644C92.3775 214.652 92.4655 214.688 92.5295 214.752C92.6015 214.816 92.6455 214.896 92.6615 214.992C92.6775 215.088 92.6615 215.188 92.6135 215.292C92.5655 215.388 92.4815 215.476 92.3615 215.556C92.0895 215.74 91.7735 215.88 91.4135 215.976C91.0535 216.064 90.7055 216.108 90.3695 216.108Z" fill="#FE5000"/>
<rect x="13" y="146" width="92" height="32" rx="16" fill="#FF7B1D" fill-opacity="0.15"/>
<rect x="12.5" y="145.5" width="93" height="33" rx="16.5" stroke="url(#paint4_linear_493_709)" stroke-opacity="0.15"/>
<path d="M33.776 166.108C32.92 166.108 32.188 165.932 31.58 165.58C30.972 165.228 30.504 164.728 30.176 164.08C29.856 163.424 29.696 162.652 29.696 161.764C29.696 161.1 29.788 160.504 29.972 159.976C30.156 159.44 30.42 158.984 30.764 158.608C31.116 158.224 31.544 157.932 32.048 157.732C32.56 157.532 33.136 157.432 33.776 157.432C34.248 157.432 34.7 157.496 35.132 157.624C35.572 157.752 35.952 157.936 36.272 158.176C36.408 158.264 36.496 158.372 36.536 158.5C36.584 158.62 36.592 158.736 36.56 158.848C36.536 158.96 36.484 159.056 36.404 159.136C36.324 159.208 36.22 159.248 36.092 159.256C35.972 159.264 35.84 159.22 35.696 159.124C35.432 158.924 35.14 158.776 34.82 158.68C34.5 158.584 34.164 158.536 33.812 158.536C33.204 158.536 32.692 158.664 32.276 158.92C31.86 159.168 31.544 159.532 31.328 160.012C31.112 160.492 31.004 161.076 31.004 161.764C31.004 162.452 31.112 163.04 31.328 163.528C31.544 164.008 31.86 164.376 32.276 164.632C32.692 164.88 33.204 165.004 33.812 165.004C34.164 165.004 34.5 164.956 34.82 164.86C35.148 164.756 35.456 164.604 35.744 164.404C35.888 164.316 36.016 164.276 36.128 164.284C36.248 164.292 36.348 164.332 36.428 164.404C36.508 164.476 36.56 164.568 36.584 164.68C36.616 164.784 36.612 164.896 36.572 165.016C36.54 165.128 36.464 165.224 36.344 165.304C36.016 165.568 35.628 165.768 35.18 165.904C34.732 166.04 34.264 166.108 33.776 166.108ZM40.0835 166.108C39.4915 166.108 38.9795 165.984 38.5475 165.736C38.1235 165.488 37.7915 165.136 37.5515 164.68C37.3115 164.224 37.1915 163.688 37.1915 163.072C37.1915 162.6 37.2595 162.18 37.3955 161.812C37.5315 161.444 37.7235 161.128 37.9715 160.864C38.2275 160.592 38.5315 160.388 38.8835 160.252C39.2435 160.108 39.6435 160.036 40.0835 160.036C40.6675 160.036 41.1715 160.16 41.5955 160.408C42.0275 160.656 42.3635 161.008 42.6035 161.464C42.8435 161.912 42.9635 162.448 42.9635 163.072C42.9635 163.536 42.8955 163.956 42.7595 164.332C42.6235 164.708 42.4275 165.028 42.1715 165.292C41.9235 165.556 41.6195 165.76 41.2595 165.904C40.9075 166.04 40.5155 166.108 40.0835 166.108ZM40.0835 165.172C40.4115 165.172 40.6995 165.092 40.9475 164.932C41.1955 164.772 41.3875 164.536 41.5235 164.224C41.6675 163.912 41.7395 163.528 41.7395 163.072C41.7395 162.384 41.5875 161.864 41.2835 161.512C40.9795 161.16 40.5795 160.984 40.0835 160.984C39.7475 160.984 39.4555 161.064 39.2075 161.224C38.9595 161.376 38.7635 161.608 38.6195 161.92C38.4835 162.232 38.4155 162.616 38.4155 163.072C38.4155 163.752 38.5675 164.272 38.8715 164.632C39.1755 164.992 39.5795 165.172 40.0835 165.172ZM44.9247 166.084C44.7327 166.084 44.5847 166.032 44.4807 165.928C44.3767 165.816 44.3247 165.664 44.3247 165.472V160.672C44.3247 160.472 44.3767 160.32 44.4807 160.216C44.5847 160.112 44.7287 160.06 44.9127 160.06C45.1047 160.06 45.2487 160.112 45.3447 160.216C45.4487 160.32 45.5007 160.472 45.5007 160.672V161.608L45.3687 161.392C45.5447 160.944 45.8207 160.608 46.1967 160.384C46.5727 160.152 47.0047 160.036 47.4927 160.036C47.9567 160.036 48.3407 160.124 48.6447 160.3C48.9567 160.468 49.1887 160.728 49.3407 161.08C49.4927 161.424 49.5687 161.86 49.5687 162.388V165.472C49.5687 165.664 49.5167 165.816 49.4127 165.928C49.3087 166.032 49.1607 166.084 48.9687 166.084C48.7687 166.084 48.6167 166.032 48.5127 165.928C48.4087 165.816 48.3567 165.664 48.3567 165.472V162.46C48.3567 161.956 48.2567 161.588 48.0567 161.356C47.8647 161.124 47.5607 161.008 47.1447 161.008C46.6567 161.008 46.2647 161.16 45.9687 161.464C45.6807 161.768 45.5367 162.176 45.5367 162.688V165.472C45.5367 165.88 45.3327 166.084 44.9247 166.084ZM53.7347 166.108C53.2547 166.108 52.8507 166.024 52.5227 165.856C52.1947 165.688 51.9507 165.44 51.7907 165.112C51.6307 164.784 51.5507 164.384 51.5507 163.912V161.08H50.8307C50.6707 161.08 50.5467 161.04 50.4587 160.96C50.3707 160.872 50.3267 160.756 50.3267 160.612C50.3267 160.46 50.3707 160.344 50.4587 160.264C50.5467 160.184 50.6707 160.144 50.8307 160.144H51.5507V158.908C51.5507 158.708 51.6027 158.556 51.7067 158.452C51.8187 158.348 51.9707 158.296 52.1627 158.296C52.3547 158.296 52.5027 158.348 52.6067 158.452C52.7107 158.556 52.7627 158.708 52.7627 158.908V160.144H54.1667C54.3267 160.144 54.4507 160.184 54.5387 160.264C54.6267 160.344 54.6707 160.46 54.6707 160.612C54.6707 160.756 54.6267 160.872 54.5387 160.96C54.4507 161.04 54.3267 161.08 54.1667 161.08H52.7627V163.816C52.7627 164.24 52.8507 164.56 53.0267 164.776C53.2107 164.992 53.5067 165.1 53.9147 165.1C54.0587 165.1 54.1827 165.088 54.2867 165.064C54.3987 165.032 54.4907 165.012 54.5627 165.004C54.6507 165.004 54.7227 165.036 54.7787 165.1C54.8347 165.156 54.8627 165.268 54.8627 165.436C54.8627 165.556 54.8387 165.668 54.7907 165.772C54.7507 165.876 54.6747 165.944 54.5627 165.976C54.4667 166.008 54.3347 166.036 54.1667 166.06C54.0067 166.092 53.8627 166.108 53.7347 166.108ZM57.4935 166.108C57.0855 166.108 56.7175 166.028 56.3895 165.868C56.0695 165.708 55.8175 165.492 55.6335 165.22C55.4495 164.948 55.3575 164.64 55.3575 164.296C55.3575 163.864 55.4655 163.524 55.6815 163.276C55.9055 163.02 56.2695 162.84 56.7735 162.736C57.2855 162.624 57.9735 162.568 58.8375 162.568H59.4015V163.312H58.8495C58.2735 163.312 57.8175 163.34 57.4815 163.396C57.1455 163.452 56.9055 163.548 56.7615 163.684C56.6255 163.812 56.5575 163.992 56.5575 164.224C56.5575 164.528 56.6615 164.776 56.8695 164.968C57.0775 165.152 57.3655 165.244 57.7335 165.244C58.0295 165.244 58.2895 165.176 58.5135 165.04C58.7375 164.896 58.9135 164.704 59.0415 164.464C59.1775 164.224 59.2455 163.948 59.2455 163.636V162.256C59.2455 161.8 59.1495 161.472 58.9575 161.272C58.7655 161.072 58.4495 160.972 58.0095 160.972C57.7535 160.972 57.4855 161.004 57.2055 161.068C56.9335 161.132 56.6495 161.24 56.3535 161.392C56.2175 161.456 56.1015 161.476 56.0055 161.452C55.9095 161.428 55.8335 161.376 55.7775 161.296C55.7215 161.208 55.6895 161.116 55.6815 161.02C55.6815 160.916 55.7055 160.816 55.7535 160.72C55.8095 160.624 55.9015 160.552 56.0295 160.504C56.3815 160.336 56.7295 160.216 57.0735 160.144C57.4175 160.072 57.7415 160.036 58.0455 160.036C58.5815 160.036 59.0215 160.12 59.3655 160.288C59.7175 160.456 59.9775 160.712 60.1455 161.056C60.3135 161.4 60.3975 161.844 60.3975 162.388V165.472C60.3975 165.664 60.3495 165.816 60.2535 165.928C60.1575 166.032 60.0175 166.084 59.8335 166.084C59.6575 166.084 59.5175 166.032 59.4135 165.928C59.3095 165.816 59.2575 165.664 59.2575 165.472V164.692H59.3655C59.3015 164.988 59.1815 165.244 59.0055 165.46C58.8375 165.668 58.6255 165.828 58.3695 165.94C58.1135 166.052 57.8215 166.108 57.4935 166.108ZM64.6468 166.108C64.0468 166.108 63.5268 165.984 63.0868 165.736C62.6548 165.48 62.3188 165.124 62.0788 164.668C61.8388 164.204 61.7188 163.66 61.7188 163.036C61.7188 162.572 61.7868 162.156 61.9228 161.788C62.0588 161.412 62.2508 161.096 62.4988 160.84C62.7548 160.584 63.0628 160.388 63.4228 160.252C63.7908 160.108 64.1988 160.036 64.6468 160.036C64.9268 160.036 65.2188 160.08 65.5228 160.168C65.8348 160.248 66.1228 160.384 66.3868 160.576C66.4908 160.64 66.5548 160.72 66.5788 160.816C66.6108 160.904 66.6148 160.996 66.5908 161.092C66.5748 161.188 66.5308 161.272 66.4588 161.344C66.3948 161.408 66.3148 161.448 66.2188 161.464C66.1228 161.472 66.0188 161.444 65.9068 161.38C65.7148 161.244 65.5188 161.148 65.3188 161.092C65.1188 161.028 64.9268 160.996 64.7428 160.996C64.4548 160.996 64.1988 161.044 63.9748 161.14C63.7588 161.228 63.5748 161.36 63.4228 161.536C63.2708 161.704 63.1548 161.916 63.0748 162.172C63.0028 162.428 62.9668 162.72 62.9668 163.048C62.9668 163.704 63.1188 164.22 63.4228 164.596C63.7348 164.964 64.1748 165.148 64.7428 165.148C64.9268 165.148 65.1188 165.12 65.3188 165.064C65.5188 165.008 65.7148 164.912 65.9068 164.776C66.0188 164.712 66.1228 164.688 66.2188 164.704C66.3148 164.72 66.3908 164.764 66.4468 164.836C66.5108 164.9 66.5508 164.98 66.5668 165.076C66.5908 165.164 66.5868 165.256 66.5548 165.352C66.5228 165.448 66.4548 165.528 66.3508 165.592C66.0948 165.776 65.8148 165.908 65.5108 165.988C65.2148 166.068 64.9268 166.108 64.6468 166.108ZM70.1761 166.108C69.6961 166.108 69.2921 166.024 68.9641 165.856C68.6361 165.688 68.3921 165.44 68.2321 165.112C68.0721 164.784 67.9921 164.384 67.9921 163.912V161.08H67.2721C67.1121 161.08 66.9881 161.04 66.9001 160.96C66.8121 160.872 66.7681 160.756 66.7681 160.612C66.7681 160.46 66.8121 160.344 66.9001 160.264C66.9881 160.184 67.1121 160.144 67.2721 160.144H67.9921V158.908C67.9921 158.708 68.0441 158.556 68.1481 158.452C68.2601 158.348 68.4121 158.296 68.6041 158.296C68.7961 158.296 68.9441 158.348 69.0481 158.452C69.1521 158.556 69.2041 158.708 69.2041 158.908V160.144H70.6081C70.7681 160.144 70.8921 160.184 70.9801 160.264C71.0681 160.344 71.1121 160.46 71.1121 160.612C71.1121 160.756 71.0681 160.872 70.9801 160.96C70.8921 161.04 70.7681 161.08 70.6081 161.08H69.2041V163.816C69.2041 164.24 69.2921 164.56 69.4681 164.776C69.6521 164.992 69.9481 165.1 70.3561 165.1C70.5001 165.1 70.6241 165.088 70.7281 165.064C70.8401 165.032 70.9321 165.012 71.0041 165.004C71.0921 165.004 71.1641 165.036 71.2201 165.1C71.2761 165.156 71.3041 165.268 71.3041 165.436C71.3041 165.556 71.2801 165.668 71.2321 165.772C71.1921 165.876 71.1161 165.944 71.0041 165.976C70.9081 166.008 70.7761 166.036 70.6081 166.06C70.4481 166.092 70.3041 166.108 70.1761 166.108Z" fill="#FF8A00"/>
<path d="M82.3708 165.17C82.7491 165.58 83.3623 165.58 83.7406 165.17L88.2163 160.316C88.5946 159.905 88.5946 159.24 88.2163 158.83C87.8381 158.42 87.2248 158.42 86.8466 158.83L82.3708 163.684C81.9926 164.095 81.9926 164.76 82.3708 165.17Z" fill="#FF8A00"/>
<path d="M83.6703 165.192C84.0485 164.782 84.0485 164.117 83.6703 163.707L79.1534 158.808C78.7752 158.397 78.1619 158.397 77.7837 158.808C77.4054 159.218 77.4054 159.883 77.7837 160.293L82.3005 165.192C82.6788 165.603 83.292 165.603 83.6703 165.192Z" fill="#FF8A00"/>
<defs>
<linearGradient id="paint0_linear_493_709" x1="66.3707" y1="49" x2="66.3707" y2="81" gradientUnits="userSpaceOnUse">
<stop stop-color="#76BC21" stop-opacity="0.75"/>
<stop offset="1" stop-color="#6EAF20"/>
</linearGradient>
<linearGradient id="paint1_linear_493_709" x1="62.7672" y1="1" x2="62.7672" y2="31" gradientUnits="userSpaceOnUse">
<stop stop-color="#006837" stop-opacity="0.75"/>
<stop offset="1" stop-color="#01592F"/>
</linearGradient>
<linearGradient id="paint2_linear_493_709" x1="68.5" y1="96" x2="68.5" y2="128" gradientUnits="userSpaceOnUse">
<stop stop-color="#FFAA00" stop-opacity="0.75"/>
<stop offset="1" stop-color="#E89B01"/>
</linearGradient>
<linearGradient id="paint3_linear_493_709" x1="67.3534" y1="196" x2="67.3534" y2="228" gradientUnits="userSpaceOnUse">
<stop stop-color="#FE5000" stop-opacity="0.74"/>
<stop offset="1" stop-color="#E74A02"/>
</linearGradient>
<linearGradient id="paint4_linear_493_709" x1="66.5345" y1="146" x2="66.5345" y2="178" gradientUnits="userSpaceOnUse">
<stop stop-color="#FF7B1D" stop-opacity="0.75"/>
<stop offset="1" stop-color="#EB711A"/>
</linearGradient>
</defs>
</svg>
