<svg width="118" height="231" viewBox="0 0 118 231" fill="none" xmlns="http://www.w3.org/2000/svg">
<rect x="14" y="48" width="90" height="32" rx="16" fill="white" fill-opacity="0.15"/>
<rect x="13.5" y="47.5" width="91" height="33" rx="16.5" stroke="url(#paint0_linear_493_710)" stroke-opacity="0.25"/>
<path d="M33.804 68.108C33.436 68.108 33.076 68.08 32.724 68.024C32.372 67.968 32.04 67.884 31.728 67.772C31.416 67.652 31.136 67.508 30.888 67.34C30.768 67.252 30.684 67.152 30.636 67.04C30.596 66.928 30.584 66.82 30.6 66.716C30.624 66.604 30.672 66.508 30.744 66.428C30.816 66.348 30.904 66.3 31.008 66.284C31.112 66.26 31.228 66.292 31.356 66.38C31.716 66.612 32.096 66.784 32.496 66.896C32.896 67 33.332 67.052 33.804 67.052C34.484 67.052 34.984 66.932 35.304 66.692C35.632 66.444 35.796 66.124 35.796 65.732C35.796 65.412 35.68 65.16 35.448 64.976C35.216 64.784 34.828 64.632 34.284 64.52L33 64.256C32.24 64.096 31.672 63.832 31.296 63.464C30.928 63.096 30.744 62.6 30.744 61.976C30.744 61.6 30.82 61.256 30.972 60.944C31.132 60.632 31.352 60.364 31.632 60.14C31.912 59.908 32.248 59.732 32.64 59.612C33.032 59.492 33.46 59.432 33.924 59.432C34.42 59.432 34.884 59.496 35.316 59.624C35.756 59.752 36.148 59.948 36.492 60.212C36.596 60.284 36.664 60.376 36.696 60.488C36.736 60.592 36.744 60.696 36.72 60.8C36.704 60.904 36.66 60.992 36.588 61.064C36.516 61.136 36.424 61.18 36.312 61.196C36.2 61.204 36.076 61.164 35.94 61.076C35.628 60.868 35.308 60.72 34.98 60.632C34.66 60.536 34.304 60.488 33.912 60.488C33.52 60.488 33.176 60.548 32.88 60.668C32.592 60.788 32.368 60.956 32.208 61.172C32.056 61.388 31.98 61.644 31.98 61.94C31.98 62.276 32.088 62.544 32.304 62.744C32.52 62.944 32.88 63.096 33.384 63.2L34.656 63.464C35.456 63.632 36.052 63.892 36.444 64.244C36.836 64.596 37.032 65.064 37.032 65.648C37.032 66.024 36.956 66.364 36.804 66.668C36.652 66.964 36.436 67.22 36.156 67.436C35.876 67.652 35.536 67.82 35.136 67.94C34.744 68.052 34.3 68.108 33.804 68.108ZM40.1888 68.108C39.7808 68.108 39.4128 68.028 39.0848 67.868C38.7648 67.708 38.5128 67.492 38.3288 67.22C38.1448 66.948 38.0528 66.64 38.0528 66.296C38.0528 65.864 38.1608 65.524 38.3768 65.276C38.6008 65.02 38.9648 64.84 39.4688 64.736C39.9808 64.624 40.6688 64.568 41.5328 64.568H42.0968V65.312H41.5448C40.9688 65.312 40.5128 65.34 40.1768 65.396C39.8408 65.452 39.6008 65.548 39.4568 65.684C39.3208 65.812 39.2528 65.992 39.2528 66.224C39.2528 66.528 39.3568 66.776 39.5648 66.968C39.7728 67.152 40.0608 67.244 40.4288 67.244C40.7248 67.244 40.9848 67.176 41.2088 67.04C41.4328 66.896 41.6088 66.704 41.7368 66.464C41.8728 66.224 41.9408 65.948 41.9408 65.636V64.256C41.9408 63.8 41.8448 63.472 41.6528 63.272C41.4608 63.072 41.1448 62.972 40.7048 62.972C40.4488 62.972 40.1808 63.004 39.9008 63.068C39.6288 63.132 39.3448 63.24 39.0488 63.392C38.9128 63.456 38.7968 63.476 38.7008 63.452C38.6048 63.428 38.5288 63.376 38.4728 63.296C38.4168 63.208 38.3848 63.116 38.3768 63.02C38.3768 62.916 38.4008 62.816 38.4488 62.72C38.5048 62.624 38.5968 62.552 38.7248 62.504C39.0768 62.336 39.4248 62.216 39.7688 62.144C40.1128 62.072 40.4368 62.036 40.7408 62.036C41.2768 62.036 41.7168 62.12 42.0608 62.288C42.4128 62.456 42.6728 62.712 42.8408 63.056C43.0088 63.4 43.0928 63.844 43.0928 64.388V67.472C43.0928 67.664 43.0448 67.816 42.9488 67.928C42.8528 68.032 42.7128 68.084 42.5288 68.084C42.3528 68.084 42.2128 68.032 42.1088 67.928C42.0048 67.816 41.9528 67.664 41.9528 67.472V66.692H42.0608C41.9968 66.988 41.8768 67.244 41.7008 67.46C41.5328 67.668 41.3208 67.828 41.0648 67.94C40.8088 68.052 40.5168 68.108 40.1888 68.108ZM46.9716 68.084C46.8036 68.084 46.6556 68.04 46.5276 67.952C46.4076 67.864 46.3076 67.728 46.2276 67.544L44.2236 62.888C44.1596 62.744 44.1356 62.608 44.1516 62.48C44.1676 62.352 44.2276 62.252 44.3316 62.18C44.4356 62.1 44.5756 62.06 44.7516 62.06C44.9036 62.06 45.0236 62.096 45.1116 62.168C45.1996 62.24 45.2796 62.364 45.3516 62.54L47.1636 67.004H46.8276L48.6756 62.54C48.7476 62.364 48.8276 62.24 48.9156 62.168C49.0116 62.096 49.1436 62.06 49.3116 62.06C49.4556 62.06 49.5676 62.1 49.6476 62.18C49.7356 62.252 49.7876 62.352 49.8036 62.48C49.8276 62.6 49.8076 62.732 49.7436 62.876L47.7156 67.544C47.6436 67.728 47.5436 67.864 47.4156 67.952C47.2876 68.04 47.1396 68.084 46.9716 68.084ZM53.5805 68.108C52.9405 68.108 52.3885 67.988 51.9245 67.748C51.4685 67.5 51.1125 67.152 50.8565 66.704C50.6085 66.248 50.4845 65.708 50.4845 65.084C50.4845 64.476 50.6085 63.944 50.8565 63.488C51.1045 63.032 51.4445 62.676 51.8765 62.42C52.3085 62.164 52.8005 62.036 53.3525 62.036C53.7605 62.036 54.1245 62.104 54.4445 62.24C54.7645 62.368 55.0365 62.56 55.2605 62.816C55.4925 63.064 55.6645 63.368 55.7765 63.728C55.8965 64.088 55.9565 64.492 55.9565 64.94C55.9565 65.076 55.9165 65.18 55.8365 65.252C55.7565 65.316 55.6365 65.348 55.4765 65.348H51.4445V64.604H55.1405L54.9365 64.772C54.9365 64.372 54.8765 64.032 54.7565 63.752C54.6445 63.472 54.4725 63.26 54.2405 63.116C54.0165 62.964 53.7365 62.888 53.4005 62.888C53.0245 62.888 52.7045 62.976 52.4405 63.152C52.1845 63.328 51.9885 63.572 51.8525 63.884C51.7165 64.196 51.6485 64.56 51.6485 64.976V65.048C51.6485 65.752 51.8125 66.284 52.1405 66.644C52.4765 66.996 52.9605 67.172 53.5925 67.172C53.8325 67.172 54.0845 67.14 54.3485 67.076C54.6205 67.012 54.8765 66.904 55.1165 66.752C55.2525 66.672 55.3725 66.636 55.4765 66.644C55.5885 66.652 55.6765 66.688 55.7405 66.752C55.8125 66.816 55.8565 66.896 55.8725 66.992C55.8885 67.088 55.8725 67.188 55.8245 67.292C55.7765 67.388 55.6925 67.476 55.5725 67.556C55.3005 67.74 54.9845 67.88 54.6245 67.976C54.2645 68.064 53.9165 68.108 53.5805 68.108ZM61.2338 68.084C61.0258 68.084 60.8618 68.028 60.7418 67.916C60.6298 67.804 60.5738 67.64 60.5738 67.424V60.212C60.5738 59.996 60.6298 59.832 60.7418 59.72C60.8618 59.6 61.0298 59.54 61.2458 59.54H65.5178C65.6938 59.54 65.8218 59.584 65.9018 59.672C65.9898 59.752 66.0338 59.872 66.0338 60.032C66.0338 60.2 65.9898 60.328 65.9018 60.416C65.8218 60.504 65.6938 60.548 65.5178 60.548H61.8218V63.248H65.2778C65.4378 63.248 65.5618 63.292 65.6498 63.38C65.7458 63.46 65.7938 63.58 65.7938 63.74C65.7938 63.908 65.7458 64.036 65.6498 64.124C65.5618 64.212 65.4378 64.256 65.2778 64.256H61.8218V67.424C61.8218 67.864 61.6258 68.084 61.2338 68.084ZM69.4077 68.108C68.8157 68.108 68.3037 67.984 67.8717 67.736C67.4477 67.488 67.1157 67.136 66.8757 66.68C66.6357 66.224 66.5157 65.688 66.5157 65.072C66.5157 64.6 66.5837 64.18 66.7197 63.812C66.8557 63.444 67.0477 63.128 67.2957 62.864C67.5517 62.592 67.8557 62.388 68.2077 62.252C68.5677 62.108 68.9677 62.036 69.4077 62.036C69.9917 62.036 70.4957 62.16 70.9197 62.408C71.3517 62.656 71.6877 63.008 71.9277 63.464C72.1677 63.912 72.2877 64.448 72.2877 65.072C72.2877 65.536 72.2197 65.956 72.0837 66.332C71.9477 66.708 71.7517 67.028 71.4957 67.292C71.2477 67.556 70.9437 67.76 70.5837 67.904C70.2317 68.04 69.8397 68.108 69.4077 68.108ZM69.4077 67.172C69.7357 67.172 70.0237 67.092 70.2717 66.932C70.5197 66.772 70.7117 66.536 70.8477 66.224C70.9917 65.912 71.0637 65.528 71.0637 65.072C71.0637 64.384 70.9117 63.864 70.6077 63.512C70.3037 63.16 69.9037 62.984 69.4077 62.984C69.0717 62.984 68.7797 63.064 68.5317 63.224C68.2837 63.376 68.0877 63.608 67.9437 63.92C67.8077 64.232 67.7397 64.616 67.7397 65.072C67.7397 65.752 67.8917 66.272 68.1957 66.632C68.4997 66.992 68.9037 67.172 69.4077 67.172ZM74.2609 68.084C74.0609 68.084 73.9089 68.032 73.8049 67.928C73.7009 67.816 73.6489 67.664 73.6489 67.472V62.672C73.6489 62.472 73.7009 62.32 73.8049 62.216C73.9089 62.112 74.0529 62.06 74.2369 62.06C74.4289 62.06 74.5729 62.112 74.6689 62.216C74.7729 62.32 74.8249 62.472 74.8249 62.672V63.548H74.7049C74.8329 63.068 75.0689 62.704 75.4129 62.456C75.7569 62.208 76.1969 62.064 76.7329 62.024C76.8769 62.016 76.9889 62.052 77.0689 62.132C77.1569 62.212 77.2049 62.336 77.2129 62.504C77.2289 62.672 77.1929 62.808 77.1049 62.912C77.0169 63.008 76.8809 63.064 76.6969 63.08L76.4689 63.104C75.9489 63.152 75.5529 63.316 75.2809 63.596C75.0089 63.876 74.8729 64.26 74.8729 64.748V67.472C74.8729 67.664 74.8209 67.816 74.7169 67.928C74.6209 68.032 74.4689 68.084 74.2609 68.084ZM78.7494 68.084C78.5574 68.084 78.4094 68.032 78.3054 67.928C78.2014 67.816 78.1494 67.664 78.1494 67.472V62.672C78.1494 62.472 78.2014 62.32 78.3054 62.216C78.4094 62.112 78.5534 62.06 78.7374 62.06C78.9294 62.06 79.0734 62.112 79.1694 62.216C79.2734 62.32 79.3254 62.472 79.3254 62.672V63.656L79.1934 63.392C79.3534 62.968 79.6014 62.636 79.9374 62.396C80.2734 62.156 80.6774 62.036 81.1494 62.036C81.6374 62.036 82.0334 62.152 82.3374 62.384C82.6414 62.616 82.8494 62.972 82.9614 63.452H82.7934C82.9454 63.012 83.2054 62.668 83.5734 62.42C83.9414 62.164 84.3694 62.036 84.8574 62.036C85.3054 62.036 85.6734 62.124 85.9614 62.3C86.2494 62.468 86.4654 62.728 86.6094 63.08C86.7534 63.424 86.8254 63.86 86.8254 64.388V67.472C86.8254 67.664 86.7694 67.816 86.6574 67.928C86.5534 68.032 86.4054 68.084 86.2134 68.084C86.0214 68.084 85.8734 68.032 85.7694 67.928C85.6654 67.816 85.6134 67.664 85.6134 67.472V64.448C85.6134 63.952 85.5254 63.588 85.3494 63.356C85.1814 63.124 84.9014 63.008 84.5094 63.008C84.0694 63.008 83.7214 63.16 83.4654 63.464C83.2094 63.768 83.0814 64.188 83.0814 64.724V67.472C83.0814 67.664 83.0294 67.816 82.9254 67.928C82.8214 68.032 82.6734 68.084 82.4814 68.084C82.2894 68.084 82.1374 68.032 82.0254 67.928C81.9214 67.816 81.8694 67.664 81.8694 67.472V64.448C81.8694 63.952 81.7854 63.588 81.6174 63.356C81.4494 63.124 81.1694 63.008 80.7774 63.008C80.3374 63.008 79.9894 63.16 79.7334 63.464C79.4854 63.768 79.3614 64.188 79.3614 64.724V67.472C79.3614 67.88 79.1574 68.084 78.7494 68.084Z" fill="#76BC21"/>
<rect x="18" y="1" width="82" height="32" rx="16" fill="white" fill-opacity="0.15"/>
<rect x="17.5" y="0.5" width="83" height="33" rx="16.5" stroke="url(#paint1_linear_493_710)" stroke-opacity="0.25"/>
<path d="M37.804 21.108C37.436 21.108 37.076 21.08 36.724 21.024C36.372 20.968 36.04 20.884 35.728 20.772C35.416 20.652 35.136 20.508 34.888 20.34C34.768 20.252 34.684 20.152 34.636 20.04C34.596 19.928 34.584 19.82 34.6 19.716C34.624 19.604 34.672 19.508 34.744 19.428C34.816 19.348 34.904 19.3 35.008 19.284C35.112 19.26 35.228 19.292 35.356 19.38C35.716 19.612 36.096 19.784 36.496 19.896C36.896 20 37.332 20.052 37.804 20.052C38.484 20.052 38.984 19.932 39.304 19.692C39.632 19.444 39.796 19.124 39.796 18.732C39.796 18.412 39.68 18.16 39.448 17.976C39.216 17.784 38.828 17.632 38.284 17.52L37 17.256C36.24 17.096 35.672 16.832 35.296 16.464C34.928 16.096 34.744 15.6 34.744 14.976C34.744 14.6 34.82 14.256 34.972 13.944C35.132 13.632 35.352 13.364 35.632 13.14C35.912 12.908 36.248 12.732 36.64 12.612C37.032 12.492 37.46 12.432 37.924 12.432C38.42 12.432 38.884 12.496 39.316 12.624C39.756 12.752 40.148 12.948 40.492 13.212C40.596 13.284 40.664 13.376 40.696 13.488C40.736 13.592 40.744 13.696 40.72 13.8C40.704 13.904 40.66 13.992 40.588 14.064C40.516 14.136 40.424 14.18 40.312 14.196C40.2 14.204 40.076 14.164 39.94 14.076C39.628 13.868 39.308 13.72 38.98 13.632C38.66 13.536 38.304 13.488 37.912 13.488C37.52 13.488 37.176 13.548 36.88 13.668C36.592 13.788 36.368 13.956 36.208 14.172C36.056 14.388 35.98 14.644 35.98 14.94C35.98 15.276 36.088 15.544 36.304 15.744C36.52 15.944 36.88 16.096 37.384 16.2L38.656 16.464C39.456 16.632 40.052 16.892 40.444 17.244C40.836 17.596 41.032 18.064 41.032 18.648C41.032 19.024 40.956 19.364 40.804 19.668C40.652 19.964 40.436 20.22 40.156 20.436C39.876 20.652 39.536 20.82 39.136 20.94C38.744 21.052 38.3 21.108 37.804 21.108ZM45.0648 21.108C44.4248 21.108 43.8728 20.988 43.4088 20.748C42.9528 20.5 42.5968 20.152 42.3408 19.704C42.0928 19.248 41.9688 18.708 41.9688 18.084C41.9688 17.476 42.0928 16.944 42.3408 16.488C42.5888 16.032 42.9288 15.676 43.3608 15.42C43.7928 15.164 44.2848 15.036 44.8368 15.036C45.2448 15.036 45.6088 15.104 45.9288 15.24C46.2488 15.368 46.5208 15.56 46.7448 15.816C46.9768 16.064 47.1488 16.368 47.2608 16.728C47.3808 17.088 47.4408 17.492 47.4408 17.94C47.4408 18.076 47.4008 18.18 47.3208 18.252C47.2408 18.316 47.1208 18.348 46.9608 18.348H42.9288V17.604H46.6248L46.4208 17.772C46.4208 17.372 46.3608 17.032 46.2408 16.752C46.1288 16.472 45.9568 16.26 45.7248 16.116C45.5008 15.964 45.2208 15.888 44.8848 15.888C44.5088 15.888 44.1888 15.976 43.9248 16.152C43.6688 16.328 43.4728 16.572 43.3368 16.884C43.2008 17.196 43.1328 17.56 43.1328 17.976V18.048C43.1328 18.752 43.2968 19.284 43.6248 19.644C43.9608 19.996 44.4448 20.172 45.0768 20.172C45.3168 20.172 45.5688 20.14 45.8328 20.076C46.1048 20.012 46.3608 19.904 46.6008 19.752C46.7368 19.672 46.8568 19.636 46.9608 19.644C47.0728 19.652 47.1608 19.688 47.2248 19.752C47.2968 19.816 47.3408 19.896 47.3568 19.992C47.3728 20.088 47.3568 20.188 47.3088 20.292C47.2608 20.388 47.1768 20.476 47.0568 20.556C46.7848 20.74 46.4688 20.88 46.1088 20.976C45.7488 21.064 45.4008 21.108 45.0648 21.108ZM51.2464 21.108C50.7664 21.108 50.3624 21.024 50.0344 20.856C49.7064 20.688 49.4624 20.44 49.3024 20.112C49.1424 19.784 49.0624 19.384 49.0624 18.912V16.08H48.3424C48.1824 16.08 48.0584 16.04 47.9704 15.96C47.8824 15.872 47.8384 15.756 47.8384 15.612C47.8384 15.46 47.8824 15.344 47.9704 15.264C48.0584 15.184 48.1824 15.144 48.3424 15.144H49.0624V13.908C49.0624 13.708 49.1144 13.556 49.2184 13.452C49.3304 13.348 49.4824 13.296 49.6744 13.296C49.8664 13.296 50.0144 13.348 50.1184 13.452C50.2224 13.556 50.2744 13.708 50.2744 13.908V15.144H51.6784C51.8384 15.144 51.9624 15.184 52.0504 15.264C52.1384 15.344 52.1824 15.46 52.1824 15.612C52.1824 15.756 52.1384 15.872 52.0504 15.96C51.9624 16.04 51.8384 16.08 51.6784 16.08H50.2744V18.816C50.2744 19.24 50.3624 19.56 50.5384 19.776C50.7224 19.992 51.0184 20.1 51.4264 20.1C51.5704 20.1 51.6944 20.088 51.7984 20.064C51.9104 20.032 52.0024 20.012 52.0744 20.004C52.1624 20.004 52.2344 20.036 52.2904 20.1C52.3464 20.156 52.3744 20.268 52.3744 20.436C52.3744 20.556 52.3504 20.668 52.3024 20.772C52.2624 20.876 52.1864 20.944 52.0744 20.976C51.9784 21.008 51.8464 21.036 51.6784 21.06C51.5184 21.092 51.3744 21.108 51.2464 21.108ZM59.1173 21.084C58.9173 21.084 58.7613 21.028 58.6493 20.916C58.5453 20.804 58.4933 20.648 58.4933 20.448V13.584H55.9493C55.7813 13.584 55.6493 13.54 55.5533 13.452C55.4573 13.356 55.4093 13.224 55.4093 13.056C55.4093 12.888 55.4573 12.76 55.5533 12.672C55.6493 12.584 55.7813 12.54 55.9493 12.54H62.2733C62.4493 12.54 62.5853 12.584 62.6813 12.672C62.7773 12.76 62.8253 12.888 62.8253 13.056C62.8253 13.224 62.7773 13.356 62.6813 13.452C62.5853 13.54 62.4493 13.584 62.2733 13.584H59.7293V20.448C59.7293 20.648 59.6773 20.804 59.5733 20.916C59.4773 21.028 59.3253 21.084 59.1173 21.084ZM64.702 21.072C64.51 21.072 64.362 21.016 64.258 20.904C64.154 20.784 64.102 20.62 64.102 20.412V15.732C64.102 15.524 64.154 15.364 64.258 15.252C64.362 15.14 64.51 15.084 64.702 15.084C64.894 15.084 65.042 15.14 65.146 15.252C65.258 15.364 65.314 15.524 65.314 15.732V20.412C65.314 20.62 65.262 20.784 65.158 20.904C65.054 21.016 64.902 21.072 64.702 21.072ZM64.702 13.836C64.462 13.836 64.274 13.776 64.138 13.656C64.01 13.536 63.946 13.368 63.946 13.152C63.946 12.928 64.01 12.76 64.138 12.648C64.274 12.528 64.462 12.468 64.702 12.468C64.942 12.468 65.126 12.528 65.254 12.648C65.39 12.76 65.458 12.928 65.458 13.152C65.458 13.368 65.39 13.536 65.254 13.656C65.126 13.776 64.942 13.836 64.702 13.836ZM67.644 21.084C67.452 21.084 67.304 21.032 67.2 20.928C67.096 20.816 67.044 20.664 67.044 20.472V15.672C67.044 15.472 67.096 15.32 67.2 15.216C67.304 15.112 67.448 15.06 67.632 15.06C67.824 15.06 67.968 15.112 68.064 15.216C68.168 15.32 68.22 15.472 68.22 15.672V16.656L68.088 16.392C68.248 15.968 68.496 15.636 68.832 15.396C69.168 15.156 69.572 15.036 70.044 15.036C70.532 15.036 70.928 15.152 71.232 15.384C71.536 15.616 71.744 15.972 71.856 16.452H71.688C71.84 16.012 72.1 15.668 72.468 15.42C72.836 15.164 73.264 15.036 73.752 15.036C74.2 15.036 74.568 15.124 74.856 15.3C75.144 15.468 75.36 15.728 75.504 16.08C75.648 16.424 75.72 16.86 75.72 17.388V20.472C75.72 20.664 75.664 20.816 75.552 20.928C75.448 21.032 75.3 21.084 75.108 21.084C74.916 21.084 74.768 21.032 74.664 20.928C74.56 20.816 74.508 20.664 74.508 20.472V17.448C74.508 16.952 74.42 16.588 74.244 16.356C74.076 16.124 73.796 16.008 73.404 16.008C72.964 16.008 72.616 16.16 72.36 16.464C72.104 16.768 71.976 17.188 71.976 17.724V20.472C71.976 20.664 71.924 20.816 71.82 20.928C71.716 21.032 71.568 21.084 71.376 21.084C71.184 21.084 71.032 21.032 70.92 20.928C70.816 20.816 70.764 20.664 70.764 20.472V17.448C70.764 16.952 70.68 16.588 70.512 16.356C70.344 16.124 70.064 16.008 69.672 16.008C69.232 16.008 68.884 16.16 68.628 16.464C68.38 16.768 68.256 17.188 68.256 17.724V20.472C68.256 20.88 68.052 21.084 67.644 21.084ZM80.1625 21.108C79.5225 21.108 78.9705 20.988 78.5065 20.748C78.0505 20.5 77.6945 20.152 77.4385 19.704C77.1905 19.248 77.0665 18.708 77.0665 18.084C77.0665 17.476 77.1905 16.944 77.4385 16.488C77.6865 16.032 78.0265 15.676 78.4585 15.42C78.8905 15.164 79.3825 15.036 79.9345 15.036C80.3425 15.036 80.7065 15.104 81.0265 15.24C81.3465 15.368 81.6185 15.56 81.8425 15.816C82.0745 16.064 82.2465 16.368 82.3585 16.728C82.4785 17.088 82.5385 17.492 82.5385 17.94C82.5385 18.076 82.4985 18.18 82.4185 18.252C82.3385 18.316 82.2185 18.348 82.0585 18.348H78.0265V17.604H81.7225L81.5185 17.772C81.5185 17.372 81.4585 17.032 81.3385 16.752C81.2265 16.472 81.0545 16.26 80.8225 16.116C80.5985 15.964 80.3185 15.888 79.9825 15.888C79.6065 15.888 79.2865 15.976 79.0225 16.152C78.7665 16.328 78.5705 16.572 78.4345 16.884C78.2985 17.196 78.2305 17.56 78.2305 17.976V18.048C78.2305 18.752 78.3945 19.284 78.7225 19.644C79.0585 19.996 79.5425 20.172 80.1745 20.172C80.4145 20.172 80.6665 20.14 80.9305 20.076C81.2025 20.012 81.4585 19.904 81.6985 19.752C81.8345 19.672 81.9545 19.636 82.0585 19.644C82.1705 19.652 82.2585 19.688 82.3225 19.752C82.3945 19.816 82.4385 19.896 82.4545 19.992C82.4705 20.088 82.4545 20.188 82.4065 20.292C82.3585 20.388 82.2745 20.476 82.1545 20.556C81.8825 20.74 81.5665 20.88 81.2065 20.976C80.8465 21.064 80.4985 21.108 80.1625 21.108Z" fill="#01592F"/>
<rect x="1" y="98" width="116" height="32" rx="16" fill="white" fill-opacity="0.15"/>
<rect x="0.5" y="97.5" width="117" height="33" rx="16.5" stroke="url(#paint2_linear_493_710)" stroke-opacity="0.25"/>
<path d="M20.804 118.108C20.436 118.108 20.076 118.08 19.724 118.024C19.372 117.968 19.04 117.884 18.728 117.772C18.416 117.652 18.136 117.508 17.888 117.34C17.768 117.252 17.684 117.152 17.636 117.04C17.596 116.928 17.584 116.82 17.6 116.716C17.624 116.604 17.672 116.508 17.744 116.428C17.816 116.348 17.904 116.3 18.008 116.284C18.112 116.26 18.228 116.292 18.356 116.38C18.716 116.612 19.096 116.784 19.496 116.896C19.896 117 20.332 117.052 20.804 117.052C21.484 117.052 21.984 116.932 22.304 116.692C22.632 116.444 22.796 116.124 22.796 115.732C22.796 115.412 22.68 115.16 22.448 114.976C22.216 114.784 21.828 114.632 21.284 114.52L20 114.256C19.24 114.096 18.672 113.832 18.296 113.464C17.928 113.096 17.744 112.6 17.744 111.976C17.744 111.6 17.82 111.256 17.972 110.944C18.132 110.632 18.352 110.364 18.632 110.14C18.912 109.908 19.248 109.732 19.64 109.612C20.032 109.492 20.46 109.432 20.924 109.432C21.42 109.432 21.884 109.496 22.316 109.624C22.756 109.752 23.148 109.948 23.492 110.212C23.596 110.284 23.664 110.376 23.696 110.488C23.736 110.592 23.744 110.696 23.72 110.8C23.704 110.904 23.66 110.992 23.588 111.064C23.516 111.136 23.424 111.18 23.312 111.196C23.2 111.204 23.076 111.164 22.94 111.076C22.628 110.868 22.308 110.72 21.98 110.632C21.66 110.536 21.304 110.488 20.912 110.488C20.52 110.488 20.176 110.548 19.88 110.668C19.592 110.788 19.368 110.956 19.208 111.172C19.056 111.388 18.98 111.644 18.98 111.94C18.98 112.276 19.088 112.544 19.304 112.744C19.52 112.944 19.88 113.096 20.384 113.2L21.656 113.464C22.456 113.632 23.052 113.892 23.444 114.244C23.836 114.596 24.032 115.064 24.032 115.648C24.032 116.024 23.956 116.364 23.804 116.668C23.652 116.964 23.436 117.22 23.156 117.436C22.876 117.652 22.536 117.82 22.136 117.94C21.744 118.052 21.3 118.108 20.804 118.108ZM28.0648 118.108C27.4248 118.108 26.8728 117.988 26.4088 117.748C25.9528 117.5 25.5968 117.152 25.3408 116.704C25.0928 116.248 24.9688 115.708 24.9688 115.084C24.9688 114.476 25.0928 113.944 25.3408 113.488C25.5888 113.032 25.9288 112.676 26.3608 112.42C26.7928 112.164 27.2848 112.036 27.8368 112.036C28.2448 112.036 28.6088 112.104 28.9288 112.24C29.2488 112.368 29.5208 112.56 29.7448 112.816C29.9768 113.064 30.1488 113.368 30.2608 113.728C30.3808 114.088 30.4408 114.492 30.4408 114.94C30.4408 115.076 30.4008 115.18 30.3208 115.252C30.2408 115.316 30.1208 115.348 29.9608 115.348H25.9288V114.604H29.6248L29.4208 114.772C29.4208 114.372 29.3608 114.032 29.2408 113.752C29.1288 113.472 28.9568 113.26 28.7248 113.116C28.5008 112.964 28.2208 112.888 27.8848 112.888C27.5088 112.888 27.1888 112.976 26.9248 113.152C26.6688 113.328 26.4728 113.572 26.3368 113.884C26.2008 114.196 26.1328 114.56 26.1328 114.976V115.048C26.1328 115.752 26.2968 116.284 26.6248 116.644C26.9608 116.996 27.4448 117.172 28.0768 117.172C28.3168 117.172 28.5688 117.14 28.8328 117.076C29.1048 117.012 29.3608 116.904 29.6008 116.752C29.7368 116.672 29.8568 116.636 29.9608 116.644C30.0728 116.652 30.1608 116.688 30.2248 116.752C30.2968 116.816 30.3408 116.896 30.3568 116.992C30.3728 117.088 30.3568 117.188 30.3088 117.292C30.2608 117.388 30.1768 117.476 30.0568 117.556C29.7848 117.74 29.4688 117.88 29.1088 117.976C28.7488 118.064 28.4008 118.108 28.0648 118.108ZM32.3622 118.084C32.1702 118.084 32.0222 118.032 31.9182 117.928C31.8142 117.816 31.7622 117.664 31.7622 117.472V112.672C31.7622 112.472 31.8142 112.32 31.9182 112.216C32.0222 112.112 32.1662 112.06 32.3502 112.06C32.5422 112.06 32.6862 112.112 32.7822 112.216C32.8862 112.32 32.9382 112.472 32.9382 112.672V113.608L32.8062 113.392C32.9822 112.944 33.2582 112.608 33.6342 112.384C34.0102 112.152 34.4422 112.036 34.9302 112.036C35.3942 112.036 35.7782 112.124 36.0822 112.3C36.3942 112.468 36.6262 112.728 36.7782 113.08C36.9302 113.424 37.0062 113.86 37.0062 114.388V117.472C37.0062 117.664 36.9542 117.816 36.8502 117.928C36.7462 118.032 36.5982 118.084 36.4062 118.084C36.2062 118.084 36.0542 118.032 35.9502 117.928C35.8462 117.816 35.7942 117.664 35.7942 117.472V114.46C35.7942 113.956 35.6942 113.588 35.4942 113.356C35.3022 113.124 34.9982 113.008 34.5822 113.008C34.0942 113.008 33.7022 113.16 33.4062 113.464C33.1182 113.768 32.9742 114.176 32.9742 114.688V117.472C32.9742 117.88 32.7702 118.084 32.3622 118.084ZM40.9082 118.108C40.3962 118.108 39.9442 117.988 39.5522 117.748C39.1682 117.5 38.8682 117.148 38.6522 116.692C38.4362 116.228 38.3282 115.688 38.3282 115.072C38.3282 114.44 38.4362 113.9 38.6522 113.452C38.8682 113.004 39.1682 112.656 39.5522 112.408C39.9442 112.16 40.3962 112.036 40.9082 112.036C41.4202 112.036 41.8602 112.164 42.2282 112.42C42.6042 112.668 42.8562 113.004 42.9842 113.428H42.8522V110.068C42.8522 109.868 42.9042 109.716 43.0082 109.612C43.1122 109.508 43.2602 109.456 43.4522 109.456C43.6442 109.456 43.7922 109.508 43.8962 109.612C44.0082 109.716 44.0642 109.868 44.0642 110.068V117.472C44.0642 117.664 44.0122 117.816 43.9082 117.928C43.8042 118.032 43.6562 118.084 43.4642 118.084C43.2722 118.084 43.1242 118.032 43.0202 117.928C42.9162 117.816 42.8642 117.664 42.8642 117.472V116.416L42.9962 116.68C42.8682 117.112 42.6162 117.46 42.2402 117.724C41.8722 117.98 41.4282 118.108 40.9082 118.108ZM41.2202 117.172C41.5482 117.172 41.8362 117.092 42.0842 116.932C42.3322 116.772 42.5242 116.536 42.6602 116.224C42.8042 115.912 42.8762 115.528 42.8762 115.072C42.8762 114.384 42.7242 113.864 42.4202 113.512C42.1162 113.16 41.7162 112.984 41.2202 112.984C40.8842 112.984 40.5922 113.064 40.3442 113.224C40.0962 113.376 39.9002 113.608 39.7562 113.92C39.6202 114.232 39.5522 114.616 39.5522 115.072C39.5522 115.752 39.7042 116.272 40.0082 116.632C40.3122 116.992 40.7162 117.172 41.2202 117.172ZM49.6861 118.084C49.4861 118.084 49.3301 118.028 49.2181 117.916C49.1141 117.804 49.0621 117.648 49.0621 117.448V110.176C49.0621 109.968 49.1181 109.812 49.2301 109.708C49.3421 109.596 49.4981 109.54 49.6981 109.54H52.5661C53.4781 109.54 54.1821 109.756 54.6781 110.188C55.1741 110.62 55.4221 111.232 55.4221 112.024C55.4221 112.536 55.3101 112.976 55.0861 113.344C54.8621 113.712 54.5341 113.992 54.1021 114.184C53.6781 114.376 53.1661 114.472 52.5661 114.472L52.6741 114.304H52.9861C53.3061 114.304 53.5821 114.384 53.8141 114.544C54.0541 114.704 54.2701 114.96 54.4621 115.312L55.4941 117.232C55.5741 117.376 55.6101 117.516 55.6021 117.652C55.6021 117.78 55.5541 117.884 55.4581 117.964C55.3701 118.044 55.2421 118.084 55.0741 118.084C54.8981 118.084 54.7541 118.048 54.6421 117.976C54.5381 117.896 54.4421 117.78 54.3541 117.628L53.0941 115.3C52.9261 114.988 52.7341 114.78 52.5181 114.676C52.3021 114.564 52.0181 114.508 51.6661 114.508H50.3101V117.448C50.3101 117.648 50.2581 117.804 50.1541 117.916C50.0501 118.028 49.8941 118.084 49.6861 118.084ZM50.3101 113.572H52.3621C52.9701 113.572 53.4301 113.444 53.7421 113.188C54.0541 112.932 54.2101 112.552 54.2101 112.048C54.2101 111.552 54.0541 111.176 53.7421 110.92C53.4301 110.664 52.9701 110.536 52.3621 110.536H50.3101V113.572ZM59.6586 118.108C59.0186 118.108 58.4666 117.988 58.0026 117.748C57.5466 117.5 57.1906 117.152 56.9346 116.704C56.6866 116.248 56.5626 115.708 56.5626 115.084C56.5626 114.476 56.6866 113.944 56.9346 113.488C57.1826 113.032 57.5226 112.676 57.9546 112.42C58.3866 112.164 58.8786 112.036 59.4306 112.036C59.8386 112.036 60.2026 112.104 60.5226 112.24C60.8426 112.368 61.1146 112.56 61.3386 112.816C61.5706 113.064 61.7426 113.368 61.8546 113.728C61.9746 114.088 62.0346 114.492 62.0346 114.94C62.0346 115.076 61.9946 115.18 61.9146 115.252C61.8346 115.316 61.7146 115.348 61.5546 115.348H57.5226V114.604H61.2186L61.0146 114.772C61.0146 114.372 60.9546 114.032 60.8346 113.752C60.7226 113.472 60.5506 113.26 60.3186 113.116C60.0946 112.964 59.8146 112.888 59.4786 112.888C59.1026 112.888 58.7826 112.976 58.5186 113.152C58.2626 113.328 58.0666 113.572 57.9306 113.884C57.7946 114.196 57.7266 114.56 57.7266 114.976V115.048C57.7266 115.752 57.8906 116.284 58.2186 116.644C58.5546 116.996 59.0386 117.172 59.6706 117.172C59.9106 117.172 60.1626 117.14 60.4266 117.076C60.6986 117.012 60.9546 116.904 61.1946 116.752C61.3306 116.672 61.4506 116.636 61.5546 116.644C61.6666 116.652 61.7546 116.688 61.8186 116.752C61.8906 116.816 61.9346 116.896 61.9506 116.992C61.9666 117.088 61.9506 117.188 61.9026 117.292C61.8546 117.388 61.7706 117.476 61.6506 117.556C61.3786 117.74 61.0626 117.88 60.7026 117.976C60.3426 118.064 59.9946 118.108 59.6586 118.108ZM63.9799 118.084C63.7879 118.084 63.6399 118.032 63.5359 117.928C63.4319 117.816 63.3799 117.664 63.3799 117.472V112.672C63.3799 112.472 63.4319 112.32 63.5359 112.216C63.6399 112.112 63.7839 112.06 63.9679 112.06C64.1599 112.06 64.3039 112.112 64.3999 112.216C64.5039 112.32 64.5559 112.472 64.5559 112.672V113.656L64.4239 113.392C64.5839 112.968 64.8319 112.636 65.1679 112.396C65.5039 112.156 65.9079 112.036 66.3799 112.036C66.8679 112.036 67.2639 112.152 67.5679 112.384C67.8719 112.616 68.0799 112.972 68.1919 113.452H68.0239C68.1759 113.012 68.4359 112.668 68.8039 112.42C69.1719 112.164 69.5999 112.036 70.0879 112.036C70.5359 112.036 70.9039 112.124 71.1919 112.3C71.4799 112.468 71.6959 112.728 71.8399 113.08C71.9839 113.424 72.0559 113.86 72.0559 114.388V117.472C72.0559 117.664 71.9999 117.816 71.8879 117.928C71.7839 118.032 71.6359 118.084 71.4439 118.084C71.2519 118.084 71.1039 118.032 70.9999 117.928C70.8959 117.816 70.8439 117.664 70.8439 117.472V114.448C70.8439 113.952 70.7559 113.588 70.5799 113.356C70.4119 113.124 70.1319 113.008 69.7399 113.008C69.2999 113.008 68.9519 113.16 68.6959 113.464C68.4399 113.768 68.3119 114.188 68.3119 114.724V117.472C68.3119 117.664 68.2599 117.816 68.1559 117.928C68.0519 118.032 67.9039 118.084 67.7119 118.084C67.5199 118.084 67.3679 118.032 67.2559 117.928C67.1519 117.816 67.0999 117.664 67.0999 117.472V114.448C67.0999 113.952 67.0159 113.588 66.8479 113.356C66.6799 113.124 66.3999 113.008 66.0079 113.008C65.5679 113.008 65.2199 113.16 64.9639 113.464C64.7159 113.768 64.5919 114.188 64.5919 114.724V117.472C64.5919 117.88 64.3879 118.084 63.9799 118.084ZM74.3504 118.072C74.1584 118.072 74.0104 118.016 73.9064 117.904C73.8024 117.784 73.7504 117.62 73.7504 117.412V112.732C73.7504 112.524 73.8024 112.364 73.9064 112.252C74.0104 112.14 74.1584 112.084 74.3504 112.084C74.5424 112.084 74.6904 112.14 74.7944 112.252C74.9064 112.364 74.9624 112.524 74.9624 112.732V117.412C74.9624 117.62 74.9104 117.784 74.8064 117.904C74.7024 118.016 74.5504 118.072 74.3504 118.072ZM74.3504 110.836C74.1104 110.836 73.9224 110.776 73.7864 110.656C73.6584 110.536 73.5944 110.368 73.5944 110.152C73.5944 109.928 73.6584 109.76 73.7864 109.648C73.9224 109.528 74.1104 109.468 74.3504 109.468C74.5904 109.468 74.7744 109.528 74.9024 109.648C75.0384 109.76 75.1064 109.928 75.1064 110.152C75.1064 110.368 75.0384 110.536 74.9024 110.656C74.7744 110.776 74.5904 110.836 74.3504 110.836ZM77.2684 118.084C77.0764 118.084 76.9284 118.032 76.8244 117.928C76.7204 117.816 76.6684 117.664 76.6684 117.472V112.672C76.6684 112.472 76.7204 112.32 76.8244 112.216C76.9284 112.112 77.0724 112.06 77.2564 112.06C77.4484 112.06 77.5924 112.112 77.6884 112.216C77.7924 112.32 77.8444 112.472 77.8444 112.672V113.608L77.7124 113.392C77.8884 112.944 78.1644 112.608 78.5404 112.384C78.9164 112.152 79.3484 112.036 79.8364 112.036C80.3004 112.036 80.6844 112.124 80.9884 112.3C81.3004 112.468 81.5324 112.728 81.6844 113.08C81.8364 113.424 81.9124 113.86 81.9124 114.388V117.472C81.9124 117.664 81.8604 117.816 81.7564 117.928C81.6524 118.032 81.5044 118.084 81.3124 118.084C81.1124 118.084 80.9604 118.032 80.8564 117.928C80.7524 117.816 80.7004 117.664 80.7004 117.472V114.46C80.7004 113.956 80.6004 113.588 80.4004 113.356C80.2084 113.124 79.9044 113.008 79.4884 113.008C79.0004 113.008 78.6084 113.16 78.3124 113.464C78.0244 113.768 77.8804 114.176 77.8804 114.688V117.472C77.8804 117.88 77.6764 118.084 77.2684 118.084ZM85.8145 118.108C85.3025 118.108 84.8505 117.988 84.4585 117.748C84.0745 117.5 83.7745 117.148 83.5585 116.692C83.3425 116.228 83.2345 115.688 83.2345 115.072C83.2345 114.44 83.3425 113.9 83.5585 113.452C83.7745 113.004 84.0745 112.656 84.4585 112.408C84.8505 112.16 85.3025 112.036 85.8145 112.036C86.3265 112.036 86.7665 112.164 87.1345 112.42C87.5105 112.668 87.7625 113.004 87.8905 113.428H87.7585V110.068C87.7585 109.868 87.8105 109.716 87.9145 109.612C88.0185 109.508 88.1665 109.456 88.3585 109.456C88.5505 109.456 88.6985 109.508 88.8025 109.612C88.9145 109.716 88.9705 109.868 88.9705 110.068V117.472C88.9705 117.664 88.9185 117.816 88.8145 117.928C88.7105 118.032 88.5625 118.084 88.3705 118.084C88.1785 118.084 88.0305 118.032 87.9265 117.928C87.8225 117.816 87.7705 117.664 87.7705 117.472V116.416L87.9025 116.68C87.7745 117.112 87.5225 117.46 87.1465 117.724C86.7785 117.98 86.3345 118.108 85.8145 118.108ZM86.1265 117.172C86.4545 117.172 86.7425 117.092 86.9905 116.932C87.2385 116.772 87.4305 116.536 87.5665 116.224C87.7105 115.912 87.7825 115.528 87.7825 115.072C87.7825 114.384 87.6305 113.864 87.3265 113.512C87.0225 113.16 86.6225 112.984 86.1265 112.984C85.7905 112.984 85.4985 113.064 85.2505 113.224C85.0025 113.376 84.8065 113.608 84.6625 113.92C84.5265 114.232 84.4585 114.616 84.4585 115.072C84.4585 115.752 84.6105 116.272 84.9145 116.632C85.2185 116.992 85.6225 117.172 86.1265 117.172ZM93.4203 118.108C92.7803 118.108 92.2283 117.988 91.7643 117.748C91.3083 117.5 90.9523 117.152 90.6963 116.704C90.4483 116.248 90.3243 115.708 90.3243 115.084C90.3243 114.476 90.4483 113.944 90.6963 113.488C90.9443 113.032 91.2843 112.676 91.7163 112.42C92.1483 112.164 92.6403 112.036 93.1923 112.036C93.6003 112.036 93.9643 112.104 94.2843 112.24C94.6043 112.368 94.8763 112.56 95.1003 112.816C95.3323 113.064 95.5043 113.368 95.6163 113.728C95.7363 114.088 95.7963 114.492 95.7963 114.94C95.7963 115.076 95.7563 115.18 95.6763 115.252C95.5963 115.316 95.4763 115.348 95.3163 115.348H91.2843V114.604H94.9803L94.7763 114.772C94.7763 114.372 94.7163 114.032 94.5963 113.752C94.4843 113.472 94.3123 113.26 94.0803 113.116C93.8563 112.964 93.5763 112.888 93.2403 112.888C92.8643 112.888 92.5443 112.976 92.2803 113.152C92.0243 113.328 91.8283 113.572 91.6923 113.884C91.5563 114.196 91.4883 114.56 91.4883 114.976V115.048C91.4883 115.752 91.6523 116.284 91.9803 116.644C92.3163 116.996 92.8003 117.172 93.4323 117.172C93.6723 117.172 93.9243 117.14 94.1883 117.076C94.4603 117.012 94.7163 116.904 94.9563 116.752C95.0923 116.672 95.2123 116.636 95.3163 116.644C95.4283 116.652 95.5163 116.688 95.5803 116.752C95.6523 116.816 95.6963 116.896 95.7123 116.992C95.7283 117.088 95.7123 117.188 95.6643 117.292C95.6163 117.388 95.5323 117.476 95.4123 117.556C95.1403 117.74 94.8243 117.88 94.4643 117.976C94.1043 118.064 93.7563 118.108 93.4203 118.108ZM97.7296 118.084C97.5296 118.084 97.3776 118.032 97.2736 117.928C97.1696 117.816 97.1176 117.664 97.1176 117.472V112.672C97.1176 112.472 97.1696 112.32 97.2736 112.216C97.3776 112.112 97.5216 112.06 97.7056 112.06C97.8976 112.06 98.0416 112.112 98.1376 112.216C98.2416 112.32 98.2936 112.472 98.2936 112.672V113.548H98.1736C98.3016 113.068 98.5376 112.704 98.8816 112.456C99.2256 112.208 99.6656 112.064 100.202 112.024C100.346 112.016 100.458 112.052 100.538 112.132C100.626 112.212 100.674 112.336 100.682 112.504C100.698 112.672 100.662 112.808 100.574 112.912C100.486 113.008 100.35 113.064 100.166 113.08L99.9376 113.104C99.4176 113.152 99.0216 113.316 98.7496 113.596C98.4776 113.876 98.3416 114.26 98.3416 114.748V117.472C98.3416 117.664 98.2896 117.816 98.1856 117.928C98.0896 118.032 97.9376 118.084 97.7296 118.084Z" fill="#FFAA00"/>
<rect x="17" y="198" width="83" height="32" rx="16" fill="white"/>
<rect x="16.5" y="197.5" width="84" height="33" rx="16.5" stroke="url(#paint3_linear_493_710)" stroke-opacity="0.25"/>
<path d="M37.944 218.108C37.024 218.108 36.248 217.936 35.616 217.592C34.984 217.24 34.504 216.74 34.176 216.092C33.856 215.444 33.696 214.672 33.696 213.776C33.696 213.104 33.788 212.504 33.972 211.976C34.164 211.44 34.436 210.984 34.788 210.608C35.148 210.224 35.584 209.932 36.096 209.732C36.616 209.532 37.204 209.432 37.86 209.432C38.34 209.432 38.812 209.496 39.276 209.624C39.74 209.744 40.164 209.944 40.548 210.224C40.66 210.304 40.732 210.396 40.764 210.5C40.796 210.604 40.796 210.712 40.764 210.824C40.74 210.928 40.688 211.02 40.608 211.1C40.536 211.18 40.444 211.228 40.332 211.244C40.228 211.26 40.112 211.228 39.984 211.148C39.672 210.932 39.344 210.776 39 210.68C38.656 210.576 38.276 210.524 37.86 210.524C37.236 210.524 36.708 210.652 36.276 210.908C35.852 211.164 35.532 211.536 35.316 212.024C35.1 212.504 34.992 213.088 34.992 213.776C34.992 214.84 35.244 215.648 35.748 216.2C36.252 216.752 37 217.028 37.992 217.028C38.352 217.028 38.704 216.996 39.048 216.932C39.4 216.86 39.736 216.76 40.056 216.632L39.804 217.256V214.46H38.256C38.096 214.46 37.968 214.42 37.872 214.34C37.784 214.252 37.74 214.132 37.74 213.98C37.74 213.828 37.784 213.716 37.872 213.644C37.968 213.564 38.096 213.524 38.256 213.524H40.332C40.5 213.524 40.628 213.568 40.716 213.656C40.804 213.744 40.848 213.872 40.848 214.04V217.064C40.848 217.208 40.82 217.332 40.764 217.436C40.716 217.532 40.632 217.604 40.512 217.652C40.168 217.788 39.764 217.9 39.3 217.988C38.836 218.068 38.384 218.108 37.944 218.108ZM45.3773 218.108C44.7373 218.108 44.1853 217.988 43.7213 217.748C43.2653 217.5 42.9093 217.152 42.6533 216.704C42.4053 216.248 42.2813 215.708 42.2813 215.084C42.2813 214.476 42.4053 213.944 42.6533 213.488C42.9013 213.032 43.2413 212.676 43.6733 212.42C44.1053 212.164 44.5973 212.036 45.1493 212.036C45.5573 212.036 45.9213 212.104 46.2413 212.24C46.5613 212.368 46.8333 212.56 47.0573 212.816C47.2893 213.064 47.4613 213.368 47.5733 213.728C47.6933 214.088 47.7533 214.492 47.7533 214.94C47.7533 215.076 47.7133 215.18 47.6333 215.252C47.5533 215.316 47.4333 215.348 47.2733 215.348H43.2413V214.604H46.9373L46.7333 214.772C46.7333 214.372 46.6733 214.032 46.5533 213.752C46.4413 213.472 46.2693 213.26 46.0373 213.116C45.8133 212.964 45.5333 212.888 45.1973 212.888C44.8213 212.888 44.5013 212.976 44.2373 213.152C43.9813 213.328 43.7853 213.572 43.6493 213.884C43.5133 214.196 43.4453 214.56 43.4453 214.976V215.048C43.4453 215.752 43.6093 216.284 43.9373 216.644C44.2733 216.996 44.7573 217.172 45.3893 217.172C45.6293 217.172 45.8813 217.14 46.1453 217.076C46.4173 217.012 46.6733 216.904 46.9133 216.752C47.0493 216.672 47.1693 216.636 47.2733 216.644C47.3853 216.652 47.4733 216.688 47.5373 216.752C47.6093 216.816 47.6533 216.896 47.6693 216.992C47.6853 217.088 47.6693 217.188 47.6213 217.292C47.5733 217.388 47.4893 217.476 47.3693 217.556C47.0973 217.74 46.7813 217.88 46.4213 217.976C46.0613 218.064 45.7133 218.108 45.3773 218.108ZM49.6747 218.084C49.4827 218.084 49.3347 218.032 49.2307 217.928C49.1267 217.816 49.0747 217.664 49.0747 217.472V212.672C49.0747 212.472 49.1267 212.32 49.2307 212.216C49.3347 212.112 49.4787 212.06 49.6627 212.06C49.8547 212.06 49.9987 212.112 50.0947 212.216C50.1987 212.32 50.2507 212.472 50.2507 212.672V213.608L50.1187 213.392C50.2947 212.944 50.5707 212.608 50.9467 212.384C51.3227 212.152 51.7547 212.036 52.2427 212.036C52.7067 212.036 53.0907 212.124 53.3947 212.3C53.7067 212.468 53.9387 212.728 54.0907 213.08C54.2427 213.424 54.3187 213.86 54.3187 214.388V217.472C54.3187 217.664 54.2667 217.816 54.1627 217.928C54.0587 218.032 53.9107 218.084 53.7187 218.084C53.5187 218.084 53.3667 218.032 53.2627 217.928C53.1587 217.816 53.1067 217.664 53.1067 217.472V214.46C53.1067 213.956 53.0067 213.588 52.8067 213.356C52.6147 213.124 52.3107 213.008 51.8947 213.008C51.4067 213.008 51.0147 213.16 50.7187 213.464C50.4307 213.768 50.2867 214.176 50.2867 214.688V217.472C50.2867 217.88 50.0827 218.084 49.6747 218.084ZM58.7367 218.108C58.0967 218.108 57.5447 217.988 57.0807 217.748C56.6247 217.5 56.2687 217.152 56.0127 216.704C55.7647 216.248 55.6407 215.708 55.6407 215.084C55.6407 214.476 55.7647 213.944 56.0127 213.488C56.2607 213.032 56.6007 212.676 57.0327 212.42C57.4647 212.164 57.9567 212.036 58.5087 212.036C58.9167 212.036 59.2807 212.104 59.6007 212.24C59.9207 212.368 60.1927 212.56 60.4167 212.816C60.6487 213.064 60.8207 213.368 60.9327 213.728C61.0527 214.088 61.1127 214.492 61.1127 214.94C61.1127 215.076 61.0727 215.18 60.9927 215.252C60.9127 215.316 60.7927 215.348 60.6327 215.348H56.6007V214.604H60.2967L60.0927 214.772C60.0927 214.372 60.0327 214.032 59.9127 213.752C59.8007 213.472 59.6287 213.26 59.3967 213.116C59.1727 212.964 58.8927 212.888 58.5567 212.888C58.1807 212.888 57.8607 212.976 57.5967 213.152C57.3407 213.328 57.1447 213.572 57.0087 213.884C56.8727 214.196 56.8047 214.56 56.8047 214.976V215.048C56.8047 215.752 56.9687 216.284 57.2967 216.644C57.6327 216.996 58.1167 217.172 58.7487 217.172C58.9887 217.172 59.2407 217.14 59.5047 217.076C59.7767 217.012 60.0327 216.904 60.2727 216.752C60.4087 216.672 60.5287 216.636 60.6327 216.644C60.7447 216.652 60.8327 216.688 60.8967 216.752C60.9687 216.816 61.0127 216.896 61.0287 216.992C61.0447 217.088 61.0287 217.188 60.9807 217.292C60.9327 217.388 60.8487 217.476 60.7287 217.556C60.4567 217.74 60.1407 217.88 59.7807 217.976C59.4207 218.064 59.0727 218.108 58.7367 218.108ZM63.046 218.084C62.846 218.084 62.694 218.032 62.59 217.928C62.486 217.816 62.434 217.664 62.434 217.472V212.672C62.434 212.472 62.486 212.32 62.59 212.216C62.694 212.112 62.838 212.06 63.022 212.06C63.214 212.06 63.358 212.112 63.454 212.216C63.558 212.32 63.61 212.472 63.61 212.672V213.548H63.49C63.618 213.068 63.854 212.704 64.198 212.456C64.542 212.208 64.982 212.064 65.518 212.024C65.662 212.016 65.774 212.052 65.854 212.132C65.942 212.212 65.99 212.336 65.998 212.504C66.014 212.672 65.978 212.808 65.89 212.912C65.802 213.008 65.666 213.064 65.482 213.08L65.254 213.104C64.734 213.152 64.338 213.316 64.066 213.596C63.794 213.876 63.658 214.26 63.658 214.748V217.472C63.658 217.664 63.606 217.816 63.502 217.928C63.406 218.032 63.254 218.084 63.046 218.084ZM68.724 218.108C68.316 218.108 67.948 218.028 67.62 217.868C67.3 217.708 67.048 217.492 66.864 217.22C66.68 216.948 66.588 216.64 66.588 216.296C66.588 215.864 66.696 215.524 66.912 215.276C67.136 215.02 67.5 214.84 68.004 214.736C68.516 214.624 69.204 214.568 70.068 214.568H70.632V215.312H70.08C69.504 215.312 69.048 215.34 68.712 215.396C68.376 215.452 68.136 215.548 67.992 215.684C67.856 215.812 67.788 215.992 67.788 216.224C67.788 216.528 67.892 216.776 68.1 216.968C68.308 217.152 68.596 217.244 68.964 217.244C69.26 217.244 69.52 217.176 69.744 217.04C69.968 216.896 70.144 216.704 70.272 216.464C70.408 216.224 70.476 215.948 70.476 215.636V214.256C70.476 213.8 70.38 213.472 70.188 213.272C69.996 213.072 69.68 212.972 69.24 212.972C68.984 212.972 68.716 213.004 68.436 213.068C68.164 213.132 67.88 213.24 67.584 213.392C67.448 213.456 67.332 213.476 67.236 213.452C67.14 213.428 67.064 213.376 67.008 213.296C66.952 213.208 66.92 213.116 66.912 213.02C66.912 212.916 66.936 212.816 66.984 212.72C67.04 212.624 67.132 212.552 67.26 212.504C67.612 212.336 67.96 212.216 68.304 212.144C68.648 212.072 68.972 212.036 69.276 212.036C69.812 212.036 70.252 212.12 70.596 212.288C70.948 212.456 71.208 212.712 71.376 213.056C71.544 213.4 71.628 213.844 71.628 214.388V217.472C71.628 217.664 71.58 217.816 71.484 217.928C71.388 218.032 71.248 218.084 71.064 218.084C70.888 218.084 70.748 218.032 70.644 217.928C70.54 217.816 70.488 217.664 70.488 217.472V216.692H70.596C70.532 216.988 70.412 217.244 70.236 217.46C70.068 217.668 69.856 217.828 69.6 217.94C69.344 218.052 69.052 218.108 68.724 218.108ZM75.7933 218.108C75.3133 218.108 74.9093 218.024 74.5813 217.856C74.2533 217.688 74.0093 217.44 73.8493 217.112C73.6893 216.784 73.6093 216.384 73.6093 215.912V213.08H72.8893C72.7293 213.08 72.6053 213.04 72.5173 212.96C72.4293 212.872 72.3853 212.756 72.3853 212.612C72.3853 212.46 72.4293 212.344 72.5173 212.264C72.6053 212.184 72.7293 212.144 72.8893 212.144H73.6093V210.908C73.6093 210.708 73.6613 210.556 73.7653 210.452C73.8773 210.348 74.0293 210.296 74.2213 210.296C74.4133 210.296 74.5613 210.348 74.6653 210.452C74.7693 210.556 74.8213 210.708 74.8213 210.908V212.144H76.2253C76.3853 212.144 76.5093 212.184 76.5973 212.264C76.6853 212.344 76.7293 212.46 76.7293 212.612C76.7293 212.756 76.6853 212.872 76.5973 212.96C76.5093 213.04 76.3853 213.08 76.2253 213.08H74.8213V215.816C74.8213 216.24 74.9093 216.56 75.0853 216.776C75.2693 216.992 75.5653 217.1 75.9733 217.1C76.1173 217.1 76.2413 217.088 76.3453 217.064C76.4573 217.032 76.5493 217.012 76.6213 217.004C76.7093 217.004 76.7813 217.036 76.8373 217.1C76.8933 217.156 76.9213 217.268 76.9213 217.436C76.9213 217.556 76.8973 217.668 76.8493 217.772C76.8093 217.876 76.7333 217.944 76.6213 217.976C76.5253 218.008 76.3933 218.036 76.2253 218.06C76.0653 218.092 75.9213 218.108 75.7933 218.108ZM80.3695 218.108C79.7295 218.108 79.1775 217.988 78.7135 217.748C78.2575 217.5 77.9015 217.152 77.6455 216.704C77.3975 216.248 77.2735 215.708 77.2735 215.084C77.2735 214.476 77.3975 213.944 77.6455 213.488C77.8935 213.032 78.2335 212.676 78.6655 212.42C79.0975 212.164 79.5895 212.036 80.1415 212.036C80.5495 212.036 80.9135 212.104 81.2335 212.24C81.5535 212.368 81.8255 212.56 82.0495 212.816C82.2815 213.064 82.4535 213.368 82.5655 213.728C82.6855 214.088 82.7455 214.492 82.7455 214.94C82.7455 215.076 82.7055 215.18 82.6255 215.252C82.5455 215.316 82.4255 215.348 82.2655 215.348H78.2335V214.604H81.9295L81.7255 214.772C81.7255 214.372 81.6655 214.032 81.5455 213.752C81.4335 213.472 81.2615 213.26 81.0295 213.116C80.8055 212.964 80.5255 212.888 80.1895 212.888C79.8135 212.888 79.4935 212.976 79.2295 213.152C78.9735 213.328 78.7775 213.572 78.6415 213.884C78.5055 214.196 78.4375 214.56 78.4375 214.976V215.048C78.4375 215.752 78.6015 216.284 78.9295 216.644C79.2655 216.996 79.7495 217.172 80.3815 217.172C80.6215 217.172 80.8735 217.14 81.1375 217.076C81.4095 217.012 81.6655 216.904 81.9055 216.752C82.0415 216.672 82.1615 216.636 82.2655 216.644C82.3775 216.652 82.4655 216.688 82.5295 216.752C82.6015 216.816 82.6455 216.896 82.6615 216.992C82.6775 217.088 82.6615 217.188 82.6135 217.292C82.5655 217.388 82.4815 217.476 82.3615 217.556C82.0895 217.74 81.7735 217.88 81.4135 217.976C81.0535 218.064 80.7055 218.108 80.3695 218.108Z" fill="#FE5000"/>
<rect x="21" y="148" width="75" height="32" rx="16" fill="white" fill-opacity="0.15"/>
<rect x="20.5" y="147.5" width="76" height="33" rx="16.5" stroke="url(#paint4_linear_493_710)" stroke-opacity="0.25"/>
<path d="M41.776 168.108C40.92 168.108 40.188 167.932 39.58 167.58C38.972 167.228 38.504 166.728 38.176 166.08C37.856 165.424 37.696 164.652 37.696 163.764C37.696 163.1 37.788 162.504 37.972 161.976C38.156 161.44 38.42 160.984 38.764 160.608C39.116 160.224 39.544 159.932 40.048 159.732C40.56 159.532 41.136 159.432 41.776 159.432C42.248 159.432 42.7 159.496 43.132 159.624C43.572 159.752 43.952 159.936 44.272 160.176C44.408 160.264 44.496 160.372 44.536 160.5C44.584 160.62 44.592 160.736 44.56 160.848C44.536 160.96 44.484 161.056 44.404 161.136C44.324 161.208 44.22 161.248 44.092 161.256C43.972 161.264 43.84 161.22 43.696 161.124C43.432 160.924 43.14 160.776 42.82 160.68C42.5 160.584 42.164 160.536 41.812 160.536C41.204 160.536 40.692 160.664 40.276 160.92C39.86 161.168 39.544 161.532 39.328 162.012C39.112 162.492 39.004 163.076 39.004 163.764C39.004 164.452 39.112 165.04 39.328 165.528C39.544 166.008 39.86 166.376 40.276 166.632C40.692 166.88 41.204 167.004 41.812 167.004C42.164 167.004 42.5 166.956 42.82 166.86C43.148 166.756 43.456 166.604 43.744 166.404C43.888 166.316 44.016 166.276 44.128 166.284C44.248 166.292 44.348 166.332 44.428 166.404C44.508 166.476 44.56 166.568 44.584 166.68C44.616 166.784 44.612 166.896 44.572 167.016C44.54 167.128 44.464 167.224 44.344 167.304C44.016 167.568 43.628 167.768 43.18 167.904C42.732 168.04 42.264 168.108 41.776 168.108ZM48.0835 168.108C47.4915 168.108 46.9795 167.984 46.5475 167.736C46.1235 167.488 45.7915 167.136 45.5515 166.68C45.3115 166.224 45.1915 165.688 45.1915 165.072C45.1915 164.6 45.2595 164.18 45.3955 163.812C45.5315 163.444 45.7235 163.128 45.9715 162.864C46.2275 162.592 46.5315 162.388 46.8835 162.252C47.2435 162.108 47.6435 162.036 48.0835 162.036C48.6675 162.036 49.1715 162.16 49.5955 162.408C50.0275 162.656 50.3635 163.008 50.6035 163.464C50.8435 163.912 50.9635 164.448 50.9635 165.072C50.9635 165.536 50.8955 165.956 50.7595 166.332C50.6235 166.708 50.4275 167.028 50.1715 167.292C49.9235 167.556 49.6195 167.76 49.2595 167.904C48.9075 168.04 48.5155 168.108 48.0835 168.108ZM48.0835 167.172C48.4115 167.172 48.6995 167.092 48.9475 166.932C49.1955 166.772 49.3875 166.536 49.5235 166.224C49.6675 165.912 49.7395 165.528 49.7395 165.072C49.7395 164.384 49.5875 163.864 49.2835 163.512C48.9795 163.16 48.5795 162.984 48.0835 162.984C47.7475 162.984 47.4555 163.064 47.2075 163.224C46.9595 163.376 46.7635 163.608 46.6195 163.92C46.4835 164.232 46.4155 164.616 46.4155 165.072C46.4155 165.752 46.5675 166.272 46.8715 166.632C47.1755 166.992 47.5795 167.172 48.0835 167.172ZM52.9247 168.084C52.7327 168.084 52.5847 168.032 52.4807 167.928C52.3767 167.816 52.3247 167.664 52.3247 167.472V162.672C52.3247 162.472 52.3767 162.32 52.4807 162.216C52.5847 162.112 52.7287 162.06 52.9127 162.06C53.1047 162.06 53.2487 162.112 53.3447 162.216C53.4487 162.32 53.5007 162.472 53.5007 162.672V163.608L53.3687 163.392C53.5447 162.944 53.8207 162.608 54.1967 162.384C54.5727 162.152 55.0047 162.036 55.4927 162.036C55.9567 162.036 56.3407 162.124 56.6447 162.3C56.9567 162.468 57.1887 162.728 57.3407 163.08C57.4927 163.424 57.5687 163.86 57.5687 164.388V167.472C57.5687 167.664 57.5167 167.816 57.4127 167.928C57.3087 168.032 57.1607 168.084 56.9687 168.084C56.7687 168.084 56.6167 168.032 56.5127 167.928C56.4087 167.816 56.3567 167.664 56.3567 167.472V164.46C56.3567 163.956 56.2567 163.588 56.0567 163.356C55.8647 163.124 55.5607 163.008 55.1447 163.008C54.6567 163.008 54.2647 163.16 53.9687 163.464C53.6807 163.768 53.5367 164.176 53.5367 164.688V167.472C53.5367 167.88 53.3327 168.084 52.9247 168.084ZM61.7347 168.108C61.2547 168.108 60.8507 168.024 60.5227 167.856C60.1947 167.688 59.9507 167.44 59.7907 167.112C59.6307 166.784 59.5507 166.384 59.5507 165.912V163.08H58.8307C58.6707 163.08 58.5467 163.04 58.4587 162.96C58.3707 162.872 58.3267 162.756 58.3267 162.612C58.3267 162.46 58.3707 162.344 58.4587 162.264C58.5467 162.184 58.6707 162.144 58.8307 162.144H59.5507V160.908C59.5507 160.708 59.6027 160.556 59.7067 160.452C59.8187 160.348 59.9707 160.296 60.1627 160.296C60.3547 160.296 60.5027 160.348 60.6067 160.452C60.7107 160.556 60.7627 160.708 60.7627 160.908V162.144H62.1667C62.3267 162.144 62.4507 162.184 62.5387 162.264C62.6267 162.344 62.6707 162.46 62.6707 162.612C62.6707 162.756 62.6267 162.872 62.5387 162.96C62.4507 163.04 62.3267 163.08 62.1667 163.08H60.7627V165.816C60.7627 166.24 60.8507 166.56 61.0267 166.776C61.2107 166.992 61.5067 167.1 61.9147 167.1C62.0587 167.1 62.1827 167.088 62.2867 167.064C62.3987 167.032 62.4907 167.012 62.5627 167.004C62.6507 167.004 62.7227 167.036 62.7787 167.1C62.8347 167.156 62.8627 167.268 62.8627 167.436C62.8627 167.556 62.8387 167.668 62.7907 167.772C62.7507 167.876 62.6747 167.944 62.5627 167.976C62.4667 168.008 62.3347 168.036 62.1667 168.06C62.0067 168.092 61.8627 168.108 61.7347 168.108ZM65.4935 168.108C65.0855 168.108 64.7175 168.028 64.3895 167.868C64.0695 167.708 63.8175 167.492 63.6335 167.22C63.4495 166.948 63.3575 166.64 63.3575 166.296C63.3575 165.864 63.4655 165.524 63.6815 165.276C63.9055 165.02 64.2695 164.84 64.7735 164.736C65.2855 164.624 65.9735 164.568 66.8375 164.568H67.4015V165.312H66.8495C66.2735 165.312 65.8175 165.34 65.4815 165.396C65.1455 165.452 64.9055 165.548 64.7615 165.684C64.6255 165.812 64.5575 165.992 64.5575 166.224C64.5575 166.528 64.6615 166.776 64.8695 166.968C65.0775 167.152 65.3655 167.244 65.7335 167.244C66.0295 167.244 66.2895 167.176 66.5135 167.04C66.7375 166.896 66.9135 166.704 67.0415 166.464C67.1775 166.224 67.2455 165.948 67.2455 165.636V164.256C67.2455 163.8 67.1495 163.472 66.9575 163.272C66.7655 163.072 66.4495 162.972 66.0095 162.972C65.7535 162.972 65.4855 163.004 65.2055 163.068C64.9335 163.132 64.6495 163.24 64.3535 163.392C64.2175 163.456 64.1015 163.476 64.0055 163.452C63.9095 163.428 63.8335 163.376 63.7775 163.296C63.7215 163.208 63.6895 163.116 63.6815 163.02C63.6815 162.916 63.7055 162.816 63.7535 162.72C63.8095 162.624 63.9015 162.552 64.0295 162.504C64.3815 162.336 64.7295 162.216 65.0735 162.144C65.4175 162.072 65.7415 162.036 66.0455 162.036C66.5815 162.036 67.0215 162.12 67.3655 162.288C67.7175 162.456 67.9775 162.712 68.1455 163.056C68.3135 163.4 68.3975 163.844 68.3975 164.388V167.472C68.3975 167.664 68.3495 167.816 68.2535 167.928C68.1575 168.032 68.0175 168.084 67.8335 168.084C67.6575 168.084 67.5175 168.032 67.4135 167.928C67.3095 167.816 67.2575 167.664 67.2575 167.472V166.692H67.3655C67.3015 166.988 67.1815 167.244 67.0055 167.46C66.8375 167.668 66.6255 167.828 66.3695 167.94C66.1135 168.052 65.8215 168.108 65.4935 168.108ZM72.6468 168.108C72.0468 168.108 71.5268 167.984 71.0868 167.736C70.6548 167.48 70.3188 167.124 70.0788 166.668C69.8388 166.204 69.7188 165.66 69.7188 165.036C69.7188 164.572 69.7868 164.156 69.9228 163.788C70.0588 163.412 70.2508 163.096 70.4988 162.84C70.7548 162.584 71.0628 162.388 71.4228 162.252C71.7908 162.108 72.1988 162.036 72.6468 162.036C72.9268 162.036 73.2188 162.08 73.5228 162.168C73.8348 162.248 74.1228 162.384 74.3868 162.576C74.4908 162.64 74.5548 162.72 74.5788 162.816C74.6108 162.904 74.6148 162.996 74.5908 163.092C74.5748 163.188 74.5308 163.272 74.4588 163.344C74.3948 163.408 74.3148 163.448 74.2188 163.464C74.1228 163.472 74.0188 163.444 73.9068 163.38C73.7148 163.244 73.5188 163.148 73.3188 163.092C73.1188 163.028 72.9268 162.996 72.7428 162.996C72.4548 162.996 72.1988 163.044 71.9748 163.14C71.7588 163.228 71.5748 163.36 71.4228 163.536C71.2708 163.704 71.1548 163.916 71.0748 164.172C71.0028 164.428 70.9668 164.72 70.9668 165.048C70.9668 165.704 71.1188 166.22 71.4228 166.596C71.7348 166.964 72.1748 167.148 72.7428 167.148C72.9268 167.148 73.1188 167.12 73.3188 167.064C73.5188 167.008 73.7148 166.912 73.9068 166.776C74.0188 166.712 74.1228 166.688 74.2188 166.704C74.3148 166.72 74.3908 166.764 74.4468 166.836C74.5108 166.9 74.5508 166.98 74.5668 167.076C74.5908 167.164 74.5868 167.256 74.5548 167.352C74.5228 167.448 74.4548 167.528 74.3508 167.592C74.0948 167.776 73.8148 167.908 73.5108 167.988C73.2148 168.068 72.9268 168.108 72.6468 168.108ZM78.1761 168.108C77.6961 168.108 77.2921 168.024 76.9641 167.856C76.6361 167.688 76.3921 167.44 76.2321 167.112C76.0721 166.784 75.9921 166.384 75.9921 165.912V163.08H75.2721C75.1121 163.08 74.9881 163.04 74.9001 162.96C74.8121 162.872 74.7681 162.756 74.7681 162.612C74.7681 162.46 74.8121 162.344 74.9001 162.264C74.9881 162.184 75.1121 162.144 75.2721 162.144H75.9921V160.908C75.9921 160.708 76.0441 160.556 76.1481 160.452C76.2601 160.348 76.4121 160.296 76.6041 160.296C76.7961 160.296 76.9441 160.348 77.0481 160.452C77.1521 160.556 77.2041 160.708 77.2041 160.908V162.144H78.6081C78.7681 162.144 78.8921 162.184 78.9801 162.264C79.0681 162.344 79.1121 162.46 79.1121 162.612C79.1121 162.756 79.0681 162.872 78.9801 162.96C78.8921 163.04 78.7681 163.08 78.6081 163.08H77.2041V165.816C77.2041 166.24 77.2921 166.56 77.4681 166.776C77.6521 166.992 77.9481 167.1 78.3561 167.1C78.5001 167.1 78.6241 167.088 78.7281 167.064C78.8401 167.032 78.9321 167.012 79.0041 167.004C79.0921 167.004 79.1641 167.036 79.2201 167.1C79.2761 167.156 79.3041 167.268 79.3041 167.436C79.3041 167.556 79.2801 167.668 79.2321 167.772C79.1921 167.876 79.1161 167.944 79.0041 167.976C78.9081 168.008 78.7761 168.036 78.6081 168.06C78.4481 168.092 78.3041 168.108 78.1761 168.108Z" fill="#FF8A00"/>
<defs>
<linearGradient id="paint0_linear_493_710" x1="66.3707" y1="48" x2="66.3707" y2="80" gradientUnits="userSpaceOnUse">
<stop stop-color="#76BC21" stop-opacity="0.75"/>
<stop offset="1" stop-color="#6EAF20"/>
</linearGradient>
<linearGradient id="paint1_linear_493_710" x1="65.7155" y1="1" x2="65.7155" y2="33" gradientUnits="userSpaceOnUse">
<stop stop-color="#006837" stop-opacity="0.75"/>
<stop offset="1" stop-color="#01592F"/>
</linearGradient>
<linearGradient id="paint2_linear_493_710" x1="68.5" y1="98" x2="68.5" y2="130" gradientUnits="userSpaceOnUse">
<stop stop-color="#FFAA00" stop-opacity="0.75"/>
<stop offset="1" stop-color="#E89B01"/>
</linearGradient>
<linearGradient id="paint3_linear_493_710" x1="65.2974" y1="198" x2="65.2974" y2="230" gradientUnits="userSpaceOnUse">
<stop stop-color="#FE5000" stop-opacity="0.74"/>
<stop offset="1" stop-color="#E74A02"/>
</linearGradient>
<linearGradient id="paint4_linear_493_710" x1="64.6422" y1="148" x2="64.6422" y2="180" gradientUnits="userSpaceOnUse">
<stop stop-color="#FF7B1D" stop-opacity="0.75"/>
<stop offset="1" stop-color="#EB711A"/>
</linearGradient>
</defs>
</svg>
