<svg width="118" height="137" viewBox="0 0 118 137" fill="none" xmlns="http://www.w3.org/2000/svg">
<rect x="0.5" y="105.5" width="47" height="31" rx="15.5" fill="#76BC21"/>
<rect x="0.5" y="105.5" width="47" height="31" rx="15.5" stroke="url(#paint0_linear_509_748)"/>
<path fill-rule="evenodd" clip-rule="evenodd" d="M27.311 117.228C27.311 119.011 26.011 120.456 24.4073 120.456C22.8037 120.456 21.5037 119.011 21.5037 117.228C21.5037 115.445 22.8037 114 24.4073 114C26.011 114 27.311 115.445 27.311 117.228ZM26.1258 117.228C26.1258 118.348 25.3194 119.182 24.4073 119.182C23.4953 119.182 22.6888 118.348 22.6888 117.228C22.6888 116.109 23.4953 115.274 24.4073 115.274C25.3194 115.274 26.1258 116.109 26.1258 117.228Z" fill="white"/>
<path d="M22.1181 122.492C23.0374 122.389 23.953 122.404 24.5654 122.492C24.7239 122.514 25.3597 122.753 25.7505 122.792C26.1592 122.833 26.3088 122.492 26.3629 122.346C26.4169 122.201 26.3629 121.826 26.1258 121.667C25.8295 121.468 24.7249 121.247 24.5654 121.224C23.6154 121.088 22.9723 121.115 21.9953 121.224C20.6125 121.379 19.398 121.807 18.5111 122.442C17.6299 123.072 16.9999 123.968 17 125.046L17.0001 125.595C17.0001 126.651 17.7967 127.507 18.7786 127.507H22.7876C23.1149 127.507 23.3999 127.243 23.3999 126.891C23.3999 126.539 23.1149 126.233 22.7876 126.233H18.7786C18.4508 126.233 18.1852 125.947 18.1852 125.595L18.1852 125.046C18.1851 124.551 18.4736 123.999 19.1677 123.503C19.8561 123.01 20.8738 122.631 22.1181 122.492Z" fill="white"/>
<path d="M25.6275 127.716C25.2915 127.354 25.2915 126.767 25.6275 126.405L29.5313 122.198C29.8673 121.836 30.412 121.836 30.748 122.198C31.084 122.56 31.084 123.147 30.748 123.509L26.8443 127.716C26.5083 128.079 25.9635 128.079 25.6275 127.716Z" fill="white"/>
<path d="M23.9039 124.559C24.2399 124.196 24.7847 124.196 25.1207 124.559L26.845 126.417C27.181 126.779 27.181 127.366 26.845 127.728C26.509 128.091 25.9642 128.091 25.6282 127.728L23.9039 125.87C23.5679 125.508 23.5679 124.921 23.9039 124.559Z" fill="white"/>
<rect x="56.5" y="104.5" width="31" height="31" rx="15.5" fill="#006837"/>
<rect x="56.5" y="104.5" width="31" height="31" rx="15.5" stroke="url(#paint1_linear_509_748)"/>
<path fill-rule="evenodd" clip-rule="evenodd" d="M71.9444 118.944C73.4479 118.944 74.6667 117.613 74.6667 115.972C74.6667 114.331 73.4479 113 71.9444 113C70.441 113 69.2222 114.331 69.2222 115.972C69.2222 117.613 70.441 118.944 71.9444 118.944ZM71.9444 117.771C72.7995 117.771 73.5556 117.003 73.5556 115.972C73.5556 114.941 72.7995 114.173 71.9444 114.173C71.0894 114.173 70.3333 114.941 70.3333 115.972C70.3333 117.003 71.0894 117.771 71.9444 117.771Z" fill="white"/>
<path d="M72.0377 120.816C71.2616 120.707 70.6601 120.723 69.7983 120.818C68.6317 120.946 67.6777 121.296 67.0323 121.749C66.3815 122.206 66.1111 122.714 66.1111 123.17L66.1112 123.676C66.1112 124 66.3601 124.263 66.6675 124.263H71.4444C71.7513 124.263 72 124.525 72 124.849C72 125.173 71.7513 125.436 71.4444 125.436H66.6675C65.7469 125.436 65.0001 124.648 65 123.676L65 123.17C64.9999 122.177 65.5905 121.353 66.4167 120.772C67.2482 120.188 68.3868 119.794 69.6832 119.651C70.5991 119.55 71.2939 119.528 72.1845 119.653C72.4887 119.696 72.7023 119.991 72.6618 120.312C72.6212 120.633 72.3418 120.859 72.0377 120.816Z" fill="white"/>
<path d="M75.5926 121.408C75.4085 121.408 75.2593 121.565 75.2593 121.76V123.754C75.2593 123.898 75.3415 124.022 75.4592 124.077L76.2647 124.568C76.4241 124.665 76.628 124.607 76.7201 124.439C76.8121 124.271 76.7575 124.055 76.598 123.958L75.9259 123.549V121.76C75.9259 121.565 75.7767 121.408 75.5926 121.408Z" fill="white"/>
<path fill-rule="evenodd" clip-rule="evenodd" d="M79 123.461C79 125.415 77.4993 127 75.6481 127C73.797 127 72.2963 125.415 72.2963 123.461C72.2963 121.506 73.797 119.922 75.6481 119.922C77.4993 119.922 79 121.506 79 123.461ZM78.0741 123.461C78.0741 124.876 76.988 126.022 75.6481 126.022C74.3083 126.022 73.2222 124.876 73.2222 123.461C73.2222 122.046 74.3083 120.899 75.6481 120.899C76.988 120.899 78.0741 122.046 78.0741 123.461Z" fill="white"/>
<rect x="0.5" y="0.5" width="103" height="33" rx="16.5" fill="#FE5000"/>
<rect x="0.5" y="0.5" width="103" height="33" rx="16.5" stroke="url(#paint2_linear_509_748)"/>
<path fill-rule="evenodd" clip-rule="evenodd" d="M25.7933 12.9299C25.7933 14.5481 24.6847 15.8599 23.3171 15.8599C21.9494 15.8599 20.8408 14.5481 20.8408 12.9299C20.8408 11.3118 21.9494 10 23.3171 10C24.6847 10 25.7933 11.3118 25.7933 12.9299ZM24.7826 12.9299C24.7826 13.9461 24.0949 14.7033 23.3171 14.7033C22.5393 14.7033 21.8515 13.9461 21.8515 12.9299C21.8515 11.9138 22.5393 11.1566 23.3171 11.1566C24.0949 11.1566 24.7826 11.9138 24.7826 12.9299Z" fill="white"/>
<path d="M21.3648 17.7072C22.1488 17.6138 22.6959 17.5976 23.4019 17.7053C23.6785 17.7475 23.9327 17.5251 23.9696 17.2085C24.0065 16.8919 23.8121 16.6011 23.5355 16.5589C22.7253 16.4353 22.0933 16.4576 21.2601 16.5569C20.0808 16.6975 19.0451 17.0862 18.2887 17.6622C17.5372 18.2345 16.9999 19.0473 17 20.0258L17 20.5243C17.0001 21.4829 17.6794 22.2595 18.5168 22.2595H22.8622C23.1413 22.2595 23.3676 22.0006 23.3676 21.6812C23.3676 21.3618 23.1413 21.1029 22.8622 21.1029H18.5168C18.2372 21.1029 18.0108 20.8437 18.0108 20.5242L18.0107 20.0257C18.0107 19.5763 18.2567 19.0758 18.8487 18.625C19.4358 18.1779 20.3036 17.8337 21.3648 17.7072Z" fill="white"/>
<path d="M23.15 19.4212L24.8798 20.9959L24.3418 23.3636C24.2361 23.8053 24.6899 24.1678 25.0589 23.9187L26.9894 22.6383L28.9197 23.9184C29.2785 24.1561 29.7319 23.8052 29.6369 23.3633L29.0989 20.9958L30.8289 19.421C31.1557 19.1266 30.987 18.5488 30.5546 18.5148L28.2866 18.3334L27.4323 16.0793C27.2741 15.6602 26.715 15.6602 26.5461 16.0793L25.6918 18.3335L23.4239 18.5149C22.9917 18.5604 22.8228 19.1267 23.15 19.4212Z" fill="white"/>
<path d="M40.944 21.108C40.024 21.108 39.248 20.936 38.616 20.592C37.984 20.24 37.504 19.74 37.176 19.092C36.856 18.444 36.696 17.672 36.696 16.776C36.696 16.104 36.788 15.504 36.972 14.976C37.164 14.44 37.436 13.984 37.788 13.608C38.148 13.224 38.584 12.932 39.096 12.732C39.616 12.532 40.204 12.432 40.86 12.432C41.34 12.432 41.812 12.496 42.276 12.624C42.74 12.744 43.164 12.944 43.548 13.224C43.66 13.304 43.732 13.396 43.764 13.5C43.796 13.604 43.796 13.712 43.764 13.824C43.74 13.928 43.688 14.02 43.608 14.1C43.536 14.18 43.444 14.228 43.332 14.244C43.228 14.26 43.112 14.228 42.984 14.148C42.672 13.932 42.344 13.776 42 13.68C41.656 13.576 41.276 13.524 40.86 13.524C40.236 13.524 39.708 13.652 39.276 13.908C38.852 14.164 38.532 14.536 38.316 15.024C38.1 15.504 37.992 16.088 37.992 16.776C37.992 17.84 38.244 18.648 38.748 19.2C39.252 19.752 40 20.028 40.992 20.028C41.352 20.028 41.704 19.996 42.048 19.932C42.4 19.86 42.736 19.76 43.056 19.632L42.804 20.256V17.46H41.256C41.096 17.46 40.968 17.42 40.872 17.34C40.784 17.252 40.74 17.132 40.74 16.98C40.74 16.828 40.784 16.716 40.872 16.644C40.968 16.564 41.096 16.524 41.256 16.524H43.332C43.5 16.524 43.628 16.568 43.716 16.656C43.804 16.744 43.848 16.872 43.848 17.04V20.064C43.848 20.208 43.82 20.332 43.764 20.436C43.716 20.532 43.632 20.604 43.512 20.652C43.168 20.788 42.764 20.9 42.3 20.988C41.836 21.068 41.384 21.108 40.944 21.108ZM48.3773 21.108C47.7373 21.108 47.1853 20.988 46.7213 20.748C46.2653 20.5 45.9093 20.152 45.6533 19.704C45.4053 19.248 45.2813 18.708 45.2813 18.084C45.2813 17.476 45.4053 16.944 45.6533 16.488C45.9013 16.032 46.2413 15.676 46.6733 15.42C47.1053 15.164 47.5973 15.036 48.1493 15.036C48.5573 15.036 48.9213 15.104 49.2413 15.24C49.5613 15.368 49.8333 15.56 50.0573 15.816C50.2893 16.064 50.4613 16.368 50.5733 16.728C50.6933 17.088 50.7533 17.492 50.7533 17.94C50.7533 18.076 50.7133 18.18 50.6333 18.252C50.5533 18.316 50.4333 18.348 50.2733 18.348H46.2413V17.604H49.9373L49.7333 17.772C49.7333 17.372 49.6733 17.032 49.5533 16.752C49.4413 16.472 49.2693 16.26 49.0373 16.116C48.8133 15.964 48.5333 15.888 48.1973 15.888C47.8213 15.888 47.5013 15.976 47.2373 16.152C46.9813 16.328 46.7853 16.572 46.6493 16.884C46.5133 17.196 46.4453 17.56 46.4453 17.976V18.048C46.4453 18.752 46.6093 19.284 46.9373 19.644C47.2733 19.996 47.7573 20.172 48.3893 20.172C48.6293 20.172 48.8813 20.14 49.1453 20.076C49.4173 20.012 49.6733 19.904 49.9133 19.752C50.0493 19.672 50.1693 19.636 50.2733 19.644C50.3853 19.652 50.4733 19.688 50.5373 19.752C50.6093 19.816 50.6533 19.896 50.6693 19.992C50.6853 20.088 50.6693 20.188 50.6213 20.292C50.5733 20.388 50.4893 20.476 50.3693 20.556C50.0973 20.74 49.7813 20.88 49.4213 20.976C49.0613 21.064 48.7133 21.108 48.3773 21.108ZM52.6747 21.084C52.4827 21.084 52.3347 21.032 52.2307 20.928C52.1267 20.816 52.0747 20.664 52.0747 20.472V15.672C52.0747 15.472 52.1267 15.32 52.2307 15.216C52.3347 15.112 52.4787 15.06 52.6627 15.06C52.8547 15.06 52.9987 15.112 53.0947 15.216C53.1987 15.32 53.2507 15.472 53.2507 15.672V16.608L53.1187 16.392C53.2947 15.944 53.5707 15.608 53.9467 15.384C54.3227 15.152 54.7547 15.036 55.2427 15.036C55.7067 15.036 56.0907 15.124 56.3947 15.3C56.7067 15.468 56.9387 15.728 57.0907 16.08C57.2427 16.424 57.3187 16.86 57.3187 17.388V20.472C57.3187 20.664 57.2667 20.816 57.1627 20.928C57.0587 21.032 56.9107 21.084 56.7187 21.084C56.5187 21.084 56.3667 21.032 56.2627 20.928C56.1587 20.816 56.1067 20.664 56.1067 20.472V17.46C56.1067 16.956 56.0067 16.588 55.8067 16.356C55.6147 16.124 55.3107 16.008 54.8947 16.008C54.4067 16.008 54.0147 16.16 53.7187 16.464C53.4307 16.768 53.2867 17.176 53.2867 17.688V20.472C53.2867 20.88 53.0827 21.084 52.6747 21.084ZM61.7367 21.108C61.0967 21.108 60.5447 20.988 60.0807 20.748C59.6247 20.5 59.2687 20.152 59.0127 19.704C58.7647 19.248 58.6407 18.708 58.6407 18.084C58.6407 17.476 58.7647 16.944 59.0127 16.488C59.2607 16.032 59.6007 15.676 60.0327 15.42C60.4647 15.164 60.9567 15.036 61.5087 15.036C61.9167 15.036 62.2807 15.104 62.6007 15.24C62.9207 15.368 63.1927 15.56 63.4167 15.816C63.6487 16.064 63.8207 16.368 63.9327 16.728C64.0527 17.088 64.1127 17.492 64.1127 17.94C64.1127 18.076 64.0727 18.18 63.9927 18.252C63.9127 18.316 63.7927 18.348 63.6327 18.348H59.6007V17.604H63.2967L63.0927 17.772C63.0927 17.372 63.0327 17.032 62.9127 16.752C62.8007 16.472 62.6287 16.26 62.3967 16.116C62.1727 15.964 61.8927 15.888 61.5567 15.888C61.1807 15.888 60.8607 15.976 60.5967 16.152C60.3407 16.328 60.1447 16.572 60.0087 16.884C59.8727 17.196 59.8047 17.56 59.8047 17.976V18.048C59.8047 18.752 59.9687 19.284 60.2967 19.644C60.6327 19.996 61.1167 20.172 61.7487 20.172C61.9887 20.172 62.2407 20.14 62.5047 20.076C62.7767 20.012 63.0327 19.904 63.2727 19.752C63.4087 19.672 63.5287 19.636 63.6327 19.644C63.7447 19.652 63.8327 19.688 63.8967 19.752C63.9687 19.816 64.0127 19.896 64.0287 19.992C64.0447 20.088 64.0287 20.188 63.9807 20.292C63.9327 20.388 63.8487 20.476 63.7287 20.556C63.4567 20.74 63.1407 20.88 62.7807 20.976C62.4207 21.064 62.0727 21.108 61.7367 21.108ZM66.046 21.084C65.846 21.084 65.694 21.032 65.59 20.928C65.486 20.816 65.434 20.664 65.434 20.472V15.672C65.434 15.472 65.486 15.32 65.59 15.216C65.694 15.112 65.838 15.06 66.022 15.06C66.214 15.06 66.358 15.112 66.454 15.216C66.558 15.32 66.61 15.472 66.61 15.672V16.548H66.49C66.618 16.068 66.854 15.704 67.198 15.456C67.542 15.208 67.982 15.064 68.518 15.024C68.662 15.016 68.774 15.052 68.854 15.132C68.942 15.212 68.99 15.336 68.998 15.504C69.014 15.672 68.978 15.808 68.89 15.912C68.802 16.008 68.666 16.064 68.482 16.08L68.254 16.104C67.734 16.152 67.338 16.316 67.066 16.596C66.794 16.876 66.658 17.26 66.658 17.748V20.472C66.658 20.664 66.606 20.816 66.502 20.928C66.406 21.032 66.254 21.084 66.046 21.084ZM71.724 21.108C71.316 21.108 70.948 21.028 70.62 20.868C70.3 20.708 70.048 20.492 69.864 20.22C69.68 19.948 69.588 19.64 69.588 19.296C69.588 18.864 69.696 18.524 69.912 18.276C70.136 18.02 70.5 17.84 71.004 17.736C71.516 17.624 72.204 17.568 73.068 17.568H73.632V18.312H73.08C72.504 18.312 72.048 18.34 71.712 18.396C71.376 18.452 71.136 18.548 70.992 18.684C70.856 18.812 70.788 18.992 70.788 19.224C70.788 19.528 70.892 19.776 71.1 19.968C71.308 20.152 71.596 20.244 71.964 20.244C72.26 20.244 72.52 20.176 72.744 20.04C72.968 19.896 73.144 19.704 73.272 19.464C73.408 19.224 73.476 18.948 73.476 18.636V17.256C73.476 16.8 73.38 16.472 73.188 16.272C72.996 16.072 72.68 15.972 72.24 15.972C71.984 15.972 71.716 16.004 71.436 16.068C71.164 16.132 70.88 16.24 70.584 16.392C70.448 16.456 70.332 16.476 70.236 16.452C70.14 16.428 70.064 16.376 70.008 16.296C69.952 16.208 69.92 16.116 69.912 16.02C69.912 15.916 69.936 15.816 69.984 15.72C70.04 15.624 70.132 15.552 70.26 15.504C70.612 15.336 70.96 15.216 71.304 15.144C71.648 15.072 71.972 15.036 72.276 15.036C72.812 15.036 73.252 15.12 73.596 15.288C73.948 15.456 74.208 15.712 74.376 16.056C74.544 16.4 74.628 16.844 74.628 17.388V20.472C74.628 20.664 74.58 20.816 74.484 20.928C74.388 21.032 74.248 21.084 74.064 21.084C73.888 21.084 73.748 21.032 73.644 20.928C73.54 20.816 73.488 20.664 73.488 20.472V19.692H73.596C73.532 19.988 73.412 20.244 73.236 20.46C73.068 20.668 72.856 20.828 72.6 20.94C72.344 21.052 72.052 21.108 71.724 21.108ZM78.7933 21.108C78.3133 21.108 77.9093 21.024 77.5813 20.856C77.2533 20.688 77.0093 20.44 76.8493 20.112C76.6893 19.784 76.6093 19.384 76.6093 18.912V16.08H75.8893C75.7293 16.08 75.6053 16.04 75.5173 15.96C75.4293 15.872 75.3853 15.756 75.3853 15.612C75.3853 15.46 75.4293 15.344 75.5173 15.264C75.6053 15.184 75.7293 15.144 75.8893 15.144H76.6093V13.908C76.6093 13.708 76.6613 13.556 76.7653 13.452C76.8773 13.348 77.0293 13.296 77.2213 13.296C77.4133 13.296 77.5613 13.348 77.6653 13.452C77.7693 13.556 77.8213 13.708 77.8213 13.908V15.144H79.2253C79.3853 15.144 79.5093 15.184 79.5973 15.264C79.6853 15.344 79.7293 15.46 79.7293 15.612C79.7293 15.756 79.6853 15.872 79.5973 15.96C79.5093 16.04 79.3853 16.08 79.2253 16.08H77.8213V18.816C77.8213 19.24 77.9093 19.56 78.0853 19.776C78.2693 19.992 78.5653 20.1 78.9733 20.1C79.1173 20.1 79.2413 20.088 79.3453 20.064C79.4573 20.032 79.5493 20.012 79.6213 20.004C79.7093 20.004 79.7813 20.036 79.8373 20.1C79.8933 20.156 79.9213 20.268 79.9213 20.436C79.9213 20.556 79.8973 20.668 79.8493 20.772C79.8093 20.876 79.7333 20.944 79.6213 20.976C79.5253 21.008 79.3933 21.036 79.2253 21.06C79.0653 21.092 78.9213 21.108 78.7933 21.108ZM83.3695 21.108C82.7295 21.108 82.1775 20.988 81.7135 20.748C81.2575 20.5 80.9015 20.152 80.6455 19.704C80.3975 19.248 80.2735 18.708 80.2735 18.084C80.2735 17.476 80.3975 16.944 80.6455 16.488C80.8935 16.032 81.2335 15.676 81.6655 15.42C82.0975 15.164 82.5895 15.036 83.1415 15.036C83.5495 15.036 83.9135 15.104 84.2335 15.24C84.5535 15.368 84.8255 15.56 85.0495 15.816C85.2815 16.064 85.4535 16.368 85.5655 16.728C85.6855 17.088 85.7455 17.492 85.7455 17.94C85.7455 18.076 85.7055 18.18 85.6255 18.252C85.5455 18.316 85.4255 18.348 85.2655 18.348H81.2335V17.604H84.9295L84.7255 17.772C84.7255 17.372 84.6655 17.032 84.5455 16.752C84.4335 16.472 84.2615 16.26 84.0295 16.116C83.8055 15.964 83.5255 15.888 83.1895 15.888C82.8135 15.888 82.4935 15.976 82.2295 16.152C81.9735 16.328 81.7775 16.572 81.6415 16.884C81.5055 17.196 81.4375 17.56 81.4375 17.976V18.048C81.4375 18.752 81.6015 19.284 81.9295 19.644C82.2655 19.996 82.7495 20.172 83.3815 20.172C83.6215 20.172 83.8735 20.14 84.1375 20.076C84.4095 20.012 84.6655 19.904 84.9055 19.752C85.0415 19.672 85.1615 19.636 85.2655 19.644C85.3775 19.652 85.4655 19.688 85.5295 19.752C85.6015 19.816 85.6455 19.896 85.6615 19.992C85.6775 20.088 85.6615 20.188 85.6135 20.292C85.5655 20.388 85.4815 20.476 85.3615 20.556C85.0895 20.74 84.7735 20.88 84.4135 20.976C84.0535 21.064 83.7055 21.108 83.3695 21.108Z" fill="white"/>
<rect x="0.5" y="53.5" width="117" height="33" rx="16.5" fill="#FFAA00"/>
<rect x="0.5" y="53.5" width="117" height="33" rx="16.5" stroke="url(#paint3_linear_509_748)"/>
<path d="M20.804 74.108C20.436 74.108 20.076 74.08 19.724 74.024C19.372 73.968 19.04 73.884 18.728 73.772C18.416 73.652 18.136 73.508 17.888 73.34C17.768 73.252 17.684 73.152 17.636 73.04C17.596 72.928 17.584 72.82 17.6 72.716C17.624 72.604 17.672 72.508 17.744 72.428C17.816 72.348 17.904 72.3 18.008 72.284C18.112 72.26 18.228 72.292 18.356 72.38C18.716 72.612 19.096 72.784 19.496 72.896C19.896 73 20.332 73.052 20.804 73.052C21.484 73.052 21.984 72.932 22.304 72.692C22.632 72.444 22.796 72.124 22.796 71.732C22.796 71.412 22.68 71.16 22.448 70.976C22.216 70.784 21.828 70.632 21.284 70.52L20 70.256C19.24 70.096 18.672 69.832 18.296 69.464C17.928 69.096 17.744 68.6 17.744 67.976C17.744 67.6 17.82 67.256 17.972 66.944C18.132 66.632 18.352 66.364 18.632 66.14C18.912 65.908 19.248 65.732 19.64 65.612C20.032 65.492 20.46 65.432 20.924 65.432C21.42 65.432 21.884 65.496 22.316 65.624C22.756 65.752 23.148 65.948 23.492 66.212C23.596 66.284 23.664 66.376 23.696 66.488C23.736 66.592 23.744 66.696 23.72 66.8C23.704 66.904 23.66 66.992 23.588 67.064C23.516 67.136 23.424 67.18 23.312 67.196C23.2 67.204 23.076 67.164 22.94 67.076C22.628 66.868 22.308 66.72 21.98 66.632C21.66 66.536 21.304 66.488 20.912 66.488C20.52 66.488 20.176 66.548 19.88 66.668C19.592 66.788 19.368 66.956 19.208 67.172C19.056 67.388 18.98 67.644 18.98 67.94C18.98 68.276 19.088 68.544 19.304 68.744C19.52 68.944 19.88 69.096 20.384 69.2L21.656 69.464C22.456 69.632 23.052 69.892 23.444 70.244C23.836 70.596 24.032 71.064 24.032 71.648C24.032 72.024 23.956 72.364 23.804 72.668C23.652 72.964 23.436 73.22 23.156 73.436C22.876 73.652 22.536 73.82 22.136 73.94C21.744 74.052 21.3 74.108 20.804 74.108ZM28.0648 74.108C27.4248 74.108 26.8728 73.988 26.4088 73.748C25.9528 73.5 25.5968 73.152 25.3408 72.704C25.0928 72.248 24.9688 71.708 24.9688 71.084C24.9688 70.476 25.0928 69.944 25.3408 69.488C25.5888 69.032 25.9288 68.676 26.3608 68.42C26.7928 68.164 27.2848 68.036 27.8368 68.036C28.2448 68.036 28.6088 68.104 28.9288 68.24C29.2488 68.368 29.5208 68.56 29.7448 68.816C29.9768 69.064 30.1488 69.368 30.2608 69.728C30.3808 70.088 30.4408 70.492 30.4408 70.94C30.4408 71.076 30.4008 71.18 30.3208 71.252C30.2408 71.316 30.1208 71.348 29.9608 71.348H25.9288V70.604H29.6248L29.4208 70.772C29.4208 70.372 29.3608 70.032 29.2408 69.752C29.1288 69.472 28.9568 69.26 28.7248 69.116C28.5008 68.964 28.2208 68.888 27.8848 68.888C27.5088 68.888 27.1888 68.976 26.9248 69.152C26.6688 69.328 26.4728 69.572 26.3368 69.884C26.2008 70.196 26.1328 70.56 26.1328 70.976V71.048C26.1328 71.752 26.2968 72.284 26.6248 72.644C26.9608 72.996 27.4448 73.172 28.0768 73.172C28.3168 73.172 28.5688 73.14 28.8328 73.076C29.1048 73.012 29.3608 72.904 29.6008 72.752C29.7368 72.672 29.8568 72.636 29.9608 72.644C30.0728 72.652 30.1608 72.688 30.2248 72.752C30.2968 72.816 30.3408 72.896 30.3568 72.992C30.3728 73.088 30.3568 73.188 30.3088 73.292C30.2608 73.388 30.1768 73.476 30.0568 73.556C29.7848 73.74 29.4688 73.88 29.1088 73.976C28.7488 74.064 28.4008 74.108 28.0648 74.108ZM32.3622 74.084C32.1702 74.084 32.0222 74.032 31.9182 73.928C31.8142 73.816 31.7622 73.664 31.7622 73.472V68.672C31.7622 68.472 31.8142 68.32 31.9182 68.216C32.0222 68.112 32.1662 68.06 32.3502 68.06C32.5422 68.06 32.6862 68.112 32.7822 68.216C32.8862 68.32 32.9382 68.472 32.9382 68.672V69.608L32.8062 69.392C32.9822 68.944 33.2582 68.608 33.6342 68.384C34.0102 68.152 34.4422 68.036 34.9302 68.036C35.3942 68.036 35.7782 68.124 36.0822 68.3C36.3942 68.468 36.6262 68.728 36.7782 69.08C36.9302 69.424 37.0062 69.86 37.0062 70.388V73.472C37.0062 73.664 36.9542 73.816 36.8502 73.928C36.7462 74.032 36.5982 74.084 36.4062 74.084C36.2062 74.084 36.0542 74.032 35.9502 73.928C35.8462 73.816 35.7942 73.664 35.7942 73.472V70.46C35.7942 69.956 35.6942 69.588 35.4942 69.356C35.3022 69.124 34.9982 69.008 34.5822 69.008C34.0942 69.008 33.7022 69.16 33.4062 69.464C33.1182 69.768 32.9742 70.176 32.9742 70.688V73.472C32.9742 73.88 32.7702 74.084 32.3622 74.084ZM40.9082 74.108C40.3962 74.108 39.9442 73.988 39.5522 73.748C39.1682 73.5 38.8682 73.148 38.6522 72.692C38.4362 72.228 38.3282 71.688 38.3282 71.072C38.3282 70.44 38.4362 69.9 38.6522 69.452C38.8682 69.004 39.1682 68.656 39.5522 68.408C39.9442 68.16 40.3962 68.036 40.9082 68.036C41.4202 68.036 41.8602 68.164 42.2282 68.42C42.6042 68.668 42.8562 69.004 42.9842 69.428H42.8522V66.068C42.8522 65.868 42.9042 65.716 43.0082 65.612C43.1122 65.508 43.2602 65.456 43.4522 65.456C43.6442 65.456 43.7922 65.508 43.8962 65.612C44.0082 65.716 44.0642 65.868 44.0642 66.068V73.472C44.0642 73.664 44.0122 73.816 43.9082 73.928C43.8042 74.032 43.6562 74.084 43.4642 74.084C43.2722 74.084 43.1242 74.032 43.0202 73.928C42.9162 73.816 42.8642 73.664 42.8642 73.472V72.416L42.9962 72.68C42.8682 73.112 42.6162 73.46 42.2402 73.724C41.8722 73.98 41.4282 74.108 40.9082 74.108ZM41.2202 73.172C41.5482 73.172 41.8362 73.092 42.0842 72.932C42.3322 72.772 42.5242 72.536 42.6602 72.224C42.8042 71.912 42.8762 71.528 42.8762 71.072C42.8762 70.384 42.7242 69.864 42.4202 69.512C42.1162 69.16 41.7162 68.984 41.2202 68.984C40.8842 68.984 40.5922 69.064 40.3442 69.224C40.0962 69.376 39.9002 69.608 39.7562 69.92C39.6202 70.232 39.5522 70.616 39.5522 71.072C39.5522 71.752 39.7042 72.272 40.0082 72.632C40.3122 72.992 40.7162 73.172 41.2202 73.172ZM49.6861 74.084C49.4861 74.084 49.3301 74.028 49.2181 73.916C49.1141 73.804 49.0621 73.648 49.0621 73.448V66.176C49.0621 65.968 49.1181 65.812 49.2301 65.708C49.3421 65.596 49.4981 65.54 49.6981 65.54H52.5661C53.4781 65.54 54.1821 65.756 54.6781 66.188C55.1741 66.62 55.4221 67.232 55.4221 68.024C55.4221 68.536 55.3101 68.976 55.0861 69.344C54.8621 69.712 54.5341 69.992 54.1021 70.184C53.6781 70.376 53.1661 70.472 52.5661 70.472L52.6741 70.304H52.9861C53.3061 70.304 53.5821 70.384 53.8141 70.544C54.0541 70.704 54.2701 70.96 54.4621 71.312L55.4941 73.232C55.5741 73.376 55.6101 73.516 55.6021 73.652C55.6021 73.78 55.5541 73.884 55.4581 73.964C55.3701 74.044 55.2421 74.084 55.0741 74.084C54.8981 74.084 54.7541 74.048 54.6421 73.976C54.5381 73.896 54.4421 73.78 54.3541 73.628L53.0941 71.3C52.9261 70.988 52.7341 70.78 52.5181 70.676C52.3021 70.564 52.0181 70.508 51.6661 70.508H50.3101V73.448C50.3101 73.648 50.2581 73.804 50.1541 73.916C50.0501 74.028 49.8941 74.084 49.6861 74.084ZM50.3101 69.572H52.3621C52.9701 69.572 53.4301 69.444 53.7421 69.188C54.0541 68.932 54.2101 68.552 54.2101 68.048C54.2101 67.552 54.0541 67.176 53.7421 66.92C53.4301 66.664 52.9701 66.536 52.3621 66.536H50.3101V69.572ZM59.6586 74.108C59.0186 74.108 58.4666 73.988 58.0026 73.748C57.5466 73.5 57.1906 73.152 56.9346 72.704C56.6866 72.248 56.5626 71.708 56.5626 71.084C56.5626 70.476 56.6866 69.944 56.9346 69.488C57.1826 69.032 57.5226 68.676 57.9546 68.42C58.3866 68.164 58.8786 68.036 59.4306 68.036C59.8386 68.036 60.2026 68.104 60.5226 68.24C60.8426 68.368 61.1146 68.56 61.3386 68.816C61.5706 69.064 61.7426 69.368 61.8546 69.728C61.9746 70.088 62.0346 70.492 62.0346 70.94C62.0346 71.076 61.9946 71.18 61.9146 71.252C61.8346 71.316 61.7146 71.348 61.5546 71.348H57.5226V70.604H61.2186L61.0146 70.772C61.0146 70.372 60.9546 70.032 60.8346 69.752C60.7226 69.472 60.5506 69.26 60.3186 69.116C60.0946 68.964 59.8146 68.888 59.4786 68.888C59.1026 68.888 58.7826 68.976 58.5186 69.152C58.2626 69.328 58.0666 69.572 57.9306 69.884C57.7946 70.196 57.7266 70.56 57.7266 70.976V71.048C57.7266 71.752 57.8906 72.284 58.2186 72.644C58.5546 72.996 59.0386 73.172 59.6706 73.172C59.9106 73.172 60.1626 73.14 60.4266 73.076C60.6986 73.012 60.9546 72.904 61.1946 72.752C61.3306 72.672 61.4506 72.636 61.5546 72.644C61.6666 72.652 61.7546 72.688 61.8186 72.752C61.8906 72.816 61.9346 72.896 61.9506 72.992C61.9666 73.088 61.9506 73.188 61.9026 73.292C61.8546 73.388 61.7706 73.476 61.6506 73.556C61.3786 73.74 61.0626 73.88 60.7026 73.976C60.3426 74.064 59.9946 74.108 59.6586 74.108ZM63.9799 74.084C63.7879 74.084 63.6399 74.032 63.5359 73.928C63.4319 73.816 63.3799 73.664 63.3799 73.472V68.672C63.3799 68.472 63.4319 68.32 63.5359 68.216C63.6399 68.112 63.7839 68.06 63.9679 68.06C64.1599 68.06 64.3039 68.112 64.3999 68.216C64.5039 68.32 64.5559 68.472 64.5559 68.672V69.656L64.4239 69.392C64.5839 68.968 64.8319 68.636 65.1679 68.396C65.5039 68.156 65.9079 68.036 66.3799 68.036C66.8679 68.036 67.2639 68.152 67.5679 68.384C67.8719 68.616 68.0799 68.972 68.1919 69.452H68.0239C68.1759 69.012 68.4359 68.668 68.8039 68.42C69.1719 68.164 69.5999 68.036 70.0879 68.036C70.5359 68.036 70.9039 68.124 71.1919 68.3C71.4799 68.468 71.6959 68.728 71.8399 69.08C71.9839 69.424 72.0559 69.86 72.0559 70.388V73.472C72.0559 73.664 71.9999 73.816 71.8879 73.928C71.7839 74.032 71.6359 74.084 71.4439 74.084C71.2519 74.084 71.1039 74.032 70.9999 73.928C70.8959 73.816 70.8439 73.664 70.8439 73.472V70.448C70.8439 69.952 70.7559 69.588 70.5799 69.356C70.4119 69.124 70.1319 69.008 69.7399 69.008C69.2999 69.008 68.9519 69.16 68.6959 69.464C68.4399 69.768 68.3119 70.188 68.3119 70.724V73.472C68.3119 73.664 68.2599 73.816 68.1559 73.928C68.0519 74.032 67.9039 74.084 67.7119 74.084C67.5199 74.084 67.3679 74.032 67.2559 73.928C67.1519 73.816 67.0999 73.664 67.0999 73.472V70.448C67.0999 69.952 67.0159 69.588 66.8479 69.356C66.6799 69.124 66.3999 69.008 66.0079 69.008C65.5679 69.008 65.2199 69.16 64.9639 69.464C64.7159 69.768 64.5919 70.188 64.5919 70.724V73.472C64.5919 73.88 64.3879 74.084 63.9799 74.084ZM74.3504 74.072C74.1584 74.072 74.0104 74.016 73.9064 73.904C73.8024 73.784 73.7504 73.62 73.7504 73.412V68.732C73.7504 68.524 73.8024 68.364 73.9064 68.252C74.0104 68.14 74.1584 68.084 74.3504 68.084C74.5424 68.084 74.6904 68.14 74.7944 68.252C74.9064 68.364 74.9624 68.524 74.9624 68.732V73.412C74.9624 73.62 74.9104 73.784 74.8064 73.904C74.7024 74.016 74.5504 74.072 74.3504 74.072ZM74.3504 66.836C74.1104 66.836 73.9224 66.776 73.7864 66.656C73.6584 66.536 73.5944 66.368 73.5944 66.152C73.5944 65.928 73.6584 65.76 73.7864 65.648C73.9224 65.528 74.1104 65.468 74.3504 65.468C74.5904 65.468 74.7744 65.528 74.9024 65.648C75.0384 65.76 75.1064 65.928 75.1064 66.152C75.1064 66.368 75.0384 66.536 74.9024 66.656C74.7744 66.776 74.5904 66.836 74.3504 66.836ZM77.2684 74.084C77.0764 74.084 76.9284 74.032 76.8244 73.928C76.7204 73.816 76.6684 73.664 76.6684 73.472V68.672C76.6684 68.472 76.7204 68.32 76.8244 68.216C76.9284 68.112 77.0724 68.06 77.2564 68.06C77.4484 68.06 77.5924 68.112 77.6884 68.216C77.7924 68.32 77.8444 68.472 77.8444 68.672V69.608L77.7124 69.392C77.8884 68.944 78.1644 68.608 78.5404 68.384C78.9164 68.152 79.3484 68.036 79.8364 68.036C80.3004 68.036 80.6844 68.124 80.9884 68.3C81.3004 68.468 81.5324 68.728 81.6844 69.08C81.8364 69.424 81.9124 69.86 81.9124 70.388V73.472C81.9124 73.664 81.8604 73.816 81.7564 73.928C81.6524 74.032 81.5044 74.084 81.3124 74.084C81.1124 74.084 80.9604 74.032 80.8564 73.928C80.7524 73.816 80.7004 73.664 80.7004 73.472V70.46C80.7004 69.956 80.6004 69.588 80.4004 69.356C80.2084 69.124 79.9044 69.008 79.4884 69.008C79.0004 69.008 78.6084 69.16 78.3124 69.464C78.0244 69.768 77.8804 70.176 77.8804 70.688V73.472C77.8804 73.88 77.6764 74.084 77.2684 74.084ZM85.8145 74.108C85.3025 74.108 84.8505 73.988 84.4585 73.748C84.0745 73.5 83.7745 73.148 83.5585 72.692C83.3425 72.228 83.2345 71.688 83.2345 71.072C83.2345 70.44 83.3425 69.9 83.5585 69.452C83.7745 69.004 84.0745 68.656 84.4585 68.408C84.8505 68.16 85.3025 68.036 85.8145 68.036C86.3265 68.036 86.7665 68.164 87.1345 68.42C87.5105 68.668 87.7625 69.004 87.8905 69.428H87.7585V66.068C87.7585 65.868 87.8105 65.716 87.9145 65.612C88.0185 65.508 88.1665 65.456 88.3585 65.456C88.5505 65.456 88.6985 65.508 88.8025 65.612C88.9145 65.716 88.9705 65.868 88.9705 66.068V73.472C88.9705 73.664 88.9185 73.816 88.8145 73.928C88.7105 74.032 88.5625 74.084 88.3705 74.084C88.1785 74.084 88.0305 74.032 87.9265 73.928C87.8225 73.816 87.7705 73.664 87.7705 73.472V72.416L87.9025 72.68C87.7745 73.112 87.5225 73.46 87.1465 73.724C86.7785 73.98 86.3345 74.108 85.8145 74.108ZM86.1265 73.172C86.4545 73.172 86.7425 73.092 86.9905 72.932C87.2385 72.772 87.4305 72.536 87.5665 72.224C87.7105 71.912 87.7825 71.528 87.7825 71.072C87.7825 70.384 87.6305 69.864 87.3265 69.512C87.0225 69.16 86.6225 68.984 86.1265 68.984C85.7905 68.984 85.4985 69.064 85.2505 69.224C85.0025 69.376 84.8065 69.608 84.6625 69.92C84.5265 70.232 84.4585 70.616 84.4585 71.072C84.4585 71.752 84.6105 72.272 84.9145 72.632C85.2185 72.992 85.6225 73.172 86.1265 73.172ZM93.4203 74.108C92.7803 74.108 92.2283 73.988 91.7643 73.748C91.3083 73.5 90.9523 73.152 90.6963 72.704C90.4483 72.248 90.3243 71.708 90.3243 71.084C90.3243 70.476 90.4483 69.944 90.6963 69.488C90.9443 69.032 91.2843 68.676 91.7163 68.42C92.1483 68.164 92.6403 68.036 93.1923 68.036C93.6003 68.036 93.9643 68.104 94.2843 68.24C94.6043 68.368 94.8763 68.56 95.1003 68.816C95.3323 69.064 95.5043 69.368 95.6163 69.728C95.7363 70.088 95.7963 70.492 95.7963 70.94C95.7963 71.076 95.7563 71.18 95.6763 71.252C95.5963 71.316 95.4763 71.348 95.3163 71.348H91.2843V70.604H94.9803L94.7763 70.772C94.7763 70.372 94.7163 70.032 94.5963 69.752C94.4843 69.472 94.3123 69.26 94.0803 69.116C93.8563 68.964 93.5763 68.888 93.2403 68.888C92.8643 68.888 92.5443 68.976 92.2803 69.152C92.0243 69.328 91.8283 69.572 91.6923 69.884C91.5563 70.196 91.4883 70.56 91.4883 70.976V71.048C91.4883 71.752 91.6523 72.284 91.9803 72.644C92.3163 72.996 92.8003 73.172 93.4323 73.172C93.6723 73.172 93.9243 73.14 94.1883 73.076C94.4603 73.012 94.7163 72.904 94.9563 72.752C95.0923 72.672 95.2123 72.636 95.3163 72.644C95.4283 72.652 95.5163 72.688 95.5803 72.752C95.6523 72.816 95.6963 72.896 95.7123 72.992C95.7283 73.088 95.7123 73.188 95.6643 73.292C95.6163 73.388 95.5323 73.476 95.4123 73.556C95.1403 73.74 94.8243 73.88 94.4643 73.976C94.1043 74.064 93.7563 74.108 93.4203 74.108ZM97.7296 74.084C97.5296 74.084 97.3776 74.032 97.2736 73.928C97.1696 73.816 97.1176 73.664 97.1176 73.472V68.672C97.1176 68.472 97.1696 68.32 97.2736 68.216C97.3776 68.112 97.5216 68.06 97.7056 68.06C97.8976 68.06 98.0416 68.112 98.1376 68.216C98.2416 68.32 98.2936 68.472 98.2936 68.672V69.548H98.1736C98.3016 69.068 98.5376 68.704 98.8816 68.456C99.2256 68.208 99.6656 68.064 100.202 68.024C100.346 68.016 100.458 68.052 100.538 68.132C100.626 68.212 100.674 68.336 100.682 68.504C100.698 68.672 100.662 68.808 100.574 68.912C100.486 69.008 100.35 69.064 100.166 69.08L99.9376 69.104C99.4176 69.152 99.0216 69.316 98.7496 69.596C98.4776 69.876 98.3416 70.26 98.3416 70.748V73.472C98.3416 73.664 98.2896 73.816 98.1856 73.928C98.0896 74.032 97.9376 74.084 97.7296 74.084Z" fill="white"/>
<defs>
<linearGradient id="paint0_linear_509_748" x1="27.7672" y1="106" x2="27.7672" y2="136" gradientUnits="userSpaceOnUse">
<stop stop-color="#76BC21" stop-opacity="0.75"/>
<stop offset="1" stop-color="#6EAF20"/>
</linearGradient>
<linearGradient id="paint1_linear_509_748" x1="74.4569" y1="105" x2="74.4569" y2="135" gradientUnits="userSpaceOnUse">
<stop stop-color="#006837" stop-opacity="0.75"/>
<stop offset="1" stop-color="#01592F"/>
</linearGradient>
<linearGradient id="paint2_linear_509_748" x1="60.3534" y1="1" x2="60.3534" y2="33" gradientUnits="userSpaceOnUse">
<stop stop-color="#FE5000" stop-opacity="0.74"/>
<stop offset="1" stop-color="#E74A02"/>
</linearGradient>
<linearGradient id="paint3_linear_509_748" x1="68.5" y1="54" x2="68.5" y2="86" gradientUnits="userSpaceOnUse">
<stop stop-color="#FFAA00" stop-opacity="0.75"/>
<stop offset="1" stop-color="#E89B01"/>
</linearGradient>
</defs>
</svg>
