<svg width="128" height="147" viewBox="0 0 128 147" fill="none" xmlns="http://www.w3.org/2000/svg">
<g filter="url(#filter0_d_509_749)">
<rect x="8" y="111" width="46" height="30" rx="15" fill="#76BC21" shape-rendering="crispEdges"/>
<rect x="7.5" y="110.5" width="47" height="31" rx="15.5" stroke="url(#paint0_linear_509_749)" shape-rendering="crispEdges"/>
<path fill-rule="evenodd" clip-rule="evenodd" d="M34.311 122.228C34.311 124.011 33.011 125.456 31.4073 125.456C29.8037 125.456 28.5037 124.011 28.5037 122.228C28.5037 120.445 29.8037 119 31.4073 119C33.011 119 34.311 120.445 34.311 122.228ZM33.1258 122.228C33.1258 123.348 32.3194 124.182 31.4073 124.182C30.4953 124.182 29.6888 123.348 29.6888 122.228C29.6888 121.109 30.4953 120.274 31.4073 120.274C32.3194 120.274 33.1258 121.109 33.1258 122.228Z" fill="white"/>
<path d="M29.1181 127.492C30.0374 127.389 30.953 127.404 31.5654 127.492C31.7239 127.514 32.3597 127.753 32.7505 127.792C33.1592 127.833 33.3088 127.492 33.3629 127.346C33.4169 127.201 33.3629 126.826 33.1258 126.667C32.8295 126.468 31.7249 126.247 31.5654 126.224C30.6154 126.088 29.9723 126.115 28.9953 126.224C27.6125 126.379 26.398 126.807 25.5111 127.442C24.6299 128.072 23.9999 128.968 24 130.046L24.0001 130.595C24.0001 131.651 24.7967 132.507 25.7786 132.507H29.7876C30.1149 132.507 30.3999 132.243 30.3999 131.891C30.3999 131.539 30.1149 131.233 29.7876 131.233H25.7786C25.4508 131.233 25.1852 130.947 25.1852 130.595L25.1852 130.046C25.1851 129.551 25.4736 128.999 26.1677 128.503C26.8561 128.01 27.8738 127.631 29.1181 127.492Z" fill="white"/>
<path d="M32.6275 132.716C32.2915 132.354 32.2915 131.767 32.6275 131.405L36.5313 127.198C36.8673 126.836 37.412 126.836 37.748 127.198C38.084 127.56 38.084 128.147 37.748 128.509L33.8443 132.716C33.5083 133.079 32.9635 133.079 32.6275 132.716Z" fill="white"/>
<path d="M30.9039 129.559C31.2399 129.196 31.7847 129.196 32.1207 129.559L33.845 131.417C34.181 131.779 34.181 132.366 33.845 132.728C33.509 133.091 32.9642 133.091 32.6282 132.728L30.9039 130.87C30.5679 130.508 30.5679 129.921 30.9039 129.559Z" fill="white"/>
</g>
<g filter="url(#filter1_d_509_749)">
<rect x="69" y="111" width="30" height="30" rx="15" fill="#006837" shape-rendering="crispEdges"/>
<rect x="68.5" y="110.5" width="31" height="31" rx="15.5" stroke="url(#paint1_linear_509_749)" shape-rendering="crispEdges"/>
<path fill-rule="evenodd" clip-rule="evenodd" d="M83.9444 124.944C85.4479 124.944 86.6667 123.613 86.6667 121.972C86.6667 120.331 85.4479 119 83.9444 119C82.441 119 81.2222 120.331 81.2222 121.972C81.2222 123.613 82.441 124.944 83.9444 124.944ZM83.9444 123.771C84.7995 123.771 85.5556 123.003 85.5556 121.972C85.5556 120.941 84.7995 120.173 83.9444 120.173C83.0894 120.173 82.3333 120.941 82.3333 121.972C82.3333 123.003 83.0894 123.771 83.9444 123.771Z" fill="white"/>
<path d="M84.0377 126.816C83.2616 126.707 82.6601 126.723 81.7983 126.818C80.6317 126.946 79.6777 127.296 79.0323 127.749C78.3815 128.206 78.1111 128.714 78.1111 129.17L78.1112 129.676C78.1112 130 78.3601 130.263 78.6675 130.263H83.4444C83.7513 130.263 84 130.525 84 130.849C84 131.173 83.7513 131.436 83.4444 131.436H78.6675C77.7469 131.436 77.0001 130.648 77 129.676L77 129.17C76.9999 128.177 77.5905 127.353 78.4167 126.772C79.2482 126.188 80.3868 125.794 81.6832 125.651C82.5991 125.55 83.2939 125.528 84.1845 125.653C84.4887 125.696 84.7023 125.991 84.6618 126.312C84.6212 126.633 84.3418 126.859 84.0377 126.816Z" fill="white"/>
<path d="M87.5926 127.408C87.4085 127.408 87.2593 127.565 87.2593 127.76V129.754C87.2593 129.898 87.3415 130.022 87.4592 130.077L88.2647 130.568C88.4241 130.665 88.628 130.607 88.7201 130.439C88.8121 130.271 88.7575 130.055 88.598 129.958L87.9259 129.549V127.76C87.9259 127.565 87.7767 127.408 87.5926 127.408Z" fill="white"/>
<path fill-rule="evenodd" clip-rule="evenodd" d="M91 129.461C91 131.415 89.4993 133 87.6481 133C85.797 133 84.2963 131.415 84.2963 129.461C84.2963 127.506 85.797 125.922 87.6481 125.922C89.4993 125.922 91 127.506 91 129.461ZM90.0741 129.461C90.0741 130.876 88.988 132.022 87.6481 132.022C86.3083 132.022 85.2222 130.876 85.2222 129.461C85.2222 128.046 86.3083 126.899 87.6481 126.899C88.988 126.899 90.0741 128.046 90.0741 129.461Z" fill="white"/>
</g>
<g filter="url(#filter2_d_509_749)">
<rect x="6" y="6" width="102" height="32" rx="16" fill="#FE5000" shape-rendering="crispEdges"/>
<rect x="5.5" y="5.5" width="103" height="33" rx="16.5" stroke="url(#paint2_linear_509_749)" shape-rendering="crispEdges"/>
<path fill-rule="evenodd" clip-rule="evenodd" d="M30.7933 17.9299C30.7933 19.5481 29.6847 20.8599 28.3171 20.8599C26.9494 20.8599 25.8408 19.5481 25.8408 17.9299C25.8408 16.3118 26.9494 15 28.3171 15C29.6847 15 30.7933 16.3118 30.7933 17.9299ZM29.7826 17.9299C29.7826 18.9461 29.0949 19.7033 28.3171 19.7033C27.5393 19.7033 26.8515 18.9461 26.8515 17.9299C26.8515 16.9138 27.5393 16.1566 28.3171 16.1566C29.0949 16.1566 29.7826 16.9138 29.7826 17.9299Z" fill="white"/>
<path d="M26.3648 22.7072C27.1488 22.6138 27.6959 22.5976 28.4019 22.7053C28.6785 22.7475 28.9327 22.5251 28.9696 22.2085C29.0065 21.8919 28.8121 21.6011 28.5355 21.5589C27.7253 21.4353 27.0933 21.4576 26.2601 21.5569C25.0808 21.6975 24.0451 22.0862 23.2887 22.6622C22.5372 23.2345 21.9999 24.0473 22 25.0258L22 25.5243C22.0001 26.4829 22.6794 27.2595 23.5168 27.2595H27.8622C28.1413 27.2595 28.3676 27.0006 28.3676 26.6812C28.3676 26.3618 28.1413 26.1029 27.8622 26.1029H23.5168C23.2372 26.1029 23.0108 25.8437 23.0108 25.5242L23.0107 25.0257C23.0107 24.5763 23.2567 24.0758 23.8487 23.625C24.4358 23.1779 25.3036 22.8337 26.3648 22.7072Z" fill="white"/>
<path d="M28.15 24.4212L29.8798 25.9959L29.3418 28.3636C29.2361 28.8053 29.6899 29.1678 30.0589 28.9187L31.9894 27.6383L33.9197 28.9184C34.2785 29.1561 34.7319 28.8052 34.6369 28.3633L34.0989 25.9958L35.8289 24.421C36.1557 24.1266 35.987 23.5488 35.5546 23.5148L33.2866 23.3334L32.4323 21.0793C32.2741 20.6602 31.715 20.6602 31.5461 21.0793L30.6918 23.3335L28.4239 23.5149C27.9917 23.5604 27.8228 24.1267 28.15 24.4212Z" fill="white"/>
<path d="M45.944 26.108C45.024 26.108 44.248 25.936 43.616 25.592C42.984 25.24 42.504 24.74 42.176 24.092C41.856 23.444 41.696 22.672 41.696 21.776C41.696 21.104 41.788 20.504 41.972 19.976C42.164 19.44 42.436 18.984 42.788 18.608C43.148 18.224 43.584 17.932 44.096 17.732C44.616 17.532 45.204 17.432 45.86 17.432C46.34 17.432 46.812 17.496 47.276 17.624C47.74 17.744 48.164 17.944 48.548 18.224C48.66 18.304 48.732 18.396 48.764 18.5C48.796 18.604 48.796 18.712 48.764 18.824C48.74 18.928 48.688 19.02 48.608 19.1C48.536 19.18 48.444 19.228 48.332 19.244C48.228 19.26 48.112 19.228 47.984 19.148C47.672 18.932 47.344 18.776 47 18.68C46.656 18.576 46.276 18.524 45.86 18.524C45.236 18.524 44.708 18.652 44.276 18.908C43.852 19.164 43.532 19.536 43.316 20.024C43.1 20.504 42.992 21.088 42.992 21.776C42.992 22.84 43.244 23.648 43.748 24.2C44.252 24.752 45 25.028 45.992 25.028C46.352 25.028 46.704 24.996 47.048 24.932C47.4 24.86 47.736 24.76 48.056 24.632L47.804 25.256V22.46H46.256C46.096 22.46 45.968 22.42 45.872 22.34C45.784 22.252 45.74 22.132 45.74 21.98C45.74 21.828 45.784 21.716 45.872 21.644C45.968 21.564 46.096 21.524 46.256 21.524H48.332C48.5 21.524 48.628 21.568 48.716 21.656C48.804 21.744 48.848 21.872 48.848 22.04V25.064C48.848 25.208 48.82 25.332 48.764 25.436C48.716 25.532 48.632 25.604 48.512 25.652C48.168 25.788 47.764 25.9 47.3 25.988C46.836 26.068 46.384 26.108 45.944 26.108ZM53.3773 26.108C52.7373 26.108 52.1853 25.988 51.7213 25.748C51.2653 25.5 50.9093 25.152 50.6533 24.704C50.4053 24.248 50.2813 23.708 50.2813 23.084C50.2813 22.476 50.4053 21.944 50.6533 21.488C50.9013 21.032 51.2413 20.676 51.6733 20.42C52.1053 20.164 52.5973 20.036 53.1493 20.036C53.5573 20.036 53.9213 20.104 54.2413 20.24C54.5613 20.368 54.8333 20.56 55.0573 20.816C55.2893 21.064 55.4613 21.368 55.5733 21.728C55.6933 22.088 55.7533 22.492 55.7533 22.94C55.7533 23.076 55.7133 23.18 55.6333 23.252C55.5533 23.316 55.4333 23.348 55.2733 23.348H51.2413V22.604H54.9373L54.7333 22.772C54.7333 22.372 54.6733 22.032 54.5533 21.752C54.4413 21.472 54.2693 21.26 54.0373 21.116C53.8133 20.964 53.5333 20.888 53.1973 20.888C52.8213 20.888 52.5013 20.976 52.2373 21.152C51.9813 21.328 51.7853 21.572 51.6493 21.884C51.5133 22.196 51.4453 22.56 51.4453 22.976V23.048C51.4453 23.752 51.6093 24.284 51.9373 24.644C52.2733 24.996 52.7573 25.172 53.3893 25.172C53.6293 25.172 53.8813 25.14 54.1453 25.076C54.4173 25.012 54.6733 24.904 54.9133 24.752C55.0493 24.672 55.1693 24.636 55.2733 24.644C55.3853 24.652 55.4733 24.688 55.5373 24.752C55.6093 24.816 55.6533 24.896 55.6693 24.992C55.6853 25.088 55.6693 25.188 55.6213 25.292C55.5733 25.388 55.4893 25.476 55.3693 25.556C55.0973 25.74 54.7813 25.88 54.4213 25.976C54.0613 26.064 53.7133 26.108 53.3773 26.108ZM57.6747 26.084C57.4827 26.084 57.3347 26.032 57.2307 25.928C57.1267 25.816 57.0747 25.664 57.0747 25.472V20.672C57.0747 20.472 57.1267 20.32 57.2307 20.216C57.3347 20.112 57.4787 20.06 57.6627 20.06C57.8547 20.06 57.9987 20.112 58.0947 20.216C58.1987 20.32 58.2507 20.472 58.2507 20.672V21.608L58.1187 21.392C58.2947 20.944 58.5707 20.608 58.9467 20.384C59.3227 20.152 59.7547 20.036 60.2427 20.036C60.7067 20.036 61.0907 20.124 61.3947 20.3C61.7067 20.468 61.9387 20.728 62.0907 21.08C62.2427 21.424 62.3187 21.86 62.3187 22.388V25.472C62.3187 25.664 62.2667 25.816 62.1627 25.928C62.0587 26.032 61.9107 26.084 61.7187 26.084C61.5187 26.084 61.3667 26.032 61.2627 25.928C61.1587 25.816 61.1067 25.664 61.1067 25.472V22.46C61.1067 21.956 61.0067 21.588 60.8067 21.356C60.6147 21.124 60.3107 21.008 59.8947 21.008C59.4067 21.008 59.0147 21.16 58.7187 21.464C58.4307 21.768 58.2867 22.176 58.2867 22.688V25.472C58.2867 25.88 58.0827 26.084 57.6747 26.084ZM66.7367 26.108C66.0967 26.108 65.5447 25.988 65.0807 25.748C64.6247 25.5 64.2687 25.152 64.0127 24.704C63.7647 24.248 63.6407 23.708 63.6407 23.084C63.6407 22.476 63.7647 21.944 64.0127 21.488C64.2607 21.032 64.6007 20.676 65.0327 20.42C65.4647 20.164 65.9567 20.036 66.5087 20.036C66.9167 20.036 67.2807 20.104 67.6007 20.24C67.9207 20.368 68.1927 20.56 68.4167 20.816C68.6487 21.064 68.8207 21.368 68.9327 21.728C69.0527 22.088 69.1127 22.492 69.1127 22.94C69.1127 23.076 69.0727 23.18 68.9927 23.252C68.9127 23.316 68.7927 23.348 68.6327 23.348H64.6007V22.604H68.2967L68.0927 22.772C68.0927 22.372 68.0327 22.032 67.9127 21.752C67.8007 21.472 67.6287 21.26 67.3967 21.116C67.1727 20.964 66.8927 20.888 66.5567 20.888C66.1807 20.888 65.8607 20.976 65.5967 21.152C65.3407 21.328 65.1447 21.572 65.0087 21.884C64.8727 22.196 64.8047 22.56 64.8047 22.976V23.048C64.8047 23.752 64.9687 24.284 65.2967 24.644C65.6327 24.996 66.1167 25.172 66.7487 25.172C66.9887 25.172 67.2407 25.14 67.5047 25.076C67.7767 25.012 68.0327 24.904 68.2727 24.752C68.4087 24.672 68.5287 24.636 68.6327 24.644C68.7447 24.652 68.8327 24.688 68.8967 24.752C68.9687 24.816 69.0127 24.896 69.0287 24.992C69.0447 25.088 69.0287 25.188 68.9807 25.292C68.9327 25.388 68.8487 25.476 68.7287 25.556C68.4567 25.74 68.1407 25.88 67.7807 25.976C67.4207 26.064 67.0727 26.108 66.7367 26.108ZM71.046 26.084C70.846 26.084 70.694 26.032 70.59 25.928C70.486 25.816 70.434 25.664 70.434 25.472V20.672C70.434 20.472 70.486 20.32 70.59 20.216C70.694 20.112 70.838 20.06 71.022 20.06C71.214 20.06 71.358 20.112 71.454 20.216C71.558 20.32 71.61 20.472 71.61 20.672V21.548H71.49C71.618 21.068 71.854 20.704 72.198 20.456C72.542 20.208 72.982 20.064 73.518 20.024C73.662 20.016 73.774 20.052 73.854 20.132C73.942 20.212 73.99 20.336 73.998 20.504C74.014 20.672 73.978 20.808 73.89 20.912C73.802 21.008 73.666 21.064 73.482 21.08L73.254 21.104C72.734 21.152 72.338 21.316 72.066 21.596C71.794 21.876 71.658 22.26 71.658 22.748V25.472C71.658 25.664 71.606 25.816 71.502 25.928C71.406 26.032 71.254 26.084 71.046 26.084ZM76.724 26.108C76.316 26.108 75.948 26.028 75.62 25.868C75.3 25.708 75.048 25.492 74.864 25.22C74.68 24.948 74.588 24.64 74.588 24.296C74.588 23.864 74.696 23.524 74.912 23.276C75.136 23.02 75.5 22.84 76.004 22.736C76.516 22.624 77.204 22.568 78.068 22.568H78.632V23.312H78.08C77.504 23.312 77.048 23.34 76.712 23.396C76.376 23.452 76.136 23.548 75.992 23.684C75.856 23.812 75.788 23.992 75.788 24.224C75.788 24.528 75.892 24.776 76.1 24.968C76.308 25.152 76.596 25.244 76.964 25.244C77.26 25.244 77.52 25.176 77.744 25.04C77.968 24.896 78.144 24.704 78.272 24.464C78.408 24.224 78.476 23.948 78.476 23.636V22.256C78.476 21.8 78.38 21.472 78.188 21.272C77.996 21.072 77.68 20.972 77.24 20.972C76.984 20.972 76.716 21.004 76.436 21.068C76.164 21.132 75.88 21.24 75.584 21.392C75.448 21.456 75.332 21.476 75.236 21.452C75.14 21.428 75.064 21.376 75.008 21.296C74.952 21.208 74.92 21.116 74.912 21.02C74.912 20.916 74.936 20.816 74.984 20.72C75.04 20.624 75.132 20.552 75.26 20.504C75.612 20.336 75.96 20.216 76.304 20.144C76.648 20.072 76.972 20.036 77.276 20.036C77.812 20.036 78.252 20.12 78.596 20.288C78.948 20.456 79.208 20.712 79.376 21.056C79.544 21.4 79.628 21.844 79.628 22.388V25.472C79.628 25.664 79.58 25.816 79.484 25.928C79.388 26.032 79.248 26.084 79.064 26.084C78.888 26.084 78.748 26.032 78.644 25.928C78.54 25.816 78.488 25.664 78.488 25.472V24.692H78.596C78.532 24.988 78.412 25.244 78.236 25.46C78.068 25.668 77.856 25.828 77.6 25.94C77.344 26.052 77.052 26.108 76.724 26.108ZM83.7933 26.108C83.3133 26.108 82.9093 26.024 82.5813 25.856C82.2533 25.688 82.0093 25.44 81.8493 25.112C81.6893 24.784 81.6093 24.384 81.6093 23.912V21.08H80.8893C80.7293 21.08 80.6053 21.04 80.5173 20.96C80.4293 20.872 80.3853 20.756 80.3853 20.612C80.3853 20.46 80.4293 20.344 80.5173 20.264C80.6053 20.184 80.7293 20.144 80.8893 20.144H81.6093V18.908C81.6093 18.708 81.6613 18.556 81.7653 18.452C81.8773 18.348 82.0293 18.296 82.2213 18.296C82.4133 18.296 82.5613 18.348 82.6653 18.452C82.7693 18.556 82.8213 18.708 82.8213 18.908V20.144H84.2253C84.3853 20.144 84.5093 20.184 84.5973 20.264C84.6853 20.344 84.7293 20.46 84.7293 20.612C84.7293 20.756 84.6853 20.872 84.5973 20.96C84.5093 21.04 84.3853 21.08 84.2253 21.08H82.8213V23.816C82.8213 24.24 82.9093 24.56 83.0853 24.776C83.2693 24.992 83.5653 25.1 83.9733 25.1C84.1173 25.1 84.2413 25.088 84.3453 25.064C84.4573 25.032 84.5493 25.012 84.6213 25.004C84.7093 25.004 84.7813 25.036 84.8373 25.1C84.8933 25.156 84.9213 25.268 84.9213 25.436C84.9213 25.556 84.8973 25.668 84.8493 25.772C84.8093 25.876 84.7333 25.944 84.6213 25.976C84.5253 26.008 84.3933 26.036 84.2253 26.06C84.0653 26.092 83.9213 26.108 83.7933 26.108ZM88.3695 26.108C87.7295 26.108 87.1775 25.988 86.7135 25.748C86.2575 25.5 85.9015 25.152 85.6455 24.704C85.3975 24.248 85.2735 23.708 85.2735 23.084C85.2735 22.476 85.3975 21.944 85.6455 21.488C85.8935 21.032 86.2335 20.676 86.6655 20.42C87.0975 20.164 87.5895 20.036 88.1415 20.036C88.5495 20.036 88.9135 20.104 89.2335 20.24C89.5535 20.368 89.8255 20.56 90.0495 20.816C90.2815 21.064 90.4535 21.368 90.5655 21.728C90.6855 22.088 90.7455 22.492 90.7455 22.94C90.7455 23.076 90.7055 23.18 90.6255 23.252C90.5455 23.316 90.4255 23.348 90.2655 23.348H86.2335V22.604H89.9295L89.7255 22.772C89.7255 22.372 89.6655 22.032 89.5455 21.752C89.4335 21.472 89.2615 21.26 89.0295 21.116C88.8055 20.964 88.5255 20.888 88.1895 20.888C87.8135 20.888 87.4935 20.976 87.2295 21.152C86.9735 21.328 86.7775 21.572 86.6415 21.884C86.5055 22.196 86.4375 22.56 86.4375 22.976V23.048C86.4375 23.752 86.6015 24.284 86.9295 24.644C87.2655 24.996 87.7495 25.172 88.3815 25.172C88.6215 25.172 88.8735 25.14 89.1375 25.076C89.4095 25.012 89.6655 24.904 89.9055 24.752C90.0415 24.672 90.1615 24.636 90.2655 24.644C90.3775 24.652 90.4655 24.688 90.5295 24.752C90.6015 24.816 90.6455 24.896 90.6615 24.992C90.6775 25.088 90.6615 25.188 90.6135 25.292C90.5655 25.388 90.4815 25.476 90.3615 25.556C90.0895 25.74 89.7735 25.88 89.4135 25.976C89.0535 26.064 88.7055 26.108 88.3695 26.108Z" fill="white"/>
</g>
<g filter="url(#filter3_d_509_749)">
<rect x="6" y="59" width="116" height="32" rx="16" fill="#FFAA00" shape-rendering="crispEdges"/>
<rect x="5.5" y="58.5" width="117" height="33" rx="16.5" stroke="url(#paint3_linear_509_749)" shape-rendering="crispEdges"/>
<path d="M25.804 79.108C25.436 79.108 25.076 79.08 24.724 79.024C24.372 78.968 24.04 78.884 23.728 78.772C23.416 78.652 23.136 78.508 22.888 78.34C22.768 78.252 22.684 78.152 22.636 78.04C22.596 77.928 22.584 77.82 22.6 77.716C22.624 77.604 22.672 77.508 22.744 77.428C22.816 77.348 22.904 77.3 23.008 77.284C23.112 77.26 23.228 77.292 23.356 77.38C23.716 77.612 24.096 77.784 24.496 77.896C24.896 78 25.332 78.052 25.804 78.052C26.484 78.052 26.984 77.932 27.304 77.692C27.632 77.444 27.796 77.124 27.796 76.732C27.796 76.412 27.68 76.16 27.448 75.976C27.216 75.784 26.828 75.632 26.284 75.52L25 75.256C24.24 75.096 23.672 74.832 23.296 74.464C22.928 74.096 22.744 73.6 22.744 72.976C22.744 72.6 22.82 72.256 22.972 71.944C23.132 71.632 23.352 71.364 23.632 71.14C23.912 70.908 24.248 70.732 24.64 70.612C25.032 70.492 25.46 70.432 25.924 70.432C26.42 70.432 26.884 70.496 27.316 70.624C27.756 70.752 28.148 70.948 28.492 71.212C28.596 71.284 28.664 71.376 28.696 71.488C28.736 71.592 28.744 71.696 28.72 71.8C28.704 71.904 28.66 71.992 28.588 72.064C28.516 72.136 28.424 72.18 28.312 72.196C28.2 72.204 28.076 72.164 27.94 72.076C27.628 71.868 27.308 71.72 26.98 71.632C26.66 71.536 26.304 71.488 25.912 71.488C25.52 71.488 25.176 71.548 24.88 71.668C24.592 71.788 24.368 71.956 24.208 72.172C24.056 72.388 23.98 72.644 23.98 72.94C23.98 73.276 24.088 73.544 24.304 73.744C24.52 73.944 24.88 74.096 25.384 74.2L26.656 74.464C27.456 74.632 28.052 74.892 28.444 75.244C28.836 75.596 29.032 76.064 29.032 76.648C29.032 77.024 28.956 77.364 28.804 77.668C28.652 77.964 28.436 78.22 28.156 78.436C27.876 78.652 27.536 78.82 27.136 78.94C26.744 79.052 26.3 79.108 25.804 79.108ZM33.0648 79.108C32.4248 79.108 31.8728 78.988 31.4088 78.748C30.9528 78.5 30.5968 78.152 30.3408 77.704C30.0928 77.248 29.9688 76.708 29.9688 76.084C29.9688 75.476 30.0928 74.944 30.3408 74.488C30.5888 74.032 30.9288 73.676 31.3608 73.42C31.7928 73.164 32.2848 73.036 32.8368 73.036C33.2448 73.036 33.6088 73.104 33.9288 73.24C34.2488 73.368 34.5208 73.56 34.7448 73.816C34.9768 74.064 35.1488 74.368 35.2608 74.728C35.3808 75.088 35.4408 75.492 35.4408 75.94C35.4408 76.076 35.4008 76.18 35.3208 76.252C35.2408 76.316 35.1208 76.348 34.9608 76.348H30.9288V75.604H34.6248L34.4208 75.772C34.4208 75.372 34.3608 75.032 34.2408 74.752C34.1288 74.472 33.9568 74.26 33.7248 74.116C33.5008 73.964 33.2208 73.888 32.8848 73.888C32.5088 73.888 32.1888 73.976 31.9248 74.152C31.6688 74.328 31.4728 74.572 31.3368 74.884C31.2008 75.196 31.1328 75.56 31.1328 75.976V76.048C31.1328 76.752 31.2968 77.284 31.6248 77.644C31.9608 77.996 32.4448 78.172 33.0768 78.172C33.3168 78.172 33.5688 78.14 33.8328 78.076C34.1048 78.012 34.3608 77.904 34.6008 77.752C34.7368 77.672 34.8568 77.636 34.9608 77.644C35.0728 77.652 35.1608 77.688 35.2248 77.752C35.2968 77.816 35.3408 77.896 35.3568 77.992C35.3728 78.088 35.3568 78.188 35.3088 78.292C35.2608 78.388 35.1768 78.476 35.0568 78.556C34.7848 78.74 34.4688 78.88 34.1088 78.976C33.7488 79.064 33.4008 79.108 33.0648 79.108ZM37.3622 79.084C37.1702 79.084 37.0222 79.032 36.9182 78.928C36.8142 78.816 36.7622 78.664 36.7622 78.472V73.672C36.7622 73.472 36.8142 73.32 36.9182 73.216C37.0222 73.112 37.1662 73.06 37.3502 73.06C37.5422 73.06 37.6862 73.112 37.7822 73.216C37.8862 73.32 37.9382 73.472 37.9382 73.672V74.608L37.8062 74.392C37.9822 73.944 38.2582 73.608 38.6342 73.384C39.0102 73.152 39.4422 73.036 39.9302 73.036C40.3942 73.036 40.7782 73.124 41.0822 73.3C41.3942 73.468 41.6262 73.728 41.7782 74.08C41.9302 74.424 42.0062 74.86 42.0062 75.388V78.472C42.0062 78.664 41.9542 78.816 41.8502 78.928C41.7462 79.032 41.5982 79.084 41.4062 79.084C41.2062 79.084 41.0542 79.032 40.9502 78.928C40.8462 78.816 40.7942 78.664 40.7942 78.472V75.46C40.7942 74.956 40.6942 74.588 40.4942 74.356C40.3022 74.124 39.9982 74.008 39.5822 74.008C39.0942 74.008 38.7022 74.16 38.4062 74.464C38.1182 74.768 37.9742 75.176 37.9742 75.688V78.472C37.9742 78.88 37.7702 79.084 37.3622 79.084ZM45.9082 79.108C45.3962 79.108 44.9442 78.988 44.5522 78.748C44.1682 78.5 43.8682 78.148 43.6522 77.692C43.4362 77.228 43.3282 76.688 43.3282 76.072C43.3282 75.44 43.4362 74.9 43.6522 74.452C43.8682 74.004 44.1682 73.656 44.5522 73.408C44.9442 73.16 45.3962 73.036 45.9082 73.036C46.4202 73.036 46.8602 73.164 47.2282 73.42C47.6042 73.668 47.8562 74.004 47.9842 74.428H47.8522V71.068C47.8522 70.868 47.9042 70.716 48.0082 70.612C48.1122 70.508 48.2602 70.456 48.4522 70.456C48.6442 70.456 48.7922 70.508 48.8962 70.612C49.0082 70.716 49.0642 70.868 49.0642 71.068V78.472C49.0642 78.664 49.0122 78.816 48.9082 78.928C48.8042 79.032 48.6562 79.084 48.4642 79.084C48.2722 79.084 48.1242 79.032 48.0202 78.928C47.9162 78.816 47.8642 78.664 47.8642 78.472V77.416L47.9962 77.68C47.8682 78.112 47.6162 78.46 47.2402 78.724C46.8722 78.98 46.4282 79.108 45.9082 79.108ZM46.2202 78.172C46.5482 78.172 46.8362 78.092 47.0842 77.932C47.3322 77.772 47.5242 77.536 47.6602 77.224C47.8042 76.912 47.8762 76.528 47.8762 76.072C47.8762 75.384 47.7242 74.864 47.4202 74.512C47.1162 74.16 46.7162 73.984 46.2202 73.984C45.8842 73.984 45.5922 74.064 45.3442 74.224C45.0962 74.376 44.9002 74.608 44.7562 74.92C44.6202 75.232 44.5522 75.616 44.5522 76.072C44.5522 76.752 44.7042 77.272 45.0082 77.632C45.3122 77.992 45.7162 78.172 46.2202 78.172ZM54.6861 79.084C54.4861 79.084 54.3301 79.028 54.2181 78.916C54.1141 78.804 54.0621 78.648 54.0621 78.448V71.176C54.0621 70.968 54.1181 70.812 54.2301 70.708C54.3421 70.596 54.4981 70.54 54.6981 70.54H57.5661C58.4781 70.54 59.1821 70.756 59.6781 71.188C60.1741 71.62 60.4221 72.232 60.4221 73.024C60.4221 73.536 60.3101 73.976 60.0861 74.344C59.8621 74.712 59.5341 74.992 59.1021 75.184C58.6781 75.376 58.1661 75.472 57.5661 75.472L57.6741 75.304H57.9861C58.3061 75.304 58.5821 75.384 58.8141 75.544C59.0541 75.704 59.2701 75.96 59.4621 76.312L60.4941 78.232C60.5741 78.376 60.6101 78.516 60.6021 78.652C60.6021 78.78 60.5541 78.884 60.4581 78.964C60.3701 79.044 60.2421 79.084 60.0741 79.084C59.8981 79.084 59.7541 79.048 59.6421 78.976C59.5381 78.896 59.4421 78.78 59.3541 78.628L58.0941 76.3C57.9261 75.988 57.7341 75.78 57.5181 75.676C57.3021 75.564 57.0181 75.508 56.6661 75.508H55.3101V78.448C55.3101 78.648 55.2581 78.804 55.1541 78.916C55.0501 79.028 54.8941 79.084 54.6861 79.084ZM55.3101 74.572H57.3621C57.9701 74.572 58.4301 74.444 58.7421 74.188C59.0541 73.932 59.2101 73.552 59.2101 73.048C59.2101 72.552 59.0541 72.176 58.7421 71.92C58.4301 71.664 57.9701 71.536 57.3621 71.536H55.3101V74.572ZM64.6586 79.108C64.0186 79.108 63.4666 78.988 63.0026 78.748C62.5466 78.5 62.1906 78.152 61.9346 77.704C61.6866 77.248 61.5626 76.708 61.5626 76.084C61.5626 75.476 61.6866 74.944 61.9346 74.488C62.1826 74.032 62.5226 73.676 62.9546 73.42C63.3866 73.164 63.8786 73.036 64.4306 73.036C64.8386 73.036 65.2026 73.104 65.5226 73.24C65.8426 73.368 66.1146 73.56 66.3386 73.816C66.5706 74.064 66.7426 74.368 66.8546 74.728C66.9746 75.088 67.0346 75.492 67.0346 75.94C67.0346 76.076 66.9946 76.18 66.9146 76.252C66.8346 76.316 66.7146 76.348 66.5546 76.348H62.5226V75.604H66.2186L66.0146 75.772C66.0146 75.372 65.9546 75.032 65.8346 74.752C65.7226 74.472 65.5506 74.26 65.3186 74.116C65.0946 73.964 64.8146 73.888 64.4786 73.888C64.1026 73.888 63.7826 73.976 63.5186 74.152C63.2626 74.328 63.0666 74.572 62.9306 74.884C62.7946 75.196 62.7266 75.56 62.7266 75.976V76.048C62.7266 76.752 62.8906 77.284 63.2186 77.644C63.5546 77.996 64.0386 78.172 64.6706 78.172C64.9106 78.172 65.1626 78.14 65.4266 78.076C65.6986 78.012 65.9546 77.904 66.1946 77.752C66.3306 77.672 66.4506 77.636 66.5546 77.644C66.6666 77.652 66.7546 77.688 66.8186 77.752C66.8906 77.816 66.9346 77.896 66.9506 77.992C66.9666 78.088 66.9506 78.188 66.9026 78.292C66.8546 78.388 66.7706 78.476 66.6506 78.556C66.3786 78.74 66.0626 78.88 65.7026 78.976C65.3426 79.064 64.9946 79.108 64.6586 79.108ZM68.9799 79.084C68.7879 79.084 68.6399 79.032 68.5359 78.928C68.4319 78.816 68.3799 78.664 68.3799 78.472V73.672C68.3799 73.472 68.4319 73.32 68.5359 73.216C68.6399 73.112 68.7839 73.06 68.9679 73.06C69.1599 73.06 69.3039 73.112 69.3999 73.216C69.5039 73.32 69.5559 73.472 69.5559 73.672V74.656L69.4239 74.392C69.5839 73.968 69.8319 73.636 70.1679 73.396C70.5039 73.156 70.9079 73.036 71.3799 73.036C71.8679 73.036 72.2639 73.152 72.5679 73.384C72.8719 73.616 73.0799 73.972 73.1919 74.452H73.0239C73.1759 74.012 73.4359 73.668 73.8039 73.42C74.1719 73.164 74.5999 73.036 75.0879 73.036C75.5359 73.036 75.9039 73.124 76.1919 73.3C76.4799 73.468 76.6959 73.728 76.8399 74.08C76.9839 74.424 77.0559 74.86 77.0559 75.388V78.472C77.0559 78.664 76.9999 78.816 76.8879 78.928C76.7839 79.032 76.6359 79.084 76.4439 79.084C76.2519 79.084 76.1039 79.032 75.9999 78.928C75.8959 78.816 75.8439 78.664 75.8439 78.472V75.448C75.8439 74.952 75.7559 74.588 75.5799 74.356C75.4119 74.124 75.1319 74.008 74.7399 74.008C74.2999 74.008 73.9519 74.16 73.6959 74.464C73.4399 74.768 73.3119 75.188 73.3119 75.724V78.472C73.3119 78.664 73.2599 78.816 73.1559 78.928C73.0519 79.032 72.9039 79.084 72.7119 79.084C72.5199 79.084 72.3679 79.032 72.2559 78.928C72.1519 78.816 72.0999 78.664 72.0999 78.472V75.448C72.0999 74.952 72.0159 74.588 71.8479 74.356C71.6799 74.124 71.3999 74.008 71.0079 74.008C70.5679 74.008 70.2199 74.16 69.9639 74.464C69.7159 74.768 69.5919 75.188 69.5919 75.724V78.472C69.5919 78.88 69.3879 79.084 68.9799 79.084ZM79.3504 79.072C79.1584 79.072 79.0104 79.016 78.9064 78.904C78.8024 78.784 78.7504 78.62 78.7504 78.412V73.732C78.7504 73.524 78.8024 73.364 78.9064 73.252C79.0104 73.14 79.1584 73.084 79.3504 73.084C79.5424 73.084 79.6904 73.14 79.7944 73.252C79.9064 73.364 79.9624 73.524 79.9624 73.732V78.412C79.9624 78.62 79.9104 78.784 79.8064 78.904C79.7024 79.016 79.5504 79.072 79.3504 79.072ZM79.3504 71.836C79.1104 71.836 78.9224 71.776 78.7864 71.656C78.6584 71.536 78.5944 71.368 78.5944 71.152C78.5944 70.928 78.6584 70.76 78.7864 70.648C78.9224 70.528 79.1104 70.468 79.3504 70.468C79.5904 70.468 79.7744 70.528 79.9024 70.648C80.0384 70.76 80.1064 70.928 80.1064 71.152C80.1064 71.368 80.0384 71.536 79.9024 71.656C79.7744 71.776 79.5904 71.836 79.3504 71.836ZM82.2684 79.084C82.0764 79.084 81.9284 79.032 81.8244 78.928C81.7204 78.816 81.6684 78.664 81.6684 78.472V73.672C81.6684 73.472 81.7204 73.32 81.8244 73.216C81.9284 73.112 82.0724 73.06 82.2564 73.06C82.4484 73.06 82.5924 73.112 82.6884 73.216C82.7924 73.32 82.8444 73.472 82.8444 73.672V74.608L82.7124 74.392C82.8884 73.944 83.1644 73.608 83.5404 73.384C83.9164 73.152 84.3484 73.036 84.8364 73.036C85.3004 73.036 85.6844 73.124 85.9884 73.3C86.3004 73.468 86.5324 73.728 86.6844 74.08C86.8364 74.424 86.9124 74.86 86.9124 75.388V78.472C86.9124 78.664 86.8604 78.816 86.7564 78.928C86.6524 79.032 86.5044 79.084 86.3124 79.084C86.1124 79.084 85.9604 79.032 85.8564 78.928C85.7524 78.816 85.7004 78.664 85.7004 78.472V75.46C85.7004 74.956 85.6004 74.588 85.4004 74.356C85.2084 74.124 84.9044 74.008 84.4884 74.008C84.0004 74.008 83.6084 74.16 83.3124 74.464C83.0244 74.768 82.8804 75.176 82.8804 75.688V78.472C82.8804 78.88 82.6764 79.084 82.2684 79.084ZM90.8145 79.108C90.3025 79.108 89.8505 78.988 89.4585 78.748C89.0745 78.5 88.7745 78.148 88.5585 77.692C88.3425 77.228 88.2345 76.688 88.2345 76.072C88.2345 75.44 88.3425 74.9 88.5585 74.452C88.7745 74.004 89.0745 73.656 89.4585 73.408C89.8505 73.16 90.3025 73.036 90.8145 73.036C91.3265 73.036 91.7665 73.164 92.1345 73.42C92.5105 73.668 92.7625 74.004 92.8905 74.428H92.7585V71.068C92.7585 70.868 92.8105 70.716 92.9145 70.612C93.0185 70.508 93.1665 70.456 93.3585 70.456C93.5505 70.456 93.6985 70.508 93.8025 70.612C93.9145 70.716 93.9705 70.868 93.9705 71.068V78.472C93.9705 78.664 93.9185 78.816 93.8145 78.928C93.7105 79.032 93.5625 79.084 93.3705 79.084C93.1785 79.084 93.0305 79.032 92.9265 78.928C92.8225 78.816 92.7705 78.664 92.7705 78.472V77.416L92.9025 77.68C92.7745 78.112 92.5225 78.46 92.1465 78.724C91.7785 78.98 91.3345 79.108 90.8145 79.108ZM91.1265 78.172C91.4545 78.172 91.7425 78.092 91.9905 77.932C92.2385 77.772 92.4305 77.536 92.5665 77.224C92.7105 76.912 92.7825 76.528 92.7825 76.072C92.7825 75.384 92.6305 74.864 92.3265 74.512C92.0225 74.16 91.6225 73.984 91.1265 73.984C90.7905 73.984 90.4985 74.064 90.2505 74.224C90.0025 74.376 89.8065 74.608 89.6625 74.92C89.5265 75.232 89.4585 75.616 89.4585 76.072C89.4585 76.752 89.6105 77.272 89.9145 77.632C90.2185 77.992 90.6225 78.172 91.1265 78.172ZM98.4203 79.108C97.7803 79.108 97.2283 78.988 96.7643 78.748C96.3083 78.5 95.9523 78.152 95.6963 77.704C95.4483 77.248 95.3243 76.708 95.3243 76.084C95.3243 75.476 95.4483 74.944 95.6963 74.488C95.9443 74.032 96.2843 73.676 96.7163 73.42C97.1483 73.164 97.6403 73.036 98.1923 73.036C98.6003 73.036 98.9643 73.104 99.2843 73.24C99.6043 73.368 99.8763 73.56 100.1 73.816C100.332 74.064 100.504 74.368 100.616 74.728C100.736 75.088 100.796 75.492 100.796 75.94C100.796 76.076 100.756 76.18 100.676 76.252C100.596 76.316 100.476 76.348 100.316 76.348H96.2843V75.604H99.9803L99.7763 75.772C99.7763 75.372 99.7163 75.032 99.5963 74.752C99.4843 74.472 99.3123 74.26 99.0803 74.116C98.8563 73.964 98.5763 73.888 98.2403 73.888C97.8643 73.888 97.5443 73.976 97.2803 74.152C97.0243 74.328 96.8283 74.572 96.6923 74.884C96.5563 75.196 96.4883 75.56 96.4883 75.976V76.048C96.4883 76.752 96.6523 77.284 96.9803 77.644C97.3163 77.996 97.8003 78.172 98.4323 78.172C98.6723 78.172 98.9243 78.14 99.1883 78.076C99.4603 78.012 99.7163 77.904 99.9563 77.752C100.092 77.672 100.212 77.636 100.316 77.644C100.428 77.652 100.516 77.688 100.58 77.752C100.652 77.816 100.696 77.896 100.712 77.992C100.728 78.088 100.712 78.188 100.664 78.292C100.616 78.388 100.532 78.476 100.412 78.556C100.14 78.74 99.8243 78.88 99.4643 78.976C99.1043 79.064 98.7563 79.108 98.4203 79.108ZM102.73 79.084C102.53 79.084 102.378 79.032 102.274 78.928C102.17 78.816 102.118 78.664 102.118 78.472V73.672C102.118 73.472 102.17 73.32 102.274 73.216C102.378 73.112 102.522 73.06 102.706 73.06C102.898 73.06 103.042 73.112 103.138 73.216C103.242 73.32 103.294 73.472 103.294 73.672V74.548H103.174C103.302 74.068 103.538 73.704 103.882 73.456C104.226 73.208 104.666 73.064 105.202 73.024C105.346 73.016 105.458 73.052 105.538 73.132C105.626 73.212 105.674 73.336 105.682 73.504C105.698 73.672 105.662 73.808 105.574 73.912C105.486 74.008 105.35 74.064 105.166 74.08L104.938 74.104C104.418 74.152 104.022 74.316 103.75 74.596C103.478 74.876 103.342 75.26 103.342 75.748V78.472C103.342 78.664 103.29 78.816 103.186 78.928C103.09 79.032 102.938 79.084 102.73 79.084Z" fill="white"/>
</g>
<defs>
<filter id="filter0_d_509_749" x="2" y="105" width="58" height="42" filterUnits="userSpaceOnUse" color-interpolation-filters="sRGB">
<feFlood flood-opacity="0" result="BackgroundImageFix"/>
<feColorMatrix in="SourceAlpha" type="matrix" values="0 0 0 0 0 0 0 0 0 0 0 0 0 0 0 0 0 0 127 0" result="hardAlpha"/>
<feMorphology radius="5" operator="dilate" in="SourceAlpha" result="effect1_dropShadow_509_749"/>
<feOffset/>
<feComposite in2="hardAlpha" operator="out"/>
<feColorMatrix type="matrix" values="0 0 0 0 0.462745 0 0 0 0 0.737255 0 0 0 0 0.129412 0 0 0 0.1 0"/>
<feBlend mode="normal" in2="BackgroundImageFix" result="effect1_dropShadow_509_749"/>
<feBlend mode="normal" in="SourceGraphic" in2="effect1_dropShadow_509_749" result="shape"/>
</filter>
<filter id="filter1_d_509_749" x="63" y="105" width="42" height="42" filterUnits="userSpaceOnUse" color-interpolation-filters="sRGB">
<feFlood flood-opacity="0" result="BackgroundImageFix"/>
<feColorMatrix in="SourceAlpha" type="matrix" values="0 0 0 0 0 0 0 0 0 0 0 0 0 0 0 0 0 0 127 0" result="hardAlpha"/>
<feMorphology radius="5" operator="dilate" in="SourceAlpha" result="effect1_dropShadow_509_749"/>
<feOffset/>
<feComposite in2="hardAlpha" operator="out"/>
<feColorMatrix type="matrix" values="0 0 0 0 0 0 0 0 0 0.407843 0 0 0 0 0.215686 0 0 0 0.11 0"/>
<feBlend mode="normal" in2="BackgroundImageFix" result="effect1_dropShadow_509_749"/>
<feBlend mode="normal" in="SourceGraphic" in2="effect1_dropShadow_509_749" result="shape"/>
</filter>
<filter id="filter2_d_509_749" x="0" y="0" width="114" height="44" filterUnits="userSpaceOnUse" color-interpolation-filters="sRGB">
<feFlood flood-opacity="0" result="BackgroundImageFix"/>
<feColorMatrix in="SourceAlpha" type="matrix" values="0 0 0 0 0 0 0 0 0 0 0 0 0 0 0 0 0 0 127 0" result="hardAlpha"/>
<feMorphology radius="5" operator="dilate" in="SourceAlpha" result="effect1_dropShadow_509_749"/>
<feOffset/>
<feComposite in2="hardAlpha" operator="out"/>
<feColorMatrix type="matrix" values="0 0 0 0 0.996078 0 0 0 0 0.313726 0 0 0 0 0 0 0 0 0.15 0"/>
<feBlend mode="normal" in2="BackgroundImageFix" result="effect1_dropShadow_509_749"/>
<feBlend mode="normal" in="SourceGraphic" in2="effect1_dropShadow_509_749" result="shape"/>
</filter>
<filter id="filter3_d_509_749" x="0" y="53" width="128" height="44" filterUnits="userSpaceOnUse" color-interpolation-filters="sRGB">
<feFlood flood-opacity="0" result="BackgroundImageFix"/>
<feColorMatrix in="SourceAlpha" type="matrix" values="0 0 0 0 0 0 0 0 0 0 0 0 0 0 0 0 0 0 127 0" result="hardAlpha"/>
<feMorphology radius="5" operator="dilate" in="SourceAlpha" result="effect1_dropShadow_509_749"/>
<feOffset/>
<feComposite in2="hardAlpha" operator="out"/>
<feColorMatrix type="matrix" values="0 0 0 0 1 0 0 0 0 0.666667 0 0 0 0 0 0 0 0 0.15 0"/>
<feBlend mode="normal" in2="BackgroundImageFix" result="effect1_dropShadow_509_749"/>
<feBlend mode="normal" in="SourceGraphic" in2="effect1_dropShadow_509_749" result="shape"/>
</filter>
<linearGradient id="paint0_linear_509_749" x1="34.7672" y1="111" x2="34.7672" y2="141" gradientUnits="userSpaceOnUse">
<stop stop-color="#76BC21" stop-opacity="0.75"/>
<stop offset="1" stop-color="#6EAF20"/>
</linearGradient>
<linearGradient id="paint1_linear_509_749" x1="86.4569" y1="111" x2="86.4569" y2="141" gradientUnits="userSpaceOnUse">
<stop stop-color="#006837" stop-opacity="0.75"/>
<stop offset="1" stop-color="#01592F"/>
</linearGradient>
<linearGradient id="paint2_linear_509_749" x1="65.3534" y1="6" x2="65.3534" y2="38" gradientUnits="userSpaceOnUse">
<stop stop-color="#FE5000" stop-opacity="0.74"/>
<stop offset="1" stop-color="#E74A02"/>
</linearGradient>
<linearGradient id="paint3_linear_509_749" x1="73.5" y1="59" x2="73.5" y2="91" gradientUnits="userSpaceOnUse">
<stop stop-color="#FFAA00" stop-opacity="0.75"/>
<stop offset="1" stop-color="#E89B01"/>
</linearGradient>
</defs>
</svg>
