<svg width="173" height="137" viewBox="0 0 173 137" fill="none" xmlns="http://www.w3.org/2000/svg">
<rect x="0.5" y="52.5" width="92" height="33" rx="16.5" fill="#E8EAEF"/>
<rect x="0.5" y="52.5" width="92" height="33" rx="16.5" stroke="url(#paint0_linear_515_1483)"/>
<g clip-path="url(#clip0_515_1483)">
<path d="M23 63C21.8133 63 20.6533 63.3519 19.6666 64.0112C18.6799 64.6705 17.9109 65.6075 17.4567 66.7039C17.0026 67.8003 16.8838 69.0067 17.1153 70.1705C17.3468 71.3344 17.9182 72.4035 18.7574 73.2426C19.5965 74.0818 20.6656 74.6532 21.8295 74.8847C22.9933 75.1162 24.1997 74.9974 25.2961 74.5433C26.3925 74.0892 27.3295 73.3201 27.9888 72.3334C28.6481 71.3467 29 70.1867 29 69C28.9983 67.4092 28.3656 65.8841 27.2408 64.7592C26.1159 63.6344 24.5908 63.0017 23 63ZM23 64.5C23.9332 64.5014 24.8424 64.7952 25.5999 65.3402L19.3396 71.5992C18.8585 70.9278 18.572 70.1365 18.5119 69.3127C18.4517 68.4888 18.6202 67.6644 18.9988 66.9302C19.3773 66.196 19.9512 65.5806 20.6573 65.1518C21.3633 64.723 22.174 64.4974 23 64.5ZM23 73.5C22.0668 73.4986 21.1576 73.2048 20.4001 72.6598L26.6604 66.4008C27.1415 67.0722 27.428 67.8635 27.4881 68.6873C27.5483 69.5112 27.3798 70.3356 27.0012 71.0698C26.6227 71.804 26.0488 72.4194 25.3427 72.8482C24.6367 73.277 23.826 73.5026 23 73.5Z" fill="white"/>
</g>
<path d="M35.656 73C35.44 73 35.272 72.944 35.152 72.832C35.04 72.712 34.984 72.544 34.984 72.328V65.212C34.984 64.996 35.04 64.832 35.152 64.72C35.272 64.6 35.44 64.54 35.656 64.54H37.972C39.364 64.54 40.436 64.904 41.188 65.632C41.948 66.352 42.328 67.396 42.328 68.764C42.328 69.444 42.232 70.048 42.04 70.576C41.848 71.104 41.564 71.548 41.188 71.908C40.82 72.26 40.368 72.532 39.832 72.724C39.296 72.908 38.676 73 37.972 73H35.656ZM36.232 71.956H37.9C38.428 71.956 38.884 71.892 39.268 71.764C39.66 71.628 39.988 71.428 40.252 71.164C40.516 70.9 40.712 70.568 40.84 70.168C40.968 69.768 41.032 69.3 41.032 68.764C41.032 67.7 40.768 66.904 40.24 66.376C39.72 65.848 38.94 65.584 37.9 65.584H36.232V71.956ZM44.4637 73.072C44.2717 73.072 44.1237 73.016 44.0197 72.904C43.9157 72.784 43.8637 72.62 43.8637 72.412V67.732C43.8637 67.524 43.9157 67.364 44.0197 67.252C44.1237 67.14 44.2717 67.084 44.4637 67.084C44.6557 67.084 44.8037 67.14 44.9077 67.252C45.0197 67.364 45.0757 67.524 45.0757 67.732V72.412C45.0757 72.62 45.0237 72.784 44.9197 72.904C44.8157 73.016 44.6637 73.072 44.4637 73.072ZM44.4637 65.836C44.2237 65.836 44.0357 65.776 43.8997 65.656C43.7717 65.536 43.7077 65.368 43.7077 65.152C43.7077 64.928 43.7717 64.76 43.8997 64.648C44.0357 64.528 44.2237 64.468 44.4637 64.468C44.7037 64.468 44.8877 64.528 45.0157 64.648C45.1517 64.76 45.2197 64.928 45.2197 65.152C45.2197 65.368 45.1517 65.536 45.0157 65.656C44.8877 65.776 44.7037 65.836 44.4637 65.836ZM48.8337 73.108C48.4817 73.108 48.1177 73.068 47.7417 72.988C47.3737 72.908 47.0337 72.772 46.7217 72.58C46.6177 72.508 46.5457 72.428 46.5057 72.34C46.4657 72.252 46.4497 72.164 46.4577 72.076C46.4737 71.98 46.5097 71.9 46.5657 71.836C46.6297 71.764 46.7057 71.72 46.7937 71.704C46.8897 71.688 46.9897 71.708 47.0937 71.764C47.4057 71.94 47.7057 72.064 47.9937 72.136C48.2817 72.2 48.5657 72.232 48.8457 72.232C49.2697 72.232 49.5897 72.156 49.8057 72.004C50.0217 71.852 50.1297 71.648 50.1297 71.392C50.1297 71.184 50.0577 71.024 49.9137 70.912C49.7697 70.792 49.5537 70.7 49.2657 70.636L48.1257 70.408C47.6297 70.304 47.2537 70.12 46.9977 69.856C46.7417 69.592 46.6137 69.256 46.6137 68.848C46.6137 68.48 46.7137 68.16 46.9137 67.888C47.1137 67.616 47.3937 67.408 47.7537 67.264C48.1137 67.112 48.5297 67.036 49.0017 67.036C49.3537 67.036 49.6857 67.08 49.9977 67.168C50.3097 67.256 50.5977 67.388 50.8617 67.564C50.9657 67.62 51.0337 67.696 51.0657 67.792C51.0977 67.88 51.1017 67.968 51.0777 68.056C51.0617 68.144 51.0217 68.224 50.9577 68.296C50.8937 68.36 50.8137 68.4 50.7177 68.416C50.6297 68.424 50.5297 68.4 50.4177 68.344C50.1777 68.192 49.9377 68.084 49.6977 68.02C49.4657 67.956 49.2337 67.924 49.0017 67.924C48.5777 67.924 48.2577 68.004 48.0417 68.164C47.8337 68.316 47.7297 68.524 47.7297 68.788C47.7297 68.988 47.7937 69.152 47.9217 69.28C48.0497 69.408 48.2497 69.5 48.5217 69.556L49.6617 69.784C50.1817 69.888 50.5737 70.064 50.8377 70.312C51.1097 70.56 51.2457 70.896 51.2457 71.32C51.2457 71.872 51.0257 72.308 50.5857 72.628C50.1457 72.948 49.5617 73.108 48.8337 73.108ZM54.4662 73.108C54.0582 73.108 53.6902 73.028 53.3622 72.868C53.0422 72.708 52.7902 72.492 52.6062 72.22C52.4222 71.948 52.3302 71.64 52.3302 71.296C52.3302 70.864 52.4382 70.524 52.6542 70.276C52.8782 70.02 53.2422 69.84 53.7462 69.736C54.2582 69.624 54.9462 69.568 55.8102 69.568H56.3742V70.312H55.8222C55.2462 70.312 54.7902 70.34 54.4542 70.396C54.1182 70.452 53.8782 70.548 53.7342 70.684C53.5982 70.812 53.5302 70.992 53.5302 71.224C53.5302 71.528 53.6342 71.776 53.8422 71.968C54.0502 72.152 54.3382 72.244 54.7062 72.244C55.0022 72.244 55.2622 72.176 55.4862 72.04C55.7102 71.896 55.8862 71.704 56.0142 71.464C56.1502 71.224 56.2182 70.948 56.2182 70.636V69.256C56.2182 68.8 56.1222 68.472 55.9302 68.272C55.7382 68.072 55.4222 67.972 54.9822 67.972C54.7262 67.972 54.4582 68.004 54.1782 68.068C53.9062 68.132 53.6222 68.24 53.3262 68.392C53.1902 68.456 53.0742 68.476 52.9782 68.452C52.8822 68.428 52.8062 68.376 52.7502 68.296C52.6942 68.208 52.6622 68.116 52.6542 68.02C52.6542 67.916 52.6782 67.816 52.7262 67.72C52.7822 67.624 52.8742 67.552 53.0022 67.504C53.3542 67.336 53.7022 67.216 54.0462 67.144C54.3902 67.072 54.7142 67.036 55.0182 67.036C55.5542 67.036 55.9942 67.12 56.3382 67.288C56.6902 67.456 56.9502 67.712 57.1182 68.056C57.2862 68.4 57.3702 68.844 57.3702 69.388V72.472C57.3702 72.664 57.3222 72.816 57.2262 72.928C57.1302 73.032 56.9902 73.084 56.8062 73.084C56.6302 73.084 56.4902 73.032 56.3862 72.928C56.2822 72.816 56.2302 72.664 56.2302 72.472V71.692H56.3382C56.2742 71.988 56.1542 72.244 55.9782 72.46C55.8102 72.668 55.5982 72.828 55.3422 72.94C55.0862 73.052 54.7942 73.108 54.4662 73.108ZM62.1835 73.108C61.6715 73.108 61.2275 72.98 60.8515 72.724C60.4755 72.46 60.2235 72.112 60.0955 71.68L60.2275 71.464V72.472C60.2275 72.664 60.1755 72.816 60.0715 72.928C59.9675 73.032 59.8235 73.084 59.6395 73.084C59.4475 73.084 59.2995 73.032 59.1955 72.928C59.0915 72.816 59.0395 72.664 59.0395 72.472V65.068C59.0395 64.868 59.0915 64.716 59.1955 64.612C59.2995 64.508 59.4475 64.456 59.6395 64.456C59.8315 64.456 59.9795 64.508 60.0835 64.612C60.1955 64.716 60.2515 64.868 60.2515 65.068V68.428H60.1075C60.2355 68.004 60.4875 67.668 60.8635 67.42C61.2395 67.164 61.6795 67.036 62.1835 67.036C62.7115 67.036 63.1675 67.16 63.5515 67.408C63.9355 67.656 64.2315 68.004 64.4395 68.452C64.6555 68.9 64.7635 69.44 64.7635 70.072C64.7635 70.688 64.6555 71.228 64.4395 71.692C64.2315 72.148 63.9315 72.5 63.5395 72.748C63.1555 72.988 62.7035 73.108 62.1835 73.108ZM61.8835 72.172C62.2195 72.172 62.5115 72.092 62.7595 71.932C63.0075 71.772 63.1995 71.536 63.3355 71.224C63.4715 70.912 63.5395 70.528 63.5395 70.072C63.5395 69.384 63.3875 68.864 63.0835 68.512C62.7875 68.16 62.3875 67.984 61.8835 67.984C61.5555 67.984 61.2635 68.064 61.0075 68.224C60.7595 68.376 60.5675 68.608 60.4315 68.92C60.2955 69.232 60.2275 69.616 60.2275 70.072C60.2275 70.752 60.3795 71.272 60.6835 71.632C60.9875 71.992 61.3875 72.172 61.8835 72.172ZM68.0133 73.108C67.3893 73.108 66.9173 72.928 66.5973 72.568C66.2853 72.2 66.1293 71.672 66.1293 70.984V65.068C66.1293 64.868 66.1813 64.716 66.2853 64.612C66.3893 64.508 66.5373 64.456 66.7293 64.456C66.9213 64.456 67.0693 64.508 67.1733 64.612C67.2853 64.716 67.3413 64.868 67.3413 65.068V70.912C67.3413 71.312 67.4213 71.612 67.5813 71.812C67.7493 72.004 67.9893 72.1 68.3013 72.1C68.3733 72.1 68.4373 72.1 68.4933 72.1C68.5493 72.092 68.6053 72.084 68.6613 72.076C68.7573 72.068 68.8253 72.096 68.8653 72.16C68.9053 72.216 68.9253 72.336 68.9253 72.52C68.9253 72.688 68.8893 72.82 68.8173 72.916C68.7453 73.004 68.6293 73.06 68.4693 73.084C68.3973 73.092 68.3213 73.096 68.2413 73.096C68.1613 73.104 68.0853 73.108 68.0133 73.108ZM72.4867 73.108C71.8467 73.108 71.2947 72.988 70.8307 72.748C70.3747 72.5 70.0187 72.152 69.7627 71.704C69.5147 71.248 69.3907 70.708 69.3907 70.084C69.3907 69.476 69.5147 68.944 69.7627 68.488C70.0107 68.032 70.3507 67.676 70.7827 67.42C71.2147 67.164 71.7067 67.036 72.2587 67.036C72.6667 67.036 73.0307 67.104 73.3507 67.24C73.6707 67.368 73.9427 67.56 74.1667 67.816C74.3987 68.064 74.5707 68.368 74.6827 68.728C74.8027 69.088 74.8627 69.492 74.8627 69.94C74.8627 70.076 74.8227 70.18 74.7427 70.252C74.6627 70.316 74.5427 70.348 74.3827 70.348H70.3507V69.604H74.0467L73.8427 69.772C73.8427 69.372 73.7827 69.032 73.6627 68.752C73.5507 68.472 73.3787 68.26 73.1467 68.116C72.9227 67.964 72.6427 67.888 72.3067 67.888C71.9307 67.888 71.6107 67.976 71.3467 68.152C71.0907 68.328 70.8947 68.572 70.7587 68.884C70.6227 69.196 70.5547 69.56 70.5547 69.976V70.048C70.5547 70.752 70.7187 71.284 71.0467 71.644C71.3827 71.996 71.8667 72.172 72.4987 72.172C72.7387 72.172 72.9907 72.14 73.2547 72.076C73.5267 72.012 73.7827 71.904 74.0227 71.752C74.1587 71.672 74.2787 71.636 74.3827 71.644C74.4947 71.652 74.5827 71.688 74.6467 71.752C74.7187 71.816 74.7627 71.896 74.7787 71.992C74.7947 72.088 74.7787 72.188 74.7307 72.292C74.6827 72.388 74.5987 72.476 74.4787 72.556C74.2067 72.74 73.8907 72.88 73.5307 72.976C73.1707 73.064 72.8227 73.108 72.4867 73.108Z" fill="white"/>
<rect x="0.5" y="0.5" width="92" height="33" rx="16.5" fill="#E8EAEF"/>
<rect x="0.5" y="0.5" width="92" height="33" rx="16.5" stroke="url(#paint1_linear_515_1483)"/>
<path d="M18.656 21C18.44 21 18.272 20.944 18.152 20.832C18.04 20.712 17.984 20.544 17.984 20.328V13.212C17.984 12.996 18.04 12.832 18.152 12.72C18.272 12.6 18.44 12.54 18.656 12.54H20.972C22.364 12.54 23.436 12.904 24.188 13.632C24.948 14.352 25.328 15.396 25.328 16.764C25.328 17.444 25.232 18.048 25.04 18.576C24.848 19.104 24.564 19.548 24.188 19.908C23.82 20.26 23.368 20.532 22.832 20.724C22.296 20.908 21.676 21 20.972 21H18.656ZM19.232 19.956H20.9C21.428 19.956 21.884 19.892 22.268 19.764C22.66 19.628 22.988 19.428 23.252 19.164C23.516 18.9 23.712 18.568 23.84 18.168C23.968 17.768 24.032 17.3 24.032 16.764C24.032 15.7 23.768 14.904 23.24 14.376C22.72 13.848 21.94 13.584 20.9 13.584H19.232V19.956ZM27.4637 21.072C27.2717 21.072 27.1237 21.016 27.0197 20.904C26.9157 20.784 26.8637 20.62 26.8637 20.412V15.732C26.8637 15.524 26.9157 15.364 27.0197 15.252C27.1237 15.14 27.2717 15.084 27.4637 15.084C27.6557 15.084 27.8037 15.14 27.9077 15.252C28.0197 15.364 28.0757 15.524 28.0757 15.732V20.412C28.0757 20.62 28.0237 20.784 27.9197 20.904C27.8157 21.016 27.6637 21.072 27.4637 21.072ZM27.4637 13.836C27.2237 13.836 27.0357 13.776 26.8997 13.656C26.7717 13.536 26.7077 13.368 26.7077 13.152C26.7077 12.928 26.7717 12.76 26.8997 12.648C27.0357 12.528 27.2237 12.468 27.4637 12.468C27.7037 12.468 27.8877 12.528 28.0157 12.648C28.1517 12.76 28.2197 12.928 28.2197 13.152C28.2197 13.368 28.1517 13.536 28.0157 13.656C27.8877 13.776 27.7037 13.836 27.4637 13.836ZM31.8337 21.108C31.4817 21.108 31.1177 21.068 30.7417 20.988C30.3737 20.908 30.0337 20.772 29.7217 20.58C29.6177 20.508 29.5457 20.428 29.5057 20.34C29.4657 20.252 29.4497 20.164 29.4577 20.076C29.4737 19.98 29.5097 19.9 29.5657 19.836C29.6297 19.764 29.7057 19.72 29.7937 19.704C29.8897 19.688 29.9897 19.708 30.0937 19.764C30.4057 19.94 30.7057 20.064 30.9937 20.136C31.2817 20.2 31.5657 20.232 31.8457 20.232C32.2697 20.232 32.5897 20.156 32.8057 20.004C33.0217 19.852 33.1297 19.648 33.1297 19.392C33.1297 19.184 33.0577 19.024 32.9137 18.912C32.7697 18.792 32.5537 18.7 32.2657 18.636L31.1257 18.408C30.6297 18.304 30.2537 18.12 29.9977 17.856C29.7417 17.592 29.6137 17.256 29.6137 16.848C29.6137 16.48 29.7137 16.16 29.9137 15.888C30.1137 15.616 30.3937 15.408 30.7537 15.264C31.1137 15.112 31.5297 15.036 32.0017 15.036C32.3537 15.036 32.6857 15.08 32.9977 15.168C33.3097 15.256 33.5977 15.388 33.8617 15.564C33.9657 15.62 34.0337 15.696 34.0657 15.792C34.0977 15.88 34.1017 15.968 34.0777 16.056C34.0617 16.144 34.0217 16.224 33.9577 16.296C33.8937 16.36 33.8137 16.4 33.7177 16.416C33.6297 16.424 33.5297 16.4 33.4177 16.344C33.1777 16.192 32.9377 16.084 32.6977 16.02C32.4657 15.956 32.2337 15.924 32.0017 15.924C31.5777 15.924 31.2577 16.004 31.0417 16.164C30.8337 16.316 30.7297 16.524 30.7297 16.788C30.7297 16.988 30.7937 17.152 30.9217 17.28C31.0497 17.408 31.2497 17.5 31.5217 17.556L32.6617 17.784C33.1817 17.888 33.5737 18.064 33.8377 18.312C34.1097 18.56 34.2457 18.896 34.2457 19.32C34.2457 19.872 34.0257 20.308 33.5857 20.628C33.1457 20.948 32.5617 21.108 31.8337 21.108ZM37.4662 21.108C37.0582 21.108 36.6902 21.028 36.3622 20.868C36.0422 20.708 35.7902 20.492 35.6062 20.22C35.4222 19.948 35.3302 19.64 35.3302 19.296C35.3302 18.864 35.4382 18.524 35.6542 18.276C35.8782 18.02 36.2422 17.84 36.7462 17.736C37.2582 17.624 37.9462 17.568 38.8102 17.568H39.3742V18.312H38.8222C38.2462 18.312 37.7902 18.34 37.4542 18.396C37.1182 18.452 36.8782 18.548 36.7342 18.684C36.5982 18.812 36.5302 18.992 36.5302 19.224C36.5302 19.528 36.6342 19.776 36.8422 19.968C37.0502 20.152 37.3382 20.244 37.7062 20.244C38.0022 20.244 38.2622 20.176 38.4862 20.04C38.7102 19.896 38.8862 19.704 39.0142 19.464C39.1502 19.224 39.2182 18.948 39.2182 18.636V17.256C39.2182 16.8 39.1222 16.472 38.9302 16.272C38.7382 16.072 38.4222 15.972 37.9822 15.972C37.7262 15.972 37.4582 16.004 37.1782 16.068C36.9062 16.132 36.6222 16.24 36.3262 16.392C36.1902 16.456 36.0742 16.476 35.9782 16.452C35.8822 16.428 35.8062 16.376 35.7502 16.296C35.6942 16.208 35.6622 16.116 35.6542 16.02C35.6542 15.916 35.6782 15.816 35.7262 15.72C35.7822 15.624 35.8742 15.552 36.0022 15.504C36.3542 15.336 36.7022 15.216 37.0462 15.144C37.3902 15.072 37.7142 15.036 38.0182 15.036C38.5542 15.036 38.9942 15.12 39.3382 15.288C39.6902 15.456 39.9502 15.712 40.1182 16.056C40.2862 16.4 40.3702 16.844 40.3702 17.388V20.472C40.3702 20.664 40.3222 20.816 40.2262 20.928C40.1302 21.032 39.9902 21.084 39.8062 21.084C39.6302 21.084 39.4902 21.032 39.3862 20.928C39.2822 20.816 39.2302 20.664 39.2302 20.472V19.692H39.3382C39.2742 19.988 39.1542 20.244 38.9782 20.46C38.8102 20.668 38.5982 20.828 38.3422 20.94C38.0862 21.052 37.7942 21.108 37.4662 21.108ZM45.1835 21.108C44.6715 21.108 44.2275 20.98 43.8515 20.724C43.4755 20.46 43.2235 20.112 43.0955 19.68L43.2275 19.464V20.472C43.2275 20.664 43.1755 20.816 43.0715 20.928C42.9675 21.032 42.8235 21.084 42.6395 21.084C42.4475 21.084 42.2995 21.032 42.1955 20.928C42.0915 20.816 42.0395 20.664 42.0395 20.472V13.068C42.0395 12.868 42.0915 12.716 42.1955 12.612C42.2995 12.508 42.4475 12.456 42.6395 12.456C42.8315 12.456 42.9795 12.508 43.0835 12.612C43.1955 12.716 43.2515 12.868 43.2515 13.068V16.428H43.1075C43.2355 16.004 43.4875 15.668 43.8635 15.42C44.2395 15.164 44.6795 15.036 45.1835 15.036C45.7115 15.036 46.1675 15.16 46.5515 15.408C46.9355 15.656 47.2315 16.004 47.4395 16.452C47.6555 16.9 47.7635 17.44 47.7635 18.072C47.7635 18.688 47.6555 19.228 47.4395 19.692C47.2315 20.148 46.9315 20.5 46.5395 20.748C46.1555 20.988 45.7035 21.108 45.1835 21.108ZM44.8835 20.172C45.2195 20.172 45.5115 20.092 45.7595 19.932C46.0075 19.772 46.1995 19.536 46.3355 19.224C46.4715 18.912 46.5395 18.528 46.5395 18.072C46.5395 17.384 46.3875 16.864 46.0835 16.512C45.7875 16.16 45.3875 15.984 44.8835 15.984C44.5555 15.984 44.2635 16.064 44.0075 16.224C43.7595 16.376 43.5675 16.608 43.4315 16.92C43.2955 17.232 43.2275 17.616 43.2275 18.072C43.2275 18.752 43.3795 19.272 43.6835 19.632C43.9875 19.992 44.3875 20.172 44.8835 20.172ZM51.0133 21.108C50.3893 21.108 49.9173 20.928 49.5973 20.568C49.2853 20.2 49.1293 19.672 49.1293 18.984V13.068C49.1293 12.868 49.1813 12.716 49.2853 12.612C49.3893 12.508 49.5373 12.456 49.7293 12.456C49.9213 12.456 50.0693 12.508 50.1733 12.612C50.2853 12.716 50.3413 12.868 50.3413 13.068V18.912C50.3413 19.312 50.4213 19.612 50.5813 19.812C50.7493 20.004 50.9893 20.1 51.3013 20.1C51.3733 20.1 51.4373 20.1 51.4933 20.1C51.5493 20.092 51.6053 20.084 51.6613 20.076C51.7573 20.068 51.8253 20.096 51.8653 20.16C51.9053 20.216 51.9253 20.336 51.9253 20.52C51.9253 20.688 51.8893 20.82 51.8173 20.916C51.7453 21.004 51.6293 21.06 51.4693 21.084C51.3973 21.092 51.3213 21.096 51.2413 21.096C51.1613 21.104 51.0853 21.108 51.0133 21.108ZM55.4867 21.108C54.8467 21.108 54.2947 20.988 53.8307 20.748C53.3747 20.5 53.0187 20.152 52.7627 19.704C52.5147 19.248 52.3907 18.708 52.3907 18.084C52.3907 17.476 52.5147 16.944 52.7627 16.488C53.0107 16.032 53.3507 15.676 53.7827 15.42C54.2147 15.164 54.7067 15.036 55.2587 15.036C55.6667 15.036 56.0307 15.104 56.3507 15.24C56.6707 15.368 56.9427 15.56 57.1667 15.816C57.3987 16.064 57.5707 16.368 57.6827 16.728C57.8027 17.088 57.8627 17.492 57.8627 17.94C57.8627 18.076 57.8227 18.18 57.7427 18.252C57.6627 18.316 57.5427 18.348 57.3827 18.348H53.3507V17.604H57.0467L56.8427 17.772C56.8427 17.372 56.7827 17.032 56.6627 16.752C56.5507 16.472 56.3787 16.26 56.1467 16.116C55.9227 15.964 55.6427 15.888 55.3067 15.888C54.9307 15.888 54.6107 15.976 54.3467 16.152C54.0907 16.328 53.8947 16.572 53.7587 16.884C53.6227 17.196 53.5547 17.56 53.5547 17.976V18.048C53.5547 18.752 53.7187 19.284 54.0467 19.644C54.3827 19.996 54.8667 20.172 55.4987 20.172C55.7387 20.172 55.9907 20.14 56.2547 20.076C56.5267 20.012 56.7827 19.904 57.0227 19.752C57.1587 19.672 57.2787 19.636 57.3827 19.644C57.4947 19.652 57.5827 19.688 57.6467 19.752C57.7187 19.816 57.7627 19.896 57.7787 19.992C57.7947 20.088 57.7787 20.188 57.7307 20.292C57.6827 20.388 57.5987 20.476 57.4787 20.556C57.2067 20.74 56.8907 20.88 56.5307 20.976C56.1707 21.064 55.8227 21.108 55.4867 21.108Z" fill="white"/>
<path d="M69.3708 20.1701C69.7491 20.5803 70.3623 20.5803 70.7406 20.1701L75.2163 15.3156C75.5946 14.9054 75.5946 14.2402 75.2163 13.83C74.8381 13.4198 74.2248 13.4198 73.8466 13.83L69.3708 18.6844C68.9926 19.0947 68.9926 19.7598 69.3708 20.1701Z" fill="white"/>
<path d="M70.6703 20.1923C71.0485 19.7821 71.0485 19.1169 70.6703 18.7067L66.1534 13.8077C65.7752 13.3974 65.1619 13.3974 64.7837 13.8077C64.4054 14.2179 64.4054 14.8831 64.7837 15.2933L69.3005 20.1923C69.6788 20.6026 70.292 20.6026 70.6703 20.1923Z" fill="white"/>
<rect x="118.5" y="0.5" width="47" height="31" rx="15.5" fill="#E8EAEF"/>
<rect x="118.5" y="0.5" width="47" height="31" rx="15.5" stroke="url(#paint2_linear_515_1483)"/>
<g clip-path="url(#clip1_515_1483)">
<path d="M142 9C140.616 9 139.262 9.41054 138.111 10.1797C136.96 10.9489 136.063 12.0421 135.533 13.3212C135.003 14.6003 134.864 16.0078 135.135 17.3656C135.405 18.7235 136.071 19.9708 137.05 20.9497C138.029 21.9287 139.277 22.5954 140.634 22.8655C141.992 23.1356 143.4 22.997 144.679 22.4672C145.958 21.9373 147.051 21.0401 147.82 19.889C148.589 18.7378 149 17.3845 149 16C148.998 14.1441 148.26 12.3648 146.948 11.0524C145.635 9.74011 143.856 9.00198 142 9ZM142 10.75C143.089 10.7517 144.149 11.0945 145.033 11.7302L137.73 19.0324C137.168 18.2491 136.834 17.3259 136.764 16.3648C136.694 15.4036 136.89 14.4418 137.332 13.5852C137.774 12.7287 138.443 12.0107 139.267 11.5104C140.09 11.0101 141.036 10.747 142 10.75ZM142 21.25C140.911 21.2483 139.851 20.9055 138.967 20.2698L146.27 12.9676C146.832 13.7509 147.166 14.6741 147.236 15.6352C147.306 16.5964 147.11 17.5582 146.668 18.4148C146.226 19.2713 145.557 19.9893 144.733 20.4896C143.91 20.9899 142.964 21.253 142 21.25Z" fill="white"/>
</g>
<rect x="141.5" y="105.5" width="31" height="31" rx="15.5" fill="#E8EAEF"/>
<rect x="141.5" y="105.5" width="31" height="31" rx="15.5" stroke="url(#paint3_linear_515_1483)"/>
<g clip-path="url(#clip2_515_1483)">
<path d="M157 114C155.616 114 154.262 114.411 153.111 115.18C151.96 115.949 151.063 117.042 150.533 118.321C150.003 119.6 149.864 121.008 150.135 122.366C150.405 123.723 151.071 124.971 152.05 125.95C153.029 126.929 154.277 127.595 155.634 127.865C156.992 128.136 158.4 127.997 159.679 127.467C160.958 126.937 162.051 126.04 162.82 124.889C163.589 123.738 164 122.384 164 121C163.998 119.144 163.26 117.365 161.948 116.052C160.635 114.74 158.856 114.002 157 114ZM157 115.75C158.089 115.752 159.149 116.094 160.033 116.73L152.73 124.032C152.168 123.249 151.834 122.326 151.764 121.365C151.694 120.404 151.89 119.442 152.332 118.585C152.774 117.729 153.443 117.011 154.267 116.51C155.09 116.01 156.036 115.747 157 115.75ZM157 126.25C155.911 126.248 154.851 125.906 153.967 125.27L161.27 117.968C161.832 118.751 162.166 119.674 162.236 120.635C162.306 121.596 162.11 122.558 161.668 123.415C161.226 124.271 160.557 124.989 159.733 125.49C158.91 125.99 157.964 126.253 157 126.25Z" fill="white"/>
</g>
<rect x="1" y="104" width="91" height="32" rx="16" fill="#E8EAEF" fill-opacity="0.5"/>
<rect x="0.5" y="103.5" width="92" height="33" rx="16.5" stroke="url(#paint4_linear_515_1483)" stroke-opacity="0.15"/>
<g clip-path="url(#clip3_515_1483)">
<path d="M23 114C21.8133 114 20.6533 114.352 19.6666 115.011C18.6799 115.67 17.9109 116.608 17.4567 117.704C17.0026 118.8 16.8838 120.007 17.1153 121.171C17.3468 122.334 17.9182 123.404 18.7574 124.243C19.5965 125.082 20.6656 125.653 21.8295 125.885C22.9933 126.116 24.1997 125.997 25.2961 125.543C26.3925 125.089 27.3295 124.32 27.9888 123.333C28.6481 122.347 29 121.187 29 120C28.9983 118.409 28.3656 116.884 27.2408 115.759C26.1159 114.634 24.5908 114.002 23 114ZM23 115.5C23.9332 115.501 24.8424 115.795 25.5999 116.34L19.3396 122.599C18.8585 121.928 18.572 121.137 18.5119 120.313C18.4517 119.489 18.6202 118.664 18.9988 117.93C19.3773 117.196 19.9512 116.581 20.6573 116.152C21.3633 115.723 22.174 115.497 23 115.5ZM23 124.5C22.0668 124.499 21.1576 124.205 20.4001 123.66L26.6604 117.401C27.1415 118.072 27.428 118.863 27.4881 119.687C27.5483 120.511 27.3798 121.336 27.0012 122.07C26.6227 122.804 26.0488 123.419 25.3427 123.848C24.6367 124.277 23.826 124.503 23 124.5Z" fill="#E8EAEF"/>
</g>
<path d="M35.656 124C35.44 124 35.272 123.944 35.152 123.832C35.04 123.712 34.984 123.544 34.984 123.328V116.212C34.984 115.996 35.04 115.832 35.152 115.72C35.272 115.6 35.44 115.54 35.656 115.54H37.972C39.364 115.54 40.436 115.904 41.188 116.632C41.948 117.352 42.328 118.396 42.328 119.764C42.328 120.444 42.232 121.048 42.04 121.576C41.848 122.104 41.564 122.548 41.188 122.908C40.82 123.26 40.368 123.532 39.832 123.724C39.296 123.908 38.676 124 37.972 124H35.656ZM36.232 122.956H37.9C38.428 122.956 38.884 122.892 39.268 122.764C39.66 122.628 39.988 122.428 40.252 122.164C40.516 121.9 40.712 121.568 40.84 121.168C40.968 120.768 41.032 120.3 41.032 119.764C41.032 118.7 40.768 117.904 40.24 117.376C39.72 116.848 38.94 116.584 37.9 116.584H36.232V122.956ZM44.4637 124.072C44.2717 124.072 44.1237 124.016 44.0197 123.904C43.9157 123.784 43.8637 123.62 43.8637 123.412V118.732C43.8637 118.524 43.9157 118.364 44.0197 118.252C44.1237 118.14 44.2717 118.084 44.4637 118.084C44.6557 118.084 44.8037 118.14 44.9077 118.252C45.0197 118.364 45.0757 118.524 45.0757 118.732V123.412C45.0757 123.62 45.0237 123.784 44.9197 123.904C44.8157 124.016 44.6637 124.072 44.4637 124.072ZM44.4637 116.836C44.2237 116.836 44.0357 116.776 43.8997 116.656C43.7717 116.536 43.7077 116.368 43.7077 116.152C43.7077 115.928 43.7717 115.76 43.8997 115.648C44.0357 115.528 44.2237 115.468 44.4637 115.468C44.7037 115.468 44.8877 115.528 45.0157 115.648C45.1517 115.76 45.2197 115.928 45.2197 116.152C45.2197 116.368 45.1517 116.536 45.0157 116.656C44.8877 116.776 44.7037 116.836 44.4637 116.836ZM48.8337 124.108C48.4817 124.108 48.1177 124.068 47.7417 123.988C47.3737 123.908 47.0337 123.772 46.7217 123.58C46.6177 123.508 46.5457 123.428 46.5057 123.34C46.4657 123.252 46.4497 123.164 46.4577 123.076C46.4737 122.98 46.5097 122.9 46.5657 122.836C46.6297 122.764 46.7057 122.72 46.7937 122.704C46.8897 122.688 46.9897 122.708 47.0937 122.764C47.4057 122.94 47.7057 123.064 47.9937 123.136C48.2817 123.2 48.5657 123.232 48.8457 123.232C49.2697 123.232 49.5897 123.156 49.8057 123.004C50.0217 122.852 50.1297 122.648 50.1297 122.392C50.1297 122.184 50.0577 122.024 49.9137 121.912C49.7697 121.792 49.5537 121.7 49.2657 121.636L48.1257 121.408C47.6297 121.304 47.2537 121.12 46.9977 120.856C46.7417 120.592 46.6137 120.256 46.6137 119.848C46.6137 119.48 46.7137 119.16 46.9137 118.888C47.1137 118.616 47.3937 118.408 47.7537 118.264C48.1137 118.112 48.5297 118.036 49.0017 118.036C49.3537 118.036 49.6857 118.08 49.9977 118.168C50.3097 118.256 50.5977 118.388 50.8617 118.564C50.9657 118.62 51.0337 118.696 51.0657 118.792C51.0977 118.88 51.1017 118.968 51.0777 119.056C51.0617 119.144 51.0217 119.224 50.9577 119.296C50.8937 119.36 50.8137 119.4 50.7177 119.416C50.6297 119.424 50.5297 119.4 50.4177 119.344C50.1777 119.192 49.9377 119.084 49.6977 119.02C49.4657 118.956 49.2337 118.924 49.0017 118.924C48.5777 118.924 48.2577 119.004 48.0417 119.164C47.8337 119.316 47.7297 119.524 47.7297 119.788C47.7297 119.988 47.7937 120.152 47.9217 120.28C48.0497 120.408 48.2497 120.5 48.5217 120.556L49.6617 120.784C50.1817 120.888 50.5737 121.064 50.8377 121.312C51.1097 121.56 51.2457 121.896 51.2457 122.32C51.2457 122.872 51.0257 123.308 50.5857 123.628C50.1457 123.948 49.5617 124.108 48.8337 124.108ZM54.4662 124.108C54.0582 124.108 53.6902 124.028 53.3622 123.868C53.0422 123.708 52.7902 123.492 52.6062 123.22C52.4222 122.948 52.3302 122.64 52.3302 122.296C52.3302 121.864 52.4382 121.524 52.6542 121.276C52.8782 121.02 53.2422 120.84 53.7462 120.736C54.2582 120.624 54.9462 120.568 55.8102 120.568H56.3742V121.312H55.8222C55.2462 121.312 54.7902 121.34 54.4542 121.396C54.1182 121.452 53.8782 121.548 53.7342 121.684C53.5982 121.812 53.5302 121.992 53.5302 122.224C53.5302 122.528 53.6342 122.776 53.8422 122.968C54.0502 123.152 54.3382 123.244 54.7062 123.244C55.0022 123.244 55.2622 123.176 55.4862 123.04C55.7102 122.896 55.8862 122.704 56.0142 122.464C56.1502 122.224 56.2182 121.948 56.2182 121.636V120.256C56.2182 119.8 56.1222 119.472 55.9302 119.272C55.7382 119.072 55.4222 118.972 54.9822 118.972C54.7262 118.972 54.4582 119.004 54.1782 119.068C53.9062 119.132 53.6222 119.24 53.3262 119.392C53.1902 119.456 53.0742 119.476 52.9782 119.452C52.8822 119.428 52.8062 119.376 52.7502 119.296C52.6942 119.208 52.6622 119.116 52.6542 119.02C52.6542 118.916 52.6782 118.816 52.7262 118.72C52.7822 118.624 52.8742 118.552 53.0022 118.504C53.3542 118.336 53.7022 118.216 54.0462 118.144C54.3902 118.072 54.7142 118.036 55.0182 118.036C55.5542 118.036 55.9942 118.12 56.3382 118.288C56.6902 118.456 56.9502 118.712 57.1182 119.056C57.2862 119.4 57.3702 119.844 57.3702 120.388V123.472C57.3702 123.664 57.3222 123.816 57.2262 123.928C57.1302 124.032 56.9902 124.084 56.8062 124.084C56.6302 124.084 56.4902 124.032 56.3862 123.928C56.2822 123.816 56.2302 123.664 56.2302 123.472V122.692H56.3382C56.2742 122.988 56.1542 123.244 55.9782 123.46C55.8102 123.668 55.5982 123.828 55.3422 123.94C55.0862 124.052 54.7942 124.108 54.4662 124.108ZM62.1835 124.108C61.6715 124.108 61.2275 123.98 60.8515 123.724C60.4755 123.46 60.2235 123.112 60.0955 122.68L60.2275 122.464V123.472C60.2275 123.664 60.1755 123.816 60.0715 123.928C59.9675 124.032 59.8235 124.084 59.6395 124.084C59.4475 124.084 59.2995 124.032 59.1955 123.928C59.0915 123.816 59.0395 123.664 59.0395 123.472V116.068C59.0395 115.868 59.0915 115.716 59.1955 115.612C59.2995 115.508 59.4475 115.456 59.6395 115.456C59.8315 115.456 59.9795 115.508 60.0835 115.612C60.1955 115.716 60.2515 115.868 60.2515 116.068V119.428H60.1075C60.2355 119.004 60.4875 118.668 60.8635 118.42C61.2395 118.164 61.6795 118.036 62.1835 118.036C62.7115 118.036 63.1675 118.16 63.5515 118.408C63.9355 118.656 64.2315 119.004 64.4395 119.452C64.6555 119.9 64.7635 120.44 64.7635 121.072C64.7635 121.688 64.6555 122.228 64.4395 122.692C64.2315 123.148 63.9315 123.5 63.5395 123.748C63.1555 123.988 62.7035 124.108 62.1835 124.108ZM61.8835 123.172C62.2195 123.172 62.5115 123.092 62.7595 122.932C63.0075 122.772 63.1995 122.536 63.3355 122.224C63.4715 121.912 63.5395 121.528 63.5395 121.072C63.5395 120.384 63.3875 119.864 63.0835 119.512C62.7875 119.16 62.3875 118.984 61.8835 118.984C61.5555 118.984 61.2635 119.064 61.0075 119.224C60.7595 119.376 60.5675 119.608 60.4315 119.92C60.2955 120.232 60.2275 120.616 60.2275 121.072C60.2275 121.752 60.3795 122.272 60.6835 122.632C60.9875 122.992 61.3875 123.172 61.8835 123.172ZM68.0133 124.108C67.3893 124.108 66.9173 123.928 66.5973 123.568C66.2853 123.2 66.1293 122.672 66.1293 121.984V116.068C66.1293 115.868 66.1813 115.716 66.2853 115.612C66.3893 115.508 66.5373 115.456 66.7293 115.456C66.9213 115.456 67.0693 115.508 67.1733 115.612C67.2853 115.716 67.3413 115.868 67.3413 116.068V121.912C67.3413 122.312 67.4213 122.612 67.5813 122.812C67.7493 123.004 67.9893 123.1 68.3013 123.1C68.3733 123.1 68.4373 123.1 68.4933 123.1C68.5493 123.092 68.6053 123.084 68.6613 123.076C68.7573 123.068 68.8253 123.096 68.8653 123.16C68.9053 123.216 68.9253 123.336 68.9253 123.52C68.9253 123.688 68.8893 123.82 68.8173 123.916C68.7453 124.004 68.6293 124.06 68.4693 124.084C68.3973 124.092 68.3213 124.096 68.2413 124.096C68.1613 124.104 68.0853 124.108 68.0133 124.108ZM72.4867 124.108C71.8467 124.108 71.2947 123.988 70.8307 123.748C70.3747 123.5 70.0187 123.152 69.7627 122.704C69.5147 122.248 69.3907 121.708 69.3907 121.084C69.3907 120.476 69.5147 119.944 69.7627 119.488C70.0107 119.032 70.3507 118.676 70.7827 118.42C71.2147 118.164 71.7067 118.036 72.2587 118.036C72.6667 118.036 73.0307 118.104 73.3507 118.24C73.6707 118.368 73.9427 118.56 74.1667 118.816C74.3987 119.064 74.5707 119.368 74.6827 119.728C74.8027 120.088 74.8627 120.492 74.8627 120.94C74.8627 121.076 74.8227 121.18 74.7427 121.252C74.6627 121.316 74.5427 121.348 74.3827 121.348H70.3507V120.604H74.0467L73.8427 120.772C73.8427 120.372 73.7827 120.032 73.6627 119.752C73.5507 119.472 73.3787 119.26 73.1467 119.116C72.9227 118.964 72.6427 118.888 72.3067 118.888C71.9307 118.888 71.6107 118.976 71.3467 119.152C71.0907 119.328 70.8947 119.572 70.7587 119.884C70.6227 120.196 70.5547 120.56 70.5547 120.976V121.048C70.5547 121.752 70.7187 122.284 71.0467 122.644C71.3827 122.996 71.8667 123.172 72.4987 123.172C72.7387 123.172 72.9907 123.14 73.2547 123.076C73.5267 123.012 73.7827 122.904 74.0227 122.752C74.1587 122.672 74.2787 122.636 74.3827 122.644C74.4947 122.652 74.5827 122.688 74.6467 122.752C74.7187 122.816 74.7627 122.896 74.7787 122.992C74.7947 123.088 74.7787 123.188 74.7307 123.292C74.6827 123.388 74.5987 123.476 74.4787 123.556C74.2067 123.74 73.8907 123.88 73.5307 123.976C73.1707 124.064 72.8227 124.108 72.4867 124.108Z" fill="#E8EAEF"/>
<rect x="118" y="54" width="46" height="30" rx="15" fill="#E8EAEF" fill-opacity="0.15"/>
<rect x="117.5" y="53.5" width="47" height="31" rx="15.5" stroke="url(#paint5_linear_515_1483)" stroke-opacity="0.15"/>
<g clip-path="url(#clip4_515_1483)">
<path d="M141 62C139.616 62 138.262 62.4105 137.111 63.1797C135.96 63.9489 135.063 65.0421 134.533 66.3212C134.003 67.6003 133.864 69.0078 134.135 70.3656C134.405 71.7235 135.071 72.9708 136.05 73.9497C137.029 74.9287 138.277 75.5954 139.634 75.8655C140.992 76.1356 142.4 75.997 143.679 75.4672C144.958 74.9373 146.051 74.0401 146.82 72.889C147.589 71.7378 148 70.3845 148 69C147.998 67.1441 147.26 65.3648 145.948 64.0524C144.635 62.7401 142.856 62.002 141 62ZM141 63.75C142.089 63.7517 143.149 64.0945 144.033 64.7302L136.73 72.0324C136.168 71.2491 135.834 70.3259 135.764 69.3648C135.694 68.4036 135.89 67.4418 136.332 66.5852C136.774 65.7287 137.443 65.0107 138.267 64.5104C139.09 64.0101 140.036 63.747 141 63.75ZM141 74.25C139.911 74.2483 138.851 73.9055 137.967 73.2698L145.27 65.9676C145.832 66.7509 146.166 67.6741 146.236 68.6352C146.306 69.5964 146.11 70.5582 145.668 71.4148C145.226 72.2713 144.557 72.9893 143.733 73.4896C142.91 73.9899 141.964 74.253 141 74.25Z" fill="#E8EAEF"/>
</g>
<rect x="108" y="106" width="30" height="30" rx="15" fill="#E8EAEF" fill-opacity="0.5"/>
<rect x="107.5" y="105.5" width="31" height="31" rx="15.5" stroke="url(#paint6_linear_515_1483)" stroke-opacity="0.15"/>
<g clip-path="url(#clip5_515_1483)">
<path d="M123 114C121.616 114 120.262 114.411 119.111 115.18C117.96 115.949 117.063 117.042 116.533 118.321C116.003 119.6 115.864 121.008 116.135 122.366C116.405 123.723 117.071 124.971 118.05 125.95C119.029 126.929 120.277 127.595 121.634 127.865C122.992 128.136 124.4 127.997 125.679 127.467C126.958 126.937 128.051 126.04 128.82 124.889C129.589 123.738 130 122.384 130 121C129.998 119.144 129.26 117.365 127.948 116.052C126.635 114.74 124.856 114.002 123 114ZM123 115.75C124.089 115.752 125.149 116.094 126.033 116.73L118.73 124.032C118.168 123.249 117.834 122.326 117.764 121.365C117.694 120.404 117.89 119.442 118.332 118.585C118.774 117.729 119.443 117.011 120.267 116.51C121.09 116.01 122.036 115.747 123 115.75ZM123 126.25C121.911 126.248 120.851 125.906 119.967 125.27L127.27 117.968C127.832 118.751 128.166 119.674 128.236 120.635C128.306 121.596 128.11 122.558 127.668 123.415C127.226 124.271 126.557 124.989 125.733 125.49C124.91 125.99 123.964 126.253 123 126.25Z" fill="#E8EAEF"/>
</g>
<defs>
<linearGradient id="paint0_linear_515_1483" x1="53.9526" y1="53" x2="53.9526" y2="85" gradientUnits="userSpaceOnUse">
<stop stop-color="#E8EAEF" stop-opacity="0.75"/>
<stop offset="1" stop-color="#E2E4E9"/>
</linearGradient>
<linearGradient id="paint1_linear_515_1483" x1="53.9526" y1="1" x2="53.9526" y2="33" gradientUnits="userSpaceOnUse">
<stop stop-color="#E8EAEF" stop-opacity="0.75"/>
<stop offset="1" stop-color="#E2E4E9"/>
</linearGradient>
<linearGradient id="paint2_linear_515_1483" x1="145.767" y1="1" x2="145.767" y2="31" gradientUnits="userSpaceOnUse">
<stop stop-color="#E8EAEF" stop-opacity="0.75"/>
<stop offset="1" stop-color="#E8EAEF"/>
</linearGradient>
<linearGradient id="paint3_linear_515_1483" x1="159.457" y1="106" x2="159.457" y2="136" gradientUnits="userSpaceOnUse">
<stop stop-color="#E8EAEF" stop-opacity="0.75"/>
<stop offset="1" stop-color="#E8EAEF"/>
</linearGradient>
<linearGradient id="paint4_linear_515_1483" x1="53.9526" y1="104" x2="53.9526" y2="136" gradientUnits="userSpaceOnUse">
<stop stop-color="#E8EAEF" stop-opacity="0.75"/>
<stop offset="1" stop-color="#E8EAEF"/>
</linearGradient>
<linearGradient id="paint5_linear_515_1483" x1="144.767" y1="54" x2="144.767" y2="84" gradientUnits="userSpaceOnUse">
<stop stop-color="#E8EAEF" stop-opacity="0.75"/>
<stop offset="1" stop-color="#E8EAEF"/>
</linearGradient>
<linearGradient id="paint6_linear_515_1483" x1="125.457" y1="106" x2="125.457" y2="136" gradientUnits="userSpaceOnUse">
<stop stop-color="#E8EAEF" stop-opacity="0.75"/>
<stop offset="1" stop-color="#E8EAEF"/>
</linearGradient>
<clipPath id="clip0_515_1483">
<rect width="12" height="12" fill="white" transform="translate(17 63)"/>
</clipPath>
<clipPath id="clip1_515_1483">
<rect width="14" height="14" fill="white" transform="translate(135 9)"/>
</clipPath>
<clipPath id="clip2_515_1483">
<rect width="14" height="14" fill="white" transform="translate(150 114)"/>
</clipPath>
<clipPath id="clip3_515_1483">
<rect width="12" height="12" fill="white" transform="translate(17 114)"/>
</clipPath>
<clipPath id="clip4_515_1483">
<rect width="14" height="14" fill="white" transform="translate(134 62)"/>
</clipPath>
<clipPath id="clip5_515_1483">
<rect width="14" height="14" fill="white" transform="translate(116 114)"/>
</clipPath>
</defs>
</svg>
