<svg width="103" height="45" viewBox="0 0 103 45" fill="none" xmlns="http://www.w3.org/2000/svg">
<rect x="0.5" y="0.5" width="102" height="44" rx="22" fill="#011627"/>
<rect x="0.5" y="0.5" width="102" height="44" rx="22" stroke="url(#paint0_linear_492_631)"/>
<path d="M34.89 27C34.6567 27 34.4747 26.9347 34.344 26.804C34.2133 26.6733 34.148 26.4913 34.148 26.258V17.816C34.148 17.5733 34.2087 17.3913 34.33 17.27C34.4607 17.1393 34.6427 17.074 34.876 17.074C35.1093 17.074 35.2867 17.1393 35.408 17.27C35.5387 17.3913 35.604 17.5733 35.604 17.816V25.754H39.944C40.1493 25.754 40.308 25.81 40.42 25.922C40.532 26.0247 40.588 26.174 40.588 26.37C40.588 26.566 40.532 26.72 40.42 26.832C40.308 26.944 40.1493 27 39.944 27H34.89ZM43.9026 27.126C43.4266 27.126 42.9973 27.0327 42.6146 26.846C42.2413 26.6593 41.9473 26.4073 41.7326 26.09C41.5179 25.7727 41.4106 25.4133 41.4106 25.012C41.4106 24.508 41.5366 24.1113 41.7886 23.822C42.0499 23.5233 42.4746 23.3133 43.0626 23.192C43.6599 23.0613 44.4626 22.996 45.4706 22.996H46.1286V23.864H45.4846C44.8126 23.864 44.2806 23.8967 43.8886 23.962C43.4966 24.0273 43.2166 24.1393 43.0486 24.298C42.8899 24.4473 42.8106 24.6573 42.8106 24.928C42.8106 25.2827 42.9319 25.572 43.1746 25.796C43.4173 26.0107 43.7533 26.118 44.1826 26.118C44.5279 26.118 44.8313 26.0387 45.0926 25.88C45.3539 25.712 45.5593 25.488 45.7086 25.208C45.8673 24.928 45.9466 24.606 45.9466 24.242V22.632C45.9466 22.1 45.8346 21.7173 45.6106 21.484C45.3866 21.2507 45.0179 21.134 44.5046 21.134C44.2059 21.134 43.8933 21.1713 43.5666 21.246C43.2493 21.3207 42.9179 21.4467 42.5726 21.624C42.4139 21.6987 42.2786 21.722 42.1666 21.694C42.0546 21.666 41.9659 21.6053 41.9006 21.512C41.8353 21.4093 41.7979 21.302 41.7886 21.19C41.7886 21.0687 41.8166 20.952 41.8726 20.84C41.9379 20.728 42.0453 20.644 42.1946 20.588C42.6053 20.392 43.0113 20.252 43.4126 20.168C43.8139 20.084 44.1919 20.042 44.5466 20.042C45.1719 20.042 45.6853 20.14 46.0866 20.336C46.4973 20.532 46.8006 20.8307 46.9966 21.232C47.1926 21.6333 47.2906 22.1513 47.2906 22.786V26.384C47.2906 26.608 47.2346 26.7853 47.1226 26.916C47.0106 27.0373 46.8473 27.098 46.6326 27.098C46.4273 27.098 46.2639 27.0373 46.1426 26.916C46.0213 26.7853 45.9606 26.608 45.9606 26.384V25.474H46.0866C46.0119 25.8193 45.8719 26.118 45.6666 26.37C45.4706 26.6127 45.2233 26.7993 44.9246 26.93C44.6259 27.0607 44.2853 27.126 43.9026 27.126ZM49.9521 27.098C49.7188 27.098 49.5415 27.0373 49.4201 26.916C49.2988 26.7853 49.2381 26.608 49.2381 26.384V20.784C49.2381 20.5507 49.2988 20.3733 49.4201 20.252C49.5415 20.1307 49.7095 20.07 49.9241 20.07C50.1481 20.07 50.3161 20.1307 50.4281 20.252C50.5495 20.3733 50.6101 20.5507 50.6101 20.784V21.806H50.4701C50.6195 21.246 50.8948 20.8213 51.2961 20.532C51.6975 20.2427 52.2108 20.0747 52.8361 20.028C53.0041 20.0187 53.1348 20.0607 53.2281 20.154C53.3308 20.2473 53.3868 20.392 53.3961 20.588C53.4148 20.784 53.3728 20.9427 53.2701 21.064C53.1675 21.176 53.0088 21.2413 52.7941 21.26L52.5281 21.288C51.9215 21.344 51.4595 21.5353 51.1421 21.862C50.8248 22.1887 50.6661 22.6367 50.6661 23.206V26.384C50.6661 26.608 50.6055 26.7853 50.4841 26.916C50.3721 27.0373 50.1948 27.098 49.9521 27.098ZM57.4591 29.646C56.9551 29.646 56.4651 29.5947 55.9891 29.492C55.5224 29.3893 55.0978 29.2213 54.7151 28.988C54.5751 28.9133 54.4818 28.82 54.4351 28.708C54.3884 28.6053 54.3744 28.498 54.3931 28.386C54.4211 28.274 54.4724 28.176 54.5471 28.092C54.6218 28.008 54.7104 27.952 54.8131 27.924C54.9251 27.896 55.0418 27.9147 55.1631 27.98C55.5738 28.204 55.9611 28.3533 56.3251 28.428C56.6984 28.512 57.0438 28.554 57.3611 28.554C58.0144 28.554 58.5044 28.386 58.8311 28.05C59.1578 27.7233 59.3211 27.238 59.3211 26.594V25.166H59.4471C59.3071 25.6793 59.0131 26.0853 58.5651 26.384C58.1171 26.6827 57.5991 26.832 57.0111 26.832C56.3951 26.832 55.8584 26.692 55.4011 26.412C54.9438 26.1227 54.5891 25.726 54.3371 25.222C54.0851 24.7087 53.9591 24.1113 53.9591 23.43C53.9591 22.9167 54.0291 22.4547 54.1691 22.044C54.3184 21.6333 54.5238 21.2787 54.7851 20.98C55.0558 20.6813 55.3778 20.4527 55.7511 20.294C56.1338 20.126 56.5538 20.042 57.0111 20.042C57.6084 20.042 58.1264 20.1913 58.5651 20.49C59.0131 20.7887 59.3024 21.1947 59.4331 21.708L59.2931 21.946V20.784C59.2931 20.5507 59.3538 20.3733 59.4751 20.252C59.6058 20.1307 59.7784 20.07 59.9931 20.07C60.2171 20.07 60.3898 20.1307 60.5111 20.252C60.6324 20.3733 60.6931 20.5507 60.6931 20.784V26.426C60.6931 27.49 60.4178 28.2927 59.8671 28.834C59.3164 29.3753 58.5138 29.646 57.4591 29.646ZM57.3471 25.726C57.7578 25.726 58.1078 25.6327 58.3971 25.446C58.6864 25.2593 58.9104 24.9933 59.0691 24.648C59.2278 24.3027 59.3071 23.8967 59.3071 23.43C59.3071 22.73 59.1298 22.1747 58.7751 21.764C58.4298 21.3533 57.9538 21.148 57.3471 21.148C56.9458 21.148 56.6004 21.2413 56.3111 21.428C56.0218 21.6147 55.7931 21.8807 55.6251 22.226C55.4664 22.562 55.3871 22.9633 55.3871 23.43C55.3871 24.1393 55.5644 24.6993 55.9191 25.11C56.2738 25.5207 56.7498 25.726 57.3471 25.726ZM65.8836 27.126C65.1369 27.126 64.4929 26.986 63.9516 26.706C63.4196 26.4167 63.0043 26.0107 62.7056 25.488C62.4163 24.956 62.2716 24.326 62.2716 23.598C62.2716 22.8887 62.4163 22.268 62.7056 21.736C62.9949 21.204 63.3916 20.7887 63.8956 20.49C64.3996 20.1913 64.9736 20.042 65.6176 20.042C66.0936 20.042 66.5183 20.1213 66.8916 20.28C67.2649 20.4293 67.5823 20.6533 67.8436 20.952C68.1143 21.2413 68.3149 21.596 68.4456 22.016C68.5856 22.436 68.6556 22.9073 68.6556 23.43C68.6556 23.5887 68.6089 23.71 68.5156 23.794C68.4223 23.8687 68.2823 23.906 68.0956 23.906H63.3916V23.038H67.7036L67.4656 23.234C67.4656 22.7673 67.3956 22.3707 67.2556 22.044C67.1249 21.7173 66.9243 21.47 66.6536 21.302C66.3923 21.1247 66.0656 21.036 65.6736 21.036C65.2349 21.036 64.8616 21.1387 64.5536 21.344C64.2549 21.5493 64.0263 21.834 63.8676 22.198C63.7089 22.562 63.6296 22.9867 63.6296 23.472V23.556C63.6296 24.3773 63.8209 24.998 64.2036 25.418C64.5956 25.8287 65.1603 26.034 65.8976 26.034C66.1776 26.034 66.4716 25.9967 66.7796 25.922C67.0969 25.8473 67.3956 25.7213 67.6756 25.544C67.8343 25.4507 67.9743 25.4087 68.0956 25.418C68.2263 25.4273 68.3289 25.4693 68.4036 25.544C68.4876 25.6187 68.5389 25.712 68.5576 25.824C68.5763 25.936 68.5576 26.0527 68.5016 26.174C68.4456 26.286 68.3476 26.3887 68.2076 26.482C67.8903 26.6967 67.5216 26.86 67.1016 26.972C66.6816 27.0747 66.2756 27.126 65.8836 27.126Z" fill="white"/>
<defs>
<linearGradient id="paint0_linear_492_631" x1="59.7716" y1="1" x2="59.7716" y2="44" gradientUnits="userSpaceOnUse">
<stop stop-color="#011627" stop-opacity="0.75"/>
<stop offset="1" stop-color="#000911"/>
</linearGradient>
</defs>
</svg>
