<svg width="79" height="34" viewBox="0 0 79 34" fill="none" xmlns="http://www.w3.org/2000/svg">
<rect x="0.5" y="0.5" width="78" height="33" rx="16.5" fill="#011627"/>
<rect x="0.5" y="0.5" width="78" height="33" rx="16.5" stroke="url(#paint0_linear_492_629)"/>
<path d="M18.584 21.084C18.4 21.084 18.256 21.032 18.152 20.928C18.056 20.824 18.008 20.68 18.008 20.496V13.044C18.008 12.852 18.06 12.708 18.164 12.612C18.268 12.508 18.408 12.456 18.584 12.456C18.752 12.456 18.88 12.488 18.968 12.552C19.064 12.608 19.152 12.712 19.232 12.864L22.376 18.732H22.004L25.136 12.864C25.216 12.712 25.3 12.608 25.388 12.552C25.476 12.488 25.604 12.456 25.772 12.456C25.948 12.456 26.084 12.508 26.18 12.612C26.276 12.708 26.324 12.852 26.324 13.044V20.496C26.324 20.68 26.276 20.824 26.18 20.928C26.092 21.032 25.956 21.084 25.772 21.084C25.588 21.084 25.448 21.032 25.352 20.928C25.256 20.824 25.208 20.68 25.208 20.496V14.304H25.472L22.688 19.452C22.624 19.572 22.556 19.66 22.484 19.716C22.412 19.772 22.312 19.8 22.184 19.8C22.056 19.8 21.952 19.772 21.872 19.716C21.792 19.652 21.72 19.564 21.656 19.452L18.848 14.292H19.136V20.496C19.136 20.68 19.088 20.824 18.992 20.928C18.904 21.032 18.768 21.084 18.584 21.084ZM30.9359 21.108C30.2959 21.108 29.7439 20.988 29.2799 20.748C28.8239 20.5 28.4679 20.152 28.2119 19.704C27.9639 19.248 27.8399 18.708 27.8399 18.084C27.8399 17.476 27.9639 16.944 28.2119 16.488C28.4599 16.032 28.7999 15.676 29.2319 15.42C29.6639 15.164 30.1559 15.036 30.7079 15.036C31.1159 15.036 31.4799 15.104 31.7999 15.24C32.1199 15.368 32.3919 15.56 32.6159 15.816C32.8479 16.064 33.0199 16.368 33.1319 16.728C33.2519 17.088 33.3119 17.492 33.3119 17.94C33.3119 18.076 33.2719 18.18 33.1919 18.252C33.1119 18.316 32.9919 18.348 32.8319 18.348H28.7999V17.604H32.4959L32.2919 17.772C32.2919 17.372 32.2319 17.032 32.1119 16.752C31.9999 16.472 31.8279 16.26 31.5959 16.116C31.3719 15.964 31.0919 15.888 30.7559 15.888C30.3799 15.888 30.0599 15.976 29.7959 16.152C29.5399 16.328 29.3439 16.572 29.2079 16.884C29.0719 17.196 29.0039 17.56 29.0039 17.976V18.048C29.0039 18.752 29.1679 19.284 29.4959 19.644C29.8319 19.996 30.3159 20.172 30.9479 20.172C31.1879 20.172 31.4399 20.14 31.7039 20.076C31.9759 20.012 32.2319 19.904 32.4719 19.752C32.6079 19.672 32.7279 19.636 32.8319 19.644C32.9439 19.652 33.0319 19.688 33.0959 19.752C33.1679 19.816 33.2119 19.896 33.2279 19.992C33.2439 20.088 33.2279 20.188 33.1799 20.292C33.1319 20.388 33.0479 20.476 32.9279 20.556C32.6559 20.74 32.3399 20.88 31.9799 20.976C31.6199 21.064 31.2719 21.108 30.9359 21.108ZM36.8652 21.108C36.3533 21.108 35.9013 20.988 35.5093 20.748C35.1253 20.5 34.8253 20.148 34.6093 19.692C34.3933 19.228 34.2853 18.688 34.2853 18.072C34.2853 17.44 34.3933 16.9 34.6093 16.452C34.8253 16.004 35.1253 15.656 35.5093 15.408C35.9013 15.16 36.3533 15.036 36.8652 15.036C37.3773 15.036 37.8173 15.164 38.1853 15.42C38.5613 15.668 38.8133 16.004 38.9413 16.428H38.8093V13.068C38.8093 12.868 38.8613 12.716 38.9653 12.612C39.0693 12.508 39.2173 12.456 39.4093 12.456C39.6013 12.456 39.7493 12.508 39.8533 12.612C39.9653 12.716 40.0213 12.868 40.0213 13.068V20.472C40.0213 20.664 39.9693 20.816 39.8653 20.928C39.7613 21.032 39.6133 21.084 39.4213 21.084C39.2293 21.084 39.0813 21.032 38.9773 20.928C38.8733 20.816 38.8213 20.664 38.8213 20.472V19.416L38.9533 19.68C38.8253 20.112 38.5733 20.46 38.1973 20.724C37.8293 20.98 37.3853 21.108 36.8652 21.108ZM37.1773 20.172C37.5053 20.172 37.7933 20.092 38.0413 19.932C38.2893 19.772 38.4813 19.536 38.6173 19.224C38.7613 18.912 38.8333 18.528 38.8333 18.072C38.8333 17.384 38.6813 16.864 38.3773 16.512C38.0733 16.16 37.6733 15.984 37.1773 15.984C36.8413 15.984 36.5493 16.064 36.3013 16.224C36.0533 16.376 35.8573 16.608 35.7133 16.92C35.5773 17.232 35.5093 17.616 35.5093 18.072C35.5093 18.752 35.6613 19.272 35.9653 19.632C36.2693 19.992 36.6733 20.172 37.1773 20.172ZM42.3231 21.072C42.1311 21.072 41.9831 21.016 41.8791 20.904C41.7751 20.784 41.7231 20.62 41.7231 20.412V15.732C41.7231 15.524 41.7751 15.364 41.8791 15.252C41.9831 15.14 42.1311 15.084 42.3231 15.084C42.5151 15.084 42.6631 15.14 42.7671 15.252C42.8791 15.364 42.9351 15.524 42.9351 15.732V20.412C42.9351 20.62 42.8831 20.784 42.7791 20.904C42.6751 21.016 42.5231 21.072 42.3231 21.072ZM42.3231 13.836C42.0831 13.836 41.8951 13.776 41.7591 13.656C41.6311 13.536 41.5671 13.368 41.5671 13.152C41.5671 12.928 41.6311 12.76 41.7591 12.648C41.8951 12.528 42.0831 12.468 42.3231 12.468C42.5631 12.468 42.7471 12.528 42.8751 12.648C43.0111 12.76 43.0791 12.928 43.0791 13.152C43.0791 13.368 43.0111 13.536 42.8751 13.656C42.7471 13.776 42.5631 13.836 42.3231 13.836ZM46.7291 21.108C46.2571 21.108 45.8611 21.02 45.5411 20.844C45.2291 20.668 44.9931 20.408 44.8331 20.064C44.6811 19.712 44.6051 19.272 44.6051 18.744V15.672C44.6051 15.464 44.6571 15.312 44.7611 15.216C44.8651 15.112 45.0131 15.06 45.2051 15.06C45.3971 15.06 45.5451 15.112 45.6491 15.216C45.7611 15.312 45.8171 15.464 45.8171 15.672V18.756C45.8171 19.228 45.9131 19.576 46.1051 19.8C46.2971 20.024 46.6011 20.136 47.0171 20.136C47.4731 20.136 47.8411 19.984 48.1211 19.68C48.4091 19.368 48.5531 18.96 48.5531 18.456V15.672C48.5531 15.464 48.6051 15.312 48.7091 15.216C48.8131 15.112 48.9651 15.06 49.1651 15.06C49.3571 15.06 49.5051 15.112 49.6091 15.216C49.7131 15.312 49.7651 15.464 49.7651 15.672V20.472C49.7651 20.88 49.5691 21.084 49.1771 21.084C48.9931 21.084 48.8491 21.032 48.7451 20.928C48.6411 20.816 48.5891 20.664 48.5891 20.472V19.452L48.7451 19.716C48.5851 20.164 48.3291 20.508 47.9771 20.748C47.6251 20.988 47.2091 21.108 46.7291 21.108ZM52.0971 21.084C51.9051 21.084 51.7571 21.032 51.6531 20.928C51.5491 20.816 51.4971 20.664 51.4971 20.472V15.672C51.4971 15.472 51.5491 15.32 51.6531 15.216C51.7571 15.112 51.9011 15.06 52.0851 15.06C52.2771 15.06 52.4211 15.112 52.5171 15.216C52.6211 15.32 52.6731 15.472 52.6731 15.672V16.656L52.5411 16.392C52.7011 15.968 52.9491 15.636 53.2851 15.396C53.6211 15.156 54.0251 15.036 54.4971 15.036C54.9851 15.036 55.3811 15.152 55.6851 15.384C55.9891 15.616 56.1971 15.972 56.3091 16.452H56.1411C56.2931 16.012 56.5531 15.668 56.9211 15.42C57.2891 15.164 57.7171 15.036 58.2051 15.036C58.6531 15.036 59.0211 15.124 59.3091 15.3C59.5971 15.468 59.8131 15.728 59.9571 16.08C60.1011 16.424 60.1731 16.86 60.1731 17.388V20.472C60.1731 20.664 60.1171 20.816 60.0051 20.928C59.9011 21.032 59.7531 21.084 59.5611 21.084C59.3691 21.084 59.2211 21.032 59.1171 20.928C59.0131 20.816 58.9611 20.664 58.9611 20.472V17.448C58.9611 16.952 58.8731 16.588 58.6971 16.356C58.5291 16.124 58.2491 16.008 57.8571 16.008C57.4171 16.008 57.0691 16.16 56.8131 16.464C56.5571 16.768 56.4291 17.188 56.4291 17.724V20.472C56.4291 20.664 56.3771 20.816 56.2731 20.928C56.1691 21.032 56.0211 21.084 55.8291 21.084C55.6371 21.084 55.4851 21.032 55.3731 20.928C55.2691 20.816 55.2171 20.664 55.2171 20.472V17.448C55.2171 16.952 55.1331 16.588 54.9651 16.356C54.7971 16.124 54.5171 16.008 54.1251 16.008C53.6851 16.008 53.3371 16.16 53.0811 16.464C52.8331 16.768 52.7091 17.188 52.7091 17.724V20.472C52.7091 20.88 52.5051 21.084 52.0971 21.084Z" fill="white"/>
<defs>
<linearGradient id="paint0_linear_492_629" x1="45.806" y1="1" x2="45.806" y2="33" gradientUnits="userSpaceOnUse">
<stop stop-color="#011627" stop-opacity="0.75"/>
<stop offset="1" stop-color="#000911"/>
</linearGradient>
</defs>
</svg>
