<svg width="54" height="26" viewBox="0 0 54 26" fill="none" xmlns="http://www.w3.org/2000/svg">
<rect x="0.5" y="0.5" width="53" height="25" rx="12.5" fill="#011627"/>
<rect x="0.5" y="0.5" width="53" height="25" rx="12.5" stroke="url(#paint0_linear_492_633)"/>
<path d="M14.804 17.108C14.436 17.108 14.076 17.08 13.724 17.024C13.372 16.968 13.04 16.884 12.728 16.772C12.416 16.652 12.136 16.508 11.888 16.34C11.768 16.252 11.684 16.152 11.636 16.04C11.596 15.928 11.584 15.82 11.6 15.716C11.624 15.604 11.672 15.508 11.744 15.428C11.816 15.348 11.904 15.3 12.008 15.284C12.112 15.26 12.228 15.292 12.356 15.38C12.716 15.612 13.096 15.784 13.496 15.896C13.896 16 14.332 16.052 14.804 16.052C15.484 16.052 15.984 15.932 16.304 15.692C16.632 15.444 16.796 15.124 16.796 14.732C16.796 14.412 16.68 14.16 16.448 13.976C16.216 13.784 15.828 13.632 15.284 13.52L14 13.256C13.24 13.096 12.672 12.832 12.296 12.464C11.928 12.096 11.744 11.6 11.744 10.976C11.744 10.6 11.82 10.256 11.972 9.944C12.132 9.632 12.352 9.364 12.632 9.14C12.912 8.908 13.248 8.732 13.64 8.612C14.032 8.492 14.46 8.432 14.924 8.432C15.42 8.432 15.884 8.496 16.316 8.624C16.756 8.752 17.148 8.948 17.492 9.212C17.596 9.284 17.664 9.376 17.696 9.488C17.736 9.592 17.744 9.696 17.72 9.8C17.704 9.904 17.66 9.992 17.588 10.064C17.516 10.136 17.424 10.18 17.312 10.196C17.2 10.204 17.076 10.164 16.94 10.076C16.628 9.868 16.308 9.72 15.98 9.632C15.66 9.536 15.304 9.488 14.912 9.488C14.52 9.488 14.176 9.548 13.88 9.668C13.592 9.788 13.368 9.956 13.208 10.172C13.056 10.388 12.98 10.644 12.98 10.94C12.98 11.276 13.088 11.544 13.304 11.744C13.52 11.944 13.88 12.096 14.384 12.2L15.656 12.464C16.456 12.632 17.052 12.892 17.444 13.244C17.836 13.596 18.032 14.064 18.032 14.648C18.032 15.024 17.956 15.364 17.804 15.668C17.652 15.964 17.436 16.22 17.156 16.436C16.876 16.652 16.536 16.82 16.136 16.94C15.744 17.052 15.3 17.108 14.804 17.108ZM19.9408 17.084C19.7488 17.084 19.6008 17.032 19.4968 16.928C19.3928 16.816 19.3408 16.664 19.3408 16.472V11.672C19.3408 11.472 19.3928 11.32 19.4968 11.216C19.6008 11.112 19.7448 11.06 19.9288 11.06C20.1208 11.06 20.2648 11.112 20.3608 11.216C20.4648 11.32 20.5168 11.472 20.5168 11.672V12.656L20.3848 12.392C20.5448 11.968 20.7928 11.636 21.1288 11.396C21.4648 11.156 21.8688 11.036 22.3408 11.036C22.8288 11.036 23.2248 11.152 23.5288 11.384C23.8328 11.616 24.0408 11.972 24.1528 12.452H23.9848C24.1368 12.012 24.3968 11.668 24.7648 11.42C25.1328 11.164 25.5608 11.036 26.0488 11.036C26.4968 11.036 26.8648 11.124 27.1528 11.3C27.4408 11.468 27.6568 11.728 27.8008 12.08C27.9448 12.424 28.0168 12.86 28.0168 13.388V16.472C28.0168 16.664 27.9608 16.816 27.8488 16.928C27.7448 17.032 27.5968 17.084 27.4048 17.084C27.2128 17.084 27.0648 17.032 26.9608 16.928C26.8568 16.816 26.8048 16.664 26.8048 16.472V13.448C26.8048 12.952 26.7168 12.588 26.5408 12.356C26.3728 12.124 26.0928 12.008 25.7008 12.008C25.2608 12.008 24.9128 12.16 24.6568 12.464C24.4008 12.768 24.2728 13.188 24.2728 13.724V16.472C24.2728 16.664 24.2208 16.816 24.1168 16.928C24.0128 17.032 23.8648 17.084 23.6728 17.084C23.4808 17.084 23.3288 17.032 23.2168 16.928C23.1128 16.816 23.0608 16.664 23.0608 16.472V13.448C23.0608 12.952 22.9768 12.588 22.8088 12.356C22.6408 12.124 22.3608 12.008 21.9688 12.008C21.5288 12.008 21.1808 12.16 20.9248 12.464C20.6768 12.768 20.5528 13.188 20.5528 13.724V16.472C20.5528 16.88 20.3488 17.084 19.9408 17.084ZM31.5834 17.108C31.1754 17.108 30.8074 17.028 30.4794 16.868C30.1594 16.708 29.9074 16.492 29.7234 16.22C29.5394 15.948 29.4474 15.64 29.4474 15.296C29.4474 14.864 29.5554 14.524 29.7714 14.276C29.9954 14.02 30.3594 13.84 30.8634 13.736C31.3754 13.624 32.0634 13.568 32.9274 13.568H33.4914V14.312H32.9394C32.3634 14.312 31.9074 14.34 31.5714 14.396C31.2354 14.452 30.9954 14.548 30.8514 14.684C30.7154 14.812 30.6474 14.992 30.6474 15.224C30.6474 15.528 30.7514 15.776 30.9594 15.968C31.1674 16.152 31.4554 16.244 31.8234 16.244C32.1194 16.244 32.3794 16.176 32.6034 16.04C32.8274 15.896 33.0034 15.704 33.1314 15.464C33.2674 15.224 33.3354 14.948 33.3354 14.636V13.256C33.3354 12.8 33.2394 12.472 33.0474 12.272C32.8554 12.072 32.5394 11.972 32.0994 11.972C31.8434 11.972 31.5754 12.004 31.2954 12.068C31.0234 12.132 30.7394 12.24 30.4434 12.392C30.3074 12.456 30.1914 12.476 30.0954 12.452C29.9994 12.428 29.9234 12.376 29.8674 12.296C29.8114 12.208 29.7794 12.116 29.7714 12.02C29.7714 11.916 29.7954 11.816 29.8434 11.72C29.8994 11.624 29.9914 11.552 30.1194 11.504C30.4714 11.336 30.8194 11.216 31.1634 11.144C31.5074 11.072 31.8314 11.036 32.1354 11.036C32.6714 11.036 33.1114 11.12 33.4554 11.288C33.8074 11.456 34.0674 11.712 34.2354 12.056C34.4034 12.4 34.4874 12.844 34.4874 13.388V16.472C34.4874 16.664 34.4394 16.816 34.3434 16.928C34.2474 17.032 34.1074 17.084 33.9234 17.084C33.7474 17.084 33.6074 17.032 33.5034 16.928C33.3994 16.816 33.3474 16.664 33.3474 16.472V15.692H33.4554C33.3914 15.988 33.2714 16.244 33.0954 16.46C32.9274 16.668 32.7154 16.828 32.4594 16.94C32.2034 17.052 31.9114 17.108 31.5834 17.108ZM38.0407 17.108C37.4167 17.108 36.9447 16.928 36.6247 16.568C36.3127 16.2 36.1567 15.672 36.1567 14.984V9.068C36.1567 8.868 36.2087 8.716 36.3127 8.612C36.4167 8.508 36.5647 8.456 36.7567 8.456C36.9487 8.456 37.0967 8.508 37.2007 8.612C37.3127 8.716 37.3687 8.868 37.3687 9.068V14.912C37.3687 15.312 37.4487 15.612 37.6087 15.812C37.7767 16.004 38.0167 16.1 38.3287 16.1C38.4007 16.1 38.4647 16.1 38.5207 16.1C38.5767 16.092 38.6327 16.084 38.6887 16.076C38.7847 16.068 38.8527 16.096 38.8927 16.16C38.9327 16.216 38.9527 16.336 38.9527 16.52C38.9527 16.688 38.9167 16.82 38.8447 16.916C38.7727 17.004 38.6567 17.06 38.4967 17.084C38.4247 17.092 38.3487 17.096 38.2687 17.096C38.1887 17.104 38.1127 17.108 38.0407 17.108ZM41.7087 17.108C41.0847 17.108 40.6127 16.928 40.2927 16.568C39.9807 16.2 39.8247 15.672 39.8247 14.984V9.068C39.8247 8.868 39.8767 8.716 39.9807 8.612C40.0847 8.508 40.2327 8.456 40.4247 8.456C40.6167 8.456 40.7647 8.508 40.8687 8.612C40.9807 8.716 41.0367 8.868 41.0367 9.068V14.912C41.0367 15.312 41.1167 15.612 41.2767 15.812C41.4447 16.004 41.6847 16.1 41.9967 16.1C42.0687 16.1 42.1327 16.1 42.1887 16.1C42.2447 16.092 42.3007 16.084 42.3567 16.076C42.4527 16.068 42.5207 16.096 42.5607 16.16C42.6007 16.216 42.6207 16.336 42.6207 16.52C42.6207 16.688 42.5847 16.82 42.5127 16.916C42.4407 17.004 42.3247 17.06 42.1647 17.084C42.0927 17.092 42.0167 17.096 41.9367 17.096C41.8567 17.104 41.7807 17.108 41.7087 17.108Z" fill="white"/>
<defs>
<linearGradient id="paint0_linear_492_633" x1="31.2586" y1="1" x2="31.2586" y2="25" gradientUnits="userSpaceOnUse">
<stop stop-color="#011627" stop-opacity="0.75"/>
<stop offset="1" stop-color="#000911"/>
</linearGradient>
</defs>
</svg>
