<svg width="56" height="17" viewBox="0 0 56 17" fill="none" xmlns="http://www.w3.org/2000/svg">
<rect x="1.5" y="1.5" width="13" height="13" rx="4.5" fill="#FE5000" stroke="#E84A02"/>
<g filter="url(#filter0_d_534_2083)">
<path d="M6.39753 10.6955C5.99816 10.2895 5.99816 9.63123 6.39753 9.22523L10.2542 5.3045C10.6536 4.8985 11.3011 4.8985 11.7005 5.3045C12.0998 5.71051 12.0998 6.36877 11.7005 6.77477L7.84379 10.6955C7.44441 11.1015 6.7969 11.1015 6.39753 10.6955Z" fill="white"/>
<path d="M7.81423 10.6549C7.41486 11.061 6.76735 11.061 6.36797 10.6549L4.29953 8.55216C3.90016 8.14615 3.90016 7.48789 4.29953 7.08189C4.6989 6.67588 5.34641 6.67588 5.74579 7.08189L7.81423 9.18468C8.2136 9.59068 8.2136 10.2489 7.81423 10.6549Z" fill="white"/>
</g>
<path d="M26.584 12C26.408 12 26.268 11.948 26.164 11.844C26.068 11.74 26.02 11.6 26.02 11.424V4.056C26.02 3.872 26.068 3.732 26.164 3.636C26.26 3.54 26.396 3.492 26.572 3.492C26.756 3.492 26.896 3.54 26.992 3.636C27.088 3.732 27.136 3.872 27.136 4.056V11.04H30.952C31.12 11.04 31.244 11.08 31.324 11.16C31.412 11.24 31.456 11.356 31.456 11.508C31.456 11.668 31.412 11.792 31.324 11.88C31.244 11.96 31.12 12 30.952 12H26.584ZM34.3102 12.108C33.9102 12.108 33.5462 12.028 33.2182 11.868C32.8982 11.708 32.6462 11.492 32.4622 11.22C32.2862 10.948 32.1982 10.644 32.1982 10.308C32.1982 9.876 32.3062 9.536 32.5222 9.288C32.7382 9.04 33.1022 8.864 33.6142 8.76C34.1262 8.648 34.8142 8.592 35.6782 8.592H36.2422V9.288H35.7022C35.0862 9.288 34.5982 9.316 34.2382 9.372C33.8862 9.428 33.6382 9.528 33.4942 9.672C33.3502 9.808 33.2782 10 33.2782 10.248C33.2782 10.56 33.3862 10.816 33.6022 11.016C33.8262 11.216 34.1302 11.316 34.5142 11.316C34.8182 11.316 35.0862 11.244 35.3182 11.1C35.5502 10.948 35.7342 10.748 35.8702 10.5C36.0062 10.244 36.0742 9.952 36.0742 9.624V8.244C36.0742 7.772 35.9782 7.432 35.7862 7.224C35.5942 7.008 35.2702 6.9 34.8142 6.9C34.5502 6.9 34.2782 6.936 33.9982 7.008C33.7182 7.08 33.4262 7.192 33.1222 7.344C33.0022 7.4 32.8982 7.42 32.8102 7.404C32.7222 7.38 32.6502 7.332 32.5942 7.26C32.5462 7.18 32.5182 7.096 32.5102 7.008C32.5102 6.912 32.5302 6.82 32.5702 6.732C32.6182 6.644 32.6982 6.58 32.8102 6.54C33.1622 6.364 33.5102 6.24 33.8542 6.168C34.2062 6.088 34.5342 6.048 34.8382 6.048C35.3582 6.048 35.7862 6.132 36.1222 6.3C36.4582 6.46 36.7102 6.712 36.8782 7.056C37.0462 7.392 37.1302 7.824 37.1302 8.352V11.52C37.1302 11.704 37.0862 11.844 36.9982 11.94C36.9102 12.036 36.7822 12.084 36.6142 12.084C36.4542 12.084 36.3262 12.036 36.2302 11.94C36.1422 11.844 36.0982 11.704 36.0982 11.52V10.668H36.2062C36.1422 10.964 36.0222 11.22 35.8462 11.436C35.6702 11.652 35.4502 11.82 35.1862 11.94C34.9302 12.052 34.6382 12.108 34.3102 12.108ZM41.9087 12.108C41.3807 12.108 40.9287 11.976 40.5527 11.712C40.1767 11.448 39.9247 11.092 39.7967 10.644L39.9287 10.464V11.52C39.9287 11.704 39.8807 11.844 39.7847 11.94C39.6967 12.036 39.5647 12.084 39.3887 12.084C39.2207 12.084 39.0887 12.036 38.9927 11.94C38.8967 11.844 38.8487 11.704 38.8487 11.52V4.008C38.8487 3.824 38.8967 3.688 38.9927 3.6C39.0887 3.504 39.2207 3.456 39.3887 3.456C39.5647 3.456 39.7007 3.504 39.7967 3.6C39.8927 3.688 39.9407 3.824 39.9407 4.008V7.476H39.8087C39.9367 7.044 40.1887 6.7 40.5647 6.444C40.9407 6.18 41.3887 6.048 41.9087 6.048C42.4287 6.048 42.8807 6.172 43.2647 6.42C43.6567 6.66 43.9567 7.008 44.1647 7.464C44.3807 7.912 44.4887 8.448 44.4887 9.072C44.4887 9.688 44.3807 10.228 44.1647 10.692C43.9487 11.148 43.6487 11.5 43.2647 11.748C42.8807 11.988 42.4287 12.108 41.9087 12.108ZM41.6567 11.244C42.0007 11.244 42.3007 11.16 42.5567 10.992C42.8207 10.824 43.0247 10.58 43.1687 10.26C43.3127 9.94 43.3847 9.544 43.3847 9.072C43.3847 8.368 43.2287 7.832 42.9167 7.464C42.6047 7.096 42.1847 6.912 41.6567 6.912C41.3047 6.912 40.9967 6.996 40.7327 7.164C40.4767 7.324 40.2767 7.564 40.1327 7.884C39.9967 8.204 39.9287 8.6 39.9287 9.072C39.9287 9.776 40.0847 10.316 40.3967 10.692C40.7087 11.06 41.1287 11.244 41.6567 11.244ZM48.5916 12.108C47.9596 12.108 47.4156 11.988 46.9596 11.748C46.5116 11.5 46.1636 11.152 45.9156 10.704C45.6676 10.248 45.5436 9.712 45.5436 9.096C45.5436 8.488 45.6636 7.956 45.9036 7.5C46.1516 7.044 46.4876 6.688 46.9116 6.432C47.3436 6.176 47.8356 6.048 48.3876 6.048C48.7796 6.048 49.1316 6.116 49.4436 6.252C49.7636 6.38 50.0356 6.568 50.2596 6.816C50.4836 7.064 50.6516 7.368 50.7636 7.728C50.8836 8.08 50.9436 8.48 50.9436 8.928C50.9436 9.056 50.9036 9.156 50.8236 9.228C50.7516 9.292 50.6436 9.324 50.4996 9.324H46.3956V8.628H50.2236L50.0196 8.796C50.0196 8.38 49.9556 8.028 49.8276 7.74C49.7076 7.444 49.5276 7.22 49.2876 7.068C49.0556 6.916 48.7636 6.84 48.4116 6.84C48.0276 6.84 47.6996 6.932 47.4276 7.116C47.1556 7.292 46.9476 7.544 46.8036 7.872C46.6596 8.192 46.5876 8.564 46.5876 8.988V9.06C46.5876 9.78 46.7596 10.324 47.1036 10.692C47.4476 11.06 47.9436 11.244 48.5916 11.244C48.8476 11.244 49.1076 11.212 49.3716 11.148C49.6436 11.084 49.9036 10.968 50.1516 10.8C50.2716 10.728 50.3796 10.696 50.4756 10.704C50.5796 10.704 50.6636 10.736 50.7276 10.8C50.7916 10.856 50.8316 10.928 50.8476 11.016C50.8636 11.096 50.8516 11.184 50.8116 11.28C50.7716 11.376 50.6956 11.46 50.5836 11.532C50.3196 11.716 50.0036 11.86 49.6356 11.964C49.2756 12.06 48.9276 12.108 48.5916 12.108ZM54.1378 12.108C53.5378 12.108 53.0818 11.932 52.7698 11.58C52.4578 11.22 52.3018 10.704 52.3018 10.032V4.008C52.3018 3.824 52.3498 3.688 52.4458 3.6C52.5418 3.504 52.6738 3.456 52.8418 3.456C53.0178 3.456 53.1538 3.504 53.2498 3.6C53.3458 3.688 53.3938 3.824 53.3938 4.008V9.948C53.3938 10.364 53.4778 10.676 53.6458 10.884C53.8218 11.084 54.0698 11.184 54.3898 11.184C54.4618 11.184 54.5258 11.184 54.5818 11.184C54.6378 11.176 54.6938 11.168 54.7498 11.16C54.8378 11.152 54.9018 11.176 54.9418 11.232C54.9818 11.288 55.0018 11.4 55.0018 11.568C55.0018 11.72 54.9658 11.84 54.8938 11.928C54.8298 12.008 54.7218 12.06 54.5698 12.084C54.4978 12.092 54.4258 12.096 54.3538 12.096C54.2818 12.104 54.2098 12.108 54.1378 12.108Z" fill="#64728C"/>
<defs>
<filter id="filter0_d_534_2083" x="0" y="3" width="16" height="14" filterUnits="userSpaceOnUse" color-interpolation-filters="sRGB">
<feFlood flood-opacity="0" result="BackgroundImageFix"/>
<feColorMatrix in="SourceAlpha" type="matrix" values="0 0 0 0 0 0 0 0 0 0 0 0 0 0 0 0 0 0 127 0" result="hardAlpha"/>
<feOffset dy="2"/>
<feGaussianBlur stdDeviation="2"/>
<feComposite in2="hardAlpha" operator="out"/>
<feColorMatrix type="matrix" values="0 0 0 0 0 0 0 0 0 0 0 0 0 0 0 0 0 0 0.25 0"/>
<feBlend mode="normal" in2="BackgroundImageFix" result="effect1_dropShadow_534_2083"/>
<feBlend mode="normal" in="SourceGraphic" in2="effect1_dropShadow_534_2083" result="shape"/>
</filter>
</defs>
</svg>
