<svg width="142" height="176" viewBox="0 0 142 176" fill="none" xmlns="http://www.w3.org/2000/svg">
<rect x="1.5" y="1.5" width="13" height="13" rx="4.5" fill="#FE5000" stroke="#E84A02"/>
<g filter="url(#filter0_d_534_2118)">
<path d="M6.39753 10.6955C5.99816 10.2895 5.99816 9.63123 6.39753 9.22523L10.2542 5.3045C10.6536 4.8985 11.3011 4.8985 11.7005 5.3045C12.0998 5.71051 12.0998 6.36877 11.7005 6.77477L7.84379 10.6955C7.44441 11.1015 6.7969 11.1015 6.39753 10.6955Z" fill="white"/>
<path d="M7.81423 10.6549C7.41486 11.061 6.76735 11.061 6.36797 10.6549L4.29953 8.55216C3.90016 8.14615 3.90016 7.48789 4.29953 7.08189C4.6989 6.67588 5.34641 6.67588 5.74579 7.08189L7.81423 9.18468C8.2136 9.59068 8.2136 10.2489 7.81423 10.6549Z" fill="white"/>
</g>
<path d="M25.656 12C25.44 12 25.272 11.944 25.152 11.832C25.04 11.712 24.984 11.544 24.984 11.328V4.212C24.984 3.996 25.04 3.832 25.152 3.72C25.272 3.6 25.44 3.54 25.656 3.54H30.036C30.204 3.54 30.332 3.584 30.42 3.672C30.508 3.752 30.552 3.872 30.552 4.032C30.552 4.2 30.508 4.328 30.42 4.416C30.332 4.504 30.204 4.548 30.036 4.548H26.184V7.2H29.772C29.948 7.2 30.076 7.244 30.156 7.332C30.244 7.42 30.288 7.544 30.288 7.704C30.288 7.872 30.244 8 30.156 8.088C30.076 8.168 29.948 8.208 29.772 8.208H26.184V10.992H30.036C30.204 10.992 30.332 11.036 30.42 11.124C30.508 11.212 30.552 11.336 30.552 11.496C30.552 11.664 30.508 11.792 30.42 11.88C30.332 11.96 30.204 12 30.036 12H25.656ZM32.5424 12.084C32.3504 12.084 32.2024 12.032 32.0984 11.928C31.9944 11.816 31.9424 11.664 31.9424 11.472V6.672C31.9424 6.472 31.9944 6.32 32.0984 6.216C32.2024 6.112 32.3464 6.06 32.5304 6.06C32.7224 6.06 32.8664 6.112 32.9624 6.216C33.0664 6.32 33.1184 6.472 33.1184 6.672V7.656L32.9864 7.392C33.1464 6.968 33.3944 6.636 33.7304 6.396C34.0664 6.156 34.4704 6.036 34.9424 6.036C35.4304 6.036 35.8264 6.152 36.1304 6.384C36.4344 6.616 36.6424 6.972 36.7544 7.452H36.5864C36.7384 7.012 36.9984 6.668 37.3664 6.42C37.7344 6.164 38.1624 6.036 38.6504 6.036C39.0984 6.036 39.4664 6.124 39.7544 6.3C40.0424 6.468 40.2584 6.728 40.4024 7.08C40.5464 7.424 40.6184 7.86 40.6184 8.388V11.472C40.6184 11.664 40.5624 11.816 40.4504 11.928C40.3464 12.032 40.1984 12.084 40.0064 12.084C39.8144 12.084 39.6664 12.032 39.5624 11.928C39.4584 11.816 39.4064 11.664 39.4064 11.472V8.448C39.4064 7.952 39.3184 7.588 39.1424 7.356C38.9744 7.124 38.6944 7.008 38.3024 7.008C37.8624 7.008 37.5144 7.16 37.2584 7.464C37.0024 7.768 36.8744 8.188 36.8744 8.724V11.472C36.8744 11.664 36.8224 11.816 36.7184 11.928C36.6144 12.032 36.4664 12.084 36.2744 12.084C36.0824 12.084 35.9304 12.032 35.8184 11.928C35.7144 11.816 35.6624 11.664 35.6624 11.472V8.448C35.6624 7.952 35.5784 7.588 35.4104 7.356C35.2424 7.124 34.9624 7.008 34.5704 7.008C34.1304 7.008 33.7824 7.16 33.5264 7.464C33.2784 7.768 33.1544 8.188 33.1544 8.724V11.472C33.1544 11.88 32.9504 12.084 32.5424 12.084ZM42.9129 14.244C42.7209 14.244 42.5729 14.192 42.4689 14.088C42.3649 13.984 42.3129 13.832 42.3129 13.632V6.672C42.3129 6.472 42.3649 6.32 42.4689 6.216C42.5729 6.112 42.7169 6.06 42.9009 6.06C43.0929 6.06 43.2409 6.112 43.3449 6.216C43.4489 6.32 43.5009 6.472 43.5009 6.672V7.716L43.3689 7.464C43.4969 7.032 43.7489 6.688 44.1249 6.432C44.5009 6.168 44.9449 6.036 45.4569 6.036C45.9769 6.036 46.4289 6.16 46.8129 6.408C47.2049 6.656 47.5049 7.004 47.7129 7.452C47.9289 7.9 48.0369 8.44 48.0369 9.072C48.0369 9.688 47.9289 10.228 47.7129 10.692C47.5049 11.148 47.2089 11.5 46.8249 11.748C46.4409 11.988 45.9849 12.108 45.4569 12.108C44.9529 12.108 44.5129 11.98 44.1369 11.724C43.7609 11.468 43.5089 11.128 43.3809 10.704H43.5249V13.632C43.5249 13.832 43.4689 13.984 43.3569 14.088C43.2529 14.192 43.1049 14.244 42.9129 14.244ZM45.1569 11.172C45.4929 11.172 45.7849 11.092 46.0329 10.932C46.2809 10.772 46.4729 10.536 46.6089 10.224C46.7449 9.912 46.8129 9.528 46.8129 9.072C46.8129 8.384 46.6609 7.864 46.3569 7.512C46.0609 7.16 45.6609 6.984 45.1569 6.984C44.8289 6.984 44.5369 7.064 44.2809 7.224C44.0329 7.376 43.8409 7.608 43.7049 7.92C43.5689 8.232 43.5009 8.616 43.5009 9.072C43.5009 9.752 43.6529 10.272 43.9569 10.632C44.2609 10.992 44.6609 11.172 45.1569 11.172ZM51.2868 12.108C50.6628 12.108 50.1908 11.928 49.8708 11.568C49.5588 11.2 49.4028 10.672 49.4028 9.984V4.068C49.4028 3.868 49.4548 3.716 49.5588 3.612C49.6628 3.508 49.8108 3.456 50.0028 3.456C50.1948 3.456 50.3428 3.508 50.4468 3.612C50.5588 3.716 50.6148 3.868 50.6148 4.068V9.912C50.6148 10.312 50.6948 10.612 50.8548 10.812C51.0228 11.004 51.2628 11.1 51.5748 11.1C51.6468 11.1 51.7108 11.1 51.7668 11.1C51.8228 11.092 51.8788 11.084 51.9348 11.076C52.0308 11.068 52.0988 11.096 52.1388 11.16C52.1788 11.216 52.1988 11.336 52.1988 11.52C52.1988 11.688 52.1628 11.82 52.0908 11.916C52.0188 12.004 51.9028 12.06 51.7428 12.084C51.6708 12.092 51.5948 12.096 51.5148 12.096C51.4348 12.104 51.3588 12.108 51.2868 12.108ZM55.5562 12.108C54.9642 12.108 54.4522 11.984 54.0202 11.736C53.5962 11.488 53.2642 11.136 53.0242 10.68C52.7842 10.224 52.6642 9.688 52.6642 9.072C52.6642 8.6 52.7322 8.18 52.8682 7.812C53.0042 7.444 53.1962 7.128 53.4442 6.864C53.7002 6.592 54.0042 6.388 54.3562 6.252C54.7162 6.108 55.1162 6.036 55.5562 6.036C56.1402 6.036 56.6442 6.16 57.0682 6.408C57.5002 6.656 57.8362 7.008 58.0762 7.464C58.3162 7.912 58.4362 8.448 58.4362 9.072C58.4362 9.536 58.3682 9.956 58.2322 10.332C58.0962 10.708 57.9002 11.028 57.6442 11.292C57.3962 11.556 57.0922 11.76 56.7322 11.904C56.3802 12.04 55.9882 12.108 55.5562 12.108ZM55.5562 11.172C55.8842 11.172 56.1722 11.092 56.4202 10.932C56.6682 10.772 56.8602 10.536 56.9962 10.224C57.1402 9.912 57.2122 9.528 57.2122 9.072C57.2122 8.384 57.0602 7.864 56.7562 7.512C56.4522 7.16 56.0522 6.984 55.5562 6.984C55.2202 6.984 54.9282 7.064 54.6802 7.224C54.4322 7.376 54.2362 7.608 54.0922 7.92C53.9562 8.232 53.8882 8.616 53.8882 9.072C53.8882 9.752 54.0402 10.272 54.3442 10.632C54.6482 10.992 55.0522 11.172 55.5562 11.172ZM61.0718 14.244C60.9278 14.244 60.8078 14.204 60.7118 14.124C60.6238 14.052 60.5718 13.952 60.5558 13.824C60.5478 13.704 60.5718 13.572 60.6278 13.428L61.4438 11.592V12.108L59.1998 6.888C59.1438 6.744 59.1238 6.608 59.1398 6.48C59.1558 6.352 59.2158 6.252 59.3198 6.18C59.4238 6.1 59.5638 6.06 59.7398 6.06C59.8918 6.06 60.0118 6.096 60.0998 6.168C60.1878 6.24 60.2678 6.364 60.3398 6.54L62.1518 11.016H61.8158L63.6518 6.54C63.7238 6.356 63.8078 6.232 63.9038 6.168C63.9998 6.096 64.1318 6.06 64.2998 6.06C64.4438 6.06 64.5558 6.1 64.6358 6.18C64.7238 6.252 64.7758 6.352 64.7918 6.48C64.8158 6.6 64.7958 6.732 64.7318 6.876L61.7318 13.776C61.6518 13.96 61.5598 14.084 61.4558 14.148C61.3598 14.212 61.2318 14.244 61.0718 14.244ZM68.5688 12.108C67.9288 12.108 67.3768 11.988 66.9128 11.748C66.4568 11.5 66.1008 11.152 65.8448 10.704C65.5968 10.248 65.4728 9.708 65.4728 9.084C65.4728 8.476 65.5968 7.944 65.8448 7.488C66.0928 7.032 66.4328 6.676 66.8648 6.42C67.2968 6.164 67.7888 6.036 68.3408 6.036C68.7488 6.036 69.1128 6.104 69.4328 6.24C69.7528 6.368 70.0248 6.56 70.2488 6.816C70.4808 7.064 70.6528 7.368 70.7648 7.728C70.8848 8.088 70.9448 8.492 70.9448 8.94C70.9448 9.076 70.9048 9.18 70.8248 9.252C70.7448 9.316 70.6248 9.348 70.4648 9.348H66.4328V8.604H70.1288L69.9248 8.772C69.9248 8.372 69.8648 8.032 69.7448 7.752C69.6328 7.472 69.4608 7.26 69.2288 7.116C69.0048 6.964 68.7248 6.888 68.3888 6.888C68.0128 6.888 67.6928 6.976 67.4288 7.152C67.1728 7.328 66.9768 7.572 66.8408 7.884C66.7048 8.196 66.6368 8.56 66.6368 8.976V9.048C66.6368 9.752 66.8008 10.284 67.1288 10.644C67.4648 10.996 67.9488 11.172 68.5808 11.172C68.8208 11.172 69.0728 11.14 69.3368 11.076C69.6088 11.012 69.8648 10.904 70.1048 10.752C70.2408 10.672 70.3608 10.636 70.4648 10.644C70.5768 10.652 70.6648 10.688 70.7288 10.752C70.8008 10.816 70.8448 10.896 70.8608 10.992C70.8768 11.088 70.8608 11.188 70.8128 11.292C70.7648 11.388 70.6808 11.476 70.5608 11.556C70.2888 11.74 69.9728 11.88 69.6128 11.976C69.2528 12.064 68.9048 12.108 68.5688 12.108ZM75.0141 12.108C74.3741 12.108 73.8221 11.988 73.3581 11.748C72.9021 11.5 72.5461 11.152 72.2901 10.704C72.0421 10.248 71.9181 9.708 71.9181 9.084C71.9181 8.476 72.0421 7.944 72.2901 7.488C72.5381 7.032 72.8781 6.676 73.3101 6.42C73.7421 6.164 74.2341 6.036 74.7861 6.036C75.1941 6.036 75.5581 6.104 75.8781 6.24C76.1981 6.368 76.4701 6.56 76.6941 6.816C76.9261 7.064 77.0981 7.368 77.2101 7.728C77.3301 8.088 77.3901 8.492 77.3901 8.94C77.3901 9.076 77.3501 9.18 77.2701 9.252C77.1901 9.316 77.0701 9.348 76.9101 9.348H72.8781V8.604H76.5741L76.3701 8.772C76.3701 8.372 76.3101 8.032 76.1901 7.752C76.0781 7.472 75.9061 7.26 75.6741 7.116C75.4501 6.964 75.1701 6.888 74.8341 6.888C74.4581 6.888 74.1381 6.976 73.8741 7.152C73.6181 7.328 73.4221 7.572 73.2861 7.884C73.1501 8.196 73.0821 8.56 73.0821 8.976V9.048C73.0821 9.752 73.2461 10.284 73.5741 10.644C73.9101 10.996 74.3941 11.172 75.0261 11.172C75.2661 11.172 75.5181 11.14 75.7821 11.076C76.0541 11.012 76.3101 10.904 76.5501 10.752C76.6861 10.672 76.8061 10.636 76.9101 10.644C77.0221 10.652 77.1101 10.688 77.1741 10.752C77.2461 10.816 77.2901 10.896 77.3061 10.992C77.3221 11.088 77.3061 11.188 77.2581 11.292C77.2101 11.388 77.1261 11.476 77.0061 11.556C76.7341 11.74 76.4181 11.88 76.0581 11.976C75.6981 12.064 75.3501 12.108 75.0141 12.108Z" fill="#64728C"/>
<rect x="1.5" y="33.5" width="13" height="13" rx="4.5" fill="white" stroke="#D9D9D9"/>
<path d="M27.672 44.084C27.472 44.084 27.316 44.028 27.204 43.916C27.1 43.804 27.048 43.648 27.048 43.448V36.584H24.504C24.336 36.584 24.204 36.54 24.108 36.452C24.012 36.356 23.964 36.224 23.964 36.056C23.964 35.888 24.012 35.76 24.108 35.672C24.204 35.584 24.336 35.54 24.504 35.54H30.828C31.004 35.54 31.14 35.584 31.236 35.672C31.332 35.76 31.38 35.888 31.38 36.056C31.38 36.224 31.332 36.356 31.236 36.452C31.14 36.54 31.004 36.584 30.828 36.584H28.284V43.448C28.284 43.648 28.232 43.804 28.128 43.916C28.032 44.028 27.88 44.084 27.672 44.084ZM33.2567 44.072C33.0647 44.072 32.9167 44.016 32.8127 43.904C32.7087 43.784 32.6567 43.62 32.6567 43.412V38.732C32.6567 38.524 32.7087 38.364 32.8127 38.252C32.9167 38.14 33.0647 38.084 33.2567 38.084C33.4487 38.084 33.5967 38.14 33.7007 38.252C33.8127 38.364 33.8687 38.524 33.8687 38.732V43.412C33.8687 43.62 33.8167 43.784 33.7127 43.904C33.6087 44.016 33.4567 44.072 33.2567 44.072ZM33.2567 36.836C33.0167 36.836 32.8287 36.776 32.6927 36.656C32.5647 36.536 32.5007 36.368 32.5007 36.152C32.5007 35.928 32.5647 35.76 32.6927 35.648C32.8287 35.528 33.0167 35.468 33.2567 35.468C33.4967 35.468 33.6807 35.528 33.8087 35.648C33.9447 35.76 34.0127 35.928 34.0127 36.152C34.0127 36.368 33.9447 36.536 33.8087 36.656C33.6807 36.776 33.4967 36.836 33.2567 36.836ZM36.1987 44.084C36.0067 44.084 35.8587 44.032 35.7547 43.928C35.6507 43.816 35.5987 43.664 35.5987 43.472V38.672C35.5987 38.472 35.6507 38.32 35.7547 38.216C35.8587 38.112 36.0027 38.06 36.1867 38.06C36.3787 38.06 36.5227 38.112 36.6187 38.216C36.7227 38.32 36.7747 38.472 36.7747 38.672V39.656L36.6427 39.392C36.8027 38.968 37.0507 38.636 37.3867 38.396C37.7227 38.156 38.1267 38.036 38.5987 38.036C39.0867 38.036 39.4827 38.152 39.7867 38.384C40.0907 38.616 40.2987 38.972 40.4107 39.452H40.2427C40.3947 39.012 40.6547 38.668 41.0227 38.42C41.3907 38.164 41.8187 38.036 42.3067 38.036C42.7547 38.036 43.1227 38.124 43.4107 38.3C43.6987 38.468 43.9147 38.728 44.0587 39.08C44.2027 39.424 44.2747 39.86 44.2747 40.388V43.472C44.2747 43.664 44.2187 43.816 44.1067 43.928C44.0027 44.032 43.8547 44.084 43.6627 44.084C43.4707 44.084 43.3227 44.032 43.2187 43.928C43.1147 43.816 43.0627 43.664 43.0627 43.472V40.448C43.0627 39.952 42.9747 39.588 42.7987 39.356C42.6307 39.124 42.3507 39.008 41.9587 39.008C41.5187 39.008 41.1707 39.16 40.9147 39.464C40.6587 39.768 40.5307 40.188 40.5307 40.724V43.472C40.5307 43.664 40.4787 43.816 40.3747 43.928C40.2707 44.032 40.1227 44.084 39.9307 44.084C39.7387 44.084 39.5867 44.032 39.4747 43.928C39.3707 43.816 39.3187 43.664 39.3187 43.472V40.448C39.3187 39.952 39.2347 39.588 39.0667 39.356C38.8987 39.124 38.6187 39.008 38.2267 39.008C37.7867 39.008 37.4387 39.16 37.1827 39.464C36.9347 39.768 36.8107 40.188 36.8107 40.724V43.472C36.8107 43.88 36.6067 44.084 36.1987 44.084ZM48.7172 44.108C48.0772 44.108 47.5252 43.988 47.0612 43.748C46.6052 43.5 46.2492 43.152 45.9932 42.704C45.7452 42.248 45.6212 41.708 45.6212 41.084C45.6212 40.476 45.7452 39.944 45.9932 39.488C46.2412 39.032 46.5812 38.676 47.0132 38.42C47.4452 38.164 47.9372 38.036 48.4892 38.036C48.8972 38.036 49.2612 38.104 49.5812 38.24C49.9012 38.368 50.1732 38.56 50.3972 38.816C50.6292 39.064 50.8012 39.368 50.9132 39.728C51.0332 40.088 51.0932 40.492 51.0932 40.94C51.0932 41.076 51.0532 41.18 50.9732 41.252C50.8932 41.316 50.7732 41.348 50.6132 41.348H46.5812V40.604H50.2772L50.0732 40.772C50.0732 40.372 50.0132 40.032 49.8932 39.752C49.7812 39.472 49.6092 39.26 49.3772 39.116C49.1532 38.964 48.8732 38.888 48.5372 38.888C48.1612 38.888 47.8412 38.976 47.5772 39.152C47.3212 39.328 47.1252 39.572 46.9892 39.884C46.8532 40.196 46.7852 40.56 46.7852 40.976V41.048C46.7852 41.752 46.9492 42.284 47.2772 42.644C47.6132 42.996 48.0972 43.172 48.7292 43.172C48.9692 43.172 49.2212 43.14 49.4852 43.076C49.7572 43.012 50.0132 42.904 50.2532 42.752C50.3892 42.672 50.5092 42.636 50.6132 42.644C50.7252 42.652 50.8132 42.688 50.8772 42.752C50.9492 42.816 50.9932 42.896 51.0092 42.992C51.0252 43.088 51.0092 43.188 50.9612 43.292C50.9132 43.388 50.8292 43.476 50.7092 43.556C50.4372 43.74 50.1212 43.88 49.7612 43.976C49.4012 44.064 49.0532 44.108 48.7172 44.108ZM54.4665 44.108C54.1145 44.108 53.7505 44.068 53.3745 43.988C53.0065 43.908 52.6665 43.772 52.3545 43.58C52.2505 43.508 52.1785 43.428 52.1385 43.34C52.0985 43.252 52.0825 43.164 52.0905 43.076C52.1065 42.98 52.1425 42.9 52.1985 42.836C52.2625 42.764 52.3385 42.72 52.4265 42.704C52.5225 42.688 52.6225 42.708 52.7265 42.764C53.0385 42.94 53.3385 43.064 53.6265 43.136C53.9145 43.2 54.1985 43.232 54.4785 43.232C54.9025 43.232 55.2225 43.156 55.4385 43.004C55.6545 42.852 55.7625 42.648 55.7625 42.392C55.7625 42.184 55.6905 42.024 55.5465 41.912C55.4025 41.792 55.1865 41.7 54.8985 41.636L53.7585 41.408C53.2625 41.304 52.8865 41.12 52.6305 40.856C52.3745 40.592 52.2465 40.256 52.2465 39.848C52.2465 39.48 52.3465 39.16 52.5465 38.888C52.7465 38.616 53.0265 38.408 53.3865 38.264C53.7465 38.112 54.1625 38.036 54.6345 38.036C54.9865 38.036 55.3185 38.08 55.6305 38.168C55.9425 38.256 56.2305 38.388 56.4945 38.564C56.5985 38.62 56.6665 38.696 56.6985 38.792C56.7305 38.88 56.7345 38.968 56.7105 39.056C56.6945 39.144 56.6545 39.224 56.5905 39.296C56.5265 39.36 56.4465 39.4 56.3505 39.416C56.2625 39.424 56.1625 39.4 56.0505 39.344C55.8105 39.192 55.5705 39.084 55.3305 39.02C55.0985 38.956 54.8665 38.924 54.6345 38.924C54.2105 38.924 53.8905 39.004 53.6745 39.164C53.4665 39.316 53.3625 39.524 53.3625 39.788C53.3625 39.988 53.4265 40.152 53.5545 40.28C53.6825 40.408 53.8825 40.5 54.1545 40.556L55.2945 40.784C55.8145 40.888 56.2065 41.064 56.4705 41.312C56.7425 41.56 56.8785 41.896 56.8785 42.32C56.8785 42.872 56.6585 43.308 56.2185 43.628C55.7785 43.948 55.1945 44.108 54.4665 44.108ZM58.827 44.084C58.635 44.084 58.487 44.032 58.383 43.928C58.279 43.816 58.227 43.664 58.227 43.472V36.068C58.227 35.868 58.279 35.716 58.383 35.612C58.487 35.508 58.635 35.456 58.827 35.456C59.019 35.456 59.167 35.508 59.271 35.612C59.383 35.716 59.439 35.868 59.439 36.068V39.392H59.271C59.447 38.944 59.723 38.608 60.099 38.384C60.475 38.152 60.907 38.036 61.395 38.036C61.859 38.036 62.243 38.124 62.547 38.3C62.859 38.468 63.091 38.728 63.243 39.08C63.395 39.424 63.471 39.86 63.471 40.388V43.472C63.471 43.664 63.419 43.816 63.315 43.928C63.211 44.032 63.063 44.084 62.871 44.084C62.671 44.084 62.519 44.032 62.415 43.928C62.311 43.816 62.259 43.664 62.259 43.472V40.46C62.259 39.956 62.159 39.588 61.959 39.356C61.767 39.124 61.463 39.008 61.047 39.008C60.559 39.008 60.167 39.16 59.871 39.464C59.583 39.768 59.439 40.176 59.439 40.688V43.472C59.439 43.88 59.235 44.084 58.827 44.084ZM67.8891 44.108C67.2491 44.108 66.6971 43.988 66.2331 43.748C65.7771 43.5 65.4211 43.152 65.1651 42.704C64.9171 42.248 64.7931 41.708 64.7931 41.084C64.7931 40.476 64.9171 39.944 65.1651 39.488C65.4131 39.032 65.7531 38.676 66.1851 38.42C66.6171 38.164 67.1091 38.036 67.6611 38.036C68.0691 38.036 68.4331 38.104 68.7531 38.24C69.0731 38.368 69.3451 38.56 69.5691 38.816C69.8011 39.064 69.9731 39.368 70.0851 39.728C70.2051 40.088 70.2651 40.492 70.2651 40.94C70.2651 41.076 70.2251 41.18 70.1451 41.252C70.0651 41.316 69.9451 41.348 69.7851 41.348H65.7531V40.604H69.4491L69.2451 40.772C69.2451 40.372 69.1851 40.032 69.0651 39.752C68.9531 39.472 68.7811 39.26 68.5491 39.116C68.3251 38.964 68.0451 38.888 67.7091 38.888C67.3331 38.888 67.0131 38.976 66.7491 39.152C66.4931 39.328 66.2971 39.572 66.1611 39.884C66.0251 40.196 65.9571 40.56 65.9571 40.976V41.048C65.9571 41.752 66.1211 42.284 66.4491 42.644C66.7851 42.996 67.2691 43.172 67.9011 43.172C68.1411 43.172 68.3931 43.14 68.6571 43.076C68.9291 43.012 69.1851 42.904 69.4251 42.752C69.5611 42.672 69.6811 42.636 69.7851 42.644C69.8971 42.652 69.9851 42.688 70.0491 42.752C70.1211 42.816 70.1651 42.896 70.1811 42.992C70.1971 43.088 70.1811 43.188 70.1331 43.292C70.0851 43.388 70.0011 43.476 69.8811 43.556C69.6091 43.74 69.2931 43.88 68.9331 43.976C68.5731 44.064 68.2251 44.108 67.8891 44.108ZM74.3344 44.108C73.6944 44.108 73.1424 43.988 72.6784 43.748C72.2224 43.5 71.8664 43.152 71.6104 42.704C71.3624 42.248 71.2384 41.708 71.2384 41.084C71.2384 40.476 71.3624 39.944 71.6104 39.488C71.8584 39.032 72.1984 38.676 72.6304 38.42C73.0624 38.164 73.5544 38.036 74.1064 38.036C74.5144 38.036 74.8784 38.104 75.1984 38.24C75.5184 38.368 75.7904 38.56 76.0144 38.816C76.2464 39.064 76.4184 39.368 76.5304 39.728C76.6504 40.088 76.7104 40.492 76.7104 40.94C76.7104 41.076 76.6704 41.18 76.5904 41.252C76.5104 41.316 76.3904 41.348 76.2304 41.348H72.1984V40.604H75.8944L75.6904 40.772C75.6904 40.372 75.6304 40.032 75.5104 39.752C75.3984 39.472 75.2264 39.26 74.9944 39.116C74.7704 38.964 74.4904 38.888 74.1544 38.888C73.7784 38.888 73.4584 38.976 73.1944 39.152C72.9384 39.328 72.7424 39.572 72.6064 39.884C72.4704 40.196 72.4024 40.56 72.4024 40.976V41.048C72.4024 41.752 72.5664 42.284 72.8944 42.644C73.2304 42.996 73.7144 43.172 74.3464 43.172C74.5864 43.172 74.8384 43.14 75.1024 43.076C75.3744 43.012 75.6304 42.904 75.8704 42.752C76.0064 42.672 76.1264 42.636 76.2304 42.644C76.3424 42.652 76.4304 42.688 76.4944 42.752C76.5664 42.816 76.6104 42.896 76.6264 42.992C76.6424 43.088 76.6264 43.188 76.5784 43.292C76.5304 43.388 76.4464 43.476 76.3264 43.556C76.0544 43.74 75.7384 43.88 75.3784 43.976C75.0184 44.064 74.6704 44.108 74.3344 44.108ZM80.516 44.108C80.036 44.108 79.632 44.024 79.304 43.856C78.976 43.688 78.732 43.44 78.572 43.112C78.412 42.784 78.332 42.384 78.332 41.912V39.08H77.612C77.452 39.08 77.328 39.04 77.24 38.96C77.152 38.872 77.108 38.756 77.108 38.612C77.108 38.46 77.152 38.344 77.24 38.264C77.328 38.184 77.452 38.144 77.612 38.144H78.332V36.908C78.332 36.708 78.384 36.556 78.488 36.452C78.6 36.348 78.752 36.296 78.944 36.296C79.136 36.296 79.284 36.348 79.388 36.452C79.492 36.556 79.544 36.708 79.544 36.908V38.144H80.948C81.108 38.144 81.232 38.184 81.32 38.264C81.408 38.344 81.452 38.46 81.452 38.612C81.452 38.756 81.408 38.872 81.32 38.96C81.232 39.04 81.108 39.08 80.948 39.08H79.544V41.816C79.544 42.24 79.632 42.56 79.808 42.776C79.992 42.992 80.288 43.1 80.696 43.1C80.84 43.1 80.964 43.088 81.068 43.064C81.18 43.032 81.272 43.012 81.344 43.004C81.432 43.004 81.504 43.036 81.56 43.1C81.616 43.156 81.644 43.268 81.644 43.436C81.644 43.556 81.62 43.668 81.572 43.772C81.532 43.876 81.456 43.944 81.344 43.976C81.248 44.008 81.116 44.036 80.948 44.06C80.788 44.092 80.644 44.108 80.516 44.108ZM88.5188 44.108C88.1508 44.108 87.7908 44.08 87.4388 44.024C87.0868 43.968 86.7548 43.884 86.4428 43.772C86.1308 43.652 85.8508 43.508 85.6028 43.34C85.4828 43.252 85.3988 43.152 85.3508 43.04C85.3108 42.928 85.2988 42.82 85.3148 42.716C85.3388 42.604 85.3868 42.508 85.4588 42.428C85.5308 42.348 85.6188 42.3 85.7228 42.284C85.8268 42.26 85.9428 42.292 86.0708 42.38C86.4308 42.612 86.8108 42.784 87.2108 42.896C87.6108 43 88.0468 43.052 88.5188 43.052C89.1988 43.052 89.6988 42.932 90.0188 42.692C90.3468 42.444 90.5108 42.124 90.5108 41.732C90.5108 41.412 90.3948 41.16 90.1628 40.976C89.9308 40.784 89.5428 40.632 88.9988 40.52L87.7148 40.256C86.9548 40.096 86.3868 39.832 86.0108 39.464C85.6428 39.096 85.4588 38.6 85.4588 37.976C85.4588 37.6 85.5348 37.256 85.6868 36.944C85.8468 36.632 86.0668 36.364 86.3468 36.14C86.6268 35.908 86.9628 35.732 87.3548 35.612C87.7468 35.492 88.1748 35.432 88.6388 35.432C89.1348 35.432 89.5988 35.496 90.0308 35.624C90.4708 35.752 90.8628 35.948 91.2068 36.212C91.3108 36.284 91.3788 36.376 91.4108 36.488C91.4508 36.592 91.4588 36.696 91.4348 36.8C91.4188 36.904 91.3748 36.992 91.3028 37.064C91.2308 37.136 91.1388 37.18 91.0268 37.196C90.9148 37.204 90.7908 37.164 90.6548 37.076C90.3428 36.868 90.0228 36.72 89.6948 36.632C89.3748 36.536 89.0188 36.488 88.6268 36.488C88.2348 36.488 87.8908 36.548 87.5948 36.668C87.3068 36.788 87.0828 36.956 86.9228 37.172C86.7708 37.388 86.6948 37.644 86.6948 37.94C86.6948 38.276 86.8028 38.544 87.0188 38.744C87.2348 38.944 87.5948 39.096 88.0988 39.2L89.3708 39.464C90.1708 39.632 90.7668 39.892 91.1588 40.244C91.5508 40.596 91.7468 41.064 91.7468 41.648C91.7468 42.024 91.6708 42.364 91.5188 42.668C91.3668 42.964 91.1508 43.22 90.8708 43.436C90.5908 43.652 90.2508 43.82 89.8508 43.94C89.4588 44.052 89.0148 44.108 88.5188 44.108ZM95.4925 44.108C95.0125 44.108 94.6085 44.024 94.2805 43.856C93.9525 43.688 93.7085 43.44 93.5485 43.112C93.3885 42.784 93.3085 42.384 93.3085 41.912V39.08H92.5885C92.4285 39.08 92.3045 39.04 92.2165 38.96C92.1285 38.872 92.0845 38.756 92.0845 38.612C92.0845 38.46 92.1285 38.344 92.2165 38.264C92.3045 38.184 92.4285 38.144 92.5885 38.144H93.3085V36.908C93.3085 36.708 93.3605 36.556 93.4645 36.452C93.5765 36.348 93.7285 36.296 93.9205 36.296C94.1125 36.296 94.2605 36.348 94.3645 36.452C94.4685 36.556 94.5205 36.708 94.5205 36.908V38.144H95.9245C96.0845 38.144 96.2085 38.184 96.2965 38.264C96.3845 38.344 96.4285 38.46 96.4285 38.612C96.4285 38.756 96.3845 38.872 96.2965 38.96C96.2085 39.04 96.0845 39.08 95.9245 39.08H94.5205V41.816C94.5205 42.24 94.6085 42.56 94.7845 42.776C94.9685 42.992 95.2645 43.1 95.6725 43.1C95.8165 43.1 95.9405 43.088 96.0445 43.064C96.1565 43.032 96.2485 43.012 96.3205 43.004C96.4085 43.004 96.4805 43.036 96.5365 43.1C96.5925 43.156 96.6205 43.268 96.6205 43.436C96.6205 43.556 96.5965 43.668 96.5485 43.772C96.5085 43.876 96.4325 43.944 96.3205 43.976C96.2245 44.008 96.0925 44.036 95.9245 44.06C95.7645 44.092 95.6205 44.108 95.4925 44.108ZM99.2513 44.108C98.8433 44.108 98.4753 44.028 98.1473 43.868C97.8273 43.708 97.5753 43.492 97.3913 43.22C97.2073 42.948 97.1153 42.64 97.1153 42.296C97.1153 41.864 97.2233 41.524 97.4393 41.276C97.6633 41.02 98.0273 40.84 98.5313 40.736C99.0433 40.624 99.7313 40.568 100.595 40.568H101.159V41.312H100.607C100.031 41.312 99.5753 41.34 99.2393 41.396C98.9033 41.452 98.6633 41.548 98.5193 41.684C98.3833 41.812 98.3153 41.992 98.3153 42.224C98.3153 42.528 98.4193 42.776 98.6273 42.968C98.8353 43.152 99.1233 43.244 99.4913 43.244C99.7873 43.244 100.047 43.176 100.271 43.04C100.495 42.896 100.671 42.704 100.799 42.464C100.935 42.224 101.003 41.948 101.003 41.636V40.256C101.003 39.8 100.907 39.472 100.715 39.272C100.523 39.072 100.207 38.972 99.7673 38.972C99.5113 38.972 99.2433 39.004 98.9633 39.068C98.6913 39.132 98.4073 39.24 98.1113 39.392C97.9753 39.456 97.8593 39.476 97.7633 39.452C97.6673 39.428 97.5913 39.376 97.5353 39.296C97.4793 39.208 97.4473 39.116 97.4393 39.02C97.4393 38.916 97.4633 38.816 97.5113 38.72C97.5673 38.624 97.6593 38.552 97.7873 38.504C98.1393 38.336 98.4873 38.216 98.8313 38.144C99.1753 38.072 99.4993 38.036 99.8033 38.036C100.339 38.036 100.779 38.12 101.123 38.288C101.475 38.456 101.735 38.712 101.903 39.056C102.071 39.4 102.155 39.844 102.155 40.388V43.472C102.155 43.664 102.107 43.816 102.011 43.928C101.915 44.032 101.775 44.084 101.591 44.084C101.415 44.084 101.275 44.032 101.171 43.928C101.067 43.816 101.015 43.664 101.015 43.472V42.692H101.123C101.059 42.988 100.939 43.244 100.763 43.46C100.595 43.668 100.383 43.828 100.127 43.94C99.8713 44.052 99.5793 44.108 99.2513 44.108ZM104.437 44.084C104.237 44.084 104.085 44.032 103.981 43.928C103.877 43.816 103.825 43.664 103.825 43.472V38.672C103.825 38.472 103.877 38.32 103.981 38.216C104.085 38.112 104.229 38.06 104.413 38.06C104.605 38.06 104.749 38.112 104.845 38.216C104.949 38.32 105.001 38.472 105.001 38.672V39.548H104.881C105.009 39.068 105.245 38.704 105.589 38.456C105.933 38.208 106.373 38.064 106.909 38.024C107.053 38.016 107.165 38.052 107.245 38.132C107.333 38.212 107.381 38.336 107.389 38.504C107.405 38.672 107.369 38.808 107.281 38.912C107.193 39.008 107.057 39.064 106.873 39.08L106.645 39.104C106.125 39.152 105.729 39.316 105.457 39.596C105.185 39.876 105.049 40.26 105.049 40.748V43.472C105.049 43.664 104.997 43.816 104.893 43.928C104.797 44.032 104.645 44.084 104.437 44.084ZM111.125 44.108C110.645 44.108 110.241 44.024 109.913 43.856C109.585 43.688 109.341 43.44 109.181 43.112C109.021 42.784 108.941 42.384 108.941 41.912V39.08H108.221C108.061 39.08 107.937 39.04 107.849 38.96C107.761 38.872 107.717 38.756 107.717 38.612C107.717 38.46 107.761 38.344 107.849 38.264C107.937 38.184 108.061 38.144 108.221 38.144H108.941V36.908C108.941 36.708 108.993 36.556 109.097 36.452C109.209 36.348 109.361 36.296 109.553 36.296C109.745 36.296 109.893 36.348 109.997 36.452C110.101 36.556 110.153 36.708 110.153 36.908V38.144H111.557C111.717 38.144 111.841 38.184 111.929 38.264C112.017 38.344 112.061 38.46 112.061 38.612C112.061 38.756 112.017 38.872 111.929 38.96C111.841 39.04 111.717 39.08 111.557 39.08H110.153V41.816C110.153 42.24 110.241 42.56 110.417 42.776C110.601 42.992 110.897 43.1 111.305 43.1C111.449 43.1 111.573 43.088 111.677 43.064C111.789 43.032 111.881 43.012 111.953 43.004C112.041 43.004 112.113 43.036 112.169 43.1C112.225 43.156 112.253 43.268 112.253 43.436C112.253 43.556 112.229 43.668 112.181 43.772C112.141 43.876 112.065 43.944 111.953 43.976C111.857 44.008 111.725 44.036 111.557 44.06C111.397 44.092 111.253 44.108 111.125 44.108ZM116.98 44C116.764 44 116.596 43.944 116.476 43.832C116.364 43.712 116.308 43.544 116.308 43.328V36.212C116.308 35.996 116.364 35.832 116.476 35.72C116.596 35.6 116.764 35.54 116.98 35.54H119.296C120.688 35.54 121.76 35.904 122.512 36.632C123.272 37.352 123.652 38.396 123.652 39.764C123.652 40.444 123.556 41.048 123.364 41.576C123.172 42.104 122.888 42.548 122.512 42.908C122.144 43.26 121.692 43.532 121.156 43.724C120.62 43.908 120 44 119.296 44H116.98ZM117.556 42.956H119.224C119.752 42.956 120.208 42.892 120.592 42.764C120.984 42.628 121.312 42.428 121.576 42.164C121.84 41.9 122.036 41.568 122.164 41.168C122.292 40.768 122.356 40.3 122.356 39.764C122.356 38.7 122.092 37.904 121.564 37.376C121.044 36.848 120.264 36.584 119.224 36.584H117.556V42.956ZM127.06 44.108C126.652 44.108 126.284 44.028 125.956 43.868C125.636 43.708 125.384 43.492 125.2 43.22C125.016 42.948 124.924 42.64 124.924 42.296C124.924 41.864 125.032 41.524 125.248 41.276C125.472 41.02 125.836 40.84 126.34 40.736C126.852 40.624 127.54 40.568 128.404 40.568H128.968V41.312H128.416C127.84 41.312 127.384 41.34 127.048 41.396C126.712 41.452 126.472 41.548 126.328 41.684C126.192 41.812 126.124 41.992 126.124 42.224C126.124 42.528 126.228 42.776 126.436 42.968C126.644 43.152 126.932 43.244 127.3 43.244C127.596 43.244 127.856 43.176 128.08 43.04C128.304 42.896 128.48 42.704 128.608 42.464C128.744 42.224 128.812 41.948 128.812 41.636V40.256C128.812 39.8 128.716 39.472 128.524 39.272C128.332 39.072 128.016 38.972 127.576 38.972C127.32 38.972 127.052 39.004 126.772 39.068C126.5 39.132 126.216 39.24 125.92 39.392C125.784 39.456 125.668 39.476 125.572 39.452C125.476 39.428 125.4 39.376 125.344 39.296C125.288 39.208 125.256 39.116 125.248 39.02C125.248 38.916 125.272 38.816 125.32 38.72C125.376 38.624 125.468 38.552 125.596 38.504C125.948 38.336 126.296 38.216 126.64 38.144C126.984 38.072 127.308 38.036 127.612 38.036C128.148 38.036 128.588 38.12 128.932 38.288C129.284 38.456 129.544 38.712 129.712 39.056C129.88 39.4 129.964 39.844 129.964 40.388V43.472C129.964 43.664 129.916 43.816 129.82 43.928C129.724 44.032 129.584 44.084 129.4 44.084C129.224 44.084 129.084 44.032 128.98 43.928C128.876 43.816 128.824 43.664 128.824 43.472V42.692H128.932C128.868 42.988 128.748 43.244 128.572 43.46C128.404 43.668 128.192 43.828 127.936 43.94C127.68 44.052 127.388 44.108 127.06 44.108ZM134.129 44.108C133.649 44.108 133.245 44.024 132.917 43.856C132.589 43.688 132.345 43.44 132.185 43.112C132.025 42.784 131.945 42.384 131.945 41.912V39.08H131.225C131.065 39.08 130.941 39.04 130.853 38.96C130.765 38.872 130.721 38.756 130.721 38.612C130.721 38.46 130.765 38.344 130.853 38.264C130.941 38.184 131.065 38.144 131.225 38.144H131.945V36.908C131.945 36.708 131.997 36.556 132.101 36.452C132.213 36.348 132.365 36.296 132.557 36.296C132.749 36.296 132.897 36.348 133.001 36.452C133.105 36.556 133.157 36.708 133.157 36.908V38.144H134.561C134.721 38.144 134.845 38.184 134.933 38.264C135.021 38.344 135.065 38.46 135.065 38.612C135.065 38.756 135.021 38.872 134.933 38.96C134.845 39.04 134.721 39.08 134.561 39.08H133.157V41.816C133.157 42.24 133.245 42.56 133.421 42.776C133.605 42.992 133.901 43.1 134.309 43.1C134.453 43.1 134.577 43.088 134.681 43.064C134.793 43.032 134.885 43.012 134.957 43.004C135.045 43.004 135.117 43.036 135.173 43.1C135.229 43.156 135.257 43.268 135.257 43.436C135.257 43.556 135.233 43.668 135.185 43.772C135.145 43.876 135.069 43.944 134.957 43.976C134.861 44.008 134.729 44.036 134.561 44.06C134.401 44.092 134.257 44.108 134.129 44.108ZM138.705 44.108C138.065 44.108 137.513 43.988 137.049 43.748C136.593 43.5 136.237 43.152 135.981 42.704C135.733 42.248 135.609 41.708 135.609 41.084C135.609 40.476 135.733 39.944 135.981 39.488C136.229 39.032 136.569 38.676 137.001 38.42C137.433 38.164 137.925 38.036 138.477 38.036C138.885 38.036 139.249 38.104 139.569 38.24C139.889 38.368 140.161 38.56 140.385 38.816C140.617 39.064 140.789 39.368 140.901 39.728C141.021 40.088 141.081 40.492 141.081 40.94C141.081 41.076 141.041 41.18 140.961 41.252C140.881 41.316 140.761 41.348 140.601 41.348H136.569V40.604H140.265L140.061 40.772C140.061 40.372 140.001 40.032 139.881 39.752C139.769 39.472 139.597 39.26 139.365 39.116C139.141 38.964 138.861 38.888 138.525 38.888C138.149 38.888 137.829 38.976 137.565 39.152C137.309 39.328 137.113 39.572 136.977 39.884C136.841 40.196 136.773 40.56 136.773 40.976V41.048C136.773 41.752 136.937 42.284 137.265 42.644C137.601 42.996 138.085 43.172 138.717 43.172C138.957 43.172 139.209 43.14 139.473 43.076C139.745 43.012 140.001 42.904 140.241 42.752C140.377 42.672 140.497 42.636 140.601 42.644C140.713 42.652 140.801 42.688 140.865 42.752C140.937 42.816 140.981 42.896 140.997 42.992C141.013 43.088 140.997 43.188 140.949 43.292C140.901 43.388 140.817 43.476 140.697 43.556C140.425 43.74 140.109 43.88 139.749 43.976C139.389 44.064 139.041 44.108 138.705 44.108Z" fill="#64728C"/>
<rect x="1.5" y="97.5" width="13" height="13" rx="4.5" fill="#FE5000" stroke="#E84A02"/>
<g filter="url(#filter1_d_534_2118)">
<path d="M6.39753 106.695C5.99816 106.289 5.99816 105.631 6.39753 105.225L10.2542 101.305C10.6536 100.898 11.3011 100.898 11.7005 101.305C12.0998 101.711 12.0998 102.369 11.7005 102.775L7.84379 106.695C7.44441 107.102 6.7969 107.102 6.39753 106.695Z" fill="white"/>
<path d="M7.81423 106.655C7.41486 107.061 6.76735 107.061 6.36797 106.655L4.29953 104.552C3.90016 104.146 3.90016 103.488 4.29953 103.082C4.6989 102.676 5.34641 102.676 5.74579 103.082L7.81423 105.185C8.2136 105.591 8.2136 106.249 7.81423 106.655Z" fill="white"/>
</g>
<path d="M28.776 108.108C27.92 108.108 27.188 107.932 26.58 107.58C25.972 107.228 25.504 106.728 25.176 106.08C24.856 105.424 24.696 104.652 24.696 103.764C24.696 103.1 24.788 102.504 24.972 101.976C25.156 101.44 25.42 100.984 25.764 100.608C26.116 100.224 26.544 99.932 27.048 99.732C27.56 99.532 28.136 99.432 28.776 99.432C29.248 99.432 29.7 99.496 30.132 99.624C30.572 99.752 30.952 99.936 31.272 100.176C31.408 100.264 31.496 100.372 31.536 100.5C31.584 100.62 31.592 100.736 31.56 100.848C31.536 100.96 31.484 101.056 31.404 101.136C31.324 101.208 31.22 101.248 31.092 101.256C30.972 101.264 30.84 101.22 30.696 101.124C30.432 100.924 30.14 100.776 29.82 100.68C29.5 100.584 29.164 100.536 28.812 100.536C28.204 100.536 27.692 100.664 27.276 100.92C26.86 101.168 26.544 101.532 26.328 102.012C26.112 102.492 26.004 103.076 26.004 103.764C26.004 104.452 26.112 105.04 26.328 105.528C26.544 106.008 26.86 106.376 27.276 106.632C27.692 106.88 28.204 107.004 28.812 107.004C29.164 107.004 29.5 106.956 29.82 106.86C30.148 106.756 30.456 106.604 30.744 106.404C30.888 106.316 31.016 106.276 31.128 106.284C31.248 106.292 31.348 106.332 31.428 106.404C31.508 106.476 31.56 106.568 31.584 106.68C31.616 106.784 31.612 106.896 31.572 107.016C31.54 107.128 31.464 107.224 31.344 107.304C31.016 107.568 30.628 107.768 30.18 107.904C29.732 108.04 29.264 108.108 28.776 108.108ZM34.9088 108.108C34.4368 108.108 34.0408 108.02 33.7208 107.844C33.4088 107.668 33.1728 107.408 33.0128 107.064C32.8608 106.712 32.7848 106.272 32.7848 105.744V102.672C32.7848 102.464 32.8368 102.312 32.9408 102.216C33.0448 102.112 33.1928 102.06 33.3848 102.06C33.5768 102.06 33.7248 102.112 33.8288 102.216C33.9408 102.312 33.9968 102.464 33.9968 102.672V105.756C33.9968 106.228 34.0928 106.576 34.2848 106.8C34.4768 107.024 34.7808 107.136 35.1968 107.136C35.6528 107.136 36.0208 106.984 36.3008 106.68C36.5888 106.368 36.7328 105.96 36.7328 105.456V102.672C36.7328 102.464 36.7848 102.312 36.8888 102.216C36.9928 102.112 37.1448 102.06 37.3448 102.06C37.5368 102.06 37.6848 102.112 37.7888 102.216C37.8928 102.312 37.9448 102.464 37.9448 102.672V107.472C37.9448 107.88 37.7488 108.084 37.3568 108.084C37.1728 108.084 37.0288 108.032 36.9248 107.928C36.8208 107.816 36.7688 107.664 36.7688 107.472V106.452L36.9248 106.716C36.7648 107.164 36.5088 107.508 36.1568 107.748C35.8048 107.988 35.3888 108.108 34.9088 108.108ZM41.7048 108.108C41.3528 108.108 40.9888 108.068 40.6128 107.988C40.2448 107.908 39.9048 107.772 39.5928 107.58C39.4888 107.508 39.4168 107.428 39.3768 107.34C39.3368 107.252 39.3208 107.164 39.3288 107.076C39.3448 106.98 39.3808 106.9 39.4368 106.836C39.5008 106.764 39.5768 106.72 39.6648 106.704C39.7608 106.688 39.8608 106.708 39.9648 106.764C40.2768 106.94 40.5768 107.064 40.8648 107.136C41.1528 107.2 41.4368 107.232 41.7168 107.232C42.1408 107.232 42.4608 107.156 42.6768 107.004C42.8928 106.852 43.0008 106.648 43.0008 106.392C43.0008 106.184 42.9288 106.024 42.7848 105.912C42.6408 105.792 42.4248 105.7 42.1368 105.636L40.9968 105.408C40.5008 105.304 40.1248 105.12 39.8688 104.856C39.6128 104.592 39.4848 104.256 39.4848 103.848C39.4848 103.48 39.5848 103.16 39.7848 102.888C39.9848 102.616 40.2648 102.408 40.6248 102.264C40.9848 102.112 41.4008 102.036 41.8728 102.036C42.2248 102.036 42.5568 102.08 42.8688 102.168C43.1808 102.256 43.4688 102.388 43.7328 102.564C43.8368 102.62 43.9048 102.696 43.9368 102.792C43.9688 102.88 43.9728 102.968 43.9488 103.056C43.9328 103.144 43.8928 103.224 43.8288 103.296C43.7648 103.36 43.6848 103.4 43.5888 103.416C43.5008 103.424 43.4008 103.4 43.2888 103.344C43.0488 103.192 42.8088 103.084 42.5688 103.02C42.3368 102.956 42.1048 102.924 41.8728 102.924C41.4488 102.924 41.1288 103.004 40.9128 103.164C40.7048 103.316 40.6008 103.524 40.6008 103.788C40.6008 103.988 40.6648 104.152 40.7928 104.28C40.9208 104.408 41.1208 104.5 41.3928 104.556L42.5328 104.784C43.0528 104.888 43.4448 105.064 43.7088 105.312C43.9808 105.56 44.1168 105.896 44.1168 106.32C44.1168 106.872 43.8968 107.308 43.4568 107.628C43.0168 107.948 42.4328 108.108 41.7048 108.108ZM47.9027 108.108C47.4227 108.108 47.0187 108.024 46.6907 107.856C46.3627 107.688 46.1187 107.44 45.9587 107.112C45.7987 106.784 45.7187 106.384 45.7187 105.912V103.08H44.9987C44.8387 103.08 44.7147 103.04 44.6267 102.96C44.5387 102.872 44.4947 102.756 44.4947 102.612C44.4947 102.46 44.5387 102.344 44.6267 102.264C44.7147 102.184 44.8387 102.144 44.9987 102.144H45.7187V100.908C45.7187 100.708 45.7707 100.556 45.8747 100.452C45.9867 100.348 46.1387 100.296 46.3307 100.296C46.5227 100.296 46.6707 100.348 46.7747 100.452C46.8787 100.556 46.9307 100.708 46.9307 100.908V102.144H48.3347C48.4947 102.144 48.6187 102.184 48.7067 102.264C48.7947 102.344 48.8387 102.46 48.8387 102.612C48.8387 102.756 48.7947 102.872 48.7067 102.96C48.6187 103.04 48.4947 103.08 48.3347 103.08H46.9307V105.816C46.9307 106.24 47.0187 106.56 47.1947 106.776C47.3787 106.992 47.6747 107.1 48.0827 107.1C48.2267 107.1 48.3507 107.088 48.4547 107.064C48.5667 107.032 48.6587 107.012 48.7307 107.004C48.8187 107.004 48.8907 107.036 48.9467 107.1C49.0027 107.156 49.0307 107.268 49.0307 107.436C49.0307 107.556 49.0067 107.668 48.9587 107.772C48.9187 107.876 48.8427 107.944 48.7307 107.976C48.6347 108.008 48.5027 108.036 48.3347 108.06C48.1747 108.092 48.0307 108.108 47.9027 108.108ZM52.2749 108.108C51.6829 108.108 51.1709 107.984 50.7389 107.736C50.3149 107.488 49.9829 107.136 49.7429 106.68C49.5029 106.224 49.3829 105.688 49.3829 105.072C49.3829 104.6 49.4509 104.18 49.5869 103.812C49.7229 103.444 49.9149 103.128 50.1629 102.864C50.4189 102.592 50.7229 102.388 51.0749 102.252C51.4349 102.108 51.8349 102.036 52.2749 102.036C52.8589 102.036 53.3629 102.16 53.7869 102.408C54.2189 102.656 54.5549 103.008 54.7949 103.464C55.0349 103.912 55.1549 104.448 55.1549 105.072C55.1549 105.536 55.0869 105.956 54.9509 106.332C54.8149 106.708 54.6189 107.028 54.3629 107.292C54.1149 107.556 53.8109 107.76 53.4509 107.904C53.0989 108.04 52.7069 108.108 52.2749 108.108ZM52.2749 107.172C52.6029 107.172 52.8909 107.092 53.1389 106.932C53.3869 106.772 53.5789 106.536 53.7149 106.224C53.8589 105.912 53.9309 105.528 53.9309 105.072C53.9309 104.384 53.7789 103.864 53.4749 103.512C53.1709 103.16 52.7709 102.984 52.2749 102.984C51.9389 102.984 51.6469 103.064 51.3989 103.224C51.1509 103.376 50.9549 103.608 50.8109 103.92C50.6749 104.232 50.6069 104.616 50.6069 105.072C50.6069 105.752 50.7589 106.272 51.0629 106.632C51.3669 106.992 51.7709 107.172 52.2749 107.172ZM57.1401 108.084C56.9481 108.084 56.8001 108.032 56.6961 107.928C56.5921 107.816 56.5401 107.664 56.5401 107.472V102.672C56.5401 102.472 56.5921 102.32 56.6961 102.216C56.8001 102.112 56.9441 102.06 57.1281 102.06C57.3201 102.06 57.4641 102.112 57.5601 102.216C57.6641 102.32 57.7161 102.472 57.7161 102.672V103.656L57.5841 103.392C57.7441 102.968 57.9921 102.636 58.3281 102.396C58.6641 102.156 59.0681 102.036 59.5401 102.036C60.0281 102.036 60.4241 102.152 60.7281 102.384C61.0321 102.616 61.2401 102.972 61.3521 103.452H61.1841C61.3361 103.012 61.5961 102.668 61.9641 102.42C62.3321 102.164 62.7601 102.036 63.2481 102.036C63.6961 102.036 64.0641 102.124 64.3521 102.3C64.6401 102.468 64.8561 102.728 65.0001 103.08C65.1441 103.424 65.2161 103.86 65.2161 104.388V107.472C65.2161 107.664 65.1601 107.816 65.0481 107.928C64.9441 108.032 64.7961 108.084 64.6041 108.084C64.4121 108.084 64.2641 108.032 64.1601 107.928C64.0561 107.816 64.0041 107.664 64.0041 107.472V104.448C64.0041 103.952 63.9161 103.588 63.7401 103.356C63.5721 103.124 63.2921 103.008 62.9001 103.008C62.4601 103.008 62.1121 103.16 61.8561 103.464C61.6001 103.768 61.4721 104.188 61.4721 104.724V107.472C61.4721 107.664 61.4201 107.816 61.3161 107.928C61.2121 108.032 61.0641 108.084 60.8721 108.084C60.6801 108.084 60.5281 108.032 60.4161 107.928C60.3121 107.816 60.2601 107.664 60.2601 107.472V104.448C60.2601 103.952 60.1761 103.588 60.0081 103.356C59.8401 103.124 59.5601 103.008 59.1681 103.008C58.7281 103.008 58.3801 103.16 58.1241 103.464C57.8761 103.768 57.7521 104.188 57.7521 104.724V107.472C57.7521 107.88 57.5481 108.084 57.1401 108.084ZM69.6586 108.108C69.0186 108.108 68.4666 107.988 68.0026 107.748C67.5466 107.5 67.1906 107.152 66.9346 106.704C66.6866 106.248 66.5626 105.708 66.5626 105.084C66.5626 104.476 66.6866 103.944 66.9346 103.488C67.1826 103.032 67.5226 102.676 67.9546 102.42C68.3866 102.164 68.8786 102.036 69.4306 102.036C69.8386 102.036 70.2026 102.104 70.5226 102.24C70.8426 102.368 71.1146 102.56 71.3386 102.816C71.5706 103.064 71.7426 103.368 71.8546 103.728C71.9746 104.088 72.0346 104.492 72.0346 104.94C72.0346 105.076 71.9946 105.18 71.9146 105.252C71.8346 105.316 71.7146 105.348 71.5546 105.348H67.5226V104.604H71.2186L71.0146 104.772C71.0146 104.372 70.9546 104.032 70.8346 103.752C70.7226 103.472 70.5506 103.26 70.3186 103.116C70.0946 102.964 69.8146 102.888 69.4786 102.888C69.1026 102.888 68.7826 102.976 68.5186 103.152C68.2626 103.328 68.0666 103.572 67.9306 103.884C67.7946 104.196 67.7266 104.56 67.7266 104.976V105.048C67.7266 105.752 67.8906 106.284 68.2186 106.644C68.5546 106.996 69.0386 107.172 69.6706 107.172C69.9106 107.172 70.1626 107.14 70.4266 107.076C70.6986 107.012 70.9546 106.904 71.1946 106.752C71.3306 106.672 71.4506 106.636 71.5546 106.644C71.6666 106.652 71.7546 106.688 71.8186 106.752C71.8906 106.816 71.9346 106.896 71.9506 106.992C71.9666 107.088 71.9506 107.188 71.9026 107.292C71.8546 107.388 71.7706 107.476 71.6506 107.556C71.3786 107.74 71.0626 107.88 70.7026 107.976C70.3426 108.064 69.9946 108.108 69.6586 108.108ZM73.9679 108.084C73.7679 108.084 73.6159 108.032 73.5119 107.928C73.4079 107.816 73.3559 107.664 73.3559 107.472V102.672C73.3559 102.472 73.4079 102.32 73.5119 102.216C73.6159 102.112 73.7599 102.06 73.9439 102.06C74.1359 102.06 74.2799 102.112 74.3759 102.216C74.4799 102.32 74.5319 102.472 74.5319 102.672V103.548H74.4119C74.5399 103.068 74.7759 102.704 75.1199 102.456C75.4639 102.208 75.9039 102.064 76.4399 102.024C76.5839 102.016 76.6959 102.052 76.7759 102.132C76.8639 102.212 76.9119 102.336 76.9199 102.504C76.9359 102.672 76.8999 102.808 76.8119 102.912C76.7239 103.008 76.5879 103.064 76.4039 103.08L76.1759 103.104C75.6559 103.152 75.2599 103.316 74.9879 103.596C74.7159 103.876 74.5799 104.26 74.5799 104.748V107.472C74.5799 107.664 74.5279 107.816 74.4239 107.928C74.3279 108.032 74.1759 108.084 73.9679 108.084Z" fill="#64728C"/>
<rect x="1.5" y="65.5" width="13" height="13" rx="4.5" fill="#FE5000" stroke="#E84A02"/>
<g filter="url(#filter2_d_534_2118)">
<path d="M6.39753 74.6955C5.99816 74.2895 5.99816 73.6312 6.39753 73.2252L10.2542 69.3045C10.6536 68.8985 11.3011 68.8985 11.7005 69.3045C12.0998 69.7105 12.0998 70.3688 11.7005 70.7748L7.84379 74.6955C7.44441 75.1015 6.7969 75.1015 6.39753 74.6955Z" fill="white"/>
<path d="M7.81423 74.6549C7.41486 75.061 6.76735 75.061 6.36797 74.6549L4.29953 72.5522C3.90016 72.1462 3.90016 71.4879 4.29953 71.0819C4.6989 70.6759 5.34641 70.6759 5.74579 71.0819L7.81423 73.1847C8.2136 73.5907 8.2136 74.2489 7.81423 74.6549Z" fill="white"/>
</g>
<path d="M27.672 76.084C27.472 76.084 27.316 76.028 27.204 75.916C27.1 75.804 27.048 75.648 27.048 75.448V68.584H24.504C24.336 68.584 24.204 68.54 24.108 68.452C24.012 68.356 23.964 68.224 23.964 68.056C23.964 67.888 24.012 67.76 24.108 67.672C24.204 67.584 24.336 67.54 24.504 67.54H30.828C31.004 67.54 31.14 67.584 31.236 67.672C31.332 67.76 31.38 67.888 31.38 68.056C31.38 68.224 31.332 68.356 31.236 68.452C31.14 68.54 31.004 68.584 30.828 68.584H28.284V75.448C28.284 75.648 28.232 75.804 28.128 75.916C28.032 76.028 27.88 76.084 27.672 76.084ZM33.2567 76.072C33.0647 76.072 32.9167 76.016 32.8127 75.904C32.7087 75.784 32.6567 75.62 32.6567 75.412V70.732C32.6567 70.524 32.7087 70.364 32.8127 70.252C32.9167 70.14 33.0647 70.084 33.2567 70.084C33.4487 70.084 33.5967 70.14 33.7007 70.252C33.8127 70.364 33.8687 70.524 33.8687 70.732V75.412C33.8687 75.62 33.8167 75.784 33.7127 75.904C33.6087 76.016 33.4567 76.072 33.2567 76.072ZM33.2567 68.836C33.0167 68.836 32.8287 68.776 32.6927 68.656C32.5647 68.536 32.5007 68.368 32.5007 68.152C32.5007 67.928 32.5647 67.76 32.6927 67.648C32.8287 67.528 33.0167 67.468 33.2567 67.468C33.4967 67.468 33.6807 67.528 33.8087 67.648C33.9447 67.76 34.0127 67.928 34.0127 68.152C34.0127 68.368 33.9447 68.536 33.8087 68.656C33.6807 68.776 33.4967 68.836 33.2567 68.836ZM36.1987 76.084C36.0067 76.084 35.8587 76.032 35.7547 75.928C35.6507 75.816 35.5987 75.664 35.5987 75.472V70.672C35.5987 70.472 35.6507 70.32 35.7547 70.216C35.8587 70.112 36.0027 70.06 36.1867 70.06C36.3787 70.06 36.5227 70.112 36.6187 70.216C36.7227 70.32 36.7747 70.472 36.7747 70.672V71.656L36.6427 71.392C36.8027 70.968 37.0507 70.636 37.3867 70.396C37.7227 70.156 38.1267 70.036 38.5987 70.036C39.0867 70.036 39.4827 70.152 39.7867 70.384C40.0907 70.616 40.2987 70.972 40.4107 71.452H40.2427C40.3947 71.012 40.6547 70.668 41.0227 70.42C41.3907 70.164 41.8187 70.036 42.3067 70.036C42.7547 70.036 43.1227 70.124 43.4107 70.3C43.6987 70.468 43.9147 70.728 44.0587 71.08C44.2027 71.424 44.2747 71.86 44.2747 72.388V75.472C44.2747 75.664 44.2187 75.816 44.1067 75.928C44.0027 76.032 43.8547 76.084 43.6627 76.084C43.4707 76.084 43.3227 76.032 43.2187 75.928C43.1147 75.816 43.0627 75.664 43.0627 75.472V72.448C43.0627 71.952 42.9747 71.588 42.7987 71.356C42.6307 71.124 42.3507 71.008 41.9587 71.008C41.5187 71.008 41.1707 71.16 40.9147 71.464C40.6587 71.768 40.5307 72.188 40.5307 72.724V75.472C40.5307 75.664 40.4787 75.816 40.3747 75.928C40.2707 76.032 40.1227 76.084 39.9307 76.084C39.7387 76.084 39.5867 76.032 39.4747 75.928C39.3707 75.816 39.3187 75.664 39.3187 75.472V72.448C39.3187 71.952 39.2347 71.588 39.0667 71.356C38.8987 71.124 38.6187 71.008 38.2267 71.008C37.7867 71.008 37.4387 71.16 37.1827 71.464C36.9347 71.768 36.8107 72.188 36.8107 72.724V75.472C36.8107 75.88 36.6067 76.084 36.1987 76.084ZM48.7172 76.108C48.0772 76.108 47.5252 75.988 47.0612 75.748C46.6052 75.5 46.2492 75.152 45.9932 74.704C45.7452 74.248 45.6212 73.708 45.6212 73.084C45.6212 72.476 45.7452 71.944 45.9932 71.488C46.2412 71.032 46.5812 70.676 47.0132 70.42C47.4452 70.164 47.9372 70.036 48.4892 70.036C48.8972 70.036 49.2612 70.104 49.5812 70.24C49.9012 70.368 50.1732 70.56 50.3972 70.816C50.6292 71.064 50.8012 71.368 50.9132 71.728C51.0332 72.088 51.0932 72.492 51.0932 72.94C51.0932 73.076 51.0532 73.18 50.9732 73.252C50.8932 73.316 50.7732 73.348 50.6132 73.348H46.5812V72.604H50.2772L50.0732 72.772C50.0732 72.372 50.0132 72.032 49.8932 71.752C49.7812 71.472 49.6092 71.26 49.3772 71.116C49.1532 70.964 48.8732 70.888 48.5372 70.888C48.1612 70.888 47.8412 70.976 47.5772 71.152C47.3212 71.328 47.1252 71.572 46.9892 71.884C46.8532 72.196 46.7852 72.56 46.7852 72.976V73.048C46.7852 73.752 46.9492 74.284 47.2772 74.644C47.6132 74.996 48.0972 75.172 48.7292 75.172C48.9692 75.172 49.2212 75.14 49.4852 75.076C49.7572 75.012 50.0132 74.904 50.2532 74.752C50.3892 74.672 50.5092 74.636 50.6132 74.644C50.7252 74.652 50.8132 74.688 50.8772 74.752C50.9492 74.816 50.9932 74.896 51.0092 74.992C51.0252 75.088 51.0092 75.188 50.9612 75.292C50.9132 75.388 50.8292 75.476 50.7092 75.556C50.4372 75.74 50.1212 75.88 49.7612 75.976C49.4012 76.064 49.0532 76.108 48.7172 76.108ZM54.4665 76.108C54.1145 76.108 53.7505 76.068 53.3745 75.988C53.0065 75.908 52.6665 75.772 52.3545 75.58C52.2505 75.508 52.1785 75.428 52.1385 75.34C52.0985 75.252 52.0825 75.164 52.0905 75.076C52.1065 74.98 52.1425 74.9 52.1985 74.836C52.2625 74.764 52.3385 74.72 52.4265 74.704C52.5225 74.688 52.6225 74.708 52.7265 74.764C53.0385 74.94 53.3385 75.064 53.6265 75.136C53.9145 75.2 54.1985 75.232 54.4785 75.232C54.9025 75.232 55.2225 75.156 55.4385 75.004C55.6545 74.852 55.7625 74.648 55.7625 74.392C55.7625 74.184 55.6905 74.024 55.5465 73.912C55.4025 73.792 55.1865 73.7 54.8985 73.636L53.7585 73.408C53.2625 73.304 52.8865 73.12 52.6305 72.856C52.3745 72.592 52.2465 72.256 52.2465 71.848C52.2465 71.48 52.3465 71.16 52.5465 70.888C52.7465 70.616 53.0265 70.408 53.3865 70.264C53.7465 70.112 54.1625 70.036 54.6345 70.036C54.9865 70.036 55.3185 70.08 55.6305 70.168C55.9425 70.256 56.2305 70.388 56.4945 70.564C56.5985 70.62 56.6665 70.696 56.6985 70.792C56.7305 70.88 56.7345 70.968 56.7105 71.056C56.6945 71.144 56.6545 71.224 56.5905 71.296C56.5265 71.36 56.4465 71.4 56.3505 71.416C56.2625 71.424 56.1625 71.4 56.0505 71.344C55.8105 71.192 55.5705 71.084 55.3305 71.02C55.0985 70.956 54.8665 70.924 54.6345 70.924C54.2105 70.924 53.8905 71.004 53.6745 71.164C53.4665 71.316 53.3625 71.524 53.3625 71.788C53.3625 71.988 53.4265 72.152 53.5545 72.28C53.6825 72.408 53.8825 72.5 54.1545 72.556L55.2945 72.784C55.8145 72.888 56.2065 73.064 56.4705 73.312C56.7425 73.56 56.8785 73.896 56.8785 74.32C56.8785 74.872 56.6585 75.308 56.2185 75.628C55.7785 75.948 55.1945 76.108 54.4665 76.108ZM58.827 76.084C58.635 76.084 58.487 76.032 58.383 75.928C58.279 75.816 58.227 75.664 58.227 75.472V68.068C58.227 67.868 58.279 67.716 58.383 67.612C58.487 67.508 58.635 67.456 58.827 67.456C59.019 67.456 59.167 67.508 59.271 67.612C59.383 67.716 59.439 67.868 59.439 68.068V71.392H59.271C59.447 70.944 59.723 70.608 60.099 70.384C60.475 70.152 60.907 70.036 61.395 70.036C61.859 70.036 62.243 70.124 62.547 70.3C62.859 70.468 63.091 70.728 63.243 71.08C63.395 71.424 63.471 71.86 63.471 72.388V75.472C63.471 75.664 63.419 75.816 63.315 75.928C63.211 76.032 63.063 76.084 62.871 76.084C62.671 76.084 62.519 76.032 62.415 75.928C62.311 75.816 62.259 75.664 62.259 75.472V72.46C62.259 71.956 62.159 71.588 61.959 71.356C61.767 71.124 61.463 71.008 61.047 71.008C60.559 71.008 60.167 71.16 59.871 71.464C59.583 71.768 59.439 72.176 59.439 72.688V75.472C59.439 75.88 59.235 76.084 58.827 76.084ZM67.8891 76.108C67.2491 76.108 66.6971 75.988 66.2331 75.748C65.7771 75.5 65.4211 75.152 65.1651 74.704C64.9171 74.248 64.7931 73.708 64.7931 73.084C64.7931 72.476 64.9171 71.944 65.1651 71.488C65.4131 71.032 65.7531 70.676 66.1851 70.42C66.6171 70.164 67.1091 70.036 67.6611 70.036C68.0691 70.036 68.4331 70.104 68.7531 70.24C69.0731 70.368 69.3451 70.56 69.5691 70.816C69.8011 71.064 69.9731 71.368 70.0851 71.728C70.2051 72.088 70.2651 72.492 70.2651 72.94C70.2651 73.076 70.2251 73.18 70.1451 73.252C70.0651 73.316 69.9451 73.348 69.7851 73.348H65.7531V72.604H69.4491L69.2451 72.772C69.2451 72.372 69.1851 72.032 69.0651 71.752C68.9531 71.472 68.7811 71.26 68.5491 71.116C68.3251 70.964 68.0451 70.888 67.7091 70.888C67.3331 70.888 67.0131 70.976 66.7491 71.152C66.4931 71.328 66.2971 71.572 66.1611 71.884C66.0251 72.196 65.9571 72.56 65.9571 72.976V73.048C65.9571 73.752 66.1211 74.284 66.4491 74.644C66.7851 74.996 67.2691 75.172 67.9011 75.172C68.1411 75.172 68.3931 75.14 68.6571 75.076C68.9291 75.012 69.1851 74.904 69.4251 74.752C69.5611 74.672 69.6811 74.636 69.7851 74.644C69.8971 74.652 69.9851 74.688 70.0491 74.752C70.1211 74.816 70.1651 74.896 70.1811 74.992C70.1971 75.088 70.1811 75.188 70.1331 75.292C70.0851 75.388 70.0011 75.476 69.8811 75.556C69.6091 75.74 69.2931 75.88 68.9331 75.976C68.5731 76.064 68.2251 76.108 67.8891 76.108ZM74.3344 76.108C73.6944 76.108 73.1424 75.988 72.6784 75.748C72.2224 75.5 71.8664 75.152 71.6104 74.704C71.3624 74.248 71.2384 73.708 71.2384 73.084C71.2384 72.476 71.3624 71.944 71.6104 71.488C71.8584 71.032 72.1984 70.676 72.6304 70.42C73.0624 70.164 73.5544 70.036 74.1064 70.036C74.5144 70.036 74.8784 70.104 75.1984 70.24C75.5184 70.368 75.7904 70.56 76.0144 70.816C76.2464 71.064 76.4184 71.368 76.5304 71.728C76.6504 72.088 76.7104 72.492 76.7104 72.94C76.7104 73.076 76.6704 73.18 76.5904 73.252C76.5104 73.316 76.3904 73.348 76.2304 73.348H72.1984V72.604H75.8944L75.6904 72.772C75.6904 72.372 75.6304 72.032 75.5104 71.752C75.3984 71.472 75.2264 71.26 74.9944 71.116C74.7704 70.964 74.4904 70.888 74.1544 70.888C73.7784 70.888 73.4584 70.976 73.1944 71.152C72.9384 71.328 72.7424 71.572 72.6064 71.884C72.4704 72.196 72.4024 72.56 72.4024 72.976V73.048C72.4024 73.752 72.5664 74.284 72.8944 74.644C73.2304 74.996 73.7144 75.172 74.3464 75.172C74.5864 75.172 74.8384 75.14 75.1024 75.076C75.3744 75.012 75.6304 74.904 75.8704 74.752C76.0064 74.672 76.1264 74.636 76.2304 74.644C76.3424 74.652 76.4304 74.688 76.4944 74.752C76.5664 74.816 76.6104 74.896 76.6264 74.992C76.6424 75.088 76.6264 75.188 76.5784 75.292C76.5304 75.388 76.4464 75.476 76.3264 75.556C76.0544 75.74 75.7384 75.88 75.3784 75.976C75.0184 76.064 74.6704 76.108 74.3344 76.108ZM80.516 76.108C80.036 76.108 79.632 76.024 79.304 75.856C78.976 75.688 78.732 75.44 78.572 75.112C78.412 74.784 78.332 74.384 78.332 73.912V71.08H77.612C77.452 71.08 77.328 71.04 77.24 70.96C77.152 70.872 77.108 70.756 77.108 70.612C77.108 70.46 77.152 70.344 77.24 70.264C77.328 70.184 77.452 70.144 77.612 70.144H78.332V68.908C78.332 68.708 78.384 68.556 78.488 68.452C78.6 68.348 78.752 68.296 78.944 68.296C79.136 68.296 79.284 68.348 79.388 68.452C79.492 68.556 79.544 68.708 79.544 68.908V70.144H80.948C81.108 70.144 81.232 70.184 81.32 70.264C81.408 70.344 81.452 70.46 81.452 70.612C81.452 70.756 81.408 70.872 81.32 70.96C81.232 71.04 81.108 71.08 80.948 71.08H79.544V73.816C79.544 74.24 79.632 74.56 79.808 74.776C79.992 74.992 80.288 75.1 80.696 75.1C80.84 75.1 80.964 75.088 81.068 75.064C81.18 75.032 81.272 75.012 81.344 75.004C81.432 75.004 81.504 75.036 81.56 75.1C81.616 75.156 81.644 75.268 81.644 75.436C81.644 75.556 81.62 75.668 81.572 75.772C81.532 75.876 81.456 75.944 81.344 75.976C81.248 76.008 81.116 76.036 80.948 76.06C80.788 76.092 80.644 76.108 80.516 76.108ZM88.5188 76.108C88.1508 76.108 87.7908 76.08 87.4388 76.024C87.0868 75.968 86.7548 75.884 86.4428 75.772C86.1308 75.652 85.8508 75.508 85.6028 75.34C85.4828 75.252 85.3988 75.152 85.3508 75.04C85.3108 74.928 85.2988 74.82 85.3148 74.716C85.3388 74.604 85.3868 74.508 85.4588 74.428C85.5308 74.348 85.6188 74.3 85.7228 74.284C85.8268 74.26 85.9428 74.292 86.0708 74.38C86.4308 74.612 86.8108 74.784 87.2108 74.896C87.6108 75 88.0468 75.052 88.5188 75.052C89.1988 75.052 89.6988 74.932 90.0188 74.692C90.3468 74.444 90.5108 74.124 90.5108 73.732C90.5108 73.412 90.3948 73.16 90.1628 72.976C89.9308 72.784 89.5428 72.632 88.9988 72.52L87.7148 72.256C86.9548 72.096 86.3868 71.832 86.0108 71.464C85.6428 71.096 85.4588 70.6 85.4588 69.976C85.4588 69.6 85.5348 69.256 85.6868 68.944C85.8468 68.632 86.0668 68.364 86.3468 68.14C86.6268 67.908 86.9628 67.732 87.3548 67.612C87.7468 67.492 88.1748 67.432 88.6388 67.432C89.1348 67.432 89.5988 67.496 90.0308 67.624C90.4708 67.752 90.8628 67.948 91.2068 68.212C91.3108 68.284 91.3788 68.376 91.4108 68.488C91.4508 68.592 91.4588 68.696 91.4348 68.8C91.4188 68.904 91.3748 68.992 91.3028 69.064C91.2308 69.136 91.1388 69.18 91.0268 69.196C90.9148 69.204 90.7908 69.164 90.6548 69.076C90.3428 68.868 90.0228 68.72 89.6948 68.632C89.3748 68.536 89.0188 68.488 88.6268 68.488C88.2348 68.488 87.8908 68.548 87.5948 68.668C87.3068 68.788 87.0828 68.956 86.9228 69.172C86.7708 69.388 86.6948 69.644 86.6948 69.94C86.6948 70.276 86.8028 70.544 87.0188 70.744C87.2348 70.944 87.5948 71.096 88.0988 71.2L89.3708 71.464C90.1708 71.632 90.7668 71.892 91.1588 72.244C91.5508 72.596 91.7468 73.064 91.7468 73.648C91.7468 74.024 91.6708 74.364 91.5188 74.668C91.3668 74.964 91.1508 75.22 90.8708 75.436C90.5908 75.652 90.2508 75.82 89.8508 75.94C89.4588 76.052 89.0148 76.108 88.5188 76.108ZM95.4925 76.108C95.0125 76.108 94.6085 76.024 94.2805 75.856C93.9525 75.688 93.7085 75.44 93.5485 75.112C93.3885 74.784 93.3085 74.384 93.3085 73.912V71.08H92.5885C92.4285 71.08 92.3045 71.04 92.2165 70.96C92.1285 70.872 92.0845 70.756 92.0845 70.612C92.0845 70.46 92.1285 70.344 92.2165 70.264C92.3045 70.184 92.4285 70.144 92.5885 70.144H93.3085V68.908C93.3085 68.708 93.3605 68.556 93.4645 68.452C93.5765 68.348 93.7285 68.296 93.9205 68.296C94.1125 68.296 94.2605 68.348 94.3645 68.452C94.4685 68.556 94.5205 68.708 94.5205 68.908V70.144H95.9245C96.0845 70.144 96.2085 70.184 96.2965 70.264C96.3845 70.344 96.4285 70.46 96.4285 70.612C96.4285 70.756 96.3845 70.872 96.2965 70.96C96.2085 71.04 96.0845 71.08 95.9245 71.08H94.5205V73.816C94.5205 74.24 94.6085 74.56 94.7845 74.776C94.9685 74.992 95.2645 75.1 95.6725 75.1C95.8165 75.1 95.9405 75.088 96.0445 75.064C96.1565 75.032 96.2485 75.012 96.3205 75.004C96.4085 75.004 96.4805 75.036 96.5365 75.1C96.5925 75.156 96.6205 75.268 96.6205 75.436C96.6205 75.556 96.5965 75.668 96.5485 75.772C96.5085 75.876 96.4325 75.944 96.3205 75.976C96.2245 76.008 96.0925 76.036 95.9245 76.06C95.7645 76.092 95.6205 76.108 95.4925 76.108ZM99.2513 76.108C98.8433 76.108 98.4753 76.028 98.1473 75.868C97.8273 75.708 97.5753 75.492 97.3913 75.22C97.2073 74.948 97.1153 74.64 97.1153 74.296C97.1153 73.864 97.2233 73.524 97.4393 73.276C97.6633 73.02 98.0273 72.84 98.5313 72.736C99.0433 72.624 99.7313 72.568 100.595 72.568H101.159V73.312H100.607C100.031 73.312 99.5753 73.34 99.2393 73.396C98.9033 73.452 98.6633 73.548 98.5193 73.684C98.3833 73.812 98.3153 73.992 98.3153 74.224C98.3153 74.528 98.4193 74.776 98.6273 74.968C98.8353 75.152 99.1233 75.244 99.4913 75.244C99.7873 75.244 100.047 75.176 100.271 75.04C100.495 74.896 100.671 74.704 100.799 74.464C100.935 74.224 101.003 73.948 101.003 73.636V72.256C101.003 71.8 100.907 71.472 100.715 71.272C100.523 71.072 100.207 70.972 99.7673 70.972C99.5113 70.972 99.2433 71.004 98.9633 71.068C98.6913 71.132 98.4073 71.24 98.1113 71.392C97.9753 71.456 97.8593 71.476 97.7633 71.452C97.6673 71.428 97.5913 71.376 97.5353 71.296C97.4793 71.208 97.4473 71.116 97.4393 71.02C97.4393 70.916 97.4633 70.816 97.5113 70.72C97.5673 70.624 97.6593 70.552 97.7873 70.504C98.1393 70.336 98.4873 70.216 98.8313 70.144C99.1753 70.072 99.4993 70.036 99.8033 70.036C100.339 70.036 100.779 70.12 101.123 70.288C101.475 70.456 101.735 70.712 101.903 71.056C102.071 71.4 102.155 71.844 102.155 72.388V75.472C102.155 75.664 102.107 75.816 102.011 75.928C101.915 76.032 101.775 76.084 101.591 76.084C101.415 76.084 101.275 76.032 101.171 75.928C101.067 75.816 101.015 75.664 101.015 75.472V74.692H101.123C101.059 74.988 100.939 75.244 100.763 75.46C100.595 75.668 100.383 75.828 100.127 75.94C99.8713 76.052 99.5793 76.108 99.2513 76.108ZM106.321 76.108C105.841 76.108 105.437 76.024 105.109 75.856C104.781 75.688 104.537 75.44 104.377 75.112C104.217 74.784 104.137 74.384 104.137 73.912V71.08H103.417C103.257 71.08 103.133 71.04 103.045 70.96C102.957 70.872 102.913 70.756 102.913 70.612C102.913 70.46 102.957 70.344 103.045 70.264C103.133 70.184 103.257 70.144 103.417 70.144H104.137V68.908C104.137 68.708 104.189 68.556 104.293 68.452C104.405 68.348 104.557 68.296 104.749 68.296C104.941 68.296 105.089 68.348 105.193 68.452C105.297 68.556 105.349 68.708 105.349 68.908V70.144H106.753C106.913 70.144 107.037 70.184 107.125 70.264C107.213 70.344 107.257 70.46 107.257 70.612C107.257 70.756 107.213 70.872 107.125 70.96C107.037 71.04 106.913 71.08 106.753 71.08H105.349V73.816C105.349 74.24 105.437 74.56 105.613 74.776C105.797 74.992 106.093 75.1 106.501 75.1C106.645 75.1 106.769 75.088 106.873 75.064C106.985 75.032 107.077 75.012 107.149 75.004C107.237 75.004 107.309 75.036 107.365 75.1C107.421 75.156 107.449 75.268 107.449 75.436C107.449 75.556 107.425 75.668 107.377 75.772C107.337 75.876 107.261 75.944 107.149 75.976C107.053 76.008 106.921 76.036 106.753 76.06C106.593 76.092 106.449 76.108 106.321 76.108ZM110.295 76.108C109.823 76.108 109.427 76.02 109.107 75.844C108.795 75.668 108.559 75.408 108.399 75.064C108.247 74.712 108.171 74.272 108.171 73.744V70.672C108.171 70.464 108.223 70.312 108.327 70.216C108.431 70.112 108.579 70.06 108.771 70.06C108.963 70.06 109.111 70.112 109.215 70.216C109.327 70.312 109.383 70.464 109.383 70.672V73.756C109.383 74.228 109.479 74.576 109.671 74.8C109.863 75.024 110.167 75.136 110.583 75.136C111.039 75.136 111.407 74.984 111.687 74.68C111.975 74.368 112.119 73.96 112.119 73.456V70.672C112.119 70.464 112.171 70.312 112.275 70.216C112.379 70.112 112.531 70.06 112.731 70.06C112.923 70.06 113.071 70.112 113.175 70.216C113.279 70.312 113.331 70.464 113.331 70.672V75.472C113.331 75.88 113.135 76.084 112.743 76.084C112.559 76.084 112.415 76.032 112.311 75.928C112.207 75.816 112.155 75.664 112.155 75.472V74.452L112.311 74.716C112.151 75.164 111.895 75.508 111.543 75.748C111.191 75.988 110.775 76.108 110.295 76.108ZM117.092 76.108C116.74 76.108 116.376 76.068 116 75.988C115.632 75.908 115.292 75.772 114.979 75.58C114.876 75.508 114.804 75.428 114.764 75.34C114.724 75.252 114.708 75.164 114.716 75.076C114.732 74.98 114.768 74.9 114.824 74.836C114.888 74.764 114.964 74.72 115.052 74.704C115.148 74.688 115.248 74.708 115.352 74.764C115.664 74.94 115.964 75.064 116.252 75.136C116.54 75.2 116.824 75.232 117.104 75.232C117.528 75.232 117.848 75.156 118.064 75.004C118.28 74.852 118.388 74.648 118.388 74.392C118.388 74.184 118.316 74.024 118.172 73.912C118.028 73.792 117.812 73.7 117.524 73.636L116.384 73.408C115.888 73.304 115.512 73.12 115.256 72.856C115 72.592 114.872 72.256 114.872 71.848C114.872 71.48 114.972 71.16 115.172 70.888C115.372 70.616 115.652 70.408 116.012 70.264C116.372 70.112 116.788 70.036 117.26 70.036C117.612 70.036 117.944 70.08 118.256 70.168C118.568 70.256 118.856 70.388 119.12 70.564C119.224 70.62 119.292 70.696 119.324 70.792C119.356 70.88 119.36 70.968 119.336 71.056C119.32 71.144 119.28 71.224 119.216 71.296C119.152 71.36 119.072 71.4 118.976 71.416C118.888 71.424 118.788 71.4 118.676 71.344C118.436 71.192 118.196 71.084 117.956 71.02C117.724 70.956 117.492 70.924 117.26 70.924C116.836 70.924 116.516 71.004 116.3 71.164C116.092 71.316 115.988 71.524 115.988 71.788C115.988 71.988 116.052 72.152 116.18 72.28C116.308 72.408 116.508 72.5 116.78 72.556L117.92 72.784C118.44 72.888 118.832 73.064 119.096 73.312C119.368 73.56 119.504 73.896 119.504 74.32C119.504 74.872 119.284 75.308 118.844 75.628C118.404 75.948 117.82 76.108 117.092 76.108Z" fill="#64728C"/>
<rect x="1.5" y="129.5" width="13" height="13" rx="4.5" fill="white" stroke="#D9D9D9"/>
<path d="M25.608 140.084C25.408 140.084 25.252 140.028 25.14 139.916C25.036 139.804 24.984 139.648 24.984 139.448V132.176C24.984 131.968 25.04 131.812 25.152 131.708C25.264 131.596 25.42 131.54 25.62 131.54H28.488C29.4 131.54 30.104 131.768 30.6 132.224C31.096 132.672 31.344 133.304 31.344 134.12C31.344 134.944 31.096 135.584 30.6 136.04C30.104 136.488 29.4 136.712 28.488 136.712H26.232V139.448C26.232 139.648 26.18 139.804 26.076 139.916C25.972 140.028 25.816 140.084 25.608 140.084ZM26.232 135.716H28.308C28.908 135.716 29.36 135.584 29.664 135.32C29.976 135.048 30.132 134.648 30.132 134.12C30.132 133.6 29.976 133.208 29.664 132.944C29.36 132.672 28.908 132.536 28.308 132.536H26.232V135.716ZM33.046 140.084C32.846 140.084 32.694 140.032 32.59 139.928C32.486 139.816 32.434 139.664 32.434 139.472V134.672C32.434 134.472 32.486 134.32 32.59 134.216C32.694 134.112 32.838 134.06 33.022 134.06C33.214 134.06 33.358 134.112 33.454 134.216C33.558 134.32 33.61 134.472 33.61 134.672V135.548H33.49C33.618 135.068 33.854 134.704 34.198 134.456C34.542 134.208 34.982 134.064 35.518 134.024C35.662 134.016 35.774 134.052 35.854 134.132C35.942 134.212 35.99 134.336 35.998 134.504C36.014 134.672 35.978 134.808 35.89 134.912C35.802 135.008 35.666 135.064 35.482 135.08L35.254 135.104C34.734 135.152 34.338 135.316 34.066 135.596C33.794 135.876 33.658 136.26 33.658 136.748V139.472C33.658 139.664 33.606 139.816 33.502 139.928C33.406 140.032 33.254 140.084 33.046 140.084ZM39.3726 140.108C38.7806 140.108 38.2686 139.984 37.8366 139.736C37.4126 139.488 37.0806 139.136 36.8406 138.68C36.6006 138.224 36.4806 137.688 36.4806 137.072C36.4806 136.6 36.5486 136.18 36.6846 135.812C36.8206 135.444 37.0126 135.128 37.2606 134.864C37.5166 134.592 37.8206 134.388 38.1726 134.252C38.5326 134.108 38.9326 134.036 39.3726 134.036C39.9566 134.036 40.4606 134.16 40.8846 134.408C41.3166 134.656 41.6526 135.008 41.8926 135.464C42.1326 135.912 42.2526 136.448 42.2526 137.072C42.2526 137.536 42.1846 137.956 42.0486 138.332C41.9126 138.708 41.7166 139.028 41.4606 139.292C41.2126 139.556 40.9086 139.76 40.5486 139.904C40.1966 140.04 39.8046 140.108 39.3726 140.108ZM39.3726 139.172C39.7006 139.172 39.9886 139.092 40.2366 138.932C40.4846 138.772 40.6766 138.536 40.8126 138.224C40.9566 137.912 41.0286 137.528 41.0286 137.072C41.0286 136.384 40.8766 135.864 40.5726 135.512C40.2686 135.16 39.8686 134.984 39.3726 134.984C39.0366 134.984 38.7446 135.064 38.4966 135.224C38.2486 135.376 38.0526 135.608 37.9086 135.92C37.7726 136.232 37.7046 136.616 37.7046 137.072C37.7046 137.752 37.8566 138.272 38.1606 138.632C38.4646 138.992 38.8686 139.172 39.3726 139.172ZM42.6777 142.28C42.5337 142.288 42.4177 142.264 42.3297 142.208C42.2337 142.152 42.1697 142.08 42.1377 141.992C42.0977 141.904 42.0857 141.812 42.1017 141.716C42.1097 141.628 42.1497 141.548 42.2217 141.476C42.2857 141.412 42.3737 141.376 42.4857 141.368C42.8857 141.344 43.1777 141.236 43.3617 141.044C43.5537 140.852 43.6497 140.548 43.6497 140.132V134.672C43.6497 134.472 43.7017 134.32 43.8057 134.216C43.9177 134.112 44.0697 134.06 44.2617 134.06C44.4617 134.06 44.6097 134.112 44.7057 134.216C44.8097 134.32 44.8617 134.472 44.8617 134.672V140.036C44.8617 140.532 44.7777 140.94 44.6097 141.26C44.4497 141.588 44.2097 141.832 43.8897 141.992C43.5697 142.152 43.1657 142.248 42.6777 142.28ZM44.2617 132.836C44.0217 132.836 43.8337 132.776 43.6977 132.656C43.5697 132.536 43.5057 132.368 43.5057 132.152C43.5057 131.928 43.5697 131.76 43.6977 131.648C43.8337 131.528 44.0217 131.468 44.2617 131.468C44.5017 131.468 44.6857 131.528 44.8137 131.648C44.9417 131.76 45.0057 131.928 45.0057 132.152C45.0057 132.368 44.9417 132.536 44.8137 132.656C44.6857 132.776 44.5017 132.836 44.2617 132.836ZM49.3148 140.108C48.6748 140.108 48.1228 139.988 47.6588 139.748C47.2028 139.5 46.8468 139.152 46.5908 138.704C46.3428 138.248 46.2188 137.708 46.2188 137.084C46.2188 136.476 46.3428 135.944 46.5908 135.488C46.8388 135.032 47.1788 134.676 47.6108 134.42C48.0428 134.164 48.5348 134.036 49.0868 134.036C49.4948 134.036 49.8588 134.104 50.1788 134.24C50.4988 134.368 50.7708 134.56 50.9948 134.816C51.2268 135.064 51.3988 135.368 51.5108 135.728C51.6308 136.088 51.6908 136.492 51.6908 136.94C51.6908 137.076 51.6508 137.18 51.5708 137.252C51.4908 137.316 51.3708 137.348 51.2108 137.348H47.1788V136.604H50.8748L50.6708 136.772C50.6708 136.372 50.6108 136.032 50.4908 135.752C50.3788 135.472 50.2068 135.26 49.9748 135.116C49.7508 134.964 49.4708 134.888 49.1348 134.888C48.7588 134.888 48.4388 134.976 48.1748 135.152C47.9188 135.328 47.7228 135.572 47.5868 135.884C47.4508 136.196 47.3828 136.56 47.3828 136.976V137.048C47.3828 137.752 47.5468 138.284 47.8748 138.644C48.2108 138.996 48.6948 139.172 49.3268 139.172C49.5668 139.172 49.8188 139.14 50.0828 139.076C50.3548 139.012 50.6108 138.904 50.8508 138.752C50.9868 138.672 51.1068 138.636 51.2108 138.644C51.3228 138.652 51.4108 138.688 51.4748 138.752C51.5468 138.816 51.5908 138.896 51.6068 138.992C51.6228 139.088 51.6068 139.188 51.5588 139.292C51.5108 139.388 51.4268 139.476 51.3068 139.556C51.0348 139.74 50.7188 139.88 50.3588 139.976C49.9988 140.064 49.6508 140.108 49.3148 140.108ZM55.5922 140.108C54.9922 140.108 54.4722 139.984 54.0322 139.736C53.6002 139.48 53.2642 139.124 53.0242 138.668C52.7842 138.204 52.6642 137.66 52.6642 137.036C52.6642 136.572 52.7322 136.156 52.8682 135.788C53.0042 135.412 53.1962 135.096 53.4442 134.84C53.7002 134.584 54.0082 134.388 54.3682 134.252C54.7362 134.108 55.1442 134.036 55.5922 134.036C55.8722 134.036 56.1642 134.08 56.4682 134.168C56.7802 134.248 57.0682 134.384 57.3322 134.576C57.4362 134.64 57.5002 134.72 57.5242 134.816C57.5562 134.904 57.5602 134.996 57.5362 135.092C57.5202 135.188 57.4762 135.272 57.4042 135.344C57.3402 135.408 57.2602 135.448 57.1642 135.464C57.0682 135.472 56.9642 135.444 56.8522 135.38C56.6602 135.244 56.4642 135.148 56.2642 135.092C56.0642 135.028 55.8722 134.996 55.6882 134.996C55.4002 134.996 55.1442 135.044 54.9202 135.14C54.7042 135.228 54.5202 135.36 54.3682 135.536C54.2162 135.704 54.1002 135.916 54.0202 136.172C53.9482 136.428 53.9122 136.72 53.9122 137.048C53.9122 137.704 54.0642 138.22 54.3682 138.596C54.6802 138.964 55.1202 139.148 55.6882 139.148C55.8722 139.148 56.0642 139.12 56.2642 139.064C56.4642 139.008 56.6602 138.912 56.8522 138.776C56.9642 138.712 57.0682 138.688 57.1642 138.704C57.2602 138.72 57.3362 138.764 57.3922 138.836C57.4562 138.9 57.4962 138.98 57.5122 139.076C57.5362 139.164 57.5322 139.256 57.5002 139.352C57.4682 139.448 57.4002 139.528 57.2962 139.592C57.0402 139.776 56.7602 139.908 56.4562 139.988C56.1602 140.068 55.8722 140.108 55.5922 140.108ZM61.1214 140.108C60.6414 140.108 60.2374 140.024 59.9094 139.856C59.5814 139.688 59.3374 139.44 59.1774 139.112C59.0174 138.784 58.9374 138.384 58.9374 137.912V135.08H58.2174C58.0574 135.08 57.9334 135.04 57.8454 134.96C57.7574 134.872 57.7134 134.756 57.7134 134.612C57.7134 134.46 57.7574 134.344 57.8454 134.264C57.9334 134.184 58.0574 134.144 58.2174 134.144H58.9374V132.908C58.9374 132.708 58.9894 132.556 59.0934 132.452C59.2054 132.348 59.3574 132.296 59.5494 132.296C59.7414 132.296 59.8894 132.348 59.9934 132.452C60.0974 132.556 60.1494 132.708 60.1494 132.908V134.144H61.5534C61.7134 134.144 61.8374 134.184 61.9254 134.264C62.0134 134.344 62.0574 134.46 62.0574 134.612C62.0574 134.756 62.0134 134.872 61.9254 134.96C61.8374 135.04 61.7134 135.08 61.5534 135.08H60.1494V137.816C60.1494 138.24 60.2374 138.56 60.4134 138.776C60.5974 138.992 60.8934 139.1 61.3014 139.1C61.4454 139.1 61.5694 139.088 61.6734 139.064C61.7854 139.032 61.8774 139.012 61.9494 139.004C62.0374 139.004 62.1094 139.036 62.1654 139.1C62.2214 139.156 62.2494 139.268 62.2494 139.436C62.2494 139.556 62.2254 139.668 62.1774 139.772C62.1374 139.876 62.0614 139.944 61.9494 139.976C61.8534 140.008 61.7214 140.036 61.5534 140.06C61.3934 140.092 61.2494 140.108 61.1214 140.108Z" fill="#64728C"/>
<rect x="1.5" y="161.5" width="13" height="13" rx="4.5" fill="#E8EAEF" stroke="#D9D9D9"/>
<path d="M24.936 172.084C24.776 172.084 24.648 172.048 24.552 171.976C24.456 171.904 24.4 171.808 24.384 171.688C24.368 171.568 24.392 171.432 24.456 171.28L27.708 163.984C27.788 163.792 27.888 163.656 28.008 163.576C28.136 163.496 28.276 163.456 28.428 163.456C28.572 163.456 28.704 163.496 28.824 163.576C28.952 163.656 29.056 163.792 29.136 163.984L32.388 171.28C32.46 171.432 32.488 171.572 32.472 171.7C32.456 171.82 32.404 171.916 32.316 171.988C32.228 172.052 32.104 172.084 31.944 172.084C31.768 172.084 31.628 172.04 31.524 171.952C31.42 171.864 31.328 171.728 31.248 171.544L30.408 169.6L30.972 169.936H25.86L26.412 169.6L25.584 171.544C25.504 171.736 25.416 171.876 25.32 171.964C25.224 172.044 25.096 172.084 24.936 172.084ZM28.404 164.92L26.592 169.216L26.292 168.928H30.528L30.252 169.216L28.428 164.92H28.404ZM36.2093 172.108C35.6093 172.108 35.0893 171.984 34.6493 171.736C34.2173 171.48 33.8813 171.124 33.6413 170.668C33.4013 170.204 33.2813 169.66 33.2813 169.036C33.2813 168.572 33.3493 168.156 33.4853 167.788C33.6213 167.412 33.8133 167.096 34.0613 166.84C34.3173 166.584 34.6253 166.388 34.9853 166.252C35.3533 166.108 35.7613 166.036 36.2093 166.036C36.4893 166.036 36.7813 166.08 37.0853 166.168C37.3973 166.248 37.6853 166.384 37.9493 166.576C38.0533 166.64 38.1173 166.72 38.1413 166.816C38.1733 166.904 38.1773 166.996 38.1533 167.092C38.1373 167.188 38.0933 167.272 38.0213 167.344C37.9573 167.408 37.8773 167.448 37.7813 167.464C37.6853 167.472 37.5813 167.444 37.4693 167.38C37.2773 167.244 37.0813 167.148 36.8813 167.092C36.6813 167.028 36.4893 166.996 36.3053 166.996C36.0173 166.996 35.7613 167.044 35.5373 167.14C35.3213 167.228 35.1373 167.36 34.9853 167.536C34.8333 167.704 34.7173 167.916 34.6373 168.172C34.5653 168.428 34.5293 168.72 34.5293 169.048C34.5293 169.704 34.6813 170.22 34.9853 170.596C35.2973 170.964 35.7373 171.148 36.3053 171.148C36.4893 171.148 36.6813 171.12 36.8813 171.064C37.0813 171.008 37.2773 170.912 37.4693 170.776C37.5813 170.712 37.6853 170.688 37.7813 170.704C37.8773 170.72 37.9533 170.764 38.0093 170.836C38.0733 170.9 38.1133 170.98 38.1293 171.076C38.1533 171.164 38.1493 171.256 38.1173 171.352C38.0853 171.448 38.0173 171.528 37.9133 171.592C37.6573 171.776 37.3773 171.908 37.0733 171.988C36.7773 172.068 36.4893 172.108 36.2093 172.108ZM41.7386 172.108C41.2586 172.108 40.8546 172.024 40.5266 171.856C40.1986 171.688 39.9546 171.44 39.7946 171.112C39.6346 170.784 39.5546 170.384 39.5546 169.912V167.08H38.8346C38.6746 167.08 38.5506 167.04 38.4626 166.96C38.3746 166.872 38.3306 166.756 38.3306 166.612C38.3306 166.46 38.3746 166.344 38.4626 166.264C38.5506 166.184 38.6746 166.144 38.8346 166.144H39.5546V164.908C39.5546 164.708 39.6066 164.556 39.7106 164.452C39.8226 164.348 39.9746 164.296 40.1666 164.296C40.3586 164.296 40.5066 164.348 40.6106 164.452C40.7146 164.556 40.7666 164.708 40.7666 164.908V166.144H42.1706C42.3306 166.144 42.4546 166.184 42.5426 166.264C42.6306 166.344 42.6746 166.46 42.6746 166.612C42.6746 166.756 42.6306 166.872 42.5426 166.96C42.4546 167.04 42.3306 167.08 42.1706 167.08H40.7666V169.816C40.7666 170.24 40.8546 170.56 41.0306 170.776C41.2146 170.992 41.5106 171.1 41.9186 171.1C42.0626 171.1 42.1866 171.088 42.2906 171.064C42.4026 171.032 42.4946 171.012 42.5666 171.004C42.6546 171.004 42.7266 171.036 42.7826 171.1C42.8386 171.156 42.8666 171.268 42.8666 171.436C42.8666 171.556 42.8426 171.668 42.7946 171.772C42.7546 171.876 42.6786 171.944 42.5666 171.976C42.4706 172.008 42.3386 172.036 42.1706 172.06C42.0106 172.092 41.8666 172.108 41.7386 172.108ZM44.3309 172.072C44.1389 172.072 43.9909 172.016 43.8869 171.904C43.7829 171.784 43.7309 171.62 43.7309 171.412V166.732C43.7309 166.524 43.7829 166.364 43.8869 166.252C43.9909 166.14 44.1389 166.084 44.3309 166.084C44.5229 166.084 44.6709 166.14 44.7749 166.252C44.8869 166.364 44.9429 166.524 44.9429 166.732V171.412C44.9429 171.62 44.8909 171.784 44.7869 171.904C44.6829 172.016 44.5309 172.072 44.3309 172.072ZM44.3309 164.836C44.0909 164.836 43.9029 164.776 43.7669 164.656C43.6389 164.536 43.5749 164.368 43.5749 164.152C43.5749 163.928 43.6389 163.76 43.7669 163.648C43.9029 163.528 44.0909 163.468 44.3309 163.468C44.5709 163.468 44.7549 163.528 44.8829 163.648C45.0189 163.76 45.0869 163.928 45.0869 164.152C45.0869 164.368 45.0189 164.536 44.8829 164.656C44.7549 164.776 44.5709 164.836 44.3309 164.836ZM48.9169 172.084C48.7489 172.084 48.6009 172.04 48.4729 171.952C48.3529 171.864 48.2529 171.728 48.1729 171.544L46.1689 166.888C46.1049 166.744 46.0809 166.608 46.0969 166.48C46.1129 166.352 46.1729 166.252 46.2769 166.18C46.3809 166.1 46.5209 166.06 46.6969 166.06C46.8489 166.06 46.9689 166.096 47.0569 166.168C47.1449 166.24 47.2249 166.364 47.2969 166.54L49.1089 171.004H48.7729L50.6209 166.54C50.6929 166.364 50.7729 166.24 50.8609 166.168C50.9569 166.096 51.0889 166.06 51.2569 166.06C51.4009 166.06 51.5129 166.1 51.5929 166.18C51.6809 166.252 51.7329 166.352 51.7489 166.48C51.7729 166.6 51.7529 166.732 51.6889 166.876L49.6609 171.544C49.5889 171.728 49.4889 171.864 49.3609 171.952C49.2329 172.04 49.0849 172.084 48.9169 172.084ZM53.4833 172.072C53.2913 172.072 53.1433 172.016 53.0393 171.904C52.9353 171.784 52.8833 171.62 52.8833 171.412V166.732C52.8833 166.524 52.9353 166.364 53.0393 166.252C53.1433 166.14 53.2913 166.084 53.4833 166.084C53.6753 166.084 53.8233 166.14 53.9273 166.252C54.0393 166.364 54.0953 166.524 54.0953 166.732V171.412C54.0953 171.62 54.0433 171.784 53.9393 171.904C53.8353 172.016 53.6833 172.072 53.4833 172.072ZM53.4833 164.836C53.2433 164.836 53.0553 164.776 52.9193 164.656C52.7913 164.536 52.7273 164.368 52.7273 164.152C52.7273 163.928 52.7913 163.76 52.9193 163.648C53.0553 163.528 53.2433 163.468 53.4833 163.468C53.7233 163.468 53.9073 163.528 54.0353 163.648C54.1713 163.76 54.2393 163.928 54.2393 164.152C54.2393 164.368 54.1713 164.536 54.0353 164.656C53.9073 164.776 53.7233 164.836 53.4833 164.836ZM58.2972 172.108C57.8172 172.108 57.4132 172.024 57.0852 171.856C56.7572 171.688 56.5132 171.44 56.3532 171.112C56.1932 170.784 56.1132 170.384 56.1132 169.912V167.08H55.3932C55.2332 167.08 55.1092 167.04 55.0212 166.96C54.9332 166.872 54.8892 166.756 54.8892 166.612C54.8892 166.46 54.9332 166.344 55.0212 166.264C55.1092 166.184 55.2332 166.144 55.3932 166.144H56.1132V164.908C56.1132 164.708 56.1652 164.556 56.2692 164.452C56.3812 164.348 56.5332 164.296 56.7252 164.296C56.9172 164.296 57.0652 164.348 57.1692 164.452C57.2732 164.556 57.3252 164.708 57.3252 164.908V166.144H58.7292C58.8892 166.144 59.0132 166.184 59.1012 166.264C59.1892 166.344 59.2332 166.46 59.2332 166.612C59.2332 166.756 59.1892 166.872 59.1012 166.96C59.0132 167.04 58.8892 167.08 58.7292 167.08H57.3252V169.816C57.3252 170.24 57.4132 170.56 57.5892 170.776C57.7732 170.992 58.0692 171.1 58.4772 171.1C58.6212 171.1 58.7452 171.088 58.8492 171.064C58.9612 171.032 59.0532 171.012 59.1252 171.004C59.2132 171.004 59.2852 171.036 59.3412 171.1C59.3972 171.156 59.4252 171.268 59.4252 171.436C59.4252 171.556 59.4012 171.668 59.3532 171.772C59.3132 171.876 59.2372 171.944 59.1252 171.976C59.0292 172.008 58.8972 172.036 58.7292 172.06C58.5692 172.092 58.4252 172.108 58.2972 172.108ZM61.6461 174.244C61.5021 174.244 61.3821 174.204 61.2861 174.124C61.1981 174.052 61.1461 173.952 61.1301 173.824C61.1221 173.704 61.1461 173.572 61.2021 173.428L62.0181 171.592V172.108L59.7741 166.888C59.7181 166.744 59.6981 166.608 59.7141 166.48C59.7301 166.352 59.7901 166.252 59.8941 166.18C59.9981 166.1 60.1381 166.06 60.3141 166.06C60.4661 166.06 60.5861 166.096 60.6741 166.168C60.7621 166.24 60.8421 166.364 60.9141 166.54L62.7261 171.016H62.3901L64.2261 166.54C64.2981 166.356 64.3821 166.232 64.4781 166.168C64.5741 166.096 64.7061 166.06 64.8741 166.06C65.0181 166.06 65.1301 166.1 65.2101 166.18C65.2981 166.252 65.3501 166.352 65.3661 166.48C65.3901 166.6 65.3701 166.732 65.3061 166.876L62.3061 173.776C62.2261 173.96 62.1341 174.084 62.0301 174.148C61.9341 174.212 61.8061 174.244 61.6461 174.244Z" fill="#929BAA"/>
<defs>
<filter id="filter0_d_534_2118" x="0" y="3" width="16" height="14" filterUnits="userSpaceOnUse" color-interpolation-filters="sRGB">
<feFlood flood-opacity="0" result="BackgroundImageFix"/>
<feColorMatrix in="SourceAlpha" type="matrix" values="0 0 0 0 0 0 0 0 0 0 0 0 0 0 0 0 0 0 127 0" result="hardAlpha"/>
<feOffset dy="2"/>
<feGaussianBlur stdDeviation="2"/>
<feComposite in2="hardAlpha" operator="out"/>
<feColorMatrix type="matrix" values="0 0 0 0 0 0 0 0 0 0 0 0 0 0 0 0 0 0 0.25 0"/>
<feBlend mode="normal" in2="BackgroundImageFix" result="effect1_dropShadow_534_2118"/>
<feBlend mode="normal" in="SourceGraphic" in2="effect1_dropShadow_534_2118" result="shape"/>
</filter>
<filter id="filter1_d_534_2118" x="0" y="99" width="16" height="14" filterUnits="userSpaceOnUse" color-interpolation-filters="sRGB">
<feFlood flood-opacity="0" result="BackgroundImageFix"/>
<feColorMatrix in="SourceAlpha" type="matrix" values="0 0 0 0 0 0 0 0 0 0 0 0 0 0 0 0 0 0 127 0" result="hardAlpha"/>
<feOffset dy="2"/>
<feGaussianBlur stdDeviation="2"/>
<feComposite in2="hardAlpha" operator="out"/>
<feColorMatrix type="matrix" values="0 0 0 0 0 0 0 0 0 0 0 0 0 0 0 0 0 0 0.25 0"/>
<feBlend mode="normal" in2="BackgroundImageFix" result="effect1_dropShadow_534_2118"/>
<feBlend mode="normal" in="SourceGraphic" in2="effect1_dropShadow_534_2118" result="shape"/>
</filter>
<filter id="filter2_d_534_2118" x="0" y="67" width="16" height="14" filterUnits="userSpaceOnUse" color-interpolation-filters="sRGB">
<feFlood flood-opacity="0" result="BackgroundImageFix"/>
<feColorMatrix in="SourceAlpha" type="matrix" values="0 0 0 0 0 0 0 0 0 0 0 0 0 0 0 0 0 0 127 0" result="hardAlpha"/>
<feOffset dy="2"/>
<feGaussianBlur stdDeviation="2"/>
<feComposite in2="hardAlpha" operator="out"/>
<feColorMatrix type="matrix" values="0 0 0 0 0 0 0 0 0 0 0 0 0 0 0 0 0 0 0.25 0"/>
<feBlend mode="normal" in2="BackgroundImageFix" result="effect1_dropShadow_534_2118"/>
<feBlend mode="normal" in="SourceGraphic" in2="effect1_dropShadow_534_2118" result="shape"/>
</filter>
</defs>
</svg>
