<svg width="111" height="17" viewBox="0 0 111 17" fill="none" xmlns="http://www.w3.org/2000/svg">
<path d="M6 1.5H10C12.4853 1.5 14.5 3.51472 14.5 6V10C14.5 12.4853 12.4853 14.5 10 14.5H6C3.51472 14.5 1.5 12.4853 1.5 10V6C1.5 3.51472 3.51472 1.5 6 1.5Z" fill="#FF8A00" stroke="#F38605"/>
<g filter="url(#filter0_d_534_2083)">
<path d="M6.39753 10.6955C5.99816 10.2895 5.99816 9.63123 6.39753 9.22523L10.2542 5.3045C10.6536 4.8985 11.3011 4.8985 11.7005 5.3045C12.0998 5.71051 12.0998 6.36877 11.7005 6.77477L7.84379 10.6955C7.44441 11.1015 6.7969 11.1015 6.39753 10.6955Z" fill="white"/>
<path d="M7.81423 10.6549C7.41486 11.061 6.76735 11.061 6.36797 10.6549L4.29953 8.55216C3.90016 8.14615 3.90016 7.48789 4.29953 7.08189C4.6989 6.67588 5.34641 6.67588 5.74579 7.08189L7.81423 9.18468C8.2136 9.59068 8.2136 10.2489 7.81423 10.6549Z" fill="white"/>
</g>
<path d="M26.572 12.084C26.396 12.084 26.26 12.036 26.164 11.94C26.068 11.836 26.02 11.692 26.02 11.508V4.104C26.02 3.92 26.068 3.78 26.164 3.684C26.268 3.588 26.408 3.54 26.584 3.54H29.44C30.352 3.54 31.052 3.764 31.54 4.212C32.036 4.66 32.284 5.288 32.284 6.096C32.284 6.912 32.036 7.544 31.54 7.992C31.052 8.44 30.352 8.664 29.44 8.664H27.136V11.508C27.136 11.692 27.088 11.836 26.992 11.94C26.904 12.036 26.764 12.084 26.572 12.084ZM27.136 7.764H29.296C29.92 7.764 30.388 7.624 30.7 7.344C31.02 7.056 31.18 6.64 31.18 6.096C31.18 5.552 31.02 5.144 30.7 4.872C30.388 4.592 29.92 4.452 29.296 4.452H27.136V7.764ZM33.9634 12.084C33.7794 12.084 33.6394 12.036 33.5434 11.94C33.4474 11.844 33.3994 11.704 33.3994 11.52V6.624C33.3994 6.44 33.4474 6.304 33.5434 6.216C33.6394 6.12 33.7714 6.072 33.9394 6.072C34.1074 6.072 34.2354 6.12 34.3234 6.216C34.4194 6.304 34.4674 6.44 34.4674 6.624V7.548H34.3474C34.4754 7.068 34.7154 6.704 35.0674 6.456C35.4194 6.208 35.8634 6.068 36.3994 6.036C36.5274 6.028 36.6314 6.06 36.7114 6.132C36.7914 6.196 36.8354 6.308 36.8434 6.468C36.8514 6.62 36.8154 6.744 36.7354 6.84C36.6554 6.928 36.5314 6.98 36.3634 6.996L36.1474 7.008C35.6194 7.064 35.2114 7.236 34.9234 7.524C34.6434 7.812 34.5034 8.208 34.5034 8.712V11.52C34.5034 11.704 34.4554 11.844 34.3594 11.94C34.2714 12.036 34.1394 12.084 33.9634 12.084ZM38.3223 12.06C38.1543 12.06 38.0223 12.008 37.9263 11.904C37.8303 11.8 37.7823 11.656 37.7823 11.472V6.684C37.7823 6.492 37.8303 6.348 37.9263 6.252C38.0223 6.148 38.1543 6.096 38.3223 6.096C38.4983 6.096 38.6343 6.148 38.7303 6.252C38.8263 6.348 38.8743 6.492 38.8743 6.684V11.472C38.8743 11.656 38.8263 11.8 38.7303 11.904C38.6423 12.008 38.5063 12.06 38.3223 12.06ZM38.3223 4.8C38.1063 4.8 37.9343 4.744 37.8063 4.632C37.6863 4.512 37.6263 4.356 37.6263 4.164C37.6263 3.956 37.6863 3.8 37.8063 3.696C37.9343 3.584 38.1063 3.528 38.3223 3.528C38.5543 3.528 38.7263 3.584 38.8383 3.696C38.9583 3.8 39.0183 3.956 39.0183 4.164C39.0183 4.356 38.9583 4.512 38.8383 4.632C38.7263 4.744 38.5543 4.8 38.3223 4.8ZM41.1939 12.084C41.0259 12.084 40.8939 12.036 40.7979 11.94C40.7019 11.844 40.6539 11.704 40.6539 11.52V6.624C40.6539 6.44 40.7019 6.304 40.7979 6.216C40.8939 6.12 41.0259 6.072 41.1939 6.072C41.3619 6.072 41.4899 6.12 41.5779 6.216C41.6739 6.304 41.7219 6.44 41.7219 6.624V7.644L41.5899 7.428C41.7419 6.988 41.9859 6.648 42.3219 6.408C42.6659 6.168 43.0739 6.048 43.5459 6.048C44.0419 6.048 44.4419 6.168 44.7459 6.408C45.0499 6.64 45.2539 6.996 45.3579 7.476H45.1899C45.3339 7.036 45.5899 6.688 45.9579 6.432C46.3339 6.176 46.7699 6.048 47.2659 6.048C47.7059 6.048 48.0659 6.136 48.3459 6.312C48.6339 6.48 48.8499 6.736 48.9939 7.08C49.1379 7.416 49.2099 7.848 49.2099 8.376V11.52C49.2099 11.704 49.1619 11.844 49.0659 11.94C48.9699 12.036 48.8379 12.084 48.6699 12.084C48.4939 12.084 48.3579 12.036 48.2619 11.94C48.1659 11.844 48.1179 11.704 48.1179 11.52V8.424C48.1179 7.912 48.0299 7.536 47.8539 7.296C47.6779 7.056 47.3819 6.936 46.9659 6.936C46.5099 6.936 46.1459 7.096 45.8739 7.416C45.6099 7.728 45.4779 8.16 45.4779 8.712V11.52C45.4779 11.704 45.4299 11.844 45.3339 11.94C45.2459 12.036 45.1139 12.084 44.9379 12.084C44.7619 12.084 44.6259 12.036 44.5299 11.94C44.4339 11.844 44.3859 11.704 44.3859 11.52V8.424C44.3859 7.912 44.2979 7.536 44.1219 7.296C43.9459 7.056 43.6499 6.936 43.2339 6.936C42.7779 6.936 42.4139 7.096 42.1419 7.416C41.8779 7.728 41.7459 8.16 41.7459 8.712V11.52C41.7459 11.896 41.5619 12.084 41.1939 12.084ZM52.8258 12.108C52.4258 12.108 52.0618 12.028 51.7338 11.868C51.4138 11.708 51.1618 11.492 50.9778 11.22C50.8018 10.948 50.7138 10.644 50.7138 10.308C50.7138 9.876 50.8218 9.536 51.0378 9.288C51.2538 9.04 51.6178 8.864 52.1298 8.76C52.6418 8.648 53.3298 8.592 54.1938 8.592H54.7578V9.288H54.2178C53.6018 9.288 53.1138 9.316 52.7538 9.372C52.4018 9.428 52.1538 9.528 52.0098 9.672C51.8658 9.808 51.7938 10 51.7938 10.248C51.7938 10.56 51.9018 10.816 52.1178 11.016C52.3418 11.216 52.6458 11.316 53.0298 11.316C53.3338 11.316 53.6018 11.244 53.8338 11.1C54.0658 10.948 54.2498 10.748 54.3858 10.5C54.5218 10.244 54.5898 9.952 54.5898 9.624V8.244C54.5898 7.772 54.4938 7.432 54.3018 7.224C54.1098 7.008 53.7858 6.9 53.3298 6.9C53.0658 6.9 52.7938 6.936 52.5138 7.008C52.2338 7.08 51.9418 7.192 51.6378 7.344C51.5178 7.4 51.4138 7.42 51.3258 7.404C51.2378 7.38 51.1658 7.332 51.1098 7.26C51.0618 7.18 51.0338 7.096 51.0258 7.008C51.0258 6.912 51.0458 6.82 51.0858 6.732C51.1338 6.644 51.2138 6.58 51.3258 6.54C51.6778 6.364 52.0258 6.24 52.3698 6.168C52.7218 6.088 53.0498 6.048 53.3538 6.048C53.8738 6.048 54.3018 6.132 54.6378 6.3C54.9738 6.46 55.2258 6.712 55.3938 7.056C55.5618 7.392 55.6458 7.824 55.6458 8.352V11.52C55.6458 11.704 55.6018 11.844 55.5138 11.94C55.4258 12.036 55.2978 12.084 55.1298 12.084C54.9698 12.084 54.8418 12.036 54.7458 11.94C54.6578 11.844 54.6138 11.704 54.6138 11.52V10.668H54.7218C54.6578 10.964 54.5378 11.22 54.3618 11.436C54.1858 11.652 53.9658 11.82 53.7018 11.94C53.4458 12.052 53.1538 12.108 52.8258 12.108ZM57.9283 12.084C57.7443 12.084 57.6043 12.036 57.5083 11.94C57.4123 11.844 57.3643 11.704 57.3643 11.52V6.624C57.3643 6.44 57.4123 6.304 57.5083 6.216C57.6043 6.12 57.7363 6.072 57.9043 6.072C58.0723 6.072 58.2003 6.12 58.2883 6.216C58.3843 6.304 58.4323 6.44 58.4323 6.624V7.548H58.3123C58.4403 7.068 58.6803 6.704 59.0323 6.456C59.3843 6.208 59.8283 6.068 60.3643 6.036C60.4923 6.028 60.5963 6.06 60.6763 6.132C60.7563 6.196 60.8003 6.308 60.8083 6.468C60.8163 6.62 60.7803 6.744 60.7003 6.84C60.6203 6.928 60.4963 6.98 60.3283 6.996L60.1123 7.008C59.5843 7.064 59.1763 7.236 58.8883 7.524C58.6083 7.812 58.4683 8.208 58.4683 8.712V11.52C58.4683 11.704 58.4203 11.844 58.3243 11.94C58.2363 12.036 58.1043 12.084 57.9283 12.084ZM63.4544 14.244C63.3264 14.244 63.2184 14.208 63.1304 14.136C63.0504 14.072 63.0024 13.98 62.9864 13.86C62.9784 13.748 63.0024 13.628 63.0584 13.5L63.8744 11.652V12.108L61.6064 6.828C61.5504 6.692 61.5304 6.568 61.5464 6.456C61.5624 6.344 61.6144 6.252 61.7024 6.18C61.7984 6.108 61.9264 6.072 62.0864 6.072C62.2224 6.072 62.3304 6.104 62.4104 6.168C62.4904 6.232 62.5664 6.344 62.6384 6.504L64.5224 11.148H64.1864L66.1064 6.504C66.1704 6.344 66.2464 6.232 66.3344 6.168C66.4224 6.104 66.5424 6.072 66.6944 6.072C66.8304 6.072 66.9344 6.108 67.0064 6.18C67.0864 6.252 67.1344 6.344 67.1504 6.456C67.1664 6.568 67.1424 6.688 67.0784 6.816L64.0544 13.812C63.9744 13.98 63.8904 14.092 63.8024 14.148C63.7224 14.212 63.6064 14.244 63.4544 14.244ZM75.1945 12.108C74.3945 12.108 73.7025 11.932 73.1185 11.58C72.5345 11.22 72.0785 10.716 71.7505 10.068C71.4305 9.412 71.2705 8.644 71.2705 7.764C71.2705 7.1 71.3625 6.504 71.5465 5.976C71.7305 5.44 71.9905 4.984 72.3265 4.608C72.6705 4.224 73.0825 3.932 73.5625 3.732C74.0505 3.532 74.5945 3.432 75.1945 3.432C75.9945 3.432 76.6865 3.608 77.2705 3.96C77.8545 4.312 78.3065 4.812 78.6265 5.46C78.9465 6.108 79.1065 6.872 79.1065 7.752C79.1065 8.416 79.0145 9.016 78.8305 9.552C78.6465 10.088 78.3825 10.548 78.0385 10.932C77.7025 11.316 77.2945 11.608 76.8145 11.808C76.3345 12.008 75.7945 12.108 75.1945 12.108ZM75.1945 11.124C75.7705 11.124 76.2625 10.992 76.6705 10.728C77.0785 10.464 77.3905 10.08 77.6065 9.576C77.8305 9.072 77.9425 8.468 77.9425 7.764C77.9425 6.7 77.7025 5.876 77.2225 5.292C76.7505 4.708 76.0745 4.416 75.1945 4.416C74.6185 4.416 74.1225 4.548 73.7065 4.812C73.2985 5.068 72.9865 5.448 72.7705 5.952C72.5545 6.448 72.4465 7.052 72.4465 7.764C72.4465 8.82 72.6865 9.644 73.1665 10.236C73.6465 10.828 74.3225 11.124 75.1945 11.124ZM81.2603 12.084C81.0763 12.084 80.9363 12.036 80.8403 11.94C80.7443 11.844 80.6963 11.704 80.6963 11.52V6.624C80.6963 6.44 80.7443 6.304 80.8403 6.216C80.9363 6.12 81.0683 6.072 81.2363 6.072C81.4043 6.072 81.5323 6.12 81.6203 6.216C81.7163 6.304 81.7643 6.44 81.7643 6.624V7.548H81.6443C81.7723 7.068 82.0123 6.704 82.3643 6.456C82.7163 6.208 83.1603 6.068 83.6963 6.036C83.8243 6.028 83.9283 6.06 84.0083 6.132C84.0883 6.196 84.1323 6.308 84.1403 6.468C84.1483 6.62 84.1123 6.744 84.0323 6.84C83.9523 6.928 83.8283 6.98 83.6603 6.996L83.4443 7.008C82.9163 7.064 82.5083 7.236 82.2203 7.524C81.9403 7.812 81.8003 8.208 81.8003 8.712V11.52C81.8003 11.704 81.7523 11.844 81.6563 11.94C81.5683 12.036 81.4363 12.084 81.2603 12.084ZM86.8805 12.108C86.4805 12.108 86.1165 12.028 85.7885 11.868C85.4685 11.708 85.2165 11.492 85.0325 11.22C84.8565 10.948 84.7685 10.644 84.7685 10.308C84.7685 9.876 84.8765 9.536 85.0925 9.288C85.3085 9.04 85.6725 8.864 86.1845 8.76C86.6965 8.648 87.3845 8.592 88.2485 8.592H88.8125V9.288H88.2725C87.6565 9.288 87.1685 9.316 86.8085 9.372C86.4565 9.428 86.2085 9.528 86.0645 9.672C85.9205 9.808 85.8485 10 85.8485 10.248C85.8485 10.56 85.9565 10.816 86.1725 11.016C86.3965 11.216 86.7005 11.316 87.0845 11.316C87.3885 11.316 87.6565 11.244 87.8885 11.1C88.1205 10.948 88.3045 10.748 88.4405 10.5C88.5765 10.244 88.6445 9.952 88.6445 9.624V8.244C88.6445 7.772 88.5485 7.432 88.3565 7.224C88.1645 7.008 87.8405 6.9 87.3845 6.9C87.1205 6.9 86.8485 6.936 86.5685 7.008C86.2885 7.08 85.9965 7.192 85.6925 7.344C85.5725 7.4 85.4685 7.42 85.3805 7.404C85.2925 7.38 85.2205 7.332 85.1645 7.26C85.1165 7.18 85.0885 7.096 85.0805 7.008C85.0805 6.912 85.1005 6.82 85.1405 6.732C85.1885 6.644 85.2685 6.58 85.3805 6.54C85.7325 6.364 86.0805 6.24 86.4245 6.168C86.7765 6.088 87.1045 6.048 87.4085 6.048C87.9285 6.048 88.3565 6.132 88.6925 6.3C89.0285 6.46 89.2805 6.712 89.4485 7.056C89.6165 7.392 89.7005 7.824 89.7005 8.352V11.52C89.7005 11.704 89.6565 11.844 89.5685 11.94C89.4805 12.036 89.3525 12.084 89.1845 12.084C89.0245 12.084 88.8965 12.036 88.8005 11.94C88.7125 11.844 88.6685 11.704 88.6685 11.52V10.668H88.7765C88.7125 10.964 88.5925 11.22 88.4165 11.436C88.2405 11.652 88.0205 11.82 87.7565 11.94C87.5005 12.052 87.2085 12.108 86.8805 12.108ZM91.959 12.084C91.791 12.084 91.659 12.036 91.563 11.94C91.467 11.844 91.419 11.704 91.419 11.52V6.624C91.419 6.44 91.467 6.304 91.563 6.216C91.659 6.12 91.791 6.072 91.959 6.072C92.127 6.072 92.255 6.12 92.343 6.216C92.439 6.304 92.487 6.44 92.487 6.624V7.608L92.355 7.428C92.523 6.972 92.795 6.628 93.171 6.396C93.555 6.164 93.991 6.048 94.479 6.048C94.951 6.048 95.339 6.132 95.643 6.3C95.947 6.468 96.175 6.724 96.327 7.068C96.479 7.412 96.555 7.848 96.555 8.376V11.52C96.555 11.704 96.507 11.844 96.411 11.94C96.323 12.036 96.191 12.084 96.015 12.084C95.839 12.084 95.703 12.036 95.607 11.94C95.511 11.844 95.463 11.704 95.463 11.52V8.436C95.463 7.916 95.363 7.536 95.163 7.296C94.963 7.056 94.643 6.936 94.203 6.936C93.691 6.936 93.279 7.096 92.967 7.416C92.663 7.728 92.511 8.152 92.511 8.688V11.52C92.511 11.896 92.327 12.084 91.959 12.084ZM100.914 14.268C100.482 14.268 100.062 14.22 99.6542 14.124C99.2542 14.028 98.8902 13.88 98.5622 13.68C98.4582 13.616 98.3862 13.54 98.3462 13.452C98.3142 13.372 98.3062 13.288 98.3222 13.2C98.3462 13.112 98.3862 13.032 98.4422 12.96C98.5062 12.896 98.5782 12.852 98.6582 12.828C98.7462 12.812 98.8342 12.832 98.9222 12.888C99.2742 13.088 99.6102 13.224 99.9302 13.296C100.25 13.368 100.554 13.404 100.842 13.404C101.41 13.404 101.834 13.256 102.114 12.96C102.402 12.672 102.546 12.248 102.546 11.688V10.392H102.654C102.542 10.84 102.29 11.196 101.898 11.46C101.514 11.724 101.066 11.856 100.554 11.856C100.026 11.856 99.5662 11.736 99.1742 11.496C98.7822 11.248 98.4782 10.908 98.2622 10.476C98.0462 10.036 97.9382 9.528 97.9382 8.952C97.9382 8.512 97.9982 8.116 98.1182 7.764C98.2462 7.404 98.4222 7.1 98.6462 6.852C98.8782 6.596 99.1542 6.4 99.4742 6.264C99.7942 6.12 100.154 6.048 100.554 6.048C101.074 6.048 101.526 6.18 101.91 6.444C102.294 6.708 102.542 7.064 102.654 7.512L102.522 7.68V6.624C102.522 6.44 102.57 6.304 102.666 6.216C102.762 6.12 102.898 6.072 103.074 6.072C103.242 6.072 103.374 6.12 103.47 6.216C103.566 6.304 103.614 6.44 103.614 6.624V11.544C103.614 12.448 103.382 13.128 102.918 13.584C102.462 14.04 101.794 14.268 100.914 14.268ZM100.794 10.992C101.154 10.992 101.462 10.912 101.718 10.752C101.982 10.584 102.182 10.348 102.318 10.044C102.462 9.732 102.534 9.368 102.534 8.952C102.534 8.32 102.378 7.824 102.066 7.464C101.754 7.096 101.33 6.912 100.794 6.912C100.434 6.912 100.122 6.996 99.8582 7.164C99.6022 7.324 99.4022 7.556 99.2582 7.86C99.1142 8.164 99.0422 8.528 99.0422 8.952C99.0422 9.576 99.1982 10.072 99.5102 10.44C99.8302 10.808 100.258 10.992 100.794 10.992ZM108.064 12.108C107.432 12.108 106.888 11.988 106.432 11.748C105.984 11.5 105.636 11.152 105.388 10.704C105.14 10.248 105.016 9.712 105.016 9.096C105.016 8.488 105.136 7.956 105.376 7.5C105.624 7.044 105.96 6.688 106.384 6.432C106.816 6.176 107.308 6.048 107.86 6.048C108.252 6.048 108.604 6.116 108.916 6.252C109.236 6.38 109.508 6.568 109.732 6.816C109.956 7.064 110.124 7.368 110.236 7.728C110.356 8.08 110.416 8.48 110.416 8.928C110.416 9.056 110.376 9.156 110.296 9.228C110.224 9.292 110.116 9.324 109.972 9.324H105.868V8.628H109.696L109.492 8.796C109.492 8.38 109.428 8.028 109.3 7.74C109.18 7.444 109 7.22 108.76 7.068C108.528 6.916 108.236 6.84 107.884 6.84C107.5 6.84 107.172 6.932 106.9 7.116C106.628 7.292 106.42 7.544 106.276 7.872C106.132 8.192 106.06 8.564 106.06 8.988V9.06C106.06 9.78 106.232 10.324 106.576 10.692C106.92 11.06 107.416 11.244 108.064 11.244C108.32 11.244 108.58 11.212 108.844 11.148C109.116 11.084 109.376 10.968 109.624 10.8C109.744 10.728 109.852 10.696 109.948 10.704C110.052 10.704 110.136 10.736 110.2 10.8C110.264 10.856 110.304 10.928 110.32 11.016C110.336 11.096 110.324 11.184 110.284 11.28C110.244 11.376 110.168 11.46 110.056 11.532C109.792 11.716 109.476 11.86 109.108 11.964C108.748 12.06 108.4 12.108 108.064 12.108Z" fill="#64728C"/>
<defs>
<filter id="filter0_d_534_2083" x="0" y="3" width="16" height="14" filterUnits="userSpaceOnUse" color-interpolation-filters="sRGB">
<feFlood flood-opacity="0" result="BackgroundImageFix"/>
<feColorMatrix in="SourceAlpha" type="matrix" values="0 0 0 0 0 0 0 0 0 0 0 0 0 0 0 0 0 0 127 0" result="hardAlpha"/>
<feOffset dy="2"/>
<feGaussianBlur stdDeviation="2"/>
<feComposite in2="hardAlpha" operator="out"/>
<feColorMatrix type="matrix" values="0 0 0 0 0 0 0 0 0 0 0 0 0 0 0 0 0 0 0.25 0"/>
<feBlend mode="normal" in2="BackgroundImageFix" result="effect1_dropShadow_534_2083"/>
<feBlend mode="normal" in="SourceGraphic" in2="effect1_dropShadow_534_2083" result="shape"/>
</filter>
</defs>
</svg>
