<svg width="86" height="17" viewBox="0 0 86 17" fill="none" xmlns="http://www.w3.org/2000/svg">
<rect x="1.5" y="1.5" width="13" height="13" rx="4.5" fill="#76BC21" stroke="#72B620"/>
<g filter="url(#filter0_d_535_2575)">
<path d="M6.39753 10.6955C5.99816 10.2895 5.99816 9.63123 6.39753 9.22523L10.2542 5.3045C10.6536 4.8985 11.3011 4.8985 11.7005 5.3045C12.0998 5.71051 12.0998 6.36877 11.7005 6.77477L7.84379 10.6955C7.44441 11.1015 6.7969 11.1015 6.39753 10.6955Z" fill="white"/>
<path d="M7.81423 10.6549C7.41486 11.061 6.76735 11.061 6.36797 10.6549L4.29953 8.55216C3.90016 8.14615 3.90016 7.48789 4.29953 7.08189C4.6989 6.67588 5.34641 6.67588 5.74579 7.08189L7.81423 9.18468C8.2136 9.59068 8.2136 10.2489 7.81423 10.6549Z" fill="white"/>
</g>
<path d="M26.572 12.084C26.396 12.084 26.26 12.036 26.164 11.94C26.068 11.836 26.02 11.692 26.02 11.508V4.104C26.02 3.92 26.068 3.78 26.164 3.684C26.268 3.588 26.408 3.54 26.584 3.54H29.44C30.352 3.54 31.052 3.764 31.54 4.212C32.036 4.66 32.284 5.288 32.284 6.096C32.284 6.912 32.036 7.544 31.54 7.992C31.052 8.44 30.352 8.664 29.44 8.664H27.136V11.508C27.136 11.692 27.088 11.836 26.992 11.94C26.904 12.036 26.764 12.084 26.572 12.084ZM27.136 7.764H29.296C29.92 7.764 30.388 7.624 30.7 7.344C31.02 7.056 31.18 6.64 31.18 6.096C31.18 5.552 31.02 5.144 30.7 4.872C30.388 4.592 29.92 4.452 29.296 4.452H27.136V7.764ZM35.9471 12.108C35.3151 12.108 34.7711 11.988 34.3151 11.748C33.8671 11.5 33.5191 11.152 33.2711 10.704C33.0231 10.248 32.8991 9.712 32.8991 9.096C32.8991 8.488 33.0191 7.956 33.2591 7.5C33.5071 7.044 33.8431 6.688 34.2671 6.432C34.6991 6.176 35.1911 6.048 35.7431 6.048C36.1351 6.048 36.4871 6.116 36.7991 6.252C37.1191 6.38 37.3911 6.568 37.6151 6.816C37.8391 7.064 38.0071 7.368 38.1191 7.728C38.2391 8.08 38.2991 8.48 38.2991 8.928C38.2991 9.056 38.2591 9.156 38.1791 9.228C38.1071 9.292 37.9991 9.324 37.8551 9.324H33.7511V8.628H37.5791L37.3751 8.796C37.3751 8.38 37.3111 8.028 37.1831 7.74C37.0631 7.444 36.8831 7.22 36.6431 7.068C36.4111 6.916 36.1191 6.84 35.7671 6.84C35.3831 6.84 35.0551 6.932 34.7831 7.116C34.5111 7.292 34.3031 7.544 34.1591 7.872C34.0151 8.192 33.9431 8.564 33.9431 8.988V9.06C33.9431 9.78 34.1151 10.324 34.4591 10.692C34.8031 11.06 35.2991 11.244 35.9471 11.244C36.2031 11.244 36.4631 11.212 36.7271 11.148C36.9991 11.084 37.2591 10.968 37.5071 10.8C37.6271 10.728 37.7351 10.696 37.8311 10.704C37.9351 10.704 38.0191 10.736 38.0831 10.8C38.1471 10.856 38.1871 10.928 38.2031 11.016C38.2191 11.096 38.2071 11.184 38.1671 11.28C38.1271 11.376 38.0511 11.46 37.9391 11.532C37.6751 11.716 37.3591 11.86 36.9911 11.964C36.6311 12.06 36.2831 12.108 35.9471 12.108ZM41.5173 12.108C41.1173 12.108 40.7533 12.028 40.4253 11.868C40.1053 11.708 39.8533 11.492 39.6693 11.22C39.4933 10.948 39.4053 10.644 39.4053 10.308C39.4053 9.876 39.5133 9.536 39.7293 9.288C39.9453 9.04 40.3093 8.864 40.8213 8.76C41.3333 8.648 42.0213 8.592 42.8853 8.592H43.4493V9.288H42.9093C42.2933 9.288 41.8053 9.316 41.4453 9.372C41.0933 9.428 40.8453 9.528 40.7013 9.672C40.5573 9.808 40.4853 10 40.4853 10.248C40.4853 10.56 40.5933 10.816 40.8093 11.016C41.0333 11.216 41.3373 11.316 41.7213 11.316C42.0253 11.316 42.2933 11.244 42.5253 11.1C42.7573 10.948 42.9413 10.748 43.0773 10.5C43.2133 10.244 43.2813 9.952 43.2813 9.624V8.244C43.2813 7.772 43.1853 7.432 42.9933 7.224C42.8013 7.008 42.4773 6.9 42.0213 6.9C41.7573 6.9 41.4853 6.936 41.2053 7.008C40.9253 7.08 40.6333 7.192 40.3293 7.344C40.2093 7.4 40.1053 7.42 40.0173 7.404C39.9293 7.38 39.8573 7.332 39.8013 7.26C39.7533 7.18 39.7253 7.096 39.7173 7.008C39.7173 6.912 39.7373 6.82 39.7773 6.732C39.8253 6.644 39.9053 6.58 40.0173 6.54C40.3693 6.364 40.7173 6.24 41.0613 6.168C41.4133 6.088 41.7413 6.048 42.0453 6.048C42.5653 6.048 42.9933 6.132 43.3293 6.3C43.6653 6.46 43.9173 6.712 44.0853 7.056C44.2533 7.392 44.3373 7.824 44.3373 8.352V11.52C44.3373 11.704 44.2933 11.844 44.2053 11.94C44.1173 12.036 43.9893 12.084 43.8213 12.084C43.6613 12.084 43.5333 12.036 43.4373 11.94C43.3493 11.844 43.3053 11.704 43.3053 11.52V10.668H43.4133C43.3493 10.964 43.2293 11.22 43.0533 11.436C42.8773 11.652 42.6573 11.82 42.3933 11.94C42.1373 12.052 41.8453 12.108 41.5173 12.108ZM46.6197 12.084C46.4357 12.084 46.2957 12.036 46.1997 11.94C46.1037 11.844 46.0557 11.704 46.0557 11.52V6.624C46.0557 6.44 46.1037 6.304 46.1997 6.216C46.2957 6.12 46.4277 6.072 46.5957 6.072C46.7637 6.072 46.8917 6.12 46.9797 6.216C47.0757 6.304 47.1237 6.44 47.1237 6.624V7.548H47.0037C47.1317 7.068 47.3717 6.704 47.7237 6.456C48.0757 6.208 48.5197 6.068 49.0557 6.036C49.1837 6.028 49.2877 6.06 49.3677 6.132C49.4477 6.196 49.4917 6.308 49.4997 6.468C49.5077 6.62 49.4717 6.744 49.3917 6.84C49.3117 6.928 49.1877 6.98 49.0197 6.996L48.8037 7.008C48.2757 7.064 47.8677 7.236 47.5797 7.524C47.2997 7.812 47.1597 8.208 47.1597 8.712V11.52C47.1597 11.704 47.1117 11.844 47.0157 11.94C46.9277 12.036 46.7957 12.084 46.6197 12.084ZM57.6114 12.108C56.7074 12.108 55.9394 11.936 55.3074 11.592C54.6834 11.24 54.2074 10.74 53.8794 10.092C53.5594 9.444 53.3994 8.672 53.3994 7.776C53.3994 7.104 53.4914 6.504 53.6754 5.976C53.8594 5.44 54.1274 4.984 54.4794 4.608C54.8394 4.224 55.2714 3.932 55.7754 3.732C56.2874 3.532 56.8634 3.432 57.5034 3.432C57.9994 3.432 58.4794 3.5 58.9434 3.636C59.4074 3.764 59.8314 3.976 60.2154 4.272C60.3114 4.344 60.3714 4.428 60.3954 4.524C60.4274 4.62 60.4314 4.716 60.4074 4.812C60.3834 4.908 60.3354 4.992 60.2634 5.064C60.1994 5.136 60.1154 5.18 60.0114 5.196C59.9154 5.204 59.8114 5.172 59.6994 5.1C59.3714 4.86 59.0274 4.688 58.6674 4.584C58.3154 4.48 57.9274 4.428 57.5034 4.428C56.8714 4.428 56.3354 4.56 55.8954 4.824C55.4554 5.08 55.1234 5.46 54.8994 5.964C54.6834 6.46 54.5754 7.064 54.5754 7.776C54.5754 8.872 54.8314 9.704 55.3434 10.272C55.8634 10.84 56.6314 11.124 57.6474 11.124C58.0234 11.124 58.3874 11.088 58.7394 11.016C59.0994 10.944 59.4434 10.844 59.7714 10.716L59.5314 11.316V8.424H57.8994C57.7554 8.424 57.6394 8.384 57.5514 8.304C57.4714 8.224 57.4314 8.116 57.4314 7.98C57.4314 7.844 57.4714 7.74 57.5514 7.668C57.6394 7.596 57.7554 7.56 57.8994 7.56H60.0234C60.1674 7.56 60.2794 7.6 60.3594 7.68C60.4474 7.76 60.4914 7.876 60.4914 8.028V11.112C60.4914 11.24 60.4674 11.352 60.4194 11.448C60.3714 11.536 60.2914 11.6 60.1794 11.64C59.8434 11.776 59.4434 11.888 58.9794 11.976C58.5154 12.064 58.0594 12.108 57.6114 12.108ZM62.8736 12.084C62.6896 12.084 62.5496 12.036 62.4536 11.94C62.3576 11.844 62.3096 11.704 62.3096 11.52V6.624C62.3096 6.44 62.3576 6.304 62.4536 6.216C62.5496 6.12 62.6816 6.072 62.8496 6.072C63.0176 6.072 63.1456 6.12 63.2336 6.216C63.3296 6.304 63.3776 6.44 63.3776 6.624V7.548H63.2576C63.3856 7.068 63.6256 6.704 63.9776 6.456C64.3296 6.208 64.7736 6.068 65.3096 6.036C65.4376 6.028 65.5416 6.06 65.6216 6.132C65.7016 6.196 65.7456 6.308 65.7536 6.468C65.7616 6.62 65.7256 6.744 65.6456 6.84C65.5656 6.928 65.4416 6.98 65.2736 6.996L65.0576 7.008C64.5296 7.064 64.1216 7.236 63.8336 7.524C63.5536 7.812 63.4136 8.208 63.4136 8.712V11.52C63.4136 11.704 63.3656 11.844 63.2696 11.94C63.1816 12.036 63.0496 12.084 62.8736 12.084ZM69.3104 12.108C68.6784 12.108 68.1344 11.988 67.6784 11.748C67.2304 11.5 66.8824 11.152 66.6344 10.704C66.3864 10.248 66.2624 9.712 66.2624 9.096C66.2624 8.488 66.3824 7.956 66.6224 7.5C66.8704 7.044 67.2064 6.688 67.6304 6.432C68.0624 6.176 68.5544 6.048 69.1064 6.048C69.4984 6.048 69.8504 6.116 70.1624 6.252C70.4824 6.38 70.7544 6.568 70.9784 6.816C71.2024 7.064 71.3704 7.368 71.4824 7.728C71.6024 8.08 71.6624 8.48 71.6624 8.928C71.6624 9.056 71.6224 9.156 71.5424 9.228C71.4704 9.292 71.3624 9.324 71.2184 9.324H67.1144V8.628H70.9424L70.7384 8.796C70.7384 8.38 70.6744 8.028 70.5464 7.74C70.4264 7.444 70.2464 7.22 70.0064 7.068C69.7744 6.916 69.4824 6.84 69.1304 6.84C68.7464 6.84 68.4184 6.932 68.1464 7.116C67.8744 7.292 67.6664 7.544 67.5224 7.872C67.3784 8.192 67.3064 8.564 67.3064 8.988V9.06C67.3064 9.78 67.4784 10.324 67.8224 10.692C68.1664 11.06 68.6624 11.244 69.3104 11.244C69.5664 11.244 69.8264 11.212 70.0904 11.148C70.3624 11.084 70.6224 10.968 70.8704 10.8C70.9904 10.728 71.0984 10.696 71.1944 10.704C71.2984 10.704 71.3824 10.736 71.4464 10.8C71.5104 10.856 71.5504 10.928 71.5664 11.016C71.5824 11.096 71.5704 11.184 71.5304 11.28C71.4904 11.376 71.4144 11.46 71.3024 11.532C71.0384 11.716 70.7224 11.86 70.3544 11.964C69.9944 12.06 69.6464 12.108 69.3104 12.108ZM75.7205 12.108C75.0885 12.108 74.5445 11.988 74.0885 11.748C73.6405 11.5 73.2925 11.152 73.0445 10.704C72.7965 10.248 72.6725 9.712 72.6725 9.096C72.6725 8.488 72.7925 7.956 73.0325 7.5C73.2805 7.044 73.6165 6.688 74.0405 6.432C74.4725 6.176 74.9645 6.048 75.5165 6.048C75.9085 6.048 76.2605 6.116 76.5725 6.252C76.8925 6.38 77.1645 6.568 77.3885 6.816C77.6125 7.064 77.7805 7.368 77.8925 7.728C78.0125 8.08 78.0725 8.48 78.0725 8.928C78.0725 9.056 78.0325 9.156 77.9525 9.228C77.8805 9.292 77.7725 9.324 77.6285 9.324H73.5245V8.628H77.3525L77.1485 8.796C77.1485 8.38 77.0845 8.028 76.9565 7.74C76.8365 7.444 76.6565 7.22 76.4165 7.068C76.1845 6.916 75.8925 6.84 75.5405 6.84C75.1565 6.84 74.8285 6.932 74.5565 7.116C74.2845 7.292 74.0765 7.544 73.9325 7.872C73.7885 8.192 73.7165 8.564 73.7165 8.988V9.06C73.7165 9.78 73.8885 10.324 74.2325 10.692C74.5765 11.06 75.0725 11.244 75.7205 11.244C75.9765 11.244 76.2365 11.212 76.5005 11.148C76.7725 11.084 77.0325 10.968 77.2805 10.8C77.4005 10.728 77.5085 10.696 77.6045 10.704C77.7085 10.704 77.7925 10.736 77.8565 10.8C77.9205 10.856 77.9605 10.928 77.9765 11.016C77.9925 11.096 77.9805 11.184 77.9405 11.28C77.9005 11.376 77.8245 11.46 77.7125 11.532C77.4485 11.716 77.1325 11.86 76.7645 11.964C76.4045 12.06 76.0565 12.108 75.7205 12.108ZM79.9707 12.084C79.8027 12.084 79.6707 12.036 79.5747 11.94C79.4787 11.844 79.4307 11.704 79.4307 11.52V6.624C79.4307 6.44 79.4787 6.304 79.5747 6.216C79.6707 6.12 79.8027 6.072 79.9707 6.072C80.1387 6.072 80.2667 6.12 80.3547 6.216C80.4507 6.304 80.4987 6.44 80.4987 6.624V7.608L80.3667 7.428C80.5347 6.972 80.8067 6.628 81.1827 6.396C81.5667 6.164 82.0027 6.048 82.4907 6.048C82.9627 6.048 83.3507 6.132 83.6547 6.3C83.9587 6.468 84.1867 6.724 84.3387 7.068C84.4907 7.412 84.5667 7.848 84.5667 8.376V11.52C84.5667 11.704 84.5187 11.844 84.4227 11.94C84.3347 12.036 84.2027 12.084 84.0267 12.084C83.8507 12.084 83.7147 12.036 83.6187 11.94C83.5227 11.844 83.4747 11.704 83.4747 11.52V8.436C83.4747 7.916 83.3747 7.536 83.1747 7.296C82.9747 7.056 82.6547 6.936 82.2147 6.936C81.7027 6.936 81.2907 7.096 80.9787 7.416C80.6747 7.728 80.5227 8.152 80.5227 8.688V11.52C80.5227 11.896 80.3387 12.084 79.9707 12.084Z" fill="#64728C"/>
<defs>
<filter id="filter0_d_535_2575" x="0" y="3" width="16" height="14" filterUnits="userSpaceOnUse" color-interpolation-filters="sRGB">
<feFlood flood-opacity="0" result="BackgroundImageFix"/>
<feColorMatrix in="SourceAlpha" type="matrix" values="0 0 0 0 0 0 0 0 0 0 0 0 0 0 0 0 0 0 127 0" result="hardAlpha"/>
<feOffset dy="2"/>
<feGaussianBlur stdDeviation="2"/>
<feComposite in2="hardAlpha" operator="out"/>
<feColorMatrix type="matrix" values="0 0 0 0 0 0 0 0 0 0 0 0 0 0 0 0 0 0 0.25 0"/>
<feBlend mode="normal" in2="BackgroundImageFix" result="effect1_dropShadow_535_2575"/>
<feBlend mode="normal" in="SourceGraphic" in2="effect1_dropShadow_535_2575" result="shape"/>
</filter>
</defs>
</svg>
