<svg width="106" height="17" viewBox="0 0 106 17" fill="none" xmlns="http://www.w3.org/2000/svg">
<rect x="1.5" y="1.5" width="13" height="13" rx="4.5" fill="#FBB03B" stroke="#FFAA00"/>
<g filter="url(#filter0_d_535_2581)">
<path d="M6.39753 10.6955C5.99816 10.2895 5.99816 9.63123 6.39753 9.22523L10.2542 5.3045C10.6536 4.8985 11.3011 4.8985 11.7005 5.3045C12.0998 5.71051 12.0998 6.36877 11.7005 6.77477L7.84379 10.6955C7.44441 11.1015 6.7969 11.1015 6.39753 10.6955Z" fill="white"/>
<path d="M7.81423 10.6549C7.41486 11.061 6.76735 11.061 6.36797 10.6549L4.29953 8.55216C3.90016 8.14615 3.90016 7.48789 4.29953 7.08189C4.6989 6.67588 5.34641 6.67588 5.74579 7.08189L7.81423 9.18468C8.2136 9.59068 8.2136 10.2489 7.81423 10.6549Z" fill="white"/>
</g>
<path d="M28.6 12.084C28.424 12.084 28.288 12.036 28.192 11.94C28.096 11.836 28.048 11.688 28.048 11.496V7.62L28.288 8.364L25.312 4.236C25.232 4.124 25.192 4.008 25.192 3.888C25.2 3.76 25.248 3.656 25.336 3.576C25.424 3.496 25.544 3.456 25.696 3.456C25.816 3.456 25.924 3.484 26.02 3.54C26.116 3.596 26.208 3.688 26.296 3.816L28.768 7.224H28.492L30.964 3.816C31.052 3.68 31.14 3.588 31.228 3.54C31.316 3.484 31.428 3.456 31.564 3.456C31.708 3.456 31.82 3.496 31.9 3.576C31.988 3.648 32.032 3.744 32.032 3.864C32.04 3.984 31.996 4.108 31.9 4.236L28.924 8.364L29.164 7.62V11.496C29.164 11.888 28.976 12.084 28.6 12.084ZM34.8221 12.108C34.1901 12.108 33.6461 11.988 33.1901 11.748C32.7421 11.5 32.3941 11.152 32.1461 10.704C31.8981 10.248 31.7741 9.712 31.7741 9.096C31.7741 8.488 31.8941 7.956 32.1341 7.5C32.3821 7.044 32.7181 6.688 33.1421 6.432C33.5741 6.176 34.0661 6.048 34.6181 6.048C35.0101 6.048 35.3621 6.116 35.6741 6.252C35.9941 6.38 36.2661 6.568 36.4901 6.816C36.7141 7.064 36.8821 7.368 36.9941 7.728C37.1141 8.08 37.1741 8.48 37.1741 8.928C37.1741 9.056 37.1341 9.156 37.0541 9.228C36.9821 9.292 36.8741 9.324 36.7301 9.324H32.6261V8.628H36.4541L36.2501 8.796C36.2501 8.38 36.1861 8.028 36.0581 7.74C35.9381 7.444 35.7581 7.22 35.5181 7.068C35.2861 6.916 34.9941 6.84 34.6421 6.84C34.2581 6.84 33.9301 6.932 33.6581 7.116C33.3861 7.292 33.1781 7.544 33.0341 7.872C32.8901 8.192 32.8181 8.564 32.8181 8.988V9.06C32.8181 9.78 32.9901 10.324 33.3341 10.692C33.6781 11.06 34.1741 11.244 34.8221 11.244C35.0781 11.244 35.3381 11.212 35.6021 11.148C35.8741 11.084 36.1341 10.968 36.3821 10.8C36.5021 10.728 36.6101 10.696 36.7061 10.704C36.8101 10.704 36.8941 10.736 36.9581 10.8C37.0221 10.856 37.0621 10.928 37.0781 11.016C37.0941 11.096 37.0821 11.184 37.0421 11.28C37.0021 11.376 36.9261 11.46 36.8141 11.532C36.5501 11.716 36.2341 11.86 35.8661 11.964C35.5061 12.06 35.1581 12.108 34.8221 12.108ZM40.3683 12.108C39.7683 12.108 39.3123 11.932 39.0003 11.58C38.6883 11.22 38.5323 10.704 38.5323 10.032V4.008C38.5323 3.824 38.5803 3.688 38.6763 3.6C38.7723 3.504 38.9043 3.456 39.0723 3.456C39.2483 3.456 39.3843 3.504 39.4803 3.6C39.5763 3.688 39.6243 3.824 39.6243 4.008V9.948C39.6243 10.364 39.7083 10.676 39.8763 10.884C40.0523 11.084 40.3003 11.184 40.6203 11.184C40.6923 11.184 40.7563 11.184 40.8123 11.184C40.8683 11.176 40.9243 11.168 40.9803 11.16C41.0683 11.152 41.1323 11.176 41.1723 11.232C41.2123 11.288 41.2323 11.4 41.2323 11.568C41.2323 11.72 41.1963 11.84 41.1243 11.928C41.0603 12.008 40.9523 12.06 40.8003 12.084C40.7283 12.092 40.6563 12.096 40.5843 12.096C40.5123 12.104 40.4403 12.108 40.3683 12.108ZM43.9776 12.108C43.3776 12.108 42.9216 11.932 42.6096 11.58C42.2976 11.22 42.1416 10.704 42.1416 10.032V4.008C42.1416 3.824 42.1896 3.688 42.2856 3.6C42.3816 3.504 42.5136 3.456 42.6816 3.456C42.8576 3.456 42.9936 3.504 43.0896 3.6C43.1856 3.688 43.2336 3.824 43.2336 4.008V9.948C43.2336 10.364 43.3176 10.676 43.4856 10.884C43.6616 11.084 43.9096 11.184 44.2296 11.184C44.3016 11.184 44.3656 11.184 44.4216 11.184C44.4776 11.176 44.5336 11.168 44.5896 11.16C44.6776 11.152 44.7416 11.176 44.7816 11.232C44.8216 11.288 44.8416 11.4 44.8416 11.568C44.8416 11.72 44.8056 11.84 44.7336 11.928C44.6696 12.008 44.5616 12.06 44.4096 12.084C44.3376 12.092 44.2656 12.096 44.1936 12.096C44.1216 12.104 44.0496 12.108 43.9776 12.108ZM48.1764 12.108C47.6004 12.108 47.1004 11.984 46.6764 11.736C46.2524 11.488 45.9244 11.136 45.6924 10.68C45.4604 10.224 45.3444 9.688 45.3444 9.072C45.3444 8.608 45.4084 8.192 45.5364 7.824C45.6724 7.448 45.8644 7.128 46.1124 6.864C46.3604 6.6 46.6564 6.4 47.0004 6.264C47.3524 6.12 47.7444 6.048 48.1764 6.048C48.7524 6.048 49.2524 6.172 49.6764 6.42C50.1004 6.668 50.4284 7.02 50.6604 7.476C50.8924 7.924 51.0084 8.456 51.0084 9.072C51.0084 9.536 50.9404 9.956 50.8044 10.332C50.6764 10.708 50.4884 11.028 50.2404 11.292C49.9924 11.556 49.6924 11.76 49.3404 11.904C48.9964 12.04 48.6084 12.108 48.1764 12.108ZM48.1764 11.244C48.5284 11.244 48.8324 11.16 49.0884 10.992C49.3524 10.824 49.5524 10.58 49.6884 10.26C49.8324 9.94 49.9044 9.544 49.9044 9.072C49.9044 8.368 49.7484 7.832 49.4364 7.464C49.1244 7.096 48.7044 6.912 48.1764 6.912C47.8324 6.912 47.5284 6.996 47.2644 7.164C47.0084 7.324 46.8084 7.564 46.6644 7.884C46.5204 8.204 46.4484 8.6 46.4484 9.072C46.4484 9.776 46.6044 10.316 46.9164 10.692C47.2364 11.06 47.6564 11.244 48.1764 11.244ZM54.3895 12.084C54.2375 12.084 54.1055 12.048 53.9935 11.976C53.8815 11.896 53.7935 11.768 53.7295 11.592L51.9415 6.828C51.8855 6.676 51.8695 6.544 51.8935 6.432C51.9175 6.32 51.9735 6.232 52.0615 6.168C52.1495 6.104 52.2655 6.072 52.4095 6.072C52.5455 6.072 52.6535 6.104 52.7335 6.168C52.8135 6.232 52.8815 6.348 52.9375 6.516L54.5695 11.124H54.2815L55.9615 6.492C56.0175 6.348 56.0895 6.244 56.1775 6.18C56.2735 6.108 56.3895 6.072 56.5255 6.072C56.6695 6.072 56.7895 6.108 56.8855 6.18C56.9815 6.244 57.0495 6.348 57.0895 6.492L58.7455 11.124H58.4695L60.1255 6.492C60.1815 6.332 60.2535 6.224 60.3415 6.168C60.4295 6.104 60.5375 6.072 60.6655 6.072C60.8095 6.072 60.9175 6.108 60.9895 6.18C61.0615 6.252 61.1015 6.348 61.1095 6.468C61.1255 6.58 61.1095 6.7 61.0615 6.828L59.2735 11.592C59.2175 11.76 59.1295 11.884 59.0095 11.964C58.8975 12.044 58.7655 12.084 58.6135 12.084C58.4615 12.084 58.3255 12.044 58.2055 11.964C58.0935 11.884 58.0055 11.76 57.9415 11.592L56.2255 6.888H56.7775L55.0615 11.592C54.9975 11.76 54.9095 11.884 54.7975 11.964C54.6855 12.044 54.5495 12.084 54.3895 12.084ZM69.3234 12.108C68.5234 12.108 67.8314 11.932 67.2474 11.58C66.6634 11.22 66.2074 10.716 65.8794 10.068C65.5594 9.412 65.3994 8.644 65.3994 7.764C65.3994 7.1 65.4914 6.504 65.6754 5.976C65.8594 5.44 66.1194 4.984 66.4554 4.608C66.7994 4.224 67.2114 3.932 67.6914 3.732C68.1794 3.532 68.7234 3.432 69.3234 3.432C70.1234 3.432 70.8154 3.608 71.3994 3.96C71.9834 4.312 72.4354 4.812 72.7554 5.46C73.0754 6.108 73.2354 6.872 73.2354 7.752C73.2354 8.416 73.1434 9.016 72.9594 9.552C72.7754 10.088 72.5114 10.548 72.1674 10.932C71.8314 11.316 71.4234 11.608 70.9434 11.808C70.4634 12.008 69.9234 12.108 69.3234 12.108ZM69.3234 11.124C69.8994 11.124 70.3914 10.992 70.7994 10.728C71.2074 10.464 71.5194 10.08 71.7354 9.576C71.9594 9.072 72.0714 8.468 72.0714 7.764C72.0714 6.7 71.8314 5.876 71.3514 5.292C70.8794 4.708 70.2034 4.416 69.3234 4.416C68.7474 4.416 68.2514 4.548 67.8354 4.812C67.4274 5.068 67.1154 5.448 66.8994 5.952C66.6834 6.448 66.5754 7.052 66.5754 7.764C66.5754 8.82 66.8154 9.644 67.2954 10.236C67.7754 10.828 68.4514 11.124 69.3234 11.124ZM75.3892 12.084C75.2052 12.084 75.0652 12.036 74.9692 11.94C74.8732 11.844 74.8252 11.704 74.8252 11.52V6.624C74.8252 6.44 74.8732 6.304 74.9692 6.216C75.0652 6.12 75.1972 6.072 75.3652 6.072C75.5332 6.072 75.6612 6.12 75.7492 6.216C75.8452 6.304 75.8932 6.44 75.8932 6.624V7.548H75.7732C75.9012 7.068 76.1412 6.704 76.4932 6.456C76.8452 6.208 77.2892 6.068 77.8252 6.036C77.9532 6.028 78.0572 6.06 78.1372 6.132C78.2172 6.196 78.2612 6.308 78.2692 6.468C78.2772 6.62 78.2412 6.744 78.1612 6.84C78.0812 6.928 77.9572 6.98 77.7892 6.996L77.5732 7.008C77.0452 7.064 76.6372 7.236 76.3492 7.524C76.0692 7.812 75.9292 8.208 75.9292 8.712V11.52C75.9292 11.704 75.8812 11.844 75.7852 11.94C75.6972 12.036 75.5652 12.084 75.3892 12.084ZM81.0094 12.108C80.6094 12.108 80.2454 12.028 79.9174 11.868C79.5974 11.708 79.3454 11.492 79.1614 11.22C78.9854 10.948 78.8974 10.644 78.8974 10.308C78.8974 9.876 79.0054 9.536 79.2214 9.288C79.4374 9.04 79.8014 8.864 80.3134 8.76C80.8254 8.648 81.5134 8.592 82.3774 8.592H82.9414V9.288H82.4014C81.7854 9.288 81.2974 9.316 80.9374 9.372C80.5854 9.428 80.3374 9.528 80.1934 9.672C80.0494 9.808 79.9774 10 79.9774 10.248C79.9774 10.56 80.0854 10.816 80.3014 11.016C80.5254 11.216 80.8294 11.316 81.2134 11.316C81.5174 11.316 81.7854 11.244 82.0174 11.1C82.2494 10.948 82.4334 10.748 82.5694 10.5C82.7054 10.244 82.7734 9.952 82.7734 9.624V8.244C82.7734 7.772 82.6774 7.432 82.4854 7.224C82.2934 7.008 81.9694 6.9 81.5134 6.9C81.2494 6.9 80.9774 6.936 80.6974 7.008C80.4174 7.08 80.1254 7.192 79.8214 7.344C79.7014 7.4 79.5974 7.42 79.5094 7.404C79.4214 7.38 79.3494 7.332 79.2934 7.26C79.2454 7.18 79.2174 7.096 79.2094 7.008C79.2094 6.912 79.2294 6.82 79.2694 6.732C79.3174 6.644 79.3974 6.58 79.5094 6.54C79.8614 6.364 80.2094 6.24 80.5534 6.168C80.9054 6.088 81.2334 6.048 81.5374 6.048C82.0574 6.048 82.4854 6.132 82.8214 6.3C83.1574 6.46 83.4094 6.712 83.5774 7.056C83.7454 7.392 83.8294 7.824 83.8294 8.352V11.52C83.8294 11.704 83.7854 11.844 83.6974 11.94C83.6094 12.036 83.4814 12.084 83.3134 12.084C83.1534 12.084 83.0254 12.036 82.9294 11.94C82.8414 11.844 82.7974 11.704 82.7974 11.52V10.668H82.9054C82.8414 10.964 82.7214 11.22 82.5454 11.436C82.3694 11.652 82.1494 11.82 81.8854 11.94C81.6294 12.052 81.3374 12.108 81.0094 12.108ZM86.0879 12.084C85.9199 12.084 85.7879 12.036 85.6919 11.94C85.5959 11.844 85.5479 11.704 85.5479 11.52V6.624C85.5479 6.44 85.5959 6.304 85.6919 6.216C85.7879 6.12 85.9199 6.072 86.0879 6.072C86.2559 6.072 86.3839 6.12 86.4719 6.216C86.5679 6.304 86.6159 6.44 86.6159 6.624V7.608L86.4839 7.428C86.6519 6.972 86.9239 6.628 87.2999 6.396C87.6839 6.164 88.1199 6.048 88.6079 6.048C89.0799 6.048 89.4679 6.132 89.7719 6.3C90.0759 6.468 90.3039 6.724 90.4559 7.068C90.6079 7.412 90.6839 7.848 90.6839 8.376V11.52C90.6839 11.704 90.6359 11.844 90.5399 11.94C90.4519 12.036 90.3199 12.084 90.1439 12.084C89.9679 12.084 89.8319 12.036 89.7359 11.94C89.6399 11.844 89.5919 11.704 89.5919 11.52V8.436C89.5919 7.916 89.4919 7.536 89.2919 7.296C89.0919 7.056 88.7719 6.936 88.3319 6.936C87.8199 6.936 87.4079 7.096 87.0959 7.416C86.7919 7.728 86.6399 8.152 86.6399 8.688V11.52C86.6399 11.896 86.4559 12.084 86.0879 12.084ZM95.0431 14.268C94.6111 14.268 94.1911 14.22 93.7831 14.124C93.3831 14.028 93.0191 13.88 92.6911 13.68C92.5871 13.616 92.5151 13.54 92.4751 13.452C92.4431 13.372 92.4351 13.288 92.4511 13.2C92.4751 13.112 92.5151 13.032 92.5711 12.96C92.6351 12.896 92.7071 12.852 92.7871 12.828C92.8751 12.812 92.9631 12.832 93.0511 12.888C93.4031 13.088 93.7391 13.224 94.0591 13.296C94.3791 13.368 94.6831 13.404 94.9711 13.404C95.5391 13.404 95.9631 13.256 96.2431 12.96C96.5311 12.672 96.6751 12.248 96.6751 11.688V10.392H96.7831C96.6711 10.84 96.4191 11.196 96.0271 11.46C95.6431 11.724 95.1951 11.856 94.6831 11.856C94.1551 11.856 93.6951 11.736 93.3031 11.496C92.9111 11.248 92.6071 10.908 92.3911 10.476C92.1751 10.036 92.0671 9.528 92.0671 8.952C92.0671 8.512 92.1271 8.116 92.2471 7.764C92.3751 7.404 92.5511 7.1 92.7751 6.852C93.0071 6.596 93.2831 6.4 93.6031 6.264C93.9231 6.12 94.2831 6.048 94.6831 6.048C95.2031 6.048 95.6551 6.18 96.0391 6.444C96.4231 6.708 96.6711 7.064 96.7831 7.512L96.6511 7.68V6.624C96.6511 6.44 96.6991 6.304 96.7951 6.216C96.8911 6.12 97.0271 6.072 97.2031 6.072C97.3711 6.072 97.5031 6.12 97.5991 6.216C97.6951 6.304 97.7431 6.44 97.7431 6.624V11.544C97.7431 12.448 97.5111 13.128 97.0471 13.584C96.5911 14.04 95.9231 14.268 95.0431 14.268ZM94.9231 10.992C95.2831 10.992 95.5911 10.912 95.8471 10.752C96.1111 10.584 96.3111 10.348 96.4471 10.044C96.5911 9.732 96.6631 9.368 96.6631 8.952C96.6631 8.32 96.5071 7.824 96.1951 7.464C95.8831 7.096 95.4591 6.912 94.9231 6.912C94.5631 6.912 94.2511 6.996 93.9871 7.164C93.7311 7.324 93.5311 7.556 93.3871 7.86C93.2431 8.164 93.1711 8.528 93.1711 8.952C93.1711 9.576 93.3271 10.072 93.6391 10.44C93.9591 10.808 94.3871 10.992 94.9231 10.992ZM102.193 12.108C101.561 12.108 101.017 11.988 100.561 11.748C100.113 11.5 99.7652 11.152 99.5172 10.704C99.2692 10.248 99.1452 9.712 99.1452 9.096C99.1452 8.488 99.2652 7.956 99.5052 7.5C99.7532 7.044 100.089 6.688 100.513 6.432C100.945 6.176 101.437 6.048 101.989 6.048C102.381 6.048 102.733 6.116 103.045 6.252C103.365 6.38 103.637 6.568 103.861 6.816C104.085 7.064 104.253 7.368 104.365 7.728C104.485 8.08 104.545 8.48 104.545 8.928C104.545 9.056 104.505 9.156 104.425 9.228C104.353 9.292 104.245 9.324 104.101 9.324H99.9972V8.628H103.825L103.621 8.796C103.621 8.38 103.557 8.028 103.429 7.74C103.309 7.444 103.129 7.22 102.889 7.068C102.657 6.916 102.365 6.84 102.013 6.84C101.629 6.84 101.301 6.932 101.029 7.116C100.757 7.292 100.549 7.544 100.405 7.872C100.261 8.192 100.189 8.564 100.189 8.988V9.06C100.189 9.78 100.361 10.324 100.705 10.692C101.049 11.06 101.545 11.244 102.193 11.244C102.449 11.244 102.709 11.212 102.973 11.148C103.245 11.084 103.505 10.968 103.753 10.8C103.873 10.728 103.981 10.696 104.077 10.704C104.181 10.704 104.265 10.736 104.329 10.8C104.393 10.856 104.433 10.928 104.449 11.016C104.465 11.096 104.453 11.184 104.413 11.28C104.373 11.376 104.297 11.46 104.185 11.532C103.921 11.716 103.605 11.86 103.237 11.964C102.877 12.06 102.529 12.108 102.193 12.108Z" fill="#64728C"/>
<defs>
<filter id="filter0_d_535_2581" x="0" y="3" width="16" height="14" filterUnits="userSpaceOnUse" color-interpolation-filters="sRGB">
<feFlood flood-opacity="0" result="BackgroundImageFix"/>
<feColorMatrix in="SourceAlpha" type="matrix" values="0 0 0 0 0 0 0 0 0 0 0 0 0 0 0 0 0 0 127 0" result="hardAlpha"/>
<feOffset dy="2"/>
<feGaussianBlur stdDeviation="2"/>
<feComposite in2="hardAlpha" operator="out"/>
<feColorMatrix type="matrix" values="0 0 0 0 0 0 0 0 0 0 0 0 0 0 0 0 0 0 0.25 0"/>
<feBlend mode="normal" in2="BackgroundImageFix" result="effect1_dropShadow_535_2581"/>
<feBlend mode="normal" in="SourceGraphic" in2="effect1_dropShadow_535_2581" result="shape"/>
</filter>
</defs>
</svg>
