<svg width="300" height="66" viewBox="0 0 300 66" fill="none" xmlns="http://www.w3.org/2000/svg">
<rect x="0.5" y="21.5" width="299" height="44" rx="11.5" stroke="#E8EAEF"/>
<path d="M13.78 47.608C13.404 47.608 13.036 47.576 12.676 47.512C12.316 47.448 11.98 47.356 11.668 47.236C11.364 47.116 11.088 46.964 10.84 46.78C10.744 46.708 10.676 46.628 10.636 46.54C10.604 46.444 10.596 46.352 10.612 46.264C10.636 46.168 10.676 46.088 10.732 46.024C10.796 45.96 10.872 45.924 10.96 45.916C11.048 45.908 11.144 45.936 11.248 46C11.608 46.256 11.992 46.444 12.4 46.564C12.808 46.676 13.268 46.732 13.78 46.732C14.5 46.732 15.032 46.6 15.376 46.336C15.728 46.064 15.904 45.708 15.904 45.268C15.904 44.908 15.776 44.628 15.52 44.428C15.272 44.22 14.852 44.056 14.26 43.936L13.012 43.684C12.26 43.524 11.696 43.264 11.32 42.904C10.952 42.536 10.768 42.048 10.768 41.44C10.768 41.064 10.844 40.724 10.996 40.42C11.148 40.108 11.36 39.844 11.632 39.628C11.904 39.404 12.228 39.232 12.604 39.112C12.98 38.992 13.396 38.932 13.852 38.932C14.356 38.932 14.824 39.004 15.256 39.148C15.696 39.284 16.092 39.492 16.444 39.772C16.532 39.844 16.592 39.928 16.624 40.024C16.656 40.112 16.66 40.2 16.636 40.288C16.612 40.368 16.568 40.436 16.504 40.492C16.448 40.548 16.372 40.58 16.276 40.588C16.188 40.596 16.088 40.564 15.976 40.492C15.656 40.252 15.324 40.08 14.98 39.976C14.636 39.864 14.256 39.808 13.84 39.808C13.416 39.808 13.048 39.872 12.736 40C12.432 40.128 12.192 40.316 12.016 40.564C11.848 40.804 11.764 41.084 11.764 41.404C11.764 41.788 11.88 42.092 12.112 42.316C12.352 42.54 12.74 42.704 13.276 42.808L14.524 43.072C15.332 43.24 15.928 43.496 16.312 43.84C16.704 44.176 16.9 44.636 16.9 45.22C16.9 45.572 16.828 45.896 16.684 46.192C16.54 46.488 16.332 46.744 16.06 46.96C15.788 47.168 15.46 47.328 15.076 47.44C14.692 47.552 14.26 47.608 13.78 47.608ZM20.9228 47.608C20.3068 47.608 19.7748 47.488 19.3268 47.248C18.8868 47 18.5428 46.652 18.2948 46.204C18.0548 45.756 17.9348 45.22 17.9348 44.596C17.9348 43.988 18.0548 43.46 18.2948 43.012C18.5348 42.556 18.8628 42.2 19.2788 41.944C19.7028 41.688 20.1908 41.56 20.7428 41.56C21.1348 41.56 21.4868 41.628 21.7988 41.764C22.1108 41.892 22.3748 42.08 22.5908 42.328C22.8148 42.576 22.9828 42.876 23.0948 43.228C23.2148 43.58 23.2748 43.976 23.2748 44.416C23.2748 44.544 23.2388 44.64 23.1668 44.704C23.0948 44.76 22.9908 44.788 22.8548 44.788H18.6788V44.152H22.6268L22.4348 44.308C22.4348 43.876 22.3708 43.512 22.2428 43.216C22.1148 42.912 21.9268 42.68 21.6788 42.52C21.4388 42.36 21.1348 42.28 20.7668 42.28C20.3588 42.28 20.0108 42.376 19.7228 42.568C19.4428 42.752 19.2308 43.012 19.0868 43.348C18.9428 43.676 18.8708 44.06 18.8708 44.5V44.572C18.8708 45.308 19.0468 45.868 19.3988 46.252C19.7588 46.636 20.2668 46.828 20.9228 46.828C21.1948 46.828 21.4628 46.792 21.7268 46.72C21.9988 46.648 22.2628 46.528 22.5188 46.36C22.6308 46.288 22.7308 46.256 22.8188 46.264C22.9148 46.264 22.9908 46.292 23.0468 46.348C23.1028 46.396 23.1388 46.46 23.1548 46.54C23.1788 46.612 23.1708 46.692 23.1308 46.78C23.0988 46.868 23.0308 46.944 22.9268 47.008C22.6628 47.2 22.3508 47.348 21.9908 47.452C21.6308 47.556 21.2748 47.608 20.9228 47.608ZM26.4575 47.608C25.8815 47.608 25.4415 47.432 25.1375 47.08C24.8335 46.728 24.6815 46.224 24.6815 45.568V39.448C24.6815 39.288 24.7215 39.168 24.8015 39.088C24.8815 39 25.0015 38.956 25.1615 38.956C25.3135 38.956 25.4335 39 25.5215 39.088C25.6095 39.168 25.6535 39.288 25.6535 39.448V45.496C25.6535 45.928 25.7375 46.252 25.9055 46.468C26.0815 46.676 26.3375 46.78 26.6735 46.78C26.7455 46.78 26.8095 46.776 26.8655 46.768C26.9215 46.76 26.9775 46.756 27.0335 46.756C27.1215 46.748 27.1815 46.768 27.2135 46.816C27.2535 46.864 27.2735 46.96 27.2735 47.104C27.2735 47.248 27.2415 47.356 27.1775 47.428C27.1135 47.5 27.0095 47.548 26.8655 47.572C26.8015 47.58 26.7335 47.588 26.6615 47.596C26.5895 47.604 26.5215 47.608 26.4575 47.608ZM30.8017 47.608C30.1857 47.608 29.6537 47.488 29.2057 47.248C28.7657 47 28.4217 46.652 28.1737 46.204C27.9337 45.756 27.8137 45.22 27.8137 44.596C27.8137 43.988 27.9337 43.46 28.1737 43.012C28.4137 42.556 28.7417 42.2 29.1577 41.944C29.5817 41.688 30.0697 41.56 30.6217 41.56C31.0137 41.56 31.3657 41.628 31.6777 41.764C31.9897 41.892 32.2537 42.08 32.4697 42.328C32.6937 42.576 32.8617 42.876 32.9737 43.228C33.0937 43.58 33.1537 43.976 33.1537 44.416C33.1537 44.544 33.1177 44.64 33.0457 44.704C32.9737 44.76 32.8697 44.788 32.7337 44.788H28.5577V44.152H32.5057L32.3137 44.308C32.3137 43.876 32.2497 43.512 32.1217 43.216C31.9937 42.912 31.8057 42.68 31.5577 42.52C31.3177 42.36 31.0137 42.28 30.6457 42.28C30.2377 42.28 29.8897 42.376 29.6017 42.568C29.3217 42.752 29.1097 43.012 28.9657 43.348C28.8217 43.676 28.7497 44.06 28.7497 44.5V44.572C28.7497 45.308 28.9257 45.868 29.2777 46.252C29.6377 46.636 30.1457 46.828 30.8017 46.828C31.0737 46.828 31.3417 46.792 31.6057 46.72C31.8777 46.648 32.1417 46.528 32.3977 46.36C32.5097 46.288 32.6097 46.256 32.6977 46.264C32.7937 46.264 32.8697 46.292 32.9257 46.348C32.9817 46.396 33.0177 46.46 33.0337 46.54C33.0577 46.612 33.0497 46.692 33.0097 46.78C32.9777 46.868 32.9097 46.944 32.8057 47.008C32.5417 47.2 32.2297 47.348 31.8697 47.452C31.5097 47.556 31.1537 47.608 30.8017 47.608ZM37.0324 47.608C36.4484 47.608 35.9444 47.48 35.5204 47.224C35.0964 46.968 34.7684 46.612 34.5364 46.156C34.3124 45.692 34.2004 45.156 34.2004 44.548C34.2004 44.084 34.2644 43.668 34.3924 43.3C34.5204 42.932 34.7084 42.62 34.9564 42.364C35.2044 42.1 35.5004 41.9 35.8444 41.764C36.1964 41.628 36.5924 41.56 37.0324 41.56C37.3204 41.56 37.6204 41.604 37.9324 41.692C38.2444 41.78 38.5284 41.932 38.7844 42.148C38.8644 42.204 38.9164 42.272 38.9404 42.352C38.9644 42.432 38.9644 42.512 38.9404 42.592C38.9164 42.664 38.8764 42.728 38.8204 42.784C38.7644 42.832 38.6924 42.86 38.6044 42.868C38.5244 42.876 38.4404 42.848 38.3524 42.784C38.1444 42.624 37.9324 42.512 37.7164 42.448C37.5004 42.384 37.2924 42.352 37.0924 42.352C36.7804 42.352 36.5084 42.404 36.2764 42.508C36.0444 42.604 35.8484 42.744 35.6884 42.928C35.5284 43.112 35.4044 43.34 35.3164 43.612C35.2364 43.884 35.1964 44.2 35.1964 44.56C35.1964 45.256 35.3604 45.808 35.6884 46.216C36.0164 46.616 36.4844 46.816 37.0924 46.816C37.2924 46.816 37.4964 46.784 37.7044 46.72C37.9204 46.656 38.1364 46.544 38.3524 46.384C38.4404 46.32 38.5244 46.292 38.6044 46.3C38.6844 46.308 38.7524 46.34 38.8084 46.396C38.8644 46.444 38.9004 46.508 38.9164 46.588C38.9404 46.668 38.9404 46.748 38.9164 46.828C38.8924 46.9 38.8404 46.964 38.7604 47.02C38.5044 47.228 38.2244 47.38 37.9204 47.476C37.6164 47.564 37.3204 47.608 37.0324 47.608ZM42.4551 47.608C41.9991 47.608 41.6151 47.528 41.3031 47.368C40.9991 47.2 40.7711 46.96 40.6191 46.648C40.4671 46.328 40.3911 45.94 40.3911 45.484V42.424H39.5871C39.4511 42.424 39.3471 42.392 39.2751 42.328C39.2031 42.256 39.1671 42.16 39.1671 42.04C39.1671 41.92 39.2031 41.828 39.2751 41.764C39.3471 41.7 39.4511 41.668 39.5871 41.668H40.3911V40.288C40.3911 40.128 40.4351 40.008 40.5231 39.928C40.6111 39.84 40.7311 39.796 40.8831 39.796C41.0351 39.796 41.1511 39.84 41.2311 39.928C41.3191 40.008 41.3631 40.128 41.3631 40.288V41.668H42.8751C43.0111 41.668 43.1151 41.7 43.1871 41.764C43.2591 41.828 43.2951 41.92 43.2951 42.04C43.2951 42.16 43.2591 42.256 43.1871 42.328C43.1151 42.392 43.0111 42.424 42.8751 42.424H41.3631V45.388C41.3631 45.844 41.4591 46.192 41.6511 46.432C41.8431 46.664 42.1551 46.78 42.5871 46.78C42.7391 46.78 42.8671 46.764 42.9711 46.732C43.0831 46.7 43.1751 46.684 43.2471 46.684C43.3191 46.676 43.3791 46.7 43.4271 46.756C43.4751 46.812 43.4991 46.908 43.4991 47.044C43.4991 47.14 43.4791 47.228 43.4391 47.308C43.4071 47.388 43.3471 47.444 43.2591 47.476C43.1631 47.508 43.0351 47.536 42.8751 47.56C42.7231 47.592 42.5831 47.608 42.4551 47.608ZM51.0882 47.608C50.3042 47.608 49.6202 47.432 49.0362 47.08C48.4602 46.72 48.0122 46.216 47.6922 45.568C47.3802 44.92 47.2242 44.152 47.2242 43.264C47.2242 42.592 47.3122 41.992 47.4882 41.464C47.6722 40.928 47.9322 40.476 48.2682 40.108C48.6042 39.732 49.0082 39.444 49.4802 39.244C49.9602 39.036 50.4962 38.932 51.0882 38.932C51.8882 38.932 52.5762 39.108 53.1522 39.46C53.7362 39.812 54.1842 40.312 54.4962 40.96C54.8162 41.6 54.9762 42.364 54.9762 43.252C54.9762 43.924 54.8842 44.528 54.7002 45.064C54.5162 45.6 54.2562 46.056 53.9202 46.432C53.5842 46.808 53.1762 47.1 52.6962 47.308C52.2242 47.508 51.6882 47.608 51.0882 47.608ZM51.0882 46.732C51.6962 46.732 52.2082 46.596 52.6242 46.324C53.0482 46.052 53.3722 45.656 53.5962 45.136C53.8202 44.616 53.9322 43.992 53.9322 43.264C53.9322 42.168 53.6842 41.32 53.1882 40.72C52.7002 40.112 52.0002 39.808 51.0882 39.808C50.4962 39.808 49.9882 39.944 49.5642 40.216C49.1482 40.488 48.8282 40.884 48.6042 41.404C48.3802 41.916 48.2682 42.536 48.2682 43.264C48.2682 44.352 48.5162 45.204 49.0122 45.82C49.5082 46.428 50.2002 46.732 51.0882 46.732ZM57.0834 49.744C56.9234 49.744 56.8034 49.7 56.7234 49.612C56.6434 49.532 56.6034 49.412 56.6034 49.252V42.076C56.6034 41.916 56.6434 41.796 56.7234 41.716C56.8034 41.628 56.9194 41.584 57.0714 41.584C57.2314 41.584 57.3514 41.628 57.4314 41.716C57.5194 41.796 57.5634 41.916 57.5634 42.076V43.216L57.4314 43.048C57.5594 42.592 57.8114 42.232 58.1874 41.968C58.5714 41.696 59.0274 41.56 59.5554 41.56C60.0754 41.56 60.5274 41.684 60.9114 41.932C61.3034 42.172 61.6034 42.52 61.8114 42.976C62.0274 43.424 62.1354 43.96 62.1354 44.584C62.1354 45.2 62.0274 45.736 61.8114 46.192C61.6034 46.64 61.3074 46.988 60.9234 47.236C60.5394 47.484 60.0834 47.608 59.5554 47.608C59.0274 47.608 58.5754 47.476 58.1994 47.212C57.8234 46.94 57.5674 46.58 57.4314 46.132H57.5754V49.252C57.5754 49.412 57.5314 49.532 57.4434 49.612C57.3554 49.7 57.2354 49.744 57.0834 49.744ZM59.3514 46.828C59.7194 46.828 60.0354 46.74 60.2994 46.564C60.5714 46.388 60.7794 46.132 60.9234 45.796C61.0754 45.46 61.1514 45.056 61.1514 44.584C61.1514 43.856 60.9874 43.3 60.6594 42.916C60.3394 42.532 59.9034 42.34 59.3514 42.34C58.9914 42.34 58.6754 42.428 58.4034 42.604C58.1314 42.772 57.9194 43.024 57.7674 43.36C57.6234 43.688 57.5514 44.096 57.5514 44.584C57.5514 45.304 57.7154 45.86 58.0434 46.252C58.3714 46.636 58.8074 46.828 59.3514 46.828ZM65.8809 47.608C65.4249 47.608 65.0409 47.528 64.7289 47.368C64.4249 47.2 64.1969 46.96 64.0449 46.648C63.8929 46.328 63.8169 45.94 63.8169 45.484V42.424H63.0129C62.8769 42.424 62.7729 42.392 62.7009 42.328C62.6289 42.256 62.5929 42.16 62.5929 42.04C62.5929 41.92 62.6289 41.828 62.7009 41.764C62.7729 41.7 62.8769 41.668 63.0129 41.668H63.8169V40.288C63.8169 40.128 63.8609 40.008 63.9489 39.928C64.0369 39.84 64.1569 39.796 64.3089 39.796C64.4609 39.796 64.5769 39.84 64.6569 39.928C64.7449 40.008 64.7889 40.128 64.7889 40.288V41.668H66.3009C66.4369 41.668 66.5409 41.7 66.6129 41.764C66.6849 41.828 66.7209 41.92 66.7209 42.04C66.7209 42.16 66.6849 42.256 66.6129 42.328C66.5409 42.392 66.4369 42.424 66.3009 42.424H64.7889V45.388C64.7889 45.844 64.8849 46.192 65.0769 46.432C65.2689 46.664 65.5809 46.78 66.0129 46.78C66.1649 46.78 66.2929 46.764 66.3969 46.732C66.5089 46.7 66.6009 46.684 66.6729 46.684C66.7449 46.676 66.8049 46.7 66.8529 46.756C66.9009 46.812 66.9249 46.908 66.9249 47.044C66.9249 47.14 66.9049 47.228 66.8649 47.308C66.8329 47.388 66.7729 47.444 66.6849 47.476C66.5889 47.508 66.4609 47.536 66.3009 47.56C66.1489 47.592 66.0089 47.608 65.8809 47.608ZM68.2865 47.56C68.1265 47.56 68.0065 47.516 67.9265 47.428C67.8465 47.332 67.8065 47.2 67.8065 47.032V42.124C67.8065 41.956 67.8465 41.828 67.9265 41.74C68.0065 41.652 68.1265 41.608 68.2865 41.608C68.4385 41.608 68.5585 41.652 68.6465 41.74C68.7345 41.828 68.7785 41.956 68.7785 42.124V47.032C68.7785 47.2 68.7345 47.332 68.6465 47.428C68.5665 47.516 68.4465 47.56 68.2865 47.56ZM68.2865 40.264C68.0865 40.264 67.9305 40.212 67.8185 40.108C67.7065 39.996 67.6505 39.848 67.6505 39.664C67.6505 39.472 67.7065 39.328 67.8185 39.232C67.9305 39.128 68.0865 39.076 68.2865 39.076C68.4945 39.076 68.6505 39.128 68.7545 39.232C68.8665 39.328 68.9225 39.472 68.9225 39.664C68.9225 39.848 68.8665 39.996 68.7545 40.108C68.6505 40.212 68.4945 40.264 68.2865 40.264ZM73.0196 47.608C72.4516 47.608 71.9596 47.484 71.5436 47.236C71.1276 46.988 70.8036 46.64 70.5716 46.192C70.3476 45.736 70.2356 45.2 70.2356 44.584C70.2356 44.12 70.2996 43.704 70.4276 43.336C70.5556 42.96 70.7436 42.64 70.9916 42.376C71.2396 42.112 71.5316 41.912 71.8676 41.776C72.2116 41.632 72.5956 41.56 73.0196 41.56C73.5876 41.56 74.0796 41.684 74.4956 41.932C74.9116 42.18 75.2316 42.532 75.4556 42.988C75.6876 43.436 75.8036 43.968 75.8036 44.584C75.8036 45.048 75.7396 45.464 75.6116 45.832C75.4836 46.2 75.2956 46.52 75.0476 46.792C74.7996 47.056 74.5036 47.26 74.1596 47.404C73.8236 47.54 73.4436 47.608 73.0196 47.608ZM73.0196 46.828C73.3796 46.828 73.6956 46.74 73.9676 46.564C74.2396 46.388 74.4476 46.132 74.5916 45.796C74.7436 45.46 74.8196 45.056 74.8196 44.584C74.8196 43.856 74.6556 43.3 74.3276 42.916C74.0076 42.532 73.5716 42.34 73.0196 42.34C72.6516 42.34 72.3316 42.428 72.0596 42.604C71.7956 42.772 71.5876 43.024 71.4356 43.36C71.2916 43.688 71.2196 44.096 71.2196 44.584C71.2196 45.304 71.3836 45.86 71.7116 46.252C72.0396 46.636 72.4756 46.828 73.0196 46.828ZM77.7436 47.584C77.5836 47.584 77.4636 47.54 77.3836 47.452C77.3036 47.364 77.2636 47.24 77.2636 47.08V42.076C77.2636 41.916 77.3036 41.796 77.3836 41.716C77.4636 41.628 77.5796 41.584 77.7316 41.584C77.8836 41.584 77.9996 41.628 78.0796 41.716C78.1676 41.796 78.2116 41.916 78.2116 42.076V43.108L78.0796 42.964C78.2476 42.5 78.5196 42.152 78.8956 41.92C79.2796 41.68 79.7196 41.56 80.2156 41.56C80.6796 41.56 81.0636 41.644 81.3676 41.812C81.6796 41.98 81.9116 42.236 82.0636 42.58C82.2156 42.916 82.2916 43.344 82.2916 43.864V47.08C82.2916 47.24 82.2476 47.364 82.1596 47.452C82.0796 47.54 81.9636 47.584 81.8116 47.584C81.6516 47.584 81.5276 47.54 81.4396 47.452C81.3596 47.364 81.3196 47.24 81.3196 47.08V43.924C81.3196 43.38 81.2116 42.984 80.9956 42.736C80.7876 42.48 80.4516 42.352 79.9876 42.352C79.4516 42.352 79.0236 42.52 78.7036 42.856C78.3916 43.184 78.2356 43.624 78.2356 44.176V47.08C78.2356 47.416 78.0716 47.584 77.7436 47.584Z" fill="#929BAA"/>
<rect x="260" y="25.5" width="36" height="36" rx="12" fill="#64728C" fill-opacity="0.12"/>
<path d="M279.039 48.2C278.577 49 277.423 49 276.961 48.2L273.843 42.8C273.381 42 273.959 41 274.882 41L281.118 41C282.041 41 282.619 42 282.157 42.8L279.039 48.2Z" fill="#64728C"/>
<path d="M1.656 12C1.44 12 1.272 11.944 1.152 11.832C1.04 11.712 0.984 11.544 0.984 11.328V4.212C0.984 3.996 1.04 3.832 1.152 3.72C1.272 3.6 1.44 3.54 1.656 3.54H3.972C5.364 3.54 6.436 3.904 7.188 4.632C7.948 5.352 8.328 6.396 8.328 7.764C8.328 8.444 8.232 9.048 8.04 9.576C7.848 10.104 7.564 10.548 7.188 10.908C6.82 11.26 6.368 11.532 5.832 11.724C5.296 11.908 4.676 12 3.972 12H1.656ZM2.232 10.956H3.9C4.428 10.956 4.884 10.892 5.268 10.764C5.66 10.628 5.988 10.428 6.252 10.164C6.516 9.9 6.712 9.568 6.84 9.168C6.968 8.768 7.032 8.3 7.032 7.764C7.032 6.7 6.768 5.904 6.24 5.376C5.72 4.848 4.94 4.584 3.9 4.584H2.232V10.956ZM10.4757 12.084C10.2757 12.084 10.1237 12.032 10.0197 11.928C9.91572 11.816 9.86372 11.664 9.86372 11.472V6.672C9.86372 6.472 9.91572 6.32 10.0197 6.216C10.1237 6.112 10.2677 6.06 10.4517 6.06C10.6437 6.06 10.7877 6.112 10.8837 6.216C10.9877 6.32 11.0397 6.472 11.0397 6.672V7.548H10.9197C11.0477 7.068 11.2837 6.704 11.6277 6.456C11.9717 6.208 12.4117 6.064 12.9477 6.024C13.0917 6.016 13.2037 6.052 13.2837 6.132C13.3717 6.212 13.4197 6.336 13.4277 6.504C13.4437 6.672 13.4077 6.808 13.3197 6.912C13.2317 7.008 13.0957 7.064 12.9117 7.08L12.6837 7.104C12.1637 7.152 11.7677 7.316 11.4957 7.596C11.2237 7.876 11.0877 8.26 11.0877 8.748V11.472C11.0877 11.664 11.0357 11.816 10.9317 11.928C10.8357 12.032 10.6837 12.084 10.4757 12.084ZM16.8023 12.108C16.2103 12.108 15.6983 11.984 15.2663 11.736C14.8423 11.488 14.5103 11.136 14.2703 10.68C14.0303 10.224 13.9103 9.688 13.9103 9.072C13.9103 8.6 13.9783 8.18 14.1143 7.812C14.2503 7.444 14.4423 7.128 14.6903 6.864C14.9463 6.592 15.2503 6.388 15.6023 6.252C15.9623 6.108 16.3623 6.036 16.8023 6.036C17.3863 6.036 17.8903 6.16 18.3143 6.408C18.7463 6.656 19.0823 7.008 19.3223 7.464C19.5623 7.912 19.6823 8.448 19.6823 9.072C19.6823 9.536 19.6143 9.956 19.4783 10.332C19.3423 10.708 19.1463 11.028 18.8903 11.292C18.6423 11.556 18.3383 11.76 17.9783 11.904C17.6263 12.04 17.2343 12.108 16.8023 12.108ZM16.8023 11.172C17.1303 11.172 17.4183 11.092 17.6663 10.932C17.9143 10.772 18.1063 10.536 18.2423 10.224C18.3863 9.912 18.4583 9.528 18.4583 9.072C18.4583 8.384 18.3063 7.864 18.0023 7.512C17.6983 7.16 17.2983 6.984 16.8023 6.984C16.4663 6.984 16.1743 7.064 15.9263 7.224C15.6783 7.376 15.4823 7.608 15.3383 7.92C15.2023 8.232 15.1343 8.616 15.1343 9.072C15.1343 9.752 15.2863 10.272 15.5903 10.632C15.8943 10.992 16.2983 11.172 16.8023 11.172ZM21.6434 14.244C21.4514 14.244 21.3034 14.192 21.1994 14.088C21.0954 13.984 21.0434 13.832 21.0434 13.632V6.672C21.0434 6.472 21.0954 6.32 21.1994 6.216C21.3034 6.112 21.4474 6.06 21.6314 6.06C21.8234 6.06 21.9714 6.112 22.0754 6.216C22.1794 6.32 22.2314 6.472 22.2314 6.672V7.716L22.0994 7.464C22.2274 7.032 22.4794 6.688 22.8554 6.432C23.2314 6.168 23.6754 6.036 24.1874 6.036C24.7074 6.036 25.1594 6.16 25.5434 6.408C25.9354 6.656 26.2354 7.004 26.4434 7.452C26.6594 7.9 26.7674 8.44 26.7674 9.072C26.7674 9.688 26.6594 10.228 26.4434 10.692C26.2354 11.148 25.9394 11.5 25.5554 11.748C25.1714 11.988 24.7154 12.108 24.1874 12.108C23.6834 12.108 23.2434 11.98 22.8674 11.724C22.4914 11.468 22.2394 11.128 22.1114 10.704H22.2554V13.632C22.2554 13.832 22.1994 13.984 22.0874 14.088C21.9834 14.192 21.8354 14.244 21.6434 14.244ZM23.8874 11.172C24.2234 11.172 24.5154 11.092 24.7634 10.932C25.0114 10.772 25.2034 10.536 25.3394 10.224C25.4754 9.912 25.5434 9.528 25.5434 9.072C25.5434 8.384 25.3914 7.864 25.0874 7.512C24.7914 7.16 24.3914 6.984 23.8874 6.984C23.5594 6.984 23.2674 7.064 23.0114 7.224C22.7634 7.376 22.5714 7.608 22.4354 7.92C22.2994 8.232 22.2314 8.616 22.2314 9.072C22.2314 9.752 22.3834 10.272 22.6874 10.632C22.9914 10.992 23.3914 11.172 23.8874 11.172ZM30.3652 12.108C29.8533 12.108 29.4013 11.988 29.0093 11.748C28.6253 11.5 28.3253 11.148 28.1093 10.692C27.8933 10.228 27.7853 9.688 27.7853 9.072C27.7853 8.44 27.8933 7.9 28.1093 7.452C28.3253 7.004 28.6253 6.656 29.0093 6.408C29.4013 6.16 29.8533 6.036 30.3652 6.036C30.8773 6.036 31.3173 6.164 31.6853 6.42C32.0613 6.668 32.3133 7.004 32.4413 7.428H32.3093V4.068C32.3093 3.868 32.3613 3.716 32.4653 3.612C32.5693 3.508 32.7173 3.456 32.9093 3.456C33.1013 3.456 33.2493 3.508 33.3533 3.612C33.4653 3.716 33.5213 3.868 33.5213 4.068V11.472C33.5213 11.664 33.4693 11.816 33.3653 11.928C33.2613 12.032 33.1133 12.084 32.9213 12.084C32.7293 12.084 32.5813 12.032 32.4773 11.928C32.3733 11.816 32.3213 11.664 32.3213 11.472V10.416L32.4533 10.68C32.3253 11.112 32.0733 11.46 31.6973 11.724C31.3293 11.98 30.8853 12.108 30.3652 12.108ZM30.6773 11.172C31.0053 11.172 31.2933 11.092 31.5413 10.932C31.7893 10.772 31.9813 10.536 32.1173 10.224C32.2613 9.912 32.3333 9.528 32.3333 9.072C32.3333 8.384 32.1813 7.864 31.8773 7.512C31.5733 7.16 31.1733 6.984 30.6773 6.984C30.3413 6.984 30.0493 7.064 29.8013 7.224C29.5533 7.376 29.3573 7.608 29.2133 7.92C29.0773 8.232 29.0093 8.616 29.0093 9.072C29.0093 9.752 29.1613 10.272 29.4653 10.632C29.7693 10.992 30.1733 11.172 30.6773 11.172ZM37.7671 12.108C37.1751 12.108 36.6631 11.984 36.2311 11.736C35.8071 11.488 35.4751 11.136 35.2351 10.68C34.9951 10.224 34.8751 9.688 34.8751 9.072C34.8751 8.6 34.9431 8.18 35.0791 7.812C35.2151 7.444 35.4071 7.128 35.6551 6.864C35.9111 6.592 36.2151 6.388 36.5671 6.252C36.9271 6.108 37.3271 6.036 37.7671 6.036C38.3511 6.036 38.8551 6.16 39.2791 6.408C39.7111 6.656 40.0471 7.008 40.2871 7.464C40.5271 7.912 40.6471 8.448 40.6471 9.072C40.6471 9.536 40.5791 9.956 40.4431 10.332C40.3071 10.708 40.1111 11.028 39.8551 11.292C39.6071 11.556 39.3031 11.76 38.9431 11.904C38.5911 12.04 38.1991 12.108 37.7671 12.108ZM37.7671 11.172C38.0951 11.172 38.3831 11.092 38.6311 10.932C38.8791 10.772 39.0711 10.536 39.2071 10.224C39.3511 9.912 39.4231 9.528 39.4231 9.072C39.4231 8.384 39.2711 7.864 38.9671 7.512C38.6631 7.16 38.2631 6.984 37.7671 6.984C37.4311 6.984 37.1391 7.064 36.8911 7.224C36.6431 7.376 36.4471 7.608 36.3031 7.92C36.1671 8.232 36.0991 8.616 36.0991 9.072C36.0991 9.752 36.2511 10.272 36.5551 10.632C36.8591 10.992 37.2631 11.172 37.7671 11.172ZM44.0388 12.084C43.8708 12.084 43.7228 12.044 43.5948 11.964C43.4748 11.876 43.3788 11.74 43.3068 11.556L41.5428 6.888C41.4788 6.728 41.4588 6.588 41.4828 6.468C41.5068 6.34 41.5668 6.24 41.6628 6.168C41.7668 6.096 41.8988 6.06 42.0588 6.06C42.2028 6.06 42.3188 6.096 42.4068 6.168C42.5028 6.232 42.5828 6.36 42.6468 6.552L44.2188 10.98H43.9308L45.5628 6.504C45.6188 6.352 45.6948 6.24 45.7908 6.168C45.8868 6.096 46.0108 6.06 46.1628 6.06C46.3148 6.06 46.4388 6.096 46.5348 6.168C46.6388 6.24 46.7148 6.352 46.7628 6.504L48.3588 10.98H48.0948L49.6908 6.528C49.7548 6.344 49.8348 6.22 49.9308 6.156C50.0348 6.092 50.1508 6.06 50.2788 6.06C50.4388 6.06 50.5588 6.1 50.6388 6.18C50.7268 6.26 50.7748 6.364 50.7828 6.492C50.7988 6.612 50.7788 6.744 50.7228 6.888L48.9588 11.556C48.8868 11.732 48.7868 11.864 48.6588 11.952C48.5388 12.04 48.3988 12.084 48.2388 12.084C48.0708 12.084 47.9228 12.04 47.7948 11.952C47.6748 11.864 47.5788 11.732 47.5068 11.556L45.8268 7.008H46.4268L44.7588 11.556C44.6948 11.732 44.5988 11.864 44.4708 11.952C44.3508 12.04 44.2068 12.084 44.0388 12.084ZM52.6512 12.084C52.4592 12.084 52.3112 12.032 52.2072 11.928C52.1032 11.816 52.0512 11.664 52.0512 11.472V6.672C52.0512 6.472 52.1032 6.32 52.2072 6.216C52.3112 6.112 52.4552 6.06 52.6392 6.06C52.8312 6.06 52.9752 6.112 53.0712 6.216C53.1752 6.32 53.2272 6.472 53.2272 6.672V7.608L53.0952 7.392C53.2712 6.944 53.5472 6.608 53.9232 6.384C54.2992 6.152 54.7312 6.036 55.2192 6.036C55.6832 6.036 56.0672 6.124 56.3712 6.3C56.6832 6.468 56.9152 6.728 57.0672 7.08C57.2192 7.424 57.2952 7.86 57.2952 8.388V11.472C57.2952 11.664 57.2432 11.816 57.1392 11.928C57.0352 12.032 56.8872 12.084 56.6952 12.084C56.4952 12.084 56.3432 12.032 56.2392 11.928C56.1352 11.816 56.0832 11.664 56.0832 11.472V8.46C56.0832 7.956 55.9832 7.588 55.7832 7.356C55.5912 7.124 55.2872 7.008 54.8712 7.008C54.3832 7.008 53.9912 7.16 53.6952 7.464C53.4072 7.768 53.2632 8.176 53.2632 8.688V11.472C53.2632 11.88 53.0592 12.084 52.6512 12.084Z" fill="#64728C"/>
</svg>
