<svg width="310" height="75" viewBox="0 0 310 75" fill="none" xmlns="http://www.w3.org/2000/svg">
<g filter="url(#filter0_d_552_3476)">
<rect x="5" y="21" width="300" height="45" rx="12" fill="white" shape-rendering="crispEdges"/>
<rect x="5.5" y="21.5" width="299" height="44" rx="11.5" stroke="#34BC40" shape-rendering="crispEdges"/>
<path d="M19.596 47.608C18.812 47.608 18.128 47.432 17.544 47.08C16.968 46.72 16.52 46.216 16.2 45.568C15.888 44.92 15.732 44.152 15.732 43.264C15.732 42.592 15.82 41.992 15.996 41.464C16.18 40.928 16.44 40.476 16.776 40.108C17.112 39.732 17.516 39.444 17.988 39.244C18.468 39.036 19.004 38.932 19.596 38.932C20.396 38.932 21.084 39.108 21.66 39.46C22.244 39.812 22.692 40.312 23.004 40.96C23.324 41.6 23.484 42.364 23.484 43.252C23.484 43.924 23.392 44.528 23.208 45.064C23.024 45.6 22.764 46.056 22.428 46.432C22.092 46.808 21.684 47.1 21.204 47.308C20.732 47.508 20.196 47.608 19.596 47.608ZM19.596 46.732C20.204 46.732 20.716 46.596 21.132 46.324C21.556 46.052 21.88 45.656 22.104 45.136C22.328 44.616 22.44 43.992 22.44 43.264C22.44 42.168 22.192 41.32 21.696 40.72C21.208 40.112 20.508 39.808 19.596 39.808C19.004 39.808 18.496 39.944 18.072 40.216C17.656 40.488 17.336 40.884 17.112 41.404C16.888 41.916 16.776 42.536 16.776 43.264C16.776 44.352 17.024 45.204 17.52 45.82C18.016 46.428 18.708 46.732 19.596 46.732ZM25.5912 49.744C25.4312 49.744 25.3112 49.7 25.2312 49.612C25.1512 49.532 25.1112 49.412 25.1112 49.252V42.076C25.1112 41.916 25.1512 41.796 25.2312 41.716C25.3112 41.628 25.4272 41.584 25.5792 41.584C25.7392 41.584 25.8592 41.628 25.9392 41.716C26.0272 41.796 26.0712 41.916 26.0712 42.076V43.216L25.9392 43.048C26.0672 42.592 26.3192 42.232 26.6952 41.968C27.0792 41.696 27.5352 41.56 28.0632 41.56C28.5832 41.56 29.0352 41.684 29.4192 41.932C29.8112 42.172 30.1112 42.52 30.3192 42.976C30.5352 43.424 30.6432 43.96 30.6432 44.584C30.6432 45.2 30.5352 45.736 30.3192 46.192C30.1112 46.64 29.8152 46.988 29.4312 47.236C29.0472 47.484 28.5912 47.608 28.0632 47.608C27.5352 47.608 27.0832 47.476 26.7072 47.212C26.3312 46.94 26.0752 46.58 25.9392 46.132H26.0832V49.252C26.0832 49.412 26.0392 49.532 25.9512 49.612C25.8632 49.7 25.7432 49.744 25.5912 49.744ZM27.8592 46.828C28.2272 46.828 28.5432 46.74 28.8072 46.564C29.0792 46.388 29.2872 46.132 29.4312 45.796C29.5832 45.46 29.6592 45.056 29.6592 44.584C29.6592 43.856 29.4952 43.3 29.1672 42.916C28.8472 42.532 28.4112 42.34 27.8592 42.34C27.4992 42.34 27.1832 42.428 26.9112 42.604C26.6392 42.772 26.4272 43.024 26.2752 43.36C26.1312 43.688 26.0592 44.096 26.0592 44.584C26.0592 45.304 26.2232 45.86 26.5512 46.252C26.8792 46.636 27.3152 46.828 27.8592 46.828ZM34.3887 47.608C33.9327 47.608 33.5487 47.528 33.2367 47.368C32.9327 47.2 32.7047 46.96 32.5527 46.648C32.4007 46.328 32.3247 45.94 32.3247 45.484V42.424H31.5207C31.3847 42.424 31.2807 42.392 31.2087 42.328C31.1367 42.256 31.1007 42.16 31.1007 42.04C31.1007 41.92 31.1367 41.828 31.2087 41.764C31.2807 41.7 31.3847 41.668 31.5207 41.668H32.3247V40.288C32.3247 40.128 32.3687 40.008 32.4567 39.928C32.5447 39.84 32.6647 39.796 32.8167 39.796C32.9687 39.796 33.0847 39.84 33.1647 39.928C33.2527 40.008 33.2967 40.128 33.2967 40.288V41.668H34.8087C34.9447 41.668 35.0487 41.7 35.1207 41.764C35.1927 41.828 35.2287 41.92 35.2287 42.04C35.2287 42.16 35.1927 42.256 35.1207 42.328C35.0487 42.392 34.9447 42.424 34.8087 42.424H33.2967V45.388C33.2967 45.844 33.3927 46.192 33.5847 46.432C33.7767 46.664 34.0887 46.78 34.5207 46.78C34.6727 46.78 34.8007 46.764 34.9047 46.732C35.0167 46.7 35.1087 46.684 35.1807 46.684C35.2527 46.676 35.3127 46.7 35.3607 46.756C35.4087 46.812 35.4327 46.908 35.4327 47.044C35.4327 47.14 35.4127 47.228 35.3727 47.308C35.3407 47.388 35.2807 47.444 35.1927 47.476C35.0967 47.508 34.9687 47.536 34.8087 47.56C34.6567 47.592 34.5167 47.608 34.3887 47.608ZM36.7943 47.56C36.6343 47.56 36.5143 47.516 36.4343 47.428C36.3543 47.332 36.3143 47.2 36.3143 47.032V42.124C36.3143 41.956 36.3543 41.828 36.4343 41.74C36.5143 41.652 36.6343 41.608 36.7943 41.608C36.9463 41.608 37.0663 41.652 37.1543 41.74C37.2423 41.828 37.2863 41.956 37.2863 42.124V47.032C37.2863 47.2 37.2423 47.332 37.1543 47.428C37.0743 47.516 36.9543 47.56 36.7943 47.56ZM36.7943 40.264C36.5943 40.264 36.4383 40.212 36.3263 40.108C36.2143 39.996 36.1583 39.848 36.1583 39.664C36.1583 39.472 36.2143 39.328 36.3263 39.232C36.4383 39.128 36.5943 39.076 36.7943 39.076C37.0023 39.076 37.1583 39.128 37.2623 39.232C37.3743 39.328 37.4303 39.472 37.4303 39.664C37.4303 39.848 37.3743 39.996 37.2623 40.108C37.1583 40.212 37.0023 40.264 36.7943 40.264ZM41.5274 47.608C40.9594 47.608 40.4674 47.484 40.0514 47.236C39.6354 46.988 39.3114 46.64 39.0794 46.192C38.8554 45.736 38.7434 45.2 38.7434 44.584C38.7434 44.12 38.8074 43.704 38.9354 43.336C39.0634 42.96 39.2514 42.64 39.4994 42.376C39.7474 42.112 40.0394 41.912 40.3754 41.776C40.7194 41.632 41.1034 41.56 41.5274 41.56C42.0954 41.56 42.5874 41.684 43.0034 41.932C43.4194 42.18 43.7394 42.532 43.9634 42.988C44.1954 43.436 44.3114 43.968 44.3114 44.584C44.3114 45.048 44.2474 45.464 44.1194 45.832C43.9914 46.2 43.8034 46.52 43.5554 46.792C43.3074 47.056 43.0114 47.26 42.6674 47.404C42.3314 47.54 41.9514 47.608 41.5274 47.608ZM41.5274 46.828C41.8874 46.828 42.2034 46.74 42.4754 46.564C42.7474 46.388 42.9554 46.132 43.0994 45.796C43.2514 45.46 43.3274 45.056 43.3274 44.584C43.3274 43.856 43.1634 43.3 42.8354 42.916C42.5154 42.532 42.0794 42.34 41.5274 42.34C41.1594 42.34 40.8394 42.428 40.5674 42.604C40.3034 42.772 40.0954 43.024 39.9434 43.36C39.7994 43.688 39.7274 44.096 39.7274 44.584C39.7274 45.304 39.8914 45.86 40.2194 46.252C40.5474 46.636 40.9834 46.828 41.5274 46.828ZM46.2514 47.584C46.0914 47.584 45.9714 47.54 45.8914 47.452C45.8114 47.364 45.7714 47.24 45.7714 47.08V42.076C45.7714 41.916 45.8114 41.796 45.8914 41.716C45.9714 41.628 46.0874 41.584 46.2394 41.584C46.3914 41.584 46.5074 41.628 46.5874 41.716C46.6754 41.796 46.7194 41.916 46.7194 42.076V43.108L46.5874 42.964C46.7554 42.5 47.0274 42.152 47.4034 41.92C47.7874 41.68 48.2274 41.56 48.7234 41.56C49.1874 41.56 49.5714 41.644 49.8754 41.812C50.1874 41.98 50.4194 42.236 50.5714 42.58C50.7234 42.916 50.7994 43.344 50.7994 43.864V47.08C50.7994 47.24 50.7554 47.364 50.6674 47.452C50.5874 47.54 50.4714 47.584 50.3194 47.584C50.1594 47.584 50.0354 47.54 49.9474 47.452C49.8674 47.364 49.8274 47.24 49.8274 47.08V43.924C49.8274 43.38 49.7194 42.984 49.5034 42.736C49.2954 42.48 48.9594 42.352 48.4954 42.352C47.9594 42.352 47.5314 42.52 47.2114 42.856C46.8994 43.184 46.7434 43.624 46.7434 44.176V47.08C46.7434 47.416 46.5794 47.584 46.2514 47.584ZM58.2774 47.608C57.8134 47.608 57.3454 47.54 56.8734 47.404C56.4094 47.268 56.0054 47.068 55.6614 46.804C55.5574 46.732 55.4894 46.652 55.4574 46.564C55.4254 46.468 55.4174 46.38 55.4334 46.3C55.4574 46.212 55.5014 46.14 55.5654 46.084C55.6294 46.02 55.7054 45.984 55.7934 45.976C55.8894 45.968 55.9934 46 56.1054 46.072C56.4574 46.304 56.8094 46.472 57.1614 46.576C57.5134 46.68 57.8774 46.732 58.2534 46.732C58.6614 46.732 59.0054 46.672 59.2854 46.552C59.5654 46.432 59.7774 46.256 59.9214 46.024C60.0654 45.784 60.1374 45.492 60.1374 45.148C60.1374 44.652 59.9734 44.276 59.6454 44.02C59.3174 43.764 58.8414 43.636 58.2174 43.636H57.3654C57.2134 43.636 57.0974 43.6 57.0174 43.528C56.9374 43.448 56.8974 43.34 56.8974 43.204C56.8974 43.076 56.9374 42.976 57.0174 42.904C57.0974 42.824 57.2134 42.784 57.3654 42.784H58.1334C58.5014 42.784 58.8134 42.72 59.0694 42.592C59.3334 42.464 59.5374 42.284 59.6814 42.052C59.8254 41.812 59.8974 41.524 59.8974 41.188C59.8974 40.74 59.7534 40.4 59.4654 40.168C59.1774 39.928 58.7614 39.808 58.2174 39.808C57.8574 39.808 57.5174 39.86 57.1974 39.964C56.8774 40.068 56.5614 40.244 56.2494 40.492C56.1534 40.564 56.0574 40.6 55.9614 40.6C55.8734 40.592 55.7974 40.564 55.7334 40.516C55.6774 40.46 55.6334 40.388 55.6014 40.3C55.5774 40.212 55.5814 40.124 55.6134 40.036C55.6454 39.94 55.7134 39.852 55.8174 39.772C56.1374 39.5 56.5134 39.292 56.9454 39.148C57.3774 39.004 57.8214 38.932 58.2774 38.932C58.8214 38.932 59.2854 39.02 59.6694 39.196C60.0614 39.364 60.3614 39.612 60.5694 39.94C60.7774 40.26 60.8814 40.648 60.8814 41.104C60.8814 41.448 60.8134 41.764 60.6774 42.052C60.5494 42.332 60.3654 42.572 60.1254 42.772C59.8934 42.972 59.6094 43.116 59.2734 43.204V43.072C59.8574 43.168 60.3094 43.408 60.6294 43.792C60.9574 44.168 61.1214 44.644 61.1214 45.22C61.1214 45.708 61.0054 46.132 60.7734 46.492C60.5494 46.844 60.2254 47.12 59.8014 47.32C59.3774 47.512 58.8694 47.608 58.2774 47.608Z" fill="#64728C"/>
<rect x="265" y="25.5" width="36" height="36" rx="12" fill="#34BC40" fill-opacity="0.12"/>
<path d="M284.039 48.2C283.577 49 282.423 49 281.961 48.2L278.843 42.8C278.381 42 278.959 41 279.882 41L286.118 41C287.041 41 287.619 42 287.157 42.8L284.039 48.2Z" fill="#34BC40"/>
</g>
<path d="M6.656 12C6.44 12 6.272 11.944 6.152 11.832C6.04 11.712 5.984 11.544 5.984 11.328V4.212C5.984 3.996 6.04 3.832 6.152 3.72C6.272 3.6 6.44 3.54 6.656 3.54H8.972C10.364 3.54 11.436 3.904 12.188 4.632C12.948 5.352 13.328 6.396 13.328 7.764C13.328 8.444 13.232 9.048 13.04 9.576C12.848 10.104 12.564 10.548 12.188 10.908C11.82 11.26 11.368 11.532 10.832 11.724C10.296 11.908 9.676 12 8.972 12H6.656ZM7.232 10.956H8.9C9.428 10.956 9.884 10.892 10.268 10.764C10.66 10.628 10.988 10.428 11.252 10.164C11.516 9.9 11.712 9.568 11.84 9.168C11.968 8.768 12.032 8.3 12.032 7.764C12.032 6.7 11.768 5.904 11.24 5.376C10.72 4.848 9.94 4.584 8.9 4.584H7.232V10.956ZM15.4757 12.084C15.2757 12.084 15.1237 12.032 15.0197 11.928C14.9157 11.816 14.8637 11.664 14.8637 11.472V6.672C14.8637 6.472 14.9157 6.32 15.0197 6.216C15.1237 6.112 15.2677 6.06 15.4517 6.06C15.6437 6.06 15.7877 6.112 15.8837 6.216C15.9877 6.32 16.0397 6.472 16.0397 6.672V7.548H15.9197C16.0477 7.068 16.2837 6.704 16.6277 6.456C16.9717 6.208 17.4117 6.064 17.9477 6.024C18.0917 6.016 18.2037 6.052 18.2837 6.132C18.3717 6.212 18.4197 6.336 18.4277 6.504C18.4437 6.672 18.4077 6.808 18.3197 6.912C18.2317 7.008 18.0957 7.064 17.9117 7.08L17.6837 7.104C17.1637 7.152 16.7677 7.316 16.4957 7.596C16.2237 7.876 16.0877 8.26 16.0877 8.748V11.472C16.0877 11.664 16.0357 11.816 15.9317 11.928C15.8357 12.032 15.6837 12.084 15.4757 12.084ZM21.8023 12.108C21.2103 12.108 20.6983 11.984 20.2663 11.736C19.8423 11.488 19.5103 11.136 19.2703 10.68C19.0303 10.224 18.9103 9.688 18.9103 9.072C18.9103 8.6 18.9783 8.18 19.1143 7.812C19.2503 7.444 19.4423 7.128 19.6903 6.864C19.9463 6.592 20.2503 6.388 20.6023 6.252C20.9623 6.108 21.3623 6.036 21.8023 6.036C22.3863 6.036 22.8903 6.16 23.3143 6.408C23.7463 6.656 24.0823 7.008 24.3223 7.464C24.5623 7.912 24.6823 8.448 24.6823 9.072C24.6823 9.536 24.6143 9.956 24.4783 10.332C24.3423 10.708 24.1463 11.028 23.8903 11.292C23.6423 11.556 23.3383 11.76 22.9783 11.904C22.6263 12.04 22.2343 12.108 21.8023 12.108ZM21.8023 11.172C22.1303 11.172 22.4183 11.092 22.6663 10.932C22.9143 10.772 23.1063 10.536 23.2423 10.224C23.3863 9.912 23.4583 9.528 23.4583 9.072C23.4583 8.384 23.3063 7.864 23.0023 7.512C22.6983 7.16 22.2983 6.984 21.8023 6.984C21.4663 6.984 21.1743 7.064 20.9263 7.224C20.6783 7.376 20.4823 7.608 20.3383 7.92C20.2023 8.232 20.1343 8.616 20.1343 9.072C20.1343 9.752 20.2863 10.272 20.5903 10.632C20.8943 10.992 21.2983 11.172 21.8023 11.172ZM26.6434 14.244C26.4514 14.244 26.3034 14.192 26.1994 14.088C26.0954 13.984 26.0434 13.832 26.0434 13.632V6.672C26.0434 6.472 26.0954 6.32 26.1994 6.216C26.3034 6.112 26.4474 6.06 26.6314 6.06C26.8234 6.06 26.9714 6.112 27.0754 6.216C27.1794 6.32 27.2314 6.472 27.2314 6.672V7.716L27.0994 7.464C27.2274 7.032 27.4794 6.688 27.8554 6.432C28.2314 6.168 28.6754 6.036 29.1874 6.036C29.7074 6.036 30.1594 6.16 30.5434 6.408C30.9354 6.656 31.2354 7.004 31.4434 7.452C31.6594 7.9 31.7674 8.44 31.7674 9.072C31.7674 9.688 31.6594 10.228 31.4434 10.692C31.2354 11.148 30.9394 11.5 30.5554 11.748C30.1714 11.988 29.7154 12.108 29.1874 12.108C28.6834 12.108 28.2434 11.98 27.8674 11.724C27.4914 11.468 27.2394 11.128 27.1114 10.704H27.2554V13.632C27.2554 13.832 27.1994 13.984 27.0874 14.088C26.9834 14.192 26.8354 14.244 26.6434 14.244ZM28.8874 11.172C29.2234 11.172 29.5154 11.092 29.7634 10.932C30.0114 10.772 30.2034 10.536 30.3394 10.224C30.4754 9.912 30.5434 9.528 30.5434 9.072C30.5434 8.384 30.3914 7.864 30.0874 7.512C29.7914 7.16 29.3914 6.984 28.8874 6.984C28.5594 6.984 28.2674 7.064 28.0114 7.224C27.7634 7.376 27.5714 7.608 27.4354 7.92C27.2994 8.232 27.2314 8.616 27.2314 9.072C27.2314 9.752 27.3834 10.272 27.6874 10.632C27.9914 10.992 28.3914 11.172 28.8874 11.172ZM35.3652 12.108C34.8533 12.108 34.4013 11.988 34.0093 11.748C33.6253 11.5 33.3253 11.148 33.1093 10.692C32.8933 10.228 32.7853 9.688 32.7853 9.072C32.7853 8.44 32.8933 7.9 33.1093 7.452C33.3253 7.004 33.6253 6.656 34.0093 6.408C34.4013 6.16 34.8533 6.036 35.3652 6.036C35.8773 6.036 36.3173 6.164 36.6853 6.42C37.0613 6.668 37.3133 7.004 37.4413 7.428H37.3093V4.068C37.3093 3.868 37.3613 3.716 37.4653 3.612C37.5693 3.508 37.7173 3.456 37.9093 3.456C38.1013 3.456 38.2493 3.508 38.3533 3.612C38.4653 3.716 38.5213 3.868 38.5213 4.068V11.472C38.5213 11.664 38.4693 11.816 38.3653 11.928C38.2613 12.032 38.1133 12.084 37.9213 12.084C37.7293 12.084 37.5813 12.032 37.4773 11.928C37.3733 11.816 37.3213 11.664 37.3213 11.472V10.416L37.4533 10.68C37.3253 11.112 37.0733 11.46 36.6973 11.724C36.3293 11.98 35.8853 12.108 35.3652 12.108ZM35.6773 11.172C36.0053 11.172 36.2933 11.092 36.5413 10.932C36.7893 10.772 36.9813 10.536 37.1173 10.224C37.2613 9.912 37.3333 9.528 37.3333 9.072C37.3333 8.384 37.1813 7.864 36.8773 7.512C36.5733 7.16 36.1733 6.984 35.6773 6.984C35.3413 6.984 35.0493 7.064 34.8013 7.224C34.5533 7.376 34.3573 7.608 34.2133 7.92C34.0773 8.232 34.0093 8.616 34.0093 9.072C34.0093 9.752 34.1613 10.272 34.4653 10.632C34.7693 10.992 35.1733 11.172 35.6773 11.172ZM42.7671 12.108C42.1751 12.108 41.6631 11.984 41.2311 11.736C40.8071 11.488 40.4751 11.136 40.2351 10.68C39.9951 10.224 39.8751 9.688 39.8751 9.072C39.8751 8.6 39.9431 8.18 40.0791 7.812C40.2151 7.444 40.4071 7.128 40.6551 6.864C40.9111 6.592 41.2151 6.388 41.5671 6.252C41.9271 6.108 42.3271 6.036 42.7671 6.036C43.3511 6.036 43.8551 6.16 44.2791 6.408C44.7111 6.656 45.0471 7.008 45.2871 7.464C45.5271 7.912 45.6471 8.448 45.6471 9.072C45.6471 9.536 45.5791 9.956 45.4431 10.332C45.3071 10.708 45.1111 11.028 44.8551 11.292C44.6071 11.556 44.3031 11.76 43.9431 11.904C43.5911 12.04 43.1991 12.108 42.7671 12.108ZM42.7671 11.172C43.0951 11.172 43.3831 11.092 43.6311 10.932C43.8791 10.772 44.0711 10.536 44.2071 10.224C44.3511 9.912 44.4231 9.528 44.4231 9.072C44.4231 8.384 44.2711 7.864 43.9671 7.512C43.6631 7.16 43.2631 6.984 42.7671 6.984C42.4311 6.984 42.1391 7.064 41.8911 7.224C41.6431 7.376 41.4471 7.608 41.3031 7.92C41.1671 8.232 41.0991 8.616 41.0991 9.072C41.0991 9.752 41.2511 10.272 41.5551 10.632C41.8591 10.992 42.2631 11.172 42.7671 11.172ZM49.0388 12.084C48.8708 12.084 48.7228 12.044 48.5948 11.964C48.4748 11.876 48.3788 11.74 48.3068 11.556L46.5428 6.888C46.4788 6.728 46.4588 6.588 46.4828 6.468C46.5068 6.34 46.5668 6.24 46.6628 6.168C46.7668 6.096 46.8988 6.06 47.0588 6.06C47.2028 6.06 47.3188 6.096 47.4068 6.168C47.5028 6.232 47.5828 6.36 47.6468 6.552L49.2188 10.98H48.9308L50.5628 6.504C50.6188 6.352 50.6948 6.24 50.7908 6.168C50.8868 6.096 51.0108 6.06 51.1628 6.06C51.3148 6.06 51.4388 6.096 51.5348 6.168C51.6388 6.24 51.7148 6.352 51.7628 6.504L53.3588 10.98H53.0948L54.6908 6.528C54.7548 6.344 54.8348 6.22 54.9308 6.156C55.0348 6.092 55.1508 6.06 55.2788 6.06C55.4388 6.06 55.5588 6.1 55.6388 6.18C55.7268 6.26 55.7748 6.364 55.7828 6.492C55.7988 6.612 55.7788 6.744 55.7228 6.888L53.9588 11.556C53.8868 11.732 53.7868 11.864 53.6588 11.952C53.5388 12.04 53.3988 12.084 53.2388 12.084C53.0708 12.084 52.9228 12.04 52.7948 11.952C52.6748 11.864 52.5788 11.732 52.5068 11.556L50.8268 7.008H51.4268L49.7588 11.556C49.6948 11.732 49.5988 11.864 49.4708 11.952C49.3508 12.04 49.2068 12.084 49.0388 12.084ZM57.6512 12.084C57.4592 12.084 57.3112 12.032 57.2072 11.928C57.1032 11.816 57.0512 11.664 57.0512 11.472V6.672C57.0512 6.472 57.1032 6.32 57.2072 6.216C57.3112 6.112 57.4552 6.06 57.6392 6.06C57.8312 6.06 57.9752 6.112 58.0712 6.216C58.1752 6.32 58.2272 6.472 58.2272 6.672V7.608L58.0952 7.392C58.2712 6.944 58.5472 6.608 58.9232 6.384C59.2992 6.152 59.7312 6.036 60.2192 6.036C60.6832 6.036 61.0672 6.124 61.3712 6.3C61.6832 6.468 61.9152 6.728 62.0672 7.08C62.2192 7.424 62.2952 7.86 62.2952 8.388V11.472C62.2952 11.664 62.2432 11.816 62.1392 11.928C62.0352 12.032 61.8872 12.084 61.6952 12.084C61.4952 12.084 61.3432 12.032 61.2392 11.928C61.1352 11.816 61.0832 11.664 61.0832 11.472V8.46C61.0832 7.956 60.9832 7.588 60.7832 7.356C60.5912 7.124 60.2872 7.008 59.8712 7.008C59.3832 7.008 58.9912 7.16 58.6952 7.464C58.4072 7.768 58.2632 8.176 58.2632 8.688V11.472C58.2632 11.88 58.0592 12.084 57.6512 12.084Z" fill="#64728C"/>
<defs>
<filter id="filter0_d_552_3476" x="0" y="20" width="310" height="55" filterUnits="userSpaceOnUse" color-interpolation-filters="sRGB">
<feFlood flood-opacity="0" result="BackgroundImageFix"/>
<feColorMatrix in="SourceAlpha" type="matrix" values="0 0 0 0 0 0 0 0 0 0 0 0 0 0 0 0 0 0 127 0" result="hardAlpha"/>
<feOffset dy="4"/>
<feGaussianBlur stdDeviation="2.5"/>
<feComposite in2="hardAlpha" operator="out"/>
<feColorMatrix type="matrix" values="0 0 0 0 0.203922 0 0 0 0 0.737255 0 0 0 0 0.25098 0 0 0 0.15 0"/>
<feBlend mode="normal" in2="BackgroundImageFix" result="effect1_dropShadow_552_3476"/>
<feBlend mode="normal" in="SourceGraphic" in2="effect1_dropShadow_552_3476" result="shape"/>
</filter>
</defs>
</svg>
