<svg width="310" height="75" viewBox="0 0 310 75" fill="none" xmlns="http://www.w3.org/2000/svg">
<g filter="url(#filter0_d_552_3458)">
<rect x="5" y="21" width="300" height="45" rx="12" fill="white" shape-rendering="crispEdges"/>
<rect x="5.5" y="21.5" width="299" height="44" rx="11.5" stroke="#64728C" shape-rendering="crispEdges"/>
<path d="M18.78 47.608C18.404 47.608 18.036 47.576 17.676 47.512C17.316 47.448 16.98 47.356 16.668 47.236C16.364 47.116 16.088 46.964 15.84 46.78C15.744 46.708 15.676 46.628 15.636 46.54C15.604 46.444 15.596 46.352 15.612 46.264C15.636 46.168 15.676 46.088 15.732 46.024C15.796 45.96 15.872 45.924 15.96 45.916C16.048 45.908 16.144 45.936 16.248 46C16.608 46.256 16.992 46.444 17.4 46.564C17.808 46.676 18.268 46.732 18.78 46.732C19.5 46.732 20.032 46.6 20.376 46.336C20.728 46.064 20.904 45.708 20.904 45.268C20.904 44.908 20.776 44.628 20.52 44.428C20.272 44.22 19.852 44.056 19.26 43.936L18.012 43.684C17.26 43.524 16.696 43.264 16.32 42.904C15.952 42.536 15.768 42.048 15.768 41.44C15.768 41.064 15.844 40.724 15.996 40.42C16.148 40.108 16.36 39.844 16.632 39.628C16.904 39.404 17.228 39.232 17.604 39.112C17.98 38.992 18.396 38.932 18.852 38.932C19.356 38.932 19.824 39.004 20.256 39.148C20.696 39.284 21.092 39.492 21.444 39.772C21.532 39.844 21.592 39.928 21.624 40.024C21.656 40.112 21.66 40.2 21.636 40.288C21.612 40.368 21.568 40.436 21.504 40.492C21.448 40.548 21.372 40.58 21.276 40.588C21.188 40.596 21.088 40.564 20.976 40.492C20.656 40.252 20.324 40.08 19.98 39.976C19.636 39.864 19.256 39.808 18.84 39.808C18.416 39.808 18.048 39.872 17.736 40C17.432 40.128 17.192 40.316 17.016 40.564C16.848 40.804 16.764 41.084 16.764 41.404C16.764 41.788 16.88 42.092 17.112 42.316C17.352 42.54 17.74 42.704 18.276 42.808L19.524 43.072C20.332 43.24 20.928 43.496 21.312 43.84C21.704 44.176 21.9 44.636 21.9 45.22C21.9 45.572 21.828 45.896 21.684 46.192C21.54 46.488 21.332 46.744 21.06 46.96C20.788 47.168 20.46 47.328 20.076 47.44C19.692 47.552 19.26 47.608 18.78 47.608ZM25.9228 47.608C25.3068 47.608 24.7748 47.488 24.3268 47.248C23.8868 47 23.5428 46.652 23.2948 46.204C23.0548 45.756 22.9348 45.22 22.9348 44.596C22.9348 43.988 23.0548 43.46 23.2948 43.012C23.5348 42.556 23.8628 42.2 24.2788 41.944C24.7028 41.688 25.1908 41.56 25.7428 41.56C26.1348 41.56 26.4868 41.628 26.7988 41.764C27.1108 41.892 27.3748 42.08 27.5908 42.328C27.8148 42.576 27.9828 42.876 28.0948 43.228C28.2148 43.58 28.2748 43.976 28.2748 44.416C28.2748 44.544 28.2388 44.64 28.1668 44.704C28.0948 44.76 27.9908 44.788 27.8548 44.788H23.6788V44.152H27.6268L27.4348 44.308C27.4348 43.876 27.3708 43.512 27.2428 43.216C27.1148 42.912 26.9268 42.68 26.6788 42.52C26.4388 42.36 26.1348 42.28 25.7668 42.28C25.3588 42.28 25.0108 42.376 24.7228 42.568C24.4428 42.752 24.2308 43.012 24.0868 43.348C23.9428 43.676 23.8708 44.06 23.8708 44.5V44.572C23.8708 45.308 24.0468 45.868 24.3988 46.252C24.7588 46.636 25.2668 46.828 25.9228 46.828C26.1948 46.828 26.4628 46.792 26.7268 46.72C26.9988 46.648 27.2628 46.528 27.5188 46.36C27.6308 46.288 27.7308 46.256 27.8188 46.264C27.9148 46.264 27.9908 46.292 28.0468 46.348C28.1028 46.396 28.1388 46.46 28.1548 46.54C28.1788 46.612 28.1708 46.692 28.1308 46.78C28.0988 46.868 28.0308 46.944 27.9268 47.008C27.6628 47.2 27.3508 47.348 26.9908 47.452C26.6308 47.556 26.2748 47.608 25.9228 47.608ZM31.4575 47.608C30.8815 47.608 30.4415 47.432 30.1375 47.08C29.8335 46.728 29.6815 46.224 29.6815 45.568V39.448C29.6815 39.288 29.7215 39.168 29.8015 39.088C29.8815 39 30.0015 38.956 30.1615 38.956C30.3135 38.956 30.4335 39 30.5215 39.088C30.6095 39.168 30.6535 39.288 30.6535 39.448V45.496C30.6535 45.928 30.7375 46.252 30.9055 46.468C31.0815 46.676 31.3375 46.78 31.6735 46.78C31.7455 46.78 31.8095 46.776 31.8655 46.768C31.9215 46.76 31.9775 46.756 32.0335 46.756C32.1215 46.748 32.1815 46.768 32.2135 46.816C32.2535 46.864 32.2735 46.96 32.2735 47.104C32.2735 47.248 32.2415 47.356 32.1775 47.428C32.1135 47.5 32.0095 47.548 31.8655 47.572C31.8015 47.58 31.7335 47.588 31.6615 47.596C31.5895 47.604 31.5215 47.608 31.4575 47.608ZM35.8017 47.608C35.1857 47.608 34.6537 47.488 34.2057 47.248C33.7657 47 33.4217 46.652 33.1737 46.204C32.9337 45.756 32.8137 45.22 32.8137 44.596C32.8137 43.988 32.9337 43.46 33.1737 43.012C33.4137 42.556 33.7417 42.2 34.1577 41.944C34.5817 41.688 35.0697 41.56 35.6217 41.56C36.0137 41.56 36.3657 41.628 36.6777 41.764C36.9897 41.892 37.2537 42.08 37.4697 42.328C37.6937 42.576 37.8617 42.876 37.9737 43.228C38.0937 43.58 38.1537 43.976 38.1537 44.416C38.1537 44.544 38.1177 44.64 38.0457 44.704C37.9737 44.76 37.8697 44.788 37.7337 44.788H33.5577V44.152H37.5057L37.3137 44.308C37.3137 43.876 37.2497 43.512 37.1217 43.216C36.9937 42.912 36.8057 42.68 36.5577 42.52C36.3177 42.36 36.0137 42.28 35.6457 42.28C35.2377 42.28 34.8897 42.376 34.6017 42.568C34.3217 42.752 34.1097 43.012 33.9657 43.348C33.8217 43.676 33.7497 44.06 33.7497 44.5V44.572C33.7497 45.308 33.9257 45.868 34.2777 46.252C34.6377 46.636 35.1457 46.828 35.8017 46.828C36.0737 46.828 36.3417 46.792 36.6057 46.72C36.8777 46.648 37.1417 46.528 37.3977 46.36C37.5097 46.288 37.6097 46.256 37.6977 46.264C37.7937 46.264 37.8697 46.292 37.9257 46.348C37.9817 46.396 38.0177 46.46 38.0337 46.54C38.0577 46.612 38.0497 46.692 38.0097 46.78C37.9777 46.868 37.9097 46.944 37.8057 47.008C37.5417 47.2 37.2297 47.348 36.8697 47.452C36.5097 47.556 36.1537 47.608 35.8017 47.608ZM42.0324 47.608C41.4484 47.608 40.9444 47.48 40.5204 47.224C40.0964 46.968 39.7684 46.612 39.5364 46.156C39.3124 45.692 39.2004 45.156 39.2004 44.548C39.2004 44.084 39.2644 43.668 39.3924 43.3C39.5204 42.932 39.7084 42.62 39.9564 42.364C40.2044 42.1 40.5004 41.9 40.8444 41.764C41.1964 41.628 41.5924 41.56 42.0324 41.56C42.3204 41.56 42.6204 41.604 42.9324 41.692C43.2444 41.78 43.5284 41.932 43.7844 42.148C43.8644 42.204 43.9164 42.272 43.9404 42.352C43.9644 42.432 43.9644 42.512 43.9404 42.592C43.9164 42.664 43.8764 42.728 43.8204 42.784C43.7644 42.832 43.6924 42.86 43.6044 42.868C43.5244 42.876 43.4404 42.848 43.3524 42.784C43.1444 42.624 42.9324 42.512 42.7164 42.448C42.5004 42.384 42.2924 42.352 42.0924 42.352C41.7804 42.352 41.5084 42.404 41.2764 42.508C41.0444 42.604 40.8484 42.744 40.6884 42.928C40.5284 43.112 40.4044 43.34 40.3164 43.612C40.2364 43.884 40.1964 44.2 40.1964 44.56C40.1964 45.256 40.3604 45.808 40.6884 46.216C41.0164 46.616 41.4844 46.816 42.0924 46.816C42.2924 46.816 42.4964 46.784 42.7044 46.72C42.9204 46.656 43.1364 46.544 43.3524 46.384C43.4404 46.32 43.5244 46.292 43.6044 46.3C43.6844 46.308 43.7524 46.34 43.8084 46.396C43.8644 46.444 43.9004 46.508 43.9164 46.588C43.9404 46.668 43.9404 46.748 43.9164 46.828C43.8924 46.9 43.8404 46.964 43.7604 47.02C43.5044 47.228 43.2244 47.38 42.9204 47.476C42.6164 47.564 42.3204 47.608 42.0324 47.608ZM47.4551 47.608C46.9991 47.608 46.6151 47.528 46.3031 47.368C45.9991 47.2 45.7711 46.96 45.6191 46.648C45.4671 46.328 45.3911 45.94 45.3911 45.484V42.424H44.5871C44.4511 42.424 44.3471 42.392 44.2751 42.328C44.2031 42.256 44.1671 42.16 44.1671 42.04C44.1671 41.92 44.2031 41.828 44.2751 41.764C44.3471 41.7 44.4511 41.668 44.5871 41.668H45.3911V40.288C45.3911 40.128 45.4351 40.008 45.5231 39.928C45.6111 39.84 45.7311 39.796 45.8831 39.796C46.0351 39.796 46.1511 39.84 46.2311 39.928C46.3191 40.008 46.3631 40.128 46.3631 40.288V41.668H47.8751C48.0111 41.668 48.1151 41.7 48.1871 41.764C48.2591 41.828 48.2951 41.92 48.2951 42.04C48.2951 42.16 48.2591 42.256 48.1871 42.328C48.1151 42.392 48.0111 42.424 47.8751 42.424H46.3631V45.388C46.3631 45.844 46.4591 46.192 46.6511 46.432C46.8431 46.664 47.1551 46.78 47.5871 46.78C47.7391 46.78 47.8671 46.764 47.9711 46.732C48.0831 46.7 48.1751 46.684 48.2471 46.684C48.3191 46.676 48.3791 46.7 48.4271 46.756C48.4751 46.812 48.4991 46.908 48.4991 47.044C48.4991 47.14 48.4791 47.228 48.4391 47.308C48.4071 47.388 48.3471 47.444 48.2591 47.476C48.1631 47.508 48.0351 47.536 47.8751 47.56C47.7231 47.592 47.5831 47.608 47.4551 47.608ZM56.0882 47.608C55.3042 47.608 54.6202 47.432 54.0362 47.08C53.4602 46.72 53.0122 46.216 52.6922 45.568C52.3802 44.92 52.2242 44.152 52.2242 43.264C52.2242 42.592 52.3122 41.992 52.4882 41.464C52.6722 40.928 52.9322 40.476 53.2682 40.108C53.6042 39.732 54.0082 39.444 54.4802 39.244C54.9602 39.036 55.4962 38.932 56.0882 38.932C56.8882 38.932 57.5762 39.108 58.1522 39.46C58.7362 39.812 59.1842 40.312 59.4962 40.96C59.8162 41.6 59.9762 42.364 59.9762 43.252C59.9762 43.924 59.8842 44.528 59.7002 45.064C59.5162 45.6 59.2562 46.056 58.9202 46.432C58.5842 46.808 58.1762 47.1 57.6962 47.308C57.2242 47.508 56.6882 47.608 56.0882 47.608ZM56.0882 46.732C56.6962 46.732 57.2082 46.596 57.6242 46.324C58.0482 46.052 58.3722 45.656 58.5962 45.136C58.8202 44.616 58.9322 43.992 58.9322 43.264C58.9322 42.168 58.6842 41.32 58.1882 40.72C57.7002 40.112 57.0002 39.808 56.0882 39.808C55.4962 39.808 54.9882 39.944 54.5642 40.216C54.1482 40.488 53.8282 40.884 53.6042 41.404C53.3802 41.916 53.2682 42.536 53.2682 43.264C53.2682 44.352 53.5162 45.204 54.0122 45.82C54.5082 46.428 55.2002 46.732 56.0882 46.732ZM62.0834 49.744C61.9234 49.744 61.8034 49.7 61.7234 49.612C61.6434 49.532 61.6034 49.412 61.6034 49.252V42.076C61.6034 41.916 61.6434 41.796 61.7234 41.716C61.8034 41.628 61.9194 41.584 62.0714 41.584C62.2314 41.584 62.3514 41.628 62.4314 41.716C62.5194 41.796 62.5634 41.916 62.5634 42.076V43.216L62.4314 43.048C62.5594 42.592 62.8114 42.232 63.1874 41.968C63.5714 41.696 64.0274 41.56 64.5554 41.56C65.0754 41.56 65.5274 41.684 65.9114 41.932C66.3034 42.172 66.6034 42.52 66.8114 42.976C67.0274 43.424 67.1354 43.96 67.1354 44.584C67.1354 45.2 67.0274 45.736 66.8114 46.192C66.6034 46.64 66.3074 46.988 65.9234 47.236C65.5394 47.484 65.0834 47.608 64.5554 47.608C64.0274 47.608 63.5754 47.476 63.1994 47.212C62.8234 46.94 62.5674 46.58 62.4314 46.132H62.5754V49.252C62.5754 49.412 62.5314 49.532 62.4434 49.612C62.3554 49.7 62.2354 49.744 62.0834 49.744ZM64.3514 46.828C64.7194 46.828 65.0354 46.74 65.2994 46.564C65.5714 46.388 65.7794 46.132 65.9234 45.796C66.0754 45.46 66.1514 45.056 66.1514 44.584C66.1514 43.856 65.9874 43.3 65.6594 42.916C65.3394 42.532 64.9034 42.34 64.3514 42.34C63.9914 42.34 63.6754 42.428 63.4034 42.604C63.1314 42.772 62.9194 43.024 62.7674 43.36C62.6234 43.688 62.5514 44.096 62.5514 44.584C62.5514 45.304 62.7154 45.86 63.0434 46.252C63.3714 46.636 63.8074 46.828 64.3514 46.828ZM70.8809 47.608C70.4249 47.608 70.0409 47.528 69.7289 47.368C69.4249 47.2 69.1969 46.96 69.0449 46.648C68.8929 46.328 68.8169 45.94 68.8169 45.484V42.424H68.0129C67.8769 42.424 67.7729 42.392 67.7009 42.328C67.6289 42.256 67.5929 42.16 67.5929 42.04C67.5929 41.92 67.6289 41.828 67.7009 41.764C67.7729 41.7 67.8769 41.668 68.0129 41.668H68.8169V40.288C68.8169 40.128 68.8609 40.008 68.9489 39.928C69.0369 39.84 69.1569 39.796 69.3089 39.796C69.4609 39.796 69.5769 39.84 69.6569 39.928C69.7449 40.008 69.7889 40.128 69.7889 40.288V41.668H71.3009C71.4369 41.668 71.5409 41.7 71.6129 41.764C71.6849 41.828 71.7209 41.92 71.7209 42.04C71.7209 42.16 71.6849 42.256 71.6129 42.328C71.5409 42.392 71.4369 42.424 71.3009 42.424H69.7889V45.388C69.7889 45.844 69.8849 46.192 70.0769 46.432C70.2689 46.664 70.5809 46.78 71.0129 46.78C71.1649 46.78 71.2929 46.764 71.3969 46.732C71.5089 46.7 71.6009 46.684 71.6729 46.684C71.7449 46.676 71.8049 46.7 71.8529 46.756C71.9009 46.812 71.9249 46.908 71.9249 47.044C71.9249 47.14 71.9049 47.228 71.8649 47.308C71.8329 47.388 71.7729 47.444 71.6849 47.476C71.5889 47.508 71.4609 47.536 71.3009 47.56C71.1489 47.592 71.0089 47.608 70.8809 47.608ZM73.2865 47.56C73.1265 47.56 73.0065 47.516 72.9265 47.428C72.8465 47.332 72.8065 47.2 72.8065 47.032V42.124C72.8065 41.956 72.8465 41.828 72.9265 41.74C73.0065 41.652 73.1265 41.608 73.2865 41.608C73.4385 41.608 73.5585 41.652 73.6465 41.74C73.7345 41.828 73.7785 41.956 73.7785 42.124V47.032C73.7785 47.2 73.7345 47.332 73.6465 47.428C73.5665 47.516 73.4465 47.56 73.2865 47.56ZM73.2865 40.264C73.0865 40.264 72.9305 40.212 72.8185 40.108C72.7065 39.996 72.6505 39.848 72.6505 39.664C72.6505 39.472 72.7065 39.328 72.8185 39.232C72.9305 39.128 73.0865 39.076 73.2865 39.076C73.4945 39.076 73.6505 39.128 73.7545 39.232C73.8665 39.328 73.9225 39.472 73.9225 39.664C73.9225 39.848 73.8665 39.996 73.7545 40.108C73.6505 40.212 73.4945 40.264 73.2865 40.264ZM78.0196 47.608C77.4516 47.608 76.9596 47.484 76.5436 47.236C76.1276 46.988 75.8036 46.64 75.5716 46.192C75.3476 45.736 75.2356 45.2 75.2356 44.584C75.2356 44.12 75.2996 43.704 75.4276 43.336C75.5556 42.96 75.7436 42.64 75.9916 42.376C76.2396 42.112 76.5316 41.912 76.8676 41.776C77.2116 41.632 77.5956 41.56 78.0196 41.56C78.5876 41.56 79.0796 41.684 79.4956 41.932C79.9116 42.18 80.2316 42.532 80.4556 42.988C80.6876 43.436 80.8036 43.968 80.8036 44.584C80.8036 45.048 80.7396 45.464 80.6116 45.832C80.4836 46.2 80.2956 46.52 80.0476 46.792C79.7996 47.056 79.5036 47.26 79.1596 47.404C78.8236 47.54 78.4436 47.608 78.0196 47.608ZM78.0196 46.828C78.3796 46.828 78.6956 46.74 78.9676 46.564C79.2396 46.388 79.4476 46.132 79.5916 45.796C79.7436 45.46 79.8196 45.056 79.8196 44.584C79.8196 43.856 79.6556 43.3 79.3276 42.916C79.0076 42.532 78.5716 42.34 78.0196 42.34C77.6516 42.34 77.3316 42.428 77.0596 42.604C76.7956 42.772 76.5876 43.024 76.4356 43.36C76.2916 43.688 76.2196 44.096 76.2196 44.584C76.2196 45.304 76.3836 45.86 76.7116 46.252C77.0396 46.636 77.4756 46.828 78.0196 46.828ZM82.7436 47.584C82.5836 47.584 82.4636 47.54 82.3836 47.452C82.3036 47.364 82.2636 47.24 82.2636 47.08V42.076C82.2636 41.916 82.3036 41.796 82.3836 41.716C82.4636 41.628 82.5796 41.584 82.7316 41.584C82.8836 41.584 82.9996 41.628 83.0796 41.716C83.1676 41.796 83.2116 41.916 83.2116 42.076V43.108L83.0796 42.964C83.2476 42.5 83.5196 42.152 83.8956 41.92C84.2796 41.68 84.7196 41.56 85.2156 41.56C85.6796 41.56 86.0636 41.644 86.3676 41.812C86.6796 41.98 86.9116 42.236 87.0636 42.58C87.2156 42.916 87.2916 43.344 87.2916 43.864V47.08C87.2916 47.24 87.2476 47.364 87.1596 47.452C87.0796 47.54 86.9636 47.584 86.8116 47.584C86.6516 47.584 86.5276 47.54 86.4396 47.452C86.3596 47.364 86.3196 47.24 86.3196 47.08V43.924C86.3196 43.38 86.2116 42.984 85.9956 42.736C85.7876 42.48 85.4516 42.352 84.9876 42.352C84.4516 42.352 84.0236 42.52 83.7036 42.856C83.3916 43.184 83.2356 43.624 83.2356 44.176V47.08C83.2356 47.416 83.0716 47.584 82.7436 47.584Z" fill="#929BAA"/>
<rect x="265" y="25.5" width="36" height="36" rx="12" fill="#64728C" fill-opacity="0.12"/>
<path d="M284.039 48.2C283.577 49 282.423 49 281.961 48.2L278.843 42.8C278.381 42 278.959 41 279.882 41L286.118 41C287.041 41 287.619 42 287.157 42.8L284.039 48.2Z" fill="#64728C"/>
</g>
<path d="M6.656 12C6.44 12 6.272 11.944 6.152 11.832C6.04 11.712 5.984 11.544 5.984 11.328V4.212C5.984 3.996 6.04 3.832 6.152 3.72C6.272 3.6 6.44 3.54 6.656 3.54H8.972C10.364 3.54 11.436 3.904 12.188 4.632C12.948 5.352 13.328 6.396 13.328 7.764C13.328 8.444 13.232 9.048 13.04 9.576C12.848 10.104 12.564 10.548 12.188 10.908C11.82 11.26 11.368 11.532 10.832 11.724C10.296 11.908 9.676 12 8.972 12H6.656ZM7.232 10.956H8.9C9.428 10.956 9.884 10.892 10.268 10.764C10.66 10.628 10.988 10.428 11.252 10.164C11.516 9.9 11.712 9.568 11.84 9.168C11.968 8.768 12.032 8.3 12.032 7.764C12.032 6.7 11.768 5.904 11.24 5.376C10.72 4.848 9.94 4.584 8.9 4.584H7.232V10.956ZM15.4757 12.084C15.2757 12.084 15.1237 12.032 15.0197 11.928C14.9157 11.816 14.8637 11.664 14.8637 11.472V6.672C14.8637 6.472 14.9157 6.32 15.0197 6.216C15.1237 6.112 15.2677 6.06 15.4517 6.06C15.6437 6.06 15.7877 6.112 15.8837 6.216C15.9877 6.32 16.0397 6.472 16.0397 6.672V7.548H15.9197C16.0477 7.068 16.2837 6.704 16.6277 6.456C16.9717 6.208 17.4117 6.064 17.9477 6.024C18.0917 6.016 18.2037 6.052 18.2837 6.132C18.3717 6.212 18.4197 6.336 18.4277 6.504C18.4437 6.672 18.4077 6.808 18.3197 6.912C18.2317 7.008 18.0957 7.064 17.9117 7.08L17.6837 7.104C17.1637 7.152 16.7677 7.316 16.4957 7.596C16.2237 7.876 16.0877 8.26 16.0877 8.748V11.472C16.0877 11.664 16.0357 11.816 15.9317 11.928C15.8357 12.032 15.6837 12.084 15.4757 12.084ZM21.8023 12.108C21.2103 12.108 20.6983 11.984 20.2663 11.736C19.8423 11.488 19.5103 11.136 19.2703 10.68C19.0303 10.224 18.9103 9.688 18.9103 9.072C18.9103 8.6 18.9783 8.18 19.1143 7.812C19.2503 7.444 19.4423 7.128 19.6903 6.864C19.9463 6.592 20.2503 6.388 20.6023 6.252C20.9623 6.108 21.3623 6.036 21.8023 6.036C22.3863 6.036 22.8903 6.16 23.3143 6.408C23.7463 6.656 24.0823 7.008 24.3223 7.464C24.5623 7.912 24.6823 8.448 24.6823 9.072C24.6823 9.536 24.6143 9.956 24.4783 10.332C24.3423 10.708 24.1463 11.028 23.8903 11.292C23.6423 11.556 23.3383 11.76 22.9783 11.904C22.6263 12.04 22.2343 12.108 21.8023 12.108ZM21.8023 11.172C22.1303 11.172 22.4183 11.092 22.6663 10.932C22.9143 10.772 23.1063 10.536 23.2423 10.224C23.3863 9.912 23.4583 9.528 23.4583 9.072C23.4583 8.384 23.3063 7.864 23.0023 7.512C22.6983 7.16 22.2983 6.984 21.8023 6.984C21.4663 6.984 21.1743 7.064 20.9263 7.224C20.6783 7.376 20.4823 7.608 20.3383 7.92C20.2023 8.232 20.1343 8.616 20.1343 9.072C20.1343 9.752 20.2863 10.272 20.5903 10.632C20.8943 10.992 21.2983 11.172 21.8023 11.172ZM26.6434 14.244C26.4514 14.244 26.3034 14.192 26.1994 14.088C26.0954 13.984 26.0434 13.832 26.0434 13.632V6.672C26.0434 6.472 26.0954 6.32 26.1994 6.216C26.3034 6.112 26.4474 6.06 26.6314 6.06C26.8234 6.06 26.9714 6.112 27.0754 6.216C27.1794 6.32 27.2314 6.472 27.2314 6.672V7.716L27.0994 7.464C27.2274 7.032 27.4794 6.688 27.8554 6.432C28.2314 6.168 28.6754 6.036 29.1874 6.036C29.7074 6.036 30.1594 6.16 30.5434 6.408C30.9354 6.656 31.2354 7.004 31.4434 7.452C31.6594 7.9 31.7674 8.44 31.7674 9.072C31.7674 9.688 31.6594 10.228 31.4434 10.692C31.2354 11.148 30.9394 11.5 30.5554 11.748C30.1714 11.988 29.7154 12.108 29.1874 12.108C28.6834 12.108 28.2434 11.98 27.8674 11.724C27.4914 11.468 27.2394 11.128 27.1114 10.704H27.2554V13.632C27.2554 13.832 27.1994 13.984 27.0874 14.088C26.9834 14.192 26.8354 14.244 26.6434 14.244ZM28.8874 11.172C29.2234 11.172 29.5154 11.092 29.7634 10.932C30.0114 10.772 30.2034 10.536 30.3394 10.224C30.4754 9.912 30.5434 9.528 30.5434 9.072C30.5434 8.384 30.3914 7.864 30.0874 7.512C29.7914 7.16 29.3914 6.984 28.8874 6.984C28.5594 6.984 28.2674 7.064 28.0114 7.224C27.7634 7.376 27.5714 7.608 27.4354 7.92C27.2994 8.232 27.2314 8.616 27.2314 9.072C27.2314 9.752 27.3834 10.272 27.6874 10.632C27.9914 10.992 28.3914 11.172 28.8874 11.172ZM35.3652 12.108C34.8533 12.108 34.4013 11.988 34.0093 11.748C33.6253 11.5 33.3253 11.148 33.1093 10.692C32.8933 10.228 32.7853 9.688 32.7853 9.072C32.7853 8.44 32.8933 7.9 33.1093 7.452C33.3253 7.004 33.6253 6.656 34.0093 6.408C34.4013 6.16 34.8533 6.036 35.3652 6.036C35.8773 6.036 36.3173 6.164 36.6853 6.42C37.0613 6.668 37.3133 7.004 37.4413 7.428H37.3093V4.068C37.3093 3.868 37.3613 3.716 37.4653 3.612C37.5693 3.508 37.7173 3.456 37.9093 3.456C38.1013 3.456 38.2493 3.508 38.3533 3.612C38.4653 3.716 38.5213 3.868 38.5213 4.068V11.472C38.5213 11.664 38.4693 11.816 38.3653 11.928C38.2613 12.032 38.1133 12.084 37.9213 12.084C37.7293 12.084 37.5813 12.032 37.4773 11.928C37.3733 11.816 37.3213 11.664 37.3213 11.472V10.416L37.4533 10.68C37.3253 11.112 37.0733 11.46 36.6973 11.724C36.3293 11.98 35.8853 12.108 35.3652 12.108ZM35.6773 11.172C36.0053 11.172 36.2933 11.092 36.5413 10.932C36.7893 10.772 36.9813 10.536 37.1173 10.224C37.2613 9.912 37.3333 9.528 37.3333 9.072C37.3333 8.384 37.1813 7.864 36.8773 7.512C36.5733 7.16 36.1733 6.984 35.6773 6.984C35.3413 6.984 35.0493 7.064 34.8013 7.224C34.5533 7.376 34.3573 7.608 34.2133 7.92C34.0773 8.232 34.0093 8.616 34.0093 9.072C34.0093 9.752 34.1613 10.272 34.4653 10.632C34.7693 10.992 35.1733 11.172 35.6773 11.172ZM42.7671 12.108C42.1751 12.108 41.6631 11.984 41.2311 11.736C40.8071 11.488 40.4751 11.136 40.2351 10.68C39.9951 10.224 39.8751 9.688 39.8751 9.072C39.8751 8.6 39.9431 8.18 40.0791 7.812C40.2151 7.444 40.4071 7.128 40.6551 6.864C40.9111 6.592 41.2151 6.388 41.5671 6.252C41.9271 6.108 42.3271 6.036 42.7671 6.036C43.3511 6.036 43.8551 6.16 44.2791 6.408C44.7111 6.656 45.0471 7.008 45.2871 7.464C45.5271 7.912 45.6471 8.448 45.6471 9.072C45.6471 9.536 45.5791 9.956 45.4431 10.332C45.3071 10.708 45.1111 11.028 44.8551 11.292C44.6071 11.556 44.3031 11.76 43.9431 11.904C43.5911 12.04 43.1991 12.108 42.7671 12.108ZM42.7671 11.172C43.0951 11.172 43.3831 11.092 43.6311 10.932C43.8791 10.772 44.0711 10.536 44.2071 10.224C44.3511 9.912 44.4231 9.528 44.4231 9.072C44.4231 8.384 44.2711 7.864 43.9671 7.512C43.6631 7.16 43.2631 6.984 42.7671 6.984C42.4311 6.984 42.1391 7.064 41.8911 7.224C41.6431 7.376 41.4471 7.608 41.3031 7.92C41.1671 8.232 41.0991 8.616 41.0991 9.072C41.0991 9.752 41.2511 10.272 41.5551 10.632C41.8591 10.992 42.2631 11.172 42.7671 11.172ZM49.0388 12.084C48.8708 12.084 48.7228 12.044 48.5948 11.964C48.4748 11.876 48.3788 11.74 48.3068 11.556L46.5428 6.888C46.4788 6.728 46.4588 6.588 46.4828 6.468C46.5068 6.34 46.5668 6.24 46.6628 6.168C46.7668 6.096 46.8988 6.06 47.0588 6.06C47.2028 6.06 47.3188 6.096 47.4068 6.168C47.5028 6.232 47.5828 6.36 47.6468 6.552L49.2188 10.98H48.9308L50.5628 6.504C50.6188 6.352 50.6948 6.24 50.7908 6.168C50.8868 6.096 51.0108 6.06 51.1628 6.06C51.3148 6.06 51.4388 6.096 51.5348 6.168C51.6388 6.24 51.7148 6.352 51.7628 6.504L53.3588 10.98H53.0948L54.6908 6.528C54.7548 6.344 54.8348 6.22 54.9308 6.156C55.0348 6.092 55.1508 6.06 55.2788 6.06C55.4388 6.06 55.5588 6.1 55.6388 6.18C55.7268 6.26 55.7748 6.364 55.7828 6.492C55.7988 6.612 55.7788 6.744 55.7228 6.888L53.9588 11.556C53.8868 11.732 53.7868 11.864 53.6588 11.952C53.5388 12.04 53.3988 12.084 53.2388 12.084C53.0708 12.084 52.9228 12.04 52.7948 11.952C52.6748 11.864 52.5788 11.732 52.5068 11.556L50.8268 7.008H51.4268L49.7588 11.556C49.6948 11.732 49.5988 11.864 49.4708 11.952C49.3508 12.04 49.2068 12.084 49.0388 12.084ZM57.6512 12.084C57.4592 12.084 57.3112 12.032 57.2072 11.928C57.1032 11.816 57.0512 11.664 57.0512 11.472V6.672C57.0512 6.472 57.1032 6.32 57.2072 6.216C57.3112 6.112 57.4552 6.06 57.6392 6.06C57.8312 6.06 57.9752 6.112 58.0712 6.216C58.1752 6.32 58.2272 6.472 58.2272 6.672V7.608L58.0952 7.392C58.2712 6.944 58.5472 6.608 58.9232 6.384C59.2992 6.152 59.7312 6.036 60.2192 6.036C60.6832 6.036 61.0672 6.124 61.3712 6.3C61.6832 6.468 61.9152 6.728 62.0672 7.08C62.2192 7.424 62.2952 7.86 62.2952 8.388V11.472C62.2952 11.664 62.2432 11.816 62.1392 11.928C62.0352 12.032 61.8872 12.084 61.6952 12.084C61.4952 12.084 61.3432 12.032 61.2392 11.928C61.1352 11.816 61.0832 11.664 61.0832 11.472V8.46C61.0832 7.956 60.9832 7.588 60.7832 7.356C60.5912 7.124 60.2872 7.008 59.8712 7.008C59.3832 7.008 58.9912 7.16 58.6952 7.464C58.4072 7.768 58.2632 8.176 58.2632 8.688V11.472C58.2632 11.88 58.0592 12.084 57.6512 12.084Z" fill="#64728C"/>
<defs>
<filter id="filter0_d_552_3458" x="0" y="20" width="310" height="55" filterUnits="userSpaceOnUse" color-interpolation-filters="sRGB">
<feFlood flood-opacity="0" result="BackgroundImageFix"/>
<feColorMatrix in="SourceAlpha" type="matrix" values="0 0 0 0 0 0 0 0 0 0 0 0 0 0 0 0 0 0 127 0" result="hardAlpha"/>
<feOffset dy="4"/>
<feGaussianBlur stdDeviation="2.5"/>
<feComposite in2="hardAlpha" operator="out"/>
<feColorMatrix type="matrix" values="0 0 0 0 0.392157 0 0 0 0 0.447059 0 0 0 0 0.54902 0 0 0 0.15 0"/>
<feBlend mode="normal" in2="BackgroundImageFix" result="effect1_dropShadow_552_3458"/>
<feBlend mode="normal" in="SourceGraphic" in2="effect1_dropShadow_552_3458" result="shape"/>
</filter>
</defs>
</svg>
