<svg width="300" height="66" viewBox="0 0 300 66" fill="none" xmlns="http://www.w3.org/2000/svg">
<rect x="0.5" y="21.5" width="299" height="44" rx="11.5" fill="#E8EAEF"/>
<rect x="0.5" y="21.5" width="299" height="44" rx="11.5" stroke="#E8EAEF"/>
<path d="M11.584 47.5C11.408 47.5 11.272 47.456 11.176 47.368C11.088 47.272 11.044 47.136 11.044 46.96V39.58C11.044 39.404 11.088 39.272 11.176 39.184C11.272 39.088 11.408 39.04 11.584 39.04H14.428C15.012 39.04 15.504 39.128 15.904 39.304C16.312 39.472 16.624 39.72 16.84 40.048C17.056 40.376 17.164 40.776 17.164 41.248C17.164 41.776 17.008 42.216 16.696 42.568C16.392 42.92 15.976 43.152 15.448 43.264V43.096C16.048 43.168 16.516 43.384 16.852 43.744C17.196 44.104 17.368 44.58 17.368 45.172C17.368 45.924 17.124 46.5 16.636 46.9C16.148 47.3 15.46 47.5 14.572 47.5H11.584ZM12.004 46.708H14.476C15.116 46.708 15.596 46.58 15.916 46.324C16.236 46.068 16.396 45.68 16.396 45.16C16.396 44.632 16.236 44.244 15.916 43.996C15.596 43.74 15.116 43.612 14.476 43.612H12.004V46.708ZM12.004 42.82H14.284C14.908 42.82 15.38 42.692 15.7 42.436C16.028 42.18 16.192 41.812 16.192 41.332C16.192 40.836 16.028 40.464 15.7 40.216C15.38 39.96 14.908 39.832 14.284 39.832H12.004V42.82ZM20.8574 47.608C20.4574 47.608 20.0974 47.532 19.7774 47.38C19.4654 47.22 19.2174 47.004 19.0334 46.732C18.8494 46.46 18.7574 46.156 18.7574 45.82C18.7574 45.388 18.8654 45.048 19.0814 44.8C19.3054 44.552 19.6694 44.376 20.1734 44.272C20.6854 44.168 21.3814 44.116 22.2614 44.116H22.8014V44.752H22.2734C21.6254 44.752 21.1134 44.784 20.7374 44.848C20.3694 44.904 20.1094 45.004 19.9574 45.148C19.8134 45.292 19.7414 45.496 19.7414 45.76C19.7414 46.088 19.8534 46.356 20.0774 46.564C20.3094 46.772 20.6214 46.876 21.0134 46.876C21.3334 46.876 21.6134 46.8 21.8534 46.648C22.1014 46.496 22.2934 46.288 22.4294 46.024C22.5734 45.76 22.6454 45.456 22.6454 45.112V43.744C22.6454 43.248 22.5454 42.892 22.3454 42.676C22.1454 42.452 21.8174 42.34 21.3614 42.34C21.0814 42.34 20.8014 42.376 20.5214 42.448C20.2414 42.52 19.9454 42.636 19.6334 42.796C19.5214 42.852 19.4254 42.872 19.3454 42.856C19.2654 42.832 19.2014 42.788 19.1534 42.724C19.1054 42.66 19.0774 42.588 19.0694 42.508C19.0614 42.42 19.0774 42.336 19.1174 42.256C19.1654 42.176 19.2374 42.112 19.3334 42.064C19.6854 41.888 20.0334 41.76 20.3774 41.68C20.7214 41.6 21.0494 41.56 21.3614 41.56C21.8654 41.56 22.2814 41.644 22.6094 41.812C22.9374 41.972 23.1814 42.22 23.3414 42.556C23.5014 42.884 23.5814 43.308 23.5814 43.828V47.08C23.5814 47.24 23.5414 47.364 23.4614 47.452C23.3894 47.54 23.2814 47.584 23.1374 47.584C22.9854 47.584 22.8694 47.54 22.7894 47.452C22.7094 47.364 22.6694 47.24 22.6694 47.08V46.144H22.7774C22.7134 46.448 22.5894 46.708 22.4054 46.924C22.2294 47.14 22.0094 47.308 21.7454 47.428C21.4814 47.548 21.1854 47.608 20.8574 47.608ZM27.8567 47.608C27.2727 47.608 26.7687 47.48 26.3447 47.224C25.9207 46.968 25.5927 46.612 25.3607 46.156C25.1367 45.692 25.0247 45.156 25.0247 44.548C25.0247 44.084 25.0887 43.668 25.2167 43.3C25.3447 42.932 25.5327 42.62 25.7807 42.364C26.0287 42.1 26.3247 41.9 26.6687 41.764C27.0207 41.628 27.4167 41.56 27.8567 41.56C28.1447 41.56 28.4447 41.604 28.7567 41.692C29.0687 41.78 29.3527 41.932 29.6087 42.148C29.6887 42.204 29.7407 42.272 29.7647 42.352C29.7887 42.432 29.7887 42.512 29.7647 42.592C29.7407 42.664 29.7007 42.728 29.6447 42.784C29.5887 42.832 29.5167 42.86 29.4287 42.868C29.3487 42.876 29.2647 42.848 29.1767 42.784C28.9687 42.624 28.7567 42.512 28.5407 42.448C28.3247 42.384 28.1167 42.352 27.9167 42.352C27.6047 42.352 27.3327 42.404 27.1007 42.508C26.8687 42.604 26.6727 42.744 26.5127 42.928C26.3527 43.112 26.2287 43.34 26.1407 43.612C26.0607 43.884 26.0207 44.2 26.0207 44.56C26.0207 45.256 26.1847 45.808 26.5127 46.216C26.8407 46.616 27.3087 46.816 27.9167 46.816C28.1167 46.816 28.3207 46.784 28.5287 46.72C28.7447 46.656 28.9607 46.544 29.1767 46.384C29.2647 46.32 29.3487 46.292 29.4287 46.3C29.5087 46.308 29.5767 46.34 29.6327 46.396C29.6887 46.444 29.7247 46.508 29.7407 46.588C29.7647 46.668 29.7647 46.748 29.7407 46.828C29.7167 46.9 29.6647 46.964 29.5847 47.02C29.3287 47.228 29.0487 47.38 28.7447 47.476C28.4407 47.564 28.1447 47.608 27.8567 47.608ZM31.4193 47.584C31.2593 47.584 31.1393 47.54 31.0593 47.452C30.9793 47.364 30.9393 47.24 30.9393 47.08V39.448C30.9393 39.288 30.9793 39.168 31.0593 39.088C31.1393 39 31.2593 38.956 31.4193 38.956C31.5713 38.956 31.6913 39 31.7793 39.088C31.8673 39.168 31.9113 39.288 31.9113 39.448V42.964H31.7553C31.9233 42.5 32.1953 42.152 32.5713 41.92C32.9553 41.68 33.3953 41.56 33.8913 41.56C34.3553 41.56 34.7393 41.644 35.0433 41.812C35.3553 41.98 35.5873 42.236 35.7393 42.58C35.8913 42.916 35.9673 43.344 35.9673 43.864V47.08C35.9673 47.24 35.9233 47.364 35.8353 47.452C35.7553 47.54 35.6393 47.584 35.4873 47.584C35.3273 47.584 35.2033 47.54 35.1153 47.452C35.0353 47.364 34.9953 47.24 34.9953 47.08V43.924C34.9953 43.38 34.8873 42.984 34.6713 42.736C34.4633 42.48 34.1273 42.352 33.6633 42.352C33.1273 42.352 32.6993 42.52 32.3793 42.856C32.0673 43.184 31.9113 43.624 31.9113 44.176V47.08C31.9113 47.416 31.7473 47.584 31.4193 47.584ZM40.3877 47.608C39.7717 47.608 39.2397 47.488 38.7917 47.248C38.3517 47 38.0077 46.652 37.7597 46.204C37.5197 45.756 37.3997 45.22 37.3997 44.596C37.3997 43.988 37.5197 43.46 37.7597 43.012C37.9997 42.556 38.3277 42.2 38.7437 41.944C39.1677 41.688 39.6557 41.56 40.2077 41.56C40.5997 41.56 40.9517 41.628 41.2637 41.764C41.5757 41.892 41.8397 42.08 42.0557 42.328C42.2797 42.576 42.4477 42.876 42.5597 43.228C42.6797 43.58 42.7397 43.976 42.7397 44.416C42.7397 44.544 42.7037 44.64 42.6317 44.704C42.5597 44.76 42.4557 44.788 42.3197 44.788H38.1437V44.152H42.0917L41.8997 44.308C41.8997 43.876 41.8357 43.512 41.7077 43.216C41.5797 42.912 41.3917 42.68 41.1437 42.52C40.9037 42.36 40.5997 42.28 40.2317 42.28C39.8237 42.28 39.4757 42.376 39.1877 42.568C38.9077 42.752 38.6957 43.012 38.5517 43.348C38.4077 43.676 38.3357 44.06 38.3357 44.5V44.572C38.3357 45.308 38.5117 45.868 38.8637 46.252C39.2237 46.636 39.7317 46.828 40.3877 46.828C40.6597 46.828 40.9277 46.792 41.1917 46.72C41.4637 46.648 41.7277 46.528 41.9837 46.36C42.0957 46.288 42.1957 46.256 42.2837 46.264C42.3797 46.264 42.4557 46.292 42.5117 46.348C42.5677 46.396 42.6037 46.46 42.6197 46.54C42.6437 46.612 42.6357 46.692 42.5957 46.78C42.5637 46.868 42.4957 46.944 42.3917 47.008C42.1277 47.2 41.8157 47.348 41.4557 47.452C41.0957 47.556 40.7397 47.608 40.3877 47.608ZM45.9224 47.608C45.3464 47.608 44.9064 47.432 44.6024 47.08C44.2984 46.728 44.1464 46.224 44.1464 45.568V39.448C44.1464 39.288 44.1864 39.168 44.2664 39.088C44.3464 39 44.4664 38.956 44.6264 38.956C44.7784 38.956 44.8984 39 44.9864 39.088C45.0744 39.168 45.1184 39.288 45.1184 39.448V45.496C45.1184 45.928 45.2024 46.252 45.3704 46.468C45.5464 46.676 45.8024 46.78 46.1384 46.78C46.2104 46.78 46.2744 46.776 46.3304 46.768C46.3864 46.76 46.4424 46.756 46.4984 46.756C46.5864 46.748 46.6464 46.768 46.6784 46.816C46.7184 46.864 46.7384 46.96 46.7384 47.104C46.7384 47.248 46.7064 47.356 46.6424 47.428C46.5784 47.5 46.4744 47.548 46.3304 47.572C46.2664 47.58 46.1984 47.588 46.1264 47.596C46.0544 47.604 45.9864 47.608 45.9224 47.608ZM50.0626 47.608C49.4946 47.608 49.0026 47.484 48.5866 47.236C48.1706 46.988 47.8466 46.64 47.6146 46.192C47.3906 45.736 47.2786 45.2 47.2786 44.584C47.2786 44.12 47.3426 43.704 47.4706 43.336C47.5986 42.96 47.7866 42.64 48.0346 42.376C48.2826 42.112 48.5746 41.912 48.9106 41.776C49.2546 41.632 49.6386 41.56 50.0626 41.56C50.6306 41.56 51.1226 41.684 51.5386 41.932C51.9546 42.18 52.2746 42.532 52.4986 42.988C52.7306 43.436 52.8466 43.968 52.8466 44.584C52.8466 45.048 52.7826 45.464 52.6546 45.832C52.5266 46.2 52.3386 46.52 52.0906 46.792C51.8426 47.056 51.5466 47.26 51.2026 47.404C50.8666 47.54 50.4866 47.608 50.0626 47.608ZM50.0626 46.828C50.4226 46.828 50.7386 46.74 51.0106 46.564C51.2826 46.388 51.4906 46.132 51.6346 45.796C51.7866 45.46 51.8626 45.056 51.8626 44.584C51.8626 43.856 51.6986 43.3 51.3706 42.916C51.0506 42.532 50.6146 42.34 50.0626 42.34C49.6946 42.34 49.3746 42.428 49.1026 42.604C48.8386 42.772 48.6306 43.024 48.4786 43.36C48.3346 43.688 48.2626 44.096 48.2626 44.584C48.2626 45.304 48.4266 45.86 48.7546 46.252C49.0826 46.636 49.5186 46.828 50.0626 46.828ZM54.7985 47.584C54.6385 47.584 54.5145 47.54 54.4265 47.452C54.3465 47.364 54.3065 47.24 54.3065 47.08V42.076C54.3065 41.916 54.3465 41.796 54.4265 41.716C54.5065 41.628 54.6225 41.584 54.7745 41.584C54.9265 41.584 55.0425 41.628 55.1225 41.716C55.2105 41.796 55.2545 41.916 55.2545 42.076V43.048H55.1345C55.2625 42.576 55.5065 42.212 55.8665 41.956C56.2265 41.7 56.6705 41.564 57.1985 41.548C57.3185 41.54 57.4145 41.568 57.4865 41.632C57.5585 41.688 57.5985 41.788 57.6065 41.932C57.6145 42.068 57.5825 42.176 57.5105 42.256C57.4385 42.336 57.3265 42.384 57.1745 42.4L56.9825 42.424C56.4385 42.472 56.0185 42.648 55.7225 42.952C55.4345 43.248 55.2905 43.656 55.2905 44.176V47.08C55.2905 47.24 55.2465 47.364 55.1585 47.452C55.0785 47.54 54.9585 47.584 54.7985 47.584ZM59.0273 42.448C58.9393 42.448 58.8593 42.416 58.7873 42.352C58.7233 42.28 58.6833 42.184 58.6673 42.064L58.4993 39.544C58.4833 39.376 58.5233 39.236 58.6193 39.124C58.7233 39.012 58.8593 38.956 59.0273 38.956C59.1393 38.956 59.2353 38.984 59.3153 39.04C59.3953 39.088 59.4553 39.156 59.4953 39.244C59.5433 39.332 59.5633 39.432 59.5553 39.544L59.3873 42.064C59.3793 42.184 59.3433 42.28 59.2793 42.352C59.2153 42.416 59.1313 42.448 59.0273 42.448ZM63.2238 47.608C62.8638 47.608 62.4998 47.564 62.1318 47.476C61.7718 47.388 61.4358 47.236 61.1238 47.02C61.0438 46.964 60.9878 46.9 60.9558 46.828C60.9238 46.748 60.9118 46.672 60.9198 46.6C60.9358 46.52 60.9678 46.452 61.0158 46.396C61.0718 46.34 61.1358 46.308 61.2078 46.3C61.2878 46.284 61.3758 46.3 61.4718 46.348C61.7838 46.54 62.0838 46.676 62.3718 46.756C62.6678 46.828 62.9598 46.864 63.2478 46.864C63.7038 46.864 64.0478 46.78 64.2798 46.612C64.5118 46.444 64.6278 46.216 64.6278 45.928C64.6278 45.704 64.5518 45.528 64.3998 45.4C64.2478 45.264 64.0078 45.16 63.6798 45.088L62.5878 44.848C62.0838 44.744 61.7078 44.564 61.4598 44.308C61.2198 44.052 61.0998 43.72 61.0998 43.312C61.0998 42.952 61.1918 42.644 61.3758 42.388C61.5678 42.124 61.8358 41.92 62.1798 41.776C62.5238 41.632 62.9238 41.56 63.3798 41.56C63.7318 41.56 64.0638 41.608 64.3758 41.704C64.6958 41.792 64.9838 41.936 65.2398 42.136C65.3198 42.192 65.3718 42.26 65.3958 42.34C65.4278 42.412 65.4318 42.488 65.4078 42.568C65.3918 42.64 65.3558 42.704 65.2998 42.76C65.2438 42.808 65.1758 42.836 65.0958 42.844C65.0158 42.852 64.9318 42.828 64.8438 42.772C64.6038 42.612 64.3598 42.496 64.1118 42.424C63.8638 42.344 63.6198 42.304 63.3798 42.304C62.9318 42.304 62.5918 42.392 62.3598 42.568C62.1278 42.744 62.0118 42.976 62.0118 43.264C62.0118 43.488 62.0838 43.672 62.2278 43.816C62.3718 43.96 62.5958 44.064 62.8998 44.128L63.9918 44.356C64.5118 44.468 64.8998 44.648 65.1558 44.896C65.4198 45.136 65.5518 45.464 65.5518 45.88C65.5518 46.408 65.3398 46.828 64.9158 47.14C64.4918 47.452 63.9278 47.608 63.2238 47.608ZM70.7988 47.5C70.6228 47.5 70.4868 47.456 70.3908 47.368C70.3028 47.272 70.2588 47.136 70.2588 46.96V39.58C70.2588 39.404 70.3028 39.272 70.3908 39.184C70.4868 39.088 70.6228 39.04 70.7988 39.04H73.1148C74.4828 39.04 75.5388 39.4 76.2828 40.12C77.0268 40.84 77.3988 41.888 77.3988 43.264C77.3988 43.952 77.3028 44.56 77.1108 45.088C76.9268 45.608 76.6508 46.048 76.2828 46.408C75.9148 46.768 75.4668 47.04 74.9388 47.224C74.4108 47.408 73.8028 47.5 73.1148 47.5H70.7988ZM71.2428 46.66H73.0428C73.6028 46.66 74.0868 46.588 74.4948 46.444C74.9108 46.3 75.2548 46.088 75.5268 45.808C75.8068 45.528 76.0148 45.176 76.1508 44.752C76.2868 44.32 76.3548 43.824 76.3548 43.264C76.3548 42.136 76.0788 41.292 75.5268 40.732C74.9748 40.164 74.1468 39.88 73.0428 39.88H71.2428V46.66ZM81.6611 47.608C81.0451 47.608 80.5131 47.488 80.0651 47.248C79.6251 47 79.2811 46.652 79.0331 46.204C78.7931 45.756 78.6731 45.22 78.6731 44.596C78.6731 43.988 78.7931 43.46 79.0331 43.012C79.2731 42.556 79.6011 42.2 80.0171 41.944C80.4411 41.688 80.9291 41.56 81.4811 41.56C81.8731 41.56 82.2251 41.628 82.5371 41.764C82.8491 41.892 83.1131 42.08 83.3291 42.328C83.5531 42.576 83.7211 42.876 83.8331 43.228C83.9531 43.58 84.0131 43.976 84.0131 44.416C84.0131 44.544 83.9771 44.64 83.9051 44.704C83.8331 44.76 83.7291 44.788 83.5931 44.788H79.4171V44.152H83.3651L83.1731 44.308C83.1731 43.876 83.1091 43.512 82.9811 43.216C82.8531 42.912 82.6651 42.68 82.4171 42.52C82.1771 42.36 81.8731 42.28 81.5051 42.28C81.0971 42.28 80.7491 42.376 80.4611 42.568C80.1811 42.752 79.9691 43.012 79.8251 43.348C79.6811 43.676 79.6091 44.06 79.6091 44.5V44.572C79.6091 45.308 79.7851 45.868 80.1371 46.252C80.4971 46.636 81.0051 46.828 81.6611 46.828C81.9331 46.828 82.2011 46.792 82.4651 46.72C82.7371 46.648 83.0011 46.528 83.2571 46.36C83.3691 46.288 83.4691 46.256 83.5571 46.264C83.6531 46.264 83.7291 46.292 83.7851 46.348C83.8411 46.396 83.8771 46.46 83.8931 46.54C83.9171 46.612 83.9091 46.692 83.8691 46.78C83.8371 46.868 83.7691 46.944 83.6651 47.008C83.4011 47.2 83.0891 47.348 82.7291 47.452C82.3691 47.556 82.0131 47.608 81.6611 47.608ZM87.9998 49.768C87.5758 49.768 87.1598 49.716 86.7518 49.612C86.3518 49.516 85.9878 49.36 85.6598 49.144C85.5638 49.088 85.4998 49.02 85.4678 48.94C85.4438 48.86 85.4398 48.78 85.4558 48.7C85.4718 48.628 85.5078 48.56 85.5638 48.496C85.6198 48.44 85.6838 48.404 85.7558 48.388C85.8358 48.372 85.9158 48.384 85.9958 48.424C86.3478 48.64 86.6838 48.788 87.0038 48.868C87.3238 48.948 87.6398 48.988 87.9518 48.988C88.5198 48.988 88.9478 48.836 89.2358 48.532C89.5318 48.228 89.6798 47.788 89.6798 47.212V45.856H89.7998C89.6798 46.32 89.4238 46.688 89.0318 46.96C88.6478 47.232 88.1958 47.368 87.6758 47.368C87.1398 47.368 86.6758 47.248 86.2838 47.008C85.8918 46.76 85.5878 46.416 85.3718 45.976C85.1638 45.536 85.0598 45.028 85.0598 44.452C85.0598 44.02 85.1198 43.628 85.2398 43.276C85.3598 42.916 85.5318 42.612 85.7558 42.364C85.9878 42.108 86.2638 41.912 86.5838 41.776C86.9118 41.632 87.2758 41.56 87.6758 41.56C88.2038 41.56 88.6598 41.696 89.0438 41.968C89.4278 42.232 89.6758 42.592 89.7878 43.048L89.6678 43.192V42.076C89.6678 41.916 89.7078 41.796 89.7878 41.716C89.8758 41.628 89.9958 41.584 90.1478 41.584C90.3078 41.584 90.4278 41.628 90.5078 41.716C90.5878 41.796 90.6278 41.916 90.6278 42.076V47.08C90.6278 47.968 90.4038 48.636 89.9558 49.084C89.5158 49.54 88.8638 49.768 87.9998 49.768ZM87.8558 46.576C88.2318 46.576 88.5558 46.492 88.8278 46.324C89.0998 46.148 89.3078 45.9 89.4518 45.58C89.6038 45.26 89.6798 44.884 89.6798 44.452C89.6798 43.804 89.5158 43.292 89.1878 42.916C88.8598 42.532 88.4158 42.34 87.8558 42.34C87.4878 42.34 87.1678 42.428 86.8958 42.604C86.6238 42.772 86.4118 43.016 86.2598 43.336C86.1158 43.648 86.0438 44.02 86.0438 44.452C86.0438 45.1 86.2078 45.616 86.5358 46C86.8638 46.384 87.3038 46.576 87.8558 46.576ZM92.9431 47.584C92.7831 47.584 92.6591 47.54 92.5711 47.452C92.4911 47.364 92.4511 47.24 92.4511 47.08V42.076C92.4511 41.916 92.4911 41.796 92.5711 41.716C92.6511 41.628 92.7671 41.584 92.9191 41.584C93.0711 41.584 93.1871 41.628 93.2671 41.716C93.3551 41.796 93.3991 41.916 93.3991 42.076V43.048H93.2791C93.4071 42.576 93.6511 42.212 94.0111 41.956C94.3711 41.7 94.8151 41.564 95.3431 41.548C95.4631 41.54 95.5591 41.568 95.6311 41.632C95.7031 41.688 95.7431 41.788 95.7511 41.932C95.7591 42.068 95.7271 42.176 95.6551 42.256C95.5831 42.336 95.4711 42.384 95.3191 42.4L95.1271 42.424C94.5831 42.472 94.1631 42.648 93.8671 42.952C93.5791 43.248 93.4351 43.656 93.4351 44.176V47.08C93.4351 47.24 93.3911 47.364 93.3031 47.452C93.2231 47.54 93.1031 47.584 92.9431 47.584ZM99.3095 47.608C98.6935 47.608 98.1615 47.488 97.7135 47.248C97.2735 47 96.9295 46.652 96.6815 46.204C96.4415 45.756 96.3215 45.22 96.3215 44.596C96.3215 43.988 96.4415 43.46 96.6815 43.012C96.9215 42.556 97.2495 42.2 97.6655 41.944C98.0895 41.688 98.5775 41.56 99.1295 41.56C99.5215 41.56 99.8735 41.628 100.186 41.764C100.498 41.892 100.762 42.08 100.978 42.328C101.202 42.576 101.37 42.876 101.482 43.228C101.602 43.58 101.662 43.976 101.662 44.416C101.662 44.544 101.626 44.64 101.554 44.704C101.482 44.76 101.378 44.788 101.242 44.788H97.0655V44.152H101.014L100.822 44.308C100.822 43.876 100.758 43.512 100.63 43.216C100.502 42.912 100.314 42.68 100.066 42.52C99.8255 42.36 99.5215 42.28 99.1535 42.28C98.7455 42.28 98.3975 42.376 98.1095 42.568C97.8295 42.752 97.6175 43.012 97.4735 43.348C97.3295 43.676 97.2575 44.06 97.2575 44.5V44.572C97.2575 45.308 97.4335 45.868 97.7855 46.252C98.1455 46.636 98.6535 46.828 99.3095 46.828C99.5815 46.828 99.8495 46.792 100.114 46.72C100.386 46.648 100.65 46.528 100.906 46.36C101.018 46.288 101.118 46.256 101.206 46.264C101.302 46.264 101.378 46.292 101.434 46.348C101.49 46.396 101.526 46.46 101.542 46.54C101.566 46.612 101.558 46.692 101.518 46.78C101.486 46.868 101.418 46.944 101.314 47.008C101.05 47.2 100.738 47.348 100.378 47.452C100.018 47.556 99.6615 47.608 99.3095 47.608ZM105.696 47.608C105.08 47.608 104.548 47.488 104.1 47.248C103.66 47 103.316 46.652 103.068 46.204C102.828 45.756 102.708 45.22 102.708 44.596C102.708 43.988 102.828 43.46 103.068 43.012C103.308 42.556 103.636 42.2 104.052 41.944C104.476 41.688 104.964 41.56 105.516 41.56C105.908 41.56 106.26 41.628 106.572 41.764C106.884 41.892 107.148 42.08 107.364 42.328C107.588 42.576 107.756 42.876 107.868 43.228C107.988 43.58 108.048 43.976 108.048 44.416C108.048 44.544 108.012 44.64 107.94 44.704C107.868 44.76 107.764 44.788 107.628 44.788H103.452V44.152H107.4L107.208 44.308C107.208 43.876 107.144 43.512 107.016 43.216C106.888 42.912 106.7 42.68 106.452 42.52C106.212 42.36 105.908 42.28 105.54 42.28C105.132 42.28 104.784 42.376 104.496 42.568C104.216 42.752 104.004 43.012 103.86 43.348C103.716 43.676 103.644 44.06 103.644 44.5V44.572C103.644 45.308 103.82 45.868 104.172 46.252C104.532 46.636 105.04 46.828 105.696 46.828C105.968 46.828 106.236 46.792 106.5 46.72C106.772 46.648 107.036 46.528 107.292 46.36C107.404 46.288 107.504 46.256 107.592 46.264C107.688 46.264 107.764 46.292 107.82 46.348C107.876 46.396 107.912 46.46 107.928 46.54C107.952 46.612 107.944 46.692 107.904 46.78C107.872 46.868 107.804 46.944 107.7 47.008C107.436 47.2 107.124 47.348 106.764 47.452C106.404 47.556 106.048 47.608 105.696 47.608Z" fill="#64728C"/>
<path d="M1.656 12C1.44 12 1.272 11.944 1.152 11.832C1.04 11.712 0.984 11.544 0.984 11.328V4.212C0.984 3.996 1.04 3.832 1.152 3.72C1.272 3.6 1.44 3.54 1.656 3.54H6.036C6.204 3.54 6.332 3.584 6.42 3.672C6.508 3.752 6.552 3.872 6.552 4.032C6.552 4.2 6.508 4.328 6.42 4.416C6.332 4.504 6.204 4.548 6.036 4.548H2.184V7.2H5.772C5.948 7.2 6.076 7.244 6.156 7.332C6.244 7.42 6.288 7.544 6.288 7.704C6.288 7.872 6.244 8 6.156 8.088C6.076 8.168 5.948 8.208 5.772 8.208H2.184V10.992H6.036C6.204 10.992 6.332 11.036 6.42 11.124C6.508 11.212 6.552 11.336 6.552 11.496C6.552 11.664 6.508 11.792 6.42 11.88C6.332 11.96 6.204 12 6.036 12H1.656ZM10.1035 12.108C9.59153 12.108 9.13953 11.988 8.74753 11.748C8.36353 11.5 8.06353 11.148 7.84753 10.692C7.63153 10.228 7.52353 9.688 7.52353 9.072C7.52353 8.44 7.63153 7.9 7.84753 7.452C8.06353 7.004 8.36353 6.656 8.74753 6.408C9.13953 6.16 9.59153 6.036 10.1035 6.036C10.6155 6.036 11.0555 6.164 11.4235 6.42C11.7995 6.668 12.0515 7.004 12.1795 7.428H12.0475V4.068C12.0475 3.868 12.0995 3.716 12.2035 3.612C12.3075 3.508 12.4555 3.456 12.6475 3.456C12.8395 3.456 12.9875 3.508 13.0915 3.612C13.2035 3.716 13.2595 3.868 13.2595 4.068V11.472C13.2595 11.664 13.2075 11.816 13.1035 11.928C12.9995 12.032 12.8515 12.084 12.6595 12.084C12.4675 12.084 12.3195 12.032 12.2155 11.928C12.1115 11.816 12.0595 11.664 12.0595 11.472V10.416L12.1915 10.68C12.0635 11.112 11.8115 11.46 11.4355 11.724C11.0675 11.98 10.6235 12.108 10.1035 12.108ZM10.4155 11.172C10.7435 11.172 11.0315 11.092 11.2795 10.932C11.5275 10.772 11.7195 10.536 11.8555 10.224C11.9995 9.912 12.0715 9.528 12.0715 9.072C12.0715 8.384 11.9195 7.864 11.6155 7.512C11.3115 7.16 10.9115 6.984 10.4155 6.984C10.0795 6.984 9.78753 7.064 9.53953 7.224C9.29153 7.376 9.09553 7.608 8.95153 7.92C8.81553 8.232 8.74753 8.616 8.74753 9.072C8.74753 9.752 8.89953 10.272 9.20353 10.632C9.50753 10.992 9.91153 11.172 10.4155 11.172ZM17.0494 12.108C16.5774 12.108 16.1814 12.02 15.8614 11.844C15.5494 11.668 15.3134 11.408 15.1534 11.064C15.0014 10.712 14.9254 10.272 14.9254 9.744V6.672C14.9254 6.464 14.9774 6.312 15.0814 6.216C15.1854 6.112 15.3334 6.06 15.5254 6.06C15.7174 6.06 15.8654 6.112 15.9694 6.216C16.0814 6.312 16.1374 6.464 16.1374 6.672V9.756C16.1374 10.228 16.2334 10.576 16.4254 10.8C16.6174 11.024 16.9214 11.136 17.3374 11.136C17.7934 11.136 18.1614 10.984 18.4414 10.68C18.7294 10.368 18.8734 9.96 18.8734 9.456V6.672C18.8734 6.464 18.9254 6.312 19.0294 6.216C19.1334 6.112 19.2854 6.06 19.4854 6.06C19.6774 6.06 19.8254 6.112 19.9294 6.216C20.0334 6.312 20.0854 6.464 20.0854 6.672V11.472C20.0854 11.88 19.8894 12.084 19.4974 12.084C19.3134 12.084 19.1694 12.032 19.0654 11.928C18.9614 11.816 18.9094 11.664 18.9094 11.472V10.452L19.0654 10.716C18.9054 11.164 18.6494 11.508 18.2974 11.748C17.9454 11.988 17.5294 12.108 17.0494 12.108ZM24.3734 12.108C23.7734 12.108 23.2534 11.984 22.8134 11.736C22.3814 11.48 22.0454 11.124 21.8054 10.668C21.5654 10.204 21.4454 9.66 21.4454 9.036C21.4454 8.572 21.5134 8.156 21.6494 7.788C21.7854 7.412 21.9774 7.096 22.2254 6.84C22.4814 6.584 22.7894 6.388 23.1494 6.252C23.5174 6.108 23.9254 6.036 24.3734 6.036C24.6534 6.036 24.9454 6.08 25.2494 6.168C25.5614 6.248 25.8494 6.384 26.1134 6.576C26.2174 6.64 26.2814 6.72 26.3054 6.816C26.3374 6.904 26.3414 6.996 26.3174 7.092C26.3014 7.188 26.2574 7.272 26.1854 7.344C26.1214 7.408 26.0414 7.448 25.9454 7.464C25.8494 7.472 25.7454 7.444 25.6334 7.38C25.4414 7.244 25.2454 7.148 25.0454 7.092C24.8454 7.028 24.6534 6.996 24.4694 6.996C24.1814 6.996 23.9254 7.044 23.7014 7.14C23.4854 7.228 23.3014 7.36 23.1494 7.536C22.9974 7.704 22.8814 7.916 22.8014 8.172C22.7294 8.428 22.6934 8.72 22.6934 9.048C22.6934 9.704 22.8454 10.22 23.1494 10.596C23.4614 10.964 23.9014 11.148 24.4694 11.148C24.6534 11.148 24.8454 11.12 25.0454 11.064C25.2454 11.008 25.4414 10.912 25.6334 10.776C25.7454 10.712 25.8494 10.688 25.9454 10.704C26.0414 10.72 26.1174 10.764 26.1734 10.836C26.2374 10.9 26.2774 10.98 26.2934 11.076C26.3174 11.164 26.3134 11.256 26.2814 11.352C26.2494 11.448 26.1814 11.528 26.0774 11.592C25.8214 11.776 25.5414 11.908 25.2374 11.988C24.9414 12.068 24.6534 12.108 24.3734 12.108ZM29.2201 12.108C28.8121 12.108 28.4441 12.028 28.1161 11.868C27.7961 11.708 27.5441 11.492 27.3601 11.22C27.1761 10.948 27.0841 10.64 27.0841 10.296C27.0841 9.864 27.1921 9.524 27.4081 9.276C27.6321 9.02 27.9961 8.84 28.5001 8.736C29.0121 8.624 29.7001 8.568 30.5641 8.568H31.1281V9.312H30.5761C30.0001 9.312 29.5441 9.34 29.2081 9.396C28.8721 9.452 28.6321 9.548 28.4881 9.684C28.3521 9.812 28.2841 9.992 28.2841 10.224C28.2841 10.528 28.3881 10.776 28.5961 10.968C28.8041 11.152 29.0921 11.244 29.4601 11.244C29.7561 11.244 30.0161 11.176 30.2401 11.04C30.4641 10.896 30.6401 10.704 30.7681 10.464C30.9041 10.224 30.9721 9.948 30.9721 9.636V8.256C30.9721 7.8 30.8761 7.472 30.6841 7.272C30.4921 7.072 30.1761 6.972 29.7361 6.972C29.4801 6.972 29.2121 7.004 28.9321 7.068C28.6601 7.132 28.3761 7.24 28.0801 7.392C27.9441 7.456 27.8281 7.476 27.7321 7.452C27.6361 7.428 27.5601 7.376 27.5041 7.296C27.4481 7.208 27.4161 7.116 27.4081 7.02C27.4081 6.916 27.4321 6.816 27.4801 6.72C27.5361 6.624 27.6281 6.552 27.7561 6.504C28.1081 6.336 28.4561 6.216 28.8001 6.144C29.1441 6.072 29.4681 6.036 29.7721 6.036C30.3081 6.036 30.7481 6.12 31.0921 6.288C31.4441 6.456 31.7041 6.712 31.8721 7.056C32.0401 7.4 32.1241 7.844 32.1241 8.388V11.472C32.1241 11.664 32.0761 11.816 31.9801 11.928C31.8841 12.032 31.7441 12.084 31.5601 12.084C31.3841 12.084 31.2441 12.032 31.1401 11.928C31.0361 11.816 30.9841 11.664 30.9841 11.472V10.692H31.0921C31.0281 10.988 30.9081 11.244 30.7321 11.46C30.5641 11.668 30.3521 11.828 30.0961 11.94C29.8401 12.052 29.5481 12.108 29.2201 12.108ZM36.2894 12.108C35.8094 12.108 35.4054 12.024 35.0774 11.856C34.7494 11.688 34.5054 11.44 34.3454 11.112C34.1854 10.784 34.1054 10.384 34.1054 9.912V7.08H33.3854C33.2254 7.08 33.1014 7.04 33.0134 6.96C32.9254 6.872 32.8814 6.756 32.8814 6.612C32.8814 6.46 32.9254 6.344 33.0134 6.264C33.1014 6.184 33.2254 6.144 33.3854 6.144H34.1054V4.908C34.1054 4.708 34.1574 4.556 34.2614 4.452C34.3734 4.348 34.5254 4.296 34.7174 4.296C34.9094 4.296 35.0574 4.348 35.1614 4.452C35.2654 4.556 35.3174 4.708 35.3174 4.908V6.144H36.7214C36.8814 6.144 37.0054 6.184 37.0934 6.264C37.1814 6.344 37.2254 6.46 37.2254 6.612C37.2254 6.756 37.1814 6.872 37.0934 6.96C37.0054 7.04 36.8814 7.08 36.7214 7.08H35.3174V9.816C35.3174 10.24 35.4054 10.56 35.5814 10.776C35.7654 10.992 36.0614 11.1 36.4694 11.1C36.6134 11.1 36.7374 11.088 36.8414 11.064C36.9534 11.032 37.0454 11.012 37.1174 11.004C37.2054 11.004 37.2774 11.036 37.3334 11.1C37.3894 11.156 37.4174 11.268 37.4174 11.436C37.4174 11.556 37.3934 11.668 37.3454 11.772C37.3054 11.876 37.2294 11.944 37.1174 11.976C37.0214 12.008 36.8894 12.036 36.7214 12.06C36.5614 12.092 36.4174 12.108 36.2894 12.108ZM38.8817 12.072C38.6897 12.072 38.5417 12.016 38.4377 11.904C38.3337 11.784 38.2817 11.62 38.2817 11.412V6.732C38.2817 6.524 38.3337 6.364 38.4377 6.252C38.5417 6.14 38.6897 6.084 38.8817 6.084C39.0737 6.084 39.2217 6.14 39.3257 6.252C39.4377 6.364 39.4937 6.524 39.4937 6.732V11.412C39.4937 11.62 39.4417 11.784 39.3377 11.904C39.2337 12.016 39.0817 12.072 38.8817 12.072ZM38.8817 4.836C38.6417 4.836 38.4537 4.776 38.3177 4.656C38.1897 4.536 38.1257 4.368 38.1257 4.152C38.1257 3.928 38.1897 3.76 38.3177 3.648C38.4537 3.528 38.6417 3.468 38.8817 3.468C39.1217 3.468 39.3057 3.528 39.4337 3.648C39.5697 3.76 39.6377 3.928 39.6377 4.152C39.6377 4.368 39.5697 4.536 39.4337 4.656C39.3057 4.776 39.1217 4.836 38.8817 4.836ZM43.7437 12.108C43.1517 12.108 42.6397 11.984 42.2077 11.736C41.7837 11.488 41.4517 11.136 41.2117 10.68C40.9717 10.224 40.8517 9.688 40.8517 9.072C40.8517 8.6 40.9197 8.18 41.0557 7.812C41.1917 7.444 41.3837 7.128 41.6317 6.864C41.8877 6.592 42.1917 6.388 42.5437 6.252C42.9037 6.108 43.3037 6.036 43.7437 6.036C44.3277 6.036 44.8317 6.16 45.2557 6.408C45.6877 6.656 46.0237 7.008 46.2637 7.464C46.5037 7.912 46.6237 8.448 46.6237 9.072C46.6237 9.536 46.5557 9.956 46.4197 10.332C46.2837 10.708 46.0877 11.028 45.8317 11.292C45.5837 11.556 45.2797 11.76 44.9197 11.904C44.5677 12.04 44.1757 12.108 43.7437 12.108ZM43.7437 11.172C44.0717 11.172 44.3597 11.092 44.6077 10.932C44.8557 10.772 45.0477 10.536 45.1837 10.224C45.3277 9.912 45.3997 9.528 45.3997 9.072C45.3997 8.384 45.2477 7.864 44.9437 7.512C44.6397 7.16 44.2397 6.984 43.7437 6.984C43.4077 6.984 43.1157 7.064 42.8677 7.224C42.6197 7.376 42.4237 7.608 42.2797 7.92C42.1437 8.232 42.0757 8.616 42.0757 9.072C42.0757 9.752 42.2277 10.272 42.5317 10.632C42.8357 10.992 43.2397 11.172 43.7437 11.172ZM48.5848 12.084C48.3928 12.084 48.2448 12.032 48.1408 11.928C48.0368 11.816 47.9848 11.664 47.9848 11.472V6.672C47.9848 6.472 48.0368 6.32 48.1408 6.216C48.2448 6.112 48.3888 6.06 48.5728 6.06C48.7648 6.06 48.9088 6.112 49.0048 6.216C49.1088 6.32 49.1608 6.472 49.1608 6.672V7.608L49.0288 7.392C49.2048 6.944 49.4808 6.608 49.8568 6.384C50.2328 6.152 50.6648 6.036 51.1528 6.036C51.6168 6.036 52.0008 6.124 52.3048 6.3C52.6168 6.468 52.8488 6.728 53.0008 7.08C53.1528 7.424 53.2288 7.86 53.2288 8.388V11.472C53.2288 11.664 53.1768 11.816 53.0728 11.928C52.9688 12.032 52.8208 12.084 52.6288 12.084C52.4288 12.084 52.2768 12.032 52.1728 11.928C52.0688 11.816 52.0168 11.664 52.0168 11.472V8.46C52.0168 7.956 51.9168 7.588 51.7168 7.356C51.5248 7.124 51.2208 7.008 50.8048 7.008C50.3168 7.008 49.9248 7.16 49.6288 7.464C49.3408 7.768 49.1968 8.176 49.1968 8.688V11.472C49.1968 11.88 48.9928 12.084 48.5848 12.084ZM58.8309 12C58.6309 12 58.4749 11.944 58.3629 11.832C58.2509 11.72 58.1949 11.564 58.1949 11.364V4.128C58.1949 3.92 58.2469 3.764 58.3509 3.66C58.4629 3.548 58.6189 3.492 58.8189 3.492C59.0189 3.492 59.1709 3.548 59.2749 3.66C59.3869 3.764 59.4429 3.92 59.4429 4.128V10.932H63.1629C63.3389 10.932 63.4749 10.98 63.5709 11.076C63.6669 11.164 63.7149 11.292 63.7149 11.46C63.7149 11.628 63.6669 11.76 63.5709 11.856C63.4749 11.952 63.3389 12 63.1629 12H58.8309ZM67.3734 12.108C66.7334 12.108 66.1814 11.988 65.7174 11.748C65.2614 11.5 64.9054 11.152 64.6494 10.704C64.4014 10.248 64.2774 9.708 64.2774 9.084C64.2774 8.476 64.4014 7.944 64.6494 7.488C64.8974 7.032 65.2374 6.676 65.6694 6.42C66.1014 6.164 66.5934 6.036 67.1454 6.036C67.5534 6.036 67.9174 6.104 68.2374 6.24C68.5574 6.368 68.8294 6.56 69.0534 6.816C69.2854 7.064 69.4574 7.368 69.5694 7.728C69.6894 8.088 69.7494 8.492 69.7494 8.94C69.7494 9.076 69.7094 9.18 69.6294 9.252C69.5494 9.316 69.4294 9.348 69.2694 9.348H65.2374V8.604H68.9334L68.7294 8.772C68.7294 8.372 68.6694 8.032 68.5494 7.752C68.4374 7.472 68.2654 7.26 68.0334 7.116C67.8094 6.964 67.5294 6.888 67.1934 6.888C66.8174 6.888 66.4974 6.976 66.2334 7.152C65.9774 7.328 65.7814 7.572 65.6454 7.884C65.5094 8.196 65.4414 8.56 65.4414 8.976V9.048C65.4414 9.752 65.6054 10.284 65.9334 10.644C66.2694 10.996 66.7534 11.172 67.3854 11.172C67.6254 11.172 67.8774 11.14 68.1414 11.076C68.4134 11.012 68.6694 10.904 68.9094 10.752C69.0454 10.672 69.1654 10.636 69.2694 10.644C69.3814 10.652 69.4694 10.688 69.5334 10.752C69.6054 10.816 69.6494 10.896 69.6654 10.992C69.6814 11.088 69.6654 11.188 69.6174 11.292C69.5694 11.388 69.4854 11.476 69.3654 11.556C69.0934 11.74 68.7774 11.88 68.4174 11.976C68.0574 12.064 67.7094 12.108 67.3734 12.108ZM73.2567 12.084C73.0887 12.084 72.9407 12.04 72.8127 11.952C72.6927 11.864 72.5927 11.728 72.5127 11.544L70.5087 6.888C70.4447 6.744 70.4207 6.608 70.4367 6.48C70.4527 6.352 70.5127 6.252 70.6167 6.18C70.7207 6.1 70.8607 6.06 71.0367 6.06C71.1887 6.06 71.3087 6.096 71.3967 6.168C71.4847 6.24 71.5647 6.364 71.6367 6.54L73.4487 11.004H73.1127L74.9607 6.54C75.0327 6.364 75.1127 6.24 75.2007 6.168C75.2967 6.096 75.4287 6.06 75.5967 6.06C75.7407 6.06 75.8527 6.1 75.9327 6.18C76.0207 6.252 76.0727 6.352 76.0887 6.48C76.1127 6.6 76.0927 6.732 76.0287 6.876L74.0007 11.544C73.9287 11.728 73.8287 11.864 73.7007 11.952C73.5727 12.04 73.4247 12.084 73.2567 12.084ZM79.8656 12.108C79.2256 12.108 78.6736 11.988 78.2096 11.748C77.7536 11.5 77.3976 11.152 77.1416 10.704C76.8936 10.248 76.7696 9.708 76.7696 9.084C76.7696 8.476 76.8936 7.944 77.1416 7.488C77.3896 7.032 77.7296 6.676 78.1616 6.42C78.5936 6.164 79.0856 6.036 79.6376 6.036C80.0456 6.036 80.4096 6.104 80.7296 6.24C81.0496 6.368 81.3216 6.56 81.5456 6.816C81.7776 7.064 81.9496 7.368 82.0616 7.728C82.1816 8.088 82.2416 8.492 82.2416 8.94C82.2416 9.076 82.2016 9.18 82.1216 9.252C82.0416 9.316 81.9216 9.348 81.7616 9.348H77.7296V8.604H81.4256L81.2216 8.772C81.2216 8.372 81.1616 8.032 81.0416 7.752C80.9296 7.472 80.7576 7.26 80.5256 7.116C80.3016 6.964 80.0216 6.888 79.6856 6.888C79.3096 6.888 78.9896 6.976 78.7256 7.152C78.4696 7.328 78.2736 7.572 78.1376 7.884C78.0016 8.196 77.9336 8.56 77.9336 8.976V9.048C77.9336 9.752 78.0976 10.284 78.4256 10.644C78.7616 10.996 79.2456 11.172 79.8776 11.172C80.1176 11.172 80.3696 11.14 80.6336 11.076C80.9056 11.012 81.1616 10.904 81.4016 10.752C81.5376 10.672 81.6576 10.636 81.7616 10.644C81.8736 10.652 81.9616 10.688 82.0256 10.752C82.0976 10.816 82.1416 10.896 82.1576 10.992C82.1736 11.088 82.1576 11.188 82.1096 11.292C82.0616 11.388 81.9776 11.476 81.8576 11.556C81.5856 11.74 81.2696 11.88 80.9096 11.976C80.5496 12.064 80.2016 12.108 79.8656 12.108ZM85.4469 12.108C84.8229 12.108 84.3509 11.928 84.0309 11.568C83.7189 11.2 83.5629 10.672 83.5629 9.984V4.068C83.5629 3.868 83.6149 3.716 83.7189 3.612C83.8229 3.508 83.9709 3.456 84.1629 3.456C84.3549 3.456 84.5029 3.508 84.6069 3.612C84.7189 3.716 84.7749 3.868 84.7749 4.068V9.912C84.7749 10.312 84.8549 10.612 85.0149 10.812C85.1829 11.004 85.4229 11.1 85.7349 11.1C85.8069 11.1 85.8709 11.1 85.9269 11.1C85.9829 11.092 86.0389 11.084 86.0949 11.076C86.1909 11.068 86.2589 11.096 86.2989 11.16C86.3389 11.216 86.3589 11.336 86.3589 11.52C86.3589 11.688 86.3229 11.82 86.2509 11.916C86.1789 12.004 86.0629 12.06 85.9029 12.084C85.8309 12.092 85.7549 12.096 85.6749 12.096C85.5949 12.104 85.5189 12.108 85.4469 12.108Z" fill="#64728C"/>
</svg>
