<svg width="310" height="75" viewBox="0 0 310 75" fill="none" xmlns="http://www.w3.org/2000/svg">
<g filter="url(#filter0_d_552_3489)">
<rect x="5" y="21" width="300" height="45" rx="12" fill="white" shape-rendering="crispEdges"/>
<rect x="5.5" y="21.5" width="299" height="44" rx="11.5" stroke="#057FF0" shape-rendering="crispEdges"/>
<path d="M15.864 47.584C15.736 47.584 15.632 47.556 15.552 47.5C15.48 47.436 15.436 47.356 15.42 47.26C15.412 47.156 15.436 47.04 15.492 46.912L18.792 39.4C18.864 39.24 18.948 39.128 19.044 39.064C19.148 38.992 19.26 38.956 19.38 38.956C19.5 38.956 19.608 38.992 19.704 39.064C19.808 39.128 19.892 39.24 19.956 39.4L23.268 46.912C23.332 47.04 23.356 47.156 23.34 47.26C23.332 47.364 23.292 47.444 23.22 47.5C23.148 47.556 23.048 47.584 22.92 47.584C22.776 47.584 22.66 47.548 22.572 47.476C22.484 47.396 22.412 47.284 22.356 47.14L21.468 45.088L21.948 45.34H16.788L17.28 45.088L16.404 47.14C16.332 47.292 16.256 47.404 16.176 47.476C16.096 47.548 15.992 47.584 15.864 47.584ZM19.368 40.192L17.436 44.74L17.148 44.512H21.588L21.324 44.74L19.392 40.192H19.368ZM26.7182 47.608C26.2462 47.608 25.8542 47.524 25.5422 47.356C25.2382 47.18 25.0062 46.92 24.8462 46.576C24.6942 46.232 24.6182 45.804 24.6182 45.292V42.076C24.6182 41.908 24.6582 41.784 24.7382 41.704C24.8262 41.624 24.9462 41.584 25.0982 41.584C25.2582 41.584 25.3782 41.624 25.4582 41.704C25.5462 41.784 25.5902 41.908 25.5902 42.076V45.28C25.5902 45.792 25.6942 46.176 25.9022 46.432C26.1182 46.68 26.4542 46.804 26.9102 46.804C27.4062 46.804 27.8102 46.636 28.1222 46.3C28.4342 45.964 28.5902 45.524 28.5902 44.98V42.076C28.5902 41.908 28.6302 41.784 28.7102 41.704C28.7982 41.624 28.9222 41.584 29.0822 41.584C29.2342 41.584 29.3502 41.624 29.4302 41.704C29.5182 41.784 29.5622 41.908 29.5622 42.076V47.08C29.5622 47.416 29.4062 47.584 29.0942 47.584C28.9422 47.584 28.8222 47.54 28.7342 47.452C28.6542 47.364 28.6142 47.24 28.6142 47.08V45.988L28.7702 46.156C28.6102 46.628 28.3462 46.988 27.9782 47.236C27.6182 47.484 27.1982 47.608 26.7182 47.608ZM33.7208 47.608C33.2648 47.608 32.8808 47.528 32.5688 47.368C32.2648 47.2 32.0368 46.96 31.8848 46.648C31.7328 46.328 31.6568 45.94 31.6568 45.484V42.424H30.8528C30.7168 42.424 30.6128 42.392 30.5408 42.328C30.4688 42.256 30.4327 42.16 30.4327 42.04C30.4327 41.92 30.4688 41.828 30.5408 41.764C30.6128 41.7 30.7168 41.668 30.8528 41.668H31.6568V40.288C31.6568 40.128 31.7008 40.008 31.7888 39.928C31.8768 39.84 31.9968 39.796 32.1488 39.796C32.3008 39.796 32.4168 39.84 32.4968 39.928C32.5848 40.008 32.6288 40.128 32.6288 40.288V41.668H34.1408C34.2768 41.668 34.3808 41.7 34.4528 41.764C34.5248 41.828 34.5608 41.92 34.5608 42.04C34.5608 42.16 34.5248 42.256 34.4528 42.328C34.3808 42.392 34.2768 42.424 34.1408 42.424H32.6288V45.388C32.6288 45.844 32.7248 46.192 32.9168 46.432C33.1088 46.664 33.4208 46.78 33.8528 46.78C34.0048 46.78 34.1328 46.764 34.2368 46.732C34.3488 46.7 34.4408 46.684 34.5128 46.684C34.5848 46.676 34.6448 46.7 34.6928 46.756C34.7408 46.812 34.7648 46.908 34.7648 47.044C34.7648 47.14 34.7448 47.228 34.7048 47.308C34.6728 47.388 34.6128 47.444 34.5248 47.476C34.4288 47.508 34.3008 47.536 34.1408 47.56C33.9888 47.592 33.8488 47.608 33.7208 47.608ZM37.9415 47.608C37.3735 47.608 36.8815 47.484 36.4655 47.236C36.0495 46.988 35.7255 46.64 35.4935 46.192C35.2695 45.736 35.1575 45.2 35.1575 44.584C35.1575 44.12 35.2215 43.704 35.3495 43.336C35.4775 42.96 35.6655 42.64 35.9135 42.376C36.1615 42.112 36.4535 41.912 36.7895 41.776C37.1335 41.632 37.5175 41.56 37.9415 41.56C38.5095 41.56 39.0015 41.684 39.4175 41.932C39.8335 42.18 40.1535 42.532 40.3775 42.988C40.6095 43.436 40.7255 43.968 40.7255 44.584C40.7255 45.048 40.6615 45.464 40.5335 45.832C40.4055 46.2 40.2175 46.52 39.9695 46.792C39.7215 47.056 39.4255 47.26 39.0815 47.404C38.7455 47.54 38.3655 47.608 37.9415 47.608ZM37.9415 46.828C38.3015 46.828 38.6175 46.74 38.8895 46.564C39.1615 46.388 39.3695 46.132 39.5135 45.796C39.6655 45.46 39.7415 45.056 39.7415 44.584C39.7415 43.856 39.5775 43.3 39.2495 42.916C38.9295 42.532 38.4935 42.34 37.9415 42.34C37.5735 42.34 37.2535 42.428 36.9815 42.604C36.7175 42.772 36.5095 43.024 36.3575 43.36C36.2135 43.688 36.1415 44.096 36.1415 44.584C36.1415 45.304 36.3055 45.86 36.6335 46.252C36.9615 46.636 37.3975 46.828 37.9415 46.828ZM48.1472 47.608C47.7712 47.608 47.4032 47.576 47.0432 47.512C46.6832 47.448 46.3472 47.356 46.0352 47.236C45.7312 47.116 45.4552 46.964 45.2072 46.78C45.1112 46.708 45.0432 46.628 45.0032 46.54C44.9712 46.444 44.9632 46.352 44.9792 46.264C45.0032 46.168 45.0432 46.088 45.0992 46.024C45.1632 45.96 45.2392 45.924 45.3272 45.916C45.4152 45.908 45.5112 45.936 45.6152 46C45.9752 46.256 46.3592 46.444 46.7672 46.564C47.1752 46.676 47.6352 46.732 48.1472 46.732C48.8672 46.732 49.3992 46.6 49.7432 46.336C50.0952 46.064 50.2712 45.708 50.2712 45.268C50.2712 44.908 50.1432 44.628 49.8872 44.428C49.6392 44.22 49.2192 44.056 48.6272 43.936L47.3792 43.684C46.6272 43.524 46.0632 43.264 45.6872 42.904C45.3192 42.536 45.1352 42.048 45.1352 41.44C45.1352 41.064 45.2112 40.724 45.3632 40.42C45.5152 40.108 45.7272 39.844 45.9992 39.628C46.2712 39.404 46.5952 39.232 46.9712 39.112C47.3472 38.992 47.7632 38.932 48.2192 38.932C48.7232 38.932 49.1912 39.004 49.6232 39.148C50.0632 39.284 50.4592 39.492 50.8112 39.772C50.8992 39.844 50.9592 39.928 50.9912 40.024C51.0232 40.112 51.0272 40.2 51.0032 40.288C50.9792 40.368 50.9352 40.436 50.8712 40.492C50.8152 40.548 50.7392 40.58 50.6432 40.588C50.5552 40.596 50.4552 40.564 50.3432 40.492C50.0232 40.252 49.6912 40.08 49.3472 39.976C49.0032 39.864 48.6232 39.808 48.2072 39.808C47.7832 39.808 47.4152 39.872 47.1032 40C46.7992 40.128 46.5592 40.316 46.3832 40.564C46.2152 40.804 46.1312 41.084 46.1312 41.404C46.1312 41.788 46.2472 42.092 46.4792 42.316C46.7192 42.54 47.1072 42.704 47.6432 42.808L48.8912 43.072C49.6992 43.24 50.2952 43.496 50.6792 43.84C51.0712 44.176 51.2672 44.636 51.2672 45.22C51.2672 45.572 51.1952 45.896 51.0512 46.192C50.9072 46.488 50.6992 46.744 50.4272 46.96C50.1552 47.168 49.8272 47.328 49.4432 47.44C49.0592 47.552 48.6272 47.608 48.1472 47.608ZM55.29 47.608C54.674 47.608 54.142 47.488 53.694 47.248C53.254 47 52.91 46.652 52.662 46.204C52.422 45.756 52.302 45.22 52.302 44.596C52.302 43.988 52.422 43.46 52.662 43.012C52.902 42.556 53.23 42.2 53.646 41.944C54.07 41.688 54.558 41.56 55.11 41.56C55.502 41.56 55.854 41.628 56.166 41.764C56.478 41.892 56.742 42.08 56.958 42.328C57.182 42.576 57.35 42.876 57.462 43.228C57.582 43.58 57.642 43.976 57.642 44.416C57.642 44.544 57.606 44.64 57.534 44.704C57.462 44.76 57.358 44.788 57.222 44.788H53.046V44.152H56.994L56.802 44.308C56.802 43.876 56.738 43.512 56.61 43.216C56.482 42.912 56.294 42.68 56.046 42.52C55.806 42.36 55.502 42.28 55.134 42.28C54.726 42.28 54.378 42.376 54.09 42.568C53.81 42.752 53.598 43.012 53.454 43.348C53.31 43.676 53.238 44.06 53.238 44.5V44.572C53.238 45.308 53.414 45.868 53.766 46.252C54.126 46.636 54.634 46.828 55.29 46.828C55.562 46.828 55.83 46.792 56.094 46.72C56.366 46.648 56.63 46.528 56.886 46.36C56.998 46.288 57.098 46.256 57.186 46.264C57.282 46.264 57.358 46.292 57.414 46.348C57.47 46.396 57.506 46.46 57.522 46.54C57.546 46.612 57.538 46.692 57.498 46.78C57.466 46.868 57.398 46.944 57.294 47.008C57.03 47.2 56.718 47.348 56.358 47.452C55.998 47.556 55.642 47.608 55.29 47.608ZM60.8247 47.608C60.2487 47.608 59.8087 47.432 59.5047 47.08C59.2007 46.728 59.0487 46.224 59.0487 45.568V39.448C59.0487 39.288 59.0887 39.168 59.1687 39.088C59.2487 39 59.3687 38.956 59.5287 38.956C59.6807 38.956 59.8007 39 59.8887 39.088C59.9767 39.168 60.0207 39.288 60.0207 39.448V45.496C60.0207 45.928 60.1047 46.252 60.2727 46.468C60.4487 46.676 60.7047 46.78 61.0407 46.78C61.1127 46.78 61.1767 46.776 61.2327 46.768C61.2887 46.76 61.3447 46.756 61.4007 46.756C61.4887 46.748 61.5487 46.768 61.5807 46.816C61.6207 46.864 61.6407 46.96 61.6407 47.104C61.6407 47.248 61.6087 47.356 61.5447 47.428C61.4807 47.5 61.3767 47.548 61.2327 47.572C61.1687 47.58 61.1007 47.588 61.0287 47.596C60.9567 47.604 60.8887 47.608 60.8247 47.608ZM65.1689 47.608C64.5529 47.608 64.0209 47.488 63.5729 47.248C63.1329 47 62.7889 46.652 62.5409 46.204C62.3009 45.756 62.1809 45.22 62.1809 44.596C62.1809 43.988 62.3009 43.46 62.5409 43.012C62.7809 42.556 63.1089 42.2 63.5249 41.944C63.9489 41.688 64.4369 41.56 64.9889 41.56C65.3809 41.56 65.7329 41.628 66.0449 41.764C66.3569 41.892 66.6209 42.08 66.8369 42.328C67.0609 42.576 67.2289 42.876 67.3409 43.228C67.4609 43.58 67.5209 43.976 67.5209 44.416C67.5209 44.544 67.4849 44.64 67.4129 44.704C67.3409 44.76 67.2369 44.788 67.1009 44.788H62.9249V44.152H66.8729L66.6809 44.308C66.6809 43.876 66.6169 43.512 66.4889 43.216C66.3609 42.912 66.1729 42.68 65.9249 42.52C65.6849 42.36 65.3809 42.28 65.0129 42.28C64.6049 42.28 64.2569 42.376 63.9689 42.568C63.6889 42.752 63.4769 43.012 63.3329 43.348C63.1889 43.676 63.1169 44.06 63.1169 44.5V44.572C63.1169 45.308 63.2929 45.868 63.6449 46.252C64.0049 46.636 64.5129 46.828 65.1689 46.828C65.4409 46.828 65.7089 46.792 65.9729 46.72C66.2449 46.648 66.5089 46.528 66.7649 46.36C66.8769 46.288 66.9769 46.256 67.0649 46.264C67.1609 46.264 67.2369 46.292 67.2929 46.348C67.3489 46.396 67.3849 46.46 67.4009 46.54C67.4249 46.612 67.4169 46.692 67.3769 46.78C67.3449 46.868 67.2769 46.944 67.1729 47.008C66.9089 47.2 66.5969 47.348 66.2369 47.452C65.8769 47.556 65.5209 47.608 65.1689 47.608ZM71.3996 47.608C70.8156 47.608 70.3116 47.48 69.8876 47.224C69.4636 46.968 69.1356 46.612 68.9036 46.156C68.6796 45.692 68.5676 45.156 68.5676 44.548C68.5676 44.084 68.6316 43.668 68.7596 43.3C68.8876 42.932 69.0756 42.62 69.3236 42.364C69.5716 42.1 69.8676 41.9 70.2116 41.764C70.5636 41.628 70.9596 41.56 71.3996 41.56C71.6876 41.56 71.9876 41.604 72.2996 41.692C72.6116 41.78 72.8956 41.932 73.1516 42.148C73.2316 42.204 73.2836 42.272 73.3076 42.352C73.3316 42.432 73.3316 42.512 73.3076 42.592C73.2836 42.664 73.2436 42.728 73.1876 42.784C73.1316 42.832 73.0596 42.86 72.9716 42.868C72.8916 42.876 72.8076 42.848 72.7196 42.784C72.5116 42.624 72.2996 42.512 72.0836 42.448C71.8676 42.384 71.6596 42.352 71.4596 42.352C71.1476 42.352 70.8756 42.404 70.6436 42.508C70.4116 42.604 70.2156 42.744 70.0556 42.928C69.8956 43.112 69.7716 43.34 69.6836 43.612C69.6036 43.884 69.5636 44.2 69.5636 44.56C69.5636 45.256 69.7276 45.808 70.0556 46.216C70.3836 46.616 70.8516 46.816 71.4596 46.816C71.6596 46.816 71.8636 46.784 72.0716 46.72C72.2876 46.656 72.5036 46.544 72.7196 46.384C72.8076 46.32 72.8916 46.292 72.9716 46.3C73.0516 46.308 73.1196 46.34 73.1756 46.396C73.2316 46.444 73.2676 46.508 73.2836 46.588C73.3076 46.668 73.3076 46.748 73.2836 46.828C73.2596 46.9 73.2076 46.964 73.1276 47.02C72.8716 47.228 72.5916 47.38 72.2876 47.476C71.9836 47.564 71.6876 47.608 71.3996 47.608ZM76.8223 47.608C76.3663 47.608 75.9823 47.528 75.6703 47.368C75.3663 47.2 75.1383 46.96 74.9863 46.648C74.8343 46.328 74.7583 45.94 74.7583 45.484V42.424H73.9543C73.8183 42.424 73.7143 42.392 73.6423 42.328C73.5703 42.256 73.5343 42.16 73.5343 42.04C73.5343 41.92 73.5703 41.828 73.6423 41.764C73.7143 41.7 73.8183 41.668 73.9543 41.668H74.7583V40.288C74.7583 40.128 74.8023 40.008 74.8903 39.928C74.9783 39.84 75.0983 39.796 75.2503 39.796C75.4023 39.796 75.5183 39.84 75.5983 39.928C75.6863 40.008 75.7303 40.128 75.7303 40.288V41.668H77.2423C77.3783 41.668 77.4823 41.7 77.5543 41.764C77.6263 41.828 77.6623 41.92 77.6623 42.04C77.6623 42.16 77.6263 42.256 77.5543 42.328C77.4823 42.392 77.3783 42.424 77.2423 42.424H75.7303V45.388C75.7303 45.844 75.8263 46.192 76.0183 46.432C76.2103 46.664 76.5223 46.78 76.9543 46.78C77.1063 46.78 77.2343 46.764 77.3383 46.732C77.4503 46.7 77.5423 46.684 77.6143 46.684C77.6863 46.676 77.7463 46.7 77.7943 46.756C77.8423 46.812 77.8663 46.908 77.8663 47.044C77.8663 47.14 77.8463 47.228 77.8063 47.308C77.7743 47.388 77.7143 47.444 77.6263 47.476C77.5303 47.508 77.4023 47.536 77.2423 47.56C77.0903 47.592 76.9503 47.608 76.8223 47.608ZM81.247 47.608C80.631 47.608 80.099 47.488 79.651 47.248C79.211 47 78.867 46.652 78.619 46.204C78.379 45.756 78.259 45.22 78.259 44.596C78.259 43.988 78.379 43.46 78.619 43.012C78.859 42.556 79.187 42.2 79.603 41.944C80.027 41.688 80.515 41.56 81.067 41.56C81.459 41.56 81.811 41.628 82.123 41.764C82.435 41.892 82.699 42.08 82.915 42.328C83.139 42.576 83.307 42.876 83.419 43.228C83.539 43.58 83.599 43.976 83.599 44.416C83.599 44.544 83.563 44.64 83.491 44.704C83.419 44.76 83.315 44.788 83.179 44.788H79.003V44.152H82.951L82.759 44.308C82.759 43.876 82.695 43.512 82.567 43.216C82.439 42.912 82.251 42.68 82.003 42.52C81.763 42.36 81.459 42.28 81.091 42.28C80.683 42.28 80.335 42.376 80.047 42.568C79.767 42.752 79.555 43.012 79.411 43.348C79.267 43.676 79.195 44.06 79.195 44.5V44.572C79.195 45.308 79.371 45.868 79.723 46.252C80.083 46.636 80.591 46.828 81.247 46.828C81.519 46.828 81.787 46.792 82.051 46.72C82.323 46.648 82.587 46.528 82.843 46.36C82.955 46.288 83.055 46.256 83.143 46.264C83.239 46.264 83.315 46.292 83.371 46.348C83.427 46.396 83.463 46.46 83.479 46.54C83.503 46.612 83.495 46.692 83.455 46.78C83.423 46.868 83.355 46.944 83.251 47.008C82.987 47.2 82.675 47.348 82.315 47.452C81.955 47.556 81.599 47.608 81.247 47.608ZM87.2258 47.608C86.7058 47.608 86.2498 47.484 85.8577 47.236C85.4738 46.988 85.1738 46.64 84.9578 46.192C84.7498 45.736 84.6458 45.2 84.6458 44.584C84.6458 43.96 84.7498 43.424 84.9578 42.976C85.1738 42.52 85.4738 42.172 85.8577 41.932C86.2498 41.684 86.7058 41.56 87.2258 41.56C87.7538 41.56 88.2058 41.692 88.5818 41.956C88.9578 42.22 89.2098 42.576 89.3378 43.024H89.2058V39.448C89.2058 39.288 89.2458 39.168 89.3258 39.088C89.4138 39 89.5378 38.956 89.6978 38.956C89.8498 38.956 89.9658 39 90.0458 39.088C90.1338 39.168 90.1778 39.288 90.1778 39.448V47.08C90.1778 47.24 90.1378 47.364 90.0578 47.452C89.9778 47.54 89.8578 47.584 89.6978 47.584C89.5458 47.584 89.4258 47.54 89.3378 47.452C89.2578 47.364 89.2178 47.24 89.2178 47.08V45.94L89.3498 46.108C89.2218 46.564 88.9658 46.928 88.5818 47.2C88.2058 47.472 87.7538 47.608 87.2258 47.608ZM87.4298 46.828C87.7898 46.828 88.1058 46.74 88.3778 46.564C88.6498 46.388 88.8578 46.132 89.0018 45.796C89.1538 45.46 89.2298 45.056 89.2298 44.584C89.2298 43.856 89.0658 43.3 88.7378 42.916C88.4178 42.532 87.9818 42.34 87.4298 42.34C87.0618 42.34 86.7418 42.428 86.4698 42.604C86.2058 42.772 85.9978 43.024 85.8458 43.36C85.7018 43.688 85.6298 44.096 85.6298 44.584C85.6298 45.304 85.7938 45.86 86.1218 46.252C86.4498 46.636 86.8858 46.828 87.4298 46.828Z" fill="#64728C"/>
<rect x="265" y="25.5" width="36" height="36" rx="12" fill="#057FF0" fill-opacity="0.12"/>
<path d="M284.039 48.2C283.577 49 282.423 49 281.961 48.2L278.843 42.8C278.381 42 278.959 41 279.882 41L286.118 41C287.041 41 287.619 42 287.157 42.8L284.039 48.2Z" fill="#057FF0"/>
</g>
<path d="M6.656 12C6.44 12 6.272 11.944 6.152 11.832C6.04 11.712 5.984 11.544 5.984 11.328V4.212C5.984 3.996 6.04 3.832 6.152 3.72C6.272 3.6 6.44 3.54 6.656 3.54H8.972C10.364 3.54 11.436 3.904 12.188 4.632C12.948 5.352 13.328 6.396 13.328 7.764C13.328 8.444 13.232 9.048 13.04 9.576C12.848 10.104 12.564 10.548 12.188 10.908C11.82 11.26 11.368 11.532 10.832 11.724C10.296 11.908 9.676 12 8.972 12H6.656ZM7.232 10.956H8.9C9.428 10.956 9.884 10.892 10.268 10.764C10.66 10.628 10.988 10.428 11.252 10.164C11.516 9.9 11.712 9.568 11.84 9.168C11.968 8.768 12.032 8.3 12.032 7.764C12.032 6.7 11.768 5.904 11.24 5.376C10.72 4.848 9.94 4.584 8.9 4.584H7.232V10.956ZM15.4757 12.084C15.2757 12.084 15.1237 12.032 15.0197 11.928C14.9157 11.816 14.8637 11.664 14.8637 11.472V6.672C14.8637 6.472 14.9157 6.32 15.0197 6.216C15.1237 6.112 15.2677 6.06 15.4517 6.06C15.6437 6.06 15.7877 6.112 15.8837 6.216C15.9877 6.32 16.0397 6.472 16.0397 6.672V7.548H15.9197C16.0477 7.068 16.2837 6.704 16.6277 6.456C16.9717 6.208 17.4117 6.064 17.9477 6.024C18.0917 6.016 18.2037 6.052 18.2837 6.132C18.3717 6.212 18.4197 6.336 18.4277 6.504C18.4437 6.672 18.4077 6.808 18.3197 6.912C18.2317 7.008 18.0957 7.064 17.9117 7.08L17.6837 7.104C17.1637 7.152 16.7677 7.316 16.4957 7.596C16.2237 7.876 16.0877 8.26 16.0877 8.748V11.472C16.0877 11.664 16.0357 11.816 15.9317 11.928C15.8357 12.032 15.6837 12.084 15.4757 12.084ZM21.8023 12.108C21.2103 12.108 20.6983 11.984 20.2663 11.736C19.8423 11.488 19.5103 11.136 19.2703 10.68C19.0303 10.224 18.9103 9.688 18.9103 9.072C18.9103 8.6 18.9783 8.18 19.1143 7.812C19.2503 7.444 19.4423 7.128 19.6903 6.864C19.9463 6.592 20.2503 6.388 20.6023 6.252C20.9623 6.108 21.3623 6.036 21.8023 6.036C22.3863 6.036 22.8903 6.16 23.3143 6.408C23.7463 6.656 24.0823 7.008 24.3223 7.464C24.5623 7.912 24.6823 8.448 24.6823 9.072C24.6823 9.536 24.6143 9.956 24.4783 10.332C24.3423 10.708 24.1463 11.028 23.8903 11.292C23.6423 11.556 23.3383 11.76 22.9783 11.904C22.6263 12.04 22.2343 12.108 21.8023 12.108ZM21.8023 11.172C22.1303 11.172 22.4183 11.092 22.6663 10.932C22.9143 10.772 23.1063 10.536 23.2423 10.224C23.3863 9.912 23.4583 9.528 23.4583 9.072C23.4583 8.384 23.3063 7.864 23.0023 7.512C22.6983 7.16 22.2983 6.984 21.8023 6.984C21.4663 6.984 21.1743 7.064 20.9263 7.224C20.6783 7.376 20.4823 7.608 20.3383 7.92C20.2023 8.232 20.1343 8.616 20.1343 9.072C20.1343 9.752 20.2863 10.272 20.5903 10.632C20.8943 10.992 21.2983 11.172 21.8023 11.172ZM26.6434 14.244C26.4514 14.244 26.3034 14.192 26.1994 14.088C26.0954 13.984 26.0434 13.832 26.0434 13.632V6.672C26.0434 6.472 26.0954 6.32 26.1994 6.216C26.3034 6.112 26.4474 6.06 26.6314 6.06C26.8234 6.06 26.9714 6.112 27.0754 6.216C27.1794 6.32 27.2314 6.472 27.2314 6.672V7.716L27.0994 7.464C27.2274 7.032 27.4794 6.688 27.8554 6.432C28.2314 6.168 28.6754 6.036 29.1874 6.036C29.7074 6.036 30.1594 6.16 30.5434 6.408C30.9354 6.656 31.2354 7.004 31.4434 7.452C31.6594 7.9 31.7674 8.44 31.7674 9.072C31.7674 9.688 31.6594 10.228 31.4434 10.692C31.2354 11.148 30.9394 11.5 30.5554 11.748C30.1714 11.988 29.7154 12.108 29.1874 12.108C28.6834 12.108 28.2434 11.98 27.8674 11.724C27.4914 11.468 27.2394 11.128 27.1114 10.704H27.2554V13.632C27.2554 13.832 27.1994 13.984 27.0874 14.088C26.9834 14.192 26.8354 14.244 26.6434 14.244ZM28.8874 11.172C29.2234 11.172 29.5154 11.092 29.7634 10.932C30.0114 10.772 30.2034 10.536 30.3394 10.224C30.4754 9.912 30.5434 9.528 30.5434 9.072C30.5434 8.384 30.3914 7.864 30.0874 7.512C29.7914 7.16 29.3914 6.984 28.8874 6.984C28.5594 6.984 28.2674 7.064 28.0114 7.224C27.7634 7.376 27.5714 7.608 27.4354 7.92C27.2994 8.232 27.2314 8.616 27.2314 9.072C27.2314 9.752 27.3834 10.272 27.6874 10.632C27.9914 10.992 28.3914 11.172 28.8874 11.172ZM35.3652 12.108C34.8533 12.108 34.4013 11.988 34.0093 11.748C33.6253 11.5 33.3253 11.148 33.1093 10.692C32.8933 10.228 32.7853 9.688 32.7853 9.072C32.7853 8.44 32.8933 7.9 33.1093 7.452C33.3253 7.004 33.6253 6.656 34.0093 6.408C34.4013 6.16 34.8533 6.036 35.3652 6.036C35.8773 6.036 36.3173 6.164 36.6853 6.42C37.0613 6.668 37.3133 7.004 37.4413 7.428H37.3093V4.068C37.3093 3.868 37.3613 3.716 37.4653 3.612C37.5693 3.508 37.7173 3.456 37.9093 3.456C38.1013 3.456 38.2493 3.508 38.3533 3.612C38.4653 3.716 38.5213 3.868 38.5213 4.068V11.472C38.5213 11.664 38.4693 11.816 38.3653 11.928C38.2613 12.032 38.1133 12.084 37.9213 12.084C37.7293 12.084 37.5813 12.032 37.4773 11.928C37.3733 11.816 37.3213 11.664 37.3213 11.472V10.416L37.4533 10.68C37.3253 11.112 37.0733 11.46 36.6973 11.724C36.3293 11.98 35.8853 12.108 35.3652 12.108ZM35.6773 11.172C36.0053 11.172 36.2933 11.092 36.5413 10.932C36.7893 10.772 36.9813 10.536 37.1173 10.224C37.2613 9.912 37.3333 9.528 37.3333 9.072C37.3333 8.384 37.1813 7.864 36.8773 7.512C36.5733 7.16 36.1733 6.984 35.6773 6.984C35.3413 6.984 35.0493 7.064 34.8013 7.224C34.5533 7.376 34.3573 7.608 34.2133 7.92C34.0773 8.232 34.0093 8.616 34.0093 9.072C34.0093 9.752 34.1613 10.272 34.4653 10.632C34.7693 10.992 35.1733 11.172 35.6773 11.172ZM42.7671 12.108C42.1751 12.108 41.6631 11.984 41.2311 11.736C40.8071 11.488 40.4751 11.136 40.2351 10.68C39.9951 10.224 39.8751 9.688 39.8751 9.072C39.8751 8.6 39.9431 8.18 40.0791 7.812C40.2151 7.444 40.4071 7.128 40.6551 6.864C40.9111 6.592 41.2151 6.388 41.5671 6.252C41.9271 6.108 42.3271 6.036 42.7671 6.036C43.3511 6.036 43.8551 6.16 44.2791 6.408C44.7111 6.656 45.0471 7.008 45.2871 7.464C45.5271 7.912 45.6471 8.448 45.6471 9.072C45.6471 9.536 45.5791 9.956 45.4431 10.332C45.3071 10.708 45.1111 11.028 44.8551 11.292C44.6071 11.556 44.3031 11.76 43.9431 11.904C43.5911 12.04 43.1991 12.108 42.7671 12.108ZM42.7671 11.172C43.0951 11.172 43.3831 11.092 43.6311 10.932C43.8791 10.772 44.0711 10.536 44.2071 10.224C44.3511 9.912 44.4231 9.528 44.4231 9.072C44.4231 8.384 44.2711 7.864 43.9671 7.512C43.6631 7.16 43.2631 6.984 42.7671 6.984C42.4311 6.984 42.1391 7.064 41.8911 7.224C41.6431 7.376 41.4471 7.608 41.3031 7.92C41.1671 8.232 41.0991 8.616 41.0991 9.072C41.0991 9.752 41.2511 10.272 41.5551 10.632C41.8591 10.992 42.2631 11.172 42.7671 11.172ZM49.0388 12.084C48.8708 12.084 48.7228 12.044 48.5948 11.964C48.4748 11.876 48.3788 11.74 48.3068 11.556L46.5428 6.888C46.4788 6.728 46.4588 6.588 46.4828 6.468C46.5068 6.34 46.5668 6.24 46.6628 6.168C46.7668 6.096 46.8988 6.06 47.0588 6.06C47.2028 6.06 47.3188 6.096 47.4068 6.168C47.5028 6.232 47.5828 6.36 47.6468 6.552L49.2188 10.98H48.9308L50.5628 6.504C50.6188 6.352 50.6948 6.24 50.7908 6.168C50.8868 6.096 51.0108 6.06 51.1628 6.06C51.3148 6.06 51.4388 6.096 51.5348 6.168C51.6388 6.24 51.7148 6.352 51.7628 6.504L53.3588 10.98H53.0948L54.6908 6.528C54.7548 6.344 54.8348 6.22 54.9308 6.156C55.0348 6.092 55.1508 6.06 55.2788 6.06C55.4388 6.06 55.5588 6.1 55.6388 6.18C55.7268 6.26 55.7748 6.364 55.7828 6.492C55.7988 6.612 55.7788 6.744 55.7228 6.888L53.9588 11.556C53.8868 11.732 53.7868 11.864 53.6588 11.952C53.5388 12.04 53.3988 12.084 53.2388 12.084C53.0708 12.084 52.9228 12.04 52.7948 11.952C52.6748 11.864 52.5788 11.732 52.5068 11.556L50.8268 7.008H51.4268L49.7588 11.556C49.6948 11.732 49.5988 11.864 49.4708 11.952C49.3508 12.04 49.2068 12.084 49.0388 12.084ZM57.6512 12.084C57.4592 12.084 57.3112 12.032 57.2072 11.928C57.1032 11.816 57.0512 11.664 57.0512 11.472V6.672C57.0512 6.472 57.1032 6.32 57.2072 6.216C57.3112 6.112 57.4552 6.06 57.6392 6.06C57.8312 6.06 57.9752 6.112 58.0712 6.216C58.1752 6.32 58.2272 6.472 58.2272 6.672V7.608L58.0952 7.392C58.2712 6.944 58.5472 6.608 58.9232 6.384C59.2992 6.152 59.7312 6.036 60.2192 6.036C60.6832 6.036 61.0672 6.124 61.3712 6.3C61.6832 6.468 61.9152 6.728 62.0672 7.08C62.2192 7.424 62.2952 7.86 62.2952 8.388V11.472C62.2952 11.664 62.2432 11.816 62.1392 11.928C62.0352 12.032 61.8872 12.084 61.6952 12.084C61.4952 12.084 61.3432 12.032 61.2392 11.928C61.1352 11.816 61.0832 11.664 61.0832 11.472V8.46C61.0832 7.956 60.9832 7.588 60.7832 7.356C60.5912 7.124 60.2872 7.008 59.8712 7.008C59.3832 7.008 58.9912 7.16 58.6952 7.464C58.4072 7.768 58.2632 8.176 58.2632 8.688V11.472C58.2632 11.88 58.0592 12.084 57.6512 12.084Z" fill="#64728C"/>
<defs>
<filter id="filter0_d_552_3489" x="0" y="20" width="310" height="55" filterUnits="userSpaceOnUse" color-interpolation-filters="sRGB">
<feFlood flood-opacity="0" result="BackgroundImageFix"/>
<feColorMatrix in="SourceAlpha" type="matrix" values="0 0 0 0 0 0 0 0 0 0 0 0 0 0 0 0 0 0 127 0" result="hardAlpha"/>
<feOffset dy="4"/>
<feGaussianBlur stdDeviation="2.5"/>
<feComposite in2="hardAlpha" operator="out"/>
<feColorMatrix type="matrix" values="0 0 0 0 0.0196078 0 0 0 0 0.498039 0 0 0 0 0.941176 0 0 0 0.15 0"/>
<feBlend mode="normal" in2="BackgroundImageFix" result="effect1_dropShadow_552_3489"/>
<feBlend mode="normal" in="SourceGraphic" in2="effect1_dropShadow_552_3489" result="shape"/>
</filter>
</defs>
</svg>
