<svg width="300" height="66" viewBox="0 0 300 66" fill="none" xmlns="http://www.w3.org/2000/svg">
<rect x="0.5" y="21.5" width="299" height="44" rx="11.5" fill="white"/>
<rect x="0.5" y="21.5" width="299" height="44" rx="11.5" stroke="#FFAA00"/>
<path d="M11.584 47.5C11.408 47.5 11.272 47.456 11.176 47.368C11.088 47.272 11.044 47.136 11.044 46.96V39.58C11.044 39.404 11.088 39.272 11.176 39.184C11.272 39.088 11.408 39.04 11.584 39.04H13.9C15.268 39.04 16.324 39.4 17.068 40.12C17.812 40.84 18.184 41.888 18.184 43.264C18.184 43.952 18.088 44.56 17.896 45.088C17.712 45.608 17.436 46.048 17.068 46.408C16.7 46.768 16.252 47.04 15.724 47.224C15.196 47.408 14.588 47.5 13.9 47.5H11.584ZM12.028 46.66H13.828C14.388 46.66 14.872 46.588 15.28 46.444C15.696 46.3 16.04 46.088 16.312 45.808C16.592 45.528 16.8 45.176 16.936 44.752C17.072 44.32 17.14 43.824 17.14 43.264C17.14 42.136 16.864 41.292 16.312 40.732C15.76 40.164 14.932 39.88 13.828 39.88H12.028V46.66ZM20.3103 47.584C20.1503 47.584 20.0263 47.54 19.9383 47.452C19.8583 47.364 19.8183 47.24 19.8183 47.08V42.076C19.8183 41.916 19.8583 41.796 19.9383 41.716C20.0183 41.628 20.1343 41.584 20.2863 41.584C20.4383 41.584 20.5543 41.628 20.6343 41.716C20.7223 41.796 20.7663 41.916 20.7663 42.076V43.048H20.6463C20.7743 42.576 21.0183 42.212 21.3783 41.956C21.7383 41.7 22.1823 41.564 22.7103 41.548C22.8303 41.54 22.9263 41.568 22.9983 41.632C23.0703 41.688 23.1103 41.788 23.1183 41.932C23.1263 42.068 23.0943 42.176 23.0223 42.256C22.9503 42.336 22.8383 42.384 22.6863 42.4L22.4943 42.424C21.9503 42.472 21.5303 42.648 21.2343 42.952C20.9463 43.248 20.8023 43.656 20.8023 44.176V47.08C20.8023 47.24 20.7583 47.364 20.6702 47.452C20.5903 47.54 20.4703 47.584 20.3103 47.584ZM25.8964 47.608C25.4964 47.608 25.1364 47.532 24.8164 47.38C24.5044 47.22 24.2564 47.004 24.0724 46.732C23.8884 46.46 23.7964 46.156 23.7964 45.82C23.7964 45.388 23.9044 45.048 24.1204 44.8C24.3444 44.552 24.7084 44.376 25.2124 44.272C25.7244 44.168 26.4204 44.116 27.3004 44.116H27.8404V44.752H27.3124C26.6644 44.752 26.1524 44.784 25.7764 44.848C25.4084 44.904 25.1484 45.004 24.9964 45.148C24.8524 45.292 24.7804 45.496 24.7804 45.76C24.7804 46.088 24.8924 46.356 25.1164 46.564C25.3484 46.772 25.6604 46.876 26.0524 46.876C26.3724 46.876 26.6524 46.8 26.8924 46.648C27.1404 46.496 27.3324 46.288 27.4684 46.024C27.6124 45.76 27.6844 45.456 27.6844 45.112V43.744C27.6844 43.248 27.5844 42.892 27.3844 42.676C27.1844 42.452 26.8564 42.34 26.4004 42.34C26.1204 42.34 25.8404 42.376 25.5604 42.448C25.2804 42.52 24.9844 42.636 24.6724 42.796C24.5604 42.852 24.4644 42.872 24.3844 42.856C24.3044 42.832 24.2404 42.788 24.1924 42.724C24.1444 42.66 24.1164 42.588 24.1084 42.508C24.1004 42.42 24.1164 42.336 24.1564 42.256C24.2044 42.176 24.2764 42.112 24.3724 42.064C24.7244 41.888 25.0724 41.76 25.4164 41.68C25.7604 41.6 26.0884 41.56 26.4004 41.56C26.9044 41.56 27.3204 41.644 27.6484 41.812C27.9764 41.972 28.2204 42.22 28.3804 42.556C28.5404 42.884 28.6204 43.308 28.6204 43.828V47.08C28.6204 47.24 28.5804 47.364 28.5004 47.452C28.4284 47.54 28.3204 47.584 28.1764 47.584C28.0244 47.584 27.9084 47.54 27.8284 47.452C27.7484 47.364 27.7084 47.24 27.7084 47.08V46.144H27.8164C27.7524 46.448 27.6284 46.708 27.4444 46.924C27.2684 47.14 27.0484 47.308 26.7844 47.428C26.5204 47.548 26.2244 47.608 25.8964 47.608ZM31.2157 47.584C31.0637 47.584 30.9437 47.54 30.8557 47.452C30.7757 47.364 30.7357 47.24 30.7357 47.08V42.424H29.9677C29.8397 42.424 29.7357 42.392 29.6557 42.328C29.5837 42.256 29.5477 42.16 29.5477 42.04C29.5477 41.92 29.5837 41.828 29.6557 41.764C29.7357 41.7 29.8397 41.668 29.9677 41.668H30.9997L30.7357 41.92V41.464C30.7357 40.704 30.9197 40.124 31.2877 39.724C31.6637 39.324 32.2117 39.092 32.9317 39.028L33.2797 38.992C33.3917 38.984 33.4797 39.004 33.5437 39.052C33.6157 39.1 33.6597 39.16 33.6757 39.232C33.6997 39.304 33.7037 39.38 33.6877 39.46C33.6717 39.532 33.6357 39.596 33.5797 39.652C33.5237 39.708 33.4557 39.74 33.3757 39.748L33.0997 39.772C32.6117 39.812 32.2557 39.96 32.0317 40.216C31.8157 40.472 31.7077 40.848 31.7077 41.344V41.848L31.5637 41.668H33.0037C33.1397 41.668 33.2437 41.7 33.3157 41.764C33.3877 41.828 33.4237 41.92 33.4237 42.04C33.4237 42.16 33.3877 42.256 33.3157 42.328C33.2437 42.392 33.1397 42.424 33.0037 42.424H31.7077V47.08C31.7077 47.416 31.5437 47.584 31.2157 47.584ZM36.4786 47.608C36.0226 47.608 35.6386 47.528 35.3266 47.368C35.0226 47.2 34.7946 46.96 34.6426 46.648C34.4906 46.328 34.4146 45.94 34.4146 45.484V42.424H33.6106C33.4746 42.424 33.3706 42.392 33.2986 42.328C33.2266 42.256 33.1906 42.16 33.1906 42.04C33.1906 41.92 33.2266 41.828 33.2986 41.764C33.3706 41.7 33.4746 41.668 33.6106 41.668H34.4146V40.288C34.4146 40.128 34.4586 40.008 34.5466 39.928C34.6346 39.84 34.7546 39.796 34.9066 39.796C35.0586 39.796 35.1746 39.84 35.2546 39.928C35.3426 40.008 35.3866 40.128 35.3866 40.288V41.668H36.8986C37.0346 41.668 37.1386 41.7 37.2106 41.764C37.2826 41.828 37.3186 41.92 37.3186 42.04C37.3186 42.16 37.2826 42.256 37.2106 42.328C37.1386 42.392 37.0346 42.424 36.8986 42.424H35.3866V45.388C35.3866 45.844 35.4826 46.192 35.6746 46.432C35.8666 46.664 36.1786 46.78 36.6106 46.78C36.7626 46.78 36.8906 46.764 36.9946 46.732C37.1066 46.7 37.1986 46.684 37.2706 46.684C37.3426 46.676 37.4026 46.7 37.4506 46.756C37.4986 46.812 37.5226 46.908 37.5226 47.044C37.5226 47.14 37.5026 47.228 37.4626 47.308C37.4306 47.388 37.3706 47.444 37.2826 47.476C37.1866 47.508 37.0586 47.536 36.8986 47.56C36.7466 47.592 36.6066 47.608 36.4786 47.608ZM45.1116 47.608C44.3276 47.608 43.6436 47.432 43.0596 47.08C42.4836 46.72 42.0356 46.216 41.7156 45.568C41.4036 44.92 41.2476 44.152 41.2476 43.264C41.2476 42.592 41.3356 41.992 41.5116 41.464C41.6956 40.928 41.9556 40.476 42.2916 40.108C42.6276 39.732 43.0316 39.444 43.5036 39.244C43.9836 39.036 44.5196 38.932 45.1116 38.932C45.9116 38.932 46.5996 39.108 47.1756 39.46C47.7596 39.812 48.2076 40.312 48.5196 40.96C48.8396 41.6 48.9996 42.364 48.9996 43.252C48.9996 43.924 48.9076 44.528 48.7236 45.064C48.5396 45.6 48.2796 46.056 47.9436 46.432C47.6076 46.808 47.1996 47.1 46.7196 47.308C46.2476 47.508 45.7116 47.608 45.1116 47.608ZM45.1116 46.732C45.7196 46.732 46.2316 46.596 46.6476 46.324C47.0716 46.052 47.3956 45.656 47.6196 45.136C47.8436 44.616 47.9556 43.992 47.9556 43.264C47.9556 42.168 47.7076 41.32 47.2116 40.72C46.7236 40.112 46.0236 39.808 45.1116 39.808C44.5196 39.808 44.0116 39.944 43.5876 40.216C43.1716 40.488 42.8516 40.884 42.6276 41.404C42.4036 41.916 42.2916 42.536 42.2916 43.264C42.2916 44.352 42.5396 45.204 43.0356 45.82C43.5316 46.428 44.2236 46.732 45.1116 46.732ZM51.1068 49.744C50.9468 49.744 50.8268 49.7 50.7468 49.612C50.6668 49.532 50.6268 49.412 50.6268 49.252V42.076C50.6268 41.916 50.6668 41.796 50.7468 41.716C50.8268 41.628 50.9428 41.584 51.0948 41.584C51.2548 41.584 51.3748 41.628 51.4548 41.716C51.5428 41.796 51.5868 41.916 51.5868 42.076V43.216L51.4548 43.048C51.5828 42.592 51.8348 42.232 52.2108 41.968C52.5948 41.696 53.0508 41.56 53.5788 41.56C54.0988 41.56 54.5508 41.684 54.9348 41.932C55.3268 42.172 55.6268 42.52 55.8348 42.976C56.0508 43.424 56.1588 43.96 56.1588 44.584C56.1588 45.2 56.0508 45.736 55.8348 46.192C55.6268 46.64 55.3308 46.988 54.9468 47.236C54.5628 47.484 54.1068 47.608 53.5788 47.608C53.0508 47.608 52.5988 47.476 52.2228 47.212C51.8468 46.94 51.5908 46.58 51.4548 46.132H51.5988V49.252C51.5988 49.412 51.5548 49.532 51.4668 49.612C51.3788 49.7 51.2588 49.744 51.1068 49.744ZM53.3748 46.828C53.7428 46.828 54.0588 46.74 54.3228 46.564C54.5948 46.388 54.8028 46.132 54.9468 45.796C55.0988 45.46 55.1748 45.056 55.1748 44.584C55.1748 43.856 55.0108 43.3 54.6828 42.916C54.3628 42.532 53.9268 42.34 53.3748 42.34C53.0148 42.34 52.6988 42.428 52.4268 42.604C52.1548 42.772 51.9428 43.024 51.7908 43.36C51.6468 43.688 51.5748 44.096 51.5748 44.584C51.5748 45.304 51.7388 45.86 52.0668 46.252C52.3948 46.636 52.8308 46.828 53.3748 46.828ZM59.9043 47.608C59.4483 47.608 59.0643 47.528 58.7523 47.368C58.4483 47.2 58.2203 46.96 58.0683 46.648C57.9163 46.328 57.8403 45.94 57.8403 45.484V42.424H57.0363C56.9003 42.424 56.7963 42.392 56.7243 42.328C56.6523 42.256 56.6163 42.16 56.6163 42.04C56.6163 41.92 56.6523 41.828 56.7243 41.764C56.7963 41.7 56.9003 41.668 57.0363 41.668H57.8403V40.288C57.8403 40.128 57.8843 40.008 57.9723 39.928C58.0603 39.84 58.1803 39.796 58.3323 39.796C58.4843 39.796 58.6003 39.84 58.6803 39.928C58.7683 40.008 58.8123 40.128 58.8123 40.288V41.668H60.3243C60.4603 41.668 60.5643 41.7 60.6363 41.764C60.7083 41.828 60.7443 41.92 60.7443 42.04C60.7443 42.16 60.7083 42.256 60.6363 42.328C60.5643 42.392 60.4603 42.424 60.3243 42.424H58.8123V45.388C58.8123 45.844 58.9083 46.192 59.1003 46.432C59.2923 46.664 59.6043 46.78 60.0363 46.78C60.1883 46.78 60.3163 46.764 60.4203 46.732C60.5323 46.7 60.6243 46.684 60.6963 46.684C60.7683 46.676 60.8283 46.7 60.8763 46.756C60.9243 46.812 60.9483 46.908 60.9483 47.044C60.9483 47.14 60.9283 47.228 60.8883 47.308C60.8563 47.388 60.7963 47.444 60.7083 47.476C60.6123 47.508 60.4843 47.536 60.3243 47.56C60.1723 47.592 60.0323 47.608 59.9043 47.608ZM62.31 47.56C62.15 47.56 62.03 47.516 61.95 47.428C61.87 47.332 61.83 47.2 61.83 47.032V42.124C61.83 41.956 61.87 41.828 61.95 41.74C62.03 41.652 62.15 41.608 62.31 41.608C62.462 41.608 62.582 41.652 62.67 41.74C62.758 41.828 62.802 41.956 62.802 42.124V47.032C62.802 47.2 62.758 47.332 62.67 47.428C62.59 47.516 62.47 47.56 62.31 47.56ZM62.31 40.264C62.11 40.264 61.954 40.212 61.842 40.108C61.73 39.996 61.674 39.848 61.674 39.664C61.674 39.472 61.73 39.328 61.842 39.232C61.954 39.128 62.11 39.076 62.31 39.076C62.518 39.076 62.674 39.128 62.778 39.232C62.89 39.328 62.946 39.472 62.946 39.664C62.946 39.848 62.89 39.996 62.778 40.108C62.674 40.212 62.518 40.264 62.31 40.264ZM67.043 47.608C66.475 47.608 65.983 47.484 65.567 47.236C65.151 46.988 64.827 46.64 64.595 46.192C64.371 45.736 64.259 45.2 64.259 44.584C64.259 44.12 64.323 43.704 64.451 43.336C64.579 42.96 64.767 42.64 65.015 42.376C65.263 42.112 65.555 41.912 65.891 41.776C66.235 41.632 66.619 41.56 67.043 41.56C67.611 41.56 68.103 41.684 68.519 41.932C68.935 42.18 69.255 42.532 69.479 42.988C69.711 43.436 69.827 43.968 69.827 44.584C69.827 45.048 69.763 45.464 69.635 45.832C69.507 46.2 69.319 46.52 69.071 46.792C68.823 47.056 68.527 47.26 68.183 47.404C67.847 47.54 67.467 47.608 67.043 47.608ZM67.043 46.828C67.403 46.828 67.719 46.74 67.991 46.564C68.263 46.388 68.471 46.132 68.615 45.796C68.767 45.46 68.843 45.056 68.843 44.584C68.843 43.856 68.679 43.3 68.351 42.916C68.031 42.532 67.595 42.34 67.043 42.34C66.675 42.34 66.355 42.428 66.083 42.604C65.819 42.772 65.611 43.024 65.459 43.36C65.315 43.688 65.243 44.096 65.243 44.584C65.243 45.304 65.407 45.86 65.735 46.252C66.063 46.636 66.499 46.828 67.043 46.828ZM71.767 47.584C71.607 47.584 71.487 47.54 71.407 47.452C71.327 47.364 71.287 47.24 71.287 47.08V42.076C71.287 41.916 71.327 41.796 71.407 41.716C71.487 41.628 71.603 41.584 71.755 41.584C71.907 41.584 72.023 41.628 72.103 41.716C72.191 41.796 72.235 41.916 72.235 42.076V43.108L72.103 42.964C72.271 42.5 72.543 42.152 72.919 41.92C73.303 41.68 73.743 41.56 74.239 41.56C74.703 41.56 75.087 41.644 75.391 41.812C75.703 41.98 75.935 42.236 76.087 42.58C76.239 42.916 76.315 43.344 76.315 43.864V47.08C76.315 47.24 76.271 47.364 76.183 47.452C76.103 47.54 75.987 47.584 75.835 47.584C75.675 47.584 75.551 47.54 75.463 47.452C75.383 47.364 75.343 47.24 75.343 47.08V43.924C75.343 43.38 75.235 42.984 75.019 42.736C74.811 42.48 74.475 42.352 74.011 42.352C73.475 42.352 73.047 42.52 72.727 42.856C72.415 43.184 72.259 43.624 72.259 44.176V47.08C72.259 47.416 72.095 47.584 71.767 47.584Z" fill="#64728C"/>
<rect x="260" y="25.5" width="36" height="36" rx="12" fill="#FFAA00" fill-opacity="0.12"/>
<path d="M279.039 48.2C278.577 49 277.423 49 276.961 48.2L273.843 42.8C273.381 42 273.959 41 274.882 41L281.118 41C282.041 41 282.619 42 282.157 42.8L279.039 48.2Z" fill="#FFAA00"/>
<path d="M1.656 12C1.44 12 1.272 11.944 1.152 11.832C1.04 11.712 0.984 11.544 0.984 11.328V4.212C0.984 3.996 1.04 3.832 1.152 3.72C1.272 3.6 1.44 3.54 1.656 3.54H3.972C5.364 3.54 6.436 3.904 7.188 4.632C7.948 5.352 8.328 6.396 8.328 7.764C8.328 8.444 8.232 9.048 8.04 9.576C7.848 10.104 7.564 10.548 7.188 10.908C6.82 11.26 6.368 11.532 5.832 11.724C5.296 11.908 4.676 12 3.972 12H1.656ZM2.232 10.956H3.9C4.428 10.956 4.884 10.892 5.268 10.764C5.66 10.628 5.988 10.428 6.252 10.164C6.516 9.9 6.712 9.568 6.84 9.168C6.968 8.768 7.032 8.3 7.032 7.764C7.032 6.7 6.768 5.904 6.24 5.376C5.72 4.848 4.94 4.584 3.9 4.584H2.232V10.956ZM10.4757 12.084C10.2757 12.084 10.1237 12.032 10.0197 11.928C9.91572 11.816 9.86372 11.664 9.86372 11.472V6.672C9.86372 6.472 9.91572 6.32 10.0197 6.216C10.1237 6.112 10.2677 6.06 10.4517 6.06C10.6437 6.06 10.7877 6.112 10.8837 6.216C10.9877 6.32 11.0397 6.472 11.0397 6.672V7.548H10.9197C11.0477 7.068 11.2837 6.704 11.6277 6.456C11.9717 6.208 12.4117 6.064 12.9477 6.024C13.0917 6.016 13.2037 6.052 13.2837 6.132C13.3717 6.212 13.4197 6.336 13.4277 6.504C13.4437 6.672 13.4077 6.808 13.3197 6.912C13.2317 7.008 13.0957 7.064 12.9117 7.08L12.6837 7.104C12.1637 7.152 11.7677 7.316 11.4957 7.596C11.2237 7.876 11.0877 8.26 11.0877 8.748V11.472C11.0877 11.664 11.0357 11.816 10.9317 11.928C10.8357 12.032 10.6837 12.084 10.4757 12.084ZM16.8023 12.108C16.2103 12.108 15.6983 11.984 15.2663 11.736C14.8423 11.488 14.5103 11.136 14.2703 10.68C14.0303 10.224 13.9103 9.688 13.9103 9.072C13.9103 8.6 13.9783 8.18 14.1143 7.812C14.2503 7.444 14.4423 7.128 14.6903 6.864C14.9463 6.592 15.2503 6.388 15.6023 6.252C15.9623 6.108 16.3623 6.036 16.8023 6.036C17.3863 6.036 17.8903 6.16 18.3143 6.408C18.7463 6.656 19.0823 7.008 19.3223 7.464C19.5623 7.912 19.6823 8.448 19.6823 9.072C19.6823 9.536 19.6143 9.956 19.4783 10.332C19.3423 10.708 19.1463 11.028 18.8903 11.292C18.6423 11.556 18.3383 11.76 17.9783 11.904C17.6263 12.04 17.2343 12.108 16.8023 12.108ZM16.8023 11.172C17.1303 11.172 17.4183 11.092 17.6663 10.932C17.9143 10.772 18.1063 10.536 18.2423 10.224C18.3863 9.912 18.4583 9.528 18.4583 9.072C18.4583 8.384 18.3063 7.864 18.0023 7.512C17.6983 7.16 17.2983 6.984 16.8023 6.984C16.4663 6.984 16.1743 7.064 15.9263 7.224C15.6783 7.376 15.4823 7.608 15.3383 7.92C15.2023 8.232 15.1343 8.616 15.1343 9.072C15.1343 9.752 15.2863 10.272 15.5903 10.632C15.8943 10.992 16.2983 11.172 16.8023 11.172ZM21.6434 14.244C21.4514 14.244 21.3034 14.192 21.1994 14.088C21.0954 13.984 21.0434 13.832 21.0434 13.632V6.672C21.0434 6.472 21.0954 6.32 21.1994 6.216C21.3034 6.112 21.4474 6.06 21.6314 6.06C21.8234 6.06 21.9714 6.112 22.0754 6.216C22.1794 6.32 22.2314 6.472 22.2314 6.672V7.716L22.0994 7.464C22.2274 7.032 22.4794 6.688 22.8554 6.432C23.2314 6.168 23.6754 6.036 24.1874 6.036C24.7074 6.036 25.1594 6.16 25.5434 6.408C25.9354 6.656 26.2354 7.004 26.4434 7.452C26.6594 7.9 26.7674 8.44 26.7674 9.072C26.7674 9.688 26.6594 10.228 26.4434 10.692C26.2354 11.148 25.9394 11.5 25.5554 11.748C25.1714 11.988 24.7154 12.108 24.1874 12.108C23.6834 12.108 23.2434 11.98 22.8674 11.724C22.4914 11.468 22.2394 11.128 22.1114 10.704H22.2554V13.632C22.2554 13.832 22.1994 13.984 22.0874 14.088C21.9834 14.192 21.8354 14.244 21.6434 14.244ZM23.8874 11.172C24.2234 11.172 24.5154 11.092 24.7634 10.932C25.0114 10.772 25.2034 10.536 25.3394 10.224C25.4754 9.912 25.5434 9.528 25.5434 9.072C25.5434 8.384 25.3914 7.864 25.0874 7.512C24.7914 7.16 24.3914 6.984 23.8874 6.984C23.5594 6.984 23.2674 7.064 23.0114 7.224C22.7634 7.376 22.5714 7.608 22.4354 7.92C22.2994 8.232 22.2314 8.616 22.2314 9.072C22.2314 9.752 22.3834 10.272 22.6874 10.632C22.9914 10.992 23.3914 11.172 23.8874 11.172ZM30.3652 12.108C29.8533 12.108 29.4013 11.988 29.0093 11.748C28.6253 11.5 28.3253 11.148 28.1093 10.692C27.8933 10.228 27.7853 9.688 27.7853 9.072C27.7853 8.44 27.8933 7.9 28.1093 7.452C28.3253 7.004 28.6253 6.656 29.0093 6.408C29.4013 6.16 29.8533 6.036 30.3652 6.036C30.8773 6.036 31.3173 6.164 31.6853 6.42C32.0613 6.668 32.3133 7.004 32.4413 7.428H32.3093V4.068C32.3093 3.868 32.3613 3.716 32.4653 3.612C32.5693 3.508 32.7173 3.456 32.9093 3.456C33.1013 3.456 33.2493 3.508 33.3533 3.612C33.4653 3.716 33.5213 3.868 33.5213 4.068V11.472C33.5213 11.664 33.4693 11.816 33.3653 11.928C33.2613 12.032 33.1133 12.084 32.9213 12.084C32.7293 12.084 32.5813 12.032 32.4773 11.928C32.3733 11.816 32.3213 11.664 32.3213 11.472V10.416L32.4533 10.68C32.3253 11.112 32.0733 11.46 31.6973 11.724C31.3293 11.98 30.8853 12.108 30.3652 12.108ZM30.6773 11.172C31.0053 11.172 31.2933 11.092 31.5413 10.932C31.7893 10.772 31.9813 10.536 32.1173 10.224C32.2613 9.912 32.3333 9.528 32.3333 9.072C32.3333 8.384 32.1813 7.864 31.8773 7.512C31.5733 7.16 31.1733 6.984 30.6773 6.984C30.3413 6.984 30.0493 7.064 29.8013 7.224C29.5533 7.376 29.3573 7.608 29.2133 7.92C29.0773 8.232 29.0093 8.616 29.0093 9.072C29.0093 9.752 29.1613 10.272 29.4653 10.632C29.7693 10.992 30.1733 11.172 30.6773 11.172ZM37.7671 12.108C37.1751 12.108 36.6631 11.984 36.2311 11.736C35.8071 11.488 35.4751 11.136 35.2351 10.68C34.9951 10.224 34.8751 9.688 34.8751 9.072C34.8751 8.6 34.9431 8.18 35.0791 7.812C35.2151 7.444 35.4071 7.128 35.6551 6.864C35.9111 6.592 36.2151 6.388 36.5671 6.252C36.9271 6.108 37.3271 6.036 37.7671 6.036C38.3511 6.036 38.8551 6.16 39.2791 6.408C39.7111 6.656 40.0471 7.008 40.2871 7.464C40.5271 7.912 40.6471 8.448 40.6471 9.072C40.6471 9.536 40.5791 9.956 40.4431 10.332C40.3071 10.708 40.1111 11.028 39.8551 11.292C39.6071 11.556 39.3031 11.76 38.9431 11.904C38.5911 12.04 38.1991 12.108 37.7671 12.108ZM37.7671 11.172C38.0951 11.172 38.3831 11.092 38.6311 10.932C38.8791 10.772 39.0711 10.536 39.2071 10.224C39.3511 9.912 39.4231 9.528 39.4231 9.072C39.4231 8.384 39.2711 7.864 38.9671 7.512C38.6631 7.16 38.2631 6.984 37.7671 6.984C37.4311 6.984 37.1391 7.064 36.8911 7.224C36.6431 7.376 36.4471 7.608 36.3031 7.92C36.1671 8.232 36.0991 8.616 36.0991 9.072C36.0991 9.752 36.2511 10.272 36.5551 10.632C36.8591 10.992 37.2631 11.172 37.7671 11.172ZM44.0388 12.084C43.8708 12.084 43.7228 12.044 43.5948 11.964C43.4748 11.876 43.3788 11.74 43.3068 11.556L41.5428 6.888C41.4788 6.728 41.4588 6.588 41.4828 6.468C41.5068 6.34 41.5668 6.24 41.6628 6.168C41.7668 6.096 41.8988 6.06 42.0588 6.06C42.2028 6.06 42.3188 6.096 42.4068 6.168C42.5028 6.232 42.5828 6.36 42.6468 6.552L44.2188 10.98H43.9308L45.5628 6.504C45.6188 6.352 45.6948 6.24 45.7908 6.168C45.8868 6.096 46.0108 6.06 46.1628 6.06C46.3148 6.06 46.4388 6.096 46.5348 6.168C46.6388 6.24 46.7148 6.352 46.7628 6.504L48.3588 10.98H48.0948L49.6908 6.528C49.7548 6.344 49.8348 6.22 49.9308 6.156C50.0348 6.092 50.1508 6.06 50.2788 6.06C50.4388 6.06 50.5588 6.1 50.6388 6.18C50.7268 6.26 50.7748 6.364 50.7828 6.492C50.7988 6.612 50.7788 6.744 50.7228 6.888L48.9588 11.556C48.8868 11.732 48.7868 11.864 48.6588 11.952C48.5388 12.04 48.3988 12.084 48.2388 12.084C48.0708 12.084 47.9228 12.04 47.7948 11.952C47.6748 11.864 47.5788 11.732 47.5068 11.556L45.8268 7.008H46.4268L44.7588 11.556C44.6948 11.732 44.5988 11.864 44.4708 11.952C44.3508 12.04 44.2068 12.084 44.0388 12.084ZM52.6512 12.084C52.4592 12.084 52.3112 12.032 52.2072 11.928C52.1032 11.816 52.0512 11.664 52.0512 11.472V6.672C52.0512 6.472 52.1032 6.32 52.2072 6.216C52.3112 6.112 52.4552 6.06 52.6392 6.06C52.8312 6.06 52.9752 6.112 53.0712 6.216C53.1752 6.32 53.2272 6.472 53.2272 6.672V7.608L53.0952 7.392C53.2712 6.944 53.5472 6.608 53.9232 6.384C54.2992 6.152 54.7312 6.036 55.2192 6.036C55.6832 6.036 56.0672 6.124 56.3712 6.3C56.6832 6.468 56.9152 6.728 57.0672 7.08C57.2192 7.424 57.2952 7.86 57.2952 8.388V11.472C57.2952 11.664 57.2432 11.816 57.1392 11.928C57.0352 12.032 56.8872 12.084 56.6952 12.084C56.4952 12.084 56.3432 12.032 56.2392 11.928C56.1352 11.816 56.0832 11.664 56.0832 11.472V8.46C56.0832 7.956 55.9832 7.588 55.7832 7.356C55.5912 7.124 55.2872 7.008 54.8712 7.008C54.3832 7.008 53.9912 7.16 53.6952 7.464C53.4072 7.768 53.2632 8.176 53.2632 8.688V11.472C53.2632 11.88 53.0592 12.084 52.6512 12.084Z" fill="#64728C"/>
</svg>
