<svg width="300" height="66" viewBox="0 0 300 66" fill="none" xmlns="http://www.w3.org/2000/svg">
<rect x="0.5" y="21.5" width="299" height="44" rx="11.5" stroke="#E8EAEF"/>
<g clip-path="url(#clip0_552_3502)">
<path d="M30 31.5H15C12.2386 31.5 10 33.7386 10 36.5V51.5C10 54.2614 12.2386 56.5 15 56.5H30C32.7614 56.5 35 54.2614 35 51.5V36.5C35 33.7386 32.7614 31.5 30 31.5Z" fill="#64728C"/>
<path d="M19.792 46.636C19.5786 46.7213 19.3866 46.7373 19.216 46.684C19.0453 46.6307 18.912 46.5347 18.816 46.396C18.72 46.2573 18.6613 46.1027 18.64 45.932C18.6293 45.7613 18.6666 45.6013 18.752 45.452C18.848 45.292 18.9973 45.1693 19.2 45.084L26.064 42.316V43.5L19.2 40.748C18.9973 40.6627 18.848 40.5453 18.752 40.396C18.6666 40.236 18.6293 40.0706 18.64 39.9C18.6613 39.7186 18.72 39.5586 18.816 39.42C18.912 39.2813 19.0453 39.1853 19.216 39.132C19.3866 39.068 19.5786 39.0786 19.792 39.164L25.952 41.692C26.528 41.9267 26.816 42.3267 26.816 42.892C26.816 43.18 26.7413 43.4253 26.592 43.628C26.4533 43.8307 26.24 43.996 25.952 44.124L19.792 46.636Z" fill="white"/>
<path d="M19.026 50.084C18.798 50.084 18.6 50.006 18.432 49.85C18.276 49.706 18.198 49.52 18.198 49.292C18.198 49.064 18.276 48.872 18.432 48.716C18.6 48.572 18.798 48.5 19.026 48.5H25.974C26.214 48.5 26.412 48.572 26.568 48.716C26.724 48.872 26.802 49.064 26.802 49.292C26.802 49.52 26.724 49.706 26.568 49.85C26.412 50.006 26.214 50.084 25.974 50.084H19.026Z" fill="white"/>
</g>
<path d="M44.908 47.608C44.004 47.608 43.24 47.436 42.616 47.092C42 46.748 41.532 46.252 41.212 45.604C40.892 44.956 40.732 44.18 40.732 43.276C40.732 42.604 40.82 42 40.996 41.464C41.18 40.928 41.444 40.476 41.788 40.108C42.14 39.732 42.564 39.444 43.06 39.244C43.564 39.036 44.132 38.932 44.764 38.932C45.268 38.932 45.756 39.004 46.228 39.148C46.7 39.284 47.12 39.504 47.488 39.808C47.584 39.88 47.644 39.96 47.668 40.048C47.692 40.136 47.688 40.224 47.656 40.312C47.632 40.4 47.588 40.476 47.524 40.54C47.468 40.596 47.392 40.628 47.296 40.636C47.208 40.644 47.116 40.616 47.02 40.552C46.692 40.296 46.344 40.112 45.976 40C45.608 39.88 45.2 39.82 44.752 39.82C44.112 39.82 43.568 39.956 43.12 40.228C42.68 40.5 42.344 40.892 42.112 41.404C41.888 41.916 41.776 42.54 41.776 43.276C41.776 44.396 42.036 45.252 42.556 45.844C43.084 46.436 43.876 46.732 44.932 46.732C45.316 46.732 45.692 46.696 46.06 46.624C46.428 46.544 46.776 46.436 47.104 46.3L46.888 46.864V43.876H45.172C45.028 43.876 44.92 43.84 44.848 43.768C44.776 43.696 44.74 43.6 44.74 43.48C44.74 43.352 44.776 43.256 44.848 43.192C44.92 43.128 45.028 43.096 45.172 43.096H47.32C47.456 43.096 47.56 43.132 47.632 43.204C47.704 43.276 47.74 43.38 47.74 43.516V46.648C47.74 46.768 47.72 46.868 47.68 46.948C47.64 47.028 47.572 47.088 47.476 47.128C47.14 47.264 46.736 47.38 46.264 47.476C45.8 47.564 45.348 47.608 44.908 47.608ZM50.111 47.584C49.951 47.584 49.827 47.54 49.739 47.452C49.659 47.364 49.619 47.24 49.619 47.08V42.076C49.619 41.916 49.659 41.796 49.739 41.716C49.819 41.628 49.935 41.584 50.087 41.584C50.239 41.584 50.355 41.628 50.435 41.716C50.523 41.796 50.567 41.916 50.567 42.076V43.048H50.447C50.575 42.576 50.819 42.212 51.179 41.956C51.539 41.7 51.983 41.564 52.511 41.548C52.631 41.54 52.727 41.568 52.799 41.632C52.871 41.688 52.911 41.788 52.919 41.932C52.927 42.068 52.895 42.176 52.823 42.256C52.751 42.336 52.639 42.384 52.487 42.4L52.295 42.424C51.751 42.472 51.331 42.648 51.035 42.952C50.747 43.248 50.603 43.656 50.603 44.176V47.08C50.603 47.24 50.559 47.364 50.471 47.452C50.391 47.54 50.271 47.584 50.111 47.584ZM56.4775 47.608C55.8615 47.608 55.3295 47.488 54.8815 47.248C54.4415 47 54.0975 46.652 53.8495 46.204C53.6095 45.756 53.4895 45.22 53.4895 44.596C53.4895 43.988 53.6095 43.46 53.8495 43.012C54.0895 42.556 54.4175 42.2 54.8335 41.944C55.2575 41.688 55.7455 41.56 56.2975 41.56C56.6895 41.56 57.0415 41.628 57.3535 41.764C57.6655 41.892 57.9295 42.08 58.1455 42.328C58.3695 42.576 58.5375 42.876 58.6495 43.228C58.7695 43.58 58.8295 43.976 58.8295 44.416C58.8295 44.544 58.7935 44.64 58.7215 44.704C58.6495 44.76 58.5455 44.788 58.4095 44.788H54.2335V44.152H58.1815L57.9895 44.308C57.9895 43.876 57.9255 43.512 57.7975 43.216C57.6695 42.912 57.4815 42.68 57.2335 42.52C56.9935 42.36 56.6895 42.28 56.3215 42.28C55.9135 42.28 55.5655 42.376 55.2775 42.568C54.9975 42.752 54.7855 43.012 54.6415 43.348C54.4975 43.676 54.4255 44.06 54.4255 44.5V44.572C54.4255 45.308 54.6015 45.868 54.9535 46.252C55.3135 46.636 55.8215 46.828 56.4775 46.828C56.7495 46.828 57.0175 46.792 57.2815 46.72C57.5535 46.648 57.8175 46.528 58.0735 46.36C58.1855 46.288 58.2855 46.256 58.3735 46.264C58.4695 46.264 58.5455 46.292 58.6015 46.348C58.6575 46.396 58.6935 46.46 58.7095 46.54C58.7335 46.612 58.7255 46.692 58.6855 46.78C58.6535 46.868 58.5855 46.944 58.4815 47.008C58.2175 47.2 57.9055 47.348 57.5455 47.452C57.1855 47.556 56.8295 47.608 56.4775 47.608ZM62.0722 47.608C61.6722 47.608 61.3122 47.532 60.9922 47.38C60.6802 47.22 60.4322 47.004 60.2482 46.732C60.0642 46.46 59.9722 46.156 59.9722 45.82C59.9722 45.388 60.0802 45.048 60.2962 44.8C60.5202 44.552 60.8842 44.376 61.3882 44.272C61.9002 44.168 62.5962 44.116 63.4762 44.116H64.0162V44.752H63.4882C62.8402 44.752 62.3282 44.784 61.9522 44.848C61.5842 44.904 61.3242 45.004 61.1722 45.148C61.0282 45.292 60.9562 45.496 60.9562 45.76C60.9562 46.088 61.0682 46.356 61.2922 46.564C61.5242 46.772 61.8362 46.876 62.2282 46.876C62.5482 46.876 62.8282 46.8 63.0682 46.648C63.3162 46.496 63.5082 46.288 63.6442 46.024C63.7882 45.76 63.8602 45.456 63.8602 45.112V43.744C63.8602 43.248 63.7602 42.892 63.5602 42.676C63.3602 42.452 63.0322 42.34 62.5762 42.34C62.2962 42.34 62.0162 42.376 61.7362 42.448C61.4562 42.52 61.1602 42.636 60.8482 42.796C60.7362 42.852 60.6402 42.872 60.5602 42.856C60.4802 42.832 60.4162 42.788 60.3682 42.724C60.3202 42.66 60.2922 42.588 60.2842 42.508C60.2762 42.42 60.2922 42.336 60.3322 42.256C60.3802 42.176 60.4522 42.112 60.5482 42.064C60.9002 41.888 61.2482 41.76 61.5922 41.68C61.9362 41.6 62.2642 41.56 62.5762 41.56C63.0802 41.56 63.4962 41.644 63.8242 41.812C64.1522 41.972 64.3962 42.22 64.5562 42.556C64.7162 42.884 64.7962 43.308 64.7962 43.828V47.08C64.7962 47.24 64.7562 47.364 64.6762 47.452C64.6042 47.54 64.4962 47.584 64.3522 47.584C64.2002 47.584 64.0842 47.54 64.0042 47.452C63.9242 47.364 63.8842 47.24 63.8842 47.08V46.144H63.9922C63.9282 46.448 63.8042 46.708 63.6202 46.924C63.4442 47.14 63.2242 47.308 62.9602 47.428C62.6962 47.548 62.4002 47.608 62.0722 47.608ZM68.9395 47.608C68.4835 47.608 68.0995 47.528 67.7875 47.368C67.4835 47.2 67.2555 46.96 67.1035 46.648C66.9515 46.328 66.8755 45.94 66.8755 45.484V42.424H66.0715C65.9355 42.424 65.8315 42.392 65.7595 42.328C65.6875 42.256 65.6515 42.16 65.6515 42.04C65.6515 41.92 65.6875 41.828 65.7595 41.764C65.8315 41.7 65.9355 41.668 66.0715 41.668H66.8755V40.288C66.8755 40.128 66.9195 40.008 67.0075 39.928C67.0955 39.84 67.2155 39.796 67.3675 39.796C67.5195 39.796 67.6355 39.84 67.7155 39.928C67.8035 40.008 67.8475 40.128 67.8475 40.288V41.668H69.3595C69.4955 41.668 69.5995 41.7 69.6715 41.764C69.7435 41.828 69.7795 41.92 69.7795 42.04C69.7795 42.16 69.7435 42.256 69.6715 42.328C69.5995 42.392 69.4955 42.424 69.3595 42.424H67.8475V45.388C67.8475 45.844 67.9435 46.192 68.1355 46.432C68.3275 46.664 68.6395 46.78 69.0715 46.78C69.2235 46.78 69.3515 46.764 69.4555 46.732C69.5675 46.7 69.6595 46.684 69.7315 46.684C69.8035 46.676 69.8635 46.7 69.9115 46.756C69.9595 46.812 69.9835 46.908 69.9835 47.044C69.9835 47.14 69.9635 47.228 69.9235 47.308C69.8915 47.388 69.8315 47.444 69.7435 47.476C69.6475 47.508 69.5195 47.536 69.3595 47.56C69.2075 47.592 69.0675 47.608 68.9395 47.608ZM73.3642 47.608C72.7482 47.608 72.2162 47.488 71.7682 47.248C71.3282 47 70.9842 46.652 70.7362 46.204C70.4962 45.756 70.3762 45.22 70.3762 44.596C70.3762 43.988 70.4962 43.46 70.7362 43.012C70.9762 42.556 71.3042 42.2 71.7202 41.944C72.1442 41.688 72.6322 41.56 73.1842 41.56C73.5762 41.56 73.9282 41.628 74.2402 41.764C74.5522 41.892 74.8162 42.08 75.0322 42.328C75.2562 42.576 75.4242 42.876 75.5362 43.228C75.6562 43.58 75.7162 43.976 75.7162 44.416C75.7162 44.544 75.6802 44.64 75.6082 44.704C75.5362 44.76 75.4322 44.788 75.2962 44.788H71.1202V44.152H75.0682L74.8762 44.308C74.8762 43.876 74.8122 43.512 74.6842 43.216C74.5562 42.912 74.3682 42.68 74.1202 42.52C73.8802 42.36 73.5762 42.28 73.2082 42.28C72.8002 42.28 72.4522 42.376 72.1642 42.568C71.8842 42.752 71.6722 43.012 71.5282 43.348C71.3842 43.676 71.3122 44.06 71.3122 44.5V44.572C71.3122 45.308 71.4882 45.868 71.8402 46.252C72.2002 46.636 72.7082 46.828 73.3642 46.828C73.6362 46.828 73.9042 46.792 74.1682 46.72C74.4402 46.648 74.7042 46.528 74.9602 46.36C75.0722 46.288 75.1722 46.256 75.2602 46.264C75.3562 46.264 75.4322 46.292 75.4882 46.348C75.5442 46.396 75.5802 46.46 75.5962 46.54C75.6202 46.612 75.6122 46.692 75.5722 46.78C75.5402 46.868 75.4722 46.944 75.3682 47.008C75.1042 47.2 74.7922 47.348 74.4322 47.452C74.0722 47.556 73.7162 47.608 73.3642 47.608ZM77.6149 47.584C77.4549 47.584 77.3309 47.54 77.2429 47.452C77.1629 47.364 77.1229 47.24 77.1229 47.08V42.076C77.1229 41.916 77.1629 41.796 77.2429 41.716C77.3229 41.628 77.4389 41.584 77.5909 41.584C77.7429 41.584 77.8589 41.628 77.9389 41.716C78.0269 41.796 78.0709 41.916 78.0709 42.076V43.048H77.9509C78.0789 42.576 78.3229 42.212 78.6829 41.956C79.0429 41.7 79.4869 41.564 80.0149 41.548C80.1349 41.54 80.2309 41.568 80.3029 41.632C80.3749 41.688 80.4149 41.788 80.4229 41.932C80.4309 42.068 80.3989 42.176 80.3269 42.256C80.2549 42.336 80.1429 42.384 79.9909 42.4L79.7989 42.424C79.2549 42.472 78.8349 42.648 78.5389 42.952C78.2509 43.248 78.1069 43.656 78.1069 44.176V47.08C78.1069 47.24 78.0629 47.364 77.9749 47.452C77.8949 47.54 77.7749 47.584 77.6149 47.584ZM86.8575 47.608C86.4015 47.608 86.0175 47.528 85.7055 47.368C85.4015 47.2 85.1735 46.96 85.0215 46.648C84.8695 46.328 84.7935 45.94 84.7935 45.484V42.424H83.9895C83.8535 42.424 83.7495 42.392 83.6775 42.328C83.6055 42.256 83.5695 42.16 83.5695 42.04C83.5695 41.92 83.6055 41.828 83.6775 41.764C83.7495 41.7 83.8535 41.668 83.9895 41.668H84.7935V40.288C84.7935 40.128 84.8375 40.008 84.9255 39.928C85.0135 39.84 85.1335 39.796 85.2855 39.796C85.4375 39.796 85.5535 39.84 85.6335 39.928C85.7215 40.008 85.7655 40.128 85.7655 40.288V41.668H87.2775C87.4135 41.668 87.5175 41.7 87.5895 41.764C87.6615 41.828 87.6975 41.92 87.6975 42.04C87.6975 42.16 87.6615 42.256 87.5895 42.328C87.5175 42.392 87.4135 42.424 87.2775 42.424H85.7655V45.388C85.7655 45.844 85.8615 46.192 86.0535 46.432C86.2455 46.664 86.5575 46.78 86.9895 46.78C87.1415 46.78 87.2695 46.764 87.3735 46.732C87.4855 46.7 87.5775 46.684 87.6495 46.684C87.7215 46.676 87.7815 46.7 87.8295 46.756C87.8775 46.812 87.9015 46.908 87.9015 47.044C87.9015 47.14 87.8815 47.228 87.8415 47.308C87.8095 47.388 87.7495 47.444 87.6615 47.476C87.5655 47.508 87.4375 47.536 87.2775 47.56C87.1255 47.592 86.9855 47.608 86.8575 47.608ZM89.2631 47.584C89.1031 47.584 88.9831 47.54 88.9031 47.452C88.8231 47.364 88.7831 47.24 88.7831 47.08V39.448C88.7831 39.288 88.8231 39.168 88.9031 39.088C88.9831 39 89.1031 38.956 89.2631 38.956C89.4151 38.956 89.5351 39 89.6231 39.088C89.7111 39.168 89.7551 39.288 89.7551 39.448V42.964H89.5991C89.7671 42.5 90.0391 42.152 90.4151 41.92C90.7991 41.68 91.2391 41.56 91.7351 41.56C92.1991 41.56 92.5831 41.644 92.8871 41.812C93.1991 41.98 93.4311 42.236 93.5831 42.58C93.7351 42.916 93.8111 43.344 93.8111 43.864V47.08C93.8111 47.24 93.7671 47.364 93.6791 47.452C93.5991 47.54 93.4831 47.584 93.3311 47.584C93.1711 47.584 93.0471 47.54 92.9591 47.452C92.8791 47.364 92.8391 47.24 92.8391 47.08V43.924C92.8391 43.38 92.7311 42.984 92.5151 42.736C92.3071 42.48 91.9711 42.352 91.5071 42.352C90.9711 42.352 90.5431 42.52 90.2231 42.856C89.9111 43.184 89.7551 43.624 89.7551 44.176V47.08C89.7551 47.416 89.5911 47.584 89.2631 47.584ZM97.4394 47.608C97.0394 47.608 96.6794 47.532 96.3594 47.38C96.0474 47.22 95.7994 47.004 95.6154 46.732C95.4314 46.46 95.3394 46.156 95.3394 45.82C95.3394 45.388 95.4474 45.048 95.6634 44.8C95.8874 44.552 96.2514 44.376 96.7554 44.272C97.2674 44.168 97.9634 44.116 98.8434 44.116H99.3834V44.752H98.8554C98.2074 44.752 97.6954 44.784 97.3194 44.848C96.9514 44.904 96.6914 45.004 96.5394 45.148C96.3954 45.292 96.3234 45.496 96.3234 45.76C96.3234 46.088 96.4354 46.356 96.6594 46.564C96.8914 46.772 97.2034 46.876 97.5954 46.876C97.9154 46.876 98.1954 46.8 98.4354 46.648C98.6834 46.496 98.8754 46.288 99.0114 46.024C99.1554 45.76 99.2274 45.456 99.2274 45.112V43.744C99.2274 43.248 99.1274 42.892 98.9274 42.676C98.7274 42.452 98.3994 42.34 97.9434 42.34C97.6634 42.34 97.3834 42.376 97.1034 42.448C96.8234 42.52 96.5274 42.636 96.2154 42.796C96.1034 42.852 96.0074 42.872 95.9274 42.856C95.8474 42.832 95.7834 42.788 95.7354 42.724C95.6874 42.66 95.6594 42.588 95.6514 42.508C95.6434 42.42 95.6594 42.336 95.6994 42.256C95.7474 42.176 95.8194 42.112 95.9154 42.064C96.2674 41.888 96.6154 41.76 96.9594 41.68C97.3034 41.6 97.6314 41.56 97.9434 41.56C98.4474 41.56 98.8634 41.644 99.1914 41.812C99.5194 41.972 99.7634 42.22 99.9234 42.556C100.083 42.884 100.163 43.308 100.163 43.828V47.08C100.163 47.24 100.123 47.364 100.043 47.452C99.9714 47.54 99.8634 47.584 99.7194 47.584C99.5674 47.584 99.4514 47.54 99.3714 47.452C99.2914 47.364 99.2514 47.24 99.2514 47.08V46.144H99.3594C99.2954 46.448 99.1714 46.708 98.9874 46.924C98.8114 47.14 98.5914 47.308 98.3274 47.428C98.0634 47.548 97.7674 47.608 97.4394 47.608ZM102.447 47.584C102.287 47.584 102.167 47.54 102.087 47.452C102.007 47.364 101.967 47.24 101.967 47.08V42.076C101.967 41.916 102.007 41.796 102.087 41.716C102.167 41.628 102.283 41.584 102.435 41.584C102.587 41.584 102.703 41.628 102.783 41.716C102.871 41.796 102.915 41.916 102.915 42.076V43.108L102.783 42.964C102.951 42.5 103.223 42.152 103.599 41.92C103.983 41.68 104.423 41.56 104.919 41.56C105.383 41.56 105.767 41.644 106.071 41.812C106.383 41.98 106.615 42.236 106.767 42.58C106.919 42.916 106.995 43.344 106.995 43.864V47.08C106.995 47.24 106.951 47.364 106.863 47.452C106.783 47.54 106.667 47.584 106.515 47.584C106.355 47.584 106.231 47.54 106.143 47.452C106.063 47.364 106.023 47.24 106.023 47.08V43.924C106.023 43.38 105.915 42.984 105.699 42.736C105.491 42.48 105.155 42.352 104.691 42.352C104.155 42.352 103.727 42.52 103.407 42.856C103.095 43.184 102.939 43.624 102.939 44.176V47.08C102.939 47.416 102.775 47.584 102.447 47.584ZM114.305 47.608C113.737 47.608 113.245 47.484 112.829 47.236C112.413 46.988 112.089 46.64 111.857 46.192C111.633 45.736 111.521 45.2 111.521 44.584C111.521 44.12 111.585 43.704 111.713 43.336C111.841 42.96 112.029 42.64 112.277 42.376C112.525 42.112 112.817 41.912 113.153 41.776C113.497 41.632 113.881 41.56 114.305 41.56C114.873 41.56 115.365 41.684 115.781 41.932C116.197 42.18 116.517 42.532 116.741 42.988C116.973 43.436 117.089 43.968 117.089 44.584C117.089 45.048 117.025 45.464 116.897 45.832C116.769 46.2 116.581 46.52 116.333 46.792C116.085 47.056 115.789 47.26 115.445 47.404C115.109 47.54 114.729 47.608 114.305 47.608ZM114.305 46.828C114.665 46.828 114.981 46.74 115.253 46.564C115.525 46.388 115.733 46.132 115.877 45.796C116.029 45.46 116.105 45.056 116.105 44.584C116.105 43.856 115.941 43.3 115.613 42.916C115.293 42.532 114.857 42.34 114.305 42.34C113.937 42.34 113.617 42.428 113.345 42.604C113.081 42.772 112.873 43.024 112.721 43.36C112.577 43.688 112.505 44.096 112.505 44.584C112.505 45.304 112.669 45.86 112.997 46.252C113.325 46.636 113.761 46.828 114.305 46.828ZM119.041 47.584C118.881 47.584 118.757 47.54 118.669 47.452C118.589 47.364 118.549 47.24 118.549 47.08V42.076C118.549 41.916 118.589 41.796 118.669 41.716C118.749 41.628 118.865 41.584 119.017 41.584C119.169 41.584 119.285 41.628 119.365 41.716C119.453 41.796 119.497 41.916 119.497 42.076V43.048H119.377C119.505 42.576 119.749 42.212 120.109 41.956C120.469 41.7 120.913 41.564 121.441 41.548C121.561 41.54 121.657 41.568 121.729 41.632C121.801 41.688 121.841 41.788 121.849 41.932C121.857 42.068 121.825 42.176 121.753 42.256C121.681 42.336 121.569 42.384 121.417 42.4L121.225 42.424C120.681 42.472 120.261 42.648 119.965 42.952C119.677 43.248 119.533 43.656 119.533 44.176V47.08C119.533 47.24 119.489 47.364 119.401 47.452C119.321 47.54 119.201 47.584 119.041 47.584ZM128.571 47.608C127.955 47.608 127.423 47.488 126.975 47.248C126.535 47 126.191 46.652 125.943 46.204C125.703 45.756 125.583 45.22 125.583 44.596C125.583 43.988 125.703 43.46 125.943 43.012C126.183 42.556 126.511 42.2 126.927 41.944C127.351 41.688 127.839 41.56 128.391 41.56C128.783 41.56 129.135 41.628 129.447 41.764C129.759 41.892 130.023 42.08 130.239 42.328C130.463 42.576 130.631 42.876 130.743 43.228C130.863 43.58 130.923 43.976 130.923 44.416C130.923 44.544 130.887 44.64 130.815 44.704C130.743 44.76 130.639 44.788 130.503 44.788H126.327V44.152H130.275L130.083 44.308C130.083 43.876 130.019 43.512 129.891 43.216C129.763 42.912 129.575 42.68 129.327 42.52C129.087 42.36 128.783 42.28 128.415 42.28C128.007 42.28 127.659 42.376 127.371 42.568C127.091 42.752 126.879 43.012 126.735 43.348C126.591 43.676 126.519 44.06 126.519 44.5V44.572C126.519 45.308 126.695 45.868 127.047 46.252C127.407 46.636 127.915 46.828 128.571 46.828C128.843 46.828 129.111 46.792 129.375 46.72C129.647 46.648 129.911 46.528 130.167 46.36C130.279 46.288 130.379 46.256 130.467 46.264C130.563 46.264 130.639 46.292 130.695 46.348C130.751 46.396 130.787 46.46 130.803 46.54C130.827 46.612 130.819 46.692 130.779 46.78C130.747 46.868 130.679 46.944 130.575 47.008C130.311 47.2 129.999 47.348 129.639 47.452C129.279 47.556 128.923 47.608 128.571 47.608ZM137.022 49.744C136.862 49.744 136.738 49.7 136.65 49.612C136.57 49.532 136.53 49.412 136.53 49.252V46.132H136.662C136.534 46.58 136.282 46.94 135.906 47.212C135.53 47.476 135.078 47.608 134.55 47.608C134.03 47.608 133.574 47.484 133.182 47.236C132.798 46.988 132.498 46.64 132.282 46.192C132.074 45.736 131.97 45.2 131.97 44.584C131.97 43.96 132.074 43.424 132.282 42.976C132.498 42.52 132.798 42.172 133.182 41.932C133.574 41.684 134.03 41.56 134.55 41.56C135.078 41.56 135.53 41.696 135.906 41.968C136.29 42.232 136.546 42.592 136.674 43.048L136.542 43.216V42.076C136.542 41.916 136.582 41.796 136.662 41.716C136.75 41.628 136.87 41.584 137.022 41.584C137.182 41.584 137.302 41.628 137.382 41.716C137.462 41.796 137.502 41.916 137.502 42.076V49.252C137.502 49.412 137.458 49.532 137.37 49.612C137.29 49.7 137.174 49.744 137.022 49.744ZM134.754 46.828C135.114 46.828 135.43 46.74 135.702 46.564C135.974 46.388 136.182 46.132 136.326 45.796C136.478 45.46 136.554 45.056 136.554 44.584C136.554 43.856 136.39 43.3 136.062 42.916C135.742 42.532 135.306 42.34 134.754 42.34C134.386 42.34 134.066 42.428 133.794 42.604C133.53 42.772 133.322 43.024 133.17 43.36C133.026 43.688 132.954 44.096 132.954 44.584C132.954 45.304 133.118 45.86 133.446 46.252C133.774 46.636 134.21 46.828 134.754 46.828ZM141.39 47.608C140.918 47.608 140.526 47.524 140.214 47.356C139.91 47.18 139.678 46.92 139.518 46.576C139.366 46.232 139.29 45.804 139.29 45.292V42.076C139.29 41.908 139.33 41.784 139.41 41.704C139.498 41.624 139.618 41.584 139.77 41.584C139.93 41.584 140.05 41.624 140.13 41.704C140.218 41.784 140.262 41.908 140.262 42.076V45.28C140.262 45.792 140.366 46.176 140.574 46.432C140.79 46.68 141.126 46.804 141.582 46.804C142.078 46.804 142.482 46.636 142.794 46.3C143.106 45.964 143.262 45.524 143.262 44.98V42.076C143.262 41.908 143.302 41.784 143.382 41.704C143.47 41.624 143.594 41.584 143.754 41.584C143.906 41.584 144.022 41.624 144.102 41.704C144.19 41.784 144.234 41.908 144.234 42.076V47.08C144.234 47.416 144.078 47.584 143.766 47.584C143.614 47.584 143.494 47.54 143.406 47.452C143.326 47.364 143.286 47.24 143.286 47.08V45.988L143.442 46.156C143.282 46.628 143.018 46.988 142.65 47.236C142.29 47.484 141.87 47.608 141.39 47.608ZM147.889 47.608C147.489 47.608 147.129 47.532 146.809 47.38C146.497 47.22 146.249 47.004 146.065 46.732C145.881 46.46 145.789 46.156 145.789 45.82C145.789 45.388 145.897 45.048 146.113 44.8C146.337 44.552 146.701 44.376 147.205 44.272C147.717 44.168 148.413 44.116 149.293 44.116H149.833V44.752H149.305C148.657 44.752 148.145 44.784 147.769 44.848C147.401 44.904 147.141 45.004 146.989 45.148C146.845 45.292 146.773 45.496 146.773 45.76C146.773 46.088 146.885 46.356 147.109 46.564C147.341 46.772 147.653 46.876 148.045 46.876C148.365 46.876 148.645 46.8 148.885 46.648C149.133 46.496 149.325 46.288 149.461 46.024C149.605 45.76 149.677 45.456 149.677 45.112V43.744C149.677 43.248 149.577 42.892 149.377 42.676C149.177 42.452 148.849 42.34 148.393 42.34C148.113 42.34 147.833 42.376 147.553 42.448C147.273 42.52 146.977 42.636 146.665 42.796C146.553 42.852 146.457 42.872 146.377 42.856C146.297 42.832 146.233 42.788 146.185 42.724C146.137 42.66 146.109 42.588 146.101 42.508C146.093 42.42 146.109 42.336 146.149 42.256C146.197 42.176 146.269 42.112 146.365 42.064C146.717 41.888 147.065 41.76 147.409 41.68C147.753 41.6 148.081 41.56 148.393 41.56C148.897 41.56 149.313 41.644 149.641 41.812C149.969 41.972 150.213 42.22 150.373 42.556C150.533 42.884 150.613 43.308 150.613 43.828V47.08C150.613 47.24 150.573 47.364 150.493 47.452C150.421 47.54 150.313 47.584 150.169 47.584C150.017 47.584 149.901 47.54 149.821 47.452C149.741 47.364 149.701 47.24 149.701 47.08V46.144H149.809C149.745 46.448 149.621 46.708 149.437 46.924C149.261 47.14 149.041 47.308 148.777 47.428C148.513 47.548 148.217 47.608 147.889 47.608ZM154.192 47.608C153.616 47.608 153.176 47.432 152.872 47.08C152.568 46.728 152.416 46.224 152.416 45.568V39.448C152.416 39.288 152.456 39.168 152.536 39.088C152.616 39 152.736 38.956 152.896 38.956C153.048 38.956 153.168 39 153.256 39.088C153.344 39.168 153.388 39.288 153.388 39.448V45.496C153.388 45.928 153.472 46.252 153.64 46.468C153.816 46.676 154.072 46.78 154.408 46.78C154.48 46.78 154.544 46.776 154.6 46.768C154.656 46.76 154.712 46.756 154.768 46.756C154.856 46.748 154.916 46.768 154.948 46.816C154.988 46.864 155.008 46.96 155.008 47.104C155.008 47.248 154.976 47.356 154.912 47.428C154.848 47.5 154.744 47.548 154.6 47.572C154.536 47.58 154.468 47.588 154.396 47.596C154.324 47.604 154.256 47.608 154.192 47.608ZM161.4 47.608C160.944 47.608 160.56 47.528 160.248 47.368C159.944 47.2 159.716 46.96 159.564 46.648C159.412 46.328 159.336 45.94 159.336 45.484V42.424H158.532C158.396 42.424 158.292 42.392 158.22 42.328C158.148 42.256 158.112 42.16 158.112 42.04C158.112 41.92 158.148 41.828 158.22 41.764C158.292 41.7 158.396 41.668 158.532 41.668H159.336V40.288C159.336 40.128 159.38 40.008 159.468 39.928C159.556 39.84 159.676 39.796 159.828 39.796C159.98 39.796 160.096 39.84 160.176 39.928C160.264 40.008 160.308 40.128 160.308 40.288V41.668H161.82C161.956 41.668 162.06 41.7 162.132 41.764C162.204 41.828 162.24 41.92 162.24 42.04C162.24 42.16 162.204 42.256 162.132 42.328C162.06 42.392 161.956 42.424 161.82 42.424H160.308V45.388C160.308 45.844 160.404 46.192 160.596 46.432C160.788 46.664 161.1 46.78 161.532 46.78C161.684 46.78 161.812 46.764 161.916 46.732C162.028 46.7 162.12 46.684 162.192 46.684C162.264 46.676 162.324 46.7 162.372 46.756C162.42 46.812 162.444 46.908 162.444 47.044C162.444 47.14 162.424 47.228 162.384 47.308C162.352 47.388 162.292 47.444 162.204 47.476C162.108 47.508 161.98 47.536 161.82 47.56C161.668 47.592 161.528 47.608 161.4 47.608ZM165.621 47.608C165.053 47.608 164.561 47.484 164.145 47.236C163.729 46.988 163.405 46.64 163.173 46.192C162.949 45.736 162.837 45.2 162.837 44.584C162.837 44.12 162.901 43.704 163.029 43.336C163.157 42.96 163.345 42.64 163.593 42.376C163.841 42.112 164.133 41.912 164.469 41.776C164.813 41.632 165.197 41.56 165.621 41.56C166.189 41.56 166.681 41.684 167.097 41.932C167.513 42.18 167.833 42.532 168.057 42.988C168.289 43.436 168.405 43.968 168.405 44.584C168.405 45.048 168.341 45.464 168.213 45.832C168.085 46.2 167.897 46.52 167.649 46.792C167.401 47.056 167.105 47.26 166.761 47.404C166.425 47.54 166.045 47.608 165.621 47.608ZM165.621 46.828C165.981 46.828 166.297 46.74 166.569 46.564C166.841 46.388 167.049 46.132 167.193 45.796C167.345 45.46 167.421 45.056 167.421 44.584C167.421 43.856 167.257 43.3 166.929 42.916C166.609 42.532 166.173 42.34 165.621 42.34C165.253 42.34 164.933 42.428 164.661 42.604C164.397 42.772 164.189 43.024 164.037 43.36C163.893 43.688 163.821 44.096 163.821 44.584C163.821 45.304 163.985 45.86 164.313 46.252C164.641 46.636 165.077 46.828 165.621 46.828Z" fill="#64728C"/>
<rect x="260" y="25.5" width="36" height="36" rx="12" fill="#64728C" fill-opacity="0.12"/>
<path d="M279.039 48.2C278.577 49 277.423 49 276.961 48.2L273.843 42.8C273.381 42 273.959 41 274.882 41L281.118 41C282.041 41 282.619 42 282.157 42.8L279.039 48.2Z" fill="#64728C"/>
<path d="M1.656 12C1.44 12 1.272 11.944 1.152 11.832C1.04 11.712 0.984 11.544 0.984 11.328V4.212C0.984 3.996 1.04 3.832 1.152 3.72C1.272 3.6 1.44 3.54 1.656 3.54H3.972C5.364 3.54 6.436 3.904 7.188 4.632C7.948 5.352 8.328 6.396 8.328 7.764C8.328 8.444 8.232 9.048 8.04 9.576C7.848 10.104 7.564 10.548 7.188 10.908C6.82 11.26 6.368 11.532 5.832 11.724C5.296 11.908 4.676 12 3.972 12H1.656ZM2.232 10.956H3.9C4.428 10.956 4.884 10.892 5.268 10.764C5.66 10.628 5.988 10.428 6.252 10.164C6.516 9.9 6.712 9.568 6.84 9.168C6.968 8.768 7.032 8.3 7.032 7.764C7.032 6.7 6.768 5.904 6.24 5.376C5.72 4.848 4.94 4.584 3.9 4.584H2.232V10.956ZM10.4757 12.084C10.2757 12.084 10.1237 12.032 10.0197 11.928C9.91572 11.816 9.86372 11.664 9.86372 11.472V6.672C9.86372 6.472 9.91572 6.32 10.0197 6.216C10.1237 6.112 10.2677 6.06 10.4517 6.06C10.6437 6.06 10.7877 6.112 10.8837 6.216C10.9877 6.32 11.0397 6.472 11.0397 6.672V7.548H10.9197C11.0477 7.068 11.2837 6.704 11.6277 6.456C11.9717 6.208 12.4117 6.064 12.9477 6.024C13.0917 6.016 13.2037 6.052 13.2837 6.132C13.3717 6.212 13.4197 6.336 13.4277 6.504C13.4437 6.672 13.4077 6.808 13.3197 6.912C13.2317 7.008 13.0957 7.064 12.9117 7.08L12.6837 7.104C12.1637 7.152 11.7677 7.316 11.4957 7.596C11.2237 7.876 11.0877 8.26 11.0877 8.748V11.472C11.0877 11.664 11.0357 11.816 10.9317 11.928C10.8357 12.032 10.6837 12.084 10.4757 12.084ZM16.8023 12.108C16.2103 12.108 15.6983 11.984 15.2663 11.736C14.8423 11.488 14.5103 11.136 14.2703 10.68C14.0303 10.224 13.9103 9.688 13.9103 9.072C13.9103 8.6 13.9783 8.18 14.1143 7.812C14.2503 7.444 14.4423 7.128 14.6903 6.864C14.9463 6.592 15.2503 6.388 15.6023 6.252C15.9623 6.108 16.3623 6.036 16.8023 6.036C17.3863 6.036 17.8903 6.16 18.3143 6.408C18.7463 6.656 19.0823 7.008 19.3223 7.464C19.5623 7.912 19.6823 8.448 19.6823 9.072C19.6823 9.536 19.6143 9.956 19.4783 10.332C19.3423 10.708 19.1463 11.028 18.8903 11.292C18.6423 11.556 18.3383 11.76 17.9783 11.904C17.6263 12.04 17.2343 12.108 16.8023 12.108ZM16.8023 11.172C17.1303 11.172 17.4183 11.092 17.6663 10.932C17.9143 10.772 18.1063 10.536 18.2423 10.224C18.3863 9.912 18.4583 9.528 18.4583 9.072C18.4583 8.384 18.3063 7.864 18.0023 7.512C17.6983 7.16 17.2983 6.984 16.8023 6.984C16.4663 6.984 16.1743 7.064 15.9263 7.224C15.6783 7.376 15.4823 7.608 15.3383 7.92C15.2023 8.232 15.1343 8.616 15.1343 9.072C15.1343 9.752 15.2863 10.272 15.5903 10.632C15.8943 10.992 16.2983 11.172 16.8023 11.172ZM21.6434 14.244C21.4514 14.244 21.3034 14.192 21.1994 14.088C21.0954 13.984 21.0434 13.832 21.0434 13.632V6.672C21.0434 6.472 21.0954 6.32 21.1994 6.216C21.3034 6.112 21.4474 6.06 21.6314 6.06C21.8234 6.06 21.9714 6.112 22.0754 6.216C22.1794 6.32 22.2314 6.472 22.2314 6.672V7.716L22.0994 7.464C22.2274 7.032 22.4794 6.688 22.8554 6.432C23.2314 6.168 23.6754 6.036 24.1874 6.036C24.7074 6.036 25.1594 6.16 25.5434 6.408C25.9354 6.656 26.2354 7.004 26.4434 7.452C26.6594 7.9 26.7674 8.44 26.7674 9.072C26.7674 9.688 26.6594 10.228 26.4434 10.692C26.2354 11.148 25.9394 11.5 25.5554 11.748C25.1714 11.988 24.7154 12.108 24.1874 12.108C23.6834 12.108 23.2434 11.98 22.8674 11.724C22.4914 11.468 22.2394 11.128 22.1114 10.704H22.2554V13.632C22.2554 13.832 22.1994 13.984 22.0874 14.088C21.9834 14.192 21.8354 14.244 21.6434 14.244ZM23.8874 11.172C24.2234 11.172 24.5154 11.092 24.7634 10.932C25.0114 10.772 25.2034 10.536 25.3394 10.224C25.4754 9.912 25.5434 9.528 25.5434 9.072C25.5434 8.384 25.3914 7.864 25.0874 7.512C24.7914 7.16 24.3914 6.984 23.8874 6.984C23.5594 6.984 23.2674 7.064 23.0114 7.224C22.7634 7.376 22.5714 7.608 22.4354 7.92C22.2994 8.232 22.2314 8.616 22.2314 9.072C22.2314 9.752 22.3834 10.272 22.6874 10.632C22.9914 10.992 23.3914 11.172 23.8874 11.172ZM30.3652 12.108C29.8533 12.108 29.4013 11.988 29.0093 11.748C28.6253 11.5 28.3253 11.148 28.1093 10.692C27.8933 10.228 27.7853 9.688 27.7853 9.072C27.7853 8.44 27.8933 7.9 28.1093 7.452C28.3253 7.004 28.6253 6.656 29.0093 6.408C29.4013 6.16 29.8533 6.036 30.3652 6.036C30.8773 6.036 31.3173 6.164 31.6853 6.42C32.0613 6.668 32.3133 7.004 32.4413 7.428H32.3093V4.068C32.3093 3.868 32.3613 3.716 32.4653 3.612C32.5693 3.508 32.7173 3.456 32.9093 3.456C33.1013 3.456 33.2493 3.508 33.3533 3.612C33.4653 3.716 33.5213 3.868 33.5213 4.068V11.472C33.5213 11.664 33.4693 11.816 33.3653 11.928C33.2613 12.032 33.1133 12.084 32.9213 12.084C32.7293 12.084 32.5813 12.032 32.4773 11.928C32.3733 11.816 32.3213 11.664 32.3213 11.472V10.416L32.4533 10.68C32.3253 11.112 32.0733 11.46 31.6973 11.724C31.3293 11.98 30.8853 12.108 30.3652 12.108ZM30.6773 11.172C31.0053 11.172 31.2933 11.092 31.5413 10.932C31.7893 10.772 31.9813 10.536 32.1173 10.224C32.2613 9.912 32.3333 9.528 32.3333 9.072C32.3333 8.384 32.1813 7.864 31.8773 7.512C31.5733 7.16 31.1733 6.984 30.6773 6.984C30.3413 6.984 30.0493 7.064 29.8013 7.224C29.5533 7.376 29.3573 7.608 29.2133 7.92C29.0773 8.232 29.0093 8.616 29.0093 9.072C29.0093 9.752 29.1613 10.272 29.4653 10.632C29.7693 10.992 30.1733 11.172 30.6773 11.172ZM37.7671 12.108C37.1751 12.108 36.6631 11.984 36.2311 11.736C35.8071 11.488 35.4751 11.136 35.2351 10.68C34.9951 10.224 34.8751 9.688 34.8751 9.072C34.8751 8.6 34.9431 8.18 35.0791 7.812C35.2151 7.444 35.4071 7.128 35.6551 6.864C35.9111 6.592 36.2151 6.388 36.5671 6.252C36.9271 6.108 37.3271 6.036 37.7671 6.036C38.3511 6.036 38.8551 6.16 39.2791 6.408C39.7111 6.656 40.0471 7.008 40.2871 7.464C40.5271 7.912 40.6471 8.448 40.6471 9.072C40.6471 9.536 40.5791 9.956 40.4431 10.332C40.3071 10.708 40.1111 11.028 39.8551 11.292C39.6071 11.556 39.3031 11.76 38.9431 11.904C38.5911 12.04 38.1991 12.108 37.7671 12.108ZM37.7671 11.172C38.0951 11.172 38.3831 11.092 38.6311 10.932C38.8791 10.772 39.0711 10.536 39.2071 10.224C39.3511 9.912 39.4231 9.528 39.4231 9.072C39.4231 8.384 39.2711 7.864 38.9671 7.512C38.6631 7.16 38.2631 6.984 37.7671 6.984C37.4311 6.984 37.1391 7.064 36.8911 7.224C36.6431 7.376 36.4471 7.608 36.3031 7.92C36.1671 8.232 36.0991 8.616 36.0991 9.072C36.0991 9.752 36.2511 10.272 36.5551 10.632C36.8591 10.992 37.2631 11.172 37.7671 11.172ZM44.0388 12.084C43.8708 12.084 43.7228 12.044 43.5948 11.964C43.4748 11.876 43.3788 11.74 43.3068 11.556L41.5428 6.888C41.4788 6.728 41.4588 6.588 41.4828 6.468C41.5068 6.34 41.5668 6.24 41.6628 6.168C41.7668 6.096 41.8988 6.06 42.0588 6.06C42.2028 6.06 42.3188 6.096 42.4068 6.168C42.5028 6.232 42.5828 6.36 42.6468 6.552L44.2188 10.98H43.9308L45.5628 6.504C45.6188 6.352 45.6948 6.24 45.7908 6.168C45.8868 6.096 46.0108 6.06 46.1628 6.06C46.3148 6.06 46.4388 6.096 46.5348 6.168C46.6388 6.24 46.7148 6.352 46.7628 6.504L48.3588 10.98H48.0948L49.6908 6.528C49.7548 6.344 49.8348 6.22 49.9308 6.156C50.0348 6.092 50.1508 6.06 50.2788 6.06C50.4388 6.06 50.5588 6.1 50.6388 6.18C50.7268 6.26 50.7748 6.364 50.7828 6.492C50.7988 6.612 50.7788 6.744 50.7228 6.888L48.9588 11.556C48.8868 11.732 48.7868 11.864 48.6588 11.952C48.5388 12.04 48.3988 12.084 48.2388 12.084C48.0708 12.084 47.9228 12.04 47.7948 11.952C47.6748 11.864 47.5788 11.732 47.5068 11.556L45.8268 7.008H46.4268L44.7588 11.556C44.6948 11.732 44.5988 11.864 44.4708 11.952C44.3508 12.04 44.2068 12.084 44.0388 12.084ZM52.6512 12.084C52.4592 12.084 52.3112 12.032 52.2072 11.928C52.1032 11.816 52.0512 11.664 52.0512 11.472V6.672C52.0512 6.472 52.1032 6.32 52.2072 6.216C52.3112 6.112 52.4552 6.06 52.6392 6.06C52.8312 6.06 52.9752 6.112 53.0712 6.216C53.1752 6.32 53.2272 6.472 53.2272 6.672V7.608L53.0952 7.392C53.2712 6.944 53.5472 6.608 53.9232 6.384C54.2992 6.152 54.7312 6.036 55.2192 6.036C55.6832 6.036 56.0672 6.124 56.3712 6.3C56.6832 6.468 56.9152 6.728 57.0672 7.08C57.2192 7.424 57.2952 7.86 57.2952 8.388V11.472C57.2952 11.664 57.2432 11.816 57.1392 11.928C57.0352 12.032 56.8872 12.084 56.6952 12.084C56.4952 12.084 56.3432 12.032 56.2392 11.928C56.1352 11.816 56.0832 11.664 56.0832 11.472V8.46C56.0832 7.956 55.9832 7.588 55.7832 7.356C55.5912 7.124 55.2872 7.008 54.8712 7.008C54.3832 7.008 53.9912 7.16 53.6952 7.464C53.4072 7.768 53.2632 8.176 53.2632 8.688V11.472C53.2632 11.88 53.0592 12.084 52.6512 12.084ZM65.1053 12.084C64.9293 12.084 64.7853 12.04 64.6733 11.952C64.5693 11.864 64.4813 11.728 64.4093 11.544L61.8293 4.188C61.7573 3.98 61.7693 3.808 61.8653 3.672C61.9693 3.528 62.1373 3.456 62.3693 3.456C62.5453 3.456 62.6813 3.496 62.7773 3.576C62.8813 3.656 62.9613 3.784 63.0173 3.96L65.3573 10.848H64.9133L67.3133 3.984C67.3853 3.808 67.4693 3.676 67.5653 3.588C67.6613 3.5 67.7893 3.456 67.9493 3.456C68.1093 3.456 68.2333 3.5 68.3213 3.588C68.4173 3.676 68.5013 3.812 68.5733 3.996L70.9253 10.848H70.5293L72.8933 3.96C72.9493 3.792 73.0253 3.668 73.1213 3.588C73.2253 3.5 73.3613 3.456 73.5293 3.456C73.7373 3.456 73.8893 3.528 73.9853 3.672C74.0893 3.808 74.1013 3.98 74.0213 4.188L71.4293 11.556C71.3573 11.732 71.2693 11.864 71.1653 11.952C71.0613 12.04 70.9213 12.084 70.7453 12.084C70.5613 12.084 70.4173 12.04 70.3133 11.952C70.2093 11.864 70.1253 11.728 70.0613 11.544L67.7933 5.052H68.0573L65.7653 11.556C65.7013 11.732 65.6173 11.864 65.5133 11.952C65.4173 12.04 65.2813 12.084 65.1053 12.084ZM76.4403 12.072C76.2483 12.072 76.1003 12.016 75.9963 11.904C75.8923 11.784 75.8403 11.62 75.8403 11.412V6.732C75.8403 6.524 75.8923 6.364 75.9963 6.252C76.1003 6.14 76.2483 6.084 76.4403 6.084C76.6323 6.084 76.7803 6.14 76.8843 6.252C76.9963 6.364 77.0523 6.524 77.0523 6.732V11.412C77.0523 11.62 77.0003 11.784 76.8963 11.904C76.7923 12.016 76.6403 12.072 76.4403 12.072ZM76.4403 4.836C76.2003 4.836 76.0123 4.776 75.8763 4.656C75.7483 4.536 75.6843 4.368 75.6843 4.152C75.6843 3.928 75.7483 3.76 75.8763 3.648C76.0123 3.528 76.2003 3.468 76.4403 3.468C76.6803 3.468 76.8643 3.528 76.9923 3.648C77.1283 3.76 77.1963 3.928 77.1963 4.152C77.1963 4.368 77.1283 4.536 76.9923 4.656C76.8643 4.776 76.6803 4.836 76.4403 4.836ZM81.2543 12.108C80.7743 12.108 80.3703 12.024 80.0423 11.856C79.7143 11.688 79.4703 11.44 79.3103 11.112C79.1503 10.784 79.0703 10.384 79.0703 9.912V7.08H78.3503C78.1903 7.08 78.0663 7.04 77.9783 6.96C77.8902 6.872 77.8462 6.756 77.8462 6.612C77.8462 6.46 77.8902 6.344 77.9783 6.264C78.0663 6.184 78.1903 6.144 78.3503 6.144H79.0703V4.908C79.0703 4.708 79.1223 4.556 79.2263 4.452C79.3383 4.348 79.4903 4.296 79.6823 4.296C79.8743 4.296 80.0223 4.348 80.1263 4.452C80.2303 4.556 80.2823 4.708 80.2823 4.908V6.144H81.6863C81.8463 6.144 81.9703 6.184 82.0583 6.264C82.1463 6.344 82.1903 6.46 82.1903 6.612C82.1903 6.756 82.1463 6.872 82.0583 6.96C81.9703 7.04 81.8463 7.08 81.6863 7.08H80.2823V9.816C80.2823 10.24 80.3703 10.56 80.5463 10.776C80.7303 10.992 81.0263 11.1 81.4342 11.1C81.5783 11.1 81.7023 11.088 81.8063 11.064C81.9183 11.032 82.0103 11.012 82.0823 11.004C82.1703 11.004 82.2423 11.036 82.2983 11.1C82.3543 11.156 82.3823 11.268 82.3823 11.436C82.3823 11.556 82.3583 11.668 82.3103 11.772C82.2703 11.876 82.1943 11.944 82.0823 11.976C81.9863 12.008 81.8543 12.036 81.6863 12.06C81.5263 12.092 81.3823 12.108 81.2543 12.108ZM83.8465 12.084C83.6545 12.084 83.5065 12.032 83.4025 11.928C83.2985 11.816 83.2465 11.664 83.2465 11.472V4.068C83.2465 3.868 83.2985 3.716 83.4025 3.612C83.5065 3.508 83.6545 3.456 83.8465 3.456C84.0385 3.456 84.1865 3.508 84.2905 3.612C84.4025 3.716 84.4585 3.868 84.4585 4.068V7.392H84.2905C84.4665 6.944 84.7425 6.608 85.1185 6.384C85.4945 6.152 85.9265 6.036 86.4145 6.036C86.8785 6.036 87.2625 6.124 87.5665 6.3C87.8785 6.468 88.1105 6.728 88.2625 7.08C88.4145 7.424 88.4905 7.86 88.4905 8.388V11.472C88.4905 11.664 88.4385 11.816 88.3345 11.928C88.2305 12.032 88.0825 12.084 87.8905 12.084C87.6905 12.084 87.5385 12.032 87.4345 11.928C87.3305 11.816 87.2785 11.664 87.2785 11.472V8.46C87.2785 7.956 87.1785 7.588 86.9785 7.356C86.7865 7.124 86.4825 7.008 86.0665 7.008C85.5785 7.008 85.1865 7.16 84.8905 7.464C84.6025 7.768 84.4585 8.176 84.4585 8.688V11.472C84.4585 11.88 84.2545 12.084 83.8465 12.084ZM94.0807 12.084C93.8807 12.084 93.7247 12.028 93.6127 11.916C93.5087 11.804 93.4567 11.648 93.4567 11.448V4.092C93.4567 3.884 93.5087 3.728 93.6127 3.624C93.7247 3.512 93.8807 3.456 94.0807 3.456C94.2807 3.456 94.4327 3.512 94.5367 3.624C94.6487 3.728 94.7047 3.884 94.7047 4.092V11.448C94.7047 11.648 94.6527 11.804 94.5487 11.916C94.4447 12.028 94.2887 12.084 94.0807 12.084ZM99.1156 12.108C98.5156 12.108 97.9956 11.984 97.5556 11.736C97.1236 11.48 96.7876 11.124 96.5476 10.668C96.3076 10.204 96.1876 9.66 96.1876 9.036C96.1876 8.572 96.2556 8.156 96.3916 7.788C96.5276 7.412 96.7196 7.096 96.9676 6.84C97.2236 6.584 97.5316 6.388 97.8916 6.252C98.2596 6.108 98.6676 6.036 99.1156 6.036C99.3956 6.036 99.6876 6.08 99.9916 6.168C100.304 6.248 100.592 6.384 100.856 6.576C100.96 6.64 101.024 6.72 101.048 6.816C101.08 6.904 101.084 6.996 101.06 7.092C101.044 7.188 101 7.272 100.928 7.344C100.864 7.408 100.784 7.448 100.688 7.464C100.592 7.472 100.488 7.444 100.376 7.38C100.184 7.244 99.9876 7.148 99.7876 7.092C99.5876 7.028 99.3956 6.996 99.2116 6.996C98.9236 6.996 98.6676 7.044 98.4436 7.14C98.2276 7.228 98.0436 7.36 97.8916 7.536C97.7396 7.704 97.6236 7.916 97.5436 8.172C97.4716 8.428 97.4356 8.72 97.4356 9.048C97.4356 9.704 97.5876 10.22 97.8916 10.596C98.2036 10.964 98.6436 11.148 99.2116 11.148C99.3956 11.148 99.5876 11.12 99.7876 11.064C99.9876 11.008 100.184 10.912 100.376 10.776C100.488 10.712 100.592 10.688 100.688 10.704C100.784 10.72 100.86 10.764 100.916 10.836C100.98 10.9 101.02 10.98 101.036 11.076C101.06 11.164 101.056 11.256 101.024 11.352C100.992 11.448 100.924 11.528 100.82 11.592C100.564 11.776 100.284 11.908 99.9796 11.988C99.6836 12.068 99.3956 12.108 99.1156 12.108ZM104.564 12.108C103.972 12.108 103.46 11.984 103.028 11.736C102.604 11.488 102.272 11.136 102.032 10.68C101.792 10.224 101.672 9.688 101.672 9.072C101.672 8.6 101.74 8.18 101.876 7.812C102.012 7.444 102.204 7.128 102.452 6.864C102.708 6.592 103.012 6.388 103.364 6.252C103.724 6.108 104.124 6.036 104.564 6.036C105.148 6.036 105.652 6.16 106.076 6.408C106.508 6.656 106.844 7.008 107.084 7.464C107.324 7.912 107.444 8.448 107.444 9.072C107.444 9.536 107.376 9.956 107.24 10.332C107.104 10.708 106.908 11.028 106.652 11.292C106.404 11.556 106.1 11.76 105.74 11.904C105.388 12.04 104.996 12.108 104.564 12.108ZM104.564 11.172C104.892 11.172 105.18 11.092 105.428 10.932C105.676 10.772 105.868 10.536 106.004 10.224C106.148 9.912 106.22 9.528 106.22 9.072C106.22 8.384 106.068 7.864 105.764 7.512C105.46 7.16 105.06 6.984 104.564 6.984C104.228 6.984 103.936 7.064 103.688 7.224C103.44 7.376 103.244 7.608 103.1 7.92C102.964 8.232 102.896 8.616 102.896 9.072C102.896 9.752 103.048 10.272 103.352 10.632C103.656 10.992 104.06 11.172 104.564 11.172ZM109.405 12.084C109.213 12.084 109.065 12.032 108.961 11.928C108.857 11.816 108.805 11.664 108.805 11.472V6.672C108.805 6.472 108.857 6.32 108.961 6.216C109.065 6.112 109.209 6.06 109.393 6.06C109.585 6.06 109.729 6.112 109.825 6.216C109.929 6.32 109.981 6.472 109.981 6.672V7.608L109.849 7.392C110.025 6.944 110.301 6.608 110.677 6.384C111.053 6.152 111.485 6.036 111.973 6.036C112.437 6.036 112.821 6.124 113.125 6.3C113.437 6.468 113.669 6.728 113.821 7.08C113.973 7.424 114.049 7.86 114.049 8.388V11.472C114.049 11.664 113.997 11.816 113.893 11.928C113.789 12.032 113.641 12.084 113.449 12.084C113.249 12.084 113.097 12.032 112.993 11.928C112.889 11.816 112.837 11.664 112.837 11.472V8.46C112.837 7.956 112.737 7.588 112.537 7.356C112.345 7.124 112.041 7.008 111.625 7.008C111.137 7.008 110.745 7.16 110.449 7.464C110.161 7.768 110.017 8.176 110.017 8.688V11.472C110.017 11.88 109.813 12.084 109.405 12.084Z" fill="#64728C"/>
<defs>
<clipPath id="clip0_552_3502">
<rect width="25" height="26" fill="white" transform="translate(10 30.5)"/>
</clipPath>
</defs>
</svg>
