<svg width="210" height="75" viewBox="0 0 210 75" fill="none" xmlns="http://www.w3.org/2000/svg">
<g filter="url(#filter0_d_614_6376)">
<rect x="5" y="21" width="200" height="45" rx="12" fill="white" shape-rendering="crispEdges"/>
<rect x="5.5" y="21.5" width="199" height="44" rx="11.5" stroke="#64728C" shape-rendering="crispEdges"/>
<path d="M17.208 49.744C17.088 49.744 16.992 49.712 16.92 49.648C16.848 49.584 16.804 49.496 16.788 49.384C16.78 49.28 16.8 49.172 16.848 49.06L17.676 47.2V47.62L15.372 42.268C15.324 42.148 15.308 42.036 15.324 41.932C15.34 41.828 15.388 41.744 15.468 41.68C15.548 41.616 15.66 41.584 15.804 41.584C15.932 41.584 16.032 41.612 16.104 41.668C16.176 41.724 16.24 41.824 16.296 41.968L18.264 46.792H17.94L19.932 41.968C19.996 41.824 20.064 41.724 20.136 41.668C20.208 41.612 20.312 41.584 20.448 41.584C20.576 41.584 20.672 41.616 20.736 41.68C20.808 41.744 20.848 41.828 20.856 41.932C20.872 42.028 20.856 42.136 20.808 42.256L17.736 49.36C17.672 49.504 17.6 49.604 17.52 49.66C17.448 49.716 17.344 49.744 17.208 49.744ZM23.5947 49.744C23.4747 49.744 23.3787 49.712 23.3067 49.648C23.2347 49.584 23.1907 49.496 23.1747 49.384C23.1667 49.28 23.1867 49.172 23.2347 49.06L24.0627 47.2V47.62L21.7587 42.268C21.7107 42.148 21.6947 42.036 21.7107 41.932C21.7267 41.828 21.7747 41.744 21.8547 41.68C21.9347 41.616 22.0467 41.584 22.1907 41.584C22.3187 41.584 22.4187 41.612 22.4907 41.668C22.5627 41.724 22.6267 41.824 22.6827 41.968L24.6507 46.792H24.3267L26.3187 41.968C26.3827 41.824 26.4507 41.724 26.5227 41.668C26.5947 41.612 26.6987 41.584 26.8347 41.584C26.9627 41.584 27.0587 41.616 27.1227 41.68C27.1947 41.744 27.2347 41.828 27.2427 41.932C27.2587 42.028 27.2427 42.136 27.1947 42.256L24.1227 49.36C24.0587 49.504 23.9867 49.604 23.9067 49.66C23.8347 49.716 23.7307 49.744 23.5947 49.744ZM29.9814 49.744C29.8614 49.744 29.7654 49.712 29.6934 49.648C29.6214 49.584 29.5774 49.496 29.5614 49.384C29.5534 49.28 29.5734 49.172 29.6214 49.06L30.4494 47.2V47.62L28.1454 42.268C28.0974 42.148 28.0814 42.036 28.0974 41.932C28.1134 41.828 28.1614 41.744 28.2414 41.68C28.3214 41.616 28.4334 41.584 28.5774 41.584C28.7054 41.584 28.8054 41.612 28.8774 41.668C28.9494 41.724 29.0134 41.824 29.0694 41.968L31.0374 46.792H30.7134L32.7054 41.968C32.7694 41.824 32.8374 41.724 32.9094 41.668C32.9814 41.612 33.0854 41.584 33.2214 41.584C33.3494 41.584 33.4454 41.616 33.5094 41.68C33.5814 41.744 33.6214 41.828 33.6294 41.932C33.6454 42.028 33.6294 42.136 33.5814 42.256L30.5094 49.36C30.4454 49.504 30.3734 49.604 30.2934 49.66C30.2214 49.716 30.1174 49.744 29.9814 49.744ZM36.3682 49.744C36.2482 49.744 36.1522 49.712 36.0802 49.648C36.0082 49.584 35.9642 49.496 35.9482 49.384C35.9402 49.28 35.9602 49.172 36.0082 49.06L36.8362 47.2V47.62L34.5322 42.268C34.4842 42.148 34.4682 42.036 34.4842 41.932C34.5002 41.828 34.5482 41.744 34.6282 41.68C34.7082 41.616 34.8202 41.584 34.9642 41.584C35.0922 41.584 35.1922 41.612 35.2642 41.668C35.3362 41.724 35.4002 41.824 35.4562 41.968L37.4242 46.792H37.1002L39.0922 41.968C39.1562 41.824 39.2242 41.724 39.2962 41.668C39.3682 41.612 39.4722 41.584 39.6082 41.584C39.7362 41.584 39.8322 41.616 39.8962 41.68C39.9682 41.744 40.0082 41.828 40.0162 41.932C40.0322 42.028 40.0162 42.136 39.9682 42.256L36.8962 49.36C36.8322 49.504 36.7602 49.604 36.6802 49.66C36.6082 49.716 36.5042 49.744 36.3682 49.744ZM44.618 44.704C44.498 44.704 44.398 44.668 44.318 44.596C44.238 44.516 44.198 44.42 44.198 44.308C44.198 44.188 44.238 44.092 44.318 44.02C44.398 43.94 44.498 43.9 44.618 43.9H47.318C47.43 43.9 47.526 43.94 47.606 44.02C47.686 44.092 47.726 44.188 47.726 44.308C47.726 44.42 47.686 44.516 47.606 44.596C47.526 44.668 47.43 44.704 47.318 44.704H44.618ZM53.0137 47.584C52.8537 47.584 52.7337 47.54 52.6537 47.452C52.5737 47.364 52.5337 47.24 52.5337 47.08V42.076C52.5337 41.916 52.5737 41.796 52.6537 41.716C52.7337 41.628 52.8497 41.584 53.0017 41.584C53.1537 41.584 53.2697 41.628 53.3497 41.716C53.4377 41.796 53.4817 41.916 53.4817 42.076V43.132L53.3497 42.964C53.5017 42.516 53.7457 42.172 54.0817 41.932C54.4257 41.684 54.8337 41.56 55.3057 41.56C55.8017 41.56 56.2017 41.68 56.5057 41.92C56.8177 42.152 57.0257 42.516 57.1297 43.012H56.9497C57.0937 42.564 57.3497 42.212 57.7177 41.956C58.0937 41.692 58.5297 41.56 59.0257 41.56C59.4657 41.56 59.8257 41.644 60.1057 41.812C60.3937 41.98 60.6097 42.236 60.7537 42.58C60.8977 42.916 60.9697 43.344 60.9697 43.864V47.08C60.9697 47.24 60.9257 47.364 60.8377 47.452C60.7577 47.54 60.6377 47.584 60.4777 47.584C60.3257 47.584 60.2057 47.54 60.1177 47.452C60.0377 47.364 59.9977 47.24 59.9977 47.08V43.912C59.9977 43.376 59.9057 42.984 59.7217 42.736C59.5377 42.48 59.2257 42.352 58.7857 42.352C58.3057 42.352 57.9257 42.52 57.6457 42.856C57.3737 43.184 57.2377 43.632 57.2377 44.2V47.08C57.2377 47.24 57.1937 47.364 57.1057 47.452C57.0257 47.54 56.9057 47.584 56.7457 47.584C56.5937 47.584 56.4737 47.54 56.3857 47.452C56.3057 47.364 56.2657 47.24 56.2657 47.08V43.912C56.2657 43.376 56.1697 42.984 55.9777 42.736C55.7937 42.48 55.4857 42.352 55.0537 42.352C54.5737 42.352 54.1937 42.52 53.9137 42.856C53.6417 43.184 53.5057 43.632 53.5057 44.2V47.08C53.5057 47.416 53.3417 47.584 53.0137 47.584ZM63.291 47.584C63.131 47.584 63.011 47.54 62.931 47.452C62.851 47.364 62.811 47.24 62.811 47.08V42.076C62.811 41.916 62.851 41.796 62.931 41.716C63.011 41.628 63.127 41.584 63.279 41.584C63.431 41.584 63.547 41.628 63.627 41.716C63.715 41.796 63.759 41.916 63.759 42.076V43.132L63.627 42.964C63.779 42.516 64.023 42.172 64.359 41.932C64.703 41.684 65.111 41.56 65.583 41.56C66.079 41.56 66.479 41.68 66.783 41.92C67.095 42.152 67.303 42.516 67.407 43.012H67.227C67.371 42.564 67.627 42.212 67.995 41.956C68.371 41.692 68.807 41.56 69.303 41.56C69.743 41.56 70.103 41.644 70.383 41.812C70.671 41.98 70.887 42.236 71.031 42.58C71.175 42.916 71.247 43.344 71.247 43.864V47.08C71.247 47.24 71.203 47.364 71.115 47.452C71.035 47.54 70.915 47.584 70.755 47.584C70.603 47.584 70.483 47.54 70.395 47.452C70.315 47.364 70.275 47.24 70.275 47.08V43.912C70.275 43.376 70.183 42.984 69.999 42.736C69.815 42.48 69.503 42.352 69.063 42.352C68.583 42.352 68.203 42.52 67.923 42.856C67.651 43.184 67.515 43.632 67.515 44.2V47.08C67.515 47.24 67.471 47.364 67.383 47.452C67.303 47.54 67.183 47.584 67.023 47.584C66.871 47.584 66.751 47.54 66.663 47.452C66.583 47.364 66.543 47.24 66.543 47.08V43.912C66.543 43.376 66.447 42.984 66.255 42.736C66.071 42.48 65.763 42.352 65.331 42.352C64.851 42.352 64.471 42.52 64.191 42.856C63.919 43.184 63.783 43.632 63.783 44.2V47.08C63.783 47.416 63.619 47.584 63.291 47.584ZM76.4461 44.704C76.3261 44.704 76.2261 44.668 76.1461 44.596C76.0661 44.516 76.0261 44.42 76.0261 44.308C76.0261 44.188 76.0661 44.092 76.1461 44.02C76.2261 43.94 76.3261 43.9 76.4461 43.9H79.1461C79.2581 43.9 79.3541 43.94 79.4341 44.02C79.5141 44.092 79.5541 44.188 79.5541 44.308C79.5541 44.42 79.5141 44.516 79.4341 44.596C79.3541 44.668 79.2581 44.704 79.1461 44.704H76.4461ZM86.5578 47.608C86.0378 47.608 85.5818 47.484 85.1898 47.236C84.8058 46.988 84.5058 46.64 84.2898 46.192C84.0818 45.736 83.9778 45.2 83.9778 44.584C83.9778 43.96 84.0818 43.424 84.2898 42.976C84.5058 42.52 84.8058 42.172 85.1898 41.932C85.5818 41.684 86.0378 41.56 86.5578 41.56C87.0858 41.56 87.5378 41.692 87.9138 41.956C88.2898 42.22 88.5418 42.576 88.6698 43.024H88.5378V39.448C88.5378 39.288 88.5778 39.168 88.6578 39.088C88.7458 39 88.8698 38.956 89.0298 38.956C89.1818 38.956 89.2978 39 89.3778 39.088C89.4658 39.168 89.5098 39.288 89.5098 39.448V47.08C89.5098 47.24 89.4698 47.364 89.3898 47.452C89.3098 47.54 89.1898 47.584 89.0298 47.584C88.8778 47.584 88.7578 47.54 88.6698 47.452C88.5898 47.364 88.5498 47.24 88.5498 47.08V45.94L88.6818 46.108C88.5538 46.564 88.2978 46.928 87.9138 47.2C87.5378 47.472 87.0858 47.608 86.5578 47.608ZM86.7618 46.828C87.1218 46.828 87.4378 46.74 87.7098 46.564C87.9818 46.388 88.1898 46.132 88.3338 45.796C88.4858 45.46 88.5618 45.056 88.5618 44.584C88.5618 43.856 88.3978 43.3 88.0698 42.916C87.7498 42.532 87.3138 42.34 86.7618 42.34C86.3938 42.34 86.0738 42.428 85.8018 42.604C85.5378 42.772 85.3298 43.024 85.1778 43.36C85.0338 43.688 84.9618 44.096 84.9618 44.584C84.9618 45.304 85.1258 45.86 85.4538 46.252C85.7818 46.636 86.2178 46.828 86.7618 46.828ZM93.5539 47.608C93.0339 47.608 92.5779 47.484 92.1859 47.236C91.8019 46.988 91.5019 46.64 91.2859 46.192C91.0779 45.736 90.9739 45.2 90.9739 44.584C90.9739 43.96 91.0779 43.424 91.2859 42.976C91.5019 42.52 91.8019 42.172 92.1859 41.932C92.5779 41.684 93.0339 41.56 93.5539 41.56C94.0819 41.56 94.5339 41.692 94.9099 41.956C95.2859 42.22 95.5379 42.576 95.6659 43.024H95.5339V39.448C95.5339 39.288 95.5739 39.168 95.6539 39.088C95.7419 39 95.8659 38.956 96.0259 38.956C96.1779 38.956 96.2939 39 96.3739 39.088C96.4619 39.168 96.5059 39.288 96.5059 39.448V47.08C96.5059 47.24 96.4659 47.364 96.3859 47.452C96.3059 47.54 96.1859 47.584 96.0259 47.584C95.8739 47.584 95.7539 47.54 95.6659 47.452C95.5859 47.364 95.5459 47.24 95.5459 47.08V45.94L95.6779 46.108C95.5499 46.564 95.2939 46.928 94.9099 47.2C94.5339 47.472 94.0819 47.608 93.5539 47.608ZM93.7579 46.828C94.1179 46.828 94.4339 46.74 94.7059 46.564C94.9779 46.388 95.1859 46.132 95.3299 45.796C95.4819 45.46 95.5579 45.056 95.5579 44.584C95.5579 43.856 95.3939 43.3 95.0659 42.916C94.7459 42.532 94.3099 42.34 93.7579 42.34C93.3899 42.34 93.0699 42.428 92.7979 42.604C92.5339 42.772 92.3259 43.024 92.1739 43.36C92.0299 43.688 91.9579 44.096 91.9579 44.584C91.9579 45.304 92.1219 45.86 92.4499 46.252C92.7779 46.636 93.2139 46.828 93.7579 46.828Z" fill="#929BAA"/>
<rect x="165" y="25.5" width="36" height="36" rx="12" fill="#64728C" fill-opacity="0.12"/>
<path fill-rule="evenodd" clip-rule="evenodd" d="M177 41.5C177 40.0272 178.194 38.8333 179.667 38.8333H186.333C187.806 38.8333 189 40.0272 189 41.5V46.8333C189 48.3061 187.806 49.5 186.333 49.5H179.667C178.194 49.5 177 48.3061 177 46.8333V41.5ZM179.667 40.1667C178.93 40.1667 178.333 40.7636 178.333 41.5V46.8333C178.333 47.5697 178.93 48.1667 179.667 48.1667H186.333C187.07 48.1667 187.667 47.5697 187.667 46.8333V41.5C187.667 40.7636 187.07 40.1667 186.333 40.1667H179.667Z" fill="#64728C"/>
<path fill-rule="evenodd" clip-rule="evenodd" d="M180.333 37.5C180.701 37.5 181 37.7985 181 38.1667V39.5C181 39.8682 180.701 40.1667 180.333 40.1667C179.965 40.1667 179.667 39.8682 179.667 39.5V38.1667C179.667 37.7985 179.965 37.5 180.333 37.5Z" fill="#64728C"/>
<path fill-rule="evenodd" clip-rule="evenodd" d="M185.667 37.5C186.035 37.5 186.333 37.7985 186.333 38.1667V39.5C186.333 39.8682 186.035 40.1667 185.667 40.1667C185.298 40.1667 185 39.8682 185 39.5V38.1667C185 37.7985 185.298 37.5 185.667 37.5Z" fill="#64728C"/>
<path d="M181 42.1667C181 42.5349 180.701 42.8333 180.333 42.8333C179.965 42.8333 179.667 42.5349 179.667 42.1667C179.667 41.7985 179.965 41.5 180.333 41.5C180.701 41.5 181 41.7985 181 42.1667Z" fill="#64728C"/>
<path d="M183.667 42.1667C183.667 42.5349 183.368 42.8333 183 42.8333C182.632 42.8333 182.333 42.5349 182.333 42.1667C182.333 41.7985 182.632 41.5 183 41.5C183.368 41.5 183.667 41.7985 183.667 42.1667Z" fill="#64728C"/>
<path d="M186.333 42.1667C186.333 42.5349 186.035 42.8333 185.667 42.8333C185.298 42.8333 185 42.5349 185 42.1667C185 41.7985 185.298 41.5 185.667 41.5C186.035 41.5 186.333 41.7985 186.333 42.1667Z" fill="#64728C"/>
<path d="M181 44.8333C181 45.2015 180.701 45.5 180.333 45.5C179.965 45.5 179.667 45.2015 179.667 44.8333C179.667 44.4651 179.965 44.1667 180.333 44.1667C180.701 44.1667 181 44.4651 181 44.8333Z" fill="#64728C"/>
</g>
<path d="M6.656 12C6.44 12 6.272 11.944 6.152 11.832C6.04 11.712 5.984 11.544 5.984 11.328V4.212C5.984 3.996 6.04 3.832 6.152 3.72C6.272 3.6 6.44 3.54 6.656 3.54H8.972C10.364 3.54 11.436 3.904 12.188 4.632C12.948 5.352 13.328 6.396 13.328 7.764C13.328 8.444 13.232 9.048 13.04 9.576C12.848 10.104 12.564 10.548 12.188 10.908C11.82 11.26 11.368 11.532 10.832 11.724C10.296 11.908 9.676 12 8.972 12H6.656ZM7.232 10.956H8.9C9.428 10.956 9.884 10.892 10.268 10.764C10.66 10.628 10.988 10.428 11.252 10.164C11.516 9.9 11.712 9.568 11.84 9.168C11.968 8.768 12.032 8.3 12.032 7.764C12.032 6.7 11.768 5.904 11.24 5.376C10.72 4.848 9.94 4.584 8.9 4.584H7.232V10.956ZM16.7357 12.108C16.3277 12.108 15.9597 12.028 15.6317 11.868C15.3117 11.708 15.0597 11.492 14.8757 11.22C14.6917 10.948 14.5997 10.64 14.5997 10.296C14.5997 9.864 14.7077 9.524 14.9237 9.276C15.1477 9.02 15.5117 8.84 16.0157 8.736C16.5277 8.624 17.2157 8.568 18.0797 8.568H18.6437V9.312H18.0917C17.5157 9.312 17.0597 9.34 16.7237 9.396C16.3877 9.452 16.1477 9.548 16.0037 9.684C15.8677 9.812 15.7997 9.992 15.7997 10.224C15.7997 10.528 15.9037 10.776 16.1117 10.968C16.3197 11.152 16.6077 11.244 16.9757 11.244C17.2717 11.244 17.5317 11.176 17.7557 11.04C17.9797 10.896 18.1557 10.704 18.2837 10.464C18.4197 10.224 18.4877 9.948 18.4877 9.636V8.256C18.4877 7.8 18.3917 7.472 18.1997 7.272C18.0077 7.072 17.6917 6.972 17.2517 6.972C16.9957 6.972 16.7277 7.004 16.4477 7.068C16.1757 7.132 15.8917 7.24 15.5957 7.392C15.4597 7.456 15.3437 7.476 15.2477 7.452C15.1517 7.428 15.0757 7.376 15.0197 7.296C14.9637 7.208 14.9317 7.116 14.9237 7.02C14.9237 6.916 14.9477 6.816 14.9957 6.72C15.0517 6.624 15.1437 6.552 15.2717 6.504C15.6237 6.336 15.9717 6.216 16.3157 6.144C16.6597 6.072 16.9837 6.036 17.2877 6.036C17.8237 6.036 18.2637 6.12 18.6077 6.288C18.9597 6.456 19.2197 6.712 19.3877 7.056C19.5557 7.4 19.6397 7.844 19.6397 8.388V11.472C19.6397 11.664 19.5917 11.816 19.4957 11.928C19.3997 12.032 19.2597 12.084 19.0757 12.084C18.8997 12.084 18.7597 12.032 18.6557 11.928C18.5517 11.816 18.4997 11.664 18.4997 11.472V10.692H18.6077C18.5437 10.988 18.4237 11.244 18.2477 11.46C18.0797 11.668 17.8677 11.828 17.6117 11.94C17.3557 12.052 17.0637 12.108 16.7357 12.108ZM23.805 12.108C23.325 12.108 22.921 12.024 22.593 11.856C22.265 11.688 22.021 11.44 21.861 11.112C21.701 10.784 21.621 10.384 21.621 9.912V7.08H20.901C20.741 7.08 20.617 7.04 20.529 6.96C20.441 6.872 20.397 6.756 20.397 6.612C20.397 6.46 20.441 6.344 20.529 6.264C20.617 6.184 20.741 6.144 20.901 6.144H21.621V4.908C21.621 4.708 21.673 4.556 21.777 4.452C21.889 4.348 22.041 4.296 22.233 4.296C22.425 4.296 22.573 4.348 22.677 4.452C22.781 4.556 22.833 4.708 22.833 4.908V6.144H24.237C24.397 6.144 24.521 6.184 24.609 6.264C24.697 6.344 24.741 6.46 24.741 6.612C24.741 6.756 24.697 6.872 24.609 6.96C24.521 7.04 24.397 7.08 24.237 7.08H22.833V9.816C22.833 10.24 22.921 10.56 23.097 10.776C23.281 10.992 23.577 11.1 23.985 11.1C24.129 11.1 24.253 11.088 24.357 11.064C24.469 11.032 24.561 11.012 24.633 11.004C24.721 11.004 24.793 11.036 24.849 11.1C24.905 11.156 24.933 11.268 24.933 11.436C24.933 11.556 24.909 11.668 24.861 11.772C24.821 11.876 24.745 11.944 24.633 11.976C24.537 12.008 24.405 12.036 24.237 12.06C24.077 12.092 23.933 12.108 23.805 12.108ZM28.3813 12.108C27.7413 12.108 27.1893 11.988 26.7253 11.748C26.2693 11.5 25.9133 11.152 25.6573 10.704C25.4093 10.248 25.2853 9.708 25.2853 9.084C25.2853 8.476 25.4093 7.944 25.6573 7.488C25.9053 7.032 26.2453 6.676 26.6773 6.42C27.1093 6.164 27.6013 6.036 28.1533 6.036C28.5613 6.036 28.9253 6.104 29.2453 6.24C29.5653 6.368 29.8373 6.56 30.0613 6.816C30.2933 7.064 30.4653 7.368 30.5773 7.728C30.6973 8.088 30.7573 8.492 30.7573 8.94C30.7573 9.076 30.7173 9.18 30.6373 9.252C30.5573 9.316 30.4373 9.348 30.2773 9.348H26.2453V8.604H29.9413L29.7373 8.772C29.7373 8.372 29.6773 8.032 29.5573 7.752C29.4453 7.472 29.2733 7.26 29.0413 7.116C28.8173 6.964 28.5373 6.888 28.2013 6.888C27.8253 6.888 27.5053 6.976 27.2413 7.152C26.9853 7.328 26.7893 7.572 26.6533 7.884C26.5173 8.196 26.4493 8.56 26.4493 8.976V9.048C26.4493 9.752 26.6133 10.284 26.9413 10.644C27.2773 10.996 27.7613 11.172 28.3933 11.172C28.6333 11.172 28.8853 11.14 29.1493 11.076C29.4213 11.012 29.6773 10.904 29.9173 10.752C30.0533 10.672 30.1733 10.636 30.2773 10.644C30.3893 10.652 30.4773 10.688 30.5413 10.752C30.6133 10.816 30.6573 10.896 30.6733 10.992C30.6893 11.088 30.6733 11.188 30.6253 11.292C30.5773 11.388 30.4933 11.476 30.3733 11.556C30.1013 11.74 29.7853 11.88 29.4253 11.976C29.0653 12.064 28.7173 12.108 28.3813 12.108Z" fill="#64728C"/>
<defs>
<filter id="filter0_d_614_6376" x="0" y="20" width="210" height="55" filterUnits="userSpaceOnUse" color-interpolation-filters="sRGB">
<feFlood flood-opacity="0" result="BackgroundImageFix"/>
<feColorMatrix in="SourceAlpha" type="matrix" values="0 0 0 0 0 0 0 0 0 0 0 0 0 0 0 0 0 0 127 0" result="hardAlpha"/>
<feOffset dy="4"/>
<feGaussianBlur stdDeviation="2.5"/>
<feComposite in2="hardAlpha" operator="out"/>
<feColorMatrix type="matrix" values="0 0 0 0 0.392157 0 0 0 0 0.447059 0 0 0 0 0.54902 0 0 0 0.15 0"/>
<feBlend mode="normal" in2="BackgroundImageFix" result="effect1_dropShadow_614_6376"/>
<feBlend mode="normal" in="SourceGraphic" in2="effect1_dropShadow_614_6376" result="shape"/>
</filter>
</defs>
</svg>
