<svg width="200" height="66" viewBox="0 0 200 66" fill="none" xmlns="http://www.w3.org/2000/svg">
<rect x="0.5" y="21.5" width="199" height="44" rx="11.5" fill="#E8EAEF"/>
<rect x="0.5" y="21.5" width="199" height="44" rx="11.5" stroke="#E8EAEF"/>
<path d="M16.204 48H10.468C10.476 47.304 10.644 46.696 10.972 46.176C11.3 45.656 11.748 45.204 12.316 44.82C12.588 44.62 12.872 44.428 13.168 44.244C13.464 44.052 13.736 43.848 13.984 43.632C14.232 43.416 14.436 43.184 14.596 42.936C14.756 42.68 14.84 42.388 14.848 42.06C14.848 41.908 14.828 41.748 14.788 41.58C14.756 41.404 14.688 41.244 14.584 41.1C14.48 40.948 14.336 40.824 14.152 40.728C13.968 40.624 13.728 40.572 13.432 40.572C13.16 40.572 12.932 40.628 12.748 40.74C12.572 40.844 12.428 40.992 12.316 41.184C12.212 41.368 12.132 41.588 12.076 41.844C12.028 42.1 12 42.376 11.992 42.672H10.624C10.624 42.208 10.684 41.78 10.804 41.388C10.932 40.988 11.12 40.644 11.368 40.356C11.616 40.068 11.916 39.844 12.268 39.684C12.628 39.516 13.044 39.432 13.516 39.432C14.028 39.432 14.456 39.516 14.8 39.684C15.144 39.852 15.42 40.064 15.628 40.32C15.844 40.576 15.996 40.856 16.084 41.16C16.172 41.456 16.216 41.74 16.216 42.012C16.216 42.348 16.164 42.652 16.06 42.924C15.956 43.196 15.816 43.448 15.64 43.68C15.464 43.904 15.264 44.112 15.04 44.304C14.816 44.496 14.584 44.676 14.344 44.844C14.104 45.012 13.864 45.172 13.624 45.324C13.384 45.476 13.16 45.628 12.952 45.78C12.752 45.932 12.576 46.092 12.424 46.26C12.272 46.42 12.168 46.592 12.112 46.776H16.204V48ZM20.004 39.432C20.604 39.432 21.092 39.572 21.468 39.852C21.852 40.124 22.148 40.476 22.356 40.908C22.572 41.332 22.716 41.8 22.788 42.312C22.868 42.824 22.908 43.32 22.908 43.8C22.908 44.28 22.868 44.776 22.788 45.288C22.716 45.8 22.572 46.272 22.356 46.704C22.148 47.128 21.852 47.48 21.468 47.76C21.092 48.032 20.604 48.168 20.004 48.168C19.404 48.168 18.912 48.032 18.528 47.76C18.152 47.48 17.856 47.128 17.64 46.704C17.432 46.272 17.288 45.8 17.208 45.288C17.136 44.776 17.1 44.28 17.1 43.8C17.1 43.32 17.136 42.824 17.208 42.312C17.288 41.8 17.432 41.332 17.64 40.908C17.856 40.476 18.152 40.124 18.528 39.852C18.912 39.572 19.404 39.432 20.004 39.432ZM20.004 47.028C20.3 47.028 20.548 46.944 20.748 46.776C20.948 46.6 21.104 46.368 21.216 46.08C21.336 45.784 21.42 45.44 21.468 45.048C21.516 44.656 21.54 44.24 21.54 43.8C21.54 43.36 21.516 42.948 21.468 42.564C21.42 42.172 21.336 41.828 21.216 41.532C21.104 41.236 20.948 41.004 20.748 40.836C20.548 40.66 20.3 40.572 20.004 40.572C19.7 40.572 19.448 40.66 19.248 40.836C19.056 41.004 18.9 41.236 18.78 41.532C18.668 41.828 18.588 42.172 18.54 42.564C18.492 42.948 18.468 43.36 18.468 43.8C18.468 44.24 18.492 44.656 18.54 45.048C18.588 45.44 18.668 45.784 18.78 46.08C18.9 46.368 19.056 46.6 19.248 46.776C19.448 46.944 19.7 47.028 20.004 47.028ZM29.5399 48H23.8039C23.8119 47.304 23.9799 46.696 24.3079 46.176C24.6359 45.656 25.0839 45.204 25.6519 44.82C25.9239 44.62 26.2079 44.428 26.5039 44.244C26.7999 44.052 27.0719 43.848 27.3199 43.632C27.5679 43.416 27.7719 43.184 27.9319 42.936C28.0919 42.68 28.1759 42.388 28.1839 42.06C28.1839 41.908 28.1639 41.748 28.1239 41.58C28.0919 41.404 28.0239 41.244 27.9199 41.1C27.8159 40.948 27.6719 40.824 27.4879 40.728C27.3039 40.624 27.0639 40.572 26.7679 40.572C26.4959 40.572 26.2679 40.628 26.0839 40.74C25.9079 40.844 25.7639 40.992 25.6519 41.184C25.5479 41.368 25.4679 41.588 25.4119 41.844C25.3639 42.1 25.3359 42.376 25.3279 42.672H23.9599C23.9599 42.208 24.0199 41.78 24.1399 41.388C24.2679 40.988 24.4559 40.644 24.7039 40.356C24.9519 40.068 25.2519 39.844 25.6039 39.684C25.9639 39.516 26.3799 39.432 26.8519 39.432C27.3639 39.432 27.7919 39.516 28.1359 39.684C28.4799 39.852 28.7559 40.064 28.9639 40.32C29.1799 40.576 29.3319 40.856 29.4199 41.16C29.5079 41.456 29.5519 41.74 29.5519 42.012C29.5519 42.348 29.4999 42.652 29.3959 42.924C29.2919 43.196 29.1519 43.448 28.9759 43.68C28.7999 43.904 28.5999 44.112 28.3759 44.304C28.1519 44.496 27.9199 44.676 27.6799 44.844C27.4399 45.012 27.1999 45.172 26.9599 45.324C26.7199 45.476 26.4959 45.628 26.2879 45.78C26.0879 45.932 25.9119 46.092 25.7599 46.26C25.6079 46.42 25.5039 46.592 25.4479 46.776H29.5399V48ZM31.3479 44.928H33.8919V41.232H33.8679L31.3479 44.928ZM36.2679 46.008H35.1879V48H33.8919V46.008H30.2919V44.652L33.8919 39.6H35.1879V44.928H36.2679V46.008ZM40.5997 44.088H44.0917V45.384H40.5997V44.088ZM51.3516 39.432C51.9516 39.432 52.4396 39.572 52.8156 39.852C53.1996 40.124 53.4956 40.476 53.7036 40.908C53.9196 41.332 54.0636 41.8 54.1356 42.312C54.2156 42.824 54.2556 43.32 54.2556 43.8C54.2556 44.28 54.2156 44.776 54.1356 45.288C54.0636 45.8 53.9196 46.272 53.7036 46.704C53.4956 47.128 53.1996 47.48 52.8156 47.76C52.4396 48.032 51.9516 48.168 51.3516 48.168C50.7516 48.168 50.2596 48.032 49.8756 47.76C49.4996 47.48 49.2036 47.128 48.9876 46.704C48.7796 46.272 48.6356 45.8 48.5556 45.288C48.4836 44.776 48.4476 44.28 48.4476 43.8C48.4476 43.32 48.4836 42.824 48.5556 42.312C48.6356 41.8 48.7796 41.332 48.9876 40.908C49.2036 40.476 49.4996 40.124 49.8756 39.852C50.2596 39.572 50.7516 39.432 51.3516 39.432ZM51.3516 47.028C51.6476 47.028 51.8956 46.944 52.0956 46.776C52.2956 46.6 52.4516 46.368 52.5636 46.08C52.6836 45.784 52.7676 45.44 52.8156 45.048C52.8636 44.656 52.8876 44.24 52.8876 43.8C52.8876 43.36 52.8636 42.948 52.8156 42.564C52.7676 42.172 52.6836 41.828 52.5636 41.532C52.4516 41.236 52.2956 41.004 52.0956 40.836C51.8956 40.66 51.6476 40.572 51.3516 40.572C51.0476 40.572 50.7956 40.66 50.5956 40.836C50.4036 41.004 50.2476 41.236 50.1276 41.532C50.0156 41.828 49.9356 42.172 49.8876 42.564C49.8396 42.948 49.8156 43.36 49.8156 43.8C49.8156 44.24 49.8396 44.656 49.8876 45.048C49.9356 45.44 50.0156 45.784 50.1276 46.08C50.2476 46.368 50.4036 46.6 50.5956 46.776C50.7956 46.944 51.0476 47.028 51.3516 47.028ZM59.4236 41.724C59.3916 41.38 59.2676 41.104 59.0516 40.896C58.8436 40.68 58.5596 40.572 58.1996 40.572C57.9516 40.572 57.7356 40.62 57.5516 40.716C57.3756 40.804 57.2236 40.924 57.0956 41.076C56.9756 41.228 56.8756 41.404 56.7956 41.604C56.7236 41.796 56.6636 42 56.6156 42.216C56.5676 42.432 56.5316 42.648 56.5076 42.864C56.4916 43.072 56.4756 43.268 56.4596 43.452L56.4836 43.476C56.6676 43.14 56.9196 42.892 57.2396 42.732C57.5676 42.564 57.9196 42.48 58.2956 42.48C58.7116 42.48 59.0836 42.552 59.4116 42.696C59.7396 42.84 60.0156 43.04 60.2396 43.296C60.4716 43.544 60.6476 43.84 60.7676 44.184C60.8876 44.528 60.9476 44.9 60.9476 45.3C60.9476 45.708 60.8796 46.088 60.7436 46.44C60.6156 46.784 60.4276 47.088 60.1796 47.352C59.9316 47.608 59.6356 47.808 59.2916 47.952C58.9476 48.096 58.5676 48.168 58.1516 48.168C57.5356 48.168 57.0276 48.056 56.6276 47.832C56.2356 47.6 55.9236 47.288 55.6916 46.896C55.4676 46.496 55.3116 46.032 55.2236 45.504C55.1356 44.968 55.0916 44.392 55.0916 43.776C55.0916 43.272 55.1436 42.764 55.2476 42.252C55.3596 41.74 55.5396 41.276 55.7876 40.86C56.0356 40.436 56.3596 40.092 56.7596 39.828C57.1676 39.564 57.6676 39.432 58.2596 39.432C58.5956 39.432 58.9116 39.488 59.2076 39.6C59.5036 39.712 59.7636 39.868 59.9876 40.068C60.2196 40.268 60.4076 40.508 60.5516 40.788C60.6956 41.068 60.7756 41.38 60.7916 41.724H59.4236ZM58.1036 47.028C58.3516 47.028 58.5676 46.98 58.7516 46.884C58.9356 46.78 59.0876 46.648 59.2076 46.488C59.3356 46.328 59.4276 46.144 59.4836 45.936C59.5476 45.72 59.5796 45.5 59.5796 45.276C59.5796 45.052 59.5476 44.836 59.4836 44.628C59.4276 44.42 59.3356 44.24 59.2076 44.088C59.0876 43.928 58.9356 43.8 58.7516 43.704C58.5676 43.608 58.3516 43.56 58.1036 43.56C57.8556 43.56 57.6356 43.608 57.4436 43.704C57.2596 43.792 57.1036 43.916 56.9756 44.076C56.8476 44.228 56.7516 44.408 56.6876 44.616C56.6236 44.824 56.5916 45.044 56.5916 45.276C56.5916 45.508 56.6236 45.728 56.6876 45.936C56.7516 46.144 56.8476 46.332 56.9756 46.5C57.1036 46.66 57.2596 46.788 57.4436 46.884C57.6356 46.98 57.8556 47.028 58.1036 47.028ZM65.2794 44.088H68.7714V45.384H65.2794V44.088ZM78.8993 48H73.1633C73.1713 47.304 73.3393 46.696 73.6673 46.176C73.9953 45.656 74.4433 45.204 75.0113 44.82C75.2833 44.62 75.5673 44.428 75.8633 44.244C76.1593 44.052 76.4313 43.848 76.6793 43.632C76.9273 43.416 77.1313 43.184 77.2913 42.936C77.4513 42.68 77.5353 42.388 77.5433 42.06C77.5433 41.908 77.5233 41.748 77.4833 41.58C77.4513 41.404 77.3833 41.244 77.2793 41.1C77.1753 40.948 77.0313 40.824 76.8473 40.728C76.6633 40.624 76.4233 40.572 76.1273 40.572C75.8553 40.572 75.6273 40.628 75.4433 40.74C75.2673 40.844 75.1233 40.992 75.0113 41.184C74.9073 41.368 74.8273 41.588 74.7713 41.844C74.7233 42.1 74.6953 42.376 74.6873 42.672H73.3193C73.3193 42.208 73.3793 41.78 73.4993 41.388C73.6273 40.988 73.8153 40.644 74.0633 40.356C74.3113 40.068 74.6113 39.844 74.9633 39.684C75.3233 39.516 75.7393 39.432 76.2113 39.432C76.7233 39.432 77.1513 39.516 77.4953 39.684C77.8393 39.852 78.1153 40.064 78.3233 40.32C78.5393 40.576 78.6913 40.856 78.7793 41.16C78.8673 41.456 78.9113 41.74 78.9113 42.012C78.9113 42.348 78.8593 42.652 78.7553 42.924C78.6513 43.196 78.5113 43.448 78.3353 43.68C78.1593 43.904 77.9593 44.112 77.7353 44.304C77.5113 44.496 77.2793 44.676 77.0393 44.844C76.7993 45.012 76.5593 45.172 76.3193 45.324C76.0793 45.476 75.8553 45.628 75.6473 45.78C75.4473 45.932 75.2713 46.092 75.1193 46.26C74.9673 46.42 74.8633 46.592 74.8073 46.776H78.8993V48ZM79.7833 39.6H85.5313V40.74C85.0913 41.236 84.6913 41.752 84.3313 42.288C83.9713 42.816 83.6553 43.38 83.3833 43.98C83.1193 44.572 82.9033 45.2 82.7353 45.864C82.5673 46.528 82.4553 47.24 82.3993 48H80.8993C80.9473 47.336 81.0593 46.68 81.2353 46.032C81.4193 45.384 81.6513 44.756 81.9313 44.148C82.2193 43.54 82.5513 42.956 82.9273 42.396C83.3033 41.836 83.7073 41.312 84.1393 40.824H79.7833V39.6Z" fill="#64728C"/>
<path d="M1.656 12C1.44 12 1.272 11.944 1.152 11.832C1.04 11.712 0.984 11.544 0.984 11.328V4.212C0.984 3.996 1.04 3.832 1.152 3.72C1.272 3.6 1.44 3.54 1.656 3.54H3.972C5.364 3.54 6.436 3.904 7.188 4.632C7.948 5.352 8.328 6.396 8.328 7.764C8.328 8.444 8.232 9.048 8.04 9.576C7.848 10.104 7.564 10.548 7.188 10.908C6.82 11.26 6.368 11.532 5.832 11.724C5.296 11.908 4.676 12 3.972 12H1.656ZM2.232 10.956H3.9C4.428 10.956 4.884 10.892 5.268 10.764C5.66 10.628 5.988 10.428 6.252 10.164C6.516 9.9 6.712 9.568 6.84 9.168C6.968 8.768 7.032 8.3 7.032 7.764C7.032 6.7 6.768 5.904 6.24 5.376C5.72 4.848 4.94 4.584 3.9 4.584H2.232V10.956ZM11.7357 12.108C11.3277 12.108 10.9597 12.028 10.6317 11.868C10.3117 11.708 10.0597 11.492 9.87572 11.22C9.69172 10.948 9.59972 10.64 9.59972 10.296C9.59972 9.864 9.70772 9.524 9.92372 9.276C10.1477 9.02 10.5117 8.84 11.0157 8.736C11.5277 8.624 12.2157 8.568 13.0797 8.568H13.6437V9.312H13.0917C12.5157 9.312 12.0597 9.34 11.7237 9.396C11.3877 9.452 11.1477 9.548 11.0037 9.684C10.8677 9.812 10.7997 9.992 10.7997 10.224C10.7997 10.528 10.9037 10.776 11.1117 10.968C11.3197 11.152 11.6077 11.244 11.9757 11.244C12.2717 11.244 12.5317 11.176 12.7557 11.04C12.9797 10.896 13.1557 10.704 13.2837 10.464C13.4197 10.224 13.4877 9.948 13.4877 9.636V8.256C13.4877 7.8 13.3917 7.472 13.1997 7.272C13.0077 7.072 12.6917 6.972 12.2517 6.972C11.9957 6.972 11.7277 7.004 11.4477 7.068C11.1757 7.132 10.8917 7.24 10.5957 7.392C10.4597 7.456 10.3437 7.476 10.2477 7.452C10.1517 7.428 10.0757 7.376 10.0197 7.296C9.96372 7.208 9.93172 7.116 9.92372 7.02C9.92372 6.916 9.94772 6.816 9.99572 6.72C10.0517 6.624 10.1437 6.552 10.2717 6.504C10.6237 6.336 10.9717 6.216 11.3157 6.144C11.6597 6.072 11.9837 6.036 12.2877 6.036C12.8237 6.036 13.2637 6.12 13.6077 6.288C13.9597 6.456 14.2197 6.712 14.3877 7.056C14.5557 7.4 14.6397 7.844 14.6397 8.388V11.472C14.6397 11.664 14.5917 11.816 14.4957 11.928C14.3997 12.032 14.2597 12.084 14.0757 12.084C13.8997 12.084 13.7597 12.032 13.6557 11.928C13.5517 11.816 13.4997 11.664 13.4997 11.472V10.692H13.6077C13.5437 10.988 13.4237 11.244 13.2477 11.46C13.0797 11.668 12.8677 11.828 12.6117 11.94C12.3557 12.052 12.0637 12.108 11.7357 12.108ZM18.805 12.108C18.325 12.108 17.921 12.024 17.593 11.856C17.265 11.688 17.021 11.44 16.861 11.112C16.701 10.784 16.621 10.384 16.621 9.912V7.08H15.901C15.741 7.08 15.617 7.04 15.529 6.96C15.441 6.872 15.397 6.756 15.397 6.612C15.397 6.46 15.441 6.344 15.529 6.264C15.617 6.184 15.741 6.144 15.901 6.144H16.621V4.908C16.621 4.708 16.673 4.556 16.777 4.452C16.889 4.348 17.041 4.296 17.233 4.296C17.425 4.296 17.573 4.348 17.677 4.452C17.781 4.556 17.833 4.708 17.833 4.908V6.144H19.237C19.397 6.144 19.521 6.184 19.609 6.264C19.697 6.344 19.741 6.46 19.741 6.612C19.741 6.756 19.697 6.872 19.609 6.96C19.521 7.04 19.397 7.08 19.237 7.08H17.833V9.816C17.833 10.24 17.921 10.56 18.097 10.776C18.281 10.992 18.577 11.1 18.985 11.1C19.129 11.1 19.253 11.088 19.357 11.064C19.469 11.032 19.561 11.012 19.633 11.004C19.721 11.004 19.793 11.036 19.849 11.1C19.905 11.156 19.933 11.268 19.933 11.436C19.933 11.556 19.909 11.668 19.861 11.772C19.821 11.876 19.745 11.944 19.633 11.976C19.537 12.008 19.405 12.036 19.237 12.06C19.077 12.092 18.933 12.108 18.805 12.108ZM23.3813 12.108C22.7413 12.108 22.1893 11.988 21.7253 11.748C21.2693 11.5 20.9133 11.152 20.6573 10.704C20.4093 10.248 20.2853 9.708 20.2853 9.084C20.2853 8.476 20.4093 7.944 20.6573 7.488C20.9053 7.032 21.2453 6.676 21.6773 6.42C22.1093 6.164 22.6013 6.036 23.1533 6.036C23.5613 6.036 23.9253 6.104 24.2453 6.24C24.5653 6.368 24.8373 6.56 25.0613 6.816C25.2933 7.064 25.4653 7.368 25.5773 7.728C25.6973 8.088 25.7573 8.492 25.7573 8.94C25.7573 9.076 25.7173 9.18 25.6373 9.252C25.5573 9.316 25.4373 9.348 25.2773 9.348H21.2453V8.604H24.9413L24.7373 8.772C24.7373 8.372 24.6773 8.032 24.5573 7.752C24.4453 7.472 24.2733 7.26 24.0413 7.116C23.8173 6.964 23.5373 6.888 23.2013 6.888C22.8253 6.888 22.5053 6.976 22.2413 7.152C21.9853 7.328 21.7893 7.572 21.6533 7.884C21.5173 8.196 21.4493 8.56 21.4493 8.976V9.048C21.4493 9.752 21.6133 10.284 21.9413 10.644C22.2773 10.996 22.7613 11.172 23.3933 11.172C23.6333 11.172 23.8853 11.14 24.1493 11.076C24.4213 11.012 24.6773 10.904 24.9173 10.752C25.0533 10.672 25.1733 10.636 25.2773 10.644C25.3893 10.652 25.4773 10.688 25.5413 10.752C25.6133 10.816 25.6573 10.896 25.6733 10.992C25.6893 11.088 25.6733 11.188 25.6253 11.292C25.5773 11.388 25.4933 11.476 25.3733 11.556C25.1013 11.74 24.7853 11.88 24.4253 11.976C24.0653 12.064 23.7173 12.108 23.3813 12.108Z" fill="#64728C"/>
</svg>
