<svg width="200" height="66" viewBox="0 0 200 66" fill="none" xmlns="http://www.w3.org/2000/svg">
<rect x="0.5" y="21.5" width="199" height="44" rx="11.5" stroke="#E8EAEF"/>
<path d="M10.912 39.432H16.828V40.728H12.412V42.972H16.288V44.196H12.412V48H10.912V39.432ZM22.0933 44.352C22.0773 44.136 22.0293 43.928 21.9493 43.728C21.8773 43.528 21.7733 43.356 21.6373 43.212C21.5093 43.06 21.3493 42.94 21.1573 42.852C20.9733 42.756 20.7653 42.708 20.5333 42.708C20.2933 42.708 20.0733 42.752 19.8733 42.84C19.6813 42.92 19.5133 43.036 19.3693 43.188C19.2333 43.332 19.1213 43.504 19.0333 43.704C18.9533 43.904 18.9093 44.12 18.9013 44.352H22.0933ZM18.9013 45.252C18.9013 45.492 18.9333 45.724 18.9973 45.948C19.0693 46.172 19.1733 46.368 19.3093 46.536C19.4453 46.704 19.6173 46.84 19.8253 46.944C20.0333 47.04 20.2813 47.088 20.5693 47.088C20.9693 47.088 21.2893 47.004 21.5293 46.836C21.7773 46.66 21.9613 46.4 22.0813 46.056H23.3773C23.3053 46.392 23.1813 46.692 23.0053 46.956C22.8293 47.22 22.6173 47.444 22.3693 47.628C22.1213 47.804 21.8413 47.936 21.5293 48.024C21.2253 48.12 20.9053 48.168 20.5693 48.168C20.0813 48.168 19.6493 48.088 19.2733 47.928C18.8973 47.768 18.5773 47.544 18.3133 47.256C18.0573 46.968 17.8613 46.624 17.7253 46.224C17.5973 45.824 17.5333 45.384 17.5333 44.904C17.5333 44.464 17.6013 44.048 17.7373 43.656C17.8813 43.256 18.0813 42.908 18.3373 42.612C18.6013 42.308 18.9173 42.068 19.2853 41.892C19.6533 41.716 20.0693 41.628 20.5333 41.628C21.0213 41.628 21.4573 41.732 21.8413 41.94C22.2333 42.14 22.5573 42.408 22.8133 42.744C23.0693 43.08 23.2533 43.468 23.3653 43.908C23.4853 44.34 23.5173 44.788 23.4613 45.252H18.9013ZM24.5373 39.432H25.9053V42.6H25.9293C26.0253 42.448 26.1413 42.312 26.2773 42.192C26.4133 42.072 26.5613 41.972 26.7213 41.892C26.8893 41.804 27.0613 41.74 27.2373 41.7C27.4213 41.652 27.6013 41.628 27.7773 41.628C28.2653 41.628 28.6893 41.716 29.0493 41.892C29.4173 42.06 29.7213 42.296 29.9613 42.6C30.2013 42.896 30.3813 43.244 30.5013 43.644C30.6213 44.044 30.6813 44.472 30.6813 44.928C30.6813 45.344 30.6253 45.748 30.5133 46.14C30.4093 46.532 30.2453 46.88 30.0213 47.184C29.8053 47.48 29.5293 47.72 29.1933 47.904C28.8573 48.08 28.4613 48.168 28.0053 48.168C27.7973 48.168 27.5853 48.152 27.3693 48.12C27.1613 48.096 26.9613 48.044 26.7693 47.964C26.5773 47.884 26.4013 47.78 26.2413 47.652C26.0893 47.524 25.9613 47.356 25.8573 47.148H25.8333V48H24.5373V39.432ZM29.3133 44.904C29.3133 44.624 29.2773 44.352 29.2053 44.088C29.1333 43.824 29.0253 43.592 28.8813 43.392C28.7373 43.184 28.5573 43.02 28.3413 42.9C28.1253 42.772 27.8773 42.708 27.5973 42.708C27.0213 42.708 26.5853 42.908 26.2893 43.308C26.0013 43.708 25.8573 44.24 25.8573 44.904C25.8573 45.216 25.8933 45.508 25.9653 45.78C26.0453 46.044 26.1613 46.272 26.3133 46.464C26.4653 46.656 26.6453 46.808 26.8533 46.92C27.0693 47.032 27.3173 47.088 27.5973 47.088C27.9093 47.088 28.1733 47.024 28.3893 46.896C28.6053 46.768 28.7813 46.604 28.9173 46.404C29.0613 46.196 29.1613 45.964 29.2173 45.708C29.2813 45.444 29.3133 45.176 29.3133 44.904ZM31.8372 41.796H33.1212V42.996H33.1452C33.1852 42.828 33.2612 42.664 33.3732 42.504C33.4932 42.344 33.6332 42.2 33.7932 42.072C33.9612 41.936 34.1452 41.828 34.3452 41.748C34.5452 41.668 34.7492 41.628 34.9572 41.628C35.1172 41.628 35.2252 41.632 35.2812 41.64C35.3452 41.648 35.4092 41.656 35.4732 41.664V42.984C35.3772 42.968 35.2772 42.956 35.1732 42.948C35.0772 42.932 34.9812 42.924 34.8852 42.924C34.6532 42.924 34.4332 42.972 34.2252 43.068C34.0252 43.156 33.8492 43.292 33.6972 43.476C33.5452 43.652 33.4252 43.872 33.3372 44.136C33.2492 44.4 33.2052 44.704 33.2052 45.048V48H31.8372V41.796ZM41.5039 48H40.1599V47.136H40.1359C39.9679 47.448 39.7159 47.7 39.3799 47.892C39.0519 48.076 38.7159 48.168 38.3719 48.168C37.5559 48.168 36.9639 47.968 36.5959 47.568C36.2359 47.16 36.0559 46.548 36.0559 45.732V41.796H37.4239V45.6C37.4239 46.144 37.5279 46.528 37.7359 46.752C37.9439 46.976 38.2359 47.088 38.6119 47.088C38.8999 47.088 39.1399 47.044 39.3319 46.956C39.5239 46.868 39.6799 46.752 39.7999 46.608C39.9199 46.456 40.0039 46.276 40.0519 46.068C40.1079 45.86 40.1359 45.636 40.1359 45.396V41.796H41.5039V48ZM48.1426 46.62C48.1426 46.788 48.1626 46.908 48.2026 46.98C48.2506 47.052 48.3386 47.088 48.4666 47.088C48.5066 47.088 48.5546 47.088 48.6106 47.088C48.6666 47.088 48.7306 47.08 48.8026 47.064V48.012C48.7546 48.028 48.6906 48.044 48.6106 48.06C48.5386 48.084 48.4626 48.104 48.3826 48.12C48.3026 48.136 48.2226 48.148 48.1426 48.156C48.0626 48.164 47.9946 48.168 47.9386 48.168C47.6586 48.168 47.4266 48.112 47.2426 48C47.0586 47.888 46.9386 47.692 46.8826 47.412C46.6106 47.676 46.2746 47.868 45.8746 47.988C45.4826 48.108 45.1026 48.168 44.7346 48.168C44.4546 48.168 44.1866 48.128 43.9306 48.048C43.6746 47.976 43.4466 47.868 43.2466 47.724C43.0546 47.572 42.8986 47.384 42.7786 47.16C42.6666 46.928 42.6106 46.66 42.6106 46.356C42.6106 45.972 42.6786 45.66 42.8146 45.42C42.9586 45.18 43.1426 44.992 43.3666 44.856C43.5986 44.72 43.8546 44.624 44.1346 44.568C44.4226 44.504 44.7106 44.456 44.9986 44.424C45.2466 44.376 45.4826 44.344 45.7066 44.328C45.9306 44.304 46.1266 44.268 46.2946 44.22C46.4706 44.172 46.6066 44.1 46.7026 44.004C46.8066 43.9 46.8586 43.748 46.8586 43.548C46.8586 43.372 46.8146 43.228 46.7266 43.116C46.6466 43.004 46.5426 42.92 46.4146 42.864C46.2946 42.8 46.1586 42.76 46.0066 42.744C45.8546 42.72 45.7106 42.708 45.5746 42.708C45.1906 42.708 44.8746 42.788 44.6266 42.948C44.3786 43.108 44.2386 43.356 44.2066 43.692H42.8386C42.8626 43.292 42.9586 42.96 43.1266 42.696C43.2946 42.432 43.5066 42.22 43.7626 42.06C44.0266 41.9 44.3226 41.788 44.6506 41.724C44.9786 41.66 45.3146 41.628 45.6586 41.628C45.9626 41.628 46.2626 41.66 46.5586 41.724C46.8546 41.788 47.1186 41.892 47.3506 42.036C47.5906 42.18 47.7826 42.368 47.9266 42.6C48.0706 42.824 48.1426 43.1 48.1426 43.428V46.62ZM46.7746 44.892C46.5666 45.028 46.3106 45.112 46.0066 45.144C45.7026 45.168 45.3986 45.208 45.0946 45.264C44.9506 45.288 44.8106 45.324 44.6746 45.372C44.5386 45.412 44.4186 45.472 44.3146 45.552C44.2106 45.624 44.1266 45.724 44.0626 45.852C44.0066 45.972 43.9786 46.12 43.9786 46.296C43.9786 46.448 44.0226 46.576 44.1106 46.68C44.1986 46.784 44.3026 46.868 44.4226 46.932C44.5506 46.988 44.6866 47.028 44.8306 47.052C44.9826 47.076 45.1186 47.088 45.2386 47.088C45.3906 47.088 45.5546 47.068 45.7306 47.028C45.9066 46.988 46.0706 46.92 46.2226 46.824C46.3826 46.728 46.5146 46.608 46.6186 46.464C46.7226 46.312 46.7746 46.128 46.7746 45.912V44.892ZM49.6145 41.796H50.8985V42.996H50.9225C50.9625 42.828 51.0385 42.664 51.1505 42.504C51.2705 42.344 51.4105 42.2 51.5705 42.072C51.7385 41.936 51.9225 41.828 52.1225 41.748C52.3225 41.668 52.5265 41.628 52.7345 41.628C52.8945 41.628 53.0025 41.632 53.0585 41.64C53.1225 41.648 53.1865 41.656 53.2505 41.664V42.984C53.1545 42.968 53.0545 42.956 52.9505 42.948C52.8545 42.932 52.7585 42.924 52.6625 42.924C52.4305 42.924 52.2105 42.972 52.0025 43.068C51.8025 43.156 51.6265 43.292 51.4745 43.476C51.3225 43.652 51.2025 43.872 51.1145 44.136C51.0265 44.4 50.9825 44.704 50.9825 45.048V48H49.6145V41.796ZM53.1493 41.796H54.6493L56.2693 46.428H56.2933L57.8653 41.796H59.2933L56.8813 48.336C56.7693 48.616 56.6573 48.884 56.5453 49.14C56.4413 49.396 56.3093 49.62 56.1493 49.812C55.9973 50.012 55.8053 50.168 55.5733 50.28C55.3413 50.4 55.0453 50.46 54.6853 50.46C54.3653 50.46 54.0493 50.436 53.7373 50.388V49.236C53.8493 49.252 53.9573 49.268 54.0613 49.284C54.1653 49.308 54.2733 49.32 54.3853 49.32C54.5453 49.32 54.6773 49.3 54.7813 49.26C54.8853 49.22 54.9693 49.16 55.0333 49.08C55.1053 49.008 55.1653 48.92 55.2133 48.816C55.2613 48.712 55.3053 48.592 55.3453 48.456L55.5013 47.976L53.1493 41.796ZM63.2638 44.088H66.7558V45.384H63.2638V44.088ZM71.3157 40.992C71.6037 40.992 71.8837 40.968 72.1557 40.92C72.4277 40.872 72.6717 40.792 72.8877 40.68C73.1117 40.568 73.2997 40.424 73.4517 40.248C73.6117 40.072 73.7157 39.856 73.7637 39.6H74.8797V48H73.3797V42.072H71.3157V40.992ZM77.7677 39.6H83.5157V40.74C83.0757 41.236 82.6757 41.752 82.3157 42.288C81.9557 42.816 81.6397 43.38 81.3677 43.98C81.1037 44.572 80.8877 45.2 80.7197 45.864C80.5517 46.528 80.4397 47.24 80.3837 48H78.8837C78.9317 47.336 79.0437 46.68 79.2197 46.032C79.4037 45.384 79.6357 44.756 79.9157 44.148C80.2037 43.54 80.5357 42.956 80.9117 42.396C81.2877 41.836 81.6917 41.312 82.1237 40.824H77.7677V39.6ZM87.9435 44.088H91.4355V45.384H87.9435V44.088ZM101.563 48H95.8274C95.8354 47.304 96.0034 46.696 96.3314 46.176C96.6594 45.656 97.1074 45.204 97.6754 44.82C97.9474 44.62 98.2314 44.428 98.5274 44.244C98.8234 44.052 99.0954 43.848 99.3434 43.632C99.5914 43.416 99.7954 43.184 99.9554 42.936C100.115 42.68 100.199 42.388 100.207 42.06C100.207 41.908 100.187 41.748 100.147 41.58C100.115 41.404 100.047 41.244 99.9434 41.1C99.8394 40.948 99.6954 40.824 99.5114 40.728C99.3274 40.624 99.0874 40.572 98.7914 40.572C98.5194 40.572 98.2914 40.628 98.1074 40.74C97.9314 40.844 97.7874 40.992 97.6754 41.184C97.5714 41.368 97.4914 41.588 97.4354 41.844C97.3874 42.1 97.3594 42.376 97.3514 42.672H95.9834C95.9834 42.208 96.0434 41.78 96.1634 41.388C96.2914 40.988 96.4794 40.644 96.7274 40.356C96.9754 40.068 97.2754 39.844 97.6274 39.684C97.9874 39.516 98.4034 39.432 98.8754 39.432C99.3874 39.432 99.8154 39.516 100.159 39.684C100.503 39.852 100.779 40.064 100.987 40.32C101.203 40.576 101.355 40.856 101.443 41.16C101.531 41.456 101.575 41.74 101.575 42.012C101.575 42.348 101.523 42.652 101.419 42.924C101.315 43.196 101.175 43.448 100.999 43.68C100.823 43.904 100.623 44.112 100.399 44.304C100.175 44.496 99.9434 44.676 99.7034 44.844C99.4634 45.012 99.2234 45.172 98.9834 45.324C98.7434 45.476 98.5194 45.628 98.3114 45.78C98.1114 45.932 97.9354 46.092 97.7834 46.26C97.6314 46.42 97.5274 46.592 97.4714 46.776H101.563V48ZM105.363 39.432C105.963 39.432 106.451 39.572 106.827 39.852C107.211 40.124 107.507 40.476 107.715 40.908C107.931 41.332 108.075 41.8 108.147 42.312C108.227 42.824 108.267 43.32 108.267 43.8C108.267 44.28 108.227 44.776 108.147 45.288C108.075 45.8 107.931 46.272 107.715 46.704C107.507 47.128 107.211 47.48 106.827 47.76C106.451 48.032 105.963 48.168 105.363 48.168C104.763 48.168 104.271 48.032 103.887 47.76C103.511 47.48 103.215 47.128 102.999 46.704C102.791 46.272 102.647 45.8 102.567 45.288C102.495 44.776 102.459 44.28 102.459 43.8C102.459 43.32 102.495 42.824 102.567 42.312C102.647 41.8 102.791 41.332 102.999 40.908C103.215 40.476 103.511 40.124 103.887 39.852C104.271 39.572 104.763 39.432 105.363 39.432ZM105.363 47.028C105.659 47.028 105.907 46.944 106.107 46.776C106.307 46.6 106.463 46.368 106.575 46.08C106.695 45.784 106.779 45.44 106.827 45.048C106.875 44.656 106.899 44.24 106.899 43.8C106.899 43.36 106.875 42.948 106.827 42.564C106.779 42.172 106.695 41.828 106.575 41.532C106.463 41.236 106.307 41.004 106.107 40.836C105.907 40.66 105.659 40.572 105.363 40.572C105.059 40.572 104.807 40.66 104.607 40.836C104.415 41.004 104.259 41.236 104.139 41.532C104.027 41.828 103.947 42.172 103.899 42.564C103.851 42.948 103.827 43.36 103.827 43.8C103.827 44.24 103.851 44.656 103.899 45.048C103.947 45.44 104.027 45.784 104.139 46.08C104.259 46.368 104.415 46.6 104.607 46.776C104.807 46.944 105.059 47.028 105.363 47.028ZM114.899 48H109.163C109.171 47.304 109.339 46.696 109.667 46.176C109.995 45.656 110.443 45.204 111.011 44.82C111.283 44.62 111.567 44.428 111.863 44.244C112.159 44.052 112.431 43.848 112.679 43.632C112.927 43.416 113.131 43.184 113.291 42.936C113.451 42.68 113.535 42.388 113.543 42.06C113.543 41.908 113.523 41.748 113.483 41.58C113.451 41.404 113.383 41.244 113.279 41.1C113.175 40.948 113.031 40.824 112.847 40.728C112.663 40.624 112.423 40.572 112.127 40.572C111.855 40.572 111.627 40.628 111.443 40.74C111.267 40.844 111.123 40.992 111.011 41.184C110.907 41.368 110.827 41.588 110.771 41.844C110.723 42.1 110.695 42.376 110.687 42.672H109.319C109.319 42.208 109.379 41.78 109.499 41.388C109.627 40.988 109.815 40.644 110.063 40.356C110.311 40.068 110.611 39.844 110.963 39.684C111.323 39.516 111.739 39.432 112.211 39.432C112.723 39.432 113.151 39.516 113.495 39.684C113.839 39.852 114.115 40.064 114.323 40.32C114.539 40.576 114.691 40.856 114.779 41.16C114.867 41.456 114.911 41.74 114.911 42.012C114.911 42.348 114.859 42.652 114.755 42.924C114.651 43.196 114.511 43.448 114.335 43.68C114.159 43.904 113.959 44.112 113.735 44.304C113.511 44.496 113.279 44.676 113.039 44.844C112.799 45.012 112.559 45.172 112.319 45.324C112.079 45.476 111.855 45.628 111.647 45.78C111.447 45.932 111.271 46.092 111.119 46.26C110.967 46.42 110.863 46.592 110.807 46.776H114.899V48ZM116.707 44.928H119.251V41.232H119.227L116.707 44.928ZM121.627 46.008H120.547V48H119.251V46.008H115.651V44.652L119.251 39.6H120.547V44.928H121.627V46.008Z" fill="#64728C"/>
<rect x="160" y="25.5" width="36" height="36" rx="12" fill="#64728C" fill-opacity="0.12"/>
<path fill-rule="evenodd" clip-rule="evenodd" d="M172 41.5C172 40.0272 173.194 38.8333 174.667 38.8333H181.333C182.806 38.8333 184 40.0272 184 41.5V46.8333C184 48.3061 182.806 49.5 181.333 49.5H174.667C173.194 49.5 172 48.3061 172 46.8333V41.5ZM174.667 40.1667C173.93 40.1667 173.333 40.7636 173.333 41.5V46.8333C173.333 47.5697 173.93 48.1667 174.667 48.1667H181.333C182.07 48.1667 182.667 47.5697 182.667 46.8333V41.5C182.667 40.7636 182.07 40.1667 181.333 40.1667H174.667Z" fill="#64728C"/>
<path fill-rule="evenodd" clip-rule="evenodd" d="M175.333 37.5C175.701 37.5 176 37.7985 176 38.1667V39.5C176 39.8682 175.701 40.1667 175.333 40.1667C174.965 40.1667 174.667 39.8682 174.667 39.5V38.1667C174.667 37.7985 174.965 37.5 175.333 37.5Z" fill="#64728C"/>
<path fill-rule="evenodd" clip-rule="evenodd" d="M180.667 37.5C181.035 37.5 181.333 37.7985 181.333 38.1667V39.5C181.333 39.8682 181.035 40.1667 180.667 40.1667C180.298 40.1667 180 39.8682 180 39.5V38.1667C180 37.7985 180.298 37.5 180.667 37.5Z" fill="#64728C"/>
<path d="M176 42.1667C176 42.5349 175.701 42.8333 175.333 42.8333C174.965 42.8333 174.667 42.5349 174.667 42.1667C174.667 41.7985 174.965 41.5 175.333 41.5C175.701 41.5 176 41.7985 176 42.1667Z" fill="#64728C"/>
<path d="M178.667 42.1667C178.667 42.5349 178.368 42.8333 178 42.8333C177.632 42.8333 177.333 42.5349 177.333 42.1667C177.333 41.7985 177.632 41.5 178 41.5C178.368 41.5 178.667 41.7985 178.667 42.1667Z" fill="#64728C"/>
<path d="M181.333 42.1667C181.333 42.5349 181.035 42.8333 180.667 42.8333C180.298 42.8333 180 42.5349 180 42.1667C180 41.7985 180.298 41.5 180.667 41.5C181.035 41.5 181.333 41.7985 181.333 42.1667Z" fill="#64728C"/>
<path d="M176 44.8333C176 45.2015 175.701 45.5 175.333 45.5C174.965 45.5 174.667 45.2015 174.667 44.8333C174.667 44.4651 174.965 44.1667 175.333 44.1667C175.701 44.1667 176 44.4651 176 44.8333Z" fill="#64728C"/>
<path d="M1.656 12C1.44 12 1.272 11.944 1.152 11.832C1.04 11.712 0.984 11.544 0.984 11.328V4.212C0.984 3.996 1.04 3.832 1.152 3.72C1.272 3.6 1.44 3.54 1.656 3.54H3.972C5.364 3.54 6.436 3.904 7.188 4.632C7.948 5.352 8.328 6.396 8.328 7.764C8.328 8.444 8.232 9.048 8.04 9.576C7.848 10.104 7.564 10.548 7.188 10.908C6.82 11.26 6.368 11.532 5.832 11.724C5.296 11.908 4.676 12 3.972 12H1.656ZM2.232 10.956H3.9C4.428 10.956 4.884 10.892 5.268 10.764C5.66 10.628 5.988 10.428 6.252 10.164C6.516 9.9 6.712 9.568 6.84 9.168C6.968 8.768 7.032 8.3 7.032 7.764C7.032 6.7 6.768 5.904 6.24 5.376C5.72 4.848 4.94 4.584 3.9 4.584H2.232V10.956ZM11.7357 12.108C11.3277 12.108 10.9597 12.028 10.6317 11.868C10.3117 11.708 10.0597 11.492 9.87572 11.22C9.69172 10.948 9.59972 10.64 9.59972 10.296C9.59972 9.864 9.70772 9.524 9.92372 9.276C10.1477 9.02 10.5117 8.84 11.0157 8.736C11.5277 8.624 12.2157 8.568 13.0797 8.568H13.6437V9.312H13.0917C12.5157 9.312 12.0597 9.34 11.7237 9.396C11.3877 9.452 11.1477 9.548 11.0037 9.684C10.8677 9.812 10.7997 9.992 10.7997 10.224C10.7997 10.528 10.9037 10.776 11.1117 10.968C11.3197 11.152 11.6077 11.244 11.9757 11.244C12.2717 11.244 12.5317 11.176 12.7557 11.04C12.9797 10.896 13.1557 10.704 13.2837 10.464C13.4197 10.224 13.4877 9.948 13.4877 9.636V8.256C13.4877 7.8 13.3917 7.472 13.1997 7.272C13.0077 7.072 12.6917 6.972 12.2517 6.972C11.9957 6.972 11.7277 7.004 11.4477 7.068C11.1757 7.132 10.8917 7.24 10.5957 7.392C10.4597 7.456 10.3437 7.476 10.2477 7.452C10.1517 7.428 10.0757 7.376 10.0197 7.296C9.96372 7.208 9.93172 7.116 9.92372 7.02C9.92372 6.916 9.94772 6.816 9.99572 6.72C10.0517 6.624 10.1437 6.552 10.2717 6.504C10.6237 6.336 10.9717 6.216 11.3157 6.144C11.6597 6.072 11.9837 6.036 12.2877 6.036C12.8237 6.036 13.2637 6.12 13.6077 6.288C13.9597 6.456 14.2197 6.712 14.3877 7.056C14.5557 7.4 14.6397 7.844 14.6397 8.388V11.472C14.6397 11.664 14.5917 11.816 14.4957 11.928C14.3997 12.032 14.2597 12.084 14.0757 12.084C13.8997 12.084 13.7597 12.032 13.6557 11.928C13.5517 11.816 13.4997 11.664 13.4997 11.472V10.692H13.6077C13.5437 10.988 13.4237 11.244 13.2477 11.46C13.0797 11.668 12.8677 11.828 12.6117 11.94C12.3557 12.052 12.0637 12.108 11.7357 12.108ZM18.805 12.108C18.325 12.108 17.921 12.024 17.593 11.856C17.265 11.688 17.021 11.44 16.861 11.112C16.701 10.784 16.621 10.384 16.621 9.912V7.08H15.901C15.741 7.08 15.617 7.04 15.529 6.96C15.441 6.872 15.397 6.756 15.397 6.612C15.397 6.46 15.441 6.344 15.529 6.264C15.617 6.184 15.741 6.144 15.901 6.144H16.621V4.908C16.621 4.708 16.673 4.556 16.777 4.452C16.889 4.348 17.041 4.296 17.233 4.296C17.425 4.296 17.573 4.348 17.677 4.452C17.781 4.556 17.833 4.708 17.833 4.908V6.144H19.237C19.397 6.144 19.521 6.184 19.609 6.264C19.697 6.344 19.741 6.46 19.741 6.612C19.741 6.756 19.697 6.872 19.609 6.96C19.521 7.04 19.397 7.08 19.237 7.08H17.833V9.816C17.833 10.24 17.921 10.56 18.097 10.776C18.281 10.992 18.577 11.1 18.985 11.1C19.129 11.1 19.253 11.088 19.357 11.064C19.469 11.032 19.561 11.012 19.633 11.004C19.721 11.004 19.793 11.036 19.849 11.1C19.905 11.156 19.933 11.268 19.933 11.436C19.933 11.556 19.909 11.668 19.861 11.772C19.821 11.876 19.745 11.944 19.633 11.976C19.537 12.008 19.405 12.036 19.237 12.06C19.077 12.092 18.933 12.108 18.805 12.108ZM23.3813 12.108C22.7413 12.108 22.1893 11.988 21.7253 11.748C21.2693 11.5 20.9133 11.152 20.6573 10.704C20.4093 10.248 20.2853 9.708 20.2853 9.084C20.2853 8.476 20.4093 7.944 20.6573 7.488C20.9053 7.032 21.2453 6.676 21.6773 6.42C22.1093 6.164 22.6013 6.036 23.1533 6.036C23.5613 6.036 23.9253 6.104 24.2453 6.24C24.5653 6.368 24.8373 6.56 25.0613 6.816C25.2933 7.064 25.4653 7.368 25.5773 7.728C25.6973 8.088 25.7573 8.492 25.7573 8.94C25.7573 9.076 25.7173 9.18 25.6373 9.252C25.5573 9.316 25.4373 9.348 25.2773 9.348H21.2453V8.604H24.9413L24.7373 8.772C24.7373 8.372 24.6773 8.032 24.5573 7.752C24.4453 7.472 24.2733 7.26 24.0413 7.116C23.8173 6.964 23.5373 6.888 23.2013 6.888C22.8253 6.888 22.5053 6.976 22.2413 7.152C21.9853 7.328 21.7893 7.572 21.6533 7.884C21.5173 8.196 21.4493 8.56 21.4493 8.976V9.048C21.4493 9.752 21.6133 10.284 21.9413 10.644C22.2773 10.996 22.7613 11.172 23.3933 11.172C23.6333 11.172 23.8853 11.14 24.1493 11.076C24.4213 11.012 24.6773 10.904 24.9173 10.752C25.0533 10.672 25.1733 10.636 25.2773 10.644C25.3893 10.652 25.4773 10.688 25.5413 10.752C25.6133 10.816 25.6573 10.896 25.6733 10.992C25.6893 11.088 25.6733 11.188 25.6253 11.292C25.5773 11.388 25.4933 11.476 25.3733 11.556C25.1013 11.74 24.7853 11.88 24.4253 11.976C24.0653 12.064 23.7173 12.108 23.3813 12.108Z" fill="#64728C"/>
</svg>
