<svg width="210" height="75" viewBox="0 0 210 75" fill="none" xmlns="http://www.w3.org/2000/svg">
<g filter="url(#filter0_d_614_6388)">
<rect x="5" y="21" width="200" height="45" rx="12" fill="white" shape-rendering="crispEdges"/>
<rect x="5.5" y="21.5" width="199" height="44" rx="11.5" stroke="#34BC40" shape-rendering="crispEdges"/>
<path d="M15.912 39.432H21.828V40.728H17.412V42.972H21.288V44.196H17.412V48H15.912V39.432ZM27.0933 44.352C27.0773 44.136 27.0293 43.928 26.9493 43.728C26.8773 43.528 26.7733 43.356 26.6373 43.212C26.5093 43.06 26.3493 42.94 26.1573 42.852C25.9733 42.756 25.7653 42.708 25.5333 42.708C25.2933 42.708 25.0733 42.752 24.8733 42.84C24.6813 42.92 24.5133 43.036 24.3693 43.188C24.2333 43.332 24.1213 43.504 24.0333 43.704C23.9533 43.904 23.9093 44.12 23.9013 44.352H27.0933ZM23.9013 45.252C23.9013 45.492 23.9333 45.724 23.9973 45.948C24.0693 46.172 24.1733 46.368 24.3093 46.536C24.4453 46.704 24.6173 46.84 24.8253 46.944C25.0333 47.04 25.2813 47.088 25.5693 47.088C25.9693 47.088 26.2893 47.004 26.5293 46.836C26.7773 46.66 26.9613 46.4 27.0813 46.056H28.3773C28.3053 46.392 28.1813 46.692 28.0053 46.956C27.8293 47.22 27.6173 47.444 27.3693 47.628C27.1213 47.804 26.8413 47.936 26.5293 48.024C26.2253 48.12 25.9053 48.168 25.5693 48.168C25.0813 48.168 24.6493 48.088 24.2733 47.928C23.8973 47.768 23.5773 47.544 23.3133 47.256C23.0573 46.968 22.8613 46.624 22.7253 46.224C22.5973 45.824 22.5333 45.384 22.5333 44.904C22.5333 44.464 22.6013 44.048 22.7373 43.656C22.8813 43.256 23.0813 42.908 23.3373 42.612C23.6013 42.308 23.9173 42.068 24.2853 41.892C24.6533 41.716 25.0693 41.628 25.5333 41.628C26.0213 41.628 26.4573 41.732 26.8413 41.94C27.2333 42.14 27.5573 42.408 27.8133 42.744C28.0693 43.08 28.2533 43.468 28.3653 43.908C28.4853 44.34 28.5173 44.788 28.4613 45.252H23.9013ZM29.5373 39.432H30.9053V42.6H30.9293C31.0253 42.448 31.1413 42.312 31.2773 42.192C31.4133 42.072 31.5613 41.972 31.7213 41.892C31.8893 41.804 32.0613 41.74 32.2373 41.7C32.4213 41.652 32.6013 41.628 32.7773 41.628C33.2653 41.628 33.6893 41.716 34.0493 41.892C34.4173 42.06 34.7213 42.296 34.9613 42.6C35.2013 42.896 35.3813 43.244 35.5013 43.644C35.6213 44.044 35.6813 44.472 35.6813 44.928C35.6813 45.344 35.6253 45.748 35.5133 46.14C35.4093 46.532 35.2453 46.88 35.0213 47.184C34.8053 47.48 34.5293 47.72 34.1933 47.904C33.8573 48.08 33.4613 48.168 33.0053 48.168C32.7973 48.168 32.5853 48.152 32.3693 48.12C32.1613 48.096 31.9613 48.044 31.7693 47.964C31.5773 47.884 31.4013 47.78 31.2413 47.652C31.0893 47.524 30.9613 47.356 30.8573 47.148H30.8333V48H29.5373V39.432ZM34.3133 44.904C34.3133 44.624 34.2773 44.352 34.2053 44.088C34.1333 43.824 34.0253 43.592 33.8813 43.392C33.7373 43.184 33.5573 43.02 33.3413 42.9C33.1253 42.772 32.8773 42.708 32.5973 42.708C32.0213 42.708 31.5853 42.908 31.2893 43.308C31.0013 43.708 30.8573 44.24 30.8573 44.904C30.8573 45.216 30.8933 45.508 30.9653 45.78C31.0453 46.044 31.1613 46.272 31.3133 46.464C31.4653 46.656 31.6453 46.808 31.8533 46.92C32.0693 47.032 32.3173 47.088 32.5973 47.088C32.9093 47.088 33.1733 47.024 33.3893 46.896C33.6053 46.768 33.7813 46.604 33.9173 46.404C34.0613 46.196 34.1613 45.964 34.2173 45.708C34.2813 45.444 34.3133 45.176 34.3133 44.904ZM36.8372 41.796H38.1212V42.996H38.1452C38.1852 42.828 38.2612 42.664 38.3732 42.504C38.4932 42.344 38.6332 42.2 38.7932 42.072C38.9612 41.936 39.1452 41.828 39.3452 41.748C39.5452 41.668 39.7492 41.628 39.9572 41.628C40.1172 41.628 40.2252 41.632 40.2812 41.64C40.3452 41.648 40.4092 41.656 40.4732 41.664V42.984C40.3772 42.968 40.2772 42.956 40.1732 42.948C40.0772 42.932 39.9812 42.924 39.8852 42.924C39.6532 42.924 39.4332 42.972 39.2252 43.068C39.0252 43.156 38.8492 43.292 38.6972 43.476C38.5452 43.652 38.4252 43.872 38.3372 44.136C38.2492 44.4 38.2052 44.704 38.2052 45.048V48H36.8372V41.796ZM46.5039 48H45.1599V47.136H45.1359C44.9679 47.448 44.7159 47.7 44.3799 47.892C44.0519 48.076 43.7159 48.168 43.3719 48.168C42.5559 48.168 41.9639 47.968 41.5959 47.568C41.2359 47.16 41.0559 46.548 41.0559 45.732V41.796H42.4239V45.6C42.4239 46.144 42.5279 46.528 42.7359 46.752C42.9439 46.976 43.2359 47.088 43.6119 47.088C43.8999 47.088 44.1399 47.044 44.3319 46.956C44.5239 46.868 44.6799 46.752 44.7999 46.608C44.9199 46.456 45.0039 46.276 45.0519 46.068C45.1079 45.86 45.1359 45.636 45.1359 45.396V41.796H46.5039V48ZM53.1426 46.62C53.1426 46.788 53.1626 46.908 53.2026 46.98C53.2506 47.052 53.3386 47.088 53.4666 47.088C53.5066 47.088 53.5546 47.088 53.6106 47.088C53.6666 47.088 53.7306 47.08 53.8026 47.064V48.012C53.7546 48.028 53.6906 48.044 53.6106 48.06C53.5386 48.084 53.4626 48.104 53.3826 48.12C53.3026 48.136 53.2226 48.148 53.1426 48.156C53.0626 48.164 52.9946 48.168 52.9386 48.168C52.6586 48.168 52.4266 48.112 52.2426 48C52.0586 47.888 51.9386 47.692 51.8826 47.412C51.6106 47.676 51.2746 47.868 50.8746 47.988C50.4826 48.108 50.1026 48.168 49.7346 48.168C49.4546 48.168 49.1866 48.128 48.9306 48.048C48.6746 47.976 48.4466 47.868 48.2466 47.724C48.0546 47.572 47.8986 47.384 47.7786 47.16C47.6666 46.928 47.6106 46.66 47.6106 46.356C47.6106 45.972 47.6786 45.66 47.8146 45.42C47.9586 45.18 48.1426 44.992 48.3666 44.856C48.5986 44.72 48.8546 44.624 49.1346 44.568C49.4226 44.504 49.7106 44.456 49.9986 44.424C50.2466 44.376 50.4826 44.344 50.7066 44.328C50.9306 44.304 51.1266 44.268 51.2946 44.22C51.4706 44.172 51.6066 44.1 51.7026 44.004C51.8066 43.9 51.8586 43.748 51.8586 43.548C51.8586 43.372 51.8146 43.228 51.7266 43.116C51.6466 43.004 51.5426 42.92 51.4146 42.864C51.2946 42.8 51.1586 42.76 51.0066 42.744C50.8546 42.72 50.7106 42.708 50.5746 42.708C50.1906 42.708 49.8746 42.788 49.6266 42.948C49.3786 43.108 49.2386 43.356 49.2066 43.692H47.8386C47.8626 43.292 47.9586 42.96 48.1266 42.696C48.2946 42.432 48.5066 42.22 48.7626 42.06C49.0266 41.9 49.3226 41.788 49.6506 41.724C49.9786 41.66 50.3146 41.628 50.6586 41.628C50.9626 41.628 51.2626 41.66 51.5586 41.724C51.8546 41.788 52.1186 41.892 52.3506 42.036C52.5906 42.18 52.7826 42.368 52.9266 42.6C53.0706 42.824 53.1426 43.1 53.1426 43.428V46.62ZM51.7746 44.892C51.5666 45.028 51.3106 45.112 51.0066 45.144C50.7026 45.168 50.3986 45.208 50.0946 45.264C49.9506 45.288 49.8106 45.324 49.6746 45.372C49.5386 45.412 49.4186 45.472 49.3146 45.552C49.2106 45.624 49.1266 45.724 49.0626 45.852C49.0066 45.972 48.9786 46.12 48.9786 46.296C48.9786 46.448 49.0226 46.576 49.1106 46.68C49.1986 46.784 49.3026 46.868 49.4226 46.932C49.5506 46.988 49.6866 47.028 49.8306 47.052C49.9826 47.076 50.1186 47.088 50.2386 47.088C50.3906 47.088 50.5546 47.068 50.7306 47.028C50.9066 46.988 51.0706 46.92 51.2226 46.824C51.3826 46.728 51.5146 46.608 51.6186 46.464C51.7226 46.312 51.7746 46.128 51.7746 45.912V44.892ZM54.6145 41.796H55.8985V42.996H55.9225C55.9625 42.828 56.0385 42.664 56.1505 42.504C56.2705 42.344 56.4105 42.2 56.5705 42.072C56.7385 41.936 56.9225 41.828 57.1225 41.748C57.3225 41.668 57.5265 41.628 57.7345 41.628C57.8945 41.628 58.0025 41.632 58.0585 41.64C58.1225 41.648 58.1865 41.656 58.2505 41.664V42.984C58.1545 42.968 58.0545 42.956 57.9505 42.948C57.8545 42.932 57.7585 42.924 57.6625 42.924C57.4305 42.924 57.2105 42.972 57.0025 43.068C56.8025 43.156 56.6265 43.292 56.4745 43.476C56.3225 43.652 56.2025 43.872 56.1145 44.136C56.0265 44.4 55.9825 44.704 55.9825 45.048V48H54.6145V41.796ZM58.1493 41.796H59.6493L61.2693 46.428H61.2933L62.8653 41.796H64.2933L61.8813 48.336C61.7693 48.616 61.6573 48.884 61.5453 49.14C61.4413 49.396 61.3093 49.62 61.1493 49.812C60.9973 50.012 60.8053 50.168 60.5733 50.28C60.3413 50.4 60.0453 50.46 59.6853 50.46C59.3653 50.46 59.0493 50.436 58.7373 50.388V49.236C58.8493 49.252 58.9573 49.268 59.0613 49.284C59.1653 49.308 59.2733 49.32 59.3853 49.32C59.5453 49.32 59.6773 49.3 59.7813 49.26C59.8853 49.22 59.9693 49.16 60.0333 49.08C60.1053 49.008 60.1653 48.92 60.2133 48.816C60.2613 48.712 60.3053 48.592 60.3453 48.456L60.5013 47.976L58.1493 41.796ZM68.2638 44.088H71.7558V45.384H68.2638V44.088ZM76.3157 40.992C76.6037 40.992 76.8837 40.968 77.1557 40.92C77.4277 40.872 77.6717 40.792 77.8877 40.68C78.1117 40.568 78.2997 40.424 78.4517 40.248C78.6117 40.072 78.7157 39.856 78.7637 39.6H79.8797V48H78.3797V42.072H76.3157V40.992ZM82.7677 39.6H88.5157V40.74C88.0757 41.236 87.6757 41.752 87.3157 42.288C86.9557 42.816 86.6397 43.38 86.3677 43.98C86.1037 44.572 85.8877 45.2 85.7197 45.864C85.5517 46.528 85.4397 47.24 85.3837 48H83.8837C83.9317 47.336 84.0437 46.68 84.2197 46.032C84.4037 45.384 84.6357 44.756 84.9157 44.148C85.2037 43.54 85.5357 42.956 85.9117 42.396C86.2877 41.836 86.6917 41.312 87.1237 40.824H82.7677V39.6ZM92.9435 44.088H96.4355V45.384H92.9435V44.088ZM106.563 48H100.827C100.835 47.304 101.003 46.696 101.331 46.176C101.659 45.656 102.107 45.204 102.675 44.82C102.947 44.62 103.231 44.428 103.527 44.244C103.823 44.052 104.095 43.848 104.343 43.632C104.591 43.416 104.795 43.184 104.955 42.936C105.115 42.68 105.199 42.388 105.207 42.06C105.207 41.908 105.187 41.748 105.147 41.58C105.115 41.404 105.047 41.244 104.943 41.1C104.839 40.948 104.695 40.824 104.511 40.728C104.327 40.624 104.087 40.572 103.791 40.572C103.519 40.572 103.291 40.628 103.107 40.74C102.931 40.844 102.787 40.992 102.675 41.184C102.571 41.368 102.491 41.588 102.435 41.844C102.387 42.1 102.359 42.376 102.351 42.672H100.983C100.983 42.208 101.043 41.78 101.163 41.388C101.291 40.988 101.479 40.644 101.727 40.356C101.975 40.068 102.275 39.844 102.627 39.684C102.987 39.516 103.403 39.432 103.875 39.432C104.387 39.432 104.815 39.516 105.159 39.684C105.503 39.852 105.779 40.064 105.987 40.32C106.203 40.576 106.355 40.856 106.443 41.16C106.531 41.456 106.575 41.74 106.575 42.012C106.575 42.348 106.523 42.652 106.419 42.924C106.315 43.196 106.175 43.448 105.999 43.68C105.823 43.904 105.623 44.112 105.399 44.304C105.175 44.496 104.943 44.676 104.703 44.844C104.463 45.012 104.223 45.172 103.983 45.324C103.743 45.476 103.519 45.628 103.311 45.78C103.111 45.932 102.935 46.092 102.783 46.26C102.631 46.42 102.527 46.592 102.471 46.776H106.563V48ZM110.363 39.432C110.963 39.432 111.451 39.572 111.827 39.852C112.211 40.124 112.507 40.476 112.715 40.908C112.931 41.332 113.075 41.8 113.147 42.312C113.227 42.824 113.267 43.32 113.267 43.8C113.267 44.28 113.227 44.776 113.147 45.288C113.075 45.8 112.931 46.272 112.715 46.704C112.507 47.128 112.211 47.48 111.827 47.76C111.451 48.032 110.963 48.168 110.363 48.168C109.763 48.168 109.271 48.032 108.887 47.76C108.511 47.48 108.215 47.128 107.999 46.704C107.791 46.272 107.647 45.8 107.567 45.288C107.495 44.776 107.459 44.28 107.459 43.8C107.459 43.32 107.495 42.824 107.567 42.312C107.647 41.8 107.791 41.332 107.999 40.908C108.215 40.476 108.511 40.124 108.887 39.852C109.271 39.572 109.763 39.432 110.363 39.432ZM110.363 47.028C110.659 47.028 110.907 46.944 111.107 46.776C111.307 46.6 111.463 46.368 111.575 46.08C111.695 45.784 111.779 45.44 111.827 45.048C111.875 44.656 111.899 44.24 111.899 43.8C111.899 43.36 111.875 42.948 111.827 42.564C111.779 42.172 111.695 41.828 111.575 41.532C111.463 41.236 111.307 41.004 111.107 40.836C110.907 40.66 110.659 40.572 110.363 40.572C110.059 40.572 109.807 40.66 109.607 40.836C109.415 41.004 109.259 41.236 109.139 41.532C109.027 41.828 108.947 42.172 108.899 42.564C108.851 42.948 108.827 43.36 108.827 43.8C108.827 44.24 108.851 44.656 108.899 45.048C108.947 45.44 109.027 45.784 109.139 46.08C109.259 46.368 109.415 46.6 109.607 46.776C109.807 46.944 110.059 47.028 110.363 47.028ZM119.899 48H114.163C114.171 47.304 114.339 46.696 114.667 46.176C114.995 45.656 115.443 45.204 116.011 44.82C116.283 44.62 116.567 44.428 116.863 44.244C117.159 44.052 117.431 43.848 117.679 43.632C117.927 43.416 118.131 43.184 118.291 42.936C118.451 42.68 118.535 42.388 118.543 42.06C118.543 41.908 118.523 41.748 118.483 41.58C118.451 41.404 118.383 41.244 118.279 41.1C118.175 40.948 118.031 40.824 117.847 40.728C117.663 40.624 117.423 40.572 117.127 40.572C116.855 40.572 116.627 40.628 116.443 40.74C116.267 40.844 116.123 40.992 116.011 41.184C115.907 41.368 115.827 41.588 115.771 41.844C115.723 42.1 115.695 42.376 115.687 42.672H114.319C114.319 42.208 114.379 41.78 114.499 41.388C114.627 40.988 114.815 40.644 115.063 40.356C115.311 40.068 115.611 39.844 115.963 39.684C116.323 39.516 116.739 39.432 117.211 39.432C117.723 39.432 118.151 39.516 118.495 39.684C118.839 39.852 119.115 40.064 119.323 40.32C119.539 40.576 119.691 40.856 119.779 41.16C119.867 41.456 119.911 41.74 119.911 42.012C119.911 42.348 119.859 42.652 119.755 42.924C119.651 43.196 119.511 43.448 119.335 43.68C119.159 43.904 118.959 44.112 118.735 44.304C118.511 44.496 118.279 44.676 118.039 44.844C117.799 45.012 117.559 45.172 117.319 45.324C117.079 45.476 116.855 45.628 116.647 45.78C116.447 45.932 116.271 46.092 116.119 46.26C115.967 46.42 115.863 46.592 115.807 46.776H119.899V48ZM121.707 44.928H124.251V41.232H124.227L121.707 44.928ZM126.627 46.008H125.547V48H124.251V46.008H120.651V44.652L124.251 39.6H125.547V44.928H126.627V46.008Z" fill="#34BC40"/>
<rect x="165" y="25.5" width="36" height="36" rx="12" fill="#34BC40" fill-opacity="0.12"/>
<path fill-rule="evenodd" clip-rule="evenodd" d="M177 41.5C177 40.0272 178.194 38.8333 179.667 38.8333H186.333C187.806 38.8333 189 40.0272 189 41.5V46.8333C189 48.3061 187.806 49.5 186.333 49.5H179.667C178.194 49.5 177 48.3061 177 46.8333V41.5ZM179.667 40.1667C178.93 40.1667 178.333 40.7636 178.333 41.5V46.8333C178.333 47.5697 178.93 48.1667 179.667 48.1667H186.333C187.07 48.1667 187.667 47.5697 187.667 46.8333V41.5C187.667 40.7636 187.07 40.1667 186.333 40.1667H179.667Z" fill="#34BC40"/>
<path fill-rule="evenodd" clip-rule="evenodd" d="M180.333 37.5C180.701 37.5 181 37.7985 181 38.1667V39.5C181 39.8682 180.701 40.1667 180.333 40.1667C179.965 40.1667 179.667 39.8682 179.667 39.5V38.1667C179.667 37.7985 179.965 37.5 180.333 37.5Z" fill="#34BC40"/>
<path fill-rule="evenodd" clip-rule="evenodd" d="M185.667 37.5C186.035 37.5 186.333 37.7985 186.333 38.1667V39.5C186.333 39.8682 186.035 40.1667 185.667 40.1667C185.298 40.1667 185 39.8682 185 39.5V38.1667C185 37.7985 185.298 37.5 185.667 37.5Z" fill="#34BC40"/>
<path d="M181 42.1667C181 42.5349 180.701 42.8333 180.333 42.8333C179.965 42.8333 179.667 42.5349 179.667 42.1667C179.667 41.7985 179.965 41.5 180.333 41.5C180.701 41.5 181 41.7985 181 42.1667Z" fill="#34BC40"/>
<path d="M183.667 42.1667C183.667 42.5349 183.368 42.8333 183 42.8333C182.632 42.8333 182.333 42.5349 182.333 42.1667C182.333 41.7985 182.632 41.5 183 41.5C183.368 41.5 183.667 41.7985 183.667 42.1667Z" fill="#34BC40"/>
<path d="M186.333 42.1667C186.333 42.5349 186.035 42.8333 185.667 42.8333C185.298 42.8333 185 42.5349 185 42.1667C185 41.7985 185.298 41.5 185.667 41.5C186.035 41.5 186.333 41.7985 186.333 42.1667Z" fill="#34BC40"/>
<path d="M181 44.8333C181 45.2015 180.701 45.5 180.333 45.5C179.965 45.5 179.667 45.2015 179.667 44.8333C179.667 44.4651 179.965 44.1667 180.333 44.1667C180.701 44.1667 181 44.4651 181 44.8333Z" fill="#34BC40"/>
</g>
<path d="M6.656 12C6.44 12 6.272 11.944 6.152 11.832C6.04 11.712 5.984 11.544 5.984 11.328V4.212C5.984 3.996 6.04 3.832 6.152 3.72C6.272 3.6 6.44 3.54 6.656 3.54H8.972C10.364 3.54 11.436 3.904 12.188 4.632C12.948 5.352 13.328 6.396 13.328 7.764C13.328 8.444 13.232 9.048 13.04 9.576C12.848 10.104 12.564 10.548 12.188 10.908C11.82 11.26 11.368 11.532 10.832 11.724C10.296 11.908 9.676 12 8.972 12H6.656ZM7.232 10.956H8.9C9.428 10.956 9.884 10.892 10.268 10.764C10.66 10.628 10.988 10.428 11.252 10.164C11.516 9.9 11.712 9.568 11.84 9.168C11.968 8.768 12.032 8.3 12.032 7.764C12.032 6.7 11.768 5.904 11.24 5.376C10.72 4.848 9.94 4.584 8.9 4.584H7.232V10.956ZM16.7357 12.108C16.3277 12.108 15.9597 12.028 15.6317 11.868C15.3117 11.708 15.0597 11.492 14.8757 11.22C14.6917 10.948 14.5997 10.64 14.5997 10.296C14.5997 9.864 14.7077 9.524 14.9237 9.276C15.1477 9.02 15.5117 8.84 16.0157 8.736C16.5277 8.624 17.2157 8.568 18.0797 8.568H18.6437V9.312H18.0917C17.5157 9.312 17.0597 9.34 16.7237 9.396C16.3877 9.452 16.1477 9.548 16.0037 9.684C15.8677 9.812 15.7997 9.992 15.7997 10.224C15.7997 10.528 15.9037 10.776 16.1117 10.968C16.3197 11.152 16.6077 11.244 16.9757 11.244C17.2717 11.244 17.5317 11.176 17.7557 11.04C17.9797 10.896 18.1557 10.704 18.2837 10.464C18.4197 10.224 18.4877 9.948 18.4877 9.636V8.256C18.4877 7.8 18.3917 7.472 18.1997 7.272C18.0077 7.072 17.6917 6.972 17.2517 6.972C16.9957 6.972 16.7277 7.004 16.4477 7.068C16.1757 7.132 15.8917 7.24 15.5957 7.392C15.4597 7.456 15.3437 7.476 15.2477 7.452C15.1517 7.428 15.0757 7.376 15.0197 7.296C14.9637 7.208 14.9317 7.116 14.9237 7.02C14.9237 6.916 14.9477 6.816 14.9957 6.72C15.0517 6.624 15.1437 6.552 15.2717 6.504C15.6237 6.336 15.9717 6.216 16.3157 6.144C16.6597 6.072 16.9837 6.036 17.2877 6.036C17.8237 6.036 18.2637 6.12 18.6077 6.288C18.9597 6.456 19.2197 6.712 19.3877 7.056C19.5557 7.4 19.6397 7.844 19.6397 8.388V11.472C19.6397 11.664 19.5917 11.816 19.4957 11.928C19.3997 12.032 19.2597 12.084 19.0757 12.084C18.8997 12.084 18.7597 12.032 18.6557 11.928C18.5517 11.816 18.4997 11.664 18.4997 11.472V10.692H18.6077C18.5437 10.988 18.4237 11.244 18.2477 11.46C18.0797 11.668 17.8677 11.828 17.6117 11.94C17.3557 12.052 17.0637 12.108 16.7357 12.108ZM23.805 12.108C23.325 12.108 22.921 12.024 22.593 11.856C22.265 11.688 22.021 11.44 21.861 11.112C21.701 10.784 21.621 10.384 21.621 9.912V7.08H20.901C20.741 7.08 20.617 7.04 20.529 6.96C20.441 6.872 20.397 6.756 20.397 6.612C20.397 6.46 20.441 6.344 20.529 6.264C20.617 6.184 20.741 6.144 20.901 6.144H21.621V4.908C21.621 4.708 21.673 4.556 21.777 4.452C21.889 4.348 22.041 4.296 22.233 4.296C22.425 4.296 22.573 4.348 22.677 4.452C22.781 4.556 22.833 4.708 22.833 4.908V6.144H24.237C24.397 6.144 24.521 6.184 24.609 6.264C24.697 6.344 24.741 6.46 24.741 6.612C24.741 6.756 24.697 6.872 24.609 6.96C24.521 7.04 24.397 7.08 24.237 7.08H22.833V9.816C22.833 10.24 22.921 10.56 23.097 10.776C23.281 10.992 23.577 11.1 23.985 11.1C24.129 11.1 24.253 11.088 24.357 11.064C24.469 11.032 24.561 11.012 24.633 11.004C24.721 11.004 24.793 11.036 24.849 11.1C24.905 11.156 24.933 11.268 24.933 11.436C24.933 11.556 24.909 11.668 24.861 11.772C24.821 11.876 24.745 11.944 24.633 11.976C24.537 12.008 24.405 12.036 24.237 12.06C24.077 12.092 23.933 12.108 23.805 12.108ZM28.3813 12.108C27.7413 12.108 27.1893 11.988 26.7253 11.748C26.2693 11.5 25.9133 11.152 25.6573 10.704C25.4093 10.248 25.2853 9.708 25.2853 9.084C25.2853 8.476 25.4093 7.944 25.6573 7.488C25.9053 7.032 26.2453 6.676 26.6773 6.42C27.1093 6.164 27.6013 6.036 28.1533 6.036C28.5613 6.036 28.9253 6.104 29.2453 6.24C29.5653 6.368 29.8373 6.56 30.0613 6.816C30.2933 7.064 30.4653 7.368 30.5773 7.728C30.6973 8.088 30.7573 8.492 30.7573 8.94C30.7573 9.076 30.7173 9.18 30.6373 9.252C30.5573 9.316 30.4373 9.348 30.2773 9.348H26.2453V8.604H29.9413L29.7373 8.772C29.7373 8.372 29.6773 8.032 29.5573 7.752C29.4453 7.472 29.2733 7.26 29.0413 7.116C28.8173 6.964 28.5373 6.888 28.2013 6.888C27.8253 6.888 27.5053 6.976 27.2413 7.152C26.9853 7.328 26.7893 7.572 26.6533 7.884C26.5173 8.196 26.4493 8.56 26.4493 8.976V9.048C26.4493 9.752 26.6133 10.284 26.9413 10.644C27.2773 10.996 27.7613 11.172 28.3933 11.172C28.6333 11.172 28.8853 11.14 29.1493 11.076C29.4213 11.012 29.6773 10.904 29.9173 10.752C30.0533 10.672 30.1733 10.636 30.2773 10.644C30.3893 10.652 30.4773 10.688 30.5413 10.752C30.6133 10.816 30.6573 10.896 30.6733 10.992C30.6893 11.088 30.6733 11.188 30.6253 11.292C30.5773 11.388 30.4933 11.476 30.3733 11.556C30.1013 11.74 29.7853 11.88 29.4253 11.976C29.0653 12.064 28.7173 12.108 28.3813 12.108Z" fill="#64728C"/>
<defs>
<filter id="filter0_d_614_6388" x="0" y="20" width="210" height="55" filterUnits="userSpaceOnUse" color-interpolation-filters="sRGB">
<feFlood flood-opacity="0" result="BackgroundImageFix"/>
<feColorMatrix in="SourceAlpha" type="matrix" values="0 0 0 0 0 0 0 0 0 0 0 0 0 0 0 0 0 0 127 0" result="hardAlpha"/>
<feOffset dy="4"/>
<feGaussianBlur stdDeviation="2.5"/>
<feComposite in2="hardAlpha" operator="out"/>
<feColorMatrix type="matrix" values="0 0 0 0 0.203922 0 0 0 0 0.737255 0 0 0 0 0.25098 0 0 0 0.15 0"/>
<feBlend mode="normal" in2="BackgroundImageFix" result="effect1_dropShadow_614_6388"/>
<feBlend mode="normal" in="SourceGraphic" in2="effect1_dropShadow_614_6388" result="shape"/>
</filter>
</defs>
</svg>
