<svg width="208" height="74" viewBox="0 0 208 74" fill="none" xmlns="http://www.w3.org/2000/svg">
<g filter="url(#filter0_d_614_6400)">
<rect x="4" y="21" width="200" height="45" rx="12" fill="white" shape-rendering="crispEdges"/>
<rect x="4.5" y="21.5" width="199" height="44" rx="11.5" stroke="#FFAA00" shape-rendering="crispEdges"/>
<path d="M14.912 39.432H20.828V40.728H16.412V42.972H20.288V44.196H16.412V48H14.912V39.432ZM26.0933 44.352C26.0773 44.136 26.0293 43.928 25.9493 43.728C25.8773 43.528 25.7733 43.356 25.6373 43.212C25.5093 43.06 25.3493 42.94 25.1573 42.852C24.9733 42.756 24.7653 42.708 24.5333 42.708C24.2933 42.708 24.0733 42.752 23.8733 42.84C23.6813 42.92 23.5133 43.036 23.3693 43.188C23.2333 43.332 23.1213 43.504 23.0333 43.704C22.9533 43.904 22.9093 44.12 22.9013 44.352H26.0933ZM22.9013 45.252C22.9013 45.492 22.9333 45.724 22.9973 45.948C23.0693 46.172 23.1733 46.368 23.3093 46.536C23.4453 46.704 23.6173 46.84 23.8253 46.944C24.0333 47.04 24.2813 47.088 24.5693 47.088C24.9693 47.088 25.2893 47.004 25.5293 46.836C25.7773 46.66 25.9613 46.4 26.0813 46.056H27.3773C27.3053 46.392 27.1813 46.692 27.0053 46.956C26.8293 47.22 26.6173 47.444 26.3693 47.628C26.1213 47.804 25.8413 47.936 25.5293 48.024C25.2253 48.12 24.9053 48.168 24.5693 48.168C24.0813 48.168 23.6493 48.088 23.2733 47.928C22.8973 47.768 22.5773 47.544 22.3133 47.256C22.0573 46.968 21.8613 46.624 21.7253 46.224C21.5973 45.824 21.5333 45.384 21.5333 44.904C21.5333 44.464 21.6013 44.048 21.7373 43.656C21.8813 43.256 22.0813 42.908 22.3373 42.612C22.6013 42.308 22.9173 42.068 23.2853 41.892C23.6533 41.716 24.0693 41.628 24.5333 41.628C25.0213 41.628 25.4573 41.732 25.8413 41.94C26.2333 42.14 26.5573 42.408 26.8133 42.744C27.0693 43.08 27.2533 43.468 27.3653 43.908C27.4853 44.34 27.5173 44.788 27.4613 45.252H22.9013ZM28.5373 39.432H29.9053V42.6H29.9293C30.0253 42.448 30.1413 42.312 30.2773 42.192C30.4133 42.072 30.5613 41.972 30.7213 41.892C30.8893 41.804 31.0613 41.74 31.2373 41.7C31.4213 41.652 31.6013 41.628 31.7773 41.628C32.2653 41.628 32.6893 41.716 33.0493 41.892C33.4173 42.06 33.7213 42.296 33.9613 42.6C34.2013 42.896 34.3813 43.244 34.5013 43.644C34.6213 44.044 34.6813 44.472 34.6813 44.928C34.6813 45.344 34.6253 45.748 34.5133 46.14C34.4093 46.532 34.2453 46.88 34.0213 47.184C33.8053 47.48 33.5293 47.72 33.1933 47.904C32.8573 48.08 32.4613 48.168 32.0053 48.168C31.7973 48.168 31.5853 48.152 31.3693 48.12C31.1613 48.096 30.9613 48.044 30.7693 47.964C30.5773 47.884 30.4013 47.78 30.2413 47.652C30.0893 47.524 29.9613 47.356 29.8573 47.148H29.8333V48H28.5373V39.432ZM33.3133 44.904C33.3133 44.624 33.2773 44.352 33.2053 44.088C33.1333 43.824 33.0253 43.592 32.8813 43.392C32.7373 43.184 32.5573 43.02 32.3413 42.9C32.1253 42.772 31.8773 42.708 31.5973 42.708C31.0213 42.708 30.5853 42.908 30.2893 43.308C30.0013 43.708 29.8573 44.24 29.8573 44.904C29.8573 45.216 29.8933 45.508 29.9653 45.78C30.0453 46.044 30.1613 46.272 30.3133 46.464C30.4653 46.656 30.6453 46.808 30.8533 46.92C31.0693 47.032 31.3173 47.088 31.5973 47.088C31.9093 47.088 32.1733 47.024 32.3893 46.896C32.6053 46.768 32.7813 46.604 32.9173 46.404C33.0613 46.196 33.1613 45.964 33.2173 45.708C33.2813 45.444 33.3133 45.176 33.3133 44.904ZM35.8372 41.796H37.1212V42.996H37.1452C37.1852 42.828 37.2612 42.664 37.3732 42.504C37.4932 42.344 37.6332 42.2 37.7932 42.072C37.9612 41.936 38.1452 41.828 38.3452 41.748C38.5452 41.668 38.7492 41.628 38.9572 41.628C39.1172 41.628 39.2252 41.632 39.2812 41.64C39.3452 41.648 39.4092 41.656 39.4732 41.664V42.984C39.3772 42.968 39.2772 42.956 39.1732 42.948C39.0772 42.932 38.9812 42.924 38.8852 42.924C38.6532 42.924 38.4332 42.972 38.2252 43.068C38.0252 43.156 37.8492 43.292 37.6972 43.476C37.5452 43.652 37.4252 43.872 37.3372 44.136C37.2492 44.4 37.2052 44.704 37.2052 45.048V48H35.8372V41.796ZM45.5039 48H44.1599V47.136H44.1359C43.9679 47.448 43.7159 47.7 43.3799 47.892C43.0519 48.076 42.7159 48.168 42.3719 48.168C41.5559 48.168 40.9639 47.968 40.5959 47.568C40.2359 47.16 40.0559 46.548 40.0559 45.732V41.796H41.4239V45.6C41.4239 46.144 41.5279 46.528 41.7359 46.752C41.9439 46.976 42.2359 47.088 42.6119 47.088C42.8999 47.088 43.1399 47.044 43.3319 46.956C43.5239 46.868 43.6799 46.752 43.7999 46.608C43.9199 46.456 44.0039 46.276 44.0519 46.068C44.1079 45.86 44.1359 45.636 44.1359 45.396V41.796H45.5039V48ZM52.1426 46.62C52.1426 46.788 52.1626 46.908 52.2026 46.98C52.2506 47.052 52.3386 47.088 52.4666 47.088C52.5066 47.088 52.5546 47.088 52.6106 47.088C52.6666 47.088 52.7306 47.08 52.8026 47.064V48.012C52.7546 48.028 52.6906 48.044 52.6106 48.06C52.5386 48.084 52.4626 48.104 52.3826 48.12C52.3026 48.136 52.2226 48.148 52.1426 48.156C52.0626 48.164 51.9946 48.168 51.9386 48.168C51.6586 48.168 51.4266 48.112 51.2426 48C51.0586 47.888 50.9386 47.692 50.8826 47.412C50.6106 47.676 50.2746 47.868 49.8746 47.988C49.4826 48.108 49.1026 48.168 48.7346 48.168C48.4546 48.168 48.1866 48.128 47.9306 48.048C47.6746 47.976 47.4466 47.868 47.2466 47.724C47.0546 47.572 46.8986 47.384 46.7786 47.16C46.6666 46.928 46.6106 46.66 46.6106 46.356C46.6106 45.972 46.6786 45.66 46.8146 45.42C46.9586 45.18 47.1426 44.992 47.3666 44.856C47.5986 44.72 47.8546 44.624 48.1346 44.568C48.4226 44.504 48.7106 44.456 48.9986 44.424C49.2466 44.376 49.4826 44.344 49.7066 44.328C49.9306 44.304 50.1266 44.268 50.2946 44.22C50.4706 44.172 50.6066 44.1 50.7026 44.004C50.8066 43.9 50.8586 43.748 50.8586 43.548C50.8586 43.372 50.8146 43.228 50.7266 43.116C50.6466 43.004 50.5426 42.92 50.4146 42.864C50.2946 42.8 50.1586 42.76 50.0066 42.744C49.8546 42.72 49.7106 42.708 49.5746 42.708C49.1906 42.708 48.8746 42.788 48.6266 42.948C48.3786 43.108 48.2386 43.356 48.2066 43.692H46.8386C46.8626 43.292 46.9586 42.96 47.1266 42.696C47.2946 42.432 47.5066 42.22 47.7626 42.06C48.0266 41.9 48.3226 41.788 48.6506 41.724C48.9786 41.66 49.3146 41.628 49.6586 41.628C49.9626 41.628 50.2626 41.66 50.5586 41.724C50.8546 41.788 51.1186 41.892 51.3506 42.036C51.5906 42.18 51.7826 42.368 51.9266 42.6C52.0706 42.824 52.1426 43.1 52.1426 43.428V46.62ZM50.7746 44.892C50.5666 45.028 50.3106 45.112 50.0066 45.144C49.7026 45.168 49.3986 45.208 49.0946 45.264C48.9506 45.288 48.8106 45.324 48.6746 45.372C48.5386 45.412 48.4186 45.472 48.3146 45.552C48.2106 45.624 48.1266 45.724 48.0626 45.852C48.0066 45.972 47.9786 46.12 47.9786 46.296C47.9786 46.448 48.0226 46.576 48.1106 46.68C48.1986 46.784 48.3026 46.868 48.4226 46.932C48.5506 46.988 48.6866 47.028 48.8306 47.052C48.9826 47.076 49.1186 47.088 49.2386 47.088C49.3906 47.088 49.5546 47.068 49.7306 47.028C49.9066 46.988 50.0706 46.92 50.2226 46.824C50.3826 46.728 50.5146 46.608 50.6186 46.464C50.7226 46.312 50.7746 46.128 50.7746 45.912V44.892ZM53.6145 41.796H54.8985V42.996H54.9225C54.9625 42.828 55.0385 42.664 55.1505 42.504C55.2705 42.344 55.4105 42.2 55.5705 42.072C55.7385 41.936 55.9225 41.828 56.1225 41.748C56.3225 41.668 56.5265 41.628 56.7345 41.628C56.8945 41.628 57.0025 41.632 57.0585 41.64C57.1225 41.648 57.1865 41.656 57.2505 41.664V42.984C57.1545 42.968 57.0545 42.956 56.9505 42.948C56.8545 42.932 56.7585 42.924 56.6625 42.924C56.4305 42.924 56.2105 42.972 56.0025 43.068C55.8025 43.156 55.6265 43.292 55.4745 43.476C55.3225 43.652 55.2025 43.872 55.1145 44.136C55.0265 44.4 54.9825 44.704 54.9825 45.048V48H53.6145V41.796ZM57.1493 41.796H58.6493L60.2693 46.428H60.2933L61.8653 41.796H63.2933L60.8813 48.336C60.7693 48.616 60.6573 48.884 60.5453 49.14C60.4413 49.396 60.3093 49.62 60.1493 49.812C59.9973 50.012 59.8053 50.168 59.5733 50.28C59.3413 50.4 59.0453 50.46 58.6853 50.46C58.3653 50.46 58.0493 50.436 57.7373 50.388V49.236C57.8493 49.252 57.9573 49.268 58.0613 49.284C58.1653 49.308 58.2733 49.32 58.3853 49.32C58.5453 49.32 58.6773 49.3 58.7813 49.26C58.8853 49.22 58.9693 49.16 59.0333 49.08C59.1053 49.008 59.1653 48.92 59.2133 48.816C59.2613 48.712 59.3053 48.592 59.3453 48.456L59.5013 47.976L57.1493 41.796ZM67.2638 44.088H70.7558V45.384H67.2638V44.088ZM75.3157 40.992C75.6037 40.992 75.8837 40.968 76.1557 40.92C76.4277 40.872 76.6717 40.792 76.8877 40.68C77.1117 40.568 77.2997 40.424 77.4517 40.248C77.6117 40.072 77.7157 39.856 77.7637 39.6H78.8797V48H77.3797V42.072H75.3157V40.992ZM81.7677 39.6H87.5157V40.74C87.0757 41.236 86.6757 41.752 86.3157 42.288C85.9557 42.816 85.6397 43.38 85.3677 43.98C85.1037 44.572 84.8877 45.2 84.7197 45.864C84.5517 46.528 84.4397 47.24 84.3837 48H82.8837C82.9317 47.336 83.0437 46.68 83.2197 46.032C83.4037 45.384 83.6357 44.756 83.9157 44.148C84.2037 43.54 84.5357 42.956 84.9117 42.396C85.2877 41.836 85.6917 41.312 86.1237 40.824H81.7677V39.6ZM91.9435 44.088H95.4355V45.384H91.9435V44.088ZM105.563 48H99.8274C99.8354 47.304 100.003 46.696 100.331 46.176C100.659 45.656 101.107 45.204 101.675 44.82C101.947 44.62 102.231 44.428 102.527 44.244C102.823 44.052 103.095 43.848 103.343 43.632C103.591 43.416 103.795 43.184 103.955 42.936C104.115 42.68 104.199 42.388 104.207 42.06C104.207 41.908 104.187 41.748 104.147 41.58C104.115 41.404 104.047 41.244 103.943 41.1C103.839 40.948 103.695 40.824 103.511 40.728C103.327 40.624 103.087 40.572 102.791 40.572C102.519 40.572 102.291 40.628 102.107 40.74C101.931 40.844 101.787 40.992 101.675 41.184C101.571 41.368 101.491 41.588 101.435 41.844C101.387 42.1 101.359 42.376 101.351 42.672H99.9834C99.9834 42.208 100.043 41.78 100.163 41.388C100.291 40.988 100.479 40.644 100.727 40.356C100.975 40.068 101.275 39.844 101.627 39.684C101.987 39.516 102.403 39.432 102.875 39.432C103.387 39.432 103.815 39.516 104.159 39.684C104.503 39.852 104.779 40.064 104.987 40.32C105.203 40.576 105.355 40.856 105.443 41.16C105.531 41.456 105.575 41.74 105.575 42.012C105.575 42.348 105.523 42.652 105.419 42.924C105.315 43.196 105.175 43.448 104.999 43.68C104.823 43.904 104.623 44.112 104.399 44.304C104.175 44.496 103.943 44.676 103.703 44.844C103.463 45.012 103.223 45.172 102.983 45.324C102.743 45.476 102.519 45.628 102.311 45.78C102.111 45.932 101.935 46.092 101.783 46.26C101.631 46.42 101.527 46.592 101.471 46.776H105.563V48ZM109.363 39.432C109.963 39.432 110.451 39.572 110.827 39.852C111.211 40.124 111.507 40.476 111.715 40.908C111.931 41.332 112.075 41.8 112.147 42.312C112.227 42.824 112.267 43.32 112.267 43.8C112.267 44.28 112.227 44.776 112.147 45.288C112.075 45.8 111.931 46.272 111.715 46.704C111.507 47.128 111.211 47.48 110.827 47.76C110.451 48.032 109.963 48.168 109.363 48.168C108.763 48.168 108.271 48.032 107.887 47.76C107.511 47.48 107.215 47.128 106.999 46.704C106.791 46.272 106.647 45.8 106.567 45.288C106.495 44.776 106.459 44.28 106.459 43.8C106.459 43.32 106.495 42.824 106.567 42.312C106.647 41.8 106.791 41.332 106.999 40.908C107.215 40.476 107.511 40.124 107.887 39.852C108.271 39.572 108.763 39.432 109.363 39.432ZM109.363 47.028C109.659 47.028 109.907 46.944 110.107 46.776C110.307 46.6 110.463 46.368 110.575 46.08C110.695 45.784 110.779 45.44 110.827 45.048C110.875 44.656 110.899 44.24 110.899 43.8C110.899 43.36 110.875 42.948 110.827 42.564C110.779 42.172 110.695 41.828 110.575 41.532C110.463 41.236 110.307 41.004 110.107 40.836C109.907 40.66 109.659 40.572 109.363 40.572C109.059 40.572 108.807 40.66 108.607 40.836C108.415 41.004 108.259 41.236 108.139 41.532C108.027 41.828 107.947 42.172 107.899 42.564C107.851 42.948 107.827 43.36 107.827 43.8C107.827 44.24 107.851 44.656 107.899 45.048C107.947 45.44 108.027 45.784 108.139 46.08C108.259 46.368 108.415 46.6 108.607 46.776C108.807 46.944 109.059 47.028 109.363 47.028ZM118.899 48H113.163C113.171 47.304 113.339 46.696 113.667 46.176C113.995 45.656 114.443 45.204 115.011 44.82C115.283 44.62 115.567 44.428 115.863 44.244C116.159 44.052 116.431 43.848 116.679 43.632C116.927 43.416 117.131 43.184 117.291 42.936C117.451 42.68 117.535 42.388 117.543 42.06C117.543 41.908 117.523 41.748 117.483 41.58C117.451 41.404 117.383 41.244 117.279 41.1C117.175 40.948 117.031 40.824 116.847 40.728C116.663 40.624 116.423 40.572 116.127 40.572C115.855 40.572 115.627 40.628 115.443 40.74C115.267 40.844 115.123 40.992 115.011 41.184C114.907 41.368 114.827 41.588 114.771 41.844C114.723 42.1 114.695 42.376 114.687 42.672H113.319C113.319 42.208 113.379 41.78 113.499 41.388C113.627 40.988 113.815 40.644 114.063 40.356C114.311 40.068 114.611 39.844 114.963 39.684C115.323 39.516 115.739 39.432 116.211 39.432C116.723 39.432 117.151 39.516 117.495 39.684C117.839 39.852 118.115 40.064 118.323 40.32C118.539 40.576 118.691 40.856 118.779 41.16C118.867 41.456 118.911 41.74 118.911 42.012C118.911 42.348 118.859 42.652 118.755 42.924C118.651 43.196 118.511 43.448 118.335 43.68C118.159 43.904 117.959 44.112 117.735 44.304C117.511 44.496 117.279 44.676 117.039 44.844C116.799 45.012 116.559 45.172 116.319 45.324C116.079 45.476 115.855 45.628 115.647 45.78C115.447 45.932 115.271 46.092 115.119 46.26C114.967 46.42 114.863 46.592 114.807 46.776H118.899V48ZM120.707 44.928H123.251V41.232H123.227L120.707 44.928ZM125.627 46.008H124.547V48H123.251V46.008H119.651V44.652L123.251 39.6H124.547V44.928H125.627V46.008Z" fill="#FFAA00"/>
<rect x="164" y="25.5" width="36" height="36" rx="12" fill="#FFAA00" fill-opacity="0.12"/>
<path fill-rule="evenodd" clip-rule="evenodd" d="M176 41.5C176 40.0273 177.194 38.8333 178.667 38.8333H185.333C186.806 38.8333 188 40.0273 188 41.5V46.8333C188 48.3061 186.806 49.5 185.333 49.5H178.667C177.194 49.5 176 48.3061 176 46.8333V41.5ZM178.667 40.1667C177.93 40.1667 177.333 40.7636 177.333 41.5V46.8333C177.333 47.5697 177.93 48.1667 178.667 48.1667H185.333C186.07 48.1667 186.667 47.5697 186.667 46.8333V41.5C186.667 40.7636 186.07 40.1667 185.333 40.1667H178.667Z" fill="#FFAA00"/>
<path fill-rule="evenodd" clip-rule="evenodd" d="M179.333 37.5C179.701 37.5 180 37.7985 180 38.1667V39.5C180 39.8682 179.701 40.1667 179.333 40.1667C178.965 40.1667 178.667 39.8682 178.667 39.5V38.1667C178.667 37.7985 178.965 37.5 179.333 37.5Z" fill="#FFAA00"/>
<path fill-rule="evenodd" clip-rule="evenodd" d="M184.667 37.5C185.035 37.5 185.333 37.7985 185.333 38.1667V39.5C185.333 39.8682 185.035 40.1667 184.667 40.1667C184.298 40.1667 184 39.8682 184 39.5V38.1667C184 37.7985 184.298 37.5 184.667 37.5Z" fill="#FFAA00"/>
<path d="M180 42.1667C180 42.5349 179.701 42.8333 179.333 42.8333C178.965 42.8333 178.667 42.5349 178.667 42.1667C178.667 41.7985 178.965 41.5 179.333 41.5C179.701 41.5 180 41.7985 180 42.1667Z" fill="#FFAA00"/>
<path d="M182.667 42.1667C182.667 42.5349 182.368 42.8333 182 42.8333C181.632 42.8333 181.333 42.5349 181.333 42.1667C181.333 41.7985 181.632 41.5 182 41.5C182.368 41.5 182.667 41.7985 182.667 42.1667Z" fill="#FFAA00"/>
<path d="M185.333 42.1667C185.333 42.5349 185.035 42.8333 184.667 42.8333C184.298 42.8333 184 42.5349 184 42.1667C184 41.7985 184.298 41.5 184.667 41.5C185.035 41.5 185.333 41.7985 185.333 42.1667Z" fill="#FFAA00"/>
<path d="M180 44.8333C180 45.2015 179.701 45.5 179.333 45.5C178.965 45.5 178.667 45.2015 178.667 44.8333C178.667 44.4651 178.965 44.1667 179.333 44.1667C179.701 44.1667 180 44.4651 180 44.8333Z" fill="#FFAA00"/>
</g>
<path d="M5.656 12C5.44 12 5.272 11.944 5.152 11.832C5.04 11.712 4.984 11.544 4.984 11.328V4.212C4.984 3.996 5.04 3.832 5.152 3.72C5.272 3.6 5.44 3.54 5.656 3.54H7.972C9.364 3.54 10.436 3.904 11.188 4.632C11.948 5.352 12.328 6.396 12.328 7.764C12.328 8.444 12.232 9.048 12.04 9.576C11.848 10.104 11.564 10.548 11.188 10.908C10.82 11.26 10.368 11.532 9.832 11.724C9.296 11.908 8.676 12 7.972 12H5.656ZM6.232 10.956H7.9C8.428 10.956 8.884 10.892 9.268 10.764C9.66 10.628 9.988 10.428 10.252 10.164C10.516 9.9 10.712 9.568 10.84 9.168C10.968 8.768 11.032 8.3 11.032 7.764C11.032 6.7 10.768 5.904 10.24 5.376C9.72 4.848 8.94 4.584 7.9 4.584H6.232V10.956ZM15.7357 12.108C15.3277 12.108 14.9597 12.028 14.6317 11.868C14.3117 11.708 14.0597 11.492 13.8757 11.22C13.6917 10.948 13.5997 10.64 13.5997 10.296C13.5997 9.864 13.7077 9.524 13.9237 9.276C14.1477 9.02 14.5117 8.84 15.0157 8.736C15.5277 8.624 16.2157 8.568 17.0797 8.568H17.6437V9.312H17.0917C16.5157 9.312 16.0597 9.34 15.7237 9.396C15.3877 9.452 15.1477 9.548 15.0037 9.684C14.8677 9.812 14.7997 9.992 14.7997 10.224C14.7997 10.528 14.9037 10.776 15.1117 10.968C15.3197 11.152 15.6077 11.244 15.9757 11.244C16.2717 11.244 16.5317 11.176 16.7557 11.04C16.9797 10.896 17.1557 10.704 17.2837 10.464C17.4197 10.224 17.4877 9.948 17.4877 9.636V8.256C17.4877 7.8 17.3917 7.472 17.1997 7.272C17.0077 7.072 16.6917 6.972 16.2517 6.972C15.9957 6.972 15.7277 7.004 15.4477 7.068C15.1757 7.132 14.8917 7.24 14.5957 7.392C14.4597 7.456 14.3437 7.476 14.2477 7.452C14.1517 7.428 14.0757 7.376 14.0197 7.296C13.9637 7.208 13.9317 7.116 13.9237 7.02C13.9237 6.916 13.9477 6.816 13.9957 6.72C14.0517 6.624 14.1437 6.552 14.2717 6.504C14.6237 6.336 14.9717 6.216 15.3157 6.144C15.6597 6.072 15.9837 6.036 16.2877 6.036C16.8237 6.036 17.2637 6.12 17.6077 6.288C17.9597 6.456 18.2197 6.712 18.3877 7.056C18.5557 7.4 18.6397 7.844 18.6397 8.388V11.472C18.6397 11.664 18.5917 11.816 18.4957 11.928C18.3997 12.032 18.2597 12.084 18.0757 12.084C17.8997 12.084 17.7597 12.032 17.6557 11.928C17.5517 11.816 17.4997 11.664 17.4997 11.472V10.692H17.6077C17.5437 10.988 17.4237 11.244 17.2477 11.46C17.0797 11.668 16.8677 11.828 16.6117 11.94C16.3557 12.052 16.0637 12.108 15.7357 12.108ZM22.805 12.108C22.325 12.108 21.921 12.024 21.593 11.856C21.265 11.688 21.021 11.44 20.861 11.112C20.701 10.784 20.621 10.384 20.621 9.912V7.08H19.901C19.741 7.08 19.617 7.04 19.529 6.96C19.441 6.872 19.397 6.756 19.397 6.612C19.397 6.46 19.441 6.344 19.529 6.264C19.617 6.184 19.741 6.144 19.901 6.144H20.621V4.908C20.621 4.708 20.673 4.556 20.777 4.452C20.889 4.348 21.041 4.296 21.233 4.296C21.425 4.296 21.573 4.348 21.677 4.452C21.781 4.556 21.833 4.708 21.833 4.908V6.144H23.237C23.397 6.144 23.521 6.184 23.609 6.264C23.697 6.344 23.741 6.46 23.741 6.612C23.741 6.756 23.697 6.872 23.609 6.96C23.521 7.04 23.397 7.08 23.237 7.08H21.833V9.816C21.833 10.24 21.921 10.56 22.097 10.776C22.281 10.992 22.577 11.1 22.985 11.1C23.129 11.1 23.253 11.088 23.357 11.064C23.469 11.032 23.561 11.012 23.633 11.004C23.721 11.004 23.793 11.036 23.849 11.1C23.905 11.156 23.933 11.268 23.933 11.436C23.933 11.556 23.909 11.668 23.861 11.772C23.821 11.876 23.745 11.944 23.633 11.976C23.537 12.008 23.405 12.036 23.237 12.06C23.077 12.092 22.933 12.108 22.805 12.108ZM27.3813 12.108C26.7413 12.108 26.1893 11.988 25.7253 11.748C25.2693 11.5 24.9133 11.152 24.6573 10.704C24.4093 10.248 24.2853 9.708 24.2853 9.084C24.2853 8.476 24.4093 7.944 24.6573 7.488C24.9053 7.032 25.2453 6.676 25.6773 6.42C26.1093 6.164 26.6013 6.036 27.1533 6.036C27.5613 6.036 27.9253 6.104 28.2453 6.24C28.5653 6.368 28.8373 6.56 29.0613 6.816C29.2933 7.064 29.4653 7.368 29.5773 7.728C29.6973 8.088 29.7573 8.492 29.7573 8.94C29.7573 9.076 29.7173 9.18 29.6373 9.252C29.5573 9.316 29.4373 9.348 29.2773 9.348H25.2453V8.604H28.9413L28.7373 8.772C28.7373 8.372 28.6773 8.032 28.5573 7.752C28.4453 7.472 28.2733 7.26 28.0413 7.116C27.8173 6.964 27.5373 6.888 27.2013 6.888C26.8253 6.888 26.5053 6.976 26.2413 7.152C25.9853 7.328 25.7893 7.572 25.6533 7.884C25.5173 8.196 25.4493 8.56 25.4493 8.976V9.048C25.4493 9.752 25.6133 10.284 25.9413 10.644C26.2773 10.996 26.7613 11.172 27.3933 11.172C27.6333 11.172 27.8853 11.14 28.1493 11.076C28.4213 11.012 28.6773 10.904 28.9173 10.752C29.0533 10.672 29.1733 10.636 29.2773 10.644C29.3893 10.652 29.4773 10.688 29.5413 10.752C29.6133 10.816 29.6573 10.896 29.6733 10.992C29.6893 11.088 29.6733 11.188 29.6253 11.292C29.5773 11.388 29.4933 11.476 29.3733 11.556C29.1013 11.74 28.7853 11.88 28.4253 11.976C28.0653 12.064 27.7173 12.108 27.3813 12.108Z" fill="#64728C"/>
<defs>
<filter id="filter0_d_614_6400" x="0" y="21" width="208" height="53" filterUnits="userSpaceOnUse" color-interpolation-filters="sRGB">
<feFlood flood-opacity="0" result="BackgroundImageFix"/>
<feColorMatrix in="SourceAlpha" type="matrix" values="0 0 0 0 0 0 0 0 0 0 0 0 0 0 0 0 0 0 127 0" result="hardAlpha"/>
<feOffset dy="4"/>
<feGaussianBlur stdDeviation="2"/>
<feComposite in2="hardAlpha" operator="out"/>
<feColorMatrix type="matrix" values="0 0 0 0 1 0 0 0 0 0.666667 0 0 0 0 0 0 0 0 0.12 0"/>
<feBlend mode="normal" in2="BackgroundImageFix" result="effect1_dropShadow_614_6400"/>
<feBlend mode="normal" in="SourceGraphic" in2="effect1_dropShadow_614_6400" result="shape"/>
</filter>
</defs>
</svg>
