<svg width="281" height="66" viewBox="0 0 281 66" fill="none" xmlns="http://www.w3.org/2000/svg">
<rect x="0.5" y="21.5" width="280" height="44" rx="11.5" stroke="#E8EAEF"/>
<path d="M16.204 48H10.468C10.476 47.304 10.644 46.696 10.972 46.176C11.3 45.656 11.748 45.204 12.316 44.82C12.588 44.62 12.872 44.428 13.168 44.244C13.464 44.052 13.736 43.848 13.984 43.632C14.232 43.416 14.436 43.184 14.596 42.936C14.756 42.68 14.84 42.388 14.848 42.06C14.848 41.908 14.828 41.748 14.788 41.58C14.756 41.404 14.688 41.244 14.584 41.1C14.48 40.948 14.336 40.824 14.152 40.728C13.968 40.624 13.728 40.572 13.432 40.572C13.16 40.572 12.932 40.628 12.748 40.74C12.572 40.844 12.428 40.992 12.316 41.184C12.212 41.368 12.132 41.588 12.076 41.844C12.028 42.1 12 42.376 11.992 42.672H10.624C10.624 42.208 10.684 41.78 10.804 41.388C10.932 40.988 11.12 40.644 11.368 40.356C11.616 40.068 11.916 39.844 12.268 39.684C12.628 39.516 13.044 39.432 13.516 39.432C14.028 39.432 14.456 39.516 14.8 39.684C15.144 39.852 15.42 40.064 15.628 40.32C15.844 40.576 15.996 40.856 16.084 41.16C16.172 41.456 16.216 41.74 16.216 42.012C16.216 42.348 16.164 42.652 16.06 42.924C15.956 43.196 15.816 43.448 15.64 43.68C15.464 43.904 15.264 44.112 15.04 44.304C14.816 44.496 14.584 44.676 14.344 44.844C14.104 45.012 13.864 45.172 13.624 45.324C13.384 45.476 13.16 45.628 12.952 45.78C12.752 45.932 12.576 46.092 12.424 46.26C12.272 46.42 12.168 46.592 12.112 46.776H16.204V48ZM20.004 39.432C20.604 39.432 21.092 39.572 21.468 39.852C21.852 40.124 22.148 40.476 22.356 40.908C22.572 41.332 22.716 41.8 22.788 42.312C22.868 42.824 22.908 43.32 22.908 43.8C22.908 44.28 22.868 44.776 22.788 45.288C22.716 45.8 22.572 46.272 22.356 46.704C22.148 47.128 21.852 47.48 21.468 47.76C21.092 48.032 20.604 48.168 20.004 48.168C19.404 48.168 18.912 48.032 18.528 47.76C18.152 47.48 17.856 47.128 17.64 46.704C17.432 46.272 17.288 45.8 17.208 45.288C17.136 44.776 17.1 44.28 17.1 43.8C17.1 43.32 17.136 42.824 17.208 42.312C17.288 41.8 17.432 41.332 17.64 40.908C17.856 40.476 18.152 40.124 18.528 39.852C18.912 39.572 19.404 39.432 20.004 39.432ZM20.004 47.028C20.3 47.028 20.548 46.944 20.748 46.776C20.948 46.6 21.104 46.368 21.216 46.08C21.336 45.784 21.42 45.44 21.468 45.048C21.516 44.656 21.54 44.24 21.54 43.8C21.54 43.36 21.516 42.948 21.468 42.564C21.42 42.172 21.336 41.828 21.216 41.532C21.104 41.236 20.948 41.004 20.748 40.836C20.548 40.66 20.3 40.572 20.004 40.572C19.7 40.572 19.448 40.66 19.248 40.836C19.056 41.004 18.9 41.236 18.78 41.532C18.668 41.828 18.588 42.172 18.54 42.564C18.492 42.948 18.468 43.36 18.468 43.8C18.468 44.24 18.492 44.656 18.54 45.048C18.588 45.44 18.668 45.784 18.78 46.08C18.9 46.368 19.056 46.6 19.248 46.776C19.448 46.944 19.7 47.028 20.004 47.028ZM29.5399 48H23.8039C23.8119 47.304 23.9799 46.696 24.3079 46.176C24.6359 45.656 25.0839 45.204 25.6519 44.82C25.9239 44.62 26.2079 44.428 26.5039 44.244C26.7999 44.052 27.0719 43.848 27.3199 43.632C27.5679 43.416 27.7719 43.184 27.9319 42.936C28.0919 42.68 28.1759 42.388 28.1839 42.06C28.1839 41.908 28.1639 41.748 28.1239 41.58C28.0919 41.404 28.0239 41.244 27.9199 41.1C27.8159 40.948 27.6719 40.824 27.4879 40.728C27.3039 40.624 27.0639 40.572 26.7679 40.572C26.4959 40.572 26.2679 40.628 26.0839 40.74C25.9079 40.844 25.7639 40.992 25.6519 41.184C25.5479 41.368 25.4679 41.588 25.4119 41.844C25.3639 42.1 25.3359 42.376 25.3279 42.672H23.9599C23.9599 42.208 24.0199 41.78 24.1399 41.388C24.2679 40.988 24.4559 40.644 24.7039 40.356C24.9519 40.068 25.2519 39.844 25.6039 39.684C25.9639 39.516 26.3799 39.432 26.8519 39.432C27.3639 39.432 27.7919 39.516 28.1359 39.684C28.4799 39.852 28.7559 40.064 28.9639 40.32C29.1799 40.576 29.3319 40.856 29.4199 41.16C29.5079 41.456 29.5519 41.74 29.5519 42.012C29.5519 42.348 29.4999 42.652 29.3959 42.924C29.2919 43.196 29.1519 43.448 28.9759 43.68C28.7999 43.904 28.5999 44.112 28.3759 44.304C28.1519 44.496 27.9199 44.676 27.6799 44.844C27.4399 45.012 27.1999 45.172 26.9599 45.324C26.7199 45.476 26.4959 45.628 26.2879 45.78C26.0879 45.932 25.9119 46.092 25.7599 46.26C25.6079 46.42 25.5039 46.592 25.4479 46.776H29.5399V48ZM31.3479 44.928H33.8919V41.232H33.8679L31.3479 44.928ZM36.2679 46.008H35.1879V48H33.8919V46.008H30.2919V44.652L33.8919 39.6H35.1879V44.928H36.2679V46.008ZM40.5997 44.088H44.0917V45.384H40.5997V44.088ZM51.3516 39.432C51.9516 39.432 52.4396 39.572 52.8156 39.852C53.1996 40.124 53.4956 40.476 53.7036 40.908C53.9196 41.332 54.0636 41.8 54.1356 42.312C54.2156 42.824 54.2556 43.32 54.2556 43.8C54.2556 44.28 54.2156 44.776 54.1356 45.288C54.0636 45.8 53.9196 46.272 53.7036 46.704C53.4956 47.128 53.1996 47.48 52.8156 47.76C52.4396 48.032 51.9516 48.168 51.3516 48.168C50.7516 48.168 50.2596 48.032 49.8756 47.76C49.4996 47.48 49.2036 47.128 48.9876 46.704C48.7796 46.272 48.6356 45.8 48.5556 45.288C48.4836 44.776 48.4476 44.28 48.4476 43.8C48.4476 43.32 48.4836 42.824 48.5556 42.312C48.6356 41.8 48.7796 41.332 48.9876 40.908C49.2036 40.476 49.4996 40.124 49.8756 39.852C50.2596 39.572 50.7516 39.432 51.3516 39.432ZM51.3516 47.028C51.6476 47.028 51.8956 46.944 52.0956 46.776C52.2956 46.6 52.4516 46.368 52.5636 46.08C52.6836 45.784 52.7676 45.44 52.8156 45.048C52.8636 44.656 52.8876 44.24 52.8876 43.8C52.8876 43.36 52.8636 42.948 52.8156 42.564C52.7676 42.172 52.6836 41.828 52.5636 41.532C52.4516 41.236 52.2956 41.004 52.0956 40.836C51.8956 40.66 51.6476 40.572 51.3516 40.572C51.0476 40.572 50.7956 40.66 50.5956 40.836C50.4036 41.004 50.2476 41.236 50.1276 41.532C50.0156 41.828 49.9356 42.172 49.8876 42.564C49.8396 42.948 49.8156 43.36 49.8156 43.8C49.8156 44.24 49.8396 44.656 49.8876 45.048C49.9356 45.44 50.0156 45.784 50.1276 46.08C50.2476 46.368 50.4036 46.6 50.5956 46.776C50.7956 46.944 51.0476 47.028 51.3516 47.028ZM58.0196 40.512C57.6516 40.512 57.3396 40.624 57.0836 40.848C56.8276 41.064 56.6996 41.38 56.6996 41.796C56.6996 42.196 56.8236 42.504 57.0716 42.72C57.3196 42.928 57.6356 43.032 58.0196 43.032C58.4036 43.032 58.7196 42.928 58.9676 42.72C59.2156 42.504 59.3396 42.196 59.3396 41.796C59.3396 41.38 59.2116 41.064 58.9556 40.848C58.6996 40.624 58.3876 40.512 58.0196 40.512ZM58.0196 48.168C57.5956 48.168 57.1996 48.108 56.8316 47.988C56.4716 47.868 56.1596 47.696 55.8956 47.472C55.6316 47.24 55.4236 46.96 55.2716 46.632C55.1276 46.304 55.0556 45.936 55.0556 45.528C55.0556 45 55.1916 44.556 55.4636 44.196C55.7436 43.836 56.1196 43.596 56.5916 43.476V43.452C56.2076 43.308 55.9116 43.088 55.7036 42.792C55.5036 42.488 55.4036 42.132 55.4036 41.724C55.4036 41.004 55.6276 40.444 56.0756 40.044C56.5316 39.636 57.1796 39.432 58.0196 39.432C58.8596 39.432 59.5036 39.636 59.9516 40.044C60.4076 40.444 60.6356 41.004 60.6356 41.724C60.6356 42.132 60.5316 42.488 60.3236 42.792C60.1236 43.088 59.8316 43.308 59.4476 43.452V43.476C59.9196 43.596 60.2916 43.836 60.5636 44.196C60.8436 44.556 60.9836 45 60.9836 45.528C60.9836 45.936 60.9076 46.304 60.7556 46.632C60.6116 46.96 60.4076 47.24 60.1436 47.472C59.8796 47.696 59.5636 47.868 59.1956 47.988C58.8356 48.108 58.4436 48.168 58.0196 48.168ZM58.0196 47.088C58.4756 47.088 58.8556 46.952 59.1596 46.68C59.4636 46.408 59.6156 46.024 59.6156 45.528C59.6156 45.064 59.4636 44.704 59.1596 44.448C58.8556 44.184 58.4756 44.052 58.0196 44.052C57.5636 44.052 57.1836 44.184 56.8796 44.448C56.5756 44.704 56.4236 45.064 56.4236 45.528C56.4236 46.024 56.5756 46.408 56.8796 46.68C57.1836 46.952 57.5636 47.088 58.0196 47.088ZM65.2794 44.088H68.7714V45.384H65.2794V44.088ZM78.8993 48H73.1633C73.1713 47.304 73.3393 46.696 73.6673 46.176C73.9953 45.656 74.4433 45.204 75.0113 44.82C75.2833 44.62 75.5673 44.428 75.8633 44.244C76.1593 44.052 76.4313 43.848 76.6793 43.632C76.9273 43.416 77.1313 43.184 77.2913 42.936C77.4513 42.68 77.5353 42.388 77.5433 42.06C77.5433 41.908 77.5233 41.748 77.4833 41.58C77.4513 41.404 77.3833 41.244 77.2793 41.1C77.1753 40.948 77.0313 40.824 76.8473 40.728C76.6633 40.624 76.4233 40.572 76.1273 40.572C75.8553 40.572 75.6273 40.628 75.4433 40.74C75.2673 40.844 75.1233 40.992 75.0113 41.184C74.9073 41.368 74.8273 41.588 74.7713 41.844C74.7233 42.1 74.6953 42.376 74.6873 42.672H73.3193C73.3193 42.208 73.3793 41.78 73.4993 41.388C73.6273 40.988 73.8153 40.644 74.0633 40.356C74.3113 40.068 74.6113 39.844 74.9633 39.684C75.3233 39.516 75.7393 39.432 76.2113 39.432C76.7233 39.432 77.1513 39.516 77.4953 39.684C77.8393 39.852 78.1153 40.064 78.3233 40.32C78.5393 40.576 78.6913 40.856 78.7793 41.16C78.8673 41.456 78.9113 41.74 78.9113 42.012C78.9113 42.348 78.8593 42.652 78.7553 42.924C78.6513 43.196 78.5113 43.448 78.3353 43.68C78.1593 43.904 77.9593 44.112 77.7353 44.304C77.5113 44.496 77.2793 44.676 77.0393 44.844C76.7993 45.012 76.5593 45.172 76.3193 45.324C76.0793 45.476 75.8553 45.628 75.6473 45.78C75.4473 45.932 75.2713 46.092 75.1193 46.26C74.9673 46.42 74.8633 46.592 74.8073 46.776H78.8993V48ZM79.7833 39.6H85.5313V40.74C85.0913 41.236 84.6913 41.752 84.3313 42.288C83.9713 42.816 83.6553 43.38 83.3833 43.98C83.1193 44.572 82.9033 45.2 82.7353 45.864C82.5673 46.528 82.4553 47.24 82.3993 48H80.8993C80.9473 47.336 81.0593 46.68 81.2353 46.032C81.4193 45.384 81.6513 44.756 81.9313 44.148C82.2193 43.54 82.5513 42.956 82.9273 42.396C83.3033 41.836 83.7073 41.312 84.1393 40.824H79.7833V39.6Z" fill="#64728C"/>
<rect x="97" y="25.5" width="36" height="36" rx="12" fill="#64728C" fill-opacity="0.12"/>
<path fill-rule="evenodd" clip-rule="evenodd" d="M109 41.5C109 40.0272 110.194 38.8333 111.667 38.8333H118.333C119.806 38.8333 121 40.0272 121 41.5V46.8333C121 48.306 119.806 49.5 118.333 49.5H111.667C110.194 49.5 109 48.306 109 46.8333V41.5ZM111.667 40.1666C110.93 40.1666 110.333 40.7636 110.333 41.5V46.8333C110.333 47.5697 110.93 48.1666 111.667 48.1666H118.333C119.07 48.1666 119.667 47.5697 119.667 46.8333V41.5C119.667 40.7636 119.07 40.1666 118.333 40.1666H111.667Z" fill="#64728C"/>
<path fill-rule="evenodd" clip-rule="evenodd" d="M112.333 37.5C112.701 37.5 113 37.7985 113 38.1667V39.5C113 39.8682 112.701 40.1667 112.333 40.1667C111.965 40.1667 111.667 39.8682 111.667 39.5V38.1667C111.667 37.7985 111.965 37.5 112.333 37.5Z" fill="#64728C"/>
<path fill-rule="evenodd" clip-rule="evenodd" d="M117.667 37.5C118.035 37.5 118.333 37.7985 118.333 38.1667V39.5C118.333 39.8682 118.035 40.1667 117.667 40.1667C117.298 40.1667 117 39.8682 117 39.5V38.1667C117 37.7985 117.298 37.5 117.667 37.5Z" fill="#64728C"/>
<path d="M113 42.1667C113 42.5349 112.701 42.8333 112.333 42.8333C111.965 42.8333 111.667 42.5349 111.667 42.1667C111.667 41.7985 111.965 41.5 112.333 41.5C112.701 41.5 113 41.7985 113 42.1667Z" fill="#64728C"/>
<path d="M115.667 42.1667C115.667 42.5349 115.368 42.8333 115 42.8333C114.632 42.8333 114.333 42.5349 114.333 42.1667C114.333 41.7985 114.632 41.5 115 41.5C115.368 41.5 115.667 41.7985 115.667 42.1667Z" fill="#64728C"/>
<path d="M118.333 42.1667C118.333 42.5349 118.035 42.8333 117.667 42.8333C117.298 42.8333 117 42.5349 117 42.1667C117 41.7985 117.298 41.5 117.667 41.5C118.035 41.5 118.333 41.7985 118.333 42.1667Z" fill="#64728C"/>
<path d="M113 44.8334C113 45.2016 112.701 45.5 112.333 45.5C111.965 45.5 111.667 45.2016 111.667 44.8334C111.667 44.4652 111.965 44.1667 112.333 44.1667C112.701 44.1667 113 44.4652 113 44.8334Z" fill="#64728C"/>
<line x1="143.5" y1="25.5" x2="143.5" y2="61.5" stroke="#E8EAEF"/>
<path d="M159.204 48H153.468C153.476 47.304 153.644 46.696 153.972 46.176C154.3 45.656 154.748 45.204 155.316 44.82C155.588 44.62 155.872 44.428 156.168 44.244C156.464 44.052 156.736 43.848 156.984 43.632C157.232 43.416 157.436 43.184 157.596 42.936C157.756 42.68 157.84 42.388 157.848 42.06C157.848 41.908 157.828 41.748 157.788 41.58C157.756 41.404 157.688 41.244 157.584 41.1C157.48 40.948 157.336 40.824 157.152 40.728C156.968 40.624 156.728 40.572 156.432 40.572C156.16 40.572 155.932 40.628 155.748 40.74C155.572 40.844 155.428 40.992 155.316 41.184C155.212 41.368 155.132 41.588 155.076 41.844C155.028 42.1 155 42.376 154.992 42.672H153.624C153.624 42.208 153.684 41.78 153.804 41.388C153.932 40.988 154.12 40.644 154.368 40.356C154.616 40.068 154.916 39.844 155.268 39.684C155.628 39.516 156.044 39.432 156.516 39.432C157.028 39.432 157.456 39.516 157.8 39.684C158.144 39.852 158.42 40.064 158.628 40.32C158.844 40.576 158.996 40.856 159.084 41.16C159.172 41.456 159.216 41.74 159.216 42.012C159.216 42.348 159.164 42.652 159.06 42.924C158.956 43.196 158.816 43.448 158.64 43.68C158.464 43.904 158.264 44.112 158.04 44.304C157.816 44.496 157.584 44.676 157.344 44.844C157.104 45.012 156.864 45.172 156.624 45.324C156.384 45.476 156.16 45.628 155.952 45.78C155.752 45.932 155.576 46.092 155.424 46.26C155.272 46.42 155.168 46.592 155.112 46.776H159.204V48ZM163.004 39.432C163.604 39.432 164.092 39.572 164.468 39.852C164.852 40.124 165.148 40.476 165.356 40.908C165.572 41.332 165.716 41.8 165.788 42.312C165.868 42.824 165.908 43.32 165.908 43.8C165.908 44.28 165.868 44.776 165.788 45.288C165.716 45.8 165.572 46.272 165.356 46.704C165.148 47.128 164.852 47.48 164.468 47.76C164.092 48.032 163.604 48.168 163.004 48.168C162.404 48.168 161.912 48.032 161.528 47.76C161.152 47.48 160.856 47.128 160.64 46.704C160.432 46.272 160.288 45.8 160.208 45.288C160.136 44.776 160.1 44.28 160.1 43.8C160.1 43.32 160.136 42.824 160.208 42.312C160.288 41.8 160.432 41.332 160.64 40.908C160.856 40.476 161.152 40.124 161.528 39.852C161.912 39.572 162.404 39.432 163.004 39.432ZM163.004 47.028C163.3 47.028 163.548 46.944 163.748 46.776C163.948 46.6 164.104 46.368 164.216 46.08C164.336 45.784 164.42 45.44 164.468 45.048C164.516 44.656 164.54 44.24 164.54 43.8C164.54 43.36 164.516 42.948 164.468 42.564C164.42 42.172 164.336 41.828 164.216 41.532C164.104 41.236 163.948 41.004 163.748 40.836C163.548 40.66 163.3 40.572 163.004 40.572C162.7 40.572 162.448 40.66 162.248 40.836C162.056 41.004 161.9 41.236 161.78 41.532C161.668 41.828 161.588 42.172 161.54 42.564C161.492 42.948 161.468 43.36 161.468 43.8C161.468 44.24 161.492 44.656 161.54 45.048C161.588 45.44 161.668 45.784 161.78 46.08C161.9 46.368 162.056 46.6 162.248 46.776C162.448 46.944 162.7 47.028 163.004 47.028ZM172.54 48H166.804C166.812 47.304 166.98 46.696 167.308 46.176C167.636 45.656 168.084 45.204 168.652 44.82C168.924 44.62 169.208 44.428 169.504 44.244C169.8 44.052 170.072 43.848 170.32 43.632C170.568 43.416 170.772 43.184 170.932 42.936C171.092 42.68 171.176 42.388 171.184 42.06C171.184 41.908 171.164 41.748 171.124 41.58C171.092 41.404 171.024 41.244 170.92 41.1C170.816 40.948 170.672 40.824 170.488 40.728C170.304 40.624 170.064 40.572 169.768 40.572C169.496 40.572 169.268 40.628 169.084 40.74C168.908 40.844 168.764 40.992 168.652 41.184C168.548 41.368 168.468 41.588 168.412 41.844C168.364 42.1 168.336 42.376 168.328 42.672H166.96C166.96 42.208 167.02 41.78 167.14 41.388C167.268 40.988 167.456 40.644 167.704 40.356C167.952 40.068 168.252 39.844 168.604 39.684C168.964 39.516 169.38 39.432 169.852 39.432C170.364 39.432 170.792 39.516 171.136 39.684C171.48 39.852 171.756 40.064 171.964 40.32C172.18 40.576 172.332 40.856 172.42 41.16C172.508 41.456 172.552 41.74 172.552 42.012C172.552 42.348 172.5 42.652 172.396 42.924C172.292 43.196 172.152 43.448 171.976 43.68C171.8 43.904 171.6 44.112 171.376 44.304C171.152 44.496 170.92 44.676 170.68 44.844C170.44 45.012 170.2 45.172 169.96 45.324C169.72 45.476 169.496 45.628 169.288 45.78C169.088 45.932 168.912 46.092 168.76 46.26C168.608 46.42 168.504 46.592 168.448 46.776H172.54V48ZM174.348 44.928H176.892V41.232H176.868L174.348 44.928ZM179.268 46.008H178.188V48H176.892V46.008H173.292V44.652L176.892 39.6H178.188V44.928H179.268V46.008ZM183.6 44.088H187.092V45.384H183.6V44.088ZM194.352 39.432C194.952 39.432 195.44 39.572 195.816 39.852C196.2 40.124 196.496 40.476 196.704 40.908C196.92 41.332 197.064 41.8 197.136 42.312C197.216 42.824 197.256 43.32 197.256 43.8C197.256 44.28 197.216 44.776 197.136 45.288C197.064 45.8 196.92 46.272 196.704 46.704C196.496 47.128 196.2 47.48 195.816 47.76C195.44 48.032 194.952 48.168 194.352 48.168C193.752 48.168 193.26 48.032 192.876 47.76C192.5 47.48 192.204 47.128 191.988 46.704C191.78 46.272 191.636 45.8 191.556 45.288C191.484 44.776 191.448 44.28 191.448 43.8C191.448 43.32 191.484 42.824 191.556 42.312C191.636 41.8 191.78 41.332 191.988 40.908C192.204 40.476 192.5 40.124 192.876 39.852C193.26 39.572 193.752 39.432 194.352 39.432ZM194.352 47.028C194.648 47.028 194.896 46.944 195.096 46.776C195.296 46.6 195.452 46.368 195.564 46.08C195.684 45.784 195.768 45.44 195.816 45.048C195.864 44.656 195.888 44.24 195.888 43.8C195.888 43.36 195.864 42.948 195.816 42.564C195.768 42.172 195.684 41.828 195.564 41.532C195.452 41.236 195.296 41.004 195.096 40.836C194.896 40.66 194.648 40.572 194.352 40.572C194.048 40.572 193.796 40.66 193.596 40.836C193.404 41.004 193.248 41.236 193.128 41.532C193.016 41.828 192.936 42.172 192.888 42.564C192.84 42.948 192.816 43.36 192.816 43.8C192.816 44.24 192.84 44.656 192.888 45.048C192.936 45.44 193.016 45.784 193.128 46.08C193.248 46.368 193.404 46.6 193.596 46.776C193.796 46.944 194.048 47.028 194.352 47.028ZM199.616 45.876C199.648 46.22 199.768 46.5 199.976 46.716C200.192 46.924 200.48 47.028 200.84 47.028C201.208 47.028 201.5 46.932 201.716 46.74C201.94 46.54 202.112 46.296 202.232 46.008C202.352 45.712 202.432 45.4 202.472 45.072C202.52 44.736 202.556 44.428 202.58 44.148L202.556 44.124C202.372 44.452 202.12 44.704 201.8 44.88C201.48 45.048 201.128 45.132 200.744 45.132C200.344 45.132 199.98 45.064 199.652 44.928C199.332 44.792 199.056 44.604 198.824 44.364C198.592 44.116 198.412 43.82 198.284 43.476C198.156 43.124 198.092 42.732 198.092 42.3C198.092 41.892 198.156 41.516 198.284 41.172C198.412 40.82 198.6 40.516 198.848 40.26C199.096 39.996 199.4 39.792 199.76 39.648C200.12 39.504 200.528 39.432 200.984 39.432C201.576 39.432 202.064 39.548 202.448 39.78C202.832 40.004 203.132 40.316 203.348 40.716C203.572 41.108 203.728 41.572 203.816 42.108C203.904 42.644 203.948 43.216 203.948 43.824C203.948 44.328 203.892 44.836 203.78 45.348C203.676 45.86 203.5 46.328 203.252 46.752C203.004 47.168 202.676 47.508 202.268 47.772C201.868 48.036 201.372 48.168 200.78 48.168C200.444 48.168 200.128 48.112 199.832 48C199.536 47.888 199.272 47.732 199.04 47.532C198.816 47.332 198.632 47.092 198.488 46.812C198.344 46.532 198.264 46.22 198.248 45.876H199.616ZM200.924 40.572C200.676 40.572 200.46 40.62 200.276 40.716C200.092 40.804 199.94 40.928 199.82 41.088C199.7 41.248 199.608 41.432 199.544 41.64C199.488 41.848 199.46 42.064 199.46 42.288C199.46 42.52 199.488 42.744 199.544 42.96C199.608 43.168 199.7 43.352 199.82 43.512C199.94 43.672 200.092 43.804 200.276 43.908C200.46 44.004 200.676 44.052 200.924 44.052C201.18 44.052 201.404 44.004 201.596 43.908C201.788 43.812 201.944 43.684 202.064 43.524C202.192 43.356 202.288 43.168 202.352 42.96C202.416 42.744 202.448 42.52 202.448 42.288C202.448 42.064 202.416 41.848 202.352 41.64C202.288 41.432 202.192 41.252 202.064 41.1C201.944 40.94 201.788 40.812 201.596 40.716C201.404 40.62 201.18 40.572 200.924 40.572ZM208.279 44.088H211.771V45.384H208.279V44.088ZM216.331 40.992C216.619 40.992 216.899 40.968 217.171 40.92C217.443 40.872 217.687 40.792 217.903 40.68C218.127 40.568 218.315 40.424 218.467 40.248C218.627 40.072 218.731 39.856 218.779 39.6H219.895V48H218.395V42.072H216.331V40.992ZM225.699 39.432C226.299 39.432 226.787 39.572 227.163 39.852C227.547 40.124 227.843 40.476 228.051 40.908C228.267 41.332 228.411 41.8 228.483 42.312C228.563 42.824 228.603 43.32 228.603 43.8C228.603 44.28 228.563 44.776 228.483 45.288C228.411 45.8 228.267 46.272 228.051 46.704C227.843 47.128 227.547 47.48 227.163 47.76C226.787 48.032 226.299 48.168 225.699 48.168C225.099 48.168 224.607 48.032 224.223 47.76C223.847 47.48 223.551 47.128 223.335 46.704C223.127 46.272 222.983 45.8 222.903 45.288C222.831 44.776 222.795 44.28 222.795 43.8C222.795 43.32 222.831 42.824 222.903 42.312C222.983 41.8 223.127 41.332 223.335 40.908C223.551 40.476 223.847 40.124 224.223 39.852C224.607 39.572 225.099 39.432 225.699 39.432ZM225.699 47.028C225.995 47.028 226.243 46.944 226.443 46.776C226.643 46.6 226.799 46.368 226.911 46.08C227.031 45.784 227.115 45.44 227.163 45.048C227.211 44.656 227.235 44.24 227.235 43.8C227.235 43.36 227.211 42.948 227.163 42.564C227.115 42.172 227.031 41.828 226.911 41.532C226.799 41.236 226.643 41.004 226.443 40.836C226.243 40.66 225.995 40.572 225.699 40.572C225.395 40.572 225.143 40.66 224.943 40.836C224.751 41.004 224.595 41.236 224.475 41.532C224.363 41.828 224.283 42.172 224.235 42.564C224.187 42.948 224.163 43.36 224.163 43.8C224.163 44.24 224.187 44.656 224.235 45.048C224.283 45.44 224.363 45.784 224.475 46.08C224.595 46.368 224.751 46.6 224.943 46.776C225.143 46.944 225.395 47.028 225.699 47.028Z" fill="#64728C"/>
<rect x="240" y="25.5" width="36" height="36" rx="12" fill="#64728C" fill-opacity="0.12"/>
<path fill-rule="evenodd" clip-rule="evenodd" d="M252 41.5C252 40.0272 253.194 38.8333 254.667 38.8333H261.333C262.806 38.8333 264 40.0272 264 41.5V46.8333C264 48.306 262.806 49.5 261.333 49.5H254.667C253.194 49.5 252 48.306 252 46.8333V41.5ZM254.667 40.1666C253.93 40.1666 253.333 40.7636 253.333 41.5V46.8333C253.333 47.5697 253.93 48.1666 254.667 48.1666H261.333C262.07 48.1666 262.667 47.5697 262.667 46.8333V41.5C262.667 40.7636 262.07 40.1666 261.333 40.1666H254.667Z" fill="#64728C"/>
<path fill-rule="evenodd" clip-rule="evenodd" d="M255.333 37.5C255.701 37.5 256 37.7985 256 38.1667V39.5C256 39.8682 255.701 40.1667 255.333 40.1667C254.965 40.1667 254.667 39.8682 254.667 39.5V38.1667C254.667 37.7985 254.965 37.5 255.333 37.5Z" fill="#64728C"/>
<path fill-rule="evenodd" clip-rule="evenodd" d="M260.667 37.5C261.035 37.5 261.333 37.7985 261.333 38.1667V39.5C261.333 39.8682 261.035 40.1667 260.667 40.1667C260.298 40.1667 260 39.8682 260 39.5V38.1667C260 37.7985 260.298 37.5 260.667 37.5Z" fill="#64728C"/>
<path d="M256 42.1667C256 42.5349 255.701 42.8333 255.333 42.8333C254.965 42.8333 254.667 42.5349 254.667 42.1667C254.667 41.7985 254.965 41.5 255.333 41.5C255.701 41.5 256 41.7985 256 42.1667Z" fill="#64728C"/>
<path d="M258.667 42.1667C258.667 42.5349 258.368 42.8333 258 42.8333C257.632 42.8333 257.333 42.5349 257.333 42.1667C257.333 41.7985 257.632 41.5 258 41.5C258.368 41.5 258.667 41.7985 258.667 42.1667Z" fill="#64728C"/>
<path d="M261.333 42.1667C261.333 42.5349 261.035 42.8333 260.667 42.8333C260.298 42.8333 260 42.5349 260 42.1667C260 41.7985 260.298 41.5 260.667 41.5C261.035 41.5 261.333 41.7985 261.333 42.1667Z" fill="#64728C"/>
<path d="M256 44.8334C256 45.2016 255.701 45.5 255.333 45.5C254.965 45.5 254.667 45.2016 254.667 44.8334C254.667 44.4652 254.965 44.1667 255.333 44.1667C255.701 44.1667 256 44.4652 256 44.8334Z" fill="#64728C"/>
<path d="M1.656 12C1.44 12 1.272 11.944 1.152 11.832C1.04 11.712 0.984 11.544 0.984 11.328V4.212C0.984 3.996 1.04 3.832 1.152 3.72C1.272 3.6 1.44 3.54 1.656 3.54H3.972C5.364 3.54 6.436 3.904 7.188 4.632C7.948 5.352 8.328 6.396 8.328 7.764C8.328 8.444 8.232 9.048 8.04 9.576C7.848 10.104 7.564 10.548 7.188 10.908C6.82 11.26 6.368 11.532 5.832 11.724C5.296 11.908 4.676 12 3.972 12H1.656ZM2.232 10.956H3.9C4.428 10.956 4.884 10.892 5.268 10.764C5.66 10.628 5.988 10.428 6.252 10.164C6.516 9.9 6.712 9.568 6.84 9.168C6.968 8.768 7.032 8.3 7.032 7.764C7.032 6.7 6.768 5.904 6.24 5.376C5.72 4.848 4.94 4.584 3.9 4.584H2.232V10.956ZM11.7357 12.108C11.3277 12.108 10.9597 12.028 10.6317 11.868C10.3117 11.708 10.0597 11.492 9.87572 11.22C9.69172 10.948 9.59972 10.64 9.59972 10.296C9.59972 9.864 9.70772 9.524 9.92372 9.276C10.1477 9.02 10.5117 8.84 11.0157 8.736C11.5277 8.624 12.2157 8.568 13.0797 8.568H13.6437V9.312H13.0917C12.5157 9.312 12.0597 9.34 11.7237 9.396C11.3877 9.452 11.1477 9.548 11.0037 9.684C10.8677 9.812 10.7997 9.992 10.7997 10.224C10.7997 10.528 10.9037 10.776 11.1117 10.968C11.3197 11.152 11.6077 11.244 11.9757 11.244C12.2717 11.244 12.5317 11.176 12.7557 11.04C12.9797 10.896 13.1557 10.704 13.2837 10.464C13.4197 10.224 13.4877 9.948 13.4877 9.636V8.256C13.4877 7.8 13.3917 7.472 13.1997 7.272C13.0077 7.072 12.6917 6.972 12.2517 6.972C11.9957 6.972 11.7277 7.004 11.4477 7.068C11.1757 7.132 10.8917 7.24 10.5957 7.392C10.4597 7.456 10.3437 7.476 10.2477 7.452C10.1517 7.428 10.0757 7.376 10.0197 7.296C9.96372 7.208 9.93172 7.116 9.92372 7.02C9.92372 6.916 9.94772 6.816 9.99572 6.72C10.0517 6.624 10.1437 6.552 10.2717 6.504C10.6237 6.336 10.9717 6.216 11.3157 6.144C11.6597 6.072 11.9837 6.036 12.2877 6.036C12.8237 6.036 13.2637 6.12 13.6077 6.288C13.9597 6.456 14.2197 6.712 14.3877 7.056C14.5557 7.4 14.6397 7.844 14.6397 8.388V11.472C14.6397 11.664 14.5917 11.816 14.4957 11.928C14.3997 12.032 14.2597 12.084 14.0757 12.084C13.8997 12.084 13.7597 12.032 13.6557 11.928C13.5517 11.816 13.4997 11.664 13.4997 11.472V10.692H13.6077C13.5437 10.988 13.4237 11.244 13.2477 11.46C13.0797 11.668 12.8677 11.828 12.6117 11.94C12.3557 12.052 12.0637 12.108 11.7357 12.108ZM18.805 12.108C18.325 12.108 17.921 12.024 17.593 11.856C17.265 11.688 17.021 11.44 16.861 11.112C16.701 10.784 16.621 10.384 16.621 9.912V7.08H15.901C15.741 7.08 15.617 7.04 15.529 6.96C15.441 6.872 15.397 6.756 15.397 6.612C15.397 6.46 15.441 6.344 15.529 6.264C15.617 6.184 15.741 6.144 15.901 6.144H16.621V4.908C16.621 4.708 16.673 4.556 16.777 4.452C16.889 4.348 17.041 4.296 17.233 4.296C17.425 4.296 17.573 4.348 17.677 4.452C17.781 4.556 17.833 4.708 17.833 4.908V6.144H19.237C19.397 6.144 19.521 6.184 19.609 6.264C19.697 6.344 19.741 6.46 19.741 6.612C19.741 6.756 19.697 6.872 19.609 6.96C19.521 7.04 19.397 7.08 19.237 7.08H17.833V9.816C17.833 10.24 17.921 10.56 18.097 10.776C18.281 10.992 18.577 11.1 18.985 11.1C19.129 11.1 19.253 11.088 19.357 11.064C19.469 11.032 19.561 11.012 19.633 11.004C19.721 11.004 19.793 11.036 19.849 11.1C19.905 11.156 19.933 11.268 19.933 11.436C19.933 11.556 19.909 11.668 19.861 11.772C19.821 11.876 19.745 11.944 19.633 11.976C19.537 12.008 19.405 12.036 19.237 12.06C19.077 12.092 18.933 12.108 18.805 12.108ZM23.3813 12.108C22.7413 12.108 22.1893 11.988 21.7253 11.748C21.2693 11.5 20.9133 11.152 20.6573 10.704C20.4093 10.248 20.2853 9.708 20.2853 9.084C20.2853 8.476 20.4093 7.944 20.6573 7.488C20.9053 7.032 21.2453 6.676 21.6773 6.42C22.1093 6.164 22.6013 6.036 23.1533 6.036C23.5613 6.036 23.9253 6.104 24.2453 6.24C24.5653 6.368 24.8373 6.56 25.0613 6.816C25.2933 7.064 25.4653 7.368 25.5773 7.728C25.6973 8.088 25.7573 8.492 25.7573 8.94C25.7573 9.076 25.7173 9.18 25.6373 9.252C25.5573 9.316 25.4373 9.348 25.2773 9.348H21.2453V8.604H24.9413L24.7373 8.772C24.7373 8.372 24.6773 8.032 24.5573 7.752C24.4453 7.472 24.2733 7.26 24.0413 7.116C23.8173 6.964 23.5373 6.888 23.2013 6.888C22.8253 6.888 22.5053 6.976 22.2413 7.152C21.9853 7.328 21.7893 7.572 21.6533 7.884C21.5173 8.196 21.4493 8.56 21.4493 8.976V9.048C21.4493 9.752 21.6133 10.284 21.9413 10.644C22.2773 10.996 22.7613 11.172 23.3933 11.172C23.6333 11.172 23.8853 11.14 24.1493 11.076C24.4213 11.012 24.6773 10.904 24.9173 10.752C25.0533 10.672 25.1733 10.636 25.2773 10.644C25.3893 10.652 25.4773 10.688 25.5413 10.752C25.6133 10.816 25.6573 10.896 25.6733 10.992C25.6893 11.088 25.6733 11.188 25.6253 11.292C25.5773 11.388 25.4933 11.476 25.3733 11.556C25.1013 11.74 24.7853 11.88 24.4253 11.976C24.0653 12.064 23.7173 12.108 23.3813 12.108Z" fill="#64728C"/>
</svg>
