<svg width="300" height="66" viewBox="0 0 300 66" fill="none" xmlns="http://www.w3.org/2000/svg">
<rect x="0.5" y="21.5" width="299" height="44" rx="11.5" stroke="#E8EAEF"/>
<path d="M13.78 47.608C13.404 47.608 13.036 47.576 12.676 47.512C12.316 47.448 11.98 47.356 11.668 47.236C11.364 47.116 11.088 46.964 10.84 46.78C10.744 46.708 10.676 46.628 10.636 46.54C10.604 46.444 10.596 46.352 10.612 46.264C10.636 46.168 10.676 46.088 10.732 46.024C10.796 45.96 10.872 45.924 10.96 45.916C11.048 45.908 11.144 45.936 11.248 46C11.608 46.256 11.992 46.444 12.4 46.564C12.808 46.676 13.268 46.732 13.78 46.732C14.5 46.732 15.032 46.6 15.376 46.336C15.728 46.064 15.904 45.708 15.904 45.268C15.904 44.908 15.776 44.628 15.52 44.428C15.272 44.22 14.852 44.056 14.26 43.936L13.012 43.684C12.26 43.524 11.696 43.264 11.32 42.904C10.952 42.536 10.768 42.048 10.768 41.44C10.768 41.064 10.844 40.724 10.996 40.42C11.148 40.108 11.36 39.844 11.632 39.628C11.904 39.404 12.228 39.232 12.604 39.112C12.98 38.992 13.396 38.932 13.852 38.932C14.356 38.932 14.824 39.004 15.256 39.148C15.696 39.284 16.092 39.492 16.444 39.772C16.532 39.844 16.592 39.928 16.624 40.024C16.656 40.112 16.66 40.2 16.636 40.288C16.612 40.368 16.568 40.436 16.504 40.492C16.448 40.548 16.372 40.58 16.276 40.588C16.188 40.596 16.088 40.564 15.976 40.492C15.656 40.252 15.324 40.08 14.98 39.976C14.636 39.864 14.256 39.808 13.84 39.808C13.416 39.808 13.048 39.872 12.736 40C12.432 40.128 12.192 40.316 12.016 40.564C11.848 40.804 11.764 41.084 11.764 41.404C11.764 41.788 11.88 42.092 12.112 42.316C12.352 42.54 12.74 42.704 13.276 42.808L14.524 43.072C15.332 43.24 15.928 43.496 16.312 43.84C16.704 44.176 16.9 44.636 16.9 45.22C16.9 45.572 16.828 45.896 16.684 46.192C16.54 46.488 16.332 46.744 16.06 46.96C15.788 47.168 15.46 47.328 15.076 47.44C14.692 47.552 14.26 47.608 13.78 47.608ZM20.9228 47.608C20.3068 47.608 19.7748 47.488 19.3268 47.248C18.8868 47 18.5428 46.652 18.2948 46.204C18.0548 45.756 17.9348 45.22 17.9348 44.596C17.9348 43.988 18.0548 43.46 18.2948 43.012C18.5348 42.556 18.8628 42.2 19.2788 41.944C19.7028 41.688 20.1908 41.56 20.7428 41.56C21.1348 41.56 21.4868 41.628 21.7988 41.764C22.1108 41.892 22.3748 42.08 22.5908 42.328C22.8148 42.576 22.9828 42.876 23.0948 43.228C23.2148 43.58 23.2748 43.976 23.2748 44.416C23.2748 44.544 23.2388 44.64 23.1668 44.704C23.0948 44.76 22.9908 44.788 22.8548 44.788H18.6788V44.152H22.6268L22.4348 44.308C22.4348 43.876 22.3708 43.512 22.2428 43.216C22.1148 42.912 21.9268 42.68 21.6788 42.52C21.4388 42.36 21.1348 42.28 20.7668 42.28C20.3588 42.28 20.0108 42.376 19.7228 42.568C19.4428 42.752 19.2308 43.012 19.0868 43.348C18.9428 43.676 18.8708 44.06 18.8708 44.5V44.572C18.8708 45.308 19.0468 45.868 19.3988 46.252C19.7588 46.636 20.2668 46.828 20.9228 46.828C21.1948 46.828 21.4628 46.792 21.7268 46.72C21.9988 46.648 22.2628 46.528 22.5188 46.36C22.6308 46.288 22.7308 46.256 22.8188 46.264C22.9148 46.264 22.9908 46.292 23.0468 46.348C23.1028 46.396 23.1388 46.46 23.1548 46.54C23.1788 46.612 23.1708 46.692 23.1308 46.78C23.0988 46.868 23.0308 46.944 22.9268 47.008C22.6628 47.2 22.3508 47.348 21.9908 47.452C21.6308 47.556 21.2748 47.608 20.9228 47.608ZM26.4575 47.608C25.8815 47.608 25.4415 47.432 25.1375 47.08C24.8335 46.728 24.6815 46.224 24.6815 45.568V39.448C24.6815 39.288 24.7215 39.168 24.8015 39.088C24.8815 39 25.0015 38.956 25.1615 38.956C25.3135 38.956 25.4335 39 25.5215 39.088C25.6095 39.168 25.6535 39.288 25.6535 39.448V45.496C25.6535 45.928 25.7375 46.252 25.9055 46.468C26.0815 46.676 26.3375 46.78 26.6735 46.78C26.7455 46.78 26.8095 46.776 26.8655 46.768C26.9215 46.76 26.9775 46.756 27.0335 46.756C27.1215 46.748 27.1815 46.768 27.2135 46.816C27.2535 46.864 27.2735 46.96 27.2735 47.104C27.2735 47.248 27.2415 47.356 27.1775 47.428C27.1135 47.5 27.0095 47.548 26.8655 47.572C26.8015 47.58 26.7335 47.588 26.6615 47.596C26.5895 47.604 26.5215 47.608 26.4575 47.608ZM30.8017 47.608C30.1857 47.608 29.6537 47.488 29.2057 47.248C28.7657 47 28.4217 46.652 28.1737 46.204C27.9337 45.756 27.8137 45.22 27.8137 44.596C27.8137 43.988 27.9337 43.46 28.1737 43.012C28.4137 42.556 28.7417 42.2 29.1577 41.944C29.5817 41.688 30.0697 41.56 30.6217 41.56C31.0137 41.56 31.3657 41.628 31.6777 41.764C31.9897 41.892 32.2537 42.08 32.4697 42.328C32.6937 42.576 32.8617 42.876 32.9737 43.228C33.0937 43.58 33.1537 43.976 33.1537 44.416C33.1537 44.544 33.1177 44.64 33.0457 44.704C32.9737 44.76 32.8697 44.788 32.7337 44.788H28.5577V44.152H32.5057L32.3137 44.308C32.3137 43.876 32.2497 43.512 32.1217 43.216C31.9937 42.912 31.8057 42.68 31.5577 42.52C31.3177 42.36 31.0137 42.28 30.6457 42.28C30.2377 42.28 29.8897 42.376 29.6017 42.568C29.3217 42.752 29.1097 43.012 28.9657 43.348C28.8217 43.676 28.7497 44.06 28.7497 44.5V44.572C28.7497 45.308 28.9257 45.868 29.2777 46.252C29.6377 46.636 30.1457 46.828 30.8017 46.828C31.0737 46.828 31.3417 46.792 31.6057 46.72C31.8777 46.648 32.1417 46.528 32.3977 46.36C32.5097 46.288 32.6097 46.256 32.6977 46.264C32.7937 46.264 32.8697 46.292 32.9257 46.348C32.9817 46.396 33.0177 46.46 33.0337 46.54C33.0577 46.612 33.0497 46.692 33.0097 46.78C32.9777 46.868 32.9097 46.944 32.8057 47.008C32.5417 47.2 32.2297 47.348 31.8697 47.452C31.5097 47.556 31.1537 47.608 30.8017 47.608ZM37.0324 47.608C36.4484 47.608 35.9444 47.48 35.5204 47.224C35.0964 46.968 34.7684 46.612 34.5364 46.156C34.3124 45.692 34.2004 45.156 34.2004 44.548C34.2004 44.084 34.2644 43.668 34.3924 43.3C34.5204 42.932 34.7084 42.62 34.9564 42.364C35.2044 42.1 35.5004 41.9 35.8444 41.764C36.1964 41.628 36.5924 41.56 37.0324 41.56C37.3204 41.56 37.6204 41.604 37.9324 41.692C38.2444 41.78 38.5284 41.932 38.7844 42.148C38.8644 42.204 38.9164 42.272 38.9404 42.352C38.9644 42.432 38.9644 42.512 38.9404 42.592C38.9164 42.664 38.8764 42.728 38.8204 42.784C38.7644 42.832 38.6924 42.86 38.6044 42.868C38.5244 42.876 38.4404 42.848 38.3524 42.784C38.1444 42.624 37.9324 42.512 37.7164 42.448C37.5004 42.384 37.2924 42.352 37.0924 42.352C36.7804 42.352 36.5084 42.404 36.2764 42.508C36.0444 42.604 35.8484 42.744 35.6884 42.928C35.5284 43.112 35.4044 43.34 35.3164 43.612C35.2364 43.884 35.1964 44.2 35.1964 44.56C35.1964 45.256 35.3604 45.808 35.6884 46.216C36.0164 46.616 36.4844 46.816 37.0924 46.816C37.2924 46.816 37.4964 46.784 37.7044 46.72C37.9204 46.656 38.1364 46.544 38.3524 46.384C38.4404 46.32 38.5244 46.292 38.6044 46.3C38.6844 46.308 38.7524 46.34 38.8084 46.396C38.8644 46.444 38.9004 46.508 38.9164 46.588C38.9404 46.668 38.9404 46.748 38.9164 46.828C38.8924 46.9 38.8404 46.964 38.7604 47.02C38.5044 47.228 38.2244 47.38 37.9204 47.476C37.6164 47.564 37.3204 47.608 37.0324 47.608ZM42.4551 47.608C41.9991 47.608 41.6151 47.528 41.3031 47.368C40.9991 47.2 40.7711 46.96 40.6191 46.648C40.4671 46.328 40.3911 45.94 40.3911 45.484V42.424H39.5871C39.4511 42.424 39.3471 42.392 39.2751 42.328C39.2031 42.256 39.1671 42.16 39.1671 42.04C39.1671 41.92 39.2031 41.828 39.2751 41.764C39.3471 41.7 39.4511 41.668 39.5871 41.668H40.3911V40.288C40.3911 40.128 40.4351 40.008 40.5231 39.928C40.6111 39.84 40.7311 39.796 40.8831 39.796C41.0351 39.796 41.1511 39.84 41.2311 39.928C41.3191 40.008 41.3631 40.128 41.3631 40.288V41.668H42.8751C43.0111 41.668 43.1151 41.7 43.1871 41.764C43.2591 41.828 43.2951 41.92 43.2951 42.04C43.2951 42.16 43.2591 42.256 43.1871 42.328C43.1151 42.392 43.0111 42.424 42.8751 42.424H41.3631V45.388C41.3631 45.844 41.4591 46.192 41.6511 46.432C41.8431 46.664 42.1551 46.78 42.5871 46.78C42.7391 46.78 42.8671 46.764 42.9711 46.732C43.0831 46.7 43.1751 46.684 43.2471 46.684C43.3191 46.676 43.3791 46.7 43.4271 46.756C43.4751 46.812 43.4991 46.908 43.4991 47.044C43.4991 47.14 43.4791 47.228 43.4391 47.308C43.4071 47.388 43.3471 47.444 43.2591 47.476C43.1631 47.508 43.0351 47.536 42.8751 47.56C42.7231 47.592 42.5831 47.608 42.4551 47.608ZM50.2722 47.608C49.8962 47.608 49.5282 47.576 49.1682 47.512C48.8082 47.448 48.4722 47.356 48.1602 47.236C47.8562 47.116 47.5802 46.964 47.3322 46.78C47.2362 46.708 47.1682 46.628 47.1282 46.54C47.0962 46.444 47.0882 46.352 47.1042 46.264C47.1282 46.168 47.1682 46.088 47.2242 46.024C47.2882 45.96 47.3642 45.924 47.4522 45.916C47.5402 45.908 47.6362 45.936 47.7402 46C48.1002 46.256 48.4842 46.444 48.8922 46.564C49.3002 46.676 49.7602 46.732 50.2722 46.732C50.9922 46.732 51.5242 46.6 51.8682 46.336C52.2202 46.064 52.3962 45.708 52.3962 45.268C52.3962 44.908 52.2682 44.628 52.0122 44.428C51.7642 44.22 51.3442 44.056 50.7522 43.936L49.5042 43.684C48.7522 43.524 48.1882 43.264 47.8122 42.904C47.4442 42.536 47.2602 42.048 47.2602 41.44C47.2602 41.064 47.3362 40.724 47.4882 40.42C47.6402 40.108 47.8522 39.844 48.1242 39.628C48.3962 39.404 48.7202 39.232 49.0962 39.112C49.4722 38.992 49.8882 38.932 50.3442 38.932C50.8482 38.932 51.3162 39.004 51.7482 39.148C52.1882 39.284 52.5842 39.492 52.9362 39.772C53.0242 39.844 53.0842 39.928 53.1162 40.024C53.1482 40.112 53.1522 40.2 53.1282 40.288C53.1042 40.368 53.0602 40.436 52.9962 40.492C52.9402 40.548 52.8642 40.58 52.7682 40.588C52.6802 40.596 52.5802 40.564 52.4682 40.492C52.1482 40.252 51.8162 40.08 51.4722 39.976C51.1282 39.864 50.7482 39.808 50.3322 39.808C49.9082 39.808 49.5402 39.872 49.2282 40C48.9242 40.128 48.6842 40.316 48.5082 40.564C48.3402 40.804 48.2562 41.084 48.2562 41.404C48.2562 41.788 48.3722 42.092 48.6042 42.316C48.8442 42.54 49.2322 42.704 49.7682 42.808L51.0162 43.072C51.8242 43.24 52.4202 43.496 52.8042 43.84C53.1962 44.176 53.3922 44.636 53.3922 45.22C53.3922 45.572 53.3202 45.896 53.1762 46.192C53.0322 46.488 52.8242 46.744 52.5522 46.96C52.2802 47.168 51.9522 47.328 51.5682 47.44C51.1842 47.552 50.7522 47.608 50.2722 47.608ZM57.1036 47.608C56.6476 47.608 56.2636 47.528 55.9516 47.368C55.6476 47.2 55.4196 46.96 55.2676 46.648C55.1156 46.328 55.0396 45.94 55.0396 45.484V42.424H54.2356C54.0996 42.424 53.9956 42.392 53.9236 42.328C53.8516 42.256 53.8156 42.16 53.8156 42.04C53.8156 41.92 53.8516 41.828 53.9236 41.764C53.9956 41.7 54.0996 41.668 54.2356 41.668H55.0396V40.288C55.0396 40.128 55.0836 40.008 55.1716 39.928C55.2596 39.84 55.3796 39.796 55.5316 39.796C55.6836 39.796 55.7996 39.84 55.8796 39.928C55.9676 40.008 56.0116 40.128 56.0116 40.288V41.668H57.5236C57.6596 41.668 57.7636 41.7 57.8356 41.764C57.9076 41.828 57.9436 41.92 57.9436 42.04C57.9436 42.16 57.9076 42.256 57.8356 42.328C57.7636 42.392 57.6596 42.424 57.5236 42.424H56.0116V45.388C56.0116 45.844 56.1076 46.192 56.2996 46.432C56.4916 46.664 56.8036 46.78 57.2356 46.78C57.3876 46.78 57.5156 46.764 57.6196 46.732C57.7316 46.7 57.8236 46.684 57.8956 46.684C57.9676 46.676 58.0276 46.7 58.0756 46.756C58.1236 46.812 58.1476 46.908 58.1476 47.044C58.1476 47.14 58.1276 47.228 58.0876 47.308C58.0556 47.388 57.9956 47.444 57.9076 47.476C57.8116 47.508 57.6836 47.536 57.5236 47.56C57.3716 47.592 57.2316 47.608 57.1036 47.608ZM60.7949 47.608C60.3949 47.608 60.0349 47.532 59.7149 47.38C59.4029 47.22 59.1549 47.004 58.9709 46.732C58.7869 46.46 58.6949 46.156 58.6949 45.82C58.6949 45.388 58.8029 45.048 59.0189 44.8C59.2429 44.552 59.6069 44.376 60.1109 44.272C60.6229 44.168 61.3189 44.116 62.1989 44.116H62.7389V44.752H62.2109C61.5629 44.752 61.0509 44.784 60.6749 44.848C60.3069 44.904 60.0469 45.004 59.8949 45.148C59.7509 45.292 59.6789 45.496 59.6789 45.76C59.6789 46.088 59.7909 46.356 60.0149 46.564C60.2469 46.772 60.5589 46.876 60.9509 46.876C61.2709 46.876 61.5509 46.8 61.7909 46.648C62.0389 46.496 62.2309 46.288 62.3669 46.024C62.5109 45.76 62.5829 45.456 62.5829 45.112V43.744C62.5829 43.248 62.4829 42.892 62.2829 42.676C62.0829 42.452 61.7549 42.34 61.2989 42.34C61.0189 42.34 60.7389 42.376 60.4589 42.448C60.1789 42.52 59.8829 42.636 59.5709 42.796C59.4589 42.852 59.3629 42.872 59.2829 42.856C59.2029 42.832 59.1389 42.788 59.0909 42.724C59.0429 42.66 59.0149 42.588 59.0069 42.508C58.9989 42.42 59.0149 42.336 59.0549 42.256C59.1029 42.176 59.1749 42.112 59.2709 42.064C59.6229 41.888 59.9709 41.76 60.3149 41.68C60.6589 41.6 60.9869 41.56 61.2989 41.56C61.8029 41.56 62.2189 41.644 62.5469 41.812C62.8749 41.972 63.1189 42.22 63.2789 42.556C63.4389 42.884 63.5189 43.308 63.5189 43.828V47.08C63.5189 47.24 63.4789 47.364 63.3989 47.452C63.3269 47.54 63.2189 47.584 63.0749 47.584C62.9229 47.584 62.8069 47.54 62.7269 47.452C62.6469 47.364 62.6069 47.24 62.6069 47.08V46.144H62.7149C62.6509 46.448 62.5269 46.708 62.3429 46.924C62.1669 47.14 61.9469 47.308 61.6829 47.428C61.4189 47.548 61.1229 47.608 60.7949 47.608ZM67.6622 47.608C67.2062 47.608 66.8222 47.528 66.5102 47.368C66.2062 47.2 65.9782 46.96 65.8262 46.648C65.6742 46.328 65.5982 45.94 65.5982 45.484V42.424H64.7942C64.6582 42.424 64.5542 42.392 64.4822 42.328C64.4102 42.256 64.3742 42.16 64.3742 42.04C64.3742 41.92 64.4102 41.828 64.4822 41.764C64.5542 41.7 64.6582 41.668 64.7942 41.668H65.5982V40.288C65.5982 40.128 65.6422 40.008 65.7302 39.928C65.8182 39.84 65.9382 39.796 66.0902 39.796C66.2422 39.796 66.3582 39.84 66.4382 39.928C66.5262 40.008 66.5702 40.128 66.5702 40.288V41.668H68.0822C68.2182 41.668 68.3222 41.7 68.3942 41.764C68.4662 41.828 68.5022 41.92 68.5022 42.04C68.5022 42.16 68.4662 42.256 68.3942 42.328C68.3222 42.392 68.2182 42.424 68.0822 42.424H66.5702V45.388C66.5702 45.844 66.6662 46.192 66.8582 46.432C67.0502 46.664 67.3622 46.78 67.7942 46.78C67.9462 46.78 68.0742 46.764 68.1782 46.732C68.2902 46.7 68.3822 46.684 68.4542 46.684C68.5262 46.676 68.5862 46.7 68.6342 46.756C68.6822 46.812 68.7062 46.908 68.7062 47.044C68.7062 47.14 68.6862 47.228 68.6462 47.308C68.6142 47.388 68.5542 47.444 68.4662 47.476C68.3702 47.508 68.2422 47.536 68.0822 47.56C67.9302 47.592 67.7902 47.608 67.6622 47.608ZM71.5815 47.608C71.1095 47.608 70.7175 47.524 70.4055 47.356C70.1015 47.18 69.8695 46.92 69.7095 46.576C69.5575 46.232 69.4815 45.804 69.4815 45.292V42.076C69.4815 41.908 69.5215 41.784 69.6015 41.704C69.6895 41.624 69.8095 41.584 69.9615 41.584C70.1215 41.584 70.2415 41.624 70.3215 41.704C70.4095 41.784 70.4535 41.908 70.4535 42.076V45.28C70.4535 45.792 70.5575 46.176 70.7655 46.432C70.9815 46.68 71.3175 46.804 71.7735 46.804C72.2695 46.804 72.6735 46.636 72.9855 46.3C73.2975 45.964 73.4535 45.524 73.4535 44.98V42.076C73.4535 41.908 73.4935 41.784 73.5735 41.704C73.6615 41.624 73.7855 41.584 73.9455 41.584C74.0975 41.584 74.2135 41.624 74.2935 41.704C74.3815 41.784 74.4255 41.908 74.4255 42.076V47.08C74.4255 47.416 74.2695 47.584 73.9575 47.584C73.8055 47.584 73.6855 47.54 73.5975 47.452C73.5175 47.364 73.4775 47.24 73.4775 47.08V45.988L73.6335 46.156C73.4735 46.628 73.2095 46.988 72.8415 47.236C72.4815 47.484 72.0615 47.608 71.5815 47.608ZM78.212 47.608C77.852 47.608 77.488 47.564 77.12 47.476C76.76 47.388 76.424 47.236 76.112 47.02C76.032 46.964 75.976 46.9 75.944 46.828C75.912 46.748 75.9 46.672 75.908 46.6C75.924 46.52 75.956 46.452 76.004 46.396C76.06 46.34 76.124 46.308 76.196 46.3C76.276 46.284 76.364 46.3 76.46 46.348C76.772 46.54 77.072 46.676 77.36 46.756C77.656 46.828 77.948 46.864 78.236 46.864C78.692 46.864 79.036 46.78 79.268 46.612C79.5 46.444 79.616 46.216 79.616 45.928C79.616 45.704 79.54 45.528 79.388 45.4C79.236 45.264 78.996 45.16 78.668 45.088L77.576 44.848C77.072 44.744 76.696 44.564 76.448 44.308C76.208 44.052 76.088 43.72 76.088 43.312C76.088 42.952 76.18 42.644 76.364 42.388C76.556 42.124 76.824 41.92 77.168 41.776C77.512 41.632 77.912 41.56 78.368 41.56C78.72 41.56 79.052 41.608 79.364 41.704C79.684 41.792 79.972 41.936 80.228 42.136C80.308 42.192 80.36 42.26 80.384 42.34C80.416 42.412 80.42 42.488 80.396 42.568C80.38 42.64 80.344 42.704 80.288 42.76C80.232 42.808 80.164 42.836 80.084 42.844C80.004 42.852 79.92 42.828 79.832 42.772C79.592 42.612 79.348 42.496 79.1 42.424C78.852 42.344 78.608 42.304 78.368 42.304C77.92 42.304 77.58 42.392 77.348 42.568C77.116 42.744 77 42.976 77 43.264C77 43.488 77.072 43.672 77.216 43.816C77.36 43.96 77.584 44.064 77.888 44.128L78.98 44.356C79.5 44.468 79.888 44.648 80.144 44.896C80.408 45.136 80.54 45.464 80.54 45.88C80.54 46.408 80.328 46.828 79.904 47.14C79.48 47.452 78.916 47.608 78.212 47.608Z" fill="#929BAA"/>
<path d="M3.804 12.108C3.436 12.108 3.076 12.08 2.724 12.024C2.372 11.968 2.04 11.884 1.728 11.772C1.416 11.652 1.136 11.508 0.888 11.34C0.768 11.252 0.684 11.152 0.636 11.04C0.596 10.928 0.584 10.82 0.6 10.716C0.624 10.604 0.672 10.508 0.744 10.428C0.816 10.348 0.904 10.3 1.008 10.284C1.112 10.26 1.228 10.292 1.356 10.38C1.716 10.612 2.096 10.784 2.496 10.896C2.896 11 3.332 11.052 3.804 11.052C4.484 11.052 4.984 10.932 5.304 10.692C5.632 10.444 5.796 10.124 5.796 9.732C5.796 9.412 5.68 9.16 5.448 8.976C5.216 8.784 4.828 8.632 4.284 8.52L3 8.256C2.24 8.096 1.672 7.832 1.296 7.464C0.928 7.096 0.744 6.6 0.744 5.976C0.744 5.6 0.82 5.256 0.972 4.944C1.132 4.632 1.352 4.364 1.632 4.14C1.912 3.908 2.248 3.732 2.64 3.612C3.032 3.492 3.46 3.432 3.924 3.432C4.42 3.432 4.884 3.496 5.316 3.624C5.756 3.752 6.148 3.948 6.492 4.212C6.596 4.284 6.664 4.376 6.696 4.488C6.736 4.592 6.744 4.696 6.72 4.8C6.704 4.904 6.66 4.992 6.588 5.064C6.516 5.136 6.424 5.18 6.312 5.196C6.2 5.204 6.076 5.164 5.94 5.076C5.628 4.868 5.308 4.72 4.98 4.632C4.66 4.536 4.304 4.488 3.912 4.488C3.52 4.488 3.176 4.548 2.88 4.668C2.592 4.788 2.368 4.956 2.208 5.172C2.056 5.388 1.98 5.644 1.98 5.94C1.98 6.276 2.088 6.544 2.304 6.744C2.52 6.944 2.88 7.096 3.384 7.2L4.656 7.464C5.456 7.632 6.052 7.892 6.444 8.244C6.836 8.596 7.032 9.064 7.032 9.648C7.032 10.024 6.956 10.364 6.804 10.668C6.652 10.964 6.436 11.22 6.156 11.436C5.876 11.652 5.536 11.82 5.136 11.94C4.744 12.052 4.3 12.108 3.804 12.108ZM10.7777 12.108C10.2977 12.108 9.89369 12.024 9.56569 11.856C9.23769 11.688 8.99369 11.44 8.83369 11.112C8.67369 10.784 8.59369 10.384 8.59369 9.912V7.08H7.87369C7.71369 7.08 7.58969 7.04 7.50169 6.96C7.41369 6.872 7.36969 6.756 7.36969 6.612C7.36969 6.46 7.41369 6.344 7.50169 6.264C7.58969 6.184 7.71369 6.144 7.87369 6.144H8.59369V4.908C8.59369 4.708 8.64569 4.556 8.74969 4.452C8.86169 4.348 9.01369 4.296 9.20569 4.296C9.39769 4.296 9.54569 4.348 9.64969 4.452C9.75369 4.556 9.80569 4.708 9.80569 4.908V6.144H11.2097C11.3697 6.144 11.4937 6.184 11.5817 6.264C11.6697 6.344 11.7137 6.46 11.7137 6.612C11.7137 6.756 11.6697 6.872 11.5817 6.96C11.4937 7.04 11.3697 7.08 11.2097 7.08H9.80569V9.816C9.80569 10.24 9.89369 10.56 10.0697 10.776C10.2537 10.992 10.5497 11.1 10.9577 11.1C11.1017 11.1 11.2257 11.088 11.3297 11.064C11.4417 11.032 11.5337 11.012 11.6057 11.004C11.6937 11.004 11.7657 11.036 11.8217 11.1C11.8777 11.156 11.9057 11.268 11.9057 11.436C11.9057 11.556 11.8817 11.668 11.8337 11.772C11.7937 11.876 11.7177 11.944 11.6057 11.976C11.5097 12.008 11.3777 12.036 11.2097 12.06C11.0497 12.092 10.9057 12.108 10.7777 12.108ZM14.5365 12.108C14.1285 12.108 13.7605 12.028 13.4325 11.868C13.1125 11.708 12.8605 11.492 12.6765 11.22C12.4925 10.948 12.4005 10.64 12.4005 10.296C12.4005 9.864 12.5085 9.524 12.7245 9.276C12.9485 9.02 13.3125 8.84 13.8165 8.736C14.3285 8.624 15.0165 8.568 15.8805 8.568H16.4445V9.312H15.8925C15.3165 9.312 14.8605 9.34 14.5245 9.396C14.1885 9.452 13.9485 9.548 13.8045 9.684C13.6685 9.812 13.6005 9.992 13.6005 10.224C13.6005 10.528 13.7045 10.776 13.9125 10.968C14.1205 11.152 14.4085 11.244 14.7765 11.244C15.0725 11.244 15.3325 11.176 15.5565 11.04C15.7805 10.896 15.9565 10.704 16.0845 10.464C16.2205 10.224 16.2885 9.948 16.2885 9.636V8.256C16.2885 7.8 16.1925 7.472 16.0005 7.272C15.8085 7.072 15.4925 6.972 15.0525 6.972C14.7965 6.972 14.5285 7.004 14.2485 7.068C13.9765 7.132 13.6925 7.24 13.3965 7.392C13.2605 7.456 13.1445 7.476 13.0485 7.452C12.9525 7.428 12.8765 7.376 12.8205 7.296C12.7645 7.208 12.7325 7.116 12.7245 7.02C12.7245 6.916 12.7485 6.816 12.7965 6.72C12.8525 6.624 12.9445 6.552 13.0725 6.504C13.4245 6.336 13.7725 6.216 14.1165 6.144C14.4605 6.072 14.7845 6.036 15.0885 6.036C15.6245 6.036 16.0645 6.12 16.4085 6.288C16.7605 6.456 17.0205 6.712 17.1885 7.056C17.3565 7.4 17.4405 7.844 17.4405 8.388V11.472C17.4405 11.664 17.3925 11.816 17.2965 11.928C17.2005 12.032 17.0605 12.084 16.8765 12.084C16.7005 12.084 16.5605 12.032 16.4565 11.928C16.3525 11.816 16.3005 11.664 16.3005 11.472V10.692H16.4085C16.3445 10.988 16.2245 11.244 16.0485 11.46C15.8805 11.668 15.6685 11.828 15.4125 11.94C15.1565 12.052 14.8645 12.108 14.5365 12.108ZM21.6058 12.108C21.1258 12.108 20.7218 12.024 20.3938 11.856C20.0658 11.688 19.8218 11.44 19.6618 11.112C19.5018 10.784 19.4218 10.384 19.4218 9.912V7.08H18.7018C18.5418 7.08 18.4178 7.04 18.3298 6.96C18.2418 6.872 18.1978 6.756 18.1978 6.612C18.1978 6.46 18.2418 6.344 18.3298 6.264C18.4178 6.184 18.5418 6.144 18.7018 6.144H19.4218V4.908C19.4218 4.708 19.4738 4.556 19.5778 4.452C19.6898 4.348 19.8418 4.296 20.0338 4.296C20.2258 4.296 20.3738 4.348 20.4778 4.452C20.5818 4.556 20.6338 4.708 20.6338 4.908V6.144H22.0378C22.1978 6.144 22.3218 6.184 22.4098 6.264C22.4978 6.344 22.5418 6.46 22.5418 6.612C22.5418 6.756 22.4978 6.872 22.4098 6.96C22.3218 7.04 22.1978 7.08 22.0378 7.08H20.6338V9.816C20.6338 10.24 20.7218 10.56 20.8978 10.776C21.0818 10.992 21.3778 11.1 21.7858 11.1C21.9298 11.1 22.0538 11.088 22.1578 11.064C22.2698 11.032 22.3618 11.012 22.4338 11.004C22.5218 11.004 22.5938 11.036 22.6498 11.1C22.7058 11.156 22.7338 11.268 22.7338 11.436C22.7338 11.556 22.7098 11.668 22.6618 11.772C22.6218 11.876 22.5458 11.944 22.4338 11.976C22.3378 12.008 22.2058 12.036 22.0378 12.06C21.8778 12.092 21.7338 12.108 21.6058 12.108ZM25.5806 12.108C25.1086 12.108 24.7126 12.02 24.3926 11.844C24.0806 11.668 23.8446 11.408 23.6846 11.064C23.5326 10.712 23.4566 10.272 23.4566 9.744V6.672C23.4566 6.464 23.5086 6.312 23.6126 6.216C23.7166 6.112 23.8646 6.06 24.0566 6.06C24.2486 6.06 24.3966 6.112 24.5006 6.216C24.6126 6.312 24.6686 6.464 24.6686 6.672V9.756C24.6686 10.228 24.7646 10.576 24.9566 10.8C25.1486 11.024 25.4526 11.136 25.8686 11.136C26.3246 11.136 26.6926 10.984 26.9726 10.68C27.2606 10.368 27.4046 9.96 27.4046 9.456V6.672C27.4046 6.464 27.4566 6.312 27.5606 6.216C27.6646 6.112 27.8166 6.06 28.0166 6.06C28.2086 6.06 28.3566 6.112 28.4606 6.216C28.5646 6.312 28.6166 6.464 28.6166 6.672V11.472C28.6166 11.88 28.4206 12.084 28.0286 12.084C27.8446 12.084 27.7006 12.032 27.5966 11.928C27.4926 11.816 27.4406 11.664 27.4406 11.472V10.452L27.5966 10.716C27.4366 11.164 27.1806 11.508 26.8286 11.748C26.4766 11.988 26.0606 12.108 25.5806 12.108ZM32.3767 12.108C32.0247 12.108 31.6607 12.068 31.2847 11.988C30.9167 11.908 30.5767 11.772 30.2647 11.58C30.1607 11.508 30.0887 11.428 30.0487 11.34C30.0087 11.252 29.9927 11.164 30.0007 11.076C30.0167 10.98 30.0527 10.9 30.1087 10.836C30.1727 10.764 30.2487 10.72 30.3367 10.704C30.4327 10.688 30.5327 10.708 30.6367 10.764C30.9487 10.94 31.2487 11.064 31.5367 11.136C31.8247 11.2 32.1087 11.232 32.3887 11.232C32.8127 11.232 33.1327 11.156 33.3487 11.004C33.5647 10.852 33.6727 10.648 33.6727 10.392C33.6727 10.184 33.6007 10.024 33.4567 9.912C33.3127 9.792 33.0967 9.7 32.8087 9.636L31.6687 9.408C31.1727 9.304 30.7967 9.12 30.5407 8.856C30.2847 8.592 30.1567 8.256 30.1567 7.848C30.1567 7.48 30.2567 7.16 30.4567 6.888C30.6567 6.616 30.9367 6.408 31.2967 6.264C31.6567 6.112 32.0727 6.036 32.5447 6.036C32.8967 6.036 33.2287 6.08 33.5407 6.168C33.8527 6.256 34.1407 6.388 34.4047 6.564C34.5087 6.62 34.5767 6.696 34.6087 6.792C34.6407 6.88 34.6447 6.968 34.6207 7.056C34.6047 7.144 34.5647 7.224 34.5007 7.296C34.4367 7.36 34.3567 7.4 34.2607 7.416C34.1727 7.424 34.0727 7.4 33.9607 7.344C33.7207 7.192 33.4807 7.084 33.2407 7.02C33.0087 6.956 32.7767 6.924 32.5447 6.924C32.1207 6.924 31.8007 7.004 31.5847 7.164C31.3767 7.316 31.2727 7.524 31.2727 7.788C31.2727 7.988 31.3367 8.152 31.4647 8.28C31.5927 8.408 31.7927 8.5 32.0647 8.556L33.2047 8.784C33.7247 8.888 34.1167 9.064 34.3807 9.312C34.6527 9.56 34.7887 9.896 34.7887 10.32C34.7887 10.872 34.5687 11.308 34.1287 11.628C33.6887 11.948 33.1047 12.108 32.3767 12.108Z" fill="#64728C"/>
</svg>
