<svg width="310" height="75" viewBox="0 0 310 75" fill="none" xmlns="http://www.w3.org/2000/svg">
<g filter="url(#filter0_d_556_4546)">
<rect x="5" y="21" width="300" height="45" rx="12" fill="white" shape-rendering="crispEdges"/>
<rect x="5.5" y="21.5" width="299" height="44" rx="11.5" stroke="#64728C" shape-rendering="crispEdges"/>
<path d="M18.78 47.608C18.404 47.608 18.036 47.576 17.676 47.512C17.316 47.448 16.98 47.356 16.668 47.236C16.364 47.116 16.088 46.964 15.84 46.78C15.744 46.708 15.676 46.628 15.636 46.54C15.604 46.444 15.596 46.352 15.612 46.264C15.636 46.168 15.676 46.088 15.732 46.024C15.796 45.96 15.872 45.924 15.96 45.916C16.048 45.908 16.144 45.936 16.248 46C16.608 46.256 16.992 46.444 17.4 46.564C17.808 46.676 18.268 46.732 18.78 46.732C19.5 46.732 20.032 46.6 20.376 46.336C20.728 46.064 20.904 45.708 20.904 45.268C20.904 44.908 20.776 44.628 20.52 44.428C20.272 44.22 19.852 44.056 19.26 43.936L18.012 43.684C17.26 43.524 16.696 43.264 16.32 42.904C15.952 42.536 15.768 42.048 15.768 41.44C15.768 41.064 15.844 40.724 15.996 40.42C16.148 40.108 16.36 39.844 16.632 39.628C16.904 39.404 17.228 39.232 17.604 39.112C17.98 38.992 18.396 38.932 18.852 38.932C19.356 38.932 19.824 39.004 20.256 39.148C20.696 39.284 21.092 39.492 21.444 39.772C21.532 39.844 21.592 39.928 21.624 40.024C21.656 40.112 21.66 40.2 21.636 40.288C21.612 40.368 21.568 40.436 21.504 40.492C21.448 40.548 21.372 40.58 21.276 40.588C21.188 40.596 21.088 40.564 20.976 40.492C20.656 40.252 20.324 40.08 19.98 39.976C19.636 39.864 19.256 39.808 18.84 39.808C18.416 39.808 18.048 39.872 17.736 40C17.432 40.128 17.192 40.316 17.016 40.564C16.848 40.804 16.764 41.084 16.764 41.404C16.764 41.788 16.88 42.092 17.112 42.316C17.352 42.54 17.74 42.704 18.276 42.808L19.524 43.072C20.332 43.24 20.928 43.496 21.312 43.84C21.704 44.176 21.9 44.636 21.9 45.22C21.9 45.572 21.828 45.896 21.684 46.192C21.54 46.488 21.332 46.744 21.06 46.96C20.788 47.168 20.46 47.328 20.076 47.44C19.692 47.552 19.26 47.608 18.78 47.608ZM25.9228 47.608C25.3068 47.608 24.7748 47.488 24.3268 47.248C23.8868 47 23.5428 46.652 23.2948 46.204C23.0548 45.756 22.9348 45.22 22.9348 44.596C22.9348 43.988 23.0548 43.46 23.2948 43.012C23.5348 42.556 23.8628 42.2 24.2788 41.944C24.7028 41.688 25.1908 41.56 25.7428 41.56C26.1348 41.56 26.4868 41.628 26.7988 41.764C27.1108 41.892 27.3748 42.08 27.5908 42.328C27.8148 42.576 27.9828 42.876 28.0948 43.228C28.2148 43.58 28.2748 43.976 28.2748 44.416C28.2748 44.544 28.2388 44.64 28.1668 44.704C28.0948 44.76 27.9908 44.788 27.8548 44.788H23.6788V44.152H27.6268L27.4348 44.308C27.4348 43.876 27.3708 43.512 27.2428 43.216C27.1148 42.912 26.9268 42.68 26.6788 42.52C26.4388 42.36 26.1348 42.28 25.7668 42.28C25.3588 42.28 25.0108 42.376 24.7228 42.568C24.4428 42.752 24.2308 43.012 24.0868 43.348C23.9428 43.676 23.8708 44.06 23.8708 44.5V44.572C23.8708 45.308 24.0468 45.868 24.3988 46.252C24.7588 46.636 25.2668 46.828 25.9228 46.828C26.1948 46.828 26.4628 46.792 26.7268 46.72C26.9988 46.648 27.2628 46.528 27.5188 46.36C27.6308 46.288 27.7308 46.256 27.8188 46.264C27.9148 46.264 27.9908 46.292 28.0468 46.348C28.1028 46.396 28.1388 46.46 28.1548 46.54C28.1788 46.612 28.1708 46.692 28.1308 46.78C28.0988 46.868 28.0308 46.944 27.9268 47.008C27.6628 47.2 27.3508 47.348 26.9908 47.452C26.6308 47.556 26.2748 47.608 25.9228 47.608ZM31.4575 47.608C30.8815 47.608 30.4415 47.432 30.1375 47.08C29.8335 46.728 29.6815 46.224 29.6815 45.568V39.448C29.6815 39.288 29.7215 39.168 29.8015 39.088C29.8815 39 30.0015 38.956 30.1615 38.956C30.3135 38.956 30.4335 39 30.5215 39.088C30.6095 39.168 30.6535 39.288 30.6535 39.448V45.496C30.6535 45.928 30.7375 46.252 30.9055 46.468C31.0815 46.676 31.3375 46.78 31.6735 46.78C31.7455 46.78 31.8095 46.776 31.8655 46.768C31.9215 46.76 31.9775 46.756 32.0335 46.756C32.1215 46.748 32.1815 46.768 32.2135 46.816C32.2535 46.864 32.2735 46.96 32.2735 47.104C32.2735 47.248 32.2415 47.356 32.1775 47.428C32.1135 47.5 32.0095 47.548 31.8655 47.572C31.8015 47.58 31.7335 47.588 31.6615 47.596C31.5895 47.604 31.5215 47.608 31.4575 47.608ZM35.8017 47.608C35.1857 47.608 34.6537 47.488 34.2057 47.248C33.7657 47 33.4217 46.652 33.1737 46.204C32.9337 45.756 32.8137 45.22 32.8137 44.596C32.8137 43.988 32.9337 43.46 33.1737 43.012C33.4137 42.556 33.7417 42.2 34.1577 41.944C34.5817 41.688 35.0697 41.56 35.6217 41.56C36.0137 41.56 36.3657 41.628 36.6777 41.764C36.9897 41.892 37.2537 42.08 37.4697 42.328C37.6937 42.576 37.8617 42.876 37.9737 43.228C38.0937 43.58 38.1537 43.976 38.1537 44.416C38.1537 44.544 38.1177 44.64 38.0457 44.704C37.9737 44.76 37.8697 44.788 37.7337 44.788H33.5577V44.152H37.5057L37.3137 44.308C37.3137 43.876 37.2497 43.512 37.1217 43.216C36.9937 42.912 36.8057 42.68 36.5577 42.52C36.3177 42.36 36.0137 42.28 35.6457 42.28C35.2377 42.28 34.8897 42.376 34.6017 42.568C34.3217 42.752 34.1097 43.012 33.9657 43.348C33.8217 43.676 33.7497 44.06 33.7497 44.5V44.572C33.7497 45.308 33.9257 45.868 34.2777 46.252C34.6377 46.636 35.1457 46.828 35.8017 46.828C36.0737 46.828 36.3417 46.792 36.6057 46.72C36.8777 46.648 37.1417 46.528 37.3977 46.36C37.5097 46.288 37.6097 46.256 37.6977 46.264C37.7937 46.264 37.8697 46.292 37.9257 46.348C37.9817 46.396 38.0177 46.46 38.0337 46.54C38.0577 46.612 38.0497 46.692 38.0097 46.78C37.9777 46.868 37.9097 46.944 37.8057 47.008C37.5417 47.2 37.2297 47.348 36.8697 47.452C36.5097 47.556 36.1537 47.608 35.8017 47.608ZM42.0324 47.608C41.4484 47.608 40.9444 47.48 40.5204 47.224C40.0964 46.968 39.7684 46.612 39.5364 46.156C39.3124 45.692 39.2004 45.156 39.2004 44.548C39.2004 44.084 39.2644 43.668 39.3924 43.3C39.5204 42.932 39.7084 42.62 39.9564 42.364C40.2044 42.1 40.5004 41.9 40.8444 41.764C41.1964 41.628 41.5924 41.56 42.0324 41.56C42.3204 41.56 42.6204 41.604 42.9324 41.692C43.2444 41.78 43.5284 41.932 43.7844 42.148C43.8644 42.204 43.9164 42.272 43.9404 42.352C43.9644 42.432 43.9644 42.512 43.9404 42.592C43.9164 42.664 43.8764 42.728 43.8204 42.784C43.7644 42.832 43.6924 42.86 43.6044 42.868C43.5244 42.876 43.4404 42.848 43.3524 42.784C43.1444 42.624 42.9324 42.512 42.7164 42.448C42.5004 42.384 42.2924 42.352 42.0924 42.352C41.7804 42.352 41.5084 42.404 41.2764 42.508C41.0444 42.604 40.8484 42.744 40.6884 42.928C40.5284 43.112 40.4044 43.34 40.3164 43.612C40.2364 43.884 40.1964 44.2 40.1964 44.56C40.1964 45.256 40.3604 45.808 40.6884 46.216C41.0164 46.616 41.4844 46.816 42.0924 46.816C42.2924 46.816 42.4964 46.784 42.7044 46.72C42.9204 46.656 43.1364 46.544 43.3524 46.384C43.4404 46.32 43.5244 46.292 43.6044 46.3C43.6844 46.308 43.7524 46.34 43.8084 46.396C43.8644 46.444 43.9004 46.508 43.9164 46.588C43.9404 46.668 43.9404 46.748 43.9164 46.828C43.8924 46.9 43.8404 46.964 43.7604 47.02C43.5044 47.228 43.2244 47.38 42.9204 47.476C42.6164 47.564 42.3204 47.608 42.0324 47.608ZM47.4551 47.608C46.9991 47.608 46.6151 47.528 46.3031 47.368C45.9991 47.2 45.7711 46.96 45.6191 46.648C45.4671 46.328 45.3911 45.94 45.3911 45.484V42.424H44.5871C44.4511 42.424 44.3471 42.392 44.2751 42.328C44.2031 42.256 44.1671 42.16 44.1671 42.04C44.1671 41.92 44.2031 41.828 44.2751 41.764C44.3471 41.7 44.4511 41.668 44.5871 41.668H45.3911V40.288C45.3911 40.128 45.4351 40.008 45.5231 39.928C45.6111 39.84 45.7311 39.796 45.8831 39.796C46.0351 39.796 46.1511 39.84 46.2311 39.928C46.3191 40.008 46.3631 40.128 46.3631 40.288V41.668H47.8751C48.0111 41.668 48.1151 41.7 48.1871 41.764C48.2591 41.828 48.2951 41.92 48.2951 42.04C48.2951 42.16 48.2591 42.256 48.1871 42.328C48.1151 42.392 48.0111 42.424 47.8751 42.424H46.3631V45.388C46.3631 45.844 46.4591 46.192 46.6511 46.432C46.8431 46.664 47.1551 46.78 47.5871 46.78C47.7391 46.78 47.8671 46.764 47.9711 46.732C48.0831 46.7 48.1751 46.684 48.2471 46.684C48.3191 46.676 48.3791 46.7 48.4271 46.756C48.4751 46.812 48.4991 46.908 48.4991 47.044C48.4991 47.14 48.4791 47.228 48.4391 47.308C48.4071 47.388 48.3471 47.444 48.2591 47.476C48.1631 47.508 48.0351 47.536 47.8751 47.56C47.7231 47.592 47.5831 47.608 47.4551 47.608ZM56.0882 47.608C55.3042 47.608 54.6202 47.432 54.0362 47.08C53.4602 46.72 53.0122 46.216 52.6922 45.568C52.3802 44.92 52.2242 44.152 52.2242 43.264C52.2242 42.592 52.3122 41.992 52.4882 41.464C52.6722 40.928 52.9322 40.476 53.2682 40.108C53.6042 39.732 54.0082 39.444 54.4802 39.244C54.9602 39.036 55.4962 38.932 56.0882 38.932C56.8882 38.932 57.5762 39.108 58.1522 39.46C58.7362 39.812 59.1842 40.312 59.4962 40.96C59.8162 41.6 59.9762 42.364 59.9762 43.252C59.9762 43.924 59.8842 44.528 59.7002 45.064C59.5162 45.6 59.2562 46.056 58.9202 46.432C58.5842 46.808 58.1762 47.1 57.6962 47.308C57.2242 47.508 56.6882 47.608 56.0882 47.608ZM56.0882 46.732C56.6962 46.732 57.2082 46.596 57.6242 46.324C58.0482 46.052 58.3722 45.656 58.5962 45.136C58.8202 44.616 58.9322 43.992 58.9322 43.264C58.9322 42.168 58.6842 41.32 58.1882 40.72C57.7002 40.112 57.0002 39.808 56.0882 39.808C55.4962 39.808 54.9882 39.944 54.5642 40.216C54.1482 40.488 53.8282 40.884 53.6042 41.404C53.3802 41.916 53.2682 42.536 53.2682 43.264C53.2682 44.352 53.5162 45.204 54.0122 45.82C54.5082 46.428 55.2002 46.732 56.0882 46.732ZM62.0834 49.744C61.9234 49.744 61.8034 49.7 61.7234 49.612C61.6434 49.532 61.6034 49.412 61.6034 49.252V42.076C61.6034 41.916 61.6434 41.796 61.7234 41.716C61.8034 41.628 61.9194 41.584 62.0714 41.584C62.2314 41.584 62.3514 41.628 62.4314 41.716C62.5194 41.796 62.5634 41.916 62.5634 42.076V43.216L62.4314 43.048C62.5594 42.592 62.8114 42.232 63.1874 41.968C63.5714 41.696 64.0274 41.56 64.5554 41.56C65.0754 41.56 65.5274 41.684 65.9114 41.932C66.3034 42.172 66.6034 42.52 66.8114 42.976C67.0274 43.424 67.1354 43.96 67.1354 44.584C67.1354 45.2 67.0274 45.736 66.8114 46.192C66.6034 46.64 66.3074 46.988 65.9234 47.236C65.5394 47.484 65.0834 47.608 64.5554 47.608C64.0274 47.608 63.5754 47.476 63.1994 47.212C62.8234 46.94 62.5674 46.58 62.4314 46.132H62.5754V49.252C62.5754 49.412 62.5314 49.532 62.4434 49.612C62.3554 49.7 62.2354 49.744 62.0834 49.744ZM64.3514 46.828C64.7194 46.828 65.0354 46.74 65.2994 46.564C65.5714 46.388 65.7794 46.132 65.9234 45.796C66.0754 45.46 66.1514 45.056 66.1514 44.584C66.1514 43.856 65.9874 43.3 65.6594 42.916C65.3394 42.532 64.9034 42.34 64.3514 42.34C63.9914 42.34 63.6754 42.428 63.4034 42.604C63.1314 42.772 62.9194 43.024 62.7674 43.36C62.6234 43.688 62.5514 44.096 62.5514 44.584C62.5514 45.304 62.7154 45.86 63.0434 46.252C63.3714 46.636 63.8074 46.828 64.3514 46.828ZM70.8809 47.608C70.4249 47.608 70.0409 47.528 69.7289 47.368C69.4249 47.2 69.1969 46.96 69.0449 46.648C68.8929 46.328 68.8169 45.94 68.8169 45.484V42.424H68.0129C67.8769 42.424 67.7729 42.392 67.7009 42.328C67.6289 42.256 67.5929 42.16 67.5929 42.04C67.5929 41.92 67.6289 41.828 67.7009 41.764C67.7729 41.7 67.8769 41.668 68.0129 41.668H68.8169V40.288C68.8169 40.128 68.8609 40.008 68.9489 39.928C69.0369 39.84 69.1569 39.796 69.3089 39.796C69.4609 39.796 69.5769 39.84 69.6569 39.928C69.7449 40.008 69.7889 40.128 69.7889 40.288V41.668H71.3009C71.4369 41.668 71.5409 41.7 71.6129 41.764C71.6849 41.828 71.7209 41.92 71.7209 42.04C71.7209 42.16 71.6849 42.256 71.6129 42.328C71.5409 42.392 71.4369 42.424 71.3009 42.424H69.7889V45.388C69.7889 45.844 69.8849 46.192 70.0769 46.432C70.2689 46.664 70.5809 46.78 71.0129 46.78C71.1649 46.78 71.2929 46.764 71.3969 46.732C71.5089 46.7 71.6009 46.684 71.6729 46.684C71.7449 46.676 71.8049 46.7 71.8529 46.756C71.9009 46.812 71.9249 46.908 71.9249 47.044C71.9249 47.14 71.9049 47.228 71.8649 47.308C71.8329 47.388 71.7729 47.444 71.6849 47.476C71.5889 47.508 71.4609 47.536 71.3009 47.56C71.1489 47.592 71.0089 47.608 70.8809 47.608ZM73.2865 47.56C73.1265 47.56 73.0065 47.516 72.9265 47.428C72.8465 47.332 72.8065 47.2 72.8065 47.032V42.124C72.8065 41.956 72.8465 41.828 72.9265 41.74C73.0065 41.652 73.1265 41.608 73.2865 41.608C73.4385 41.608 73.5585 41.652 73.6465 41.74C73.7345 41.828 73.7785 41.956 73.7785 42.124V47.032C73.7785 47.2 73.7345 47.332 73.6465 47.428C73.5665 47.516 73.4465 47.56 73.2865 47.56ZM73.2865 40.264C73.0865 40.264 72.9305 40.212 72.8185 40.108C72.7065 39.996 72.6505 39.848 72.6505 39.664C72.6505 39.472 72.7065 39.328 72.8185 39.232C72.9305 39.128 73.0865 39.076 73.2865 39.076C73.4945 39.076 73.6505 39.128 73.7545 39.232C73.8665 39.328 73.9225 39.472 73.9225 39.664C73.9225 39.848 73.8665 39.996 73.7545 40.108C73.6505 40.212 73.4945 40.264 73.2865 40.264ZM78.0196 47.608C77.4516 47.608 76.9596 47.484 76.5436 47.236C76.1276 46.988 75.8036 46.64 75.5716 46.192C75.3476 45.736 75.2356 45.2 75.2356 44.584C75.2356 44.12 75.2996 43.704 75.4276 43.336C75.5556 42.96 75.7436 42.64 75.9916 42.376C76.2396 42.112 76.5316 41.912 76.8676 41.776C77.2116 41.632 77.5956 41.56 78.0196 41.56C78.5876 41.56 79.0796 41.684 79.4956 41.932C79.9116 42.18 80.2316 42.532 80.4556 42.988C80.6876 43.436 80.8036 43.968 80.8036 44.584C80.8036 45.048 80.7396 45.464 80.6116 45.832C80.4836 46.2 80.2956 46.52 80.0476 46.792C79.7996 47.056 79.5036 47.26 79.1596 47.404C78.8236 47.54 78.4436 47.608 78.0196 47.608ZM78.0196 46.828C78.3796 46.828 78.6956 46.74 78.9676 46.564C79.2396 46.388 79.4476 46.132 79.5916 45.796C79.7436 45.46 79.8196 45.056 79.8196 44.584C79.8196 43.856 79.6556 43.3 79.3276 42.916C79.0076 42.532 78.5716 42.34 78.0196 42.34C77.6516 42.34 77.3316 42.428 77.0596 42.604C76.7956 42.772 76.5876 43.024 76.4356 43.36C76.2916 43.688 76.2196 44.096 76.2196 44.584C76.2196 45.304 76.3836 45.86 76.7116 46.252C77.0396 46.636 77.4756 46.828 78.0196 46.828ZM82.7436 47.584C82.5836 47.584 82.4636 47.54 82.3836 47.452C82.3036 47.364 82.2636 47.24 82.2636 47.08V42.076C82.2636 41.916 82.3036 41.796 82.3836 41.716C82.4636 41.628 82.5796 41.584 82.7316 41.584C82.8836 41.584 82.9996 41.628 83.0796 41.716C83.1676 41.796 83.2116 41.916 83.2116 42.076V43.108L83.0796 42.964C83.2476 42.5 83.5196 42.152 83.8956 41.92C84.2796 41.68 84.7196 41.56 85.2156 41.56C85.6796 41.56 86.0636 41.644 86.3676 41.812C86.6796 41.98 86.9116 42.236 87.0636 42.58C87.2156 42.916 87.2916 43.344 87.2916 43.864V47.08C87.2916 47.24 87.2476 47.364 87.1596 47.452C87.0796 47.54 86.9636 47.584 86.8116 47.584C86.6516 47.584 86.5276 47.54 86.4396 47.452C86.3596 47.364 86.3196 47.24 86.3196 47.08V43.924C86.3196 43.38 86.2116 42.984 85.9956 42.736C85.7876 42.48 85.4516 42.352 84.9876 42.352C84.4516 42.352 84.0236 42.52 83.7036 42.856C83.3916 43.184 83.2356 43.624 83.2356 44.176V47.08C83.2356 47.416 83.0716 47.584 82.7436 47.584ZM91.0519 47.608C90.6919 47.608 90.3279 47.564 89.9599 47.476C89.5999 47.388 89.2639 47.236 88.9519 47.02C88.8719 46.964 88.8159 46.9 88.7839 46.828C88.7519 46.748 88.7399 46.672 88.7479 46.6C88.7639 46.52 88.7959 46.452 88.8439 46.396C88.8999 46.34 88.9639 46.308 89.0359 46.3C89.1159 46.284 89.2039 46.3 89.2999 46.348C89.6119 46.54 89.9119 46.676 90.1999 46.756C90.4959 46.828 90.7879 46.864 91.0759 46.864C91.5319 46.864 91.8759 46.78 92.1079 46.612C92.3399 46.444 92.4559 46.216 92.4559 45.928C92.4559 45.704 92.3799 45.528 92.2279 45.4C92.0759 45.264 91.8359 45.16 91.5079 45.088L90.4159 44.848C89.9119 44.744 89.5359 44.564 89.2879 44.308C89.0479 44.052 88.9279 43.72 88.9279 43.312C88.9279 42.952 89.0199 42.644 89.2039 42.388C89.3959 42.124 89.6639 41.92 90.0079 41.776C90.3519 41.632 90.7519 41.56 91.2079 41.56C91.5599 41.56 91.8919 41.608 92.2039 41.704C92.5239 41.792 92.8119 41.936 93.0679 42.136C93.1479 42.192 93.1999 42.26 93.2239 42.34C93.2559 42.412 93.2599 42.488 93.2359 42.568C93.2199 42.64 93.1839 42.704 93.1279 42.76C93.0719 42.808 93.0039 42.836 92.9239 42.844C92.8439 42.852 92.7599 42.828 92.6719 42.772C92.4319 42.612 92.1879 42.496 91.9399 42.424C91.6919 42.344 91.4479 42.304 91.2079 42.304C90.7599 42.304 90.4199 42.392 90.1879 42.568C89.9559 42.744 89.8399 42.976 89.8399 43.264C89.8399 43.488 89.9119 43.672 90.0559 43.816C90.1999 43.96 90.4239 44.064 90.7279 44.128L91.8199 44.356C92.3399 44.468 92.7279 44.648 92.9839 44.896C93.2479 45.136 93.3799 45.464 93.3799 45.88C93.3799 46.408 93.1679 46.828 92.7439 47.14C92.3199 47.452 91.7559 47.608 91.0519 47.608Z" fill="#929BAA"/>
</g>
<path d="M8.804 12.108C8.436 12.108 8.076 12.08 7.724 12.024C7.372 11.968 7.04 11.884 6.728 11.772C6.416 11.652 6.136 11.508 5.888 11.34C5.768 11.252 5.684 11.152 5.636 11.04C5.596 10.928 5.584 10.82 5.6 10.716C5.624 10.604 5.672 10.508 5.744 10.428C5.816 10.348 5.904 10.3 6.008 10.284C6.112 10.26 6.228 10.292 6.356 10.38C6.716 10.612 7.096 10.784 7.496 10.896C7.896 11 8.332 11.052 8.804 11.052C9.484 11.052 9.984 10.932 10.304 10.692C10.632 10.444 10.796 10.124 10.796 9.732C10.796 9.412 10.68 9.16 10.448 8.976C10.216 8.784 9.828 8.632 9.284 8.52L8 8.256C7.24 8.096 6.672 7.832 6.296 7.464C5.928 7.096 5.744 6.6 5.744 5.976C5.744 5.6 5.82 5.256 5.972 4.944C6.132 4.632 6.352 4.364 6.632 4.14C6.912 3.908 7.248 3.732 7.64 3.612C8.032 3.492 8.46 3.432 8.924 3.432C9.42 3.432 9.884 3.496 10.316 3.624C10.756 3.752 11.148 3.948 11.492 4.212C11.596 4.284 11.664 4.376 11.696 4.488C11.736 4.592 11.744 4.696 11.72 4.8C11.704 4.904 11.66 4.992 11.588 5.064C11.516 5.136 11.424 5.18 11.312 5.196C11.2 5.204 11.076 5.164 10.94 5.076C10.628 4.868 10.308 4.72 9.98 4.632C9.66 4.536 9.304 4.488 8.912 4.488C8.52 4.488 8.176 4.548 7.88 4.668C7.592 4.788 7.368 4.956 7.208 5.172C7.056 5.388 6.98 5.644 6.98 5.94C6.98 6.276 7.088 6.544 7.304 6.744C7.52 6.944 7.88 7.096 8.384 7.2L9.656 7.464C10.456 7.632 11.052 7.892 11.444 8.244C11.836 8.596 12.032 9.064 12.032 9.648C12.032 10.024 11.956 10.364 11.804 10.668C11.652 10.964 11.436 11.22 11.156 11.436C10.876 11.652 10.536 11.82 10.136 11.94C9.744 12.052 9.3 12.108 8.804 12.108ZM15.7777 12.108C15.2977 12.108 14.8937 12.024 14.5657 11.856C14.2377 11.688 13.9937 11.44 13.8337 11.112C13.6737 10.784 13.5937 10.384 13.5937 9.912V7.08H12.8737C12.7137 7.08 12.5897 7.04 12.5017 6.96C12.4137 6.872 12.3697 6.756 12.3697 6.612C12.3697 6.46 12.4137 6.344 12.5017 6.264C12.5897 6.184 12.7137 6.144 12.8737 6.144H13.5937V4.908C13.5937 4.708 13.6457 4.556 13.7497 4.452C13.8617 4.348 14.0137 4.296 14.2057 4.296C14.3977 4.296 14.5457 4.348 14.6497 4.452C14.7537 4.556 14.8057 4.708 14.8057 4.908V6.144H16.2097C16.3697 6.144 16.4937 6.184 16.5817 6.264C16.6697 6.344 16.7137 6.46 16.7137 6.612C16.7137 6.756 16.6697 6.872 16.5817 6.96C16.4937 7.04 16.3697 7.08 16.2097 7.08H14.8057V9.816C14.8057 10.24 14.8937 10.56 15.0697 10.776C15.2537 10.992 15.5497 11.1 15.9577 11.1C16.1017 11.1 16.2257 11.088 16.3297 11.064C16.4417 11.032 16.5337 11.012 16.6057 11.004C16.6937 11.004 16.7657 11.036 16.8217 11.1C16.8777 11.156 16.9057 11.268 16.9057 11.436C16.9057 11.556 16.8817 11.668 16.8337 11.772C16.7937 11.876 16.7177 11.944 16.6057 11.976C16.5097 12.008 16.3777 12.036 16.2097 12.06C16.0497 12.092 15.9057 12.108 15.7777 12.108ZM19.5365 12.108C19.1285 12.108 18.7605 12.028 18.4325 11.868C18.1125 11.708 17.8605 11.492 17.6765 11.22C17.4925 10.948 17.4005 10.64 17.4005 10.296C17.4005 9.864 17.5085 9.524 17.7245 9.276C17.9485 9.02 18.3125 8.84 18.8165 8.736C19.3285 8.624 20.0165 8.568 20.8805 8.568H21.4445V9.312H20.8925C20.3165 9.312 19.8605 9.34 19.5245 9.396C19.1885 9.452 18.9485 9.548 18.8045 9.684C18.6685 9.812 18.6005 9.992 18.6005 10.224C18.6005 10.528 18.7045 10.776 18.9125 10.968C19.1205 11.152 19.4085 11.244 19.7765 11.244C20.0725 11.244 20.3325 11.176 20.5565 11.04C20.7805 10.896 20.9565 10.704 21.0845 10.464C21.2205 10.224 21.2885 9.948 21.2885 9.636V8.256C21.2885 7.8 21.1925 7.472 21.0005 7.272C20.8085 7.072 20.4925 6.972 20.0525 6.972C19.7965 6.972 19.5285 7.004 19.2485 7.068C18.9765 7.132 18.6925 7.24 18.3965 7.392C18.2605 7.456 18.1445 7.476 18.0485 7.452C17.9525 7.428 17.8765 7.376 17.8205 7.296C17.7645 7.208 17.7325 7.116 17.7245 7.02C17.7245 6.916 17.7485 6.816 17.7965 6.72C17.8525 6.624 17.9445 6.552 18.0725 6.504C18.4245 6.336 18.7725 6.216 19.1165 6.144C19.4605 6.072 19.7845 6.036 20.0885 6.036C20.6245 6.036 21.0645 6.12 21.4085 6.288C21.7605 6.456 22.0205 6.712 22.1885 7.056C22.3565 7.4 22.4405 7.844 22.4405 8.388V11.472C22.4405 11.664 22.3925 11.816 22.2965 11.928C22.2005 12.032 22.0605 12.084 21.8765 12.084C21.7005 12.084 21.5605 12.032 21.4565 11.928C21.3525 11.816 21.3005 11.664 21.3005 11.472V10.692H21.4085C21.3445 10.988 21.2245 11.244 21.0485 11.46C20.8805 11.668 20.6685 11.828 20.4125 11.94C20.1565 12.052 19.8645 12.108 19.5365 12.108ZM26.6058 12.108C26.1258 12.108 25.7218 12.024 25.3938 11.856C25.0658 11.688 24.8218 11.44 24.6618 11.112C24.5018 10.784 24.4218 10.384 24.4218 9.912V7.08H23.7018C23.5418 7.08 23.4178 7.04 23.3298 6.96C23.2418 6.872 23.1978 6.756 23.1978 6.612C23.1978 6.46 23.2418 6.344 23.3298 6.264C23.4178 6.184 23.5418 6.144 23.7018 6.144H24.4218V4.908C24.4218 4.708 24.4738 4.556 24.5778 4.452C24.6898 4.348 24.8418 4.296 25.0338 4.296C25.2258 4.296 25.3738 4.348 25.4778 4.452C25.5818 4.556 25.6338 4.708 25.6338 4.908V6.144H27.0378C27.1978 6.144 27.3218 6.184 27.4098 6.264C27.4978 6.344 27.5418 6.46 27.5418 6.612C27.5418 6.756 27.4978 6.872 27.4098 6.96C27.3218 7.04 27.1978 7.08 27.0378 7.08H25.6338V9.816C25.6338 10.24 25.7218 10.56 25.8978 10.776C26.0818 10.992 26.3778 11.1 26.7858 11.1C26.9298 11.1 27.0538 11.088 27.1578 11.064C27.2698 11.032 27.3618 11.012 27.4338 11.004C27.5218 11.004 27.5938 11.036 27.6498 11.1C27.7058 11.156 27.7338 11.268 27.7338 11.436C27.7338 11.556 27.7098 11.668 27.6618 11.772C27.6218 11.876 27.5458 11.944 27.4338 11.976C27.3378 12.008 27.2058 12.036 27.0378 12.06C26.8778 12.092 26.7338 12.108 26.6058 12.108ZM30.5806 12.108C30.1086 12.108 29.7126 12.02 29.3926 11.844C29.0806 11.668 28.8446 11.408 28.6846 11.064C28.5326 10.712 28.4566 10.272 28.4566 9.744V6.672C28.4566 6.464 28.5086 6.312 28.6126 6.216C28.7166 6.112 28.8646 6.06 29.0566 6.06C29.2486 6.06 29.3966 6.112 29.5006 6.216C29.6126 6.312 29.6686 6.464 29.6686 6.672V9.756C29.6686 10.228 29.7646 10.576 29.9566 10.8C30.1486 11.024 30.4526 11.136 30.8686 11.136C31.3246 11.136 31.6926 10.984 31.9726 10.68C32.2606 10.368 32.4046 9.96 32.4046 9.456V6.672C32.4046 6.464 32.4566 6.312 32.5606 6.216C32.6646 6.112 32.8166 6.06 33.0166 6.06C33.2086 6.06 33.3566 6.112 33.4606 6.216C33.5646 6.312 33.6166 6.464 33.6166 6.672V11.472C33.6166 11.88 33.4206 12.084 33.0286 12.084C32.8446 12.084 32.7006 12.032 32.5966 11.928C32.4926 11.816 32.4406 11.664 32.4406 11.472V10.452L32.5966 10.716C32.4366 11.164 32.1806 11.508 31.8286 11.748C31.4766 11.988 31.0606 12.108 30.5806 12.108ZM37.3767 12.108C37.0247 12.108 36.6607 12.068 36.2847 11.988C35.9167 11.908 35.5767 11.772 35.2647 11.58C35.1607 11.508 35.0887 11.428 35.0487 11.34C35.0087 11.252 34.9927 11.164 35.0007 11.076C35.0167 10.98 35.0527 10.9 35.1087 10.836C35.1727 10.764 35.2487 10.72 35.3367 10.704C35.4327 10.688 35.5327 10.708 35.6367 10.764C35.9487 10.94 36.2487 11.064 36.5367 11.136C36.8247 11.2 37.1087 11.232 37.3887 11.232C37.8127 11.232 38.1327 11.156 38.3487 11.004C38.5647 10.852 38.6727 10.648 38.6727 10.392C38.6727 10.184 38.6007 10.024 38.4567 9.912C38.3127 9.792 38.0967 9.7 37.8087 9.636L36.6687 9.408C36.1727 9.304 35.7967 9.12 35.5407 8.856C35.2847 8.592 35.1567 8.256 35.1567 7.848C35.1567 7.48 35.2567 7.16 35.4567 6.888C35.6567 6.616 35.9367 6.408 36.2967 6.264C36.6567 6.112 37.0727 6.036 37.5447 6.036C37.8967 6.036 38.2287 6.08 38.5407 6.168C38.8527 6.256 39.1407 6.388 39.4047 6.564C39.5087 6.62 39.5767 6.696 39.6087 6.792C39.6407 6.88 39.6447 6.968 39.6207 7.056C39.6047 7.144 39.5647 7.224 39.5007 7.296C39.4367 7.36 39.3567 7.4 39.2607 7.416C39.1727 7.424 39.0727 7.4 38.9607 7.344C38.7207 7.192 38.4807 7.084 38.2407 7.02C38.0087 6.956 37.7767 6.924 37.5447 6.924C37.1207 6.924 36.8007 7.004 36.5847 7.164C36.3767 7.316 36.2727 7.524 36.2727 7.788C36.2727 7.988 36.3367 8.152 36.4647 8.28C36.5927 8.408 36.7927 8.5 37.0647 8.556L38.2047 8.784C38.7247 8.888 39.1167 9.064 39.3807 9.312C39.6527 9.56 39.7887 9.896 39.7887 10.32C39.7887 10.872 39.5687 11.308 39.1287 11.628C38.6887 11.948 38.1047 12.108 37.3767 12.108Z" fill="#64728C"/>
<defs>
<filter id="filter0_d_556_4546" x="0" y="20" width="310" height="55" filterUnits="userSpaceOnUse" color-interpolation-filters="sRGB">
<feFlood flood-opacity="0" result="BackgroundImageFix"/>
<feColorMatrix in="SourceAlpha" type="matrix" values="0 0 0 0 0 0 0 0 0 0 0 0 0 0 0 0 0 0 127 0" result="hardAlpha"/>
<feOffset dy="4"/>
<feGaussianBlur stdDeviation="2.5"/>
<feComposite in2="hardAlpha" operator="out"/>
<feColorMatrix type="matrix" values="0 0 0 0 0.392157 0 0 0 0 0.447059 0 0 0 0 0.54902 0 0 0 0.15 0"/>
<feBlend mode="normal" in2="BackgroundImageFix" result="effect1_dropShadow_556_4546"/>
<feBlend mode="normal" in="SourceGraphic" in2="effect1_dropShadow_556_4546" result="shape"/>
</filter>
</defs>
</svg>
