<svg width="300" height="98" viewBox="0 0 300 98" fill="none" xmlns="http://www.w3.org/2000/svg">
<rect x="0.5" y="21.5" width="299" height="44" rx="11.5" stroke="#E8EAEF"/>
<path d="M13.78 47.608C13.404 47.608 13.036 47.576 12.676 47.512C12.316 47.448 11.98 47.356 11.668 47.236C11.364 47.116 11.088 46.964 10.84 46.78C10.744 46.708 10.676 46.628 10.636 46.54C10.604 46.444 10.596 46.352 10.612 46.264C10.636 46.168 10.676 46.088 10.732 46.024C10.796 45.96 10.872 45.924 10.96 45.916C11.048 45.908 11.144 45.936 11.248 46C11.608 46.256 11.992 46.444 12.4 46.564C12.808 46.676 13.268 46.732 13.78 46.732C14.5 46.732 15.032 46.6 15.376 46.336C15.728 46.064 15.904 45.708 15.904 45.268C15.904 44.908 15.776 44.628 15.52 44.428C15.272 44.22 14.852 44.056 14.26 43.936L13.012 43.684C12.26 43.524 11.696 43.264 11.32 42.904C10.952 42.536 10.768 42.048 10.768 41.44C10.768 41.064 10.844 40.724 10.996 40.42C11.148 40.108 11.36 39.844 11.632 39.628C11.904 39.404 12.228 39.232 12.604 39.112C12.98 38.992 13.396 38.932 13.852 38.932C14.356 38.932 14.824 39.004 15.256 39.148C15.696 39.284 16.092 39.492 16.444 39.772C16.532 39.844 16.592 39.928 16.624 40.024C16.656 40.112 16.66 40.2 16.636 40.288C16.612 40.368 16.568 40.436 16.504 40.492C16.448 40.548 16.372 40.58 16.276 40.588C16.188 40.596 16.088 40.564 15.976 40.492C15.656 40.252 15.324 40.08 14.98 39.976C14.636 39.864 14.256 39.808 13.84 39.808C13.416 39.808 13.048 39.872 12.736 40C12.432 40.128 12.192 40.316 12.016 40.564C11.848 40.804 11.764 41.084 11.764 41.404C11.764 41.788 11.88 42.092 12.112 42.316C12.352 42.54 12.74 42.704 13.276 42.808L14.524 43.072C15.332 43.24 15.928 43.496 16.312 43.84C16.704 44.176 16.9 44.636 16.9 45.22C16.9 45.572 16.828 45.896 16.684 46.192C16.54 46.488 16.332 46.744 16.06 46.96C15.788 47.168 15.46 47.328 15.076 47.44C14.692 47.552 14.26 47.608 13.78 47.608ZM20.9228 47.608C20.3068 47.608 19.7748 47.488 19.3268 47.248C18.8868 47 18.5428 46.652 18.2948 46.204C18.0548 45.756 17.9348 45.22 17.9348 44.596C17.9348 43.988 18.0548 43.46 18.2948 43.012C18.5348 42.556 18.8628 42.2 19.2788 41.944C19.7028 41.688 20.1908 41.56 20.7428 41.56C21.1348 41.56 21.4868 41.628 21.7988 41.764C22.1108 41.892 22.3748 42.08 22.5908 42.328C22.8148 42.576 22.9828 42.876 23.0948 43.228C23.2148 43.58 23.2748 43.976 23.2748 44.416C23.2748 44.544 23.2388 44.64 23.1668 44.704C23.0948 44.76 22.9908 44.788 22.8548 44.788H18.6788V44.152H22.6268L22.4348 44.308C22.4348 43.876 22.3708 43.512 22.2428 43.216C22.1148 42.912 21.9268 42.68 21.6788 42.52C21.4388 42.36 21.1348 42.28 20.7668 42.28C20.3588 42.28 20.0108 42.376 19.7228 42.568C19.4428 42.752 19.2308 43.012 19.0868 43.348C18.9428 43.676 18.8708 44.06 18.8708 44.5V44.572C18.8708 45.308 19.0468 45.868 19.3988 46.252C19.7588 46.636 20.2668 46.828 20.9228 46.828C21.1948 46.828 21.4628 46.792 21.7268 46.72C21.9988 46.648 22.2628 46.528 22.5188 46.36C22.6308 46.288 22.7308 46.256 22.8188 46.264C22.9148 46.264 22.9908 46.292 23.0468 46.348C23.1028 46.396 23.1388 46.46 23.1548 46.54C23.1788 46.612 23.1708 46.692 23.1308 46.78C23.0988 46.868 23.0308 46.944 22.9268 47.008C22.6628 47.2 22.3508 47.348 21.9908 47.452C21.6308 47.556 21.2748 47.608 20.9228 47.608ZM26.4575 47.608C25.8815 47.608 25.4415 47.432 25.1375 47.08C24.8335 46.728 24.6815 46.224 24.6815 45.568V39.448C24.6815 39.288 24.7215 39.168 24.8015 39.088C24.8815 39 25.0015 38.956 25.1615 38.956C25.3135 38.956 25.4335 39 25.5215 39.088C25.6095 39.168 25.6535 39.288 25.6535 39.448V45.496C25.6535 45.928 25.7375 46.252 25.9055 46.468C26.0815 46.676 26.3375 46.78 26.6735 46.78C26.7455 46.78 26.8095 46.776 26.8655 46.768C26.9215 46.76 26.9775 46.756 27.0335 46.756C27.1215 46.748 27.1815 46.768 27.2135 46.816C27.2535 46.864 27.2735 46.96 27.2735 47.104C27.2735 47.248 27.2415 47.356 27.1775 47.428C27.1135 47.5 27.0095 47.548 26.8655 47.572C26.8015 47.58 26.7335 47.588 26.6615 47.596C26.5895 47.604 26.5215 47.608 26.4575 47.608ZM30.8017 47.608C30.1857 47.608 29.6537 47.488 29.2057 47.248C28.7657 47 28.4217 46.652 28.1737 46.204C27.9337 45.756 27.8137 45.22 27.8137 44.596C27.8137 43.988 27.9337 43.46 28.1737 43.012C28.4137 42.556 28.7417 42.2 29.1577 41.944C29.5817 41.688 30.0697 41.56 30.6217 41.56C31.0137 41.56 31.3657 41.628 31.6777 41.764C31.9897 41.892 32.2537 42.08 32.4697 42.328C32.6937 42.576 32.8617 42.876 32.9737 43.228C33.0937 43.58 33.1537 43.976 33.1537 44.416C33.1537 44.544 33.1177 44.64 33.0457 44.704C32.9737 44.76 32.8697 44.788 32.7337 44.788H28.5577V44.152H32.5057L32.3137 44.308C32.3137 43.876 32.2497 43.512 32.1217 43.216C31.9937 42.912 31.8057 42.68 31.5577 42.52C31.3177 42.36 31.0137 42.28 30.6457 42.28C30.2377 42.28 29.8897 42.376 29.6017 42.568C29.3217 42.752 29.1097 43.012 28.9657 43.348C28.8217 43.676 28.7497 44.06 28.7497 44.5V44.572C28.7497 45.308 28.9257 45.868 29.2777 46.252C29.6377 46.636 30.1457 46.828 30.8017 46.828C31.0737 46.828 31.3417 46.792 31.6057 46.72C31.8777 46.648 32.1417 46.528 32.3977 46.36C32.5097 46.288 32.6097 46.256 32.6977 46.264C32.7937 46.264 32.8697 46.292 32.9257 46.348C32.9817 46.396 33.0177 46.46 33.0337 46.54C33.0577 46.612 33.0497 46.692 33.0097 46.78C32.9777 46.868 32.9097 46.944 32.8057 47.008C32.5417 47.2 32.2297 47.348 31.8697 47.452C31.5097 47.556 31.1537 47.608 30.8017 47.608ZM37.0324 47.608C36.4484 47.608 35.9444 47.48 35.5204 47.224C35.0964 46.968 34.7684 46.612 34.5364 46.156C34.3124 45.692 34.2004 45.156 34.2004 44.548C34.2004 44.084 34.2644 43.668 34.3924 43.3C34.5204 42.932 34.7084 42.62 34.9564 42.364C35.2044 42.1 35.5004 41.9 35.8444 41.764C36.1964 41.628 36.5924 41.56 37.0324 41.56C37.3204 41.56 37.6204 41.604 37.9324 41.692C38.2444 41.78 38.5284 41.932 38.7844 42.148C38.8644 42.204 38.9164 42.272 38.9404 42.352C38.9644 42.432 38.9644 42.512 38.9404 42.592C38.9164 42.664 38.8764 42.728 38.8204 42.784C38.7644 42.832 38.6924 42.86 38.6044 42.868C38.5244 42.876 38.4404 42.848 38.3524 42.784C38.1444 42.624 37.9324 42.512 37.7164 42.448C37.5004 42.384 37.2924 42.352 37.0924 42.352C36.7804 42.352 36.5084 42.404 36.2764 42.508C36.0444 42.604 35.8484 42.744 35.6884 42.928C35.5284 43.112 35.4044 43.34 35.3164 43.612C35.2364 43.884 35.1964 44.2 35.1964 44.56C35.1964 45.256 35.3604 45.808 35.6884 46.216C36.0164 46.616 36.4844 46.816 37.0924 46.816C37.2924 46.816 37.4964 46.784 37.7044 46.72C37.9204 46.656 38.1364 46.544 38.3524 46.384C38.4404 46.32 38.5244 46.292 38.6044 46.3C38.6844 46.308 38.7524 46.34 38.8084 46.396C38.8644 46.444 38.9004 46.508 38.9164 46.588C38.9404 46.668 38.9404 46.748 38.9164 46.828C38.8924 46.9 38.8404 46.964 38.7604 47.02C38.5044 47.228 38.2244 47.38 37.9204 47.476C37.6164 47.564 37.3204 47.608 37.0324 47.608ZM42.4551 47.608C41.9991 47.608 41.6151 47.528 41.3031 47.368C40.9991 47.2 40.7711 46.96 40.6191 46.648C40.4671 46.328 40.3911 45.94 40.3911 45.484V42.424H39.5871C39.4511 42.424 39.3471 42.392 39.2751 42.328C39.2031 42.256 39.1671 42.16 39.1671 42.04C39.1671 41.92 39.2031 41.828 39.2751 41.764C39.3471 41.7 39.4511 41.668 39.5871 41.668H40.3911V40.288C40.3911 40.128 40.4351 40.008 40.5231 39.928C40.6111 39.84 40.7311 39.796 40.8831 39.796C41.0351 39.796 41.1511 39.84 41.2311 39.928C41.3191 40.008 41.3631 40.128 41.3631 40.288V41.668H42.8751C43.0111 41.668 43.1151 41.7 43.1871 41.764C43.2591 41.828 43.2951 41.92 43.2951 42.04C43.2951 42.16 43.2591 42.256 43.1871 42.328C43.1151 42.392 43.0111 42.424 42.8751 42.424H41.3631V45.388C41.3631 45.844 41.4591 46.192 41.6511 46.432C41.8431 46.664 42.1551 46.78 42.5871 46.78C42.7391 46.78 42.8671 46.764 42.9711 46.732C43.0831 46.7 43.1751 46.684 43.2471 46.684C43.3191 46.676 43.3791 46.7 43.4271 46.756C43.4751 46.812 43.4991 46.908 43.4991 47.044C43.4991 47.14 43.4791 47.228 43.4391 47.308C43.4071 47.388 43.3471 47.444 43.2591 47.476C43.1631 47.508 43.0351 47.536 42.8751 47.56C42.7231 47.592 42.5831 47.608 42.4551 47.608ZM50.2722 47.608C49.8962 47.608 49.5282 47.576 49.1682 47.512C48.8082 47.448 48.4722 47.356 48.1602 47.236C47.8562 47.116 47.5802 46.964 47.3322 46.78C47.2362 46.708 47.1682 46.628 47.1282 46.54C47.0962 46.444 47.0882 46.352 47.1042 46.264C47.1282 46.168 47.1682 46.088 47.2242 46.024C47.2882 45.96 47.3642 45.924 47.4522 45.916C47.5402 45.908 47.6362 45.936 47.7402 46C48.1002 46.256 48.4842 46.444 48.8922 46.564C49.3002 46.676 49.7602 46.732 50.2722 46.732C50.9922 46.732 51.5242 46.6 51.8682 46.336C52.2202 46.064 52.3962 45.708 52.3962 45.268C52.3962 44.908 52.2682 44.628 52.0122 44.428C51.7642 44.22 51.3442 44.056 50.7522 43.936L49.5042 43.684C48.7522 43.524 48.1882 43.264 47.8122 42.904C47.4442 42.536 47.2602 42.048 47.2602 41.44C47.2602 41.064 47.3362 40.724 47.4882 40.42C47.6402 40.108 47.8522 39.844 48.1242 39.628C48.3962 39.404 48.7202 39.232 49.0962 39.112C49.4722 38.992 49.8882 38.932 50.3442 38.932C50.8482 38.932 51.3162 39.004 51.7482 39.148C52.1882 39.284 52.5842 39.492 52.9362 39.772C53.0242 39.844 53.0842 39.928 53.1162 40.024C53.1482 40.112 53.1522 40.2 53.1282 40.288C53.1042 40.368 53.0602 40.436 52.9962 40.492C52.9402 40.548 52.8642 40.58 52.7682 40.588C52.6802 40.596 52.5802 40.564 52.4682 40.492C52.1482 40.252 51.8162 40.08 51.4722 39.976C51.1282 39.864 50.7482 39.808 50.3322 39.808C49.9082 39.808 49.5402 39.872 49.2282 40C48.9242 40.128 48.6842 40.316 48.5082 40.564C48.3402 40.804 48.2562 41.084 48.2562 41.404C48.2562 41.788 48.3722 42.092 48.6042 42.316C48.8442 42.54 49.2322 42.704 49.7682 42.808L51.0162 43.072C51.8242 43.24 52.4202 43.496 52.8042 43.84C53.1962 44.176 53.3922 44.636 53.3922 45.22C53.3922 45.572 53.3202 45.896 53.1762 46.192C53.0322 46.488 52.8242 46.744 52.5522 46.96C52.2802 47.168 51.9522 47.328 51.5682 47.44C51.1842 47.552 50.7522 47.608 50.2722 47.608ZM57.1036 47.608C56.6476 47.608 56.2636 47.528 55.9516 47.368C55.6476 47.2 55.4196 46.96 55.2676 46.648C55.1156 46.328 55.0396 45.94 55.0396 45.484V42.424H54.2356C54.0996 42.424 53.9956 42.392 53.9236 42.328C53.8516 42.256 53.8156 42.16 53.8156 42.04C53.8156 41.92 53.8516 41.828 53.9236 41.764C53.9956 41.7 54.0996 41.668 54.2356 41.668H55.0396V40.288C55.0396 40.128 55.0836 40.008 55.1716 39.928C55.2596 39.84 55.3796 39.796 55.5316 39.796C55.6836 39.796 55.7996 39.84 55.8796 39.928C55.9676 40.008 56.0116 40.128 56.0116 40.288V41.668H57.5236C57.6596 41.668 57.7636 41.7 57.8356 41.764C57.9076 41.828 57.9436 41.92 57.9436 42.04C57.9436 42.16 57.9076 42.256 57.8356 42.328C57.7636 42.392 57.6596 42.424 57.5236 42.424H56.0116V45.388C56.0116 45.844 56.1076 46.192 56.2996 46.432C56.4916 46.664 56.8036 46.78 57.2356 46.78C57.3876 46.78 57.5156 46.764 57.6196 46.732C57.7316 46.7 57.8236 46.684 57.8956 46.684C57.9676 46.676 58.0276 46.7 58.0756 46.756C58.1236 46.812 58.1476 46.908 58.1476 47.044C58.1476 47.14 58.1276 47.228 58.0876 47.308C58.0556 47.388 57.9956 47.444 57.9076 47.476C57.8116 47.508 57.6836 47.536 57.5236 47.56C57.3716 47.592 57.2316 47.608 57.1036 47.608ZM60.7949 47.608C60.3949 47.608 60.0349 47.532 59.7149 47.38C59.4029 47.22 59.1549 47.004 58.9709 46.732C58.7869 46.46 58.6949 46.156 58.6949 45.82C58.6949 45.388 58.8029 45.048 59.0189 44.8C59.2429 44.552 59.6069 44.376 60.1109 44.272C60.6229 44.168 61.3189 44.116 62.1989 44.116H62.7389V44.752H62.2109C61.5629 44.752 61.0509 44.784 60.6749 44.848C60.3069 44.904 60.0469 45.004 59.8949 45.148C59.7509 45.292 59.6789 45.496 59.6789 45.76C59.6789 46.088 59.7909 46.356 60.0149 46.564C60.2469 46.772 60.5589 46.876 60.9509 46.876C61.2709 46.876 61.5509 46.8 61.7909 46.648C62.0389 46.496 62.2309 46.288 62.3669 46.024C62.5109 45.76 62.5829 45.456 62.5829 45.112V43.744C62.5829 43.248 62.4829 42.892 62.2829 42.676C62.0829 42.452 61.7549 42.34 61.2989 42.34C61.0189 42.34 60.7389 42.376 60.4589 42.448C60.1789 42.52 59.8829 42.636 59.5709 42.796C59.4589 42.852 59.3629 42.872 59.2829 42.856C59.2029 42.832 59.1389 42.788 59.0909 42.724C59.0429 42.66 59.0149 42.588 59.0069 42.508C58.9989 42.42 59.0149 42.336 59.0549 42.256C59.1029 42.176 59.1749 42.112 59.2709 42.064C59.6229 41.888 59.9709 41.76 60.3149 41.68C60.6589 41.6 60.9869 41.56 61.2989 41.56C61.8029 41.56 62.2189 41.644 62.5469 41.812C62.8749 41.972 63.1189 42.22 63.2789 42.556C63.4389 42.884 63.5189 43.308 63.5189 43.828V47.08C63.5189 47.24 63.4789 47.364 63.3989 47.452C63.3269 47.54 63.2189 47.584 63.0749 47.584C62.9229 47.584 62.8069 47.54 62.7269 47.452C62.6469 47.364 62.6069 47.24 62.6069 47.08V46.144H62.7149C62.6509 46.448 62.5269 46.708 62.3429 46.924C62.1669 47.14 61.9469 47.308 61.6829 47.428C61.4189 47.548 61.1229 47.608 60.7949 47.608ZM67.6622 47.608C67.2062 47.608 66.8222 47.528 66.5102 47.368C66.2062 47.2 65.9782 46.96 65.8262 46.648C65.6742 46.328 65.5982 45.94 65.5982 45.484V42.424H64.7942C64.6582 42.424 64.5542 42.392 64.4822 42.328C64.4102 42.256 64.3742 42.16 64.3742 42.04C64.3742 41.92 64.4102 41.828 64.4822 41.764C64.5542 41.7 64.6582 41.668 64.7942 41.668H65.5982V40.288C65.5982 40.128 65.6422 40.008 65.7302 39.928C65.8182 39.84 65.9382 39.796 66.0902 39.796C66.2422 39.796 66.3582 39.84 66.4382 39.928C66.5262 40.008 66.5702 40.128 66.5702 40.288V41.668H68.0822C68.2182 41.668 68.3222 41.7 68.3942 41.764C68.4662 41.828 68.5022 41.92 68.5022 42.04C68.5022 42.16 68.4662 42.256 68.3942 42.328C68.3222 42.392 68.2182 42.424 68.0822 42.424H66.5702V45.388C66.5702 45.844 66.6662 46.192 66.8582 46.432C67.0502 46.664 67.3622 46.78 67.7942 46.78C67.9462 46.78 68.0742 46.764 68.1782 46.732C68.2902 46.7 68.3822 46.684 68.4542 46.684C68.5262 46.676 68.5862 46.7 68.6342 46.756C68.6822 46.812 68.7062 46.908 68.7062 47.044C68.7062 47.14 68.6862 47.228 68.6462 47.308C68.6142 47.388 68.5542 47.444 68.4662 47.476C68.3702 47.508 68.2422 47.536 68.0822 47.56C67.9302 47.592 67.7902 47.608 67.6622 47.608ZM71.5815 47.608C71.1095 47.608 70.7175 47.524 70.4055 47.356C70.1015 47.18 69.8695 46.92 69.7095 46.576C69.5575 46.232 69.4815 45.804 69.4815 45.292V42.076C69.4815 41.908 69.5215 41.784 69.6015 41.704C69.6895 41.624 69.8095 41.584 69.9615 41.584C70.1215 41.584 70.2415 41.624 70.3215 41.704C70.4095 41.784 70.4535 41.908 70.4535 42.076V45.28C70.4535 45.792 70.5575 46.176 70.7655 46.432C70.9815 46.68 71.3175 46.804 71.7735 46.804C72.2695 46.804 72.6735 46.636 72.9855 46.3C73.2975 45.964 73.4535 45.524 73.4535 44.98V42.076C73.4535 41.908 73.4935 41.784 73.5735 41.704C73.6615 41.624 73.7855 41.584 73.9455 41.584C74.0975 41.584 74.2135 41.624 74.2935 41.704C74.3815 41.784 74.4255 41.908 74.4255 42.076V47.08C74.4255 47.416 74.2695 47.584 73.9575 47.584C73.8055 47.584 73.6855 47.54 73.5975 47.452C73.5175 47.364 73.4775 47.24 73.4775 47.08V45.988L73.6335 46.156C73.4735 46.628 73.2095 46.988 72.8415 47.236C72.4815 47.484 72.0615 47.608 71.5815 47.608ZM78.212 47.608C77.852 47.608 77.488 47.564 77.12 47.476C76.76 47.388 76.424 47.236 76.112 47.02C76.032 46.964 75.976 46.9 75.944 46.828C75.912 46.748 75.9 46.672 75.908 46.6C75.924 46.52 75.956 46.452 76.004 46.396C76.06 46.34 76.124 46.308 76.196 46.3C76.276 46.284 76.364 46.3 76.46 46.348C76.772 46.54 77.072 46.676 77.36 46.756C77.656 46.828 77.948 46.864 78.236 46.864C78.692 46.864 79.036 46.78 79.268 46.612C79.5 46.444 79.616 46.216 79.616 45.928C79.616 45.704 79.54 45.528 79.388 45.4C79.236 45.264 78.996 45.16 78.668 45.088L77.576 44.848C77.072 44.744 76.696 44.564 76.448 44.308C76.208 44.052 76.088 43.72 76.088 43.312C76.088 42.952 76.18 42.644 76.364 42.388C76.556 42.124 76.824 41.92 77.168 41.776C77.512 41.632 77.912 41.56 78.368 41.56C78.72 41.56 79.052 41.608 79.364 41.704C79.684 41.792 79.972 41.936 80.228 42.136C80.308 42.192 80.36 42.26 80.384 42.34C80.416 42.412 80.42 42.488 80.396 42.568C80.38 42.64 80.344 42.704 80.288 42.76C80.232 42.808 80.164 42.836 80.084 42.844C80.004 42.852 79.92 42.828 79.832 42.772C79.592 42.612 79.348 42.496 79.1 42.424C78.852 42.344 78.608 42.304 78.368 42.304C77.92 42.304 77.58 42.392 77.348 42.568C77.116 42.744 77 42.976 77 43.264C77 43.488 77.072 43.672 77.216 43.816C77.36 43.96 77.584 44.064 77.888 44.128L78.98 44.356C79.5 44.468 79.888 44.648 80.144 44.896C80.408 45.136 80.54 45.464 80.54 45.88C80.54 46.408 80.328 46.828 79.904 47.14C79.48 47.452 78.916 47.608 78.212 47.608Z" fill="#929BAA"/>
<path d="M3.804 12.108C3.436 12.108 3.076 12.08 2.724 12.024C2.372 11.968 2.04 11.884 1.728 11.772C1.416 11.652 1.136 11.508 0.888 11.34C0.768 11.252 0.684 11.152 0.636 11.04C0.596 10.928 0.584 10.82 0.6 10.716C0.624 10.604 0.672 10.508 0.744 10.428C0.816 10.348 0.904 10.3 1.008 10.284C1.112 10.26 1.228 10.292 1.356 10.38C1.716 10.612 2.096 10.784 2.496 10.896C2.896 11 3.332 11.052 3.804 11.052C4.484 11.052 4.984 10.932 5.304 10.692C5.632 10.444 5.796 10.124 5.796 9.732C5.796 9.412 5.68 9.16 5.448 8.976C5.216 8.784 4.828 8.632 4.284 8.52L3 8.256C2.24 8.096 1.672 7.832 1.296 7.464C0.928 7.096 0.744 6.6 0.744 5.976C0.744 5.6 0.82 5.256 0.972 4.944C1.132 4.632 1.352 4.364 1.632 4.14C1.912 3.908 2.248 3.732 2.64 3.612C3.032 3.492 3.46 3.432 3.924 3.432C4.42 3.432 4.884 3.496 5.316 3.624C5.756 3.752 6.148 3.948 6.492 4.212C6.596 4.284 6.664 4.376 6.696 4.488C6.736 4.592 6.744 4.696 6.72 4.8C6.704 4.904 6.66 4.992 6.588 5.064C6.516 5.136 6.424 5.18 6.312 5.196C6.2 5.204 6.076 5.164 5.94 5.076C5.628 4.868 5.308 4.72 4.98 4.632C4.66 4.536 4.304 4.488 3.912 4.488C3.52 4.488 3.176 4.548 2.88 4.668C2.592 4.788 2.368 4.956 2.208 5.172C2.056 5.388 1.98 5.644 1.98 5.94C1.98 6.276 2.088 6.544 2.304 6.744C2.52 6.944 2.88 7.096 3.384 7.2L4.656 7.464C5.456 7.632 6.052 7.892 6.444 8.244C6.836 8.596 7.032 9.064 7.032 9.648C7.032 10.024 6.956 10.364 6.804 10.668C6.652 10.964 6.436 11.22 6.156 11.436C5.876 11.652 5.536 11.82 5.136 11.94C4.744 12.052 4.3 12.108 3.804 12.108ZM10.7777 12.108C10.2977 12.108 9.89369 12.024 9.56569 11.856C9.23769 11.688 8.99369 11.44 8.83369 11.112C8.67369 10.784 8.59369 10.384 8.59369 9.912V7.08H7.87369C7.71369 7.08 7.58969 7.04 7.50169 6.96C7.41369 6.872 7.36969 6.756 7.36969 6.612C7.36969 6.46 7.41369 6.344 7.50169 6.264C7.58969 6.184 7.71369 6.144 7.87369 6.144H8.59369V4.908C8.59369 4.708 8.64569 4.556 8.74969 4.452C8.86169 4.348 9.01369 4.296 9.20569 4.296C9.39769 4.296 9.54569 4.348 9.64969 4.452C9.75369 4.556 9.80569 4.708 9.80569 4.908V6.144H11.2097C11.3697 6.144 11.4937 6.184 11.5817 6.264C11.6697 6.344 11.7137 6.46 11.7137 6.612C11.7137 6.756 11.6697 6.872 11.5817 6.96C11.4937 7.04 11.3697 7.08 11.2097 7.08H9.80569V9.816C9.80569 10.24 9.89369 10.56 10.0697 10.776C10.2537 10.992 10.5497 11.1 10.9577 11.1C11.1017 11.1 11.2257 11.088 11.3297 11.064C11.4417 11.032 11.5337 11.012 11.6057 11.004C11.6937 11.004 11.7657 11.036 11.8217 11.1C11.8777 11.156 11.9057 11.268 11.9057 11.436C11.9057 11.556 11.8817 11.668 11.8337 11.772C11.7937 11.876 11.7177 11.944 11.6057 11.976C11.5097 12.008 11.3777 12.036 11.2097 12.06C11.0497 12.092 10.9057 12.108 10.7777 12.108ZM14.5365 12.108C14.1285 12.108 13.7605 12.028 13.4325 11.868C13.1125 11.708 12.8605 11.492 12.6765 11.22C12.4925 10.948 12.4005 10.64 12.4005 10.296C12.4005 9.864 12.5085 9.524 12.7245 9.276C12.9485 9.02 13.3125 8.84 13.8165 8.736C14.3285 8.624 15.0165 8.568 15.8805 8.568H16.4445V9.312H15.8925C15.3165 9.312 14.8605 9.34 14.5245 9.396C14.1885 9.452 13.9485 9.548 13.8045 9.684C13.6685 9.812 13.6005 9.992 13.6005 10.224C13.6005 10.528 13.7045 10.776 13.9125 10.968C14.1205 11.152 14.4085 11.244 14.7765 11.244C15.0725 11.244 15.3325 11.176 15.5565 11.04C15.7805 10.896 15.9565 10.704 16.0845 10.464C16.2205 10.224 16.2885 9.948 16.2885 9.636V8.256C16.2885 7.8 16.1925 7.472 16.0005 7.272C15.8085 7.072 15.4925 6.972 15.0525 6.972C14.7965 6.972 14.5285 7.004 14.2485 7.068C13.9765 7.132 13.6925 7.24 13.3965 7.392C13.2605 7.456 13.1445 7.476 13.0485 7.452C12.9525 7.428 12.8765 7.376 12.8205 7.296C12.7645 7.208 12.7325 7.116 12.7245 7.02C12.7245 6.916 12.7485 6.816 12.7965 6.72C12.8525 6.624 12.9445 6.552 13.0725 6.504C13.4245 6.336 13.7725 6.216 14.1165 6.144C14.4605 6.072 14.7845 6.036 15.0885 6.036C15.6245 6.036 16.0645 6.12 16.4085 6.288C16.7605 6.456 17.0205 6.712 17.1885 7.056C17.3565 7.4 17.4405 7.844 17.4405 8.388V11.472C17.4405 11.664 17.3925 11.816 17.2965 11.928C17.2005 12.032 17.0605 12.084 16.8765 12.084C16.7005 12.084 16.5605 12.032 16.4565 11.928C16.3525 11.816 16.3005 11.664 16.3005 11.472V10.692H16.4085C16.3445 10.988 16.2245 11.244 16.0485 11.46C15.8805 11.668 15.6685 11.828 15.4125 11.94C15.1565 12.052 14.8645 12.108 14.5365 12.108ZM21.6058 12.108C21.1258 12.108 20.7218 12.024 20.3938 11.856C20.0658 11.688 19.8218 11.44 19.6618 11.112C19.5018 10.784 19.4218 10.384 19.4218 9.912V7.08H18.7018C18.5418 7.08 18.4178 7.04 18.3298 6.96C18.2418 6.872 18.1978 6.756 18.1978 6.612C18.1978 6.46 18.2418 6.344 18.3298 6.264C18.4178 6.184 18.5418 6.144 18.7018 6.144H19.4218V4.908C19.4218 4.708 19.4738 4.556 19.5778 4.452C19.6898 4.348 19.8418 4.296 20.0338 4.296C20.2258 4.296 20.3738 4.348 20.4778 4.452C20.5818 4.556 20.6338 4.708 20.6338 4.908V6.144H22.0378C22.1978 6.144 22.3218 6.184 22.4098 6.264C22.4978 6.344 22.5418 6.46 22.5418 6.612C22.5418 6.756 22.4978 6.872 22.4098 6.96C22.3218 7.04 22.1978 7.08 22.0378 7.08H20.6338V9.816C20.6338 10.24 20.7218 10.56 20.8978 10.776C21.0818 10.992 21.3778 11.1 21.7858 11.1C21.9298 11.1 22.0538 11.088 22.1578 11.064C22.2698 11.032 22.3618 11.012 22.4338 11.004C22.5218 11.004 22.5938 11.036 22.6498 11.1C22.7058 11.156 22.7338 11.268 22.7338 11.436C22.7338 11.556 22.7098 11.668 22.6618 11.772C22.6218 11.876 22.5458 11.944 22.4338 11.976C22.3378 12.008 22.2058 12.036 22.0378 12.06C21.8778 12.092 21.7338 12.108 21.6058 12.108ZM25.5806 12.108C25.1086 12.108 24.7126 12.02 24.3926 11.844C24.0806 11.668 23.8446 11.408 23.6846 11.064C23.5326 10.712 23.4566 10.272 23.4566 9.744V6.672C23.4566 6.464 23.5086 6.312 23.6126 6.216C23.7166 6.112 23.8646 6.06 24.0566 6.06C24.2486 6.06 24.3966 6.112 24.5006 6.216C24.6126 6.312 24.6686 6.464 24.6686 6.672V9.756C24.6686 10.228 24.7646 10.576 24.9566 10.8C25.1486 11.024 25.4526 11.136 25.8686 11.136C26.3246 11.136 26.6926 10.984 26.9726 10.68C27.2606 10.368 27.4046 9.96 27.4046 9.456V6.672C27.4046 6.464 27.4566 6.312 27.5606 6.216C27.6646 6.112 27.8166 6.06 28.0166 6.06C28.2086 6.06 28.3566 6.112 28.4606 6.216C28.5646 6.312 28.6166 6.464 28.6166 6.672V11.472C28.6166 11.88 28.4206 12.084 28.0286 12.084C27.8446 12.084 27.7006 12.032 27.5966 11.928C27.4926 11.816 27.4406 11.664 27.4406 11.472V10.452L27.5966 10.716C27.4366 11.164 27.1806 11.508 26.8286 11.748C26.4766 11.988 26.0606 12.108 25.5806 12.108ZM32.3767 12.108C32.0247 12.108 31.6607 12.068 31.2847 11.988C30.9167 11.908 30.5767 11.772 30.2647 11.58C30.1607 11.508 30.0887 11.428 30.0487 11.34C30.0087 11.252 29.9927 11.164 30.0007 11.076C30.0167 10.98 30.0527 10.9 30.1087 10.836C30.1727 10.764 30.2487 10.72 30.3367 10.704C30.4327 10.688 30.5327 10.708 30.6367 10.764C30.9487 10.94 31.2487 11.064 31.5367 11.136C31.8247 11.2 32.1087 11.232 32.3887 11.232C32.8127 11.232 33.1327 11.156 33.3487 11.004C33.5647 10.852 33.6727 10.648 33.6727 10.392C33.6727 10.184 33.6007 10.024 33.4567 9.912C33.3127 9.792 33.0967 9.7 32.8087 9.636L31.6687 9.408C31.1727 9.304 30.7967 9.12 30.5407 8.856C30.2847 8.592 30.1567 8.256 30.1567 7.848C30.1567 7.48 30.2567 7.16 30.4567 6.888C30.6567 6.616 30.9367 6.408 31.2967 6.264C31.6567 6.112 32.0727 6.036 32.5447 6.036C32.8967 6.036 33.2287 6.08 33.5407 6.168C33.8527 6.256 34.1407 6.388 34.4047 6.564C34.5087 6.62 34.5767 6.696 34.6087 6.792C34.6407 6.88 34.6447 6.968 34.6207 7.056C34.6047 7.144 34.5647 7.224 34.5007 7.296C34.4367 7.36 34.3567 7.4 34.2607 7.416C34.1727 7.424 34.0727 7.4 33.9607 7.344C33.7207 7.192 33.4807 7.084 33.2407 7.02C33.0087 6.956 32.7767 6.924 32.5447 6.924C32.1207 6.924 31.8007 7.004 31.5847 7.164C31.3767 7.316 31.2727 7.524 31.2727 7.788C31.2727 7.988 31.3367 8.152 31.4647 8.28C31.5927 8.408 31.7927 8.5 32.0647 8.556L33.2047 8.784C33.7247 8.888 34.1167 9.064 34.3807 9.312C34.6527 9.56 34.7887 9.896 34.7887 10.32C34.7887 10.872 34.5687 11.308 34.1287 11.628C33.6887 11.948 33.1047 12.108 32.3767 12.108Z" fill="#64728C"/>
<rect y="70" width="82" height="28" rx="14" fill="#64728C"/>
<path d="M11.608 88.084C11.408 88.084 11.252 88.028 11.14 87.916C11.036 87.804 10.984 87.648 10.984 87.448V80.092C10.984 79.884 11.036 79.728 11.14 79.624C11.252 79.512 11.408 79.456 11.608 79.456C11.808 79.456 11.96 79.512 12.064 79.624C12.176 79.728 12.232 79.884 12.232 80.092V87.448C12.232 87.648 12.18 87.804 12.076 87.916C11.972 88.028 11.816 88.084 11.608 88.084ZM14.6629 88.084C14.4709 88.084 14.3229 88.032 14.2189 87.928C14.1149 87.816 14.0629 87.664 14.0629 87.472V82.672C14.0629 82.472 14.1149 82.32 14.2189 82.216C14.3229 82.112 14.4669 82.06 14.6509 82.06C14.8429 82.06 14.9869 82.112 15.0829 82.216C15.1869 82.32 15.2389 82.472 15.2389 82.672V83.608L15.1069 83.392C15.2829 82.944 15.5589 82.608 15.9349 82.384C16.3109 82.152 16.7429 82.036 17.2309 82.036C17.6949 82.036 18.0789 82.124 18.3829 82.3C18.6949 82.468 18.9269 82.728 19.0789 83.08C19.2309 83.424 19.3069 83.86 19.3069 84.388V87.472C19.3069 87.664 19.2549 87.816 19.1509 87.928C19.0469 88.032 18.8989 88.084 18.7069 88.084C18.5069 88.084 18.3549 88.032 18.2509 87.928C18.1469 87.816 18.0949 87.664 18.0949 87.472V84.46C18.0949 83.956 17.9949 83.588 17.7949 83.356C17.6029 83.124 17.2989 83.008 16.8829 83.008C16.3949 83.008 16.0029 83.16 15.7069 83.464C15.4189 83.768 15.2749 84.176 15.2749 84.688V87.472C15.2749 87.88 15.0709 88.084 14.6629 88.084ZM24.8971 88.084C24.6971 88.084 24.5411 88.028 24.4291 87.916C24.3251 87.804 24.2731 87.648 24.2731 87.448V80.176C24.2731 79.968 24.3291 79.812 24.4411 79.708C24.5531 79.596 24.7091 79.54 24.9091 79.54H27.7771C28.6891 79.54 29.3931 79.768 29.8891 80.224C30.3851 80.672 30.6331 81.304 30.6331 82.12C30.6331 82.944 30.3851 83.584 29.8891 84.04C29.3931 84.488 28.6891 84.712 27.7771 84.712H25.5211V87.448C25.5211 87.648 25.4691 87.804 25.3651 87.916C25.2611 88.028 25.1051 88.084 24.8971 88.084ZM25.5211 83.716H27.5971C28.1971 83.716 28.6491 83.584 28.9531 83.32C29.2651 83.048 29.4211 82.648 29.4211 82.12C29.4211 81.6 29.2651 81.208 28.9531 80.944C28.6491 80.672 28.1971 80.536 27.5971 80.536H25.5211V83.716ZM32.3351 88.084C32.1351 88.084 31.9831 88.032 31.8791 87.928C31.7751 87.816 31.7231 87.664 31.7231 87.472V82.672C31.7231 82.472 31.7751 82.32 31.8791 82.216C31.9831 82.112 32.1271 82.06 32.3111 82.06C32.5031 82.06 32.6471 82.112 32.7431 82.216C32.8471 82.32 32.8991 82.472 32.8991 82.672V83.548H32.7791C32.9071 83.068 33.1431 82.704 33.4871 82.456C33.8311 82.208 34.2711 82.064 34.8071 82.024C34.9511 82.016 35.0631 82.052 35.1431 82.132C35.2311 82.212 35.2791 82.336 35.2871 82.504C35.3031 82.672 35.2671 82.808 35.1791 82.912C35.0911 83.008 34.9551 83.064 34.7711 83.08L34.5431 83.104C34.0231 83.152 33.6271 83.316 33.3551 83.596C33.0831 83.876 32.9471 84.26 32.9471 84.748V87.472C32.9471 87.664 32.8951 87.816 32.7911 87.928C32.6951 88.032 32.5431 88.084 32.3351 88.084ZM38.6616 88.108C38.0696 88.108 37.5576 87.984 37.1256 87.736C36.7016 87.488 36.3696 87.136 36.1296 86.68C35.8896 86.224 35.7696 85.688 35.7696 85.072C35.7696 84.6 35.8376 84.18 35.9736 83.812C36.1096 83.444 36.3016 83.128 36.5496 82.864C36.8056 82.592 37.1096 82.388 37.4616 82.252C37.8216 82.108 38.2216 82.036 38.6616 82.036C39.2456 82.036 39.7496 82.16 40.1736 82.408C40.6056 82.656 40.9416 83.008 41.1816 83.464C41.4216 83.912 41.5416 84.448 41.5416 85.072C41.5416 85.536 41.4736 85.956 41.3376 86.332C41.2016 86.708 41.0056 87.028 40.7496 87.292C40.5016 87.556 40.1976 87.76 39.8376 87.904C39.4856 88.04 39.0936 88.108 38.6616 88.108ZM38.6616 87.172C38.9896 87.172 39.2776 87.092 39.5256 86.932C39.7736 86.772 39.9656 86.536 40.1016 86.224C40.2456 85.912 40.3176 85.528 40.3176 85.072C40.3176 84.384 40.1656 83.864 39.8616 83.512C39.5576 83.16 39.1576 82.984 38.6616 82.984C38.3256 82.984 38.0336 83.064 37.7856 83.224C37.5376 83.376 37.3416 83.608 37.1976 83.92C37.0616 84.232 36.9936 84.616 36.9936 85.072C36.9936 85.752 37.1456 86.272 37.4496 86.632C37.7536 86.992 38.1576 87.172 38.6616 87.172ZM45.5548 90.268C45.1228 90.268 44.7028 90.224 44.2948 90.136C43.8948 90.048 43.5308 89.904 43.2028 89.704C43.0828 89.64 43.0028 89.56 42.9628 89.464C42.9228 89.376 42.9108 89.284 42.9268 89.188C42.9508 89.092 42.9948 89.008 43.0588 88.936C43.1228 88.864 43.1988 88.816 43.2868 88.792C43.3828 88.768 43.4828 88.784 43.5868 88.84C43.9388 89.032 44.2708 89.16 44.5828 89.224C44.9028 89.296 45.1988 89.332 45.4708 89.332C46.0308 89.332 46.4508 89.188 46.7308 88.9C47.0108 88.62 47.1508 88.204 47.1508 87.652V86.428H47.2588C47.1388 86.868 46.8868 87.216 46.5028 87.472C46.1188 87.728 45.6748 87.856 45.1708 87.856C44.6428 87.856 44.1828 87.736 43.7908 87.496C43.3988 87.248 43.0948 86.908 42.8788 86.476C42.6628 86.036 42.5548 85.524 42.5548 84.94C42.5548 84.5 42.6148 84.104 42.7348 83.752C42.8628 83.4 43.0388 83.096 43.2628 82.84C43.4948 82.584 43.7708 82.388 44.0908 82.252C44.4188 82.108 44.7788 82.036 45.1708 82.036C45.6828 82.036 46.1268 82.164 46.5028 82.42C46.8868 82.676 47.1348 83.024 47.2468 83.464L47.1268 83.668V82.672C47.1268 82.472 47.1788 82.32 47.2828 82.216C47.3948 82.112 47.5428 82.06 47.7268 82.06C47.9188 82.06 48.0668 82.112 48.1708 82.216C48.2748 82.32 48.3268 82.472 48.3268 82.672V87.508C48.3268 88.42 48.0908 89.108 47.6188 89.572C47.1468 90.036 46.4588 90.268 45.5548 90.268ZM45.4588 86.908C45.8108 86.908 46.1108 86.828 46.3588 86.668C46.6068 86.508 46.7988 86.28 46.9348 85.984C47.0708 85.688 47.1388 85.34 47.1388 84.94C47.1388 84.34 46.9868 83.864 46.6828 83.512C46.3868 83.16 45.9788 82.984 45.4588 82.984C45.1148 82.984 44.8188 83.064 44.5708 83.224C44.3228 83.384 44.1268 83.612 43.9828 83.908C43.8468 84.196 43.7788 84.54 43.7788 84.94C43.7788 85.548 43.9308 86.028 44.2348 86.38C44.5388 86.732 44.9468 86.908 45.4588 86.908ZM50.6398 88.084C50.4398 88.084 50.2878 88.032 50.1838 87.928C50.0798 87.816 50.0278 87.664 50.0278 87.472V82.672C50.0278 82.472 50.0798 82.32 50.1838 82.216C50.2878 82.112 50.4318 82.06 50.6158 82.06C50.8078 82.06 50.9518 82.112 51.0478 82.216C51.1518 82.32 51.2038 82.472 51.2038 82.672V83.548H51.0838C51.2118 83.068 51.4478 82.704 51.7918 82.456C52.1358 82.208 52.5758 82.064 53.1118 82.024C53.2558 82.016 53.3678 82.052 53.4478 82.132C53.5358 82.212 53.5838 82.336 53.5918 82.504C53.6078 82.672 53.5718 82.808 53.4838 82.912C53.3958 83.008 53.2598 83.064 53.0758 83.08L52.8478 83.104C52.3278 83.152 51.9318 83.316 51.6598 83.596C51.3878 83.876 51.2518 84.26 51.2518 84.748V87.472C51.2518 87.664 51.1998 87.816 51.0958 87.928C50.9998 88.032 50.8478 88.084 50.6398 88.084ZM57.1703 88.108C56.5303 88.108 55.9783 87.988 55.5143 87.748C55.0583 87.5 54.7023 87.152 54.4463 86.704C54.1983 86.248 54.0743 85.708 54.0743 85.084C54.0743 84.476 54.1983 83.944 54.4463 83.488C54.6943 83.032 55.0343 82.676 55.4663 82.42C55.8983 82.164 56.3903 82.036 56.9423 82.036C57.3503 82.036 57.7143 82.104 58.0343 82.24C58.3543 82.368 58.6263 82.56 58.8503 82.816C59.0823 83.064 59.2543 83.368 59.3663 83.728C59.4863 84.088 59.5463 84.492 59.5463 84.94C59.5463 85.076 59.5063 85.18 59.4263 85.252C59.3463 85.316 59.2263 85.348 59.0663 85.348H55.0343V84.604H58.7303L58.5263 84.772C58.5263 84.372 58.4663 84.032 58.3463 83.752C58.2343 83.472 58.0623 83.26 57.8303 83.116C57.6063 82.964 57.3263 82.888 56.9903 82.888C56.6143 82.888 56.2943 82.976 56.0303 83.152C55.7743 83.328 55.5783 83.572 55.4423 83.884C55.3063 84.196 55.2383 84.56 55.2383 84.976V85.048C55.2383 85.752 55.4023 86.284 55.7303 86.644C56.0663 86.996 56.5503 87.172 57.1823 87.172C57.4223 87.172 57.6743 87.14 57.9383 87.076C58.2103 87.012 58.4663 86.904 58.7063 86.752C58.8423 86.672 58.9623 86.636 59.0663 86.644C59.1783 86.652 59.2663 86.688 59.3303 86.752C59.4023 86.816 59.4463 86.896 59.4623 86.992C59.4783 87.088 59.4623 87.188 59.4143 87.292C59.3663 87.388 59.2823 87.476 59.1623 87.556C58.8903 87.74 58.5743 87.88 58.2143 87.976C57.8543 88.064 57.5063 88.108 57.1703 88.108ZM62.9196 88.108C62.5676 88.108 62.2036 88.068 61.8276 87.988C61.4596 87.908 61.1196 87.772 60.8076 87.58C60.7036 87.508 60.6316 87.428 60.5916 87.34C60.5516 87.252 60.5356 87.164 60.5436 87.076C60.5596 86.98 60.5956 86.9 60.6516 86.836C60.7156 86.764 60.7916 86.72 60.8796 86.704C60.9756 86.688 61.0756 86.708 61.1796 86.764C61.4916 86.94 61.7916 87.064 62.0796 87.136C62.3676 87.2 62.6516 87.232 62.9316 87.232C63.3556 87.232 63.6756 87.156 63.8916 87.004C64.1076 86.852 64.2156 86.648 64.2156 86.392C64.2156 86.184 64.1436 86.024 63.9996 85.912C63.8556 85.792 63.6396 85.7 63.3516 85.636L62.2116 85.408C61.7156 85.304 61.3396 85.12 61.0836 84.856C60.8276 84.592 60.6996 84.256 60.6996 83.848C60.6996 83.48 60.7996 83.16 60.9996 82.888C61.1996 82.616 61.4796 82.408 61.8396 82.264C62.1996 82.112 62.6156 82.036 63.0876 82.036C63.4396 82.036 63.7716 82.08 64.0836 82.168C64.3956 82.256 64.6836 82.388 64.9476 82.564C65.0516 82.62 65.1196 82.696 65.1516 82.792C65.1836 82.88 65.1876 82.968 65.1636 83.056C65.1476 83.144 65.1076 83.224 65.0436 83.296C64.9796 83.36 64.8996 83.4 64.8036 83.416C64.7156 83.424 64.6156 83.4 64.5036 83.344C64.2636 83.192 64.0236 83.084 63.7836 83.02C63.5516 82.956 63.3196 82.924 63.0876 82.924C62.6636 82.924 62.3436 83.004 62.1276 83.164C61.9196 83.316 61.8156 83.524 61.8156 83.788C61.8156 83.988 61.8796 84.152 62.0076 84.28C62.1356 84.408 62.3356 84.5 62.6076 84.556L63.7476 84.784C64.2676 84.888 64.6596 85.064 64.9236 85.312C65.1956 85.56 65.3316 85.896 65.3316 86.32C65.3316 86.872 65.1116 87.308 64.6716 87.628C64.2316 87.948 63.6476 88.108 62.9196 88.108ZM68.7321 88.108C68.3801 88.108 68.0161 88.068 67.6401 87.988C67.2721 87.908 66.9321 87.772 66.6201 87.58C66.5161 87.508 66.4441 87.428 66.4041 87.34C66.3641 87.252 66.3481 87.164 66.3561 87.076C66.3721 86.98 66.4081 86.9 66.4641 86.836C66.5281 86.764 66.6041 86.72 66.6921 86.704C66.7881 86.688 66.8881 86.708 66.9921 86.764C67.3041 86.94 67.6041 87.064 67.8921 87.136C68.1801 87.2 68.4641 87.232 68.7441 87.232C69.1681 87.232 69.4881 87.156 69.7041 87.004C69.9201 86.852 70.0281 86.648 70.0281 86.392C70.0281 86.184 69.9561 86.024 69.8121 85.912C69.6681 85.792 69.4521 85.7 69.1641 85.636L68.0241 85.408C67.5281 85.304 67.1521 85.12 66.8961 84.856C66.6401 84.592 66.5121 84.256 66.5121 83.848C66.5121 83.48 66.6121 83.16 66.8121 82.888C67.0121 82.616 67.2921 82.408 67.6521 82.264C68.0121 82.112 68.4281 82.036 68.9001 82.036C69.2521 82.036 69.5841 82.08 69.8961 82.168C70.2081 82.256 70.4961 82.388 70.7601 82.564C70.8641 82.62 70.9321 82.696 70.9641 82.792C70.9961 82.88 71.0001 82.968 70.9761 83.056C70.9601 83.144 70.9201 83.224 70.8561 83.296C70.7921 83.36 70.7121 83.4 70.6161 83.416C70.5281 83.424 70.4281 83.4 70.3161 83.344C70.0761 83.192 69.8361 83.084 69.5961 83.02C69.3641 82.956 69.1321 82.924 68.9001 82.924C68.4761 82.924 68.1561 83.004 67.9401 83.164C67.7321 83.316 67.6281 83.524 67.6281 83.788C67.6281 83.988 67.6921 84.152 67.8201 84.28C67.9481 84.408 68.1481 84.5 68.4201 84.556L69.5601 84.784C70.0801 84.888 70.4721 85.064 70.7361 85.312C71.0081 85.56 71.1441 85.896 71.1441 86.32C71.1441 86.872 70.9241 87.308 70.4841 87.628C70.0441 87.948 69.4601 88.108 68.7321 88.108Z" fill="white"/>
<rect x="87" y="70" width="100" height="28" rx="14" fill="#64728C" fill-opacity="0.1"/>
<path d="M101.776 88.108C100.92 88.108 100.188 87.932 99.58 87.58C98.972 87.228 98.504 86.728 98.176 86.08C97.856 85.424 97.696 84.652 97.696 83.764C97.696 83.1 97.788 82.504 97.972 81.976C98.156 81.44 98.42 80.984 98.764 80.608C99.116 80.224 99.544 79.932 100.048 79.732C100.56 79.532 101.136 79.432 101.776 79.432C102.248 79.432 102.7 79.496 103.132 79.624C103.572 79.752 103.952 79.936 104.272 80.176C104.408 80.264 104.496 80.372 104.536 80.5C104.584 80.62 104.592 80.736 104.56 80.848C104.536 80.96 104.484 81.056 104.404 81.136C104.324 81.208 104.22 81.248 104.092 81.256C103.972 81.264 103.84 81.22 103.696 81.124C103.432 80.924 103.14 80.776 102.82 80.68C102.5 80.584 102.164 80.536 101.812 80.536C101.204 80.536 100.692 80.664 100.276 80.92C99.86 81.168 99.544 81.532 99.328 82.012C99.112 82.492 99.004 83.076 99.004 83.764C99.004 84.452 99.112 85.04 99.328 85.528C99.544 86.008 99.86 86.376 100.276 86.632C100.692 86.88 101.204 87.004 101.812 87.004C102.164 87.004 102.5 86.956 102.82 86.86C103.148 86.756 103.456 86.604 103.744 86.404C103.888 86.316 104.016 86.276 104.128 86.284C104.248 86.292 104.348 86.332 104.428 86.404C104.508 86.476 104.56 86.568 104.584 86.68C104.616 86.784 104.612 86.896 104.572 87.016C104.54 87.128 104.464 87.224 104.344 87.304C104.016 87.568 103.628 87.768 103.18 87.904C102.732 88.04 102.264 88.108 101.776 88.108ZM108.084 88.108C107.492 88.108 106.98 87.984 106.548 87.736C106.124 87.488 105.792 87.136 105.552 86.68C105.312 86.224 105.192 85.688 105.192 85.072C105.192 84.6 105.26 84.18 105.396 83.812C105.532 83.444 105.724 83.128 105.972 82.864C106.228 82.592 106.532 82.388 106.884 82.252C107.244 82.108 107.644 82.036 108.084 82.036C108.668 82.036 109.172 82.16 109.596 82.408C110.028 82.656 110.364 83.008 110.604 83.464C110.844 83.912 110.964 84.448 110.964 85.072C110.964 85.536 110.896 85.956 110.76 86.332C110.624 86.708 110.428 87.028 110.172 87.292C109.924 87.556 109.62 87.76 109.26 87.904C108.908 88.04 108.516 88.108 108.084 88.108ZM108.084 87.172C108.412 87.172 108.7 87.092 108.948 86.932C109.196 86.772 109.388 86.536 109.524 86.224C109.668 85.912 109.74 85.528 109.74 85.072C109.74 84.384 109.588 83.864 109.284 83.512C108.98 83.16 108.58 82.984 108.084 82.984C107.748 82.984 107.456 83.064 107.208 83.224C106.96 83.376 106.764 83.608 106.62 83.92C106.484 84.232 106.416 84.616 106.416 85.072C106.416 85.752 106.568 86.272 106.872 86.632C107.176 86.992 107.58 87.172 108.084 87.172ZM112.949 88.084C112.757 88.084 112.609 88.032 112.505 87.928C112.401 87.816 112.349 87.664 112.349 87.472V82.672C112.349 82.472 112.401 82.32 112.505 82.216C112.609 82.112 112.753 82.06 112.937 82.06C113.129 82.06 113.273 82.112 113.369 82.216C113.473 82.32 113.525 82.472 113.525 82.672V83.656L113.393 83.392C113.553 82.968 113.801 82.636 114.137 82.396C114.473 82.156 114.877 82.036 115.349 82.036C115.837 82.036 116.233 82.152 116.537 82.384C116.841 82.616 117.049 82.972 117.161 83.452H116.993C117.145 83.012 117.405 82.668 117.773 82.42C118.141 82.164 118.569 82.036 119.057 82.036C119.505 82.036 119.873 82.124 120.161 82.3C120.449 82.468 120.665 82.728 120.809 83.08C120.953 83.424 121.025 83.86 121.025 84.388V87.472C121.025 87.664 120.969 87.816 120.857 87.928C120.753 88.032 120.605 88.084 120.413 88.084C120.221 88.084 120.073 88.032 119.969 87.928C119.865 87.816 119.813 87.664 119.813 87.472V84.448C119.813 83.952 119.725 83.588 119.549 83.356C119.381 83.124 119.101 83.008 118.709 83.008C118.269 83.008 117.921 83.16 117.665 83.464C117.409 83.768 117.281 84.188 117.281 84.724V87.472C117.281 87.664 117.229 87.816 117.125 87.928C117.021 88.032 116.873 88.084 116.681 88.084C116.489 88.084 116.337 88.032 116.225 87.928C116.121 87.816 116.069 87.664 116.069 87.472V84.448C116.069 83.952 115.985 83.588 115.817 83.356C115.649 83.124 115.369 83.008 114.977 83.008C114.537 83.008 114.189 83.16 113.933 83.464C113.685 83.768 113.561 84.188 113.561 84.724V87.472C113.561 87.88 113.357 88.084 112.949 88.084ZM123.319 90.244C123.127 90.244 122.979 90.192 122.875 90.088C122.771 89.984 122.719 89.832 122.719 89.632V82.672C122.719 82.472 122.771 82.32 122.875 82.216C122.979 82.112 123.123 82.06 123.307 82.06C123.499 82.06 123.647 82.112 123.751 82.216C123.855 82.32 123.907 82.472 123.907 82.672V83.716L123.775 83.464C123.903 83.032 124.155 82.688 124.531 82.432C124.907 82.168 125.351 82.036 125.863 82.036C126.383 82.036 126.835 82.16 127.219 82.408C127.611 82.656 127.911 83.004 128.119 83.452C128.335 83.9 128.443 84.44 128.443 85.072C128.443 85.688 128.335 86.228 128.119 86.692C127.911 87.148 127.615 87.5 127.231 87.748C126.847 87.988 126.391 88.108 125.863 88.108C125.359 88.108 124.919 87.98 124.543 87.724C124.167 87.468 123.915 87.128 123.787 86.704H123.931V89.632C123.931 89.832 123.875 89.984 123.763 90.088C123.659 90.192 123.511 90.244 123.319 90.244ZM125.563 87.172C125.899 87.172 126.191 87.092 126.439 86.932C126.687 86.772 126.879 86.536 127.015 86.224C127.151 85.912 127.219 85.528 127.219 85.072C127.219 84.384 127.067 83.864 126.763 83.512C126.467 83.16 126.067 82.984 125.563 82.984C125.235 82.984 124.943 83.064 124.687 83.224C124.439 83.376 124.247 83.608 124.111 83.92C123.975 84.232 123.907 84.616 123.907 85.072C123.907 85.752 124.059 86.272 124.363 86.632C124.667 86.992 125.067 87.172 125.563 87.172ZM131.693 88.108C131.069 88.108 130.597 87.928 130.277 87.568C129.965 87.2 129.809 86.672 129.809 85.984V80.068C129.809 79.868 129.861 79.716 129.965 79.612C130.069 79.508 130.217 79.456 130.409 79.456C130.601 79.456 130.749 79.508 130.853 79.612C130.965 79.716 131.021 79.868 131.021 80.068V85.912C131.021 86.312 131.101 86.612 131.261 86.812C131.429 87.004 131.669 87.1 131.981 87.1C132.053 87.1 132.117 87.1 132.173 87.1C132.229 87.092 132.285 87.084 132.341 87.076C132.437 87.068 132.505 87.096 132.545 87.16C132.585 87.216 132.605 87.336 132.605 87.52C132.605 87.688 132.569 87.82 132.497 87.916C132.425 88.004 132.309 88.06 132.149 88.084C132.077 88.092 132.001 88.096 131.921 88.096C131.841 88.104 131.765 88.108 131.693 88.108ZM136.166 88.108C135.526 88.108 134.974 87.988 134.51 87.748C134.054 87.5 133.698 87.152 133.442 86.704C133.194 86.248 133.07 85.708 133.07 85.084C133.07 84.476 133.194 83.944 133.442 83.488C133.69 83.032 134.03 82.676 134.462 82.42C134.894 82.164 135.386 82.036 135.938 82.036C136.346 82.036 136.71 82.104 137.03 82.24C137.35 82.368 137.622 82.56 137.846 82.816C138.078 83.064 138.25 83.368 138.362 83.728C138.482 84.088 138.542 84.492 138.542 84.94C138.542 85.076 138.502 85.18 138.422 85.252C138.342 85.316 138.222 85.348 138.062 85.348H134.03V84.604H137.726L137.522 84.772C137.522 84.372 137.462 84.032 137.342 83.752C137.23 83.472 137.058 83.26 136.826 83.116C136.602 82.964 136.322 82.888 135.986 82.888C135.61 82.888 135.29 82.976 135.026 83.152C134.77 83.328 134.574 83.572 134.438 83.884C134.302 84.196 134.234 84.56 134.234 84.976V85.048C134.234 85.752 134.398 86.284 134.726 86.644C135.062 86.996 135.546 87.172 136.178 87.172C136.418 87.172 136.67 87.14 136.934 87.076C137.206 87.012 137.462 86.904 137.702 86.752C137.838 86.672 137.958 86.636 138.062 86.644C138.174 86.652 138.262 86.688 138.326 86.752C138.398 86.816 138.442 86.896 138.458 86.992C138.474 87.088 138.458 87.188 138.41 87.292C138.362 87.388 138.278 87.476 138.158 87.556C137.886 87.74 137.57 87.88 137.21 87.976C136.85 88.064 136.502 88.108 136.166 88.108ZM142.348 88.108C141.868 88.108 141.464 88.024 141.136 87.856C140.808 87.688 140.564 87.44 140.404 87.112C140.244 86.784 140.164 86.384 140.164 85.912V83.08H139.444C139.284 83.08 139.16 83.04 139.072 82.96C138.984 82.872 138.94 82.756 138.94 82.612C138.94 82.46 138.984 82.344 139.072 82.264C139.16 82.184 139.284 82.144 139.444 82.144H140.164V80.908C140.164 80.708 140.216 80.556 140.32 80.452C140.432 80.348 140.584 80.296 140.776 80.296C140.968 80.296 141.116 80.348 141.22 80.452C141.324 80.556 141.376 80.708 141.376 80.908V82.144H142.78C142.94 82.144 143.064 82.184 143.152 82.264C143.24 82.344 143.284 82.46 143.284 82.612C143.284 82.756 143.24 82.872 143.152 82.96C143.064 83.04 142.94 83.08 142.78 83.08H141.376V85.816C141.376 86.24 141.464 86.56 141.64 86.776C141.824 86.992 142.12 87.1 142.528 87.1C142.672 87.1 142.796 87.088 142.9 87.064C143.012 87.032 143.104 87.012 143.176 87.004C143.264 87.004 143.336 87.036 143.392 87.1C143.448 87.156 143.476 87.268 143.476 87.436C143.476 87.556 143.452 87.668 143.404 87.772C143.364 87.876 143.288 87.944 143.176 87.976C143.08 88.008 142.948 88.036 142.78 88.06C142.62 88.092 142.476 88.108 142.348 88.108ZM146.924 88.108C146.284 88.108 145.732 87.988 145.268 87.748C144.812 87.5 144.456 87.152 144.2 86.704C143.952 86.248 143.828 85.708 143.828 85.084C143.828 84.476 143.952 83.944 144.2 83.488C144.448 83.032 144.788 82.676 145.22 82.42C145.652 82.164 146.144 82.036 146.696 82.036C147.104 82.036 147.468 82.104 147.788 82.24C148.108 82.368 148.38 82.56 148.604 82.816C148.836 83.064 149.008 83.368 149.12 83.728C149.24 84.088 149.3 84.492 149.3 84.94C149.3 85.076 149.26 85.18 149.18 85.252C149.1 85.316 148.98 85.348 148.82 85.348H144.788V84.604H148.484L148.28 84.772C148.28 84.372 148.22 84.032 148.1 83.752C147.988 83.472 147.816 83.26 147.584 83.116C147.36 82.964 147.08 82.888 146.744 82.888C146.368 82.888 146.048 82.976 145.784 83.152C145.528 83.328 145.332 83.572 145.196 83.884C145.06 84.196 144.992 84.56 144.992 84.976V85.048C144.992 85.752 145.156 86.284 145.484 86.644C145.82 86.996 146.304 87.172 146.936 87.172C147.176 87.172 147.428 87.14 147.692 87.076C147.964 87.012 148.22 86.904 148.46 86.752C148.596 86.672 148.716 86.636 148.82 86.644C148.932 86.652 149.02 86.688 149.084 86.752C149.156 86.816 149.2 86.896 149.216 86.992C149.232 87.088 149.216 87.188 149.168 87.292C149.12 87.388 149.036 87.476 148.916 87.556C148.644 87.74 148.328 87.88 147.968 87.976C147.608 88.064 147.26 88.108 146.924 88.108ZM152.854 88.108C152.342 88.108 151.89 87.988 151.498 87.748C151.114 87.5 150.814 87.148 150.598 86.692C150.382 86.228 150.274 85.688 150.274 85.072C150.274 84.44 150.382 83.9 150.598 83.452C150.814 83.004 151.114 82.656 151.498 82.408C151.89 82.16 152.342 82.036 152.854 82.036C153.366 82.036 153.806 82.164 154.174 82.42C154.55 82.668 154.802 83.004 154.93 83.428H154.798V80.068C154.798 79.868 154.85 79.716 154.954 79.612C155.058 79.508 155.206 79.456 155.398 79.456C155.59 79.456 155.738 79.508 155.842 79.612C155.954 79.716 156.01 79.868 156.01 80.068V87.472C156.01 87.664 155.958 87.816 155.854 87.928C155.75 88.032 155.602 88.084 155.41 88.084C155.218 88.084 155.07 88.032 154.966 87.928C154.862 87.816 154.81 87.664 154.81 87.472V86.416L154.942 86.68C154.814 87.112 154.562 87.46 154.186 87.724C153.818 87.98 153.374 88.108 152.854 88.108ZM153.166 87.172C153.494 87.172 153.782 87.092 154.03 86.932C154.278 86.772 154.47 86.536 154.606 86.224C154.75 85.912 154.822 85.528 154.822 85.072C154.822 84.384 154.67 83.864 154.366 83.512C154.062 83.16 153.662 82.984 153.166 82.984C152.83 82.984 152.538 83.064 152.29 83.224C152.042 83.376 151.846 83.608 151.702 83.92C151.566 84.232 151.498 84.616 151.498 85.072C151.498 85.752 151.65 86.272 151.954 86.632C152.258 86.992 152.662 87.172 153.166 87.172Z" fill="#64728C"/>
<rect x="162" y="74" width="20" height="20" rx="10" fill="white"/>
<path d="M174.86 79.3671C175.35 78.8776 176.143 78.8776 176.633 79.3671C177.122 79.8567 177.122 80.6503 176.633 81.1399L169.14 88.6329C168.65 89.1224 167.857 89.1224 167.367 88.6329C166.878 88.1433 166.878 87.3497 167.367 86.8601L174.86 79.3671Z" fill="#64728C"/>
<path d="M167.367 81.1399C166.878 80.6503 166.878 79.8567 167.367 79.3671C167.857 78.8776 168.65 78.8776 169.14 79.3671L176.633 86.8601C177.122 87.3497 177.122 88.1433 176.633 88.6329C176.143 89.1224 175.35 89.1224 174.86 88.6329L167.367 81.1399Z" fill="#64728C"/>
<rect x="193" y="70" width="78" height="28" rx="14" fill="#64728C" fill-opacity="0.1"/>
<path d="M207.776 88.108C206.92 88.108 206.188 87.932 205.58 87.58C204.972 87.228 204.504 86.728 204.176 86.08C203.856 85.424 203.696 84.652 203.696 83.764C203.696 83.1 203.788 82.504 203.972 81.976C204.156 81.44 204.42 80.984 204.764 80.608C205.116 80.224 205.544 79.932 206.048 79.732C206.56 79.532 207.136 79.432 207.776 79.432C208.248 79.432 208.7 79.496 209.132 79.624C209.572 79.752 209.952 79.936 210.272 80.176C210.408 80.264 210.496 80.372 210.536 80.5C210.584 80.62 210.592 80.736 210.56 80.848C210.536 80.96 210.484 81.056 210.404 81.136C210.324 81.208 210.22 81.248 210.092 81.256C209.972 81.264 209.84 81.22 209.696 81.124C209.432 80.924 209.14 80.776 208.82 80.68C208.5 80.584 208.164 80.536 207.812 80.536C207.204 80.536 206.692 80.664 206.276 80.92C205.86 81.168 205.544 81.532 205.328 82.012C205.112 82.492 205.004 83.076 205.004 83.764C205.004 84.452 205.112 85.04 205.328 85.528C205.544 86.008 205.86 86.376 206.276 86.632C206.692 86.88 207.204 87.004 207.812 87.004C208.164 87.004 208.5 86.956 208.82 86.86C209.148 86.756 209.456 86.604 209.744 86.404C209.888 86.316 210.016 86.276 210.128 86.284C210.248 86.292 210.348 86.332 210.428 86.404C210.508 86.476 210.56 86.568 210.584 86.68C210.616 86.784 210.612 86.896 210.572 87.016C210.54 87.128 210.464 87.224 210.344 87.304C210.016 87.568 209.628 87.768 209.18 87.904C208.732 88.04 208.264 88.108 207.776 88.108ZM213.845 88.108C213.221 88.108 212.749 87.928 212.429 87.568C212.117 87.2 211.961 86.672 211.961 85.984V80.068C211.961 79.868 212.013 79.716 212.117 79.612C212.221 79.508 212.369 79.456 212.561 79.456C212.753 79.456 212.901 79.508 213.005 79.612C213.117 79.716 213.173 79.868 213.173 80.068V85.912C213.173 86.312 213.253 86.612 213.413 86.812C213.581 87.004 213.821 87.1 214.133 87.1C214.205 87.1 214.269 87.1 214.325 87.1C214.381 87.092 214.437 87.084 214.493 87.076C214.589 87.068 214.657 87.096 214.697 87.16C214.737 87.216 214.757 87.336 214.757 87.52C214.757 87.688 214.721 87.82 214.649 87.916C214.577 88.004 214.461 88.06 214.301 88.084C214.229 88.092 214.153 88.096 214.073 88.096C213.993 88.104 213.917 88.108 213.845 88.108ZM218.115 88.108C217.523 88.108 217.011 87.984 216.579 87.736C216.155 87.488 215.823 87.136 215.583 86.68C215.343 86.224 215.223 85.688 215.223 85.072C215.223 84.6 215.291 84.18 215.427 83.812C215.563 83.444 215.755 83.128 216.003 82.864C216.259 82.592 216.563 82.388 216.915 82.252C217.275 82.108 217.675 82.036 218.115 82.036C218.699 82.036 219.203 82.16 219.627 82.408C220.059 82.656 220.395 83.008 220.635 83.464C220.875 83.912 220.995 84.448 220.995 85.072C220.995 85.536 220.927 85.956 220.791 86.332C220.655 86.708 220.459 87.028 220.203 87.292C219.955 87.556 219.651 87.76 219.291 87.904C218.939 88.04 218.547 88.108 218.115 88.108ZM218.115 87.172C218.443 87.172 218.731 87.092 218.979 86.932C219.227 86.772 219.419 86.536 219.555 86.224C219.699 85.912 219.771 85.528 219.771 85.072C219.771 84.384 219.619 83.864 219.315 83.512C219.011 83.16 218.611 82.984 218.115 82.984C217.779 82.984 217.487 83.064 217.239 83.224C216.991 83.376 216.795 83.608 216.651 83.92C216.515 84.232 216.447 84.616 216.447 85.072C216.447 85.752 216.599 86.272 216.903 86.632C217.207 86.992 217.611 87.172 218.115 87.172ZM224.408 88.108C224.056 88.108 223.692 88.068 223.316 87.988C222.948 87.908 222.608 87.772 222.296 87.58C222.192 87.508 222.12 87.428 222.08 87.34C222.04 87.252 222.024 87.164 222.032 87.076C222.048 86.98 222.084 86.9 222.14 86.836C222.204 86.764 222.28 86.72 222.368 86.704C222.464 86.688 222.564 86.708 222.668 86.764C222.98 86.94 223.28 87.064 223.568 87.136C223.856 87.2 224.14 87.232 224.42 87.232C224.844 87.232 225.164 87.156 225.38 87.004C225.596 86.852 225.704 86.648 225.704 86.392C225.704 86.184 225.632 86.024 225.488 85.912C225.344 85.792 225.128 85.7 224.84 85.636L223.7 85.408C223.204 85.304 222.828 85.12 222.572 84.856C222.316 84.592 222.188 84.256 222.188 83.848C222.188 83.48 222.288 83.16 222.488 82.888C222.688 82.616 222.968 82.408 223.328 82.264C223.688 82.112 224.104 82.036 224.576 82.036C224.928 82.036 225.26 82.08 225.572 82.168C225.884 82.256 226.172 82.388 226.436 82.564C226.54 82.62 226.608 82.696 226.64 82.792C226.672 82.88 226.676 82.968 226.652 83.056C226.636 83.144 226.596 83.224 226.532 83.296C226.468 83.36 226.388 83.4 226.292 83.416C226.204 83.424 226.104 83.4 225.992 83.344C225.752 83.192 225.512 83.084 225.272 83.02C225.04 82.956 224.808 82.924 224.576 82.924C224.152 82.924 223.832 83.004 223.616 83.164C223.408 83.316 223.304 83.524 223.304 83.788C223.304 83.988 223.368 84.152 223.496 84.28C223.624 84.408 223.824 84.5 224.096 84.556L225.236 84.784C225.756 84.888 226.148 85.064 226.412 85.312C226.684 85.56 226.82 85.896 226.82 86.32C226.82 86.872 226.6 87.308 226.16 87.628C225.72 87.948 225.136 88.108 224.408 88.108ZM230.916 88.108C230.276 88.108 229.724 87.988 229.26 87.748C228.804 87.5 228.448 87.152 228.192 86.704C227.944 86.248 227.82 85.708 227.82 85.084C227.82 84.476 227.944 83.944 228.192 83.488C228.44 83.032 228.78 82.676 229.212 82.42C229.644 82.164 230.136 82.036 230.688 82.036C231.096 82.036 231.46 82.104 231.78 82.24C232.1 82.368 232.372 82.56 232.596 82.816C232.828 83.064 233 83.368 233.112 83.728C233.232 84.088 233.292 84.492 233.292 84.94C233.292 85.076 233.252 85.18 233.172 85.252C233.092 85.316 232.972 85.348 232.812 85.348H228.78V84.604H232.476L232.272 84.772C232.272 84.372 232.212 84.032 232.092 83.752C231.98 83.472 231.808 83.26 231.576 83.116C231.352 82.964 231.072 82.888 230.736 82.888C230.36 82.888 230.04 82.976 229.776 83.152C229.52 83.328 229.324 83.572 229.188 83.884C229.052 84.196 228.984 84.56 228.984 84.976V85.048C228.984 85.752 229.148 86.284 229.476 86.644C229.812 86.996 230.296 87.172 230.928 87.172C231.168 87.172 231.42 87.14 231.684 87.076C231.956 87.012 232.212 86.904 232.452 86.752C232.588 86.672 232.708 86.636 232.812 86.644C232.924 86.652 233.012 86.688 233.076 86.752C233.148 86.816 233.192 86.896 233.208 86.992C233.224 87.088 233.208 87.188 233.16 87.292C233.112 87.388 233.028 87.476 232.908 87.556C232.636 87.74 232.32 87.88 231.96 87.976C231.6 88.064 231.252 88.108 230.916 88.108ZM236.846 88.108C236.334 88.108 235.882 87.988 235.49 87.748C235.106 87.5 234.806 87.148 234.59 86.692C234.374 86.228 234.266 85.688 234.266 85.072C234.266 84.44 234.374 83.9 234.59 83.452C234.806 83.004 235.106 82.656 235.49 82.408C235.882 82.16 236.334 82.036 236.846 82.036C237.358 82.036 237.798 82.164 238.166 82.42C238.542 82.668 238.794 83.004 238.922 83.428H238.79V80.068C238.79 79.868 238.842 79.716 238.946 79.612C239.05 79.508 239.198 79.456 239.39 79.456C239.582 79.456 239.73 79.508 239.834 79.612C239.946 79.716 240.002 79.868 240.002 80.068V87.472C240.002 87.664 239.95 87.816 239.846 87.928C239.742 88.032 239.594 88.084 239.402 88.084C239.21 88.084 239.062 88.032 238.958 87.928C238.854 87.816 238.802 87.664 238.802 87.472V86.416L238.934 86.68C238.806 87.112 238.554 87.46 238.178 87.724C237.81 87.98 237.366 88.108 236.846 88.108ZM237.158 87.172C237.486 87.172 237.774 87.092 238.022 86.932C238.27 86.772 238.462 86.536 238.598 86.224C238.742 85.912 238.814 85.528 238.814 85.072C238.814 84.384 238.662 83.864 238.358 83.512C238.054 83.16 237.654 82.984 237.158 82.984C236.822 82.984 236.53 83.064 236.282 83.224C236.034 83.376 235.838 83.608 235.694 83.92C235.558 84.232 235.49 84.616 235.49 85.072C235.49 85.752 235.642 86.272 235.946 86.632C236.25 86.992 236.654 87.172 237.158 87.172Z" fill="#64728C"/>
<rect x="246" y="74" width="20" height="20" rx="10" fill="white"/>
<path d="M258.86 79.3671C259.35 78.8776 260.143 78.8776 260.633 79.3671C261.122 79.8567 261.122 80.6503 260.633 81.1399L253.14 88.6329C252.65 89.1224 251.857 89.1224 251.367 88.6329C250.878 88.1433 250.878 87.3497 251.367 86.8601L258.86 79.3671Z" fill="#64728C"/>
<path d="M251.367 81.1399C250.878 80.6503 250.878 79.8567 251.367 79.3671C251.857 78.8776 252.65 78.8776 253.14 79.3671L260.633 86.8601C261.122 87.3497 261.122 88.1433 260.633 88.6329C260.143 89.1224 259.35 89.1224 258.86 88.6329L251.367 81.1399Z" fill="#64728C"/>
</svg>
