<svg width="310" height="100" viewBox="0 0 310 100" fill="none" xmlns="http://www.w3.org/2000/svg">
<g filter="url(#filter0_d_556_4549)">
<rect x="5" y="21" width="300" height="45" rx="12" fill="white" shape-rendering="crispEdges"/>
<rect x="5.5" y="21.5" width="299" height="44" rx="11.5" stroke="#EB0910" shape-rendering="crispEdges"/>
<path d="M18.78 47.608C18.404 47.608 18.036 47.576 17.676 47.512C17.316 47.448 16.98 47.356 16.668 47.236C16.364 47.116 16.088 46.964 15.84 46.78C15.744 46.708 15.676 46.628 15.636 46.54C15.604 46.444 15.596 46.352 15.612 46.264C15.636 46.168 15.676 46.088 15.732 46.024C15.796 45.96 15.872 45.924 15.96 45.916C16.048 45.908 16.144 45.936 16.248 46C16.608 46.256 16.992 46.444 17.4 46.564C17.808 46.676 18.268 46.732 18.78 46.732C19.5 46.732 20.032 46.6 20.376 46.336C20.728 46.064 20.904 45.708 20.904 45.268C20.904 44.908 20.776 44.628 20.52 44.428C20.272 44.22 19.852 44.056 19.26 43.936L18.012 43.684C17.26 43.524 16.696 43.264 16.32 42.904C15.952 42.536 15.768 42.048 15.768 41.44C15.768 41.064 15.844 40.724 15.996 40.42C16.148 40.108 16.36 39.844 16.632 39.628C16.904 39.404 17.228 39.232 17.604 39.112C17.98 38.992 18.396 38.932 18.852 38.932C19.356 38.932 19.824 39.004 20.256 39.148C20.696 39.284 21.092 39.492 21.444 39.772C21.532 39.844 21.592 39.928 21.624 40.024C21.656 40.112 21.66 40.2 21.636 40.288C21.612 40.368 21.568 40.436 21.504 40.492C21.448 40.548 21.372 40.58 21.276 40.588C21.188 40.596 21.088 40.564 20.976 40.492C20.656 40.252 20.324 40.08 19.98 39.976C19.636 39.864 19.256 39.808 18.84 39.808C18.416 39.808 18.048 39.872 17.736 40C17.432 40.128 17.192 40.316 17.016 40.564C16.848 40.804 16.764 41.084 16.764 41.404C16.764 41.788 16.88 42.092 17.112 42.316C17.352 42.54 17.74 42.704 18.276 42.808L19.524 43.072C20.332 43.24 20.928 43.496 21.312 43.84C21.704 44.176 21.9 44.636 21.9 45.22C21.9 45.572 21.828 45.896 21.684 46.192C21.54 46.488 21.332 46.744 21.06 46.96C20.788 47.168 20.46 47.328 20.076 47.44C19.692 47.552 19.26 47.608 18.78 47.608ZM25.9228 47.608C25.3068 47.608 24.7748 47.488 24.3268 47.248C23.8868 47 23.5428 46.652 23.2948 46.204C23.0548 45.756 22.9348 45.22 22.9348 44.596C22.9348 43.988 23.0548 43.46 23.2948 43.012C23.5348 42.556 23.8628 42.2 24.2788 41.944C24.7028 41.688 25.1908 41.56 25.7428 41.56C26.1348 41.56 26.4868 41.628 26.7988 41.764C27.1108 41.892 27.3748 42.08 27.5908 42.328C27.8148 42.576 27.9828 42.876 28.0948 43.228C28.2148 43.58 28.2748 43.976 28.2748 44.416C28.2748 44.544 28.2388 44.64 28.1668 44.704C28.0948 44.76 27.9908 44.788 27.8548 44.788H23.6788V44.152H27.6268L27.4348 44.308C27.4348 43.876 27.3708 43.512 27.2428 43.216C27.1148 42.912 26.9268 42.68 26.6788 42.52C26.4388 42.36 26.1348 42.28 25.7668 42.28C25.3588 42.28 25.0108 42.376 24.7228 42.568C24.4428 42.752 24.2308 43.012 24.0868 43.348C23.9428 43.676 23.8708 44.06 23.8708 44.5V44.572C23.8708 45.308 24.0468 45.868 24.3988 46.252C24.7588 46.636 25.2668 46.828 25.9228 46.828C26.1948 46.828 26.4628 46.792 26.7268 46.72C26.9988 46.648 27.2628 46.528 27.5188 46.36C27.6308 46.288 27.7308 46.256 27.8188 46.264C27.9148 46.264 27.9908 46.292 28.0468 46.348C28.1028 46.396 28.1388 46.46 28.1548 46.54C28.1788 46.612 28.1708 46.692 28.1308 46.78C28.0988 46.868 28.0308 46.944 27.9268 47.008C27.6628 47.2 27.3508 47.348 26.9908 47.452C26.6308 47.556 26.2748 47.608 25.9228 47.608ZM31.4575 47.608C30.8815 47.608 30.4415 47.432 30.1375 47.08C29.8335 46.728 29.6815 46.224 29.6815 45.568V39.448C29.6815 39.288 29.7215 39.168 29.8015 39.088C29.8815 39 30.0015 38.956 30.1615 38.956C30.3135 38.956 30.4335 39 30.5215 39.088C30.6095 39.168 30.6535 39.288 30.6535 39.448V45.496C30.6535 45.928 30.7375 46.252 30.9055 46.468C31.0815 46.676 31.3375 46.78 31.6735 46.78C31.7455 46.78 31.8095 46.776 31.8655 46.768C31.9215 46.76 31.9775 46.756 32.0335 46.756C32.1215 46.748 32.1815 46.768 32.2135 46.816C32.2535 46.864 32.2735 46.96 32.2735 47.104C32.2735 47.248 32.2415 47.356 32.1775 47.428C32.1135 47.5 32.0095 47.548 31.8655 47.572C31.8015 47.58 31.7335 47.588 31.6615 47.596C31.5895 47.604 31.5215 47.608 31.4575 47.608ZM35.8017 47.608C35.1857 47.608 34.6537 47.488 34.2057 47.248C33.7657 47 33.4217 46.652 33.1737 46.204C32.9337 45.756 32.8137 45.22 32.8137 44.596C32.8137 43.988 32.9337 43.46 33.1737 43.012C33.4137 42.556 33.7417 42.2 34.1577 41.944C34.5817 41.688 35.0697 41.56 35.6217 41.56C36.0137 41.56 36.3657 41.628 36.6777 41.764C36.9897 41.892 37.2537 42.08 37.4697 42.328C37.6937 42.576 37.8617 42.876 37.9737 43.228C38.0937 43.58 38.1537 43.976 38.1537 44.416C38.1537 44.544 38.1177 44.64 38.0457 44.704C37.9737 44.76 37.8697 44.788 37.7337 44.788H33.5577V44.152H37.5057L37.3137 44.308C37.3137 43.876 37.2497 43.512 37.1217 43.216C36.9937 42.912 36.8057 42.68 36.5577 42.52C36.3177 42.36 36.0137 42.28 35.6457 42.28C35.2377 42.28 34.8897 42.376 34.6017 42.568C34.3217 42.752 34.1097 43.012 33.9657 43.348C33.8217 43.676 33.7497 44.06 33.7497 44.5V44.572C33.7497 45.308 33.9257 45.868 34.2777 46.252C34.6377 46.636 35.1457 46.828 35.8017 46.828C36.0737 46.828 36.3417 46.792 36.6057 46.72C36.8777 46.648 37.1417 46.528 37.3977 46.36C37.5097 46.288 37.6097 46.256 37.6977 46.264C37.7937 46.264 37.8697 46.292 37.9257 46.348C37.9817 46.396 38.0177 46.46 38.0337 46.54C38.0577 46.612 38.0497 46.692 38.0097 46.78C37.9777 46.868 37.9097 46.944 37.8057 47.008C37.5417 47.2 37.2297 47.348 36.8697 47.452C36.5097 47.556 36.1537 47.608 35.8017 47.608ZM42.0324 47.608C41.4484 47.608 40.9444 47.48 40.5204 47.224C40.0964 46.968 39.7684 46.612 39.5364 46.156C39.3124 45.692 39.2004 45.156 39.2004 44.548C39.2004 44.084 39.2644 43.668 39.3924 43.3C39.5204 42.932 39.7084 42.62 39.9564 42.364C40.2044 42.1 40.5004 41.9 40.8444 41.764C41.1964 41.628 41.5924 41.56 42.0324 41.56C42.3204 41.56 42.6204 41.604 42.9324 41.692C43.2444 41.78 43.5284 41.932 43.7844 42.148C43.8644 42.204 43.9164 42.272 43.9404 42.352C43.9644 42.432 43.9644 42.512 43.9404 42.592C43.9164 42.664 43.8764 42.728 43.8204 42.784C43.7644 42.832 43.6924 42.86 43.6044 42.868C43.5244 42.876 43.4404 42.848 43.3524 42.784C43.1444 42.624 42.9324 42.512 42.7164 42.448C42.5004 42.384 42.2924 42.352 42.0924 42.352C41.7804 42.352 41.5084 42.404 41.2764 42.508C41.0444 42.604 40.8484 42.744 40.6884 42.928C40.5284 43.112 40.4044 43.34 40.3164 43.612C40.2364 43.884 40.1964 44.2 40.1964 44.56C40.1964 45.256 40.3604 45.808 40.6884 46.216C41.0164 46.616 41.4844 46.816 42.0924 46.816C42.2924 46.816 42.4964 46.784 42.7044 46.72C42.9204 46.656 43.1364 46.544 43.3524 46.384C43.4404 46.32 43.5244 46.292 43.6044 46.3C43.6844 46.308 43.7524 46.34 43.8084 46.396C43.8644 46.444 43.9004 46.508 43.9164 46.588C43.9404 46.668 43.9404 46.748 43.9164 46.828C43.8924 46.9 43.8404 46.964 43.7604 47.02C43.5044 47.228 43.2244 47.38 42.9204 47.476C42.6164 47.564 42.3204 47.608 42.0324 47.608ZM47.4551 47.608C46.9991 47.608 46.6151 47.528 46.3031 47.368C45.9991 47.2 45.7711 46.96 45.6191 46.648C45.4671 46.328 45.3911 45.94 45.3911 45.484V42.424H44.5871C44.4511 42.424 44.3471 42.392 44.2751 42.328C44.2031 42.256 44.1671 42.16 44.1671 42.04C44.1671 41.92 44.2031 41.828 44.2751 41.764C44.3471 41.7 44.4511 41.668 44.5871 41.668H45.3911V40.288C45.3911 40.128 45.4351 40.008 45.5231 39.928C45.6111 39.84 45.7311 39.796 45.8831 39.796C46.0351 39.796 46.1511 39.84 46.2311 39.928C46.3191 40.008 46.3631 40.128 46.3631 40.288V41.668H47.8751C48.0111 41.668 48.1151 41.7 48.1871 41.764C48.2591 41.828 48.2951 41.92 48.2951 42.04C48.2951 42.16 48.2591 42.256 48.1871 42.328C48.1151 42.392 48.0111 42.424 47.8751 42.424H46.3631V45.388C46.3631 45.844 46.4591 46.192 46.6511 46.432C46.8431 46.664 47.1551 46.78 47.5871 46.78C47.7391 46.78 47.8671 46.764 47.9711 46.732C48.0831 46.7 48.1751 46.684 48.2471 46.684C48.3191 46.676 48.3791 46.7 48.4271 46.756C48.4751 46.812 48.4991 46.908 48.4991 47.044C48.4991 47.14 48.4791 47.228 48.4391 47.308C48.4071 47.388 48.3471 47.444 48.2591 47.476C48.1631 47.508 48.0351 47.536 47.8751 47.56C47.7231 47.592 47.5831 47.608 47.4551 47.608ZM55.2722 47.608C54.8962 47.608 54.5282 47.576 54.1682 47.512C53.8082 47.448 53.4722 47.356 53.1602 47.236C52.8562 47.116 52.5802 46.964 52.3322 46.78C52.2362 46.708 52.1682 46.628 52.1282 46.54C52.0962 46.444 52.0882 46.352 52.1042 46.264C52.1282 46.168 52.1682 46.088 52.2242 46.024C52.2882 45.96 52.3642 45.924 52.4522 45.916C52.5402 45.908 52.6362 45.936 52.7402 46C53.1002 46.256 53.4842 46.444 53.8922 46.564C54.3002 46.676 54.7602 46.732 55.2722 46.732C55.9922 46.732 56.5242 46.6 56.8682 46.336C57.2202 46.064 57.3962 45.708 57.3962 45.268C57.3962 44.908 57.2682 44.628 57.0122 44.428C56.7642 44.22 56.3442 44.056 55.7522 43.936L54.5042 43.684C53.7522 43.524 53.1882 43.264 52.8122 42.904C52.4442 42.536 52.2602 42.048 52.2602 41.44C52.2602 41.064 52.3362 40.724 52.4882 40.42C52.6402 40.108 52.8522 39.844 53.1242 39.628C53.3962 39.404 53.7202 39.232 54.0962 39.112C54.4722 38.992 54.8882 38.932 55.3442 38.932C55.8482 38.932 56.3162 39.004 56.7482 39.148C57.1882 39.284 57.5842 39.492 57.9362 39.772C58.0242 39.844 58.0842 39.928 58.1162 40.024C58.1482 40.112 58.1522 40.2 58.1282 40.288C58.1042 40.368 58.0602 40.436 57.9962 40.492C57.9402 40.548 57.8642 40.58 57.7682 40.588C57.6802 40.596 57.5802 40.564 57.4682 40.492C57.1482 40.252 56.8162 40.08 56.4722 39.976C56.1282 39.864 55.7482 39.808 55.3322 39.808C54.9082 39.808 54.5402 39.872 54.2282 40C53.9242 40.128 53.6842 40.316 53.5082 40.564C53.3402 40.804 53.2562 41.084 53.2562 41.404C53.2562 41.788 53.3722 42.092 53.6042 42.316C53.8442 42.54 54.2322 42.704 54.7682 42.808L56.0162 43.072C56.8242 43.24 57.4202 43.496 57.8042 43.84C58.1962 44.176 58.3922 44.636 58.3922 45.22C58.3922 45.572 58.3202 45.896 58.1762 46.192C58.0322 46.488 57.8242 46.744 57.5522 46.96C57.2802 47.168 56.9522 47.328 56.5682 47.44C56.1842 47.552 55.7522 47.608 55.2722 47.608ZM62.1036 47.608C61.6476 47.608 61.2636 47.528 60.9516 47.368C60.6476 47.2 60.4196 46.96 60.2676 46.648C60.1156 46.328 60.0396 45.94 60.0396 45.484V42.424H59.2356C59.0996 42.424 58.9956 42.392 58.9236 42.328C58.8516 42.256 58.8156 42.16 58.8156 42.04C58.8156 41.92 58.8516 41.828 58.9236 41.764C58.9956 41.7 59.0996 41.668 59.2356 41.668H60.0396V40.288C60.0396 40.128 60.0836 40.008 60.1716 39.928C60.2596 39.84 60.3796 39.796 60.5316 39.796C60.6836 39.796 60.7996 39.84 60.8796 39.928C60.9676 40.008 61.0116 40.128 61.0116 40.288V41.668H62.5236C62.6596 41.668 62.7636 41.7 62.8356 41.764C62.9076 41.828 62.9436 41.92 62.9436 42.04C62.9436 42.16 62.9076 42.256 62.8356 42.328C62.7636 42.392 62.6596 42.424 62.5236 42.424H61.0116V45.388C61.0116 45.844 61.1076 46.192 61.2996 46.432C61.4916 46.664 61.8036 46.78 62.2356 46.78C62.3876 46.78 62.5156 46.764 62.6196 46.732C62.7316 46.7 62.8236 46.684 62.8956 46.684C62.9676 46.676 63.0276 46.7 63.0756 46.756C63.1236 46.812 63.1476 46.908 63.1476 47.044C63.1476 47.14 63.1276 47.228 63.0876 47.308C63.0556 47.388 62.9956 47.444 62.9076 47.476C62.8116 47.508 62.6836 47.536 62.5236 47.56C62.3716 47.592 62.2316 47.608 62.1036 47.608ZM65.7949 47.608C65.3949 47.608 65.0349 47.532 64.7149 47.38C64.4029 47.22 64.1549 47.004 63.9709 46.732C63.7869 46.46 63.6949 46.156 63.6949 45.82C63.6949 45.388 63.8029 45.048 64.0189 44.8C64.2429 44.552 64.6069 44.376 65.1109 44.272C65.6229 44.168 66.3189 44.116 67.1989 44.116H67.7389V44.752H67.2109C66.5629 44.752 66.0509 44.784 65.6749 44.848C65.3069 44.904 65.0469 45.004 64.8949 45.148C64.7509 45.292 64.6789 45.496 64.6789 45.76C64.6789 46.088 64.7909 46.356 65.0149 46.564C65.2469 46.772 65.5589 46.876 65.9509 46.876C66.2709 46.876 66.5509 46.8 66.7909 46.648C67.0389 46.496 67.2309 46.288 67.3669 46.024C67.5109 45.76 67.5829 45.456 67.5829 45.112V43.744C67.5829 43.248 67.4829 42.892 67.2829 42.676C67.0829 42.452 66.7549 42.34 66.2989 42.34C66.0189 42.34 65.7389 42.376 65.4589 42.448C65.1789 42.52 64.8829 42.636 64.5709 42.796C64.4589 42.852 64.3629 42.872 64.2829 42.856C64.2029 42.832 64.1389 42.788 64.0909 42.724C64.0429 42.66 64.0149 42.588 64.0069 42.508C63.9989 42.42 64.0149 42.336 64.0549 42.256C64.1029 42.176 64.1749 42.112 64.2709 42.064C64.6229 41.888 64.9709 41.76 65.3149 41.68C65.6589 41.6 65.9869 41.56 66.2989 41.56C66.8029 41.56 67.2189 41.644 67.5469 41.812C67.8749 41.972 68.1189 42.22 68.2789 42.556C68.4389 42.884 68.5189 43.308 68.5189 43.828V47.08C68.5189 47.24 68.4789 47.364 68.3989 47.452C68.3269 47.54 68.2189 47.584 68.0749 47.584C67.9229 47.584 67.8069 47.54 67.7269 47.452C67.6469 47.364 67.6069 47.24 67.6069 47.08V46.144H67.7149C67.6509 46.448 67.5269 46.708 67.3429 46.924C67.1669 47.14 66.9469 47.308 66.6829 47.428C66.4189 47.548 66.1229 47.608 65.7949 47.608ZM72.6622 47.608C72.2062 47.608 71.8222 47.528 71.5102 47.368C71.2062 47.2 70.9782 46.96 70.8262 46.648C70.6742 46.328 70.5982 45.94 70.5982 45.484V42.424H69.7942C69.6582 42.424 69.5542 42.392 69.4822 42.328C69.4102 42.256 69.3742 42.16 69.3742 42.04C69.3742 41.92 69.4102 41.828 69.4822 41.764C69.5542 41.7 69.6582 41.668 69.7942 41.668H70.5982V40.288C70.5982 40.128 70.6422 40.008 70.7302 39.928C70.8182 39.84 70.9382 39.796 71.0902 39.796C71.2422 39.796 71.3582 39.84 71.4382 39.928C71.5262 40.008 71.5702 40.128 71.5702 40.288V41.668H73.0822C73.2182 41.668 73.3222 41.7 73.3942 41.764C73.4662 41.828 73.5022 41.92 73.5022 42.04C73.5022 42.16 73.4662 42.256 73.3942 42.328C73.3222 42.392 73.2182 42.424 73.0822 42.424H71.5702V45.388C71.5702 45.844 71.6662 46.192 71.8582 46.432C72.0502 46.664 72.3622 46.78 72.7942 46.78C72.9462 46.78 73.0742 46.764 73.1782 46.732C73.2902 46.7 73.3822 46.684 73.4542 46.684C73.5262 46.676 73.5862 46.7 73.6342 46.756C73.6822 46.812 73.7062 46.908 73.7062 47.044C73.7062 47.14 73.6862 47.228 73.6462 47.308C73.6142 47.388 73.5542 47.444 73.4662 47.476C73.3702 47.508 73.2422 47.536 73.0822 47.56C72.9302 47.592 72.7902 47.608 72.6622 47.608ZM76.5815 47.608C76.1095 47.608 75.7175 47.524 75.4055 47.356C75.1015 47.18 74.8695 46.92 74.7095 46.576C74.5575 46.232 74.4815 45.804 74.4815 45.292V42.076C74.4815 41.908 74.5215 41.784 74.6015 41.704C74.6895 41.624 74.8095 41.584 74.9615 41.584C75.1215 41.584 75.2415 41.624 75.3215 41.704C75.4095 41.784 75.4535 41.908 75.4535 42.076V45.28C75.4535 45.792 75.5575 46.176 75.7655 46.432C75.9815 46.68 76.3175 46.804 76.7735 46.804C77.2695 46.804 77.6735 46.636 77.9855 46.3C78.2975 45.964 78.4535 45.524 78.4535 44.98V42.076C78.4535 41.908 78.4935 41.784 78.5735 41.704C78.6615 41.624 78.7855 41.584 78.9455 41.584C79.0975 41.584 79.2135 41.624 79.2935 41.704C79.3815 41.784 79.4255 41.908 79.4255 42.076V47.08C79.4255 47.416 79.2695 47.584 78.9575 47.584C78.8055 47.584 78.6855 47.54 78.5975 47.452C78.5175 47.364 78.4775 47.24 78.4775 47.08V45.988L78.6335 46.156C78.4735 46.628 78.2095 46.988 77.8415 47.236C77.4815 47.484 77.0615 47.608 76.5815 47.608ZM83.212 47.608C82.852 47.608 82.488 47.564 82.12 47.476C81.76 47.388 81.424 47.236 81.112 47.02C81.032 46.964 80.976 46.9 80.944 46.828C80.912 46.748 80.9 46.672 80.908 46.6C80.924 46.52 80.956 46.452 81.004 46.396C81.06 46.34 81.124 46.308 81.196 46.3C81.276 46.284 81.364 46.3 81.46 46.348C81.772 46.54 82.072 46.676 82.36 46.756C82.656 46.828 82.948 46.864 83.236 46.864C83.692 46.864 84.036 46.78 84.268 46.612C84.5 46.444 84.616 46.216 84.616 45.928C84.616 45.704 84.54 45.528 84.388 45.4C84.236 45.264 83.996 45.16 83.668 45.088L82.576 44.848C82.072 44.744 81.696 44.564 81.448 44.308C81.208 44.052 81.088 43.72 81.088 43.312C81.088 42.952 81.18 42.644 81.364 42.388C81.556 42.124 81.824 41.92 82.168 41.776C82.512 41.632 82.912 41.56 83.368 41.56C83.72 41.56 84.052 41.608 84.364 41.704C84.684 41.792 84.972 41.936 85.228 42.136C85.308 42.192 85.36 42.26 85.384 42.34C85.416 42.412 85.42 42.488 85.396 42.568C85.38 42.64 85.344 42.704 85.288 42.76C85.232 42.808 85.164 42.836 85.084 42.844C85.004 42.852 84.92 42.828 84.832 42.772C84.592 42.612 84.348 42.496 84.1 42.424C83.852 42.344 83.608 42.304 83.368 42.304C82.92 42.304 82.58 42.392 82.348 42.568C82.116 42.744 82 42.976 82 43.264C82 43.488 82.072 43.672 82.216 43.816C82.36 43.96 82.584 44.064 82.888 44.128L83.98 44.356C84.5 44.468 84.888 44.648 85.144 44.896C85.408 45.136 85.54 45.464 85.54 45.88C85.54 46.408 85.328 46.828 84.904 47.14C84.48 47.452 83.916 47.608 83.212 47.608Z" fill="#929BAA"/>
</g>
<path d="M8.804 12.108C8.436 12.108 8.076 12.08 7.724 12.024C7.372 11.968 7.04 11.884 6.728 11.772C6.416 11.652 6.136 11.508 5.888 11.34C5.768 11.252 5.684 11.152 5.636 11.04C5.596 10.928 5.584 10.82 5.6 10.716C5.624 10.604 5.672 10.508 5.744 10.428C5.816 10.348 5.904 10.3 6.008 10.284C6.112 10.26 6.228 10.292 6.356 10.38C6.716 10.612 7.096 10.784 7.496 10.896C7.896 11 8.332 11.052 8.804 11.052C9.484 11.052 9.984 10.932 10.304 10.692C10.632 10.444 10.796 10.124 10.796 9.732C10.796 9.412 10.68 9.16 10.448 8.976C10.216 8.784 9.828 8.632 9.284 8.52L8 8.256C7.24 8.096 6.672 7.832 6.296 7.464C5.928 7.096 5.744 6.6 5.744 5.976C5.744 5.6 5.82 5.256 5.972 4.944C6.132 4.632 6.352 4.364 6.632 4.14C6.912 3.908 7.248 3.732 7.64 3.612C8.032 3.492 8.46 3.432 8.924 3.432C9.42 3.432 9.884 3.496 10.316 3.624C10.756 3.752 11.148 3.948 11.492 4.212C11.596 4.284 11.664 4.376 11.696 4.488C11.736 4.592 11.744 4.696 11.72 4.8C11.704 4.904 11.66 4.992 11.588 5.064C11.516 5.136 11.424 5.18 11.312 5.196C11.2 5.204 11.076 5.164 10.94 5.076C10.628 4.868 10.308 4.72 9.98 4.632C9.66 4.536 9.304 4.488 8.912 4.488C8.52 4.488 8.176 4.548 7.88 4.668C7.592 4.788 7.368 4.956 7.208 5.172C7.056 5.388 6.98 5.644 6.98 5.94C6.98 6.276 7.088 6.544 7.304 6.744C7.52 6.944 7.88 7.096 8.384 7.2L9.656 7.464C10.456 7.632 11.052 7.892 11.444 8.244C11.836 8.596 12.032 9.064 12.032 9.648C12.032 10.024 11.956 10.364 11.804 10.668C11.652 10.964 11.436 11.22 11.156 11.436C10.876 11.652 10.536 11.82 10.136 11.94C9.744 12.052 9.3 12.108 8.804 12.108ZM15.7777 12.108C15.2977 12.108 14.8937 12.024 14.5657 11.856C14.2377 11.688 13.9937 11.44 13.8337 11.112C13.6737 10.784 13.5937 10.384 13.5937 9.912V7.08H12.8737C12.7137 7.08 12.5897 7.04 12.5017 6.96C12.4137 6.872 12.3697 6.756 12.3697 6.612C12.3697 6.46 12.4137 6.344 12.5017 6.264C12.5897 6.184 12.7137 6.144 12.8737 6.144H13.5937V4.908C13.5937 4.708 13.6457 4.556 13.7497 4.452C13.8617 4.348 14.0137 4.296 14.2057 4.296C14.3977 4.296 14.5457 4.348 14.6497 4.452C14.7537 4.556 14.8057 4.708 14.8057 4.908V6.144H16.2097C16.3697 6.144 16.4937 6.184 16.5817 6.264C16.6697 6.344 16.7137 6.46 16.7137 6.612C16.7137 6.756 16.6697 6.872 16.5817 6.96C16.4937 7.04 16.3697 7.08 16.2097 7.08H14.8057V9.816C14.8057 10.24 14.8937 10.56 15.0697 10.776C15.2537 10.992 15.5497 11.1 15.9577 11.1C16.1017 11.1 16.2257 11.088 16.3297 11.064C16.4417 11.032 16.5337 11.012 16.6057 11.004C16.6937 11.004 16.7657 11.036 16.8217 11.1C16.8777 11.156 16.9057 11.268 16.9057 11.436C16.9057 11.556 16.8817 11.668 16.8337 11.772C16.7937 11.876 16.7177 11.944 16.6057 11.976C16.5097 12.008 16.3777 12.036 16.2097 12.06C16.0497 12.092 15.9057 12.108 15.7777 12.108ZM19.5365 12.108C19.1285 12.108 18.7605 12.028 18.4325 11.868C18.1125 11.708 17.8605 11.492 17.6765 11.22C17.4925 10.948 17.4005 10.64 17.4005 10.296C17.4005 9.864 17.5085 9.524 17.7245 9.276C17.9485 9.02 18.3125 8.84 18.8165 8.736C19.3285 8.624 20.0165 8.568 20.8805 8.568H21.4445V9.312H20.8925C20.3165 9.312 19.8605 9.34 19.5245 9.396C19.1885 9.452 18.9485 9.548 18.8045 9.684C18.6685 9.812 18.6005 9.992 18.6005 10.224C18.6005 10.528 18.7045 10.776 18.9125 10.968C19.1205 11.152 19.4085 11.244 19.7765 11.244C20.0725 11.244 20.3325 11.176 20.5565 11.04C20.7805 10.896 20.9565 10.704 21.0845 10.464C21.2205 10.224 21.2885 9.948 21.2885 9.636V8.256C21.2885 7.8 21.1925 7.472 21.0005 7.272C20.8085 7.072 20.4925 6.972 20.0525 6.972C19.7965 6.972 19.5285 7.004 19.2485 7.068C18.9765 7.132 18.6925 7.24 18.3965 7.392C18.2605 7.456 18.1445 7.476 18.0485 7.452C17.9525 7.428 17.8765 7.376 17.8205 7.296C17.7645 7.208 17.7325 7.116 17.7245 7.02C17.7245 6.916 17.7485 6.816 17.7965 6.72C17.8525 6.624 17.9445 6.552 18.0725 6.504C18.4245 6.336 18.7725 6.216 19.1165 6.144C19.4605 6.072 19.7845 6.036 20.0885 6.036C20.6245 6.036 21.0645 6.12 21.4085 6.288C21.7605 6.456 22.0205 6.712 22.1885 7.056C22.3565 7.4 22.4405 7.844 22.4405 8.388V11.472C22.4405 11.664 22.3925 11.816 22.2965 11.928C22.2005 12.032 22.0605 12.084 21.8765 12.084C21.7005 12.084 21.5605 12.032 21.4565 11.928C21.3525 11.816 21.3005 11.664 21.3005 11.472V10.692H21.4085C21.3445 10.988 21.2245 11.244 21.0485 11.46C20.8805 11.668 20.6685 11.828 20.4125 11.94C20.1565 12.052 19.8645 12.108 19.5365 12.108ZM26.6058 12.108C26.1258 12.108 25.7218 12.024 25.3938 11.856C25.0658 11.688 24.8218 11.44 24.6618 11.112C24.5018 10.784 24.4218 10.384 24.4218 9.912V7.08H23.7018C23.5418 7.08 23.4178 7.04 23.3298 6.96C23.2418 6.872 23.1978 6.756 23.1978 6.612C23.1978 6.46 23.2418 6.344 23.3298 6.264C23.4178 6.184 23.5418 6.144 23.7018 6.144H24.4218V4.908C24.4218 4.708 24.4738 4.556 24.5778 4.452C24.6898 4.348 24.8418 4.296 25.0338 4.296C25.2258 4.296 25.3738 4.348 25.4778 4.452C25.5818 4.556 25.6338 4.708 25.6338 4.908V6.144H27.0378C27.1978 6.144 27.3218 6.184 27.4098 6.264C27.4978 6.344 27.5418 6.46 27.5418 6.612C27.5418 6.756 27.4978 6.872 27.4098 6.96C27.3218 7.04 27.1978 7.08 27.0378 7.08H25.6338V9.816C25.6338 10.24 25.7218 10.56 25.8978 10.776C26.0818 10.992 26.3778 11.1 26.7858 11.1C26.9298 11.1 27.0538 11.088 27.1578 11.064C27.2698 11.032 27.3618 11.012 27.4338 11.004C27.5218 11.004 27.5938 11.036 27.6498 11.1C27.7058 11.156 27.7338 11.268 27.7338 11.436C27.7338 11.556 27.7098 11.668 27.6618 11.772C27.6218 11.876 27.5458 11.944 27.4338 11.976C27.3378 12.008 27.2058 12.036 27.0378 12.06C26.8778 12.092 26.7338 12.108 26.6058 12.108ZM30.5806 12.108C30.1086 12.108 29.7126 12.02 29.3926 11.844C29.0806 11.668 28.8446 11.408 28.6846 11.064C28.5326 10.712 28.4566 10.272 28.4566 9.744V6.672C28.4566 6.464 28.5086 6.312 28.6126 6.216C28.7166 6.112 28.8646 6.06 29.0566 6.06C29.2486 6.06 29.3966 6.112 29.5006 6.216C29.6126 6.312 29.6686 6.464 29.6686 6.672V9.756C29.6686 10.228 29.7646 10.576 29.9566 10.8C30.1486 11.024 30.4526 11.136 30.8686 11.136C31.3246 11.136 31.6926 10.984 31.9726 10.68C32.2606 10.368 32.4046 9.96 32.4046 9.456V6.672C32.4046 6.464 32.4566 6.312 32.5606 6.216C32.6646 6.112 32.8166 6.06 33.0166 6.06C33.2086 6.06 33.3566 6.112 33.4606 6.216C33.5646 6.312 33.6166 6.464 33.6166 6.672V11.472C33.6166 11.88 33.4206 12.084 33.0286 12.084C32.8446 12.084 32.7006 12.032 32.5966 11.928C32.4926 11.816 32.4406 11.664 32.4406 11.472V10.452L32.5966 10.716C32.4366 11.164 32.1806 11.508 31.8286 11.748C31.4766 11.988 31.0606 12.108 30.5806 12.108ZM37.3767 12.108C37.0247 12.108 36.6607 12.068 36.2847 11.988C35.9167 11.908 35.5767 11.772 35.2647 11.58C35.1607 11.508 35.0887 11.428 35.0487 11.34C35.0087 11.252 34.9927 11.164 35.0007 11.076C35.0167 10.98 35.0527 10.9 35.1087 10.836C35.1727 10.764 35.2487 10.72 35.3367 10.704C35.4327 10.688 35.5327 10.708 35.6367 10.764C35.9487 10.94 36.2487 11.064 36.5367 11.136C36.8247 11.2 37.1087 11.232 37.3887 11.232C37.8127 11.232 38.1327 11.156 38.3487 11.004C38.5647 10.852 38.6727 10.648 38.6727 10.392C38.6727 10.184 38.6007 10.024 38.4567 9.912C38.3127 9.792 38.0967 9.7 37.8087 9.636L36.6687 9.408C36.1727 9.304 35.7967 9.12 35.5407 8.856C35.2847 8.592 35.1567 8.256 35.1567 7.848C35.1567 7.48 35.2567 7.16 35.4567 6.888C35.6567 6.616 35.9367 6.408 36.2967 6.264C36.6567 6.112 37.0727 6.036 37.5447 6.036C37.8967 6.036 38.2287 6.08 38.5407 6.168C38.8527 6.256 39.1407 6.388 39.4047 6.564C39.5087 6.62 39.5767 6.696 39.6087 6.792C39.6407 6.88 39.6447 6.968 39.6207 7.056C39.6047 7.144 39.5647 7.224 39.5007 7.296C39.4367 7.36 39.3567 7.4 39.2607 7.416C39.1727 7.424 39.0727 7.4 38.9607 7.344C38.7207 7.192 38.4807 7.084 38.2407 7.02C38.0087 6.956 37.7767 6.924 37.5447 6.924C37.1207 6.924 36.8007 7.004 36.5847 7.164C36.3767 7.316 36.2727 7.524 36.2727 7.788C36.2727 7.988 36.3367 8.152 36.4647 8.28C36.5927 8.408 36.7927 8.5 37.0647 8.556L38.2047 8.784C38.7247 8.888 39.1167 9.064 39.3807 9.312C39.6527 9.56 39.7887 9.896 39.7887 10.32C39.7887 10.872 39.5687 11.308 39.1287 11.628C38.6887 11.948 38.1047 12.108 37.3767 12.108Z" fill="#64728C"/>
<rect x="5" y="72" width="102" height="28" rx="14" fill="#64728C" fill-opacity="0.1"/>
<path d="M16.608 90.084C16.408 90.084 16.252 90.028 16.14 89.916C16.036 89.804 15.984 89.648 15.984 89.448V82.092C15.984 81.884 16.036 81.728 16.14 81.624C16.252 81.512 16.408 81.456 16.608 81.456C16.808 81.456 16.96 81.512 17.064 81.624C17.176 81.728 17.232 81.884 17.232 82.092V89.448C17.232 89.648 17.18 89.804 17.076 89.916C16.972 90.028 16.816 90.084 16.608 90.084ZM19.6629 90.084C19.4709 90.084 19.3229 90.032 19.2189 89.928C19.1149 89.816 19.0629 89.664 19.0629 89.472V84.672C19.0629 84.472 19.1149 84.32 19.2189 84.216C19.3229 84.112 19.4669 84.06 19.6509 84.06C19.8429 84.06 19.9869 84.112 20.0829 84.216C20.1869 84.32 20.2389 84.472 20.2389 84.672V85.608L20.1069 85.392C20.2829 84.944 20.5589 84.608 20.9349 84.384C21.3109 84.152 21.7429 84.036 22.2309 84.036C22.6949 84.036 23.0789 84.124 23.3829 84.3C23.6949 84.468 23.9269 84.728 24.0789 85.08C24.2309 85.424 24.3069 85.86 24.3069 86.388V89.472C24.3069 89.664 24.2549 89.816 24.1509 89.928C24.0469 90.032 23.8989 90.084 23.7069 90.084C23.5069 90.084 23.3549 90.032 23.2509 89.928C23.1469 89.816 23.0949 89.664 23.0949 89.472V86.46C23.0949 85.956 22.9949 85.588 22.7949 85.356C22.6029 85.124 22.2989 85.008 21.8829 85.008C21.3949 85.008 21.0029 85.16 20.7069 85.464C20.4189 85.768 20.2749 86.176 20.2749 86.688V89.472C20.2749 89.88 20.0709 90.084 19.6629 90.084ZM29.8971 90.084C29.6971 90.084 29.5411 90.028 29.4291 89.916C29.3251 89.804 29.2731 89.648 29.2731 89.448V82.176C29.2731 81.968 29.3291 81.812 29.4411 81.708C29.5531 81.596 29.7091 81.54 29.9091 81.54H32.7771C33.6891 81.54 34.3931 81.768 34.8891 82.224C35.3851 82.672 35.6331 83.304 35.6331 84.12C35.6331 84.944 35.3851 85.584 34.8891 86.04C34.3931 86.488 33.6891 86.712 32.7771 86.712H30.5211V89.448C30.5211 89.648 30.4691 89.804 30.3651 89.916C30.2611 90.028 30.1051 90.084 29.8971 90.084ZM30.5211 85.716H32.5971C33.1971 85.716 33.6491 85.584 33.9531 85.32C34.2651 85.048 34.4211 84.648 34.4211 84.12C34.4211 83.6 34.2651 83.208 33.9531 82.944C33.6491 82.672 33.1971 82.536 32.5971 82.536H30.5211V85.716ZM37.3351 90.084C37.1351 90.084 36.9831 90.032 36.8791 89.928C36.7751 89.816 36.7231 89.664 36.7231 89.472V84.672C36.7231 84.472 36.7751 84.32 36.8791 84.216C36.9831 84.112 37.1271 84.06 37.3111 84.06C37.5031 84.06 37.6471 84.112 37.7431 84.216C37.8471 84.32 37.8991 84.472 37.8991 84.672V85.548H37.7791C37.9071 85.068 38.1431 84.704 38.4871 84.456C38.8311 84.208 39.2711 84.064 39.8071 84.024C39.9511 84.016 40.0631 84.052 40.1431 84.132C40.2311 84.212 40.2791 84.336 40.2871 84.504C40.3031 84.672 40.2671 84.808 40.1791 84.912C40.0911 85.008 39.9551 85.064 39.7711 85.08L39.5431 85.104C39.0231 85.152 38.6271 85.316 38.3551 85.596C38.0831 85.876 37.9471 86.26 37.9471 86.748V89.472C37.9471 89.664 37.8951 89.816 37.7911 89.928C37.6951 90.032 37.5431 90.084 37.3351 90.084ZM43.6616 90.108C43.0696 90.108 42.5576 89.984 42.1256 89.736C41.7016 89.488 41.3696 89.136 41.1296 88.68C40.8896 88.224 40.7696 87.688 40.7696 87.072C40.7696 86.6 40.8376 86.18 40.9736 85.812C41.1096 85.444 41.3016 85.128 41.5496 84.864C41.8056 84.592 42.1096 84.388 42.4616 84.252C42.8216 84.108 43.2216 84.036 43.6616 84.036C44.2456 84.036 44.7496 84.16 45.1736 84.408C45.6056 84.656 45.9416 85.008 46.1816 85.464C46.4216 85.912 46.5416 86.448 46.5416 87.072C46.5416 87.536 46.4736 87.956 46.3376 88.332C46.2016 88.708 46.0056 89.028 45.7496 89.292C45.5016 89.556 45.1976 89.76 44.8376 89.904C44.4856 90.04 44.0936 90.108 43.6616 90.108ZM43.6616 89.172C43.9896 89.172 44.2776 89.092 44.5256 88.932C44.7736 88.772 44.9656 88.536 45.1016 88.224C45.2456 87.912 45.3176 87.528 45.3176 87.072C45.3176 86.384 45.1656 85.864 44.8616 85.512C44.5576 85.16 44.1576 84.984 43.6616 84.984C43.3256 84.984 43.0336 85.064 42.7856 85.224C42.5376 85.376 42.3416 85.608 42.1976 85.92C42.0616 86.232 41.9936 86.616 41.9936 87.072C41.9936 87.752 42.1456 88.272 42.4496 88.632C42.7536 88.992 43.1576 89.172 43.6616 89.172ZM50.5548 92.268C50.1228 92.268 49.7028 92.224 49.2948 92.136C48.8948 92.048 48.5308 91.904 48.2028 91.704C48.0828 91.64 48.0028 91.56 47.9628 91.464C47.9228 91.376 47.9108 91.284 47.9268 91.188C47.9508 91.092 47.9948 91.008 48.0588 90.936C48.1228 90.864 48.1988 90.816 48.2868 90.792C48.3828 90.768 48.4828 90.784 48.5868 90.84C48.9388 91.032 49.2708 91.16 49.5828 91.224C49.9028 91.296 50.1988 91.332 50.4708 91.332C51.0308 91.332 51.4508 91.188 51.7308 90.9C52.0108 90.62 52.1508 90.204 52.1508 89.652V88.428H52.2588C52.1388 88.868 51.8868 89.216 51.5028 89.472C51.1188 89.728 50.6748 89.856 50.1708 89.856C49.6428 89.856 49.1828 89.736 48.7908 89.496C48.3988 89.248 48.0948 88.908 47.8788 88.476C47.6628 88.036 47.5548 87.524 47.5548 86.94C47.5548 86.5 47.6148 86.104 47.7348 85.752C47.8628 85.4 48.0388 85.096 48.2628 84.84C48.4948 84.584 48.7708 84.388 49.0908 84.252C49.4188 84.108 49.7788 84.036 50.1708 84.036C50.6828 84.036 51.1268 84.164 51.5028 84.42C51.8868 84.676 52.1348 85.024 52.2468 85.464L52.1268 85.668V84.672C52.1268 84.472 52.1788 84.32 52.2828 84.216C52.3948 84.112 52.5428 84.06 52.7268 84.06C52.9188 84.06 53.0668 84.112 53.1708 84.216C53.2748 84.32 53.3268 84.472 53.3268 84.672V89.508C53.3268 90.42 53.0908 91.108 52.6188 91.572C52.1468 92.036 51.4588 92.268 50.5548 92.268ZM50.4588 88.908C50.8108 88.908 51.1108 88.828 51.3588 88.668C51.6068 88.508 51.7988 88.28 51.9348 87.984C52.0708 87.688 52.1388 87.34 52.1388 86.94C52.1388 86.34 51.9868 85.864 51.6828 85.512C51.3868 85.16 50.9788 84.984 50.4588 84.984C50.1148 84.984 49.8188 85.064 49.5708 85.224C49.3228 85.384 49.1268 85.612 48.9828 85.908C48.8468 86.196 48.7788 86.54 48.7788 86.94C48.7788 87.548 48.9308 88.028 49.2348 88.38C49.5388 88.732 49.9468 88.908 50.4588 88.908ZM55.6398 90.084C55.4398 90.084 55.2878 90.032 55.1838 89.928C55.0798 89.816 55.0278 89.664 55.0278 89.472V84.672C55.0278 84.472 55.0798 84.32 55.1838 84.216C55.2878 84.112 55.4318 84.06 55.6158 84.06C55.8078 84.06 55.9518 84.112 56.0478 84.216C56.1518 84.32 56.2038 84.472 56.2038 84.672V85.548H56.0838C56.2118 85.068 56.4478 84.704 56.7918 84.456C57.1358 84.208 57.5758 84.064 58.1118 84.024C58.2558 84.016 58.3678 84.052 58.4478 84.132C58.5358 84.212 58.5838 84.336 58.5918 84.504C58.6078 84.672 58.5718 84.808 58.4838 84.912C58.3958 85.008 58.2598 85.064 58.0758 85.08L57.8478 85.104C57.3278 85.152 56.9318 85.316 56.6598 85.596C56.3878 85.876 56.2518 86.26 56.2518 86.748V89.472C56.2518 89.664 56.1998 89.816 56.0958 89.928C55.9998 90.032 55.8478 90.084 55.6398 90.084ZM62.1703 90.108C61.5303 90.108 60.9783 89.988 60.5143 89.748C60.0583 89.5 59.7023 89.152 59.4463 88.704C59.1983 88.248 59.0743 87.708 59.0743 87.084C59.0743 86.476 59.1983 85.944 59.4463 85.488C59.6943 85.032 60.0343 84.676 60.4663 84.42C60.8983 84.164 61.3903 84.036 61.9423 84.036C62.3503 84.036 62.7143 84.104 63.0343 84.24C63.3543 84.368 63.6263 84.56 63.8503 84.816C64.0823 85.064 64.2543 85.368 64.3663 85.728C64.4863 86.088 64.5463 86.492 64.5463 86.94C64.5463 87.076 64.5063 87.18 64.4263 87.252C64.3463 87.316 64.2263 87.348 64.0663 87.348H60.0343V86.604H63.7303L63.5263 86.772C63.5263 86.372 63.4663 86.032 63.3463 85.752C63.2343 85.472 63.0623 85.26 62.8303 85.116C62.6063 84.964 62.3263 84.888 61.9903 84.888C61.6143 84.888 61.2943 84.976 61.0303 85.152C60.7743 85.328 60.5783 85.572 60.4423 85.884C60.3063 86.196 60.2383 86.56 60.2383 86.976V87.048C60.2383 87.752 60.4023 88.284 60.7303 88.644C61.0663 88.996 61.5503 89.172 62.1823 89.172C62.4223 89.172 62.6743 89.14 62.9383 89.076C63.2103 89.012 63.4663 88.904 63.7063 88.752C63.8423 88.672 63.9623 88.636 64.0663 88.644C64.1783 88.652 64.2663 88.688 64.3303 88.752C64.4023 88.816 64.4463 88.896 64.4623 88.992C64.4783 89.088 64.4623 89.188 64.4143 89.292C64.3663 89.388 64.2823 89.476 64.1623 89.556C63.8903 89.74 63.5743 89.88 63.2143 89.976C62.8543 90.064 62.5063 90.108 62.1703 90.108ZM67.9196 90.108C67.5676 90.108 67.2036 90.068 66.8276 89.988C66.4596 89.908 66.1196 89.772 65.8076 89.58C65.7036 89.508 65.6316 89.428 65.5916 89.34C65.5516 89.252 65.5356 89.164 65.5436 89.076C65.5596 88.98 65.5956 88.9 65.6516 88.836C65.7156 88.764 65.7916 88.72 65.8796 88.704C65.9756 88.688 66.0756 88.708 66.1796 88.764C66.4916 88.94 66.7916 89.064 67.0796 89.136C67.3676 89.2 67.6516 89.232 67.9316 89.232C68.3556 89.232 68.6756 89.156 68.8916 89.004C69.1076 88.852 69.2156 88.648 69.2156 88.392C69.2156 88.184 69.1436 88.024 68.9996 87.912C68.8556 87.792 68.6396 87.7 68.3516 87.636L67.2116 87.408C66.7156 87.304 66.3396 87.12 66.0836 86.856C65.8276 86.592 65.6996 86.256 65.6996 85.848C65.6996 85.48 65.7996 85.16 65.9996 84.888C66.1996 84.616 66.4796 84.408 66.8396 84.264C67.1996 84.112 67.6156 84.036 68.0876 84.036C68.4396 84.036 68.7716 84.08 69.0836 84.168C69.3956 84.256 69.6836 84.388 69.9476 84.564C70.0516 84.62 70.1196 84.696 70.1516 84.792C70.1836 84.88 70.1876 84.968 70.1636 85.056C70.1476 85.144 70.1076 85.224 70.0436 85.296C69.9796 85.36 69.8996 85.4 69.8036 85.416C69.7156 85.424 69.6156 85.4 69.5036 85.344C69.2636 85.192 69.0236 85.084 68.7836 85.02C68.5516 84.956 68.3196 84.924 68.0876 84.924C67.6636 84.924 67.3436 85.004 67.1276 85.164C66.9196 85.316 66.8156 85.524 66.8156 85.788C66.8156 85.988 66.8796 86.152 67.0076 86.28C67.1356 86.408 67.3356 86.5 67.6076 86.556L68.7476 86.784C69.2676 86.888 69.6596 87.064 69.9236 87.312C70.1956 87.56 70.3316 87.896 70.3316 88.32C70.3316 88.872 70.1116 89.308 69.6716 89.628C69.2316 89.948 68.6476 90.108 67.9196 90.108ZM73.7321 90.108C73.3801 90.108 73.0161 90.068 72.6401 89.988C72.2721 89.908 71.9321 89.772 71.6201 89.58C71.5161 89.508 71.4441 89.428 71.4041 89.34C71.3641 89.252 71.3481 89.164 71.3561 89.076C71.3721 88.98 71.4081 88.9 71.4641 88.836C71.5281 88.764 71.6041 88.72 71.6921 88.704C71.7881 88.688 71.8881 88.708 71.9921 88.764C72.3041 88.94 72.6041 89.064 72.8921 89.136C73.1801 89.2 73.4641 89.232 73.7441 89.232C74.1681 89.232 74.4881 89.156 74.7041 89.004C74.9201 88.852 75.0281 88.648 75.0281 88.392C75.0281 88.184 74.9561 88.024 74.8121 87.912C74.6681 87.792 74.4521 87.7 74.1641 87.636L73.0241 87.408C72.5281 87.304 72.1521 87.12 71.8961 86.856C71.6401 86.592 71.5121 86.256 71.5121 85.848C71.5121 85.48 71.6121 85.16 71.8121 84.888C72.0121 84.616 72.2921 84.408 72.6521 84.264C73.0121 84.112 73.4281 84.036 73.9001 84.036C74.2521 84.036 74.5841 84.08 74.8961 84.168C75.2081 84.256 75.4961 84.388 75.7601 84.564C75.8641 84.62 75.9321 84.696 75.9641 84.792C75.9961 84.88 76.0001 84.968 75.9761 85.056C75.9601 85.144 75.9201 85.224 75.8561 85.296C75.7921 85.36 75.7121 85.4 75.6161 85.416C75.5281 85.424 75.4281 85.4 75.3161 85.344C75.0761 85.192 74.8361 85.084 74.5961 85.02C74.3641 84.956 74.1321 84.924 73.9001 84.924C73.4761 84.924 73.1561 85.004 72.9401 85.164C72.7321 85.316 72.6281 85.524 72.6281 85.788C72.6281 85.988 72.6921 86.152 72.8201 86.28C72.9481 86.408 73.1481 86.5 73.4201 86.556L74.5601 86.784C75.0801 86.888 75.4721 87.064 75.7361 87.312C76.0081 87.56 76.1441 87.896 76.1441 88.32C76.1441 88.872 75.9241 89.308 75.4841 89.628C75.0441 89.948 74.4601 90.108 73.7321 90.108Z" fill="#64728C"/>
<rect x="82" y="76" width="20" height="20" rx="10" fill="white"/>
<path d="M94.8601 81.3671C95.3497 80.8776 96.1433 80.8776 96.6329 81.3671C97.1224 81.8567 97.1224 82.6503 96.6329 83.1399L89.1399 90.6329C88.6503 91.1224 87.8567 91.1224 87.3671 90.6329C86.8776 90.1433 86.8776 89.3497 87.3671 88.8601L94.8601 81.3671Z" fill="#64728C"/>
<path d="M87.3671 83.1399C86.8776 82.6503 86.8776 81.8567 87.3671 81.3671C87.8567 80.8776 88.6503 80.8776 89.1399 81.3671L96.6329 88.8601C97.1224 89.3497 97.1224 90.1433 96.6329 90.6329C96.1433 91.1224 95.3497 91.1224 94.8601 90.6329L87.3671 83.1399Z" fill="#64728C"/>
<rect x="113" y="72" width="100" height="28" rx="14" fill="#EB0910" fill-opacity="0.12"/>
<path d="M127.776 90.108C126.92 90.108 126.188 89.932 125.58 89.58C124.972 89.228 124.504 88.728 124.176 88.08C123.856 87.424 123.696 86.652 123.696 85.764C123.696 85.1 123.788 84.504 123.972 83.976C124.156 83.44 124.42 82.984 124.764 82.608C125.116 82.224 125.544 81.932 126.048 81.732C126.56 81.532 127.136 81.432 127.776 81.432C128.248 81.432 128.7 81.496 129.132 81.624C129.572 81.752 129.952 81.936 130.272 82.176C130.408 82.264 130.496 82.372 130.536 82.5C130.584 82.62 130.592 82.736 130.56 82.848C130.536 82.96 130.484 83.056 130.404 83.136C130.324 83.208 130.22 83.248 130.092 83.256C129.972 83.264 129.84 83.22 129.696 83.124C129.432 82.924 129.14 82.776 128.82 82.68C128.5 82.584 128.164 82.536 127.812 82.536C127.204 82.536 126.692 82.664 126.276 82.92C125.86 83.168 125.544 83.532 125.328 84.012C125.112 84.492 125.004 85.076 125.004 85.764C125.004 86.452 125.112 87.04 125.328 87.528C125.544 88.008 125.86 88.376 126.276 88.632C126.692 88.88 127.204 89.004 127.812 89.004C128.164 89.004 128.5 88.956 128.82 88.86C129.148 88.756 129.456 88.604 129.744 88.404C129.888 88.316 130.016 88.276 130.128 88.284C130.248 88.292 130.348 88.332 130.428 88.404C130.508 88.476 130.56 88.568 130.584 88.68C130.616 88.784 130.612 88.896 130.572 89.016C130.54 89.128 130.464 89.224 130.344 89.304C130.016 89.568 129.628 89.768 129.18 89.904C128.732 90.04 128.264 90.108 127.776 90.108ZM134.084 90.108C133.492 90.108 132.98 89.984 132.548 89.736C132.124 89.488 131.792 89.136 131.552 88.68C131.312 88.224 131.192 87.688 131.192 87.072C131.192 86.6 131.26 86.18 131.396 85.812C131.532 85.444 131.724 85.128 131.972 84.864C132.228 84.592 132.532 84.388 132.884 84.252C133.244 84.108 133.644 84.036 134.084 84.036C134.668 84.036 135.172 84.16 135.596 84.408C136.028 84.656 136.364 85.008 136.604 85.464C136.844 85.912 136.964 86.448 136.964 87.072C136.964 87.536 136.896 87.956 136.76 88.332C136.624 88.708 136.428 89.028 136.172 89.292C135.924 89.556 135.62 89.76 135.26 89.904C134.908 90.04 134.516 90.108 134.084 90.108ZM134.084 89.172C134.412 89.172 134.7 89.092 134.948 88.932C135.196 88.772 135.388 88.536 135.524 88.224C135.668 87.912 135.74 87.528 135.74 87.072C135.74 86.384 135.588 85.864 135.284 85.512C134.98 85.16 134.58 84.984 134.084 84.984C133.748 84.984 133.456 85.064 133.208 85.224C132.96 85.376 132.764 85.608 132.62 85.92C132.484 86.232 132.416 86.616 132.416 87.072C132.416 87.752 132.568 88.272 132.872 88.632C133.176 88.992 133.58 89.172 134.084 89.172ZM138.949 90.084C138.757 90.084 138.609 90.032 138.505 89.928C138.401 89.816 138.349 89.664 138.349 89.472V84.672C138.349 84.472 138.401 84.32 138.505 84.216C138.609 84.112 138.753 84.06 138.937 84.06C139.129 84.06 139.273 84.112 139.369 84.216C139.473 84.32 139.525 84.472 139.525 84.672V85.656L139.393 85.392C139.553 84.968 139.801 84.636 140.137 84.396C140.473 84.156 140.877 84.036 141.349 84.036C141.837 84.036 142.233 84.152 142.537 84.384C142.841 84.616 143.049 84.972 143.161 85.452H142.993C143.145 85.012 143.405 84.668 143.773 84.42C144.141 84.164 144.569 84.036 145.057 84.036C145.505 84.036 145.873 84.124 146.161 84.3C146.449 84.468 146.665 84.728 146.809 85.08C146.953 85.424 147.025 85.86 147.025 86.388V89.472C147.025 89.664 146.969 89.816 146.857 89.928C146.753 90.032 146.605 90.084 146.413 90.084C146.221 90.084 146.073 90.032 145.969 89.928C145.865 89.816 145.813 89.664 145.813 89.472V86.448C145.813 85.952 145.725 85.588 145.549 85.356C145.381 85.124 145.101 85.008 144.709 85.008C144.269 85.008 143.921 85.16 143.665 85.464C143.409 85.768 143.281 86.188 143.281 86.724V89.472C143.281 89.664 143.229 89.816 143.125 89.928C143.021 90.032 142.873 90.084 142.681 90.084C142.489 90.084 142.337 90.032 142.225 89.928C142.121 89.816 142.069 89.664 142.069 89.472V86.448C142.069 85.952 141.985 85.588 141.817 85.356C141.649 85.124 141.369 85.008 140.977 85.008C140.537 85.008 140.189 85.16 139.933 85.464C139.685 85.768 139.561 86.188 139.561 86.724V89.472C139.561 89.88 139.357 90.084 138.949 90.084ZM149.319 92.244C149.127 92.244 148.979 92.192 148.875 92.088C148.771 91.984 148.719 91.832 148.719 91.632V84.672C148.719 84.472 148.771 84.32 148.875 84.216C148.979 84.112 149.123 84.06 149.307 84.06C149.499 84.06 149.647 84.112 149.751 84.216C149.855 84.32 149.907 84.472 149.907 84.672V85.716L149.775 85.464C149.903 85.032 150.155 84.688 150.531 84.432C150.907 84.168 151.351 84.036 151.863 84.036C152.383 84.036 152.835 84.16 153.219 84.408C153.611 84.656 153.911 85.004 154.119 85.452C154.335 85.9 154.443 86.44 154.443 87.072C154.443 87.688 154.335 88.228 154.119 88.692C153.911 89.148 153.615 89.5 153.231 89.748C152.847 89.988 152.391 90.108 151.863 90.108C151.359 90.108 150.919 89.98 150.543 89.724C150.167 89.468 149.915 89.128 149.787 88.704H149.931V91.632C149.931 91.832 149.875 91.984 149.763 92.088C149.659 92.192 149.511 92.244 149.319 92.244ZM151.563 89.172C151.899 89.172 152.191 89.092 152.439 88.932C152.687 88.772 152.879 88.536 153.015 88.224C153.151 87.912 153.219 87.528 153.219 87.072C153.219 86.384 153.067 85.864 152.763 85.512C152.467 85.16 152.067 84.984 151.563 84.984C151.235 84.984 150.943 85.064 150.687 85.224C150.439 85.376 150.247 85.608 150.111 85.92C149.975 86.232 149.907 86.616 149.907 87.072C149.907 87.752 150.059 88.272 150.363 88.632C150.667 88.992 151.067 89.172 151.563 89.172ZM157.693 90.108C157.069 90.108 156.597 89.928 156.277 89.568C155.965 89.2 155.809 88.672 155.809 87.984V82.068C155.809 81.868 155.861 81.716 155.965 81.612C156.069 81.508 156.217 81.456 156.409 81.456C156.601 81.456 156.749 81.508 156.853 81.612C156.965 81.716 157.021 81.868 157.021 82.068V87.912C157.021 88.312 157.101 88.612 157.261 88.812C157.429 89.004 157.669 89.1 157.981 89.1C158.053 89.1 158.117 89.1 158.173 89.1C158.229 89.092 158.285 89.084 158.341 89.076C158.437 89.068 158.505 89.096 158.545 89.16C158.585 89.216 158.605 89.336 158.605 89.52C158.605 89.688 158.569 89.82 158.497 89.916C158.425 90.004 158.309 90.06 158.149 90.084C158.077 90.092 158.001 90.096 157.921 90.096C157.841 90.104 157.765 90.108 157.693 90.108ZM162.166 90.108C161.526 90.108 160.974 89.988 160.51 89.748C160.054 89.5 159.698 89.152 159.442 88.704C159.194 88.248 159.07 87.708 159.07 87.084C159.07 86.476 159.194 85.944 159.442 85.488C159.69 85.032 160.03 84.676 160.462 84.42C160.894 84.164 161.386 84.036 161.938 84.036C162.346 84.036 162.71 84.104 163.03 84.24C163.35 84.368 163.622 84.56 163.846 84.816C164.078 85.064 164.25 85.368 164.362 85.728C164.482 86.088 164.542 86.492 164.542 86.94C164.542 87.076 164.502 87.18 164.422 87.252C164.342 87.316 164.222 87.348 164.062 87.348H160.03V86.604H163.726L163.522 86.772C163.522 86.372 163.462 86.032 163.342 85.752C163.23 85.472 163.058 85.26 162.826 85.116C162.602 84.964 162.322 84.888 161.986 84.888C161.61 84.888 161.29 84.976 161.026 85.152C160.77 85.328 160.574 85.572 160.438 85.884C160.302 86.196 160.234 86.56 160.234 86.976V87.048C160.234 87.752 160.398 88.284 160.726 88.644C161.062 88.996 161.546 89.172 162.178 89.172C162.418 89.172 162.67 89.14 162.934 89.076C163.206 89.012 163.462 88.904 163.702 88.752C163.838 88.672 163.958 88.636 164.062 88.644C164.174 88.652 164.262 88.688 164.326 88.752C164.398 88.816 164.442 88.896 164.458 88.992C164.474 89.088 164.458 89.188 164.41 89.292C164.362 89.388 164.278 89.476 164.158 89.556C163.886 89.74 163.57 89.88 163.21 89.976C162.85 90.064 162.502 90.108 162.166 90.108ZM168.348 90.108C167.868 90.108 167.464 90.024 167.136 89.856C166.808 89.688 166.564 89.44 166.404 89.112C166.244 88.784 166.164 88.384 166.164 87.912V85.08H165.444C165.284 85.08 165.16 85.04 165.072 84.96C164.984 84.872 164.94 84.756 164.94 84.612C164.94 84.46 164.984 84.344 165.072 84.264C165.16 84.184 165.284 84.144 165.444 84.144H166.164V82.908C166.164 82.708 166.216 82.556 166.32 82.452C166.432 82.348 166.584 82.296 166.776 82.296C166.968 82.296 167.116 82.348 167.22 82.452C167.324 82.556 167.376 82.708 167.376 82.908V84.144H168.78C168.94 84.144 169.064 84.184 169.152 84.264C169.24 84.344 169.284 84.46 169.284 84.612C169.284 84.756 169.24 84.872 169.152 84.96C169.064 85.04 168.94 85.08 168.78 85.08H167.376V87.816C167.376 88.24 167.464 88.56 167.64 88.776C167.824 88.992 168.12 89.1 168.528 89.1C168.672 89.1 168.796 89.088 168.9 89.064C169.012 89.032 169.104 89.012 169.176 89.004C169.264 89.004 169.336 89.036 169.392 89.1C169.448 89.156 169.476 89.268 169.476 89.436C169.476 89.556 169.452 89.668 169.404 89.772C169.364 89.876 169.288 89.944 169.176 89.976C169.08 90.008 168.948 90.036 168.78 90.06C168.62 90.092 168.476 90.108 168.348 90.108ZM172.924 90.108C172.284 90.108 171.732 89.988 171.268 89.748C170.812 89.5 170.456 89.152 170.2 88.704C169.952 88.248 169.828 87.708 169.828 87.084C169.828 86.476 169.952 85.944 170.2 85.488C170.448 85.032 170.788 84.676 171.22 84.42C171.652 84.164 172.144 84.036 172.696 84.036C173.104 84.036 173.468 84.104 173.788 84.24C174.108 84.368 174.38 84.56 174.604 84.816C174.836 85.064 175.008 85.368 175.12 85.728C175.24 86.088 175.3 86.492 175.3 86.94C175.3 87.076 175.26 87.18 175.18 87.252C175.1 87.316 174.98 87.348 174.82 87.348H170.788V86.604H174.484L174.28 86.772C174.28 86.372 174.22 86.032 174.1 85.752C173.988 85.472 173.816 85.26 173.584 85.116C173.36 84.964 173.08 84.888 172.744 84.888C172.368 84.888 172.048 84.976 171.784 85.152C171.528 85.328 171.332 85.572 171.196 85.884C171.06 86.196 170.992 86.56 170.992 86.976V87.048C170.992 87.752 171.156 88.284 171.484 88.644C171.82 88.996 172.304 89.172 172.936 89.172C173.176 89.172 173.428 89.14 173.692 89.076C173.964 89.012 174.22 88.904 174.46 88.752C174.596 88.672 174.716 88.636 174.82 88.644C174.932 88.652 175.02 88.688 175.084 88.752C175.156 88.816 175.2 88.896 175.216 88.992C175.232 89.088 175.216 89.188 175.168 89.292C175.12 89.388 175.036 89.476 174.916 89.556C174.644 89.74 174.328 89.88 173.968 89.976C173.608 90.064 173.26 90.108 172.924 90.108ZM178.854 90.108C178.342 90.108 177.89 89.988 177.498 89.748C177.114 89.5 176.814 89.148 176.598 88.692C176.382 88.228 176.274 87.688 176.274 87.072C176.274 86.44 176.382 85.9 176.598 85.452C176.814 85.004 177.114 84.656 177.498 84.408C177.89 84.16 178.342 84.036 178.854 84.036C179.366 84.036 179.806 84.164 180.174 84.42C180.55 84.668 180.802 85.004 180.93 85.428H180.798V82.068C180.798 81.868 180.85 81.716 180.954 81.612C181.058 81.508 181.206 81.456 181.398 81.456C181.59 81.456 181.738 81.508 181.842 81.612C181.954 81.716 182.01 81.868 182.01 82.068V89.472C182.01 89.664 181.958 89.816 181.854 89.928C181.75 90.032 181.602 90.084 181.41 90.084C181.218 90.084 181.07 90.032 180.966 89.928C180.862 89.816 180.81 89.664 180.81 89.472V88.416L180.942 88.68C180.814 89.112 180.562 89.46 180.186 89.724C179.818 89.98 179.374 90.108 178.854 90.108ZM179.166 89.172C179.494 89.172 179.782 89.092 180.03 88.932C180.278 88.772 180.47 88.536 180.606 88.224C180.75 87.912 180.822 87.528 180.822 87.072C180.822 86.384 180.67 85.864 180.366 85.512C180.062 85.16 179.662 84.984 179.166 84.984C178.83 84.984 178.538 85.064 178.29 85.224C178.042 85.376 177.846 85.608 177.702 85.92C177.566 86.232 177.498 86.616 177.498 87.072C177.498 87.752 177.65 88.272 177.954 88.632C178.258 88.992 178.662 89.172 179.166 89.172Z" fill="#EB0910"/>
<rect x="188" y="76" width="20" height="20" rx="10" fill="white"/>
<path d="M200.86 81.3671C201.35 80.8776 202.143 80.8776 202.633 81.3671C203.122 81.8567 203.122 82.6503 202.633 83.1399L195.14 90.6329C194.65 91.1224 193.857 91.1224 193.367 90.6329C192.878 90.1433 192.878 89.3497 193.367 88.8601L200.86 81.3671Z" fill="#64728C"/>
<path d="M193.367 83.1399C192.878 82.6503 192.878 81.8567 193.367 81.3671C193.857 80.8776 194.65 80.8776 195.14 81.3671L202.633 88.8601C203.122 89.3497 203.122 90.1433 202.633 90.6329C202.143 91.1224 201.35 91.1224 200.86 90.6329L193.367 83.1399Z" fill="#64728C"/>
<rect x="219" y="72" width="78" height="28" rx="14" fill="#64728C" fill-opacity="0.1"/>
<path d="M233.776 90.108C232.92 90.108 232.188 89.932 231.58 89.58C230.972 89.228 230.504 88.728 230.176 88.08C229.856 87.424 229.696 86.652 229.696 85.764C229.696 85.1 229.788 84.504 229.972 83.976C230.156 83.44 230.42 82.984 230.764 82.608C231.116 82.224 231.544 81.932 232.048 81.732C232.56 81.532 233.136 81.432 233.776 81.432C234.248 81.432 234.7 81.496 235.132 81.624C235.572 81.752 235.952 81.936 236.272 82.176C236.408 82.264 236.496 82.372 236.536 82.5C236.584 82.62 236.592 82.736 236.56 82.848C236.536 82.96 236.484 83.056 236.404 83.136C236.324 83.208 236.22 83.248 236.092 83.256C235.972 83.264 235.84 83.22 235.696 83.124C235.432 82.924 235.14 82.776 234.82 82.68C234.5 82.584 234.164 82.536 233.812 82.536C233.204 82.536 232.692 82.664 232.276 82.92C231.86 83.168 231.544 83.532 231.328 84.012C231.112 84.492 231.004 85.076 231.004 85.764C231.004 86.452 231.112 87.04 231.328 87.528C231.544 88.008 231.86 88.376 232.276 88.632C232.692 88.88 233.204 89.004 233.812 89.004C234.164 89.004 234.5 88.956 234.82 88.86C235.148 88.756 235.456 88.604 235.744 88.404C235.888 88.316 236.016 88.276 236.128 88.284C236.248 88.292 236.348 88.332 236.428 88.404C236.508 88.476 236.56 88.568 236.584 88.68C236.616 88.784 236.612 88.896 236.572 89.016C236.54 89.128 236.464 89.224 236.344 89.304C236.016 89.568 235.628 89.768 235.18 89.904C234.732 90.04 234.264 90.108 233.776 90.108ZM239.845 90.108C239.221 90.108 238.749 89.928 238.429 89.568C238.117 89.2 237.961 88.672 237.961 87.984V82.068C237.961 81.868 238.013 81.716 238.117 81.612C238.221 81.508 238.369 81.456 238.561 81.456C238.753 81.456 238.901 81.508 239.005 81.612C239.117 81.716 239.173 81.868 239.173 82.068V87.912C239.173 88.312 239.253 88.612 239.413 88.812C239.581 89.004 239.821 89.1 240.133 89.1C240.205 89.1 240.269 89.1 240.325 89.1C240.381 89.092 240.437 89.084 240.493 89.076C240.589 89.068 240.657 89.096 240.697 89.16C240.737 89.216 240.757 89.336 240.757 89.52C240.757 89.688 240.721 89.82 240.649 89.916C240.577 90.004 240.461 90.06 240.301 90.084C240.229 90.092 240.153 90.096 240.073 90.096C239.993 90.104 239.917 90.108 239.845 90.108ZM244.115 90.108C243.523 90.108 243.011 89.984 242.579 89.736C242.155 89.488 241.823 89.136 241.583 88.68C241.343 88.224 241.223 87.688 241.223 87.072C241.223 86.6 241.291 86.18 241.427 85.812C241.563 85.444 241.755 85.128 242.003 84.864C242.259 84.592 242.563 84.388 242.915 84.252C243.275 84.108 243.675 84.036 244.115 84.036C244.699 84.036 245.203 84.16 245.627 84.408C246.059 84.656 246.395 85.008 246.635 85.464C246.875 85.912 246.995 86.448 246.995 87.072C246.995 87.536 246.927 87.956 246.791 88.332C246.655 88.708 246.459 89.028 246.203 89.292C245.955 89.556 245.651 89.76 245.291 89.904C244.939 90.04 244.547 90.108 244.115 90.108ZM244.115 89.172C244.443 89.172 244.731 89.092 244.979 88.932C245.227 88.772 245.419 88.536 245.555 88.224C245.699 87.912 245.771 87.528 245.771 87.072C245.771 86.384 245.619 85.864 245.315 85.512C245.011 85.16 244.611 84.984 244.115 84.984C243.779 84.984 243.487 85.064 243.239 85.224C242.991 85.376 242.795 85.608 242.651 85.92C242.515 86.232 242.447 86.616 242.447 87.072C242.447 87.752 242.599 88.272 242.903 88.632C243.207 88.992 243.611 89.172 244.115 89.172ZM250.408 90.108C250.056 90.108 249.692 90.068 249.316 89.988C248.948 89.908 248.608 89.772 248.296 89.58C248.192 89.508 248.12 89.428 248.08 89.34C248.04 89.252 248.024 89.164 248.032 89.076C248.048 88.98 248.084 88.9 248.14 88.836C248.204 88.764 248.28 88.72 248.368 88.704C248.464 88.688 248.564 88.708 248.668 88.764C248.98 88.94 249.28 89.064 249.568 89.136C249.856 89.2 250.14 89.232 250.42 89.232C250.844 89.232 251.164 89.156 251.38 89.004C251.596 88.852 251.704 88.648 251.704 88.392C251.704 88.184 251.632 88.024 251.488 87.912C251.344 87.792 251.128 87.7 250.84 87.636L249.7 87.408C249.204 87.304 248.828 87.12 248.572 86.856C248.316 86.592 248.188 86.256 248.188 85.848C248.188 85.48 248.288 85.16 248.488 84.888C248.688 84.616 248.968 84.408 249.328 84.264C249.688 84.112 250.104 84.036 250.576 84.036C250.928 84.036 251.26 84.08 251.572 84.168C251.884 84.256 252.172 84.388 252.436 84.564C252.54 84.62 252.608 84.696 252.64 84.792C252.672 84.88 252.676 84.968 252.652 85.056C252.636 85.144 252.596 85.224 252.532 85.296C252.468 85.36 252.388 85.4 252.292 85.416C252.204 85.424 252.104 85.4 251.992 85.344C251.752 85.192 251.512 85.084 251.272 85.02C251.04 84.956 250.808 84.924 250.576 84.924C250.152 84.924 249.832 85.004 249.616 85.164C249.408 85.316 249.304 85.524 249.304 85.788C249.304 85.988 249.368 86.152 249.496 86.28C249.624 86.408 249.824 86.5 250.096 86.556L251.236 86.784C251.756 86.888 252.148 87.064 252.412 87.312C252.684 87.56 252.82 87.896 252.82 88.32C252.82 88.872 252.6 89.308 252.16 89.628C251.72 89.948 251.136 90.108 250.408 90.108ZM256.916 90.108C256.276 90.108 255.724 89.988 255.26 89.748C254.804 89.5 254.448 89.152 254.192 88.704C253.944 88.248 253.82 87.708 253.82 87.084C253.82 86.476 253.944 85.944 254.192 85.488C254.44 85.032 254.78 84.676 255.212 84.42C255.644 84.164 256.136 84.036 256.688 84.036C257.096 84.036 257.46 84.104 257.78 84.24C258.1 84.368 258.372 84.56 258.596 84.816C258.828 85.064 259 85.368 259.112 85.728C259.232 86.088 259.292 86.492 259.292 86.94C259.292 87.076 259.252 87.18 259.172 87.252C259.092 87.316 258.972 87.348 258.812 87.348H254.78V86.604H258.476L258.272 86.772C258.272 86.372 258.212 86.032 258.092 85.752C257.98 85.472 257.808 85.26 257.576 85.116C257.352 84.964 257.072 84.888 256.736 84.888C256.36 84.888 256.04 84.976 255.776 85.152C255.52 85.328 255.324 85.572 255.188 85.884C255.052 86.196 254.984 86.56 254.984 86.976V87.048C254.984 87.752 255.148 88.284 255.476 88.644C255.812 88.996 256.296 89.172 256.928 89.172C257.168 89.172 257.42 89.14 257.684 89.076C257.956 89.012 258.212 88.904 258.452 88.752C258.588 88.672 258.708 88.636 258.812 88.644C258.924 88.652 259.012 88.688 259.076 88.752C259.148 88.816 259.192 88.896 259.208 88.992C259.224 89.088 259.208 89.188 259.16 89.292C259.112 89.388 259.028 89.476 258.908 89.556C258.636 89.74 258.32 89.88 257.96 89.976C257.6 90.064 257.252 90.108 256.916 90.108ZM262.846 90.108C262.334 90.108 261.882 89.988 261.49 89.748C261.106 89.5 260.806 89.148 260.59 88.692C260.374 88.228 260.266 87.688 260.266 87.072C260.266 86.44 260.374 85.9 260.59 85.452C260.806 85.004 261.106 84.656 261.49 84.408C261.882 84.16 262.334 84.036 262.846 84.036C263.358 84.036 263.798 84.164 264.166 84.42C264.542 84.668 264.794 85.004 264.922 85.428H264.79V82.068C264.79 81.868 264.842 81.716 264.946 81.612C265.05 81.508 265.198 81.456 265.39 81.456C265.582 81.456 265.73 81.508 265.834 81.612C265.946 81.716 266.002 81.868 266.002 82.068V89.472C266.002 89.664 265.95 89.816 265.846 89.928C265.742 90.032 265.594 90.084 265.402 90.084C265.21 90.084 265.062 90.032 264.958 89.928C264.854 89.816 264.802 89.664 264.802 89.472V88.416L264.934 88.68C264.806 89.112 264.554 89.46 264.178 89.724C263.81 89.98 263.366 90.108 262.846 90.108ZM263.158 89.172C263.486 89.172 263.774 89.092 264.022 88.932C264.27 88.772 264.462 88.536 264.598 88.224C264.742 87.912 264.814 87.528 264.814 87.072C264.814 86.384 264.662 85.864 264.358 85.512C264.054 85.16 263.654 84.984 263.158 84.984C262.822 84.984 262.53 85.064 262.282 85.224C262.034 85.376 261.838 85.608 261.694 85.92C261.558 86.232 261.49 86.616 261.49 87.072C261.49 87.752 261.642 88.272 261.946 88.632C262.25 88.992 262.654 89.172 263.158 89.172Z" fill="#64728C"/>
<rect x="272" y="76" width="20" height="20" rx="10" fill="white"/>
<path d="M284.86 81.3671C285.35 80.8776 286.143 80.8776 286.633 81.3671C287.122 81.8567 287.122 82.6503 286.633 83.1399L279.14 90.6329C278.65 91.1224 277.857 91.1224 277.367 90.6329C276.878 90.1433 276.878 89.3497 277.367 88.8601L284.86 81.3671Z" fill="#64728C"/>
<path d="M277.367 83.1399C276.878 82.6503 276.878 81.8567 277.367 81.3671C277.857 80.8776 278.65 80.8776 279.14 81.3671L286.633 88.8601C287.122 89.3497 287.122 90.1433 286.633 90.6329C286.143 91.1224 285.35 91.1224 284.86 90.6329L277.367 83.1399Z" fill="#64728C"/>
<defs>
<filter id="filter0_d_556_4549" x="0" y="20" width="310" height="55" filterUnits="userSpaceOnUse" color-interpolation-filters="sRGB">
<feFlood flood-opacity="0" result="BackgroundImageFix"/>
<feColorMatrix in="SourceAlpha" type="matrix" values="0 0 0 0 0 0 0 0 0 0 0 0 0 0 0 0 0 0 127 0" result="hardAlpha"/>
<feOffset dy="4"/>
<feGaussianBlur stdDeviation="2.5"/>
<feComposite in2="hardAlpha" operator="out"/>
<feColorMatrix type="matrix" values="0 0 0 0 0.921569 0 0 0 0 0.0352941 0 0 0 0 0.0627451 0 0 0 0.15 0"/>
<feBlend mode="normal" in2="BackgroundImageFix" result="effect1_dropShadow_556_4549"/>
<feBlend mode="normal" in="SourceGraphic" in2="effect1_dropShadow_556_4549" result="shape"/>
</filter>
</defs>
</svg>
