<svg width="300" height="98" viewBox="0 0 300 98" fill="none" xmlns="http://www.w3.org/2000/svg">
<rect x="0.5" y="21.5" width="299" height="44" rx="11.5" stroke="#E8EAEF"/>
<path d="M13.78 47.608C13.404 47.608 13.036 47.576 12.676 47.512C12.316 47.448 11.98 47.356 11.668 47.236C11.364 47.116 11.088 46.964 10.84 46.78C10.744 46.708 10.676 46.628 10.636 46.54C10.604 46.444 10.596 46.352 10.612 46.264C10.636 46.168 10.676 46.088 10.732 46.024C10.796 45.96 10.872 45.924 10.96 45.916C11.048 45.908 11.144 45.936 11.248 46C11.608 46.256 11.992 46.444 12.4 46.564C12.808 46.676 13.268 46.732 13.78 46.732C14.5 46.732 15.032 46.6 15.376 46.336C15.728 46.064 15.904 45.708 15.904 45.268C15.904 44.908 15.776 44.628 15.52 44.428C15.272 44.22 14.852 44.056 14.26 43.936L13.012 43.684C12.26 43.524 11.696 43.264 11.32 42.904C10.952 42.536 10.768 42.048 10.768 41.44C10.768 41.064 10.844 40.724 10.996 40.42C11.148 40.108 11.36 39.844 11.632 39.628C11.904 39.404 12.228 39.232 12.604 39.112C12.98 38.992 13.396 38.932 13.852 38.932C14.356 38.932 14.824 39.004 15.256 39.148C15.696 39.284 16.092 39.492 16.444 39.772C16.532 39.844 16.592 39.928 16.624 40.024C16.656 40.112 16.66 40.2 16.636 40.288C16.612 40.368 16.568 40.436 16.504 40.492C16.448 40.548 16.372 40.58 16.276 40.588C16.188 40.596 16.088 40.564 15.976 40.492C15.656 40.252 15.324 40.08 14.98 39.976C14.636 39.864 14.256 39.808 13.84 39.808C13.416 39.808 13.048 39.872 12.736 40C12.432 40.128 12.192 40.316 12.016 40.564C11.848 40.804 11.764 41.084 11.764 41.404C11.764 41.788 11.88 42.092 12.112 42.316C12.352 42.54 12.74 42.704 13.276 42.808L14.524 43.072C15.332 43.24 15.928 43.496 16.312 43.84C16.704 44.176 16.9 44.636 16.9 45.22C16.9 45.572 16.828 45.896 16.684 46.192C16.54 46.488 16.332 46.744 16.06 46.96C15.788 47.168 15.46 47.328 15.076 47.44C14.692 47.552 14.26 47.608 13.78 47.608ZM20.9228 47.608C20.3068 47.608 19.7748 47.488 19.3268 47.248C18.8868 47 18.5428 46.652 18.2948 46.204C18.0548 45.756 17.9348 45.22 17.9348 44.596C17.9348 43.988 18.0548 43.46 18.2948 43.012C18.5348 42.556 18.8628 42.2 19.2788 41.944C19.7028 41.688 20.1908 41.56 20.7428 41.56C21.1348 41.56 21.4868 41.628 21.7988 41.764C22.1108 41.892 22.3748 42.08 22.5908 42.328C22.8148 42.576 22.9828 42.876 23.0948 43.228C23.2148 43.58 23.2748 43.976 23.2748 44.416C23.2748 44.544 23.2388 44.64 23.1668 44.704C23.0948 44.76 22.9908 44.788 22.8548 44.788H18.6788V44.152H22.6268L22.4348 44.308C22.4348 43.876 22.3708 43.512 22.2428 43.216C22.1148 42.912 21.9268 42.68 21.6788 42.52C21.4388 42.36 21.1348 42.28 20.7668 42.28C20.3588 42.28 20.0108 42.376 19.7228 42.568C19.4428 42.752 19.2308 43.012 19.0868 43.348C18.9428 43.676 18.8708 44.06 18.8708 44.5V44.572C18.8708 45.308 19.0468 45.868 19.3988 46.252C19.7588 46.636 20.2668 46.828 20.9228 46.828C21.1948 46.828 21.4628 46.792 21.7268 46.72C21.9988 46.648 22.2628 46.528 22.5188 46.36C22.6308 46.288 22.7308 46.256 22.8188 46.264C22.9148 46.264 22.9908 46.292 23.0468 46.348C23.1028 46.396 23.1388 46.46 23.1548 46.54C23.1788 46.612 23.1708 46.692 23.1308 46.78C23.0988 46.868 23.0308 46.944 22.9268 47.008C22.6628 47.2 22.3508 47.348 21.9908 47.452C21.6308 47.556 21.2748 47.608 20.9228 47.608ZM26.4575 47.608C25.8815 47.608 25.4415 47.432 25.1375 47.08C24.8335 46.728 24.6815 46.224 24.6815 45.568V39.448C24.6815 39.288 24.7215 39.168 24.8015 39.088C24.8815 39 25.0015 38.956 25.1615 38.956C25.3135 38.956 25.4335 39 25.5215 39.088C25.6095 39.168 25.6535 39.288 25.6535 39.448V45.496C25.6535 45.928 25.7375 46.252 25.9055 46.468C26.0815 46.676 26.3375 46.78 26.6735 46.78C26.7455 46.78 26.8095 46.776 26.8655 46.768C26.9215 46.76 26.9775 46.756 27.0335 46.756C27.1215 46.748 27.1815 46.768 27.2135 46.816C27.2535 46.864 27.2735 46.96 27.2735 47.104C27.2735 47.248 27.2415 47.356 27.1775 47.428C27.1135 47.5 27.0095 47.548 26.8655 47.572C26.8015 47.58 26.7335 47.588 26.6615 47.596C26.5895 47.604 26.5215 47.608 26.4575 47.608ZM30.8017 47.608C30.1857 47.608 29.6537 47.488 29.2057 47.248C28.7657 47 28.4217 46.652 28.1737 46.204C27.9337 45.756 27.8137 45.22 27.8137 44.596C27.8137 43.988 27.9337 43.46 28.1737 43.012C28.4137 42.556 28.7417 42.2 29.1577 41.944C29.5817 41.688 30.0697 41.56 30.6217 41.56C31.0137 41.56 31.3657 41.628 31.6777 41.764C31.9897 41.892 32.2537 42.08 32.4697 42.328C32.6937 42.576 32.8617 42.876 32.9737 43.228C33.0937 43.58 33.1537 43.976 33.1537 44.416C33.1537 44.544 33.1177 44.64 33.0457 44.704C32.9737 44.76 32.8697 44.788 32.7337 44.788H28.5577V44.152H32.5057L32.3137 44.308C32.3137 43.876 32.2497 43.512 32.1217 43.216C31.9937 42.912 31.8057 42.68 31.5577 42.52C31.3177 42.36 31.0137 42.28 30.6457 42.28C30.2377 42.28 29.8897 42.376 29.6017 42.568C29.3217 42.752 29.1097 43.012 28.9657 43.348C28.8217 43.676 28.7497 44.06 28.7497 44.5V44.572C28.7497 45.308 28.9257 45.868 29.2777 46.252C29.6377 46.636 30.1457 46.828 30.8017 46.828C31.0737 46.828 31.3417 46.792 31.6057 46.72C31.8777 46.648 32.1417 46.528 32.3977 46.36C32.5097 46.288 32.6097 46.256 32.6977 46.264C32.7937 46.264 32.8697 46.292 32.9257 46.348C32.9817 46.396 33.0177 46.46 33.0337 46.54C33.0577 46.612 33.0497 46.692 33.0097 46.78C32.9777 46.868 32.9097 46.944 32.8057 47.008C32.5417 47.2 32.2297 47.348 31.8697 47.452C31.5097 47.556 31.1537 47.608 30.8017 47.608ZM37.0324 47.608C36.4484 47.608 35.9444 47.48 35.5204 47.224C35.0964 46.968 34.7684 46.612 34.5364 46.156C34.3124 45.692 34.2004 45.156 34.2004 44.548C34.2004 44.084 34.2644 43.668 34.3924 43.3C34.5204 42.932 34.7084 42.62 34.9564 42.364C35.2044 42.1 35.5004 41.9 35.8444 41.764C36.1964 41.628 36.5924 41.56 37.0324 41.56C37.3204 41.56 37.6204 41.604 37.9324 41.692C38.2444 41.78 38.5284 41.932 38.7844 42.148C38.8644 42.204 38.9164 42.272 38.9404 42.352C38.9644 42.432 38.9644 42.512 38.9404 42.592C38.9164 42.664 38.8764 42.728 38.8204 42.784C38.7644 42.832 38.6924 42.86 38.6044 42.868C38.5244 42.876 38.4404 42.848 38.3524 42.784C38.1444 42.624 37.9324 42.512 37.7164 42.448C37.5004 42.384 37.2924 42.352 37.0924 42.352C36.7804 42.352 36.5084 42.404 36.2764 42.508C36.0444 42.604 35.8484 42.744 35.6884 42.928C35.5284 43.112 35.4044 43.34 35.3164 43.612C35.2364 43.884 35.1964 44.2 35.1964 44.56C35.1964 45.256 35.3604 45.808 35.6884 46.216C36.0164 46.616 36.4844 46.816 37.0924 46.816C37.2924 46.816 37.4964 46.784 37.7044 46.72C37.9204 46.656 38.1364 46.544 38.3524 46.384C38.4404 46.32 38.5244 46.292 38.6044 46.3C38.6844 46.308 38.7524 46.34 38.8084 46.396C38.8644 46.444 38.9004 46.508 38.9164 46.588C38.9404 46.668 38.9404 46.748 38.9164 46.828C38.8924 46.9 38.8404 46.964 38.7604 47.02C38.5044 47.228 38.2244 47.38 37.9204 47.476C37.6164 47.564 37.3204 47.608 37.0324 47.608ZM42.4551 47.608C41.9991 47.608 41.6151 47.528 41.3031 47.368C40.9991 47.2 40.7711 46.96 40.6191 46.648C40.4671 46.328 40.3911 45.94 40.3911 45.484V42.424H39.5871C39.4511 42.424 39.3471 42.392 39.2751 42.328C39.2031 42.256 39.1671 42.16 39.1671 42.04C39.1671 41.92 39.2031 41.828 39.2751 41.764C39.3471 41.7 39.4511 41.668 39.5871 41.668H40.3911V40.288C40.3911 40.128 40.4351 40.008 40.5231 39.928C40.6111 39.84 40.7311 39.796 40.8831 39.796C41.0351 39.796 41.1511 39.84 41.2311 39.928C41.3191 40.008 41.3631 40.128 41.3631 40.288V41.668H42.8751C43.0111 41.668 43.1151 41.7 43.1871 41.764C43.2591 41.828 43.2951 41.92 43.2951 42.04C43.2951 42.16 43.2591 42.256 43.1871 42.328C43.1151 42.392 43.0111 42.424 42.8751 42.424H41.3631V45.388C41.3631 45.844 41.4591 46.192 41.6511 46.432C41.8431 46.664 42.1551 46.78 42.5871 46.78C42.7391 46.78 42.8671 46.764 42.9711 46.732C43.0831 46.7 43.1751 46.684 43.2471 46.684C43.3191 46.676 43.3791 46.7 43.4271 46.756C43.4751 46.812 43.4991 46.908 43.4991 47.044C43.4991 47.14 43.4791 47.228 43.4391 47.308C43.4071 47.388 43.3471 47.444 43.2591 47.476C43.1631 47.508 43.0351 47.536 42.8751 47.56C42.7231 47.592 42.5831 47.608 42.4551 47.608ZM50.2722 47.608C49.8962 47.608 49.5282 47.576 49.1682 47.512C48.8082 47.448 48.4722 47.356 48.1602 47.236C47.8562 47.116 47.5802 46.964 47.3322 46.78C47.2362 46.708 47.1682 46.628 47.1282 46.54C47.0962 46.444 47.0882 46.352 47.1042 46.264C47.1282 46.168 47.1682 46.088 47.2242 46.024C47.2882 45.96 47.3642 45.924 47.4522 45.916C47.5402 45.908 47.6362 45.936 47.7402 46C48.1002 46.256 48.4842 46.444 48.8922 46.564C49.3002 46.676 49.7602 46.732 50.2722 46.732C50.9922 46.732 51.5242 46.6 51.8682 46.336C52.2202 46.064 52.3962 45.708 52.3962 45.268C52.3962 44.908 52.2682 44.628 52.0122 44.428C51.7642 44.22 51.3442 44.056 50.7522 43.936L49.5042 43.684C48.7522 43.524 48.1882 43.264 47.8122 42.904C47.4442 42.536 47.2602 42.048 47.2602 41.44C47.2602 41.064 47.3362 40.724 47.4882 40.42C47.6402 40.108 47.8522 39.844 48.1242 39.628C48.3962 39.404 48.7202 39.232 49.0962 39.112C49.4722 38.992 49.8882 38.932 50.3442 38.932C50.8482 38.932 51.3162 39.004 51.7482 39.148C52.1882 39.284 52.5842 39.492 52.9362 39.772C53.0242 39.844 53.0842 39.928 53.1162 40.024C53.1482 40.112 53.1522 40.2 53.1282 40.288C53.1042 40.368 53.0602 40.436 52.9962 40.492C52.9402 40.548 52.8642 40.58 52.7682 40.588C52.6802 40.596 52.5802 40.564 52.4682 40.492C52.1482 40.252 51.8162 40.08 51.4722 39.976C51.1282 39.864 50.7482 39.808 50.3322 39.808C49.9082 39.808 49.5402 39.872 49.2282 40C48.9242 40.128 48.6842 40.316 48.5082 40.564C48.3402 40.804 48.2562 41.084 48.2562 41.404C48.2562 41.788 48.3722 42.092 48.6042 42.316C48.8442 42.54 49.2322 42.704 49.7682 42.808L51.0162 43.072C51.8242 43.24 52.4202 43.496 52.8042 43.84C53.1962 44.176 53.3922 44.636 53.3922 45.22C53.3922 45.572 53.3202 45.896 53.1762 46.192C53.0322 46.488 52.8242 46.744 52.5522 46.96C52.2802 47.168 51.9522 47.328 51.5682 47.44C51.1842 47.552 50.7522 47.608 50.2722 47.608ZM57.1036 47.608C56.6476 47.608 56.2636 47.528 55.9516 47.368C55.6476 47.2 55.4196 46.96 55.2676 46.648C55.1156 46.328 55.0396 45.94 55.0396 45.484V42.424H54.2356C54.0996 42.424 53.9956 42.392 53.9236 42.328C53.8516 42.256 53.8156 42.16 53.8156 42.04C53.8156 41.92 53.8516 41.828 53.9236 41.764C53.9956 41.7 54.0996 41.668 54.2356 41.668H55.0396V40.288C55.0396 40.128 55.0836 40.008 55.1716 39.928C55.2596 39.84 55.3796 39.796 55.5316 39.796C55.6836 39.796 55.7996 39.84 55.8796 39.928C55.9676 40.008 56.0116 40.128 56.0116 40.288V41.668H57.5236C57.6596 41.668 57.7636 41.7 57.8356 41.764C57.9076 41.828 57.9436 41.92 57.9436 42.04C57.9436 42.16 57.9076 42.256 57.8356 42.328C57.7636 42.392 57.6596 42.424 57.5236 42.424H56.0116V45.388C56.0116 45.844 56.1076 46.192 56.2996 46.432C56.4916 46.664 56.8036 46.78 57.2356 46.78C57.3876 46.78 57.5156 46.764 57.6196 46.732C57.7316 46.7 57.8236 46.684 57.8956 46.684C57.9676 46.676 58.0276 46.7 58.0756 46.756C58.1236 46.812 58.1476 46.908 58.1476 47.044C58.1476 47.14 58.1276 47.228 58.0876 47.308C58.0556 47.388 57.9956 47.444 57.9076 47.476C57.8116 47.508 57.6836 47.536 57.5236 47.56C57.3716 47.592 57.2316 47.608 57.1036 47.608ZM60.7949 47.608C60.3949 47.608 60.0349 47.532 59.7149 47.38C59.4029 47.22 59.1549 47.004 58.9709 46.732C58.7869 46.46 58.6949 46.156 58.6949 45.82C58.6949 45.388 58.8029 45.048 59.0189 44.8C59.2429 44.552 59.6069 44.376 60.1109 44.272C60.6229 44.168 61.3189 44.116 62.1989 44.116H62.7389V44.752H62.2109C61.5629 44.752 61.0509 44.784 60.6749 44.848C60.3069 44.904 60.0469 45.004 59.8949 45.148C59.7509 45.292 59.6789 45.496 59.6789 45.76C59.6789 46.088 59.7909 46.356 60.0149 46.564C60.2469 46.772 60.5589 46.876 60.9509 46.876C61.2709 46.876 61.5509 46.8 61.7909 46.648C62.0389 46.496 62.2309 46.288 62.3669 46.024C62.5109 45.76 62.5829 45.456 62.5829 45.112V43.744C62.5829 43.248 62.4829 42.892 62.2829 42.676C62.0829 42.452 61.7549 42.34 61.2989 42.34C61.0189 42.34 60.7389 42.376 60.4589 42.448C60.1789 42.52 59.8829 42.636 59.5709 42.796C59.4589 42.852 59.3629 42.872 59.2829 42.856C59.2029 42.832 59.1389 42.788 59.0909 42.724C59.0429 42.66 59.0149 42.588 59.0069 42.508C58.9989 42.42 59.0149 42.336 59.0549 42.256C59.1029 42.176 59.1749 42.112 59.2709 42.064C59.6229 41.888 59.9709 41.76 60.3149 41.68C60.6589 41.6 60.9869 41.56 61.2989 41.56C61.8029 41.56 62.2189 41.644 62.5469 41.812C62.8749 41.972 63.1189 42.22 63.2789 42.556C63.4389 42.884 63.5189 43.308 63.5189 43.828V47.08C63.5189 47.24 63.4789 47.364 63.3989 47.452C63.3269 47.54 63.2189 47.584 63.0749 47.584C62.9229 47.584 62.8069 47.54 62.7269 47.452C62.6469 47.364 62.6069 47.24 62.6069 47.08V46.144H62.7149C62.6509 46.448 62.5269 46.708 62.3429 46.924C62.1669 47.14 61.9469 47.308 61.6829 47.428C61.4189 47.548 61.1229 47.608 60.7949 47.608ZM67.6622 47.608C67.2062 47.608 66.8222 47.528 66.5102 47.368C66.2062 47.2 65.9782 46.96 65.8262 46.648C65.6742 46.328 65.5982 45.94 65.5982 45.484V42.424H64.7942C64.6582 42.424 64.5542 42.392 64.4822 42.328C64.4102 42.256 64.3742 42.16 64.3742 42.04C64.3742 41.92 64.4102 41.828 64.4822 41.764C64.5542 41.7 64.6582 41.668 64.7942 41.668H65.5982V40.288C65.5982 40.128 65.6422 40.008 65.7302 39.928C65.8182 39.84 65.9382 39.796 66.0902 39.796C66.2422 39.796 66.3582 39.84 66.4382 39.928C66.5262 40.008 66.5702 40.128 66.5702 40.288V41.668H68.0822C68.2182 41.668 68.3222 41.7 68.3942 41.764C68.4662 41.828 68.5022 41.92 68.5022 42.04C68.5022 42.16 68.4662 42.256 68.3942 42.328C68.3222 42.392 68.2182 42.424 68.0822 42.424H66.5702V45.388C66.5702 45.844 66.6662 46.192 66.8582 46.432C67.0502 46.664 67.3622 46.78 67.7942 46.78C67.9462 46.78 68.0742 46.764 68.1782 46.732C68.2902 46.7 68.3822 46.684 68.4542 46.684C68.5262 46.676 68.5862 46.7 68.6342 46.756C68.6822 46.812 68.7062 46.908 68.7062 47.044C68.7062 47.14 68.6862 47.228 68.6462 47.308C68.6142 47.388 68.5542 47.444 68.4662 47.476C68.3702 47.508 68.2422 47.536 68.0822 47.56C67.9302 47.592 67.7902 47.608 67.6622 47.608ZM71.5815 47.608C71.1095 47.608 70.7175 47.524 70.4055 47.356C70.1015 47.18 69.8695 46.92 69.7095 46.576C69.5575 46.232 69.4815 45.804 69.4815 45.292V42.076C69.4815 41.908 69.5215 41.784 69.6015 41.704C69.6895 41.624 69.8095 41.584 69.9615 41.584C70.1215 41.584 70.2415 41.624 70.3215 41.704C70.4095 41.784 70.4535 41.908 70.4535 42.076V45.28C70.4535 45.792 70.5575 46.176 70.7655 46.432C70.9815 46.68 71.3175 46.804 71.7735 46.804C72.2695 46.804 72.6735 46.636 72.9855 46.3C73.2975 45.964 73.4535 45.524 73.4535 44.98V42.076C73.4535 41.908 73.4935 41.784 73.5735 41.704C73.6615 41.624 73.7855 41.584 73.9455 41.584C74.0975 41.584 74.2135 41.624 74.2935 41.704C74.3815 41.784 74.4255 41.908 74.4255 42.076V47.08C74.4255 47.416 74.2695 47.584 73.9575 47.584C73.8055 47.584 73.6855 47.54 73.5975 47.452C73.5175 47.364 73.4775 47.24 73.4775 47.08V45.988L73.6335 46.156C73.4735 46.628 73.2095 46.988 72.8415 47.236C72.4815 47.484 72.0615 47.608 71.5815 47.608ZM78.212 47.608C77.852 47.608 77.488 47.564 77.12 47.476C76.76 47.388 76.424 47.236 76.112 47.02C76.032 46.964 75.976 46.9 75.944 46.828C75.912 46.748 75.9 46.672 75.908 46.6C75.924 46.52 75.956 46.452 76.004 46.396C76.06 46.34 76.124 46.308 76.196 46.3C76.276 46.284 76.364 46.3 76.46 46.348C76.772 46.54 77.072 46.676 77.36 46.756C77.656 46.828 77.948 46.864 78.236 46.864C78.692 46.864 79.036 46.78 79.268 46.612C79.5 46.444 79.616 46.216 79.616 45.928C79.616 45.704 79.54 45.528 79.388 45.4C79.236 45.264 78.996 45.16 78.668 45.088L77.576 44.848C77.072 44.744 76.696 44.564 76.448 44.308C76.208 44.052 76.088 43.72 76.088 43.312C76.088 42.952 76.18 42.644 76.364 42.388C76.556 42.124 76.824 41.92 77.168 41.776C77.512 41.632 77.912 41.56 78.368 41.56C78.72 41.56 79.052 41.608 79.364 41.704C79.684 41.792 79.972 41.936 80.228 42.136C80.308 42.192 80.36 42.26 80.384 42.34C80.416 42.412 80.42 42.488 80.396 42.568C80.38 42.64 80.344 42.704 80.288 42.76C80.232 42.808 80.164 42.836 80.084 42.844C80.004 42.852 79.92 42.828 79.832 42.772C79.592 42.612 79.348 42.496 79.1 42.424C78.852 42.344 78.608 42.304 78.368 42.304C77.92 42.304 77.58 42.392 77.348 42.568C77.116 42.744 77 42.976 77 43.264C77 43.488 77.072 43.672 77.216 43.816C77.36 43.96 77.584 44.064 77.888 44.128L78.98 44.356C79.5 44.468 79.888 44.648 80.144 44.896C80.408 45.136 80.54 45.464 80.54 45.88C80.54 46.408 80.328 46.828 79.904 47.14C79.48 47.452 78.916 47.608 78.212 47.608Z" fill="#929BAA"/>
<rect x="260" y="25.5" width="36" height="36" rx="12" fill="#64728C" fill-opacity="0.12"/>
<path d="M279.039 48.2C278.577 49 277.423 49 276.961 48.2L273.843 42.8C273.381 42 273.959 41 274.882 41L281.118 41C282.041 41 282.619 42 282.157 42.8L279.039 48.2Z" fill="#64728C"/>
<path d="M3.804 12.108C3.436 12.108 3.076 12.08 2.724 12.024C2.372 11.968 2.04 11.884 1.728 11.772C1.416 11.652 1.136 11.508 0.888 11.34C0.768 11.252 0.684 11.152 0.636 11.04C0.596 10.928 0.584 10.82 0.6 10.716C0.624 10.604 0.672 10.508 0.744 10.428C0.816 10.348 0.904 10.3 1.008 10.284C1.112 10.26 1.228 10.292 1.356 10.38C1.716 10.612 2.096 10.784 2.496 10.896C2.896 11 3.332 11.052 3.804 11.052C4.484 11.052 4.984 10.932 5.304 10.692C5.632 10.444 5.796 10.124 5.796 9.732C5.796 9.412 5.68 9.16 5.448 8.976C5.216 8.784 4.828 8.632 4.284 8.52L3 8.256C2.24 8.096 1.672 7.832 1.296 7.464C0.928 7.096 0.744 6.6 0.744 5.976C0.744 5.6 0.82 5.256 0.972 4.944C1.132 4.632 1.352 4.364 1.632 4.14C1.912 3.908 2.248 3.732 2.64 3.612C3.032 3.492 3.46 3.432 3.924 3.432C4.42 3.432 4.884 3.496 5.316 3.624C5.756 3.752 6.148 3.948 6.492 4.212C6.596 4.284 6.664 4.376 6.696 4.488C6.736 4.592 6.744 4.696 6.72 4.8C6.704 4.904 6.66 4.992 6.588 5.064C6.516 5.136 6.424 5.18 6.312 5.196C6.2 5.204 6.076 5.164 5.94 5.076C5.628 4.868 5.308 4.72 4.98 4.632C4.66 4.536 4.304 4.488 3.912 4.488C3.52 4.488 3.176 4.548 2.88 4.668C2.592 4.788 2.368 4.956 2.208 5.172C2.056 5.388 1.98 5.644 1.98 5.94C1.98 6.276 2.088 6.544 2.304 6.744C2.52 6.944 2.88 7.096 3.384 7.2L4.656 7.464C5.456 7.632 6.052 7.892 6.444 8.244C6.836 8.596 7.032 9.064 7.032 9.648C7.032 10.024 6.956 10.364 6.804 10.668C6.652 10.964 6.436 11.22 6.156 11.436C5.876 11.652 5.536 11.82 5.136 11.94C4.744 12.052 4.3 12.108 3.804 12.108ZM10.7777 12.108C10.2977 12.108 9.89369 12.024 9.56569 11.856C9.23769 11.688 8.99369 11.44 8.83369 11.112C8.67369 10.784 8.59369 10.384 8.59369 9.912V7.08H7.87369C7.71369 7.08 7.58969 7.04 7.50169 6.96C7.41369 6.872 7.36969 6.756 7.36969 6.612C7.36969 6.46 7.41369 6.344 7.50169 6.264C7.58969 6.184 7.71369 6.144 7.87369 6.144H8.59369V4.908C8.59369 4.708 8.64569 4.556 8.74969 4.452C8.86169 4.348 9.01369 4.296 9.20569 4.296C9.39769 4.296 9.54569 4.348 9.64969 4.452C9.75369 4.556 9.80569 4.708 9.80569 4.908V6.144H11.2097C11.3697 6.144 11.4937 6.184 11.5817 6.264C11.6697 6.344 11.7137 6.46 11.7137 6.612C11.7137 6.756 11.6697 6.872 11.5817 6.96C11.4937 7.04 11.3697 7.08 11.2097 7.08H9.80569V9.816C9.80569 10.24 9.89369 10.56 10.0697 10.776C10.2537 10.992 10.5497 11.1 10.9577 11.1C11.1017 11.1 11.2257 11.088 11.3297 11.064C11.4417 11.032 11.5337 11.012 11.6057 11.004C11.6937 11.004 11.7657 11.036 11.8217 11.1C11.8777 11.156 11.9057 11.268 11.9057 11.436C11.9057 11.556 11.8817 11.668 11.8337 11.772C11.7937 11.876 11.7177 11.944 11.6057 11.976C11.5097 12.008 11.3777 12.036 11.2097 12.06C11.0497 12.092 10.9057 12.108 10.7777 12.108ZM14.5365 12.108C14.1285 12.108 13.7605 12.028 13.4325 11.868C13.1125 11.708 12.8605 11.492 12.6765 11.22C12.4925 10.948 12.4005 10.64 12.4005 10.296C12.4005 9.864 12.5085 9.524 12.7245 9.276C12.9485 9.02 13.3125 8.84 13.8165 8.736C14.3285 8.624 15.0165 8.568 15.8805 8.568H16.4445V9.312H15.8925C15.3165 9.312 14.8605 9.34 14.5245 9.396C14.1885 9.452 13.9485 9.548 13.8045 9.684C13.6685 9.812 13.6005 9.992 13.6005 10.224C13.6005 10.528 13.7045 10.776 13.9125 10.968C14.1205 11.152 14.4085 11.244 14.7765 11.244C15.0725 11.244 15.3325 11.176 15.5565 11.04C15.7805 10.896 15.9565 10.704 16.0845 10.464C16.2205 10.224 16.2885 9.948 16.2885 9.636V8.256C16.2885 7.8 16.1925 7.472 16.0005 7.272C15.8085 7.072 15.4925 6.972 15.0525 6.972C14.7965 6.972 14.5285 7.004 14.2485 7.068C13.9765 7.132 13.6925 7.24 13.3965 7.392C13.2605 7.456 13.1445 7.476 13.0485 7.452C12.9525 7.428 12.8765 7.376 12.8205 7.296C12.7645 7.208 12.7325 7.116 12.7245 7.02C12.7245 6.916 12.7485 6.816 12.7965 6.72C12.8525 6.624 12.9445 6.552 13.0725 6.504C13.4245 6.336 13.7725 6.216 14.1165 6.144C14.4605 6.072 14.7845 6.036 15.0885 6.036C15.6245 6.036 16.0645 6.12 16.4085 6.288C16.7605 6.456 17.0205 6.712 17.1885 7.056C17.3565 7.4 17.4405 7.844 17.4405 8.388V11.472C17.4405 11.664 17.3925 11.816 17.2965 11.928C17.2005 12.032 17.0605 12.084 16.8765 12.084C16.7005 12.084 16.5605 12.032 16.4565 11.928C16.3525 11.816 16.3005 11.664 16.3005 11.472V10.692H16.4085C16.3445 10.988 16.2245 11.244 16.0485 11.46C15.8805 11.668 15.6685 11.828 15.4125 11.94C15.1565 12.052 14.8645 12.108 14.5365 12.108ZM21.6058 12.108C21.1258 12.108 20.7218 12.024 20.3938 11.856C20.0658 11.688 19.8218 11.44 19.6618 11.112C19.5018 10.784 19.4218 10.384 19.4218 9.912V7.08H18.7018C18.5418 7.08 18.4178 7.04 18.3298 6.96C18.2418 6.872 18.1978 6.756 18.1978 6.612C18.1978 6.46 18.2418 6.344 18.3298 6.264C18.4178 6.184 18.5418 6.144 18.7018 6.144H19.4218V4.908C19.4218 4.708 19.4738 4.556 19.5778 4.452C19.6898 4.348 19.8418 4.296 20.0338 4.296C20.2258 4.296 20.3738 4.348 20.4778 4.452C20.5818 4.556 20.6338 4.708 20.6338 4.908V6.144H22.0378C22.1978 6.144 22.3218 6.184 22.4098 6.264C22.4978 6.344 22.5418 6.46 22.5418 6.612C22.5418 6.756 22.4978 6.872 22.4098 6.96C22.3218 7.04 22.1978 7.08 22.0378 7.08H20.6338V9.816C20.6338 10.24 20.7218 10.56 20.8978 10.776C21.0818 10.992 21.3778 11.1 21.7858 11.1C21.9298 11.1 22.0538 11.088 22.1578 11.064C22.2698 11.032 22.3618 11.012 22.4338 11.004C22.5218 11.004 22.5938 11.036 22.6498 11.1C22.7058 11.156 22.7338 11.268 22.7338 11.436C22.7338 11.556 22.7098 11.668 22.6618 11.772C22.6218 11.876 22.5458 11.944 22.4338 11.976C22.3378 12.008 22.2058 12.036 22.0378 12.06C21.8778 12.092 21.7338 12.108 21.6058 12.108ZM25.5806 12.108C25.1086 12.108 24.7126 12.02 24.3926 11.844C24.0806 11.668 23.8446 11.408 23.6846 11.064C23.5326 10.712 23.4566 10.272 23.4566 9.744V6.672C23.4566 6.464 23.5086 6.312 23.6126 6.216C23.7166 6.112 23.8646 6.06 24.0566 6.06C24.2486 6.06 24.3966 6.112 24.5006 6.216C24.6126 6.312 24.6686 6.464 24.6686 6.672V9.756C24.6686 10.228 24.7646 10.576 24.9566 10.8C25.1486 11.024 25.4526 11.136 25.8686 11.136C26.3246 11.136 26.6926 10.984 26.9726 10.68C27.2606 10.368 27.4046 9.96 27.4046 9.456V6.672C27.4046 6.464 27.4566 6.312 27.5606 6.216C27.6646 6.112 27.8166 6.06 28.0166 6.06C28.2086 6.06 28.3566 6.112 28.4606 6.216C28.5646 6.312 28.6166 6.464 28.6166 6.672V11.472C28.6166 11.88 28.4206 12.084 28.0286 12.084C27.8446 12.084 27.7006 12.032 27.5966 11.928C27.4926 11.816 27.4406 11.664 27.4406 11.472V10.452L27.5966 10.716C27.4366 11.164 27.1806 11.508 26.8286 11.748C26.4766 11.988 26.0606 12.108 25.5806 12.108ZM32.3767 12.108C32.0247 12.108 31.6607 12.068 31.2847 11.988C30.9167 11.908 30.5767 11.772 30.2647 11.58C30.1607 11.508 30.0887 11.428 30.0487 11.34C30.0087 11.252 29.9927 11.164 30.0007 11.076C30.0167 10.98 30.0527 10.9 30.1087 10.836C30.1727 10.764 30.2487 10.72 30.3367 10.704C30.4327 10.688 30.5327 10.708 30.6367 10.764C30.9487 10.94 31.2487 11.064 31.5367 11.136C31.8247 11.2 32.1087 11.232 32.3887 11.232C32.8127 11.232 33.1327 11.156 33.3487 11.004C33.5647 10.852 33.6727 10.648 33.6727 10.392C33.6727 10.184 33.6007 10.024 33.4567 9.912C33.3127 9.792 33.0967 9.7 32.8087 9.636L31.6687 9.408C31.1727 9.304 30.7967 9.12 30.5407 8.856C30.2847 8.592 30.1567 8.256 30.1567 7.848C30.1567 7.48 30.2567 7.16 30.4567 6.888C30.6567 6.616 30.9367 6.408 31.2967 6.264C31.6567 6.112 32.0727 6.036 32.5447 6.036C32.8967 6.036 33.2287 6.08 33.5407 6.168C33.8527 6.256 34.1407 6.388 34.4047 6.564C34.5087 6.62 34.5767 6.696 34.6087 6.792C34.6407 6.88 34.6447 6.968 34.6207 7.056C34.6047 7.144 34.5647 7.224 34.5007 7.296C34.4367 7.36 34.3567 7.4 34.2607 7.416C34.1727 7.424 34.0727 7.4 33.9607 7.344C33.7207 7.192 33.4807 7.084 33.2407 7.02C33.0087 6.956 32.7767 6.924 32.5447 6.924C32.1207 6.924 31.8007 7.004 31.5847 7.164C31.3767 7.316 31.2727 7.524 31.2727 7.788C31.2727 7.988 31.3367 8.152 31.4647 8.28C31.5927 8.408 31.7927 8.5 32.0647 8.556L33.2047 8.784C33.7247 8.888 34.1167 9.064 34.3807 9.312C34.6527 9.56 34.7887 9.896 34.7887 10.32C34.7887 10.872 34.5687 11.308 34.1287 11.628C33.6887 11.948 33.1047 12.108 32.3767 12.108Z" fill="#64728C"/>
<rect y="70" width="102" height="28" rx="14" fill="#64728C" fill-opacity="0.1"/>
<path d="M11.608 88.084C11.408 88.084 11.252 88.028 11.14 87.916C11.036 87.804 10.984 87.648 10.984 87.448V80.092C10.984 79.884 11.036 79.728 11.14 79.624C11.252 79.512 11.408 79.456 11.608 79.456C11.808 79.456 11.96 79.512 12.064 79.624C12.176 79.728 12.232 79.884 12.232 80.092V87.448C12.232 87.648 12.18 87.804 12.076 87.916C11.972 88.028 11.816 88.084 11.608 88.084ZM14.6629 88.084C14.4709 88.084 14.3229 88.032 14.2189 87.928C14.1149 87.816 14.0629 87.664 14.0629 87.472V82.672C14.0629 82.472 14.1149 82.32 14.2189 82.216C14.3229 82.112 14.4669 82.06 14.6509 82.06C14.8429 82.06 14.9869 82.112 15.0829 82.216C15.1869 82.32 15.2389 82.472 15.2389 82.672V83.608L15.1069 83.392C15.2829 82.944 15.5589 82.608 15.9349 82.384C16.3109 82.152 16.7429 82.036 17.2309 82.036C17.6949 82.036 18.0789 82.124 18.3829 82.3C18.6949 82.468 18.9269 82.728 19.0789 83.08C19.2309 83.424 19.3069 83.86 19.3069 84.388V87.472C19.3069 87.664 19.2549 87.816 19.1509 87.928C19.0469 88.032 18.8989 88.084 18.7069 88.084C18.5069 88.084 18.3549 88.032 18.2509 87.928C18.1469 87.816 18.0949 87.664 18.0949 87.472V84.46C18.0949 83.956 17.9949 83.588 17.7949 83.356C17.6029 83.124 17.2989 83.008 16.8829 83.008C16.3949 83.008 16.0029 83.16 15.7069 83.464C15.4189 83.768 15.2749 84.176 15.2749 84.688V87.472C15.2749 87.88 15.0709 88.084 14.6629 88.084ZM24.8971 88.084C24.6971 88.084 24.5411 88.028 24.4291 87.916C24.3251 87.804 24.2731 87.648 24.2731 87.448V80.176C24.2731 79.968 24.3291 79.812 24.4411 79.708C24.5531 79.596 24.7091 79.54 24.9091 79.54H27.7771C28.6891 79.54 29.3931 79.768 29.8891 80.224C30.3851 80.672 30.6331 81.304 30.6331 82.12C30.6331 82.944 30.3851 83.584 29.8891 84.04C29.3931 84.488 28.6891 84.712 27.7771 84.712H25.5211V87.448C25.5211 87.648 25.4691 87.804 25.3651 87.916C25.2611 88.028 25.1051 88.084 24.8971 88.084ZM25.5211 83.716H27.5971C28.1971 83.716 28.6491 83.584 28.9531 83.32C29.2651 83.048 29.4211 82.648 29.4211 82.12C29.4211 81.6 29.2651 81.208 28.9531 80.944C28.6491 80.672 28.1971 80.536 27.5971 80.536H25.5211V83.716ZM32.3351 88.084C32.1351 88.084 31.9831 88.032 31.8791 87.928C31.7751 87.816 31.7231 87.664 31.7231 87.472V82.672C31.7231 82.472 31.7751 82.32 31.8791 82.216C31.9831 82.112 32.1271 82.06 32.3111 82.06C32.5031 82.06 32.6471 82.112 32.7431 82.216C32.8471 82.32 32.8991 82.472 32.8991 82.672V83.548H32.7791C32.9071 83.068 33.1431 82.704 33.4871 82.456C33.8311 82.208 34.2711 82.064 34.8071 82.024C34.9511 82.016 35.0631 82.052 35.1431 82.132C35.2311 82.212 35.2791 82.336 35.2871 82.504C35.3031 82.672 35.2671 82.808 35.1791 82.912C35.0911 83.008 34.9551 83.064 34.7711 83.08L34.5431 83.104C34.0231 83.152 33.6271 83.316 33.3551 83.596C33.0831 83.876 32.9471 84.26 32.9471 84.748V87.472C32.9471 87.664 32.8951 87.816 32.7911 87.928C32.6951 88.032 32.5431 88.084 32.3351 88.084ZM38.6616 88.108C38.0696 88.108 37.5576 87.984 37.1256 87.736C36.7016 87.488 36.3696 87.136 36.1296 86.68C35.8896 86.224 35.7696 85.688 35.7696 85.072C35.7696 84.6 35.8376 84.18 35.9736 83.812C36.1096 83.444 36.3016 83.128 36.5496 82.864C36.8056 82.592 37.1096 82.388 37.4616 82.252C37.8216 82.108 38.2216 82.036 38.6616 82.036C39.2456 82.036 39.7496 82.16 40.1736 82.408C40.6056 82.656 40.9416 83.008 41.1816 83.464C41.4216 83.912 41.5416 84.448 41.5416 85.072C41.5416 85.536 41.4736 85.956 41.3376 86.332C41.2016 86.708 41.0056 87.028 40.7496 87.292C40.5016 87.556 40.1976 87.76 39.8376 87.904C39.4856 88.04 39.0936 88.108 38.6616 88.108ZM38.6616 87.172C38.9896 87.172 39.2776 87.092 39.5256 86.932C39.7736 86.772 39.9656 86.536 40.1016 86.224C40.2456 85.912 40.3176 85.528 40.3176 85.072C40.3176 84.384 40.1656 83.864 39.8616 83.512C39.5576 83.16 39.1576 82.984 38.6616 82.984C38.3256 82.984 38.0336 83.064 37.7856 83.224C37.5376 83.376 37.3416 83.608 37.1976 83.92C37.0616 84.232 36.9936 84.616 36.9936 85.072C36.9936 85.752 37.1456 86.272 37.4496 86.632C37.7536 86.992 38.1576 87.172 38.6616 87.172ZM45.5548 90.268C45.1228 90.268 44.7028 90.224 44.2948 90.136C43.8948 90.048 43.5308 89.904 43.2028 89.704C43.0828 89.64 43.0028 89.56 42.9628 89.464C42.9228 89.376 42.9108 89.284 42.9268 89.188C42.9508 89.092 42.9948 89.008 43.0588 88.936C43.1228 88.864 43.1988 88.816 43.2868 88.792C43.3828 88.768 43.4828 88.784 43.5868 88.84C43.9388 89.032 44.2708 89.16 44.5828 89.224C44.9028 89.296 45.1988 89.332 45.4708 89.332C46.0308 89.332 46.4508 89.188 46.7308 88.9C47.0108 88.62 47.1508 88.204 47.1508 87.652V86.428H47.2588C47.1388 86.868 46.8868 87.216 46.5028 87.472C46.1188 87.728 45.6748 87.856 45.1708 87.856C44.6428 87.856 44.1828 87.736 43.7908 87.496C43.3988 87.248 43.0948 86.908 42.8788 86.476C42.6628 86.036 42.5548 85.524 42.5548 84.94C42.5548 84.5 42.6148 84.104 42.7348 83.752C42.8628 83.4 43.0388 83.096 43.2628 82.84C43.4948 82.584 43.7708 82.388 44.0908 82.252C44.4188 82.108 44.7788 82.036 45.1708 82.036C45.6828 82.036 46.1268 82.164 46.5028 82.42C46.8868 82.676 47.1348 83.024 47.2468 83.464L47.1268 83.668V82.672C47.1268 82.472 47.1788 82.32 47.2828 82.216C47.3948 82.112 47.5428 82.06 47.7268 82.06C47.9188 82.06 48.0668 82.112 48.1708 82.216C48.2748 82.32 48.3268 82.472 48.3268 82.672V87.508C48.3268 88.42 48.0908 89.108 47.6188 89.572C47.1468 90.036 46.4588 90.268 45.5548 90.268ZM45.4588 86.908C45.8108 86.908 46.1108 86.828 46.3588 86.668C46.6068 86.508 46.7988 86.28 46.9348 85.984C47.0708 85.688 47.1388 85.34 47.1388 84.94C47.1388 84.34 46.9868 83.864 46.6828 83.512C46.3868 83.16 45.9788 82.984 45.4588 82.984C45.1148 82.984 44.8188 83.064 44.5708 83.224C44.3228 83.384 44.1268 83.612 43.9828 83.908C43.8468 84.196 43.7788 84.54 43.7788 84.94C43.7788 85.548 43.9308 86.028 44.2348 86.38C44.5388 86.732 44.9468 86.908 45.4588 86.908ZM50.6398 88.084C50.4398 88.084 50.2878 88.032 50.1838 87.928C50.0798 87.816 50.0278 87.664 50.0278 87.472V82.672C50.0278 82.472 50.0798 82.32 50.1838 82.216C50.2878 82.112 50.4318 82.06 50.6158 82.06C50.8078 82.06 50.9518 82.112 51.0478 82.216C51.1518 82.32 51.2038 82.472 51.2038 82.672V83.548H51.0838C51.2118 83.068 51.4478 82.704 51.7918 82.456C52.1358 82.208 52.5758 82.064 53.1118 82.024C53.2558 82.016 53.3678 82.052 53.4478 82.132C53.5358 82.212 53.5838 82.336 53.5918 82.504C53.6078 82.672 53.5718 82.808 53.4838 82.912C53.3958 83.008 53.2598 83.064 53.0758 83.08L52.8478 83.104C52.3278 83.152 51.9318 83.316 51.6598 83.596C51.3878 83.876 51.2518 84.26 51.2518 84.748V87.472C51.2518 87.664 51.1998 87.816 51.0958 87.928C50.9998 88.032 50.8478 88.084 50.6398 88.084ZM57.1703 88.108C56.5303 88.108 55.9783 87.988 55.5143 87.748C55.0583 87.5 54.7023 87.152 54.4463 86.704C54.1983 86.248 54.0743 85.708 54.0743 85.084C54.0743 84.476 54.1983 83.944 54.4463 83.488C54.6943 83.032 55.0343 82.676 55.4663 82.42C55.8983 82.164 56.3903 82.036 56.9423 82.036C57.3503 82.036 57.7143 82.104 58.0343 82.24C58.3543 82.368 58.6263 82.56 58.8503 82.816C59.0823 83.064 59.2543 83.368 59.3663 83.728C59.4863 84.088 59.5463 84.492 59.5463 84.94C59.5463 85.076 59.5063 85.18 59.4263 85.252C59.3463 85.316 59.2263 85.348 59.0663 85.348H55.0343V84.604H58.7303L58.5263 84.772C58.5263 84.372 58.4663 84.032 58.3463 83.752C58.2343 83.472 58.0623 83.26 57.8303 83.116C57.6063 82.964 57.3263 82.888 56.9903 82.888C56.6143 82.888 56.2943 82.976 56.0303 83.152C55.7743 83.328 55.5783 83.572 55.4423 83.884C55.3063 84.196 55.2383 84.56 55.2383 84.976V85.048C55.2383 85.752 55.4023 86.284 55.7303 86.644C56.0663 86.996 56.5503 87.172 57.1823 87.172C57.4223 87.172 57.6743 87.14 57.9383 87.076C58.2103 87.012 58.4663 86.904 58.7063 86.752C58.8423 86.672 58.9623 86.636 59.0663 86.644C59.1783 86.652 59.2663 86.688 59.3303 86.752C59.4023 86.816 59.4463 86.896 59.4623 86.992C59.4783 87.088 59.4623 87.188 59.4143 87.292C59.3663 87.388 59.2823 87.476 59.1623 87.556C58.8903 87.74 58.5743 87.88 58.2143 87.976C57.8543 88.064 57.5063 88.108 57.1703 88.108ZM62.9196 88.108C62.5676 88.108 62.2036 88.068 61.8276 87.988C61.4596 87.908 61.1196 87.772 60.8076 87.58C60.7036 87.508 60.6316 87.428 60.5916 87.34C60.5516 87.252 60.5356 87.164 60.5436 87.076C60.5596 86.98 60.5956 86.9 60.6516 86.836C60.7156 86.764 60.7916 86.72 60.8796 86.704C60.9756 86.688 61.0756 86.708 61.1796 86.764C61.4916 86.94 61.7916 87.064 62.0796 87.136C62.3676 87.2 62.6516 87.232 62.9316 87.232C63.3556 87.232 63.6756 87.156 63.8916 87.004C64.1076 86.852 64.2156 86.648 64.2156 86.392C64.2156 86.184 64.1436 86.024 63.9996 85.912C63.8556 85.792 63.6396 85.7 63.3516 85.636L62.2116 85.408C61.7156 85.304 61.3396 85.12 61.0836 84.856C60.8276 84.592 60.6996 84.256 60.6996 83.848C60.6996 83.48 60.7996 83.16 60.9996 82.888C61.1996 82.616 61.4796 82.408 61.8396 82.264C62.1996 82.112 62.6156 82.036 63.0876 82.036C63.4396 82.036 63.7716 82.08 64.0836 82.168C64.3956 82.256 64.6836 82.388 64.9476 82.564C65.0516 82.62 65.1196 82.696 65.1516 82.792C65.1836 82.88 65.1876 82.968 65.1636 83.056C65.1476 83.144 65.1076 83.224 65.0436 83.296C64.9796 83.36 64.8996 83.4 64.8036 83.416C64.7156 83.424 64.6156 83.4 64.5036 83.344C64.2636 83.192 64.0236 83.084 63.7836 83.02C63.5516 82.956 63.3196 82.924 63.0876 82.924C62.6636 82.924 62.3436 83.004 62.1276 83.164C61.9196 83.316 61.8156 83.524 61.8156 83.788C61.8156 83.988 61.8796 84.152 62.0076 84.28C62.1356 84.408 62.3356 84.5 62.6076 84.556L63.7476 84.784C64.2676 84.888 64.6596 85.064 64.9236 85.312C65.1956 85.56 65.3316 85.896 65.3316 86.32C65.3316 86.872 65.1116 87.308 64.6716 87.628C64.2316 87.948 63.6476 88.108 62.9196 88.108ZM68.7321 88.108C68.3801 88.108 68.0161 88.068 67.6401 87.988C67.2721 87.908 66.9321 87.772 66.6201 87.58C66.5161 87.508 66.4441 87.428 66.4041 87.34C66.3641 87.252 66.3481 87.164 66.3561 87.076C66.3721 86.98 66.4081 86.9 66.4641 86.836C66.5281 86.764 66.6041 86.72 66.6921 86.704C66.7881 86.688 66.8881 86.708 66.9921 86.764C67.3041 86.94 67.6041 87.064 67.8921 87.136C68.1801 87.2 68.4641 87.232 68.7441 87.232C69.1681 87.232 69.4881 87.156 69.7041 87.004C69.9201 86.852 70.0281 86.648 70.0281 86.392C70.0281 86.184 69.9561 86.024 69.8121 85.912C69.6681 85.792 69.4521 85.7 69.1641 85.636L68.0241 85.408C67.5281 85.304 67.1521 85.12 66.8961 84.856C66.6401 84.592 66.5121 84.256 66.5121 83.848C66.5121 83.48 66.6121 83.16 66.8121 82.888C67.0121 82.616 67.2921 82.408 67.6521 82.264C68.0121 82.112 68.4281 82.036 68.9001 82.036C69.2521 82.036 69.5841 82.08 69.8961 82.168C70.2081 82.256 70.4961 82.388 70.7601 82.564C70.8641 82.62 70.9321 82.696 70.9641 82.792C70.9961 82.88 71.0001 82.968 70.9761 83.056C70.9601 83.144 70.9201 83.224 70.8561 83.296C70.7921 83.36 70.7121 83.4 70.6161 83.416C70.5281 83.424 70.4281 83.4 70.3161 83.344C70.0761 83.192 69.8361 83.084 69.5961 83.02C69.3641 82.956 69.1321 82.924 68.9001 82.924C68.4761 82.924 68.1561 83.004 67.9401 83.164C67.7321 83.316 67.6281 83.524 67.6281 83.788C67.6281 83.988 67.6921 84.152 67.8201 84.28C67.9481 84.408 68.1481 84.5 68.4201 84.556L69.5601 84.784C70.0801 84.888 70.4721 85.064 70.7361 85.312C71.0081 85.56 71.1441 85.896 71.1441 86.32C71.1441 86.872 70.9241 87.308 70.4841 87.628C70.0441 87.948 69.4601 88.108 68.7321 88.108Z" fill="#64728C"/>
<rect x="77" y="74" width="20" height="20" rx="10" fill="white"/>
<path d="M89.8601 79.3671C90.3497 78.8776 91.1433 78.8776 91.6329 79.3671C92.1224 79.8567 92.1224 80.6503 91.6329 81.1399L84.1399 88.6329C83.6503 89.1224 82.8567 89.1224 82.3671 88.6329C81.8776 88.1433 81.8776 87.3497 82.3671 86.8601L89.8601 79.3671Z" fill="#64728C"/>
<path d="M82.3671 81.1399C81.8776 80.6503 81.8776 79.8567 82.3671 79.3671C82.8567 78.8776 83.6503 78.8776 84.1399 79.3671L91.6329 86.8601C92.1224 87.3497 92.1224 88.1433 91.6329 88.6329C91.1433 89.1224 90.3497 89.1224 89.8601 88.6329L82.3671 81.1399Z" fill="#64728C"/>
<rect x="108" y="70" width="100" height="28" rx="14" fill="#64728C" fill-opacity="0.1"/>
<path d="M122.776 88.108C121.92 88.108 121.188 87.932 120.58 87.58C119.972 87.228 119.504 86.728 119.176 86.08C118.856 85.424 118.696 84.652 118.696 83.764C118.696 83.1 118.788 82.504 118.972 81.976C119.156 81.44 119.42 80.984 119.764 80.608C120.116 80.224 120.544 79.932 121.048 79.732C121.56 79.532 122.136 79.432 122.776 79.432C123.248 79.432 123.7 79.496 124.132 79.624C124.572 79.752 124.952 79.936 125.272 80.176C125.408 80.264 125.496 80.372 125.536 80.5C125.584 80.62 125.592 80.736 125.56 80.848C125.536 80.96 125.484 81.056 125.404 81.136C125.324 81.208 125.22 81.248 125.092 81.256C124.972 81.264 124.84 81.22 124.696 81.124C124.432 80.924 124.14 80.776 123.82 80.68C123.5 80.584 123.164 80.536 122.812 80.536C122.204 80.536 121.692 80.664 121.276 80.92C120.86 81.168 120.544 81.532 120.328 82.012C120.112 82.492 120.004 83.076 120.004 83.764C120.004 84.452 120.112 85.04 120.328 85.528C120.544 86.008 120.86 86.376 121.276 86.632C121.692 86.88 122.204 87.004 122.812 87.004C123.164 87.004 123.5 86.956 123.82 86.86C124.148 86.756 124.456 86.604 124.744 86.404C124.888 86.316 125.016 86.276 125.128 86.284C125.248 86.292 125.348 86.332 125.428 86.404C125.508 86.476 125.56 86.568 125.584 86.68C125.616 86.784 125.612 86.896 125.572 87.016C125.54 87.128 125.464 87.224 125.344 87.304C125.016 87.568 124.628 87.768 124.18 87.904C123.732 88.04 123.264 88.108 122.776 88.108ZM129.084 88.108C128.492 88.108 127.98 87.984 127.548 87.736C127.124 87.488 126.792 87.136 126.552 86.68C126.312 86.224 126.192 85.688 126.192 85.072C126.192 84.6 126.26 84.18 126.396 83.812C126.532 83.444 126.724 83.128 126.972 82.864C127.228 82.592 127.532 82.388 127.884 82.252C128.244 82.108 128.644 82.036 129.084 82.036C129.668 82.036 130.172 82.16 130.596 82.408C131.028 82.656 131.364 83.008 131.604 83.464C131.844 83.912 131.964 84.448 131.964 85.072C131.964 85.536 131.896 85.956 131.76 86.332C131.624 86.708 131.428 87.028 131.172 87.292C130.924 87.556 130.62 87.76 130.26 87.904C129.908 88.04 129.516 88.108 129.084 88.108ZM129.084 87.172C129.412 87.172 129.7 87.092 129.948 86.932C130.196 86.772 130.388 86.536 130.524 86.224C130.668 85.912 130.74 85.528 130.74 85.072C130.74 84.384 130.588 83.864 130.284 83.512C129.98 83.16 129.58 82.984 129.084 82.984C128.748 82.984 128.456 83.064 128.208 83.224C127.96 83.376 127.764 83.608 127.62 83.92C127.484 84.232 127.416 84.616 127.416 85.072C127.416 85.752 127.568 86.272 127.872 86.632C128.176 86.992 128.58 87.172 129.084 87.172ZM133.949 88.084C133.757 88.084 133.609 88.032 133.505 87.928C133.401 87.816 133.349 87.664 133.349 87.472V82.672C133.349 82.472 133.401 82.32 133.505 82.216C133.609 82.112 133.753 82.06 133.937 82.06C134.129 82.06 134.273 82.112 134.369 82.216C134.473 82.32 134.525 82.472 134.525 82.672V83.656L134.393 83.392C134.553 82.968 134.801 82.636 135.137 82.396C135.473 82.156 135.877 82.036 136.349 82.036C136.837 82.036 137.233 82.152 137.537 82.384C137.841 82.616 138.049 82.972 138.161 83.452H137.993C138.145 83.012 138.405 82.668 138.773 82.42C139.141 82.164 139.569 82.036 140.057 82.036C140.505 82.036 140.873 82.124 141.161 82.3C141.449 82.468 141.665 82.728 141.809 83.08C141.953 83.424 142.025 83.86 142.025 84.388V87.472C142.025 87.664 141.969 87.816 141.857 87.928C141.753 88.032 141.605 88.084 141.413 88.084C141.221 88.084 141.073 88.032 140.969 87.928C140.865 87.816 140.813 87.664 140.813 87.472V84.448C140.813 83.952 140.725 83.588 140.549 83.356C140.381 83.124 140.101 83.008 139.709 83.008C139.269 83.008 138.921 83.16 138.665 83.464C138.409 83.768 138.281 84.188 138.281 84.724V87.472C138.281 87.664 138.229 87.816 138.125 87.928C138.021 88.032 137.873 88.084 137.681 88.084C137.489 88.084 137.337 88.032 137.225 87.928C137.121 87.816 137.069 87.664 137.069 87.472V84.448C137.069 83.952 136.985 83.588 136.817 83.356C136.649 83.124 136.369 83.008 135.977 83.008C135.537 83.008 135.189 83.16 134.933 83.464C134.685 83.768 134.561 84.188 134.561 84.724V87.472C134.561 87.88 134.357 88.084 133.949 88.084ZM144.319 90.244C144.127 90.244 143.979 90.192 143.875 90.088C143.771 89.984 143.719 89.832 143.719 89.632V82.672C143.719 82.472 143.771 82.32 143.875 82.216C143.979 82.112 144.123 82.06 144.307 82.06C144.499 82.06 144.647 82.112 144.751 82.216C144.855 82.32 144.907 82.472 144.907 82.672V83.716L144.775 83.464C144.903 83.032 145.155 82.688 145.531 82.432C145.907 82.168 146.351 82.036 146.863 82.036C147.383 82.036 147.835 82.16 148.219 82.408C148.611 82.656 148.911 83.004 149.119 83.452C149.335 83.9 149.443 84.44 149.443 85.072C149.443 85.688 149.335 86.228 149.119 86.692C148.911 87.148 148.615 87.5 148.231 87.748C147.847 87.988 147.391 88.108 146.863 88.108C146.359 88.108 145.919 87.98 145.543 87.724C145.167 87.468 144.915 87.128 144.787 86.704H144.931V89.632C144.931 89.832 144.875 89.984 144.763 90.088C144.659 90.192 144.511 90.244 144.319 90.244ZM146.563 87.172C146.899 87.172 147.191 87.092 147.439 86.932C147.687 86.772 147.879 86.536 148.015 86.224C148.151 85.912 148.219 85.528 148.219 85.072C148.219 84.384 148.067 83.864 147.763 83.512C147.467 83.16 147.067 82.984 146.563 82.984C146.235 82.984 145.943 83.064 145.687 83.224C145.439 83.376 145.247 83.608 145.111 83.92C144.975 84.232 144.907 84.616 144.907 85.072C144.907 85.752 145.059 86.272 145.363 86.632C145.667 86.992 146.067 87.172 146.563 87.172ZM152.693 88.108C152.069 88.108 151.597 87.928 151.277 87.568C150.965 87.2 150.809 86.672 150.809 85.984V80.068C150.809 79.868 150.861 79.716 150.965 79.612C151.069 79.508 151.217 79.456 151.409 79.456C151.601 79.456 151.749 79.508 151.853 79.612C151.965 79.716 152.021 79.868 152.021 80.068V85.912C152.021 86.312 152.101 86.612 152.261 86.812C152.429 87.004 152.669 87.1 152.981 87.1C153.053 87.1 153.117 87.1 153.173 87.1C153.229 87.092 153.285 87.084 153.341 87.076C153.437 87.068 153.505 87.096 153.545 87.16C153.585 87.216 153.605 87.336 153.605 87.52C153.605 87.688 153.569 87.82 153.497 87.916C153.425 88.004 153.309 88.06 153.149 88.084C153.077 88.092 153.001 88.096 152.921 88.096C152.841 88.104 152.765 88.108 152.693 88.108ZM157.166 88.108C156.526 88.108 155.974 87.988 155.51 87.748C155.054 87.5 154.698 87.152 154.442 86.704C154.194 86.248 154.07 85.708 154.07 85.084C154.07 84.476 154.194 83.944 154.442 83.488C154.69 83.032 155.03 82.676 155.462 82.42C155.894 82.164 156.386 82.036 156.938 82.036C157.346 82.036 157.71 82.104 158.03 82.24C158.35 82.368 158.622 82.56 158.846 82.816C159.078 83.064 159.25 83.368 159.362 83.728C159.482 84.088 159.542 84.492 159.542 84.94C159.542 85.076 159.502 85.18 159.422 85.252C159.342 85.316 159.222 85.348 159.062 85.348H155.03V84.604H158.726L158.522 84.772C158.522 84.372 158.462 84.032 158.342 83.752C158.23 83.472 158.058 83.26 157.826 83.116C157.602 82.964 157.322 82.888 156.986 82.888C156.61 82.888 156.29 82.976 156.026 83.152C155.77 83.328 155.574 83.572 155.438 83.884C155.302 84.196 155.234 84.56 155.234 84.976V85.048C155.234 85.752 155.398 86.284 155.726 86.644C156.062 86.996 156.546 87.172 157.178 87.172C157.418 87.172 157.67 87.14 157.934 87.076C158.206 87.012 158.462 86.904 158.702 86.752C158.838 86.672 158.958 86.636 159.062 86.644C159.174 86.652 159.262 86.688 159.326 86.752C159.398 86.816 159.442 86.896 159.458 86.992C159.474 87.088 159.458 87.188 159.41 87.292C159.362 87.388 159.278 87.476 159.158 87.556C158.886 87.74 158.57 87.88 158.21 87.976C157.85 88.064 157.502 88.108 157.166 88.108ZM163.348 88.108C162.868 88.108 162.464 88.024 162.136 87.856C161.808 87.688 161.564 87.44 161.404 87.112C161.244 86.784 161.164 86.384 161.164 85.912V83.08H160.444C160.284 83.08 160.16 83.04 160.072 82.96C159.984 82.872 159.94 82.756 159.94 82.612C159.94 82.46 159.984 82.344 160.072 82.264C160.16 82.184 160.284 82.144 160.444 82.144H161.164V80.908C161.164 80.708 161.216 80.556 161.32 80.452C161.432 80.348 161.584 80.296 161.776 80.296C161.968 80.296 162.116 80.348 162.22 80.452C162.324 80.556 162.376 80.708 162.376 80.908V82.144H163.78C163.94 82.144 164.064 82.184 164.152 82.264C164.24 82.344 164.284 82.46 164.284 82.612C164.284 82.756 164.24 82.872 164.152 82.96C164.064 83.04 163.94 83.08 163.78 83.08H162.376V85.816C162.376 86.24 162.464 86.56 162.64 86.776C162.824 86.992 163.12 87.1 163.528 87.1C163.672 87.1 163.796 87.088 163.9 87.064C164.012 87.032 164.104 87.012 164.176 87.004C164.264 87.004 164.336 87.036 164.392 87.1C164.448 87.156 164.476 87.268 164.476 87.436C164.476 87.556 164.452 87.668 164.404 87.772C164.364 87.876 164.288 87.944 164.176 87.976C164.08 88.008 163.948 88.036 163.78 88.06C163.62 88.092 163.476 88.108 163.348 88.108ZM167.924 88.108C167.284 88.108 166.732 87.988 166.268 87.748C165.812 87.5 165.456 87.152 165.2 86.704C164.952 86.248 164.828 85.708 164.828 85.084C164.828 84.476 164.952 83.944 165.2 83.488C165.448 83.032 165.788 82.676 166.22 82.42C166.652 82.164 167.144 82.036 167.696 82.036C168.104 82.036 168.468 82.104 168.788 82.24C169.108 82.368 169.38 82.56 169.604 82.816C169.836 83.064 170.008 83.368 170.12 83.728C170.24 84.088 170.3 84.492 170.3 84.94C170.3 85.076 170.26 85.18 170.18 85.252C170.1 85.316 169.98 85.348 169.82 85.348H165.788V84.604H169.484L169.28 84.772C169.28 84.372 169.22 84.032 169.1 83.752C168.988 83.472 168.816 83.26 168.584 83.116C168.36 82.964 168.08 82.888 167.744 82.888C167.368 82.888 167.048 82.976 166.784 83.152C166.528 83.328 166.332 83.572 166.196 83.884C166.06 84.196 165.992 84.56 165.992 84.976V85.048C165.992 85.752 166.156 86.284 166.484 86.644C166.82 86.996 167.304 87.172 167.936 87.172C168.176 87.172 168.428 87.14 168.692 87.076C168.964 87.012 169.22 86.904 169.46 86.752C169.596 86.672 169.716 86.636 169.82 86.644C169.932 86.652 170.02 86.688 170.084 86.752C170.156 86.816 170.2 86.896 170.216 86.992C170.232 87.088 170.216 87.188 170.168 87.292C170.12 87.388 170.036 87.476 169.916 87.556C169.644 87.74 169.328 87.88 168.968 87.976C168.608 88.064 168.26 88.108 167.924 88.108ZM173.854 88.108C173.342 88.108 172.89 87.988 172.498 87.748C172.114 87.5 171.814 87.148 171.598 86.692C171.382 86.228 171.274 85.688 171.274 85.072C171.274 84.44 171.382 83.9 171.598 83.452C171.814 83.004 172.114 82.656 172.498 82.408C172.89 82.16 173.342 82.036 173.854 82.036C174.366 82.036 174.806 82.164 175.174 82.42C175.55 82.668 175.802 83.004 175.93 83.428H175.798V80.068C175.798 79.868 175.85 79.716 175.954 79.612C176.058 79.508 176.206 79.456 176.398 79.456C176.59 79.456 176.738 79.508 176.842 79.612C176.954 79.716 177.01 79.868 177.01 80.068V87.472C177.01 87.664 176.958 87.816 176.854 87.928C176.75 88.032 176.602 88.084 176.41 88.084C176.218 88.084 176.07 88.032 175.966 87.928C175.862 87.816 175.81 87.664 175.81 87.472V86.416L175.942 86.68C175.814 87.112 175.562 87.46 175.186 87.724C174.818 87.98 174.374 88.108 173.854 88.108ZM174.166 87.172C174.494 87.172 174.782 87.092 175.03 86.932C175.278 86.772 175.47 86.536 175.606 86.224C175.75 85.912 175.822 85.528 175.822 85.072C175.822 84.384 175.67 83.864 175.366 83.512C175.062 83.16 174.662 82.984 174.166 82.984C173.83 82.984 173.538 83.064 173.29 83.224C173.042 83.376 172.846 83.608 172.702 83.92C172.566 84.232 172.498 84.616 172.498 85.072C172.498 85.752 172.65 86.272 172.954 86.632C173.258 86.992 173.662 87.172 174.166 87.172Z" fill="#64728C"/>
<rect x="183" y="74" width="20" height="20" rx="10" fill="white"/>
<path d="M195.86 79.3671C196.35 78.8776 197.143 78.8776 197.633 79.3671C198.122 79.8567 198.122 80.6503 197.633 81.1399L190.14 88.6329C189.65 89.1224 188.857 89.1224 188.367 88.6329C187.878 88.1433 187.878 87.3497 188.367 86.8601L195.86 79.3671Z" fill="#64728C"/>
<path d="M188.367 81.1399C187.878 80.6503 187.878 79.8567 188.367 79.3671C188.857 78.8776 189.65 78.8776 190.14 79.3671L197.633 86.8601C198.122 87.3497 198.122 88.1433 197.633 88.6329C197.143 89.1224 196.35 89.1224 195.86 88.6329L188.367 81.1399Z" fill="#64728C"/>
<rect x="214" y="70" width="78" height="28" rx="14" fill="#64728C" fill-opacity="0.1"/>
<path d="M228.776 88.108C227.92 88.108 227.188 87.932 226.58 87.58C225.972 87.228 225.504 86.728 225.176 86.08C224.856 85.424 224.696 84.652 224.696 83.764C224.696 83.1 224.788 82.504 224.972 81.976C225.156 81.44 225.42 80.984 225.764 80.608C226.116 80.224 226.544 79.932 227.048 79.732C227.56 79.532 228.136 79.432 228.776 79.432C229.248 79.432 229.7 79.496 230.132 79.624C230.572 79.752 230.952 79.936 231.272 80.176C231.408 80.264 231.496 80.372 231.536 80.5C231.584 80.62 231.592 80.736 231.56 80.848C231.536 80.96 231.484 81.056 231.404 81.136C231.324 81.208 231.22 81.248 231.092 81.256C230.972 81.264 230.84 81.22 230.696 81.124C230.432 80.924 230.14 80.776 229.82 80.68C229.5 80.584 229.164 80.536 228.812 80.536C228.204 80.536 227.692 80.664 227.276 80.92C226.86 81.168 226.544 81.532 226.328 82.012C226.112 82.492 226.004 83.076 226.004 83.764C226.004 84.452 226.112 85.04 226.328 85.528C226.544 86.008 226.86 86.376 227.276 86.632C227.692 86.88 228.204 87.004 228.812 87.004C229.164 87.004 229.5 86.956 229.82 86.86C230.148 86.756 230.456 86.604 230.744 86.404C230.888 86.316 231.016 86.276 231.128 86.284C231.248 86.292 231.348 86.332 231.428 86.404C231.508 86.476 231.56 86.568 231.584 86.68C231.616 86.784 231.612 86.896 231.572 87.016C231.54 87.128 231.464 87.224 231.344 87.304C231.016 87.568 230.628 87.768 230.18 87.904C229.732 88.04 229.264 88.108 228.776 88.108ZM234.845 88.108C234.221 88.108 233.749 87.928 233.429 87.568C233.117 87.2 232.961 86.672 232.961 85.984V80.068C232.961 79.868 233.013 79.716 233.117 79.612C233.221 79.508 233.369 79.456 233.561 79.456C233.753 79.456 233.901 79.508 234.005 79.612C234.117 79.716 234.173 79.868 234.173 80.068V85.912C234.173 86.312 234.253 86.612 234.413 86.812C234.581 87.004 234.821 87.1 235.133 87.1C235.205 87.1 235.269 87.1 235.325 87.1C235.381 87.092 235.437 87.084 235.493 87.076C235.589 87.068 235.657 87.096 235.697 87.16C235.737 87.216 235.757 87.336 235.757 87.52C235.757 87.688 235.721 87.82 235.649 87.916C235.577 88.004 235.461 88.06 235.301 88.084C235.229 88.092 235.153 88.096 235.073 88.096C234.993 88.104 234.917 88.108 234.845 88.108ZM239.115 88.108C238.523 88.108 238.011 87.984 237.579 87.736C237.155 87.488 236.823 87.136 236.583 86.68C236.343 86.224 236.223 85.688 236.223 85.072C236.223 84.6 236.291 84.18 236.427 83.812C236.563 83.444 236.755 83.128 237.003 82.864C237.259 82.592 237.563 82.388 237.915 82.252C238.275 82.108 238.675 82.036 239.115 82.036C239.699 82.036 240.203 82.16 240.627 82.408C241.059 82.656 241.395 83.008 241.635 83.464C241.875 83.912 241.995 84.448 241.995 85.072C241.995 85.536 241.927 85.956 241.791 86.332C241.655 86.708 241.459 87.028 241.203 87.292C240.955 87.556 240.651 87.76 240.291 87.904C239.939 88.04 239.547 88.108 239.115 88.108ZM239.115 87.172C239.443 87.172 239.731 87.092 239.979 86.932C240.227 86.772 240.419 86.536 240.555 86.224C240.699 85.912 240.771 85.528 240.771 85.072C240.771 84.384 240.619 83.864 240.315 83.512C240.011 83.16 239.611 82.984 239.115 82.984C238.779 82.984 238.487 83.064 238.239 83.224C237.991 83.376 237.795 83.608 237.651 83.92C237.515 84.232 237.447 84.616 237.447 85.072C237.447 85.752 237.599 86.272 237.903 86.632C238.207 86.992 238.611 87.172 239.115 87.172ZM245.408 88.108C245.056 88.108 244.692 88.068 244.316 87.988C243.948 87.908 243.608 87.772 243.296 87.58C243.192 87.508 243.12 87.428 243.08 87.34C243.04 87.252 243.024 87.164 243.032 87.076C243.048 86.98 243.084 86.9 243.14 86.836C243.204 86.764 243.28 86.72 243.368 86.704C243.464 86.688 243.564 86.708 243.668 86.764C243.98 86.94 244.28 87.064 244.568 87.136C244.856 87.2 245.14 87.232 245.42 87.232C245.844 87.232 246.164 87.156 246.38 87.004C246.596 86.852 246.704 86.648 246.704 86.392C246.704 86.184 246.632 86.024 246.488 85.912C246.344 85.792 246.128 85.7 245.84 85.636L244.7 85.408C244.204 85.304 243.828 85.12 243.572 84.856C243.316 84.592 243.188 84.256 243.188 83.848C243.188 83.48 243.288 83.16 243.488 82.888C243.688 82.616 243.968 82.408 244.328 82.264C244.688 82.112 245.104 82.036 245.576 82.036C245.928 82.036 246.26 82.08 246.572 82.168C246.884 82.256 247.172 82.388 247.436 82.564C247.54 82.62 247.608 82.696 247.64 82.792C247.672 82.88 247.676 82.968 247.652 83.056C247.636 83.144 247.596 83.224 247.532 83.296C247.468 83.36 247.388 83.4 247.292 83.416C247.204 83.424 247.104 83.4 246.992 83.344C246.752 83.192 246.512 83.084 246.272 83.02C246.04 82.956 245.808 82.924 245.576 82.924C245.152 82.924 244.832 83.004 244.616 83.164C244.408 83.316 244.304 83.524 244.304 83.788C244.304 83.988 244.368 84.152 244.496 84.28C244.624 84.408 244.824 84.5 245.096 84.556L246.236 84.784C246.756 84.888 247.148 85.064 247.412 85.312C247.684 85.56 247.82 85.896 247.82 86.32C247.82 86.872 247.6 87.308 247.16 87.628C246.72 87.948 246.136 88.108 245.408 88.108ZM251.916 88.108C251.276 88.108 250.724 87.988 250.26 87.748C249.804 87.5 249.448 87.152 249.192 86.704C248.944 86.248 248.82 85.708 248.82 85.084C248.82 84.476 248.944 83.944 249.192 83.488C249.44 83.032 249.78 82.676 250.212 82.42C250.644 82.164 251.136 82.036 251.688 82.036C252.096 82.036 252.46 82.104 252.78 82.24C253.1 82.368 253.372 82.56 253.596 82.816C253.828 83.064 254 83.368 254.112 83.728C254.232 84.088 254.292 84.492 254.292 84.94C254.292 85.076 254.252 85.18 254.172 85.252C254.092 85.316 253.972 85.348 253.812 85.348H249.78V84.604H253.476L253.272 84.772C253.272 84.372 253.212 84.032 253.092 83.752C252.98 83.472 252.808 83.26 252.576 83.116C252.352 82.964 252.072 82.888 251.736 82.888C251.36 82.888 251.04 82.976 250.776 83.152C250.52 83.328 250.324 83.572 250.188 83.884C250.052 84.196 249.984 84.56 249.984 84.976V85.048C249.984 85.752 250.148 86.284 250.476 86.644C250.812 86.996 251.296 87.172 251.928 87.172C252.168 87.172 252.42 87.14 252.684 87.076C252.956 87.012 253.212 86.904 253.452 86.752C253.588 86.672 253.708 86.636 253.812 86.644C253.924 86.652 254.012 86.688 254.076 86.752C254.148 86.816 254.192 86.896 254.208 86.992C254.224 87.088 254.208 87.188 254.16 87.292C254.112 87.388 254.028 87.476 253.908 87.556C253.636 87.74 253.32 87.88 252.96 87.976C252.6 88.064 252.252 88.108 251.916 88.108ZM257.846 88.108C257.334 88.108 256.882 87.988 256.49 87.748C256.106 87.5 255.806 87.148 255.59 86.692C255.374 86.228 255.266 85.688 255.266 85.072C255.266 84.44 255.374 83.9 255.59 83.452C255.806 83.004 256.106 82.656 256.49 82.408C256.882 82.16 257.334 82.036 257.846 82.036C258.358 82.036 258.798 82.164 259.166 82.42C259.542 82.668 259.794 83.004 259.922 83.428H259.79V80.068C259.79 79.868 259.842 79.716 259.946 79.612C260.05 79.508 260.198 79.456 260.39 79.456C260.582 79.456 260.73 79.508 260.834 79.612C260.946 79.716 261.002 79.868 261.002 80.068V87.472C261.002 87.664 260.95 87.816 260.846 87.928C260.742 88.032 260.594 88.084 260.402 88.084C260.21 88.084 260.062 88.032 259.958 87.928C259.854 87.816 259.802 87.664 259.802 87.472V86.416L259.934 86.68C259.806 87.112 259.554 87.46 259.178 87.724C258.81 87.98 258.366 88.108 257.846 88.108ZM258.158 87.172C258.486 87.172 258.774 87.092 259.022 86.932C259.27 86.772 259.462 86.536 259.598 86.224C259.742 85.912 259.814 85.528 259.814 85.072C259.814 84.384 259.662 83.864 259.358 83.512C259.054 83.16 258.654 82.984 258.158 82.984C257.822 82.984 257.53 83.064 257.282 83.224C257.034 83.376 256.838 83.608 256.694 83.92C256.558 84.232 256.49 84.616 256.49 85.072C256.49 85.752 256.642 86.272 256.946 86.632C257.25 86.992 257.654 87.172 258.158 87.172Z" fill="#64728C"/>
<rect x="267" y="74" width="20" height="20" rx="10" fill="white"/>
<path d="M279.86 79.3671C280.35 78.8776 281.143 78.8776 281.633 79.3671C282.122 79.8567 282.122 80.6503 281.633 81.1399L274.14 88.6329C273.65 89.1224 272.857 89.1224 272.367 88.6329C271.878 88.1433 271.878 87.3497 272.367 86.8601L279.86 79.3671Z" fill="#64728C"/>
<path d="M272.367 81.1399C271.878 80.6503 271.878 79.8567 272.367 79.3671C272.857 78.8776 273.65 78.8776 274.14 79.3671L281.633 86.8601C282.122 87.3497 282.122 88.1433 281.633 88.6329C281.143 89.1224 280.35 89.1224 279.86 88.6329L272.367 81.1399Z" fill="#64728C"/>
</svg>
