<svg width="300" height="66" viewBox="0 0 300 66" fill="none" xmlns="http://www.w3.org/2000/svg">
<rect x="0.5" y="21.5" width="299" height="44" rx="11.5" stroke="#E8EAEF"/>
<path d="M11.584 47.5C11.408 47.5 11.272 47.456 11.176 47.368C11.088 47.272 11.044 47.136 11.044 46.96V39.58C11.044 39.404 11.088 39.272 11.176 39.184C11.272 39.088 11.408 39.04 11.584 39.04H16.048C16.184 39.04 16.288 39.076 16.36 39.148C16.432 39.22 16.468 39.32 16.468 39.448C16.468 39.584 16.432 39.688 16.36 39.76C16.288 39.832 16.184 39.868 16.048 39.868H12.004V42.796H15.796C15.932 42.796 16.036 42.832 16.108 42.904C16.18 42.968 16.216 43.068 16.216 43.204C16.216 43.34 16.18 43.444 16.108 43.516C16.036 43.588 15.932 43.624 15.796 43.624H12.004V46.672H16.048C16.184 46.672 16.288 46.708 16.36 46.78C16.432 46.852 16.468 46.952 16.468 47.08C16.468 47.216 16.432 47.32 16.36 47.392C16.288 47.464 16.184 47.5 16.048 47.5H11.584ZM18.4121 47.584C18.2521 47.584 18.1321 47.54 18.0521 47.452C17.9721 47.364 17.9321 47.24 17.9321 47.08V42.076C17.9321 41.916 17.9721 41.796 18.0521 41.716C18.1321 41.628 18.2481 41.584 18.4001 41.584C18.5521 41.584 18.6681 41.628 18.7481 41.716C18.8361 41.796 18.8801 41.916 18.8801 42.076V43.132L18.7481 42.964C18.9001 42.516 19.1441 42.172 19.4801 41.932C19.8241 41.684 20.2321 41.56 20.7041 41.56C21.2001 41.56 21.6001 41.68 21.9041 41.92C22.2161 42.152 22.4241 42.516 22.5281 43.012H22.3481C22.4921 42.564 22.7481 42.212 23.1161 41.956C23.4921 41.692 23.9281 41.56 24.4241 41.56C24.8641 41.56 25.2241 41.644 25.5041 41.812C25.7921 41.98 26.0081 42.236 26.1521 42.58C26.2961 42.916 26.3681 43.344 26.3681 43.864V47.08C26.3681 47.24 26.3241 47.364 26.2361 47.452C26.1561 47.54 26.0361 47.584 25.8761 47.584C25.7241 47.584 25.6041 47.54 25.5161 47.452C25.4361 47.364 25.3961 47.24 25.3961 47.08V43.912C25.3961 43.376 25.3041 42.984 25.1201 42.736C24.9361 42.48 24.6241 42.352 24.1841 42.352C23.7041 42.352 23.3241 42.52 23.0441 42.856C22.7721 43.184 22.6361 43.632 22.6361 44.2V47.08C22.6361 47.24 22.5921 47.364 22.5041 47.452C22.4241 47.54 22.3041 47.584 22.1441 47.584C21.9921 47.584 21.8721 47.54 21.7841 47.452C21.7041 47.364 21.6641 47.24 21.6641 47.08V43.912C21.6641 43.376 21.5681 42.984 21.3761 42.736C21.1921 42.48 20.8841 42.352 20.4521 42.352C19.9721 42.352 19.5921 42.52 19.3121 42.856C19.0401 43.184 18.9041 43.632 18.9041 44.2V47.08C18.9041 47.416 18.7401 47.584 18.4121 47.584ZM28.6654 49.744C28.5054 49.744 28.3854 49.7 28.3054 49.612C28.2254 49.532 28.1854 49.412 28.1854 49.252V42.076C28.1854 41.916 28.2254 41.796 28.3054 41.716C28.3854 41.628 28.5014 41.584 28.6534 41.584C28.8134 41.584 28.9334 41.628 29.0134 41.716C29.1014 41.796 29.1454 41.916 29.1454 42.076V43.216L29.0134 43.048C29.1414 42.592 29.3934 42.232 29.7694 41.968C30.1534 41.696 30.6094 41.56 31.1374 41.56C31.6574 41.56 32.1094 41.684 32.4934 41.932C32.8854 42.172 33.1854 42.52 33.3934 42.976C33.6094 43.424 33.7174 43.96 33.7174 44.584C33.7174 45.2 33.6094 45.736 33.3934 46.192C33.1854 46.64 32.8894 46.988 32.5054 47.236C32.1214 47.484 31.6654 47.608 31.1374 47.608C30.6094 47.608 30.1574 47.476 29.7814 47.212C29.4054 46.94 29.1494 46.58 29.0134 46.132H29.1574V49.252C29.1574 49.412 29.1134 49.532 29.0254 49.612C28.9374 49.7 28.8174 49.744 28.6654 49.744ZM30.9334 46.828C31.3014 46.828 31.6174 46.74 31.8814 46.564C32.1534 46.388 32.3614 46.132 32.5054 45.796C32.6574 45.46 32.7334 45.056 32.7334 44.584C32.7334 43.856 32.5694 43.3 32.2414 42.916C31.9214 42.532 31.4854 42.34 30.9334 42.34C30.5734 42.34 30.2574 42.428 29.9854 42.604C29.7134 42.772 29.5014 43.024 29.3494 43.36C29.2054 43.688 29.1334 44.096 29.1334 44.584C29.1334 45.304 29.2974 45.86 29.6254 46.252C29.9534 46.636 30.3894 46.828 30.9334 46.828ZM36.9575 47.608C36.3815 47.608 35.9415 47.432 35.6375 47.08C35.3335 46.728 35.1815 46.224 35.1815 45.568V39.448C35.1815 39.288 35.2215 39.168 35.3015 39.088C35.3815 39 35.5015 38.956 35.6615 38.956C35.8135 38.956 35.9335 39 36.0215 39.088C36.1095 39.168 36.1535 39.288 36.1535 39.448V45.496C36.1535 45.928 36.2375 46.252 36.4055 46.468C36.5815 46.676 36.8375 46.78 37.1735 46.78C37.2455 46.78 37.3095 46.776 37.3655 46.768C37.4215 46.76 37.4775 46.756 37.5335 46.756C37.6215 46.748 37.6815 46.768 37.7135 46.816C37.7535 46.864 37.7735 46.96 37.7735 47.104C37.7735 47.248 37.7415 47.356 37.6775 47.428C37.6135 47.5 37.5095 47.548 37.3655 47.572C37.3015 47.58 37.2335 47.588 37.1615 47.596C37.0895 47.604 37.0215 47.608 36.9575 47.608ZM41.0977 47.608C40.5297 47.608 40.0377 47.484 39.6217 47.236C39.2057 46.988 38.8817 46.64 38.6497 46.192C38.4257 45.736 38.3137 45.2 38.3137 44.584C38.3137 44.12 38.3777 43.704 38.5057 43.336C38.6337 42.96 38.8217 42.64 39.0697 42.376C39.3177 42.112 39.6097 41.912 39.9457 41.776C40.2897 41.632 40.6737 41.56 41.0977 41.56C41.6657 41.56 42.1577 41.684 42.5737 41.932C42.9897 42.18 43.3097 42.532 43.5337 42.988C43.7657 43.436 43.8817 43.968 43.8817 44.584C43.8817 45.048 43.8177 45.464 43.6897 45.832C43.5617 46.2 43.3737 46.52 43.1257 46.792C42.8777 47.056 42.5817 47.26 42.2377 47.404C41.9017 47.54 41.5217 47.608 41.0977 47.608ZM41.0977 46.828C41.4577 46.828 41.7737 46.74 42.0457 46.564C42.3177 46.388 42.5257 46.132 42.6697 45.796C42.8217 45.46 42.8977 45.056 42.8977 44.584C42.8977 43.856 42.7337 43.3 42.4057 42.916C42.0857 42.532 41.6497 42.34 41.0977 42.34C40.7297 42.34 40.4097 42.428 40.1377 42.604C39.8737 42.772 39.6657 43.024 39.5137 43.36C39.3697 43.688 39.2977 44.096 39.2977 44.584C39.2977 45.304 39.4617 45.86 39.7897 46.252C40.1177 46.636 40.5537 46.828 41.0977 46.828ZM46.5557 49.744C46.4357 49.744 46.3397 49.712 46.2677 49.648C46.1957 49.584 46.1517 49.496 46.1357 49.384C46.1277 49.28 46.1477 49.172 46.1957 49.06L47.0237 47.2V47.62L44.7197 42.268C44.6717 42.148 44.6557 42.036 44.6717 41.932C44.6877 41.828 44.7357 41.744 44.8157 41.68C44.8957 41.616 45.0077 41.584 45.1517 41.584C45.2797 41.584 45.3797 41.612 45.4517 41.668C45.5237 41.724 45.5877 41.824 45.6437 41.968L47.6117 46.792H47.2877L49.2797 41.968C49.3437 41.824 49.4117 41.724 49.4837 41.668C49.5557 41.612 49.6597 41.584 49.7957 41.584C49.9237 41.584 50.0197 41.616 50.0837 41.68C50.1557 41.744 50.1957 41.828 50.2037 41.932C50.2197 42.028 50.2037 42.136 50.1557 42.256L47.0837 49.36C47.0197 49.504 46.9477 49.604 46.8677 49.66C46.7957 49.716 46.6917 49.744 46.5557 49.744ZM53.9697 47.608C53.3537 47.608 52.8217 47.488 52.3737 47.248C51.9337 47 51.5897 46.652 51.3417 46.204C51.1017 45.756 50.9817 45.22 50.9817 44.596C50.9817 43.988 51.1017 43.46 51.3417 43.012C51.5817 42.556 51.9097 42.2 52.3257 41.944C52.7497 41.688 53.2377 41.56 53.7897 41.56C54.1817 41.56 54.5337 41.628 54.8457 41.764C55.1577 41.892 55.4217 42.08 55.6377 42.328C55.8617 42.576 56.0297 42.876 56.1417 43.228C56.2617 43.58 56.3217 43.976 56.3217 44.416C56.3217 44.544 56.2857 44.64 56.2137 44.704C56.1417 44.76 56.0377 44.788 55.9017 44.788H51.7257V44.152H55.6737L55.4817 44.308C55.4817 43.876 55.4177 43.512 55.2897 43.216C55.1617 42.912 54.9737 42.68 54.7257 42.52C54.4857 42.36 54.1817 42.28 53.8137 42.28C53.4057 42.28 53.0577 42.376 52.7697 42.568C52.4897 42.752 52.2777 43.012 52.1337 43.348C51.9897 43.676 51.9177 44.06 51.9177 44.5V44.572C51.9177 45.308 52.0937 45.868 52.4457 46.252C52.8057 46.636 53.3137 46.828 53.9697 46.828C54.2417 46.828 54.5097 46.792 54.7737 46.72C55.0457 46.648 55.3097 46.528 55.5657 46.36C55.6777 46.288 55.7777 46.256 55.8657 46.264C55.9617 46.264 56.0377 46.292 56.0937 46.348C56.1497 46.396 56.1857 46.46 56.2017 46.54C56.2257 46.612 56.2177 46.692 56.1777 46.78C56.1457 46.868 56.0777 46.944 55.9737 47.008C55.7097 47.2 55.3977 47.348 55.0377 47.452C54.6777 47.556 54.3217 47.608 53.9697 47.608ZM60.3564 47.608C59.7404 47.608 59.2084 47.488 58.7604 47.248C58.3204 47 57.9764 46.652 57.7284 46.204C57.4884 45.756 57.3684 45.22 57.3684 44.596C57.3684 43.988 57.4884 43.46 57.7284 43.012C57.9684 42.556 58.2964 42.2 58.7124 41.944C59.1364 41.688 59.6244 41.56 60.1764 41.56C60.5684 41.56 60.9204 41.628 61.2324 41.764C61.5444 41.892 61.8084 42.08 62.0244 42.328C62.2484 42.576 62.4164 42.876 62.5284 43.228C62.6484 43.58 62.7084 43.976 62.7084 44.416C62.7084 44.544 62.6724 44.64 62.6004 44.704C62.5284 44.76 62.4244 44.788 62.2884 44.788H58.1124V44.152H62.0604L61.8684 44.308C61.8684 43.876 61.8044 43.512 61.6764 43.216C61.5484 42.912 61.3604 42.68 61.1124 42.52C60.8724 42.36 60.5684 42.28 60.2004 42.28C59.7924 42.28 59.4444 42.376 59.1564 42.568C58.8764 42.752 58.6644 43.012 58.5204 43.348C58.3764 43.676 58.3044 44.06 58.3044 44.5V44.572C58.3044 45.308 58.4804 45.868 58.8324 46.252C59.1924 46.636 59.7004 46.828 60.3564 46.828C60.6284 46.828 60.8964 46.792 61.1604 46.72C61.4324 46.648 61.6964 46.528 61.9524 46.36C62.0644 46.288 62.1644 46.256 62.2524 46.264C62.3484 46.264 62.4244 46.292 62.4804 46.348C62.5364 46.396 62.5724 46.46 62.5884 46.54C62.6124 46.612 62.6044 46.692 62.5644 46.78C62.5324 46.868 62.4644 46.944 62.3604 47.008C62.0964 47.2 61.7844 47.348 61.4244 47.452C61.0644 47.556 60.7084 47.608 60.3564 47.608ZM67.8089 47.584C67.6569 47.584 67.5409 47.544 67.4609 47.464C67.3809 47.376 67.3409 47.252 67.3409 47.092V39.46C67.3409 39.3 67.3809 39.176 67.4609 39.088C67.5409 39 67.6449 38.956 67.7729 38.956C67.9009 38.956 67.9929 38.98 68.0489 39.028C68.1129 39.068 68.1849 39.144 68.2649 39.256L73.4969 46.228H73.2089V39.436C73.2089 39.284 73.2489 39.168 73.3289 39.088C73.4089 39 73.5249 38.956 73.6769 38.956C73.8209 38.956 73.9289 39 74.0009 39.088C74.0809 39.168 74.1209 39.284 74.1209 39.436V47.104C74.1209 47.256 74.0849 47.376 74.0129 47.464C73.9489 47.544 73.8529 47.584 73.7249 47.584C73.6049 47.584 73.5089 47.56 73.4369 47.512C73.3649 47.464 73.2889 47.388 73.2089 47.284L67.9889 40.312H68.2649V47.092C68.2649 47.252 68.2249 47.376 68.1449 47.464C68.0649 47.544 67.9529 47.584 67.8089 47.584ZM77.9277 47.608C77.5277 47.608 77.1677 47.532 76.8477 47.38C76.5357 47.22 76.2877 47.004 76.1037 46.732C75.9197 46.46 75.8277 46.156 75.8277 45.82C75.8277 45.388 75.9357 45.048 76.1517 44.8C76.3757 44.552 76.7397 44.376 77.2437 44.272C77.7557 44.168 78.4517 44.116 79.3317 44.116H79.8717V44.752H79.3437C78.6957 44.752 78.1837 44.784 77.8077 44.848C77.4397 44.904 77.1797 45.004 77.0277 45.148C76.8837 45.292 76.8117 45.496 76.8117 45.76C76.8117 46.088 76.9237 46.356 77.1477 46.564C77.3797 46.772 77.6917 46.876 78.0837 46.876C78.4037 46.876 78.6837 46.8 78.9237 46.648C79.1717 46.496 79.3637 46.288 79.4997 46.024C79.6437 45.76 79.7157 45.456 79.7157 45.112V43.744C79.7157 43.248 79.6157 42.892 79.4157 42.676C79.2157 42.452 78.8877 42.34 78.4317 42.34C78.1517 42.34 77.8717 42.376 77.5917 42.448C77.3117 42.52 77.0157 42.636 76.7037 42.796C76.5917 42.852 76.4957 42.872 76.4157 42.856C76.3357 42.832 76.2717 42.788 76.2237 42.724C76.1757 42.66 76.1477 42.588 76.1397 42.508C76.1317 42.42 76.1477 42.336 76.1877 42.256C76.2357 42.176 76.3077 42.112 76.4037 42.064C76.7557 41.888 77.1037 41.76 77.4477 41.68C77.7917 41.6 78.1197 41.56 78.4317 41.56C78.9357 41.56 79.3517 41.644 79.6797 41.812C80.0077 41.972 80.2517 42.22 80.4117 42.556C80.5717 42.884 80.6517 43.308 80.6517 43.828V47.08C80.6517 47.24 80.6117 47.364 80.5317 47.452C80.4597 47.54 80.3517 47.584 80.2077 47.584C80.0557 47.584 79.9397 47.54 79.8597 47.452C79.7797 47.364 79.7397 47.24 79.7397 47.08V46.144H79.8477C79.7837 46.448 79.6597 46.708 79.4757 46.924C79.2997 47.14 79.0797 47.308 78.8157 47.428C78.5517 47.548 78.2557 47.608 77.9277 47.608ZM82.959 47.584C82.799 47.584 82.679 47.54 82.599 47.452C82.519 47.364 82.479 47.24 82.479 47.08V42.076C82.479 41.916 82.519 41.796 82.599 41.716C82.679 41.628 82.795 41.584 82.947 41.584C83.099 41.584 83.215 41.628 83.295 41.716C83.383 41.796 83.427 41.916 83.427 42.076V43.132L83.295 42.964C83.447 42.516 83.691 42.172 84.027 41.932C84.371 41.684 84.779 41.56 85.251 41.56C85.747 41.56 86.147 41.68 86.451 41.92C86.763 42.152 86.971 42.516 87.075 43.012H86.895C87.039 42.564 87.295 42.212 87.663 41.956C88.039 41.692 88.475 41.56 88.971 41.56C89.411 41.56 89.771 41.644 90.051 41.812C90.339 41.98 90.555 42.236 90.699 42.58C90.843 42.916 90.915 43.344 90.915 43.864V47.08C90.915 47.24 90.871 47.364 90.783 47.452C90.703 47.54 90.583 47.584 90.423 47.584C90.271 47.584 90.151 47.54 90.063 47.452C89.983 47.364 89.943 47.24 89.943 47.08V43.912C89.943 43.376 89.851 42.984 89.667 42.736C89.483 42.48 89.171 42.352 88.731 42.352C88.251 42.352 87.871 42.52 87.591 42.856C87.319 43.184 87.183 43.632 87.183 44.2V47.08C87.183 47.24 87.139 47.364 87.051 47.452C86.971 47.54 86.851 47.584 86.691 47.584C86.539 47.584 86.419 47.54 86.331 47.452C86.251 47.364 86.211 47.24 86.211 47.08V43.912C86.211 43.376 86.115 42.984 85.923 42.736C85.739 42.48 85.431 42.352 84.999 42.352C84.519 42.352 84.139 42.52 83.859 42.856C83.587 43.184 83.451 43.632 83.451 44.2V47.08C83.451 47.416 83.287 47.584 82.959 47.584ZM95.3603 47.608C94.7443 47.608 94.2123 47.488 93.7643 47.248C93.3243 47 92.9803 46.652 92.7323 46.204C92.4923 45.756 92.3723 45.22 92.3723 44.596C92.3723 43.988 92.4923 43.46 92.7323 43.012C92.9723 42.556 93.3003 42.2 93.7163 41.944C94.1403 41.688 94.6283 41.56 95.1803 41.56C95.5723 41.56 95.9243 41.628 96.2363 41.764C96.5483 41.892 96.8123 42.08 97.0283 42.328C97.2523 42.576 97.4203 42.876 97.5323 43.228C97.6523 43.58 97.7123 43.976 97.7123 44.416C97.7123 44.544 97.6763 44.64 97.6043 44.704C97.5323 44.76 97.4283 44.788 97.2923 44.788H93.1163V44.152H97.0643L96.8723 44.308C96.8723 43.876 96.8083 43.512 96.6803 43.216C96.5523 42.912 96.3643 42.68 96.1163 42.52C95.8763 42.36 95.5723 42.28 95.2043 42.28C94.7963 42.28 94.4483 42.376 94.1603 42.568C93.8803 42.752 93.6683 43.012 93.5243 43.348C93.3803 43.676 93.3083 44.06 93.3083 44.5V44.572C93.3083 45.308 93.4843 45.868 93.8363 46.252C94.1963 46.636 94.7043 46.828 95.3603 46.828C95.6323 46.828 95.9003 46.792 96.1643 46.72C96.4363 46.648 96.7003 46.528 96.9563 46.36C97.0683 46.288 97.1683 46.256 97.2563 46.264C97.3523 46.264 97.4283 46.292 97.4843 46.348C97.5403 46.396 97.5763 46.46 97.5923 46.54C97.6163 46.612 97.6083 46.692 97.5683 46.78C97.5363 46.868 97.4683 46.944 97.3643 47.008C97.1003 47.2 96.7883 47.348 96.4283 47.452C96.0683 47.556 95.7123 47.608 95.3603 47.608Z" fill="#64728C"/>
<rect x="109" y="34.5" width="25" height="18" rx="9" fill="#64728C"/>
<path d="M117.6 47.116C117.424 47.116 117.288 47.068 117.192 46.972C117.096 46.868 117.048 46.728 117.048 46.552V44.584H115.116C114.948 44.584 114.816 44.54 114.72 44.452C114.624 44.356 114.576 44.224 114.576 44.056C114.576 43.888 114.624 43.76 114.72 43.672C114.816 43.576 114.948 43.528 115.116 43.528H117.048V41.62C117.048 41.444 117.096 41.308 117.192 41.212C117.288 41.116 117.428 41.068 117.612 41.068C117.788 41.068 117.92 41.116 118.008 41.212C118.104 41.308 118.152 41.444 118.152 41.62V43.528H120.084C120.26 43.528 120.392 43.576 120.48 43.672C120.576 43.76 120.624 43.888 120.624 44.056C120.624 44.224 120.576 44.356 120.48 44.452C120.392 44.54 120.26 44.584 120.084 44.584H118.152V46.552C118.152 46.728 118.104 46.868 118.008 46.972C117.92 47.068 117.784 47.116 117.6 47.116ZM124.867 47.62C124.443 47.62 124.011 47.564 123.571 47.452C123.131 47.34 122.727 47.168 122.359 46.936C122.207 46.84 122.103 46.728 122.047 46.6C121.999 46.464 121.987 46.332 122.011 46.204C122.043 46.068 122.103 45.956 122.191 45.868C122.287 45.772 122.399 45.716 122.527 45.7C122.663 45.684 122.811 45.72 122.971 45.808C123.267 45.976 123.567 46.104 123.871 46.192C124.175 46.28 124.499 46.324 124.843 46.324C125.179 46.324 125.467 46.264 125.707 46.144C125.947 46.024 126.131 45.856 126.259 45.64C126.387 45.424 126.451 45.172 126.451 44.884C126.451 44.436 126.315 44.076 126.043 43.804C125.771 43.524 125.399 43.384 124.927 43.384C124.671 43.384 124.423 43.428 124.183 43.516C123.943 43.596 123.707 43.74 123.475 43.948C123.403 44.012 123.311 44.076 123.199 44.14C123.087 44.196 122.967 44.224 122.839 44.224C122.639 44.224 122.487 44.172 122.383 44.068C122.279 43.964 122.227 43.82 122.227 43.636V39.712C122.227 39.496 122.283 39.332 122.395 39.22C122.515 39.1 122.683 39.04 122.899 39.04H126.847C127.063 39.04 127.227 39.096 127.339 39.208C127.459 39.312 127.519 39.468 127.519 39.676C127.519 39.876 127.459 40.032 127.339 40.144C127.227 40.256 127.063 40.312 126.847 40.312H123.727V43H123.331C123.539 42.72 123.815 42.504 124.159 42.352C124.503 42.2 124.879 42.124 125.287 42.124C125.823 42.124 126.287 42.24 126.679 42.472C127.079 42.696 127.387 43.012 127.603 43.42C127.827 43.82 127.939 44.288 127.939 44.824C127.939 45.376 127.815 45.864 127.567 46.288C127.319 46.704 126.963 47.032 126.499 47.272C126.043 47.504 125.499 47.62 124.867 47.62Z" fill="white"/>
<rect x="260" y="25.5" width="36" height="36" rx="12" fill="#64728C" fill-opacity="0.12"/>
<path d="M279.039 48.2C278.577 49 277.423 49 276.961 48.2L273.843 42.8C273.381 42 273.959 41 274.882 41L281.118 41C282.041 41 282.619 42 282.157 42.8L279.039 48.2Z" fill="#64728C"/>
<path d="M1.608 12.084C1.408 12.084 1.252 12.028 1.14 11.916C1.036 11.804 0.984 11.648 0.984 11.448V4.176C0.984 3.968 1.04 3.812 1.152 3.708C1.264 3.596 1.42 3.54 1.62 3.54H4.488C5.4 3.54 6.104 3.768 6.6 4.224C7.096 4.672 7.344 5.304 7.344 6.12C7.344 6.944 7.096 7.584 6.6 8.04C6.104 8.488 5.4 8.712 4.488 8.712H2.232V11.448C2.232 11.648 2.18 11.804 2.076 11.916C1.972 12.028 1.816 12.084 1.608 12.084ZM2.232 7.716H4.308C4.908 7.716 5.36 7.584 5.664 7.32C5.976 7.048 6.132 6.648 6.132 6.12C6.132 5.6 5.976 5.208 5.664 4.944C5.36 4.672 4.908 4.536 4.308 4.536H2.232V7.716ZM11.018 12.108C10.378 12.108 9.82597 11.988 9.36197 11.748C8.90597 11.5 8.54997 11.152 8.29397 10.704C8.04597 10.248 7.92197 9.708 7.92197 9.084C7.92197 8.476 8.04597 7.944 8.29397 7.488C8.54197 7.032 8.88197 6.676 9.31397 6.42C9.74597 6.164 10.238 6.036 10.79 6.036C11.198 6.036 11.562 6.104 11.882 6.24C12.202 6.368 12.474 6.56 12.698 6.816C12.93 7.064 13.102 7.368 13.214 7.728C13.334 8.088 13.394 8.492 13.394 8.94C13.394 9.076 13.354 9.18 13.274 9.252C13.194 9.316 13.074 9.348 12.914 9.348H8.88197V8.604H12.578L12.374 8.772C12.374 8.372 12.314 8.032 12.194 7.752C12.082 7.472 11.91 7.26 11.678 7.116C11.454 6.964 11.174 6.888 10.838 6.888C10.462 6.888 10.142 6.976 9.87797 7.152C9.62197 7.328 9.42597 7.572 9.28997 7.884C9.15397 8.196 9.08597 8.56 9.08597 8.976V9.048C9.08597 9.752 9.24997 10.284 9.57797 10.644C9.91397 10.996 10.398 11.172 11.03 11.172C11.27 11.172 11.522 11.14 11.786 11.076C12.058 11.012 12.314 10.904 12.554 10.752C12.69 10.672 12.81 10.636 12.914 10.644C13.026 10.652 13.114 10.688 13.178 10.752C13.25 10.816 13.294 10.896 13.31 10.992C13.326 11.088 13.31 11.188 13.262 11.292C13.214 11.388 13.13 11.476 13.01 11.556C12.738 11.74 12.422 11.88 12.062 11.976C11.702 12.064 11.354 12.108 11.018 12.108ZM15.3273 12.084C15.1273 12.084 14.9753 12.032 14.8713 11.928C14.7673 11.816 14.7153 11.664 14.7153 11.472V6.672C14.7153 6.472 14.7673 6.32 14.8713 6.216C14.9753 6.112 15.1193 6.06 15.3033 6.06C15.4953 6.06 15.6393 6.112 15.7353 6.216C15.8393 6.32 15.8913 6.472 15.8913 6.672V7.548H15.7713C15.8993 7.068 16.1353 6.704 16.4793 6.456C16.8233 6.208 17.2633 6.064 17.7993 6.024C17.9433 6.016 18.0553 6.052 18.1353 6.132C18.2233 6.212 18.2713 6.336 18.2793 6.504C18.2953 6.672 18.2593 6.808 18.1713 6.912C18.0833 7.008 17.9473 7.064 17.7633 7.08L17.5353 7.104C17.0153 7.152 16.6193 7.316 16.3473 7.596C16.0753 7.876 15.9393 8.26 15.9393 8.748V11.472C15.9393 11.664 15.8873 11.816 15.7833 11.928C15.6873 12.032 15.5353 12.084 15.3273 12.084ZM21.1853 12.108C20.8333 12.108 20.4693 12.068 20.0933 11.988C19.7253 11.908 19.3853 11.772 19.0732 11.58C18.9693 11.508 18.8973 11.428 18.8573 11.34C18.8173 11.252 18.8013 11.164 18.8093 11.076C18.8253 10.98 18.8613 10.9 18.9173 10.836C18.9813 10.764 19.0573 10.72 19.1453 10.704C19.2413 10.688 19.3413 10.708 19.4453 10.764C19.7573 10.94 20.0573 11.064 20.3453 11.136C20.6333 11.2 20.9173 11.232 21.1973 11.232C21.6213 11.232 21.9413 11.156 22.1573 11.004C22.3733 10.852 22.4813 10.648 22.4813 10.392C22.4813 10.184 22.4093 10.024 22.2653 9.912C22.1213 9.792 21.9053 9.7 21.6173 9.636L20.4773 9.408C19.9813 9.304 19.6053 9.12 19.3493 8.856C19.0933 8.592 18.9653 8.256 18.9653 7.848C18.9653 7.48 19.0653 7.16 19.2653 6.888C19.4653 6.616 19.7453 6.408 20.1053 6.264C20.4653 6.112 20.8813 6.036 21.3533 6.036C21.7053 6.036 22.0373 6.08 22.3493 6.168C22.6613 6.256 22.9493 6.388 23.2133 6.564C23.3173 6.62 23.3853 6.696 23.4173 6.792C23.4493 6.88 23.4533 6.968 23.4293 7.056C23.4133 7.144 23.3733 7.224 23.3093 7.296C23.2453 7.36 23.1653 7.4 23.0693 7.416C22.9813 7.424 22.8813 7.4 22.7693 7.344C22.5293 7.192 22.2893 7.084 22.0493 7.02C21.8173 6.956 21.5853 6.924 21.3533 6.924C20.9293 6.924 20.6093 7.004 20.3933 7.164C20.1853 7.316 20.0813 7.524 20.0813 7.788C20.0813 7.988 20.1453 8.152 20.2733 8.28C20.4013 8.408 20.6013 8.5 20.8733 8.556L22.0133 8.784C22.5333 8.888 22.9253 9.064 23.1893 9.312C23.4613 9.56 23.5973 9.896 23.5973 10.32C23.5973 10.872 23.3773 11.308 22.9373 11.628C22.4973 11.948 21.9133 12.108 21.1853 12.108ZM27.4898 12.108C26.8978 12.108 26.3858 11.984 25.9538 11.736C25.5298 11.488 25.1978 11.136 24.9578 10.68C24.7178 10.224 24.5978 9.688 24.5978 9.072C24.5978 8.6 24.6658 8.18 24.8018 7.812C24.9378 7.444 25.1298 7.128 25.3778 6.864C25.6338 6.592 25.9378 6.388 26.2898 6.252C26.6498 6.108 27.0498 6.036 27.4898 6.036C28.0738 6.036 28.5778 6.16 29.0018 6.408C29.4338 6.656 29.7698 7.008 30.0098 7.464C30.2498 7.912 30.3698 8.448 30.3698 9.072C30.3698 9.536 30.3018 9.956 30.1658 10.332C30.0298 10.708 29.8338 11.028 29.5778 11.292C29.3298 11.556 29.0258 11.76 28.6658 11.904C28.3138 12.04 27.9218 12.108 27.4898 12.108ZM27.4898 11.172C27.8178 11.172 28.1058 11.092 28.3538 10.932C28.6018 10.772 28.7938 10.536 28.9298 10.224C29.0738 9.912 29.1458 9.528 29.1458 9.072C29.1458 8.384 28.9938 7.864 28.6898 7.512C28.3858 7.16 27.9858 6.984 27.4898 6.984C27.1538 6.984 26.8618 7.064 26.6138 7.224C26.3658 7.376 26.1698 7.608 26.0258 7.92C25.8898 8.232 25.8218 8.616 25.8218 9.072C25.8218 9.752 25.9738 10.272 26.2778 10.632C26.5818 10.992 26.9858 11.172 27.4898 11.172ZM32.3309 12.084C32.1389 12.084 31.9909 12.032 31.8869 11.928C31.7829 11.816 31.7309 11.664 31.7309 11.472V6.672C31.7309 6.472 31.7829 6.32 31.8869 6.216C31.9909 6.112 32.1349 6.06 32.3189 6.06C32.5109 6.06 32.6549 6.112 32.7509 6.216C32.8549 6.32 32.9069 6.472 32.9069 6.672V7.608L32.7749 7.392C32.9509 6.944 33.2269 6.608 33.6029 6.384C33.9789 6.152 34.4109 6.036 34.8989 6.036C35.3629 6.036 35.7469 6.124 36.0509 6.3C36.3629 6.468 36.5949 6.728 36.7469 7.08C36.8989 7.424 36.9749 7.86 36.9749 8.388V11.472C36.9749 11.664 36.9229 11.816 36.8189 11.928C36.7149 12.032 36.5669 12.084 36.3749 12.084C36.1749 12.084 36.0229 12.032 35.9189 11.928C35.8149 11.816 35.7629 11.664 35.7629 11.472V8.46C35.7629 7.956 35.6629 7.588 35.4629 7.356C35.2709 7.124 34.9669 7.008 34.5509 7.008C34.0629 7.008 33.6709 7.16 33.3749 7.464C33.0869 7.768 32.9429 8.176 32.9429 8.688V11.472C32.9429 11.88 32.7389 12.084 32.3309 12.084ZM40.517 12.108C40.109 12.108 39.741 12.028 39.413 11.868C39.093 11.708 38.841 11.492 38.657 11.22C38.473 10.948 38.381 10.64 38.381 10.296C38.381 9.864 38.489 9.524 38.705 9.276C38.929 9.02 39.293 8.84 39.797 8.736C40.309 8.624 40.997 8.568 41.861 8.568H42.425V9.312H41.873C41.297 9.312 40.841 9.34 40.505 9.396C40.169 9.452 39.929 9.548 39.785 9.684C39.649 9.812 39.581 9.992 39.581 10.224C39.581 10.528 39.685 10.776 39.893 10.968C40.101 11.152 40.389 11.244 40.757 11.244C41.053 11.244 41.313 11.176 41.537 11.04C41.761 10.896 41.937 10.704 42.065 10.464C42.201 10.224 42.269 9.948 42.269 9.636V8.256C42.269 7.8 42.173 7.472 41.981 7.272C41.789 7.072 41.473 6.972 41.033 6.972C40.777 6.972 40.509 7.004 40.229 7.068C39.957 7.132 39.673 7.24 39.377 7.392C39.241 7.456 39.125 7.476 39.029 7.452C38.933 7.428 38.857 7.376 38.801 7.296C38.745 7.208 38.713 7.116 38.705 7.02C38.705 6.916 38.729 6.816 38.777 6.72C38.833 6.624 38.925 6.552 39.053 6.504C39.405 6.336 39.753 6.216 40.097 6.144C40.441 6.072 40.765 6.036 41.069 6.036C41.605 6.036 42.045 6.12 42.389 6.288C42.741 6.456 43.001 6.712 43.169 7.056C43.337 7.4 43.421 7.844 43.421 8.388V11.472C43.421 11.664 43.373 11.816 43.277 11.928C43.181 12.032 43.041 12.084 42.857 12.084C42.681 12.084 42.541 12.032 42.437 11.928C42.333 11.816 42.281 11.664 42.281 11.472V10.692H42.389C42.325 10.988 42.205 11.244 42.029 11.46C41.861 11.668 41.649 11.828 41.393 11.94C41.137 12.052 40.845 12.108 40.517 12.108ZM46.9743 12.108C46.3503 12.108 45.8783 11.928 45.5583 11.568C45.2463 11.2 45.0903 10.672 45.0903 9.984V4.068C45.0903 3.868 45.1423 3.716 45.2463 3.612C45.3503 3.508 45.4983 3.456 45.6903 3.456C45.8823 3.456 46.0303 3.508 46.1343 3.612C46.2463 3.716 46.3023 3.868 46.3023 4.068V9.912C46.3023 10.312 46.3823 10.612 46.5423 10.812C46.7103 11.004 46.9503 11.1 47.2623 11.1C47.3343 11.1 47.3983 11.1 47.4543 11.1C47.5103 11.092 47.5663 11.084 47.6223 11.076C47.7183 11.068 47.7863 11.096 47.8263 11.16C47.8663 11.216 47.8863 11.336 47.8863 11.52C47.8863 11.688 47.8503 11.82 47.7783 11.916C47.7063 12.004 47.5903 12.06 47.4303 12.084C47.3583 12.092 47.2823 12.096 47.2023 12.096C47.1223 12.104 47.0463 12.108 46.9743 12.108ZM52.7263 12C52.5103 12 52.3423 11.944 52.2223 11.832C52.1103 11.712 52.0543 11.544 52.0543 11.328V4.212C52.0543 3.996 52.1103 3.832 52.2223 3.72C52.3423 3.6 52.5103 3.54 52.7263 3.54H55.0423C56.4343 3.54 57.5063 3.904 58.2583 4.632C59.0183 5.352 59.3983 6.396 59.3983 7.764C59.3983 8.444 59.3023 9.048 59.1103 9.576C58.9183 10.104 58.6343 10.548 58.2583 10.908C57.8903 11.26 57.4383 11.532 56.9023 11.724C56.3663 11.908 55.7463 12 55.0423 12H52.7263ZM53.3023 10.956H54.9703C55.4983 10.956 55.9543 10.892 56.3383 10.764C56.7303 10.628 57.0583 10.428 57.3223 10.164C57.5863 9.9 57.7823 9.568 57.9103 9.168C58.0383 8.768 58.1023 8.3 58.1023 7.764C58.1023 6.7 57.8383 5.904 57.3103 5.376C56.7903 4.848 56.0103 4.584 54.9703 4.584H53.3023V10.956ZM63.682 12.108C63.042 12.108 62.49 11.988 62.026 11.748C61.57 11.5 61.214 11.152 60.958 10.704C60.71 10.248 60.586 9.708 60.586 9.084C60.586 8.476 60.71 7.944 60.958 7.488C61.206 7.032 61.546 6.676 61.978 6.42C62.41 6.164 62.902 6.036 63.454 6.036C63.862 6.036 64.226 6.104 64.546 6.24C64.866 6.368 65.138 6.56 65.362 6.816C65.594 7.064 65.766 7.368 65.878 7.728C65.998 8.088 66.058 8.492 66.058 8.94C66.058 9.076 66.018 9.18 65.938 9.252C65.858 9.316 65.738 9.348 65.578 9.348H61.546V8.604H65.242L65.038 8.772C65.038 8.372 64.978 8.032 64.858 7.752C64.746 7.472 64.574 7.26 64.342 7.116C64.118 6.964 63.838 6.888 63.502 6.888C63.126 6.888 62.806 6.976 62.542 7.152C62.286 7.328 62.09 7.572 61.954 7.884C61.818 8.196 61.75 8.56 61.75 8.976V9.048C61.75 9.752 61.914 10.284 62.242 10.644C62.578 10.996 63.062 11.172 63.694 11.172C63.934 11.172 64.186 11.14 64.45 11.076C64.722 11.012 64.978 10.904 65.218 10.752C65.354 10.672 65.474 10.636 65.578 10.644C65.69 10.652 65.778 10.688 65.842 10.752C65.914 10.816 65.958 10.896 65.974 10.992C65.99 11.088 65.974 11.188 65.926 11.292C65.878 11.388 65.794 11.476 65.674 11.556C65.402 11.74 65.086 11.88 64.726 11.976C64.366 12.064 64.018 12.108 63.682 12.108ZM69.8636 12.108C69.3836 12.108 68.9796 12.024 68.6516 11.856C68.3236 11.688 68.0796 11.44 67.9196 11.112C67.7596 10.784 67.6796 10.384 67.6796 9.912V7.08H66.9596C66.7996 7.08 66.6756 7.04 66.5876 6.96C66.4996 6.872 66.4556 6.756 66.4556 6.612C66.4556 6.46 66.4996 6.344 66.5876 6.264C66.6756 6.184 66.7996 6.144 66.9596 6.144H67.6796V4.908C67.6796 4.708 67.7316 4.556 67.8356 4.452C67.9476 4.348 68.0996 4.296 68.2916 4.296C68.4836 4.296 68.6316 4.348 68.7356 4.452C68.8396 4.556 68.8916 4.708 68.8916 4.908V6.144H70.2956C70.4556 6.144 70.5796 6.184 70.6676 6.264C70.7556 6.344 70.7996 6.46 70.7996 6.612C70.7996 6.756 70.7556 6.872 70.6676 6.96C70.5796 7.04 70.4556 7.08 70.2956 7.08H68.8916V9.816C68.8916 10.24 68.9796 10.56 69.1556 10.776C69.3396 10.992 69.6356 11.1 70.0436 11.1C70.1876 11.1 70.3116 11.088 70.4156 11.064C70.5276 11.032 70.6196 11.012 70.6916 11.004C70.7796 11.004 70.8516 11.036 70.9076 11.1C70.9636 11.156 70.9916 11.268 70.9916 11.436C70.9916 11.556 70.9676 11.668 70.9196 11.772C70.8796 11.876 70.8036 11.944 70.6916 11.976C70.5956 12.008 70.4636 12.036 70.2956 12.06C70.1356 12.092 69.9916 12.108 69.8636 12.108ZM73.6224 12.108C73.2144 12.108 72.8464 12.028 72.5184 11.868C72.1984 11.708 71.9464 11.492 71.7624 11.22C71.5784 10.948 71.4864 10.64 71.4864 10.296C71.4864 9.864 71.5944 9.524 71.8104 9.276C72.0344 9.02 72.3984 8.84 72.9024 8.736C73.4144 8.624 74.1024 8.568 74.9664 8.568H75.5304V9.312H74.9784C74.4024 9.312 73.9464 9.34 73.6104 9.396C73.2744 9.452 73.0344 9.548 72.8904 9.684C72.7544 9.812 72.6864 9.992 72.6864 10.224C72.6864 10.528 72.7904 10.776 72.9984 10.968C73.2064 11.152 73.4944 11.244 73.8624 11.244C74.1584 11.244 74.4184 11.176 74.6424 11.04C74.8664 10.896 75.0424 10.704 75.1704 10.464C75.3064 10.224 75.3744 9.948 75.3744 9.636V8.256C75.3744 7.8 75.2784 7.472 75.0864 7.272C74.8944 7.072 74.5784 6.972 74.1384 6.972C73.8824 6.972 73.6144 7.004 73.3344 7.068C73.0624 7.132 72.7784 7.24 72.4824 7.392C72.3464 7.456 72.2304 7.476 72.1344 7.452C72.0384 7.428 71.9624 7.376 71.9064 7.296C71.8504 7.208 71.8184 7.116 71.8104 7.02C71.8104 6.916 71.8344 6.816 71.8824 6.72C71.9384 6.624 72.0304 6.552 72.1584 6.504C72.5104 6.336 72.8584 6.216 73.2024 6.144C73.5464 6.072 73.8704 6.036 74.1744 6.036C74.7104 6.036 75.1504 6.12 75.4944 6.288C75.8464 6.456 76.1064 6.712 76.2744 7.056C76.4424 7.4 76.5264 7.844 76.5264 8.388V11.472C76.5264 11.664 76.4784 11.816 76.3824 11.928C76.2864 12.032 76.1464 12.084 75.9624 12.084C75.7864 12.084 75.6464 12.032 75.5424 11.928C75.4384 11.816 75.3864 11.664 75.3864 11.472V10.692H75.4944C75.4304 10.988 75.3104 11.244 75.1344 11.46C74.9664 11.668 74.7544 11.828 74.4984 11.94C74.2424 12.052 73.9504 12.108 73.6224 12.108ZM78.7958 12.072C78.6038 12.072 78.4558 12.016 78.3518 11.904C78.2478 11.784 78.1958 11.62 78.1958 11.412V6.732C78.1958 6.524 78.2478 6.364 78.3518 6.252C78.4558 6.14 78.6038 6.084 78.7958 6.084C78.9878 6.084 79.1358 6.14 79.2398 6.252C79.3518 6.364 79.4078 6.524 79.4078 6.732V11.412C79.4078 11.62 79.3558 11.784 79.2518 11.904C79.1478 12.016 78.9958 12.072 78.7958 12.072ZM78.7958 4.836C78.5558 4.836 78.3678 4.776 78.2318 4.656C78.1038 4.536 78.0398 4.368 78.0398 4.152C78.0398 3.928 78.1038 3.76 78.2318 3.648C78.3678 3.528 78.5558 3.468 78.7958 3.468C79.0358 3.468 79.2198 3.528 79.3478 3.648C79.4838 3.76 79.5518 3.928 79.5518 4.152C79.5518 4.368 79.4838 4.536 79.3478 4.656C79.2198 4.776 79.0358 4.836 78.7958 4.836ZM82.9977 12.108C82.3737 12.108 81.9017 11.928 81.5817 11.568C81.2697 11.2 81.1137 10.672 81.1137 9.984V4.068C81.1137 3.868 81.1657 3.716 81.2697 3.612C81.3737 3.508 81.5217 3.456 81.7137 3.456C81.9057 3.456 82.0537 3.508 82.1577 3.612C82.2697 3.716 82.3257 3.868 82.3257 4.068V9.912C82.3257 10.312 82.4057 10.612 82.5657 10.812C82.7337 11.004 82.9737 11.1 83.2857 11.1C83.3577 11.1 83.4217 11.1 83.4777 11.1C83.5337 11.092 83.5897 11.084 83.6457 11.076C83.7417 11.068 83.8097 11.096 83.8497 11.16C83.8897 11.216 83.9097 11.336 83.9097 11.52C83.9097 11.688 83.8737 11.82 83.8017 11.916C83.7297 12.004 83.6137 12.06 83.4537 12.084C83.3817 12.092 83.3057 12.096 83.2257 12.096C83.1457 12.104 83.0697 12.108 82.9977 12.108ZM86.7751 12.108C86.4231 12.108 86.0591 12.068 85.6831 11.988C85.3151 11.908 84.9751 11.772 84.6631 11.58C84.5591 11.508 84.4871 11.428 84.4471 11.34C84.4071 11.252 84.3911 11.164 84.3991 11.076C84.4151 10.98 84.4511 10.9 84.5071 10.836C84.5711 10.764 84.6471 10.72 84.7351 10.704C84.8311 10.688 84.9311 10.708 85.0351 10.764C85.3471 10.94 85.6471 11.064 85.9351 11.136C86.2231 11.2 86.5071 11.232 86.7871 11.232C87.2111 11.232 87.5311 11.156 87.7471 11.004C87.9631 10.852 88.0711 10.648 88.0711 10.392C88.0711 10.184 87.9991 10.024 87.8551 9.912C87.7111 9.792 87.4951 9.7 87.2071 9.636L86.0671 9.408C85.5711 9.304 85.1951 9.12 84.9391 8.856C84.6831 8.592 84.5551 8.256 84.5551 7.848C84.5551 7.48 84.6551 7.16 84.8551 6.888C85.0551 6.616 85.3351 6.408 85.6951 6.264C86.0551 6.112 86.4711 6.036 86.9431 6.036C87.2951 6.036 87.6271 6.08 87.9391 6.168C88.2511 6.256 88.5391 6.388 88.8031 6.564C88.9071 6.62 88.9751 6.696 89.0071 6.792C89.0391 6.88 89.0431 6.968 89.0191 7.056C89.0031 7.144 88.9631 7.224 88.8991 7.296C88.8351 7.36 88.7551 7.4 88.6591 7.416C88.5711 7.424 88.4711 7.4 88.3591 7.344C88.1191 7.192 87.8791 7.084 87.6391 7.02C87.4071 6.956 87.1751 6.924 86.9431 6.924C86.5191 6.924 86.1991 7.004 85.9831 7.164C85.7751 7.316 85.6711 7.524 85.6711 7.788C85.6711 7.988 85.7351 8.152 85.8631 8.28C85.9911 8.408 86.1911 8.5 86.4631 8.556L87.6031 8.784C88.1231 8.888 88.5151 9.064 88.7791 9.312C89.0511 9.56 89.1871 9.896 89.1871 10.32C89.1871 10.872 88.9671 11.308 88.5271 11.628C88.0871 11.948 87.5031 12.108 86.7751 12.108Z" fill="#64728C"/>
</svg>
