<svg width="300" height="66" viewBox="0 0 300 66" fill="none" xmlns="http://www.w3.org/2000/svg">
<rect x="0.5" y="21.5" width="299" height="44" rx="11.5" fill="#E8EAEF"/>
<rect x="0.5" y="21.5" width="299" height="44" rx="11.5" stroke="#E8EAEF"/>
<path d="M11.89 48C11.666 48 11.4933 47.9393 11.372 47.818C11.2507 47.6967 11.19 47.524 11.19 47.3V38.83C11.19 38.606 11.2507 38.4333 11.372 38.312C11.4933 38.1907 11.666 38.13 11.89 38.13H17.042C17.2193 38.13 17.3547 38.1767 17.448 38.27C17.5507 38.354 17.602 38.48 17.602 38.648C17.602 38.8253 17.5507 38.9607 17.448 39.054C17.3547 39.1473 17.2193 39.194 17.042 39.194H12.45V42.456H16.748C16.9253 42.456 17.0607 42.5027 17.154 42.596C17.2473 42.6893 17.294 42.82 17.294 42.988C17.294 43.1653 17.2473 43.3007 17.154 43.394C17.0607 43.478 16.9253 43.52 16.748 43.52H12.45V46.936H17.042C17.2193 46.936 17.3547 46.9827 17.448 47.076C17.5507 47.16 17.602 47.2907 17.602 47.468C17.602 47.6453 17.5507 47.7807 17.448 47.874C17.3547 47.958 17.2193 48 17.042 48H11.89ZM19.8831 48.098C19.6871 48.098 19.5331 48.042 19.4211 47.93C19.3091 47.818 19.2531 47.6547 19.2531 47.44V41.728C19.2531 41.5133 19.3091 41.3547 19.4211 41.252C19.5331 41.14 19.6871 41.084 19.8831 41.084C20.0791 41.084 20.2285 41.14 20.3311 41.252C20.4431 41.3547 20.4991 41.5133 20.4991 41.728V42.918L20.3451 42.666C20.5225 42.1527 20.8071 41.756 21.1991 41.476C21.6005 41.196 22.0765 41.056 22.6271 41.056C23.2058 41.056 23.6725 41.196 24.0271 41.476C24.3818 41.7467 24.6198 42.162 24.7411 42.722H24.5451C24.7131 42.2087 25.0118 41.8027 25.4411 41.504C25.8798 41.2053 26.3885 41.056 26.9671 41.056C27.4805 41.056 27.9005 41.1587 28.2271 41.364C28.5631 41.56 28.8151 41.8587 28.9831 42.26C29.1511 42.652 29.2351 43.156 29.2351 43.772V47.44C29.2351 47.6547 29.1791 47.818 29.0671 47.93C28.9551 48.042 28.8011 48.098 28.6051 48.098C28.3998 48.098 28.2411 48.042 28.1291 47.93C28.0171 47.818 27.9611 47.6547 27.9611 47.44V43.828C27.9611 43.2307 27.8585 42.792 27.6531 42.512C27.4478 42.232 27.1025 42.092 26.6171 42.092C26.0851 42.092 25.6605 42.2787 25.3431 42.652C25.0351 43.016 24.8811 43.52 24.8811 44.164V47.44C24.8811 47.6547 24.8251 47.818 24.7131 47.93C24.6105 48.042 24.4565 48.098 24.2511 48.098C24.0458 48.098 23.8871 48.042 23.7751 47.93C23.6631 47.818 23.6071 47.6547 23.6071 47.44V43.828C23.6071 43.2307 23.5045 42.792 23.2991 42.512C23.0938 42.232 22.7485 42.092 22.2631 42.092C21.7311 42.092 21.3065 42.2787 20.9891 42.652C20.6811 43.016 20.5271 43.52 20.5271 44.164V47.44C20.5271 47.8787 20.3125 48.098 19.8831 48.098ZM31.9137 50.618C31.7177 50.618 31.5637 50.562 31.4517 50.45C31.3397 50.338 31.2837 50.1793 31.2837 49.974V41.728C31.2837 41.5133 31.3397 41.3547 31.4517 41.252C31.5637 41.14 31.7177 41.084 31.9137 41.084C32.1191 41.084 32.2731 41.14 32.3757 41.252C32.4877 41.3547 32.5437 41.5133 32.5437 41.728V43.002L32.3897 42.75C32.5391 42.2367 32.8331 41.826 33.2717 41.518C33.7104 41.21 34.2377 41.056 34.8537 41.056C35.4604 41.056 35.9877 41.2007 36.4357 41.49C36.8837 41.77 37.2337 42.176 37.4857 42.708C37.7377 43.2307 37.8637 43.856 37.8637 44.584C37.8637 45.3027 37.7377 45.9327 37.4857 46.474C37.2431 47.006 36.8931 47.4167 36.4357 47.706C35.9877 47.986 35.4604 48.126 34.8537 48.126C34.2471 48.126 33.7244 47.972 33.2857 47.664C32.8471 47.356 32.5531 46.95 32.4037 46.446H32.5577V49.974C32.5577 50.1793 32.5017 50.338 32.3897 50.45C32.2777 50.562 32.1191 50.618 31.9137 50.618ZM34.5597 47.118C34.9611 47.118 35.3111 47.02 35.6097 46.824C35.9177 46.628 36.1557 46.3433 36.3237 45.97C36.4917 45.5967 36.5757 45.1347 36.5757 44.584C36.5757 43.7627 36.3937 43.1373 36.0297 42.708C35.6657 42.2787 35.1757 42.064 34.5597 42.064C34.1491 42.064 33.7897 42.162 33.4817 42.358C33.1831 42.5447 32.9497 42.8247 32.7817 43.198C32.6231 43.5713 32.5437 44.0333 32.5437 44.584C32.5437 45.4053 32.7257 46.0353 33.0897 46.474C33.4537 46.9033 33.9437 47.118 34.5597 47.118ZM41.6425 48.126C40.9425 48.126 40.4105 47.9207 40.0465 47.51C39.6825 47.09 39.5005 46.488 39.5005 45.704V38.676C39.5005 38.4613 39.5565 38.3027 39.6685 38.2C39.7805 38.088 39.9345 38.032 40.1305 38.032C40.3358 38.032 40.4945 38.088 40.6065 38.2C40.7185 38.3027 40.7745 38.4613 40.7745 38.676V45.606C40.7745 46.0913 40.8725 46.4553 41.0685 46.698C41.2738 46.9313 41.5632 47.048 41.9365 47.048C42.0205 47.048 42.0952 47.048 42.1605 47.048C42.2258 47.0387 42.2912 47.0293 42.3565 47.02C42.4592 47.0107 42.5338 47.0387 42.5805 47.104C42.6272 47.1693 42.6505 47.3 42.6505 47.496C42.6505 47.6733 42.6085 47.8133 42.5245 47.916C42.4498 48.0093 42.3238 48.07 42.1465 48.098C42.0625 48.1073 41.9785 48.112 41.8945 48.112C41.8105 48.1213 41.7265 48.126 41.6425 48.126ZM46.5411 48.126C45.8691 48.126 45.2858 47.9813 44.7911 47.692C44.2964 47.4027 43.9138 46.992 43.6431 46.46C43.3724 45.928 43.2371 45.3027 43.2371 44.584C43.2371 44.0427 43.3118 43.5573 43.4611 43.128C43.6198 42.6893 43.8438 42.316 44.1331 42.008C44.4224 41.7 44.7678 41.4667 45.1691 41.308C45.5798 41.14 46.0371 41.056 46.5411 41.056C47.2131 41.056 47.7964 41.2007 48.2911 41.49C48.7858 41.7793 49.1684 42.19 49.4391 42.722C49.7098 43.2447 49.8451 43.8653 49.8451 44.584C49.8451 45.1253 49.7658 45.6153 49.6071 46.054C49.4578 46.4927 49.2384 46.866 48.9491 47.174C48.6598 47.482 48.3098 47.72 47.8991 47.888C47.4978 48.0467 47.0451 48.126 46.5411 48.126ZM46.5411 47.118C46.9518 47.118 47.3064 47.02 47.6051 46.824C47.9131 46.628 48.1464 46.3433 48.3051 45.97C48.4731 45.5967 48.5571 45.1347 48.5571 44.584C48.5571 43.7627 48.3751 43.1373 48.0111 42.708C47.6471 42.2787 47.1571 42.064 46.5411 42.064C46.1398 42.064 45.7851 42.162 45.4771 42.358C45.1784 42.5447 44.9451 42.8247 44.7771 43.198C44.6091 43.5713 44.5251 44.0333 44.5251 44.584C44.5251 45.4053 44.7071 46.0353 45.0711 46.474C45.4444 46.9033 45.9344 47.118 46.5411 47.118ZM52.9357 50.618C52.7864 50.618 52.6604 50.576 52.5577 50.492C52.4644 50.4173 52.4084 50.31 52.3897 50.17C52.3804 50.0393 52.4084 49.8993 52.4737 49.75L53.4257 47.594V48.126L50.7797 41.966C50.7144 41.8073 50.691 41.6627 50.7097 41.532C50.7284 41.4013 50.789 41.294 50.8917 41.21C51.0037 41.126 51.153 41.084 51.3397 41.084C51.4984 41.084 51.6244 41.1213 51.7177 41.196C51.811 41.2707 51.8997 41.4013 51.9837 41.588L54.1817 47.006H53.7897L56.0297 41.588C56.1044 41.4013 56.193 41.2707 56.2957 41.196C56.3984 41.1213 56.5384 41.084 56.7157 41.084C56.8744 41.084 56.9957 41.126 57.0797 41.21C57.173 41.294 57.229 41.4013 57.2477 41.532C57.2664 41.6627 57.2384 41.8027 57.1637 41.952L53.6357 50.114C53.5424 50.31 53.4444 50.4407 53.3417 50.506C53.2484 50.5807 53.113 50.618 52.9357 50.618ZM61.6408 48.126C60.9034 48.126 60.2688 47.986 59.7368 47.706C59.2141 47.4167 58.8081 47.0107 58.5188 46.488C58.2294 45.956 58.0848 45.3307 58.0848 44.612C58.0848 43.9027 58.2248 43.282 58.5048 42.75C58.7941 42.218 59.1861 41.8027 59.6808 41.504C60.1848 41.2053 60.7588 41.056 61.4028 41.056C61.8601 41.056 62.2708 41.1353 62.6348 41.294C63.0081 41.4433 63.3254 41.6627 63.5868 41.952C63.8481 42.2413 64.0441 42.596 64.1748 43.016C64.3148 43.4267 64.3848 43.8933 64.3848 44.416C64.3848 44.5653 64.3381 44.682 64.2448 44.766C64.1608 44.8407 64.0348 44.878 63.8668 44.878H59.0788V44.066H63.5448L63.3068 44.262C63.3068 43.7767 63.2321 43.366 63.0828 43.03C62.9428 42.6847 62.7328 42.4233 62.4528 42.246C62.1821 42.0687 61.8414 41.98 61.4308 41.98C60.9828 41.98 60.6001 42.0873 60.2828 42.302C59.9654 42.5073 59.7228 42.8013 59.5548 43.184C59.3868 43.5573 59.3028 43.9913 59.3028 44.486V44.57C59.3028 45.41 59.5034 46.0447 59.9048 46.474C60.3061 46.9033 60.8848 47.118 61.6408 47.118C61.9394 47.118 62.2428 47.0807 62.5508 47.006C62.8681 46.9313 63.1714 46.796 63.4608 46.6C63.6008 46.516 63.7268 46.4787 63.8388 46.488C63.9601 46.488 64.0581 46.5253 64.1328 46.6C64.2074 46.6653 64.2541 46.7493 64.2728 46.852C64.2914 46.9453 64.2774 47.048 64.2308 47.16C64.1841 47.272 64.0954 47.37 63.9648 47.454C63.6568 47.6687 63.2881 47.8367 62.8588 47.958C62.4388 48.07 62.0328 48.126 61.6408 48.126ZM69.1193 48.126C68.3819 48.126 67.7473 47.986 67.2153 47.706C66.6926 47.4167 66.2866 47.0107 65.9973 46.488C65.7079 45.956 65.5633 45.3307 65.5633 44.612C65.5633 43.9027 65.7033 43.282 65.9833 42.75C66.2726 42.218 66.6646 41.8027 67.1593 41.504C67.6633 41.2053 68.2373 41.056 68.8813 41.056C69.3386 41.056 69.7493 41.1353 70.1133 41.294C70.4866 41.4433 70.8039 41.6627 71.0653 41.952C71.3266 42.2413 71.5226 42.596 71.6533 43.016C71.7933 43.4267 71.8633 43.8933 71.8633 44.416C71.8633 44.5653 71.8166 44.682 71.7233 44.766C71.6393 44.8407 71.5133 44.878 71.3453 44.878H66.5573V44.066H71.0233L70.7853 44.262C70.7853 43.7767 70.7106 43.366 70.5613 43.03C70.4213 42.6847 70.2113 42.4233 69.9313 42.246C69.6606 42.0687 69.3199 41.98 68.9093 41.98C68.4613 41.98 68.0786 42.0873 67.7613 42.302C67.4439 42.5073 67.2013 42.8013 67.0333 43.184C66.8653 43.5573 66.7813 43.9913 66.7813 44.486V44.57C66.7813 45.41 66.9819 46.0447 67.3833 46.474C67.7846 46.9033 68.3633 47.118 69.1193 47.118C69.4179 47.118 69.7213 47.0807 70.0293 47.006C70.3466 46.9313 70.6499 46.796 70.9393 46.6C71.0793 46.516 71.2053 46.4787 71.3173 46.488C71.4386 46.488 71.5366 46.5253 71.6113 46.6C71.6859 46.6653 71.7326 46.7493 71.7513 46.852C71.7699 46.9453 71.7559 47.048 71.7093 47.16C71.6626 47.272 71.5739 47.37 71.4433 47.454C71.1353 47.6687 70.7666 47.8367 70.3373 47.958C69.9173 48.07 69.5113 48.126 69.1193 48.126ZM77.8682 48.098C77.6815 48.098 77.5322 48.042 77.4202 47.93C77.3175 47.818 77.2662 47.664 77.2662 47.468V38.69C77.2662 38.4753 77.3175 38.312 77.4202 38.2C77.5228 38.088 77.6582 38.032 77.8262 38.032C77.9848 38.032 78.1062 38.06 78.1902 38.116C78.2742 38.172 78.3675 38.27 78.4702 38.41L84.4062 46.278H84.0562V38.662C84.0562 38.4567 84.1075 38.3027 84.2102 38.2C84.3222 38.088 84.4762 38.032 84.6722 38.032C84.8682 38.032 85.0175 38.088 85.1202 38.2C85.2228 38.3027 85.2742 38.4567 85.2742 38.662V47.468C85.2742 47.664 85.2228 47.818 85.1202 47.93C85.0268 48.042 84.9008 48.098 84.7422 48.098C84.5928 48.098 84.4668 48.0653 84.3642 48C84.2708 47.944 84.1728 47.846 84.0702 47.706L78.1482 39.838H78.4702V47.468C78.4702 47.664 78.4188 47.818 78.3162 47.93C78.2135 48.042 78.0642 48.098 77.8682 48.098ZM89.6451 48.126C89.1785 48.126 88.7538 48.0327 88.3711 47.846C87.9978 47.6593 87.7038 47.4073 87.4891 47.09C87.2838 46.7727 87.1811 46.418 87.1811 46.026C87.1811 45.522 87.3071 45.1253 87.5591 44.836C87.8111 44.5467 88.2358 44.3413 88.8331 44.22C89.4305 44.0893 90.2331 44.024 91.2411 44.024H91.8991V44.836H91.2691C90.5505 44.836 89.9811 44.8687 89.5611 44.934C89.1505 44.9993 88.8611 45.116 88.6931 45.284C88.5251 45.4427 88.4411 45.6667 88.4411 45.956C88.4411 46.32 88.5671 46.6187 88.8191 46.852C89.0805 47.0853 89.4351 47.202 89.8831 47.202C90.2378 47.202 90.5505 47.118 90.8211 46.95C91.0918 46.7727 91.3065 46.5393 91.4651 46.25C91.6238 45.9513 91.7031 45.6107 91.7031 45.228V43.618C91.7031 43.0673 91.5911 42.6707 91.3671 42.428C91.1431 42.176 90.7651 42.05 90.2331 42.05C89.9251 42.05 89.6078 42.092 89.2811 42.176C88.9545 42.26 88.6138 42.3907 88.2591 42.568C88.1191 42.6333 87.9978 42.6567 87.8951 42.638C87.7925 42.61 87.7085 42.554 87.6431 42.47C87.5871 42.3767 87.5545 42.2787 87.5451 42.176C87.5451 42.064 87.5685 41.9567 87.6151 41.854C87.6711 41.7513 87.7645 41.6767 87.8951 41.63C88.3058 41.4247 88.7118 41.28 89.1131 41.196C89.5238 41.1027 89.9065 41.056 90.2611 41.056C90.8678 41.056 91.3671 41.154 91.7591 41.35C92.1511 41.5367 92.4451 41.8307 92.6411 42.232C92.8371 42.624 92.9351 43.128 92.9351 43.744V47.44C92.9351 47.6547 92.8838 47.818 92.7811 47.93C92.6785 48.042 92.5291 48.098 92.3331 48.098C92.1465 48.098 91.9971 48.042 91.8851 47.93C91.7825 47.818 91.7311 47.6547 91.7311 47.44V46.446H91.8571C91.7825 46.7913 91.6425 47.09 91.4371 47.342C91.2318 47.594 90.9751 47.79 90.6671 47.93C90.3685 48.0607 90.0278 48.126 89.6451 48.126ZM95.598 48.098C95.402 48.098 95.248 48.042 95.136 47.93C95.024 47.818 94.968 47.6547 94.968 47.44V41.728C94.968 41.5133 95.024 41.3547 95.136 41.252C95.248 41.14 95.402 41.084 95.598 41.084C95.794 41.084 95.9433 41.14 96.046 41.252C96.158 41.3547 96.214 41.5133 96.214 41.728V42.918L96.06 42.666C96.2373 42.1527 96.522 41.756 96.914 41.476C97.3153 41.196 97.7913 41.056 98.342 41.056C98.9206 41.056 99.3873 41.196 99.742 41.476C100.097 41.7467 100.335 42.162 100.456 42.722H100.26C100.428 42.2087 100.727 41.8027 101.156 41.504C101.595 41.2053 102.103 41.056 102.682 41.056C103.195 41.056 103.615 41.1587 103.942 41.364C104.278 41.56 104.53 41.8587 104.698 42.26C104.866 42.652 104.95 43.156 104.95 43.772V47.44C104.95 47.6547 104.894 47.818 104.782 47.93C104.67 48.042 104.516 48.098 104.32 48.098C104.115 48.098 103.956 48.042 103.844 47.93C103.732 47.818 103.676 47.6547 103.676 47.44V43.828C103.676 43.2307 103.573 42.792 103.368 42.512C103.163 42.232 102.817 42.092 102.332 42.092C101.8 42.092 101.375 42.2787 101.058 42.652C100.75 43.016 100.596 43.52 100.596 44.164V47.44C100.596 47.6547 100.54 47.818 100.428 47.93C100.325 48.042 100.171 48.098 99.966 48.098C99.7606 48.098 99.602 48.042 99.49 47.93C99.378 47.818 99.322 47.6547 99.322 47.44V43.828C99.322 43.2307 99.2193 42.792 99.014 42.512C98.8086 42.232 98.4633 42.092 97.978 42.092C97.446 42.092 97.0213 42.2787 96.704 42.652C96.396 43.016 96.242 43.52 96.242 44.164V47.44C96.242 47.8787 96.0273 48.098 95.598 48.098ZM110.149 48.126C109.411 48.126 108.777 47.986 108.245 47.706C107.722 47.4167 107.316 47.0107 107.027 46.488C106.737 45.956 106.593 45.3307 106.593 44.612C106.593 43.9027 106.733 43.282 107.013 42.75C107.302 42.218 107.694 41.8027 108.189 41.504C108.693 41.2053 109.267 41.056 109.911 41.056C110.368 41.056 110.779 41.1353 111.143 41.294C111.516 41.4433 111.833 41.6627 112.095 41.952C112.356 42.2413 112.552 42.596 112.683 43.016C112.823 43.4267 112.893 43.8933 112.893 44.416C112.893 44.5653 112.846 44.682 112.753 44.766C112.669 44.8407 112.543 44.878 112.375 44.878H107.587V44.066H112.053L111.815 44.262C111.815 43.7767 111.74 43.366 111.591 43.03C111.451 42.6847 111.241 42.4233 110.961 42.246C110.69 42.0687 110.349 41.98 109.939 41.98C109.491 41.98 109.108 42.0873 108.791 42.302C108.473 42.5073 108.231 42.8013 108.063 43.184C107.895 43.5573 107.811 43.9913 107.811 44.486V44.57C107.811 45.41 108.011 46.0447 108.413 46.474C108.814 46.9033 109.393 47.118 110.149 47.118C110.447 47.118 110.751 47.0807 111.059 47.006C111.376 46.9313 111.679 46.796 111.969 46.6C112.109 46.516 112.235 46.4787 112.347 46.488C112.468 46.488 112.566 46.5253 112.641 46.6C112.715 46.6653 112.762 46.7493 112.781 46.852C112.799 46.9453 112.785 47.048 112.739 47.16C112.692 47.272 112.603 47.37 112.473 47.454C112.165 47.6687 111.796 47.8367 111.367 47.958C110.947 48.07 110.541 48.126 110.149 48.126Z" fill="#64728C"/>
<path d="M1.608 12.084C1.408 12.084 1.252 12.028 1.14 11.916C1.036 11.804 0.984 11.648 0.984 11.448V4.176C0.984 3.968 1.04 3.812 1.152 3.708C1.264 3.596 1.42 3.54 1.62 3.54H4.488C5.4 3.54 6.104 3.768 6.6 4.224C7.096 4.672 7.344 5.304 7.344 6.12C7.344 6.944 7.096 7.584 6.6 8.04C6.104 8.488 5.4 8.712 4.488 8.712H2.232V11.448C2.232 11.648 2.18 11.804 2.076 11.916C1.972 12.028 1.816 12.084 1.608 12.084ZM2.232 7.716H4.308C4.908 7.716 5.36 7.584 5.664 7.32C5.976 7.048 6.132 6.648 6.132 6.12C6.132 5.6 5.976 5.208 5.664 4.944C5.36 4.672 4.908 4.536 4.308 4.536H2.232V7.716ZM11.018 12.108C10.378 12.108 9.82597 11.988 9.36197 11.748C8.90597 11.5 8.54997 11.152 8.29397 10.704C8.04597 10.248 7.92197 9.708 7.92197 9.084C7.92197 8.476 8.04597 7.944 8.29397 7.488C8.54197 7.032 8.88197 6.676 9.31397 6.42C9.74597 6.164 10.238 6.036 10.79 6.036C11.198 6.036 11.562 6.104 11.882 6.24C12.202 6.368 12.474 6.56 12.698 6.816C12.93 7.064 13.102 7.368 13.214 7.728C13.334 8.088 13.394 8.492 13.394 8.94C13.394 9.076 13.354 9.18 13.274 9.252C13.194 9.316 13.074 9.348 12.914 9.348H8.88197V8.604H12.578L12.374 8.772C12.374 8.372 12.314 8.032 12.194 7.752C12.082 7.472 11.91 7.26 11.678 7.116C11.454 6.964 11.174 6.888 10.838 6.888C10.462 6.888 10.142 6.976 9.87797 7.152C9.62197 7.328 9.42597 7.572 9.28997 7.884C9.15397 8.196 9.08597 8.56 9.08597 8.976V9.048C9.08597 9.752 9.24997 10.284 9.57797 10.644C9.91397 10.996 10.398 11.172 11.03 11.172C11.27 11.172 11.522 11.14 11.786 11.076C12.058 11.012 12.314 10.904 12.554 10.752C12.69 10.672 12.81 10.636 12.914 10.644C13.026 10.652 13.114 10.688 13.178 10.752C13.25 10.816 13.294 10.896 13.31 10.992C13.326 11.088 13.31 11.188 13.262 11.292C13.214 11.388 13.13 11.476 13.01 11.556C12.738 11.74 12.422 11.88 12.062 11.976C11.702 12.064 11.354 12.108 11.018 12.108ZM15.3273 12.084C15.1273 12.084 14.9753 12.032 14.8713 11.928C14.7673 11.816 14.7153 11.664 14.7153 11.472V6.672C14.7153 6.472 14.7673 6.32 14.8713 6.216C14.9753 6.112 15.1193 6.06 15.3033 6.06C15.4953 6.06 15.6393 6.112 15.7353 6.216C15.8393 6.32 15.8913 6.472 15.8913 6.672V7.548H15.7713C15.8993 7.068 16.1353 6.704 16.4793 6.456C16.8233 6.208 17.2633 6.064 17.7993 6.024C17.9433 6.016 18.0553 6.052 18.1353 6.132C18.2233 6.212 18.2713 6.336 18.2793 6.504C18.2953 6.672 18.2593 6.808 18.1713 6.912C18.0833 7.008 17.9473 7.064 17.7633 7.08L17.5353 7.104C17.0153 7.152 16.6193 7.316 16.3473 7.596C16.0753 7.876 15.9393 8.26 15.9393 8.748V11.472C15.9393 11.664 15.8873 11.816 15.7833 11.928C15.6873 12.032 15.5353 12.084 15.3273 12.084ZM21.1853 12.108C20.8333 12.108 20.4693 12.068 20.0933 11.988C19.7253 11.908 19.3853 11.772 19.0732 11.58C18.9693 11.508 18.8973 11.428 18.8573 11.34C18.8173 11.252 18.8013 11.164 18.8093 11.076C18.8253 10.98 18.8613 10.9 18.9173 10.836C18.9813 10.764 19.0573 10.72 19.1453 10.704C19.2413 10.688 19.3413 10.708 19.4453 10.764C19.7573 10.94 20.0573 11.064 20.3453 11.136C20.6333 11.2 20.9173 11.232 21.1973 11.232C21.6213 11.232 21.9413 11.156 22.1573 11.004C22.3733 10.852 22.4813 10.648 22.4813 10.392C22.4813 10.184 22.4093 10.024 22.2653 9.912C22.1213 9.792 21.9053 9.7 21.6173 9.636L20.4773 9.408C19.9813 9.304 19.6053 9.12 19.3493 8.856C19.0933 8.592 18.9653 8.256 18.9653 7.848C18.9653 7.48 19.0653 7.16 19.2653 6.888C19.4653 6.616 19.7453 6.408 20.1053 6.264C20.4653 6.112 20.8813 6.036 21.3533 6.036C21.7053 6.036 22.0373 6.08 22.3493 6.168C22.6613 6.256 22.9493 6.388 23.2133 6.564C23.3173 6.62 23.3853 6.696 23.4173 6.792C23.4493 6.88 23.4533 6.968 23.4293 7.056C23.4133 7.144 23.3733 7.224 23.3093 7.296C23.2453 7.36 23.1653 7.4 23.0693 7.416C22.9813 7.424 22.8813 7.4 22.7693 7.344C22.5293 7.192 22.2893 7.084 22.0493 7.02C21.8173 6.956 21.5853 6.924 21.3533 6.924C20.9293 6.924 20.6093 7.004 20.3933 7.164C20.1853 7.316 20.0813 7.524 20.0813 7.788C20.0813 7.988 20.1453 8.152 20.2733 8.28C20.4013 8.408 20.6013 8.5 20.8733 8.556L22.0133 8.784C22.5333 8.888 22.9253 9.064 23.1893 9.312C23.4613 9.56 23.5973 9.896 23.5973 10.32C23.5973 10.872 23.3773 11.308 22.9373 11.628C22.4973 11.948 21.9133 12.108 21.1853 12.108ZM27.4898 12.108C26.8978 12.108 26.3858 11.984 25.9538 11.736C25.5298 11.488 25.1978 11.136 24.9578 10.68C24.7178 10.224 24.5978 9.688 24.5978 9.072C24.5978 8.6 24.6658 8.18 24.8018 7.812C24.9378 7.444 25.1298 7.128 25.3778 6.864C25.6338 6.592 25.9378 6.388 26.2898 6.252C26.6498 6.108 27.0498 6.036 27.4898 6.036C28.0738 6.036 28.5778 6.16 29.0018 6.408C29.4338 6.656 29.7698 7.008 30.0098 7.464C30.2498 7.912 30.3698 8.448 30.3698 9.072C30.3698 9.536 30.3018 9.956 30.1658 10.332C30.0298 10.708 29.8338 11.028 29.5778 11.292C29.3298 11.556 29.0258 11.76 28.6658 11.904C28.3138 12.04 27.9218 12.108 27.4898 12.108ZM27.4898 11.172C27.8178 11.172 28.1058 11.092 28.3538 10.932C28.6018 10.772 28.7938 10.536 28.9298 10.224C29.0738 9.912 29.1458 9.528 29.1458 9.072C29.1458 8.384 28.9938 7.864 28.6898 7.512C28.3858 7.16 27.9858 6.984 27.4898 6.984C27.1538 6.984 26.8618 7.064 26.6138 7.224C26.3658 7.376 26.1698 7.608 26.0258 7.92C25.8898 8.232 25.8218 8.616 25.8218 9.072C25.8218 9.752 25.9738 10.272 26.2778 10.632C26.5818 10.992 26.9858 11.172 27.4898 11.172ZM32.3309 12.084C32.1389 12.084 31.9909 12.032 31.8869 11.928C31.7829 11.816 31.7309 11.664 31.7309 11.472V6.672C31.7309 6.472 31.7829 6.32 31.8869 6.216C31.9909 6.112 32.1349 6.06 32.3189 6.06C32.5109 6.06 32.6549 6.112 32.7509 6.216C32.8549 6.32 32.9069 6.472 32.9069 6.672V7.608L32.7749 7.392C32.9509 6.944 33.2269 6.608 33.6029 6.384C33.9789 6.152 34.4109 6.036 34.8989 6.036C35.3629 6.036 35.7469 6.124 36.0509 6.3C36.3629 6.468 36.5949 6.728 36.7469 7.08C36.8989 7.424 36.9749 7.86 36.9749 8.388V11.472C36.9749 11.664 36.9229 11.816 36.8189 11.928C36.7149 12.032 36.5669 12.084 36.3749 12.084C36.1749 12.084 36.0229 12.032 35.9189 11.928C35.8149 11.816 35.7629 11.664 35.7629 11.472V8.46C35.7629 7.956 35.6629 7.588 35.4629 7.356C35.2709 7.124 34.9669 7.008 34.5509 7.008C34.0629 7.008 33.6709 7.16 33.3749 7.464C33.0869 7.768 32.9429 8.176 32.9429 8.688V11.472C32.9429 11.88 32.7389 12.084 32.3309 12.084ZM40.517 12.108C40.109 12.108 39.741 12.028 39.413 11.868C39.093 11.708 38.841 11.492 38.657 11.22C38.473 10.948 38.381 10.64 38.381 10.296C38.381 9.864 38.489 9.524 38.705 9.276C38.929 9.02 39.293 8.84 39.797 8.736C40.309 8.624 40.997 8.568 41.861 8.568H42.425V9.312H41.873C41.297 9.312 40.841 9.34 40.505 9.396C40.169 9.452 39.929 9.548 39.785 9.684C39.649 9.812 39.581 9.992 39.581 10.224C39.581 10.528 39.685 10.776 39.893 10.968C40.101 11.152 40.389 11.244 40.757 11.244C41.053 11.244 41.313 11.176 41.537 11.04C41.761 10.896 41.937 10.704 42.065 10.464C42.201 10.224 42.269 9.948 42.269 9.636V8.256C42.269 7.8 42.173 7.472 41.981 7.272C41.789 7.072 41.473 6.972 41.033 6.972C40.777 6.972 40.509 7.004 40.229 7.068C39.957 7.132 39.673 7.24 39.377 7.392C39.241 7.456 39.125 7.476 39.029 7.452C38.933 7.428 38.857 7.376 38.801 7.296C38.745 7.208 38.713 7.116 38.705 7.02C38.705 6.916 38.729 6.816 38.777 6.72C38.833 6.624 38.925 6.552 39.053 6.504C39.405 6.336 39.753 6.216 40.097 6.144C40.441 6.072 40.765 6.036 41.069 6.036C41.605 6.036 42.045 6.12 42.389 6.288C42.741 6.456 43.001 6.712 43.169 7.056C43.337 7.4 43.421 7.844 43.421 8.388V11.472C43.421 11.664 43.373 11.816 43.277 11.928C43.181 12.032 43.041 12.084 42.857 12.084C42.681 12.084 42.541 12.032 42.437 11.928C42.333 11.816 42.281 11.664 42.281 11.472V10.692H42.389C42.325 10.988 42.205 11.244 42.029 11.46C41.861 11.668 41.649 11.828 41.393 11.94C41.137 12.052 40.845 12.108 40.517 12.108ZM46.9743 12.108C46.3503 12.108 45.8783 11.928 45.5583 11.568C45.2463 11.2 45.0903 10.672 45.0903 9.984V4.068C45.0903 3.868 45.1423 3.716 45.2463 3.612C45.3503 3.508 45.4983 3.456 45.6903 3.456C45.8823 3.456 46.0303 3.508 46.1343 3.612C46.2463 3.716 46.3023 3.868 46.3023 4.068V9.912C46.3023 10.312 46.3823 10.612 46.5423 10.812C46.7103 11.004 46.9503 11.1 47.2623 11.1C47.3343 11.1 47.3983 11.1 47.4543 11.1C47.5103 11.092 47.5663 11.084 47.6223 11.076C47.7183 11.068 47.7863 11.096 47.8263 11.16C47.8663 11.216 47.8863 11.336 47.8863 11.52C47.8863 11.688 47.8503 11.82 47.7783 11.916C47.7063 12.004 47.5903 12.06 47.4303 12.084C47.3583 12.092 47.2823 12.096 47.2023 12.096C47.1223 12.104 47.0463 12.108 46.9743 12.108ZM52.7263 12C52.5103 12 52.3423 11.944 52.2223 11.832C52.1103 11.712 52.0543 11.544 52.0543 11.328V4.212C52.0543 3.996 52.1103 3.832 52.2223 3.72C52.3423 3.6 52.5103 3.54 52.7263 3.54H55.0423C56.4343 3.54 57.5063 3.904 58.2583 4.632C59.0183 5.352 59.3983 6.396 59.3983 7.764C59.3983 8.444 59.3023 9.048 59.1103 9.576C58.9183 10.104 58.6343 10.548 58.2583 10.908C57.8903 11.26 57.4383 11.532 56.9023 11.724C56.3663 11.908 55.7463 12 55.0423 12H52.7263ZM53.3023 10.956H54.9703C55.4983 10.956 55.9543 10.892 56.3383 10.764C56.7303 10.628 57.0583 10.428 57.3223 10.164C57.5863 9.9 57.7823 9.568 57.9103 9.168C58.0383 8.768 58.1023 8.3 58.1023 7.764C58.1023 6.7 57.8383 5.904 57.3103 5.376C56.7903 4.848 56.0103 4.584 54.9703 4.584H53.3023V10.956ZM63.682 12.108C63.042 12.108 62.49 11.988 62.026 11.748C61.57 11.5 61.214 11.152 60.958 10.704C60.71 10.248 60.586 9.708 60.586 9.084C60.586 8.476 60.71 7.944 60.958 7.488C61.206 7.032 61.546 6.676 61.978 6.42C62.41 6.164 62.902 6.036 63.454 6.036C63.862 6.036 64.226 6.104 64.546 6.24C64.866 6.368 65.138 6.56 65.362 6.816C65.594 7.064 65.766 7.368 65.878 7.728C65.998 8.088 66.058 8.492 66.058 8.94C66.058 9.076 66.018 9.18 65.938 9.252C65.858 9.316 65.738 9.348 65.578 9.348H61.546V8.604H65.242L65.038 8.772C65.038 8.372 64.978 8.032 64.858 7.752C64.746 7.472 64.574 7.26 64.342 7.116C64.118 6.964 63.838 6.888 63.502 6.888C63.126 6.888 62.806 6.976 62.542 7.152C62.286 7.328 62.09 7.572 61.954 7.884C61.818 8.196 61.75 8.56 61.75 8.976V9.048C61.75 9.752 61.914 10.284 62.242 10.644C62.578 10.996 63.062 11.172 63.694 11.172C63.934 11.172 64.186 11.14 64.45 11.076C64.722 11.012 64.978 10.904 65.218 10.752C65.354 10.672 65.474 10.636 65.578 10.644C65.69 10.652 65.778 10.688 65.842 10.752C65.914 10.816 65.958 10.896 65.974 10.992C65.99 11.088 65.974 11.188 65.926 11.292C65.878 11.388 65.794 11.476 65.674 11.556C65.402 11.74 65.086 11.88 64.726 11.976C64.366 12.064 64.018 12.108 63.682 12.108ZM69.8636 12.108C69.3836 12.108 68.9796 12.024 68.6516 11.856C68.3236 11.688 68.0796 11.44 67.9196 11.112C67.7596 10.784 67.6796 10.384 67.6796 9.912V7.08H66.9596C66.7996 7.08 66.6756 7.04 66.5876 6.96C66.4996 6.872 66.4556 6.756 66.4556 6.612C66.4556 6.46 66.4996 6.344 66.5876 6.264C66.6756 6.184 66.7996 6.144 66.9596 6.144H67.6796V4.908C67.6796 4.708 67.7316 4.556 67.8356 4.452C67.9476 4.348 68.0996 4.296 68.2916 4.296C68.4836 4.296 68.6316 4.348 68.7356 4.452C68.8396 4.556 68.8916 4.708 68.8916 4.908V6.144H70.2956C70.4556 6.144 70.5796 6.184 70.6676 6.264C70.7556 6.344 70.7996 6.46 70.7996 6.612C70.7996 6.756 70.7556 6.872 70.6676 6.96C70.5796 7.04 70.4556 7.08 70.2956 7.08H68.8916V9.816C68.8916 10.24 68.9796 10.56 69.1556 10.776C69.3396 10.992 69.6356 11.1 70.0436 11.1C70.1876 11.1 70.3116 11.088 70.4156 11.064C70.5276 11.032 70.6196 11.012 70.6916 11.004C70.7796 11.004 70.8516 11.036 70.9076 11.1C70.9636 11.156 70.9916 11.268 70.9916 11.436C70.9916 11.556 70.9676 11.668 70.9196 11.772C70.8796 11.876 70.8036 11.944 70.6916 11.976C70.5956 12.008 70.4636 12.036 70.2956 12.06C70.1356 12.092 69.9916 12.108 69.8636 12.108ZM73.6224 12.108C73.2144 12.108 72.8464 12.028 72.5184 11.868C72.1984 11.708 71.9464 11.492 71.7624 11.22C71.5784 10.948 71.4864 10.64 71.4864 10.296C71.4864 9.864 71.5944 9.524 71.8104 9.276C72.0344 9.02 72.3984 8.84 72.9024 8.736C73.4144 8.624 74.1024 8.568 74.9664 8.568H75.5304V9.312H74.9784C74.4024 9.312 73.9464 9.34 73.6104 9.396C73.2744 9.452 73.0344 9.548 72.8904 9.684C72.7544 9.812 72.6864 9.992 72.6864 10.224C72.6864 10.528 72.7904 10.776 72.9984 10.968C73.2064 11.152 73.4944 11.244 73.8624 11.244C74.1584 11.244 74.4184 11.176 74.6424 11.04C74.8664 10.896 75.0424 10.704 75.1704 10.464C75.3064 10.224 75.3744 9.948 75.3744 9.636V8.256C75.3744 7.8 75.2784 7.472 75.0864 7.272C74.8944 7.072 74.5784 6.972 74.1384 6.972C73.8824 6.972 73.6144 7.004 73.3344 7.068C73.0624 7.132 72.7784 7.24 72.4824 7.392C72.3464 7.456 72.2304 7.476 72.1344 7.452C72.0384 7.428 71.9624 7.376 71.9064 7.296C71.8504 7.208 71.8184 7.116 71.8104 7.02C71.8104 6.916 71.8344 6.816 71.8824 6.72C71.9384 6.624 72.0304 6.552 72.1584 6.504C72.5104 6.336 72.8584 6.216 73.2024 6.144C73.5464 6.072 73.8704 6.036 74.1744 6.036C74.7104 6.036 75.1504 6.12 75.4944 6.288C75.8464 6.456 76.1064 6.712 76.2744 7.056C76.4424 7.4 76.5264 7.844 76.5264 8.388V11.472C76.5264 11.664 76.4784 11.816 76.3824 11.928C76.2864 12.032 76.1464 12.084 75.9624 12.084C75.7864 12.084 75.6464 12.032 75.5424 11.928C75.4384 11.816 75.3864 11.664 75.3864 11.472V10.692H75.4944C75.4304 10.988 75.3104 11.244 75.1344 11.46C74.9664 11.668 74.7544 11.828 74.4984 11.94C74.2424 12.052 73.9504 12.108 73.6224 12.108ZM78.7958 12.072C78.6038 12.072 78.4558 12.016 78.3518 11.904C78.2478 11.784 78.1958 11.62 78.1958 11.412V6.732C78.1958 6.524 78.2478 6.364 78.3518 6.252C78.4558 6.14 78.6038 6.084 78.7958 6.084C78.9878 6.084 79.1358 6.14 79.2398 6.252C79.3518 6.364 79.4078 6.524 79.4078 6.732V11.412C79.4078 11.62 79.3558 11.784 79.2518 11.904C79.1478 12.016 78.9958 12.072 78.7958 12.072ZM78.7958 4.836C78.5558 4.836 78.3678 4.776 78.2318 4.656C78.1038 4.536 78.0398 4.368 78.0398 4.152C78.0398 3.928 78.1038 3.76 78.2318 3.648C78.3678 3.528 78.5558 3.468 78.7958 3.468C79.0358 3.468 79.2198 3.528 79.3478 3.648C79.4838 3.76 79.5518 3.928 79.5518 4.152C79.5518 4.368 79.4838 4.536 79.3478 4.656C79.2198 4.776 79.0358 4.836 78.7958 4.836ZM82.9977 12.108C82.3737 12.108 81.9017 11.928 81.5817 11.568C81.2697 11.2 81.1137 10.672 81.1137 9.984V4.068C81.1137 3.868 81.1657 3.716 81.2697 3.612C81.3737 3.508 81.5217 3.456 81.7137 3.456C81.9057 3.456 82.0537 3.508 82.1577 3.612C82.2697 3.716 82.3257 3.868 82.3257 4.068V9.912C82.3257 10.312 82.4057 10.612 82.5657 10.812C82.7337 11.004 82.9737 11.1 83.2857 11.1C83.3577 11.1 83.4217 11.1 83.4777 11.1C83.5337 11.092 83.5897 11.084 83.6457 11.076C83.7417 11.068 83.8097 11.096 83.8497 11.16C83.8897 11.216 83.9097 11.336 83.9097 11.52C83.9097 11.688 83.8737 11.82 83.8017 11.916C83.7297 12.004 83.6137 12.06 83.4537 12.084C83.3817 12.092 83.3057 12.096 83.2257 12.096C83.1457 12.104 83.0697 12.108 82.9977 12.108ZM86.7751 12.108C86.4231 12.108 86.0591 12.068 85.6831 11.988C85.3151 11.908 84.9751 11.772 84.6631 11.58C84.5591 11.508 84.4871 11.428 84.4471 11.34C84.4071 11.252 84.3911 11.164 84.3991 11.076C84.4151 10.98 84.4511 10.9 84.5071 10.836C84.5711 10.764 84.6471 10.72 84.7351 10.704C84.8311 10.688 84.9311 10.708 85.0351 10.764C85.3471 10.94 85.6471 11.064 85.9351 11.136C86.2231 11.2 86.5071 11.232 86.7871 11.232C87.2111 11.232 87.5311 11.156 87.7471 11.004C87.9631 10.852 88.0711 10.648 88.0711 10.392C88.0711 10.184 87.9991 10.024 87.8551 9.912C87.7111 9.792 87.4951 9.7 87.2071 9.636L86.0671 9.408C85.5711 9.304 85.1951 9.12 84.9391 8.856C84.6831 8.592 84.5551 8.256 84.5551 7.848C84.5551 7.48 84.6551 7.16 84.8551 6.888C85.0551 6.616 85.3351 6.408 85.6951 6.264C86.0551 6.112 86.4711 6.036 86.9431 6.036C87.2951 6.036 87.6271 6.08 87.9391 6.168C88.2511 6.256 88.5391 6.388 88.8031 6.564C88.9071 6.62 88.9751 6.696 89.0071 6.792C89.0391 6.88 89.0431 6.968 89.0191 7.056C89.0031 7.144 88.9631 7.224 88.8991 7.296C88.8351 7.36 88.7551 7.4 88.6591 7.416C88.5711 7.424 88.4711 7.4 88.3591 7.344C88.1191 7.192 87.8791 7.084 87.6391 7.02C87.4071 6.956 87.1751 6.924 86.9431 6.924C86.5191 6.924 86.1991 7.004 85.9831 7.164C85.7751 7.316 85.6711 7.524 85.6711 7.788C85.6711 7.988 85.7351 8.152 85.8631 8.28C85.9911 8.408 86.1911 8.5 86.4631 8.556L87.6031 8.784C88.1231 8.888 88.5151 9.064 88.7791 9.312C89.0511 9.56 89.1871 9.896 89.1871 10.32C89.1871 10.872 88.9671 11.308 88.5271 11.628C88.0871 11.948 87.5031 12.108 86.7751 12.108Z" fill="#64728C"/>
</svg>
