<svg width="310" height="75" viewBox="0 0 310 75" fill="none" xmlns="http://www.w3.org/2000/svg">
<g filter="url(#filter0_d_558_4997)">
<rect x="5" y="21" width="300" height="45" rx="12" fill="white" shape-rendering="crispEdges"/>
<rect x="5.5" y="21.5" width="299" height="44" rx="11.5" stroke="#64728C" shape-rendering="crispEdges"/>
<path d="M18.78 47.608C18.404 47.608 18.036 47.576 17.676 47.512C17.316 47.448 16.98 47.356 16.668 47.236C16.364 47.116 16.088 46.964 15.84 46.78C15.744 46.708 15.676 46.628 15.636 46.54C15.604 46.444 15.596 46.352 15.612 46.264C15.636 46.168 15.676 46.088 15.732 46.024C15.796 45.96 15.872 45.924 15.96 45.916C16.048 45.908 16.144 45.936 16.248 46C16.608 46.256 16.992 46.444 17.4 46.564C17.808 46.676 18.268 46.732 18.78 46.732C19.5 46.732 20.032 46.6 20.376 46.336C20.728 46.064 20.904 45.708 20.904 45.268C20.904 44.908 20.776 44.628 20.52 44.428C20.272 44.22 19.852 44.056 19.26 43.936L18.012 43.684C17.26 43.524 16.696 43.264 16.32 42.904C15.952 42.536 15.768 42.048 15.768 41.44C15.768 41.064 15.844 40.724 15.996 40.42C16.148 40.108 16.36 39.844 16.632 39.628C16.904 39.404 17.228 39.232 17.604 39.112C17.98 38.992 18.396 38.932 18.852 38.932C19.356 38.932 19.824 39.004 20.256 39.148C20.696 39.284 21.092 39.492 21.444 39.772C21.532 39.844 21.592 39.928 21.624 40.024C21.656 40.112 21.66 40.2 21.636 40.288C21.612 40.368 21.568 40.436 21.504 40.492C21.448 40.548 21.372 40.58 21.276 40.588C21.188 40.596 21.088 40.564 20.976 40.492C20.656 40.252 20.324 40.08 19.98 39.976C19.636 39.864 19.256 39.808 18.84 39.808C18.416 39.808 18.048 39.872 17.736 40C17.432 40.128 17.192 40.316 17.016 40.564C16.848 40.804 16.764 41.084 16.764 41.404C16.764 41.788 16.88 42.092 17.112 42.316C17.352 42.54 17.74 42.704 18.276 42.808L19.524 43.072C20.332 43.24 20.928 43.496 21.312 43.84C21.704 44.176 21.9 44.636 21.9 45.22C21.9 45.572 21.828 45.896 21.684 46.192C21.54 46.488 21.332 46.744 21.06 46.96C20.788 47.168 20.46 47.328 20.076 47.44C19.692 47.552 19.26 47.608 18.78 47.608ZM25.9228 47.608C25.3068 47.608 24.7748 47.488 24.3268 47.248C23.8868 47 23.5428 46.652 23.2948 46.204C23.0548 45.756 22.9348 45.22 22.9348 44.596C22.9348 43.988 23.0548 43.46 23.2948 43.012C23.5348 42.556 23.8628 42.2 24.2788 41.944C24.7028 41.688 25.1908 41.56 25.7428 41.56C26.1348 41.56 26.4868 41.628 26.7988 41.764C27.1108 41.892 27.3748 42.08 27.5908 42.328C27.8148 42.576 27.9828 42.876 28.0948 43.228C28.2148 43.58 28.2748 43.976 28.2748 44.416C28.2748 44.544 28.2388 44.64 28.1668 44.704C28.0948 44.76 27.9908 44.788 27.8548 44.788H23.6788V44.152H27.6268L27.4348 44.308C27.4348 43.876 27.3708 43.512 27.2428 43.216C27.1148 42.912 26.9268 42.68 26.6788 42.52C26.4388 42.36 26.1348 42.28 25.7668 42.28C25.3588 42.28 25.0108 42.376 24.7228 42.568C24.4428 42.752 24.2308 43.012 24.0868 43.348C23.9428 43.676 23.8708 44.06 23.8708 44.5V44.572C23.8708 45.308 24.0468 45.868 24.3988 46.252C24.7588 46.636 25.2668 46.828 25.9228 46.828C26.1948 46.828 26.4628 46.792 26.7268 46.72C26.9988 46.648 27.2628 46.528 27.5188 46.36C27.6308 46.288 27.7308 46.256 27.8188 46.264C27.9148 46.264 27.9908 46.292 28.0468 46.348C28.1028 46.396 28.1388 46.46 28.1548 46.54C28.1788 46.612 28.1708 46.692 28.1308 46.78C28.0988 46.868 28.0308 46.944 27.9268 47.008C27.6628 47.2 27.3508 47.348 26.9908 47.452C26.6308 47.556 26.2748 47.608 25.9228 47.608ZM31.4575 47.608C30.8815 47.608 30.4415 47.432 30.1375 47.08C29.8335 46.728 29.6815 46.224 29.6815 45.568V39.448C29.6815 39.288 29.7215 39.168 29.8015 39.088C29.8815 39 30.0015 38.956 30.1615 38.956C30.3135 38.956 30.4335 39 30.5215 39.088C30.6095 39.168 30.6535 39.288 30.6535 39.448V45.496C30.6535 45.928 30.7375 46.252 30.9055 46.468C31.0815 46.676 31.3375 46.78 31.6735 46.78C31.7455 46.78 31.8095 46.776 31.8655 46.768C31.9215 46.76 31.9775 46.756 32.0335 46.756C32.1215 46.748 32.1815 46.768 32.2135 46.816C32.2535 46.864 32.2735 46.96 32.2735 47.104C32.2735 47.248 32.2415 47.356 32.1775 47.428C32.1135 47.5 32.0095 47.548 31.8655 47.572C31.8015 47.58 31.7335 47.588 31.6615 47.596C31.5895 47.604 31.5215 47.608 31.4575 47.608ZM35.8017 47.608C35.1857 47.608 34.6537 47.488 34.2057 47.248C33.7657 47 33.4217 46.652 33.1737 46.204C32.9337 45.756 32.8137 45.22 32.8137 44.596C32.8137 43.988 32.9337 43.46 33.1737 43.012C33.4137 42.556 33.7417 42.2 34.1577 41.944C34.5817 41.688 35.0697 41.56 35.6217 41.56C36.0137 41.56 36.3657 41.628 36.6777 41.764C36.9897 41.892 37.2537 42.08 37.4697 42.328C37.6937 42.576 37.8617 42.876 37.9737 43.228C38.0937 43.58 38.1537 43.976 38.1537 44.416C38.1537 44.544 38.1177 44.64 38.0457 44.704C37.9737 44.76 37.8697 44.788 37.7337 44.788H33.5577V44.152H37.5057L37.3137 44.308C37.3137 43.876 37.2497 43.512 37.1217 43.216C36.9937 42.912 36.8057 42.68 36.5577 42.52C36.3177 42.36 36.0137 42.28 35.6457 42.28C35.2377 42.28 34.8897 42.376 34.6017 42.568C34.3217 42.752 34.1097 43.012 33.9657 43.348C33.8217 43.676 33.7497 44.06 33.7497 44.5V44.572C33.7497 45.308 33.9257 45.868 34.2777 46.252C34.6377 46.636 35.1457 46.828 35.8017 46.828C36.0737 46.828 36.3417 46.792 36.6057 46.72C36.8777 46.648 37.1417 46.528 37.3977 46.36C37.5097 46.288 37.6097 46.256 37.6977 46.264C37.7937 46.264 37.8697 46.292 37.9257 46.348C37.9817 46.396 38.0177 46.46 38.0337 46.54C38.0577 46.612 38.0497 46.692 38.0097 46.78C37.9777 46.868 37.9097 46.944 37.8057 47.008C37.5417 47.2 37.2297 47.348 36.8697 47.452C36.5097 47.556 36.1537 47.608 35.8017 47.608ZM42.0324 47.608C41.4484 47.608 40.9444 47.48 40.5204 47.224C40.0964 46.968 39.7684 46.612 39.5364 46.156C39.3124 45.692 39.2004 45.156 39.2004 44.548C39.2004 44.084 39.2644 43.668 39.3924 43.3C39.5204 42.932 39.7084 42.62 39.9564 42.364C40.2044 42.1 40.5004 41.9 40.8444 41.764C41.1964 41.628 41.5924 41.56 42.0324 41.56C42.3204 41.56 42.6204 41.604 42.9324 41.692C43.2444 41.78 43.5284 41.932 43.7844 42.148C43.8644 42.204 43.9164 42.272 43.9404 42.352C43.9644 42.432 43.9644 42.512 43.9404 42.592C43.9164 42.664 43.8764 42.728 43.8204 42.784C43.7644 42.832 43.6924 42.86 43.6044 42.868C43.5244 42.876 43.4404 42.848 43.3524 42.784C43.1444 42.624 42.9324 42.512 42.7164 42.448C42.5004 42.384 42.2924 42.352 42.0924 42.352C41.7804 42.352 41.5084 42.404 41.2764 42.508C41.0444 42.604 40.8484 42.744 40.6884 42.928C40.5284 43.112 40.4044 43.34 40.3164 43.612C40.2364 43.884 40.1964 44.2 40.1964 44.56C40.1964 45.256 40.3604 45.808 40.6884 46.216C41.0164 46.616 41.4844 46.816 42.0924 46.816C42.2924 46.816 42.4964 46.784 42.7044 46.72C42.9204 46.656 43.1364 46.544 43.3524 46.384C43.4404 46.32 43.5244 46.292 43.6044 46.3C43.6844 46.308 43.7524 46.34 43.8084 46.396C43.8644 46.444 43.9004 46.508 43.9164 46.588C43.9404 46.668 43.9404 46.748 43.9164 46.828C43.8924 46.9 43.8404 46.964 43.7604 47.02C43.5044 47.228 43.2244 47.38 42.9204 47.476C42.6164 47.564 42.3204 47.608 42.0324 47.608ZM47.4551 47.608C46.9991 47.608 46.6151 47.528 46.3031 47.368C45.9991 47.2 45.7711 46.96 45.6191 46.648C45.4671 46.328 45.3911 45.94 45.3911 45.484V42.424H44.5871C44.4511 42.424 44.3471 42.392 44.2751 42.328C44.2031 42.256 44.1671 42.16 44.1671 42.04C44.1671 41.92 44.2031 41.828 44.2751 41.764C44.3471 41.7 44.4511 41.668 44.5871 41.668H45.3911V40.288C45.3911 40.128 45.4351 40.008 45.5231 39.928C45.6111 39.84 45.7311 39.796 45.8831 39.796C46.0351 39.796 46.1511 39.84 46.2311 39.928C46.3191 40.008 46.3631 40.128 46.3631 40.288V41.668H47.8751C48.0111 41.668 48.1151 41.7 48.1871 41.764C48.2591 41.828 48.2951 41.92 48.2951 42.04C48.2951 42.16 48.2591 42.256 48.1871 42.328C48.1151 42.392 48.0111 42.424 47.8751 42.424H46.3631V45.388C46.3631 45.844 46.4591 46.192 46.6511 46.432C46.8431 46.664 47.1551 46.78 47.5871 46.78C47.7391 46.78 47.8671 46.764 47.9711 46.732C48.0831 46.7 48.1751 46.684 48.2471 46.684C48.3191 46.676 48.3791 46.7 48.4271 46.756C48.4751 46.812 48.4991 46.908 48.4991 47.044C48.4991 47.14 48.4791 47.228 48.4391 47.308C48.4071 47.388 48.3471 47.444 48.2591 47.476C48.1631 47.508 48.0351 47.536 47.8751 47.56C47.7231 47.592 47.5831 47.608 47.4551 47.608ZM56.1219 47.584C55.9619 47.584 55.8379 47.54 55.7499 47.452C55.6699 47.356 55.6299 47.228 55.6299 47.068V39.472C55.6299 39.304 55.6699 39.176 55.7499 39.088C55.8379 39 55.9619 38.956 56.1219 38.956C56.2819 38.956 56.4019 39 56.4819 39.088C56.5699 39.176 56.6139 39.304 56.6139 39.472V47.068C56.6139 47.228 56.5739 47.356 56.4939 47.452C56.4139 47.54 56.2899 47.584 56.1219 47.584ZM60.92 47.608C60.464 47.608 60.08 47.528 59.768 47.368C59.464 47.2 59.236 46.96 59.084 46.648C58.932 46.328 58.856 45.94 58.856 45.484V42.424H58.052C57.916 42.424 57.812 42.392 57.74 42.328C57.668 42.256 57.632 42.16 57.632 42.04C57.632 41.92 57.668 41.828 57.74 41.764C57.812 41.7 57.916 41.668 58.052 41.668H58.856V40.288C58.856 40.128 58.9 40.008 58.988 39.928C59.076 39.84 59.196 39.796 59.348 39.796C59.5 39.796 59.616 39.84 59.696 39.928C59.784 40.008 59.828 40.128 59.828 40.288V41.668H61.34C61.476 41.668 61.58 41.7 61.652 41.764C61.724 41.828 61.76 41.92 61.76 42.04C61.76 42.16 61.724 42.256 61.652 42.328C61.58 42.392 61.476 42.424 61.34 42.424H59.828V45.388C59.828 45.844 59.924 46.192 60.116 46.432C60.308 46.664 60.62 46.78 61.052 46.78C61.204 46.78 61.332 46.764 61.436 46.732C61.548 46.7 61.64 46.684 61.712 46.684C61.784 46.676 61.844 46.7 61.892 46.756C61.94 46.812 61.964 46.908 61.964 47.044C61.964 47.14 61.944 47.228 61.904 47.308C61.872 47.388 61.812 47.444 61.724 47.476C61.628 47.508 61.5 47.536 61.34 47.56C61.188 47.592 61.048 47.608 60.92 47.608ZM65.3447 47.608C64.7287 47.608 64.1967 47.488 63.7487 47.248C63.3087 47 62.9647 46.652 62.7167 46.204C62.4767 45.756 62.3567 45.22 62.3567 44.596C62.3567 43.988 62.4767 43.46 62.7167 43.012C62.9567 42.556 63.2847 42.2 63.7007 41.944C64.1247 41.688 64.6127 41.56 65.1647 41.56C65.5567 41.56 65.9087 41.628 66.2207 41.764C66.5327 41.892 66.7967 42.08 67.0127 42.328C67.2367 42.576 67.4047 42.876 67.5167 43.228C67.6367 43.58 67.6967 43.976 67.6967 44.416C67.6967 44.544 67.6607 44.64 67.5887 44.704C67.5167 44.76 67.4127 44.788 67.2767 44.788H63.1007V44.152H67.0487L66.8567 44.308C66.8567 43.876 66.7927 43.512 66.6647 43.216C66.5367 42.912 66.3487 42.68 66.1007 42.52C65.8607 42.36 65.5567 42.28 65.1887 42.28C64.7807 42.28 64.4327 42.376 64.1447 42.568C63.8647 42.752 63.6527 43.012 63.5087 43.348C63.3647 43.676 63.2927 44.06 63.2927 44.5V44.572C63.2927 45.308 63.4687 45.868 63.8207 46.252C64.1807 46.636 64.6887 46.828 65.3447 46.828C65.6167 46.828 65.8847 46.792 66.1487 46.72C66.4207 46.648 66.6847 46.528 66.9407 46.36C67.0527 46.288 67.1527 46.256 67.2407 46.264C67.3367 46.264 67.4127 46.292 67.4687 46.348C67.5247 46.396 67.5607 46.46 67.5767 46.54C67.6007 46.612 67.5927 46.692 67.5527 46.78C67.5207 46.868 67.4527 46.944 67.3487 47.008C67.0847 47.2 66.7727 47.348 66.4127 47.452C66.0527 47.556 65.6967 47.608 65.3447 47.608ZM69.6074 47.584C69.4474 47.584 69.3274 47.54 69.2474 47.452C69.1674 47.364 69.1274 47.24 69.1274 47.08V42.076C69.1274 41.916 69.1674 41.796 69.2474 41.716C69.3274 41.628 69.4434 41.584 69.5954 41.584C69.7474 41.584 69.8634 41.628 69.9434 41.716C70.0314 41.796 70.0754 41.916 70.0754 42.076V43.132L69.9434 42.964C70.0954 42.516 70.3394 42.172 70.6754 41.932C71.0194 41.684 71.4274 41.56 71.8994 41.56C72.3954 41.56 72.7954 41.68 73.0994 41.92C73.4114 42.152 73.6194 42.516 73.7234 43.012H73.5434C73.6874 42.564 73.9434 42.212 74.3114 41.956C74.6874 41.692 75.1234 41.56 75.6194 41.56C76.0594 41.56 76.4194 41.644 76.6994 41.812C76.9874 41.98 77.2034 42.236 77.3474 42.58C77.4914 42.916 77.5634 43.344 77.5634 43.864V47.08C77.5634 47.24 77.5194 47.364 77.4314 47.452C77.3514 47.54 77.2314 47.584 77.0714 47.584C76.9194 47.584 76.7994 47.54 76.7114 47.452C76.6314 47.364 76.5914 47.24 76.5914 47.08V43.912C76.5914 43.376 76.4994 42.984 76.3154 42.736C76.1314 42.48 75.8194 42.352 75.3794 42.352C74.8994 42.352 74.5194 42.52 74.2394 42.856C73.9674 43.184 73.8314 43.632 73.8314 44.2V47.08C73.8314 47.24 73.7874 47.364 73.6994 47.452C73.6194 47.54 73.4994 47.584 73.3394 47.584C73.1874 47.584 73.0674 47.54 72.9794 47.452C72.8994 47.364 72.8594 47.24 72.8594 47.08V43.912C72.8594 43.376 72.7634 42.984 72.5714 42.736C72.3874 42.48 72.0794 42.352 71.6474 42.352C71.1674 42.352 70.7874 42.52 70.5074 42.856C70.2354 43.184 70.0994 43.632 70.0994 44.2V47.08C70.0994 47.416 69.9354 47.584 69.6074 47.584ZM81.3488 47.608C80.9888 47.608 80.6248 47.564 80.2568 47.476C79.8968 47.388 79.5608 47.236 79.2488 47.02C79.1688 46.964 79.1128 46.9 79.0808 46.828C79.0488 46.748 79.0368 46.672 79.0448 46.6C79.0608 46.52 79.0928 46.452 79.1408 46.396C79.1968 46.34 79.2608 46.308 79.3328 46.3C79.4128 46.284 79.5008 46.3 79.5968 46.348C79.9088 46.54 80.2088 46.676 80.4968 46.756C80.7928 46.828 81.0848 46.864 81.3728 46.864C81.8288 46.864 82.1728 46.78 82.4048 46.612C82.6368 46.444 82.7528 46.216 82.7528 45.928C82.7528 45.704 82.6768 45.528 82.5248 45.4C82.3728 45.264 82.1328 45.16 81.8048 45.088L80.7128 44.848C80.2088 44.744 79.8328 44.564 79.5848 44.308C79.3448 44.052 79.2248 43.72 79.2248 43.312C79.2248 42.952 79.3168 42.644 79.5008 42.388C79.6928 42.124 79.9608 41.92 80.3048 41.776C80.6488 41.632 81.0488 41.56 81.5048 41.56C81.8568 41.56 82.1888 41.608 82.5008 41.704C82.8208 41.792 83.1088 41.936 83.3648 42.136C83.4448 42.192 83.4968 42.26 83.5208 42.34C83.5528 42.412 83.5568 42.488 83.5328 42.568C83.5168 42.64 83.4808 42.704 83.4248 42.76C83.3688 42.808 83.3008 42.836 83.2208 42.844C83.1408 42.852 83.0568 42.828 82.9688 42.772C82.7288 42.612 82.4848 42.496 82.2368 42.424C81.9888 42.344 81.7448 42.304 81.5048 42.304C81.0568 42.304 80.7168 42.392 80.4848 42.568C80.2528 42.744 80.1368 42.976 80.1368 43.264C80.1368 43.488 80.2088 43.672 80.3528 43.816C80.4968 43.96 80.7208 44.064 81.0248 44.128L82.1168 44.356C82.6368 44.468 83.0248 44.648 83.2808 44.896C83.5448 45.136 83.6768 45.464 83.6768 45.88C83.6768 46.408 83.4648 46.828 83.0408 47.14C82.6168 47.452 82.0528 47.608 81.3488 47.608Z" fill="#929BAA"/>
<rect x="265" y="25.5" width="36" height="36" rx="12" fill="#64728C" fill-opacity="0.12"/>
<path d="M284.039 48.2C283.577 49 282.423 49 281.961 48.2L278.843 42.8C278.381 42 278.959 41 279.882 41L286.118 41C287.041 41 287.619 42 287.157 42.8L284.039 48.2Z" fill="#64728C"/>
</g>
<path d="M6.608 12.084C6.408 12.084 6.252 12.028 6.14 11.916C6.036 11.804 5.984 11.648 5.984 11.448V4.176C5.984 3.968 6.04 3.812 6.152 3.708C6.264 3.596 6.42 3.54 6.62 3.54H9.488C10.4 3.54 11.104 3.768 11.6 4.224C12.096 4.672 12.344 5.304 12.344 6.12C12.344 6.944 12.096 7.584 11.6 8.04C11.104 8.488 10.4 8.712 9.488 8.712H7.232V11.448C7.232 11.648 7.18 11.804 7.076 11.916C6.972 12.028 6.816 12.084 6.608 12.084ZM7.232 7.716H9.308C9.908 7.716 10.36 7.584 10.664 7.32C10.976 7.048 11.132 6.648 11.132 6.12C11.132 5.6 10.976 5.208 10.664 4.944C10.36 4.672 9.908 4.536 9.308 4.536H7.232V7.716ZM16.018 12.108C15.378 12.108 14.826 11.988 14.362 11.748C13.906 11.5 13.55 11.152 13.294 10.704C13.046 10.248 12.922 9.708 12.922 9.084C12.922 8.476 13.046 7.944 13.294 7.488C13.542 7.032 13.882 6.676 14.314 6.42C14.746 6.164 15.238 6.036 15.79 6.036C16.198 6.036 16.562 6.104 16.882 6.24C17.202 6.368 17.474 6.56 17.698 6.816C17.93 7.064 18.102 7.368 18.214 7.728C18.334 8.088 18.394 8.492 18.394 8.94C18.394 9.076 18.354 9.18 18.274 9.252C18.194 9.316 18.074 9.348 17.914 9.348H13.882V8.604H17.578L17.374 8.772C17.374 8.372 17.314 8.032 17.194 7.752C17.082 7.472 16.91 7.26 16.678 7.116C16.454 6.964 16.174 6.888 15.838 6.888C15.462 6.888 15.142 6.976 14.878 7.152C14.622 7.328 14.426 7.572 14.29 7.884C14.154 8.196 14.086 8.56 14.086 8.976V9.048C14.086 9.752 14.25 10.284 14.578 10.644C14.914 10.996 15.398 11.172 16.03 11.172C16.27 11.172 16.522 11.14 16.786 11.076C17.058 11.012 17.314 10.904 17.554 10.752C17.69 10.672 17.81 10.636 17.914 10.644C18.026 10.652 18.114 10.688 18.178 10.752C18.25 10.816 18.294 10.896 18.31 10.992C18.326 11.088 18.31 11.188 18.262 11.292C18.214 11.388 18.13 11.476 18.01 11.556C17.738 11.74 17.422 11.88 17.062 11.976C16.702 12.064 16.354 12.108 16.018 12.108ZM20.3273 12.084C20.1273 12.084 19.9753 12.032 19.8713 11.928C19.7673 11.816 19.7153 11.664 19.7153 11.472V6.672C19.7153 6.472 19.7673 6.32 19.8713 6.216C19.9753 6.112 20.1193 6.06 20.3033 6.06C20.4953 6.06 20.6393 6.112 20.7353 6.216C20.8393 6.32 20.8913 6.472 20.8913 6.672V7.548H20.7713C20.8993 7.068 21.1353 6.704 21.4793 6.456C21.8233 6.208 22.2633 6.064 22.7993 6.024C22.9433 6.016 23.0553 6.052 23.1353 6.132C23.2233 6.212 23.2713 6.336 23.2793 6.504C23.2953 6.672 23.2593 6.808 23.1713 6.912C23.0833 7.008 22.9473 7.064 22.7633 7.08L22.5353 7.104C22.0153 7.152 21.6193 7.316 21.3473 7.596C21.0753 7.876 20.9393 8.26 20.9393 8.748V11.472C20.9393 11.664 20.8873 11.816 20.7833 11.928C20.6873 12.032 20.5353 12.084 20.3273 12.084ZM26.1853 12.108C25.8333 12.108 25.4693 12.068 25.0933 11.988C24.7253 11.908 24.3853 11.772 24.0732 11.58C23.9693 11.508 23.8973 11.428 23.8573 11.34C23.8173 11.252 23.8013 11.164 23.8093 11.076C23.8253 10.98 23.8613 10.9 23.9173 10.836C23.9813 10.764 24.0573 10.72 24.1453 10.704C24.2413 10.688 24.3413 10.708 24.4453 10.764C24.7573 10.94 25.0573 11.064 25.3453 11.136C25.6333 11.2 25.9173 11.232 26.1973 11.232C26.6213 11.232 26.9413 11.156 27.1573 11.004C27.3733 10.852 27.4813 10.648 27.4813 10.392C27.4813 10.184 27.4093 10.024 27.2653 9.912C27.1213 9.792 26.9053 9.7 26.6173 9.636L25.4773 9.408C24.9813 9.304 24.6053 9.12 24.3493 8.856C24.0933 8.592 23.9653 8.256 23.9653 7.848C23.9653 7.48 24.0653 7.16 24.2653 6.888C24.4653 6.616 24.7453 6.408 25.1053 6.264C25.4653 6.112 25.8813 6.036 26.3533 6.036C26.7053 6.036 27.0373 6.08 27.3493 6.168C27.6613 6.256 27.9493 6.388 28.2133 6.564C28.3173 6.62 28.3853 6.696 28.4173 6.792C28.4493 6.88 28.4533 6.968 28.4293 7.056C28.4133 7.144 28.3733 7.224 28.3093 7.296C28.2453 7.36 28.1653 7.4 28.0693 7.416C27.9813 7.424 27.8813 7.4 27.7693 7.344C27.5293 7.192 27.2893 7.084 27.0493 7.02C26.8173 6.956 26.5853 6.924 26.3533 6.924C25.9293 6.924 25.6093 7.004 25.3933 7.164C25.1853 7.316 25.0813 7.524 25.0813 7.788C25.0813 7.988 25.1453 8.152 25.2733 8.28C25.4013 8.408 25.6013 8.5 25.8733 8.556L27.0133 8.784C27.5333 8.888 27.9253 9.064 28.1893 9.312C28.4613 9.56 28.5973 9.896 28.5973 10.32C28.5973 10.872 28.3773 11.308 27.9373 11.628C27.4973 11.948 26.9133 12.108 26.1853 12.108ZM32.4898 12.108C31.8978 12.108 31.3858 11.984 30.9538 11.736C30.5298 11.488 30.1978 11.136 29.9578 10.68C29.7178 10.224 29.5978 9.688 29.5978 9.072C29.5978 8.6 29.6658 8.18 29.8018 7.812C29.9378 7.444 30.1298 7.128 30.3778 6.864C30.6338 6.592 30.9378 6.388 31.2898 6.252C31.6498 6.108 32.0498 6.036 32.4898 6.036C33.0738 6.036 33.5778 6.16 34.0018 6.408C34.4338 6.656 34.7698 7.008 35.0098 7.464C35.2498 7.912 35.3698 8.448 35.3698 9.072C35.3698 9.536 35.3018 9.956 35.1658 10.332C35.0298 10.708 34.8338 11.028 34.5778 11.292C34.3298 11.556 34.0258 11.76 33.6658 11.904C33.3138 12.04 32.9218 12.108 32.4898 12.108ZM32.4898 11.172C32.8178 11.172 33.1058 11.092 33.3538 10.932C33.6018 10.772 33.7938 10.536 33.9298 10.224C34.0738 9.912 34.1458 9.528 34.1458 9.072C34.1458 8.384 33.9938 7.864 33.6898 7.512C33.3858 7.16 32.9858 6.984 32.4898 6.984C32.1538 6.984 31.8618 7.064 31.6138 7.224C31.3658 7.376 31.1698 7.608 31.0258 7.92C30.8898 8.232 30.8218 8.616 30.8218 9.072C30.8218 9.752 30.9738 10.272 31.2778 10.632C31.5818 10.992 31.9858 11.172 32.4898 11.172ZM37.3309 12.084C37.1389 12.084 36.9909 12.032 36.8869 11.928C36.7829 11.816 36.7309 11.664 36.7309 11.472V6.672C36.7309 6.472 36.7829 6.32 36.8869 6.216C36.9909 6.112 37.1349 6.06 37.3189 6.06C37.5109 6.06 37.6549 6.112 37.7509 6.216C37.8549 6.32 37.9069 6.472 37.9069 6.672V7.608L37.7749 7.392C37.9509 6.944 38.2269 6.608 38.6029 6.384C38.9789 6.152 39.4109 6.036 39.8989 6.036C40.3629 6.036 40.7469 6.124 41.0509 6.3C41.3629 6.468 41.5949 6.728 41.7469 7.08C41.8989 7.424 41.9749 7.86 41.9749 8.388V11.472C41.9749 11.664 41.9229 11.816 41.8189 11.928C41.7149 12.032 41.5669 12.084 41.3749 12.084C41.1749 12.084 41.0229 12.032 40.9189 11.928C40.8149 11.816 40.7629 11.664 40.7629 11.472V8.46C40.7629 7.956 40.6629 7.588 40.4629 7.356C40.2709 7.124 39.9669 7.008 39.5509 7.008C39.0629 7.008 38.6709 7.16 38.3749 7.464C38.0869 7.768 37.9429 8.176 37.9429 8.688V11.472C37.9429 11.88 37.7389 12.084 37.3309 12.084ZM45.517 12.108C45.109 12.108 44.741 12.028 44.413 11.868C44.093 11.708 43.841 11.492 43.657 11.22C43.473 10.948 43.381 10.64 43.381 10.296C43.381 9.864 43.489 9.524 43.705 9.276C43.929 9.02 44.293 8.84 44.797 8.736C45.309 8.624 45.997 8.568 46.861 8.568H47.425V9.312H46.873C46.297 9.312 45.841 9.34 45.505 9.396C45.169 9.452 44.929 9.548 44.785 9.684C44.649 9.812 44.581 9.992 44.581 10.224C44.581 10.528 44.685 10.776 44.893 10.968C45.101 11.152 45.389 11.244 45.757 11.244C46.053 11.244 46.313 11.176 46.537 11.04C46.761 10.896 46.937 10.704 47.065 10.464C47.201 10.224 47.269 9.948 47.269 9.636V8.256C47.269 7.8 47.173 7.472 46.981 7.272C46.789 7.072 46.473 6.972 46.033 6.972C45.777 6.972 45.509 7.004 45.229 7.068C44.957 7.132 44.673 7.24 44.377 7.392C44.241 7.456 44.125 7.476 44.029 7.452C43.933 7.428 43.857 7.376 43.801 7.296C43.745 7.208 43.713 7.116 43.705 7.02C43.705 6.916 43.729 6.816 43.777 6.72C43.833 6.624 43.925 6.552 44.053 6.504C44.405 6.336 44.753 6.216 45.097 6.144C45.441 6.072 45.765 6.036 46.069 6.036C46.605 6.036 47.045 6.12 47.389 6.288C47.741 6.456 48.001 6.712 48.169 7.056C48.337 7.4 48.421 7.844 48.421 8.388V11.472C48.421 11.664 48.373 11.816 48.277 11.928C48.181 12.032 48.041 12.084 47.857 12.084C47.681 12.084 47.541 12.032 47.437 11.928C47.333 11.816 47.281 11.664 47.281 11.472V10.692H47.389C47.325 10.988 47.205 11.244 47.029 11.46C46.861 11.668 46.649 11.828 46.393 11.94C46.137 12.052 45.845 12.108 45.517 12.108ZM51.9743 12.108C51.3503 12.108 50.8783 11.928 50.5583 11.568C50.2463 11.2 50.0903 10.672 50.0903 9.984V4.068C50.0903 3.868 50.1423 3.716 50.2463 3.612C50.3503 3.508 50.4983 3.456 50.6903 3.456C50.8823 3.456 51.0303 3.508 51.1343 3.612C51.2463 3.716 51.3023 3.868 51.3023 4.068V9.912C51.3023 10.312 51.3823 10.612 51.5423 10.812C51.7103 11.004 51.9503 11.1 52.2623 11.1C52.3343 11.1 52.3983 11.1 52.4543 11.1C52.5103 11.092 52.5663 11.084 52.6223 11.076C52.7183 11.068 52.7863 11.096 52.8263 11.16C52.8663 11.216 52.8863 11.336 52.8863 11.52C52.8863 11.688 52.8503 11.82 52.7783 11.916C52.7063 12.004 52.5903 12.06 52.4303 12.084C52.3583 12.092 52.2823 12.096 52.2023 12.096C52.1223 12.104 52.0463 12.108 51.9743 12.108ZM57.7263 12C57.5103 12 57.3423 11.944 57.2223 11.832C57.1103 11.712 57.0543 11.544 57.0543 11.328V4.212C57.0543 3.996 57.1103 3.832 57.2223 3.72C57.3423 3.6 57.5103 3.54 57.7263 3.54H60.0423C61.4343 3.54 62.5063 3.904 63.2583 4.632C64.0183 5.352 64.3983 6.396 64.3983 7.764C64.3983 8.444 64.3023 9.048 64.1103 9.576C63.9183 10.104 63.6343 10.548 63.2583 10.908C62.8903 11.26 62.4383 11.532 61.9023 11.724C61.3663 11.908 60.7463 12 60.0423 12H57.7263ZM58.3023 10.956H59.9703C60.4983 10.956 60.9543 10.892 61.3383 10.764C61.7303 10.628 62.0583 10.428 62.3223 10.164C62.5863 9.9 62.7823 9.568 62.9103 9.168C63.0383 8.768 63.1023 8.3 63.1023 7.764C63.1023 6.7 62.8383 5.904 62.3103 5.376C61.7903 4.848 61.0103 4.584 59.9703 4.584H58.3023V10.956ZM68.682 12.108C68.042 12.108 67.49 11.988 67.026 11.748C66.57 11.5 66.214 11.152 65.958 10.704C65.71 10.248 65.586 9.708 65.586 9.084C65.586 8.476 65.71 7.944 65.958 7.488C66.206 7.032 66.546 6.676 66.978 6.42C67.41 6.164 67.902 6.036 68.454 6.036C68.862 6.036 69.226 6.104 69.546 6.24C69.866 6.368 70.138 6.56 70.362 6.816C70.594 7.064 70.766 7.368 70.878 7.728C70.998 8.088 71.058 8.492 71.058 8.94C71.058 9.076 71.018 9.18 70.938 9.252C70.858 9.316 70.738 9.348 70.578 9.348H66.546V8.604H70.242L70.038 8.772C70.038 8.372 69.978 8.032 69.858 7.752C69.746 7.472 69.574 7.26 69.342 7.116C69.118 6.964 68.838 6.888 68.502 6.888C68.126 6.888 67.806 6.976 67.542 7.152C67.286 7.328 67.09 7.572 66.954 7.884C66.818 8.196 66.75 8.56 66.75 8.976V9.048C66.75 9.752 66.914 10.284 67.242 10.644C67.578 10.996 68.062 11.172 68.694 11.172C68.934 11.172 69.186 11.14 69.45 11.076C69.722 11.012 69.978 10.904 70.218 10.752C70.354 10.672 70.474 10.636 70.578 10.644C70.69 10.652 70.778 10.688 70.842 10.752C70.914 10.816 70.958 10.896 70.974 10.992C70.99 11.088 70.974 11.188 70.926 11.292C70.878 11.388 70.794 11.476 70.674 11.556C70.402 11.74 70.086 11.88 69.726 11.976C69.366 12.064 69.018 12.108 68.682 12.108ZM74.8636 12.108C74.3836 12.108 73.9796 12.024 73.6516 11.856C73.3236 11.688 73.0796 11.44 72.9196 11.112C72.7596 10.784 72.6796 10.384 72.6796 9.912V7.08H71.9596C71.7996 7.08 71.6756 7.04 71.5876 6.96C71.4996 6.872 71.4556 6.756 71.4556 6.612C71.4556 6.46 71.4996 6.344 71.5876 6.264C71.6756 6.184 71.7996 6.144 71.9596 6.144H72.6796V4.908C72.6796 4.708 72.7316 4.556 72.8356 4.452C72.9476 4.348 73.0996 4.296 73.2916 4.296C73.4836 4.296 73.6316 4.348 73.7356 4.452C73.8396 4.556 73.8916 4.708 73.8916 4.908V6.144H75.2956C75.4556 6.144 75.5796 6.184 75.6676 6.264C75.7556 6.344 75.7996 6.46 75.7996 6.612C75.7996 6.756 75.7556 6.872 75.6676 6.96C75.5796 7.04 75.4556 7.08 75.2956 7.08H73.8916V9.816C73.8916 10.24 73.9796 10.56 74.1556 10.776C74.3396 10.992 74.6356 11.1 75.0436 11.1C75.1876 11.1 75.3116 11.088 75.4156 11.064C75.5276 11.032 75.6196 11.012 75.6916 11.004C75.7796 11.004 75.8516 11.036 75.9076 11.1C75.9636 11.156 75.9916 11.268 75.9916 11.436C75.9916 11.556 75.9676 11.668 75.9196 11.772C75.8796 11.876 75.8036 11.944 75.6916 11.976C75.5956 12.008 75.4636 12.036 75.2956 12.06C75.1356 12.092 74.9916 12.108 74.8636 12.108ZM78.6224 12.108C78.2144 12.108 77.8464 12.028 77.5184 11.868C77.1984 11.708 76.9464 11.492 76.7624 11.22C76.5784 10.948 76.4864 10.64 76.4864 10.296C76.4864 9.864 76.5944 9.524 76.8104 9.276C77.0344 9.02 77.3984 8.84 77.9024 8.736C78.4144 8.624 79.1024 8.568 79.9664 8.568H80.5304V9.312H79.9784C79.4024 9.312 78.9464 9.34 78.6104 9.396C78.2744 9.452 78.0344 9.548 77.8904 9.684C77.7544 9.812 77.6864 9.992 77.6864 10.224C77.6864 10.528 77.7904 10.776 77.9984 10.968C78.2064 11.152 78.4944 11.244 78.8624 11.244C79.1584 11.244 79.4184 11.176 79.6424 11.04C79.8664 10.896 80.0424 10.704 80.1704 10.464C80.3064 10.224 80.3744 9.948 80.3744 9.636V8.256C80.3744 7.8 80.2784 7.472 80.0864 7.272C79.8944 7.072 79.5784 6.972 79.1384 6.972C78.8824 6.972 78.6144 7.004 78.3344 7.068C78.0624 7.132 77.7784 7.24 77.4824 7.392C77.3464 7.456 77.2304 7.476 77.1344 7.452C77.0384 7.428 76.9624 7.376 76.9064 7.296C76.8504 7.208 76.8184 7.116 76.8104 7.02C76.8104 6.916 76.8344 6.816 76.8824 6.72C76.9384 6.624 77.0304 6.552 77.1584 6.504C77.5104 6.336 77.8584 6.216 78.2024 6.144C78.5464 6.072 78.8704 6.036 79.1744 6.036C79.7104 6.036 80.1504 6.12 80.4944 6.288C80.8464 6.456 81.1064 6.712 81.2744 7.056C81.4424 7.4 81.5264 7.844 81.5264 8.388V11.472C81.5264 11.664 81.4784 11.816 81.3824 11.928C81.2864 12.032 81.1464 12.084 80.9624 12.084C80.7864 12.084 80.6464 12.032 80.5424 11.928C80.4384 11.816 80.3864 11.664 80.3864 11.472V10.692H80.4944C80.4304 10.988 80.3104 11.244 80.1344 11.46C79.9664 11.668 79.7544 11.828 79.4984 11.94C79.2424 12.052 78.9504 12.108 78.6224 12.108ZM83.7958 12.072C83.6038 12.072 83.4558 12.016 83.3518 11.904C83.2478 11.784 83.1958 11.62 83.1958 11.412V6.732C83.1958 6.524 83.2478 6.364 83.3518 6.252C83.4558 6.14 83.6038 6.084 83.7958 6.084C83.9878 6.084 84.1358 6.14 84.2398 6.252C84.3518 6.364 84.4078 6.524 84.4078 6.732V11.412C84.4078 11.62 84.3558 11.784 84.2518 11.904C84.1478 12.016 83.9958 12.072 83.7958 12.072ZM83.7958 4.836C83.5558 4.836 83.3678 4.776 83.2318 4.656C83.1038 4.536 83.0398 4.368 83.0398 4.152C83.0398 3.928 83.1038 3.76 83.2318 3.648C83.3678 3.528 83.5558 3.468 83.7958 3.468C84.0358 3.468 84.2198 3.528 84.3478 3.648C84.4838 3.76 84.5518 3.928 84.5518 4.152C84.5518 4.368 84.4838 4.536 84.3478 4.656C84.2198 4.776 84.0358 4.836 83.7958 4.836ZM87.9977 12.108C87.3737 12.108 86.9017 11.928 86.5817 11.568C86.2697 11.2 86.1137 10.672 86.1137 9.984V4.068C86.1137 3.868 86.1657 3.716 86.2697 3.612C86.3737 3.508 86.5217 3.456 86.7137 3.456C86.9057 3.456 87.0537 3.508 87.1577 3.612C87.2697 3.716 87.3257 3.868 87.3257 4.068V9.912C87.3257 10.312 87.4057 10.612 87.5657 10.812C87.7337 11.004 87.9737 11.1 88.2857 11.1C88.3577 11.1 88.4217 11.1 88.4777 11.1C88.5337 11.092 88.5897 11.084 88.6457 11.076C88.7417 11.068 88.8097 11.096 88.8497 11.16C88.8897 11.216 88.9097 11.336 88.9097 11.52C88.9097 11.688 88.8737 11.82 88.8017 11.916C88.7297 12.004 88.6137 12.06 88.4537 12.084C88.3817 12.092 88.3057 12.096 88.2257 12.096C88.1457 12.104 88.0697 12.108 87.9977 12.108ZM91.7751 12.108C91.4231 12.108 91.0591 12.068 90.6831 11.988C90.3151 11.908 89.9751 11.772 89.6631 11.58C89.5591 11.508 89.4871 11.428 89.4471 11.34C89.4071 11.252 89.3911 11.164 89.3991 11.076C89.4151 10.98 89.4511 10.9 89.5071 10.836C89.5711 10.764 89.6471 10.72 89.7351 10.704C89.8311 10.688 89.9311 10.708 90.0351 10.764C90.3471 10.94 90.6471 11.064 90.9351 11.136C91.2231 11.2 91.5071 11.232 91.7871 11.232C92.2111 11.232 92.5311 11.156 92.7471 11.004C92.9631 10.852 93.0711 10.648 93.0711 10.392C93.0711 10.184 92.9991 10.024 92.8551 9.912C92.7111 9.792 92.4951 9.7 92.2071 9.636L91.0671 9.408C90.5711 9.304 90.1951 9.12 89.9391 8.856C89.6831 8.592 89.5551 8.256 89.5551 7.848C89.5551 7.48 89.6551 7.16 89.8551 6.888C90.0551 6.616 90.3351 6.408 90.6951 6.264C91.0551 6.112 91.4711 6.036 91.9431 6.036C92.2951 6.036 92.6271 6.08 92.9391 6.168C93.2511 6.256 93.5391 6.388 93.8031 6.564C93.9071 6.62 93.9751 6.696 94.0071 6.792C94.0391 6.88 94.0431 6.968 94.0191 7.056C94.0031 7.144 93.9631 7.224 93.8991 7.296C93.8351 7.36 93.7551 7.4 93.6591 7.416C93.5711 7.424 93.4711 7.4 93.3591 7.344C93.1191 7.192 92.8791 7.084 92.6391 7.02C92.4071 6.956 92.1751 6.924 91.9431 6.924C91.5191 6.924 91.1991 7.004 90.9831 7.164C90.7751 7.316 90.6711 7.524 90.6711 7.788C90.6711 7.988 90.7351 8.152 90.8631 8.28C90.9911 8.408 91.1911 8.5 91.4631 8.556L92.6031 8.784C93.1231 8.888 93.5151 9.064 93.7791 9.312C94.0511 9.56 94.1871 9.896 94.1871 10.32C94.1871 10.872 93.9671 11.308 93.5271 11.628C93.0871 11.948 92.5031 12.108 91.7751 12.108Z" fill="#64728C"/>
<defs>
<filter id="filter0_d_558_4997" x="0" y="20" width="310" height="55" filterUnits="userSpaceOnUse" color-interpolation-filters="sRGB">
<feFlood flood-opacity="0" result="BackgroundImageFix"/>
<feColorMatrix in="SourceAlpha" type="matrix" values="0 0 0 0 0 0 0 0 0 0 0 0 0 0 0 0 0 0 127 0" result="hardAlpha"/>
<feOffset dy="4"/>
<feGaussianBlur stdDeviation="2.5"/>
<feComposite in2="hardAlpha" operator="out"/>
<feColorMatrix type="matrix" values="0 0 0 0 0.392157 0 0 0 0 0.447059 0 0 0 0 0.54902 0 0 0 0.15 0"/>
<feBlend mode="normal" in2="BackgroundImageFix" result="effect1_dropShadow_558_4997"/>
<feBlend mode="normal" in="SourceGraphic" in2="effect1_dropShadow_558_4997" result="shape"/>
</filter>
</defs>
</svg>
