<svg width="310" height="75" viewBox="0 0 310 75" fill="none" xmlns="http://www.w3.org/2000/svg">
<g filter="url(#filter0_d_558_5003)">
<rect x="5" y="21" width="300" height="45" rx="12" fill="white" shape-rendering="crispEdges"/>
<rect x="5.5" y="21.5" width="299" height="44" rx="11.5" stroke="#EB0910" shape-rendering="crispEdges"/>
<path d="M16.584 47.5C16.408 47.5 16.272 47.456 16.176 47.368C16.088 47.272 16.044 47.136 16.044 46.96V39.58C16.044 39.404 16.088 39.272 16.176 39.184C16.272 39.088 16.408 39.04 16.584 39.04H21.048C21.184 39.04 21.288 39.076 21.36 39.148C21.432 39.22 21.468 39.32 21.468 39.448C21.468 39.584 21.432 39.688 21.36 39.76C21.288 39.832 21.184 39.868 21.048 39.868H17.004V42.796H20.796C20.932 42.796 21.036 42.832 21.108 42.904C21.18 42.968 21.216 43.068 21.216 43.204C21.216 43.34 21.18 43.444 21.108 43.516C21.036 43.588 20.932 43.624 20.796 43.624H17.004V46.672H21.048C21.184 46.672 21.288 46.708 21.36 46.78C21.432 46.852 21.468 46.952 21.468 47.08C21.468 47.216 21.432 47.32 21.36 47.392C21.288 47.464 21.184 47.5 21.048 47.5H16.584ZM23.4121 47.584C23.2521 47.584 23.1321 47.54 23.0521 47.452C22.9721 47.364 22.9321 47.24 22.9321 47.08V42.076C22.9321 41.916 22.9721 41.796 23.0521 41.716C23.1321 41.628 23.2481 41.584 23.4001 41.584C23.5521 41.584 23.6681 41.628 23.7481 41.716C23.8361 41.796 23.8801 41.916 23.8801 42.076V43.132L23.7481 42.964C23.9001 42.516 24.1441 42.172 24.4801 41.932C24.8241 41.684 25.2321 41.56 25.7041 41.56C26.2001 41.56 26.6001 41.68 26.9041 41.92C27.2161 42.152 27.4241 42.516 27.5281 43.012H27.3481C27.4921 42.564 27.7481 42.212 28.1161 41.956C28.4921 41.692 28.9281 41.56 29.4241 41.56C29.8641 41.56 30.2241 41.644 30.5041 41.812C30.7921 41.98 31.0081 42.236 31.1521 42.58C31.2961 42.916 31.3681 43.344 31.3681 43.864V47.08C31.3681 47.24 31.3241 47.364 31.2361 47.452C31.1561 47.54 31.0361 47.584 30.8761 47.584C30.7241 47.584 30.6041 47.54 30.5161 47.452C30.4361 47.364 30.3961 47.24 30.3961 47.08V43.912C30.3961 43.376 30.3041 42.984 30.1201 42.736C29.9361 42.48 29.6241 42.352 29.1841 42.352C28.7041 42.352 28.3241 42.52 28.0441 42.856C27.7721 43.184 27.6361 43.632 27.6361 44.2V47.08C27.6361 47.24 27.5921 47.364 27.5041 47.452C27.4241 47.54 27.3041 47.584 27.1441 47.584C26.9921 47.584 26.8721 47.54 26.7841 47.452C26.7041 47.364 26.6641 47.24 26.6641 47.08V43.912C26.6641 43.376 26.5681 42.984 26.3761 42.736C26.1921 42.48 25.8841 42.352 25.4521 42.352C24.9721 42.352 24.5921 42.52 24.3121 42.856C24.0401 43.184 23.9041 43.632 23.9041 44.2V47.08C23.9041 47.416 23.7401 47.584 23.4121 47.584ZM33.6654 49.744C33.5054 49.744 33.3854 49.7 33.3054 49.612C33.2254 49.532 33.1854 49.412 33.1854 49.252V42.076C33.1854 41.916 33.2254 41.796 33.3054 41.716C33.3854 41.628 33.5014 41.584 33.6534 41.584C33.8134 41.584 33.9334 41.628 34.0134 41.716C34.1014 41.796 34.1454 41.916 34.1454 42.076V43.216L34.0134 43.048C34.1414 42.592 34.3934 42.232 34.7694 41.968C35.1534 41.696 35.6094 41.56 36.1374 41.56C36.6574 41.56 37.1094 41.684 37.4934 41.932C37.8854 42.172 38.1854 42.52 38.3934 42.976C38.6094 43.424 38.7174 43.96 38.7174 44.584C38.7174 45.2 38.6094 45.736 38.3934 46.192C38.1854 46.64 37.8894 46.988 37.5054 47.236C37.1214 47.484 36.6654 47.608 36.1374 47.608C35.6094 47.608 35.1574 47.476 34.7814 47.212C34.4054 46.94 34.1494 46.58 34.0134 46.132H34.1574V49.252C34.1574 49.412 34.1134 49.532 34.0254 49.612C33.9374 49.7 33.8174 49.744 33.6654 49.744ZM35.9334 46.828C36.3014 46.828 36.6174 46.74 36.8814 46.564C37.1534 46.388 37.3614 46.132 37.5054 45.796C37.6574 45.46 37.7334 45.056 37.7334 44.584C37.7334 43.856 37.5694 43.3 37.2414 42.916C36.9214 42.532 36.4854 42.34 35.9334 42.34C35.5734 42.34 35.2574 42.428 34.9854 42.604C34.7134 42.772 34.5014 43.024 34.3494 43.36C34.2054 43.688 34.1334 44.096 34.1334 44.584C34.1334 45.304 34.2974 45.86 34.6254 46.252C34.9534 46.636 35.3894 46.828 35.9334 46.828ZM41.9575 47.608C41.3815 47.608 40.9415 47.432 40.6375 47.08C40.3335 46.728 40.1815 46.224 40.1815 45.568V39.448C40.1815 39.288 40.2215 39.168 40.3015 39.088C40.3815 39 40.5015 38.956 40.6615 38.956C40.8135 38.956 40.9335 39 41.0215 39.088C41.1095 39.168 41.1535 39.288 41.1535 39.448V45.496C41.1535 45.928 41.2375 46.252 41.4055 46.468C41.5815 46.676 41.8375 46.78 42.1735 46.78C42.2455 46.78 42.3095 46.776 42.3655 46.768C42.4215 46.76 42.4775 46.756 42.5335 46.756C42.6215 46.748 42.6815 46.768 42.7135 46.816C42.7535 46.864 42.7735 46.96 42.7735 47.104C42.7735 47.248 42.7415 47.356 42.6775 47.428C42.6135 47.5 42.5095 47.548 42.3655 47.572C42.3015 47.58 42.2335 47.588 42.1615 47.596C42.0895 47.604 42.0215 47.608 41.9575 47.608ZM46.0977 47.608C45.5297 47.608 45.0377 47.484 44.6217 47.236C44.2057 46.988 43.8817 46.64 43.6497 46.192C43.4257 45.736 43.3137 45.2 43.3137 44.584C43.3137 44.12 43.3777 43.704 43.5057 43.336C43.6337 42.96 43.8217 42.64 44.0697 42.376C44.3177 42.112 44.6097 41.912 44.9457 41.776C45.2897 41.632 45.6737 41.56 46.0977 41.56C46.6657 41.56 47.1577 41.684 47.5737 41.932C47.9897 42.18 48.3097 42.532 48.5337 42.988C48.7657 43.436 48.8817 43.968 48.8817 44.584C48.8817 45.048 48.8177 45.464 48.6897 45.832C48.5617 46.2 48.3737 46.52 48.1257 46.792C47.8777 47.056 47.5817 47.26 47.2377 47.404C46.9017 47.54 46.5217 47.608 46.0977 47.608ZM46.0977 46.828C46.4577 46.828 46.7737 46.74 47.0457 46.564C47.3177 46.388 47.5257 46.132 47.6697 45.796C47.8217 45.46 47.8977 45.056 47.8977 44.584C47.8977 43.856 47.7337 43.3 47.4057 42.916C47.0857 42.532 46.6497 42.34 46.0977 42.34C45.7297 42.34 45.4097 42.428 45.1377 42.604C44.8737 42.772 44.6657 43.024 44.5137 43.36C44.3697 43.688 44.2977 44.096 44.2977 44.584C44.2977 45.304 44.4617 45.86 44.7897 46.252C45.1177 46.636 45.5537 46.828 46.0977 46.828ZM51.5557 49.744C51.4357 49.744 51.3397 49.712 51.2677 49.648C51.1957 49.584 51.1517 49.496 51.1357 49.384C51.1277 49.28 51.1477 49.172 51.1957 49.06L52.0237 47.2V47.62L49.7197 42.268C49.6717 42.148 49.6557 42.036 49.6717 41.932C49.6877 41.828 49.7357 41.744 49.8157 41.68C49.8957 41.616 50.0077 41.584 50.1517 41.584C50.2797 41.584 50.3797 41.612 50.4517 41.668C50.5237 41.724 50.5877 41.824 50.6437 41.968L52.6117 46.792H52.2877L54.2797 41.968C54.3437 41.824 54.4117 41.724 54.4837 41.668C54.5557 41.612 54.6597 41.584 54.7957 41.584C54.9237 41.584 55.0197 41.616 55.0837 41.68C55.1557 41.744 55.1957 41.828 55.2037 41.932C55.2197 42.028 55.2037 42.136 55.1557 42.256L52.0837 49.36C52.0197 49.504 51.9477 49.604 51.8677 49.66C51.7957 49.716 51.6917 49.744 51.5557 49.744ZM58.9697 47.608C58.3537 47.608 57.8217 47.488 57.3737 47.248C56.9337 47 56.5897 46.652 56.3417 46.204C56.1017 45.756 55.9817 45.22 55.9817 44.596C55.9817 43.988 56.1017 43.46 56.3417 43.012C56.5817 42.556 56.9097 42.2 57.3257 41.944C57.7497 41.688 58.2377 41.56 58.7897 41.56C59.1817 41.56 59.5337 41.628 59.8457 41.764C60.1577 41.892 60.4217 42.08 60.6377 42.328C60.8617 42.576 61.0297 42.876 61.1417 43.228C61.2617 43.58 61.3217 43.976 61.3217 44.416C61.3217 44.544 61.2857 44.64 61.2137 44.704C61.1417 44.76 61.0377 44.788 60.9017 44.788H56.7257V44.152H60.6737L60.4817 44.308C60.4817 43.876 60.4177 43.512 60.2897 43.216C60.1617 42.912 59.9737 42.68 59.7257 42.52C59.4857 42.36 59.1817 42.28 58.8137 42.28C58.4057 42.28 58.0577 42.376 57.7697 42.568C57.4897 42.752 57.2777 43.012 57.1337 43.348C56.9897 43.676 56.9177 44.06 56.9177 44.5V44.572C56.9177 45.308 57.0937 45.868 57.4457 46.252C57.8057 46.636 58.3137 46.828 58.9697 46.828C59.2417 46.828 59.5097 46.792 59.7737 46.72C60.0457 46.648 60.3097 46.528 60.5657 46.36C60.6777 46.288 60.7777 46.256 60.8657 46.264C60.9617 46.264 61.0377 46.292 61.0937 46.348C61.1497 46.396 61.1857 46.46 61.2017 46.54C61.2257 46.612 61.2177 46.692 61.1777 46.78C61.1457 46.868 61.0777 46.944 60.9737 47.008C60.7097 47.2 60.3977 47.348 60.0377 47.452C59.6777 47.556 59.3217 47.608 58.9697 47.608ZM65.3564 47.608C64.7404 47.608 64.2084 47.488 63.7604 47.248C63.3204 47 62.9764 46.652 62.7284 46.204C62.4884 45.756 62.3684 45.22 62.3684 44.596C62.3684 43.988 62.4884 43.46 62.7284 43.012C62.9684 42.556 63.2964 42.2 63.7124 41.944C64.1364 41.688 64.6244 41.56 65.1764 41.56C65.5684 41.56 65.9204 41.628 66.2324 41.764C66.5444 41.892 66.8084 42.08 67.0244 42.328C67.2484 42.576 67.4164 42.876 67.5284 43.228C67.6484 43.58 67.7084 43.976 67.7084 44.416C67.7084 44.544 67.6724 44.64 67.6004 44.704C67.5284 44.76 67.4244 44.788 67.2884 44.788H63.1124V44.152H67.0604L66.8684 44.308C66.8684 43.876 66.8044 43.512 66.6764 43.216C66.5484 42.912 66.3604 42.68 66.1124 42.52C65.8724 42.36 65.5684 42.28 65.2004 42.28C64.7924 42.28 64.4444 42.376 64.1564 42.568C63.8764 42.752 63.6644 43.012 63.5204 43.348C63.3764 43.676 63.3044 44.06 63.3044 44.5V44.572C63.3044 45.308 63.4804 45.868 63.8324 46.252C64.1924 46.636 64.7004 46.828 65.3564 46.828C65.6284 46.828 65.8964 46.792 66.1604 46.72C66.4324 46.648 66.6964 46.528 66.9524 46.36C67.0644 46.288 67.1644 46.256 67.2524 46.264C67.3484 46.264 67.4244 46.292 67.4804 46.348C67.5364 46.396 67.5724 46.46 67.5884 46.54C67.6124 46.612 67.6044 46.692 67.5644 46.78C67.5324 46.868 67.4644 46.944 67.3604 47.008C67.0964 47.2 66.7844 47.348 66.4244 47.452C66.0644 47.556 65.7084 47.608 65.3564 47.608ZM72.8089 47.584C72.6569 47.584 72.5409 47.544 72.4609 47.464C72.3809 47.376 72.3409 47.252 72.3409 47.092V39.46C72.3409 39.3 72.3809 39.176 72.4609 39.088C72.5409 39 72.6449 38.956 72.7729 38.956C72.9009 38.956 72.9929 38.98 73.0489 39.028C73.1129 39.068 73.1849 39.144 73.2649 39.256L78.4969 46.228H78.2089V39.436C78.2089 39.284 78.2489 39.168 78.3289 39.088C78.4089 39 78.5249 38.956 78.6769 38.956C78.8209 38.956 78.9289 39 79.0009 39.088C79.0809 39.168 79.1209 39.284 79.1209 39.436V47.104C79.1209 47.256 79.0849 47.376 79.0129 47.464C78.9489 47.544 78.8529 47.584 78.7249 47.584C78.6049 47.584 78.5089 47.56 78.4369 47.512C78.3649 47.464 78.2889 47.388 78.2089 47.284L72.9889 40.312H73.2649V47.092C73.2649 47.252 73.2249 47.376 73.1449 47.464C73.0649 47.544 72.9529 47.584 72.8089 47.584ZM82.9277 47.608C82.5277 47.608 82.1677 47.532 81.8477 47.38C81.5357 47.22 81.2877 47.004 81.1037 46.732C80.9197 46.46 80.8277 46.156 80.8277 45.82C80.8277 45.388 80.9357 45.048 81.1517 44.8C81.3757 44.552 81.7397 44.376 82.2437 44.272C82.7557 44.168 83.4517 44.116 84.3317 44.116H84.8717V44.752H84.3437C83.6957 44.752 83.1837 44.784 82.8077 44.848C82.4397 44.904 82.1797 45.004 82.0277 45.148C81.8837 45.292 81.8117 45.496 81.8117 45.76C81.8117 46.088 81.9237 46.356 82.1477 46.564C82.3797 46.772 82.6917 46.876 83.0837 46.876C83.4037 46.876 83.6837 46.8 83.9237 46.648C84.1717 46.496 84.3637 46.288 84.4997 46.024C84.6437 45.76 84.7157 45.456 84.7157 45.112V43.744C84.7157 43.248 84.6157 42.892 84.4157 42.676C84.2157 42.452 83.8877 42.34 83.4317 42.34C83.1517 42.34 82.8717 42.376 82.5917 42.448C82.3117 42.52 82.0157 42.636 81.7037 42.796C81.5917 42.852 81.4957 42.872 81.4157 42.856C81.3357 42.832 81.2717 42.788 81.2237 42.724C81.1757 42.66 81.1477 42.588 81.1397 42.508C81.1317 42.42 81.1477 42.336 81.1877 42.256C81.2357 42.176 81.3077 42.112 81.4037 42.064C81.7557 41.888 82.1037 41.76 82.4477 41.68C82.7917 41.6 83.1197 41.56 83.4317 41.56C83.9357 41.56 84.3517 41.644 84.6797 41.812C85.0077 41.972 85.2517 42.22 85.4117 42.556C85.5717 42.884 85.6517 43.308 85.6517 43.828V47.08C85.6517 47.24 85.6117 47.364 85.5317 47.452C85.4597 47.54 85.3517 47.584 85.2077 47.584C85.0557 47.584 84.9397 47.54 84.8597 47.452C84.7797 47.364 84.7397 47.24 84.7397 47.08V46.144H84.8477C84.7837 46.448 84.6597 46.708 84.4757 46.924C84.2997 47.14 84.0797 47.308 83.8157 47.428C83.5517 47.548 83.2557 47.608 82.9277 47.608ZM87.959 47.584C87.799 47.584 87.679 47.54 87.599 47.452C87.519 47.364 87.479 47.24 87.479 47.08V42.076C87.479 41.916 87.519 41.796 87.599 41.716C87.679 41.628 87.795 41.584 87.947 41.584C88.099 41.584 88.215 41.628 88.295 41.716C88.383 41.796 88.427 41.916 88.427 42.076V43.132L88.295 42.964C88.447 42.516 88.691 42.172 89.027 41.932C89.371 41.684 89.779 41.56 90.251 41.56C90.747 41.56 91.147 41.68 91.451 41.92C91.763 42.152 91.971 42.516 92.075 43.012H91.895C92.039 42.564 92.295 42.212 92.663 41.956C93.039 41.692 93.475 41.56 93.971 41.56C94.411 41.56 94.771 41.644 95.051 41.812C95.339 41.98 95.555 42.236 95.699 42.58C95.843 42.916 95.915 43.344 95.915 43.864V47.08C95.915 47.24 95.871 47.364 95.783 47.452C95.703 47.54 95.583 47.584 95.423 47.584C95.271 47.584 95.151 47.54 95.063 47.452C94.983 47.364 94.943 47.24 94.943 47.08V43.912C94.943 43.376 94.851 42.984 94.667 42.736C94.483 42.48 94.171 42.352 93.731 42.352C93.251 42.352 92.871 42.52 92.591 42.856C92.319 43.184 92.183 43.632 92.183 44.2V47.08C92.183 47.24 92.139 47.364 92.051 47.452C91.971 47.54 91.851 47.584 91.691 47.584C91.539 47.584 91.419 47.54 91.331 47.452C91.251 47.364 91.211 47.24 91.211 47.08V43.912C91.211 43.376 91.115 42.984 90.923 42.736C90.739 42.48 90.431 42.352 89.999 42.352C89.519 42.352 89.139 42.52 88.859 42.856C88.587 43.184 88.451 43.632 88.451 44.2V47.08C88.451 47.416 88.287 47.584 87.959 47.584ZM100.36 47.608C99.7443 47.608 99.2123 47.488 98.7643 47.248C98.3243 47 97.9803 46.652 97.7323 46.204C97.4923 45.756 97.3723 45.22 97.3723 44.596C97.3723 43.988 97.4923 43.46 97.7323 43.012C97.9723 42.556 98.3003 42.2 98.7163 41.944C99.1403 41.688 99.6283 41.56 100.18 41.56C100.572 41.56 100.924 41.628 101.236 41.764C101.548 41.892 101.812 42.08 102.028 42.328C102.252 42.576 102.42 42.876 102.532 43.228C102.652 43.58 102.712 43.976 102.712 44.416C102.712 44.544 102.676 44.64 102.604 44.704C102.532 44.76 102.428 44.788 102.292 44.788H98.1163V44.152H102.064L101.872 44.308C101.872 43.876 101.808 43.512 101.68 43.216C101.552 42.912 101.364 42.68 101.116 42.52C100.876 42.36 100.572 42.28 100.204 42.28C99.7963 42.28 99.4483 42.376 99.1603 42.568C98.8803 42.752 98.6683 43.012 98.5243 43.348C98.3803 43.676 98.3083 44.06 98.3083 44.5V44.572C98.3083 45.308 98.4843 45.868 98.8363 46.252C99.1963 46.636 99.7043 46.828 100.36 46.828C100.632 46.828 100.9 46.792 101.164 46.72C101.436 46.648 101.7 46.528 101.956 46.36C102.068 46.288 102.168 46.256 102.256 46.264C102.352 46.264 102.428 46.292 102.484 46.348C102.54 46.396 102.576 46.46 102.592 46.54C102.616 46.612 102.608 46.692 102.568 46.78C102.536 46.868 102.468 46.944 102.364 47.008C102.1 47.2 101.788 47.348 101.428 47.452C101.068 47.556 100.712 47.608 100.36 47.608Z" fill="#64728C"/>
<rect x="114" y="34.5" width="25" height="18" rx="9" fill="#EB0910"/>
<path d="M122.6 47.116C122.424 47.116 122.288 47.068 122.192 46.972C122.096 46.868 122.048 46.728 122.048 46.552V44.584H120.116C119.948 44.584 119.816 44.54 119.72 44.452C119.624 44.356 119.576 44.224 119.576 44.056C119.576 43.888 119.624 43.76 119.72 43.672C119.816 43.576 119.948 43.528 120.116 43.528H122.048V41.62C122.048 41.444 122.096 41.308 122.192 41.212C122.288 41.116 122.428 41.068 122.612 41.068C122.788 41.068 122.92 41.116 123.008 41.212C123.104 41.308 123.152 41.444 123.152 41.62V43.528H125.084C125.26 43.528 125.392 43.576 125.48 43.672C125.576 43.76 125.624 43.888 125.624 44.056C125.624 44.224 125.576 44.356 125.48 44.452C125.392 44.54 125.26 44.584 125.084 44.584H123.152V46.552C123.152 46.728 123.104 46.868 123.008 46.972C122.92 47.068 122.784 47.116 122.6 47.116ZM127.791 47.5C127.535 47.5 127.347 47.444 127.227 47.332C127.115 47.212 127.059 47.04 127.059 46.816C127.059 46.68 127.095 46.548 127.167 46.42C127.239 46.292 127.343 46.156 127.479 46.012L129.891 43.444C130.259 43.06 130.523 42.712 130.683 42.4C130.843 42.08 130.923 41.76 130.923 41.44C130.923 41.04 130.795 40.736 130.539 40.528C130.291 40.32 129.927 40.216 129.447 40.216C129.175 40.216 128.903 40.256 128.631 40.336C128.359 40.408 128.083 40.536 127.803 40.72C127.659 40.816 127.523 40.856 127.395 40.84C127.275 40.824 127.167 40.772 127.071 40.684C126.983 40.596 126.923 40.488 126.891 40.36C126.859 40.232 126.863 40.104 126.903 39.976C126.951 39.84 127.047 39.724 127.191 39.628C127.535 39.396 127.919 39.22 128.343 39.1C128.775 38.98 129.207 38.92 129.639 38.92C130.247 38.92 130.759 39.012 131.175 39.196C131.591 39.38 131.907 39.648 132.123 40C132.339 40.352 132.447 40.78 132.447 41.284C132.447 41.62 132.391 41.948 132.279 42.268C132.175 42.588 132.011 42.912 131.787 43.24C131.571 43.568 131.287 43.916 130.935 44.284L128.679 46.636V46.228H132.207C132.423 46.228 132.587 46.28 132.699 46.384C132.811 46.488 132.867 46.644 132.867 46.852C132.867 47.06 132.811 47.22 132.699 47.332C132.587 47.444 132.423 47.5 132.207 47.5H127.791Z" fill="white"/>
<rect x="265" y="25.5" width="36" height="36" rx="12" fill="#EB0910" fill-opacity="0.12"/>
<path d="M284.039 48.2C283.577 49 282.423 49 281.961 48.2L278.843 42.8C278.381 42 278.959 41 279.882 41L286.118 41C287.041 41 287.619 42 287.157 42.8L284.039 48.2Z" fill="#EB0910"/>
</g>
<path d="M6.608 12.084C6.408 12.084 6.252 12.028 6.14 11.916C6.036 11.804 5.984 11.648 5.984 11.448V4.176C5.984 3.968 6.04 3.812 6.152 3.708C6.264 3.596 6.42 3.54 6.62 3.54H9.488C10.4 3.54 11.104 3.768 11.6 4.224C12.096 4.672 12.344 5.304 12.344 6.12C12.344 6.944 12.096 7.584 11.6 8.04C11.104 8.488 10.4 8.712 9.488 8.712H7.232V11.448C7.232 11.648 7.18 11.804 7.076 11.916C6.972 12.028 6.816 12.084 6.608 12.084ZM7.232 7.716H9.308C9.908 7.716 10.36 7.584 10.664 7.32C10.976 7.048 11.132 6.648 11.132 6.12C11.132 5.6 10.976 5.208 10.664 4.944C10.36 4.672 9.908 4.536 9.308 4.536H7.232V7.716ZM16.018 12.108C15.378 12.108 14.826 11.988 14.362 11.748C13.906 11.5 13.55 11.152 13.294 10.704C13.046 10.248 12.922 9.708 12.922 9.084C12.922 8.476 13.046 7.944 13.294 7.488C13.542 7.032 13.882 6.676 14.314 6.42C14.746 6.164 15.238 6.036 15.79 6.036C16.198 6.036 16.562 6.104 16.882 6.24C17.202 6.368 17.474 6.56 17.698 6.816C17.93 7.064 18.102 7.368 18.214 7.728C18.334 8.088 18.394 8.492 18.394 8.94C18.394 9.076 18.354 9.18 18.274 9.252C18.194 9.316 18.074 9.348 17.914 9.348H13.882V8.604H17.578L17.374 8.772C17.374 8.372 17.314 8.032 17.194 7.752C17.082 7.472 16.91 7.26 16.678 7.116C16.454 6.964 16.174 6.888 15.838 6.888C15.462 6.888 15.142 6.976 14.878 7.152C14.622 7.328 14.426 7.572 14.29 7.884C14.154 8.196 14.086 8.56 14.086 8.976V9.048C14.086 9.752 14.25 10.284 14.578 10.644C14.914 10.996 15.398 11.172 16.03 11.172C16.27 11.172 16.522 11.14 16.786 11.076C17.058 11.012 17.314 10.904 17.554 10.752C17.69 10.672 17.81 10.636 17.914 10.644C18.026 10.652 18.114 10.688 18.178 10.752C18.25 10.816 18.294 10.896 18.31 10.992C18.326 11.088 18.31 11.188 18.262 11.292C18.214 11.388 18.13 11.476 18.01 11.556C17.738 11.74 17.422 11.88 17.062 11.976C16.702 12.064 16.354 12.108 16.018 12.108ZM20.3273 12.084C20.1273 12.084 19.9753 12.032 19.8713 11.928C19.7673 11.816 19.7153 11.664 19.7153 11.472V6.672C19.7153 6.472 19.7673 6.32 19.8713 6.216C19.9753 6.112 20.1193 6.06 20.3033 6.06C20.4953 6.06 20.6393 6.112 20.7353 6.216C20.8393 6.32 20.8913 6.472 20.8913 6.672V7.548H20.7713C20.8993 7.068 21.1353 6.704 21.4793 6.456C21.8233 6.208 22.2633 6.064 22.7993 6.024C22.9433 6.016 23.0553 6.052 23.1353 6.132C23.2233 6.212 23.2713 6.336 23.2793 6.504C23.2953 6.672 23.2593 6.808 23.1713 6.912C23.0833 7.008 22.9473 7.064 22.7633 7.08L22.5353 7.104C22.0153 7.152 21.6193 7.316 21.3473 7.596C21.0753 7.876 20.9393 8.26 20.9393 8.748V11.472C20.9393 11.664 20.8873 11.816 20.7833 11.928C20.6873 12.032 20.5353 12.084 20.3273 12.084ZM26.1853 12.108C25.8333 12.108 25.4693 12.068 25.0933 11.988C24.7253 11.908 24.3853 11.772 24.0732 11.58C23.9693 11.508 23.8973 11.428 23.8573 11.34C23.8173 11.252 23.8013 11.164 23.8093 11.076C23.8253 10.98 23.8613 10.9 23.9173 10.836C23.9813 10.764 24.0573 10.72 24.1453 10.704C24.2413 10.688 24.3413 10.708 24.4453 10.764C24.7573 10.94 25.0573 11.064 25.3453 11.136C25.6333 11.2 25.9173 11.232 26.1973 11.232C26.6213 11.232 26.9413 11.156 27.1573 11.004C27.3733 10.852 27.4813 10.648 27.4813 10.392C27.4813 10.184 27.4093 10.024 27.2653 9.912C27.1213 9.792 26.9053 9.7 26.6173 9.636L25.4773 9.408C24.9813 9.304 24.6053 9.12 24.3493 8.856C24.0933 8.592 23.9653 8.256 23.9653 7.848C23.9653 7.48 24.0653 7.16 24.2653 6.888C24.4653 6.616 24.7453 6.408 25.1053 6.264C25.4653 6.112 25.8813 6.036 26.3533 6.036C26.7053 6.036 27.0373 6.08 27.3493 6.168C27.6613 6.256 27.9493 6.388 28.2133 6.564C28.3173 6.62 28.3853 6.696 28.4173 6.792C28.4493 6.88 28.4533 6.968 28.4293 7.056C28.4133 7.144 28.3733 7.224 28.3093 7.296C28.2453 7.36 28.1653 7.4 28.0693 7.416C27.9813 7.424 27.8813 7.4 27.7693 7.344C27.5293 7.192 27.2893 7.084 27.0493 7.02C26.8173 6.956 26.5853 6.924 26.3533 6.924C25.9293 6.924 25.6093 7.004 25.3933 7.164C25.1853 7.316 25.0813 7.524 25.0813 7.788C25.0813 7.988 25.1453 8.152 25.2733 8.28C25.4013 8.408 25.6013 8.5 25.8733 8.556L27.0133 8.784C27.5333 8.888 27.9253 9.064 28.1893 9.312C28.4613 9.56 28.5973 9.896 28.5973 10.32C28.5973 10.872 28.3773 11.308 27.9373 11.628C27.4973 11.948 26.9133 12.108 26.1853 12.108ZM32.4898 12.108C31.8978 12.108 31.3858 11.984 30.9538 11.736C30.5298 11.488 30.1978 11.136 29.9578 10.68C29.7178 10.224 29.5978 9.688 29.5978 9.072C29.5978 8.6 29.6658 8.18 29.8018 7.812C29.9378 7.444 30.1298 7.128 30.3778 6.864C30.6338 6.592 30.9378 6.388 31.2898 6.252C31.6498 6.108 32.0498 6.036 32.4898 6.036C33.0738 6.036 33.5778 6.16 34.0018 6.408C34.4338 6.656 34.7698 7.008 35.0098 7.464C35.2498 7.912 35.3698 8.448 35.3698 9.072C35.3698 9.536 35.3018 9.956 35.1658 10.332C35.0298 10.708 34.8338 11.028 34.5778 11.292C34.3298 11.556 34.0258 11.76 33.6658 11.904C33.3138 12.04 32.9218 12.108 32.4898 12.108ZM32.4898 11.172C32.8178 11.172 33.1058 11.092 33.3538 10.932C33.6018 10.772 33.7938 10.536 33.9298 10.224C34.0738 9.912 34.1458 9.528 34.1458 9.072C34.1458 8.384 33.9938 7.864 33.6898 7.512C33.3858 7.16 32.9858 6.984 32.4898 6.984C32.1538 6.984 31.8618 7.064 31.6138 7.224C31.3658 7.376 31.1698 7.608 31.0258 7.92C30.8898 8.232 30.8218 8.616 30.8218 9.072C30.8218 9.752 30.9738 10.272 31.2778 10.632C31.5818 10.992 31.9858 11.172 32.4898 11.172ZM37.3309 12.084C37.1389 12.084 36.9909 12.032 36.8869 11.928C36.7829 11.816 36.7309 11.664 36.7309 11.472V6.672C36.7309 6.472 36.7829 6.32 36.8869 6.216C36.9909 6.112 37.1349 6.06 37.3189 6.06C37.5109 6.06 37.6549 6.112 37.7509 6.216C37.8549 6.32 37.9069 6.472 37.9069 6.672V7.608L37.7749 7.392C37.9509 6.944 38.2269 6.608 38.6029 6.384C38.9789 6.152 39.4109 6.036 39.8989 6.036C40.3629 6.036 40.7469 6.124 41.0509 6.3C41.3629 6.468 41.5949 6.728 41.7469 7.08C41.8989 7.424 41.9749 7.86 41.9749 8.388V11.472C41.9749 11.664 41.9229 11.816 41.8189 11.928C41.7149 12.032 41.5669 12.084 41.3749 12.084C41.1749 12.084 41.0229 12.032 40.9189 11.928C40.8149 11.816 40.7629 11.664 40.7629 11.472V8.46C40.7629 7.956 40.6629 7.588 40.4629 7.356C40.2709 7.124 39.9669 7.008 39.5509 7.008C39.0629 7.008 38.6709 7.16 38.3749 7.464C38.0869 7.768 37.9429 8.176 37.9429 8.688V11.472C37.9429 11.88 37.7389 12.084 37.3309 12.084ZM45.517 12.108C45.109 12.108 44.741 12.028 44.413 11.868C44.093 11.708 43.841 11.492 43.657 11.22C43.473 10.948 43.381 10.64 43.381 10.296C43.381 9.864 43.489 9.524 43.705 9.276C43.929 9.02 44.293 8.84 44.797 8.736C45.309 8.624 45.997 8.568 46.861 8.568H47.425V9.312H46.873C46.297 9.312 45.841 9.34 45.505 9.396C45.169 9.452 44.929 9.548 44.785 9.684C44.649 9.812 44.581 9.992 44.581 10.224C44.581 10.528 44.685 10.776 44.893 10.968C45.101 11.152 45.389 11.244 45.757 11.244C46.053 11.244 46.313 11.176 46.537 11.04C46.761 10.896 46.937 10.704 47.065 10.464C47.201 10.224 47.269 9.948 47.269 9.636V8.256C47.269 7.8 47.173 7.472 46.981 7.272C46.789 7.072 46.473 6.972 46.033 6.972C45.777 6.972 45.509 7.004 45.229 7.068C44.957 7.132 44.673 7.24 44.377 7.392C44.241 7.456 44.125 7.476 44.029 7.452C43.933 7.428 43.857 7.376 43.801 7.296C43.745 7.208 43.713 7.116 43.705 7.02C43.705 6.916 43.729 6.816 43.777 6.72C43.833 6.624 43.925 6.552 44.053 6.504C44.405 6.336 44.753 6.216 45.097 6.144C45.441 6.072 45.765 6.036 46.069 6.036C46.605 6.036 47.045 6.12 47.389 6.288C47.741 6.456 48.001 6.712 48.169 7.056C48.337 7.4 48.421 7.844 48.421 8.388V11.472C48.421 11.664 48.373 11.816 48.277 11.928C48.181 12.032 48.041 12.084 47.857 12.084C47.681 12.084 47.541 12.032 47.437 11.928C47.333 11.816 47.281 11.664 47.281 11.472V10.692H47.389C47.325 10.988 47.205 11.244 47.029 11.46C46.861 11.668 46.649 11.828 46.393 11.94C46.137 12.052 45.845 12.108 45.517 12.108ZM51.9743 12.108C51.3503 12.108 50.8783 11.928 50.5583 11.568C50.2463 11.2 50.0903 10.672 50.0903 9.984V4.068C50.0903 3.868 50.1423 3.716 50.2463 3.612C50.3503 3.508 50.4983 3.456 50.6903 3.456C50.8823 3.456 51.0303 3.508 51.1343 3.612C51.2463 3.716 51.3023 3.868 51.3023 4.068V9.912C51.3023 10.312 51.3823 10.612 51.5423 10.812C51.7103 11.004 51.9503 11.1 52.2623 11.1C52.3343 11.1 52.3983 11.1 52.4543 11.1C52.5103 11.092 52.5663 11.084 52.6223 11.076C52.7183 11.068 52.7863 11.096 52.8263 11.16C52.8663 11.216 52.8863 11.336 52.8863 11.52C52.8863 11.688 52.8503 11.82 52.7783 11.916C52.7063 12.004 52.5903 12.06 52.4303 12.084C52.3583 12.092 52.2823 12.096 52.2023 12.096C52.1223 12.104 52.0463 12.108 51.9743 12.108ZM57.7263 12C57.5103 12 57.3423 11.944 57.2223 11.832C57.1103 11.712 57.0543 11.544 57.0543 11.328V4.212C57.0543 3.996 57.1103 3.832 57.2223 3.72C57.3423 3.6 57.5103 3.54 57.7263 3.54H60.0423C61.4343 3.54 62.5063 3.904 63.2583 4.632C64.0183 5.352 64.3983 6.396 64.3983 7.764C64.3983 8.444 64.3023 9.048 64.1103 9.576C63.9183 10.104 63.6343 10.548 63.2583 10.908C62.8903 11.26 62.4383 11.532 61.9023 11.724C61.3663 11.908 60.7463 12 60.0423 12H57.7263ZM58.3023 10.956H59.9703C60.4983 10.956 60.9543 10.892 61.3383 10.764C61.7303 10.628 62.0583 10.428 62.3223 10.164C62.5863 9.9 62.7823 9.568 62.9103 9.168C63.0383 8.768 63.1023 8.3 63.1023 7.764C63.1023 6.7 62.8383 5.904 62.3103 5.376C61.7903 4.848 61.0103 4.584 59.9703 4.584H58.3023V10.956ZM68.682 12.108C68.042 12.108 67.49 11.988 67.026 11.748C66.57 11.5 66.214 11.152 65.958 10.704C65.71 10.248 65.586 9.708 65.586 9.084C65.586 8.476 65.71 7.944 65.958 7.488C66.206 7.032 66.546 6.676 66.978 6.42C67.41 6.164 67.902 6.036 68.454 6.036C68.862 6.036 69.226 6.104 69.546 6.24C69.866 6.368 70.138 6.56 70.362 6.816C70.594 7.064 70.766 7.368 70.878 7.728C70.998 8.088 71.058 8.492 71.058 8.94C71.058 9.076 71.018 9.18 70.938 9.252C70.858 9.316 70.738 9.348 70.578 9.348H66.546V8.604H70.242L70.038 8.772C70.038 8.372 69.978 8.032 69.858 7.752C69.746 7.472 69.574 7.26 69.342 7.116C69.118 6.964 68.838 6.888 68.502 6.888C68.126 6.888 67.806 6.976 67.542 7.152C67.286 7.328 67.09 7.572 66.954 7.884C66.818 8.196 66.75 8.56 66.75 8.976V9.048C66.75 9.752 66.914 10.284 67.242 10.644C67.578 10.996 68.062 11.172 68.694 11.172C68.934 11.172 69.186 11.14 69.45 11.076C69.722 11.012 69.978 10.904 70.218 10.752C70.354 10.672 70.474 10.636 70.578 10.644C70.69 10.652 70.778 10.688 70.842 10.752C70.914 10.816 70.958 10.896 70.974 10.992C70.99 11.088 70.974 11.188 70.926 11.292C70.878 11.388 70.794 11.476 70.674 11.556C70.402 11.74 70.086 11.88 69.726 11.976C69.366 12.064 69.018 12.108 68.682 12.108ZM74.8636 12.108C74.3836 12.108 73.9796 12.024 73.6516 11.856C73.3236 11.688 73.0796 11.44 72.9196 11.112C72.7596 10.784 72.6796 10.384 72.6796 9.912V7.08H71.9596C71.7996 7.08 71.6756 7.04 71.5876 6.96C71.4996 6.872 71.4556 6.756 71.4556 6.612C71.4556 6.46 71.4996 6.344 71.5876 6.264C71.6756 6.184 71.7996 6.144 71.9596 6.144H72.6796V4.908C72.6796 4.708 72.7316 4.556 72.8356 4.452C72.9476 4.348 73.0996 4.296 73.2916 4.296C73.4836 4.296 73.6316 4.348 73.7356 4.452C73.8396 4.556 73.8916 4.708 73.8916 4.908V6.144H75.2956C75.4556 6.144 75.5796 6.184 75.6676 6.264C75.7556 6.344 75.7996 6.46 75.7996 6.612C75.7996 6.756 75.7556 6.872 75.6676 6.96C75.5796 7.04 75.4556 7.08 75.2956 7.08H73.8916V9.816C73.8916 10.24 73.9796 10.56 74.1556 10.776C74.3396 10.992 74.6356 11.1 75.0436 11.1C75.1876 11.1 75.3116 11.088 75.4156 11.064C75.5276 11.032 75.6196 11.012 75.6916 11.004C75.7796 11.004 75.8516 11.036 75.9076 11.1C75.9636 11.156 75.9916 11.268 75.9916 11.436C75.9916 11.556 75.9676 11.668 75.9196 11.772C75.8796 11.876 75.8036 11.944 75.6916 11.976C75.5956 12.008 75.4636 12.036 75.2956 12.06C75.1356 12.092 74.9916 12.108 74.8636 12.108ZM78.6224 12.108C78.2144 12.108 77.8464 12.028 77.5184 11.868C77.1984 11.708 76.9464 11.492 76.7624 11.22C76.5784 10.948 76.4864 10.64 76.4864 10.296C76.4864 9.864 76.5944 9.524 76.8104 9.276C77.0344 9.02 77.3984 8.84 77.9024 8.736C78.4144 8.624 79.1024 8.568 79.9664 8.568H80.5304V9.312H79.9784C79.4024 9.312 78.9464 9.34 78.6104 9.396C78.2744 9.452 78.0344 9.548 77.8904 9.684C77.7544 9.812 77.6864 9.992 77.6864 10.224C77.6864 10.528 77.7904 10.776 77.9984 10.968C78.2064 11.152 78.4944 11.244 78.8624 11.244C79.1584 11.244 79.4184 11.176 79.6424 11.04C79.8664 10.896 80.0424 10.704 80.1704 10.464C80.3064 10.224 80.3744 9.948 80.3744 9.636V8.256C80.3744 7.8 80.2784 7.472 80.0864 7.272C79.8944 7.072 79.5784 6.972 79.1384 6.972C78.8824 6.972 78.6144 7.004 78.3344 7.068C78.0624 7.132 77.7784 7.24 77.4824 7.392C77.3464 7.456 77.2304 7.476 77.1344 7.452C77.0384 7.428 76.9624 7.376 76.9064 7.296C76.8504 7.208 76.8184 7.116 76.8104 7.02C76.8104 6.916 76.8344 6.816 76.8824 6.72C76.9384 6.624 77.0304 6.552 77.1584 6.504C77.5104 6.336 77.8584 6.216 78.2024 6.144C78.5464 6.072 78.8704 6.036 79.1744 6.036C79.7104 6.036 80.1504 6.12 80.4944 6.288C80.8464 6.456 81.1064 6.712 81.2744 7.056C81.4424 7.4 81.5264 7.844 81.5264 8.388V11.472C81.5264 11.664 81.4784 11.816 81.3824 11.928C81.2864 12.032 81.1464 12.084 80.9624 12.084C80.7864 12.084 80.6464 12.032 80.5424 11.928C80.4384 11.816 80.3864 11.664 80.3864 11.472V10.692H80.4944C80.4304 10.988 80.3104 11.244 80.1344 11.46C79.9664 11.668 79.7544 11.828 79.4984 11.94C79.2424 12.052 78.9504 12.108 78.6224 12.108ZM83.7958 12.072C83.6038 12.072 83.4558 12.016 83.3518 11.904C83.2478 11.784 83.1958 11.62 83.1958 11.412V6.732C83.1958 6.524 83.2478 6.364 83.3518 6.252C83.4558 6.14 83.6038 6.084 83.7958 6.084C83.9878 6.084 84.1358 6.14 84.2398 6.252C84.3518 6.364 84.4078 6.524 84.4078 6.732V11.412C84.4078 11.62 84.3558 11.784 84.2518 11.904C84.1478 12.016 83.9958 12.072 83.7958 12.072ZM83.7958 4.836C83.5558 4.836 83.3678 4.776 83.2318 4.656C83.1038 4.536 83.0398 4.368 83.0398 4.152C83.0398 3.928 83.1038 3.76 83.2318 3.648C83.3678 3.528 83.5558 3.468 83.7958 3.468C84.0358 3.468 84.2198 3.528 84.3478 3.648C84.4838 3.76 84.5518 3.928 84.5518 4.152C84.5518 4.368 84.4838 4.536 84.3478 4.656C84.2198 4.776 84.0358 4.836 83.7958 4.836ZM87.9977 12.108C87.3737 12.108 86.9017 11.928 86.5817 11.568C86.2697 11.2 86.1137 10.672 86.1137 9.984V4.068C86.1137 3.868 86.1657 3.716 86.2697 3.612C86.3737 3.508 86.5217 3.456 86.7137 3.456C86.9057 3.456 87.0537 3.508 87.1577 3.612C87.2697 3.716 87.3257 3.868 87.3257 4.068V9.912C87.3257 10.312 87.4057 10.612 87.5657 10.812C87.7337 11.004 87.9737 11.1 88.2857 11.1C88.3577 11.1 88.4217 11.1 88.4777 11.1C88.5337 11.092 88.5897 11.084 88.6457 11.076C88.7417 11.068 88.8097 11.096 88.8497 11.16C88.8897 11.216 88.9097 11.336 88.9097 11.52C88.9097 11.688 88.8737 11.82 88.8017 11.916C88.7297 12.004 88.6137 12.06 88.4537 12.084C88.3817 12.092 88.3057 12.096 88.2257 12.096C88.1457 12.104 88.0697 12.108 87.9977 12.108ZM91.7751 12.108C91.4231 12.108 91.0591 12.068 90.6831 11.988C90.3151 11.908 89.9751 11.772 89.6631 11.58C89.5591 11.508 89.4871 11.428 89.4471 11.34C89.4071 11.252 89.3911 11.164 89.3991 11.076C89.4151 10.98 89.4511 10.9 89.5071 10.836C89.5711 10.764 89.6471 10.72 89.7351 10.704C89.8311 10.688 89.9311 10.708 90.0351 10.764C90.3471 10.94 90.6471 11.064 90.9351 11.136C91.2231 11.2 91.5071 11.232 91.7871 11.232C92.2111 11.232 92.5311 11.156 92.7471 11.004C92.9631 10.852 93.0711 10.648 93.0711 10.392C93.0711 10.184 92.9991 10.024 92.8551 9.912C92.7111 9.792 92.4951 9.7 92.2071 9.636L91.0671 9.408C90.5711 9.304 90.1951 9.12 89.9391 8.856C89.6831 8.592 89.5551 8.256 89.5551 7.848C89.5551 7.48 89.6551 7.16 89.8551 6.888C90.0551 6.616 90.3351 6.408 90.6951 6.264C91.0551 6.112 91.4711 6.036 91.9431 6.036C92.2951 6.036 92.6271 6.08 92.9391 6.168C93.2511 6.256 93.5391 6.388 93.8031 6.564C93.9071 6.62 93.9751 6.696 94.0071 6.792C94.0391 6.88 94.0431 6.968 94.0191 7.056C94.0031 7.144 93.9631 7.224 93.8991 7.296C93.8351 7.36 93.7551 7.4 93.6591 7.416C93.5711 7.424 93.4711 7.4 93.3591 7.344C93.1191 7.192 92.8791 7.084 92.6391 7.02C92.4071 6.956 92.1751 6.924 91.9431 6.924C91.5191 6.924 91.1991 7.004 90.9831 7.164C90.7751 7.316 90.6711 7.524 90.6711 7.788C90.6711 7.988 90.7351 8.152 90.8631 8.28C90.9911 8.408 91.1911 8.5 91.4631 8.556L92.6031 8.784C93.1231 8.888 93.5151 9.064 93.7791 9.312C94.0511 9.56 94.1871 9.896 94.1871 10.32C94.1871 10.872 93.9671 11.308 93.5271 11.628C93.0871 11.948 92.5031 12.108 91.7751 12.108Z" fill="#64728C"/>
<defs>
<filter id="filter0_d_558_5003" x="0" y="20" width="310" height="55" filterUnits="userSpaceOnUse" color-interpolation-filters="sRGB">
<feFlood flood-opacity="0" result="BackgroundImageFix"/>
<feColorMatrix in="SourceAlpha" type="matrix" values="0 0 0 0 0 0 0 0 0 0 0 0 0 0 0 0 0 0 127 0" result="hardAlpha"/>
<feOffset dy="4"/>
<feGaussianBlur stdDeviation="2.5"/>
<feComposite in2="hardAlpha" operator="out"/>
<feColorMatrix type="matrix" values="0 0 0 0 0.921569 0 0 0 0 0.0352941 0 0 0 0 0.0627451 0 0 0 0.15 0"/>
<feBlend mode="normal" in2="BackgroundImageFix" result="effect1_dropShadow_558_5003"/>
<feBlend mode="normal" in="SourceGraphic" in2="effect1_dropShadow_558_5003" result="shape"/>
</filter>
</defs>
</svg>
