<svg width="300" height="66" viewBox="0 0 300 66" fill="none" xmlns="http://www.w3.org/2000/svg">
<rect x="0.5" y="21.5" width="299" height="44" rx="11.5" fill="white"/>
<rect x="0.5" y="21.5" width="299" height="44" rx="11.5" stroke="#FFAA00"/>
<path d="M10.864 47.584C10.736 47.584 10.632 47.556 10.552 47.5C10.48 47.436 10.436 47.356 10.42 47.26C10.412 47.156 10.436 47.04 10.492 46.912L13.792 39.4C13.864 39.24 13.948 39.128 14.044 39.064C14.148 38.992 14.26 38.956 14.38 38.956C14.5 38.956 14.608 38.992 14.704 39.064C14.808 39.128 14.892 39.24 14.956 39.4L18.268 46.912C18.332 47.04 18.356 47.156 18.34 47.26C18.332 47.364 18.292 47.444 18.22 47.5C18.148 47.556 18.048 47.584 17.92 47.584C17.776 47.584 17.66 47.548 17.572 47.476C17.484 47.396 17.412 47.284 17.356 47.14L16.468 45.088L16.948 45.34H11.788L12.28 45.088L11.404 47.14C11.332 47.292 11.256 47.404 11.176 47.476C11.096 47.548 10.992 47.584 10.864 47.584ZM14.368 40.192L12.436 44.74L12.148 44.512H16.588L16.324 44.74L14.392 40.192H14.368ZM22.1756 49.768C21.7516 49.768 21.3356 49.716 20.9276 49.612C20.5276 49.516 20.1636 49.36 19.8356 49.144C19.7396 49.088 19.6756 49.02 19.6436 48.94C19.6196 48.86 19.6156 48.78 19.6316 48.7C19.6476 48.628 19.6836 48.56 19.7396 48.496C19.7956 48.44 19.8596 48.404 19.9316 48.388C20.0116 48.372 20.0916 48.384 20.1716 48.424C20.5236 48.64 20.8596 48.788 21.1796 48.868C21.4996 48.948 21.8156 48.988 22.1276 48.988C22.6956 48.988 23.1236 48.836 23.4116 48.532C23.7076 48.228 23.8556 47.788 23.8556 47.212V45.856H23.9756C23.8556 46.32 23.5996 46.688 23.2076 46.96C22.8236 47.232 22.3716 47.368 21.8516 47.368C21.3156 47.368 20.8516 47.248 20.4596 47.008C20.0676 46.76 19.7636 46.416 19.5476 45.976C19.3396 45.536 19.2356 45.028 19.2356 44.452C19.2356 44.02 19.2956 43.628 19.4156 43.276C19.5356 42.916 19.7076 42.612 19.9316 42.364C20.1636 42.108 20.4396 41.912 20.7596 41.776C21.0876 41.632 21.4516 41.56 21.8516 41.56C22.3796 41.56 22.8356 41.696 23.2196 41.968C23.6036 42.232 23.8516 42.592 23.9636 43.048L23.8436 43.192V42.076C23.8436 41.916 23.8836 41.796 23.9636 41.716C24.0516 41.628 24.1716 41.584 24.3236 41.584C24.4836 41.584 24.6036 41.628 24.6836 41.716C24.7636 41.796 24.8036 41.916 24.8036 42.076V47.08C24.8036 47.968 24.5796 48.636 24.1316 49.084C23.6916 49.54 23.0396 49.768 22.1756 49.768ZM22.0316 46.576C22.4076 46.576 22.7316 46.492 23.0036 46.324C23.2756 46.148 23.4836 45.9 23.6276 45.58C23.7796 45.26 23.8556 44.884 23.8556 44.452C23.8556 43.804 23.6916 43.292 23.3636 42.916C23.0356 42.532 22.5916 42.34 22.0316 42.34C21.6636 42.34 21.3436 42.428 21.0716 42.604C20.7996 42.772 20.5876 43.016 20.4356 43.336C20.2916 43.648 20.2196 44.02 20.2196 44.452C20.2196 45.1 20.3836 45.616 20.7116 46C21.0396 46.384 21.4796 46.576 22.0316 46.576ZM29.2548 47.608C28.6388 47.608 28.1068 47.488 27.6588 47.248C27.2188 47 26.8748 46.652 26.6268 46.204C26.3868 45.756 26.2668 45.22 26.2668 44.596C26.2668 43.988 26.3868 43.46 26.6268 43.012C26.8668 42.556 27.1948 42.2 27.6108 41.944C28.0348 41.688 28.5228 41.56 29.0748 41.56C29.4668 41.56 29.8188 41.628 30.1308 41.764C30.4428 41.892 30.7068 42.08 30.9228 42.328C31.1468 42.576 31.3148 42.876 31.4268 43.228C31.5468 43.58 31.6068 43.976 31.6068 44.416C31.6068 44.544 31.5708 44.64 31.4988 44.704C31.4268 44.76 31.3228 44.788 31.1868 44.788H27.0108V44.152H30.9588L30.7668 44.308C30.7668 43.876 30.7028 43.512 30.5748 43.216C30.4468 42.912 30.2588 42.68 30.0108 42.52C29.7708 42.36 29.4668 42.28 29.0988 42.28C28.6908 42.28 28.3428 42.376 28.0548 42.568C27.7748 42.752 27.5628 43.012 27.4188 43.348C27.2748 43.676 27.2028 44.06 27.2028 44.5V44.572C27.2028 45.308 27.3788 45.868 27.7308 46.252C28.0908 46.636 28.5988 46.828 29.2548 46.828C29.5268 46.828 29.7948 46.792 30.0588 46.72C30.3308 46.648 30.5948 46.528 30.8508 46.36C30.9628 46.288 31.0628 46.256 31.1508 46.264C31.2468 46.264 31.3228 46.292 31.3788 46.348C31.4348 46.396 31.4708 46.46 31.4868 46.54C31.5108 46.612 31.5028 46.692 31.4628 46.78C31.4308 46.868 31.3628 46.944 31.2588 47.008C30.9948 47.2 30.6828 47.348 30.3228 47.452C29.9628 47.556 29.6068 47.608 29.2548 47.608ZM33.5896 48.64C33.5096 48.744 33.4256 48.804 33.3376 48.82C33.2496 48.836 33.1736 48.82 33.1096 48.772C33.0456 48.724 33.0096 48.656 33.0016 48.568C33.0016 48.48 33.0416 48.384 33.1216 48.28C33.2496 48.112 33.3376 47.94 33.3856 47.764C33.4336 47.596 33.4576 47.44 33.4576 47.296L33.5056 47.548C33.2976 47.548 33.1296 47.488 33.0016 47.368C32.8816 47.24 32.8216 47.08 32.8216 46.888C32.8216 46.696 32.8776 46.54 32.9896 46.42C33.1096 46.292 33.2656 46.228 33.4576 46.228C33.6656 46.228 33.8296 46.3 33.9496 46.444C34.0696 46.58 34.1296 46.78 34.1296 47.044C34.1296 47.212 34.1136 47.384 34.0816 47.56C34.0496 47.744 33.9936 47.928 33.9136 48.112C33.8336 48.296 33.7256 48.472 33.5896 48.64ZM39.5098 47.5C39.3338 47.5 39.1978 47.456 39.1018 47.368C39.0138 47.272 38.9698 47.136 38.9698 46.96V39.58C38.9698 39.404 39.0138 39.272 39.1018 39.184C39.1978 39.088 39.3338 39.04 39.5098 39.04H43.9738C44.1098 39.04 44.2138 39.076 44.2858 39.148C44.3578 39.22 44.3938 39.32 44.3938 39.448C44.3938 39.584 44.3578 39.688 44.2858 39.76C44.2138 39.832 44.1098 39.868 43.9738 39.868H39.9298V42.796H43.7218C43.8578 42.796 43.9618 42.832 44.0338 42.904C44.1058 42.968 44.1418 43.068 44.1418 43.204C44.1418 43.34 44.1058 43.444 44.0338 43.516C43.9618 43.588 43.8578 43.624 43.7218 43.624H39.9298V46.672H43.9738C44.1098 46.672 44.2138 46.708 44.2858 46.78C44.3578 46.852 44.3938 46.952 44.3938 47.08C44.3938 47.216 44.3578 47.32 44.2858 47.392C44.2138 47.464 44.1098 47.5 43.9738 47.5H39.5098ZM46.3379 47.584C46.1779 47.584 46.0579 47.54 45.9779 47.452C45.8979 47.364 45.8579 47.24 45.8579 47.08V42.076C45.8579 41.916 45.8979 41.796 45.9779 41.716C46.0579 41.628 46.1739 41.584 46.3259 41.584C46.4779 41.584 46.5939 41.628 46.6739 41.716C46.7619 41.796 46.8059 41.916 46.8059 42.076V43.132L46.6739 42.964C46.8259 42.516 47.0699 42.172 47.4059 41.932C47.7499 41.684 48.1579 41.56 48.6299 41.56C49.1259 41.56 49.5259 41.68 49.8299 41.92C50.1419 42.152 50.3499 42.516 50.4539 43.012H50.2739C50.4179 42.564 50.6739 42.212 51.0419 41.956C51.4179 41.692 51.8539 41.56 52.3499 41.56C52.7899 41.56 53.1499 41.644 53.4299 41.812C53.7179 41.98 53.9339 42.236 54.0779 42.58C54.2219 42.916 54.2939 43.344 54.2939 43.864V47.08C54.2939 47.24 54.2499 47.364 54.1619 47.452C54.0819 47.54 53.9619 47.584 53.8019 47.584C53.6499 47.584 53.5299 47.54 53.4419 47.452C53.3619 47.364 53.3219 47.24 53.3219 47.08V43.912C53.3219 43.376 53.2299 42.984 53.0459 42.736C52.8619 42.48 52.5499 42.352 52.1099 42.352C51.6299 42.352 51.2499 42.52 50.9699 42.856C50.6979 43.184 50.5619 43.632 50.5619 44.2V47.08C50.5619 47.24 50.5179 47.364 50.4299 47.452C50.3499 47.54 50.2299 47.584 50.0699 47.584C49.9179 47.584 49.7979 47.54 49.7099 47.452C49.6299 47.364 49.5899 47.24 49.5899 47.08V43.912C49.5899 43.376 49.4939 42.984 49.3019 42.736C49.1179 42.48 48.8099 42.352 48.3779 42.352C47.8979 42.352 47.5179 42.52 47.2379 42.856C46.9659 43.184 46.8299 43.632 46.8299 44.2V47.08C46.8299 47.416 46.6659 47.584 46.3379 47.584ZM56.5912 49.744C56.4312 49.744 56.3112 49.7 56.2312 49.612C56.1512 49.532 56.1112 49.412 56.1112 49.252V42.076C56.1112 41.916 56.1512 41.796 56.2312 41.716C56.3112 41.628 56.4272 41.584 56.5792 41.584C56.7392 41.584 56.8592 41.628 56.9392 41.716C57.0272 41.796 57.0712 41.916 57.0712 42.076V43.216L56.9392 43.048C57.0672 42.592 57.3192 42.232 57.6952 41.968C58.0792 41.696 58.5352 41.56 59.0632 41.56C59.5832 41.56 60.0352 41.684 60.4192 41.932C60.8112 42.172 61.1112 42.52 61.3192 42.976C61.5352 43.424 61.6432 43.96 61.6432 44.584C61.6432 45.2 61.5352 45.736 61.3192 46.192C61.1112 46.64 60.8152 46.988 60.4312 47.236C60.0472 47.484 59.5912 47.608 59.0632 47.608C58.5352 47.608 58.0832 47.476 57.7072 47.212C57.3312 46.94 57.0752 46.58 56.9392 46.132H57.0832V49.252C57.0832 49.412 57.0392 49.532 56.9512 49.612C56.8632 49.7 56.7432 49.744 56.5912 49.744ZM58.8592 46.828C59.2272 46.828 59.5432 46.74 59.8072 46.564C60.0792 46.388 60.2872 46.132 60.4312 45.796C60.5832 45.46 60.6592 45.056 60.6592 44.584C60.6592 43.856 60.4952 43.3 60.1672 42.916C59.8472 42.532 59.4112 42.34 58.8592 42.34C58.4992 42.34 58.1832 42.428 57.9112 42.604C57.6392 42.772 57.4272 43.024 57.2752 43.36C57.1312 43.688 57.0592 44.096 57.0592 44.584C57.0592 45.304 57.2232 45.86 57.5512 46.252C57.8792 46.636 58.3152 46.828 58.8592 46.828ZM64.8833 47.608C64.3073 47.608 63.8673 47.432 63.5633 47.08C63.2593 46.728 63.1073 46.224 63.1073 45.568V39.448C63.1073 39.288 63.1473 39.168 63.2273 39.088C63.3073 39 63.4273 38.956 63.5873 38.956C63.7393 38.956 63.8593 39 63.9473 39.088C64.0353 39.168 64.0793 39.288 64.0793 39.448V45.496C64.0793 45.928 64.1633 46.252 64.3313 46.468C64.5073 46.676 64.7633 46.78 65.0993 46.78C65.1713 46.78 65.2353 46.776 65.2913 46.768C65.3473 46.76 65.4033 46.756 65.4593 46.756C65.5473 46.748 65.6073 46.768 65.6393 46.816C65.6793 46.864 65.6993 46.96 65.6993 47.104C65.6993 47.248 65.6673 47.356 65.6033 47.428C65.5393 47.5 65.4353 47.548 65.2913 47.572C65.2273 47.58 65.1593 47.588 65.0873 47.596C65.0153 47.604 64.9473 47.608 64.8833 47.608ZM69.0235 47.608C68.4555 47.608 67.9635 47.484 67.5475 47.236C67.1315 46.988 66.8075 46.64 66.5755 46.192C66.3515 45.736 66.2395 45.2 66.2395 44.584C66.2395 44.12 66.3035 43.704 66.4315 43.336C66.5595 42.96 66.7475 42.64 66.9955 42.376C67.2435 42.112 67.5355 41.912 67.8715 41.776C68.2155 41.632 68.5995 41.56 69.0235 41.56C69.5915 41.56 70.0835 41.684 70.4995 41.932C70.9155 42.18 71.2355 42.532 71.4595 42.988C71.6915 43.436 71.8075 43.968 71.8075 44.584C71.8075 45.048 71.7435 45.464 71.6155 45.832C71.4875 46.2 71.2995 46.52 71.0515 46.792C70.8035 47.056 70.5075 47.26 70.1635 47.404C69.8275 47.54 69.4475 47.608 69.0235 47.608ZM69.0235 46.828C69.3835 46.828 69.6995 46.74 69.9715 46.564C70.2435 46.388 70.4515 46.132 70.5955 45.796C70.7475 45.46 70.8235 45.056 70.8235 44.584C70.8235 43.856 70.6595 43.3 70.3315 42.916C70.0115 42.532 69.5755 42.34 69.0235 42.34C68.6555 42.34 68.3355 42.428 68.0635 42.604C67.7995 42.772 67.5915 43.024 67.4395 43.36C67.2955 43.688 67.2235 44.096 67.2235 44.584C67.2235 45.304 67.3875 45.86 67.7155 46.252C68.0435 46.636 68.4795 46.828 69.0235 46.828ZM74.4814 49.744C74.3614 49.744 74.2654 49.712 74.1934 49.648C74.1214 49.584 74.0774 49.496 74.0614 49.384C74.0534 49.28 74.0734 49.172 74.1214 49.06L74.9494 47.2V47.62L72.6454 42.268C72.5974 42.148 72.5814 42.036 72.5974 41.932C72.6134 41.828 72.6614 41.744 72.7414 41.68C72.8214 41.616 72.9334 41.584 73.0774 41.584C73.2054 41.584 73.3054 41.612 73.3774 41.668C73.4494 41.724 73.5134 41.824 73.5694 41.968L75.5374 46.792H75.2134L77.2054 41.968C77.2694 41.824 77.3374 41.724 77.4094 41.668C77.4814 41.612 77.5854 41.584 77.7214 41.584C77.8494 41.584 77.9454 41.616 78.0094 41.68C78.0814 41.744 78.1214 41.828 78.1294 41.932C78.1454 42.028 78.1294 42.136 78.0814 42.256L75.0094 49.36C74.9454 49.504 74.8734 49.604 74.7934 49.66C74.7214 49.716 74.6174 49.744 74.4814 49.744ZM81.8955 47.608C81.2795 47.608 80.7475 47.488 80.2995 47.248C79.8595 47 79.5155 46.652 79.2675 46.204C79.0275 45.756 78.9075 45.22 78.9075 44.596C78.9075 43.988 79.0275 43.46 79.2675 43.012C79.5075 42.556 79.8355 42.2 80.2515 41.944C80.6755 41.688 81.1635 41.56 81.7155 41.56C82.1075 41.56 82.4595 41.628 82.7715 41.764C83.0835 41.892 83.3475 42.08 83.5635 42.328C83.7875 42.576 83.9555 42.876 84.0675 43.228C84.1875 43.58 84.2475 43.976 84.2475 44.416C84.2475 44.544 84.2115 44.64 84.1395 44.704C84.0675 44.76 83.9635 44.788 83.8275 44.788H79.6515V44.152H83.5995L83.4075 44.308C83.4075 43.876 83.3435 43.512 83.2155 43.216C83.0875 42.912 82.8995 42.68 82.6515 42.52C82.4115 42.36 82.1075 42.28 81.7395 42.28C81.3315 42.28 80.9835 42.376 80.6955 42.568C80.4155 42.752 80.2035 43.012 80.0595 43.348C79.9155 43.676 79.8435 44.06 79.8435 44.5V44.572C79.8435 45.308 80.0195 45.868 80.3715 46.252C80.7315 46.636 81.2395 46.828 81.8955 46.828C82.1675 46.828 82.4355 46.792 82.6995 46.72C82.9715 46.648 83.2355 46.528 83.4915 46.36C83.6035 46.288 83.7035 46.256 83.7915 46.264C83.8875 46.264 83.9635 46.292 84.0195 46.348C84.0755 46.396 84.1115 46.46 84.1275 46.54C84.1515 46.612 84.1435 46.692 84.1035 46.78C84.0715 46.868 84.0035 46.944 83.8995 47.008C83.6355 47.2 83.3235 47.348 82.9635 47.452C82.6035 47.556 82.2475 47.608 81.8955 47.608ZM88.2822 47.608C87.6662 47.608 87.1342 47.488 86.6862 47.248C86.2462 47 85.9022 46.652 85.6542 46.204C85.4142 45.756 85.2942 45.22 85.2942 44.596C85.2942 43.988 85.4142 43.46 85.6542 43.012C85.8942 42.556 86.2222 42.2 86.6382 41.944C87.0622 41.688 87.5502 41.56 88.1022 41.56C88.4942 41.56 88.8462 41.628 89.1582 41.764C89.4702 41.892 89.7342 42.08 89.9502 42.328C90.1742 42.576 90.3422 42.876 90.4542 43.228C90.5742 43.58 90.6342 43.976 90.6342 44.416C90.6342 44.544 90.5982 44.64 90.5262 44.704C90.4542 44.76 90.3502 44.788 90.2142 44.788H86.0382V44.152H89.9862L89.7942 44.308C89.7942 43.876 89.7302 43.512 89.6022 43.216C89.4742 42.912 89.2862 42.68 89.0382 42.52C88.7982 42.36 88.4942 42.28 88.1262 42.28C87.7182 42.28 87.3702 42.376 87.0822 42.568C86.8022 42.752 86.5902 43.012 86.4462 43.348C86.3022 43.676 86.2302 44.06 86.2302 44.5V44.572C86.2302 45.308 86.4062 45.868 86.7582 46.252C87.1182 46.636 87.6262 46.828 88.2822 46.828C88.5542 46.828 88.8222 46.792 89.0862 46.72C89.3582 46.648 89.6222 46.528 89.8782 46.36C89.9902 46.288 90.0902 46.256 90.1782 46.264C90.2742 46.264 90.3502 46.292 90.4062 46.348C90.4622 46.396 90.4982 46.46 90.5142 46.54C90.5382 46.612 90.5302 46.692 90.4902 46.78C90.4582 46.868 90.3902 46.944 90.2862 47.008C90.0222 47.2 89.7102 47.348 89.3502 47.452C88.9902 47.556 88.6342 47.608 88.2822 47.608ZM95.7347 47.584C95.5827 47.584 95.4667 47.544 95.3867 47.464C95.3067 47.376 95.2667 47.252 95.2667 47.092V39.46C95.2667 39.3 95.3067 39.176 95.3867 39.088C95.4667 39 95.5707 38.956 95.6987 38.956C95.8267 38.956 95.9187 38.98 95.9747 39.028C96.0387 39.068 96.1107 39.144 96.1907 39.256L101.423 46.228H101.135V39.436C101.135 39.284 101.175 39.168 101.255 39.088C101.335 39 101.451 38.956 101.603 38.956C101.747 38.956 101.855 39 101.927 39.088C102.007 39.168 102.047 39.284 102.047 39.436V47.104C102.047 47.256 102.011 47.376 101.939 47.464C101.875 47.544 101.779 47.584 101.651 47.584C101.531 47.584 101.435 47.56 101.363 47.512C101.291 47.464 101.215 47.388 101.135 47.284L95.9147 40.312H96.1907V47.092C96.1907 47.252 96.1507 47.376 96.0707 47.464C95.9907 47.544 95.8787 47.584 95.7347 47.584ZM105.853 47.608C105.453 47.608 105.093 47.532 104.773 47.38C104.461 47.22 104.213 47.004 104.029 46.732C103.845 46.46 103.753 46.156 103.753 45.82C103.753 45.388 103.861 45.048 104.077 44.8C104.301 44.552 104.665 44.376 105.169 44.272C105.681 44.168 106.377 44.116 107.257 44.116H107.797V44.752H107.269C106.621 44.752 106.109 44.784 105.733 44.848C105.365 44.904 105.105 45.004 104.953 45.148C104.809 45.292 104.737 45.496 104.737 45.76C104.737 46.088 104.849 46.356 105.073 46.564C105.305 46.772 105.617 46.876 106.009 46.876C106.329 46.876 106.609 46.8 106.849 46.648C107.097 46.496 107.289 46.288 107.425 46.024C107.569 45.76 107.641 45.456 107.641 45.112V43.744C107.641 43.248 107.541 42.892 107.341 42.676C107.141 42.452 106.813 42.34 106.357 42.34C106.077 42.34 105.797 42.376 105.517 42.448C105.237 42.52 104.941 42.636 104.629 42.796C104.517 42.852 104.421 42.872 104.341 42.856C104.261 42.832 104.197 42.788 104.149 42.724C104.101 42.66 104.073 42.588 104.065 42.508C104.057 42.42 104.073 42.336 104.113 42.256C104.161 42.176 104.233 42.112 104.329 42.064C104.681 41.888 105.029 41.76 105.373 41.68C105.717 41.6 106.045 41.56 106.357 41.56C106.861 41.56 107.277 41.644 107.605 41.812C107.933 41.972 108.177 42.22 108.337 42.556C108.497 42.884 108.577 43.308 108.577 43.828V47.08C108.577 47.24 108.537 47.364 108.457 47.452C108.385 47.54 108.277 47.584 108.133 47.584C107.981 47.584 107.865 47.54 107.785 47.452C107.705 47.364 107.665 47.24 107.665 47.08V46.144H107.773C107.709 46.448 107.585 46.708 107.401 46.924C107.225 47.14 107.005 47.308 106.741 47.428C106.477 47.548 106.181 47.608 105.853 47.608ZM110.885 47.584C110.725 47.584 110.605 47.54 110.525 47.452C110.445 47.364 110.405 47.24 110.405 47.08V42.076C110.405 41.916 110.445 41.796 110.525 41.716C110.605 41.628 110.721 41.584 110.873 41.584C111.025 41.584 111.141 41.628 111.221 41.716C111.309 41.796 111.353 41.916 111.353 42.076V43.132L111.221 42.964C111.373 42.516 111.617 42.172 111.953 41.932C112.297 41.684 112.705 41.56 113.177 41.56C113.673 41.56 114.073 41.68 114.377 41.92C114.689 42.152 114.897 42.516 115.001 43.012H114.821C114.965 42.564 115.221 42.212 115.589 41.956C115.965 41.692 116.401 41.56 116.897 41.56C117.337 41.56 117.697 41.644 117.977 41.812C118.265 41.98 118.481 42.236 118.625 42.58C118.769 42.916 118.841 43.344 118.841 43.864V47.08C118.841 47.24 118.797 47.364 118.709 47.452C118.629 47.54 118.509 47.584 118.349 47.584C118.197 47.584 118.077 47.54 117.989 47.452C117.909 47.364 117.869 47.24 117.869 47.08V43.912C117.869 43.376 117.777 42.984 117.593 42.736C117.409 42.48 117.097 42.352 116.657 42.352C116.177 42.352 115.797 42.52 115.517 42.856C115.245 43.184 115.109 43.632 115.109 44.2V47.08C115.109 47.24 115.065 47.364 114.977 47.452C114.897 47.54 114.777 47.584 114.617 47.584C114.465 47.584 114.345 47.54 114.257 47.452C114.177 47.364 114.137 47.24 114.137 47.08V43.912C114.137 43.376 114.041 42.984 113.849 42.736C113.665 42.48 113.357 42.352 112.925 42.352C112.445 42.352 112.065 42.52 111.785 42.856C111.513 43.184 111.377 43.632 111.377 44.2V47.08C111.377 47.416 111.213 47.584 110.885 47.584ZM123.286 47.608C122.67 47.608 122.138 47.488 121.69 47.248C121.25 47 120.906 46.652 120.658 46.204C120.418 45.756 120.298 45.22 120.298 44.596C120.298 43.988 120.418 43.46 120.658 43.012C120.898 42.556 121.226 42.2 121.642 41.944C122.066 41.688 122.554 41.56 123.106 41.56C123.498 41.56 123.85 41.628 124.162 41.764C124.474 41.892 124.738 42.08 124.954 42.328C125.178 42.576 125.346 42.876 125.458 43.228C125.578 43.58 125.638 43.976 125.638 44.416C125.638 44.544 125.602 44.64 125.53 44.704C125.458 44.76 125.354 44.788 125.218 44.788H121.042V44.152H124.99L124.798 44.308C124.798 43.876 124.734 43.512 124.606 43.216C124.478 42.912 124.29 42.68 124.042 42.52C123.802 42.36 123.498 42.28 123.13 42.28C122.722 42.28 122.374 42.376 122.086 42.568C121.806 42.752 121.594 43.012 121.45 43.348C121.306 43.676 121.234 44.06 121.234 44.5V44.572C121.234 45.308 121.41 45.868 121.762 46.252C122.122 46.636 122.63 46.828 123.286 46.828C123.558 46.828 123.826 46.792 124.09 46.72C124.362 46.648 124.626 46.528 124.882 46.36C124.994 46.288 125.094 46.256 125.182 46.264C125.278 46.264 125.354 46.292 125.41 46.348C125.466 46.396 125.502 46.46 125.518 46.54C125.542 46.612 125.534 46.692 125.494 46.78C125.462 46.868 125.394 46.944 125.29 47.008C125.026 47.2 124.714 47.348 124.354 47.452C123.994 47.556 123.638 47.608 123.286 47.608Z" fill="#64728C"/>
<rect x="137" y="34.5" width="25" height="18" rx="9" fill="#FFAA00"/>
<path d="M145.6 47.116C145.424 47.116 145.288 47.068 145.192 46.972C145.096 46.868 145.048 46.728 145.048 46.552V44.584H143.116C142.948 44.584 142.816 44.54 142.72 44.452C142.624 44.356 142.576 44.224 142.576 44.056C142.576 43.888 142.624 43.76 142.72 43.672C142.816 43.576 142.948 43.528 143.116 43.528H145.048V41.62C145.048 41.444 145.096 41.308 145.192 41.212C145.288 41.116 145.428 41.068 145.612 41.068C145.788 41.068 145.92 41.116 146.008 41.212C146.104 41.308 146.152 41.444 146.152 41.62V43.528H148.084C148.26 43.528 148.392 43.576 148.48 43.672C148.576 43.76 148.624 43.888 148.624 44.056C148.624 44.224 148.576 44.356 148.48 44.452C148.392 44.54 148.26 44.584 148.084 44.584H146.152V46.552C146.152 46.728 146.104 46.868 146.008 46.972C145.92 47.068 145.784 47.116 145.6 47.116ZM150.791 47.5C150.535 47.5 150.347 47.444 150.227 47.332C150.115 47.212 150.059 47.04 150.059 46.816C150.059 46.68 150.095 46.548 150.167 46.42C150.239 46.292 150.343 46.156 150.479 46.012L152.891 43.444C153.259 43.06 153.523 42.712 153.683 42.4C153.843 42.08 153.923 41.76 153.923 41.44C153.923 41.04 153.795 40.736 153.539 40.528C153.291 40.32 152.927 40.216 152.447 40.216C152.175 40.216 151.903 40.256 151.631 40.336C151.359 40.408 151.083 40.536 150.803 40.72C150.659 40.816 150.523 40.856 150.395 40.84C150.275 40.824 150.167 40.772 150.071 40.684C149.983 40.596 149.923 40.488 149.891 40.36C149.859 40.232 149.863 40.104 149.903 39.976C149.951 39.84 150.047 39.724 150.191 39.628C150.535 39.396 150.919 39.22 151.343 39.1C151.775 38.98 152.207 38.92 152.639 38.92C153.247 38.92 153.759 39.012 154.175 39.196C154.591 39.38 154.907 39.648 155.123 40C155.339 40.352 155.447 40.78 155.447 41.284C155.447 41.62 155.391 41.948 155.279 42.268C155.175 42.588 155.011 42.912 154.787 43.24C154.571 43.568 154.287 43.916 153.935 44.284L151.679 46.636V46.228H155.207C155.423 46.228 155.587 46.28 155.699 46.384C155.811 46.488 155.867 46.644 155.867 46.852C155.867 47.06 155.811 47.22 155.699 47.332C155.587 47.444 155.423 47.5 155.207 47.5H150.791Z" fill="white"/>
<rect x="260" y="25.5" width="36" height="36" rx="12" fill="#FFAA00" fill-opacity="0.12"/>
<path d="M279.039 48.2C278.577 49 277.423 49 276.961 48.2L273.843 42.8C273.381 42 273.959 41 274.882 41L281.118 41C282.041 41 282.619 42 282.157 42.8L279.039 48.2Z" fill="#FFAA00"/>
<path d="M1.608 12.084C1.408 12.084 1.252 12.028 1.14 11.916C1.036 11.804 0.984 11.648 0.984 11.448V4.176C0.984 3.968 1.04 3.812 1.152 3.708C1.264 3.596 1.42 3.54 1.62 3.54H4.488C5.4 3.54 6.104 3.768 6.6 4.224C7.096 4.672 7.344 5.304 7.344 6.12C7.344 6.944 7.096 7.584 6.6 8.04C6.104 8.488 5.4 8.712 4.488 8.712H2.232V11.448C2.232 11.648 2.18 11.804 2.076 11.916C1.972 12.028 1.816 12.084 1.608 12.084ZM2.232 7.716H4.308C4.908 7.716 5.36 7.584 5.664 7.32C5.976 7.048 6.132 6.648 6.132 6.12C6.132 5.6 5.976 5.208 5.664 4.944C5.36 4.672 4.908 4.536 4.308 4.536H2.232V7.716ZM11.018 12.108C10.378 12.108 9.82597 11.988 9.36197 11.748C8.90597 11.5 8.54997 11.152 8.29397 10.704C8.04597 10.248 7.92197 9.708 7.92197 9.084C7.92197 8.476 8.04597 7.944 8.29397 7.488C8.54197 7.032 8.88197 6.676 9.31397 6.42C9.74597 6.164 10.238 6.036 10.79 6.036C11.198 6.036 11.562 6.104 11.882 6.24C12.202 6.368 12.474 6.56 12.698 6.816C12.93 7.064 13.102 7.368 13.214 7.728C13.334 8.088 13.394 8.492 13.394 8.94C13.394 9.076 13.354 9.18 13.274 9.252C13.194 9.316 13.074 9.348 12.914 9.348H8.88197V8.604H12.578L12.374 8.772C12.374 8.372 12.314 8.032 12.194 7.752C12.082 7.472 11.91 7.26 11.678 7.116C11.454 6.964 11.174 6.888 10.838 6.888C10.462 6.888 10.142 6.976 9.87797 7.152C9.62197 7.328 9.42597 7.572 9.28997 7.884C9.15397 8.196 9.08597 8.56 9.08597 8.976V9.048C9.08597 9.752 9.24997 10.284 9.57797 10.644C9.91397 10.996 10.398 11.172 11.03 11.172C11.27 11.172 11.522 11.14 11.786 11.076C12.058 11.012 12.314 10.904 12.554 10.752C12.69 10.672 12.81 10.636 12.914 10.644C13.026 10.652 13.114 10.688 13.178 10.752C13.25 10.816 13.294 10.896 13.31 10.992C13.326 11.088 13.31 11.188 13.262 11.292C13.214 11.388 13.13 11.476 13.01 11.556C12.738 11.74 12.422 11.88 12.062 11.976C11.702 12.064 11.354 12.108 11.018 12.108ZM15.3273 12.084C15.1273 12.084 14.9753 12.032 14.8713 11.928C14.7673 11.816 14.7153 11.664 14.7153 11.472V6.672C14.7153 6.472 14.7673 6.32 14.8713 6.216C14.9753 6.112 15.1193 6.06 15.3033 6.06C15.4953 6.06 15.6393 6.112 15.7353 6.216C15.8393 6.32 15.8913 6.472 15.8913 6.672V7.548H15.7713C15.8993 7.068 16.1353 6.704 16.4793 6.456C16.8233 6.208 17.2633 6.064 17.7993 6.024C17.9433 6.016 18.0553 6.052 18.1353 6.132C18.2233 6.212 18.2713 6.336 18.2793 6.504C18.2953 6.672 18.2593 6.808 18.1713 6.912C18.0833 7.008 17.9473 7.064 17.7633 7.08L17.5353 7.104C17.0153 7.152 16.6193 7.316 16.3473 7.596C16.0753 7.876 15.9393 8.26 15.9393 8.748V11.472C15.9393 11.664 15.8873 11.816 15.7833 11.928C15.6873 12.032 15.5353 12.084 15.3273 12.084ZM21.1853 12.108C20.8333 12.108 20.4693 12.068 20.0933 11.988C19.7253 11.908 19.3853 11.772 19.0732 11.58C18.9693 11.508 18.8973 11.428 18.8573 11.34C18.8173 11.252 18.8013 11.164 18.8093 11.076C18.8253 10.98 18.8613 10.9 18.9173 10.836C18.9813 10.764 19.0573 10.72 19.1453 10.704C19.2413 10.688 19.3413 10.708 19.4453 10.764C19.7573 10.94 20.0573 11.064 20.3453 11.136C20.6333 11.2 20.9173 11.232 21.1973 11.232C21.6213 11.232 21.9413 11.156 22.1573 11.004C22.3733 10.852 22.4813 10.648 22.4813 10.392C22.4813 10.184 22.4093 10.024 22.2653 9.912C22.1213 9.792 21.9053 9.7 21.6173 9.636L20.4773 9.408C19.9813 9.304 19.6053 9.12 19.3493 8.856C19.0933 8.592 18.9653 8.256 18.9653 7.848C18.9653 7.48 19.0653 7.16 19.2653 6.888C19.4653 6.616 19.7453 6.408 20.1053 6.264C20.4653 6.112 20.8813 6.036 21.3533 6.036C21.7053 6.036 22.0373 6.08 22.3493 6.168C22.6613 6.256 22.9493 6.388 23.2133 6.564C23.3173 6.62 23.3853 6.696 23.4173 6.792C23.4493 6.88 23.4533 6.968 23.4293 7.056C23.4133 7.144 23.3733 7.224 23.3093 7.296C23.2453 7.36 23.1653 7.4 23.0693 7.416C22.9813 7.424 22.8813 7.4 22.7693 7.344C22.5293 7.192 22.2893 7.084 22.0493 7.02C21.8173 6.956 21.5853 6.924 21.3533 6.924C20.9293 6.924 20.6093 7.004 20.3933 7.164C20.1853 7.316 20.0813 7.524 20.0813 7.788C20.0813 7.988 20.1453 8.152 20.2733 8.28C20.4013 8.408 20.6013 8.5 20.8733 8.556L22.0133 8.784C22.5333 8.888 22.9253 9.064 23.1893 9.312C23.4613 9.56 23.5973 9.896 23.5973 10.32C23.5973 10.872 23.3773 11.308 22.9373 11.628C22.4973 11.948 21.9133 12.108 21.1853 12.108ZM27.4898 12.108C26.8978 12.108 26.3858 11.984 25.9538 11.736C25.5298 11.488 25.1978 11.136 24.9578 10.68C24.7178 10.224 24.5978 9.688 24.5978 9.072C24.5978 8.6 24.6658 8.18 24.8018 7.812C24.9378 7.444 25.1298 7.128 25.3778 6.864C25.6338 6.592 25.9378 6.388 26.2898 6.252C26.6498 6.108 27.0498 6.036 27.4898 6.036C28.0738 6.036 28.5778 6.16 29.0018 6.408C29.4338 6.656 29.7698 7.008 30.0098 7.464C30.2498 7.912 30.3698 8.448 30.3698 9.072C30.3698 9.536 30.3018 9.956 30.1658 10.332C30.0298 10.708 29.8338 11.028 29.5778 11.292C29.3298 11.556 29.0258 11.76 28.6658 11.904C28.3138 12.04 27.9218 12.108 27.4898 12.108ZM27.4898 11.172C27.8178 11.172 28.1058 11.092 28.3538 10.932C28.6018 10.772 28.7938 10.536 28.9298 10.224C29.0738 9.912 29.1458 9.528 29.1458 9.072C29.1458 8.384 28.9938 7.864 28.6898 7.512C28.3858 7.16 27.9858 6.984 27.4898 6.984C27.1538 6.984 26.8618 7.064 26.6138 7.224C26.3658 7.376 26.1698 7.608 26.0258 7.92C25.8898 8.232 25.8218 8.616 25.8218 9.072C25.8218 9.752 25.9738 10.272 26.2778 10.632C26.5818 10.992 26.9858 11.172 27.4898 11.172ZM32.3309 12.084C32.1389 12.084 31.9909 12.032 31.8869 11.928C31.7829 11.816 31.7309 11.664 31.7309 11.472V6.672C31.7309 6.472 31.7829 6.32 31.8869 6.216C31.9909 6.112 32.1349 6.06 32.3189 6.06C32.5109 6.06 32.6549 6.112 32.7509 6.216C32.8549 6.32 32.9069 6.472 32.9069 6.672V7.608L32.7749 7.392C32.9509 6.944 33.2269 6.608 33.6029 6.384C33.9789 6.152 34.4109 6.036 34.8989 6.036C35.3629 6.036 35.7469 6.124 36.0509 6.3C36.3629 6.468 36.5949 6.728 36.7469 7.08C36.8989 7.424 36.9749 7.86 36.9749 8.388V11.472C36.9749 11.664 36.9229 11.816 36.8189 11.928C36.7149 12.032 36.5669 12.084 36.3749 12.084C36.1749 12.084 36.0229 12.032 35.9189 11.928C35.8149 11.816 35.7629 11.664 35.7629 11.472V8.46C35.7629 7.956 35.6629 7.588 35.4629 7.356C35.2709 7.124 34.9669 7.008 34.5509 7.008C34.0629 7.008 33.6709 7.16 33.3749 7.464C33.0869 7.768 32.9429 8.176 32.9429 8.688V11.472C32.9429 11.88 32.7389 12.084 32.3309 12.084ZM40.517 12.108C40.109 12.108 39.741 12.028 39.413 11.868C39.093 11.708 38.841 11.492 38.657 11.22C38.473 10.948 38.381 10.64 38.381 10.296C38.381 9.864 38.489 9.524 38.705 9.276C38.929 9.02 39.293 8.84 39.797 8.736C40.309 8.624 40.997 8.568 41.861 8.568H42.425V9.312H41.873C41.297 9.312 40.841 9.34 40.505 9.396C40.169 9.452 39.929 9.548 39.785 9.684C39.649 9.812 39.581 9.992 39.581 10.224C39.581 10.528 39.685 10.776 39.893 10.968C40.101 11.152 40.389 11.244 40.757 11.244C41.053 11.244 41.313 11.176 41.537 11.04C41.761 10.896 41.937 10.704 42.065 10.464C42.201 10.224 42.269 9.948 42.269 9.636V8.256C42.269 7.8 42.173 7.472 41.981 7.272C41.789 7.072 41.473 6.972 41.033 6.972C40.777 6.972 40.509 7.004 40.229 7.068C39.957 7.132 39.673 7.24 39.377 7.392C39.241 7.456 39.125 7.476 39.029 7.452C38.933 7.428 38.857 7.376 38.801 7.296C38.745 7.208 38.713 7.116 38.705 7.02C38.705 6.916 38.729 6.816 38.777 6.72C38.833 6.624 38.925 6.552 39.053 6.504C39.405 6.336 39.753 6.216 40.097 6.144C40.441 6.072 40.765 6.036 41.069 6.036C41.605 6.036 42.045 6.12 42.389 6.288C42.741 6.456 43.001 6.712 43.169 7.056C43.337 7.4 43.421 7.844 43.421 8.388V11.472C43.421 11.664 43.373 11.816 43.277 11.928C43.181 12.032 43.041 12.084 42.857 12.084C42.681 12.084 42.541 12.032 42.437 11.928C42.333 11.816 42.281 11.664 42.281 11.472V10.692H42.389C42.325 10.988 42.205 11.244 42.029 11.46C41.861 11.668 41.649 11.828 41.393 11.94C41.137 12.052 40.845 12.108 40.517 12.108ZM46.9743 12.108C46.3503 12.108 45.8783 11.928 45.5583 11.568C45.2463 11.2 45.0903 10.672 45.0903 9.984V4.068C45.0903 3.868 45.1423 3.716 45.2463 3.612C45.3503 3.508 45.4983 3.456 45.6903 3.456C45.8823 3.456 46.0303 3.508 46.1343 3.612C46.2463 3.716 46.3023 3.868 46.3023 4.068V9.912C46.3023 10.312 46.3823 10.612 46.5423 10.812C46.7103 11.004 46.9503 11.1 47.2623 11.1C47.3343 11.1 47.3983 11.1 47.4543 11.1C47.5103 11.092 47.5663 11.084 47.6223 11.076C47.7183 11.068 47.7863 11.096 47.8263 11.16C47.8663 11.216 47.8863 11.336 47.8863 11.52C47.8863 11.688 47.8503 11.82 47.7783 11.916C47.7063 12.004 47.5903 12.06 47.4303 12.084C47.3583 12.092 47.2823 12.096 47.2023 12.096C47.1223 12.104 47.0463 12.108 46.9743 12.108ZM52.7263 12C52.5103 12 52.3423 11.944 52.2223 11.832C52.1103 11.712 52.0543 11.544 52.0543 11.328V4.212C52.0543 3.996 52.1103 3.832 52.2223 3.72C52.3423 3.6 52.5103 3.54 52.7263 3.54H55.0423C56.4343 3.54 57.5063 3.904 58.2583 4.632C59.0183 5.352 59.3983 6.396 59.3983 7.764C59.3983 8.444 59.3023 9.048 59.1103 9.576C58.9183 10.104 58.6343 10.548 58.2583 10.908C57.8903 11.26 57.4383 11.532 56.9023 11.724C56.3663 11.908 55.7463 12 55.0423 12H52.7263ZM53.3023 10.956H54.9703C55.4983 10.956 55.9543 10.892 56.3383 10.764C56.7303 10.628 57.0583 10.428 57.3223 10.164C57.5863 9.9 57.7823 9.568 57.9103 9.168C58.0383 8.768 58.1023 8.3 58.1023 7.764C58.1023 6.7 57.8383 5.904 57.3103 5.376C56.7903 4.848 56.0103 4.584 54.9703 4.584H53.3023V10.956ZM63.682 12.108C63.042 12.108 62.49 11.988 62.026 11.748C61.57 11.5 61.214 11.152 60.958 10.704C60.71 10.248 60.586 9.708 60.586 9.084C60.586 8.476 60.71 7.944 60.958 7.488C61.206 7.032 61.546 6.676 61.978 6.42C62.41 6.164 62.902 6.036 63.454 6.036C63.862 6.036 64.226 6.104 64.546 6.24C64.866 6.368 65.138 6.56 65.362 6.816C65.594 7.064 65.766 7.368 65.878 7.728C65.998 8.088 66.058 8.492 66.058 8.94C66.058 9.076 66.018 9.18 65.938 9.252C65.858 9.316 65.738 9.348 65.578 9.348H61.546V8.604H65.242L65.038 8.772C65.038 8.372 64.978 8.032 64.858 7.752C64.746 7.472 64.574 7.26 64.342 7.116C64.118 6.964 63.838 6.888 63.502 6.888C63.126 6.888 62.806 6.976 62.542 7.152C62.286 7.328 62.09 7.572 61.954 7.884C61.818 8.196 61.75 8.56 61.75 8.976V9.048C61.75 9.752 61.914 10.284 62.242 10.644C62.578 10.996 63.062 11.172 63.694 11.172C63.934 11.172 64.186 11.14 64.45 11.076C64.722 11.012 64.978 10.904 65.218 10.752C65.354 10.672 65.474 10.636 65.578 10.644C65.69 10.652 65.778 10.688 65.842 10.752C65.914 10.816 65.958 10.896 65.974 10.992C65.99 11.088 65.974 11.188 65.926 11.292C65.878 11.388 65.794 11.476 65.674 11.556C65.402 11.74 65.086 11.88 64.726 11.976C64.366 12.064 64.018 12.108 63.682 12.108ZM69.8636 12.108C69.3836 12.108 68.9796 12.024 68.6516 11.856C68.3236 11.688 68.0796 11.44 67.9196 11.112C67.7596 10.784 67.6796 10.384 67.6796 9.912V7.08H66.9596C66.7996 7.08 66.6756 7.04 66.5876 6.96C66.4996 6.872 66.4556 6.756 66.4556 6.612C66.4556 6.46 66.4996 6.344 66.5876 6.264C66.6756 6.184 66.7996 6.144 66.9596 6.144H67.6796V4.908C67.6796 4.708 67.7316 4.556 67.8356 4.452C67.9476 4.348 68.0996 4.296 68.2916 4.296C68.4836 4.296 68.6316 4.348 68.7356 4.452C68.8396 4.556 68.8916 4.708 68.8916 4.908V6.144H70.2956C70.4556 6.144 70.5796 6.184 70.6676 6.264C70.7556 6.344 70.7996 6.46 70.7996 6.612C70.7996 6.756 70.7556 6.872 70.6676 6.96C70.5796 7.04 70.4556 7.08 70.2956 7.08H68.8916V9.816C68.8916 10.24 68.9796 10.56 69.1556 10.776C69.3396 10.992 69.6356 11.1 70.0436 11.1C70.1876 11.1 70.3116 11.088 70.4156 11.064C70.5276 11.032 70.6196 11.012 70.6916 11.004C70.7796 11.004 70.8516 11.036 70.9076 11.1C70.9636 11.156 70.9916 11.268 70.9916 11.436C70.9916 11.556 70.9676 11.668 70.9196 11.772C70.8796 11.876 70.8036 11.944 70.6916 11.976C70.5956 12.008 70.4636 12.036 70.2956 12.06C70.1356 12.092 69.9916 12.108 69.8636 12.108ZM73.6224 12.108C73.2144 12.108 72.8464 12.028 72.5184 11.868C72.1984 11.708 71.9464 11.492 71.7624 11.22C71.5784 10.948 71.4864 10.64 71.4864 10.296C71.4864 9.864 71.5944 9.524 71.8104 9.276C72.0344 9.02 72.3984 8.84 72.9024 8.736C73.4144 8.624 74.1024 8.568 74.9664 8.568H75.5304V9.312H74.9784C74.4024 9.312 73.9464 9.34 73.6104 9.396C73.2744 9.452 73.0344 9.548 72.8904 9.684C72.7544 9.812 72.6864 9.992 72.6864 10.224C72.6864 10.528 72.7904 10.776 72.9984 10.968C73.2064 11.152 73.4944 11.244 73.8624 11.244C74.1584 11.244 74.4184 11.176 74.6424 11.04C74.8664 10.896 75.0424 10.704 75.1704 10.464C75.3064 10.224 75.3744 9.948 75.3744 9.636V8.256C75.3744 7.8 75.2784 7.472 75.0864 7.272C74.8944 7.072 74.5784 6.972 74.1384 6.972C73.8824 6.972 73.6144 7.004 73.3344 7.068C73.0624 7.132 72.7784 7.24 72.4824 7.392C72.3464 7.456 72.2304 7.476 72.1344 7.452C72.0384 7.428 71.9624 7.376 71.9064 7.296C71.8504 7.208 71.8184 7.116 71.8104 7.02C71.8104 6.916 71.8344 6.816 71.8824 6.72C71.9384 6.624 72.0304 6.552 72.1584 6.504C72.5104 6.336 72.8584 6.216 73.2024 6.144C73.5464 6.072 73.8704 6.036 74.1744 6.036C74.7104 6.036 75.1504 6.12 75.4944 6.288C75.8464 6.456 76.1064 6.712 76.2744 7.056C76.4424 7.4 76.5264 7.844 76.5264 8.388V11.472C76.5264 11.664 76.4784 11.816 76.3824 11.928C76.2864 12.032 76.1464 12.084 75.9624 12.084C75.7864 12.084 75.6464 12.032 75.5424 11.928C75.4384 11.816 75.3864 11.664 75.3864 11.472V10.692H75.4944C75.4304 10.988 75.3104 11.244 75.1344 11.46C74.9664 11.668 74.7544 11.828 74.4984 11.94C74.2424 12.052 73.9504 12.108 73.6224 12.108ZM78.7958 12.072C78.6038 12.072 78.4558 12.016 78.3518 11.904C78.2478 11.784 78.1958 11.62 78.1958 11.412V6.732C78.1958 6.524 78.2478 6.364 78.3518 6.252C78.4558 6.14 78.6038 6.084 78.7958 6.084C78.9878 6.084 79.1358 6.14 79.2398 6.252C79.3518 6.364 79.4078 6.524 79.4078 6.732V11.412C79.4078 11.62 79.3558 11.784 79.2518 11.904C79.1478 12.016 78.9958 12.072 78.7958 12.072ZM78.7958 4.836C78.5558 4.836 78.3678 4.776 78.2318 4.656C78.1038 4.536 78.0398 4.368 78.0398 4.152C78.0398 3.928 78.1038 3.76 78.2318 3.648C78.3678 3.528 78.5558 3.468 78.7958 3.468C79.0358 3.468 79.2198 3.528 79.3478 3.648C79.4838 3.76 79.5518 3.928 79.5518 4.152C79.5518 4.368 79.4838 4.536 79.3478 4.656C79.2198 4.776 79.0358 4.836 78.7958 4.836ZM82.9977 12.108C82.3737 12.108 81.9017 11.928 81.5817 11.568C81.2697 11.2 81.1137 10.672 81.1137 9.984V4.068C81.1137 3.868 81.1657 3.716 81.2697 3.612C81.3737 3.508 81.5217 3.456 81.7137 3.456C81.9057 3.456 82.0537 3.508 82.1577 3.612C82.2697 3.716 82.3257 3.868 82.3257 4.068V9.912C82.3257 10.312 82.4057 10.612 82.5657 10.812C82.7337 11.004 82.9737 11.1 83.2857 11.1C83.3577 11.1 83.4217 11.1 83.4777 11.1C83.5337 11.092 83.5897 11.084 83.6457 11.076C83.7417 11.068 83.8097 11.096 83.8497 11.16C83.8897 11.216 83.9097 11.336 83.9097 11.52C83.9097 11.688 83.8737 11.82 83.8017 11.916C83.7297 12.004 83.6137 12.06 83.4537 12.084C83.3817 12.092 83.3057 12.096 83.2257 12.096C83.1457 12.104 83.0697 12.108 82.9977 12.108ZM86.7751 12.108C86.4231 12.108 86.0591 12.068 85.6831 11.988C85.3151 11.908 84.9751 11.772 84.6631 11.58C84.5591 11.508 84.4871 11.428 84.4471 11.34C84.4071 11.252 84.3911 11.164 84.3991 11.076C84.4151 10.98 84.4511 10.9 84.5071 10.836C84.5711 10.764 84.6471 10.72 84.7351 10.704C84.8311 10.688 84.9311 10.708 85.0351 10.764C85.3471 10.94 85.6471 11.064 85.9351 11.136C86.2231 11.2 86.5071 11.232 86.7871 11.232C87.2111 11.232 87.5311 11.156 87.7471 11.004C87.9631 10.852 88.0711 10.648 88.0711 10.392C88.0711 10.184 87.9991 10.024 87.8551 9.912C87.7111 9.792 87.4951 9.7 87.2071 9.636L86.0671 9.408C85.5711 9.304 85.1951 9.12 84.9391 8.856C84.6831 8.592 84.5551 8.256 84.5551 7.848C84.5551 7.48 84.6551 7.16 84.8551 6.888C85.0551 6.616 85.3351 6.408 85.6951 6.264C86.0551 6.112 86.4711 6.036 86.9431 6.036C87.2951 6.036 87.6271 6.08 87.9391 6.168C88.2511 6.256 88.5391 6.388 88.8031 6.564C88.9071 6.62 88.9751 6.696 89.0071 6.792C89.0391 6.88 89.0431 6.968 89.0191 7.056C89.0031 7.144 88.9631 7.224 88.8991 7.296C88.8351 7.36 88.7551 7.4 88.6591 7.416C88.5711 7.424 88.4711 7.4 88.3591 7.344C88.1191 7.192 87.8791 7.084 87.6391 7.02C87.4071 6.956 87.1751 6.924 86.9431 6.924C86.5191 6.924 86.1991 7.004 85.9831 7.164C85.7751 7.316 85.6711 7.524 85.6711 7.788C85.6711 7.988 85.7351 8.152 85.8631 8.28C85.9911 8.408 86.1911 8.5 86.4631 8.556L87.6031 8.784C88.1231 8.888 88.5151 9.064 88.7791 9.312C89.0511 9.56 89.1871 9.896 89.1871 10.32C89.1871 10.872 88.9671 11.308 88.5271 11.628C88.0871 11.948 87.5031 12.108 86.7751 12.108Z" fill="#64728C"/>
</svg>
