<svg width="310" height="75" viewBox="0 0 310 75" fill="none" xmlns="http://www.w3.org/2000/svg">
<g filter="url(#filter0_d_558_5015)">
<rect x="5" y="21" width="300" height="45" rx="12" fill="white" shape-rendering="crispEdges"/>
<rect x="5.5" y="21.5" width="299" height="44" rx="11.5" stroke="#057FF0" shape-rendering="crispEdges"/>
<path d="M15.864 47.584C15.736 47.584 15.632 47.556 15.552 47.5C15.48 47.436 15.436 47.356 15.42 47.26C15.412 47.156 15.436 47.04 15.492 46.912L18.792 39.4C18.864 39.24 18.948 39.128 19.044 39.064C19.148 38.992 19.26 38.956 19.38 38.956C19.5 38.956 19.608 38.992 19.704 39.064C19.808 39.128 19.892 39.24 19.956 39.4L23.268 46.912C23.332 47.04 23.356 47.156 23.34 47.26C23.332 47.364 23.292 47.444 23.22 47.5C23.148 47.556 23.048 47.584 22.92 47.584C22.776 47.584 22.66 47.548 22.572 47.476C22.484 47.396 22.412 47.284 22.356 47.14L21.468 45.088L21.948 45.34H16.788L17.28 45.088L16.404 47.14C16.332 47.292 16.256 47.404 16.176 47.476C16.096 47.548 15.992 47.584 15.864 47.584ZM19.368 40.192L17.436 44.74L17.148 44.512H21.588L21.324 44.74L19.392 40.192H19.368ZM27.1756 49.768C26.7516 49.768 26.3356 49.716 25.9276 49.612C25.5276 49.516 25.1636 49.36 24.8356 49.144C24.7396 49.088 24.6756 49.02 24.6436 48.94C24.6196 48.86 24.6156 48.78 24.6316 48.7C24.6476 48.628 24.6836 48.56 24.7396 48.496C24.7956 48.44 24.8596 48.404 24.9316 48.388C25.0116 48.372 25.0916 48.384 25.1716 48.424C25.5236 48.64 25.8596 48.788 26.1796 48.868C26.4996 48.948 26.8156 48.988 27.1276 48.988C27.6956 48.988 28.1236 48.836 28.4116 48.532C28.7076 48.228 28.8556 47.788 28.8556 47.212V45.856H28.9756C28.8556 46.32 28.5996 46.688 28.2076 46.96C27.8236 47.232 27.3716 47.368 26.8516 47.368C26.3156 47.368 25.8516 47.248 25.4596 47.008C25.0676 46.76 24.7636 46.416 24.5476 45.976C24.3396 45.536 24.2356 45.028 24.2356 44.452C24.2356 44.02 24.2956 43.628 24.4156 43.276C24.5356 42.916 24.7076 42.612 24.9316 42.364C25.1636 42.108 25.4396 41.912 25.7596 41.776C26.0876 41.632 26.4516 41.56 26.8516 41.56C27.3796 41.56 27.8356 41.696 28.2196 41.968C28.6036 42.232 28.8516 42.592 28.9636 43.048L28.8436 43.192V42.076C28.8436 41.916 28.8836 41.796 28.9636 41.716C29.0516 41.628 29.1716 41.584 29.3236 41.584C29.4836 41.584 29.6036 41.628 29.6836 41.716C29.7636 41.796 29.8036 41.916 29.8036 42.076V47.08C29.8036 47.968 29.5796 48.636 29.1316 49.084C28.6916 49.54 28.0396 49.768 27.1756 49.768ZM27.0316 46.576C27.4076 46.576 27.7316 46.492 28.0036 46.324C28.2756 46.148 28.4836 45.9 28.6276 45.58C28.7796 45.26 28.8556 44.884 28.8556 44.452C28.8556 43.804 28.6916 43.292 28.3636 42.916C28.0356 42.532 27.5916 42.34 27.0316 42.34C26.6636 42.34 26.3436 42.428 26.0716 42.604C25.7996 42.772 25.5876 43.016 25.4356 43.336C25.2916 43.648 25.2196 44.02 25.2196 44.452C25.2196 45.1 25.3836 45.616 25.7116 46C26.0396 46.384 26.4796 46.576 27.0316 46.576ZM34.2548 47.608C33.6388 47.608 33.1068 47.488 32.6588 47.248C32.2188 47 31.8748 46.652 31.6268 46.204C31.3868 45.756 31.2668 45.22 31.2668 44.596C31.2668 43.988 31.3868 43.46 31.6268 43.012C31.8668 42.556 32.1948 42.2 32.6108 41.944C33.0348 41.688 33.5228 41.56 34.0748 41.56C34.4668 41.56 34.8188 41.628 35.1308 41.764C35.4428 41.892 35.7068 42.08 35.9228 42.328C36.1468 42.576 36.3148 42.876 36.4268 43.228C36.5468 43.58 36.6068 43.976 36.6068 44.416C36.6068 44.544 36.5708 44.64 36.4988 44.704C36.4268 44.76 36.3228 44.788 36.1868 44.788H32.0108V44.152H35.9588L35.7668 44.308C35.7668 43.876 35.7028 43.512 35.5748 43.216C35.4468 42.912 35.2588 42.68 35.0108 42.52C34.7708 42.36 34.4668 42.28 34.0988 42.28C33.6908 42.28 33.3428 42.376 33.0548 42.568C32.7748 42.752 32.5628 43.012 32.4188 43.348C32.2748 43.676 32.2028 44.06 32.2028 44.5V44.572C32.2028 45.308 32.3788 45.868 32.7308 46.252C33.0908 46.636 33.5988 46.828 34.2548 46.828C34.5268 46.828 34.7948 46.792 35.0588 46.72C35.3308 46.648 35.5948 46.528 35.8508 46.36C35.9628 46.288 36.0628 46.256 36.1508 46.264C36.2468 46.264 36.3228 46.292 36.3788 46.348C36.4348 46.396 36.4708 46.46 36.4868 46.54C36.5108 46.612 36.5028 46.692 36.4628 46.78C36.4308 46.868 36.3628 46.944 36.2588 47.008C35.9948 47.2 35.6828 47.348 35.3228 47.452C34.9628 47.556 34.6068 47.608 34.2548 47.608ZM38.5896 48.64C38.5096 48.744 38.4256 48.804 38.3376 48.82C38.2496 48.836 38.1736 48.82 38.1096 48.772C38.0456 48.724 38.0096 48.656 38.0016 48.568C38.0016 48.48 38.0416 48.384 38.1216 48.28C38.2496 48.112 38.3376 47.94 38.3856 47.764C38.4336 47.596 38.4576 47.44 38.4576 47.296L38.5056 47.548C38.2976 47.548 38.1296 47.488 38.0016 47.368C37.8816 47.24 37.8216 47.08 37.8216 46.888C37.8216 46.696 37.8776 46.54 37.9896 46.42C38.1096 46.292 38.2656 46.228 38.4576 46.228C38.6656 46.228 38.8296 46.3 38.9496 46.444C39.0696 46.58 39.1296 46.78 39.1296 47.044C39.1296 47.212 39.1136 47.384 39.0816 47.56C39.0496 47.744 38.9936 47.928 38.9136 48.112C38.8336 48.296 38.7256 48.472 38.5896 48.64ZM44.5098 47.5C44.3338 47.5 44.1978 47.456 44.1018 47.368C44.0138 47.272 43.9698 47.136 43.9698 46.96V39.58C43.9698 39.404 44.0138 39.272 44.1018 39.184C44.1978 39.088 44.3338 39.04 44.5098 39.04H48.9738C49.1098 39.04 49.2138 39.076 49.2858 39.148C49.3578 39.22 49.3938 39.32 49.3938 39.448C49.3938 39.584 49.3578 39.688 49.2858 39.76C49.2138 39.832 49.1098 39.868 48.9738 39.868H44.9298V42.796H48.7218C48.8578 42.796 48.9618 42.832 49.0338 42.904C49.1058 42.968 49.1418 43.068 49.1418 43.204C49.1418 43.34 49.1058 43.444 49.0338 43.516C48.9618 43.588 48.8578 43.624 48.7218 43.624H44.9298V46.672H48.9738C49.1098 46.672 49.2138 46.708 49.2858 46.78C49.3578 46.852 49.3938 46.952 49.3938 47.08C49.3938 47.216 49.3578 47.32 49.2858 47.392C49.2138 47.464 49.1098 47.5 48.9738 47.5H44.5098ZM51.3379 47.584C51.1779 47.584 51.0579 47.54 50.9779 47.452C50.8979 47.364 50.8579 47.24 50.8579 47.08V42.076C50.8579 41.916 50.8979 41.796 50.9779 41.716C51.0579 41.628 51.1739 41.584 51.3259 41.584C51.4779 41.584 51.5939 41.628 51.6739 41.716C51.7619 41.796 51.8059 41.916 51.8059 42.076V43.132L51.6739 42.964C51.8259 42.516 52.0699 42.172 52.4059 41.932C52.7499 41.684 53.1579 41.56 53.6299 41.56C54.1259 41.56 54.5259 41.68 54.8299 41.92C55.1419 42.152 55.3499 42.516 55.4539 43.012H55.2739C55.4179 42.564 55.6739 42.212 56.0419 41.956C56.4179 41.692 56.8539 41.56 57.3499 41.56C57.7899 41.56 58.1499 41.644 58.4299 41.812C58.7179 41.98 58.9339 42.236 59.0779 42.58C59.2219 42.916 59.2939 43.344 59.2939 43.864V47.08C59.2939 47.24 59.2499 47.364 59.1619 47.452C59.0819 47.54 58.9619 47.584 58.8019 47.584C58.6499 47.584 58.5299 47.54 58.4419 47.452C58.3619 47.364 58.3219 47.24 58.3219 47.08V43.912C58.3219 43.376 58.2299 42.984 58.0459 42.736C57.8619 42.48 57.5499 42.352 57.1099 42.352C56.6299 42.352 56.2499 42.52 55.9699 42.856C55.6979 43.184 55.5619 43.632 55.5619 44.2V47.08C55.5619 47.24 55.5179 47.364 55.4299 47.452C55.3499 47.54 55.2299 47.584 55.0699 47.584C54.9179 47.584 54.7979 47.54 54.7099 47.452C54.6299 47.364 54.5899 47.24 54.5899 47.08V43.912C54.5899 43.376 54.4939 42.984 54.3019 42.736C54.1179 42.48 53.8099 42.352 53.3779 42.352C52.8979 42.352 52.5179 42.52 52.2379 42.856C51.9659 43.184 51.8299 43.632 51.8299 44.2V47.08C51.8299 47.416 51.6659 47.584 51.3379 47.584ZM61.5912 49.744C61.4312 49.744 61.3112 49.7 61.2312 49.612C61.1512 49.532 61.1112 49.412 61.1112 49.252V42.076C61.1112 41.916 61.1512 41.796 61.2312 41.716C61.3112 41.628 61.4272 41.584 61.5792 41.584C61.7392 41.584 61.8592 41.628 61.9392 41.716C62.0272 41.796 62.0712 41.916 62.0712 42.076V43.216L61.9392 43.048C62.0672 42.592 62.3192 42.232 62.6952 41.968C63.0792 41.696 63.5352 41.56 64.0632 41.56C64.5832 41.56 65.0352 41.684 65.4192 41.932C65.8112 42.172 66.1112 42.52 66.3192 42.976C66.5352 43.424 66.6432 43.96 66.6432 44.584C66.6432 45.2 66.5352 45.736 66.3192 46.192C66.1112 46.64 65.8152 46.988 65.4312 47.236C65.0472 47.484 64.5912 47.608 64.0632 47.608C63.5352 47.608 63.0832 47.476 62.7072 47.212C62.3312 46.94 62.0752 46.58 61.9392 46.132H62.0832V49.252C62.0832 49.412 62.0392 49.532 61.9512 49.612C61.8632 49.7 61.7432 49.744 61.5912 49.744ZM63.8592 46.828C64.2272 46.828 64.5432 46.74 64.8072 46.564C65.0792 46.388 65.2872 46.132 65.4312 45.796C65.5832 45.46 65.6592 45.056 65.6592 44.584C65.6592 43.856 65.4952 43.3 65.1672 42.916C64.8472 42.532 64.4112 42.34 63.8592 42.34C63.4992 42.34 63.1832 42.428 62.9112 42.604C62.6392 42.772 62.4272 43.024 62.2752 43.36C62.1312 43.688 62.0592 44.096 62.0592 44.584C62.0592 45.304 62.2232 45.86 62.5512 46.252C62.8792 46.636 63.3152 46.828 63.8592 46.828ZM69.8833 47.608C69.3073 47.608 68.8673 47.432 68.5633 47.08C68.2593 46.728 68.1073 46.224 68.1073 45.568V39.448C68.1073 39.288 68.1473 39.168 68.2273 39.088C68.3073 39 68.4273 38.956 68.5873 38.956C68.7393 38.956 68.8593 39 68.9473 39.088C69.0353 39.168 69.0793 39.288 69.0793 39.448V45.496C69.0793 45.928 69.1633 46.252 69.3313 46.468C69.5073 46.676 69.7633 46.78 70.0993 46.78C70.1713 46.78 70.2353 46.776 70.2913 46.768C70.3473 46.76 70.4033 46.756 70.4593 46.756C70.5473 46.748 70.6073 46.768 70.6393 46.816C70.6793 46.864 70.6993 46.96 70.6993 47.104C70.6993 47.248 70.6673 47.356 70.6033 47.428C70.5393 47.5 70.4353 47.548 70.2913 47.572C70.2273 47.58 70.1593 47.588 70.0873 47.596C70.0153 47.604 69.9473 47.608 69.8833 47.608ZM74.0235 47.608C73.4555 47.608 72.9635 47.484 72.5475 47.236C72.1315 46.988 71.8075 46.64 71.5755 46.192C71.3515 45.736 71.2395 45.2 71.2395 44.584C71.2395 44.12 71.3035 43.704 71.4315 43.336C71.5595 42.96 71.7475 42.64 71.9955 42.376C72.2435 42.112 72.5355 41.912 72.8715 41.776C73.2155 41.632 73.5995 41.56 74.0235 41.56C74.5915 41.56 75.0835 41.684 75.4995 41.932C75.9155 42.18 76.2355 42.532 76.4595 42.988C76.6915 43.436 76.8075 43.968 76.8075 44.584C76.8075 45.048 76.7435 45.464 76.6155 45.832C76.4875 46.2 76.2995 46.52 76.0515 46.792C75.8035 47.056 75.5075 47.26 75.1635 47.404C74.8275 47.54 74.4475 47.608 74.0235 47.608ZM74.0235 46.828C74.3835 46.828 74.6995 46.74 74.9715 46.564C75.2435 46.388 75.4515 46.132 75.5955 45.796C75.7475 45.46 75.8235 45.056 75.8235 44.584C75.8235 43.856 75.6595 43.3 75.3315 42.916C75.0115 42.532 74.5755 42.34 74.0235 42.34C73.6555 42.34 73.3355 42.428 73.0635 42.604C72.7995 42.772 72.5915 43.024 72.4395 43.36C72.2955 43.688 72.2235 44.096 72.2235 44.584C72.2235 45.304 72.3875 45.86 72.7155 46.252C73.0435 46.636 73.4795 46.828 74.0235 46.828ZM79.4814 49.744C79.3614 49.744 79.2654 49.712 79.1934 49.648C79.1214 49.584 79.0774 49.496 79.0614 49.384C79.0534 49.28 79.0734 49.172 79.1214 49.06L79.9494 47.2V47.62L77.6454 42.268C77.5974 42.148 77.5814 42.036 77.5974 41.932C77.6134 41.828 77.6614 41.744 77.7414 41.68C77.8214 41.616 77.9334 41.584 78.0774 41.584C78.2054 41.584 78.3054 41.612 78.3774 41.668C78.4494 41.724 78.5134 41.824 78.5694 41.968L80.5374 46.792H80.2134L82.2054 41.968C82.2694 41.824 82.3374 41.724 82.4094 41.668C82.4814 41.612 82.5854 41.584 82.7214 41.584C82.8494 41.584 82.9454 41.616 83.0094 41.68C83.0814 41.744 83.1214 41.828 83.1294 41.932C83.1454 42.028 83.1294 42.136 83.0814 42.256L80.0094 49.36C79.9454 49.504 79.8734 49.604 79.7934 49.66C79.7214 49.716 79.6174 49.744 79.4814 49.744ZM86.8955 47.608C86.2795 47.608 85.7475 47.488 85.2995 47.248C84.8595 47 84.5155 46.652 84.2675 46.204C84.0275 45.756 83.9075 45.22 83.9075 44.596C83.9075 43.988 84.0275 43.46 84.2675 43.012C84.5075 42.556 84.8355 42.2 85.2515 41.944C85.6755 41.688 86.1635 41.56 86.7155 41.56C87.1075 41.56 87.4595 41.628 87.7715 41.764C88.0835 41.892 88.3475 42.08 88.5635 42.328C88.7875 42.576 88.9555 42.876 89.0675 43.228C89.1875 43.58 89.2475 43.976 89.2475 44.416C89.2475 44.544 89.2115 44.64 89.1395 44.704C89.0675 44.76 88.9635 44.788 88.8275 44.788H84.6515V44.152H88.5995L88.4075 44.308C88.4075 43.876 88.3435 43.512 88.2155 43.216C88.0875 42.912 87.8995 42.68 87.6515 42.52C87.4115 42.36 87.1075 42.28 86.7395 42.28C86.3315 42.28 85.9835 42.376 85.6955 42.568C85.4155 42.752 85.2035 43.012 85.0595 43.348C84.9155 43.676 84.8435 44.06 84.8435 44.5V44.572C84.8435 45.308 85.0195 45.868 85.3715 46.252C85.7315 46.636 86.2395 46.828 86.8955 46.828C87.1675 46.828 87.4355 46.792 87.6995 46.72C87.9715 46.648 88.2355 46.528 88.4915 46.36C88.6035 46.288 88.7035 46.256 88.7915 46.264C88.8875 46.264 88.9635 46.292 89.0195 46.348C89.0755 46.396 89.1115 46.46 89.1275 46.54C89.1515 46.612 89.1435 46.692 89.1035 46.78C89.0715 46.868 89.0035 46.944 88.8995 47.008C88.6355 47.2 88.3235 47.348 87.9635 47.452C87.6035 47.556 87.2475 47.608 86.8955 47.608ZM93.2822 47.608C92.6662 47.608 92.1342 47.488 91.6862 47.248C91.2462 47 90.9022 46.652 90.6542 46.204C90.4142 45.756 90.2942 45.22 90.2942 44.596C90.2942 43.988 90.4142 43.46 90.6542 43.012C90.8942 42.556 91.2222 42.2 91.6382 41.944C92.0622 41.688 92.5502 41.56 93.1022 41.56C93.4942 41.56 93.8462 41.628 94.1582 41.764C94.4702 41.892 94.7342 42.08 94.9502 42.328C95.1742 42.576 95.3422 42.876 95.4542 43.228C95.5742 43.58 95.6342 43.976 95.6342 44.416C95.6342 44.544 95.5982 44.64 95.5262 44.704C95.4542 44.76 95.3502 44.788 95.2142 44.788H91.0382V44.152H94.9862L94.7942 44.308C94.7942 43.876 94.7302 43.512 94.6022 43.216C94.4742 42.912 94.2862 42.68 94.0382 42.52C93.7982 42.36 93.4942 42.28 93.1262 42.28C92.7182 42.28 92.3702 42.376 92.0822 42.568C91.8022 42.752 91.5902 43.012 91.4462 43.348C91.3022 43.676 91.2302 44.06 91.2302 44.5V44.572C91.2302 45.308 91.4062 45.868 91.7582 46.252C92.1182 46.636 92.6262 46.828 93.2822 46.828C93.5542 46.828 93.8222 46.792 94.0862 46.72C94.3582 46.648 94.6222 46.528 94.8782 46.36C94.9902 46.288 95.0902 46.256 95.1782 46.264C95.2742 46.264 95.3502 46.292 95.4062 46.348C95.4622 46.396 95.4982 46.46 95.5142 46.54C95.5382 46.612 95.5302 46.692 95.4902 46.78C95.4582 46.868 95.3902 46.944 95.2862 47.008C95.0222 47.2 94.7102 47.348 94.3502 47.452C93.9902 47.556 93.6342 47.608 93.2822 47.608ZM100.735 47.584C100.583 47.584 100.467 47.544 100.387 47.464C100.307 47.376 100.267 47.252 100.267 47.092V39.46C100.267 39.3 100.307 39.176 100.387 39.088C100.467 39 100.571 38.956 100.699 38.956C100.827 38.956 100.919 38.98 100.975 39.028C101.039 39.068 101.111 39.144 101.191 39.256L106.423 46.228H106.135V39.436C106.135 39.284 106.175 39.168 106.255 39.088C106.335 39 106.451 38.956 106.603 38.956C106.747 38.956 106.855 39 106.927 39.088C107.007 39.168 107.047 39.284 107.047 39.436V47.104C107.047 47.256 107.011 47.376 106.939 47.464C106.875 47.544 106.779 47.584 106.651 47.584C106.531 47.584 106.435 47.56 106.363 47.512C106.291 47.464 106.215 47.388 106.135 47.284L100.915 40.312H101.191V47.092C101.191 47.252 101.151 47.376 101.071 47.464C100.991 47.544 100.879 47.584 100.735 47.584ZM110.853 47.608C110.453 47.608 110.093 47.532 109.773 47.38C109.461 47.22 109.213 47.004 109.029 46.732C108.845 46.46 108.753 46.156 108.753 45.82C108.753 45.388 108.861 45.048 109.077 44.8C109.301 44.552 109.665 44.376 110.169 44.272C110.681 44.168 111.377 44.116 112.257 44.116H112.797V44.752H112.269C111.621 44.752 111.109 44.784 110.733 44.848C110.365 44.904 110.105 45.004 109.953 45.148C109.809 45.292 109.737 45.496 109.737 45.76C109.737 46.088 109.849 46.356 110.073 46.564C110.305 46.772 110.617 46.876 111.009 46.876C111.329 46.876 111.609 46.8 111.849 46.648C112.097 46.496 112.289 46.288 112.425 46.024C112.569 45.76 112.641 45.456 112.641 45.112V43.744C112.641 43.248 112.541 42.892 112.341 42.676C112.141 42.452 111.813 42.34 111.357 42.34C111.077 42.34 110.797 42.376 110.517 42.448C110.237 42.52 109.941 42.636 109.629 42.796C109.517 42.852 109.421 42.872 109.341 42.856C109.261 42.832 109.197 42.788 109.149 42.724C109.101 42.66 109.073 42.588 109.065 42.508C109.057 42.42 109.073 42.336 109.113 42.256C109.161 42.176 109.233 42.112 109.329 42.064C109.681 41.888 110.029 41.76 110.373 41.68C110.717 41.6 111.045 41.56 111.357 41.56C111.861 41.56 112.277 41.644 112.605 41.812C112.933 41.972 113.177 42.22 113.337 42.556C113.497 42.884 113.577 43.308 113.577 43.828V47.08C113.577 47.24 113.537 47.364 113.457 47.452C113.385 47.54 113.277 47.584 113.133 47.584C112.981 47.584 112.865 47.54 112.785 47.452C112.705 47.364 112.665 47.24 112.665 47.08V46.144H112.773C112.709 46.448 112.585 46.708 112.401 46.924C112.225 47.14 112.005 47.308 111.741 47.428C111.477 47.548 111.181 47.608 110.853 47.608ZM115.885 47.584C115.725 47.584 115.605 47.54 115.525 47.452C115.445 47.364 115.405 47.24 115.405 47.08V42.076C115.405 41.916 115.445 41.796 115.525 41.716C115.605 41.628 115.721 41.584 115.873 41.584C116.025 41.584 116.141 41.628 116.221 41.716C116.309 41.796 116.353 41.916 116.353 42.076V43.132L116.221 42.964C116.373 42.516 116.617 42.172 116.953 41.932C117.297 41.684 117.705 41.56 118.177 41.56C118.673 41.56 119.073 41.68 119.377 41.92C119.689 42.152 119.897 42.516 120.001 43.012H119.821C119.965 42.564 120.221 42.212 120.589 41.956C120.965 41.692 121.401 41.56 121.897 41.56C122.337 41.56 122.697 41.644 122.977 41.812C123.265 41.98 123.481 42.236 123.625 42.58C123.769 42.916 123.841 43.344 123.841 43.864V47.08C123.841 47.24 123.797 47.364 123.709 47.452C123.629 47.54 123.509 47.584 123.349 47.584C123.197 47.584 123.077 47.54 122.989 47.452C122.909 47.364 122.869 47.24 122.869 47.08V43.912C122.869 43.376 122.777 42.984 122.593 42.736C122.409 42.48 122.097 42.352 121.657 42.352C121.177 42.352 120.797 42.52 120.517 42.856C120.245 43.184 120.109 43.632 120.109 44.2V47.08C120.109 47.24 120.065 47.364 119.977 47.452C119.897 47.54 119.777 47.584 119.617 47.584C119.465 47.584 119.345 47.54 119.257 47.452C119.177 47.364 119.137 47.24 119.137 47.08V43.912C119.137 43.376 119.041 42.984 118.849 42.736C118.665 42.48 118.357 42.352 117.925 42.352C117.445 42.352 117.065 42.52 116.785 42.856C116.513 43.184 116.377 43.632 116.377 44.2V47.08C116.377 47.416 116.213 47.584 115.885 47.584ZM128.286 47.608C127.67 47.608 127.138 47.488 126.69 47.248C126.25 47 125.906 46.652 125.658 46.204C125.418 45.756 125.298 45.22 125.298 44.596C125.298 43.988 125.418 43.46 125.658 43.012C125.898 42.556 126.226 42.2 126.642 41.944C127.066 41.688 127.554 41.56 128.106 41.56C128.498 41.56 128.85 41.628 129.162 41.764C129.474 41.892 129.738 42.08 129.954 42.328C130.178 42.576 130.346 42.876 130.458 43.228C130.578 43.58 130.638 43.976 130.638 44.416C130.638 44.544 130.602 44.64 130.53 44.704C130.458 44.76 130.354 44.788 130.218 44.788H126.042V44.152H129.99L129.798 44.308C129.798 43.876 129.734 43.512 129.606 43.216C129.478 42.912 129.29 42.68 129.042 42.52C128.802 42.36 128.498 42.28 128.13 42.28C127.722 42.28 127.374 42.376 127.086 42.568C126.806 42.752 126.594 43.012 126.45 43.348C126.306 43.676 126.234 44.06 126.234 44.5V44.572C126.234 45.308 126.41 45.868 126.762 46.252C127.122 46.636 127.63 46.828 128.286 46.828C128.558 46.828 128.826 46.792 129.09 46.72C129.362 46.648 129.626 46.528 129.882 46.36C129.994 46.288 130.094 46.256 130.182 46.264C130.278 46.264 130.354 46.292 130.41 46.348C130.466 46.396 130.502 46.46 130.518 46.54C130.542 46.612 130.534 46.692 130.494 46.78C130.462 46.868 130.394 46.944 130.29 47.008C130.026 47.2 129.714 47.348 129.354 47.452C128.994 47.556 128.638 47.608 128.286 47.608Z" fill="#64728C"/>
<rect x="142" y="34.5" width="25" height="18" rx="9" fill="#057FF0"/>
<path d="M150.6 47.116C150.424 47.116 150.288 47.068 150.192 46.972C150.096 46.868 150.048 46.728 150.048 46.552V44.584H148.116C147.948 44.584 147.816 44.54 147.72 44.452C147.624 44.356 147.576 44.224 147.576 44.056C147.576 43.888 147.624 43.76 147.72 43.672C147.816 43.576 147.948 43.528 148.116 43.528H150.048V41.62C150.048 41.444 150.096 41.308 150.192 41.212C150.288 41.116 150.428 41.068 150.612 41.068C150.788 41.068 150.92 41.116 151.008 41.212C151.104 41.308 151.152 41.444 151.152 41.62V43.528H153.084C153.26 43.528 153.392 43.576 153.48 43.672C153.576 43.76 153.624 43.888 153.624 44.056C153.624 44.224 153.576 44.356 153.48 44.452C153.392 44.54 153.26 44.584 153.084 44.584H151.152V46.552C151.152 46.728 151.104 46.868 151.008 46.972C150.92 47.068 150.784 47.116 150.6 47.116ZM157.627 47.62C157.195 47.62 156.747 47.564 156.283 47.452C155.819 47.34 155.415 47.172 155.071 46.948C154.911 46.844 154.803 46.724 154.747 46.588C154.691 46.452 154.675 46.324 154.699 46.204C154.731 46.076 154.791 45.968 154.879 45.88C154.975 45.792 155.091 45.74 155.227 45.724C155.371 45.708 155.527 45.744 155.695 45.832C156.023 46.008 156.339 46.136 156.643 46.216C156.947 46.288 157.259 46.324 157.579 46.324C157.931 46.324 158.227 46.276 158.467 46.18C158.707 46.084 158.887 45.94 159.007 45.748C159.135 45.556 159.199 45.324 159.199 45.052C159.199 44.652 159.063 44.356 158.791 44.164C158.527 43.964 158.139 43.864 157.627 43.864H156.859C156.635 43.864 156.463 43.808 156.343 43.696C156.231 43.584 156.175 43.428 156.175 43.228C156.175 43.028 156.231 42.872 156.343 42.76C156.463 42.648 156.635 42.592 156.859 42.592H157.483C157.787 42.592 158.047 42.544 158.263 42.448C158.479 42.344 158.647 42.2 158.767 42.016C158.887 41.832 158.947 41.608 158.947 41.344C158.947 40.976 158.823 40.696 158.575 40.504C158.335 40.312 157.983 40.216 157.519 40.216C157.223 40.216 156.943 40.252 156.679 40.324C156.423 40.388 156.139 40.512 155.827 40.696C155.683 40.784 155.543 40.82 155.407 40.804C155.279 40.788 155.171 40.736 155.083 40.648C154.995 40.56 154.935 40.456 154.903 40.336C154.871 40.208 154.879 40.08 154.927 39.952C154.975 39.816 155.075 39.7 155.227 39.604C155.571 39.38 155.951 39.212 156.367 39.1C156.783 38.98 157.211 38.92 157.651 38.92C158.235 38.92 158.735 39.012 159.151 39.196C159.567 39.372 159.883 39.628 160.099 39.964C160.323 40.292 160.435 40.692 160.435 41.164C160.435 41.5 160.371 41.808 160.243 42.088C160.115 42.36 159.935 42.592 159.703 42.784C159.471 42.976 159.191 43.112 158.863 43.192V43.048C159.439 43.144 159.887 43.384 160.207 43.768C160.527 44.144 160.687 44.616 160.687 45.184C160.687 45.68 160.563 46.112 160.315 46.48C160.067 46.848 159.715 47.132 159.259 47.332C158.803 47.524 158.259 47.62 157.627 47.62Z" fill="white"/>
<rect x="265" y="25.5" width="36" height="36" rx="12" fill="#057FF0" fill-opacity="0.12"/>
<path d="M284.039 48.2C283.577 49 282.423 49 281.961 48.2L278.843 42.8C278.381 42 278.959 41 279.882 41L286.118 41C287.041 41 287.619 42 287.157 42.8L284.039 48.2Z" fill="#057FF0"/>
</g>
<path d="M6.608 12.084C6.408 12.084 6.252 12.028 6.14 11.916C6.036 11.804 5.984 11.648 5.984 11.448V4.176C5.984 3.968 6.04 3.812 6.152 3.708C6.264 3.596 6.42 3.54 6.62 3.54H9.488C10.4 3.54 11.104 3.768 11.6 4.224C12.096 4.672 12.344 5.304 12.344 6.12C12.344 6.944 12.096 7.584 11.6 8.04C11.104 8.488 10.4 8.712 9.488 8.712H7.232V11.448C7.232 11.648 7.18 11.804 7.076 11.916C6.972 12.028 6.816 12.084 6.608 12.084ZM7.232 7.716H9.308C9.908 7.716 10.36 7.584 10.664 7.32C10.976 7.048 11.132 6.648 11.132 6.12C11.132 5.6 10.976 5.208 10.664 4.944C10.36 4.672 9.908 4.536 9.308 4.536H7.232V7.716ZM16.018 12.108C15.378 12.108 14.826 11.988 14.362 11.748C13.906 11.5 13.55 11.152 13.294 10.704C13.046 10.248 12.922 9.708 12.922 9.084C12.922 8.476 13.046 7.944 13.294 7.488C13.542 7.032 13.882 6.676 14.314 6.42C14.746 6.164 15.238 6.036 15.79 6.036C16.198 6.036 16.562 6.104 16.882 6.24C17.202 6.368 17.474 6.56 17.698 6.816C17.93 7.064 18.102 7.368 18.214 7.728C18.334 8.088 18.394 8.492 18.394 8.94C18.394 9.076 18.354 9.18 18.274 9.252C18.194 9.316 18.074 9.348 17.914 9.348H13.882V8.604H17.578L17.374 8.772C17.374 8.372 17.314 8.032 17.194 7.752C17.082 7.472 16.91 7.26 16.678 7.116C16.454 6.964 16.174 6.888 15.838 6.888C15.462 6.888 15.142 6.976 14.878 7.152C14.622 7.328 14.426 7.572 14.29 7.884C14.154 8.196 14.086 8.56 14.086 8.976V9.048C14.086 9.752 14.25 10.284 14.578 10.644C14.914 10.996 15.398 11.172 16.03 11.172C16.27 11.172 16.522 11.14 16.786 11.076C17.058 11.012 17.314 10.904 17.554 10.752C17.69 10.672 17.81 10.636 17.914 10.644C18.026 10.652 18.114 10.688 18.178 10.752C18.25 10.816 18.294 10.896 18.31 10.992C18.326 11.088 18.31 11.188 18.262 11.292C18.214 11.388 18.13 11.476 18.01 11.556C17.738 11.74 17.422 11.88 17.062 11.976C16.702 12.064 16.354 12.108 16.018 12.108ZM20.3273 12.084C20.1273 12.084 19.9753 12.032 19.8713 11.928C19.7673 11.816 19.7153 11.664 19.7153 11.472V6.672C19.7153 6.472 19.7673 6.32 19.8713 6.216C19.9753 6.112 20.1193 6.06 20.3033 6.06C20.4953 6.06 20.6393 6.112 20.7353 6.216C20.8393 6.32 20.8913 6.472 20.8913 6.672V7.548H20.7713C20.8993 7.068 21.1353 6.704 21.4793 6.456C21.8233 6.208 22.2633 6.064 22.7993 6.024C22.9433 6.016 23.0553 6.052 23.1353 6.132C23.2233 6.212 23.2713 6.336 23.2793 6.504C23.2953 6.672 23.2593 6.808 23.1713 6.912C23.0833 7.008 22.9473 7.064 22.7633 7.08L22.5353 7.104C22.0153 7.152 21.6193 7.316 21.3473 7.596C21.0753 7.876 20.9393 8.26 20.9393 8.748V11.472C20.9393 11.664 20.8873 11.816 20.7833 11.928C20.6873 12.032 20.5353 12.084 20.3273 12.084ZM26.1853 12.108C25.8333 12.108 25.4693 12.068 25.0933 11.988C24.7253 11.908 24.3853 11.772 24.0732 11.58C23.9693 11.508 23.8973 11.428 23.8573 11.34C23.8173 11.252 23.8013 11.164 23.8093 11.076C23.8253 10.98 23.8613 10.9 23.9173 10.836C23.9813 10.764 24.0573 10.72 24.1453 10.704C24.2413 10.688 24.3413 10.708 24.4453 10.764C24.7573 10.94 25.0573 11.064 25.3453 11.136C25.6333 11.2 25.9173 11.232 26.1973 11.232C26.6213 11.232 26.9413 11.156 27.1573 11.004C27.3733 10.852 27.4813 10.648 27.4813 10.392C27.4813 10.184 27.4093 10.024 27.2653 9.912C27.1213 9.792 26.9053 9.7 26.6173 9.636L25.4773 9.408C24.9813 9.304 24.6053 9.12 24.3493 8.856C24.0933 8.592 23.9653 8.256 23.9653 7.848C23.9653 7.48 24.0653 7.16 24.2653 6.888C24.4653 6.616 24.7453 6.408 25.1053 6.264C25.4653 6.112 25.8813 6.036 26.3533 6.036C26.7053 6.036 27.0373 6.08 27.3493 6.168C27.6613 6.256 27.9493 6.388 28.2133 6.564C28.3173 6.62 28.3853 6.696 28.4173 6.792C28.4493 6.88 28.4533 6.968 28.4293 7.056C28.4133 7.144 28.3733 7.224 28.3093 7.296C28.2453 7.36 28.1653 7.4 28.0693 7.416C27.9813 7.424 27.8813 7.4 27.7693 7.344C27.5293 7.192 27.2893 7.084 27.0493 7.02C26.8173 6.956 26.5853 6.924 26.3533 6.924C25.9293 6.924 25.6093 7.004 25.3933 7.164C25.1853 7.316 25.0813 7.524 25.0813 7.788C25.0813 7.988 25.1453 8.152 25.2733 8.28C25.4013 8.408 25.6013 8.5 25.8733 8.556L27.0133 8.784C27.5333 8.888 27.9253 9.064 28.1893 9.312C28.4613 9.56 28.5973 9.896 28.5973 10.32C28.5973 10.872 28.3773 11.308 27.9373 11.628C27.4973 11.948 26.9133 12.108 26.1853 12.108ZM32.4898 12.108C31.8978 12.108 31.3858 11.984 30.9538 11.736C30.5298 11.488 30.1978 11.136 29.9578 10.68C29.7178 10.224 29.5978 9.688 29.5978 9.072C29.5978 8.6 29.6658 8.18 29.8018 7.812C29.9378 7.444 30.1298 7.128 30.3778 6.864C30.6338 6.592 30.9378 6.388 31.2898 6.252C31.6498 6.108 32.0498 6.036 32.4898 6.036C33.0738 6.036 33.5778 6.16 34.0018 6.408C34.4338 6.656 34.7698 7.008 35.0098 7.464C35.2498 7.912 35.3698 8.448 35.3698 9.072C35.3698 9.536 35.3018 9.956 35.1658 10.332C35.0298 10.708 34.8338 11.028 34.5778 11.292C34.3298 11.556 34.0258 11.76 33.6658 11.904C33.3138 12.04 32.9218 12.108 32.4898 12.108ZM32.4898 11.172C32.8178 11.172 33.1058 11.092 33.3538 10.932C33.6018 10.772 33.7938 10.536 33.9298 10.224C34.0738 9.912 34.1458 9.528 34.1458 9.072C34.1458 8.384 33.9938 7.864 33.6898 7.512C33.3858 7.16 32.9858 6.984 32.4898 6.984C32.1538 6.984 31.8618 7.064 31.6138 7.224C31.3658 7.376 31.1698 7.608 31.0258 7.92C30.8898 8.232 30.8218 8.616 30.8218 9.072C30.8218 9.752 30.9738 10.272 31.2778 10.632C31.5818 10.992 31.9858 11.172 32.4898 11.172ZM37.3309 12.084C37.1389 12.084 36.9909 12.032 36.8869 11.928C36.7829 11.816 36.7309 11.664 36.7309 11.472V6.672C36.7309 6.472 36.7829 6.32 36.8869 6.216C36.9909 6.112 37.1349 6.06 37.3189 6.06C37.5109 6.06 37.6549 6.112 37.7509 6.216C37.8549 6.32 37.9069 6.472 37.9069 6.672V7.608L37.7749 7.392C37.9509 6.944 38.2269 6.608 38.6029 6.384C38.9789 6.152 39.4109 6.036 39.8989 6.036C40.3629 6.036 40.7469 6.124 41.0509 6.3C41.3629 6.468 41.5949 6.728 41.7469 7.08C41.8989 7.424 41.9749 7.86 41.9749 8.388V11.472C41.9749 11.664 41.9229 11.816 41.8189 11.928C41.7149 12.032 41.5669 12.084 41.3749 12.084C41.1749 12.084 41.0229 12.032 40.9189 11.928C40.8149 11.816 40.7629 11.664 40.7629 11.472V8.46C40.7629 7.956 40.6629 7.588 40.4629 7.356C40.2709 7.124 39.9669 7.008 39.5509 7.008C39.0629 7.008 38.6709 7.16 38.3749 7.464C38.0869 7.768 37.9429 8.176 37.9429 8.688V11.472C37.9429 11.88 37.7389 12.084 37.3309 12.084ZM45.517 12.108C45.109 12.108 44.741 12.028 44.413 11.868C44.093 11.708 43.841 11.492 43.657 11.22C43.473 10.948 43.381 10.64 43.381 10.296C43.381 9.864 43.489 9.524 43.705 9.276C43.929 9.02 44.293 8.84 44.797 8.736C45.309 8.624 45.997 8.568 46.861 8.568H47.425V9.312H46.873C46.297 9.312 45.841 9.34 45.505 9.396C45.169 9.452 44.929 9.548 44.785 9.684C44.649 9.812 44.581 9.992 44.581 10.224C44.581 10.528 44.685 10.776 44.893 10.968C45.101 11.152 45.389 11.244 45.757 11.244C46.053 11.244 46.313 11.176 46.537 11.04C46.761 10.896 46.937 10.704 47.065 10.464C47.201 10.224 47.269 9.948 47.269 9.636V8.256C47.269 7.8 47.173 7.472 46.981 7.272C46.789 7.072 46.473 6.972 46.033 6.972C45.777 6.972 45.509 7.004 45.229 7.068C44.957 7.132 44.673 7.24 44.377 7.392C44.241 7.456 44.125 7.476 44.029 7.452C43.933 7.428 43.857 7.376 43.801 7.296C43.745 7.208 43.713 7.116 43.705 7.02C43.705 6.916 43.729 6.816 43.777 6.72C43.833 6.624 43.925 6.552 44.053 6.504C44.405 6.336 44.753 6.216 45.097 6.144C45.441 6.072 45.765 6.036 46.069 6.036C46.605 6.036 47.045 6.12 47.389 6.288C47.741 6.456 48.001 6.712 48.169 7.056C48.337 7.4 48.421 7.844 48.421 8.388V11.472C48.421 11.664 48.373 11.816 48.277 11.928C48.181 12.032 48.041 12.084 47.857 12.084C47.681 12.084 47.541 12.032 47.437 11.928C47.333 11.816 47.281 11.664 47.281 11.472V10.692H47.389C47.325 10.988 47.205 11.244 47.029 11.46C46.861 11.668 46.649 11.828 46.393 11.94C46.137 12.052 45.845 12.108 45.517 12.108ZM51.9743 12.108C51.3503 12.108 50.8783 11.928 50.5583 11.568C50.2463 11.2 50.0903 10.672 50.0903 9.984V4.068C50.0903 3.868 50.1423 3.716 50.2463 3.612C50.3503 3.508 50.4983 3.456 50.6903 3.456C50.8823 3.456 51.0303 3.508 51.1343 3.612C51.2463 3.716 51.3023 3.868 51.3023 4.068V9.912C51.3023 10.312 51.3823 10.612 51.5423 10.812C51.7103 11.004 51.9503 11.1 52.2623 11.1C52.3343 11.1 52.3983 11.1 52.4543 11.1C52.5103 11.092 52.5663 11.084 52.6223 11.076C52.7183 11.068 52.7863 11.096 52.8263 11.16C52.8663 11.216 52.8863 11.336 52.8863 11.52C52.8863 11.688 52.8503 11.82 52.7783 11.916C52.7063 12.004 52.5903 12.06 52.4303 12.084C52.3583 12.092 52.2823 12.096 52.2023 12.096C52.1223 12.104 52.0463 12.108 51.9743 12.108ZM57.7263 12C57.5103 12 57.3423 11.944 57.2223 11.832C57.1103 11.712 57.0543 11.544 57.0543 11.328V4.212C57.0543 3.996 57.1103 3.832 57.2223 3.72C57.3423 3.6 57.5103 3.54 57.7263 3.54H60.0423C61.4343 3.54 62.5063 3.904 63.2583 4.632C64.0183 5.352 64.3983 6.396 64.3983 7.764C64.3983 8.444 64.3023 9.048 64.1103 9.576C63.9183 10.104 63.6343 10.548 63.2583 10.908C62.8903 11.26 62.4383 11.532 61.9023 11.724C61.3663 11.908 60.7463 12 60.0423 12H57.7263ZM58.3023 10.956H59.9703C60.4983 10.956 60.9543 10.892 61.3383 10.764C61.7303 10.628 62.0583 10.428 62.3223 10.164C62.5863 9.9 62.7823 9.568 62.9103 9.168C63.0383 8.768 63.1023 8.3 63.1023 7.764C63.1023 6.7 62.8383 5.904 62.3103 5.376C61.7903 4.848 61.0103 4.584 59.9703 4.584H58.3023V10.956ZM68.682 12.108C68.042 12.108 67.49 11.988 67.026 11.748C66.57 11.5 66.214 11.152 65.958 10.704C65.71 10.248 65.586 9.708 65.586 9.084C65.586 8.476 65.71 7.944 65.958 7.488C66.206 7.032 66.546 6.676 66.978 6.42C67.41 6.164 67.902 6.036 68.454 6.036C68.862 6.036 69.226 6.104 69.546 6.24C69.866 6.368 70.138 6.56 70.362 6.816C70.594 7.064 70.766 7.368 70.878 7.728C70.998 8.088 71.058 8.492 71.058 8.94C71.058 9.076 71.018 9.18 70.938 9.252C70.858 9.316 70.738 9.348 70.578 9.348H66.546V8.604H70.242L70.038 8.772C70.038 8.372 69.978 8.032 69.858 7.752C69.746 7.472 69.574 7.26 69.342 7.116C69.118 6.964 68.838 6.888 68.502 6.888C68.126 6.888 67.806 6.976 67.542 7.152C67.286 7.328 67.09 7.572 66.954 7.884C66.818 8.196 66.75 8.56 66.75 8.976V9.048C66.75 9.752 66.914 10.284 67.242 10.644C67.578 10.996 68.062 11.172 68.694 11.172C68.934 11.172 69.186 11.14 69.45 11.076C69.722 11.012 69.978 10.904 70.218 10.752C70.354 10.672 70.474 10.636 70.578 10.644C70.69 10.652 70.778 10.688 70.842 10.752C70.914 10.816 70.958 10.896 70.974 10.992C70.99 11.088 70.974 11.188 70.926 11.292C70.878 11.388 70.794 11.476 70.674 11.556C70.402 11.74 70.086 11.88 69.726 11.976C69.366 12.064 69.018 12.108 68.682 12.108ZM74.8636 12.108C74.3836 12.108 73.9796 12.024 73.6516 11.856C73.3236 11.688 73.0796 11.44 72.9196 11.112C72.7596 10.784 72.6796 10.384 72.6796 9.912V7.08H71.9596C71.7996 7.08 71.6756 7.04 71.5876 6.96C71.4996 6.872 71.4556 6.756 71.4556 6.612C71.4556 6.46 71.4996 6.344 71.5876 6.264C71.6756 6.184 71.7996 6.144 71.9596 6.144H72.6796V4.908C72.6796 4.708 72.7316 4.556 72.8356 4.452C72.9476 4.348 73.0996 4.296 73.2916 4.296C73.4836 4.296 73.6316 4.348 73.7356 4.452C73.8396 4.556 73.8916 4.708 73.8916 4.908V6.144H75.2956C75.4556 6.144 75.5796 6.184 75.6676 6.264C75.7556 6.344 75.7996 6.46 75.7996 6.612C75.7996 6.756 75.7556 6.872 75.6676 6.96C75.5796 7.04 75.4556 7.08 75.2956 7.08H73.8916V9.816C73.8916 10.24 73.9796 10.56 74.1556 10.776C74.3396 10.992 74.6356 11.1 75.0436 11.1C75.1876 11.1 75.3116 11.088 75.4156 11.064C75.5276 11.032 75.6196 11.012 75.6916 11.004C75.7796 11.004 75.8516 11.036 75.9076 11.1C75.9636 11.156 75.9916 11.268 75.9916 11.436C75.9916 11.556 75.9676 11.668 75.9196 11.772C75.8796 11.876 75.8036 11.944 75.6916 11.976C75.5956 12.008 75.4636 12.036 75.2956 12.06C75.1356 12.092 74.9916 12.108 74.8636 12.108ZM78.6224 12.108C78.2144 12.108 77.8464 12.028 77.5184 11.868C77.1984 11.708 76.9464 11.492 76.7624 11.22C76.5784 10.948 76.4864 10.64 76.4864 10.296C76.4864 9.864 76.5944 9.524 76.8104 9.276C77.0344 9.02 77.3984 8.84 77.9024 8.736C78.4144 8.624 79.1024 8.568 79.9664 8.568H80.5304V9.312H79.9784C79.4024 9.312 78.9464 9.34 78.6104 9.396C78.2744 9.452 78.0344 9.548 77.8904 9.684C77.7544 9.812 77.6864 9.992 77.6864 10.224C77.6864 10.528 77.7904 10.776 77.9984 10.968C78.2064 11.152 78.4944 11.244 78.8624 11.244C79.1584 11.244 79.4184 11.176 79.6424 11.04C79.8664 10.896 80.0424 10.704 80.1704 10.464C80.3064 10.224 80.3744 9.948 80.3744 9.636V8.256C80.3744 7.8 80.2784 7.472 80.0864 7.272C79.8944 7.072 79.5784 6.972 79.1384 6.972C78.8824 6.972 78.6144 7.004 78.3344 7.068C78.0624 7.132 77.7784 7.24 77.4824 7.392C77.3464 7.456 77.2304 7.476 77.1344 7.452C77.0384 7.428 76.9624 7.376 76.9064 7.296C76.8504 7.208 76.8184 7.116 76.8104 7.02C76.8104 6.916 76.8344 6.816 76.8824 6.72C76.9384 6.624 77.0304 6.552 77.1584 6.504C77.5104 6.336 77.8584 6.216 78.2024 6.144C78.5464 6.072 78.8704 6.036 79.1744 6.036C79.7104 6.036 80.1504 6.12 80.4944 6.288C80.8464 6.456 81.1064 6.712 81.2744 7.056C81.4424 7.4 81.5264 7.844 81.5264 8.388V11.472C81.5264 11.664 81.4784 11.816 81.3824 11.928C81.2864 12.032 81.1464 12.084 80.9624 12.084C80.7864 12.084 80.6464 12.032 80.5424 11.928C80.4384 11.816 80.3864 11.664 80.3864 11.472V10.692H80.4944C80.4304 10.988 80.3104 11.244 80.1344 11.46C79.9664 11.668 79.7544 11.828 79.4984 11.94C79.2424 12.052 78.9504 12.108 78.6224 12.108ZM83.7958 12.072C83.6038 12.072 83.4558 12.016 83.3518 11.904C83.2478 11.784 83.1958 11.62 83.1958 11.412V6.732C83.1958 6.524 83.2478 6.364 83.3518 6.252C83.4558 6.14 83.6038 6.084 83.7958 6.084C83.9878 6.084 84.1358 6.14 84.2398 6.252C84.3518 6.364 84.4078 6.524 84.4078 6.732V11.412C84.4078 11.62 84.3558 11.784 84.2518 11.904C84.1478 12.016 83.9958 12.072 83.7958 12.072ZM83.7958 4.836C83.5558 4.836 83.3678 4.776 83.2318 4.656C83.1038 4.536 83.0398 4.368 83.0398 4.152C83.0398 3.928 83.1038 3.76 83.2318 3.648C83.3678 3.528 83.5558 3.468 83.7958 3.468C84.0358 3.468 84.2198 3.528 84.3478 3.648C84.4838 3.76 84.5518 3.928 84.5518 4.152C84.5518 4.368 84.4838 4.536 84.3478 4.656C84.2198 4.776 84.0358 4.836 83.7958 4.836ZM87.9977 12.108C87.3737 12.108 86.9017 11.928 86.5817 11.568C86.2697 11.2 86.1137 10.672 86.1137 9.984V4.068C86.1137 3.868 86.1657 3.716 86.2697 3.612C86.3737 3.508 86.5217 3.456 86.7137 3.456C86.9057 3.456 87.0537 3.508 87.1577 3.612C87.2697 3.716 87.3257 3.868 87.3257 4.068V9.912C87.3257 10.312 87.4057 10.612 87.5657 10.812C87.7337 11.004 87.9737 11.1 88.2857 11.1C88.3577 11.1 88.4217 11.1 88.4777 11.1C88.5337 11.092 88.5897 11.084 88.6457 11.076C88.7417 11.068 88.8097 11.096 88.8497 11.16C88.8897 11.216 88.9097 11.336 88.9097 11.52C88.9097 11.688 88.8737 11.82 88.8017 11.916C88.7297 12.004 88.6137 12.06 88.4537 12.084C88.3817 12.092 88.3057 12.096 88.2257 12.096C88.1457 12.104 88.0697 12.108 87.9977 12.108ZM91.7751 12.108C91.4231 12.108 91.0591 12.068 90.6831 11.988C90.3151 11.908 89.9751 11.772 89.6631 11.58C89.5591 11.508 89.4871 11.428 89.4471 11.34C89.4071 11.252 89.3911 11.164 89.3991 11.076C89.4151 10.98 89.4511 10.9 89.5071 10.836C89.5711 10.764 89.6471 10.72 89.7351 10.704C89.8311 10.688 89.9311 10.708 90.0351 10.764C90.3471 10.94 90.6471 11.064 90.9351 11.136C91.2231 11.2 91.5071 11.232 91.7871 11.232C92.2111 11.232 92.5311 11.156 92.7471 11.004C92.9631 10.852 93.0711 10.648 93.0711 10.392C93.0711 10.184 92.9991 10.024 92.8551 9.912C92.7111 9.792 92.4951 9.7 92.2071 9.636L91.0671 9.408C90.5711 9.304 90.1951 9.12 89.9391 8.856C89.6831 8.592 89.5551 8.256 89.5551 7.848C89.5551 7.48 89.6551 7.16 89.8551 6.888C90.0551 6.616 90.3351 6.408 90.6951 6.264C91.0551 6.112 91.4711 6.036 91.9431 6.036C92.2951 6.036 92.6271 6.08 92.9391 6.168C93.2511 6.256 93.5391 6.388 93.8031 6.564C93.9071 6.62 93.9751 6.696 94.0071 6.792C94.0391 6.88 94.0431 6.968 94.0191 7.056C94.0031 7.144 93.9631 7.224 93.8991 7.296C93.8351 7.36 93.7551 7.4 93.6591 7.416C93.5711 7.424 93.4711 7.4 93.3591 7.344C93.1191 7.192 92.8791 7.084 92.6391 7.02C92.4071 6.956 92.1751 6.924 91.9431 6.924C91.5191 6.924 91.1991 7.004 90.9831 7.164C90.7751 7.316 90.6711 7.524 90.6711 7.788C90.6711 7.988 90.7351 8.152 90.8631 8.28C90.9911 8.408 91.1911 8.5 91.4631 8.556L92.6031 8.784C93.1231 8.888 93.5151 9.064 93.7791 9.312C94.0511 9.56 94.1871 9.896 94.1871 10.32C94.1871 10.872 93.9671 11.308 93.5271 11.628C93.0871 11.948 92.5031 12.108 91.7751 12.108Z" fill="#64728C"/>
<defs>
<filter id="filter0_d_558_5015" x="0" y="20" width="310" height="55" filterUnits="userSpaceOnUse" color-interpolation-filters="sRGB">
<feFlood flood-opacity="0" result="BackgroundImageFix"/>
<feColorMatrix in="SourceAlpha" type="matrix" values="0 0 0 0 0 0 0 0 0 0 0 0 0 0 0 0 0 0 127 0" result="hardAlpha"/>
<feOffset dy="4"/>
<feGaussianBlur stdDeviation="2.5"/>
<feComposite in2="hardAlpha" operator="out"/>
<feColorMatrix type="matrix" values="0 0 0 0 0.0196078 0 0 0 0 0.498039 0 0 0 0 0.941176 0 0 0 0.15 0"/>
<feBlend mode="normal" in2="BackgroundImageFix" result="effect1_dropShadow_558_5015"/>
<feBlend mode="normal" in="SourceGraphic" in2="effect1_dropShadow_558_5015" result="shape"/>
</filter>
</defs>
</svg>
