<svg width="140" height="45" viewBox="0 0 140 45" fill="none" xmlns="http://www.w3.org/2000/svg">
<rect width="140" height="45" rx="22.5" fill="white"/>
<rect x="0.5" y="0.5" width="139" height="44" rx="22" stroke="#64728C" stroke-opacity="0.79"/>
<circle cx="23" cy="22" r="19" fill="#64728C" fill-opacity="0.1"/>
<circle cx="117" cy="22" r="19" fill="#64728C" fill-opacity="0.1"/>
<g clip-path="url(#clip0_620_7576)">
<path d="M124 22.0002C124 22.6768 123.452 23.2252 122.775 23.2252H118.225V27.7749C118.225 28.4518 117.677 29.0002 117 29C116.662 29 116.355 28.8631 116.134 28.6415C115.912 28.4195 115.775 28.1134 115.775 27.7753L115.775 23.225H111.225C110.887 23.225 110.581 23.0881 110.359 22.8662C110.137 22.6448 110 22.3385 110 22.0002C110 21.3236 110.549 20.7751 111.226 20.7751H115.775V16.2253C115.775 15.5486 116.324 15 117.001 15C117.677 15.0002 118.225 15.5482 118.226 16.2249V20.7751H122.776C123.452 20.7755 124 21.3236 124 22.0002Z" fill="#64728C"/>
</g>
<rect x="16" y="20" width="14" height="3.29412" rx="1.64706" fill="#64728C"/>
<path d="M65.8 27.16C64.4667 27.16 63.448 26.6587 62.744 25.656C62.04 24.6427 61.688 23.2027 61.688 21.336C61.688 20.0773 61.8427 19.0213 62.152 18.168C62.472 17.304 62.936 16.6533 63.544 16.216C64.1627 15.7787 64.9147 15.56 65.8 15.56C67.144 15.56 68.1627 16.0507 68.856 17.032C69.56 18.0133 69.912 19.4427 69.912 21.32C69.912 22.568 69.752 23.6293 69.432 24.504C69.1227 25.368 68.664 26.0293 68.056 26.488C67.448 26.936 66.696 27.16 65.8 27.16ZM65.8 25.48C66.5253 25.48 67.0587 25.144 67.4 24.472C67.752 23.8 67.928 22.7493 67.928 21.32C67.928 19.8907 67.752 18.856 67.4 18.216C67.0587 17.5653 66.5253 17.24 65.8 17.24C65.0853 17.24 64.552 17.5653 64.2 18.216C63.848 18.856 63.672 19.8907 63.672 21.32C63.672 22.7493 63.848 23.8 64.2 24.472C64.552 25.144 65.0853 25.48 65.8 25.48ZM75.4898 27.16C74.9244 27.16 74.3484 27.0853 73.7618 26.936C73.1751 26.7867 72.6364 26.5573 72.1458 26.248C71.9431 26.12 71.8044 25.9707 71.7298 25.8C71.6658 25.6187 71.6498 25.4427 71.6818 25.272C71.7244 25.0907 71.8044 24.9413 71.9218 24.824C72.0498 24.696 72.1991 24.6213 72.3698 24.6C72.5511 24.5787 72.7484 24.6267 72.9618 24.744C73.3564 24.968 73.7564 25.1387 74.1618 25.256C74.5671 25.3733 74.9991 25.432 75.4578 25.432C75.9058 25.432 76.2898 25.352 76.6098 25.192C76.9298 25.032 77.1751 24.808 77.3458 24.52C77.5164 24.232 77.6018 23.896 77.6018 23.512C77.6018 22.9147 77.4204 22.4347 77.0578 22.072C76.6951 21.6987 76.1991 21.512 75.5698 21.512C75.2284 21.512 74.8978 21.5707 74.5778 21.688C74.2578 21.7947 73.9431 21.9867 73.6338 22.264C73.5378 22.3493 73.4151 22.4347 73.2658 22.52C73.1164 22.5947 72.9564 22.632 72.7858 22.632C72.5191 22.632 72.3164 22.5627 72.1778 22.424C72.0391 22.2853 71.9698 22.0933 71.9698 21.848V16.616C71.9698 16.328 72.0444 16.1093 72.1938 15.96C72.3538 15.8 72.5778 15.72 72.8658 15.72H78.1298C78.4178 15.72 78.6364 15.7947 78.7858 15.944C78.9458 16.0827 79.0258 16.2907 79.0258 16.568C79.0258 16.8347 78.9458 17.0427 78.7858 17.192C78.6364 17.3413 78.4178 17.416 78.1298 17.416H73.9698V21H73.4418C73.7191 20.6267 74.0871 20.3387 74.5458 20.136C75.0044 19.9333 75.5058 19.832 76.0498 19.832C76.7644 19.832 77.3831 19.9867 77.9058 20.296C78.4391 20.5947 78.8498 21.016 79.1378 21.56C79.4364 22.0933 79.5858 22.7173 79.5858 23.432C79.5858 24.168 79.4204 24.8187 79.0898 25.384C78.7591 25.9387 78.2844 26.376 77.6658 26.696C77.0578 27.0053 76.3324 27.16 75.4898 27.16Z" fill="#64728C"/>
<defs>
<clipPath id="clip0_620_7576">
<rect width="14" height="14" fill="white" transform="translate(110 15)"/>
</clipPath>
</defs>
</svg>
