<svg width="140" height="44" viewBox="0 0 140 44" fill="none" xmlns="http://www.w3.org/2000/svg">
<rect width="140" height="44" rx="22" fill="white"/>
<rect x="0.5" y="0.5" width="139" height="43" rx="21.5" stroke="#64728C" stroke-opacity="0.05"/>
<g filter="url(#filter0_i_620_7573)">
<circle cx="23" cy="22" r="19" fill="#E8EAEF" fill-opacity="0.23"/>
</g>
<circle cx="117" cy="22" r="19" fill="#64728C" fill-opacity="0.1"/>
<g clip-path="url(#clip0_620_7573)">
<path d="M124 22.0002C124 22.6768 123.452 23.2252 122.775 23.2252H118.225V27.7749C118.225 28.4518 117.677 29.0002 117 29C116.662 29 116.355 28.8631 116.134 28.6415C115.912 28.4195 115.775 28.1134 115.775 27.7753L115.775 23.225H111.225C110.887 23.225 110.581 23.0881 110.359 22.8662C110.137 22.6448 110 22.3385 110 22.0002C110 21.3236 110.549 20.7751 111.226 20.7751H115.775V16.2253C115.775 15.5486 116.324 15 117.001 15C117.677 15.0002 118.225 15.5482 118.226 16.2249V20.7751H122.776C123.452 20.7755 124 21.3236 124 22.0002Z" fill="#64728C"/>
</g>
<rect x="16" y="20" width="14" height="3.29412" rx="1.64706" fill="#E8EAEF"/>
<path d="M65.8 27.16C64.4667 27.16 63.448 26.6587 62.744 25.656C62.04 24.6427 61.688 23.2027 61.688 21.336C61.688 20.0773 61.8427 19.0213 62.152 18.168C62.472 17.304 62.936 16.6533 63.544 16.216C64.1627 15.7787 64.9147 15.56 65.8 15.56C67.144 15.56 68.1627 16.0507 68.856 17.032C69.56 18.0133 69.912 19.4427 69.912 21.32C69.912 22.568 69.752 23.6293 69.432 24.504C69.1227 25.368 68.664 26.0293 68.056 26.488C67.448 26.936 66.696 27.16 65.8 27.16ZM65.8 25.48C66.5253 25.48 67.0587 25.144 67.4 24.472C67.752 23.8 67.928 22.7493 67.928 21.32C67.928 19.8907 67.752 18.856 67.4 18.216C67.0587 17.5653 66.5253 17.24 65.8 17.24C65.0853 17.24 64.552 17.5653 64.2 18.216C63.848 18.856 63.672 19.8907 63.672 21.32C63.672 22.7493 63.848 23.8 64.2 24.472C64.552 25.144 65.0853 25.48 65.8 25.48ZM75.3938 27.16C74.0604 27.16 73.0418 26.6587 72.3378 25.656C71.6338 24.6427 71.2818 23.2027 71.2818 21.336C71.2818 20.0773 71.4364 19.0213 71.7458 18.168C72.0658 17.304 72.5298 16.6533 73.1378 16.216C73.7564 15.7787 74.5084 15.56 75.3938 15.56C76.7378 15.56 77.7564 16.0507 78.4498 17.032C79.1538 18.0133 79.5058 19.4427 79.5058 21.32C79.5058 22.568 79.3458 23.6293 79.0258 24.504C78.7164 25.368 78.2578 26.0293 77.6498 26.488C77.0418 26.936 76.2898 27.16 75.3938 27.16ZM75.3938 25.48C76.1191 25.48 76.6524 25.144 76.9938 24.472C77.3458 23.8 77.5218 22.7493 77.5218 21.32C77.5218 19.8907 77.3458 18.856 76.9938 18.216C76.6524 17.5653 76.1191 17.24 75.3938 17.24C74.6791 17.24 74.1458 17.5653 73.7938 18.216C73.4418 18.856 73.2658 19.8907 73.2658 21.32C73.2658 22.7493 73.4418 23.8 73.7938 24.472C74.1458 25.144 74.6791 25.48 75.3938 25.48Z" fill="#929BAA"/>
<defs>
<filter id="filter0_i_620_7573" x="4" y="3" width="38" height="40" filterUnits="userSpaceOnUse" color-interpolation-filters="sRGB">
<feFlood flood-opacity="0" result="BackgroundImageFix"/>
<feBlend mode="normal" in="SourceGraphic" in2="BackgroundImageFix" result="shape"/>
<feColorMatrix in="SourceAlpha" type="matrix" values="0 0 0 0 0 0 0 0 0 0 0 0 0 0 0 0 0 0 127 0" result="hardAlpha"/>
<feOffset dy="2"/>
<feGaussianBlur stdDeviation="2"/>
<feComposite in2="hardAlpha" operator="arithmetic" k2="-1" k3="1"/>
<feColorMatrix type="matrix" values="0 0 0 0 0.392157 0 0 0 0 0.447059 0 0 0 0 0.54902 0 0 0 0.12 0"/>
<feBlend mode="normal" in2="shape" result="effect1_innerShadow_620_7573"/>
</filter>
<clipPath id="clip0_620_7573">
<rect width="14" height="14" fill="white" transform="translate(110 15)"/>
</clipPath>
</defs>
</svg>
