<svg width="57" height="16" viewBox="0 0 57 16" fill="none" xmlns="http://www.w3.org/2000/svg">
<path d="M27.62 12C27.42 12 27.264 11.944 27.152 11.832C27.04 11.72 26.984 11.564 26.984 11.364V4.128C26.984 3.92 27.036 3.764 27.14 3.66C27.252 3.548 27.408 3.492 27.608 3.492C27.808 3.492 27.96 3.548 28.064 3.66C28.176 3.764 28.232 3.92 28.232 4.128V10.932H31.952C32.128 10.932 32.264 10.98 32.36 11.076C32.456 11.164 32.504 11.292 32.504 11.46C32.504 11.628 32.456 11.76 32.36 11.856C32.264 11.952 32.128 12 31.952 12H27.62ZM35.3451 12.108C34.9371 12.108 34.5691 12.028 34.2411 11.868C33.9211 11.708 33.6691 11.492 33.4851 11.22C33.3011 10.948 33.2091 10.64 33.2091 10.296C33.2091 9.864 33.3171 9.524 33.5331 9.276C33.7571 9.02 34.1211 8.84 34.6251 8.736C35.1371 8.624 35.8251 8.568 36.6891 8.568H37.2531V9.312H36.7011C36.1251 9.312 35.6691 9.34 35.3331 9.396C34.9971 9.452 34.7571 9.548 34.6131 9.684C34.4771 9.812 34.4091 9.992 34.4091 10.224C34.4091 10.528 34.5131 10.776 34.7211 10.968C34.9291 11.152 35.2171 11.244 35.5851 11.244C35.8811 11.244 36.1411 11.176 36.3651 11.04C36.5891 10.896 36.7651 10.704 36.8931 10.464C37.0291 10.224 37.0971 9.948 37.0971 9.636V8.256C37.0971 7.8 37.0011 7.472 36.8091 7.272C36.6171 7.072 36.3011 6.972 35.8611 6.972C35.6051 6.972 35.3371 7.004 35.0571 7.068C34.7851 7.132 34.5011 7.24 34.2051 7.392C34.0691 7.456 33.9531 7.476 33.8571 7.452C33.7611 7.428 33.6851 7.376 33.6291 7.296C33.5731 7.208 33.5411 7.116 33.5331 7.02C33.5331 6.916 33.5571 6.816 33.6051 6.72C33.6611 6.624 33.7531 6.552 33.8811 6.504C34.2331 6.336 34.5811 6.216 34.9251 6.144C35.2691 6.072 35.5931 6.036 35.8971 6.036C36.4331 6.036 36.8731 6.12 37.2171 6.288C37.5691 6.456 37.8291 6.712 37.9971 7.056C38.1651 7.4 38.2491 7.844 38.2491 8.388V11.472C38.2491 11.664 38.2011 11.816 38.1051 11.928C38.0091 12.032 37.8691 12.084 37.6851 12.084C37.5091 12.084 37.3691 12.032 37.2651 11.928C37.1611 11.816 37.1091 11.664 37.1091 11.472V10.692H37.2171C37.1531 10.988 37.0331 11.244 36.8571 11.46C36.6891 11.668 36.4771 11.828 36.2211 11.94C35.9651 12.052 35.6731 12.108 35.3451 12.108ZM43.0624 12.108C42.5504 12.108 42.1064 11.98 41.7304 11.724C41.3544 11.46 41.1024 11.112 40.9744 10.68L41.1064 10.464V11.472C41.1064 11.664 41.0544 11.816 40.9504 11.928C40.8464 12.032 40.7024 12.084 40.5184 12.084C40.3264 12.084 40.1784 12.032 40.0744 11.928C39.9704 11.816 39.9184 11.664 39.9184 11.472V4.068C39.9184 3.868 39.9704 3.716 40.0744 3.612C40.1784 3.508 40.3264 3.456 40.5184 3.456C40.7104 3.456 40.8584 3.508 40.9624 3.612C41.0744 3.716 41.1304 3.868 41.1304 4.068V7.428H40.9864C41.1144 7.004 41.3664 6.668 41.7424 6.42C42.1184 6.164 42.5584 6.036 43.0624 6.036C43.5904 6.036 44.0464 6.16 44.4304 6.408C44.8144 6.656 45.1104 7.004 45.3184 7.452C45.5344 7.9 45.6424 8.44 45.6424 9.072C45.6424 9.688 45.5344 10.228 45.3184 10.692C45.1104 11.148 44.8104 11.5 44.4184 11.748C44.0344 11.988 43.5824 12.108 43.0624 12.108ZM42.7624 11.172C43.0984 11.172 43.3904 11.092 43.6384 10.932C43.8864 10.772 44.0784 10.536 44.2144 10.224C44.3504 9.912 44.4184 9.528 44.4184 9.072C44.4184 8.384 44.2664 7.864 43.9624 7.512C43.6664 7.16 43.2664 6.984 42.7624 6.984C42.4344 6.984 42.1424 7.064 41.8864 7.224C41.6384 7.376 41.4464 7.608 41.3104 7.92C41.1744 8.232 41.1064 8.616 41.1064 9.072C41.1064 9.752 41.2584 10.272 41.5624 10.632C41.8664 10.992 42.2664 11.172 42.7624 11.172ZM49.7563 12.108C49.1163 12.108 48.5643 11.988 48.1003 11.748C47.6443 11.5 47.2883 11.152 47.0323 10.704C46.7843 10.248 46.6603 9.708 46.6603 9.084C46.6603 8.476 46.7843 7.944 47.0323 7.488C47.2803 7.032 47.6203 6.676 48.0523 6.42C48.4843 6.164 48.9763 6.036 49.5283 6.036C49.9363 6.036 50.3003 6.104 50.6203 6.24C50.9403 6.368 51.2123 6.56 51.4363 6.816C51.6683 7.064 51.8403 7.368 51.9523 7.728C52.0723 8.088 52.1323 8.492 52.1323 8.94C52.1323 9.076 52.0923 9.18 52.0123 9.252C51.9323 9.316 51.8123 9.348 51.6523 9.348H47.6203V8.604H51.3163L51.1123 8.772C51.1123 8.372 51.0523 8.032 50.9323 7.752C50.8203 7.472 50.6483 7.26 50.4163 7.116C50.1923 6.964 49.9123 6.888 49.5763 6.888C49.2003 6.888 48.8803 6.976 48.6163 7.152C48.3603 7.328 48.1643 7.572 48.0283 7.884C47.8923 8.196 47.8243 8.56 47.8243 8.976V9.048C47.8243 9.752 47.9883 10.284 48.3163 10.644C48.6523 10.996 49.1363 11.172 49.7683 11.172C50.0083 11.172 50.2603 11.14 50.5243 11.076C50.7963 11.012 51.0523 10.904 51.2923 10.752C51.4283 10.672 51.5483 10.636 51.6523 10.644C51.7643 10.652 51.8523 10.688 51.9163 10.752C51.9883 10.816 52.0323 10.896 52.0483 10.992C52.0643 11.088 52.0483 11.188 52.0003 11.292C51.9523 11.388 51.8683 11.476 51.7483 11.556C51.4763 11.74 51.1603 11.88 50.8003 11.976C50.4403 12.064 50.0923 12.108 49.7563 12.108ZM55.3376 12.108C54.7136 12.108 54.2416 11.928 53.9216 11.568C53.6096 11.2 53.4536 10.672 53.4536 9.984V4.068C53.4536 3.868 53.5056 3.716 53.6096 3.612C53.7136 3.508 53.8616 3.456 54.0536 3.456C54.2456 3.456 54.3936 3.508 54.4976 3.612C54.6096 3.716 54.6656 3.868 54.6656 4.068V9.912C54.6656 10.312 54.7456 10.612 54.9056 10.812C55.0736 11.004 55.3136 11.1 55.6256 11.1C55.6976 11.1 55.7616 11.1 55.8176 11.1C55.8736 11.092 55.9296 11.084 55.9856 11.076C56.0816 11.068 56.1496 11.096 56.1896 11.16C56.2296 11.216 56.2496 11.336 56.2496 11.52C56.2496 11.688 56.2136 11.82 56.1416 11.916C56.0696 12.004 55.9536 12.06 55.7936 12.084C55.7216 12.092 55.6456 12.096 55.5656 12.096C55.4856 12.104 55.4096 12.108 55.3376 12.108Z" fill="#64728C"/>
<circle cx="8" cy="8" r="7.5" fill="#F8F8F8" stroke="#E8EAEF"/>
</svg>
