<svg width="58" height="40" viewBox="0 0 58 40" fill="none" xmlns="http://www.w3.org/2000/svg">
<path d="M27.608 12.084C27.408 12.084 27.252 12.028 27.14 11.916C27.036 11.804 26.984 11.648 26.984 11.448V4.176C26.984 3.968 27.04 3.812 27.152 3.708C27.264 3.596 27.42 3.54 27.62 3.54H30.488C31.4 3.54 32.104 3.756 32.6 4.188C33.096 4.62 33.344 5.232 33.344 6.024C33.344 6.536 33.232 6.976 33.008 7.344C32.784 7.712 32.456 7.992 32.024 8.184C31.6 8.376 31.088 8.472 30.488 8.472L30.596 8.304H30.908C31.228 8.304 31.504 8.384 31.736 8.544C31.976 8.704 32.192 8.96 32.384 9.312L33.416 11.232C33.496 11.376 33.532 11.516 33.524 11.652C33.524 11.78 33.476 11.884 33.38 11.964C33.292 12.044 33.164 12.084 32.996 12.084C32.82 12.084 32.676 12.048 32.564 11.976C32.46 11.896 32.364 11.78 32.276 11.628L31.016 9.3C30.848 8.988 30.656 8.78 30.44 8.676C30.224 8.564 29.94 8.508 29.588 8.508H28.232V11.448C28.232 11.648 28.18 11.804 28.076 11.916C27.972 12.028 27.816 12.084 27.608 12.084ZM28.232 7.572H30.284C30.892 7.572 31.352 7.444 31.664 7.188C31.976 6.932 32.132 6.552 32.132 6.048C32.132 5.552 31.976 5.176 31.664 4.92C31.352 4.664 30.892 4.536 30.284 4.536H28.232V7.572ZM36.8099 12.108C36.4019 12.108 36.0339 12.028 35.7059 11.868C35.3859 11.708 35.1339 11.492 34.9499 11.22C34.7659 10.948 34.6739 10.64 34.6739 10.296C34.6739 9.864 34.7819 9.524 34.9979 9.276C35.2219 9.02 35.5859 8.84 36.0899 8.736C36.6019 8.624 37.2899 8.568 38.1539 8.568H38.7179V9.312H38.1659C37.5899 9.312 37.1339 9.34 36.7979 9.396C36.4619 9.452 36.2219 9.548 36.0779 9.684C35.9419 9.812 35.8739 9.992 35.8739 10.224C35.8739 10.528 35.9779 10.776 36.1859 10.968C36.3939 11.152 36.6819 11.244 37.0499 11.244C37.3459 11.244 37.6059 11.176 37.8299 11.04C38.0539 10.896 38.2299 10.704 38.3579 10.464C38.4939 10.224 38.5619 9.948 38.5619 9.636V8.256C38.5619 7.8 38.4659 7.472 38.2739 7.272C38.0819 7.072 37.7659 6.972 37.3259 6.972C37.0699 6.972 36.8019 7.004 36.5219 7.068C36.2499 7.132 35.9659 7.24 35.6699 7.392C35.5339 7.456 35.4179 7.476 35.3219 7.452C35.2259 7.428 35.1499 7.376 35.0939 7.296C35.0379 7.208 35.0059 7.116 34.9979 7.02C34.9979 6.916 35.0219 6.816 35.0699 6.72C35.1259 6.624 35.2179 6.552 35.3459 6.504C35.6979 6.336 36.0459 6.216 36.3899 6.144C36.7339 6.072 37.0579 6.036 37.3619 6.036C37.8979 6.036 38.3379 6.12 38.6819 6.288C39.0339 6.456 39.2939 6.712 39.4619 7.056C39.6299 7.4 39.7139 7.844 39.7139 8.388V11.472C39.7139 11.664 39.6659 11.816 39.5699 11.928C39.4739 12.032 39.3339 12.084 39.1499 12.084C38.9739 12.084 38.8339 12.032 38.7299 11.928C38.6259 11.816 38.5739 11.664 38.5739 11.472V10.692H38.6819C38.6179 10.988 38.4979 11.244 38.3219 11.46C38.1539 11.668 37.9419 11.828 37.6859 11.94C37.4299 12.052 37.1379 12.108 36.8099 12.108ZM43.6152 12.108C43.1033 12.108 42.6513 11.988 42.2593 11.748C41.8753 11.5 41.5753 11.148 41.3593 10.692C41.1433 10.228 41.0353 9.688 41.0353 9.072C41.0353 8.44 41.1433 7.9 41.3593 7.452C41.5753 7.004 41.8753 6.656 42.2593 6.408C42.6513 6.16 43.1033 6.036 43.6152 6.036C44.1273 6.036 44.5673 6.164 44.9353 6.42C45.3113 6.668 45.5633 7.004 45.6913 7.428H45.5593V4.068C45.5593 3.868 45.6113 3.716 45.7153 3.612C45.8193 3.508 45.9673 3.456 46.1593 3.456C46.3513 3.456 46.4993 3.508 46.6033 3.612C46.7153 3.716 46.7713 3.868 46.7713 4.068V11.472C46.7713 11.664 46.7193 11.816 46.6153 11.928C46.5113 12.032 46.3633 12.084 46.1713 12.084C45.9793 12.084 45.8313 12.032 45.7273 11.928C45.6233 11.816 45.5713 11.664 45.5713 11.472V10.416L45.7033 10.68C45.5753 11.112 45.3233 11.46 44.9473 11.724C44.5793 11.98 44.1353 12.108 43.6152 12.108ZM43.9273 11.172C44.2553 11.172 44.5433 11.092 44.7913 10.932C45.0393 10.772 45.2313 10.536 45.3673 10.224C45.5113 9.912 45.5833 9.528 45.5833 9.072C45.5833 8.384 45.4313 7.864 45.1273 7.512C44.8233 7.16 44.4233 6.984 43.9273 6.984C43.5913 6.984 43.2993 7.064 43.0513 7.224C42.8033 7.376 42.6073 7.608 42.4633 7.92C42.3273 8.232 42.2593 8.616 42.2593 9.072C42.2593 9.752 42.4113 10.272 42.7153 10.632C43.0193 10.992 43.4233 11.172 43.9273 11.172ZM49.0731 12.072C48.8811 12.072 48.7331 12.016 48.6291 11.904C48.5251 11.784 48.4731 11.62 48.4731 11.412V6.732C48.4731 6.524 48.5251 6.364 48.6291 6.252C48.7331 6.14 48.8811 6.084 49.0731 6.084C49.2651 6.084 49.4131 6.14 49.5171 6.252C49.6291 6.364 49.6851 6.524 49.6851 6.732V11.412C49.6851 11.62 49.6331 11.784 49.5291 11.904C49.4251 12.016 49.2731 12.072 49.0731 12.072ZM49.0731 4.836C48.8331 4.836 48.6451 4.776 48.5091 4.656C48.3811 4.536 48.3171 4.368 48.3171 4.152C48.3171 3.928 48.3811 3.76 48.5091 3.648C48.6451 3.528 48.8331 3.468 49.0731 3.468C49.3131 3.468 49.4971 3.528 49.6251 3.648C49.7611 3.76 49.8291 3.928 49.8291 4.152C49.8291 4.368 49.7611 4.536 49.6251 4.656C49.4971 4.776 49.3131 4.836 49.0731 4.836ZM53.9351 12.108C53.3431 12.108 52.8311 11.984 52.3991 11.736C51.9751 11.488 51.6431 11.136 51.4031 10.68C51.1631 10.224 51.0431 9.688 51.0431 9.072C51.0431 8.6 51.1111 8.18 51.2471 7.812C51.3831 7.444 51.5751 7.128 51.8231 6.864C52.0791 6.592 52.3831 6.388 52.7351 6.252C53.0951 6.108 53.4951 6.036 53.9351 6.036C54.5191 6.036 55.0231 6.16 55.4471 6.408C55.8791 6.656 56.2151 7.008 56.4551 7.464C56.6951 7.912 56.8151 8.448 56.8151 9.072C56.8151 9.536 56.7471 9.956 56.6111 10.332C56.4751 10.708 56.2791 11.028 56.0231 11.292C55.7751 11.556 55.4711 11.76 55.1111 11.904C54.7591 12.04 54.3671 12.108 53.9351 12.108ZM53.9351 11.172C54.2631 11.172 54.5511 11.092 54.7991 10.932C55.0471 10.772 55.2391 10.536 55.3751 10.224C55.5191 9.912 55.5911 9.528 55.5911 9.072C55.5911 8.384 55.4391 7.864 55.1351 7.512C54.8311 7.16 54.4311 6.984 53.9351 6.984C53.5991 6.984 53.3071 7.064 53.0591 7.224C52.8111 7.376 52.6151 7.608 52.4711 7.92C52.3351 8.232 52.2671 8.616 52.2671 9.072C52.2671 9.752 52.4191 10.272 52.7231 10.632C53.0271 10.992 53.4311 11.172 53.9351 11.172Z" fill="#929BAA"/>
<circle cx="8" cy="8" r="8" fill="#FE5000" fill-opacity="0.5"/>
<g filter="url(#filter0_d_541_2994)">
<circle cx="8.00012" cy="8" r="3.48718" fill="white"/>
<circle cx="8.00012" cy="8" r="3.48718" fill="url(#paint0_linear_541_2994)" fill-opacity="0.2"/>
</g>
<path d="M27.62 36C27.42 36 27.264 35.944 27.152 35.832C27.04 35.72 26.984 35.564 26.984 35.364V28.128C26.984 27.92 27.036 27.764 27.14 27.66C27.252 27.548 27.408 27.492 27.608 27.492C27.808 27.492 27.96 27.548 28.064 27.66C28.176 27.764 28.232 27.92 28.232 28.128V34.932H31.952C32.128 34.932 32.264 34.98 32.36 35.076C32.456 35.164 32.504 35.292 32.504 35.46C32.504 35.628 32.456 35.76 32.36 35.856C32.264 35.952 32.128 36 31.952 36H27.62ZM35.3451 36.108C34.9371 36.108 34.5691 36.028 34.2411 35.868C33.9211 35.708 33.6691 35.492 33.4851 35.22C33.3011 34.948 33.2091 34.64 33.2091 34.296C33.2091 33.864 33.3171 33.524 33.5331 33.276C33.7571 33.02 34.1211 32.84 34.6251 32.736C35.1371 32.624 35.8251 32.568 36.6891 32.568H37.2531V33.312H36.7011C36.1251 33.312 35.6691 33.34 35.3331 33.396C34.9971 33.452 34.7571 33.548 34.6131 33.684C34.4771 33.812 34.4091 33.992 34.4091 34.224C34.4091 34.528 34.5131 34.776 34.7211 34.968C34.9291 35.152 35.2171 35.244 35.5851 35.244C35.8811 35.244 36.1411 35.176 36.3651 35.04C36.5891 34.896 36.7651 34.704 36.8931 34.464C37.0291 34.224 37.0971 33.948 37.0971 33.636V32.256C37.0971 31.8 37.0011 31.472 36.8091 31.272C36.6171 31.072 36.3011 30.972 35.8611 30.972C35.6051 30.972 35.3371 31.004 35.0571 31.068C34.7851 31.132 34.5011 31.24 34.2051 31.392C34.0691 31.456 33.9531 31.476 33.8571 31.452C33.7611 31.428 33.6851 31.376 33.6291 31.296C33.5731 31.208 33.5411 31.116 33.5331 31.02C33.5331 30.916 33.5571 30.816 33.6051 30.72C33.6611 30.624 33.7531 30.552 33.8811 30.504C34.2331 30.336 34.5811 30.216 34.9251 30.144C35.2691 30.072 35.5931 30.036 35.8971 30.036C36.4331 30.036 36.8731 30.12 37.2171 30.288C37.5691 30.456 37.8291 30.712 37.9971 31.056C38.1651 31.4 38.2491 31.844 38.2491 32.388V35.472C38.2491 35.664 38.2011 35.816 38.1051 35.928C38.0091 36.032 37.8691 36.084 37.6851 36.084C37.5091 36.084 37.3691 36.032 37.2651 35.928C37.1611 35.816 37.1091 35.664 37.1091 35.472V34.692H37.2171C37.1531 34.988 37.0331 35.244 36.8571 35.46C36.6891 35.668 36.4771 35.828 36.2211 35.94C35.9651 36.052 35.6731 36.108 35.3451 36.108ZM43.0624 36.108C42.5504 36.108 42.1064 35.98 41.7304 35.724C41.3544 35.46 41.1024 35.112 40.9744 34.68L41.1064 34.464V35.472C41.1064 35.664 41.0544 35.816 40.9504 35.928C40.8464 36.032 40.7024 36.084 40.5184 36.084C40.3264 36.084 40.1784 36.032 40.0744 35.928C39.9704 35.816 39.9184 35.664 39.9184 35.472V28.068C39.9184 27.868 39.9704 27.716 40.0744 27.612C40.1784 27.508 40.3264 27.456 40.5184 27.456C40.7104 27.456 40.8584 27.508 40.9624 27.612C41.0744 27.716 41.1304 27.868 41.1304 28.068V31.428H40.9864C41.1144 31.004 41.3664 30.668 41.7424 30.42C42.1184 30.164 42.5584 30.036 43.0624 30.036C43.5904 30.036 44.0464 30.16 44.4304 30.408C44.8144 30.656 45.1104 31.004 45.3184 31.452C45.5344 31.9 45.6424 32.44 45.6424 33.072C45.6424 33.688 45.5344 34.228 45.3184 34.692C45.1104 35.148 44.8104 35.5 44.4184 35.748C44.0344 35.988 43.5824 36.108 43.0624 36.108ZM42.7624 35.172C43.0984 35.172 43.3904 35.092 43.6384 34.932C43.8864 34.772 44.0784 34.536 44.2144 34.224C44.3504 33.912 44.4184 33.528 44.4184 33.072C44.4184 32.384 44.2664 31.864 43.9624 31.512C43.6664 31.16 43.2664 30.984 42.7624 30.984C42.4344 30.984 42.1424 31.064 41.8864 31.224C41.6384 31.376 41.4464 31.608 41.3104 31.92C41.1744 32.232 41.1064 32.616 41.1064 33.072C41.1064 33.752 41.2584 34.272 41.5624 34.632C41.8664 34.992 42.2664 35.172 42.7624 35.172ZM49.7563 36.108C49.1163 36.108 48.5643 35.988 48.1003 35.748C47.6443 35.5 47.2883 35.152 47.0323 34.704C46.7843 34.248 46.6603 33.708 46.6603 33.084C46.6603 32.476 46.7843 31.944 47.0323 31.488C47.2803 31.032 47.6203 30.676 48.0523 30.42C48.4843 30.164 48.9763 30.036 49.5283 30.036C49.9363 30.036 50.3003 30.104 50.6203 30.24C50.9403 30.368 51.2123 30.56 51.4363 30.816C51.6683 31.064 51.8403 31.368 51.9523 31.728C52.0723 32.088 52.1323 32.492 52.1323 32.94C52.1323 33.076 52.0923 33.18 52.0123 33.252C51.9323 33.316 51.8123 33.348 51.6523 33.348H47.6203V32.604H51.3163L51.1123 32.772C51.1123 32.372 51.0523 32.032 50.9323 31.752C50.8203 31.472 50.6483 31.26 50.4163 31.116C50.1923 30.964 49.9123 30.888 49.5763 30.888C49.2003 30.888 48.8803 30.976 48.6163 31.152C48.3603 31.328 48.1643 31.572 48.0283 31.884C47.8923 32.196 47.8243 32.56 47.8243 32.976V33.048C47.8243 33.752 47.9883 34.284 48.3163 34.644C48.6523 34.996 49.1363 35.172 49.7683 35.172C50.0083 35.172 50.2603 35.14 50.5243 35.076C50.7963 35.012 51.0523 34.904 51.2923 34.752C51.4283 34.672 51.5483 34.636 51.6523 34.644C51.7643 34.652 51.8523 34.688 51.9163 34.752C51.9883 34.816 52.0323 34.896 52.0483 34.992C52.0643 35.088 52.0483 35.188 52.0003 35.292C51.9523 35.388 51.8683 35.476 51.7483 35.556C51.4763 35.74 51.1603 35.88 50.8003 35.976C50.4403 36.064 50.0923 36.108 49.7563 36.108ZM55.3376 36.108C54.7136 36.108 54.2416 35.928 53.9216 35.568C53.6096 35.2 53.4536 34.672 53.4536 33.984V28.068C53.4536 27.868 53.5056 27.716 53.6096 27.612C53.7136 27.508 53.8616 27.456 54.0536 27.456C54.2456 27.456 54.3936 27.508 54.4976 27.612C54.6096 27.716 54.6656 27.868 54.6656 28.068V33.912C54.6656 34.312 54.7456 34.612 54.9056 34.812C55.0736 35.004 55.3136 35.1 55.6256 35.1C55.6976 35.1 55.7616 35.1 55.8176 35.1C55.8736 35.092 55.9296 35.084 55.9856 35.076C56.0816 35.068 56.1496 35.096 56.1896 35.16C56.2296 35.216 56.2496 35.336 56.2496 35.52C56.2496 35.688 56.2136 35.82 56.1416 35.916C56.0696 36.004 55.9536 36.06 55.7936 36.084C55.7216 36.092 55.6456 36.096 55.5656 36.096C55.4856 36.104 55.4096 36.108 55.3376 36.108Z" fill="#929BAA"/>
<circle cx="8" cy="32" r="7.5" fill="#D9D9D9" stroke="#E8EAEF"/>
<defs>
<filter id="filter0_d_541_2994" x="0.512939" y="2.51282" width="14.9744" height="14.9744" filterUnits="userSpaceOnUse" color-interpolation-filters="sRGB">
<feFlood flood-opacity="0" result="BackgroundImageFix"/>
<feColorMatrix in="SourceAlpha" type="matrix" values="0 0 0 0 0 0 0 0 0 0 0 0 0 0 0 0 0 0 127 0" result="hardAlpha"/>
<feOffset dy="2"/>
<feGaussianBlur stdDeviation="2"/>
<feComposite in2="hardAlpha" operator="out"/>
<feColorMatrix type="matrix" values="0 0 0 0 0 0 0 0 0 0 0 0 0 0 0 0 0 0 0.25 0"/>
<feBlend mode="normal" in2="BackgroundImageFix" result="effect1_dropShadow_541_2994"/>
<feBlend mode="normal" in="SourceGraphic" in2="effect1_dropShadow_541_2994" result="shape"/>
</filter>
<linearGradient id="paint0_linear_541_2994" x1="8.00012" y1="4.51282" x2="8.00012" y2="11.4872" gradientUnits="userSpaceOnUse">
<stop stop-opacity="0"/>
<stop offset="1" stop-opacity="0.38"/>
</linearGradient>
</defs>
</svg>
