<svg width="67" height="68" viewBox="0 0 67 68" fill="none" xmlns="http://www.w3.org/2000/svg">
<path d="M27.62 12C27.42 12 27.264 11.944 27.152 11.832C27.04 11.72 26.984 11.564 26.984 11.364V4.128C26.984 3.92 27.036 3.764 27.14 3.66C27.252 3.548 27.408 3.492 27.608 3.492C27.808 3.492 27.96 3.548 28.064 3.66C28.176 3.764 28.232 3.92 28.232 4.128V10.932H31.952C32.128 10.932 32.264 10.98 32.36 11.076C32.456 11.164 32.504 11.292 32.504 11.46C32.504 11.628 32.456 11.76 32.36 11.856C32.264 11.952 32.128 12 31.952 12H27.62ZM35.9585 12.108C35.3665 12.108 34.8545 11.984 34.4225 11.736C33.9985 11.488 33.6665 11.136 33.4265 10.68C33.1865 10.224 33.0665 9.688 33.0665 9.072C33.0665 8.6 33.1345 8.18 33.2705 7.812C33.4065 7.444 33.5985 7.128 33.8465 6.864C34.1025 6.592 34.4065 6.388 34.7585 6.252C35.1185 6.108 35.5185 6.036 35.9585 6.036C36.5425 6.036 37.0465 6.16 37.4705 6.408C37.9025 6.656 38.2385 7.008 38.4785 7.464C38.7185 7.912 38.8385 8.448 38.8385 9.072C38.8385 9.536 38.7705 9.956 38.6345 10.332C38.4985 10.708 38.3025 11.028 38.0465 11.292C37.7985 11.556 37.4945 11.76 37.1345 11.904C36.7825 12.04 36.3905 12.108 35.9585 12.108ZM35.9585 11.172C36.2865 11.172 36.5745 11.092 36.8225 10.932C37.0705 10.772 37.2625 10.536 37.3985 10.224C37.5425 9.912 37.6145 9.528 37.6145 9.072C37.6145 8.384 37.4625 7.864 37.1585 7.512C36.8545 7.16 36.4545 6.984 35.9585 6.984C35.6225 6.984 35.3305 7.064 35.0825 7.224C34.8345 7.376 34.6385 7.608 34.4945 7.92C34.3585 8.232 34.2905 8.616 34.2905 9.072C34.2905 9.752 34.4425 10.272 34.7465 10.632C35.0505 10.992 35.4545 11.172 35.9585 11.172ZM42.2302 12.084C42.0622 12.084 41.9142 12.044 41.7862 11.964C41.6662 11.876 41.5702 11.74 41.4982 11.556L39.7342 6.888C39.6702 6.728 39.6502 6.588 39.6742 6.468C39.6982 6.34 39.7582 6.24 39.8542 6.168C39.9582 6.096 40.0902 6.06 40.2502 6.06C40.3942 6.06 40.5102 6.096 40.5982 6.168C40.6942 6.232 40.7742 6.36 40.8382 6.552L42.4102 10.98H42.1222L43.7542 6.504C43.8102 6.352 43.8862 6.24 43.9822 6.168C44.0782 6.096 44.2022 6.06 44.3542 6.06C44.5062 6.06 44.6302 6.096 44.7262 6.168C44.8302 6.24 44.9062 6.352 44.9542 6.504L46.5502 10.98H46.2862L47.8822 6.528C47.9462 6.344 48.0262 6.22 48.1222 6.156C48.2262 6.092 48.3422 6.06 48.4702 6.06C48.6302 6.06 48.7502 6.1 48.8302 6.18C48.9182 6.26 48.9662 6.364 48.9742 6.492C48.9902 6.612 48.9702 6.744 48.9142 6.888L47.1502 11.556C47.0782 11.732 46.9782 11.864 46.8502 11.952C46.7302 12.04 46.5902 12.084 46.4302 12.084C46.2622 12.084 46.1142 12.04 45.9862 11.952C45.8662 11.864 45.7702 11.732 45.6982 11.556L44.0182 7.008H44.6182L42.9502 11.556C42.8862 11.732 42.7902 11.864 42.6622 11.952C42.5422 12.04 42.3982 12.084 42.2302 12.084Z" fill="#64728C"/>
<path d="M27.572 38.084C27.388 38.084 27.244 38.032 27.14 37.928C27.036 37.824 26.984 37.676 26.984 37.484V30.08C26.984 29.88 27.032 29.728 27.128 29.624C27.232 29.512 27.368 29.456 27.536 29.456C27.68 29.456 27.788 29.484 27.86 29.54C27.94 29.588 28.032 29.68 28.136 29.816L33.08 36.332H32.78V30.044C32.78 29.86 32.828 29.716 32.924 29.612C33.028 29.508 33.172 29.456 33.356 29.456C33.548 29.456 33.692 29.508 33.788 29.612C33.884 29.716 33.932 29.86 33.932 30.044V37.496C33.932 37.68 33.884 37.824 33.788 37.928C33.7 38.032 33.58 38.084 33.428 38.084C33.284 38.084 33.164 38.056 33.068 38C32.98 37.944 32.884 37.848 32.78 37.712L27.86 31.208H28.136V37.484C28.136 37.676 28.088 37.824 27.992 37.928C27.896 38.032 27.756 38.084 27.572 38.084ZM38.314 38.108C37.722 38.108 37.21 37.984 36.778 37.736C36.354 37.488 36.022 37.136 35.782 36.68C35.542 36.224 35.422 35.688 35.422 35.072C35.422 34.6 35.49 34.18 35.626 33.812C35.762 33.444 35.954 33.128 36.202 32.864C36.458 32.592 36.762 32.388 37.114 32.252C37.474 32.108 37.874 32.036 38.314 32.036C38.898 32.036 39.402 32.16 39.826 32.408C40.258 32.656 40.594 33.008 40.834 33.464C41.074 33.912 41.194 34.448 41.194 35.072C41.194 35.536 41.126 35.956 40.99 36.332C40.854 36.708 40.658 37.028 40.402 37.292C40.154 37.556 39.85 37.76 39.49 37.904C39.138 38.04 38.746 38.108 38.314 38.108ZM38.314 37.172C38.642 37.172 38.93 37.092 39.178 36.932C39.426 36.772 39.618 36.536 39.754 36.224C39.898 35.912 39.97 35.528 39.97 35.072C39.97 34.384 39.818 33.864 39.514 33.512C39.21 33.16 38.81 32.984 38.314 32.984C37.978 32.984 37.686 33.064 37.438 33.224C37.19 33.376 36.994 33.608 36.85 33.92C36.714 34.232 36.646 34.616 36.646 35.072C36.646 35.752 36.798 36.272 37.102 36.632C37.406 36.992 37.81 37.172 38.314 37.172ZM43.1671 38.084C42.9671 38.084 42.8151 38.032 42.7111 37.928C42.6071 37.816 42.5551 37.664 42.5551 37.472V32.672C42.5551 32.472 42.6071 32.32 42.7111 32.216C42.8151 32.112 42.9591 32.06 43.1431 32.06C43.3351 32.06 43.4791 32.112 43.5751 32.216C43.6791 32.32 43.7311 32.472 43.7311 32.672V33.548H43.6111C43.7391 33.068 43.9751 32.704 44.3191 32.456C44.6631 32.208 45.1031 32.064 45.6391 32.024C45.7831 32.016 45.8951 32.052 45.9751 32.132C46.0631 32.212 46.1111 32.336 46.1191 32.504C46.1351 32.672 46.0991 32.808 46.0111 32.912C45.9231 33.008 45.7871 33.064 45.6031 33.08L45.3751 33.104C44.8551 33.152 44.4591 33.316 44.1871 33.596C43.9151 33.876 43.7791 34.26 43.7791 34.748V37.472C43.7791 37.664 43.7271 37.816 43.6231 37.928C43.5271 38.032 43.3751 38.084 43.1671 38.084ZM47.6557 38.084C47.4637 38.084 47.3157 38.032 47.2117 37.928C47.1077 37.816 47.0557 37.664 47.0557 37.472V32.672C47.0557 32.472 47.1077 32.32 47.2117 32.216C47.3157 32.112 47.4597 32.06 47.6437 32.06C47.8357 32.06 47.9797 32.112 48.0757 32.216C48.1797 32.32 48.2317 32.472 48.2317 32.672V33.656L48.0997 33.392C48.2597 32.968 48.5077 32.636 48.8437 32.396C49.1797 32.156 49.5837 32.036 50.0557 32.036C50.5437 32.036 50.9397 32.152 51.2437 32.384C51.5477 32.616 51.7557 32.972 51.8677 33.452H51.6997C51.8517 33.012 52.1117 32.668 52.4797 32.42C52.8477 32.164 53.2757 32.036 53.7637 32.036C54.2117 32.036 54.5797 32.124 54.8677 32.3C55.1557 32.468 55.3717 32.728 55.5157 33.08C55.6597 33.424 55.7317 33.86 55.7317 34.388V37.472C55.7317 37.664 55.6757 37.816 55.5637 37.928C55.4597 38.032 55.3117 38.084 55.1197 38.084C54.9277 38.084 54.7797 38.032 54.6757 37.928C54.5717 37.816 54.5197 37.664 54.5197 37.472V34.448C54.5197 33.952 54.4317 33.588 54.2557 33.356C54.0877 33.124 53.8077 33.008 53.4157 33.008C52.9757 33.008 52.6277 33.16 52.3717 33.464C52.1157 33.768 51.9877 34.188 51.9877 34.724V37.472C51.9877 37.664 51.9357 37.816 51.8317 37.928C51.7277 38.032 51.5797 38.084 51.3877 38.084C51.1957 38.084 51.0437 38.032 50.9317 37.928C50.8277 37.816 50.7757 37.664 50.7757 37.472V34.448C50.7757 33.952 50.6917 33.588 50.5237 33.356C50.3557 33.124 50.0757 33.008 49.6837 33.008C49.2437 33.008 48.8957 33.16 48.6397 33.464C48.3917 33.768 48.2677 34.188 48.2677 34.724V37.472C48.2677 37.88 48.0637 38.084 47.6557 38.084ZM59.2982 38.108C58.8902 38.108 58.5222 38.028 58.1942 37.868C57.8742 37.708 57.6222 37.492 57.4382 37.22C57.2542 36.948 57.1622 36.64 57.1622 36.296C57.1622 35.864 57.2702 35.524 57.4862 35.276C57.7102 35.02 58.0742 34.84 58.5782 34.736C59.0902 34.624 59.7782 34.568 60.6422 34.568H61.2062V35.312H60.6542C60.0782 35.312 59.6222 35.34 59.2862 35.396C58.9502 35.452 58.7102 35.548 58.5662 35.684C58.4302 35.812 58.3622 35.992 58.3622 36.224C58.3622 36.528 58.4662 36.776 58.6742 36.968C58.8822 37.152 59.1702 37.244 59.5382 37.244C59.8342 37.244 60.0942 37.176 60.3182 37.04C60.5422 36.896 60.7182 36.704 60.8462 36.464C60.9822 36.224 61.0502 35.948 61.0502 35.636V34.256C61.0502 33.8 60.9542 33.472 60.7622 33.272C60.5702 33.072 60.2542 32.972 59.8142 32.972C59.5582 32.972 59.2902 33.004 59.0102 33.068C58.7382 33.132 58.4542 33.24 58.1582 33.392C58.0222 33.456 57.9062 33.476 57.8102 33.452C57.7142 33.428 57.6382 33.376 57.5822 33.296C57.5262 33.208 57.4942 33.116 57.4862 33.02C57.4862 32.916 57.5102 32.816 57.5582 32.72C57.6142 32.624 57.7062 32.552 57.8342 32.504C58.1862 32.336 58.5342 32.216 58.8782 32.144C59.2222 32.072 59.5462 32.036 59.8502 32.036C60.3862 32.036 60.8262 32.12 61.1702 32.288C61.5222 32.456 61.7822 32.712 61.9502 33.056C62.1182 33.4 62.2022 33.844 62.2022 34.388V37.472C62.2022 37.664 62.1542 37.816 62.0582 37.928C61.9622 38.032 61.8222 38.084 61.6382 38.084C61.4622 38.084 61.3222 38.032 61.2182 37.928C61.1142 37.816 61.0622 37.664 61.0622 37.472V36.692H61.1702C61.1062 36.988 60.9862 37.244 60.8102 37.46C60.6422 37.668 60.4302 37.828 60.1742 37.94C59.9182 38.052 59.6262 38.108 59.2982 38.108ZM65.7555 38.108C65.1315 38.108 64.6595 37.928 64.3395 37.568C64.0275 37.2 63.8715 36.672 63.8715 35.984V30.068C63.8715 29.868 63.9235 29.716 64.0275 29.612C64.1315 29.508 64.2795 29.456 64.4715 29.456C64.6635 29.456 64.8115 29.508 64.9155 29.612C65.0275 29.716 65.0835 29.868 65.0835 30.068V35.912C65.0835 36.312 65.1635 36.612 65.3235 36.812C65.4915 37.004 65.7315 37.1 66.0435 37.1C66.1155 37.1 66.1795 37.1 66.2355 37.1C66.2915 37.092 66.3475 37.084 66.4035 37.076C66.4995 37.068 66.5675 37.096 66.6075 37.16C66.6475 37.216 66.6675 37.336 66.6675 37.52C66.6675 37.688 66.6315 37.82 66.5595 37.916C66.4875 38.004 66.3715 38.06 66.2115 38.084C66.1395 38.092 66.0635 38.096 65.9835 38.096C65.9035 38.104 65.8275 38.108 65.7555 38.108Z" fill="#64728C"/>
<path d="M27.608 64.084C27.408 64.084 27.252 64.028 27.14 63.916C27.036 63.804 26.984 63.648 26.984 63.448V56.092C26.984 55.884 27.036 55.728 27.14 55.624C27.252 55.512 27.408 55.456 27.608 55.456C27.808 55.456 27.96 55.512 28.064 55.624C28.176 55.728 28.232 55.884 28.232 56.092V59.188H32.972V56.092C32.972 55.884 33.024 55.728 33.128 55.624C33.24 55.512 33.396 55.456 33.596 55.456C33.796 55.456 33.948 55.512 34.052 55.624C34.156 55.728 34.208 55.884 34.208 56.092V63.448C34.208 63.648 34.156 63.804 34.052 63.916C33.948 64.028 33.796 64.084 33.596 64.084C33.396 64.084 33.24 64.028 33.128 63.916C33.024 63.804 32.972 63.648 32.972 63.448V60.232H28.232V63.448C28.232 63.648 28.18 63.804 28.076 63.916C27.972 64.028 27.816 64.084 27.608 64.084ZM37.9232 64.108C37.5152 64.108 37.1472 64.028 36.8192 63.868C36.4992 63.708 36.2472 63.492 36.0632 63.22C35.8792 62.948 35.7872 62.64 35.7872 62.296C35.7872 61.864 35.8952 61.524 36.1112 61.276C36.3352 61.02 36.6992 60.84 37.2032 60.736C37.7152 60.624 38.4032 60.568 39.2672 60.568H39.8312V61.312H39.2792C38.7032 61.312 38.2472 61.34 37.9112 61.396C37.5752 61.452 37.3352 61.548 37.1912 61.684C37.0552 61.812 36.9872 61.992 36.9872 62.224C36.9872 62.528 37.0912 62.776 37.2992 62.968C37.5072 63.152 37.7952 63.244 38.1632 63.244C38.4592 63.244 38.7192 63.176 38.9432 63.04C39.1672 62.896 39.3432 62.704 39.4712 62.464C39.6072 62.224 39.6752 61.948 39.6752 61.636V60.256C39.6752 59.8 39.5792 59.472 39.3872 59.272C39.1952 59.072 38.8792 58.972 38.4392 58.972C38.1832 58.972 37.9152 59.004 37.6352 59.068C37.3632 59.132 37.0792 59.24 36.7832 59.392C36.6472 59.456 36.5312 59.476 36.4352 59.452C36.3392 59.428 36.2632 59.376 36.2072 59.296C36.1512 59.208 36.1192 59.116 36.1112 59.02C36.1112 58.916 36.1352 58.816 36.1832 58.72C36.2392 58.624 36.3312 58.552 36.4592 58.504C36.8112 58.336 37.1592 58.216 37.5032 58.144C37.8472 58.072 38.1712 58.036 38.4752 58.036C39.0112 58.036 39.4512 58.12 39.7952 58.288C40.1472 58.456 40.4072 58.712 40.5752 59.056C40.7432 59.4 40.8272 59.844 40.8272 60.388V63.472C40.8272 63.664 40.7792 63.816 40.6832 63.928C40.5872 64.032 40.4472 64.084 40.2632 64.084C40.0872 64.084 39.9472 64.032 39.8432 63.928C39.7392 63.816 39.6872 63.664 39.6872 63.472V62.692H39.7952C39.7312 62.988 39.6112 63.244 39.4352 63.46C39.2672 63.668 39.0552 63.828 38.7992 63.94C38.5432 64.052 38.2512 64.108 37.9232 64.108ZM43.1085 64.084C42.9085 64.084 42.7565 64.032 42.6525 63.928C42.5485 63.816 42.4965 63.664 42.4965 63.472V58.672C42.4965 58.472 42.5485 58.32 42.6525 58.216C42.7565 58.112 42.9005 58.06 43.0845 58.06C43.2765 58.06 43.4205 58.112 43.5165 58.216C43.6205 58.32 43.6725 58.472 43.6725 58.672V59.548H43.5525C43.6805 59.068 43.9165 58.704 44.2605 58.456C44.6045 58.208 45.0445 58.064 45.5805 58.024C45.7245 58.016 45.8365 58.052 45.9165 58.132C46.0045 58.212 46.0525 58.336 46.0605 58.504C46.0765 58.672 46.0405 58.808 45.9525 58.912C45.8645 59.008 45.7285 59.064 45.5445 59.08L45.3165 59.104C44.7965 59.152 44.4005 59.316 44.1285 59.596C43.8565 59.876 43.7205 60.26 43.7205 60.748V63.472C43.7205 63.664 43.6685 63.816 43.5645 63.928C43.4685 64.032 43.3165 64.084 43.1085 64.084ZM49.1231 64.108C48.6111 64.108 48.1591 63.988 47.7671 63.748C47.3831 63.5 47.0831 63.148 46.8671 62.692C46.6511 62.228 46.5431 61.688 46.5431 61.072C46.5431 60.44 46.6511 59.9 46.8671 59.452C47.0831 59.004 47.3831 58.656 47.7671 58.408C48.1591 58.16 48.6111 58.036 49.1231 58.036C49.6351 58.036 50.0751 58.164 50.4431 58.42C50.8191 58.668 51.0711 59.004 51.1991 59.428H51.0671V56.068C51.0671 55.868 51.1191 55.716 51.2231 55.612C51.3271 55.508 51.4751 55.456 51.6671 55.456C51.8591 55.456 52.0071 55.508 52.1111 55.612C52.2231 55.716 52.2791 55.868 52.2791 56.068V63.472C52.2791 63.664 52.2271 63.816 52.1231 63.928C52.0191 64.032 51.8711 64.084 51.6791 64.084C51.4871 64.084 51.3391 64.032 51.2351 63.928C51.1311 63.816 51.0791 63.664 51.0791 63.472V62.416L51.2111 62.68C51.0831 63.112 50.8311 63.46 50.4551 63.724C50.0871 63.98 49.6431 64.108 49.1231 64.108ZM49.4351 63.172C49.7631 63.172 50.0511 63.092 50.2991 62.932C50.5471 62.772 50.7391 62.536 50.8751 62.224C51.0191 61.912 51.0911 61.528 51.0911 61.072C51.0911 60.384 50.9391 59.864 50.6351 59.512C50.3311 59.16 49.9311 58.984 49.4351 58.984C49.0991 58.984 48.8071 59.064 48.5591 59.224C48.3111 59.376 48.1151 59.608 47.9711 59.92C47.8351 60.232 47.7671 60.616 47.7671 61.072C47.7671 61.752 47.9191 62.272 48.2231 62.632C48.5271 62.992 48.9311 63.172 49.4351 63.172Z" fill="#64728C"/>
<circle cx="8" cy="8" r="8" fill="#FE5000"/>
<g filter="url(#filter0_d_541_2995)">
<circle cx="8.00012" cy="8" r="3.48718" fill="white"/>
<circle cx="8.00012" cy="8" r="3.48718" fill="url(#paint0_linear_541_2995)" fill-opacity="0.2"/>
</g>
<circle cx="8" cy="34" r="7.5" fill="white" stroke="#E8EAEF"/>
<circle cx="8" cy="60" r="7.5" fill="white" stroke="#E8EAEF"/>
<defs>
<filter id="filter0_d_541_2995" x="0.512939" y="2.51282" width="14.9744" height="14.9744" filterUnits="userSpaceOnUse" color-interpolation-filters="sRGB">
<feFlood flood-opacity="0" result="BackgroundImageFix"/>
<feColorMatrix in="SourceAlpha" type="matrix" values="0 0 0 0 0 0 0 0 0 0 0 0 0 0 0 0 0 0 127 0" result="hardAlpha"/>
<feOffset dy="2"/>
<feGaussianBlur stdDeviation="2"/>
<feComposite in2="hardAlpha" operator="out"/>
<feColorMatrix type="matrix" values="0 0 0 0 0 0 0 0 0 0 0 0 0 0 0 0 0 0 0.25 0"/>
<feBlend mode="normal" in2="BackgroundImageFix" result="effect1_dropShadow_541_2995"/>
<feBlend mode="normal" in="SourceGraphic" in2="effect1_dropShadow_541_2995" result="shape"/>
</filter>
<linearGradient id="paint0_linear_541_2995" x1="8.00012" y1="4.51282" x2="8.00012" y2="11.4872" gradientUnits="userSpaceOnUse">
<stop stop-opacity="0"/>
<stop offset="1" stop-opacity="0.38"/>
</linearGradient>
</defs>
</svg>
