<svg width="86" height="68" viewBox="0 0 86 68" fill="none" xmlns="http://www.w3.org/2000/svg">
<rect y="21" width="86" height="25" rx="12.5" fill="#64728C" fill-opacity="0.07"/>
<path d="M32.62 12C32.42 12 32.264 11.944 32.152 11.832C32.04 11.72 31.984 11.564 31.984 11.364V4.128C31.984 3.92 32.036 3.764 32.14 3.66C32.252 3.548 32.408 3.492 32.608 3.492C32.808 3.492 32.96 3.548 33.064 3.66C33.176 3.764 33.232 3.92 33.232 4.128V10.932H36.952C37.128 10.932 37.264 10.98 37.36 11.076C37.456 11.164 37.504 11.292 37.504 11.46C37.504 11.628 37.456 11.76 37.36 11.856C37.264 11.952 37.128 12 36.952 12H32.62ZM40.9585 12.108C40.3665 12.108 39.8545 11.984 39.4225 11.736C38.9985 11.488 38.6665 11.136 38.4265 10.68C38.1865 10.224 38.0665 9.688 38.0665 9.072C38.0665 8.6 38.1345 8.18 38.2705 7.812C38.4065 7.444 38.5985 7.128 38.8465 6.864C39.1025 6.592 39.4065 6.388 39.7585 6.252C40.1185 6.108 40.5185 6.036 40.9585 6.036C41.5425 6.036 42.0465 6.16 42.4705 6.408C42.9025 6.656 43.2385 7.008 43.4785 7.464C43.7185 7.912 43.8385 8.448 43.8385 9.072C43.8385 9.536 43.7705 9.956 43.6345 10.332C43.4985 10.708 43.3025 11.028 43.0465 11.292C42.7985 11.556 42.4945 11.76 42.1345 11.904C41.7825 12.04 41.3905 12.108 40.9585 12.108ZM40.9585 11.172C41.2865 11.172 41.5745 11.092 41.8225 10.932C42.0705 10.772 42.2625 10.536 42.3985 10.224C42.5425 9.912 42.6145 9.528 42.6145 9.072C42.6145 8.384 42.4625 7.864 42.1585 7.512C41.8545 7.16 41.4545 6.984 40.9585 6.984C40.6225 6.984 40.3305 7.064 40.0825 7.224C39.8345 7.376 39.6385 7.608 39.4945 7.92C39.3585 8.232 39.2905 8.616 39.2905 9.072C39.2905 9.752 39.4425 10.272 39.7465 10.632C40.0505 10.992 40.4545 11.172 40.9585 11.172ZM47.2302 12.084C47.0622 12.084 46.9142 12.044 46.7862 11.964C46.6662 11.876 46.5702 11.74 46.4982 11.556L44.7342 6.888C44.6702 6.728 44.6502 6.588 44.6742 6.468C44.6982 6.34 44.7582 6.24 44.8542 6.168C44.9582 6.096 45.0902 6.06 45.2502 6.06C45.3942 6.06 45.5102 6.096 45.5982 6.168C45.6942 6.232 45.7742 6.36 45.8382 6.552L47.4102 10.98H47.1222L48.7542 6.504C48.8102 6.352 48.8862 6.24 48.9822 6.168C49.0782 6.096 49.2022 6.06 49.3542 6.06C49.5062 6.06 49.6302 6.096 49.7262 6.168C49.8302 6.24 49.9062 6.352 49.9542 6.504L51.5502 10.98H51.2862L52.8822 6.528C52.9462 6.344 53.0262 6.22 53.1222 6.156C53.2262 6.092 53.3422 6.06 53.4702 6.06C53.6302 6.06 53.7502 6.1 53.8302 6.18C53.9182 6.26 53.9662 6.364 53.9742 6.492C53.9902 6.612 53.9702 6.744 53.9142 6.888L52.1502 11.556C52.0782 11.732 51.9782 11.864 51.8502 11.952C51.7302 12.04 51.5902 12.084 51.4302 12.084C51.2622 12.084 51.1142 12.04 50.9862 11.952C50.8662 11.864 50.7702 11.732 50.6982 11.556L49.0182 7.008H49.6182L47.9502 11.556C47.8862 11.732 47.7902 11.864 47.6622 11.952C47.5422 12.04 47.3982 12.084 47.2302 12.084Z" fill="#64728C"/>
<path d="M32.572 38.084C32.388 38.084 32.244 38.032 32.14 37.928C32.036 37.824 31.984 37.676 31.984 37.484V30.08C31.984 29.88 32.032 29.728 32.128 29.624C32.232 29.512 32.368 29.456 32.536 29.456C32.68 29.456 32.788 29.484 32.86 29.54C32.94 29.588 33.032 29.68 33.136 29.816L38.08 36.332H37.78V30.044C37.78 29.86 37.828 29.716 37.924 29.612C38.028 29.508 38.172 29.456 38.356 29.456C38.548 29.456 38.692 29.508 38.788 29.612C38.884 29.716 38.932 29.86 38.932 30.044V37.496C38.932 37.68 38.884 37.824 38.788 37.928C38.7 38.032 38.58 38.084 38.428 38.084C38.284 38.084 38.164 38.056 38.068 38C37.98 37.944 37.884 37.848 37.78 37.712L32.86 31.208H33.136V37.484C33.136 37.676 33.088 37.824 32.992 37.928C32.896 38.032 32.756 38.084 32.572 38.084ZM43.314 38.108C42.722 38.108 42.21 37.984 41.778 37.736C41.354 37.488 41.022 37.136 40.782 36.68C40.542 36.224 40.422 35.688 40.422 35.072C40.422 34.6 40.49 34.18 40.626 33.812C40.762 33.444 40.954 33.128 41.202 32.864C41.458 32.592 41.762 32.388 42.114 32.252C42.474 32.108 42.874 32.036 43.314 32.036C43.898 32.036 44.402 32.16 44.826 32.408C45.258 32.656 45.594 33.008 45.834 33.464C46.074 33.912 46.194 34.448 46.194 35.072C46.194 35.536 46.126 35.956 45.99 36.332C45.854 36.708 45.658 37.028 45.402 37.292C45.154 37.556 44.85 37.76 44.49 37.904C44.138 38.04 43.746 38.108 43.314 38.108ZM43.314 37.172C43.642 37.172 43.93 37.092 44.178 36.932C44.426 36.772 44.618 36.536 44.754 36.224C44.898 35.912 44.97 35.528 44.97 35.072C44.97 34.384 44.818 33.864 44.514 33.512C44.21 33.16 43.81 32.984 43.314 32.984C42.978 32.984 42.686 33.064 42.438 33.224C42.19 33.376 41.994 33.608 41.85 33.92C41.714 34.232 41.646 34.616 41.646 35.072C41.646 35.752 41.798 36.272 42.102 36.632C42.406 36.992 42.81 37.172 43.314 37.172ZM48.1671 38.084C47.9671 38.084 47.8151 38.032 47.7111 37.928C47.6071 37.816 47.5551 37.664 47.5551 37.472V32.672C47.5551 32.472 47.6071 32.32 47.7111 32.216C47.8151 32.112 47.9591 32.06 48.1431 32.06C48.3351 32.06 48.4791 32.112 48.5751 32.216C48.6791 32.32 48.7311 32.472 48.7311 32.672V33.548H48.6111C48.7391 33.068 48.9751 32.704 49.3191 32.456C49.6631 32.208 50.1031 32.064 50.6391 32.024C50.7831 32.016 50.8951 32.052 50.9751 32.132C51.0631 32.212 51.1111 32.336 51.1191 32.504C51.1351 32.672 51.0991 32.808 51.0111 32.912C50.9231 33.008 50.7871 33.064 50.6031 33.08L50.3751 33.104C49.8551 33.152 49.4591 33.316 49.1871 33.596C48.9151 33.876 48.7791 34.26 48.7791 34.748V37.472C48.7791 37.664 48.7271 37.816 48.6231 37.928C48.5271 38.032 48.3751 38.084 48.1671 38.084ZM52.6557 38.084C52.4637 38.084 52.3157 38.032 52.2117 37.928C52.1077 37.816 52.0557 37.664 52.0557 37.472V32.672C52.0557 32.472 52.1077 32.32 52.2117 32.216C52.3157 32.112 52.4597 32.06 52.6437 32.06C52.8357 32.06 52.9797 32.112 53.0757 32.216C53.1797 32.32 53.2317 32.472 53.2317 32.672V33.656L53.0997 33.392C53.2597 32.968 53.5077 32.636 53.8437 32.396C54.1797 32.156 54.5837 32.036 55.0557 32.036C55.5437 32.036 55.9397 32.152 56.2437 32.384C56.5477 32.616 56.7557 32.972 56.8677 33.452H56.6997C56.8517 33.012 57.1117 32.668 57.4797 32.42C57.8477 32.164 58.2757 32.036 58.7637 32.036C59.2117 32.036 59.5797 32.124 59.8677 32.3C60.1557 32.468 60.3717 32.728 60.5157 33.08C60.6597 33.424 60.7317 33.86 60.7317 34.388V37.472C60.7317 37.664 60.6757 37.816 60.5637 37.928C60.4597 38.032 60.3117 38.084 60.1197 38.084C59.9277 38.084 59.7797 38.032 59.6757 37.928C59.5717 37.816 59.5197 37.664 59.5197 37.472V34.448C59.5197 33.952 59.4317 33.588 59.2557 33.356C59.0877 33.124 58.8077 33.008 58.4157 33.008C57.9757 33.008 57.6277 33.16 57.3717 33.464C57.1157 33.768 56.9877 34.188 56.9877 34.724V37.472C56.9877 37.664 56.9357 37.816 56.8317 37.928C56.7277 38.032 56.5797 38.084 56.3877 38.084C56.1957 38.084 56.0437 38.032 55.9317 37.928C55.8277 37.816 55.7757 37.664 55.7757 37.472V34.448C55.7757 33.952 55.6917 33.588 55.5237 33.356C55.3557 33.124 55.0757 33.008 54.6837 33.008C54.2437 33.008 53.8957 33.16 53.6397 33.464C53.3917 33.768 53.2677 34.188 53.2677 34.724V37.472C53.2677 37.88 53.0637 38.084 52.6557 38.084ZM64.2982 38.108C63.8902 38.108 63.5222 38.028 63.1942 37.868C62.8742 37.708 62.6222 37.492 62.4382 37.22C62.2542 36.948 62.1622 36.64 62.1622 36.296C62.1622 35.864 62.2702 35.524 62.4862 35.276C62.7102 35.02 63.0742 34.84 63.5782 34.736C64.0902 34.624 64.7782 34.568 65.6422 34.568H66.2062V35.312H65.6542C65.0782 35.312 64.6222 35.34 64.2862 35.396C63.9502 35.452 63.7102 35.548 63.5662 35.684C63.4302 35.812 63.3622 35.992 63.3622 36.224C63.3622 36.528 63.4662 36.776 63.6742 36.968C63.8822 37.152 64.1702 37.244 64.5382 37.244C64.8342 37.244 65.0942 37.176 65.3182 37.04C65.5422 36.896 65.7182 36.704 65.8462 36.464C65.9822 36.224 66.0502 35.948 66.0502 35.636V34.256C66.0502 33.8 65.9542 33.472 65.7622 33.272C65.5702 33.072 65.2542 32.972 64.8142 32.972C64.5582 32.972 64.2902 33.004 64.0102 33.068C63.7382 33.132 63.4542 33.24 63.1582 33.392C63.0222 33.456 62.9062 33.476 62.8102 33.452C62.7142 33.428 62.6382 33.376 62.5822 33.296C62.5262 33.208 62.4942 33.116 62.4862 33.02C62.4862 32.916 62.5102 32.816 62.5582 32.72C62.6142 32.624 62.7062 32.552 62.8342 32.504C63.1862 32.336 63.5342 32.216 63.8782 32.144C64.2222 32.072 64.5462 32.036 64.8502 32.036C65.3862 32.036 65.8262 32.12 66.1702 32.288C66.5222 32.456 66.7822 32.712 66.9502 33.056C67.1182 33.4 67.2022 33.844 67.2022 34.388V37.472C67.2022 37.664 67.1542 37.816 67.0582 37.928C66.9622 38.032 66.8222 38.084 66.6382 38.084C66.4622 38.084 66.3222 38.032 66.2182 37.928C66.1142 37.816 66.0622 37.664 66.0622 37.472V36.692H66.1702C66.1062 36.988 65.9862 37.244 65.8102 37.46C65.6422 37.668 65.4302 37.828 65.1742 37.94C64.9182 38.052 64.6262 38.108 64.2982 38.108ZM70.7555 38.108C70.1315 38.108 69.6595 37.928 69.3395 37.568C69.0275 37.2 68.8715 36.672 68.8715 35.984V30.068C68.8715 29.868 68.9235 29.716 69.0275 29.612C69.1315 29.508 69.2795 29.456 69.4715 29.456C69.6635 29.456 69.8115 29.508 69.9155 29.612C70.0275 29.716 70.0835 29.868 70.0835 30.068V35.912C70.0835 36.312 70.1635 36.612 70.3235 36.812C70.4915 37.004 70.7315 37.1 71.0435 37.1C71.1155 37.1 71.1795 37.1 71.2355 37.1C71.2915 37.092 71.3475 37.084 71.4035 37.076C71.4995 37.068 71.5675 37.096 71.6075 37.16C71.6475 37.216 71.6675 37.336 71.6675 37.52C71.6675 37.688 71.6315 37.82 71.5595 37.916C71.4875 38.004 71.3715 38.06 71.2115 38.084C71.1395 38.092 71.0635 38.096 70.9835 38.096C70.9035 38.104 70.8275 38.108 70.7555 38.108Z" fill="#64728C"/>
<path d="M32.608 64.084C32.408 64.084 32.252 64.028 32.14 63.916C32.036 63.804 31.984 63.648 31.984 63.448V56.092C31.984 55.884 32.036 55.728 32.14 55.624C32.252 55.512 32.408 55.456 32.608 55.456C32.808 55.456 32.96 55.512 33.064 55.624C33.176 55.728 33.232 55.884 33.232 56.092V59.188H37.972V56.092C37.972 55.884 38.024 55.728 38.128 55.624C38.24 55.512 38.396 55.456 38.596 55.456C38.796 55.456 38.948 55.512 39.052 55.624C39.156 55.728 39.208 55.884 39.208 56.092V63.448C39.208 63.648 39.156 63.804 39.052 63.916C38.948 64.028 38.796 64.084 38.596 64.084C38.396 64.084 38.24 64.028 38.128 63.916C38.024 63.804 37.972 63.648 37.972 63.448V60.232H33.232V63.448C33.232 63.648 33.18 63.804 33.076 63.916C32.972 64.028 32.816 64.084 32.608 64.084ZM42.9232 64.108C42.5152 64.108 42.1472 64.028 41.8192 63.868C41.4992 63.708 41.2472 63.492 41.0632 63.22C40.8792 62.948 40.7872 62.64 40.7872 62.296C40.7872 61.864 40.8952 61.524 41.1112 61.276C41.3352 61.02 41.6992 60.84 42.2032 60.736C42.7152 60.624 43.4032 60.568 44.2672 60.568H44.8312V61.312H44.2792C43.7032 61.312 43.2472 61.34 42.9112 61.396C42.5752 61.452 42.3352 61.548 42.1912 61.684C42.0552 61.812 41.9872 61.992 41.9872 62.224C41.9872 62.528 42.0912 62.776 42.2992 62.968C42.5072 63.152 42.7952 63.244 43.1632 63.244C43.4592 63.244 43.7192 63.176 43.9432 63.04C44.1672 62.896 44.3432 62.704 44.4712 62.464C44.6072 62.224 44.6752 61.948 44.6752 61.636V60.256C44.6752 59.8 44.5792 59.472 44.3872 59.272C44.1952 59.072 43.8792 58.972 43.4392 58.972C43.1832 58.972 42.9152 59.004 42.6352 59.068C42.3632 59.132 42.0792 59.24 41.7832 59.392C41.6472 59.456 41.5312 59.476 41.4352 59.452C41.3392 59.428 41.2632 59.376 41.2072 59.296C41.1512 59.208 41.1192 59.116 41.1112 59.02C41.1112 58.916 41.1352 58.816 41.1832 58.72C41.2392 58.624 41.3312 58.552 41.4592 58.504C41.8112 58.336 42.1592 58.216 42.5032 58.144C42.8472 58.072 43.1712 58.036 43.4752 58.036C44.0112 58.036 44.4512 58.12 44.7952 58.288C45.1472 58.456 45.4072 58.712 45.5752 59.056C45.7432 59.4 45.8272 59.844 45.8272 60.388V63.472C45.8272 63.664 45.7792 63.816 45.6832 63.928C45.5872 64.032 45.4472 64.084 45.2632 64.084C45.0872 64.084 44.9472 64.032 44.8432 63.928C44.7392 63.816 44.6872 63.664 44.6872 63.472V62.692H44.7952C44.7312 62.988 44.6112 63.244 44.4352 63.46C44.2672 63.668 44.0552 63.828 43.7992 63.94C43.5432 64.052 43.2512 64.108 42.9232 64.108ZM48.1085 64.084C47.9085 64.084 47.7565 64.032 47.6525 63.928C47.5485 63.816 47.4965 63.664 47.4965 63.472V58.672C47.4965 58.472 47.5485 58.32 47.6525 58.216C47.7565 58.112 47.9005 58.06 48.0845 58.06C48.2765 58.06 48.4205 58.112 48.5165 58.216C48.6205 58.32 48.6725 58.472 48.6725 58.672V59.548H48.5525C48.6805 59.068 48.9165 58.704 49.2605 58.456C49.6045 58.208 50.0445 58.064 50.5805 58.024C50.7245 58.016 50.8365 58.052 50.9165 58.132C51.0045 58.212 51.0525 58.336 51.0605 58.504C51.0765 58.672 51.0405 58.808 50.9525 58.912C50.8645 59.008 50.7285 59.064 50.5445 59.08L50.3165 59.104C49.7965 59.152 49.4005 59.316 49.1285 59.596C48.8565 59.876 48.7205 60.26 48.7205 60.748V63.472C48.7205 63.664 48.6685 63.816 48.5645 63.928C48.4685 64.032 48.3165 64.084 48.1085 64.084ZM54.1231 64.108C53.6111 64.108 53.1591 63.988 52.7671 63.748C52.3831 63.5 52.0831 63.148 51.8671 62.692C51.6511 62.228 51.5431 61.688 51.5431 61.072C51.5431 60.44 51.6511 59.9 51.8671 59.452C52.0831 59.004 52.3831 58.656 52.7671 58.408C53.1591 58.16 53.6111 58.036 54.1231 58.036C54.6351 58.036 55.0751 58.164 55.4431 58.42C55.8191 58.668 56.0711 59.004 56.1991 59.428H56.0671V56.068C56.0671 55.868 56.1191 55.716 56.2231 55.612C56.3271 55.508 56.4751 55.456 56.6671 55.456C56.8591 55.456 57.0071 55.508 57.1111 55.612C57.2231 55.716 57.2791 55.868 57.2791 56.068V63.472C57.2791 63.664 57.2271 63.816 57.1231 63.928C57.0191 64.032 56.8711 64.084 56.6791 64.084C56.4871 64.084 56.3391 64.032 56.2351 63.928C56.1311 63.816 56.0791 63.664 56.0791 63.472V62.416L56.2111 62.68C56.0831 63.112 55.8311 63.46 55.4551 63.724C55.0871 63.98 54.6431 64.108 54.1231 64.108ZM54.4351 63.172C54.7631 63.172 55.0511 63.092 55.2991 62.932C55.5471 62.772 55.7391 62.536 55.8751 62.224C56.0191 61.912 56.0911 61.528 56.0911 61.072C56.0911 60.384 55.9391 59.864 55.6351 59.512C55.3311 59.16 54.9311 58.984 54.4351 58.984C54.0991 58.984 53.8071 59.064 53.5591 59.224C53.3111 59.376 53.1151 59.608 52.9711 59.92C52.8351 60.232 52.7671 60.616 52.7671 61.072C52.7671 61.752 52.9191 62.272 53.2231 62.632C53.5271 62.992 53.9311 63.172 54.4351 63.172Z" fill="#64728C"/>
<circle cx="13" cy="8" r="8" fill="#FE5000"/>
<g filter="url(#filter0_d_541_3007)">
<circle cx="13.0001" cy="8" r="3.48718" fill="white"/>
<circle cx="13.0001" cy="8" r="3.48718" fill="url(#paint0_linear_541_3007)" fill-opacity="0.2"/>
</g>
<circle cx="13" cy="34" r="7.5" fill="white" stroke="#E8EAEF"/>
<circle cx="13" cy="60" r="7.5" fill="white" stroke="#E8EAEF"/>
<defs>
<filter id="filter0_d_541_3007" x="5.51294" y="2.51282" width="14.9744" height="14.9744" filterUnits="userSpaceOnUse" color-interpolation-filters="sRGB">
<feFlood flood-opacity="0" result="BackgroundImageFix"/>
<feColorMatrix in="SourceAlpha" type="matrix" values="0 0 0 0 0 0 0 0 0 0 0 0 0 0 0 0 0 0 127 0" result="hardAlpha"/>
<feOffset dy="2"/>
<feGaussianBlur stdDeviation="2"/>
<feComposite in2="hardAlpha" operator="out"/>
<feColorMatrix type="matrix" values="0 0 0 0 0 0 0 0 0 0 0 0 0 0 0 0 0 0 0.25 0"/>
<feBlend mode="normal" in2="BackgroundImageFix" result="effect1_dropShadow_541_3007"/>
<feBlend mode="normal" in="SourceGraphic" in2="effect1_dropShadow_541_3007" result="shape"/>
</filter>
<linearGradient id="paint0_linear_541_3007" x1="13.0001" y1="4.51282" x2="13.0001" y2="11.4872" gradientUnits="userSpaceOnUse">
<stop stop-opacity="0"/>
<stop offset="1" stop-opacity="0.38"/>
</linearGradient>
</defs>
</svg>
