<svg width="58" height="18" viewBox="0 0 58 18" fill="none" xmlns="http://www.w3.org/2000/svg">
<path d="M27.608 12.084C27.408 12.084 27.252 12.028 27.14 11.916C27.036 11.804 26.984 11.648 26.984 11.448V4.176C26.984 3.968 27.04 3.812 27.152 3.708C27.264 3.596 27.42 3.54 27.62 3.54H30.488C31.4 3.54 32.104 3.756 32.6 4.188C33.096 4.62 33.344 5.232 33.344 6.024C33.344 6.536 33.232 6.976 33.008 7.344C32.784 7.712 32.456 7.992 32.024 8.184C31.6 8.376 31.088 8.472 30.488 8.472L30.596 8.304H30.908C31.228 8.304 31.504 8.384 31.736 8.544C31.976 8.704 32.192 8.96 32.384 9.312L33.416 11.232C33.496 11.376 33.532 11.516 33.524 11.652C33.524 11.78 33.476 11.884 33.38 11.964C33.292 12.044 33.164 12.084 32.996 12.084C32.82 12.084 32.676 12.048 32.564 11.976C32.46 11.896 32.364 11.78 32.276 11.628L31.016 9.3C30.848 8.988 30.656 8.78 30.44 8.676C30.224 8.564 29.94 8.508 29.588 8.508H28.232V11.448C28.232 11.648 28.18 11.804 28.076 11.916C27.972 12.028 27.816 12.084 27.608 12.084ZM28.232 7.572H30.284C30.892 7.572 31.352 7.444 31.664 7.188C31.976 6.932 32.132 6.552 32.132 6.048C32.132 5.552 31.976 5.176 31.664 4.92C31.352 4.664 30.892 4.536 30.284 4.536H28.232V7.572ZM36.8099 12.108C36.4019 12.108 36.0339 12.028 35.7059 11.868C35.3859 11.708 35.1339 11.492 34.9499 11.22C34.7659 10.948 34.6739 10.64 34.6739 10.296C34.6739 9.864 34.7819 9.524 34.9979 9.276C35.2219 9.02 35.5859 8.84 36.0899 8.736C36.6019 8.624 37.2899 8.568 38.1539 8.568H38.7179V9.312H38.1659C37.5899 9.312 37.1339 9.34 36.7979 9.396C36.4619 9.452 36.2219 9.548 36.0779 9.684C35.9419 9.812 35.8739 9.992 35.8739 10.224C35.8739 10.528 35.9779 10.776 36.1859 10.968C36.3939 11.152 36.6819 11.244 37.0499 11.244C37.3459 11.244 37.6059 11.176 37.8299 11.04C38.0539 10.896 38.2299 10.704 38.3579 10.464C38.4939 10.224 38.5619 9.948 38.5619 9.636V8.256C38.5619 7.8 38.4659 7.472 38.2739 7.272C38.0819 7.072 37.7659 6.972 37.3259 6.972C37.0699 6.972 36.8019 7.004 36.5219 7.068C36.2499 7.132 35.9659 7.24 35.6699 7.392C35.5339 7.456 35.4179 7.476 35.3219 7.452C35.2259 7.428 35.1499 7.376 35.0939 7.296C35.0379 7.208 35.0059 7.116 34.9979 7.02C34.9979 6.916 35.0219 6.816 35.0699 6.72C35.1259 6.624 35.2179 6.552 35.3459 6.504C35.6979 6.336 36.0459 6.216 36.3899 6.144C36.7339 6.072 37.0579 6.036 37.3619 6.036C37.8979 6.036 38.3379 6.12 38.6819 6.288C39.0339 6.456 39.2939 6.712 39.4619 7.056C39.6299 7.4 39.7139 7.844 39.7139 8.388V11.472C39.7139 11.664 39.6659 11.816 39.5699 11.928C39.4739 12.032 39.3339 12.084 39.1499 12.084C38.9739 12.084 38.8339 12.032 38.7299 11.928C38.6259 11.816 38.5739 11.664 38.5739 11.472V10.692H38.6819C38.6179 10.988 38.4979 11.244 38.3219 11.46C38.1539 11.668 37.9419 11.828 37.6859 11.94C37.4299 12.052 37.1379 12.108 36.8099 12.108ZM43.6152 12.108C43.1033 12.108 42.6513 11.988 42.2593 11.748C41.8753 11.5 41.5753 11.148 41.3593 10.692C41.1433 10.228 41.0353 9.688 41.0353 9.072C41.0353 8.44 41.1433 7.9 41.3593 7.452C41.5753 7.004 41.8753 6.656 42.2593 6.408C42.6513 6.16 43.1033 6.036 43.6152 6.036C44.1273 6.036 44.5673 6.164 44.9353 6.42C45.3113 6.668 45.5633 7.004 45.6913 7.428H45.5593V4.068C45.5593 3.868 45.6113 3.716 45.7153 3.612C45.8193 3.508 45.9673 3.456 46.1593 3.456C46.3513 3.456 46.4993 3.508 46.6033 3.612C46.7153 3.716 46.7713 3.868 46.7713 4.068V11.472C46.7713 11.664 46.7193 11.816 46.6153 11.928C46.5113 12.032 46.3633 12.084 46.1713 12.084C45.9793 12.084 45.8313 12.032 45.7273 11.928C45.6233 11.816 45.5713 11.664 45.5713 11.472V10.416L45.7033 10.68C45.5753 11.112 45.3233 11.46 44.9473 11.724C44.5793 11.98 44.1353 12.108 43.6152 12.108ZM43.9273 11.172C44.2553 11.172 44.5433 11.092 44.7913 10.932C45.0393 10.772 45.2313 10.536 45.3673 10.224C45.5113 9.912 45.5833 9.528 45.5833 9.072C45.5833 8.384 45.4313 7.864 45.1273 7.512C44.8233 7.16 44.4233 6.984 43.9273 6.984C43.5913 6.984 43.2993 7.064 43.0513 7.224C42.8033 7.376 42.6073 7.608 42.4633 7.92C42.3273 8.232 42.2593 8.616 42.2593 9.072C42.2593 9.752 42.4113 10.272 42.7153 10.632C43.0193 10.992 43.4233 11.172 43.9273 11.172ZM49.0731 12.072C48.8811 12.072 48.7331 12.016 48.6291 11.904C48.5251 11.784 48.4731 11.62 48.4731 11.412V6.732C48.4731 6.524 48.5251 6.364 48.6291 6.252C48.7331 6.14 48.8811 6.084 49.0731 6.084C49.2651 6.084 49.4131 6.14 49.5171 6.252C49.6291 6.364 49.6851 6.524 49.6851 6.732V11.412C49.6851 11.62 49.6331 11.784 49.5291 11.904C49.4251 12.016 49.2731 12.072 49.0731 12.072ZM49.0731 4.836C48.8331 4.836 48.6451 4.776 48.5091 4.656C48.3811 4.536 48.3171 4.368 48.3171 4.152C48.3171 3.928 48.3811 3.76 48.5091 3.648C48.6451 3.528 48.8331 3.468 49.0731 3.468C49.3131 3.468 49.4971 3.528 49.6251 3.648C49.7611 3.76 49.8291 3.928 49.8291 4.152C49.8291 4.368 49.7611 4.536 49.6251 4.656C49.4971 4.776 49.3131 4.836 49.0731 4.836ZM53.9351 12.108C53.3431 12.108 52.8311 11.984 52.3991 11.736C51.9751 11.488 51.6431 11.136 51.4031 10.68C51.1631 10.224 51.0431 9.688 51.0431 9.072C51.0431 8.6 51.1111 8.18 51.2471 7.812C51.3831 7.444 51.5751 7.128 51.8231 6.864C52.0791 6.592 52.3831 6.388 52.7351 6.252C53.0951 6.108 53.4951 6.036 53.9351 6.036C54.5191 6.036 55.0231 6.16 55.4471 6.408C55.8791 6.656 56.2151 7.008 56.4551 7.464C56.6951 7.912 56.8151 8.448 56.8151 9.072C56.8151 9.536 56.7471 9.956 56.6111 10.332C56.4751 10.708 56.2791 11.028 56.0231 11.292C55.7751 11.556 55.4711 11.76 55.1111 11.904C54.7591 12.04 54.3671 12.108 53.9351 12.108ZM53.9351 11.172C54.2631 11.172 54.5511 11.092 54.7991 10.932C55.0471 10.772 55.2391 10.536 55.3751 10.224C55.5191 9.912 55.5911 9.528 55.5911 9.072C55.5911 8.384 55.4391 7.864 55.1351 7.512C54.8311 7.16 54.4311 6.984 53.9351 6.984C53.5991 6.984 53.3071 7.064 53.0591 7.224C52.8111 7.376 52.6151 7.608 52.4711 7.92C52.3351 8.232 52.2671 8.616 52.2671 9.072C52.2671 9.752 52.4191 10.272 52.7231 10.632C53.0271 10.992 53.4311 11.172 53.9351 11.172Z" fill="#64728C"/>
<circle cx="8" cy="8" r="8" fill="#76BC21"/>
<g filter="url(#filter0_d_542_3020)">
<circle cx="8.00012" cy="8" r="3.48718" fill="white"/>
<circle cx="8.00012" cy="8" r="3.48718" fill="url(#paint0_linear_542_3020)" fill-opacity="0.2"/>
</g>
<defs>
<filter id="filter0_d_542_3020" x="0.512939" y="2.51282" width="14.9744" height="14.9744" filterUnits="userSpaceOnUse" color-interpolation-filters="sRGB">
<feFlood flood-opacity="0" result="BackgroundImageFix"/>
<feColorMatrix in="SourceAlpha" type="matrix" values="0 0 0 0 0 0 0 0 0 0 0 0 0 0 0 0 0 0 127 0" result="hardAlpha"/>
<feOffset dy="2"/>
<feGaussianBlur stdDeviation="2"/>
<feComposite in2="hardAlpha" operator="out"/>
<feColorMatrix type="matrix" values="0 0 0 0 0 0 0 0 0 0 0 0 0 0 0 0 0 0 0.25 0"/>
<feBlend mode="normal" in2="BackgroundImageFix" result="effect1_dropShadow_542_3020"/>
<feBlend mode="normal" in="SourceGraphic" in2="effect1_dropShadow_542_3020" result="shape"/>
</filter>
<linearGradient id="paint0_linear_542_3020" x1="8.00012" y1="4.51282" x2="8.00012" y2="11.4872" gradientUnits="userSpaceOnUse">
<stop stop-opacity="0"/>
<stop offset="1" stop-opacity="0.38"/>
</linearGradient>
</defs>
</svg>
