<svg width="300" height="38" viewBox="0 0 300 38" fill="none" xmlns="http://www.w3.org/2000/svg">
<rect x="0.5" y="0.5" width="299" height="37" rx="18.5" fill="white"/>
<rect x="0.5" y="0.5" width="299" height="37" rx="18.5" stroke="#E8EAEF"/>
<path d="M15.804 23.108C15.436 23.108 15.076 23.08 14.724 23.024C14.372 22.968 14.04 22.884 13.728 22.772C13.416 22.652 13.136 22.508 12.888 22.34C12.768 22.252 12.684 22.152 12.636 22.04C12.596 21.928 12.584 21.82 12.6 21.716C12.624 21.604 12.672 21.508 12.744 21.428C12.816 21.348 12.904 21.3 13.008 21.284C13.112 21.26 13.228 21.292 13.356 21.38C13.716 21.612 14.096 21.784 14.496 21.896C14.896 22 15.332 22.052 15.804 22.052C16.484 22.052 16.984 21.932 17.304 21.692C17.632 21.444 17.796 21.124 17.796 20.732C17.796 20.412 17.68 20.16 17.448 19.976C17.216 19.784 16.828 19.632 16.284 19.52L15 19.256C14.24 19.096 13.672 18.832 13.296 18.464C12.928 18.096 12.744 17.6 12.744 16.976C12.744 16.6 12.82 16.256 12.972 15.944C13.132 15.632 13.352 15.364 13.632 15.14C13.912 14.908 14.248 14.732 14.64 14.612C15.032 14.492 15.46 14.432 15.924 14.432C16.42 14.432 16.884 14.496 17.316 14.624C17.756 14.752 18.148 14.948 18.492 15.212C18.596 15.284 18.664 15.376 18.696 15.488C18.736 15.592 18.744 15.696 18.72 15.8C18.704 15.904 18.66 15.992 18.588 16.064C18.516 16.136 18.424 16.18 18.312 16.196C18.2 16.204 18.076 16.164 17.94 16.076C17.628 15.868 17.308 15.72 16.98 15.632C16.66 15.536 16.304 15.488 15.912 15.488C15.52 15.488 15.176 15.548 14.88 15.668C14.592 15.788 14.368 15.956 14.208 16.172C14.056 16.388 13.98 16.644 13.98 16.94C13.98 17.276 14.088 17.544 14.304 17.744C14.52 17.944 14.88 18.096 15.384 18.2L16.656 18.464C17.456 18.632 18.052 18.892 18.444 19.244C18.836 19.596 19.032 20.064 19.032 20.648C19.032 21.024 18.956 21.364 18.804 21.668C18.652 21.964 18.436 22.22 18.156 22.436C17.876 22.652 17.536 22.82 17.136 22.94C16.744 23.052 16.3 23.108 15.804 23.108ZM22.4048 23.108C21.9328 23.108 21.5368 23.02 21.2168 22.844C20.9048 22.668 20.6688 22.408 20.5088 22.064C20.3568 21.712 20.2808 21.272 20.2808 20.744V17.672C20.2808 17.464 20.3328 17.312 20.4368 17.216C20.5408 17.112 20.6888 17.06 20.8808 17.06C21.0728 17.06 21.2208 17.112 21.3248 17.216C21.4368 17.312 21.4928 17.464 21.4928 17.672V20.756C21.4928 21.228 21.5888 21.576 21.7808 21.8C21.9728 22.024 22.2768 22.136 22.6928 22.136C23.1488 22.136 23.5168 21.984 23.7968 21.68C24.0848 21.368 24.2288 20.96 24.2288 20.456V17.672C24.2288 17.464 24.2808 17.312 24.3848 17.216C24.4888 17.112 24.6408 17.06 24.8408 17.06C25.0328 17.06 25.1808 17.112 25.2848 17.216C25.3888 17.312 25.4408 17.464 25.4408 17.672V22.472C25.4408 22.88 25.2448 23.084 24.8528 23.084C24.6688 23.084 24.5248 23.032 24.4208 22.928C24.3168 22.816 24.2648 22.664 24.2648 22.472V21.452L24.4208 21.716C24.2608 22.164 24.0048 22.508 23.6528 22.748C23.3008 22.988 22.8848 23.108 22.4048 23.108ZM30.2929 23.108C29.7809 23.108 29.3369 22.98 28.9609 22.724C28.5849 22.46 28.3329 22.112 28.2049 21.68L28.3369 21.464V22.472C28.3369 22.664 28.2849 22.816 28.1809 22.928C28.0769 23.032 27.9329 23.084 27.7489 23.084C27.5569 23.084 27.4089 23.032 27.3049 22.928C27.2009 22.816 27.1489 22.664 27.1489 22.472V15.068C27.1489 14.868 27.2009 14.716 27.3049 14.612C27.4089 14.508 27.5569 14.456 27.7489 14.456C27.9409 14.456 28.0889 14.508 28.1929 14.612C28.3049 14.716 28.3609 14.868 28.3609 15.068V18.428H28.2169C28.3449 18.004 28.5969 17.668 28.9729 17.42C29.3489 17.164 29.7889 17.036 30.2929 17.036C30.8209 17.036 31.2769 17.16 31.6609 17.408C32.0449 17.656 32.3409 18.004 32.5489 18.452C32.7649 18.9 32.8729 19.44 32.8729 20.072C32.8729 20.688 32.7649 21.228 32.5489 21.692C32.3409 22.148 32.0409 22.5 31.6489 22.748C31.2649 22.988 30.8129 23.108 30.2929 23.108ZM29.9929 22.172C30.3289 22.172 30.6209 22.092 30.8689 21.932C31.1169 21.772 31.3089 21.536 31.4449 21.224C31.5809 20.912 31.6489 20.528 31.6489 20.072C31.6489 19.384 31.4969 18.864 31.1929 18.512C30.8969 18.16 30.4969 17.984 29.9929 17.984C29.6649 17.984 29.3729 18.064 29.1169 18.224C28.8689 18.376 28.6769 18.608 28.5409 18.92C28.4049 19.232 28.3369 19.616 28.3369 20.072C28.3369 20.752 28.4889 21.272 28.7929 21.632C29.0969 21.992 29.4969 22.172 29.9929 22.172ZM40.9548 23.108C40.3868 23.108 39.8868 23.036 39.4548 22.892C39.0228 22.74 38.6588 22.516 38.3628 22.22C38.0748 21.924 37.8548 21.556 37.7028 21.116C37.5508 20.676 37.4748 20.168 37.4748 19.592V15.08C37.4748 14.872 37.5268 14.716 37.6308 14.612C37.7428 14.508 37.8988 14.456 38.0988 14.456C38.2988 14.456 38.4508 14.508 38.5548 14.612C38.6668 14.716 38.7228 14.872 38.7228 15.08V19.568C38.7228 20.392 38.9108 21.008 39.2868 21.416C39.6708 21.824 40.2268 22.028 40.9548 22.028C41.6908 22.028 42.2468 21.824 42.6228 21.416C42.9988 21.008 43.1868 20.392 43.1868 19.568V15.08C43.1868 14.872 43.2388 14.716 43.3428 14.612C43.4548 14.508 43.6068 14.456 43.7988 14.456C43.9988 14.456 44.1508 14.508 44.2548 14.612C44.3588 14.716 44.4108 14.872 44.4108 15.08V19.592C44.4108 20.36 44.2788 21.008 44.0148 21.536C43.7588 22.056 43.3748 22.448 42.8628 22.712C42.3508 22.976 41.7148 23.108 40.9548 23.108ZM46.8036 23.084C46.6116 23.084 46.4636 23.032 46.3596 22.928C46.2556 22.816 46.2036 22.664 46.2036 22.472V17.672C46.2036 17.472 46.2556 17.32 46.3596 17.216C46.4636 17.112 46.6076 17.06 46.7916 17.06C46.9836 17.06 47.1276 17.112 47.2236 17.216C47.3276 17.32 47.3796 17.472 47.3796 17.672V18.608L47.2476 18.392C47.4236 17.944 47.6996 17.608 48.0756 17.384C48.4516 17.152 48.8836 17.036 49.3716 17.036C49.8356 17.036 50.2196 17.124 50.5236 17.3C50.8356 17.468 51.0676 17.728 51.2196 18.08C51.3716 18.424 51.4476 18.86 51.4476 19.388V22.472C51.4476 22.664 51.3956 22.816 51.2916 22.928C51.1876 23.032 51.0396 23.084 50.8476 23.084C50.6476 23.084 50.4956 23.032 50.3916 22.928C50.2876 22.816 50.2356 22.664 50.2356 22.472V19.46C50.2356 18.956 50.1356 18.588 49.9356 18.356C49.7436 18.124 49.4396 18.008 49.0236 18.008C48.5356 18.008 48.1436 18.16 47.8476 18.464C47.5596 18.768 47.4156 19.176 47.4156 19.688V22.472C47.4156 22.88 47.2116 23.084 46.8036 23.084ZM53.7176 23.072C53.5256 23.072 53.3776 23.016 53.2736 22.904C53.1696 22.784 53.1176 22.62 53.1176 22.412V17.732C53.1176 17.524 53.1696 17.364 53.2736 17.252C53.3776 17.14 53.5256 17.084 53.7176 17.084C53.9096 17.084 54.0576 17.14 54.1616 17.252C54.2736 17.364 54.3296 17.524 54.3296 17.732V22.412C54.3296 22.62 54.2776 22.784 54.1736 22.904C54.0696 23.016 53.9176 23.072 53.7176 23.072ZM53.7176 15.836C53.4776 15.836 53.2896 15.776 53.1536 15.656C53.0256 15.536 52.9616 15.368 52.9616 15.152C52.9616 14.928 53.0256 14.76 53.1536 14.648C53.2896 14.528 53.4776 14.468 53.7176 14.468C53.9576 14.468 54.1416 14.528 54.2696 14.648C54.4056 14.76 54.4736 14.928 54.4736 15.152C54.4736 15.368 54.4056 15.536 54.2696 15.656C54.1416 15.776 53.9576 15.836 53.7176 15.836ZM58.5316 23.108C58.0516 23.108 57.6476 23.024 57.3196 22.856C56.9916 22.688 56.7476 22.44 56.5876 22.112C56.4276 21.784 56.3476 21.384 56.3476 20.912V18.08H55.6276C55.4676 18.08 55.3436 18.04 55.2556 17.96C55.1676 17.872 55.1236 17.756 55.1236 17.612C55.1236 17.46 55.1676 17.344 55.2556 17.264C55.3436 17.184 55.4676 17.144 55.6276 17.144H56.3476V15.908C56.3476 15.708 56.3996 15.556 56.5036 15.452C56.6156 15.348 56.7676 15.296 56.9596 15.296C57.1516 15.296 57.2996 15.348 57.4036 15.452C57.5076 15.556 57.5596 15.708 57.5596 15.908V17.144H58.9636C59.1236 17.144 59.2476 17.184 59.3356 17.264C59.4236 17.344 59.4676 17.46 59.4676 17.612C59.4676 17.756 59.4236 17.872 59.3356 17.96C59.2476 18.04 59.1236 18.08 58.9636 18.08H57.5596V20.816C57.5596 21.24 57.6476 21.56 57.8236 21.776C58.0076 21.992 58.3036 22.1 58.7116 22.1C58.8556 22.1 58.9796 22.088 59.0836 22.064C59.1956 22.032 59.2876 22.012 59.3596 22.004C59.4476 22.004 59.5196 22.036 59.5756 22.1C59.6316 22.156 59.6596 22.268 59.6596 22.436C59.6596 22.556 59.6356 22.668 59.5876 22.772C59.5476 22.876 59.4716 22.944 59.3596 22.976C59.2636 23.008 59.1316 23.036 58.9636 23.06C58.8036 23.092 58.6596 23.108 58.5316 23.108ZM64.3865 23C64.1705 23 64.0025 22.944 63.8825 22.832C63.7705 22.712 63.7145 22.544 63.7145 22.328V15.212C63.7145 14.996 63.7705 14.832 63.8825 14.72C64.0025 14.6 64.1705 14.54 64.3865 14.54H67.2425C67.8265 14.54 68.3225 14.628 68.7305 14.804C69.1465 14.98 69.4625 15.232 69.6785 15.56C69.9025 15.888 70.0145 16.284 70.0145 16.748C70.0145 17.26 69.8625 17.692 69.5585 18.044C69.2545 18.396 68.8425 18.632 68.3225 18.752V18.572C68.9145 18.652 69.3785 18.876 69.7145 19.244C70.0505 19.604 70.2185 20.076 70.2185 20.66C70.2185 21.412 69.9705 21.992 69.4745 22.4C68.9785 22.8 68.2825 23 67.3865 23H64.3865ZM64.9145 22.04H67.2425C67.8425 22.04 68.2865 21.924 68.5745 21.692C68.8625 21.452 69.0065 21.092 69.0065 20.612C69.0065 20.132 68.8625 19.776 68.5745 19.544C68.2865 19.312 67.8425 19.196 67.2425 19.196H64.9145V22.04ZM64.9145 18.236H67.0505C67.6265 18.236 68.0625 18.12 68.3585 17.888C68.6545 17.656 68.8025 17.316 68.8025 16.868C68.8025 16.42 68.6545 16.08 68.3585 15.848C68.0625 15.616 67.6265 15.5 67.0505 15.5H64.9145V18.236ZM72.5662 23C72.3502 23 72.1822 22.944 72.0622 22.832C71.9502 22.712 71.8942 22.544 71.8942 22.328V15.212C71.8942 14.996 71.9502 14.832 72.0622 14.72C72.1822 14.6 72.3502 14.54 72.5662 14.54H75.4222C76.0062 14.54 76.5022 14.628 76.9102 14.804C77.3262 14.98 77.6422 15.232 77.8582 15.56C78.0822 15.888 78.1942 16.284 78.1942 16.748C78.1942 17.26 78.0422 17.692 77.7382 18.044C77.4342 18.396 77.0222 18.632 76.5022 18.752V18.572C77.0942 18.652 77.5582 18.876 77.8942 19.244C78.2302 19.604 78.3982 20.076 78.3982 20.66C78.3982 21.412 78.1502 21.992 77.6542 22.4C77.1582 22.8 76.4622 23 75.5662 23H72.5662ZM73.0942 22.04H75.4222C76.0222 22.04 76.4662 21.924 76.7542 21.692C77.0422 21.452 77.1862 21.092 77.1862 20.612C77.1862 20.132 77.0422 19.776 76.7542 19.544C76.4662 19.312 76.0222 19.196 75.4222 19.196H73.0942V22.04ZM73.0942 18.236H75.2302C75.8062 18.236 76.2422 18.12 76.5382 17.888C76.8342 17.656 76.9822 17.316 76.9822 16.868C76.9822 16.42 76.8342 16.08 76.5382 15.848C76.2422 15.616 75.8062 15.5 75.2302 15.5H73.0942V18.236ZM79.9555 23.084C79.7955 23.084 79.6675 23.048 79.5715 22.976C79.4755 22.904 79.4195 22.808 79.4035 22.688C79.3875 22.568 79.4115 22.432 79.4755 22.28L82.7275 14.984C82.8075 14.792 82.9075 14.656 83.0275 14.576C83.1555 14.496 83.2955 14.456 83.4475 14.456C83.5915 14.456 83.7235 14.496 83.8435 14.576C83.9715 14.656 84.0755 14.792 84.1555 14.984L87.4075 22.28C87.4795 22.432 87.5075 22.572 87.4915 22.7C87.4755 22.82 87.4235 22.916 87.3355 22.988C87.2475 23.052 87.1235 23.084 86.9635 23.084C86.7875 23.084 86.6475 23.04 86.5435 22.952C86.4395 22.864 86.3475 22.728 86.2675 22.544L85.4275 20.6L85.9915 20.936H80.8795L81.4315 20.6L80.6035 22.544C80.5235 22.736 80.4355 22.876 80.3395 22.964C80.2435 23.044 80.1155 23.084 79.9555 23.084ZM83.4235 15.92L81.6115 20.216L81.3115 19.928H85.5475L85.2715 20.216L83.4475 15.92H83.4235Z" fill="#64728C"/>
<rect x="266" y="4" width="30" height="30" rx="15" fill="#FF7B1D" fill-opacity="0.12"/>
<path d="M286.753 23.1626C285.884 22.319 285.022 21.4684 284.155 20.6232C284.084 20.5544 284.071 20.5096 284.124 20.4178C284.997 18.896 285.078 17.3372 284.305 15.7574C283.759 14.6431 282.883 13.8471 281.718 13.3828C280.34 12.8332 278.964 12.8741 277.62 13.5138C276.468 14.0618 275.645 14.927 275.171 16.0872C274.62 17.4367 274.671 18.7811 275.327 20.0911C275.88 21.1972 276.747 22.0001 277.908 22.4571C279.516 23.0893 281.071 22.9369 282.541 22.0325C282.656 21.962 282.709 21.9777 282.796 22.064C283.677 22.9343 284.562 23.802 285.449 24.6669C285.876 25.0838 286.44 25.1113 286.881 24.7385C287.069 24.579 287.155 24.3649 287.207 24.1326V23.8953C287.15 23.5944 286.969 23.3722 286.753 23.1626ZM279.799 21.2391C277.923 21.2216 276.406 19.722 276.428 17.9051C276.449 16.0691 277.967 14.5912 279.82 14.6026C281.696 14.614 283.199 16.0787 283.202 17.9258C283.204 19.7643 281.661 21.2556 279.799 21.2391Z" fill="#FF7B1D"/>
</svg>
