<svg width="300" height="38" viewBox="0 0 300 38" fill="none" xmlns="http://www.w3.org/2000/svg">
<rect x="0.5" y="0.5" width="299" height="37" rx="18.5" fill="#E8EAEF"/>
<rect x="0.5" y="0.5" width="299" height="37" rx="18.5" stroke="#E8EAEF"/>
<path d="M15.612 23.084C15.46 23.084 15.34 23.04 15.252 22.952C15.164 22.856 15.12 22.728 15.12 22.568V15.392H12.42C12.276 15.392 12.164 15.352 12.084 15.272C12.004 15.192 11.964 15.088 11.964 14.96C11.964 14.824 12.004 14.72 12.084 14.648C12.164 14.576 12.276 14.54 12.42 14.54H18.816C18.96 14.54 19.072 14.576 19.152 14.648C19.232 14.72 19.272 14.824 19.272 14.96C19.272 15.096 19.232 15.204 19.152 15.284C19.072 15.356 18.96 15.392 18.816 15.392H16.116V22.568C16.116 22.728 16.072 22.856 15.984 22.952C15.904 23.04 15.78 23.084 15.612 23.084ZM20.5596 25.244C20.4396 25.244 20.3436 25.212 20.2716 25.148C20.1996 25.084 20.1556 24.996 20.1396 24.884C20.1316 24.78 20.1516 24.672 20.1996 24.56L21.0276 22.7V23.12L18.7236 17.768C18.6756 17.648 18.6596 17.536 18.6756 17.432C18.6916 17.328 18.7396 17.244 18.8196 17.18C18.8996 17.116 19.0116 17.084 19.1556 17.084C19.2836 17.084 19.3836 17.112 19.4556 17.168C19.5276 17.224 19.5916 17.324 19.6476 17.468L21.6156 22.292H21.2916L23.2836 17.468C23.3476 17.324 23.4156 17.224 23.4876 17.168C23.5596 17.112 23.6636 17.084 23.7996 17.084C23.9276 17.084 24.0236 17.116 24.0876 17.18C24.1596 17.244 24.1996 17.328 24.2076 17.432C24.2236 17.528 24.2076 17.636 24.1596 17.756L21.0876 24.86C21.0236 25.004 20.9516 25.104 20.8716 25.16C20.7996 25.216 20.6956 25.244 20.5596 25.244ZM25.9076 25.244C25.7476 25.244 25.6276 25.2 25.5476 25.112C25.4676 25.032 25.4276 24.912 25.4276 24.752V17.576C25.4276 17.416 25.4676 17.296 25.5476 17.216C25.6276 17.128 25.7436 17.084 25.8956 17.084C26.0556 17.084 26.1756 17.128 26.2556 17.216C26.3436 17.296 26.3876 17.416 26.3876 17.576V18.716L26.2556 18.548C26.3836 18.092 26.6356 17.732 27.0116 17.468C27.3956 17.196 27.8516 17.06 28.3796 17.06C28.8996 17.06 29.3516 17.184 29.7356 17.432C30.1276 17.672 30.4276 18.02 30.6356 18.476C30.8516 18.924 30.9596 19.46 30.9596 20.084C30.9596 20.7 30.8516 21.236 30.6356 21.692C30.4276 22.14 30.1316 22.488 29.7476 22.736C29.3636 22.984 28.9076 23.108 28.3796 23.108C27.8516 23.108 27.3996 22.976 27.0236 22.712C26.6476 22.44 26.3916 22.08 26.2556 21.632H26.3996V24.752C26.3996 24.912 26.3556 25.032 26.2676 25.112C26.1796 25.2 26.0596 25.244 25.9076 25.244ZM28.1756 22.328C28.5436 22.328 28.8596 22.24 29.1236 22.064C29.3956 21.888 29.6036 21.632 29.7476 21.296C29.8996 20.96 29.9756 20.556 29.9756 20.084C29.9756 19.356 29.8116 18.8 29.4836 18.416C29.1636 18.032 28.7276 17.84 28.1756 17.84C27.8156 17.84 27.4996 17.928 27.2276 18.104C26.9556 18.272 26.7436 18.524 26.5916 18.86C26.4476 19.188 26.3756 19.596 26.3756 20.084C26.3756 20.804 26.5396 21.36 26.8676 21.752C27.1956 22.136 27.6316 22.328 28.1756 22.328ZM35.0517 23.108C34.4357 23.108 33.9037 22.988 33.4557 22.748C33.0157 22.5 32.6717 22.152 32.4237 21.704C32.1837 21.256 32.0637 20.72 32.0637 20.096C32.0637 19.488 32.1837 18.96 32.4237 18.512C32.6637 18.056 32.9917 17.7 33.4077 17.444C33.8317 17.188 34.3197 17.06 34.8717 17.06C35.2637 17.06 35.6157 17.128 35.9277 17.264C36.2397 17.392 36.5037 17.58 36.7197 17.828C36.9437 18.076 37.1117 18.376 37.2237 18.728C37.3437 19.08 37.4037 19.476 37.4037 19.916C37.4037 20.044 37.3677 20.14 37.2957 20.204C37.2237 20.26 37.1197 20.288 36.9837 20.288H32.8077V19.652H36.7557L36.5637 19.808C36.5637 19.376 36.4997 19.012 36.3717 18.716C36.2437 18.412 36.0557 18.18 35.8077 18.02C35.5677 17.86 35.2637 17.78 34.8957 17.78C34.4877 17.78 34.1397 17.876 33.8517 18.068C33.5717 18.252 33.3597 18.512 33.2157 18.848C33.0717 19.176 32.9997 19.56 32.9997 20V20.072C32.9997 20.808 33.1757 21.368 33.5277 21.752C33.8877 22.136 34.3957 22.328 35.0517 22.328C35.3237 22.328 35.5917 22.292 35.8557 22.22C36.1277 22.148 36.3917 22.028 36.6477 21.86C36.7597 21.788 36.8597 21.756 36.9477 21.764C37.0437 21.764 37.1197 21.792 37.1757 21.848C37.2317 21.896 37.2677 21.96 37.2837 22.04C37.3077 22.112 37.2997 22.192 37.2597 22.28C37.2277 22.368 37.1597 22.444 37.0557 22.508C36.7917 22.7 36.4797 22.848 36.1197 22.952C35.7597 23.056 35.4037 23.108 35.0517 23.108ZM44.2442 23.108C43.7882 23.108 43.4042 23.028 43.0922 22.868C42.7882 22.7 42.5602 22.46 42.4082 22.148C42.2562 21.828 42.1802 21.44 42.1802 20.984V17.924H41.3762C41.2402 17.924 41.1362 17.892 41.0642 17.828C40.9922 17.756 40.9562 17.66 40.9562 17.54C40.9562 17.42 40.9922 17.328 41.0642 17.264C41.1362 17.2 41.2402 17.168 41.3762 17.168H42.1802V15.788C42.1802 15.628 42.2242 15.508 42.3122 15.428C42.4002 15.34 42.5202 15.296 42.6722 15.296C42.8242 15.296 42.9402 15.34 43.0202 15.428C43.1082 15.508 43.1522 15.628 43.1522 15.788V17.168H44.6642C44.8002 17.168 44.9042 17.2 44.9762 17.264C45.0482 17.328 45.0842 17.42 45.0842 17.54C45.0842 17.66 45.0482 17.756 44.9762 17.828C44.9042 17.892 44.8002 17.924 44.6642 17.924H43.1522V20.888C43.1522 21.344 43.2482 21.692 43.4402 21.932C43.6322 22.164 43.9442 22.28 44.3762 22.28C44.5282 22.28 44.6562 22.264 44.7602 22.232C44.8722 22.2 44.9642 22.184 45.0362 22.184C45.1082 22.176 45.1682 22.2 45.2162 22.256C45.2642 22.312 45.2882 22.408 45.2882 22.544C45.2882 22.64 45.2682 22.728 45.2282 22.808C45.1962 22.888 45.1362 22.944 45.0482 22.976C44.9522 23.008 44.8242 23.036 44.6642 23.06C44.5122 23.092 44.3722 23.108 44.2442 23.108ZM48.4649 23.108C47.8969 23.108 47.4049 22.984 46.9889 22.736C46.5729 22.488 46.2489 22.14 46.0169 21.692C45.7929 21.236 45.6809 20.7 45.6809 20.084C45.6809 19.62 45.7449 19.204 45.8729 18.836C46.0009 18.46 46.1889 18.14 46.4369 17.876C46.6849 17.612 46.9769 17.412 47.3129 17.276C47.6569 17.132 48.0409 17.06 48.4649 17.06C49.0329 17.06 49.5249 17.184 49.9409 17.432C50.3569 17.68 50.6769 18.032 50.9009 18.488C51.1329 18.936 51.2489 19.468 51.2489 20.084C51.2489 20.548 51.1849 20.964 51.0569 21.332C50.9289 21.7 50.7409 22.02 50.4929 22.292C50.2449 22.556 49.9489 22.76 49.6049 22.904C49.2689 23.04 48.8889 23.108 48.4649 23.108ZM48.4649 22.328C48.8249 22.328 49.1409 22.24 49.4129 22.064C49.6849 21.888 49.8929 21.632 50.0369 21.296C50.1889 20.96 50.2649 20.556 50.2649 20.084C50.2649 19.356 50.1009 18.8 49.7729 18.416C49.4529 18.032 49.0169 17.84 48.4649 17.84C48.0969 17.84 47.7769 17.928 47.5049 18.104C47.2409 18.272 47.0329 18.524 46.8809 18.86C46.7369 19.188 46.6649 19.596 46.6649 20.084C46.6649 20.804 46.8289 21.36 47.1569 21.752C47.4849 22.136 47.9209 22.328 48.4649 22.328ZM58.6706 23.108C58.2946 23.108 57.9266 23.076 57.5666 23.012C57.2066 22.948 56.8706 22.856 56.5586 22.736C56.2546 22.616 55.9786 22.464 55.7306 22.28C55.6346 22.208 55.5666 22.128 55.5266 22.04C55.4946 21.944 55.4866 21.852 55.5026 21.764C55.5266 21.668 55.5666 21.588 55.6226 21.524C55.6866 21.46 55.7626 21.424 55.8506 21.416C55.9386 21.408 56.0346 21.436 56.1386 21.5C56.4986 21.756 56.8826 21.944 57.2906 22.064C57.6986 22.176 58.1586 22.232 58.6706 22.232C59.3906 22.232 59.9226 22.1 60.2666 21.836C60.6186 21.564 60.7946 21.208 60.7946 20.768C60.7946 20.408 60.6666 20.128 60.4106 19.928C60.1626 19.72 59.7426 19.556 59.1506 19.436L57.9026 19.184C57.1506 19.024 56.5866 18.764 56.2106 18.404C55.8426 18.036 55.6586 17.548 55.6586 16.94C55.6586 16.564 55.7346 16.224 55.8866 15.92C56.0386 15.608 56.2506 15.344 56.5226 15.128C56.7946 14.904 57.1186 14.732 57.4946 14.612C57.8706 14.492 58.2866 14.432 58.7426 14.432C59.2466 14.432 59.7146 14.504 60.1466 14.648C60.5866 14.784 60.9826 14.992 61.3346 15.272C61.4226 15.344 61.4826 15.428 61.5146 15.524C61.5466 15.612 61.5506 15.7 61.5266 15.788C61.5026 15.868 61.4586 15.936 61.3946 15.992C61.3386 16.048 61.2626 16.08 61.1666 16.088C61.0786 16.096 60.9786 16.064 60.8666 15.992C60.5466 15.752 60.2146 15.58 59.8706 15.476C59.5266 15.364 59.1466 15.308 58.7306 15.308C58.3066 15.308 57.9386 15.372 57.6266 15.5C57.3226 15.628 57.0826 15.816 56.9066 16.064C56.7386 16.304 56.6546 16.584 56.6546 16.904C56.6546 17.288 56.7706 17.592 57.0026 17.816C57.2426 18.04 57.6306 18.204 58.1666 18.308L59.4146 18.572C60.2226 18.74 60.8186 18.996 61.2026 19.34C61.5946 19.676 61.7906 20.136 61.7906 20.72C61.7906 21.072 61.7186 21.396 61.5746 21.692C61.4306 21.988 61.2226 22.244 60.9506 22.46C60.6786 22.668 60.3506 22.828 59.9666 22.94C59.5826 23.052 59.1506 23.108 58.6706 23.108ZM65.8134 23.108C65.1974 23.108 64.6654 22.988 64.2174 22.748C63.7774 22.5 63.4334 22.152 63.1854 21.704C62.9454 21.256 62.8254 20.72 62.8254 20.096C62.8254 19.488 62.9454 18.96 63.1854 18.512C63.4254 18.056 63.7534 17.7 64.1694 17.444C64.5934 17.188 65.0814 17.06 65.6334 17.06C66.0254 17.06 66.3774 17.128 66.6894 17.264C67.0014 17.392 67.2654 17.58 67.4814 17.828C67.7054 18.076 67.8734 18.376 67.9854 18.728C68.1054 19.08 68.1654 19.476 68.1654 19.916C68.1654 20.044 68.1294 20.14 68.0574 20.204C67.9854 20.26 67.8814 20.288 67.7454 20.288H63.5694V19.652H67.5174L67.3254 19.808C67.3254 19.376 67.2614 19.012 67.1334 18.716C67.0054 18.412 66.8174 18.18 66.5694 18.02C66.3294 17.86 66.0254 17.78 65.6574 17.78C65.2494 17.78 64.9014 17.876 64.6134 18.068C64.3334 18.252 64.1214 18.512 63.9774 18.848C63.8334 19.176 63.7614 19.56 63.7614 20V20.072C63.7614 20.808 63.9374 21.368 64.2894 21.752C64.6494 22.136 65.1574 22.328 65.8134 22.328C66.0854 22.328 66.3534 22.292 66.6174 22.22C66.8894 22.148 67.1534 22.028 67.4094 21.86C67.5214 21.788 67.6214 21.756 67.7094 21.764C67.8054 21.764 67.8814 21.792 67.9374 21.848C67.9934 21.896 68.0294 21.96 68.0454 22.04C68.0694 22.112 68.0614 22.192 68.0214 22.28C67.9894 22.368 67.9214 22.444 67.8174 22.508C67.5534 22.7 67.2414 22.848 66.8814 22.952C66.5214 23.056 66.1654 23.108 65.8134 23.108ZM71.4082 23.108C71.0082 23.108 70.6482 23.032 70.3282 22.88C70.0162 22.72 69.7682 22.504 69.5842 22.232C69.4002 21.96 69.3082 21.656 69.3082 21.32C69.3082 20.888 69.4162 20.548 69.6322 20.3C69.8562 20.052 70.2202 19.876 70.7242 19.772C71.2362 19.668 71.9322 19.616 72.8122 19.616H73.3522V20.252H72.8242C72.1762 20.252 71.6642 20.284 71.2882 20.348C70.9202 20.404 70.6602 20.504 70.5082 20.648C70.3642 20.792 70.2922 20.996 70.2922 21.26C70.2922 21.588 70.4042 21.856 70.6282 22.064C70.8602 22.272 71.1722 22.376 71.5642 22.376C71.8842 22.376 72.1642 22.3 72.4042 22.148C72.6522 21.996 72.8442 21.788 72.9802 21.524C73.1242 21.26 73.1962 20.956 73.1962 20.612V19.244C73.1962 18.748 73.0962 18.392 72.8962 18.176C72.6962 17.952 72.3682 17.84 71.9122 17.84C71.6322 17.84 71.3522 17.876 71.0722 17.948C70.7922 18.02 70.4962 18.136 70.1842 18.296C70.0722 18.352 69.9762 18.372 69.8962 18.356C69.8162 18.332 69.7522 18.288 69.7042 18.224C69.6562 18.16 69.6282 18.088 69.6202 18.008C69.6122 17.92 69.6282 17.836 69.6682 17.756C69.7162 17.676 69.7882 17.612 69.8842 17.564C70.2362 17.388 70.5842 17.26 70.9282 17.18C71.2722 17.1 71.6002 17.06 71.9122 17.06C72.4162 17.06 72.8322 17.144 73.1602 17.312C73.4882 17.472 73.7322 17.72 73.8922 18.056C74.0522 18.384 74.1322 18.808 74.1322 19.328V22.58C74.1322 22.74 74.0922 22.864 74.0122 22.952C73.9402 23.04 73.8322 23.084 73.6882 23.084C73.5362 23.084 73.4202 23.04 73.3402 22.952C73.2602 22.864 73.2202 22.74 73.2202 22.58V21.644H73.3282C73.2642 21.948 73.1402 22.208 72.9562 22.424C72.7802 22.64 72.5602 22.808 72.2962 22.928C72.0322 23.048 71.7362 23.108 71.4082 23.108ZM76.4274 23.084C76.2674 23.084 76.1434 23.04 76.0554 22.952C75.9754 22.864 75.9354 22.74 75.9354 22.58V17.576C75.9354 17.416 75.9754 17.296 76.0554 17.216C76.1354 17.128 76.2514 17.084 76.4034 17.084C76.5554 17.084 76.6714 17.128 76.7514 17.216C76.8394 17.296 76.8834 17.416 76.8834 17.576V18.548H76.7634C76.8914 18.076 77.1354 17.712 77.4954 17.456C77.8554 17.2 78.2994 17.064 78.8274 17.048C78.9474 17.04 79.0434 17.068 79.1154 17.132C79.1874 17.188 79.2274 17.288 79.2354 17.432C79.2434 17.568 79.2114 17.676 79.1394 17.756C79.0674 17.836 78.9554 17.884 78.8034 17.9L78.6114 17.924C78.0674 17.972 77.6474 18.148 77.3514 18.452C77.0634 18.748 76.9194 19.156 76.9194 19.676V22.58C76.9194 22.74 76.8754 22.864 76.7874 22.952C76.7074 23.04 76.5874 23.084 76.4274 23.084ZM82.6379 23.108C82.0539 23.108 81.5499 22.98 81.1259 22.724C80.7019 22.468 80.3739 22.112 80.1419 21.656C79.9179 21.192 79.8059 20.656 79.8059 20.048C79.8059 19.584 79.8699 19.168 79.9979 18.8C80.1259 18.432 80.3139 18.12 80.5619 17.864C80.8099 17.6 81.1059 17.4 81.4499 17.264C81.8019 17.128 82.1979 17.06 82.6379 17.06C82.9259 17.06 83.2259 17.104 83.5379 17.192C83.8499 17.28 84.1339 17.432 84.3899 17.648C84.4699 17.704 84.5219 17.772 84.5459 17.852C84.5699 17.932 84.5699 18.012 84.5459 18.092C84.5219 18.164 84.4819 18.228 84.4259 18.284C84.3699 18.332 84.2979 18.36 84.2099 18.368C84.1299 18.376 84.0459 18.348 83.9579 18.284C83.7499 18.124 83.5379 18.012 83.3219 17.948C83.1059 17.884 82.8979 17.852 82.6979 17.852C82.3859 17.852 82.1139 17.904 81.8819 18.008C81.6499 18.104 81.4539 18.244 81.2939 18.428C81.1339 18.612 81.0099 18.84 80.9219 19.112C80.8419 19.384 80.8019 19.7 80.8019 20.06C80.8019 20.756 80.9659 21.308 81.2939 21.716C81.6219 22.116 82.0899 22.316 82.6979 22.316C82.8979 22.316 83.1019 22.284 83.3099 22.22C83.5259 22.156 83.7419 22.044 83.9579 21.884C84.0459 21.82 84.1299 21.792 84.2099 21.8C84.2899 21.808 84.3579 21.84 84.4139 21.896C84.4699 21.944 84.5059 22.008 84.5219 22.088C84.5459 22.168 84.5459 22.248 84.5219 22.328C84.4979 22.4 84.4459 22.464 84.3659 22.52C84.1099 22.728 83.8299 22.88 83.5259 22.976C83.2219 23.064 82.9259 23.108 82.6379 23.108ZM86.2006 23.084C86.0406 23.084 85.9206 23.04 85.8406 22.952C85.7606 22.864 85.7206 22.74 85.7206 22.58V14.948C85.7206 14.788 85.7606 14.668 85.8406 14.588C85.9206 14.5 86.0406 14.456 86.2006 14.456C86.3526 14.456 86.4726 14.5 86.5606 14.588C86.6486 14.668 86.6926 14.788 86.6926 14.948V18.464H86.5366C86.7046 18 86.9766 17.652 87.3526 17.42C87.7366 17.18 88.1766 17.06 88.6726 17.06C89.1366 17.06 89.5206 17.144 89.8246 17.312C90.1366 17.48 90.3686 17.736 90.5206 18.08C90.6726 18.416 90.7486 18.844 90.7486 19.364V22.58C90.7486 22.74 90.7046 22.864 90.6166 22.952C90.5366 23.04 90.4206 23.084 90.2686 23.084C90.1086 23.084 89.9846 23.04 89.8966 22.952C89.8166 22.864 89.7766 22.74 89.7766 22.58V19.424C89.7766 18.88 89.6686 18.484 89.4526 18.236C89.2446 17.98 88.9086 17.852 88.4446 17.852C87.9086 17.852 87.4806 18.02 87.1606 18.356C86.8486 18.684 86.6926 19.124 86.6926 19.676V22.58C86.6926 22.916 86.5286 23.084 86.2006 23.084Z" fill="#929BAA"/>
<rect x="266" y="4" width="30" height="30" rx="15" fill="#64728C" fill-opacity="0.06"/>
<path d="M286.753 23.1626C285.884 22.319 285.022 21.4684 284.155 20.6232C284.084 20.5544 284.071 20.5096 284.124 20.4178C284.997 18.896 285.078 17.3372 284.305 15.7574C283.759 14.6431 282.883 13.8471 281.718 13.3828C280.34 12.8332 278.964 12.8741 277.62 13.5138C276.468 14.0618 275.645 14.927 275.171 16.0872C274.62 17.4367 274.671 18.7811 275.327 20.0911C275.88 21.1972 276.747 22.0001 277.908 22.4571C279.516 23.0893 281.071 22.9369 282.541 22.0325C282.656 21.962 282.709 21.9777 282.796 22.064C283.677 22.9343 284.562 23.802 285.449 24.6669C285.876 25.0838 286.44 25.1113 286.881 24.7385C287.069 24.579 287.155 24.3649 287.207 24.1326V23.8953C287.15 23.5944 286.969 23.3722 286.753 23.1626ZM279.799 21.2391C277.923 21.2216 276.406 19.722 276.428 17.9051C276.449 16.0691 277.967 14.5912 279.82 14.6026C281.696 14.614 283.199 16.0787 283.202 17.9258C283.204 19.7643 281.661 21.2556 279.799 21.2391Z" fill="white"/>
</svg>
