<svg width="340" height="326" viewBox="0 0 340 326" fill="none" xmlns="http://www.w3.org/2000/svg">
<g filter="url(#filter0_d_554_4008)">
<rect x="20" y="44" width="300" height="257" rx="10" fill="white" shape-rendering="crispEdges"/>
<rect x="20.5" y="44.5" width="299" height="256" rx="9.5" stroke="url(#paint0_linear_554_4008)" shape-rendering="crispEdges"/>
<rect x="28" y="52" width="284" height="36" rx="10" fill="#F6F7F9"/>
<path d="M40.86 74.12C39.98 74.12 39.224 73.944 38.592 73.592C37.968 73.232 37.488 72.728 37.152 72.08C36.816 71.424 36.648 70.652 36.648 69.764C36.648 69.1 36.744 68.504 36.936 67.976C37.128 67.44 37.404 66.984 37.764 66.608C38.124 66.224 38.564 65.932 39.084 65.732C39.612 65.524 40.204 65.42 40.86 65.42C41.3 65.42 41.732 65.476 42.156 65.588C42.58 65.7 42.952 65.86 43.272 66.068C43.44 66.172 43.552 66.3 43.608 66.452C43.664 66.596 43.676 66.74 43.644 66.884C43.612 67.02 43.544 67.136 43.44 67.232C43.344 67.328 43.22 67.384 43.068 67.4C42.924 67.408 42.764 67.356 42.588 67.244C42.34 67.084 42.072 66.968 41.784 66.896C41.496 66.824 41.204 66.788 40.908 66.788C40.34 66.788 39.86 66.904 39.468 67.136C39.076 67.368 38.78 67.704 38.58 68.144C38.38 68.584 38.28 69.124 38.28 69.764C38.28 70.396 38.38 70.936 38.58 71.384C38.78 71.832 39.076 72.172 39.468 72.404C39.86 72.636 40.34 72.752 40.908 72.752C41.212 72.752 41.512 72.716 41.808 72.644C42.104 72.564 42.384 72.444 42.648 72.284C42.824 72.18 42.98 72.136 43.116 72.152C43.26 72.16 43.38 72.208 43.476 72.296C43.572 72.384 43.636 72.496 43.668 72.632C43.7 72.76 43.692 72.896 43.644 73.04C43.596 73.176 43.5 73.296 43.356 73.4C43.036 73.632 42.652 73.812 42.204 73.94C41.764 74.06 41.316 74.12 40.86 74.12Z" fill="#38455D"/>
<path d="M46.9043 74.108C46.5043 74.108 46.1443 74.032 45.8243 73.88C45.5123 73.72 45.2643 73.504 45.0803 73.232C44.8963 72.96 44.8043 72.656 44.8043 72.32C44.8043 71.888 44.9123 71.548 45.1283 71.3C45.3523 71.052 45.7163 70.876 46.2203 70.772C46.7323 70.668 47.4283 70.616 48.3083 70.616H48.8483V71.252H48.3203C47.6723 71.252 47.1603 71.284 46.7843 71.348C46.4163 71.404 46.1563 71.504 46.0043 71.648C45.8603 71.792 45.7883 71.996 45.7883 72.26C45.7883 72.588 45.9003 72.856 46.1243 73.064C46.3563 73.272 46.6683 73.376 47.0603 73.376C47.3803 73.376 47.6603 73.3 47.9003 73.148C48.1483 72.996 48.3403 72.788 48.4763 72.524C48.6203 72.26 48.6923 71.956 48.6923 71.612V70.244C48.6923 69.748 48.5923 69.392 48.3923 69.176C48.1923 68.952 47.8643 68.84 47.4083 68.84C47.1283 68.84 46.8483 68.876 46.5683 68.948C46.2883 69.02 45.9923 69.136 45.6803 69.296C45.5683 69.352 45.4723 69.372 45.3923 69.356C45.3123 69.332 45.2483 69.288 45.2003 69.224C45.1523 69.16 45.1243 69.088 45.1163 69.008C45.1083 68.92 45.1243 68.836 45.1643 68.756C45.2123 68.676 45.2843 68.612 45.3803 68.564C45.7323 68.388 46.0803 68.26 46.4243 68.18C46.7683 68.1 47.0963 68.06 47.4083 68.06C47.9123 68.06 48.3283 68.144 48.6563 68.312C48.9843 68.472 49.2283 68.72 49.3883 69.056C49.5483 69.384 49.6283 69.808 49.6283 70.328V73.58C49.6283 73.74 49.5883 73.864 49.5083 73.952C49.4363 74.04 49.3283 74.084 49.1843 74.084C49.0323 74.084 48.9163 74.04 48.8363 73.952C48.7563 73.864 48.7163 73.74 48.7163 73.58V72.644H48.8243C48.7603 72.948 48.6363 73.208 48.4523 73.424C48.2763 73.64 48.0563 73.808 47.7923 73.928C47.5283 74.048 47.2323 74.108 46.9043 74.108ZM51.9115 74.084C51.7515 74.084 51.6315 74.04 51.5515 73.952C51.4715 73.864 51.4315 73.74 51.4315 73.58V68.576C51.4315 68.416 51.4715 68.296 51.5515 68.216C51.6315 68.128 51.7475 68.084 51.8995 68.084C52.0515 68.084 52.1675 68.128 52.2475 68.216C52.3355 68.296 52.3795 68.416 52.3795 68.576V69.608L52.2475 69.464C52.4155 69 52.6875 68.652 53.0635 68.42C53.4475 68.18 53.8875 68.06 54.3835 68.06C54.8475 68.06 55.2315 68.144 55.5355 68.312C55.8475 68.48 56.0795 68.736 56.2315 69.08C56.3835 69.416 56.4595 69.844 56.4595 70.364V73.58C56.4595 73.74 56.4155 73.864 56.3275 73.952C56.2475 74.04 56.1315 74.084 55.9795 74.084C55.8195 74.084 55.6955 74.04 55.6075 73.952C55.5275 73.864 55.4875 73.74 55.4875 73.58V70.424C55.4875 69.88 55.3795 69.484 55.1635 69.236C54.9555 68.98 54.6195 68.852 54.1555 68.852C53.6195 68.852 53.1915 69.02 52.8715 69.356C52.5595 69.684 52.4035 70.124 52.4035 70.676V73.58C52.4035 73.916 52.2395 74.084 51.9115 74.084ZM60.0878 74.108C59.6878 74.108 59.3278 74.032 59.0078 73.88C58.6958 73.72 58.4478 73.504 58.2638 73.232C58.0798 72.96 57.9878 72.656 57.9878 72.32C57.9878 71.888 58.0958 71.548 58.3118 71.3C58.5358 71.052 58.8998 70.876 59.4038 70.772C59.9158 70.668 60.6118 70.616 61.4918 70.616H62.0318V71.252H61.5038C60.8558 71.252 60.3438 71.284 59.9678 71.348C59.5998 71.404 59.3398 71.504 59.1878 71.648C59.0438 71.792 58.9718 71.996 58.9718 72.26C58.9718 72.588 59.0838 72.856 59.3078 73.064C59.5398 73.272 59.8518 73.376 60.2438 73.376C60.5638 73.376 60.8438 73.3 61.0838 73.148C61.3318 72.996 61.5238 72.788 61.6598 72.524C61.8038 72.26 61.8758 71.956 61.8758 71.612V70.244C61.8758 69.748 61.7758 69.392 61.5758 69.176C61.3758 68.952 61.0478 68.84 60.5918 68.84C60.3118 68.84 60.0318 68.876 59.7518 68.948C59.4718 69.02 59.1758 69.136 58.8638 69.296C58.7518 69.352 58.6558 69.372 58.5758 69.356C58.4958 69.332 58.4318 69.288 58.3838 69.224C58.3358 69.16 58.3078 69.088 58.2998 69.008C58.2918 68.92 58.3078 68.836 58.3478 68.756C58.3958 68.676 58.4678 68.612 58.5638 68.564C58.9158 68.388 59.2638 68.26 59.6078 68.18C59.9518 68.1 60.2798 68.06 60.5918 68.06C61.0958 68.06 61.5118 68.144 61.8398 68.312C62.1678 68.472 62.4118 68.72 62.5718 69.056C62.7318 69.384 62.8118 69.808 62.8118 70.328V73.58C62.8118 73.74 62.7718 73.864 62.6918 73.952C62.6198 74.04 62.5118 74.084 62.3678 74.084C62.2158 74.084 62.0998 74.04 62.0198 73.952C61.9398 73.864 61.8998 73.74 61.8998 73.58V72.644H62.0078C61.9438 72.948 61.8198 73.208 61.6358 73.424C61.4598 73.64 61.2398 73.808 60.9758 73.928C60.7118 74.048 60.4158 74.108 60.0878 74.108ZM66.8351 74.108C66.3151 74.108 65.8591 73.984 65.4671 73.736C65.0831 73.488 64.7831 73.14 64.5671 72.692C64.3591 72.236 64.2551 71.7 64.2551 71.084C64.2551 70.46 64.3591 69.924 64.5671 69.476C64.7831 69.02 65.0831 68.672 65.4671 68.432C65.8591 68.184 66.3151 68.06 66.8351 68.06C67.3631 68.06 67.8151 68.192 68.1911 68.456C68.5671 68.72 68.8191 69.076 68.9471 69.524H68.8151V65.948C68.8151 65.788 68.8551 65.668 68.9351 65.588C69.0231 65.5 69.1471 65.456 69.3071 65.456C69.4591 65.456 69.5751 65.5 69.6551 65.588C69.7431 65.668 69.7871 65.788 69.7871 65.948V73.58C69.7871 73.74 69.7471 73.864 69.6671 73.952C69.5871 74.04 69.4671 74.084 69.3071 74.084C69.1551 74.084 69.0351 74.04 68.9471 73.952C68.8671 73.864 68.8271 73.74 68.8271 73.58V72.44L68.9591 72.608C68.8311 73.064 68.5751 73.428 68.1911 73.7C67.8151 73.972 67.3631 74.108 66.8351 74.108ZM67.0391 73.328C67.3991 73.328 67.7151 73.24 67.9871 73.064C68.2591 72.888 68.4671 72.632 68.6111 72.296C68.7631 71.96 68.8391 71.556 68.8391 71.084C68.8391 70.356 68.6751 69.8 68.3471 69.416C68.0271 69.032 67.5911 68.84 67.0391 68.84C66.6711 68.84 66.3511 68.928 66.0791 69.104C65.8151 69.272 65.6071 69.524 65.4551 69.86C65.3111 70.188 65.2391 70.596 65.2391 71.084C65.2391 71.804 65.4031 72.36 65.7311 72.752C66.0591 73.136 66.4951 73.328 67.0391 73.328ZM73.4472 74.108C73.0472 74.108 72.6872 74.032 72.3672 73.88C72.0552 73.72 71.8072 73.504 71.6232 73.232C71.4392 72.96 71.3472 72.656 71.3472 72.32C71.3472 71.888 71.4552 71.548 71.6712 71.3C71.8952 71.052 72.2592 70.876 72.7632 70.772C73.2752 70.668 73.9712 70.616 74.8512 70.616H75.3912V71.252H74.8632C74.2152 71.252 73.7032 71.284 73.3272 71.348C72.9592 71.404 72.6992 71.504 72.5472 71.648C72.4032 71.792 72.3312 71.996 72.3312 72.26C72.3312 72.588 72.4432 72.856 72.6672 73.064C72.8992 73.272 73.2112 73.376 73.6032 73.376C73.9232 73.376 74.2032 73.3 74.4432 73.148C74.6912 72.996 74.8832 72.788 75.0192 72.524C75.1632 72.26 75.2352 71.956 75.2352 71.612V70.244C75.2352 69.748 75.1352 69.392 74.9352 69.176C74.7352 68.952 74.4072 68.84 73.9512 68.84C73.6712 68.84 73.3912 68.876 73.1112 68.948C72.8312 69.02 72.5352 69.136 72.2232 69.296C72.1112 69.352 72.0152 69.372 71.9352 69.356C71.8552 69.332 71.7912 69.288 71.7432 69.224C71.6952 69.16 71.6672 69.088 71.6592 69.008C71.6512 68.92 71.6672 68.836 71.7072 68.756C71.7552 68.676 71.8272 68.612 71.9232 68.564C72.2752 68.388 72.6232 68.26 72.9672 68.18C73.3112 68.1 73.6392 68.06 73.9512 68.06C74.4552 68.06 74.8712 68.144 75.1992 68.312C75.5272 68.472 75.7712 68.72 75.9312 69.056C76.0912 69.384 76.1712 69.808 76.1712 70.328V73.58C76.1712 73.74 76.1312 73.864 76.0512 73.952C75.9792 74.04 75.8712 74.084 75.7272 74.084C75.5752 74.084 75.4592 74.04 75.3792 73.952C75.2992 73.864 75.2592 73.74 75.2592 73.58V72.644H75.3672C75.3032 72.948 75.1792 73.208 74.9952 73.424C74.8192 73.64 74.5992 73.808 74.3352 73.928C74.0712 74.048 73.7752 74.108 73.4472 74.108ZM84.7523 74.108C83.9683 74.108 83.2843 73.932 82.7003 73.58C82.1243 73.22 81.6763 72.716 81.3563 72.068C81.0443 71.42 80.8883 70.652 80.8883 69.764C80.8883 69.092 80.9763 68.492 81.1523 67.964C81.3363 67.428 81.5963 66.976 81.9323 66.608C82.2683 66.232 82.6723 65.944 83.1443 65.744C83.6243 65.536 84.1603 65.432 84.7523 65.432C85.5523 65.432 86.2403 65.608 86.8163 65.96C87.4003 66.312 87.8483 66.812 88.1603 67.46C88.4803 68.1 88.6403 68.864 88.6403 69.752C88.6403 70.424 88.5483 71.028 88.3643 71.564C88.1803 72.1 87.9203 72.556 87.5843 72.932C87.2483 73.308 86.8403 73.6 86.3603 73.808C85.8883 74.008 85.3523 74.108 84.7523 74.108ZM84.7523 73.232C85.3603 73.232 85.8723 73.096 86.2883 72.824C86.7123 72.552 87.0363 72.156 87.2603 71.636C87.4843 71.116 87.5963 70.492 87.5963 69.764C87.5963 68.668 87.3483 67.82 86.8523 67.22C86.3643 66.612 85.6643 66.308 84.7523 66.308C84.1603 66.308 83.6523 66.444 83.2283 66.716C82.8123 66.988 82.4923 67.384 82.2683 67.904C82.0443 68.416 81.9323 69.036 81.9323 69.764C81.9323 70.852 82.1803 71.704 82.6763 72.32C83.1723 72.928 83.8643 73.232 84.7523 73.232ZM91.0595 74.084C90.9075 74.084 90.7875 74.04 90.6995 73.952C90.6195 73.864 90.5795 73.74 90.5795 73.58V68.924H89.8115C89.6835 68.924 89.5795 68.892 89.4995 68.828C89.4275 68.756 89.3915 68.66 89.3915 68.54C89.3915 68.42 89.4275 68.328 89.4995 68.264C89.5795 68.2 89.6835 68.168 89.8115 68.168H90.8435L90.5795 68.42V67.964C90.5795 67.204 90.7635 66.624 91.1315 66.224C91.5075 65.824 92.0555 65.592 92.7755 65.528L93.1235 65.492C93.2355 65.484 93.3235 65.504 93.3875 65.552C93.4595 65.6 93.5035 65.66 93.5195 65.732C93.5435 65.804 93.5475 65.88 93.5315 65.96C93.5155 66.032 93.4795 66.096 93.4235 66.152C93.3675 66.208 93.2995 66.24 93.2195 66.248L92.9435 66.272C92.4555 66.312 92.0995 66.46 91.8755 66.716C91.6595 66.972 91.5515 67.348 91.5515 67.844V68.348L91.4075 68.168H92.8475C92.9835 68.168 93.0875 68.2 93.1595 68.264C93.2315 68.328 93.2675 68.42 93.2675 68.54C93.2675 68.66 93.2315 68.756 93.1595 68.828C93.0875 68.892 92.9835 68.924 92.8475 68.924H91.5515V73.58C91.5515 73.916 91.3875 74.084 91.0595 74.084ZM94.8681 74.084C94.7161 74.084 94.5961 74.04 94.5081 73.952C94.4281 73.864 94.3881 73.74 94.3881 73.58V68.924H93.6201C93.4921 68.924 93.3881 68.892 93.3081 68.828C93.2361 68.756 93.2001 68.66 93.2001 68.54C93.2001 68.42 93.2361 68.328 93.3081 68.264C93.3881 68.2 93.4921 68.168 93.6201 68.168H94.6521L94.3881 68.42V67.964C94.3881 67.212 94.5681 66.636 94.9281 66.236C95.2961 65.836 95.8361 65.608 96.5481 65.552L96.9081 65.516C97.0281 65.508 97.1241 65.528 97.1961 65.576C97.2681 65.616 97.3121 65.672 97.3281 65.744C97.3521 65.816 97.3561 65.892 97.3401 65.972C97.3241 66.052 97.2881 66.12 97.2321 66.176C97.1841 66.232 97.1241 66.264 97.0521 66.272L96.6921 66.296C96.2201 66.328 95.8801 66.476 95.6721 66.74C95.4641 66.996 95.3601 67.364 95.3601 67.844V68.348L95.2161 68.168H98.4801C98.6321 68.168 98.7481 68.212 98.8281 68.3C98.9161 68.388 98.9601 68.516 98.9601 68.684V73.532C98.9601 73.7 98.9201 73.832 98.8401 73.928C98.7601 74.016 98.6401 74.06 98.4801 74.06C98.3201 74.06 98.1961 74.016 98.1081 73.928C98.0281 73.832 97.9881 73.7 97.9881 73.532V68.924H95.3601V73.58C95.3601 73.916 95.1961 74.084 94.8681 74.084ZM98.4921 66.764C98.2921 66.764 98.1361 66.712 98.0241 66.608C97.9201 66.496 97.8681 66.348 97.8681 66.164C97.8681 65.972 97.9201 65.828 98.0241 65.732C98.1361 65.628 98.2921 65.576 98.4921 65.576C98.6921 65.576 98.8441 65.628 98.9481 65.732C99.0601 65.828 99.1161 65.972 99.1161 66.164C99.1161 66.348 99.0601 66.496 98.9481 66.608C98.8441 66.712 98.6921 66.764 98.4921 66.764ZM103.251 74.108C102.667 74.108 102.163 73.98 101.739 73.724C101.315 73.468 100.987 73.112 100.755 72.656C100.531 72.192 100.419 71.656 100.419 71.048C100.419 70.584 100.483 70.168 100.611 69.8C100.739 69.432 100.927 69.12 101.175 68.864C101.423 68.6 101.719 68.4 102.063 68.264C102.415 68.128 102.811 68.06 103.251 68.06C103.539 68.06 103.839 68.104 104.151 68.192C104.463 68.28 104.747 68.432 105.003 68.648C105.083 68.704 105.135 68.772 105.159 68.852C105.183 68.932 105.183 69.012 105.159 69.092C105.135 69.164 105.095 69.228 105.039 69.284C104.983 69.332 104.911 69.36 104.823 69.368C104.743 69.376 104.659 69.348 104.571 69.284C104.363 69.124 104.151 69.012 103.935 68.948C103.719 68.884 103.511 68.852 103.311 68.852C102.999 68.852 102.727 68.904 102.495 69.008C102.263 69.104 102.067 69.244 101.907 69.428C101.747 69.612 101.623 69.84 101.535 70.112C101.455 70.384 101.415 70.7 101.415 71.06C101.415 71.756 101.579 72.308 101.907 72.716C102.235 73.116 102.703 73.316 103.311 73.316C103.511 73.316 103.715 73.284 103.923 73.22C104.139 73.156 104.355 73.044 104.571 72.884C104.659 72.82 104.743 72.792 104.823 72.8C104.903 72.808 104.971 72.84 105.027 72.896C105.083 72.944 105.119 73.008 105.135 73.088C105.159 73.168 105.159 73.248 105.135 73.328C105.111 73.4 105.059 73.464 104.979 73.52C104.723 73.728 104.443 73.88 104.139 73.976C103.835 74.064 103.539 74.108 103.251 74.108ZM108.845 74.108C108.229 74.108 107.697 73.988 107.249 73.748C106.809 73.5 106.465 73.152 106.217 72.704C105.977 72.256 105.857 71.72 105.857 71.096C105.857 70.488 105.977 69.96 106.217 69.512C106.457 69.056 106.785 68.7 107.201 68.444C107.625 68.188 108.113 68.06 108.665 68.06C109.057 68.06 109.409 68.128 109.721 68.264C110.033 68.392 110.297 68.58 110.513 68.828C110.737 69.076 110.905 69.376 111.017 69.728C111.137 70.08 111.197 70.476 111.197 70.916C111.197 71.044 111.161 71.14 111.089 71.204C111.017 71.26 110.913 71.288 110.777 71.288H106.601V70.652H110.549L110.357 70.808C110.357 70.376 110.293 70.012 110.165 69.716C110.037 69.412 109.849 69.18 109.601 69.02C109.361 68.86 109.057 68.78 108.689 68.78C108.281 68.78 107.933 68.876 107.645 69.068C107.365 69.252 107.153 69.512 107.009 69.848C106.865 70.176 106.793 70.56 106.793 71V71.072C106.793 71.808 106.969 72.368 107.321 72.752C107.681 73.136 108.189 73.328 108.845 73.328C109.117 73.328 109.385 73.292 109.649 73.22C109.921 73.148 110.185 73.028 110.441 72.86C110.553 72.788 110.653 72.756 110.741 72.764C110.837 72.764 110.913 72.792 110.969 72.848C111.025 72.896 111.061 72.96 111.077 73.04C111.101 73.112 111.093 73.192 111.053 73.28C111.021 73.368 110.953 73.444 110.849 73.508C110.585 73.7 110.273 73.848 109.913 73.952C109.553 74.056 109.197 74.108 108.845 74.108Z" fill="#64728C"/>
<rect x="28" y="93" width="284" height="36" rx="10" fill="white"/>
<path d="M40.86 115.12C39.98 115.12 39.224 114.944 38.592 114.592C37.968 114.232 37.488 113.728 37.152 113.08C36.816 112.424 36.648 111.652 36.648 110.764C36.648 110.1 36.744 109.504 36.936 108.976C37.128 108.44 37.404 107.984 37.764 107.608C38.124 107.224 38.564 106.932 39.084 106.732C39.612 106.524 40.204 106.42 40.86 106.42C41.3 106.42 41.732 106.476 42.156 106.588C42.58 106.7 42.952 106.86 43.272 107.068C43.44 107.172 43.552 107.3 43.608 107.452C43.664 107.596 43.676 107.74 43.644 107.884C43.612 108.02 43.544 108.136 43.44 108.232C43.344 108.328 43.22 108.384 43.068 108.4C42.924 108.408 42.764 108.356 42.588 108.244C42.34 108.084 42.072 107.968 41.784 107.896C41.496 107.824 41.204 107.788 40.908 107.788C40.34 107.788 39.86 107.904 39.468 108.136C39.076 108.368 38.78 108.704 38.58 109.144C38.38 109.584 38.28 110.124 38.28 110.764C38.28 111.396 38.38 111.936 38.58 112.384C38.78 112.832 39.076 113.172 39.468 113.404C39.86 113.636 40.34 113.752 40.908 113.752C41.212 113.752 41.512 113.716 41.808 113.644C42.104 113.564 42.384 113.444 42.648 113.284C42.824 113.18 42.98 113.136 43.116 113.152C43.26 113.16 43.38 113.208 43.476 113.296C43.572 113.384 43.636 113.496 43.668 113.632C43.7 113.76 43.692 113.896 43.644 114.04C43.596 114.176 43.5 114.296 43.356 114.4C43.036 114.632 42.652 114.812 42.204 114.94C41.764 115.06 41.316 115.12 40.86 115.12Z" fill="#38455D"/>
<path d="M47.4923 115.108C46.9243 115.108 46.4323 114.984 46.0163 114.736C45.6003 114.488 45.2763 114.14 45.0443 113.692C44.8203 113.236 44.7083 112.7 44.7083 112.084C44.7083 111.62 44.7723 111.204 44.9003 110.836C45.0283 110.46 45.2163 110.14 45.4643 109.876C45.7123 109.612 46.0043 109.412 46.3403 109.276C46.6843 109.132 47.0683 109.06 47.4923 109.06C48.0603 109.06 48.5523 109.184 48.9683 109.432C49.3843 109.68 49.7043 110.032 49.9283 110.488C50.1603 110.936 50.2763 111.468 50.2763 112.084C50.2763 112.548 50.2123 112.964 50.0843 113.332C49.9563 113.7 49.7683 114.02 49.5203 114.292C49.2723 114.556 48.9763 114.76 48.6323 114.904C48.2963 115.04 47.9163 115.108 47.4923 115.108ZM47.4923 114.328C47.8523 114.328 48.1683 114.24 48.4403 114.064C48.7123 113.888 48.9203 113.632 49.0643 113.296C49.2163 112.96 49.2923 112.556 49.2923 112.084C49.2923 111.356 49.1283 110.8 48.8003 110.416C48.4803 110.032 48.0443 109.84 47.4923 109.84C47.1243 109.84 46.8043 109.928 46.5323 110.104C46.2683 110.272 46.0603 110.524 45.9083 110.86C45.7643 111.188 45.6923 111.596 45.6923 112.084C45.6923 112.804 45.8563 113.36 46.1843 113.752C46.5123 114.136 46.9483 114.328 47.4923 114.328ZM52.2162 115.084C52.0562 115.084 51.9362 115.04 51.8562 114.952C51.7762 114.864 51.7362 114.74 51.7362 114.58V109.576C51.7362 109.416 51.7762 109.296 51.8562 109.216C51.9362 109.128 52.0522 109.084 52.2042 109.084C52.3562 109.084 52.4722 109.128 52.5522 109.216C52.6402 109.296 52.6842 109.416 52.6842 109.576V110.608L52.5522 110.464C52.7202 110 52.9922 109.652 53.3682 109.42C53.7522 109.18 54.1922 109.06 54.6882 109.06C55.1522 109.06 55.5362 109.144 55.8402 109.312C56.1522 109.48 56.3842 109.736 56.5362 110.08C56.6882 110.416 56.7642 110.844 56.7642 111.364V114.58C56.7642 114.74 56.7202 114.864 56.6322 114.952C56.5522 115.04 56.4362 115.084 56.2842 115.084C56.1242 115.084 56.0002 115.04 55.9122 114.952C55.8322 114.864 55.7922 114.74 55.7922 114.58V111.424C55.7922 110.88 55.6842 110.484 55.4682 110.236C55.2602 109.98 54.9242 109.852 54.4602 109.852C53.9242 109.852 53.4962 110.02 53.1762 110.356C52.8642 110.684 52.7082 111.124 52.7082 111.676V114.58C52.7082 114.916 52.5442 115.084 52.2162 115.084ZM60.8965 115.108C60.4405 115.108 60.0565 115.028 59.7445 114.868C59.4405 114.7 59.2125 114.46 59.0605 114.148C58.9085 113.828 58.8325 113.44 58.8325 112.984V109.924H58.0285C57.8925 109.924 57.7885 109.892 57.7165 109.828C57.6445 109.756 57.6085 109.66 57.6085 109.54C57.6085 109.42 57.6445 109.328 57.7165 109.264C57.7885 109.2 57.8925 109.168 58.0285 109.168H58.8325V107.788C58.8325 107.628 58.8765 107.508 58.9645 107.428C59.0525 107.34 59.1725 107.296 59.3245 107.296C59.4765 107.296 59.5925 107.34 59.6725 107.428C59.7605 107.508 59.8045 107.628 59.8045 107.788V109.168H61.3165C61.4525 109.168 61.5565 109.2 61.6285 109.264C61.7005 109.328 61.7365 109.42 61.7365 109.54C61.7365 109.66 61.7005 109.756 61.6285 109.828C61.5565 109.892 61.4525 109.924 61.3165 109.924H59.8045V112.888C59.8045 113.344 59.9005 113.692 60.0925 113.932C60.2845 114.164 60.5965 114.28 61.0285 114.28C61.1805 114.28 61.3085 114.264 61.4125 114.232C61.5245 114.2 61.6165 114.184 61.6885 114.184C61.7605 114.176 61.8205 114.2 61.8685 114.256C61.9165 114.312 61.9405 114.408 61.9405 114.544C61.9405 114.64 61.9205 114.728 61.8805 114.808C61.8485 114.888 61.7885 114.944 61.7005 114.976C61.6045 115.008 61.4765 115.036 61.3165 115.06C61.1645 115.092 61.0245 115.108 60.8965 115.108ZM64.5878 115.108C64.1878 115.108 63.8278 115.032 63.5078 114.88C63.1958 114.72 62.9478 114.504 62.7638 114.232C62.5798 113.96 62.4878 113.656 62.4878 113.32C62.4878 112.888 62.5958 112.548 62.8118 112.3C63.0358 112.052 63.3998 111.876 63.9038 111.772C64.4158 111.668 65.1118 111.616 65.9918 111.616H66.5318V112.252H66.0038C65.3558 112.252 64.8438 112.284 64.4678 112.348C64.0998 112.404 63.8398 112.504 63.6878 112.648C63.5438 112.792 63.4718 112.996 63.4718 113.26C63.4718 113.588 63.5838 113.856 63.8078 114.064C64.0398 114.272 64.3518 114.376 64.7438 114.376C65.0638 114.376 65.3438 114.3 65.5838 114.148C65.8318 113.996 66.0238 113.788 66.1598 113.524C66.3038 113.26 66.3758 112.956 66.3758 112.612V111.244C66.3758 110.748 66.2758 110.392 66.0758 110.176C65.8758 109.952 65.5478 109.84 65.0918 109.84C64.8118 109.84 64.5318 109.876 64.2518 109.948C63.9718 110.02 63.6758 110.136 63.3638 110.296C63.2518 110.352 63.1558 110.372 63.0758 110.356C62.9958 110.332 62.9318 110.288 62.8838 110.224C62.8358 110.16 62.8078 110.088 62.7998 110.008C62.7918 109.92 62.8078 109.836 62.8478 109.756C62.8958 109.676 62.9678 109.612 63.0638 109.564C63.4158 109.388 63.7638 109.26 64.1078 109.18C64.4518 109.1 64.7798 109.06 65.0918 109.06C65.5958 109.06 66.0118 109.144 66.3398 109.312C66.6678 109.472 66.9118 109.72 67.0718 110.056C67.2318 110.384 67.3118 110.808 67.3118 111.328V114.58C67.3118 114.74 67.2718 114.864 67.1918 114.952C67.1198 115.04 67.0118 115.084 66.8678 115.084C66.7158 115.084 66.5998 115.04 66.5198 114.952C66.4398 114.864 66.3998 114.74 66.3998 114.58V113.644H66.5078C66.4438 113.948 66.3198 114.208 66.1358 114.424C65.9598 114.64 65.7398 114.808 65.4758 114.928C65.2118 115.048 64.9158 115.108 64.5878 115.108ZM71.5871 115.108C71.0031 115.108 70.4991 114.98 70.0751 114.724C69.6511 114.468 69.3231 114.112 69.0911 113.656C68.8671 113.192 68.7551 112.656 68.7551 112.048C68.7551 111.584 68.8191 111.168 68.9471 110.8C69.0751 110.432 69.2631 110.12 69.5111 109.864C69.7591 109.6 70.0551 109.4 70.3991 109.264C70.7511 109.128 71.1471 109.06 71.5871 109.06C71.8751 109.06 72.1751 109.104 72.4871 109.192C72.7991 109.28 73.0831 109.432 73.3391 109.648C73.4191 109.704 73.4711 109.772 73.4951 109.852C73.5191 109.932 73.5191 110.012 73.4951 110.092C73.4711 110.164 73.4311 110.228 73.3751 110.284C73.3191 110.332 73.2471 110.36 73.1591 110.368C73.0791 110.376 72.9951 110.348 72.9071 110.284C72.6991 110.124 72.4871 110.012 72.2711 109.948C72.0551 109.884 71.8471 109.852 71.6471 109.852C71.3351 109.852 71.0631 109.904 70.8311 110.008C70.5991 110.104 70.4031 110.244 70.2431 110.428C70.0831 110.612 69.9591 110.84 69.8711 111.112C69.7911 111.384 69.7511 111.7 69.7511 112.06C69.7511 112.756 69.9151 113.308 70.2431 113.716C70.5711 114.116 71.0391 114.316 71.6471 114.316C71.8471 114.316 72.0511 114.284 72.2591 114.22C72.4751 114.156 72.6911 114.044 72.9071 113.884C72.9951 113.82 73.0791 113.792 73.1591 113.8C73.2391 113.808 73.3071 113.84 73.3631 113.896C73.4191 113.944 73.4551 114.008 73.4711 114.088C73.4951 114.168 73.4951 114.248 73.4711 114.328C73.4471 114.4 73.3951 114.464 73.3151 114.52C73.0591 114.728 72.7791 114.88 72.4751 114.976C72.1711 115.064 71.8751 115.108 71.5871 115.108ZM77.0098 115.108C76.5538 115.108 76.1698 115.028 75.8578 114.868C75.5538 114.7 75.3258 114.46 75.1738 114.148C75.0218 113.828 74.9458 113.44 74.9458 112.984V109.924H74.1418C74.0058 109.924 73.9018 109.892 73.8298 109.828C73.7578 109.756 73.7218 109.66 73.7218 109.54C73.7218 109.42 73.7578 109.328 73.8298 109.264C73.9018 109.2 74.0058 109.168 74.1418 109.168H74.9458V107.788C74.9458 107.628 74.9898 107.508 75.0778 107.428C75.1658 107.34 75.2858 107.296 75.4378 107.296C75.5898 107.296 75.7058 107.34 75.7858 107.428C75.8738 107.508 75.9178 107.628 75.9178 107.788V109.168H77.4298C77.5658 109.168 77.6698 109.2 77.7418 109.264C77.8138 109.328 77.8498 109.42 77.8498 109.54C77.8498 109.66 77.8138 109.756 77.7418 109.828C77.6698 109.892 77.5658 109.924 77.4298 109.924H75.9178V112.888C75.9178 113.344 76.0138 113.692 76.2058 113.932C76.3978 114.164 76.7098 114.28 77.1418 114.28C77.2938 114.28 77.4218 114.264 77.5258 114.232C77.6378 114.2 77.7298 114.184 77.8018 114.184C77.8738 114.176 77.9338 114.2 77.9818 114.256C78.0298 114.312 78.0538 114.408 78.0538 114.544C78.0538 114.64 78.0338 114.728 77.9938 114.808C77.9618 114.888 77.9018 114.944 77.8138 114.976C77.7178 115.008 77.5898 115.036 77.4298 115.06C77.2778 115.092 77.1378 115.108 77.0098 115.108ZM82.5829 115.084C82.4229 115.084 82.2989 115.04 82.2109 114.952C82.1309 114.856 82.0909 114.728 82.0909 114.568V106.972C82.0909 106.804 82.1309 106.676 82.2109 106.588C82.2989 106.5 82.4229 106.456 82.5829 106.456C82.7429 106.456 82.8629 106.5 82.9429 106.588C83.0309 106.676 83.0749 106.804 83.0749 106.972V114.568C83.0749 114.728 83.0349 114.856 82.9549 114.952C82.8749 115.04 82.7509 115.084 82.5829 115.084ZM85.5209 115.084C85.3609 115.084 85.2409 115.04 85.1609 114.952C85.0809 114.864 85.0409 114.74 85.0409 114.58V109.576C85.0409 109.416 85.0809 109.296 85.1609 109.216C85.2409 109.128 85.3569 109.084 85.5089 109.084C85.6609 109.084 85.7769 109.128 85.8569 109.216C85.9449 109.296 85.9889 109.416 85.9889 109.576V110.608L85.8569 110.464C86.0249 110 86.2969 109.652 86.6729 109.42C87.0569 109.18 87.4969 109.06 87.9929 109.06C88.4569 109.06 88.8409 109.144 89.1449 109.312C89.4569 109.48 89.6889 109.736 89.8409 110.08C89.9929 110.416 90.0689 110.844 90.0689 111.364V114.58C90.0689 114.74 90.0249 114.864 89.9369 114.952C89.8569 115.04 89.7409 115.084 89.5889 115.084C89.4289 115.084 89.3049 115.04 89.2169 114.952C89.1369 114.864 89.0969 114.74 89.0969 114.58V111.424C89.0969 110.88 88.9889 110.484 88.7729 110.236C88.5649 109.98 88.2289 109.852 87.7649 109.852C87.2289 109.852 86.8009 110.02 86.4809 110.356C86.1689 110.684 86.0129 111.124 86.0129 111.676V114.58C86.0129 114.916 85.8489 115.084 85.5209 115.084ZM92.6532 115.084C92.5012 115.084 92.3812 115.04 92.2932 114.952C92.2132 114.864 92.1732 114.74 92.1732 114.58V109.924H91.4052C91.2772 109.924 91.1732 109.892 91.0932 109.828C91.0212 109.756 90.9852 109.66 90.9852 109.54C90.9852 109.42 91.0212 109.328 91.0932 109.264C91.1732 109.2 91.2772 109.168 91.4052 109.168H92.4372L92.1732 109.42V108.964C92.1732 108.204 92.3572 107.624 92.7252 107.224C93.1012 106.824 93.6492 106.592 94.3692 106.528L94.7172 106.492C94.8292 106.484 94.9172 106.504 94.9812 106.552C95.0532 106.6 95.0972 106.66 95.1132 106.732C95.1372 106.804 95.1412 106.88 95.1252 106.96C95.1092 107.032 95.0732 107.096 95.0172 107.152C94.9612 107.208 94.8932 107.24 94.8132 107.248L94.5372 107.272C94.0492 107.312 93.6932 107.46 93.4692 107.716C93.2532 107.972 93.1452 108.348 93.1452 108.844V109.348L93.0012 109.168H94.4412C94.5772 109.168 94.6812 109.2 94.7532 109.264C94.8252 109.328 94.8612 109.42 94.8612 109.54C94.8612 109.66 94.8252 109.756 94.7532 109.828C94.6812 109.892 94.5772 109.924 94.4412 109.924H93.1452V114.58C93.1452 114.916 92.9812 115.084 92.6532 115.084ZM98.1173 115.108C97.5493 115.108 97.0573 114.984 96.6413 114.736C96.2253 114.488 95.9013 114.14 95.6693 113.692C95.4453 113.236 95.3333 112.7 95.3333 112.084C95.3333 111.62 95.3973 111.204 95.5253 110.836C95.6533 110.46 95.8413 110.14 96.0893 109.876C96.3373 109.612 96.6293 109.412 96.9653 109.276C97.3093 109.132 97.6933 109.06 98.1173 109.06C98.6853 109.06 99.1773 109.184 99.5933 109.432C100.009 109.68 100.329 110.032 100.553 110.488C100.785 110.936 100.901 111.468 100.901 112.084C100.901 112.548 100.837 112.964 100.709 113.332C100.581 113.7 100.393 114.02 100.145 114.292C99.8973 114.556 99.6013 114.76 99.2573 114.904C98.9213 115.04 98.5413 115.108 98.1173 115.108ZM98.1173 114.328C98.4773 114.328 98.7933 114.24 99.0653 114.064C99.3373 113.888 99.5453 113.632 99.6893 113.296C99.8413 112.96 99.9173 112.556 99.9173 112.084C99.9173 111.356 99.7533 110.8 99.4253 110.416C99.1053 110.032 98.6693 109.84 98.1173 109.84C97.7493 109.84 97.4293 109.928 97.1573 110.104C96.8933 110.272 96.6853 110.524 96.5333 110.86C96.3893 111.188 96.3173 111.596 96.3173 112.084C96.3173 112.804 96.4813 113.36 96.8093 113.752C97.1373 114.136 97.5733 114.328 98.1173 114.328Z" fill="#64728C"/>
<rect x="28" y="134" width="284" height="36" rx="10" fill="white"/>
<path d="M40.86 156.12C39.98 156.12 39.224 155.944 38.592 155.592C37.968 155.232 37.488 154.728 37.152 154.08C36.816 153.424 36.648 152.652 36.648 151.764C36.648 151.1 36.744 150.504 36.936 149.976C37.128 149.44 37.404 148.984 37.764 148.608C38.124 148.224 38.564 147.932 39.084 147.732C39.612 147.524 40.204 147.42 40.86 147.42C41.3 147.42 41.732 147.476 42.156 147.588C42.58 147.7 42.952 147.86 43.272 148.068C43.44 148.172 43.552 148.3 43.608 148.452C43.664 148.596 43.676 148.74 43.644 148.884C43.612 149.02 43.544 149.136 43.44 149.232C43.344 149.328 43.22 149.384 43.068 149.4C42.924 149.408 42.764 149.356 42.588 149.244C42.34 149.084 42.072 148.968 41.784 148.896C41.496 148.824 41.204 148.788 40.908 148.788C40.34 148.788 39.86 148.904 39.468 149.136C39.076 149.368 38.78 149.704 38.58 150.144C38.38 150.584 38.28 151.124 38.28 151.764C38.28 152.396 38.38 152.936 38.58 153.384C38.78 153.832 39.076 154.172 39.468 154.404C39.86 154.636 40.34 154.752 40.908 154.752C41.212 154.752 41.512 154.716 41.808 154.644C42.104 154.564 42.384 154.444 42.648 154.284C42.824 154.18 42.98 154.136 43.116 154.152C43.26 154.16 43.38 154.208 43.476 154.296C43.572 154.384 43.636 154.496 43.668 154.632C43.7 154.76 43.692 154.896 43.644 155.04C43.596 155.176 43.5 155.296 43.356 155.4C43.036 155.632 42.652 155.812 42.204 155.94C41.764 156.06 41.316 156.12 40.86 156.12Z" fill="#38455D"/>
<path d="M47.4923 156.108C46.9243 156.108 46.4323 155.984 46.0163 155.736C45.6003 155.488 45.2763 155.14 45.0443 154.692C44.8203 154.236 44.7083 153.7 44.7083 153.084C44.7083 152.62 44.7723 152.204 44.9003 151.836C45.0283 151.46 45.2163 151.14 45.4643 150.876C45.7123 150.612 46.0043 150.412 46.3403 150.276C46.6843 150.132 47.0683 150.06 47.4923 150.06C48.0603 150.06 48.5523 150.184 48.9683 150.432C49.3843 150.68 49.7043 151.032 49.9283 151.488C50.1603 151.936 50.2763 152.468 50.2763 153.084C50.2763 153.548 50.2123 153.964 50.0843 154.332C49.9563 154.7 49.7683 155.02 49.5203 155.292C49.2723 155.556 48.9763 155.76 48.6323 155.904C48.2963 156.04 47.9163 156.108 47.4923 156.108ZM47.4923 155.328C47.8523 155.328 48.1683 155.24 48.4403 155.064C48.7123 154.888 48.9203 154.632 49.0643 154.296C49.2163 153.96 49.2923 153.556 49.2923 153.084C49.2923 152.356 49.1283 151.8 48.8003 151.416C48.4803 151.032 48.0443 150.84 47.4923 150.84C47.1243 150.84 46.8043 150.928 46.5323 151.104C46.2683 151.272 46.0603 151.524 45.9083 151.86C45.7643 152.188 45.6923 152.596 45.6923 153.084C45.6923 153.804 45.8563 154.36 46.1843 154.752C46.5123 155.136 46.9483 155.328 47.4923 155.328ZM52.2162 156.084C52.0562 156.084 51.9362 156.04 51.8562 155.952C51.7762 155.864 51.7362 155.74 51.7362 155.58V150.576C51.7362 150.416 51.7762 150.296 51.8562 150.216C51.9362 150.128 52.0522 150.084 52.2042 150.084C52.3562 150.084 52.4722 150.128 52.5522 150.216C52.6402 150.296 52.6842 150.416 52.6842 150.576V151.608L52.5522 151.464C52.7202 151 52.9922 150.652 53.3682 150.42C53.7522 150.18 54.1922 150.06 54.6882 150.06C55.1522 150.06 55.5362 150.144 55.8402 150.312C56.1522 150.48 56.3842 150.736 56.5362 151.08C56.6882 151.416 56.7642 151.844 56.7642 152.364V155.58C56.7642 155.74 56.7202 155.864 56.6322 155.952C56.5522 156.04 56.4362 156.084 56.2842 156.084C56.1242 156.084 56.0002 156.04 55.9122 155.952C55.8322 155.864 55.7922 155.74 55.7922 155.58V152.424C55.7922 151.88 55.6842 151.484 55.4682 151.236C55.2602 150.98 54.9242 150.852 54.4602 150.852C53.9242 150.852 53.4962 151.02 53.1762 151.356C52.8642 151.684 52.7082 152.124 52.7082 152.676V155.58C52.7082 155.916 52.5442 156.084 52.2162 156.084ZM60.8965 156.108C60.4405 156.108 60.0565 156.028 59.7445 155.868C59.4405 155.7 59.2125 155.46 59.0605 155.148C58.9085 154.828 58.8325 154.44 58.8325 153.984V150.924H58.0285C57.8925 150.924 57.7885 150.892 57.7165 150.828C57.6445 150.756 57.6085 150.66 57.6085 150.54C57.6085 150.42 57.6445 150.328 57.7165 150.264C57.7885 150.2 57.8925 150.168 58.0285 150.168H58.8325V148.788C58.8325 148.628 58.8765 148.508 58.9645 148.428C59.0525 148.34 59.1725 148.296 59.3245 148.296C59.4765 148.296 59.5925 148.34 59.6725 148.428C59.7605 148.508 59.8045 148.628 59.8045 148.788V150.168H61.3165C61.4525 150.168 61.5565 150.2 61.6285 150.264C61.7005 150.328 61.7365 150.42 61.7365 150.54C61.7365 150.66 61.7005 150.756 61.6285 150.828C61.5565 150.892 61.4525 150.924 61.3165 150.924H59.8045V153.888C59.8045 154.344 59.9005 154.692 60.0925 154.932C60.2845 155.164 60.5965 155.28 61.0285 155.28C61.1805 155.28 61.3085 155.264 61.4125 155.232C61.5245 155.2 61.6165 155.184 61.6885 155.184C61.7605 155.176 61.8205 155.2 61.8685 155.256C61.9165 155.312 61.9405 155.408 61.9405 155.544C61.9405 155.64 61.9205 155.728 61.8805 155.808C61.8485 155.888 61.7885 155.944 61.7005 155.976C61.6045 156.008 61.4765 156.036 61.3165 156.06C61.1645 156.092 61.0245 156.108 60.8965 156.108ZM64.5878 156.108C64.1878 156.108 63.8278 156.032 63.5078 155.88C63.1958 155.72 62.9478 155.504 62.7638 155.232C62.5798 154.96 62.4878 154.656 62.4878 154.32C62.4878 153.888 62.5958 153.548 62.8118 153.3C63.0358 153.052 63.3998 152.876 63.9038 152.772C64.4158 152.668 65.1118 152.616 65.9918 152.616H66.5318V153.252H66.0038C65.3558 153.252 64.8438 153.284 64.4678 153.348C64.0998 153.404 63.8398 153.504 63.6878 153.648C63.5438 153.792 63.4718 153.996 63.4718 154.26C63.4718 154.588 63.5838 154.856 63.8078 155.064C64.0398 155.272 64.3518 155.376 64.7438 155.376C65.0638 155.376 65.3438 155.3 65.5838 155.148C65.8318 154.996 66.0238 154.788 66.1598 154.524C66.3038 154.26 66.3758 153.956 66.3758 153.612V152.244C66.3758 151.748 66.2758 151.392 66.0758 151.176C65.8758 150.952 65.5478 150.84 65.0918 150.84C64.8118 150.84 64.5318 150.876 64.2518 150.948C63.9718 151.02 63.6758 151.136 63.3638 151.296C63.2518 151.352 63.1558 151.372 63.0758 151.356C62.9958 151.332 62.9318 151.288 62.8838 151.224C62.8358 151.16 62.8078 151.088 62.7998 151.008C62.7918 150.92 62.8078 150.836 62.8478 150.756C62.8958 150.676 62.9678 150.612 63.0638 150.564C63.4158 150.388 63.7638 150.26 64.1078 150.18C64.4518 150.1 64.7798 150.06 65.0918 150.06C65.5958 150.06 66.0118 150.144 66.3398 150.312C66.6678 150.472 66.9118 150.72 67.0718 151.056C67.2318 151.384 67.3118 151.808 67.3118 152.328V155.58C67.3118 155.74 67.2718 155.864 67.1918 155.952C67.1198 156.04 67.0118 156.084 66.8678 156.084C66.7158 156.084 66.5998 156.04 66.5198 155.952C66.4398 155.864 66.3998 155.74 66.3998 155.58V154.644H66.5078C66.4438 154.948 66.3198 155.208 66.1358 155.424C65.9598 155.64 65.7398 155.808 65.4758 155.928C65.2118 156.048 64.9158 156.108 64.5878 156.108ZM71.5871 156.108C71.0031 156.108 70.4991 155.98 70.0751 155.724C69.6511 155.468 69.3231 155.112 69.0911 154.656C68.8671 154.192 68.7551 153.656 68.7551 153.048C68.7551 152.584 68.8191 152.168 68.9471 151.8C69.0751 151.432 69.2631 151.12 69.5111 150.864C69.7591 150.6 70.0551 150.4 70.3991 150.264C70.7511 150.128 71.1471 150.06 71.5871 150.06C71.8751 150.06 72.1751 150.104 72.4871 150.192C72.7991 150.28 73.0831 150.432 73.3391 150.648C73.4191 150.704 73.4711 150.772 73.4951 150.852C73.5191 150.932 73.5191 151.012 73.4951 151.092C73.4711 151.164 73.4311 151.228 73.3751 151.284C73.3191 151.332 73.2471 151.36 73.1591 151.368C73.0791 151.376 72.9951 151.348 72.9071 151.284C72.6991 151.124 72.4871 151.012 72.2711 150.948C72.0551 150.884 71.8471 150.852 71.6471 150.852C71.3351 150.852 71.0631 150.904 70.8311 151.008C70.5991 151.104 70.4031 151.244 70.2431 151.428C70.0831 151.612 69.9591 151.84 69.8711 152.112C69.7911 152.384 69.7511 152.7 69.7511 153.06C69.7511 153.756 69.9151 154.308 70.2431 154.716C70.5711 155.116 71.0391 155.316 71.6471 155.316C71.8471 155.316 72.0511 155.284 72.2591 155.22C72.4751 155.156 72.6911 155.044 72.9071 154.884C72.9951 154.82 73.0791 154.792 73.1591 154.8C73.2391 154.808 73.3071 154.84 73.3631 154.896C73.4191 154.944 73.4551 155.008 73.4711 155.088C73.4951 155.168 73.4951 155.248 73.4711 155.328C73.4471 155.4 73.3951 155.464 73.3151 155.52C73.0591 155.728 72.7791 155.88 72.4751 155.976C72.1711 156.064 71.8751 156.108 71.5871 156.108ZM77.0098 156.108C76.5538 156.108 76.1698 156.028 75.8578 155.868C75.5538 155.7 75.3258 155.46 75.1738 155.148C75.0218 154.828 74.9458 154.44 74.9458 153.984V150.924H74.1418C74.0058 150.924 73.9018 150.892 73.8298 150.828C73.7578 150.756 73.7218 150.66 73.7218 150.54C73.7218 150.42 73.7578 150.328 73.8298 150.264C73.9018 150.2 74.0058 150.168 74.1418 150.168H74.9458V148.788C74.9458 148.628 74.9898 148.508 75.0778 148.428C75.1658 148.34 75.2858 148.296 75.4378 148.296C75.5898 148.296 75.7058 148.34 75.7858 148.428C75.8738 148.508 75.9178 148.628 75.9178 148.788V150.168H77.4298C77.5658 150.168 77.6698 150.2 77.7418 150.264C77.8138 150.328 77.8498 150.42 77.8498 150.54C77.8498 150.66 77.8138 150.756 77.7418 150.828C77.6698 150.892 77.5658 150.924 77.4298 150.924H75.9178V153.888C75.9178 154.344 76.0138 154.692 76.2058 154.932C76.3978 155.164 76.7098 155.28 77.1418 155.28C77.2938 155.28 77.4218 155.264 77.5258 155.232C77.6378 155.2 77.7298 155.184 77.8018 155.184C77.8738 155.176 77.9338 155.2 77.9818 155.256C78.0298 155.312 78.0538 155.408 78.0538 155.544C78.0538 155.64 78.0338 155.728 77.9938 155.808C77.9618 155.888 77.9018 155.944 77.8138 155.976C77.7178 156.008 77.5898 156.036 77.4298 156.06C77.2778 156.092 77.1378 156.108 77.0098 156.108ZM82.5589 156.084C82.4069 156.084 82.2909 156.044 82.2109 155.964C82.1309 155.876 82.0909 155.752 82.0909 155.592V147.96C82.0909 147.8 82.1309 147.676 82.2109 147.588C82.2909 147.5 82.3949 147.456 82.5229 147.456C82.6509 147.456 82.7429 147.48 82.7989 147.528C82.8629 147.568 82.9349 147.644 83.0149 147.756L88.2469 154.728H87.9589V147.936C87.9589 147.784 87.9989 147.668 88.0789 147.588C88.1589 147.5 88.2749 147.456 88.4269 147.456C88.5709 147.456 88.6789 147.5 88.7509 147.588C88.8309 147.668 88.8709 147.784 88.8709 147.936V155.604C88.8709 155.756 88.8349 155.876 88.7629 155.964C88.6989 156.044 88.6029 156.084 88.4749 156.084C88.3549 156.084 88.2589 156.06 88.1869 156.012C88.1149 155.964 88.0389 155.888 87.9589 155.784L82.7389 148.812H83.0149V155.592C83.0149 155.752 82.9749 155.876 82.8949 155.964C82.8149 156.044 82.7029 156.084 82.5589 156.084ZM92.9057 156.108C92.4337 156.108 92.0417 156.024 91.7297 155.856C91.4257 155.68 91.1937 155.42 91.0337 155.076C90.8817 154.732 90.8057 154.304 90.8057 153.792V150.576C90.8057 150.408 90.8457 150.284 90.9257 150.204C91.0137 150.124 91.1337 150.084 91.2857 150.084C91.4457 150.084 91.5657 150.124 91.6457 150.204C91.7337 150.284 91.7777 150.408 91.7777 150.576V153.78C91.7777 154.292 91.8817 154.676 92.0897 154.932C92.3057 155.18 92.6417 155.304 93.0977 155.304C93.5937 155.304 93.9977 155.136 94.3097 154.8C94.6217 154.464 94.7777 154.024 94.7777 153.48V150.576C94.7777 150.408 94.8177 150.284 94.8977 150.204C94.9857 150.124 95.1097 150.084 95.2697 150.084C95.4217 150.084 95.5377 150.124 95.6177 150.204C95.7057 150.284 95.7497 150.408 95.7497 150.576V155.58C95.7497 155.916 95.5937 156.084 95.2817 156.084C95.1297 156.084 95.0097 156.04 94.9217 155.952C94.8417 155.864 94.8017 155.74 94.8017 155.58V154.488L94.9577 154.656C94.7977 155.128 94.5337 155.488 94.1657 155.736C93.8057 155.984 93.3857 156.108 92.9057 156.108ZM98.0723 156.084C97.9123 156.084 97.7923 156.04 97.7123 155.952C97.6323 155.864 97.5923 155.74 97.5923 155.58V150.576C97.5923 150.416 97.6323 150.296 97.7123 150.216C97.7923 150.128 97.9083 150.084 98.0603 150.084C98.2123 150.084 98.3283 150.128 98.4083 150.216C98.4963 150.296 98.5403 150.416 98.5403 150.576V151.632L98.4083 151.464C98.5603 151.016 98.8043 150.672 99.1403 150.432C99.4843 150.184 99.8923 150.06 100.364 150.06C100.86 150.06 101.26 150.18 101.564 150.42C101.876 150.652 102.084 151.016 102.188 151.512H102.008C102.152 151.064 102.408 150.712 102.776 150.456C103.152 150.192 103.588 150.06 104.084 150.06C104.524 150.06 104.884 150.144 105.164 150.312C105.452 150.48 105.668 150.736 105.812 151.08C105.956 151.416 106.028 151.844 106.028 152.364V155.58C106.028 155.74 105.984 155.864 105.896 155.952C105.816 156.04 105.696 156.084 105.536 156.084C105.384 156.084 105.264 156.04 105.176 155.952C105.096 155.864 105.056 155.74 105.056 155.58V152.412C105.056 151.876 104.964 151.484 104.78 151.236C104.596 150.98 104.284 150.852 103.844 150.852C103.364 150.852 102.984 151.02 102.704 151.356C102.432 151.684 102.296 152.132 102.296 152.7V155.58C102.296 155.74 102.252 155.864 102.164 155.952C102.084 156.04 101.964 156.084 101.804 156.084C101.652 156.084 101.532 156.04 101.444 155.952C101.364 155.864 101.324 155.74 101.324 155.58V152.412C101.324 151.876 101.228 151.484 101.036 151.236C100.852 150.98 100.544 150.852 100.112 150.852C99.6323 150.852 99.2523 151.02 98.9723 151.356C98.7003 151.684 98.5643 152.132 98.5643 152.7V155.58C98.5643 155.916 98.4003 156.084 98.0723 156.084ZM110.798 156.108C110.27 156.108 109.814 155.972 109.43 155.7C109.054 155.428 108.802 155.064 108.674 154.608L108.806 154.476V155.58C108.806 155.74 108.762 155.864 108.674 155.952C108.594 156.04 108.478 156.084 108.326 156.084C108.166 156.084 108.046 156.04 107.966 155.952C107.886 155.864 107.846 155.74 107.846 155.58V147.948C107.846 147.788 107.886 147.668 107.966 147.588C108.046 147.5 108.166 147.456 108.326 147.456C108.478 147.456 108.598 147.5 108.686 147.588C108.774 147.668 108.818 147.788 108.818 147.948V151.524H108.674C108.81 151.076 109.066 150.72 109.442 150.456C109.818 150.192 110.27 150.06 110.798 150.06C111.326 150.06 111.782 150.184 112.166 150.432C112.55 150.672 112.846 151.02 113.054 151.476C113.27 151.924 113.378 152.46 113.378 153.084C113.378 153.7 113.27 154.236 113.054 154.692C112.846 155.14 112.546 155.488 112.154 155.736C111.77 155.984 111.318 156.108 110.798 156.108ZM110.594 155.328C110.962 155.328 111.278 155.24 111.542 155.064C111.814 154.888 112.022 154.632 112.166 154.296C112.318 153.96 112.394 153.556 112.394 153.084C112.394 152.356 112.23 151.8 111.902 151.416C111.582 151.032 111.146 150.84 110.594 150.84C110.234 150.84 109.918 150.928 109.646 151.104C109.374 151.272 109.162 151.524 109.01 151.86C108.866 152.188 108.794 152.596 108.794 153.084C108.794 153.804 108.958 154.36 109.286 154.752C109.614 155.136 110.05 155.328 110.594 155.328ZM117.47 156.108C116.854 156.108 116.322 155.988 115.874 155.748C115.434 155.5 115.09 155.152 114.842 154.704C114.602 154.256 114.482 153.72 114.482 153.096C114.482 152.488 114.602 151.96 114.842 151.512C115.082 151.056 115.41 150.7 115.826 150.444C116.25 150.188 116.738 150.06 117.29 150.06C117.682 150.06 118.034 150.128 118.346 150.264C118.658 150.392 118.922 150.58 119.138 150.828C119.362 151.076 119.53 151.376 119.642 151.728C119.762 152.08 119.822 152.476 119.822 152.916C119.822 153.044 119.786 153.14 119.714 153.204C119.642 153.26 119.538 153.288 119.402 153.288H115.226V152.652H119.174L118.982 152.808C118.982 152.376 118.918 152.012 118.79 151.716C118.662 151.412 118.474 151.18 118.226 151.02C117.986 150.86 117.682 150.78 117.314 150.78C116.906 150.78 116.558 150.876 116.27 151.068C115.99 151.252 115.778 151.512 115.634 151.848C115.49 152.176 115.418 152.56 115.418 153V153.072C115.418 153.808 115.594 154.368 115.946 154.752C116.306 155.136 116.814 155.328 117.47 155.328C117.742 155.328 118.01 155.292 118.274 155.22C118.546 155.148 118.81 155.028 119.066 154.86C119.178 154.788 119.278 154.756 119.366 154.764C119.462 154.764 119.538 154.792 119.594 154.848C119.65 154.896 119.686 154.96 119.702 155.04C119.726 155.112 119.718 155.192 119.678 155.28C119.646 155.368 119.578 155.444 119.474 155.508C119.21 155.7 118.898 155.848 118.538 155.952C118.178 156.056 117.822 156.108 117.47 156.108ZM121.72 156.084C121.56 156.084 121.436 156.04 121.348 155.952C121.268 155.864 121.228 155.74 121.228 155.58V150.576C121.228 150.416 121.268 150.296 121.348 150.216C121.428 150.128 121.544 150.084 121.696 150.084C121.848 150.084 121.964 150.128 122.044 150.216C122.132 150.296 122.176 150.416 122.176 150.576V151.548H122.056C122.184 151.076 122.428 150.712 122.788 150.456C123.148 150.2 123.592 150.064 124.12 150.048C124.24 150.04 124.336 150.068 124.408 150.132C124.48 150.188 124.52 150.288 124.528 150.432C124.536 150.568 124.504 150.676 124.432 150.756C124.36 150.836 124.248 150.884 124.096 150.9L123.904 150.924C123.36 150.972 122.94 151.148 122.644 151.452C122.356 151.748 122.212 152.156 122.212 152.676V155.58C122.212 155.74 122.168 155.864 122.08 155.952C122 156.04 121.88 156.084 121.72 156.084Z" fill="#64728C"/>
<rect x="28" y="175" width="284" height="36" rx="10" fill="white"/>
<path d="M40.86 197.12C39.98 197.12 39.224 196.944 38.592 196.592C37.968 196.232 37.488 195.728 37.152 195.08C36.816 194.424 36.648 193.652 36.648 192.764C36.648 192.1 36.744 191.504 36.936 190.976C37.128 190.44 37.404 189.984 37.764 189.608C38.124 189.224 38.564 188.932 39.084 188.732C39.612 188.524 40.204 188.42 40.86 188.42C41.3 188.42 41.732 188.476 42.156 188.588C42.58 188.7 42.952 188.86 43.272 189.068C43.44 189.172 43.552 189.3 43.608 189.452C43.664 189.596 43.676 189.74 43.644 189.884C43.612 190.02 43.544 190.136 43.44 190.232C43.344 190.328 43.22 190.384 43.068 190.4C42.924 190.408 42.764 190.356 42.588 190.244C42.34 190.084 42.072 189.968 41.784 189.896C41.496 189.824 41.204 189.788 40.908 189.788C40.34 189.788 39.86 189.904 39.468 190.136C39.076 190.368 38.78 190.704 38.58 191.144C38.38 191.584 38.28 192.124 38.28 192.764C38.28 193.396 38.38 193.936 38.58 194.384C38.78 194.832 39.076 195.172 39.468 195.404C39.86 195.636 40.34 195.752 40.908 195.752C41.212 195.752 41.512 195.716 41.808 195.644C42.104 195.564 42.384 195.444 42.648 195.284C42.824 195.18 42.98 195.136 43.116 195.152C43.26 195.16 43.38 195.208 43.476 195.296C43.572 195.384 43.636 195.496 43.668 195.632C43.7 195.76 43.692 195.896 43.644 196.04C43.596 196.176 43.5 196.296 43.356 196.4C43.036 196.632 42.652 196.812 42.204 196.94C41.764 197.06 41.316 197.12 40.86 197.12Z" fill="#38455D"/>
<path d="M47.4923 197.108C46.9243 197.108 46.4323 196.984 46.0163 196.736C45.6003 196.488 45.2763 196.14 45.0443 195.692C44.8203 195.236 44.7083 194.7 44.7083 194.084C44.7083 193.62 44.7723 193.204 44.9003 192.836C45.0283 192.46 45.2163 192.14 45.4643 191.876C45.7123 191.612 46.0043 191.412 46.3403 191.276C46.6843 191.132 47.0683 191.06 47.4923 191.06C48.0603 191.06 48.5523 191.184 48.9683 191.432C49.3843 191.68 49.7043 192.032 49.9283 192.488C50.1603 192.936 50.2763 193.468 50.2763 194.084C50.2763 194.548 50.2123 194.964 50.0843 195.332C49.9563 195.7 49.7683 196.02 49.5203 196.292C49.2723 196.556 48.9763 196.76 48.6323 196.904C48.2963 197.04 47.9163 197.108 47.4923 197.108ZM47.4923 196.328C47.8523 196.328 48.1683 196.24 48.4403 196.064C48.7123 195.888 48.9203 195.632 49.0643 195.296C49.2163 194.96 49.2923 194.556 49.2923 194.084C49.2923 193.356 49.1283 192.8 48.8003 192.416C48.4803 192.032 48.0443 191.84 47.4923 191.84C47.1243 191.84 46.8043 191.928 46.5323 192.104C46.2683 192.272 46.0603 192.524 45.9083 192.86C45.7643 193.188 45.6923 193.596 45.6923 194.084C45.6923 194.804 45.8563 195.36 46.1843 195.752C46.5123 196.136 46.9483 196.328 47.4923 196.328ZM52.2162 197.084C52.0562 197.084 51.9362 197.04 51.8562 196.952C51.7762 196.864 51.7362 196.74 51.7362 196.58V191.576C51.7362 191.416 51.7762 191.296 51.8562 191.216C51.9362 191.128 52.0522 191.084 52.2042 191.084C52.3562 191.084 52.4722 191.128 52.5522 191.216C52.6402 191.296 52.6842 191.416 52.6842 191.576V192.608L52.5522 192.464C52.7202 192 52.9922 191.652 53.3682 191.42C53.7522 191.18 54.1922 191.06 54.6882 191.06C55.1522 191.06 55.5362 191.144 55.8402 191.312C56.1522 191.48 56.3842 191.736 56.5362 192.08C56.6882 192.416 56.7642 192.844 56.7642 193.364V196.58C56.7642 196.74 56.7202 196.864 56.6322 196.952C56.5522 197.04 56.4362 197.084 56.2842 197.084C56.1242 197.084 56.0002 197.04 55.9122 196.952C55.8322 196.864 55.7922 196.74 55.7922 196.58V193.424C55.7922 192.88 55.6842 192.484 55.4682 192.236C55.2602 191.98 54.9242 191.852 54.4602 191.852C53.9242 191.852 53.4962 192.02 53.1762 192.356C52.8642 192.684 52.7082 193.124 52.7082 193.676V196.58C52.7082 196.916 52.5442 197.084 52.2162 197.084ZM60.8965 197.108C60.4405 197.108 60.0565 197.028 59.7445 196.868C59.4405 196.7 59.2125 196.46 59.0605 196.148C58.9085 195.828 58.8325 195.44 58.8325 194.984V191.924H58.0285C57.8925 191.924 57.7885 191.892 57.7165 191.828C57.6445 191.756 57.6085 191.66 57.6085 191.54C57.6085 191.42 57.6445 191.328 57.7165 191.264C57.7885 191.2 57.8925 191.168 58.0285 191.168H58.8325V189.788C58.8325 189.628 58.8765 189.508 58.9645 189.428C59.0525 189.34 59.1725 189.296 59.3245 189.296C59.4765 189.296 59.5925 189.34 59.6725 189.428C59.7605 189.508 59.8045 189.628 59.8045 189.788V191.168H61.3165C61.4525 191.168 61.5565 191.2 61.6285 191.264C61.7005 191.328 61.7365 191.42 61.7365 191.54C61.7365 191.66 61.7005 191.756 61.6285 191.828C61.5565 191.892 61.4525 191.924 61.3165 191.924H59.8045V194.888C59.8045 195.344 59.9005 195.692 60.0925 195.932C60.2845 196.164 60.5965 196.28 61.0285 196.28C61.1805 196.28 61.3085 196.264 61.4125 196.232C61.5245 196.2 61.6165 196.184 61.6885 196.184C61.7605 196.176 61.8205 196.2 61.8685 196.256C61.9165 196.312 61.9405 196.408 61.9405 196.544C61.9405 196.64 61.9205 196.728 61.8805 196.808C61.8485 196.888 61.7885 196.944 61.7005 196.976C61.6045 197.008 61.4765 197.036 61.3165 197.06C61.1645 197.092 61.0245 197.108 60.8965 197.108ZM63.2438 197.084C63.0838 197.084 62.9598 197.04 62.8718 196.952C62.7918 196.864 62.7518 196.74 62.7518 196.58V191.576C62.7518 191.416 62.7918 191.296 62.8718 191.216C62.9518 191.128 63.0678 191.084 63.2198 191.084C63.3718 191.084 63.4878 191.128 63.5678 191.216C63.6558 191.296 63.6998 191.416 63.6998 191.576V192.548H63.5798C63.7078 192.076 63.9518 191.712 64.3118 191.456C64.6718 191.2 65.1158 191.064 65.6438 191.048C65.7638 191.04 65.8598 191.068 65.9318 191.132C66.0038 191.188 66.0438 191.288 66.0518 191.432C66.0598 191.568 66.0278 191.676 65.9558 191.756C65.8838 191.836 65.7718 191.884 65.6198 191.9L65.4278 191.924C64.8838 191.972 64.4638 192.148 64.1678 192.452C63.8798 192.748 63.7358 193.156 63.7358 193.676V196.58C63.7358 196.74 63.6918 196.864 63.6038 196.952C63.5238 197.04 63.4038 197.084 63.2438 197.084ZM68.83 197.108C68.43 197.108 68.07 197.032 67.75 196.88C67.438 196.72 67.19 196.504 67.006 196.232C66.822 195.96 66.73 195.656 66.73 195.32C66.73 194.888 66.838 194.548 67.054 194.3C67.278 194.052 67.642 193.876 68.146 193.772C68.658 193.668 69.354 193.616 70.234 193.616H70.774V194.252H70.246C69.598 194.252 69.086 194.284 68.71 194.348C68.342 194.404 68.082 194.504 67.93 194.648C67.786 194.792 67.714 194.996 67.714 195.26C67.714 195.588 67.826 195.856 68.05 196.064C68.282 196.272 68.594 196.376 68.986 196.376C69.306 196.376 69.586 196.3 69.826 196.148C70.074 195.996 70.266 195.788 70.402 195.524C70.546 195.26 70.618 194.956 70.618 194.612V193.244C70.618 192.748 70.518 192.392 70.318 192.176C70.118 191.952 69.79 191.84 69.334 191.84C69.054 191.84 68.774 191.876 68.494 191.948C68.214 192.02 67.918 192.136 67.606 192.296C67.494 192.352 67.398 192.372 67.318 192.356C67.238 192.332 67.174 192.288 67.126 192.224C67.078 192.16 67.05 192.088 67.042 192.008C67.034 191.92 67.05 191.836 67.09 191.756C67.138 191.676 67.21 191.612 67.306 191.564C67.658 191.388 68.006 191.26 68.35 191.18C68.694 191.1 69.022 191.06 69.334 191.06C69.838 191.06 70.254 191.144 70.582 191.312C70.91 191.472 71.154 191.72 71.314 192.056C71.474 192.384 71.554 192.808 71.554 193.328V196.58C71.554 196.74 71.514 196.864 71.434 196.952C71.362 197.04 71.254 197.084 71.11 197.084C70.958 197.084 70.842 197.04 70.762 196.952C70.682 196.864 70.642 196.74 70.642 196.58V195.644H70.75C70.686 195.948 70.562 196.208 70.378 196.424C70.202 196.64 69.982 196.808 69.718 196.928C69.454 197.048 69.158 197.108 68.83 197.108ZM75.8293 197.108C75.2453 197.108 74.7413 196.98 74.3173 196.724C73.8933 196.468 73.5653 196.112 73.3333 195.656C73.1093 195.192 72.9973 194.656 72.9973 194.048C72.9973 193.584 73.0613 193.168 73.1893 192.8C73.3173 192.432 73.5053 192.12 73.7533 191.864C74.0013 191.6 74.2973 191.4 74.6413 191.264C74.9933 191.128 75.3893 191.06 75.8293 191.06C76.1173 191.06 76.4173 191.104 76.7293 191.192C77.0413 191.28 77.3253 191.432 77.5813 191.648C77.6613 191.704 77.7133 191.772 77.7373 191.852C77.7613 191.932 77.7613 192.012 77.7373 192.092C77.7133 192.164 77.6733 192.228 77.6173 192.284C77.5613 192.332 77.4893 192.36 77.4013 192.368C77.3213 192.376 77.2373 192.348 77.1493 192.284C76.9413 192.124 76.7293 192.012 76.5133 191.948C76.2973 191.884 76.0893 191.852 75.8893 191.852C75.5773 191.852 75.3053 191.904 75.0733 192.008C74.8413 192.104 74.6453 192.244 74.4853 192.428C74.3253 192.612 74.2013 192.84 74.1133 193.112C74.0333 193.384 73.9933 193.7 73.9933 194.06C73.9933 194.756 74.1573 195.308 74.4853 195.716C74.8133 196.116 75.2813 196.316 75.8893 196.316C76.0893 196.316 76.2933 196.284 76.5013 196.22C76.7173 196.156 76.9333 196.044 77.1493 195.884C77.2373 195.82 77.3213 195.792 77.4013 195.8C77.4813 195.808 77.5493 195.84 77.6053 195.896C77.6613 195.944 77.6973 196.008 77.7133 196.088C77.7373 196.168 77.7373 196.248 77.7133 196.328C77.6893 196.4 77.6373 196.464 77.5573 196.52C77.3013 196.728 77.0213 196.88 76.7173 196.976C76.4133 197.064 76.1173 197.108 75.8293 197.108ZM81.252 197.108C80.796 197.108 80.412 197.028 80.1 196.868C79.796 196.7 79.568 196.46 79.416 196.148C79.264 195.828 79.188 195.44 79.188 194.984V191.924H78.384C78.248 191.924 78.144 191.892 78.072 191.828C78 191.756 77.964 191.66 77.964 191.54C77.964 191.42 78 191.328 78.072 191.264C78.144 191.2 78.248 191.168 78.384 191.168H79.188V189.788C79.188 189.628 79.232 189.508 79.32 189.428C79.408 189.34 79.528 189.296 79.68 189.296C79.832 189.296 79.948 189.34 80.028 189.428C80.116 189.508 80.16 189.628 80.16 189.788V191.168H81.672C81.808 191.168 81.912 191.2 81.984 191.264C82.056 191.328 82.092 191.42 82.092 191.54C82.092 191.66 82.056 191.756 81.984 191.828C81.912 191.892 81.808 191.924 81.672 191.924H80.16V194.888C80.16 195.344 80.256 195.692 80.448 195.932C80.64 196.164 80.952 196.28 81.384 196.28C81.536 196.28 81.664 196.264 81.768 196.232C81.88 196.2 81.972 196.184 82.044 196.184C82.116 196.176 82.176 196.2 82.224 196.256C82.272 196.312 82.296 196.408 82.296 196.544C82.296 196.64 82.276 196.728 82.236 196.808C82.204 196.888 82.144 196.944 82.056 196.976C81.96 197.008 81.832 197.036 81.672 197.06C81.52 197.092 81.38 197.108 81.252 197.108ZM85.4727 197.108C84.9047 197.108 84.4127 196.984 83.9967 196.736C83.5807 196.488 83.2567 196.14 83.0247 195.692C82.8007 195.236 82.6887 194.7 82.6887 194.084C82.6887 193.62 82.7527 193.204 82.8807 192.836C83.0087 192.46 83.1967 192.14 83.4447 191.876C83.6927 191.612 83.9847 191.412 84.3207 191.276C84.6647 191.132 85.0487 191.06 85.4727 191.06C86.0407 191.06 86.5327 191.184 86.9487 191.432C87.3647 191.68 87.6847 192.032 87.9087 192.488C88.1407 192.936 88.2567 193.468 88.2567 194.084C88.2567 194.548 88.1927 194.964 88.0647 195.332C87.9367 195.7 87.7487 196.02 87.5007 196.292C87.2527 196.556 86.9567 196.76 86.6127 196.904C86.2767 197.04 85.8967 197.108 85.4727 197.108ZM85.4727 196.328C85.8327 196.328 86.1487 196.24 86.4207 196.064C86.6927 195.888 86.9007 195.632 87.0447 195.296C87.1967 194.96 87.2727 194.556 87.2727 194.084C87.2727 193.356 87.1087 192.8 86.7807 192.416C86.4607 192.032 86.0247 191.84 85.4727 191.84C85.1047 191.84 84.7847 191.928 84.5127 192.104C84.2487 192.272 84.0407 192.524 83.8887 192.86C83.7447 193.188 83.6727 193.596 83.6727 194.084C83.6727 194.804 83.8367 195.36 84.1647 195.752C84.4927 196.136 84.9287 196.328 85.4727 196.328ZM90.2087 197.084C90.0487 197.084 89.9247 197.04 89.8367 196.952C89.7567 196.864 89.7167 196.74 89.7167 196.58V191.576C89.7167 191.416 89.7567 191.296 89.8367 191.216C89.9167 191.128 90.0327 191.084 90.1847 191.084C90.3367 191.084 90.4527 191.128 90.5327 191.216C90.6207 191.296 90.6647 191.416 90.6647 191.576V192.548H90.5447C90.6727 192.076 90.9167 191.712 91.2767 191.456C91.6367 191.2 92.0807 191.064 92.6087 191.048C92.7287 191.04 92.8247 191.068 92.8967 191.132C92.9687 191.188 93.0087 191.288 93.0167 191.432C93.0247 191.568 92.9927 191.676 92.9207 191.756C92.8487 191.836 92.7367 191.884 92.5847 191.9L92.3927 191.924C91.8487 191.972 91.4287 192.148 91.1327 192.452C90.8447 192.748 90.7007 193.156 90.7007 193.676V196.58C90.7007 196.74 90.6567 196.864 90.5687 196.952C90.4887 197.04 90.3687 197.084 90.2087 197.084Z" fill="#64728C"/>
<rect x="28" y="216" width="284" height="36" rx="10" fill="white"/>
<path d="M40.86 238.12C39.98 238.12 39.224 237.944 38.592 237.592C37.968 237.232 37.488 236.728 37.152 236.08C36.816 235.424 36.648 234.652 36.648 233.764C36.648 233.1 36.744 232.504 36.936 231.976C37.128 231.44 37.404 230.984 37.764 230.608C38.124 230.224 38.564 229.932 39.084 229.732C39.612 229.524 40.204 229.42 40.86 229.42C41.3 229.42 41.732 229.476 42.156 229.588C42.58 229.7 42.952 229.86 43.272 230.068C43.44 230.172 43.552 230.3 43.608 230.452C43.664 230.596 43.676 230.74 43.644 230.884C43.612 231.02 43.544 231.136 43.44 231.232C43.344 231.328 43.22 231.384 43.068 231.4C42.924 231.408 42.764 231.356 42.588 231.244C42.34 231.084 42.072 230.968 41.784 230.896C41.496 230.824 41.204 230.788 40.908 230.788C40.34 230.788 39.86 230.904 39.468 231.136C39.076 231.368 38.78 231.704 38.58 232.144C38.38 232.584 38.28 233.124 38.28 233.764C38.28 234.396 38.38 234.936 38.58 235.384C38.78 235.832 39.076 236.172 39.468 236.404C39.86 236.636 40.34 236.752 40.908 236.752C41.212 236.752 41.512 236.716 41.808 236.644C42.104 236.564 42.384 236.444 42.648 236.284C42.824 236.18 42.98 236.136 43.116 236.152C43.26 236.16 43.38 236.208 43.476 236.296C43.572 236.384 43.636 236.496 43.668 236.632C43.7 236.76 43.692 236.896 43.644 237.04C43.596 237.176 43.5 237.296 43.356 237.4C43.036 237.632 42.652 237.812 42.204 237.94C41.764 238.06 41.316 238.12 40.86 238.12Z" fill="#38455D"/>
<path d="M47.4923 238.108C46.9243 238.108 46.4323 237.984 46.0163 237.736C45.6003 237.488 45.2763 237.14 45.0443 236.692C44.8203 236.236 44.7083 235.7 44.7083 235.084C44.7083 234.62 44.7723 234.204 44.9003 233.836C45.0283 233.46 45.2163 233.14 45.4643 232.876C45.7123 232.612 46.0043 232.412 46.3403 232.276C46.6843 232.132 47.0683 232.06 47.4923 232.06C48.0603 232.06 48.5523 232.184 48.9683 232.432C49.3843 232.68 49.7043 233.032 49.9283 233.488C50.1603 233.936 50.2763 234.468 50.2763 235.084C50.2763 235.548 50.2123 235.964 50.0843 236.332C49.9563 236.7 49.7683 237.02 49.5203 237.292C49.2723 237.556 48.9763 237.76 48.6323 237.904C48.2963 238.04 47.9163 238.108 47.4923 238.108ZM47.4923 237.328C47.8523 237.328 48.1683 237.24 48.4403 237.064C48.7123 236.888 48.9203 236.632 49.0643 236.296C49.2163 235.96 49.2923 235.556 49.2923 235.084C49.2923 234.356 49.1283 233.8 48.8003 233.416C48.4803 233.032 48.0443 232.84 47.4923 232.84C47.1243 232.84 46.8043 232.928 46.5323 233.104C46.2683 233.272 46.0603 233.524 45.9083 233.86C45.7643 234.188 45.6923 234.596 45.6923 235.084C45.6923 235.804 45.8563 236.36 46.1843 236.752C46.5123 237.136 46.9483 237.328 47.4923 237.328ZM52.2162 238.084C52.0562 238.084 51.9362 238.04 51.8562 237.952C51.7762 237.864 51.7362 237.74 51.7362 237.58V232.576C51.7362 232.416 51.7762 232.296 51.8562 232.216C51.9362 232.128 52.0522 232.084 52.2042 232.084C52.3562 232.084 52.4722 232.128 52.5522 232.216C52.6402 232.296 52.6842 232.416 52.6842 232.576V233.608L52.5522 233.464C52.7202 233 52.9922 232.652 53.3682 232.42C53.7522 232.18 54.1922 232.06 54.6882 232.06C55.1522 232.06 55.5362 232.144 55.8402 232.312C56.1522 232.48 56.3842 232.736 56.5362 233.08C56.6882 233.416 56.7642 233.844 56.7642 234.364V237.58C56.7642 237.74 56.7202 237.864 56.6322 237.952C56.5522 238.04 56.4362 238.084 56.2842 238.084C56.1242 238.084 56.0002 238.04 55.9122 237.952C55.8322 237.864 55.7922 237.74 55.7922 237.58V234.424C55.7922 233.88 55.6842 233.484 55.4682 233.236C55.2602 232.98 54.9242 232.852 54.4602 232.852C53.9242 232.852 53.4962 233.02 53.1762 233.356C52.8642 233.684 52.7082 234.124 52.7082 234.676V237.58C52.7082 237.916 52.5442 238.084 52.2162 238.084ZM60.8965 238.108C60.4405 238.108 60.0565 238.028 59.7445 237.868C59.4405 237.7 59.2125 237.46 59.0605 237.148C58.9085 236.828 58.8325 236.44 58.8325 235.984V232.924H58.0285C57.8925 232.924 57.7885 232.892 57.7165 232.828C57.6445 232.756 57.6085 232.66 57.6085 232.54C57.6085 232.42 57.6445 232.328 57.7165 232.264C57.7885 232.2 57.8925 232.168 58.0285 232.168H58.8325V230.788C58.8325 230.628 58.8765 230.508 58.9645 230.428C59.0525 230.34 59.1725 230.296 59.3245 230.296C59.4765 230.296 59.5925 230.34 59.6725 230.428C59.7605 230.508 59.8045 230.628 59.8045 230.788V232.168H61.3165C61.4525 232.168 61.5565 232.2 61.6285 232.264C61.7005 232.328 61.7365 232.42 61.7365 232.54C61.7365 232.66 61.7005 232.756 61.6285 232.828C61.5565 232.892 61.4525 232.924 61.3165 232.924H59.8045V235.888C59.8045 236.344 59.9005 236.692 60.0925 236.932C60.2845 237.164 60.5965 237.28 61.0285 237.28C61.1805 237.28 61.3085 237.264 61.4125 237.232C61.5245 237.2 61.6165 237.184 61.6885 237.184C61.7605 237.176 61.8205 237.2 61.8685 237.256C61.9165 237.312 61.9405 237.408 61.9405 237.544C61.9405 237.64 61.9205 237.728 61.8805 237.808C61.8485 237.888 61.7885 237.944 61.7005 237.976C61.6045 238.008 61.4765 238.036 61.3165 238.06C61.1645 238.092 61.0245 238.108 60.8965 238.108ZM64.5878 238.108C64.1878 238.108 63.8278 238.032 63.5078 237.88C63.1958 237.72 62.9478 237.504 62.7638 237.232C62.5798 236.96 62.4878 236.656 62.4878 236.32C62.4878 235.888 62.5958 235.548 62.8118 235.3C63.0358 235.052 63.3998 234.876 63.9038 234.772C64.4158 234.668 65.1118 234.616 65.9918 234.616H66.5318V235.252H66.0038C65.3558 235.252 64.8438 235.284 64.4678 235.348C64.0998 235.404 63.8398 235.504 63.6878 235.648C63.5438 235.792 63.4718 235.996 63.4718 236.26C63.4718 236.588 63.5838 236.856 63.8078 237.064C64.0398 237.272 64.3518 237.376 64.7438 237.376C65.0638 237.376 65.3438 237.3 65.5838 237.148C65.8318 236.996 66.0238 236.788 66.1598 236.524C66.3038 236.26 66.3758 235.956 66.3758 235.612V234.244C66.3758 233.748 66.2758 233.392 66.0758 233.176C65.8758 232.952 65.5478 232.84 65.0918 232.84C64.8118 232.84 64.5318 232.876 64.2518 232.948C63.9718 233.02 63.6758 233.136 63.3638 233.296C63.2518 233.352 63.1558 233.372 63.0758 233.356C62.9958 233.332 62.9318 233.288 62.8838 233.224C62.8358 233.16 62.8078 233.088 62.7998 233.008C62.7918 232.92 62.8078 232.836 62.8478 232.756C62.8958 232.676 62.9678 232.612 63.0638 232.564C63.4158 232.388 63.7638 232.26 64.1078 232.18C64.4518 232.1 64.7798 232.06 65.0918 232.06C65.5958 232.06 66.0118 232.144 66.3398 232.312C66.6678 232.472 66.9118 232.72 67.0718 233.056C67.2318 233.384 67.3118 233.808 67.3118 234.328V237.58C67.3118 237.74 67.2718 237.864 67.1918 237.952C67.1198 238.04 67.0118 238.084 66.8678 238.084C66.7158 238.084 66.5998 238.04 66.5198 237.952C66.4398 237.864 66.3998 237.74 66.3998 237.58V236.644H66.5078C66.4438 236.948 66.3198 237.208 66.1358 237.424C65.9598 237.64 65.7398 237.808 65.4758 237.928C65.2118 238.048 64.9158 238.108 64.5878 238.108ZM71.5871 238.108C71.0031 238.108 70.4991 237.98 70.0751 237.724C69.6511 237.468 69.3231 237.112 69.0911 236.656C68.8671 236.192 68.7551 235.656 68.7551 235.048C68.7551 234.584 68.8191 234.168 68.9471 233.8C69.0751 233.432 69.2631 233.12 69.5111 232.864C69.7591 232.6 70.0551 232.4 70.3991 232.264C70.7511 232.128 71.1471 232.06 71.5871 232.06C71.8751 232.06 72.1751 232.104 72.4871 232.192C72.7991 232.28 73.0831 232.432 73.3391 232.648C73.4191 232.704 73.4711 232.772 73.4951 232.852C73.5191 232.932 73.5191 233.012 73.4951 233.092C73.4711 233.164 73.4311 233.228 73.3751 233.284C73.3191 233.332 73.2471 233.36 73.1591 233.368C73.0791 233.376 72.9951 233.348 72.9071 233.284C72.6991 233.124 72.4871 233.012 72.2711 232.948C72.0551 232.884 71.8471 232.852 71.6471 232.852C71.3351 232.852 71.0631 232.904 70.8311 233.008C70.5991 233.104 70.4031 233.244 70.2431 233.428C70.0831 233.612 69.9591 233.84 69.8711 234.112C69.7911 234.384 69.7511 234.7 69.7511 235.06C69.7511 235.756 69.9151 236.308 70.2431 236.716C70.5711 237.116 71.0391 237.316 71.6471 237.316C71.8471 237.316 72.0511 237.284 72.2591 237.22C72.4751 237.156 72.6911 237.044 72.9071 236.884C72.9951 236.82 73.0791 236.792 73.1591 236.8C73.2391 236.808 73.3071 236.84 73.3631 236.896C73.4191 236.944 73.4551 237.008 73.4711 237.088C73.4951 237.168 73.4951 237.248 73.4711 237.328C73.4471 237.4 73.3951 237.464 73.3151 237.52C73.0591 237.728 72.7791 237.88 72.4751 237.976C72.1711 238.064 71.8751 238.108 71.5871 238.108ZM77.0098 238.108C76.5538 238.108 76.1698 238.028 75.8578 237.868C75.5538 237.7 75.3258 237.46 75.1738 237.148C75.0218 236.828 74.9458 236.44 74.9458 235.984V232.924H74.1418C74.0058 232.924 73.9018 232.892 73.8298 232.828C73.7578 232.756 73.7218 232.66 73.7218 232.54C73.7218 232.42 73.7578 232.328 73.8298 232.264C73.9018 232.2 74.0058 232.168 74.1418 232.168H74.9458V230.788C74.9458 230.628 74.9898 230.508 75.0778 230.428C75.1658 230.34 75.2858 230.296 75.4378 230.296C75.5898 230.296 75.7058 230.34 75.7858 230.428C75.8738 230.508 75.9178 230.628 75.9178 230.788V232.168H77.4298C77.5658 232.168 77.6698 232.2 77.7418 232.264C77.8138 232.328 77.8498 232.42 77.8498 232.54C77.8498 232.66 77.8138 232.756 77.7418 232.828C77.6698 232.892 77.5658 232.924 77.4298 232.924H75.9178V235.888C75.9178 236.344 76.0138 236.692 76.2058 236.932C76.3978 237.164 76.7098 237.28 77.1418 237.28C77.2938 237.28 77.4218 237.264 77.5258 237.232C77.6378 237.2 77.7298 237.184 77.8018 237.184C77.8738 237.176 77.9338 237.2 77.9818 237.256C78.0298 237.312 78.0538 237.408 78.0538 237.544C78.0538 237.64 78.0338 237.728 77.9938 237.808C77.9618 237.888 77.9018 237.944 77.8138 237.976C77.7178 238.008 77.5898 238.036 77.4298 238.06C77.2778 238.092 77.1378 238.108 77.0098 238.108ZM85.6429 238.108C84.8589 238.108 84.1749 237.932 83.5909 237.58C83.0149 237.22 82.5669 236.716 82.2469 236.068C81.9349 235.42 81.7789 234.652 81.7789 233.764C81.7789 233.092 81.8669 232.492 82.0429 231.964C82.2269 231.428 82.4869 230.976 82.8229 230.608C83.1589 230.232 83.5629 229.944 84.0349 229.744C84.5149 229.536 85.0509 229.432 85.6429 229.432C86.4429 229.432 87.1309 229.608 87.7069 229.96C88.2909 230.312 88.7389 230.812 89.0509 231.46C89.3709 232.1 89.5309 232.864 89.5309 233.752C89.5309 234.424 89.4389 235.028 89.2549 235.564C89.0709 236.1 88.8109 236.556 88.4749 236.932C88.1389 237.308 87.7309 237.6 87.2509 237.808C86.7789 238.008 86.2429 238.108 85.6429 238.108ZM85.6429 237.232C86.2509 237.232 86.7629 237.096 87.1789 236.824C87.6029 236.552 87.9269 236.156 88.1509 235.636C88.3749 235.116 88.4869 234.492 88.4869 233.764C88.4869 232.668 88.2389 231.82 87.7429 231.22C87.2549 230.612 86.5549 230.308 85.6429 230.308C85.0509 230.308 84.5429 230.444 84.1189 230.716C83.7029 230.988 83.3829 231.384 83.1589 231.904C82.9349 232.416 82.8229 233.036 82.8229 233.764C82.8229 234.852 83.0709 235.704 83.5669 236.32C84.0629 236.928 84.7549 237.232 85.6429 237.232ZM91.9501 238.084C91.7981 238.084 91.6781 238.04 91.5901 237.952C91.5101 237.864 91.4701 237.74 91.4701 237.58V232.924H90.7021C90.5741 232.924 90.4701 232.892 90.3901 232.828C90.3181 232.756 90.2821 232.66 90.2821 232.54C90.2821 232.42 90.3181 232.328 90.3901 232.264C90.4701 232.2 90.5741 232.168 90.7021 232.168H91.7341L91.4701 232.42V231.964C91.4701 231.204 91.6541 230.624 92.0221 230.224C92.3981 229.824 92.9461 229.592 93.6661 229.528L94.0141 229.492C94.1261 229.484 94.2141 229.504 94.2781 229.552C94.3501 229.6 94.3941 229.66 94.4101 229.732C94.4341 229.804 94.4381 229.88 94.4221 229.96C94.4061 230.032 94.3701 230.096 94.3141 230.152C94.2581 230.208 94.1901 230.24 94.1101 230.248L93.8341 230.272C93.3461 230.312 92.9901 230.46 92.7661 230.716C92.5501 230.972 92.4421 231.348 92.4421 231.844V232.348L92.2981 232.168H93.7381C93.8741 232.168 93.9781 232.2 94.0501 232.264C94.1221 232.328 94.1581 232.42 94.1581 232.54C94.1581 232.66 94.1221 232.756 94.0501 232.828C93.9781 232.892 93.8741 232.924 93.7381 232.924H92.4421V237.58C92.4421 237.916 92.2781 238.084 91.9501 238.084ZM95.7587 238.084C95.6067 238.084 95.4867 238.04 95.3987 237.952C95.3187 237.864 95.2787 237.74 95.2787 237.58V232.924H94.5107C94.3827 232.924 94.2787 232.892 94.1987 232.828C94.1267 232.756 94.0907 232.66 94.0907 232.54C94.0907 232.42 94.1267 232.328 94.1987 232.264C94.2787 232.2 94.3827 232.168 94.5107 232.168H95.5427L95.2787 232.42V231.964C95.2787 231.212 95.4587 230.636 95.8187 230.236C96.1867 229.836 96.7267 229.608 97.4387 229.552L97.7987 229.516C97.9187 229.508 98.0147 229.528 98.0867 229.576C98.1587 229.616 98.2027 229.672 98.2187 229.744C98.2427 229.816 98.2467 229.892 98.2307 229.972C98.2147 230.052 98.1787 230.12 98.1227 230.176C98.0747 230.232 98.0147 230.264 97.9427 230.272L97.5827 230.296C97.1107 230.328 96.7707 230.476 96.5627 230.74C96.3547 230.996 96.2507 231.364 96.2507 231.844V232.348L96.1067 232.168H99.3707C99.5227 232.168 99.6387 232.212 99.7187 232.3C99.8067 232.388 99.8507 232.516 99.8507 232.684V237.532C99.8507 237.7 99.8107 237.832 99.7307 237.928C99.6507 238.016 99.5307 238.06 99.3707 238.06C99.2107 238.06 99.0867 238.016 98.9987 237.928C98.9187 237.832 98.8787 237.7 98.8787 237.532V232.924H96.2507V237.58C96.2507 237.916 96.0867 238.084 95.7587 238.084ZM99.3827 230.764C99.1827 230.764 99.0267 230.712 98.9147 230.608C98.8107 230.496 98.7587 230.348 98.7587 230.164C98.7587 229.972 98.8107 229.828 98.9147 229.732C99.0267 229.628 99.1827 229.576 99.3827 229.576C99.5827 229.576 99.7347 229.628 99.8387 229.732C99.9507 229.828 100.007 229.972 100.007 230.164C100.007 230.348 99.9507 230.496 99.8387 230.608C99.7347 230.712 99.5827 230.764 99.3827 230.764ZM104.142 238.108C103.558 238.108 103.054 237.98 102.63 237.724C102.206 237.468 101.878 237.112 101.646 236.656C101.422 236.192 101.31 235.656 101.31 235.048C101.31 234.584 101.374 234.168 101.502 233.8C101.63 233.432 101.818 233.12 102.066 232.864C102.314 232.6 102.61 232.4 102.954 232.264C103.306 232.128 103.702 232.06 104.142 232.06C104.43 232.06 104.73 232.104 105.042 232.192C105.354 232.28 105.638 232.432 105.894 232.648C105.974 232.704 106.026 232.772 106.05 232.852C106.074 232.932 106.074 233.012 106.05 233.092C106.026 233.164 105.986 233.228 105.93 233.284C105.874 233.332 105.802 233.36 105.714 233.368C105.634 233.376 105.55 233.348 105.462 233.284C105.254 233.124 105.042 233.012 104.826 232.948C104.61 232.884 104.402 232.852 104.202 232.852C103.89 232.852 103.618 232.904 103.386 233.008C103.154 233.104 102.958 233.244 102.798 233.428C102.638 233.612 102.514 233.84 102.426 234.112C102.346 234.384 102.306 234.7 102.306 235.06C102.306 235.756 102.47 236.308 102.798 236.716C103.126 237.116 103.594 237.316 104.202 237.316C104.402 237.316 104.606 237.284 104.814 237.22C105.03 237.156 105.246 237.044 105.462 236.884C105.55 236.82 105.634 236.792 105.714 236.8C105.794 236.808 105.862 236.84 105.918 236.896C105.974 236.944 106.01 237.008 106.026 237.088C106.05 237.168 106.05 237.248 106.026 237.328C106.002 237.4 105.95 237.464 105.87 237.52C105.614 237.728 105.334 237.88 105.03 237.976C104.726 238.064 104.43 238.108 104.142 238.108ZM109.735 238.108C109.119 238.108 108.587 237.988 108.139 237.748C107.699 237.5 107.355 237.152 107.107 236.704C106.867 236.256 106.747 235.72 106.747 235.096C106.747 234.488 106.867 233.96 107.107 233.512C107.347 233.056 107.675 232.7 108.091 232.444C108.515 232.188 109.003 232.06 109.555 232.06C109.947 232.06 110.299 232.128 110.611 232.264C110.923 232.392 111.187 232.58 111.403 232.828C111.627 233.076 111.795 233.376 111.907 233.728C112.027 234.08 112.087 234.476 112.087 234.916C112.087 235.044 112.051 235.14 111.979 235.204C111.907 235.26 111.803 235.288 111.667 235.288H107.491V234.652H111.439L111.247 234.808C111.247 234.376 111.183 234.012 111.055 233.716C110.927 233.412 110.739 233.18 110.491 233.02C110.251 232.86 109.947 232.78 109.579 232.78C109.171 232.78 108.823 232.876 108.535 233.068C108.255 233.252 108.043 233.512 107.899 233.848C107.755 234.176 107.683 234.56 107.683 235V235.072C107.683 235.808 107.859 236.368 108.211 236.752C108.571 237.136 109.079 237.328 109.735 237.328C110.007 237.328 110.275 237.292 110.539 237.22C110.811 237.148 111.075 237.028 111.331 236.86C111.443 236.788 111.543 236.756 111.631 236.764C111.727 236.764 111.803 236.792 111.859 236.848C111.915 236.896 111.951 236.96 111.967 237.04C111.991 237.112 111.983 237.192 111.943 237.28C111.911 237.368 111.843 237.444 111.739 237.508C111.475 237.7 111.163 237.848 110.803 237.952C110.443 238.056 110.087 238.108 109.735 238.108Z" fill="#64728C"/>
<rect x="28" y="257" width="284" height="36" rx="10" fill="white"/>
<path d="M40.86 279.12C39.98 279.12 39.224 278.944 38.592 278.592C37.968 278.232 37.488 277.728 37.152 277.08C36.816 276.424 36.648 275.652 36.648 274.764C36.648 274.1 36.744 273.504 36.936 272.976C37.128 272.44 37.404 271.984 37.764 271.608C38.124 271.224 38.564 270.932 39.084 270.732C39.612 270.524 40.204 270.42 40.86 270.42C41.3 270.42 41.732 270.476 42.156 270.588C42.58 270.7 42.952 270.86 43.272 271.068C43.44 271.172 43.552 271.3 43.608 271.452C43.664 271.596 43.676 271.74 43.644 271.884C43.612 272.02 43.544 272.136 43.44 272.232C43.344 272.328 43.22 272.384 43.068 272.4C42.924 272.408 42.764 272.356 42.588 272.244C42.34 272.084 42.072 271.968 41.784 271.896C41.496 271.824 41.204 271.788 40.908 271.788C40.34 271.788 39.86 271.904 39.468 272.136C39.076 272.368 38.78 272.704 38.58 273.144C38.38 273.584 38.28 274.124 38.28 274.764C38.28 275.396 38.38 275.936 38.58 276.384C38.78 276.832 39.076 277.172 39.468 277.404C39.86 277.636 40.34 277.752 40.908 277.752C41.212 277.752 41.512 277.716 41.808 277.644C42.104 277.564 42.384 277.444 42.648 277.284C42.824 277.18 42.98 277.136 43.116 277.152C43.26 277.16 43.38 277.208 43.476 277.296C43.572 277.384 43.636 277.496 43.668 277.632C43.7 277.76 43.692 277.896 43.644 278.04C43.596 278.176 43.5 278.296 43.356 278.4C43.036 278.632 42.652 278.812 42.204 278.94C41.764 279.06 41.316 279.12 40.86 279.12Z" fill="#38455D"/>
<path d="M47.4923 279.108C46.9243 279.108 46.4323 278.984 46.0163 278.736C45.6003 278.488 45.2763 278.14 45.0443 277.692C44.8203 277.236 44.7083 276.7 44.7083 276.084C44.7083 275.62 44.7723 275.204 44.9003 274.836C45.0283 274.46 45.2163 274.14 45.4643 273.876C45.7123 273.612 46.0043 273.412 46.3403 273.276C46.6843 273.132 47.0683 273.06 47.4923 273.06C48.0603 273.06 48.5523 273.184 48.9683 273.432C49.3843 273.68 49.7043 274.032 49.9283 274.488C50.1603 274.936 50.2763 275.468 50.2763 276.084C50.2763 276.548 50.2123 276.964 50.0843 277.332C49.9563 277.7 49.7683 278.02 49.5203 278.292C49.2723 278.556 48.9763 278.76 48.6323 278.904C48.2963 279.04 47.9163 279.108 47.4923 279.108ZM47.4923 278.328C47.8523 278.328 48.1683 278.24 48.4403 278.064C48.7123 277.888 48.9203 277.632 49.0643 277.296C49.2163 276.96 49.2923 276.556 49.2923 276.084C49.2923 275.356 49.1283 274.8 48.8003 274.416C48.4803 274.032 48.0443 273.84 47.4923 273.84C47.1243 273.84 46.8043 273.928 46.5323 274.104C46.2683 274.272 46.0603 274.524 45.9083 274.86C45.7643 275.188 45.6923 275.596 45.6923 276.084C45.6923 276.804 45.8563 277.36 46.1843 277.752C46.5123 278.136 46.9483 278.328 47.4923 278.328ZM52.2162 279.084C52.0562 279.084 51.9362 279.04 51.8562 278.952C51.7762 278.864 51.7362 278.74 51.7362 278.58V273.576C51.7362 273.416 51.7762 273.296 51.8562 273.216C51.9362 273.128 52.0522 273.084 52.2042 273.084C52.3562 273.084 52.4722 273.128 52.5522 273.216C52.6402 273.296 52.6842 273.416 52.6842 273.576V274.608L52.5522 274.464C52.7202 274 52.9922 273.652 53.3682 273.42C53.7522 273.18 54.1922 273.06 54.6882 273.06C55.1522 273.06 55.5362 273.144 55.8402 273.312C56.1522 273.48 56.3842 273.736 56.5362 274.08C56.6882 274.416 56.7642 274.844 56.7642 275.364V278.58C56.7642 278.74 56.7202 278.864 56.6322 278.952C56.5522 279.04 56.4362 279.084 56.2842 279.084C56.1242 279.084 56.0002 279.04 55.9122 278.952C55.8322 278.864 55.7922 278.74 55.7922 278.58V275.424C55.7922 274.88 55.6842 274.484 55.4682 274.236C55.2602 273.98 54.9242 273.852 54.4602 273.852C53.9242 273.852 53.4962 274.02 53.1762 274.356C52.8642 274.684 52.7082 275.124 52.7082 275.676V278.58C52.7082 278.916 52.5442 279.084 52.2162 279.084ZM62.2743 279.084C62.1143 279.084 61.9903 279.04 61.9023 278.952C61.8223 278.856 61.7823 278.728 61.7823 278.568V270.972C61.7823 270.804 61.8223 270.676 61.9023 270.588C61.9903 270.5 62.1143 270.456 62.2743 270.456C62.4343 270.456 62.5543 270.5 62.6343 270.588C62.7223 270.676 62.7663 270.804 62.7663 270.972V278.568C62.7663 278.728 62.7263 278.856 62.6463 278.952C62.5663 279.04 62.4423 279.084 62.2743 279.084ZM65.4043 279C65.2283 279 65.0923 278.956 64.9963 278.868C64.9083 278.772 64.8643 278.636 64.8643 278.46V271.08C64.8643 270.904 64.9083 270.772 64.9963 270.684C65.0923 270.588 65.2283 270.54 65.4043 270.54H67.7203C69.0883 270.54 70.1443 270.9 70.8883 271.62C71.6323 272.34 72.0043 273.388 72.0043 274.764C72.0043 275.452 71.9083 276.06 71.7163 276.588C71.5323 277.108 71.2563 277.548 70.8883 277.908C70.5203 278.268 70.0723 278.54 69.5443 278.724C69.0163 278.908 68.4083 279 67.7203 279H65.4043ZM65.8483 278.16H67.6483C68.2083 278.16 68.6923 278.088 69.1003 277.944C69.5163 277.8 69.8603 277.588 70.1323 277.308C70.4123 277.028 70.6203 276.676 70.7563 276.252C70.8923 275.82 70.9603 275.324 70.9603 274.764C70.9603 273.636 70.6843 272.792 70.1323 272.232C69.5803 271.664 68.7523 271.38 67.6483 271.38H65.8483V278.16Z" fill="#64728C"/>
</g>
<rect x="18.5" y="0.5" width="299" height="37" rx="18.5" fill="white"/>
<rect x="18.5" y="0.5" width="299" height="37" rx="18.5" stroke="#E8EAEF"/>
<path d="M34.776 23.108C33.92 23.108 33.188 22.932 32.58 22.58C31.972 22.228 31.504 21.728 31.176 21.08C30.856 20.424 30.696 19.652 30.696 18.764C30.696 18.1 30.788 17.504 30.972 16.976C31.156 16.44 31.42 15.984 31.764 15.608C32.116 15.224 32.544 14.932 33.048 14.732C33.56 14.532 34.136 14.432 34.776 14.432C35.248 14.432 35.7 14.496 36.132 14.624C36.572 14.752 36.952 14.936 37.272 15.176C37.408 15.264 37.496 15.372 37.536 15.5C37.584 15.62 37.592 15.736 37.56 15.848C37.536 15.96 37.484 16.056 37.404 16.136C37.324 16.208 37.22 16.248 37.092 16.256C36.972 16.264 36.84 16.22 36.696 16.124C36.432 15.924 36.14 15.776 35.82 15.68C35.5 15.584 35.164 15.536 34.812 15.536C34.204 15.536 33.692 15.664 33.276 15.92C32.86 16.168 32.544 16.532 32.328 17.012C32.112 17.492 32.004 18.076 32.004 18.764C32.004 19.452 32.112 20.04 32.328 20.528C32.544 21.008 32.86 21.376 33.276 21.632C33.692 21.88 34.204 22.004 34.812 22.004C35.164 22.004 35.5 21.956 35.82 21.86C36.148 21.756 36.456 21.604 36.744 21.404C36.888 21.316 37.016 21.276 37.128 21.284C37.248 21.292 37.348 21.332 37.428 21.404C37.508 21.476 37.56 21.568 37.584 21.68C37.616 21.784 37.612 21.896 37.572 22.016C37.54 22.128 37.464 22.224 37.344 22.304C37.016 22.568 36.628 22.768 36.18 22.904C35.732 23.04 35.264 23.108 34.776 23.108Z" fill="#38455D"/>
<rect x="284" y="4" width="30" height="30" rx="15" fill="#64728C" fill-opacity="0.12"/>
<path d="M304.753 23.1626C303.884 22.319 303.022 21.4684 302.155 20.6232C302.084 20.5544 302.071 20.5096 302.124 20.4178C302.997 18.896 303.078 17.3372 302.305 15.7574C301.759 14.6431 300.883 13.8471 299.718 13.3828C298.34 12.8332 296.964 12.8741 295.62 13.5138C294.468 14.0618 293.645 14.927 293.171 16.0872C292.62 17.4367 292.671 18.7811 293.327 20.0911C293.88 21.1972 294.747 22.0001 295.908 22.4571C297.516 23.0893 299.071 22.9369 300.541 22.0325C300.656 21.962 300.709 21.9777 300.796 22.064C301.677 22.9343 302.562 23.802 303.449 24.6669C303.876 25.0838 304.44 25.1113 304.881 24.7385C305.069 24.579 305.155 24.3649 305.207 24.1326V23.8953C305.15 23.5944 304.969 23.3722 304.753 23.1626ZM297.799 21.2391C295.923 21.2216 294.406 19.722 294.428 17.9051C294.449 16.0691 295.967 14.5912 297.82 14.6026C299.696 14.614 301.199 16.0787 301.202 17.9258C301.204 19.7643 299.661 21.2556 297.799 21.2391Z" fill="#64728C"/>
<defs>
<filter id="filter0_d_554_4008" x="0" y="29" width="340" height="297" filterUnits="userSpaceOnUse" color-interpolation-filters="sRGB">
<feFlood flood-opacity="0" result="BackgroundImageFix"/>
<feColorMatrix in="SourceAlpha" type="matrix" values="0 0 0 0 0 0 0 0 0 0 0 0 0 0 0 0 0 0 127 0" result="hardAlpha"/>
<feOffset dy="5"/>
<feGaussianBlur stdDeviation="10"/>
<feComposite in2="hardAlpha" operator="out"/>
<feColorMatrix type="matrix" values="0 0 0 0 0 0 0 0 0 0 0 0 0 0 0 0 0 0 0.06 0"/>
<feBlend mode="normal" in2="BackgroundImageFix" result="effect1_dropShadow_554_4008"/>
<feBlend mode="normal" in="SourceGraphic" in2="effect1_dropShadow_554_4008" result="shape"/>
</filter>
<linearGradient id="paint0_linear_554_4008" x1="170" y1="154.415" x2="170" y2="301" gradientUnits="userSpaceOnUse">
<stop stop-color="#F1F3F6"/>
<stop offset="1" stop-color="#D6D8DC" stop-opacity="0.23"/>
</linearGradient>
</defs>
</svg>
