<svg width="310" height="48" viewBox="0 0 310 48" fill="none" xmlns="http://www.w3.org/2000/svg">
<g filter="url(#filter0_d_554_4009)">
<rect x="5.5" y="1.5" width="299" height="37" rx="18.5" fill="white"/>
<rect x="5.5" y="1.5" width="299" height="37" rx="18.5" stroke="#64728C"/>
<path d="M20.612 24.084C20.46 24.084 20.34 24.04 20.252 23.952C20.164 23.856 20.12 23.728 20.12 23.568V16.392H17.42C17.276 16.392 17.164 16.352 17.084 16.272C17.004 16.192 16.964 16.088 16.964 15.96C16.964 15.824 17.004 15.72 17.084 15.648C17.164 15.576 17.276 15.54 17.42 15.54H23.816C23.96 15.54 24.072 15.576 24.152 15.648C24.232 15.72 24.272 15.824 24.272 15.96C24.272 16.096 24.232 16.204 24.152 16.284C24.072 16.356 23.96 16.392 23.816 16.392H21.116V23.568C21.116 23.728 21.072 23.856 20.984 23.952C20.904 24.04 20.78 24.084 20.612 24.084ZM25.5596 26.244C25.4396 26.244 25.3436 26.212 25.2716 26.148C25.1996 26.084 25.1556 25.996 25.1396 25.884C25.1316 25.78 25.1516 25.672 25.1996 25.56L26.0276 23.7V24.12L23.7236 18.768C23.6756 18.648 23.6596 18.536 23.6756 18.432C23.6916 18.328 23.7396 18.244 23.8196 18.18C23.8996 18.116 24.0116 18.084 24.1556 18.084C24.2836 18.084 24.3836 18.112 24.4556 18.168C24.5276 18.224 24.5916 18.324 24.6476 18.468L26.6156 23.292H26.2916L28.2836 18.468C28.3476 18.324 28.4156 18.224 28.4876 18.168C28.5596 18.112 28.6636 18.084 28.7996 18.084C28.9276 18.084 29.0236 18.116 29.0876 18.18C29.1596 18.244 29.1996 18.328 29.2076 18.432C29.2236 18.528 29.2076 18.636 29.1596 18.756L26.0876 25.86C26.0236 26.004 25.9516 26.104 25.8716 26.16C25.7996 26.216 25.6956 26.244 25.5596 26.244ZM30.9076 26.244C30.7476 26.244 30.6276 26.2 30.5476 26.112C30.4676 26.032 30.4276 25.912 30.4276 25.752V18.576C30.4276 18.416 30.4676 18.296 30.5476 18.216C30.6276 18.128 30.7436 18.084 30.8956 18.084C31.0556 18.084 31.1756 18.128 31.2556 18.216C31.3436 18.296 31.3876 18.416 31.3876 18.576V19.716L31.2556 19.548C31.3836 19.092 31.6356 18.732 32.0116 18.468C32.3956 18.196 32.8516 18.06 33.3796 18.06C33.8996 18.06 34.3516 18.184 34.7356 18.432C35.1276 18.672 35.4276 19.02 35.6356 19.476C35.8516 19.924 35.9596 20.46 35.9596 21.084C35.9596 21.7 35.8516 22.236 35.6356 22.692C35.4276 23.14 35.1316 23.488 34.7476 23.736C34.3636 23.984 33.9076 24.108 33.3796 24.108C32.8516 24.108 32.3996 23.976 32.0236 23.712C31.6476 23.44 31.3916 23.08 31.2556 22.632H31.3996V25.752C31.3996 25.912 31.3556 26.032 31.2676 26.112C31.1796 26.2 31.0596 26.244 30.9076 26.244ZM33.1756 23.328C33.5436 23.328 33.8596 23.24 34.1236 23.064C34.3956 22.888 34.6036 22.632 34.7476 22.296C34.8996 21.96 34.9756 21.556 34.9756 21.084C34.9756 20.356 34.8116 19.8 34.4836 19.416C34.1636 19.032 33.7276 18.84 33.1756 18.84C32.8156 18.84 32.4996 18.928 32.2276 19.104C31.9556 19.272 31.7436 19.524 31.5916 19.86C31.4476 20.188 31.3756 20.596 31.3756 21.084C31.3756 21.804 31.5396 22.36 31.8676 22.752C32.1956 23.136 32.6316 23.328 33.1756 23.328ZM40.0517 24.108C39.4357 24.108 38.9037 23.988 38.4557 23.748C38.0157 23.5 37.6717 23.152 37.4237 22.704C37.1837 22.256 37.0637 21.72 37.0637 21.096C37.0637 20.488 37.1837 19.96 37.4237 19.512C37.6637 19.056 37.9917 18.7 38.4077 18.444C38.8317 18.188 39.3197 18.06 39.8717 18.06C40.2637 18.06 40.6157 18.128 40.9277 18.264C41.2397 18.392 41.5037 18.58 41.7197 18.828C41.9437 19.076 42.1117 19.376 42.2237 19.728C42.3437 20.08 42.4037 20.476 42.4037 20.916C42.4037 21.044 42.3677 21.14 42.2957 21.204C42.2237 21.26 42.1197 21.288 41.9837 21.288H37.8077V20.652H41.7557L41.5637 20.808C41.5637 20.376 41.4997 20.012 41.3717 19.716C41.2437 19.412 41.0557 19.18 40.8077 19.02C40.5677 18.86 40.2637 18.78 39.8957 18.78C39.4877 18.78 39.1397 18.876 38.8517 19.068C38.5717 19.252 38.3597 19.512 38.2157 19.848C38.0717 20.176 37.9997 20.56 37.9997 21V21.072C37.9997 21.808 38.1757 22.368 38.5277 22.752C38.8877 23.136 39.3957 23.328 40.0517 23.328C40.3237 23.328 40.5917 23.292 40.8557 23.22C41.1277 23.148 41.3917 23.028 41.6477 22.86C41.7597 22.788 41.8597 22.756 41.9477 22.764C42.0437 22.764 42.1197 22.792 42.1757 22.848C42.2317 22.896 42.2677 22.96 42.2837 23.04C42.3077 23.112 42.2997 23.192 42.2597 23.28C42.2277 23.368 42.1597 23.444 42.0557 23.508C41.7917 23.7 41.4797 23.848 41.1197 23.952C40.7597 24.056 40.4037 24.108 40.0517 24.108ZM49.2442 24.108C48.7882 24.108 48.4042 24.028 48.0922 23.868C47.7882 23.7 47.5602 23.46 47.4082 23.148C47.2562 22.828 47.1802 22.44 47.1802 21.984V18.924H46.3762C46.2402 18.924 46.1362 18.892 46.0642 18.828C45.9922 18.756 45.9562 18.66 45.9562 18.54C45.9562 18.42 45.9922 18.328 46.0642 18.264C46.1362 18.2 46.2402 18.168 46.3762 18.168H47.1802V16.788C47.1802 16.628 47.2242 16.508 47.3122 16.428C47.4002 16.34 47.5202 16.296 47.6722 16.296C47.8242 16.296 47.9402 16.34 48.0202 16.428C48.1082 16.508 48.1522 16.628 48.1522 16.788V18.168H49.6642C49.8002 18.168 49.9042 18.2 49.9762 18.264C50.0482 18.328 50.0842 18.42 50.0842 18.54C50.0842 18.66 50.0482 18.756 49.9762 18.828C49.9042 18.892 49.8002 18.924 49.6642 18.924H48.1522V21.888C48.1522 22.344 48.2482 22.692 48.4402 22.932C48.6322 23.164 48.9442 23.28 49.3762 23.28C49.5282 23.28 49.6562 23.264 49.7602 23.232C49.8722 23.2 49.9642 23.184 50.0362 23.184C50.1082 23.176 50.1682 23.2 50.2162 23.256C50.2642 23.312 50.2882 23.408 50.2882 23.544C50.2882 23.64 50.2682 23.728 50.2282 23.808C50.1962 23.888 50.1362 23.944 50.0482 23.976C49.9522 24.008 49.8242 24.036 49.6642 24.06C49.5122 24.092 49.3722 24.108 49.2442 24.108ZM53.4649 24.108C52.8969 24.108 52.4049 23.984 51.9889 23.736C51.5729 23.488 51.2489 23.14 51.0169 22.692C50.7929 22.236 50.6809 21.7 50.6809 21.084C50.6809 20.62 50.7449 20.204 50.8729 19.836C51.0009 19.46 51.1889 19.14 51.4369 18.876C51.6849 18.612 51.9769 18.412 52.3129 18.276C52.6569 18.132 53.0409 18.06 53.4649 18.06C54.0329 18.06 54.5249 18.184 54.9409 18.432C55.3569 18.68 55.6769 19.032 55.9009 19.488C56.1329 19.936 56.2489 20.468 56.2489 21.084C56.2489 21.548 56.1849 21.964 56.0569 22.332C55.9289 22.7 55.7409 23.02 55.4929 23.292C55.2449 23.556 54.9489 23.76 54.6049 23.904C54.2689 24.04 53.8889 24.108 53.4649 24.108ZM53.4649 23.328C53.8249 23.328 54.1409 23.24 54.4129 23.064C54.6849 22.888 54.8929 22.632 55.0369 22.296C55.1889 21.96 55.2649 21.556 55.2649 21.084C55.2649 20.356 55.1009 19.8 54.7729 19.416C54.4529 19.032 54.0169 18.84 53.4649 18.84C53.0969 18.84 52.7769 18.928 52.5049 19.104C52.2409 19.272 52.0329 19.524 51.8809 19.86C51.7369 20.188 51.6649 20.596 51.6649 21.084C51.6649 21.804 51.8289 22.36 52.1569 22.752C52.4849 23.136 52.9209 23.328 53.4649 23.328ZM63.6706 24.108C63.2946 24.108 62.9266 24.076 62.5666 24.012C62.2066 23.948 61.8706 23.856 61.5586 23.736C61.2546 23.616 60.9786 23.464 60.7306 23.28C60.6346 23.208 60.5666 23.128 60.5266 23.04C60.4946 22.944 60.4866 22.852 60.5026 22.764C60.5266 22.668 60.5666 22.588 60.6226 22.524C60.6866 22.46 60.7626 22.424 60.8506 22.416C60.9386 22.408 61.0346 22.436 61.1386 22.5C61.4986 22.756 61.8826 22.944 62.2906 23.064C62.6986 23.176 63.1586 23.232 63.6706 23.232C64.3906 23.232 64.9226 23.1 65.2666 22.836C65.6186 22.564 65.7946 22.208 65.7946 21.768C65.7946 21.408 65.6666 21.128 65.4106 20.928C65.1626 20.72 64.7426 20.556 64.1506 20.436L62.9026 20.184C62.1506 20.024 61.5866 19.764 61.2106 19.404C60.8426 19.036 60.6586 18.548 60.6586 17.94C60.6586 17.564 60.7346 17.224 60.8866 16.92C61.0386 16.608 61.2506 16.344 61.5226 16.128C61.7946 15.904 62.1186 15.732 62.4946 15.612C62.8706 15.492 63.2866 15.432 63.7426 15.432C64.2466 15.432 64.7146 15.504 65.1466 15.648C65.5866 15.784 65.9826 15.992 66.3346 16.272C66.4226 16.344 66.4826 16.428 66.5146 16.524C66.5466 16.612 66.5506 16.7 66.5266 16.788C66.5026 16.868 66.4586 16.936 66.3946 16.992C66.3386 17.048 66.2626 17.08 66.1666 17.088C66.0786 17.096 65.9786 17.064 65.8666 16.992C65.5466 16.752 65.2146 16.58 64.8706 16.476C64.5266 16.364 64.1466 16.308 63.7306 16.308C63.3066 16.308 62.9386 16.372 62.6266 16.5C62.3226 16.628 62.0826 16.816 61.9066 17.064C61.7386 17.304 61.6546 17.584 61.6546 17.904C61.6546 18.288 61.7706 18.592 62.0026 18.816C62.2426 19.04 62.6306 19.204 63.1666 19.308L64.4146 19.572C65.2226 19.74 65.8186 19.996 66.2026 20.34C66.5946 20.676 66.7906 21.136 66.7906 21.72C66.7906 22.072 66.7186 22.396 66.5746 22.692C66.4306 22.988 66.2226 23.244 65.9506 23.46C65.6786 23.668 65.3506 23.828 64.9666 23.94C64.5826 24.052 64.1506 24.108 63.6706 24.108ZM70.8134 24.108C70.1974 24.108 69.6654 23.988 69.2174 23.748C68.7774 23.5 68.4334 23.152 68.1854 22.704C67.9454 22.256 67.8254 21.72 67.8254 21.096C67.8254 20.488 67.9454 19.96 68.1854 19.512C68.4254 19.056 68.7534 18.7 69.1694 18.444C69.5934 18.188 70.0814 18.06 70.6334 18.06C71.0254 18.06 71.3774 18.128 71.6894 18.264C72.0014 18.392 72.2654 18.58 72.4814 18.828C72.7054 19.076 72.8734 19.376 72.9854 19.728C73.1054 20.08 73.1654 20.476 73.1654 20.916C73.1654 21.044 73.1294 21.14 73.0574 21.204C72.9854 21.26 72.8814 21.288 72.7454 21.288H68.5694V20.652H72.5174L72.3254 20.808C72.3254 20.376 72.2614 20.012 72.1334 19.716C72.0054 19.412 71.8174 19.18 71.5694 19.02C71.3294 18.86 71.0254 18.78 70.6574 18.78C70.2494 18.78 69.9014 18.876 69.6134 19.068C69.3334 19.252 69.1214 19.512 68.9774 19.848C68.8334 20.176 68.7614 20.56 68.7614 21V21.072C68.7614 21.808 68.9374 22.368 69.2894 22.752C69.6494 23.136 70.1574 23.328 70.8134 23.328C71.0854 23.328 71.3534 23.292 71.6174 23.22C71.8894 23.148 72.1534 23.028 72.4094 22.86C72.5214 22.788 72.6214 22.756 72.7094 22.764C72.8054 22.764 72.8814 22.792 72.9374 22.848C72.9934 22.896 73.0294 22.96 73.0454 23.04C73.0694 23.112 73.0614 23.192 73.0214 23.28C72.9894 23.368 72.9214 23.444 72.8174 23.508C72.5534 23.7 72.2414 23.848 71.8814 23.952C71.5214 24.056 71.1654 24.108 70.8134 24.108ZM76.4082 24.108C76.0082 24.108 75.6482 24.032 75.3282 23.88C75.0162 23.72 74.7682 23.504 74.5842 23.232C74.4002 22.96 74.3082 22.656 74.3082 22.32C74.3082 21.888 74.4162 21.548 74.6322 21.3C74.8562 21.052 75.2202 20.876 75.7242 20.772C76.2362 20.668 76.9322 20.616 77.8122 20.616H78.3522V21.252H77.8242C77.1762 21.252 76.6642 21.284 76.2882 21.348C75.9202 21.404 75.6602 21.504 75.5082 21.648C75.3642 21.792 75.2922 21.996 75.2922 22.26C75.2922 22.588 75.4042 22.856 75.6282 23.064C75.8602 23.272 76.1722 23.376 76.5642 23.376C76.8842 23.376 77.1642 23.3 77.4042 23.148C77.6522 22.996 77.8442 22.788 77.9802 22.524C78.1242 22.26 78.1962 21.956 78.1962 21.612V20.244C78.1962 19.748 78.0962 19.392 77.8962 19.176C77.6962 18.952 77.3682 18.84 76.9122 18.84C76.6322 18.84 76.3522 18.876 76.0722 18.948C75.7922 19.02 75.4962 19.136 75.1842 19.296C75.0722 19.352 74.9762 19.372 74.8962 19.356C74.8162 19.332 74.7522 19.288 74.7042 19.224C74.6562 19.16 74.6282 19.088 74.6202 19.008C74.6122 18.92 74.6282 18.836 74.6682 18.756C74.7162 18.676 74.7882 18.612 74.8842 18.564C75.2362 18.388 75.5842 18.26 75.9282 18.18C76.2722 18.1 76.6002 18.06 76.9122 18.06C77.4162 18.06 77.8322 18.144 78.1602 18.312C78.4882 18.472 78.7322 18.72 78.8922 19.056C79.0522 19.384 79.1322 19.808 79.1322 20.328V23.58C79.1322 23.74 79.0922 23.864 79.0122 23.952C78.9402 24.04 78.8322 24.084 78.6882 24.084C78.5362 24.084 78.4202 24.04 78.3402 23.952C78.2602 23.864 78.2202 23.74 78.2202 23.58V22.644H78.3282C78.2642 22.948 78.1402 23.208 77.9562 23.424C77.7802 23.64 77.5602 23.808 77.2962 23.928C77.0322 24.048 76.7362 24.108 76.4082 24.108ZM81.4274 24.084C81.2674 24.084 81.1434 24.04 81.0554 23.952C80.9754 23.864 80.9354 23.74 80.9354 23.58V18.576C80.9354 18.416 80.9754 18.296 81.0554 18.216C81.1354 18.128 81.2514 18.084 81.4034 18.084C81.5554 18.084 81.6714 18.128 81.7514 18.216C81.8394 18.296 81.8834 18.416 81.8834 18.576V19.548H81.7634C81.8914 19.076 82.1354 18.712 82.4954 18.456C82.8554 18.2 83.2994 18.064 83.8274 18.048C83.9474 18.04 84.0434 18.068 84.1154 18.132C84.1874 18.188 84.2274 18.288 84.2354 18.432C84.2434 18.568 84.2114 18.676 84.1394 18.756C84.0674 18.836 83.9554 18.884 83.8034 18.9L83.6114 18.924C83.0674 18.972 82.6474 19.148 82.3514 19.452C82.0634 19.748 81.9194 20.156 81.9194 20.676V23.58C81.9194 23.74 81.8754 23.864 81.7874 23.952C81.7074 24.04 81.5874 24.084 81.4274 24.084ZM87.6379 24.108C87.0539 24.108 86.5499 23.98 86.1259 23.724C85.7019 23.468 85.3739 23.112 85.1419 22.656C84.9179 22.192 84.8059 21.656 84.8059 21.048C84.8059 20.584 84.8699 20.168 84.9979 19.8C85.1259 19.432 85.3139 19.12 85.5619 18.864C85.8099 18.6 86.1059 18.4 86.4499 18.264C86.8019 18.128 87.1979 18.06 87.6379 18.06C87.9259 18.06 88.2259 18.104 88.5379 18.192C88.8499 18.28 89.1339 18.432 89.3899 18.648C89.4699 18.704 89.5219 18.772 89.5459 18.852C89.5699 18.932 89.5699 19.012 89.5459 19.092C89.5219 19.164 89.4819 19.228 89.4259 19.284C89.3699 19.332 89.2979 19.36 89.2099 19.368C89.1299 19.376 89.0459 19.348 88.9579 19.284C88.7499 19.124 88.5379 19.012 88.3219 18.948C88.1059 18.884 87.8979 18.852 87.6979 18.852C87.3859 18.852 87.1139 18.904 86.8819 19.008C86.6499 19.104 86.4539 19.244 86.2939 19.428C86.1339 19.612 86.0099 19.84 85.9219 20.112C85.8419 20.384 85.8019 20.7 85.8019 21.06C85.8019 21.756 85.9659 22.308 86.2939 22.716C86.6219 23.116 87.0899 23.316 87.6979 23.316C87.8979 23.316 88.1019 23.284 88.3099 23.22C88.5259 23.156 88.7419 23.044 88.9579 22.884C89.0459 22.82 89.1299 22.792 89.2099 22.8C89.2899 22.808 89.3579 22.84 89.4139 22.896C89.4699 22.944 89.5059 23.008 89.5219 23.088C89.5459 23.168 89.5459 23.248 89.5219 23.328C89.4979 23.4 89.4459 23.464 89.3659 23.52C89.1099 23.728 88.8299 23.88 88.5259 23.976C88.2219 24.064 87.9259 24.108 87.6379 24.108ZM91.2006 24.084C91.0406 24.084 90.9206 24.04 90.8406 23.952C90.7606 23.864 90.7206 23.74 90.7206 23.58V15.948C90.7206 15.788 90.7606 15.668 90.8406 15.588C90.9206 15.5 91.0406 15.456 91.2006 15.456C91.3526 15.456 91.4726 15.5 91.5606 15.588C91.6486 15.668 91.6926 15.788 91.6926 15.948V19.464H91.5366C91.7046 19 91.9766 18.652 92.3526 18.42C92.7366 18.18 93.1766 18.06 93.6726 18.06C94.1366 18.06 94.5206 18.144 94.8246 18.312C95.1366 18.48 95.3686 18.736 95.5206 19.08C95.6726 19.416 95.7486 19.844 95.7486 20.364V23.58C95.7486 23.74 95.7046 23.864 95.6166 23.952C95.5366 24.04 95.4206 24.084 95.2686 24.084C95.1086 24.084 94.9846 24.04 94.8966 23.952C94.8166 23.864 94.7766 23.74 94.7766 23.58V20.424C94.7766 19.88 94.6686 19.484 94.4526 19.236C94.2446 18.98 93.9086 18.852 93.4446 18.852C92.9086 18.852 92.4806 19.02 92.1606 19.356C91.8486 19.684 91.6926 20.124 91.6926 20.676V23.58C91.6926 23.916 91.5286 24.084 91.2006 24.084Z" fill="#929BAA"/>
<rect x="271" y="5" width="30" height="30" rx="15" fill="#64728C" fill-opacity="0.12"/>
<path d="M291.753 24.1626C290.884 23.319 290.022 22.4684 289.155 21.6232C289.084 21.5544 289.071 21.5096 289.124 21.4178C289.997 19.896 290.078 18.3372 289.305 16.7574C288.759 15.6431 287.883 14.8471 286.718 14.3828C285.34 13.8332 283.964 13.8741 282.62 14.5138C281.468 15.0618 280.645 15.927 280.171 17.0872C279.62 18.4367 279.671 19.7811 280.327 21.0911C280.88 22.1972 281.747 23.0001 282.908 23.4571C284.516 24.0893 286.071 23.9369 287.541 23.0325C287.656 22.962 287.709 22.9777 287.796 23.064C288.677 23.9343 289.562 24.802 290.449 25.6669C290.876 26.0838 291.44 26.1113 291.881 25.7385C292.069 25.579 292.155 25.3649 292.207 25.1326V24.8953C292.15 24.5944 291.969 24.3722 291.753 24.1626ZM284.799 22.2391C282.923 22.2216 281.406 20.722 281.428 18.9051C281.449 17.0691 282.967 15.5912 284.82 15.6026C286.696 15.614 288.199 17.0787 288.202 18.9258C288.204 20.7643 286.661 22.2556 284.799 22.2391Z" fill="#64728C"/>
</g>
<defs>
<filter id="filter0_d_554_4009" x="0" y="0" width="310" height="48" filterUnits="userSpaceOnUse" color-interpolation-filters="sRGB">
<feFlood flood-opacity="0" result="BackgroundImageFix"/>
<feColorMatrix in="SourceAlpha" type="matrix" values="0 0 0 0 0 0 0 0 0 0 0 0 0 0 0 0 0 0 127 0" result="hardAlpha"/>
<feOffset dy="4"/>
<feGaussianBlur stdDeviation="2.5"/>
<feComposite in2="hardAlpha" operator="out"/>
<feColorMatrix type="matrix" values="0 0 0 0 0.392157 0 0 0 0 0.447059 0 0 0 0 0.54902 0 0 0 0.1 0"/>
<feBlend mode="normal" in2="BackgroundImageFix" result="effect1_dropShadow_554_4009"/>
<feBlend mode="normal" in="SourceGraphic" in2="effect1_dropShadow_554_4009" result="shape"/>
</filter>
</defs>
</svg>
