<svg width="103" height="23" viewBox="0 0 103 23" fill="none" xmlns="http://www.w3.org/2000/svg">
<path d="M1.848 14C1.64267 14 1.47933 13.9393 1.358 13.818C1.246 13.6967 1.19 13.5333 1.19 13.328V4.732C1.19 4.51733 1.246 4.354 1.358 4.242C1.47 4.13 1.62867 4.074 1.834 4.074C2.04867 4.074 2.212 4.13 2.324 4.242C2.436 4.354 2.492 4.51733 2.492 4.732V12.88H6.944C7.14 12.88 7.28467 12.9267 7.378 13.02C7.48067 13.1133 7.532 13.2487 7.532 13.426C7.532 13.6127 7.48067 13.7573 7.378 13.86C7.28467 13.9533 7.14 14 6.944 14H1.848ZM10.8619 14.126C10.3953 14.126 9.97059 14.0327 9.58792 13.846C9.21459 13.6593 8.92059 13.4073 8.70592 13.09C8.50059 12.7727 8.39792 12.418 8.39792 12.026C8.39792 11.522 8.52392 11.1253 8.77592 10.836C9.02792 10.5467 9.45259 10.3413 10.0499 10.22C10.6473 10.0893 11.4499 10.024 12.4579 10.024H13.1159V10.836H12.4859C11.7673 10.836 11.1979 10.8687 10.7779 10.934C10.3673 10.9993 10.0779 11.116 9.90992 11.284C9.74192 11.4427 9.65792 11.6667 9.65792 11.956C9.65792 12.32 9.78392 12.6187 10.0359 12.852C10.2973 13.0853 10.6519 13.202 11.0999 13.202C11.4546 13.202 11.7673 13.118 12.0379 12.95C12.3086 12.7727 12.5233 12.5393 12.6819 12.25C12.8406 11.9513 12.9199 11.6107 12.9199 11.228V9.618C12.9199 9.06733 12.8079 8.67067 12.5839 8.428C12.3599 8.176 11.9819 8.05 11.4499 8.05C11.1419 8.05 10.8246 8.092 10.4979 8.176C10.1713 8.26 9.83059 8.39067 9.47592 8.568C9.33592 8.63333 9.21459 8.65667 9.11192 8.638C9.00926 8.61 8.92526 8.554 8.85992 8.47C8.80392 8.37667 8.77126 8.27867 8.76192 8.176C8.76192 8.064 8.78526 7.95667 8.83192 7.854C8.88792 7.75133 8.98126 7.67667 9.11192 7.63C9.52259 7.42467 9.92859 7.28 10.3299 7.196C10.7406 7.10267 11.1233 7.056 11.4779 7.056C12.0846 7.056 12.5839 7.154 12.9759 7.35C13.3679 7.53667 13.6619 7.83067 13.8579 8.232C14.0539 8.624 14.1519 9.128 14.1519 9.744V13.44C14.1519 13.6547 14.1006 13.818 13.9979 13.93C13.8953 14.042 13.7459 14.098 13.5499 14.098C13.3633 14.098 13.2139 14.042 13.1019 13.93C12.9993 13.818 12.9479 13.6547 12.9479 13.44V12.446H13.0739C12.9993 12.7913 12.8593 13.09 12.6539 13.342C12.4486 13.594 12.1919 13.79 11.8839 13.93C11.5853 14.0607 11.2446 14.126 10.8619 14.126ZM19.7268 14.126C19.1108 14.126 18.5834 13.972 18.1448 13.664C17.7061 13.356 17.4121 12.9407 17.2628 12.418L17.4168 12.208V13.44C17.4168 13.6547 17.3608 13.818 17.2488 13.93C17.1461 14.042 16.9921 14.098 16.7868 14.098C16.5908 14.098 16.4368 14.042 16.3248 13.93C16.2128 13.818 16.1568 13.6547 16.1568 13.44V4.676C16.1568 4.46133 16.2128 4.30267 16.3248 4.2C16.4368 4.088 16.5908 4.032 16.7868 4.032C16.9921 4.032 17.1508 4.088 17.2628 4.2C17.3748 4.30267 17.4308 4.46133 17.4308 4.676V8.722H17.2768C17.4261 8.218 17.7201 7.81667 18.1588 7.518C18.5974 7.21 19.1201 7.056 19.7268 7.056C20.3334 7.056 20.8608 7.20067 21.3088 7.49C21.7661 7.77 22.1161 8.176 22.3588 8.708C22.6108 9.23067 22.7368 9.856 22.7368 10.584C22.7368 11.3027 22.6108 11.9327 22.3588 12.474C22.1068 13.006 21.7568 13.4167 21.3088 13.706C20.8608 13.986 20.3334 14.126 19.7268 14.126ZM19.4328 13.118C19.8341 13.118 20.1841 13.02 20.4828 12.824C20.7908 12.628 21.0288 12.3433 21.1968 11.97C21.3648 11.5967 21.4488 11.1347 21.4488 10.584C21.4488 9.76267 21.2668 9.13733 20.9028 8.708C20.5388 8.27867 20.0488 8.064 19.4328 8.064C19.0221 8.064 18.6628 8.162 18.3548 8.358C18.0561 8.54467 17.8228 8.82467 17.6548 9.198C17.4961 9.57133 17.4168 10.0333 17.4168 10.584C17.4168 11.4053 17.5988 12.0353 17.9628 12.474C18.3268 12.9033 18.8168 13.118 19.4328 13.118ZM27.5236 14.126C26.7862 14.126 26.1516 13.986 25.6196 13.706C25.0969 13.4167 24.6909 13.0107 24.4016 12.488C24.1122 11.956 23.9676 11.3307 23.9676 10.612C23.9676 9.90267 24.1076 9.282 24.3876 8.75C24.6769 8.218 25.0689 7.80267 25.5636 7.504C26.0676 7.20533 26.6416 7.056 27.2856 7.056C27.7429 7.056 28.1536 7.13533 28.5176 7.294C28.8909 7.44333 29.2082 7.66267 29.4696 7.952C29.7309 8.24133 29.9269 8.596 30.0576 9.016C30.1976 9.42667 30.2676 9.89333 30.2676 10.416C30.2676 10.5653 30.2209 10.682 30.1276 10.766C30.0436 10.8407 29.9176 10.878 29.7496 10.878H24.9616V10.066H29.4276L29.1896 10.262C29.1896 9.77667 29.1149 9.366 28.9656 9.03C28.8256 8.68467 28.6156 8.42333 28.3356 8.246C28.0649 8.06867 27.7242 7.98 27.3136 7.98C26.8656 7.98 26.4829 8.08733 26.1656 8.302C25.8482 8.50733 25.6056 8.80133 25.4376 9.184C25.2696 9.55733 25.1856 9.99133 25.1856 10.486V10.57C25.1856 11.41 25.3862 12.0447 25.7876 12.474C26.1889 12.9033 26.7676 13.118 27.5236 13.118C27.8222 13.118 28.1256 13.0807 28.4336 13.006C28.7509 12.9313 29.0542 12.796 29.3436 12.6C29.4836 12.516 29.6096 12.4787 29.7216 12.488C29.8429 12.488 29.9409 12.5253 30.0156 12.6C30.0902 12.6653 30.1369 12.7493 30.1556 12.852C30.1742 12.9453 30.1602 13.048 30.1136 13.16C30.0669 13.272 29.9782 13.37 29.8476 13.454C29.5396 13.6687 29.1709 13.8367 28.7416 13.958C28.3216 14.07 27.9156 14.126 27.5236 14.126ZM33.9941 14.126C33.2941 14.126 32.7621 13.9207 32.3981 13.51C32.0341 13.09 31.8521 12.488 31.8521 11.704V4.676C31.8521 4.46133 31.9081 4.30267 32.0201 4.2C32.1321 4.088 32.2861 4.032 32.4821 4.032C32.6874 4.032 32.8461 4.088 32.9581 4.2C33.0701 4.30267 33.1261 4.46133 33.1261 4.676V11.606C33.1261 12.0913 33.2241 12.4553 33.4201 12.698C33.6254 12.9313 33.9147 13.048 34.2881 13.048C34.3721 13.048 34.4467 13.048 34.5121 13.048C34.5774 13.0387 34.6427 13.0293 34.7081 13.02C34.8107 13.0107 34.8854 13.0387 34.9321 13.104C34.9787 13.1693 35.0021 13.3 35.0021 13.496C35.0021 13.6733 34.9601 13.8133 34.8761 13.916C34.8014 14.0093 34.6754 14.07 34.4981 14.098C34.4141 14.1073 34.3301 14.112 34.2461 14.112C34.1621 14.1213 34.0781 14.126 33.9941 14.126Z" fill="#64728C"/>
<rect x="72.5" y="2.5" width="27" height="15" rx="7.5" fill="#FE5000" stroke="#ED4D03"/>
<g filter="url(#filter0_d_519_1576)">
<circle cx="92" cy="10" r="7" fill="white"/>
</g>
<defs>
<filter id="filter0_d_519_1576" x="81" y="1" width="22" height="22" filterUnits="userSpaceOnUse" color-interpolation-filters="sRGB">
<feFlood flood-opacity="0" result="BackgroundImageFix"/>
<feColorMatrix in="SourceAlpha" type="matrix" values="0 0 0 0 0 0 0 0 0 0 0 0 0 0 0 0 0 0 127 0" result="hardAlpha"/>
<feOffset dy="2"/>
<feGaussianBlur stdDeviation="2"/>
<feComposite in2="hardAlpha" operator="out"/>
<feColorMatrix type="matrix" values="0 0 0 0 0 0 0 0 0 0 0 0 0 0 0 0 0 0 0.25 0"/>
<feBlend mode="normal" in2="BackgroundImageFix" result="effect1_dropShadow_519_1576"/>
<feBlend mode="normal" in="SourceGraphic" in2="effect1_dropShadow_519_1576" result="shape"/>
</filter>
</defs>
</svg>
