<svg width="200" height="66" viewBox="0 0 200 66" fill="none" xmlns="http://www.w3.org/2000/svg">
<rect x="0.5" y="21.5" width="199" height="44" rx="11.5" stroke="#E8EAEF"/>
<path d="M47.0846 43.852C47.0846 44.172 47.0952 44.5613 47.1166 45.02C47.1379 45.468 47.2019 45.9053 47.3086 46.332C47.4259 46.748 47.6072 47.1053 47.8526 47.404C48.0979 47.7027 48.4499 47.852 48.9086 47.852C49.3779 47.852 49.7352 47.7027 49.9806 47.404C50.2366 47.1053 50.4179 46.748 50.5246 46.332C50.6419 45.9053 50.7112 45.468 50.7326 45.02C50.7539 44.5613 50.7646 44.172 50.7646 43.852C50.7646 43.66 50.7592 43.4307 50.7486 43.164C50.7486 42.8867 50.7272 42.604 50.6846 42.316C50.6526 42.028 50.5992 41.7453 50.5246 41.468C50.4606 41.18 50.3592 40.924 50.2206 40.7C50.0819 40.476 49.9059 40.2947 49.6926 40.156C49.4792 40.0173 49.2179 39.948 48.9086 39.948C48.5992 39.948 48.3379 40.0173 48.1246 40.156C47.9219 40.2947 47.7512 40.476 47.6126 40.7C47.4846 40.924 47.3832 41.18 47.3086 41.468C47.2339 41.7453 47.1806 42.028 47.1486 42.316C47.1166 42.604 47.0952 42.8867 47.0846 43.164C47.0846 43.4307 47.0846 43.66 47.0846 43.852ZM44.8126 43.852C44.8126 42.764 44.9192 41.852 45.1326 41.116C45.3566 40.3693 45.6552 39.772 46.0286 39.324C46.4019 38.876 46.8339 38.556 47.3246 38.364C47.8259 38.172 48.3539 38.076 48.9086 38.076C49.4739 38.076 50.0019 38.172 50.4926 38.364C50.9939 38.556 51.4312 38.876 51.8046 39.324C52.1886 39.772 52.4872 40.3693 52.7006 41.116C52.9246 41.852 53.0366 42.764 53.0366 43.852C53.0366 44.972 52.9246 45.9107 52.7006 46.668C52.4872 47.4147 52.1886 48.012 51.8046 48.46C51.4312 48.908 50.9939 49.228 50.4926 49.42C50.0019 49.612 49.4739 49.708 48.9086 49.708C48.3539 49.708 47.8259 49.612 47.3246 49.42C46.8339 49.228 46.4019 48.908 46.0286 48.46C45.6552 48.012 45.3566 47.4147 45.1326 46.668C44.9192 45.9107 44.8126 44.972 44.8126 43.852ZM57.6872 44.108C57.9965 44.108 58.2632 44.0547 58.4872 43.948C58.7112 43.8307 58.8979 43.676 59.0472 43.484C59.1965 43.292 59.3085 43.0733 59.3832 42.828C59.4579 42.572 59.4952 42.3053 59.4952 42.028C59.4952 41.772 59.4525 41.5213 59.3672 41.276C59.2925 41.02 59.1752 40.796 59.0152 40.604C58.8659 40.4013 58.6792 40.2413 58.4552 40.124C58.2312 40.0067 57.9752 39.948 57.6872 39.948C57.4205 39.948 57.1805 40.0067 56.9672 40.124C56.7539 40.2413 56.5725 40.396 56.4232 40.588C56.2739 40.78 56.1619 40.9987 56.0872 41.244C56.0125 41.4893 55.9752 41.74 55.9752 41.996C55.9752 42.2627 56.0072 42.524 56.0712 42.78C56.1459 43.0253 56.2525 43.2493 56.3912 43.452C56.5299 43.644 56.7059 43.804 56.9192 43.932C57.1432 44.0493 57.3992 44.108 57.6872 44.108ZM56.0552 46.62C56.1299 46.9933 56.3005 47.3187 56.5672 47.596C56.8339 47.8733 57.1645 48.012 57.5592 48.012C57.9752 48.012 58.3165 47.8947 58.5832 47.66C58.8499 47.4147 59.0632 47.1213 59.2232 46.78C59.3832 46.428 59.4952 46.0547 59.5592 45.66C59.6339 45.2653 59.6819 44.9133 59.7032 44.604L59.6712 44.572C59.3619 45.02 58.9992 45.34 58.5832 45.532C58.1672 45.724 57.6872 45.82 57.1432 45.82C56.6632 45.82 56.1939 45.7187 55.7352 45.516C55.2765 45.3027 54.8872 45.02 54.5672 44.668C54.2685 44.3267 54.0499 43.9373 53.9112 43.5C53.7725 43.0627 53.7032 42.62 53.7032 42.172C53.7032 41.596 53.7939 41.0627 53.9752 40.572C54.1672 40.0707 54.4339 39.6387 54.7752 39.276C55.1272 38.9027 55.5432 38.6093 56.0232 38.396C56.5032 38.1827 57.0365 38.076 57.6232 38.076C58.4765 38.076 59.1752 38.2467 59.7192 38.588C60.2739 38.9187 60.7165 39.3613 61.0472 39.916C61.3779 40.46 61.6072 41.0787 61.7352 41.772C61.8632 42.4653 61.9272 43.164 61.9272 43.868C61.9272 44.5613 61.8472 45.2547 61.6872 45.948C61.5272 46.6413 61.2712 47.2707 60.9192 47.836C60.5672 48.3907 60.1139 48.844 59.5592 49.196C59.0045 49.5373 58.3272 49.708 57.5272 49.708C57.0472 49.708 56.5992 49.6387 56.1832 49.5C55.7672 49.372 55.3992 49.1747 55.0792 48.908C54.7592 48.6413 54.4979 48.316 54.2952 47.932C54.0925 47.548 53.9592 47.1107 53.8952 46.62H56.0552ZM70.1989 43.836H67.6869V41.372H70.1989V43.836ZM67.6869 47.036H70.1989V49.5H67.6869V47.036ZM76.2092 42.604C76.1879 41.964 76.2625 41.372 76.4332 40.828C76.6039 40.2733 76.8599 39.7933 77.2012 39.388C77.5425 38.972 77.9692 38.652 78.4812 38.428C79.0039 38.1933 79.6012 38.076 80.2732 38.076C80.7852 38.076 81.2705 38.156 81.7292 38.316C82.1985 38.476 82.6092 38.7053 82.9612 39.004C83.3132 39.3027 83.5905 39.6707 83.7932 40.108C84.0065 40.5453 84.1132 41.036 84.1132 41.58C84.1132 42.1453 84.0225 42.6307 83.8412 43.036C83.6599 43.4413 83.4199 43.804 83.1212 44.124C82.8225 44.4333 82.4812 44.716 82.0972 44.972C81.7239 45.228 81.3452 45.484 80.9612 45.74C80.5772 45.9853 80.2039 46.252 79.8412 46.54C79.4785 46.828 79.1585 47.164 78.8812 47.548H84.1772V49.5H75.9532C75.9532 48.8493 76.0439 48.284 76.2252 47.804C76.4172 47.324 76.6732 46.8973 76.9932 46.524C77.3132 46.14 77.6865 45.788 78.1132 45.468C78.5505 45.148 79.0092 44.8227 79.4892 44.492C79.7345 44.3213 79.9959 44.1507 80.2732 43.98C80.5505 43.7987 80.8012 43.6013 81.0252 43.388C81.2599 43.1747 81.4519 42.9347 81.6012 42.668C81.7612 42.4013 81.8412 42.0973 81.8412 41.756C81.8412 41.212 81.6812 40.7907 81.3612 40.492C81.0519 40.1827 80.6519 40.028 80.1612 40.028C79.8305 40.028 79.5479 40.108 79.3132 40.268C79.0892 40.4173 78.9079 40.62 78.7692 40.876C78.6305 41.1213 78.5292 41.3987 78.4652 41.708C78.4119 42.0067 78.3852 42.3053 78.3852 42.604H76.2092ZM92.5078 40.172H87.8838L87.4358 42.716L87.4678 42.748C87.7771 42.4387 88.1078 42.22 88.4598 42.092C88.8118 41.9533 89.2118 41.884 89.6598 41.884C90.2145 41.884 90.7051 41.9853 91.1318 42.188C91.5585 42.3907 91.9158 42.6627 92.2038 43.004C92.5025 43.3453 92.7265 43.7507 92.8758 44.22C93.0358 44.6787 93.1158 45.1693 93.1158 45.692C93.1158 46.268 93.0038 46.8067 92.7798 47.308C92.5558 47.7987 92.2518 48.2253 91.8678 48.588C91.4945 48.9507 91.0571 49.2333 90.5558 49.436C90.0545 49.628 89.5211 49.7187 88.9558 49.708C88.4118 49.708 87.8891 49.6387 87.3878 49.5C86.8971 49.3507 86.4598 49.1267 86.0758 48.828C85.6918 48.5293 85.3825 48.1613 85.1478 47.724C84.9238 47.276 84.8065 46.7587 84.7958 46.172H87.0678C87.1211 46.684 87.3131 47.0947 87.6438 47.404C87.9745 47.7027 88.3958 47.852 88.9078 47.852C89.2065 47.852 89.4731 47.7933 89.7078 47.676C89.9531 47.548 90.1558 47.388 90.3158 47.196C90.4865 46.9933 90.6145 46.764 90.6998 46.508C90.7958 46.2413 90.8438 45.9693 90.8438 45.692C90.8438 45.404 90.8011 45.132 90.7158 44.876C90.6305 44.62 90.5025 44.396 90.3318 44.204C90.1611 44.012 89.9585 43.8627 89.7238 43.756C89.4891 43.6493 89.2171 43.596 88.9078 43.596C88.5025 43.596 88.1718 43.6707 87.9158 43.82C87.6598 43.9587 87.4198 44.1827 87.1958 44.492H85.1478L86.2518 38.3H92.5078V40.172ZM105.073 45.02H109.569L107.361 39.164L105.073 45.02ZM106.801 38.076H108.017L112.497 49.5H111.329L109.937 45.948H104.737L103.361 49.5H102.209L106.801 38.076ZM115.103 38.076L118.895 48.092L122.831 38.076H124.431V49.5H123.343V39.628H123.311L119.407 49.5H118.383L114.623 39.628H114.591V49.5H113.503V38.076H115.103Z" fill="#64728C"/>
<rect x="160" y="25.5" width="36" height="36" rx="12" fill="#64728C" fill-opacity="0.12"/>
<path d="M178 50.5C181.866 50.5 185 47.366 185 43.5C185 39.634 181.866 36.5 178 36.5C174.134 36.5 171 39.634 171 43.5C171 47.366 174.134 50.5 178 50.5Z" stroke="#64728C" stroke-width="2" stroke-linecap="round" stroke-linejoin="round"/>
<path d="M178 39.8762V44.9405L180.8 46.6286" stroke="#64728C" stroke-width="2" stroke-linecap="round" stroke-linejoin="round"/>
<path d="M3.804 12.108C3.436 12.108 3.076 12.08 2.724 12.024C2.372 11.968 2.04 11.884 1.728 11.772C1.416 11.652 1.136 11.508 0.888 11.34C0.768 11.252 0.684 11.152 0.636 11.04C0.596 10.928 0.584 10.82 0.6 10.716C0.624 10.604 0.672 10.508 0.744 10.428C0.816 10.348 0.904 10.3 1.008 10.284C1.112 10.26 1.228 10.292 1.356 10.38C1.716 10.612 2.096 10.784 2.496 10.896C2.896 11 3.332 11.052 3.804 11.052C4.484 11.052 4.984 10.932 5.304 10.692C5.632 10.444 5.796 10.124 5.796 9.732C5.796 9.412 5.68 9.16 5.448 8.976C5.216 8.784 4.828 8.632 4.284 8.52L3 8.256C2.24 8.096 1.672 7.832 1.296 7.464C0.928 7.096 0.744 6.6 0.744 5.976C0.744 5.6 0.82 5.256 0.972 4.944C1.132 4.632 1.352 4.364 1.632 4.14C1.912 3.908 2.248 3.732 2.64 3.612C3.032 3.492 3.46 3.432 3.924 3.432C4.42 3.432 4.884 3.496 5.316 3.624C5.756 3.752 6.148 3.948 6.492 4.212C6.596 4.284 6.664 4.376 6.696 4.488C6.736 4.592 6.744 4.696 6.72 4.8C6.704 4.904 6.66 4.992 6.588 5.064C6.516 5.136 6.424 5.18 6.312 5.196C6.2 5.204 6.076 5.164 5.94 5.076C5.628 4.868 5.308 4.72 4.98 4.632C4.66 4.536 4.304 4.488 3.912 4.488C3.52 4.488 3.176 4.548 2.88 4.668C2.592 4.788 2.368 4.956 2.208 5.172C2.056 5.388 1.98 5.644 1.98 5.94C1.98 6.276 2.088 6.544 2.304 6.744C2.52 6.944 2.88 7.096 3.384 7.2L4.656 7.464C5.456 7.632 6.052 7.892 6.444 8.244C6.836 8.596 7.032 9.064 7.032 9.648C7.032 10.024 6.956 10.364 6.804 10.668C6.652 10.964 6.436 11.22 6.156 11.436C5.876 11.652 5.536 11.82 5.136 11.94C4.744 12.052 4.3 12.108 3.804 12.108ZM11.0648 12.108C10.4248 12.108 9.87284 11.988 9.40884 11.748C8.95284 11.5 8.59684 11.152 8.34084 10.704C8.09284 10.248 7.96884 9.708 7.96884 9.084C7.96884 8.476 8.09284 7.944 8.34084 7.488C8.58884 7.032 8.92884 6.676 9.36084 6.42C9.79284 6.164 10.2848 6.036 10.8368 6.036C11.2448 6.036 11.6088 6.104 11.9288 6.24C12.2488 6.368 12.5208 6.56 12.7448 6.816C12.9768 7.064 13.1488 7.368 13.2608 7.728C13.3808 8.088 13.4408 8.492 13.4408 8.94C13.4408 9.076 13.4008 9.18 13.3208 9.252C13.2408 9.316 13.1208 9.348 12.9608 9.348H8.92884V8.604H12.6248L12.4208 8.772C12.4208 8.372 12.3608 8.032 12.2408 7.752C12.1288 7.472 11.9568 7.26 11.7248 7.116C11.5008 6.964 11.2208 6.888 10.8848 6.888C10.5088 6.888 10.1888 6.976 9.92484 7.152C9.66884 7.328 9.47284 7.572 9.33684 7.884C9.20084 8.196 9.13284 8.56 9.13284 8.976V9.048C9.13284 9.752 9.29684 10.284 9.62484 10.644C9.96084 10.996 10.4448 11.172 11.0768 11.172C11.3168 11.172 11.5688 11.14 11.8328 11.076C12.1048 11.012 12.3608 10.904 12.6008 10.752C12.7368 10.672 12.8568 10.636 12.9608 10.644C13.0728 10.652 13.1608 10.688 13.2248 10.752C13.2968 10.816 13.3408 10.896 13.3568 10.992C13.3728 11.088 13.3568 11.188 13.3088 11.292C13.2608 11.388 13.1768 11.476 13.0568 11.556C12.7848 11.74 12.4688 11.88 12.1088 11.976C11.7488 12.064 11.4008 12.108 11.0648 12.108ZM17.2464 12.108C16.7664 12.108 16.3624 12.024 16.0344 11.856C15.7064 11.688 15.4624 11.44 15.3024 11.112C15.1424 10.784 15.0624 10.384 15.0624 9.912V7.08H14.3424C14.1824 7.08 14.0584 7.04 13.9704 6.96C13.8824 6.872 13.8384 6.756 13.8384 6.612C13.8384 6.46 13.8824 6.344 13.9704 6.264C14.0584 6.184 14.1824 6.144 14.3424 6.144H15.0624V4.908C15.0624 4.708 15.1144 4.556 15.2184 4.452C15.3304 4.348 15.4824 4.296 15.6744 4.296C15.8664 4.296 16.0144 4.348 16.1184 4.452C16.2224 4.556 16.2744 4.708 16.2744 4.908V6.144H17.6784C17.8384 6.144 17.9624 6.184 18.0504 6.264C18.1384 6.344 18.1824 6.46 18.1824 6.612C18.1824 6.756 18.1384 6.872 18.0504 6.96C17.9624 7.04 17.8384 7.08 17.6784 7.08H16.2744V9.816C16.2744 10.24 16.3624 10.56 16.5384 10.776C16.7224 10.992 17.0184 11.1 17.4264 11.1C17.5704 11.1 17.6944 11.088 17.7984 11.064C17.9104 11.032 18.0024 11.012 18.0744 11.004C18.1624 11.004 18.2344 11.036 18.2904 11.1C18.3464 11.156 18.3744 11.268 18.3744 11.436C18.3744 11.556 18.3504 11.668 18.3024 11.772C18.2624 11.876 18.1864 11.944 18.0744 11.976C17.9784 12.008 17.8464 12.036 17.6784 12.06C17.5184 12.092 17.3744 12.108 17.2464 12.108ZM25.1173 12.084C24.9173 12.084 24.7613 12.028 24.6493 11.916C24.5453 11.804 24.4933 11.648 24.4933 11.448V4.584H21.9493C21.7813 4.584 21.6493 4.54 21.5533 4.452C21.4573 4.356 21.4093 4.224 21.4093 4.056C21.4093 3.888 21.4573 3.76 21.5533 3.672C21.6493 3.584 21.7813 3.54 21.9493 3.54H28.2733C28.4493 3.54 28.5853 3.584 28.6813 3.672C28.7773 3.76 28.8253 3.888 28.8253 4.056C28.8253 4.224 28.7773 4.356 28.6813 4.452C28.5853 4.54 28.4493 4.584 28.2733 4.584H25.7293V11.448C25.7293 11.648 25.6773 11.804 25.5733 11.916C25.4773 12.028 25.3253 12.084 25.1173 12.084ZM30.702 12.072C30.51 12.072 30.362 12.016 30.258 11.904C30.154 11.784 30.102 11.62 30.102 11.412V6.732C30.102 6.524 30.154 6.364 30.258 6.252C30.362 6.14 30.51 6.084 30.702 6.084C30.894 6.084 31.042 6.14 31.146 6.252C31.258 6.364 31.314 6.524 31.314 6.732V11.412C31.314 11.62 31.262 11.784 31.158 11.904C31.054 12.016 30.902 12.072 30.702 12.072ZM30.702 4.836C30.462 4.836 30.274 4.776 30.138 4.656C30.01 4.536 29.946 4.368 29.946 4.152C29.946 3.928 30.01 3.76 30.138 3.648C30.274 3.528 30.462 3.468 30.702 3.468C30.942 3.468 31.126 3.528 31.254 3.648C31.39 3.76 31.458 3.928 31.458 4.152C31.458 4.368 31.39 4.536 31.254 4.656C31.126 4.776 30.942 4.836 30.702 4.836ZM33.644 12.084C33.452 12.084 33.304 12.032 33.2 11.928C33.096 11.816 33.044 11.664 33.044 11.472V6.672C33.044 6.472 33.096 6.32 33.2 6.216C33.304 6.112 33.448 6.06 33.632 6.06C33.824 6.06 33.968 6.112 34.064 6.216C34.168 6.32 34.22 6.472 34.22 6.672V7.656L34.088 7.392C34.248 6.968 34.496 6.636 34.832 6.396C35.168 6.156 35.572 6.036 36.044 6.036C36.532 6.036 36.928 6.152 37.232 6.384C37.536 6.616 37.744 6.972 37.856 7.452H37.688C37.84 7.012 38.1 6.668 38.468 6.42C38.836 6.164 39.264 6.036 39.752 6.036C40.2 6.036 40.568 6.124 40.856 6.3C41.144 6.468 41.36 6.728 41.504 7.08C41.648 7.424 41.72 7.86 41.72 8.388V11.472C41.72 11.664 41.664 11.816 41.552 11.928C41.448 12.032 41.3 12.084 41.108 12.084C40.916 12.084 40.768 12.032 40.664 11.928C40.56 11.816 40.508 11.664 40.508 11.472V8.448C40.508 7.952 40.42 7.588 40.244 7.356C40.076 7.124 39.796 7.008 39.404 7.008C38.964 7.008 38.616 7.16 38.36 7.464C38.104 7.768 37.976 8.188 37.976 8.724V11.472C37.976 11.664 37.924 11.816 37.82 11.928C37.716 12.032 37.568 12.084 37.376 12.084C37.184 12.084 37.032 12.032 36.92 11.928C36.816 11.816 36.764 11.664 36.764 11.472V8.448C36.764 7.952 36.68 7.588 36.512 7.356C36.344 7.124 36.064 7.008 35.672 7.008C35.232 7.008 34.884 7.16 34.628 7.464C34.38 7.768 34.256 8.188 34.256 8.724V11.472C34.256 11.88 34.052 12.084 33.644 12.084ZM46.1625 12.108C45.5225 12.108 44.9705 11.988 44.5065 11.748C44.0505 11.5 43.6945 11.152 43.4385 10.704C43.1905 10.248 43.0665 9.708 43.0665 9.084C43.0665 8.476 43.1905 7.944 43.4385 7.488C43.6865 7.032 44.0265 6.676 44.4585 6.42C44.8905 6.164 45.3825 6.036 45.9345 6.036C46.3425 6.036 46.7065 6.104 47.0265 6.24C47.3465 6.368 47.6185 6.56 47.8425 6.816C48.0745 7.064 48.2465 7.368 48.3585 7.728C48.4785 8.088 48.5385 8.492 48.5385 8.94C48.5385 9.076 48.4985 9.18 48.4185 9.252C48.3385 9.316 48.2185 9.348 48.0585 9.348H44.0265V8.604H47.7225L47.5185 8.772C47.5185 8.372 47.4585 8.032 47.3385 7.752C47.2265 7.472 47.0545 7.26 46.8225 7.116C46.5985 6.964 46.3185 6.888 45.9825 6.888C45.6065 6.888 45.2865 6.976 45.0225 7.152C44.7665 7.328 44.5705 7.572 44.4345 7.884C44.2985 8.196 44.2305 8.56 44.2305 8.976V9.048C44.2305 9.752 44.3945 10.284 44.7225 10.644C45.0585 10.996 45.5425 11.172 46.1745 11.172C46.4145 11.172 46.6665 11.14 46.9305 11.076C47.2025 11.012 47.4585 10.904 47.6985 10.752C47.8345 10.672 47.9545 10.636 48.0585 10.644C48.1705 10.652 48.2585 10.688 48.3225 10.752C48.3945 10.816 48.4385 10.896 48.4545 10.992C48.4705 11.088 48.4545 11.188 48.4065 11.292C48.3585 11.388 48.2745 11.476 48.1545 11.556C47.8825 11.74 47.5665 11.88 47.2065 11.976C46.8465 12.064 46.4985 12.108 46.1625 12.108Z" fill="#64728C"/>
</svg>
