<svg width="200" height="66" viewBox="0 0 200 66" fill="none" xmlns="http://www.w3.org/2000/svg">
<rect x="0.5" y="21.5" width="199" height="44" rx="11.5" stroke="#E8EAEF"/>
<path d="M61.1311 42.604C61.1097 41.964 61.1844 41.372 61.3551 40.828C61.5257 40.2733 61.7817 39.7933 62.1231 39.388C62.4644 38.972 62.8911 38.652 63.4031 38.428C63.9257 38.1933 64.5231 38.076 65.1951 38.076C65.7071 38.076 66.1924 38.156 66.6511 38.316C67.1204 38.476 67.5311 38.7053 67.8831 39.004C68.2351 39.3027 68.5124 39.6707 68.7151 40.108C68.9284 40.5453 69.0351 41.036 69.0351 41.58C69.0351 42.1453 68.9444 42.6307 68.7631 43.036C68.5817 43.4413 68.3417 43.804 68.0431 44.124C67.7444 44.4333 67.4031 44.716 67.0191 44.972C66.6457 45.228 66.2671 45.484 65.8831 45.74C65.4991 45.9853 65.1257 46.252 64.7631 46.54C64.4004 46.828 64.0804 47.164 63.8031 47.548H69.0991V49.5H60.8751C60.8751 48.8493 60.9657 48.284 61.1471 47.804C61.3391 47.324 61.5951 46.8973 61.9151 46.524C62.2351 46.14 62.6084 45.788 63.0351 45.468C63.4724 45.148 63.9311 44.8227 64.4111 44.492C64.6564 44.3213 64.9177 44.1507 65.1951 43.98C65.4724 43.7987 65.7231 43.6013 65.9471 43.388C66.1817 43.1747 66.3737 42.9347 66.5231 42.668C66.6831 42.4013 66.7631 42.0973 66.7631 41.756C66.7631 41.212 66.6031 40.7907 66.2831 40.492C65.9737 40.1827 65.5737 40.028 65.0831 40.028C64.7524 40.028 64.4697 40.108 64.2351 40.268C64.0111 40.4173 63.8297 40.62 63.6911 40.876C63.5524 41.1213 63.4511 41.3987 63.3871 41.708C63.3337 42.0067 63.3071 42.3053 63.3071 42.604H61.1311ZM72.0377 43.852C72.0377 44.172 72.0484 44.5613 72.0697 45.02C72.091 45.468 72.155 45.9053 72.2617 46.332C72.379 46.748 72.5604 47.1053 72.8057 47.404C73.051 47.7027 73.403 47.852 73.8617 47.852C74.331 47.852 74.6884 47.7027 74.9337 47.404C75.1897 47.1053 75.371 46.748 75.4777 46.332C75.595 45.9053 75.6644 45.468 75.6857 45.02C75.707 44.5613 75.7177 44.172 75.7177 43.852C75.7177 43.66 75.7124 43.4307 75.7017 43.164C75.7017 42.8867 75.6804 42.604 75.6377 42.316C75.6057 42.028 75.5524 41.7453 75.4777 41.468C75.4137 41.18 75.3124 40.924 75.1737 40.7C75.035 40.476 74.859 40.2947 74.6457 40.156C74.4324 40.0173 74.171 39.948 73.8617 39.948C73.5524 39.948 73.291 40.0173 73.0777 40.156C72.875 40.2947 72.7044 40.476 72.5657 40.7C72.4377 40.924 72.3364 41.18 72.2617 41.468C72.187 41.7453 72.1337 42.028 72.1017 42.316C72.0697 42.604 72.0484 42.8867 72.0377 43.164C72.0377 43.4307 72.0377 43.66 72.0377 43.852ZM69.7657 43.852C69.7657 42.764 69.8724 41.852 70.0857 41.116C70.3097 40.3693 70.6084 39.772 70.9817 39.324C71.355 38.876 71.787 38.556 72.2777 38.364C72.779 38.172 73.307 38.076 73.8617 38.076C74.427 38.076 74.955 38.172 75.4457 38.364C75.947 38.556 76.3844 38.876 76.7577 39.324C77.1417 39.772 77.4404 40.3693 77.6537 41.116C77.8777 41.852 77.9897 42.764 77.9897 43.852C77.9897 44.972 77.8777 45.9107 77.6537 46.668C77.4404 47.4147 77.1417 48.012 76.7577 48.46C76.3844 48.908 75.947 49.228 75.4457 49.42C74.955 49.612 74.427 49.708 73.8617 49.708C73.307 49.708 72.779 49.612 72.2777 49.42C71.787 49.228 71.355 48.908 70.9817 48.46C70.6084 48.012 70.3097 47.4147 70.0857 46.668C69.8724 45.9107 69.7657 44.972 69.7657 43.852ZM86.2614 43.836H83.7494V41.372H86.2614V43.836ZM83.7494 47.036H86.2614V49.5H83.7494V47.036ZM97.9517 49.5H95.6797V42.236H92.8637V40.524C93.2584 40.5347 93.637 40.508 93.9997 40.444C94.373 40.3693 94.7037 40.2467 94.9917 40.076C95.2904 39.8947 95.541 39.66 95.7437 39.372C95.9464 39.084 96.0797 38.7267 96.1437 38.3H97.9517V49.5ZM108.57 40.172H103.946L103.498 42.716L103.53 42.748C103.84 42.4387 104.17 42.22 104.522 42.092C104.874 41.9533 105.274 41.884 105.722 41.884C106.277 41.884 106.768 41.9853 107.194 42.188C107.621 42.3907 107.978 42.6627 108.266 43.004C108.565 43.3453 108.789 43.7507 108.938 44.22C109.098 44.6787 109.178 45.1693 109.178 45.692C109.178 46.268 109.066 46.8067 108.842 47.308C108.618 47.7987 108.314 48.2253 107.93 48.588C107.557 48.9507 107.12 49.2333 106.618 49.436C106.117 49.628 105.584 49.7187 105.018 49.708C104.474 49.708 103.952 49.6387 103.45 49.5C102.96 49.3507 102.522 49.1267 102.138 48.828C101.754 48.5293 101.445 48.1613 101.21 47.724C100.986 47.276 100.869 46.7587 100.858 46.172H103.13C103.184 46.684 103.376 47.0947 103.706 47.404C104.037 47.7027 104.458 47.852 104.97 47.852C105.269 47.852 105.536 47.7933 105.77 47.676C106.016 47.548 106.218 47.388 106.378 47.196C106.549 46.9933 106.677 46.764 106.762 46.508C106.858 46.2413 106.906 45.9693 106.906 45.692C106.906 45.404 106.864 45.132 106.778 44.876C106.693 44.62 106.565 44.396 106.394 44.204C106.224 44.012 106.021 43.8627 105.786 43.756C105.552 43.6493 105.28 43.596 104.97 43.596C104.565 43.596 104.234 43.6707 103.978 43.82C103.722 43.9587 103.482 44.1827 103.258 44.492H101.21L102.314 38.3H108.57V40.172Z" fill="#64728C"/>
<rect x="160" y="25.5" width="36" height="36" rx="12" fill="#64728C" fill-opacity="0.12"/>
<path d="M178 50.5C181.866 50.5 185 47.366 185 43.5C185 39.634 181.866 36.5 178 36.5C174.134 36.5 171 39.634 171 43.5C171 47.366 174.134 50.5 178 50.5Z" stroke="#64728C" stroke-width="2" stroke-linecap="round" stroke-linejoin="round"/>
<path d="M178 39.8762V44.9405L180.8 46.6286" stroke="#64728C" stroke-width="2" stroke-linecap="round" stroke-linejoin="round"/>
<path d="M3.804 12.108C3.436 12.108 3.076 12.08 2.724 12.024C2.372 11.968 2.04 11.884 1.728 11.772C1.416 11.652 1.136 11.508 0.888 11.34C0.768 11.252 0.684 11.152 0.636 11.04C0.596 10.928 0.584 10.82 0.6 10.716C0.624 10.604 0.672 10.508 0.744 10.428C0.816 10.348 0.904 10.3 1.008 10.284C1.112 10.26 1.228 10.292 1.356 10.38C1.716 10.612 2.096 10.784 2.496 10.896C2.896 11 3.332 11.052 3.804 11.052C4.484 11.052 4.984 10.932 5.304 10.692C5.632 10.444 5.796 10.124 5.796 9.732C5.796 9.412 5.68 9.16 5.448 8.976C5.216 8.784 4.828 8.632 4.284 8.52L3 8.256C2.24 8.096 1.672 7.832 1.296 7.464C0.928 7.096 0.744 6.6 0.744 5.976C0.744 5.6 0.82 5.256 0.972 4.944C1.132 4.632 1.352 4.364 1.632 4.14C1.912 3.908 2.248 3.732 2.64 3.612C3.032 3.492 3.46 3.432 3.924 3.432C4.42 3.432 4.884 3.496 5.316 3.624C5.756 3.752 6.148 3.948 6.492 4.212C6.596 4.284 6.664 4.376 6.696 4.488C6.736 4.592 6.744 4.696 6.72 4.8C6.704 4.904 6.66 4.992 6.588 5.064C6.516 5.136 6.424 5.18 6.312 5.196C6.2 5.204 6.076 5.164 5.94 5.076C5.628 4.868 5.308 4.72 4.98 4.632C4.66 4.536 4.304 4.488 3.912 4.488C3.52 4.488 3.176 4.548 2.88 4.668C2.592 4.788 2.368 4.956 2.208 5.172C2.056 5.388 1.98 5.644 1.98 5.94C1.98 6.276 2.088 6.544 2.304 6.744C2.52 6.944 2.88 7.096 3.384 7.2L4.656 7.464C5.456 7.632 6.052 7.892 6.444 8.244C6.836 8.596 7.032 9.064 7.032 9.648C7.032 10.024 6.956 10.364 6.804 10.668C6.652 10.964 6.436 11.22 6.156 11.436C5.876 11.652 5.536 11.82 5.136 11.94C4.744 12.052 4.3 12.108 3.804 12.108ZM11.0648 12.108C10.4248 12.108 9.87284 11.988 9.40884 11.748C8.95284 11.5 8.59684 11.152 8.34084 10.704C8.09284 10.248 7.96884 9.708 7.96884 9.084C7.96884 8.476 8.09284 7.944 8.34084 7.488C8.58884 7.032 8.92884 6.676 9.36084 6.42C9.79284 6.164 10.2848 6.036 10.8368 6.036C11.2448 6.036 11.6088 6.104 11.9288 6.24C12.2488 6.368 12.5208 6.56 12.7448 6.816C12.9768 7.064 13.1488 7.368 13.2608 7.728C13.3808 8.088 13.4408 8.492 13.4408 8.94C13.4408 9.076 13.4008 9.18 13.3208 9.252C13.2408 9.316 13.1208 9.348 12.9608 9.348H8.92884V8.604H12.6248L12.4208 8.772C12.4208 8.372 12.3608 8.032 12.2408 7.752C12.1288 7.472 11.9568 7.26 11.7248 7.116C11.5008 6.964 11.2208 6.888 10.8848 6.888C10.5088 6.888 10.1888 6.976 9.92484 7.152C9.66884 7.328 9.47284 7.572 9.33684 7.884C9.20084 8.196 9.13284 8.56 9.13284 8.976V9.048C9.13284 9.752 9.29684 10.284 9.62484 10.644C9.96084 10.996 10.4448 11.172 11.0768 11.172C11.3168 11.172 11.5688 11.14 11.8328 11.076C12.1048 11.012 12.3608 10.904 12.6008 10.752C12.7368 10.672 12.8568 10.636 12.9608 10.644C13.0728 10.652 13.1608 10.688 13.2248 10.752C13.2968 10.816 13.3408 10.896 13.3568 10.992C13.3728 11.088 13.3568 11.188 13.3088 11.292C13.2608 11.388 13.1768 11.476 13.0568 11.556C12.7848 11.74 12.4688 11.88 12.1088 11.976C11.7488 12.064 11.4008 12.108 11.0648 12.108ZM17.2464 12.108C16.7664 12.108 16.3624 12.024 16.0344 11.856C15.7064 11.688 15.4624 11.44 15.3024 11.112C15.1424 10.784 15.0624 10.384 15.0624 9.912V7.08H14.3424C14.1824 7.08 14.0584 7.04 13.9704 6.96C13.8824 6.872 13.8384 6.756 13.8384 6.612C13.8384 6.46 13.8824 6.344 13.9704 6.264C14.0584 6.184 14.1824 6.144 14.3424 6.144H15.0624V4.908C15.0624 4.708 15.1144 4.556 15.2184 4.452C15.3304 4.348 15.4824 4.296 15.6744 4.296C15.8664 4.296 16.0144 4.348 16.1184 4.452C16.2224 4.556 16.2744 4.708 16.2744 4.908V6.144H17.6784C17.8384 6.144 17.9624 6.184 18.0504 6.264C18.1384 6.344 18.1824 6.46 18.1824 6.612C18.1824 6.756 18.1384 6.872 18.0504 6.96C17.9624 7.04 17.8384 7.08 17.6784 7.08H16.2744V9.816C16.2744 10.24 16.3624 10.56 16.5384 10.776C16.7224 10.992 17.0184 11.1 17.4264 11.1C17.5704 11.1 17.6944 11.088 17.7984 11.064C17.9104 11.032 18.0024 11.012 18.0744 11.004C18.1624 11.004 18.2344 11.036 18.2904 11.1C18.3464 11.156 18.3744 11.268 18.3744 11.436C18.3744 11.556 18.3504 11.668 18.3024 11.772C18.2624 11.876 18.1864 11.944 18.0744 11.976C17.9784 12.008 17.8464 12.036 17.6784 12.06C17.5184 12.092 17.3744 12.108 17.2464 12.108ZM25.1173 12.084C24.9173 12.084 24.7613 12.028 24.6493 11.916C24.5453 11.804 24.4933 11.648 24.4933 11.448V4.584H21.9493C21.7813 4.584 21.6493 4.54 21.5533 4.452C21.4573 4.356 21.4093 4.224 21.4093 4.056C21.4093 3.888 21.4573 3.76 21.5533 3.672C21.6493 3.584 21.7813 3.54 21.9493 3.54H28.2733C28.4493 3.54 28.5853 3.584 28.6813 3.672C28.7773 3.76 28.8253 3.888 28.8253 4.056C28.8253 4.224 28.7773 4.356 28.6813 4.452C28.5853 4.54 28.4493 4.584 28.2733 4.584H25.7293V11.448C25.7293 11.648 25.6773 11.804 25.5733 11.916C25.4773 12.028 25.3253 12.084 25.1173 12.084ZM30.702 12.072C30.51 12.072 30.362 12.016 30.258 11.904C30.154 11.784 30.102 11.62 30.102 11.412V6.732C30.102 6.524 30.154 6.364 30.258 6.252C30.362 6.14 30.51 6.084 30.702 6.084C30.894 6.084 31.042 6.14 31.146 6.252C31.258 6.364 31.314 6.524 31.314 6.732V11.412C31.314 11.62 31.262 11.784 31.158 11.904C31.054 12.016 30.902 12.072 30.702 12.072ZM30.702 4.836C30.462 4.836 30.274 4.776 30.138 4.656C30.01 4.536 29.946 4.368 29.946 4.152C29.946 3.928 30.01 3.76 30.138 3.648C30.274 3.528 30.462 3.468 30.702 3.468C30.942 3.468 31.126 3.528 31.254 3.648C31.39 3.76 31.458 3.928 31.458 4.152C31.458 4.368 31.39 4.536 31.254 4.656C31.126 4.776 30.942 4.836 30.702 4.836ZM33.644 12.084C33.452 12.084 33.304 12.032 33.2 11.928C33.096 11.816 33.044 11.664 33.044 11.472V6.672C33.044 6.472 33.096 6.32 33.2 6.216C33.304 6.112 33.448 6.06 33.632 6.06C33.824 6.06 33.968 6.112 34.064 6.216C34.168 6.32 34.22 6.472 34.22 6.672V7.656L34.088 7.392C34.248 6.968 34.496 6.636 34.832 6.396C35.168 6.156 35.572 6.036 36.044 6.036C36.532 6.036 36.928 6.152 37.232 6.384C37.536 6.616 37.744 6.972 37.856 7.452H37.688C37.84 7.012 38.1 6.668 38.468 6.42C38.836 6.164 39.264 6.036 39.752 6.036C40.2 6.036 40.568 6.124 40.856 6.3C41.144 6.468 41.36 6.728 41.504 7.08C41.648 7.424 41.72 7.86 41.72 8.388V11.472C41.72 11.664 41.664 11.816 41.552 11.928C41.448 12.032 41.3 12.084 41.108 12.084C40.916 12.084 40.768 12.032 40.664 11.928C40.56 11.816 40.508 11.664 40.508 11.472V8.448C40.508 7.952 40.42 7.588 40.244 7.356C40.076 7.124 39.796 7.008 39.404 7.008C38.964 7.008 38.616 7.16 38.36 7.464C38.104 7.768 37.976 8.188 37.976 8.724V11.472C37.976 11.664 37.924 11.816 37.82 11.928C37.716 12.032 37.568 12.084 37.376 12.084C37.184 12.084 37.032 12.032 36.92 11.928C36.816 11.816 36.764 11.664 36.764 11.472V8.448C36.764 7.952 36.68 7.588 36.512 7.356C36.344 7.124 36.064 7.008 35.672 7.008C35.232 7.008 34.884 7.16 34.628 7.464C34.38 7.768 34.256 8.188 34.256 8.724V11.472C34.256 11.88 34.052 12.084 33.644 12.084ZM46.1625 12.108C45.5225 12.108 44.9705 11.988 44.5065 11.748C44.0505 11.5 43.6945 11.152 43.4385 10.704C43.1905 10.248 43.0665 9.708 43.0665 9.084C43.0665 8.476 43.1905 7.944 43.4385 7.488C43.6865 7.032 44.0265 6.676 44.4585 6.42C44.8905 6.164 45.3825 6.036 45.9345 6.036C46.3425 6.036 46.7065 6.104 47.0265 6.24C47.3465 6.368 47.6185 6.56 47.8425 6.816C48.0745 7.064 48.2465 7.368 48.3585 7.728C48.4785 8.088 48.5385 8.492 48.5385 8.94C48.5385 9.076 48.4985 9.18 48.4185 9.252C48.3385 9.316 48.2185 9.348 48.0585 9.348H44.0265V8.604H47.7225L47.5185 8.772C47.5185 8.372 47.4585 8.032 47.3385 7.752C47.2265 7.472 47.0545 7.26 46.8225 7.116C46.5985 6.964 46.3185 6.888 45.9825 6.888C45.6065 6.888 45.2865 6.976 45.0225 7.152C44.7665 7.328 44.5705 7.572 44.4345 7.884C44.2985 8.196 44.2305 8.56 44.2305 8.976V9.048C44.2305 9.752 44.3945 10.284 44.7225 10.644C45.0585 10.996 45.5425 11.172 46.1745 11.172C46.4145 11.172 46.6665 11.14 46.9305 11.076C47.2025 11.012 47.4585 10.904 47.6985 10.752C47.8345 10.672 47.9545 10.636 48.0585 10.644C48.1705 10.652 48.2585 10.688 48.3225 10.752C48.3945 10.816 48.4385 10.896 48.4545 10.992C48.4705 11.088 48.4545 11.188 48.4065 11.292C48.3585 11.388 48.2745 11.476 48.1545 11.556C47.8825 11.74 47.5665 11.88 47.2065 11.976C46.8465 12.064 46.4985 12.108 46.1625 12.108Z" fill="#64728C"/>
</svg>
