<svg width="210" height="75" viewBox="0 0 210 75" fill="none" xmlns="http://www.w3.org/2000/svg">
<g filter="url(#filter0_d_622_8021)">
<rect x="5" y="21" width="200" height="45" rx="12" fill="white" shape-rendering="crispEdges"/>
<rect x="5.5" y="21.5" width="199" height="44" rx="11.5" stroke="#64728C" shape-rendering="crispEdges"/>
<path d="M52.0846 43.852C52.0846 44.172 52.0952 44.5613 52.1166 45.02C52.1379 45.468 52.2019 45.9053 52.3086 46.332C52.4259 46.748 52.6072 47.1053 52.8526 47.404C53.0979 47.7027 53.4499 47.852 53.9086 47.852C54.3779 47.852 54.7352 47.7027 54.9806 47.404C55.2366 47.1053 55.4179 46.748 55.5246 46.332C55.6419 45.9053 55.7112 45.468 55.7326 45.02C55.7539 44.5613 55.7646 44.172 55.7646 43.852C55.7646 43.66 55.7592 43.4307 55.7486 43.164C55.7486 42.8867 55.7272 42.604 55.6846 42.316C55.6526 42.028 55.5992 41.7453 55.5246 41.468C55.4606 41.18 55.3592 40.924 55.2206 40.7C55.0819 40.476 54.9059 40.2947 54.6926 40.156C54.4792 40.0173 54.2179 39.948 53.9086 39.948C53.5992 39.948 53.3379 40.0173 53.1246 40.156C52.9219 40.2947 52.7512 40.476 52.6126 40.7C52.4846 40.924 52.3832 41.18 52.3086 41.468C52.2339 41.7453 52.1806 42.028 52.1486 42.316C52.1166 42.604 52.0952 42.8867 52.0846 43.164C52.0846 43.4307 52.0846 43.66 52.0846 43.852ZM49.8126 43.852C49.8126 42.764 49.9192 41.852 50.1326 41.116C50.3566 40.3693 50.6552 39.772 51.0286 39.324C51.4019 38.876 51.8339 38.556 52.3246 38.364C52.8259 38.172 53.3539 38.076 53.9086 38.076C54.4739 38.076 55.0019 38.172 55.4926 38.364C55.9939 38.556 56.4312 38.876 56.8046 39.324C57.1886 39.772 57.4872 40.3693 57.7006 41.116C57.9246 41.852 58.0366 42.764 58.0366 43.852C58.0366 44.972 57.9246 45.9107 57.7006 46.668C57.4872 47.4147 57.1886 48.012 56.8046 48.46C56.4312 48.908 55.9939 49.228 55.4926 49.42C55.0019 49.612 54.4739 49.708 53.9086 49.708C53.3539 49.708 52.8259 49.612 52.3246 49.42C51.8339 49.228 51.4019 48.908 51.0286 48.46C50.6552 48.012 50.3566 47.4147 50.1326 46.668C49.9192 45.9107 49.8126 44.972 49.8126 43.852ZM62.6872 44.108C62.9965 44.108 63.2632 44.0547 63.4872 43.948C63.7112 43.8307 63.8979 43.676 64.0472 43.484C64.1965 43.292 64.3085 43.0733 64.3832 42.828C64.4579 42.572 64.4952 42.3053 64.4952 42.028C64.4952 41.772 64.4525 41.5213 64.3672 41.276C64.2925 41.02 64.1752 40.796 64.0152 40.604C63.8659 40.4013 63.6792 40.2413 63.4552 40.124C63.2312 40.0067 62.9752 39.948 62.6872 39.948C62.4205 39.948 62.1805 40.0067 61.9672 40.124C61.7539 40.2413 61.5725 40.396 61.4232 40.588C61.2739 40.78 61.1619 40.9987 61.0872 41.244C61.0125 41.4893 60.9752 41.74 60.9752 41.996C60.9752 42.2627 61.0072 42.524 61.0712 42.78C61.1459 43.0253 61.2525 43.2493 61.3912 43.452C61.5299 43.644 61.7059 43.804 61.9192 43.932C62.1432 44.0493 62.3992 44.108 62.6872 44.108ZM61.0552 46.62C61.1299 46.9933 61.3005 47.3187 61.5672 47.596C61.8339 47.8733 62.1645 48.012 62.5592 48.012C62.9752 48.012 63.3165 47.8947 63.5832 47.66C63.8499 47.4147 64.0632 47.1213 64.2232 46.78C64.3832 46.428 64.4952 46.0547 64.5592 45.66C64.6339 45.2653 64.6819 44.9133 64.7032 44.604L64.6712 44.572C64.3619 45.02 63.9992 45.34 63.5832 45.532C63.1672 45.724 62.6872 45.82 62.1432 45.82C61.6632 45.82 61.1939 45.7187 60.7352 45.516C60.2765 45.3027 59.8872 45.02 59.5672 44.668C59.2685 44.3267 59.0499 43.9373 58.9112 43.5C58.7725 43.0627 58.7032 42.62 58.7032 42.172C58.7032 41.596 58.7939 41.0627 58.9752 40.572C59.1672 40.0707 59.4339 39.6387 59.7752 39.276C60.1272 38.9027 60.5432 38.6093 61.0232 38.396C61.5032 38.1827 62.0365 38.076 62.6232 38.076C63.4765 38.076 64.1752 38.2467 64.7192 38.588C65.2739 38.9187 65.7165 39.3613 66.0472 39.916C66.3779 40.46 66.6072 41.0787 66.7352 41.772C66.8632 42.4653 66.9272 43.164 66.9272 43.868C66.9272 44.5613 66.8472 45.2547 66.6872 45.948C66.5272 46.6413 66.2712 47.2707 65.9192 47.836C65.5672 48.3907 65.1139 48.844 64.5592 49.196C64.0045 49.5373 63.3272 49.708 62.5272 49.708C62.0472 49.708 61.5992 49.6387 61.1832 49.5C60.7672 49.372 60.3992 49.1747 60.0792 48.908C59.7592 48.6413 59.4979 48.316 59.2952 47.932C59.0925 47.548 58.9592 47.1107 58.8952 46.62H61.0552ZM75.1989 43.836H72.6869V41.372H75.1989V43.836ZM72.6869 47.036H75.1989V49.5H72.6869V47.036ZM81.2092 42.604C81.1879 41.964 81.2625 41.372 81.4332 40.828C81.6039 40.2733 81.8599 39.7933 82.2012 39.388C82.5425 38.972 82.9692 38.652 83.4812 38.428C84.0039 38.1933 84.6012 38.076 85.2732 38.076C85.7852 38.076 86.2705 38.156 86.7292 38.316C87.1985 38.476 87.6092 38.7053 87.9612 39.004C88.3132 39.3027 88.5905 39.6707 88.7932 40.108C89.0065 40.5453 89.1132 41.036 89.1132 41.58C89.1132 42.1453 89.0225 42.6307 88.8412 43.036C88.6599 43.4413 88.4199 43.804 88.1212 44.124C87.8225 44.4333 87.4812 44.716 87.0972 44.972C86.7239 45.228 86.3452 45.484 85.9612 45.74C85.5772 45.9853 85.2039 46.252 84.8412 46.54C84.4785 46.828 84.1585 47.164 83.8812 47.548H89.1772V49.5H80.9532C80.9532 48.8493 81.0439 48.284 81.2252 47.804C81.4172 47.324 81.6732 46.8973 81.9932 46.524C82.3132 46.14 82.6865 45.788 83.1132 45.468C83.5505 45.148 84.0092 44.8227 84.4892 44.492C84.7345 44.3213 84.9959 44.1507 85.2732 43.98C85.5505 43.7987 85.8012 43.6013 86.0252 43.388C86.2599 43.1747 86.4519 42.9347 86.6012 42.668C86.7612 42.4013 86.8412 42.0973 86.8412 41.756C86.8412 41.212 86.6812 40.7907 86.3612 40.492C86.0519 40.1827 85.6519 40.028 85.1612 40.028C84.8305 40.028 84.5479 40.108 84.3132 40.268C84.0892 40.4173 83.9079 40.62 83.7692 40.876C83.6305 41.1213 83.5292 41.3987 83.4652 41.708C83.4119 42.0067 83.3852 42.3053 83.3852 42.604H81.2092ZM97.5078 40.172H92.8838L92.4358 42.716L92.4678 42.748C92.7771 42.4387 93.1078 42.22 93.4598 42.092C93.8118 41.9533 94.2118 41.884 94.6598 41.884C95.2145 41.884 95.7051 41.9853 96.1318 42.188C96.5585 42.3907 96.9158 42.6627 97.2038 43.004C97.5025 43.3453 97.7265 43.7507 97.8758 44.22C98.0358 44.6787 98.1158 45.1693 98.1158 45.692C98.1158 46.268 98.0038 46.8067 97.7798 47.308C97.5558 47.7987 97.2518 48.2253 96.8678 48.588C96.4945 48.9507 96.0571 49.2333 95.5558 49.436C95.0545 49.628 94.5211 49.7187 93.9558 49.708C93.4118 49.708 92.8891 49.6387 92.3878 49.5C91.8971 49.3507 91.4598 49.1267 91.0758 48.828C90.6918 48.5293 90.3825 48.1613 90.1478 47.724C89.9238 47.276 89.8065 46.7587 89.7958 46.172H92.0678C92.1211 46.684 92.3131 47.0947 92.6438 47.404C92.9745 47.7027 93.3958 47.852 93.9078 47.852C94.2065 47.852 94.4731 47.7933 94.7078 47.676C94.9531 47.548 95.1558 47.388 95.3158 47.196C95.4865 46.9933 95.6145 46.764 95.6998 46.508C95.7958 46.2413 95.8438 45.9693 95.8438 45.692C95.8438 45.404 95.8011 45.132 95.7158 44.876C95.6305 44.62 95.5025 44.396 95.3318 44.204C95.1611 44.012 94.9585 43.8627 94.7238 43.756C94.4891 43.6493 94.2171 43.596 93.9078 43.596C93.5025 43.596 93.1718 43.6707 92.9158 43.82C92.6598 43.9587 92.4198 44.1827 92.1958 44.492H90.1478L91.2518 38.3H97.5078V40.172ZM110.073 45.02H114.569L112.361 39.164L110.073 45.02ZM111.801 38.076H113.017L117.497 49.5H116.329L114.937 45.948H109.737L108.361 49.5H107.209L111.801 38.076ZM120.103 38.076L123.895 48.092L127.831 38.076H129.431V49.5H128.343V39.628H128.311L124.407 49.5H123.383L119.623 39.628H119.591V49.5H118.503V38.076H120.103Z" fill="#64728C"/>
<rect x="165" y="25.5" width="36" height="36" rx="12" fill="#64728C" fill-opacity="0.12"/>
<path d="M183 50.5C186.866 50.5 190 47.366 190 43.5C190 39.634 186.866 36.5 183 36.5C179.134 36.5 176 39.634 176 43.5C176 47.366 179.134 50.5 183 50.5Z" stroke="#64728C" stroke-width="2" stroke-linecap="round" stroke-linejoin="round"/>
<path d="M183 39.8762V44.9405L185.8 46.6286" stroke="#64728C" stroke-width="2" stroke-linecap="round" stroke-linejoin="round"/>
</g>
<path d="M8.804 12.108C8.436 12.108 8.076 12.08 7.724 12.024C7.372 11.968 7.04 11.884 6.728 11.772C6.416 11.652 6.136 11.508 5.888 11.34C5.768 11.252 5.684 11.152 5.636 11.04C5.596 10.928 5.584 10.82 5.6 10.716C5.624 10.604 5.672 10.508 5.744 10.428C5.816 10.348 5.904 10.3 6.008 10.284C6.112 10.26 6.228 10.292 6.356 10.38C6.716 10.612 7.096 10.784 7.496 10.896C7.896 11 8.332 11.052 8.804 11.052C9.484 11.052 9.984 10.932 10.304 10.692C10.632 10.444 10.796 10.124 10.796 9.732C10.796 9.412 10.68 9.16 10.448 8.976C10.216 8.784 9.828 8.632 9.284 8.52L8 8.256C7.24 8.096 6.672 7.832 6.296 7.464C5.928 7.096 5.744 6.6 5.744 5.976C5.744 5.6 5.82 5.256 5.972 4.944C6.132 4.632 6.352 4.364 6.632 4.14C6.912 3.908 7.248 3.732 7.64 3.612C8.032 3.492 8.46 3.432 8.924 3.432C9.42 3.432 9.884 3.496 10.316 3.624C10.756 3.752 11.148 3.948 11.492 4.212C11.596 4.284 11.664 4.376 11.696 4.488C11.736 4.592 11.744 4.696 11.72 4.8C11.704 4.904 11.66 4.992 11.588 5.064C11.516 5.136 11.424 5.18 11.312 5.196C11.2 5.204 11.076 5.164 10.94 5.076C10.628 4.868 10.308 4.72 9.98 4.632C9.66 4.536 9.304 4.488 8.912 4.488C8.52 4.488 8.176 4.548 7.88 4.668C7.592 4.788 7.368 4.956 7.208 5.172C7.056 5.388 6.98 5.644 6.98 5.94C6.98 6.276 7.088 6.544 7.304 6.744C7.52 6.944 7.88 7.096 8.384 7.2L9.656 7.464C10.456 7.632 11.052 7.892 11.444 8.244C11.836 8.596 12.032 9.064 12.032 9.648C12.032 10.024 11.956 10.364 11.804 10.668C11.652 10.964 11.436 11.22 11.156 11.436C10.876 11.652 10.536 11.82 10.136 11.94C9.744 12.052 9.3 12.108 8.804 12.108ZM16.0648 12.108C15.4248 12.108 14.8728 11.988 14.4088 11.748C13.9528 11.5 13.5968 11.152 13.3408 10.704C13.0928 10.248 12.9688 9.708 12.9688 9.084C12.9688 8.476 13.0928 7.944 13.3408 7.488C13.5888 7.032 13.9288 6.676 14.3608 6.42C14.7928 6.164 15.2848 6.036 15.8368 6.036C16.2448 6.036 16.6088 6.104 16.9288 6.24C17.2488 6.368 17.5208 6.56 17.7448 6.816C17.9768 7.064 18.1488 7.368 18.2608 7.728C18.3808 8.088 18.4408 8.492 18.4408 8.94C18.4408 9.076 18.4008 9.18 18.3208 9.252C18.2408 9.316 18.1208 9.348 17.9608 9.348H13.9288V8.604H17.6248L17.4208 8.772C17.4208 8.372 17.3608 8.032 17.2408 7.752C17.1288 7.472 16.9568 7.26 16.7248 7.116C16.5008 6.964 16.2208 6.888 15.8848 6.888C15.5088 6.888 15.1888 6.976 14.9248 7.152C14.6688 7.328 14.4728 7.572 14.3368 7.884C14.2008 8.196 14.1328 8.56 14.1328 8.976V9.048C14.1328 9.752 14.2968 10.284 14.6248 10.644C14.9608 10.996 15.4448 11.172 16.0768 11.172C16.3168 11.172 16.5688 11.14 16.8328 11.076C17.1048 11.012 17.3608 10.904 17.6008 10.752C17.7368 10.672 17.8568 10.636 17.9608 10.644C18.0728 10.652 18.1608 10.688 18.2248 10.752C18.2968 10.816 18.3408 10.896 18.3568 10.992C18.3728 11.088 18.3568 11.188 18.3088 11.292C18.2608 11.388 18.1768 11.476 18.0568 11.556C17.7848 11.74 17.4688 11.88 17.1088 11.976C16.7488 12.064 16.4008 12.108 16.0648 12.108ZM22.2464 12.108C21.7664 12.108 21.3624 12.024 21.0344 11.856C20.7064 11.688 20.4624 11.44 20.3024 11.112C20.1424 10.784 20.0624 10.384 20.0624 9.912V7.08H19.3424C19.1824 7.08 19.0584 7.04 18.9704 6.96C18.8824 6.872 18.8384 6.756 18.8384 6.612C18.8384 6.46 18.8824 6.344 18.9704 6.264C19.0584 6.184 19.1824 6.144 19.3424 6.144H20.0624V4.908C20.0624 4.708 20.1144 4.556 20.2184 4.452C20.3304 4.348 20.4824 4.296 20.6744 4.296C20.8664 4.296 21.0144 4.348 21.1184 4.452C21.2224 4.556 21.2744 4.708 21.2744 4.908V6.144H22.6784C22.8384 6.144 22.9624 6.184 23.0504 6.264C23.1384 6.344 23.1824 6.46 23.1824 6.612C23.1824 6.756 23.1384 6.872 23.0504 6.96C22.9624 7.04 22.8384 7.08 22.6784 7.08H21.2744V9.816C21.2744 10.24 21.3624 10.56 21.5384 10.776C21.7224 10.992 22.0184 11.1 22.4264 11.1C22.5704 11.1 22.6944 11.088 22.7984 11.064C22.9104 11.032 23.0024 11.012 23.0744 11.004C23.1624 11.004 23.2344 11.036 23.2904 11.1C23.3464 11.156 23.3744 11.268 23.3744 11.436C23.3744 11.556 23.3504 11.668 23.3024 11.772C23.2624 11.876 23.1864 11.944 23.0744 11.976C22.9784 12.008 22.8464 12.036 22.6784 12.06C22.5184 12.092 22.3744 12.108 22.2464 12.108ZM30.1173 12.084C29.9173 12.084 29.7613 12.028 29.6493 11.916C29.5453 11.804 29.4933 11.648 29.4933 11.448V4.584H26.9493C26.7813 4.584 26.6493 4.54 26.5533 4.452C26.4573 4.356 26.4093 4.224 26.4093 4.056C26.4093 3.888 26.4573 3.76 26.5533 3.672C26.6493 3.584 26.7813 3.54 26.9493 3.54H33.2733C33.4493 3.54 33.5853 3.584 33.6813 3.672C33.7773 3.76 33.8253 3.888 33.8253 4.056C33.8253 4.224 33.7773 4.356 33.6813 4.452C33.5853 4.54 33.4493 4.584 33.2733 4.584H30.7293V11.448C30.7293 11.648 30.6773 11.804 30.5733 11.916C30.4773 12.028 30.3253 12.084 30.1173 12.084ZM35.702 12.072C35.51 12.072 35.362 12.016 35.258 11.904C35.154 11.784 35.102 11.62 35.102 11.412V6.732C35.102 6.524 35.154 6.364 35.258 6.252C35.362 6.14 35.51 6.084 35.702 6.084C35.894 6.084 36.042 6.14 36.146 6.252C36.258 6.364 36.314 6.524 36.314 6.732V11.412C36.314 11.62 36.262 11.784 36.158 11.904C36.054 12.016 35.902 12.072 35.702 12.072ZM35.702 4.836C35.462 4.836 35.274 4.776 35.138 4.656C35.01 4.536 34.946 4.368 34.946 4.152C34.946 3.928 35.01 3.76 35.138 3.648C35.274 3.528 35.462 3.468 35.702 3.468C35.942 3.468 36.126 3.528 36.254 3.648C36.39 3.76 36.458 3.928 36.458 4.152C36.458 4.368 36.39 4.536 36.254 4.656C36.126 4.776 35.942 4.836 35.702 4.836ZM38.644 12.084C38.452 12.084 38.304 12.032 38.2 11.928C38.096 11.816 38.044 11.664 38.044 11.472V6.672C38.044 6.472 38.096 6.32 38.2 6.216C38.304 6.112 38.448 6.06 38.632 6.06C38.824 6.06 38.968 6.112 39.064 6.216C39.168 6.32 39.22 6.472 39.22 6.672V7.656L39.088 7.392C39.248 6.968 39.496 6.636 39.832 6.396C40.168 6.156 40.572 6.036 41.044 6.036C41.532 6.036 41.928 6.152 42.232 6.384C42.536 6.616 42.744 6.972 42.856 7.452H42.688C42.84 7.012 43.1 6.668 43.468 6.42C43.836 6.164 44.264 6.036 44.752 6.036C45.2 6.036 45.568 6.124 45.856 6.3C46.144 6.468 46.36 6.728 46.504 7.08C46.648 7.424 46.72 7.86 46.72 8.388V11.472C46.72 11.664 46.664 11.816 46.552 11.928C46.448 12.032 46.3 12.084 46.108 12.084C45.916 12.084 45.768 12.032 45.664 11.928C45.56 11.816 45.508 11.664 45.508 11.472V8.448C45.508 7.952 45.42 7.588 45.244 7.356C45.076 7.124 44.796 7.008 44.404 7.008C43.964 7.008 43.616 7.16 43.36 7.464C43.104 7.768 42.976 8.188 42.976 8.724V11.472C42.976 11.664 42.924 11.816 42.82 11.928C42.716 12.032 42.568 12.084 42.376 12.084C42.184 12.084 42.032 12.032 41.92 11.928C41.816 11.816 41.764 11.664 41.764 11.472V8.448C41.764 7.952 41.68 7.588 41.512 7.356C41.344 7.124 41.064 7.008 40.672 7.008C40.232 7.008 39.884 7.16 39.628 7.464C39.38 7.768 39.256 8.188 39.256 8.724V11.472C39.256 11.88 39.052 12.084 38.644 12.084ZM51.1625 12.108C50.5225 12.108 49.9705 11.988 49.5065 11.748C49.0505 11.5 48.6945 11.152 48.4385 10.704C48.1905 10.248 48.0665 9.708 48.0665 9.084C48.0665 8.476 48.1905 7.944 48.4385 7.488C48.6865 7.032 49.0265 6.676 49.4585 6.42C49.8905 6.164 50.3825 6.036 50.9345 6.036C51.3425 6.036 51.7065 6.104 52.0265 6.24C52.3465 6.368 52.6185 6.56 52.8425 6.816C53.0745 7.064 53.2465 7.368 53.3585 7.728C53.4785 8.088 53.5385 8.492 53.5385 8.94C53.5385 9.076 53.4985 9.18 53.4185 9.252C53.3385 9.316 53.2185 9.348 53.0585 9.348H49.0265V8.604H52.7225L52.5185 8.772C52.5185 8.372 52.4585 8.032 52.3385 7.752C52.2265 7.472 52.0545 7.26 51.8225 7.116C51.5985 6.964 51.3185 6.888 50.9825 6.888C50.6065 6.888 50.2865 6.976 50.0225 7.152C49.7665 7.328 49.5705 7.572 49.4345 7.884C49.2985 8.196 49.2305 8.56 49.2305 8.976V9.048C49.2305 9.752 49.3945 10.284 49.7225 10.644C50.0585 10.996 50.5425 11.172 51.1745 11.172C51.4145 11.172 51.6665 11.14 51.9305 11.076C52.2025 11.012 52.4585 10.904 52.6985 10.752C52.8345 10.672 52.9545 10.636 53.0585 10.644C53.1705 10.652 53.2585 10.688 53.3225 10.752C53.3945 10.816 53.4385 10.896 53.4545 10.992C53.4705 11.088 53.4545 11.188 53.4065 11.292C53.3585 11.388 53.2745 11.476 53.1545 11.556C52.8825 11.74 52.5665 11.88 52.2065 11.976C51.8465 12.064 51.4985 12.108 51.1625 12.108Z" fill="#64728C"/>
<defs>
<filter id="filter0_d_622_8021" x="0" y="20" width="210" height="55" filterUnits="userSpaceOnUse" color-interpolation-filters="sRGB">
<feFlood flood-opacity="0" result="BackgroundImageFix"/>
<feColorMatrix in="SourceAlpha" type="matrix" values="0 0 0 0 0 0 0 0 0 0 0 0 0 0 0 0 0 0 127 0" result="hardAlpha"/>
<feOffset dy="4"/>
<feGaussianBlur stdDeviation="2.5"/>
<feComposite in2="hardAlpha" operator="out"/>
<feColorMatrix type="matrix" values="0 0 0 0 0.392157 0 0 0 0 0.447059 0 0 0 0 0.54902 0 0 0 0.15 0"/>
<feBlend mode="normal" in2="BackgroundImageFix" result="effect1_dropShadow_622_8021"/>
<feBlend mode="normal" in="SourceGraphic" in2="effect1_dropShadow_622_8021" result="shape"/>
</filter>
</defs>
</svg>
