<svg width="200" height="66" viewBox="0 0 200 66" fill="none" xmlns="http://www.w3.org/2000/svg">
<rect x="0.5" y="21.5" width="199" height="44" rx="11.5" fill="#64728C" fill-opacity="0.1"/>
<rect x="0.5" y="21.5" width="199" height="44" rx="11.5" stroke="#E8EAEF"/>
<path d="M66.7643 43.852C66.7643 44.172 66.7749 44.5613 66.7963 45.02C66.8176 45.468 66.8816 45.9053 66.9883 46.332C67.1056 46.748 67.2869 47.1053 67.5323 47.404C67.7776 47.7027 68.1296 47.852 68.5883 47.852C69.0576 47.852 69.4149 47.7027 69.6603 47.404C69.9163 47.1053 70.0976 46.748 70.2043 46.332C70.3216 45.9053 70.3909 45.468 70.4123 45.02C70.4336 44.5613 70.4443 44.172 70.4443 43.852C70.4443 43.66 70.4389 43.4307 70.4283 43.164C70.4283 42.8867 70.4069 42.604 70.3643 42.316C70.3323 42.028 70.2789 41.7453 70.2043 41.468C70.1403 41.18 70.0389 40.924 69.9003 40.7C69.7616 40.476 69.5856 40.2947 69.3723 40.156C69.1589 40.0173 68.8976 39.948 68.5883 39.948C68.2789 39.948 68.0176 40.0173 67.8043 40.156C67.6016 40.2947 67.4309 40.476 67.2923 40.7C67.1643 40.924 67.0629 41.18 66.9883 41.468C66.9136 41.7453 66.8603 42.028 66.8283 42.316C66.7963 42.604 66.7749 42.8867 66.7643 43.164C66.7643 43.4307 66.7643 43.66 66.7643 43.852ZM64.4923 43.852C64.4923 42.764 64.5989 41.852 64.8123 41.116C65.0363 40.3693 65.3349 39.772 65.7083 39.324C66.0816 38.876 66.5136 38.556 67.0043 38.364C67.5056 38.172 68.0336 38.076 68.5883 38.076C69.1536 38.076 69.6816 38.172 70.1723 38.364C70.6736 38.556 71.1109 38.876 71.4843 39.324C71.8683 39.772 72.1669 40.3693 72.3802 41.116C72.6043 41.852 72.7163 42.764 72.7163 43.852C72.7163 44.972 72.6043 45.9107 72.3802 46.668C72.1669 47.4147 71.8683 48.012 71.4843 48.46C71.1109 48.908 70.6736 49.228 70.1723 49.42C69.6816 49.612 69.1536 49.708 68.5883 49.708C68.0336 49.708 67.5056 49.612 67.0043 49.42C66.5136 49.228 66.0816 48.908 65.7083 48.46C65.3349 48.012 65.0363 47.4147 64.8123 46.668C64.5989 45.9107 64.4923 44.972 64.4923 43.852ZM77.3669 44.108C77.6762 44.108 77.9429 44.0547 78.1669 43.948C78.3909 43.8307 78.5775 43.676 78.7269 43.484C78.8762 43.292 78.9882 43.0733 79.0629 42.828C79.1375 42.572 79.1749 42.3053 79.1749 42.028C79.1749 41.772 79.1322 41.5213 79.0469 41.276C78.9722 41.02 78.8549 40.796 78.6949 40.604C78.5455 40.4013 78.3589 40.2413 78.1349 40.124C77.9109 40.0067 77.6549 39.948 77.3669 39.948C77.1002 39.948 76.8602 40.0067 76.6469 40.124C76.4335 40.2413 76.2522 40.396 76.1029 40.588C75.9535 40.78 75.8415 40.9987 75.7669 41.244C75.6922 41.4893 75.6549 41.74 75.6549 41.996C75.6549 42.2627 75.6869 42.524 75.7509 42.78C75.8255 43.0253 75.9322 43.2493 76.0709 43.452C76.2095 43.644 76.3855 43.804 76.5989 43.932C76.8229 44.0493 77.0789 44.108 77.3669 44.108ZM75.7349 46.62C75.8095 46.9933 75.9802 47.3187 76.2469 47.596C76.5135 47.8733 76.8442 48.012 77.2389 48.012C77.6549 48.012 77.9962 47.8947 78.2629 47.66C78.5295 47.4147 78.7429 47.1213 78.9029 46.78C79.0629 46.428 79.1749 46.0547 79.2389 45.66C79.3135 45.2653 79.3615 44.9133 79.3829 44.604L79.3509 44.572C79.0415 45.02 78.6789 45.34 78.2629 45.532C77.8469 45.724 77.3669 45.82 76.8229 45.82C76.3429 45.82 75.8735 45.7187 75.4149 45.516C74.9562 45.3027 74.5669 45.02 74.2469 44.668C73.9482 44.3267 73.7295 43.9373 73.5909 43.5C73.4522 43.0627 73.3829 42.62 73.3829 42.172C73.3829 41.596 73.4735 41.0627 73.6549 40.572C73.8469 40.0707 74.1135 39.6387 74.4549 39.276C74.8069 38.9027 75.2229 38.6093 75.7029 38.396C76.1829 38.1827 76.7162 38.076 77.3029 38.076C78.1562 38.076 78.8549 38.2467 79.3989 38.588C79.9535 38.9187 80.3962 39.3613 80.7269 39.916C81.0575 40.46 81.2869 41.0787 81.4149 41.772C81.5429 42.4653 81.6069 43.164 81.6069 43.868C81.6069 44.5613 81.5269 45.2547 81.3669 45.948C81.2069 46.6413 80.9509 47.2707 80.5989 47.836C80.2469 48.3907 79.7935 48.844 79.2389 49.196C78.6842 49.5373 78.0069 49.708 77.2069 49.708C76.7269 49.708 76.2789 49.6387 75.8629 49.5C75.4469 49.372 75.0789 49.1747 74.7589 48.908C74.4389 48.6413 74.1775 48.316 73.9749 47.932C73.7722 47.548 73.6389 47.1107 73.5749 46.62H75.7349ZM89.8786 43.836H87.3666V41.372H89.8786V43.836ZM87.3666 47.036H89.8786V49.5H87.3666V47.036ZM95.8889 42.604C95.8675 41.964 95.9422 41.372 96.1129 40.828C96.2835 40.2733 96.5395 39.7933 96.8809 39.388C97.2222 38.972 97.6489 38.652 98.1609 38.428C98.6835 38.1933 99.2809 38.076 99.9529 38.076C100.465 38.076 100.95 38.156 101.409 38.316C101.878 38.476 102.289 38.7053 102.641 39.004C102.993 39.3027 103.27 39.6707 103.473 40.108C103.686 40.5453 103.793 41.036 103.793 41.58C103.793 42.1453 103.702 42.6307 103.521 43.036C103.34 43.4413 103.1 43.804 102.801 44.124C102.502 44.4333 102.161 44.716 101.777 44.972C101.404 45.228 101.025 45.484 100.641 45.74C100.257 45.9853 99.8835 46.252 99.5209 46.54C99.1582 46.828 98.8382 47.164 98.5609 47.548H103.857V49.5H95.6329C95.6329 48.8493 95.7235 48.284 95.9049 47.804C96.0969 47.324 96.3529 46.8973 96.6729 46.524C96.9929 46.14 97.3662 45.788 97.7929 45.468C98.2302 45.148 98.6889 44.8227 99.1689 44.492C99.4142 44.3213 99.6755 44.1507 99.9529 43.98C100.23 43.7987 100.481 43.6013 100.705 43.388C100.94 43.1747 101.132 42.9347 101.281 42.668C101.441 42.4013 101.521 42.0973 101.521 41.756C101.521 41.212 101.361 40.7907 101.041 40.492C100.732 40.1827 100.332 40.028 99.8409 40.028C99.5102 40.028 99.2275 40.108 98.9929 40.268C98.7689 40.4173 98.5875 40.62 98.4489 40.876C98.3102 41.1213 98.2089 41.3987 98.1449 41.708C98.0915 42.0067 98.0649 42.3053 98.0649 42.604H95.8889ZM112.188 40.172H107.564L107.116 42.716L107.148 42.748C107.457 42.4387 107.788 42.22 108.14 42.092C108.492 41.9533 108.892 41.884 109.34 41.884C109.894 41.884 110.385 41.9853 110.812 42.188C111.238 42.3907 111.596 42.6627 111.884 43.004C112.182 43.3453 112.406 43.7507 112.556 44.22C112.716 44.6787 112.796 45.1693 112.796 45.692C112.796 46.268 112.684 46.8067 112.46 47.308C112.236 47.7987 111.932 48.2253 111.548 48.588C111.174 48.9507 110.737 49.2333 110.236 49.436C109.734 49.628 109.201 49.7187 108.636 49.708C108.092 49.708 107.569 49.6387 107.068 49.5C106.577 49.3507 106.14 49.1267 105.756 48.828C105.372 48.5293 105.062 48.1613 104.828 47.724C104.604 47.276 104.486 46.7587 104.476 46.172H106.748C106.801 46.684 106.993 47.0947 107.324 47.404C107.654 47.7027 108.076 47.852 108.588 47.852C108.886 47.852 109.153 47.7933 109.388 47.676C109.633 47.548 109.836 47.388 109.996 47.196C110.166 46.9933 110.294 46.764 110.38 46.508C110.476 46.2413 110.524 45.9693 110.524 45.692C110.524 45.404 110.481 45.132 110.396 44.876C110.31 44.62 110.182 44.396 110.012 44.204C109.841 44.012 109.638 43.8627 109.404 43.756C109.169 43.6493 108.897 43.596 108.588 43.596C108.182 43.596 107.852 43.6707 107.596 43.82C107.34 43.9587 107.1 44.1827 106.876 44.492H104.828L105.932 38.3H112.188V40.172ZM120.747 44.78H124.619L122.715 39.452H122.683L120.747 44.78ZM121.883 38.076H123.563L128.027 49.5H126.347L125.099 46.06H120.267L118.987 49.5H117.435L121.883 38.076ZM129.186 38.076H131.266L134.866 47.676L138.482 38.076H140.562V49.5H139.122V39.996H139.09L135.522 49.5H134.226L130.658 39.996H130.626V49.5H129.186V38.076Z" fill="#64728C"/>
<path d="M3.804 12.108C3.436 12.108 3.076 12.08 2.724 12.024C2.372 11.968 2.04 11.884 1.728 11.772C1.416 11.652 1.136 11.508 0.888 11.34C0.768 11.252 0.684 11.152 0.636 11.04C0.596 10.928 0.584 10.82 0.6 10.716C0.624 10.604 0.672 10.508 0.744 10.428C0.816 10.348 0.904 10.3 1.008 10.284C1.112 10.26 1.228 10.292 1.356 10.38C1.716 10.612 2.096 10.784 2.496 10.896C2.896 11 3.332 11.052 3.804 11.052C4.484 11.052 4.984 10.932 5.304 10.692C5.632 10.444 5.796 10.124 5.796 9.732C5.796 9.412 5.68 9.16 5.448 8.976C5.216 8.784 4.828 8.632 4.284 8.52L3 8.256C2.24 8.096 1.672 7.832 1.296 7.464C0.928 7.096 0.744 6.6 0.744 5.976C0.744 5.6 0.82 5.256 0.972 4.944C1.132 4.632 1.352 4.364 1.632 4.14C1.912 3.908 2.248 3.732 2.64 3.612C3.032 3.492 3.46 3.432 3.924 3.432C4.42 3.432 4.884 3.496 5.316 3.624C5.756 3.752 6.148 3.948 6.492 4.212C6.596 4.284 6.664 4.376 6.696 4.488C6.736 4.592 6.744 4.696 6.72 4.8C6.704 4.904 6.66 4.992 6.588 5.064C6.516 5.136 6.424 5.18 6.312 5.196C6.2 5.204 6.076 5.164 5.94 5.076C5.628 4.868 5.308 4.72 4.98 4.632C4.66 4.536 4.304 4.488 3.912 4.488C3.52 4.488 3.176 4.548 2.88 4.668C2.592 4.788 2.368 4.956 2.208 5.172C2.056 5.388 1.98 5.644 1.98 5.94C1.98 6.276 2.088 6.544 2.304 6.744C2.52 6.944 2.88 7.096 3.384 7.2L4.656 7.464C5.456 7.632 6.052 7.892 6.444 8.244C6.836 8.596 7.032 9.064 7.032 9.648C7.032 10.024 6.956 10.364 6.804 10.668C6.652 10.964 6.436 11.22 6.156 11.436C5.876 11.652 5.536 11.82 5.136 11.94C4.744 12.052 4.3 12.108 3.804 12.108ZM11.0648 12.108C10.4248 12.108 9.87284 11.988 9.40884 11.748C8.95284 11.5 8.59684 11.152 8.34084 10.704C8.09284 10.248 7.96884 9.708 7.96884 9.084C7.96884 8.476 8.09284 7.944 8.34084 7.488C8.58884 7.032 8.92884 6.676 9.36084 6.42C9.79284 6.164 10.2848 6.036 10.8368 6.036C11.2448 6.036 11.6088 6.104 11.9288 6.24C12.2488 6.368 12.5208 6.56 12.7448 6.816C12.9768 7.064 13.1488 7.368 13.2608 7.728C13.3808 8.088 13.4408 8.492 13.4408 8.94C13.4408 9.076 13.4008 9.18 13.3208 9.252C13.2408 9.316 13.1208 9.348 12.9608 9.348H8.92884V8.604H12.6248L12.4208 8.772C12.4208 8.372 12.3608 8.032 12.2408 7.752C12.1288 7.472 11.9568 7.26 11.7248 7.116C11.5008 6.964 11.2208 6.888 10.8848 6.888C10.5088 6.888 10.1888 6.976 9.92484 7.152C9.66884 7.328 9.47284 7.572 9.33684 7.884C9.20084 8.196 9.13284 8.56 9.13284 8.976V9.048C9.13284 9.752 9.29684 10.284 9.62484 10.644C9.96084 10.996 10.4448 11.172 11.0768 11.172C11.3168 11.172 11.5688 11.14 11.8328 11.076C12.1048 11.012 12.3608 10.904 12.6008 10.752C12.7368 10.672 12.8568 10.636 12.9608 10.644C13.0728 10.652 13.1608 10.688 13.2248 10.752C13.2968 10.816 13.3408 10.896 13.3568 10.992C13.3728 11.088 13.3568 11.188 13.3088 11.292C13.2608 11.388 13.1768 11.476 13.0568 11.556C12.7848 11.74 12.4688 11.88 12.1088 11.976C11.7488 12.064 11.4008 12.108 11.0648 12.108ZM17.2464 12.108C16.7664 12.108 16.3624 12.024 16.0344 11.856C15.7064 11.688 15.4624 11.44 15.3024 11.112C15.1424 10.784 15.0624 10.384 15.0624 9.912V7.08H14.3424C14.1824 7.08 14.0584 7.04 13.9704 6.96C13.8824 6.872 13.8384 6.756 13.8384 6.612C13.8384 6.46 13.8824 6.344 13.9704 6.264C14.0584 6.184 14.1824 6.144 14.3424 6.144H15.0624V4.908C15.0624 4.708 15.1144 4.556 15.2184 4.452C15.3304 4.348 15.4824 4.296 15.6744 4.296C15.8664 4.296 16.0144 4.348 16.1184 4.452C16.2224 4.556 16.2744 4.708 16.2744 4.908V6.144H17.6784C17.8384 6.144 17.9624 6.184 18.0504 6.264C18.1384 6.344 18.1824 6.46 18.1824 6.612C18.1824 6.756 18.1384 6.872 18.0504 6.96C17.9624 7.04 17.8384 7.08 17.6784 7.08H16.2744V9.816C16.2744 10.24 16.3624 10.56 16.5384 10.776C16.7224 10.992 17.0184 11.1 17.4264 11.1C17.5704 11.1 17.6944 11.088 17.7984 11.064C17.9104 11.032 18.0024 11.012 18.0744 11.004C18.1624 11.004 18.2344 11.036 18.2904 11.1C18.3464 11.156 18.3744 11.268 18.3744 11.436C18.3744 11.556 18.3504 11.668 18.3024 11.772C18.2624 11.876 18.1864 11.944 18.0744 11.976C17.9784 12.008 17.8464 12.036 17.6784 12.06C17.5184 12.092 17.3744 12.108 17.2464 12.108ZM25.1173 12.084C24.9173 12.084 24.7613 12.028 24.6493 11.916C24.5453 11.804 24.4933 11.648 24.4933 11.448V4.584H21.9493C21.7813 4.584 21.6493 4.54 21.5533 4.452C21.4573 4.356 21.4093 4.224 21.4093 4.056C21.4093 3.888 21.4573 3.76 21.5533 3.672C21.6493 3.584 21.7813 3.54 21.9493 3.54H28.2733C28.4493 3.54 28.5853 3.584 28.6813 3.672C28.7773 3.76 28.8253 3.888 28.8253 4.056C28.8253 4.224 28.7773 4.356 28.6813 4.452C28.5853 4.54 28.4493 4.584 28.2733 4.584H25.7293V11.448C25.7293 11.648 25.6773 11.804 25.5733 11.916C25.4773 12.028 25.3253 12.084 25.1173 12.084ZM30.702 12.072C30.51 12.072 30.362 12.016 30.258 11.904C30.154 11.784 30.102 11.62 30.102 11.412V6.732C30.102 6.524 30.154 6.364 30.258 6.252C30.362 6.14 30.51 6.084 30.702 6.084C30.894 6.084 31.042 6.14 31.146 6.252C31.258 6.364 31.314 6.524 31.314 6.732V11.412C31.314 11.62 31.262 11.784 31.158 11.904C31.054 12.016 30.902 12.072 30.702 12.072ZM30.702 4.836C30.462 4.836 30.274 4.776 30.138 4.656C30.01 4.536 29.946 4.368 29.946 4.152C29.946 3.928 30.01 3.76 30.138 3.648C30.274 3.528 30.462 3.468 30.702 3.468C30.942 3.468 31.126 3.528 31.254 3.648C31.39 3.76 31.458 3.928 31.458 4.152C31.458 4.368 31.39 4.536 31.254 4.656C31.126 4.776 30.942 4.836 30.702 4.836ZM33.644 12.084C33.452 12.084 33.304 12.032 33.2 11.928C33.096 11.816 33.044 11.664 33.044 11.472V6.672C33.044 6.472 33.096 6.32 33.2 6.216C33.304 6.112 33.448 6.06 33.632 6.06C33.824 6.06 33.968 6.112 34.064 6.216C34.168 6.32 34.22 6.472 34.22 6.672V7.656L34.088 7.392C34.248 6.968 34.496 6.636 34.832 6.396C35.168 6.156 35.572 6.036 36.044 6.036C36.532 6.036 36.928 6.152 37.232 6.384C37.536 6.616 37.744 6.972 37.856 7.452H37.688C37.84 7.012 38.1 6.668 38.468 6.42C38.836 6.164 39.264 6.036 39.752 6.036C40.2 6.036 40.568 6.124 40.856 6.3C41.144 6.468 41.36 6.728 41.504 7.08C41.648 7.424 41.72 7.86 41.72 8.388V11.472C41.72 11.664 41.664 11.816 41.552 11.928C41.448 12.032 41.3 12.084 41.108 12.084C40.916 12.084 40.768 12.032 40.664 11.928C40.56 11.816 40.508 11.664 40.508 11.472V8.448C40.508 7.952 40.42 7.588 40.244 7.356C40.076 7.124 39.796 7.008 39.404 7.008C38.964 7.008 38.616 7.16 38.36 7.464C38.104 7.768 37.976 8.188 37.976 8.724V11.472C37.976 11.664 37.924 11.816 37.82 11.928C37.716 12.032 37.568 12.084 37.376 12.084C37.184 12.084 37.032 12.032 36.92 11.928C36.816 11.816 36.764 11.664 36.764 11.472V8.448C36.764 7.952 36.68 7.588 36.512 7.356C36.344 7.124 36.064 7.008 35.672 7.008C35.232 7.008 34.884 7.16 34.628 7.464C34.38 7.768 34.256 8.188 34.256 8.724V11.472C34.256 11.88 34.052 12.084 33.644 12.084ZM46.1625 12.108C45.5225 12.108 44.9705 11.988 44.5065 11.748C44.0505 11.5 43.6945 11.152 43.4385 10.704C43.1905 10.248 43.0665 9.708 43.0665 9.084C43.0665 8.476 43.1905 7.944 43.4385 7.488C43.6865 7.032 44.0265 6.676 44.4585 6.42C44.8905 6.164 45.3825 6.036 45.9345 6.036C46.3425 6.036 46.7065 6.104 47.0265 6.24C47.3465 6.368 47.6185 6.56 47.8425 6.816C48.0745 7.064 48.2465 7.368 48.3585 7.728C48.4785 8.088 48.5385 8.492 48.5385 8.94C48.5385 9.076 48.4985 9.18 48.4185 9.252C48.3385 9.316 48.2185 9.348 48.0585 9.348H44.0265V8.604H47.7225L47.5185 8.772C47.5185 8.372 47.4585 8.032 47.3385 7.752C47.2265 7.472 47.0545 7.26 46.8225 7.116C46.5985 6.964 46.3185 6.888 45.9825 6.888C45.6065 6.888 45.2865 6.976 45.0225 7.152C44.7665 7.328 44.5705 7.572 44.4345 7.884C44.2985 8.196 44.2305 8.56 44.2305 8.976V9.048C44.2305 9.752 44.3945 10.284 44.7225 10.644C45.0585 10.996 45.5425 11.172 46.1745 11.172C46.4145 11.172 46.6665 11.14 46.9305 11.076C47.2025 11.012 47.4585 10.904 47.6985 10.752C47.8345 10.672 47.9545 10.636 48.0585 10.644C48.1705 10.652 48.2585 10.688 48.3225 10.752C48.3945 10.816 48.4385 10.896 48.4545 10.992C48.4705 11.088 48.4545 11.188 48.4065 11.292C48.3585 11.388 48.2745 11.476 48.1545 11.556C47.8825 11.74 47.5665 11.88 47.2065 11.976C46.8465 12.064 46.4985 12.108 46.1625 12.108Z" fill="#64728C"/>
</svg>
