<svg width="210" height="75" viewBox="0 0 210 75" fill="none" xmlns="http://www.w3.org/2000/svg">
<g filter="url(#filter0_d_622_8034)">
<rect x="5" y="21" width="200" height="45" rx="12" fill="white" shape-rendering="crispEdges"/>
<rect x="5.5" y="21.5" width="199" height="44" rx="11.5" stroke="#EB0910" shape-rendering="crispEdges"/>
<path d="M68.1471 43.852C68.1471 44.172 68.1577 44.5613 68.1791 45.02C68.2004 45.468 68.2644 45.9053 68.3711 46.332C68.4884 46.748 68.6697 47.1053 68.9151 47.404C69.1604 47.7027 69.5124 47.852 69.9711 47.852C70.4404 47.852 70.7977 47.7027 71.0431 47.404C71.2991 47.1053 71.4804 46.748 71.5871 46.332C71.7044 45.9053 71.7737 45.468 71.7951 45.02C71.8164 44.5613 71.8271 44.172 71.8271 43.852C71.8271 43.66 71.8217 43.4307 71.8111 43.164C71.8111 42.8867 71.7897 42.604 71.7471 42.316C71.7151 42.028 71.6617 41.7453 71.5871 41.468C71.5231 41.18 71.4217 40.924 71.2831 40.7C71.1444 40.476 70.9684 40.2947 70.7551 40.156C70.5417 40.0173 70.2804 39.948 69.9711 39.948C69.6617 39.948 69.4004 40.0173 69.1871 40.156C68.9844 40.2947 68.8137 40.476 68.6751 40.7C68.5471 40.924 68.4457 41.18 68.3711 41.468C68.2964 41.7453 68.2431 42.028 68.2111 42.316C68.1791 42.604 68.1577 42.8867 68.1471 43.164C68.1471 43.4307 68.1471 43.66 68.1471 43.852ZM65.8751 43.852C65.8751 42.764 65.9817 41.852 66.1951 41.116C66.4191 40.3693 66.7177 39.772 67.0911 39.324C67.4644 38.876 67.8964 38.556 68.3871 38.364C68.8884 38.172 69.4164 38.076 69.9711 38.076C70.5364 38.076 71.0644 38.172 71.5551 38.364C72.0564 38.556 72.4937 38.876 72.8671 39.324C73.2511 39.772 73.5497 40.3693 73.7631 41.116C73.9871 41.852 74.0991 42.764 74.0991 43.852C74.0991 44.972 73.9871 45.9107 73.7631 46.668C73.5497 47.4147 73.2511 48.012 72.8671 48.46C72.4937 48.908 72.0564 49.228 71.5551 49.42C71.0644 49.612 70.5364 49.708 69.9711 49.708C69.4164 49.708 68.8884 49.612 68.3871 49.42C67.8964 49.228 67.4644 48.908 67.0911 48.46C66.7177 48.012 66.4191 47.4147 66.1951 46.668C65.9817 45.9107 65.8751 44.972 65.8751 43.852ZM78.7497 44.108C79.059 44.108 79.3257 44.0547 79.5497 43.948C79.7737 43.8307 79.9604 43.676 80.1097 43.484C80.259 43.292 80.371 43.0733 80.4457 42.828C80.5204 42.572 80.5577 42.3053 80.5577 42.028C80.5577 41.772 80.515 41.5213 80.4297 41.276C80.355 41.02 80.2377 40.796 80.0777 40.604C79.9284 40.4013 79.7417 40.2413 79.5177 40.124C79.2937 40.0067 79.0377 39.948 78.7497 39.948C78.483 39.948 78.243 40.0067 78.0297 40.124C77.8164 40.2413 77.635 40.396 77.4857 40.588C77.3364 40.78 77.2244 40.9987 77.1497 41.244C77.075 41.4893 77.0377 41.74 77.0377 41.996C77.0377 42.2627 77.0697 42.524 77.1337 42.78C77.2084 43.0253 77.315 43.2493 77.4537 43.452C77.5924 43.644 77.7684 43.804 77.9817 43.932C78.2057 44.0493 78.4617 44.108 78.7497 44.108ZM77.1177 46.62C77.1924 46.9933 77.363 47.3187 77.6297 47.596C77.8964 47.8733 78.227 48.012 78.6217 48.012C79.0377 48.012 79.379 47.8947 79.6457 47.66C79.9124 47.4147 80.1257 47.1213 80.2857 46.78C80.4457 46.428 80.5577 46.0547 80.6217 45.66C80.6964 45.2653 80.7444 44.9133 80.7657 44.604L80.7337 44.572C80.4244 45.02 80.0617 45.34 79.6457 45.532C79.2297 45.724 78.7497 45.82 78.2057 45.82C77.7257 45.82 77.2564 45.7187 76.7977 45.516C76.339 45.3027 75.9497 45.02 75.6297 44.668C75.331 44.3267 75.1124 43.9373 74.9737 43.5C74.835 43.0627 74.7657 42.62 74.7657 42.172C74.7657 41.596 74.8564 41.0627 75.0377 40.572C75.2297 40.0707 75.4964 39.6387 75.8377 39.276C76.1897 38.9027 76.6057 38.6093 77.0857 38.396C77.5657 38.1827 78.099 38.076 78.6857 38.076C79.539 38.076 80.2377 38.2467 80.7817 38.588C81.3364 38.9187 81.779 39.3613 82.1097 39.916C82.4404 40.46 82.6697 41.0787 82.7977 41.772C82.9257 42.4653 82.9897 43.164 82.9897 43.868C82.9897 44.5613 82.9097 45.2547 82.7497 45.948C82.5897 46.6413 82.3337 47.2707 81.9817 47.836C81.6297 48.3907 81.1764 48.844 80.6217 49.196C80.067 49.5373 79.3897 49.708 78.5897 49.708C78.1097 49.708 77.6617 49.6387 77.2457 49.5C76.8297 49.372 76.4617 49.1747 76.1417 48.908C75.8217 48.6413 75.5604 48.316 75.3577 47.932C75.155 47.548 75.0217 47.1107 74.9577 46.62H77.1177ZM91.2614 43.836H88.7494V41.372H91.2614V43.836ZM88.7494 47.036H91.2614V49.5H88.7494V47.036ZM97.2717 42.604C97.2504 41.964 97.325 41.372 97.4957 40.828C97.6664 40.2733 97.9224 39.7933 98.2637 39.388C98.605 38.972 99.0317 38.652 99.5437 38.428C100.066 38.1933 100.664 38.076 101.336 38.076C101.848 38.076 102.333 38.156 102.792 38.316C103.261 38.476 103.672 38.7053 104.024 39.004C104.376 39.3027 104.653 39.6707 104.856 40.108C105.069 40.5453 105.176 41.036 105.176 41.58C105.176 42.1453 105.085 42.6307 104.904 43.036C104.722 43.4413 104.482 43.804 104.184 44.124C103.885 44.4333 103.544 44.716 103.16 44.972C102.786 45.228 102.408 45.484 102.024 45.74C101.64 45.9853 101.266 46.252 100.904 46.54C100.541 46.828 100.221 47.164 99.9437 47.548H105.24V49.5H97.0157C97.0157 48.8493 97.1064 48.284 97.2877 47.804C97.4797 47.324 97.7357 46.8973 98.0557 46.524C98.3757 46.14 98.749 45.788 99.1757 45.468C99.613 45.148 100.072 44.8227 100.552 44.492C100.797 44.3213 101.058 44.1507 101.336 43.98C101.613 43.7987 101.864 43.6013 102.088 43.388C102.322 43.1747 102.514 42.9347 102.664 42.668C102.824 42.4013 102.904 42.0973 102.904 41.756C102.904 41.212 102.744 40.7907 102.424 40.492C102.114 40.1827 101.714 40.028 101.224 40.028C100.893 40.028 100.61 40.108 100.376 40.268C100.152 40.4173 99.9704 40.62 99.8317 40.876C99.693 41.1213 99.5917 41.3987 99.5277 41.708C99.4744 42.0067 99.4477 42.3053 99.4477 42.604H97.2717ZM113.57 40.172H108.946L108.498 42.716L108.53 42.748C108.84 42.4387 109.17 42.22 109.522 42.092C109.874 41.9533 110.274 41.884 110.722 41.884C111.277 41.884 111.768 41.9853 112.194 42.188C112.621 42.3907 112.978 42.6627 113.266 43.004C113.565 43.3453 113.789 43.7507 113.938 44.22C114.098 44.6787 114.178 45.1693 114.178 45.692C114.178 46.268 114.066 46.8067 113.842 47.308C113.618 47.7987 113.314 48.2253 112.93 48.588C112.557 48.9507 112.12 49.2333 111.618 49.436C111.117 49.628 110.584 49.7187 110.018 49.708C109.474 49.708 108.952 49.6387 108.45 49.5C107.96 49.3507 107.522 49.1267 107.138 48.828C106.754 48.5293 106.445 48.1613 106.21 47.724C105.986 47.276 105.869 46.7587 105.858 46.172H108.13C108.184 46.684 108.376 47.0947 108.706 47.404C109.037 47.7027 109.458 47.852 109.97 47.852C110.269 47.852 110.536 47.7933 110.77 47.676C111.016 47.548 111.218 47.388 111.378 47.196C111.549 46.9933 111.677 46.764 111.762 46.508C111.858 46.2413 111.906 45.9693 111.906 45.692C111.906 45.404 111.864 45.132 111.778 44.876C111.693 44.62 111.565 44.396 111.394 44.204C111.224 44.012 111.021 43.8627 110.786 43.756C110.552 43.6493 110.28 43.596 109.97 43.596C109.565 43.596 109.234 43.6707 108.978 43.82C108.722 43.9587 108.482 44.1827 108.258 44.492H106.21L107.314 38.3H113.57V40.172Z" fill="#EB0910"/>
<rect x="165" y="25.5" width="36" height="36" rx="12" fill="#EB0910" fill-opacity="0.12"/>
<path d="M183 49.5C186.866 49.5 190 46.366 190 42.5C190 38.634 186.866 35.5 183 35.5C179.134 35.5 176 38.634 176 42.5C176 46.366 179.134 49.5 183 49.5Z" stroke="#EB0910" stroke-width="2" stroke-linecap="round" stroke-linejoin="round"/>
<path d="M183 38.8762V43.9405L185.8 45.6286" stroke="#EB0910" stroke-width="2" stroke-linecap="round" stroke-linejoin="round"/>
</g>
<path d="M8.804 12.108C8.436 12.108 8.076 12.08 7.724 12.024C7.372 11.968 7.04 11.884 6.728 11.772C6.416 11.652 6.136 11.508 5.888 11.34C5.768 11.252 5.684 11.152 5.636 11.04C5.596 10.928 5.584 10.82 5.6 10.716C5.624 10.604 5.672 10.508 5.744 10.428C5.816 10.348 5.904 10.3 6.008 10.284C6.112 10.26 6.228 10.292 6.356 10.38C6.716 10.612 7.096 10.784 7.496 10.896C7.896 11 8.332 11.052 8.804 11.052C9.484 11.052 9.984 10.932 10.304 10.692C10.632 10.444 10.796 10.124 10.796 9.732C10.796 9.412 10.68 9.16 10.448 8.976C10.216 8.784 9.828 8.632 9.284 8.52L8 8.256C7.24 8.096 6.672 7.832 6.296 7.464C5.928 7.096 5.744 6.6 5.744 5.976C5.744 5.6 5.82 5.256 5.972 4.944C6.132 4.632 6.352 4.364 6.632 4.14C6.912 3.908 7.248 3.732 7.64 3.612C8.032 3.492 8.46 3.432 8.924 3.432C9.42 3.432 9.884 3.496 10.316 3.624C10.756 3.752 11.148 3.948 11.492 4.212C11.596 4.284 11.664 4.376 11.696 4.488C11.736 4.592 11.744 4.696 11.72 4.8C11.704 4.904 11.66 4.992 11.588 5.064C11.516 5.136 11.424 5.18 11.312 5.196C11.2 5.204 11.076 5.164 10.94 5.076C10.628 4.868 10.308 4.72 9.98 4.632C9.66 4.536 9.304 4.488 8.912 4.488C8.52 4.488 8.176 4.548 7.88 4.668C7.592 4.788 7.368 4.956 7.208 5.172C7.056 5.388 6.98 5.644 6.98 5.94C6.98 6.276 7.088 6.544 7.304 6.744C7.52 6.944 7.88 7.096 8.384 7.2L9.656 7.464C10.456 7.632 11.052 7.892 11.444 8.244C11.836 8.596 12.032 9.064 12.032 9.648C12.032 10.024 11.956 10.364 11.804 10.668C11.652 10.964 11.436 11.22 11.156 11.436C10.876 11.652 10.536 11.82 10.136 11.94C9.744 12.052 9.3 12.108 8.804 12.108ZM16.0648 12.108C15.4248 12.108 14.8728 11.988 14.4088 11.748C13.9528 11.5 13.5968 11.152 13.3408 10.704C13.0928 10.248 12.9688 9.708 12.9688 9.084C12.9688 8.476 13.0928 7.944 13.3408 7.488C13.5888 7.032 13.9288 6.676 14.3608 6.42C14.7928 6.164 15.2848 6.036 15.8368 6.036C16.2448 6.036 16.6088 6.104 16.9288 6.24C17.2488 6.368 17.5208 6.56 17.7448 6.816C17.9768 7.064 18.1488 7.368 18.2608 7.728C18.3808 8.088 18.4408 8.492 18.4408 8.94C18.4408 9.076 18.4008 9.18 18.3208 9.252C18.2408 9.316 18.1208 9.348 17.9608 9.348H13.9288V8.604H17.6248L17.4208 8.772C17.4208 8.372 17.3608 8.032 17.2408 7.752C17.1288 7.472 16.9568 7.26 16.7248 7.116C16.5008 6.964 16.2208 6.888 15.8848 6.888C15.5088 6.888 15.1888 6.976 14.9248 7.152C14.6688 7.328 14.4728 7.572 14.3368 7.884C14.2008 8.196 14.1328 8.56 14.1328 8.976V9.048C14.1328 9.752 14.2968 10.284 14.6248 10.644C14.9608 10.996 15.4448 11.172 16.0768 11.172C16.3168 11.172 16.5688 11.14 16.8328 11.076C17.1048 11.012 17.3608 10.904 17.6008 10.752C17.7368 10.672 17.8568 10.636 17.9608 10.644C18.0728 10.652 18.1608 10.688 18.2248 10.752C18.2968 10.816 18.3408 10.896 18.3568 10.992C18.3728 11.088 18.3568 11.188 18.3088 11.292C18.2608 11.388 18.1768 11.476 18.0568 11.556C17.7848 11.74 17.4688 11.88 17.1088 11.976C16.7488 12.064 16.4008 12.108 16.0648 12.108ZM22.2464 12.108C21.7664 12.108 21.3624 12.024 21.0344 11.856C20.7064 11.688 20.4624 11.44 20.3024 11.112C20.1424 10.784 20.0624 10.384 20.0624 9.912V7.08H19.3424C19.1824 7.08 19.0584 7.04 18.9704 6.96C18.8824 6.872 18.8384 6.756 18.8384 6.612C18.8384 6.46 18.8824 6.344 18.9704 6.264C19.0584 6.184 19.1824 6.144 19.3424 6.144H20.0624V4.908C20.0624 4.708 20.1144 4.556 20.2184 4.452C20.3304 4.348 20.4824 4.296 20.6744 4.296C20.8664 4.296 21.0144 4.348 21.1184 4.452C21.2224 4.556 21.2744 4.708 21.2744 4.908V6.144H22.6784C22.8384 6.144 22.9624 6.184 23.0504 6.264C23.1384 6.344 23.1824 6.46 23.1824 6.612C23.1824 6.756 23.1384 6.872 23.0504 6.96C22.9624 7.04 22.8384 7.08 22.6784 7.08H21.2744V9.816C21.2744 10.24 21.3624 10.56 21.5384 10.776C21.7224 10.992 22.0184 11.1 22.4264 11.1C22.5704 11.1 22.6944 11.088 22.7984 11.064C22.9104 11.032 23.0024 11.012 23.0744 11.004C23.1624 11.004 23.2344 11.036 23.2904 11.1C23.3464 11.156 23.3744 11.268 23.3744 11.436C23.3744 11.556 23.3504 11.668 23.3024 11.772C23.2624 11.876 23.1864 11.944 23.0744 11.976C22.9784 12.008 22.8464 12.036 22.6784 12.06C22.5184 12.092 22.3744 12.108 22.2464 12.108ZM30.1173 12.084C29.9173 12.084 29.7613 12.028 29.6493 11.916C29.5453 11.804 29.4933 11.648 29.4933 11.448V4.584H26.9493C26.7813 4.584 26.6493 4.54 26.5533 4.452C26.4573 4.356 26.4093 4.224 26.4093 4.056C26.4093 3.888 26.4573 3.76 26.5533 3.672C26.6493 3.584 26.7813 3.54 26.9493 3.54H33.2733C33.4493 3.54 33.5853 3.584 33.6813 3.672C33.7773 3.76 33.8253 3.888 33.8253 4.056C33.8253 4.224 33.7773 4.356 33.6813 4.452C33.5853 4.54 33.4493 4.584 33.2733 4.584H30.7293V11.448C30.7293 11.648 30.6773 11.804 30.5733 11.916C30.4773 12.028 30.3253 12.084 30.1173 12.084ZM35.702 12.072C35.51 12.072 35.362 12.016 35.258 11.904C35.154 11.784 35.102 11.62 35.102 11.412V6.732C35.102 6.524 35.154 6.364 35.258 6.252C35.362 6.14 35.51 6.084 35.702 6.084C35.894 6.084 36.042 6.14 36.146 6.252C36.258 6.364 36.314 6.524 36.314 6.732V11.412C36.314 11.62 36.262 11.784 36.158 11.904C36.054 12.016 35.902 12.072 35.702 12.072ZM35.702 4.836C35.462 4.836 35.274 4.776 35.138 4.656C35.01 4.536 34.946 4.368 34.946 4.152C34.946 3.928 35.01 3.76 35.138 3.648C35.274 3.528 35.462 3.468 35.702 3.468C35.942 3.468 36.126 3.528 36.254 3.648C36.39 3.76 36.458 3.928 36.458 4.152C36.458 4.368 36.39 4.536 36.254 4.656C36.126 4.776 35.942 4.836 35.702 4.836ZM38.644 12.084C38.452 12.084 38.304 12.032 38.2 11.928C38.096 11.816 38.044 11.664 38.044 11.472V6.672C38.044 6.472 38.096 6.32 38.2 6.216C38.304 6.112 38.448 6.06 38.632 6.06C38.824 6.06 38.968 6.112 39.064 6.216C39.168 6.32 39.22 6.472 39.22 6.672V7.656L39.088 7.392C39.248 6.968 39.496 6.636 39.832 6.396C40.168 6.156 40.572 6.036 41.044 6.036C41.532 6.036 41.928 6.152 42.232 6.384C42.536 6.616 42.744 6.972 42.856 7.452H42.688C42.84 7.012 43.1 6.668 43.468 6.42C43.836 6.164 44.264 6.036 44.752 6.036C45.2 6.036 45.568 6.124 45.856 6.3C46.144 6.468 46.36 6.728 46.504 7.08C46.648 7.424 46.72 7.86 46.72 8.388V11.472C46.72 11.664 46.664 11.816 46.552 11.928C46.448 12.032 46.3 12.084 46.108 12.084C45.916 12.084 45.768 12.032 45.664 11.928C45.56 11.816 45.508 11.664 45.508 11.472V8.448C45.508 7.952 45.42 7.588 45.244 7.356C45.076 7.124 44.796 7.008 44.404 7.008C43.964 7.008 43.616 7.16 43.36 7.464C43.104 7.768 42.976 8.188 42.976 8.724V11.472C42.976 11.664 42.924 11.816 42.82 11.928C42.716 12.032 42.568 12.084 42.376 12.084C42.184 12.084 42.032 12.032 41.92 11.928C41.816 11.816 41.764 11.664 41.764 11.472V8.448C41.764 7.952 41.68 7.588 41.512 7.356C41.344 7.124 41.064 7.008 40.672 7.008C40.232 7.008 39.884 7.16 39.628 7.464C39.38 7.768 39.256 8.188 39.256 8.724V11.472C39.256 11.88 39.052 12.084 38.644 12.084ZM51.1625 12.108C50.5225 12.108 49.9705 11.988 49.5065 11.748C49.0505 11.5 48.6945 11.152 48.4385 10.704C48.1905 10.248 48.0665 9.708 48.0665 9.084C48.0665 8.476 48.1905 7.944 48.4385 7.488C48.6865 7.032 49.0265 6.676 49.4585 6.42C49.8905 6.164 50.3825 6.036 50.9345 6.036C51.3425 6.036 51.7065 6.104 52.0265 6.24C52.3465 6.368 52.6185 6.56 52.8425 6.816C53.0745 7.064 53.2465 7.368 53.3585 7.728C53.4785 8.088 53.5385 8.492 53.5385 8.94C53.5385 9.076 53.4985 9.18 53.4185 9.252C53.3385 9.316 53.2185 9.348 53.0585 9.348H49.0265V8.604H52.7225L52.5185 8.772C52.5185 8.372 52.4585 8.032 52.3385 7.752C52.2265 7.472 52.0545 7.26 51.8225 7.116C51.5985 6.964 51.3185 6.888 50.9825 6.888C50.6065 6.888 50.2865 6.976 50.0225 7.152C49.7665 7.328 49.5705 7.572 49.4345 7.884C49.2985 8.196 49.2305 8.56 49.2305 8.976V9.048C49.2305 9.752 49.3945 10.284 49.7225 10.644C50.0585 10.996 50.5425 11.172 51.1745 11.172C51.4145 11.172 51.6665 11.14 51.9305 11.076C52.2025 11.012 52.4585 10.904 52.6985 10.752C52.8345 10.672 52.9545 10.636 53.0585 10.644C53.1705 10.652 53.2585 10.688 53.3225 10.752C53.3945 10.816 53.4385 10.896 53.4545 10.992C53.4705 11.088 53.4545 11.188 53.4065 11.292C53.3585 11.388 53.2745 11.476 53.1545 11.556C52.8825 11.74 52.5665 11.88 52.2065 11.976C51.8465 12.064 51.4985 12.108 51.1625 12.108Z" fill="#64728C"/>
<defs>
<filter id="filter0_d_622_8034" x="0" y="20" width="210" height="55" filterUnits="userSpaceOnUse" color-interpolation-filters="sRGB">
<feFlood flood-opacity="0" result="BackgroundImageFix"/>
<feColorMatrix in="SourceAlpha" type="matrix" values="0 0 0 0 0 0 0 0 0 0 0 0 0 0 0 0 0 0 127 0" result="hardAlpha"/>
<feOffset dy="4"/>
<feGaussianBlur stdDeviation="2.5"/>
<feComposite in2="hardAlpha" operator="out"/>
<feColorMatrix type="matrix" values="0 0 0 0 0.921569 0 0 0 0 0.0352941 0 0 0 0 0.0627451 0 0 0 0.15 0"/>
<feBlend mode="normal" in2="BackgroundImageFix" result="effect1_dropShadow_622_8034"/>
<feBlend mode="normal" in="SourceGraphic" in2="effect1_dropShadow_622_8034" result="shape"/>
</filter>
</defs>
</svg>
