<svg width="210" height="75" viewBox="0 0 210 75" fill="none" xmlns="http://www.w3.org/2000/svg">
<g filter="url(#filter0_d_622_8047)">
<rect x="5" y="21" width="200" height="45" rx="12" fill="white" shape-rendering="crispEdges"/>
<rect x="5.5" y="21.5" width="199" height="44" rx="11.5" stroke="#34BC40" shape-rendering="crispEdges"/>
<path d="M52.0846 43.852C52.0846 44.172 52.0952 44.5613 52.1166 45.02C52.1379 45.468 52.2019 45.9053 52.3086 46.332C52.4259 46.748 52.6072 47.1053 52.8526 47.404C53.0979 47.7027 53.4499 47.852 53.9086 47.852C54.3779 47.852 54.7352 47.7027 54.9806 47.404C55.2366 47.1053 55.4179 46.748 55.5246 46.332C55.6419 45.9053 55.7112 45.468 55.7326 45.02C55.7539 44.5613 55.7646 44.172 55.7646 43.852C55.7646 43.66 55.7592 43.4307 55.7486 43.164C55.7486 42.8867 55.7272 42.604 55.6846 42.316C55.6526 42.028 55.5992 41.7453 55.5246 41.468C55.4606 41.18 55.3592 40.924 55.2206 40.7C55.0819 40.476 54.9059 40.2947 54.6926 40.156C54.4792 40.0173 54.2179 39.948 53.9086 39.948C53.5992 39.948 53.3379 40.0173 53.1246 40.156C52.9219 40.2947 52.7512 40.476 52.6126 40.7C52.4846 40.924 52.3832 41.18 52.3086 41.468C52.2339 41.7453 52.1806 42.028 52.1486 42.316C52.1166 42.604 52.0952 42.8867 52.0846 43.164C52.0846 43.4307 52.0846 43.66 52.0846 43.852ZM49.8126 43.852C49.8126 42.764 49.9192 41.852 50.1326 41.116C50.3566 40.3693 50.6552 39.772 51.0286 39.324C51.4019 38.876 51.8339 38.556 52.3246 38.364C52.8259 38.172 53.3539 38.076 53.9086 38.076C54.4739 38.076 55.0019 38.172 55.4926 38.364C55.9939 38.556 56.4312 38.876 56.8046 39.324C57.1886 39.772 57.4872 40.3693 57.7006 41.116C57.9246 41.852 58.0366 42.764 58.0366 43.852C58.0366 44.972 57.9246 45.9107 57.7006 46.668C57.4872 47.4147 57.1886 48.012 56.8046 48.46C56.4312 48.908 55.9939 49.228 55.4926 49.42C55.0019 49.612 54.4739 49.708 53.9086 49.708C53.3539 49.708 52.8259 49.612 52.3246 49.42C51.8339 49.228 51.4019 48.908 51.0286 48.46C50.6552 48.012 50.3566 47.4147 50.1326 46.668C49.9192 45.9107 49.8126 44.972 49.8126 43.852ZM61.1192 41.34C61.1192 41.82 61.2899 42.188 61.6312 42.444C61.9725 42.6893 62.3725 42.812 62.8312 42.812C63.3112 42.812 63.7112 42.6893 64.0312 42.444C64.3512 42.188 64.5112 41.82 64.5112 41.34C64.5112 41.1907 64.4899 41.0307 64.4472 40.86C64.4045 40.6787 64.3192 40.508 64.1912 40.348C64.0739 40.188 63.9032 40.0547 63.6792 39.948C63.4659 39.8413 63.1832 39.788 62.8312 39.788C62.6072 39.788 62.3885 39.8253 62.1752 39.9C61.9725 39.964 61.7912 40.06 61.6312 40.188C61.4712 40.316 61.3432 40.476 61.2472 40.668C61.1619 40.86 61.1192 41.084 61.1192 41.34ZM59.0552 41.132C59.0552 40.6307 59.1672 40.188 59.3912 39.804C59.6152 39.42 59.9032 39.1 60.2552 38.844C60.6179 38.588 61.0232 38.396 61.4712 38.268C61.9192 38.14 62.3725 38.076 62.8312 38.076C63.5245 38.076 64.1112 38.1827 64.5912 38.396C65.0712 38.6093 65.4552 38.8707 65.7432 39.18C66.0419 39.4787 66.2552 39.804 66.3832 40.156C66.5112 40.4973 66.5752 40.8067 66.5752 41.084C66.5752 41.6387 66.4365 42.124 66.1592 42.54C65.8925 42.956 65.4872 43.2547 64.9432 43.436V43.468C65.6152 43.6173 66.1325 43.9373 66.4952 44.428C66.8579 44.908 67.0392 45.5 67.0392 46.204C67.0392 46.8013 66.9165 47.3187 66.6712 47.756C66.4365 48.1933 66.1219 48.556 65.7272 48.844C65.3325 49.132 64.8845 49.3507 64.3832 49.5C63.8819 49.6387 63.3699 49.708 62.8472 49.708C62.3032 49.708 61.7752 49.6387 61.2632 49.5C60.7619 49.372 60.3085 49.164 59.9032 48.876C59.5085 48.588 59.1885 48.2253 58.9432 47.788C58.7085 47.3507 58.5912 46.828 58.5912 46.22C58.5912 45.5053 58.7725 44.908 59.1352 44.428C59.5085 43.948 60.0312 43.628 60.7032 43.468V43.436C60.1592 43.2867 59.7485 43.004 59.4712 42.588C59.1939 42.172 59.0552 41.6867 59.0552 41.132ZM60.8632 46.108C60.8632 46.396 60.9165 46.6573 61.0232 46.892C61.1299 47.1267 61.2685 47.3293 61.4392 47.5C61.6205 47.66 61.8339 47.788 62.0792 47.884C62.3245 47.9693 62.5805 48.012 62.8472 48.012C63.1245 48.012 63.3752 47.9693 63.5992 47.884C63.8339 47.788 64.0365 47.66 64.2072 47.5C64.3885 47.3293 64.5272 47.1267 64.6232 46.892C64.7192 46.6573 64.7672 46.4013 64.7672 46.124C64.7672 45.8573 64.7139 45.6173 64.6072 45.404C64.5112 45.18 64.3725 44.988 64.1912 44.828C64.0205 44.668 63.8179 44.5453 63.5832 44.46C63.3592 44.3747 63.1139 44.332 62.8472 44.332C62.2925 44.332 61.8232 44.4867 61.4392 44.796C61.0552 45.0947 60.8632 45.532 60.8632 46.108ZM75.1989 43.836H72.6869V41.372H75.1989V43.836ZM72.6869 47.036H75.1989V49.5H72.6869V47.036ZM84.2652 42.828C84.5105 42.8493 84.7719 42.8493 85.0492 42.828C85.3265 42.8067 85.5825 42.748 85.8172 42.652C86.0625 42.5453 86.2599 42.396 86.4092 42.204C86.5692 42.012 86.6492 41.756 86.6492 41.436C86.6492 40.956 86.4892 40.588 86.1692 40.332C85.8492 40.076 85.4812 39.948 85.0652 39.948C84.4892 39.948 84.0519 40.14 83.7532 40.524C83.4652 40.8973 83.3265 41.372 83.3372 41.948H81.1772C81.1985 41.372 81.2999 40.8493 81.4812 40.38C81.6732 39.9 81.9345 39.4893 82.2652 39.148C82.6065 38.8067 83.0119 38.5453 83.4812 38.364C83.9505 38.172 84.4732 38.076 85.0492 38.076C85.4972 38.076 85.9452 38.1453 86.3932 38.284C86.8412 38.412 87.2412 38.6093 87.5932 38.876C87.9559 39.1427 88.2492 39.468 88.4732 39.852C88.6972 40.236 88.8092 40.6787 88.8092 41.18C88.8092 41.724 88.6759 42.204 88.4092 42.62C88.1532 43.036 87.7639 43.3187 87.2412 43.468V43.5C87.8599 43.6387 88.3452 43.9373 88.6972 44.396C89.0492 44.8547 89.2252 45.404 89.2252 46.044C89.2252 46.6307 89.1079 47.1533 88.8732 47.612C88.6492 48.0707 88.3452 48.4547 87.9612 48.764C87.5772 49.0733 87.1345 49.308 86.6332 49.468C86.1319 49.628 85.6092 49.708 85.0652 49.708C84.4359 49.708 83.8599 49.6173 83.3372 49.436C82.8252 49.2547 82.3879 48.9933 82.0252 48.652C81.6625 48.3 81.3799 47.8733 81.1772 47.372C80.9852 46.8707 80.8945 46.2947 80.9052 45.644H83.0652C83.0759 45.9427 83.1239 46.2307 83.2092 46.508C83.2945 46.7747 83.4172 47.0093 83.5772 47.212C83.7372 47.404 83.9345 47.5587 84.1692 47.676C84.4145 47.7933 84.7025 47.852 85.0332 47.852C85.5452 47.852 85.9772 47.6973 86.3292 47.388C86.6812 47.068 86.8572 46.636 86.8572 46.092C86.8572 45.6653 86.7719 45.34 86.6012 45.116C86.4412 44.892 86.2332 44.732 85.9772 44.636C85.7212 44.5293 85.4385 44.4707 85.1292 44.46C84.8305 44.4387 84.5425 44.428 84.2652 44.428V42.828ZM92.1158 43.852C92.1158 44.172 92.1265 44.5613 92.1478 45.02C92.1691 45.468 92.2331 45.9053 92.3398 46.332C92.4571 46.748 92.6385 47.1053 92.8838 47.404C93.1291 47.7027 93.4811 47.852 93.9398 47.852C94.4091 47.852 94.7665 47.7027 95.0118 47.404C95.2678 47.1053 95.4491 46.748 95.5558 46.332C95.6731 45.9053 95.7425 45.468 95.7638 45.02C95.7851 44.5613 95.7958 44.172 95.7958 43.852C95.7958 43.66 95.7905 43.4307 95.7798 43.164C95.7798 42.8867 95.7585 42.604 95.7158 42.316C95.6838 42.028 95.6305 41.7453 95.5558 41.468C95.4918 41.18 95.3905 40.924 95.2518 40.7C95.1131 40.476 94.9371 40.2947 94.7238 40.156C94.5105 40.0173 94.2491 39.948 93.9398 39.948C93.6305 39.948 93.3691 40.0173 93.1558 40.156C92.9531 40.2947 92.7825 40.476 92.6438 40.7C92.5158 40.924 92.4145 41.18 92.3398 41.468C92.2651 41.7453 92.2118 42.028 92.1798 42.316C92.1478 42.604 92.1265 42.8867 92.1158 43.164C92.1158 43.4307 92.1158 43.66 92.1158 43.852ZM89.8438 43.852C89.8438 42.764 89.9505 41.852 90.1638 41.116C90.3878 40.3693 90.6865 39.772 91.0598 39.324C91.4331 38.876 91.8651 38.556 92.3558 38.364C92.8571 38.172 93.3851 38.076 93.9398 38.076C94.5051 38.076 95.0331 38.172 95.5238 38.364C96.0251 38.556 96.4625 38.876 96.8358 39.324C97.2198 39.772 97.5185 40.3693 97.7318 41.116C97.9558 41.852 98.0678 42.764 98.0678 43.852C98.0678 44.972 97.9558 45.9107 97.7318 46.668C97.5185 47.4147 97.2198 48.012 96.8358 48.46C96.4625 48.908 96.0251 49.228 95.5238 49.42C95.0331 49.612 94.5051 49.708 93.9398 49.708C93.3851 49.708 92.8571 49.612 92.3558 49.42C91.8651 49.228 91.4331 48.908 91.0598 48.46C90.6865 48.012 90.3878 47.4147 90.1638 46.668C89.9505 45.9107 89.8438 44.972 89.8438 43.852ZM109.545 43.676H113.289C114.046 43.676 114.659 43.484 115.129 43.1C115.598 42.716 115.833 42.1293 115.833 41.34C115.833 40.5507 115.598 39.964 115.129 39.58C114.659 39.196 114.046 39.004 113.289 39.004H109.545V43.676ZM108.457 38.076H113.529C114.041 38.076 114.505 38.1507 114.921 38.3C115.337 38.4387 115.694 38.652 115.993 38.94C116.291 39.2173 116.521 39.5587 116.681 39.964C116.841 40.3693 116.921 40.828 116.921 41.34C116.921 41.852 116.841 42.3107 116.681 42.716C116.521 43.1213 116.291 43.468 115.993 43.756C115.694 44.0333 115.337 44.2467 114.921 44.396C114.505 44.5347 114.041 44.604 113.529 44.604H109.545V49.5H108.457V38.076ZM120.103 38.076L123.895 48.092L127.831 38.076H129.431V49.5H128.343V39.628H128.311L124.407 49.5H123.383L119.623 39.628H119.591V49.5H118.503V38.076H120.103Z" fill="#34BC40"/>
<rect x="165" y="25.5" width="36" height="36" rx="12" fill="#34BC40" fill-opacity="0.12"/>
<path d="M183 50.5C186.866 50.5 190 47.366 190 43.5C190 39.634 186.866 36.5 183 36.5C179.134 36.5 176 39.634 176 43.5C176 47.366 179.134 50.5 183 50.5Z" stroke="#34BC40" stroke-width="2" stroke-linecap="round" stroke-linejoin="round"/>
<path d="M183 39.8762V44.9405L185.8 46.6286" stroke="#34BC40" stroke-width="2" stroke-linecap="round" stroke-linejoin="round"/>
</g>
<path d="M8.804 12.108C8.436 12.108 8.076 12.08 7.724 12.024C7.372 11.968 7.04 11.884 6.728 11.772C6.416 11.652 6.136 11.508 5.888 11.34C5.768 11.252 5.684 11.152 5.636 11.04C5.596 10.928 5.584 10.82 5.6 10.716C5.624 10.604 5.672 10.508 5.744 10.428C5.816 10.348 5.904 10.3 6.008 10.284C6.112 10.26 6.228 10.292 6.356 10.38C6.716 10.612 7.096 10.784 7.496 10.896C7.896 11 8.332 11.052 8.804 11.052C9.484 11.052 9.984 10.932 10.304 10.692C10.632 10.444 10.796 10.124 10.796 9.732C10.796 9.412 10.68 9.16 10.448 8.976C10.216 8.784 9.828 8.632 9.284 8.52L8 8.256C7.24 8.096 6.672 7.832 6.296 7.464C5.928 7.096 5.744 6.6 5.744 5.976C5.744 5.6 5.82 5.256 5.972 4.944C6.132 4.632 6.352 4.364 6.632 4.14C6.912 3.908 7.248 3.732 7.64 3.612C8.032 3.492 8.46 3.432 8.924 3.432C9.42 3.432 9.884 3.496 10.316 3.624C10.756 3.752 11.148 3.948 11.492 4.212C11.596 4.284 11.664 4.376 11.696 4.488C11.736 4.592 11.744 4.696 11.72 4.8C11.704 4.904 11.66 4.992 11.588 5.064C11.516 5.136 11.424 5.18 11.312 5.196C11.2 5.204 11.076 5.164 10.94 5.076C10.628 4.868 10.308 4.72 9.98 4.632C9.66 4.536 9.304 4.488 8.912 4.488C8.52 4.488 8.176 4.548 7.88 4.668C7.592 4.788 7.368 4.956 7.208 5.172C7.056 5.388 6.98 5.644 6.98 5.94C6.98 6.276 7.088 6.544 7.304 6.744C7.52 6.944 7.88 7.096 8.384 7.2L9.656 7.464C10.456 7.632 11.052 7.892 11.444 8.244C11.836 8.596 12.032 9.064 12.032 9.648C12.032 10.024 11.956 10.364 11.804 10.668C11.652 10.964 11.436 11.22 11.156 11.436C10.876 11.652 10.536 11.82 10.136 11.94C9.744 12.052 9.3 12.108 8.804 12.108ZM16.0648 12.108C15.4248 12.108 14.8728 11.988 14.4088 11.748C13.9528 11.5 13.5968 11.152 13.3408 10.704C13.0928 10.248 12.9688 9.708 12.9688 9.084C12.9688 8.476 13.0928 7.944 13.3408 7.488C13.5888 7.032 13.9288 6.676 14.3608 6.42C14.7928 6.164 15.2848 6.036 15.8368 6.036C16.2448 6.036 16.6088 6.104 16.9288 6.24C17.2488 6.368 17.5208 6.56 17.7448 6.816C17.9768 7.064 18.1488 7.368 18.2608 7.728C18.3808 8.088 18.4408 8.492 18.4408 8.94C18.4408 9.076 18.4008 9.18 18.3208 9.252C18.2408 9.316 18.1208 9.348 17.9608 9.348H13.9288V8.604H17.6248L17.4208 8.772C17.4208 8.372 17.3608 8.032 17.2408 7.752C17.1288 7.472 16.9568 7.26 16.7248 7.116C16.5008 6.964 16.2208 6.888 15.8848 6.888C15.5088 6.888 15.1888 6.976 14.9248 7.152C14.6688 7.328 14.4728 7.572 14.3368 7.884C14.2008 8.196 14.1328 8.56 14.1328 8.976V9.048C14.1328 9.752 14.2968 10.284 14.6248 10.644C14.9608 10.996 15.4448 11.172 16.0768 11.172C16.3168 11.172 16.5688 11.14 16.8328 11.076C17.1048 11.012 17.3608 10.904 17.6008 10.752C17.7368 10.672 17.8568 10.636 17.9608 10.644C18.0728 10.652 18.1608 10.688 18.2248 10.752C18.2968 10.816 18.3408 10.896 18.3568 10.992C18.3728 11.088 18.3568 11.188 18.3088 11.292C18.2608 11.388 18.1768 11.476 18.0568 11.556C17.7848 11.74 17.4688 11.88 17.1088 11.976C16.7488 12.064 16.4008 12.108 16.0648 12.108ZM22.2464 12.108C21.7664 12.108 21.3624 12.024 21.0344 11.856C20.7064 11.688 20.4624 11.44 20.3024 11.112C20.1424 10.784 20.0624 10.384 20.0624 9.912V7.08H19.3424C19.1824 7.08 19.0584 7.04 18.9704 6.96C18.8824 6.872 18.8384 6.756 18.8384 6.612C18.8384 6.46 18.8824 6.344 18.9704 6.264C19.0584 6.184 19.1824 6.144 19.3424 6.144H20.0624V4.908C20.0624 4.708 20.1144 4.556 20.2184 4.452C20.3304 4.348 20.4824 4.296 20.6744 4.296C20.8664 4.296 21.0144 4.348 21.1184 4.452C21.2224 4.556 21.2744 4.708 21.2744 4.908V6.144H22.6784C22.8384 6.144 22.9624 6.184 23.0504 6.264C23.1384 6.344 23.1824 6.46 23.1824 6.612C23.1824 6.756 23.1384 6.872 23.0504 6.96C22.9624 7.04 22.8384 7.08 22.6784 7.08H21.2744V9.816C21.2744 10.24 21.3624 10.56 21.5384 10.776C21.7224 10.992 22.0184 11.1 22.4264 11.1C22.5704 11.1 22.6944 11.088 22.7984 11.064C22.9104 11.032 23.0024 11.012 23.0744 11.004C23.1624 11.004 23.2344 11.036 23.2904 11.1C23.3464 11.156 23.3744 11.268 23.3744 11.436C23.3744 11.556 23.3504 11.668 23.3024 11.772C23.2624 11.876 23.1864 11.944 23.0744 11.976C22.9784 12.008 22.8464 12.036 22.6784 12.06C22.5184 12.092 22.3744 12.108 22.2464 12.108ZM30.1173 12.084C29.9173 12.084 29.7613 12.028 29.6493 11.916C29.5453 11.804 29.4933 11.648 29.4933 11.448V4.584H26.9493C26.7813 4.584 26.6493 4.54 26.5533 4.452C26.4573 4.356 26.4093 4.224 26.4093 4.056C26.4093 3.888 26.4573 3.76 26.5533 3.672C26.6493 3.584 26.7813 3.54 26.9493 3.54H33.2733C33.4493 3.54 33.5853 3.584 33.6813 3.672C33.7773 3.76 33.8253 3.888 33.8253 4.056C33.8253 4.224 33.7773 4.356 33.6813 4.452C33.5853 4.54 33.4493 4.584 33.2733 4.584H30.7293V11.448C30.7293 11.648 30.6773 11.804 30.5733 11.916C30.4773 12.028 30.3253 12.084 30.1173 12.084ZM35.702 12.072C35.51 12.072 35.362 12.016 35.258 11.904C35.154 11.784 35.102 11.62 35.102 11.412V6.732C35.102 6.524 35.154 6.364 35.258 6.252C35.362 6.14 35.51 6.084 35.702 6.084C35.894 6.084 36.042 6.14 36.146 6.252C36.258 6.364 36.314 6.524 36.314 6.732V11.412C36.314 11.62 36.262 11.784 36.158 11.904C36.054 12.016 35.902 12.072 35.702 12.072ZM35.702 4.836C35.462 4.836 35.274 4.776 35.138 4.656C35.01 4.536 34.946 4.368 34.946 4.152C34.946 3.928 35.01 3.76 35.138 3.648C35.274 3.528 35.462 3.468 35.702 3.468C35.942 3.468 36.126 3.528 36.254 3.648C36.39 3.76 36.458 3.928 36.458 4.152C36.458 4.368 36.39 4.536 36.254 4.656C36.126 4.776 35.942 4.836 35.702 4.836ZM38.644 12.084C38.452 12.084 38.304 12.032 38.2 11.928C38.096 11.816 38.044 11.664 38.044 11.472V6.672C38.044 6.472 38.096 6.32 38.2 6.216C38.304 6.112 38.448 6.06 38.632 6.06C38.824 6.06 38.968 6.112 39.064 6.216C39.168 6.32 39.22 6.472 39.22 6.672V7.656L39.088 7.392C39.248 6.968 39.496 6.636 39.832 6.396C40.168 6.156 40.572 6.036 41.044 6.036C41.532 6.036 41.928 6.152 42.232 6.384C42.536 6.616 42.744 6.972 42.856 7.452H42.688C42.84 7.012 43.1 6.668 43.468 6.42C43.836 6.164 44.264 6.036 44.752 6.036C45.2 6.036 45.568 6.124 45.856 6.3C46.144 6.468 46.36 6.728 46.504 7.08C46.648 7.424 46.72 7.86 46.72 8.388V11.472C46.72 11.664 46.664 11.816 46.552 11.928C46.448 12.032 46.3 12.084 46.108 12.084C45.916 12.084 45.768 12.032 45.664 11.928C45.56 11.816 45.508 11.664 45.508 11.472V8.448C45.508 7.952 45.42 7.588 45.244 7.356C45.076 7.124 44.796 7.008 44.404 7.008C43.964 7.008 43.616 7.16 43.36 7.464C43.104 7.768 42.976 8.188 42.976 8.724V11.472C42.976 11.664 42.924 11.816 42.82 11.928C42.716 12.032 42.568 12.084 42.376 12.084C42.184 12.084 42.032 12.032 41.92 11.928C41.816 11.816 41.764 11.664 41.764 11.472V8.448C41.764 7.952 41.68 7.588 41.512 7.356C41.344 7.124 41.064 7.008 40.672 7.008C40.232 7.008 39.884 7.16 39.628 7.464C39.38 7.768 39.256 8.188 39.256 8.724V11.472C39.256 11.88 39.052 12.084 38.644 12.084ZM51.1625 12.108C50.5225 12.108 49.9705 11.988 49.5065 11.748C49.0505 11.5 48.6945 11.152 48.4385 10.704C48.1905 10.248 48.0665 9.708 48.0665 9.084C48.0665 8.476 48.1905 7.944 48.4385 7.488C48.6865 7.032 49.0265 6.676 49.4585 6.42C49.8905 6.164 50.3825 6.036 50.9345 6.036C51.3425 6.036 51.7065 6.104 52.0265 6.24C52.3465 6.368 52.6185 6.56 52.8425 6.816C53.0745 7.064 53.2465 7.368 53.3585 7.728C53.4785 8.088 53.5385 8.492 53.5385 8.94C53.5385 9.076 53.4985 9.18 53.4185 9.252C53.3385 9.316 53.2185 9.348 53.0585 9.348H49.0265V8.604H52.7225L52.5185 8.772C52.5185 8.372 52.4585 8.032 52.3385 7.752C52.2265 7.472 52.0545 7.26 51.8225 7.116C51.5985 6.964 51.3185 6.888 50.9825 6.888C50.6065 6.888 50.2865 6.976 50.0225 7.152C49.7665 7.328 49.5705 7.572 49.4345 7.884C49.2985 8.196 49.2305 8.56 49.2305 8.976V9.048C49.2305 9.752 49.3945 10.284 49.7225 10.644C50.0585 10.996 50.5425 11.172 51.1745 11.172C51.4145 11.172 51.6665 11.14 51.9305 11.076C52.2025 11.012 52.4585 10.904 52.6985 10.752C52.8345 10.672 52.9545 10.636 53.0585 10.644C53.1705 10.652 53.2585 10.688 53.3225 10.752C53.3945 10.816 53.4385 10.896 53.4545 10.992C53.4705 11.088 53.4545 11.188 53.4065 11.292C53.3585 11.388 53.2745 11.476 53.1545 11.556C52.8825 11.74 52.5665 11.88 52.2065 11.976C51.8465 12.064 51.4985 12.108 51.1625 12.108Z" fill="#64728C"/>
<defs>
<filter id="filter0_d_622_8047" x="0" y="20" width="210" height="55" filterUnits="userSpaceOnUse" color-interpolation-filters="sRGB">
<feFlood flood-opacity="0" result="BackgroundImageFix"/>
<feColorMatrix in="SourceAlpha" type="matrix" values="0 0 0 0 0 0 0 0 0 0 0 0 0 0 0 0 0 0 127 0" result="hardAlpha"/>
<feOffset dy="4"/>
<feGaussianBlur stdDeviation="2.5"/>
<feComposite in2="hardAlpha" operator="out"/>
<feColorMatrix type="matrix" values="0 0 0 0 0.203922 0 0 0 0 0.737255 0 0 0 0 0.25098 0 0 0 0.15 0"/>
<feBlend mode="normal" in2="BackgroundImageFix" result="effect1_dropShadow_622_8047"/>
<feBlend mode="normal" in="SourceGraphic" in2="effect1_dropShadow_622_8047" result="shape"/>
</filter>
</defs>
</svg>
