<svg width="208" height="74" viewBox="0 0 208 74" fill="none" xmlns="http://www.w3.org/2000/svg">
<g filter="url(#filter0_d_622_8073)">
<rect x="4" y="21" width="200" height="45" rx="12" fill="white" shape-rendering="crispEdges"/>
<rect x="4.5" y="21.5" width="199" height="44" rx="11.5" stroke="#FFAA00" shape-rendering="crispEdges"/>
<path d="M51.0846 43.852C51.0846 44.172 51.0952 44.5613 51.1166 45.02C51.1379 45.468 51.2019 45.9053 51.3086 46.332C51.4259 46.748 51.6072 47.1053 51.8526 47.404C52.0979 47.7027 52.4499 47.852 52.9086 47.852C53.3779 47.852 53.7352 47.7027 53.9806 47.404C54.2366 47.1053 54.4179 46.748 54.5246 46.332C54.6419 45.9053 54.7112 45.468 54.7326 45.02C54.7539 44.5613 54.7646 44.172 54.7646 43.852C54.7646 43.66 54.7592 43.4307 54.7486 43.164C54.7486 42.8867 54.7272 42.604 54.6846 42.316C54.6526 42.028 54.5992 41.7453 54.5246 41.468C54.4606 41.18 54.3592 40.924 54.2206 40.7C54.0819 40.476 53.9059 40.2947 53.6926 40.156C53.4792 40.0173 53.2179 39.948 52.9086 39.948C52.5992 39.948 52.3379 40.0173 52.1246 40.156C51.9219 40.2947 51.7512 40.476 51.6126 40.7C51.4846 40.924 51.3832 41.18 51.3086 41.468C51.2339 41.7453 51.1806 42.028 51.1486 42.316C51.1166 42.604 51.0952 42.8867 51.0846 43.164C51.0846 43.4307 51.0846 43.66 51.0846 43.852ZM48.8126 43.852C48.8126 42.764 48.9192 41.852 49.1326 41.116C49.3566 40.3693 49.6552 39.772 50.0286 39.324C50.4019 38.876 50.8339 38.556 51.3246 38.364C51.8259 38.172 52.3539 38.076 52.9086 38.076C53.4739 38.076 54.0019 38.172 54.4926 38.364C54.9939 38.556 55.4312 38.876 55.8046 39.324C56.1886 39.772 56.4872 40.3693 56.7006 41.116C56.9246 41.852 57.0366 42.764 57.0366 43.852C57.0366 44.972 56.9246 45.9107 56.7006 46.668C56.4872 47.4147 56.1886 48.012 55.8046 48.46C55.4312 48.908 54.9939 49.228 54.4926 49.42C54.0019 49.612 53.4739 49.708 52.9086 49.708C52.3539 49.708 51.8259 49.612 51.3246 49.42C50.8339 49.228 50.4019 48.908 50.0286 48.46C49.6552 48.012 49.3566 47.4147 49.1326 46.668C48.9192 45.9107 48.8126 44.972 48.8126 43.852ZM60.1192 41.34C60.1192 41.82 60.2899 42.188 60.6312 42.444C60.9725 42.6893 61.3725 42.812 61.8312 42.812C62.3112 42.812 62.7112 42.6893 63.0312 42.444C63.3512 42.188 63.5112 41.82 63.5112 41.34C63.5112 41.1907 63.4899 41.0307 63.4472 40.86C63.4045 40.6787 63.3192 40.508 63.1912 40.348C63.0739 40.188 62.9032 40.0547 62.6792 39.948C62.4659 39.8413 62.1832 39.788 61.8312 39.788C61.6072 39.788 61.3885 39.8253 61.1752 39.9C60.9725 39.964 60.7912 40.06 60.6312 40.188C60.4712 40.316 60.3432 40.476 60.2472 40.668C60.1619 40.86 60.1192 41.084 60.1192 41.34ZM58.0552 41.132C58.0552 40.6307 58.1672 40.188 58.3912 39.804C58.6152 39.42 58.9032 39.1 59.2552 38.844C59.6179 38.588 60.0232 38.396 60.4712 38.268C60.9192 38.14 61.3725 38.076 61.8312 38.076C62.5245 38.076 63.1112 38.1827 63.5912 38.396C64.0712 38.6093 64.4552 38.8707 64.7432 39.18C65.0419 39.4787 65.2552 39.804 65.3832 40.156C65.5112 40.4973 65.5752 40.8067 65.5752 41.084C65.5752 41.6387 65.4365 42.124 65.1592 42.54C64.8925 42.956 64.4872 43.2547 63.9432 43.436V43.468C64.6152 43.6173 65.1325 43.9373 65.4952 44.428C65.8579 44.908 66.0392 45.5 66.0392 46.204C66.0392 46.8013 65.9165 47.3187 65.6712 47.756C65.4365 48.1933 65.1219 48.556 64.7272 48.844C64.3325 49.132 63.8845 49.3507 63.3832 49.5C62.8819 49.6387 62.3699 49.708 61.8472 49.708C61.3032 49.708 60.7752 49.6387 60.2632 49.5C59.7619 49.372 59.3085 49.164 58.9032 48.876C58.5085 48.588 58.1885 48.2253 57.9432 47.788C57.7085 47.3507 57.5912 46.828 57.5912 46.22C57.5912 45.5053 57.7725 44.908 58.1352 44.428C58.5085 43.948 59.0312 43.628 59.7032 43.468V43.436C59.1592 43.2867 58.7485 43.004 58.4712 42.588C58.1939 42.172 58.0552 41.6867 58.0552 41.132ZM59.8632 46.108C59.8632 46.396 59.9165 46.6573 60.0232 46.892C60.1299 47.1267 60.2685 47.3293 60.4392 47.5C60.6205 47.66 60.8339 47.788 61.0792 47.884C61.3245 47.9693 61.5805 48.012 61.8472 48.012C62.1245 48.012 62.3752 47.9693 62.5992 47.884C62.8339 47.788 63.0365 47.66 63.2072 47.5C63.3885 47.3293 63.5272 47.1267 63.6232 46.892C63.7192 46.6573 63.7672 46.4013 63.7672 46.124C63.7672 45.8573 63.7139 45.6173 63.6072 45.404C63.5112 45.18 63.3725 44.988 63.1912 44.828C63.0205 44.668 62.8179 44.5453 62.5832 44.46C62.3592 44.3747 62.1139 44.332 61.8472 44.332C61.2925 44.332 60.8232 44.4867 60.4392 44.796C60.0552 45.0947 59.8632 45.532 59.8632 46.108ZM74.1989 43.836H71.6869V41.372H74.1989V43.836ZM71.6869 47.036H74.1989V49.5H71.6869V47.036ZM83.2652 42.828C83.5105 42.8493 83.7719 42.8493 84.0492 42.828C84.3265 42.8067 84.5825 42.748 84.8172 42.652C85.0625 42.5453 85.2599 42.396 85.4092 42.204C85.5692 42.012 85.6492 41.756 85.6492 41.436C85.6492 40.956 85.4892 40.588 85.1692 40.332C84.8492 40.076 84.4812 39.948 84.0652 39.948C83.4892 39.948 83.0519 40.14 82.7532 40.524C82.4652 40.8973 82.3265 41.372 82.3372 41.948H80.1772C80.1985 41.372 80.2999 40.8493 80.4812 40.38C80.6732 39.9 80.9345 39.4893 81.2652 39.148C81.6065 38.8067 82.0119 38.5453 82.4812 38.364C82.9505 38.172 83.4732 38.076 84.0492 38.076C84.4972 38.076 84.9452 38.1453 85.3932 38.284C85.8412 38.412 86.2412 38.6093 86.5932 38.876C86.9559 39.1427 87.2492 39.468 87.4732 39.852C87.6972 40.236 87.8092 40.6787 87.8092 41.18C87.8092 41.724 87.6759 42.204 87.4092 42.62C87.1532 43.036 86.7639 43.3187 86.2412 43.468V43.5C86.8599 43.6387 87.3452 43.9373 87.6972 44.396C88.0492 44.8547 88.2252 45.404 88.2252 46.044C88.2252 46.6307 88.1079 47.1533 87.8732 47.612C87.6492 48.0707 87.3452 48.4547 86.9612 48.764C86.5772 49.0733 86.1345 49.308 85.6332 49.468C85.1319 49.628 84.6092 49.708 84.0652 49.708C83.4359 49.708 82.8599 49.6173 82.3372 49.436C81.8252 49.2547 81.3879 48.9933 81.0252 48.652C80.6625 48.3 80.3799 47.8733 80.1772 47.372C79.9852 46.8707 79.8945 46.2947 79.9052 45.644H82.0652C82.0759 45.9427 82.1239 46.2307 82.2092 46.508C82.2945 46.7747 82.4172 47.0093 82.5772 47.212C82.7372 47.404 82.9345 47.5587 83.1692 47.676C83.4145 47.7933 83.7025 47.852 84.0332 47.852C84.5452 47.852 84.9772 47.6973 85.3292 47.388C85.6812 47.068 85.8572 46.636 85.8572 46.092C85.8572 45.6653 85.7719 45.34 85.6012 45.116C85.4412 44.892 85.2332 44.732 84.9772 44.636C84.7212 44.5293 84.4385 44.4707 84.1292 44.46C83.8305 44.4387 83.5425 44.428 83.2652 44.428V42.828ZM91.1158 43.852C91.1158 44.172 91.1265 44.5613 91.1478 45.02C91.1691 45.468 91.2331 45.9053 91.3398 46.332C91.4571 46.748 91.6385 47.1053 91.8838 47.404C92.1291 47.7027 92.4811 47.852 92.9398 47.852C93.4091 47.852 93.7665 47.7027 94.0118 47.404C94.2678 47.1053 94.4491 46.748 94.5558 46.332C94.6731 45.9053 94.7425 45.468 94.7638 45.02C94.7851 44.5613 94.7958 44.172 94.7958 43.852C94.7958 43.66 94.7905 43.4307 94.7798 43.164C94.7798 42.8867 94.7585 42.604 94.7158 42.316C94.6838 42.028 94.6305 41.7453 94.5558 41.468C94.4918 41.18 94.3905 40.924 94.2518 40.7C94.1131 40.476 93.9371 40.2947 93.7238 40.156C93.5105 40.0173 93.2491 39.948 92.9398 39.948C92.6305 39.948 92.3691 40.0173 92.1558 40.156C91.9531 40.2947 91.7825 40.476 91.6438 40.7C91.5158 40.924 91.4145 41.18 91.3398 41.468C91.2651 41.7453 91.2118 42.028 91.1798 42.316C91.1478 42.604 91.1265 42.8867 91.1158 43.164C91.1158 43.4307 91.1158 43.66 91.1158 43.852ZM88.8438 43.852C88.8438 42.764 88.9505 41.852 89.1638 41.116C89.3878 40.3693 89.6865 39.772 90.0598 39.324C90.4331 38.876 90.8651 38.556 91.3558 38.364C91.8571 38.172 92.3851 38.076 92.9398 38.076C93.5051 38.076 94.0331 38.172 94.5238 38.364C95.0251 38.556 95.4625 38.876 95.8358 39.324C96.2198 39.772 96.5185 40.3693 96.7318 41.116C96.9558 41.852 97.0678 42.764 97.0678 43.852C97.0678 44.972 96.9558 45.9107 96.7318 46.668C96.5185 47.4147 96.2198 48.012 95.8358 48.46C95.4625 48.908 95.0251 49.228 94.5238 49.42C94.0331 49.612 93.5051 49.708 92.9398 49.708C92.3851 49.708 91.8571 49.612 91.3558 49.42C90.8651 49.228 90.4331 48.908 90.0598 48.46C89.6865 48.012 89.3878 47.4147 89.1638 46.668C88.9505 45.9107 88.8438 44.972 88.8438 43.852ZM108.545 43.676H112.289C113.046 43.676 113.659 43.484 114.129 43.1C114.598 42.716 114.833 42.1293 114.833 41.34C114.833 40.5507 114.598 39.964 114.129 39.58C113.659 39.196 113.046 39.004 112.289 39.004H108.545V43.676ZM107.457 38.076H112.529C113.041 38.076 113.505 38.1507 113.921 38.3C114.337 38.4387 114.694 38.652 114.993 38.94C115.291 39.2173 115.521 39.5587 115.681 39.964C115.841 40.3693 115.921 40.828 115.921 41.34C115.921 41.852 115.841 42.3107 115.681 42.716C115.521 43.1213 115.291 43.468 114.993 43.756C114.694 44.0333 114.337 44.2467 113.921 44.396C113.505 44.5347 113.041 44.604 112.529 44.604H108.545V49.5H107.457V38.076ZM119.103 38.076L122.895 48.092L126.831 38.076H128.431V49.5H127.343V39.628H127.311L123.407 49.5H122.383L118.623 39.628H118.591V49.5H117.503V38.076H119.103Z" fill="#FFAA00"/>
<rect x="164" y="25.5" width="36" height="36" rx="12" fill="#FFAA00" fill-opacity="0.12"/>
<path d="M182 49.5C185.866 49.5 189 46.366 189 42.5C189 38.634 185.866 35.5 182 35.5C178.134 35.5 175 38.634 175 42.5C175 46.366 178.134 49.5 182 49.5Z" stroke="#FFAA00" stroke-width="2" stroke-linecap="round" stroke-linejoin="round"/>
<path d="M182 38.8762V43.9405L184.8 45.6286" stroke="#FFAA00" stroke-width="2" stroke-linecap="round" stroke-linejoin="round"/>
</g>
<path d="M7.804 12.108C7.436 12.108 7.076 12.08 6.724 12.024C6.372 11.968 6.04 11.884 5.728 11.772C5.416 11.652 5.136 11.508 4.888 11.34C4.768 11.252 4.684 11.152 4.636 11.04C4.596 10.928 4.584 10.82 4.6 10.716C4.624 10.604 4.672 10.508 4.744 10.428C4.816 10.348 4.904 10.3 5.008 10.284C5.112 10.26 5.228 10.292 5.356 10.38C5.716 10.612 6.096 10.784 6.496 10.896C6.896 11 7.332 11.052 7.804 11.052C8.484 11.052 8.984 10.932 9.304 10.692C9.632 10.444 9.796 10.124 9.796 9.732C9.796 9.412 9.68 9.16 9.448 8.976C9.216 8.784 8.828 8.632 8.284 8.52L7 8.256C6.24 8.096 5.672 7.832 5.296 7.464C4.928 7.096 4.744 6.6 4.744 5.976C4.744 5.6 4.82 5.256 4.972 4.944C5.132 4.632 5.352 4.364 5.632 4.14C5.912 3.908 6.248 3.732 6.64 3.612C7.032 3.492 7.46 3.432 7.924 3.432C8.42 3.432 8.884 3.496 9.316 3.624C9.756 3.752 10.148 3.948 10.492 4.212C10.596 4.284 10.664 4.376 10.696 4.488C10.736 4.592 10.744 4.696 10.72 4.8C10.704 4.904 10.66 4.992 10.588 5.064C10.516 5.136 10.424 5.18 10.312 5.196C10.2 5.204 10.076 5.164 9.94 5.076C9.628 4.868 9.308 4.72 8.98 4.632C8.66 4.536 8.304 4.488 7.912 4.488C7.52 4.488 7.176 4.548 6.88 4.668C6.592 4.788 6.368 4.956 6.208 5.172C6.056 5.388 5.98 5.644 5.98 5.94C5.98 6.276 6.088 6.544 6.304 6.744C6.52 6.944 6.88 7.096 7.384 7.2L8.656 7.464C9.456 7.632 10.052 7.892 10.444 8.244C10.836 8.596 11.032 9.064 11.032 9.648C11.032 10.024 10.956 10.364 10.804 10.668C10.652 10.964 10.436 11.22 10.156 11.436C9.876 11.652 9.536 11.82 9.136 11.94C8.744 12.052 8.3 12.108 7.804 12.108ZM15.0648 12.108C14.4248 12.108 13.8728 11.988 13.4088 11.748C12.9528 11.5 12.5968 11.152 12.3408 10.704C12.0928 10.248 11.9688 9.708 11.9688 9.084C11.9688 8.476 12.0928 7.944 12.3408 7.488C12.5888 7.032 12.9288 6.676 13.3608 6.42C13.7928 6.164 14.2848 6.036 14.8368 6.036C15.2448 6.036 15.6088 6.104 15.9288 6.24C16.2488 6.368 16.5208 6.56 16.7448 6.816C16.9768 7.064 17.1488 7.368 17.2608 7.728C17.3808 8.088 17.4408 8.492 17.4408 8.94C17.4408 9.076 17.4008 9.18 17.3208 9.252C17.2408 9.316 17.1208 9.348 16.9608 9.348H12.9288V8.604H16.6248L16.4208 8.772C16.4208 8.372 16.3608 8.032 16.2408 7.752C16.1288 7.472 15.9568 7.26 15.7248 7.116C15.5008 6.964 15.2208 6.888 14.8848 6.888C14.5088 6.888 14.1888 6.976 13.9248 7.152C13.6688 7.328 13.4728 7.572 13.3368 7.884C13.2008 8.196 13.1328 8.56 13.1328 8.976V9.048C13.1328 9.752 13.2968 10.284 13.6248 10.644C13.9608 10.996 14.4448 11.172 15.0768 11.172C15.3168 11.172 15.5688 11.14 15.8328 11.076C16.1048 11.012 16.3608 10.904 16.6008 10.752C16.7368 10.672 16.8568 10.636 16.9608 10.644C17.0728 10.652 17.1608 10.688 17.2248 10.752C17.2968 10.816 17.3408 10.896 17.3568 10.992C17.3728 11.088 17.3568 11.188 17.3088 11.292C17.2608 11.388 17.1768 11.476 17.0568 11.556C16.7848 11.74 16.4688 11.88 16.1088 11.976C15.7488 12.064 15.4008 12.108 15.0648 12.108ZM21.2464 12.108C20.7664 12.108 20.3624 12.024 20.0344 11.856C19.7064 11.688 19.4624 11.44 19.3024 11.112C19.1424 10.784 19.0624 10.384 19.0624 9.912V7.08H18.3424C18.1824 7.08 18.0584 7.04 17.9704 6.96C17.8824 6.872 17.8384 6.756 17.8384 6.612C17.8384 6.46 17.8824 6.344 17.9704 6.264C18.0584 6.184 18.1824 6.144 18.3424 6.144H19.0624V4.908C19.0624 4.708 19.1144 4.556 19.2184 4.452C19.3304 4.348 19.4824 4.296 19.6744 4.296C19.8664 4.296 20.0144 4.348 20.1184 4.452C20.2224 4.556 20.2744 4.708 20.2744 4.908V6.144H21.6784C21.8384 6.144 21.9624 6.184 22.0504 6.264C22.1384 6.344 22.1824 6.46 22.1824 6.612C22.1824 6.756 22.1384 6.872 22.0504 6.96C21.9624 7.04 21.8384 7.08 21.6784 7.08H20.2744V9.816C20.2744 10.24 20.3624 10.56 20.5384 10.776C20.7224 10.992 21.0184 11.1 21.4264 11.1C21.5704 11.1 21.6944 11.088 21.7984 11.064C21.9104 11.032 22.0024 11.012 22.0744 11.004C22.1624 11.004 22.2344 11.036 22.2904 11.1C22.3464 11.156 22.3744 11.268 22.3744 11.436C22.3744 11.556 22.3504 11.668 22.3024 11.772C22.2624 11.876 22.1864 11.944 22.0744 11.976C21.9784 12.008 21.8464 12.036 21.6784 12.06C21.5184 12.092 21.3744 12.108 21.2464 12.108ZM29.1173 12.084C28.9173 12.084 28.7613 12.028 28.6493 11.916C28.5453 11.804 28.4933 11.648 28.4933 11.448V4.584H25.9493C25.7813 4.584 25.6493 4.54 25.5533 4.452C25.4573 4.356 25.4093 4.224 25.4093 4.056C25.4093 3.888 25.4573 3.76 25.5533 3.672C25.6493 3.584 25.7813 3.54 25.9493 3.54H32.2733C32.4493 3.54 32.5853 3.584 32.6813 3.672C32.7773 3.76 32.8253 3.888 32.8253 4.056C32.8253 4.224 32.7773 4.356 32.6813 4.452C32.5853 4.54 32.4493 4.584 32.2733 4.584H29.7293V11.448C29.7293 11.648 29.6773 11.804 29.5733 11.916C29.4773 12.028 29.3253 12.084 29.1173 12.084ZM34.702 12.072C34.51 12.072 34.362 12.016 34.258 11.904C34.154 11.784 34.102 11.62 34.102 11.412V6.732C34.102 6.524 34.154 6.364 34.258 6.252C34.362 6.14 34.51 6.084 34.702 6.084C34.894 6.084 35.042 6.14 35.146 6.252C35.258 6.364 35.314 6.524 35.314 6.732V11.412C35.314 11.62 35.262 11.784 35.158 11.904C35.054 12.016 34.902 12.072 34.702 12.072ZM34.702 4.836C34.462 4.836 34.274 4.776 34.138 4.656C34.01 4.536 33.946 4.368 33.946 4.152C33.946 3.928 34.01 3.76 34.138 3.648C34.274 3.528 34.462 3.468 34.702 3.468C34.942 3.468 35.126 3.528 35.254 3.648C35.39 3.76 35.458 3.928 35.458 4.152C35.458 4.368 35.39 4.536 35.254 4.656C35.126 4.776 34.942 4.836 34.702 4.836ZM37.644 12.084C37.452 12.084 37.304 12.032 37.2 11.928C37.096 11.816 37.044 11.664 37.044 11.472V6.672C37.044 6.472 37.096 6.32 37.2 6.216C37.304 6.112 37.448 6.06 37.632 6.06C37.824 6.06 37.968 6.112 38.064 6.216C38.168 6.32 38.22 6.472 38.22 6.672V7.656L38.088 7.392C38.248 6.968 38.496 6.636 38.832 6.396C39.168 6.156 39.572 6.036 40.044 6.036C40.532 6.036 40.928 6.152 41.232 6.384C41.536 6.616 41.744 6.972 41.856 7.452H41.688C41.84 7.012 42.1 6.668 42.468 6.42C42.836 6.164 43.264 6.036 43.752 6.036C44.2 6.036 44.568 6.124 44.856 6.3C45.144 6.468 45.36 6.728 45.504 7.08C45.648 7.424 45.72 7.86 45.72 8.388V11.472C45.72 11.664 45.664 11.816 45.552 11.928C45.448 12.032 45.3 12.084 45.108 12.084C44.916 12.084 44.768 12.032 44.664 11.928C44.56 11.816 44.508 11.664 44.508 11.472V8.448C44.508 7.952 44.42 7.588 44.244 7.356C44.076 7.124 43.796 7.008 43.404 7.008C42.964 7.008 42.616 7.16 42.36 7.464C42.104 7.768 41.976 8.188 41.976 8.724V11.472C41.976 11.664 41.924 11.816 41.82 11.928C41.716 12.032 41.568 12.084 41.376 12.084C41.184 12.084 41.032 12.032 40.92 11.928C40.816 11.816 40.764 11.664 40.764 11.472V8.448C40.764 7.952 40.68 7.588 40.512 7.356C40.344 7.124 40.064 7.008 39.672 7.008C39.232 7.008 38.884 7.16 38.628 7.464C38.38 7.768 38.256 8.188 38.256 8.724V11.472C38.256 11.88 38.052 12.084 37.644 12.084ZM50.1625 12.108C49.5225 12.108 48.9705 11.988 48.5065 11.748C48.0505 11.5 47.6945 11.152 47.4385 10.704C47.1905 10.248 47.0665 9.708 47.0665 9.084C47.0665 8.476 47.1905 7.944 47.4385 7.488C47.6865 7.032 48.0265 6.676 48.4585 6.42C48.8905 6.164 49.3825 6.036 49.9345 6.036C50.3425 6.036 50.7065 6.104 51.0265 6.24C51.3465 6.368 51.6185 6.56 51.8425 6.816C52.0745 7.064 52.2465 7.368 52.3585 7.728C52.4785 8.088 52.5385 8.492 52.5385 8.94C52.5385 9.076 52.4985 9.18 52.4185 9.252C52.3385 9.316 52.2185 9.348 52.0585 9.348H48.0265V8.604H51.7225L51.5185 8.772C51.5185 8.372 51.4585 8.032 51.3385 7.752C51.2265 7.472 51.0545 7.26 50.8225 7.116C50.5985 6.964 50.3185 6.888 49.9825 6.888C49.6065 6.888 49.2865 6.976 49.0225 7.152C48.7665 7.328 48.5705 7.572 48.4345 7.884C48.2985 8.196 48.2305 8.56 48.2305 8.976V9.048C48.2305 9.752 48.3945 10.284 48.7225 10.644C49.0585 10.996 49.5425 11.172 50.1745 11.172C50.4145 11.172 50.6665 11.14 50.9305 11.076C51.2025 11.012 51.4585 10.904 51.6985 10.752C51.8345 10.672 51.9545 10.636 52.0585 10.644C52.1705 10.652 52.2585 10.688 52.3225 10.752C52.3945 10.816 52.4385 10.896 52.4545 10.992C52.4705 11.088 52.4545 11.188 52.4065 11.292C52.3585 11.388 52.2745 11.476 52.1545 11.556C51.8825 11.74 51.5665 11.88 51.2065 11.976C50.8465 12.064 50.4985 12.108 50.1625 12.108Z" fill="#64728C"/>
<defs>
<filter id="filter0_d_622_8073" x="0" y="21" width="208" height="53" filterUnits="userSpaceOnUse" color-interpolation-filters="sRGB">
<feFlood flood-opacity="0" result="BackgroundImageFix"/>
<feColorMatrix in="SourceAlpha" type="matrix" values="0 0 0 0 0 0 0 0 0 0 0 0 0 0 0 0 0 0 127 0" result="hardAlpha"/>
<feOffset dy="4"/>
<feGaussianBlur stdDeviation="2"/>
<feComposite in2="hardAlpha" operator="out"/>
<feColorMatrix type="matrix" values="0 0 0 0 1 0 0 0 0 0.666667 0 0 0 0 0 0 0 0 0.12 0"/>
<feBlend mode="normal" in2="BackgroundImageFix" result="effect1_dropShadow_622_8073"/>
<feBlend mode="normal" in="SourceGraphic" in2="effect1_dropShadow_622_8073" result="shape"/>
</filter>
</defs>
</svg>
