<svg width="280" height="219" viewBox="0 0 280 219" fill="none" xmlns="http://www.w3.org/2000/svg">
<g filter="url(#filter0_dd_623_8183)">
<rect x="23" y="72" width="234" height="118" rx="15" fill="white"/>
<rect x="23" y="72" width="234" height="118" rx="15" fill="url(#paint0_linear_623_8183)" fill-opacity="0.2"/>
<rect x="23" y="72" width="234" height="118" rx="15" fill="#64728C" fill-opacity="0.02"/>
<rect x="23.5" y="72.5" width="233" height="117" rx="14.5" stroke="#64728C" stroke-opacity="0.03"/>
<rect x="23.5" y="72.5" width="233" height="117" rx="14.5" stroke="url(#paint1_linear_623_8183)" stroke-opacity="0.2"/>
</g>
<g filter="url(#filter1_i_623_8183)">
<rect x="42" y="109" width="56" height="44" rx="12" fill="white"/>
</g>
<rect x="42.5" y="109.5" width="55" height="43" rx="11.5" stroke="#64728C" stroke-opacity="0.05"/>
<g filter="url(#filter2_i_623_8183)">
<rect x="119" y="110" width="56" height="44" rx="12" fill="white"/>
</g>
<rect x="119.5" y="110.5" width="55" height="43" rx="11.5" stroke="#64728C" stroke-opacity="0.05"/>
<path d="M63.4062 138.281C61.9635 138.281 60.9505 137.776 60.3672 136.766C59.7891 135.755 59.5 134.315 59.5 132.445C59.5 130.576 59.7891 129.133 60.3672 128.117C60.9505 127.102 61.9635 126.594 63.4062 126.594C64.849 126.594 65.862 127.102 66.4453 128.117C67.0234 129.133 67.3125 130.576 67.3125 132.445C67.3125 134.315 67.0208 135.755 66.4375 136.766C65.8594 137.776 64.849 138.281 63.4062 138.281ZM64.7109 135.43C64.9141 134.742 65.0156 133.747 65.0156 132.445C65.0156 131.081 64.9115 130.07 64.7031 129.414C64.5 128.758 64.0677 128.43 63.4062 128.43C62.7448 128.43 62.3073 128.758 62.0938 129.414C61.8802 130.07 61.7734 131.081 61.7734 132.445C61.7734 133.747 61.8802 134.745 62.0938 135.438C62.3073 136.125 62.7448 136.469 63.4062 136.469C64.0677 136.469 64.5026 136.122 64.7109 135.43ZM72.0625 138.328C71.2135 138.328 70.4505 138.078 69.7734 137.578C69.0964 137.073 68.7083 136.339 68.6094 135.375H70.8281C70.8802 135.708 71.0208 135.979 71.25 136.188C71.4792 136.396 71.7839 136.5 72.1641 136.5C72.8984 136.5 73.4141 136.094 73.7109 135.281C73.8724 134.833 73.974 134.18 74.0156 133.32C73.8125 133.576 73.5964 133.771 73.3672 133.906C72.9505 134.156 72.4375 134.281 71.8281 134.281C70.9271 134.281 70.1276 133.971 69.4297 133.352C68.7318 132.727 68.3828 131.828 68.3828 130.656C68.3828 129.443 68.7318 128.461 69.4297 127.711C70.1328 126.956 71.0443 126.578 72.1641 126.578C73.888 126.578 75.0703 127.341 75.7109 128.867C76.0755 129.732 76.2578 130.87 76.2578 132.281C76.2578 133.651 76.0833 134.794 75.7344 135.711C75.0677 137.456 73.8438 138.328 72.0625 138.328ZM71.2812 128.758C70.8542 129.091 70.6406 129.656 70.6406 130.453C70.6406 131.125 70.776 131.63 71.0469 131.969C71.3229 132.302 71.7448 132.469 72.3125 132.469C72.6198 132.469 72.9089 132.38 73.1797 132.203C73.6849 131.88 73.9375 131.32 73.9375 130.523C73.9375 129.883 73.7865 129.375 73.4844 129C73.1875 128.625 72.7786 128.438 72.2578 128.438C71.8776 128.438 71.5521 128.544 71.2812 128.758Z" fill="#64728C"/>
<path d="M144.055 138H141.773V130.188H139.109V128.672C139.812 128.641 140.305 128.594 140.586 128.531C141.034 128.432 141.398 128.234 141.68 127.938C141.872 127.734 142.018 127.464 142.117 127.125C142.174 126.922 142.203 126.771 142.203 126.672H144.055V138ZM151.172 132.375C150.901 132.375 150.667 132.409 150.469 132.477C150.12 132.602 149.857 132.833 149.68 133.172L147.68 133.078L148.477 126.82H154.719V128.711H150.086L149.68 131.188C150.023 130.964 150.292 130.815 150.484 130.742C150.807 130.622 151.201 130.562 151.664 130.562C152.602 130.562 153.419 130.878 154.117 131.508C154.815 132.138 155.164 133.055 155.164 134.258C155.164 135.305 154.828 136.24 154.156 137.062C153.484 137.885 152.479 138.297 151.141 138.297C150.062 138.297 149.177 138.008 148.484 137.43C147.792 136.852 147.406 136.031 147.328 134.969H149.547C149.635 135.453 149.805 135.828 150.055 136.094C150.305 136.354 150.669 136.484 151.148 136.484C151.701 136.484 152.12 136.292 152.406 135.906C152.698 135.516 152.844 135.026 152.844 134.438C152.844 133.859 152.708 133.372 152.438 132.977C152.167 132.576 151.745 132.375 151.172 132.375Z" fill="#64728C"/>
<path d="M188 97C188 91.4772 192.477 87 198 87H228C233.523 87 238 91.4772 238 97V113C238 118.523 233.523 123 228 123H198C192.477 123 188 118.523 188 113V97Z" fill="white"/>
<path d="M188 97C188 91.4772 192.477 87 198 87H228C233.523 87 238 91.4772 238 97V113C238 118.523 233.523 123 228 123H198C192.477 123 188 118.523 188 113V97Z" fill="#64728C" fill-opacity="0.1"/>
<path d="M198 87.5H228C233.247 87.5 237.5 91.7533 237.5 97V113C237.5 118.247 233.247 122.5 228 122.5H198C192.753 122.5 188.5 118.247 188.5 113V97C188.5 91.7533 192.753 87.5 198 87.5Z" stroke="#64728C" stroke-opacity="0.01"/>
<g filter="url(#filter3_dd_623_8183)">
<path d="M188 146C188 140.477 192.477 136 198 136H228C233.523 136 238 140.477 238 146V162C238 167.523 233.523 172 228 172H198C192.477 172 188 167.523 188 162V146Z" fill="white"/>
<path d="M188 146C188 140.477 192.477 136 198 136H228C233.523 136 238 140.477 238 146V162C238 167.523 233.523 172 228 172H198C192.477 172 188 167.523 188 162V146Z" fill="url(#paint2_linear_623_8183)"/>
<path d="M198 136.5H228C233.247 136.5 237.5 140.753 237.5 146V162C237.5 167.247 233.247 171.5 228 171.5H198C192.753 171.5 188.5 167.247 188.5 162V146C188.5 140.753 192.753 136.5 198 136.5Z" stroke="#4DE6E6"/>
<path d="M198 136.5H228C233.247 136.5 237.5 140.753 237.5 146V162C237.5 167.247 233.247 171.5 228 171.5H198C192.753 171.5 188.5 167.247 188.5 162V146C188.5 140.753 192.753 136.5 198 136.5Z" stroke="url(#paint3_linear_623_8183)"/>
</g>
<path d="M69.4821 96.0368C68.5749 97.2265 67.6782 98.3972 66.7875 99.5679L63.9253 103.318C63.6641 103.66 63.3437 103.843 62.9373 103.784C62.7496 103.767 62.5696 103.687 62.4178 103.553C62.266 103.419 62.1486 103.237 62.0788 103.026C61.9223 102.576 62.0039 102.162 62.2786 101.798C62.7367 101.193 63.1993 100.59 63.6596 99.9858C65.3003 97.8364 66.9412 95.685 68.5824 93.5314C68.8878 93.1298 69.2448 92.9163 69.7231 93.0307C69.9554 93.0899 70.1655 93.2381 70.3219 93.4531C72.4606 96.258 74.5987 99.0639 76.7364 101.871C76.8275 101.984 76.8978 102.119 76.9429 102.267C76.9879 102.415 77.0067 102.573 76.9979 102.73C76.9892 102.888 76.9531 103.041 76.8921 103.18C76.8311 103.32 76.7464 103.443 76.6436 103.54L76.6271 103.556C76.1593 104.006 75.5127 103.937 75.095 103.391C73.4408 101.229 71.7884 99.0639 70.1378 96.8941C69.9252 96.6123 69.7081 96.3304 69.4821 96.0368Z" fill="#64728C"/>
<path d="M149.482 96.0368C148.575 97.2265 147.678 98.3972 146.788 99.5679L143.925 103.318C143.664 103.66 143.344 103.843 142.937 103.784C142.75 103.767 142.57 103.687 142.418 103.553C142.266 103.419 142.149 103.237 142.079 103.026C141.922 102.576 142.004 102.162 142.279 101.798C142.737 101.193 143.199 100.59 143.66 99.9858C145.3 97.8364 146.941 95.685 148.582 93.5314C148.888 93.1298 149.245 92.9163 149.723 93.0307C149.955 93.0899 150.165 93.2381 150.322 93.4531C152.461 96.258 154.599 99.0639 156.736 101.871C156.828 101.984 156.898 102.119 156.943 102.267C156.988 102.415 157.007 102.573 156.998 102.73C156.989 102.888 156.953 103.041 156.892 103.18C156.831 103.32 156.746 103.443 156.644 103.54L156.627 103.556C156.159 104.006 155.513 103.937 155.095 103.391C153.441 101.229 151.788 99.0639 150.138 96.8941C149.925 96.6123 149.708 96.3304 149.482 96.0368Z" fill="#64728C"/>
<path d="M69.5179 167.815C70.4251 166.626 71.3218 165.455 72.2125 164.284L75.0747 160.534C75.3359 160.192 75.6563 160.009 76.0627 160.068C76.2504 160.085 76.4304 160.165 76.5822 160.299C76.734 160.433 76.8514 160.616 76.9212 160.826C77.0777 161.276 76.9961 161.69 76.7214 162.054C76.2633 162.66 75.8007 163.262 75.3404 163.866C73.6997 166.016 72.0588 168.167 70.4176 170.321C70.1122 170.722 69.7552 170.936 69.2769 170.821C69.0446 170.762 68.8345 170.614 68.6781 170.399C66.5394 167.594 64.4013 164.788 62.2636 161.981C62.1725 161.868 62.1022 161.733 62.0571 161.585C62.0121 161.437 61.9933 161.279 62.0021 161.122C62.0108 160.965 62.0469 160.811 62.1079 160.672C62.1689 160.532 62.2536 160.41 62.3564 160.312L62.3728 160.297C62.8407 159.846 63.4873 159.915 63.905 160.461C65.5592 162.623 67.2116 164.788 68.8622 166.958C69.0748 167.24 69.2919 167.522 69.5179 167.815Z" fill="#64728C"/>
<path d="M148.518 169.815C149.425 168.626 150.322 167.455 151.212 166.284L154.075 162.534C154.336 162.192 154.656 162.009 155.063 162.068C155.25 162.085 155.43 162.165 155.582 162.299C155.734 162.433 155.851 162.616 155.921 162.826C156.078 163.276 155.996 163.69 155.721 164.054C155.263 164.66 154.801 165.262 154.34 165.866C152.7 168.016 151.059 170.167 149.418 172.321C149.112 172.722 148.755 172.936 148.277 172.821C148.045 172.762 147.835 172.614 147.678 172.399C145.539 169.594 143.401 166.788 141.264 163.981C141.172 163.868 141.102 163.733 141.057 163.585C141.012 163.437 140.993 163.279 141.002 163.122C141.011 162.965 141.047 162.811 141.108 162.672C141.169 162.532 141.254 162.41 141.356 162.312L141.373 162.297C141.841 161.846 142.487 161.915 142.905 162.461C144.559 164.623 146.212 166.788 147.862 168.958C148.075 169.24 148.292 169.522 148.518 169.815Z" fill="#64728C"/>
<path d="M201.2 111.112C201.008 111.112 200.853 111.069 200.736 110.984C200.629 110.899 200.565 110.781 200.544 110.632C200.523 110.483 200.555 110.317 200.64 110.136L205.008 100.248C205.104 100.024 205.227 99.864 205.376 99.768C205.525 99.6613 205.691 99.608 205.872 99.608C206.053 99.608 206.213 99.6613 206.352 99.768C206.501 99.864 206.629 100.024 206.736 100.248L211.104 110.136C211.189 110.317 211.221 110.488 211.2 110.648C211.189 110.797 211.131 110.915 211.024 111C210.917 111.075 210.768 111.112 210.576 111.112C210.363 111.112 210.192 111.059 210.064 110.952C209.936 110.835 209.824 110.669 209.728 110.456L208.592 107.8L209.28 108.184H202.432L203.12 107.8L201.984 110.456C201.888 110.691 201.781 110.861 201.664 110.968C201.547 111.064 201.392 111.112 201.2 111.112ZM205.84 101.4L203.344 107.304L202.96 106.968H208.752L208.384 107.304L205.872 101.4H205.84ZM213.798 111.112C213.585 111.112 213.42 111.048 213.302 110.92C213.185 110.792 213.126 110.621 213.126 110.408V100.312C213.126 100.088 213.185 99.9173 213.302 99.8C213.43 99.672 213.601 99.608 213.814 99.608C214.006 99.608 214.156 99.6453 214.262 99.72C214.38 99.7947 214.486 99.9227 214.582 100.104L218.87 108.152H218.374L222.662 100.104C222.758 99.9227 222.86 99.7947 222.966 99.72C223.073 99.6453 223.222 99.608 223.414 99.608C223.628 99.608 223.793 99.672 223.91 99.8C224.028 99.9173 224.086 100.088 224.086 100.312V110.408C224.086 110.621 224.028 110.792 223.91 110.92C223.804 111.048 223.638 111.112 223.414 111.112C223.19 111.112 223.02 111.048 222.902 110.92C222.796 110.792 222.742 110.621 222.742 110.408V101.784H223.094L219.254 108.968C219.169 109.107 219.078 109.213 218.982 109.288C218.897 109.352 218.774 109.384 218.614 109.384C218.465 109.384 218.337 109.347 218.23 109.272C218.134 109.197 218.049 109.096 217.974 108.968L214.086 101.768H214.47V110.408C214.47 110.621 214.412 110.792 214.294 110.92C214.188 111.048 214.022 111.112 213.798 111.112Z" fill="#64728C"/>
<path d="M203.096 160.112C202.861 160.112 202.68 160.048 202.552 159.92C202.424 159.781 202.36 159.589 202.36 159.344V149.472C202.36 149.227 202.424 149.04 202.552 148.912C202.691 148.784 202.877 148.72 203.112 148.72H206.92C208.136 148.72 209.069 149.019 209.72 149.616C210.381 150.213 210.712 151.051 210.712 152.128C210.712 153.216 210.381 154.059 209.72 154.656C209.069 155.253 208.136 155.552 206.92 155.552H203.848V159.344C203.848 159.589 203.784 159.781 203.656 159.92C203.539 160.048 203.352 160.112 203.096 160.112ZM203.848 154.352H206.728C207.56 154.352 208.184 154.165 208.6 153.792C209.027 153.408 209.24 152.853 209.24 152.128C209.24 151.403 209.027 150.859 208.6 150.496C208.184 150.123 207.56 149.936 206.728 149.936H203.848V154.352ZM213.252 160.112C213.038 160.112 212.873 160.048 212.756 159.92C212.638 159.792 212.58 159.621 212.58 159.408V149.312C212.58 149.088 212.638 148.917 212.756 148.8C212.884 148.672 213.054 148.608 213.268 148.608C213.46 148.608 213.609 148.645 213.716 148.72C213.833 148.795 213.94 148.923 214.036 149.104L218.324 157.152H217.828L222.116 149.104C222.212 148.923 222.313 148.795 222.42 148.72C222.526 148.645 222.676 148.608 222.868 148.608C223.081 148.608 223.246 148.672 223.364 148.8C223.481 148.917 223.54 149.088 223.54 149.312V159.408C223.54 159.621 223.481 159.792 223.364 159.92C223.257 160.048 223.092 160.112 222.868 160.112C222.644 160.112 222.473 160.048 222.356 159.92C222.249 159.792 222.196 159.621 222.196 159.408V150.784H222.548L218.708 157.968C218.622 158.107 218.532 158.213 218.436 158.288C218.35 158.352 218.228 158.384 218.068 158.384C217.918 158.384 217.79 158.347 217.684 158.272C217.588 158.197 217.502 158.096 217.428 157.968L213.539 150.768H213.924V159.408C213.924 159.621 213.865 159.792 213.748 159.92C213.641 160.048 213.476 160.112 213.252 160.112Z" fill="white"/>
<rect x="57.5" y="21.5" width="199" height="44" rx="11.5" stroke="#E8EAEF"/>
<path d="M104.085 43.852C104.085 44.172 104.095 44.5613 104.117 45.02C104.138 45.468 104.202 45.9053 104.309 46.332C104.426 46.748 104.607 47.1053 104.853 47.404C105.098 47.7027 105.45 47.852 105.909 47.852C106.378 47.852 106.735 47.7027 106.981 47.404C107.237 47.1053 107.418 46.748 107.525 46.332C107.642 45.9053 107.711 45.468 107.733 45.02C107.754 44.5613 107.765 44.172 107.765 43.852C107.765 43.66 107.759 43.4307 107.749 43.164C107.749 42.8867 107.727 42.604 107.685 42.316C107.653 42.028 107.599 41.7453 107.525 41.468C107.461 41.18 107.359 40.924 107.221 40.7C107.082 40.476 106.906 40.2947 106.693 40.156C106.479 40.0173 106.218 39.948 105.909 39.948C105.599 39.948 105.338 40.0173 105.125 40.156C104.922 40.2947 104.751 40.476 104.613 40.7C104.485 40.924 104.383 41.18 104.309 41.468C104.234 41.7453 104.181 42.028 104.149 42.316C104.117 42.604 104.095 42.8867 104.085 43.164C104.085 43.4307 104.085 43.66 104.085 43.852ZM101.813 43.852C101.813 42.764 101.919 41.852 102.133 41.116C102.357 40.3693 102.655 39.772 103.029 39.324C103.402 38.876 103.834 38.556 104.325 38.364C104.826 38.172 105.354 38.076 105.909 38.076C106.474 38.076 107.002 38.172 107.493 38.364C107.994 38.556 108.431 38.876 108.805 39.324C109.189 39.772 109.487 40.3693 109.701 41.116C109.925 41.852 110.037 42.764 110.037 43.852C110.037 44.972 109.925 45.9107 109.701 46.668C109.487 47.4147 109.189 48.012 108.805 48.46C108.431 48.908 107.994 49.228 107.493 49.42C107.002 49.612 106.474 49.708 105.909 49.708C105.354 49.708 104.826 49.612 104.325 49.42C103.834 49.228 103.402 48.908 103.029 48.46C102.655 48.012 102.357 47.4147 102.133 46.668C101.919 45.9107 101.813 44.972 101.813 43.852ZM114.687 44.108C114.997 44.108 115.263 44.0547 115.487 43.948C115.711 43.8307 115.898 43.676 116.047 43.484C116.197 43.292 116.309 43.0733 116.383 42.828C116.458 42.572 116.495 42.3053 116.495 42.028C116.495 41.772 116.453 41.5213 116.367 41.276C116.293 41.02 116.175 40.796 116.015 40.604C115.866 40.4013 115.679 40.2413 115.455 40.124C115.231 40.0067 114.975 39.948 114.687 39.948C114.421 39.948 114.181 40.0067 113.967 40.124C113.754 40.2413 113.573 40.396 113.423 40.588C113.274 40.78 113.162 40.9987 113.087 41.244C113.013 41.4893 112.975 41.74 112.975 41.996C112.975 42.2627 113.007 42.524 113.071 42.78C113.146 43.0253 113.253 43.2493 113.391 43.452C113.53 43.644 113.706 43.804 113.919 43.932C114.143 44.0493 114.399 44.108 114.687 44.108ZM113.055 46.62C113.13 46.9933 113.301 47.3187 113.567 47.596C113.834 47.8733 114.165 48.012 114.559 48.012C114.975 48.012 115.317 47.8947 115.583 47.66C115.85 47.4147 116.063 47.1213 116.223 46.78C116.383 46.428 116.495 46.0547 116.559 45.66C116.634 45.2653 116.682 44.9133 116.703 44.604L116.671 44.572C116.362 45.02 115.999 45.34 115.583 45.532C115.167 45.724 114.687 45.82 114.143 45.82C113.663 45.82 113.194 45.7187 112.735 45.516C112.277 45.3027 111.887 45.02 111.567 44.668C111.269 44.3267 111.05 43.9373 110.911 43.5C110.773 43.0627 110.703 42.62 110.703 42.172C110.703 41.596 110.794 41.0627 110.975 40.572C111.167 40.0707 111.434 39.6387 111.775 39.276C112.127 38.9027 112.543 38.6093 113.023 38.396C113.503 38.1827 114.037 38.076 114.623 38.076C115.477 38.076 116.175 38.2467 116.719 38.588C117.274 38.9187 117.717 39.3613 118.047 39.916C118.378 40.46 118.607 41.0787 118.735 41.772C118.863 42.4653 118.927 43.164 118.927 43.868C118.927 44.5613 118.847 45.2547 118.687 45.948C118.527 46.6413 118.271 47.2707 117.919 47.836C117.567 48.3907 117.114 48.844 116.559 49.196C116.005 49.5373 115.327 49.708 114.527 49.708C114.047 49.708 113.599 49.6387 113.183 49.5C112.767 49.372 112.399 49.1747 112.079 48.908C111.759 48.6413 111.498 48.316 111.295 47.932C111.093 47.548 110.959 47.1107 110.895 46.62H113.055ZM127.199 43.836H124.687V41.372H127.199V43.836ZM124.687 47.036H127.199V49.5H124.687V47.036ZM133.209 42.604C133.188 41.964 133.263 41.372 133.433 40.828C133.604 40.2733 133.86 39.7933 134.201 39.388C134.543 38.972 134.969 38.652 135.481 38.428C136.004 38.1933 136.601 38.076 137.273 38.076C137.785 38.076 138.271 38.156 138.729 38.316C139.199 38.476 139.609 38.7053 139.961 39.004C140.313 39.3027 140.591 39.6707 140.793 40.108C141.007 40.5453 141.113 41.036 141.113 41.58C141.113 42.1453 141.023 42.6307 140.841 43.036C140.66 43.4413 140.42 43.804 140.121 44.124C139.823 44.4333 139.481 44.716 139.097 44.972C138.724 45.228 138.345 45.484 137.961 45.74C137.577 45.9853 137.204 46.252 136.841 46.54C136.479 46.828 136.159 47.164 135.881 47.548H141.177V49.5H132.953C132.953 48.8493 133.044 48.284 133.225 47.804C133.417 47.324 133.673 46.8973 133.993 46.524C134.313 46.14 134.687 45.788 135.113 45.468C135.551 45.148 136.009 44.8227 136.489 44.492C136.735 44.3213 136.996 44.1507 137.273 43.98C137.551 43.7987 137.801 43.6013 138.025 43.388C138.26 43.1747 138.452 42.9347 138.601 42.668C138.761 42.4013 138.841 42.0973 138.841 41.756C138.841 41.212 138.681 40.7907 138.361 40.492C138.052 40.1827 137.652 40.028 137.161 40.028C136.831 40.028 136.548 40.108 136.313 40.268C136.089 40.4173 135.908 40.62 135.769 40.876C135.631 41.1213 135.529 41.3987 135.465 41.708C135.412 42.0067 135.385 42.3053 135.385 42.604H133.209ZM149.508 40.172H144.884L144.436 42.716L144.468 42.748C144.777 42.4387 145.108 42.22 145.46 42.092C145.812 41.9533 146.212 41.884 146.66 41.884C147.214 41.884 147.705 41.9853 148.132 42.188C148.558 42.3907 148.916 42.6627 149.204 43.004C149.502 43.3453 149.726 43.7507 149.876 44.22C150.036 44.6787 150.116 45.1693 150.116 45.692C150.116 46.268 150.004 46.8067 149.78 47.308C149.556 47.7987 149.252 48.2253 148.868 48.588C148.494 48.9507 148.057 49.2333 147.556 49.436C147.054 49.628 146.521 49.7187 145.956 49.708C145.412 49.708 144.889 49.6387 144.388 49.5C143.897 49.3507 143.46 49.1267 143.076 48.828C142.692 48.5293 142.382 48.1613 142.148 47.724C141.924 47.276 141.806 46.7587 141.796 46.172H144.068C144.121 46.684 144.313 47.0947 144.644 47.404C144.974 47.7027 145.396 47.852 145.908 47.852C146.206 47.852 146.473 47.7933 146.708 47.676C146.953 47.548 147.156 47.388 147.316 47.196C147.486 46.9933 147.614 46.764 147.7 46.508C147.796 46.2413 147.844 45.9693 147.844 45.692C147.844 45.404 147.801 45.132 147.716 44.876C147.63 44.62 147.502 44.396 147.332 44.204C147.161 44.012 146.958 43.8627 146.724 43.756C146.489 43.6493 146.217 43.596 145.908 43.596C145.502 43.596 145.172 43.6707 144.916 43.82C144.66 43.9587 144.42 44.1827 144.196 44.492H142.148L143.252 38.3H149.508V40.172ZM161.545 43.676H165.289C166.046 43.676 166.659 43.484 167.129 43.1C167.598 42.716 167.833 42.1293 167.833 41.34C167.833 40.5507 167.598 39.964 167.129 39.58C166.659 39.196 166.046 39.004 165.289 39.004H161.545V43.676ZM160.457 38.076H165.529C166.041 38.076 166.505 38.1507 166.921 38.3C167.337 38.4387 167.694 38.652 167.993 38.94C168.291 39.2173 168.521 39.5587 168.681 39.964C168.841 40.3693 168.921 40.828 168.921 41.34C168.921 41.852 168.841 42.3107 168.681 42.716C168.521 43.1213 168.291 43.468 167.993 43.756C167.694 44.0333 167.337 44.2467 166.921 44.396C166.505 44.5347 166.041 44.604 165.529 44.604H161.545V49.5H160.457V38.076ZM172.103 38.076L175.895 48.092L179.831 38.076H181.431V49.5H180.343V39.628H180.311L176.407 49.5H175.383L171.623 39.628H171.591V49.5H170.503V38.076H172.103Z" fill="#64728C"/>
<rect x="217" y="25.5" width="36" height="36" rx="12" fill="#64728C" fill-opacity="0.12"/>
<path d="M235 50.5C238.866 50.5 242 47.366 242 43.5C242 39.634 238.866 36.5 235 36.5C231.134 36.5 228 39.634 228 43.5C228 47.366 231.134 50.5 235 50.5Z" stroke="#64728C" stroke-width="2" stroke-linecap="round" stroke-linejoin="round"/>
<path d="M235 39.8761V44.9405L237.8 46.6286" stroke="#64728C" stroke-width="2" stroke-linecap="round" stroke-linejoin="round"/>
<path d="M60.804 12.108C60.436 12.108 60.076 12.08 59.724 12.024C59.372 11.968 59.04 11.884 58.728 11.772C58.416 11.652 58.136 11.508 57.888 11.34C57.768 11.252 57.684 11.152 57.636 11.04C57.596 10.928 57.584 10.82 57.6 10.716C57.624 10.604 57.672 10.508 57.744 10.428C57.816 10.348 57.904 10.3 58.008 10.284C58.112 10.26 58.228 10.292 58.356 10.38C58.716 10.612 59.096 10.784 59.496 10.896C59.896 11 60.332 11.052 60.804 11.052C61.484 11.052 61.984 10.932 62.304 10.692C62.632 10.444 62.796 10.124 62.796 9.732C62.796 9.412 62.68 9.16 62.448 8.976C62.216 8.784 61.828 8.632 61.284 8.52L60 8.256C59.24 8.096 58.672 7.832 58.296 7.464C57.928 7.096 57.744 6.6 57.744 5.976C57.744 5.6 57.82 5.256 57.972 4.944C58.132 4.632 58.352 4.364 58.632 4.14C58.912 3.908 59.248 3.732 59.64 3.612C60.032 3.492 60.46 3.432 60.924 3.432C61.42 3.432 61.884 3.496 62.316 3.624C62.756 3.752 63.148 3.948 63.492 4.212C63.596 4.284 63.664 4.376 63.696 4.488C63.736 4.592 63.744 4.696 63.72 4.8C63.704 4.904 63.66 4.992 63.588 5.064C63.516 5.136 63.424 5.18 63.312 5.196C63.2 5.204 63.076 5.164 62.94 5.076C62.628 4.868 62.308 4.72 61.98 4.632C61.66 4.536 61.304 4.488 60.912 4.488C60.52 4.488 60.176 4.548 59.88 4.668C59.592 4.788 59.368 4.956 59.208 5.172C59.056 5.388 58.98 5.644 58.98 5.94C58.98 6.276 59.088 6.544 59.304 6.744C59.52 6.944 59.88 7.096 60.384 7.2L61.656 7.464C62.456 7.632 63.052 7.892 63.444 8.244C63.836 8.596 64.032 9.064 64.032 9.648C64.032 10.024 63.956 10.364 63.804 10.668C63.652 10.964 63.436 11.22 63.156 11.436C62.876 11.652 62.536 11.82 62.136 11.94C61.744 12.052 61.3 12.108 60.804 12.108ZM68.0648 12.108C67.4248 12.108 66.8728 11.988 66.4088 11.748C65.9528 11.5 65.5968 11.152 65.3408 10.704C65.0928 10.248 64.9688 9.708 64.9688 9.084C64.9688 8.476 65.0928 7.944 65.3408 7.488C65.5888 7.032 65.9288 6.676 66.3608 6.42C66.7928 6.164 67.2848 6.036 67.8368 6.036C68.2448 6.036 68.6088 6.104 68.9288 6.24C69.2488 6.368 69.5208 6.56 69.7448 6.816C69.9768 7.064 70.1488 7.368 70.2608 7.728C70.3808 8.088 70.4408 8.492 70.4408 8.94C70.4408 9.076 70.4008 9.18 70.3208 9.252C70.2408 9.316 70.1208 9.348 69.9608 9.348H65.9288V8.604H69.6248L69.4208 8.772C69.4208 8.372 69.3608 8.032 69.2408 7.752C69.1288 7.472 68.9568 7.26 68.7248 7.116C68.5008 6.964 68.2208 6.888 67.8848 6.888C67.5088 6.888 67.1888 6.976 66.9248 7.152C66.6688 7.328 66.4728 7.572 66.3368 7.884C66.2008 8.196 66.1328 8.56 66.1328 8.976V9.048C66.1328 9.752 66.2968 10.284 66.6248 10.644C66.9608 10.996 67.4448 11.172 68.0768 11.172C68.3168 11.172 68.5688 11.14 68.8328 11.076C69.1048 11.012 69.3608 10.904 69.6008 10.752C69.7368 10.672 69.8568 10.636 69.9608 10.644C70.0728 10.652 70.1608 10.688 70.2248 10.752C70.2968 10.816 70.3408 10.896 70.3568 10.992C70.3728 11.088 70.3568 11.188 70.3088 11.292C70.2608 11.388 70.1768 11.476 70.0568 11.556C69.7848 11.74 69.4688 11.88 69.1088 11.976C68.7488 12.064 68.4008 12.108 68.0648 12.108ZM74.2464 12.108C73.7664 12.108 73.3624 12.024 73.0344 11.856C72.7064 11.688 72.4624 11.44 72.3024 11.112C72.1424 10.784 72.0624 10.384 72.0624 9.912V7.08H71.3424C71.1824 7.08 71.0584 7.04 70.9704 6.96C70.8824 6.872 70.8384 6.756 70.8384 6.612C70.8384 6.46 70.8824 6.344 70.9704 6.264C71.0584 6.184 71.1824 6.144 71.3424 6.144H72.0624V4.908C72.0624 4.708 72.1144 4.556 72.2184 4.452C72.3304 4.348 72.4824 4.296 72.6744 4.296C72.8664 4.296 73.0144 4.348 73.1184 4.452C73.2224 4.556 73.2744 4.708 73.2744 4.908V6.144H74.6784C74.8384 6.144 74.9624 6.184 75.0504 6.264C75.1384 6.344 75.1824 6.46 75.1824 6.612C75.1824 6.756 75.1384 6.872 75.0504 6.96C74.9624 7.04 74.8384 7.08 74.6784 7.08H73.2744V9.816C73.2744 10.24 73.3624 10.56 73.5384 10.776C73.7224 10.992 74.0184 11.1 74.4264 11.1C74.5704 11.1 74.6944 11.088 74.7984 11.064C74.9104 11.032 75.0024 11.012 75.0744 11.004C75.1624 11.004 75.2344 11.036 75.2904 11.1C75.3464 11.156 75.3744 11.268 75.3744 11.436C75.3744 11.556 75.3504 11.668 75.3024 11.772C75.2624 11.876 75.1864 11.944 75.0744 11.976C74.9784 12.008 74.8464 12.036 74.6784 12.06C74.5184 12.092 74.3744 12.108 74.2464 12.108ZM82.1173 12.084C81.9173 12.084 81.7613 12.028 81.6493 11.916C81.5453 11.804 81.4933 11.648 81.4933 11.448V4.584H78.9493C78.7813 4.584 78.6493 4.54 78.5533 4.452C78.4573 4.356 78.4093 4.224 78.4093 4.056C78.4093 3.888 78.4573 3.76 78.5533 3.672C78.6493 3.584 78.7813 3.54 78.9493 3.54H85.2733C85.4493 3.54 85.5853 3.584 85.6813 3.672C85.7773 3.76 85.8253 3.888 85.8253 4.056C85.8253 4.224 85.7773 4.356 85.6813 4.452C85.5853 4.54 85.4493 4.584 85.2733 4.584H82.7293V11.448C82.7293 11.648 82.6773 11.804 82.5733 11.916C82.4773 12.028 82.3253 12.084 82.1173 12.084ZM87.702 12.072C87.51 12.072 87.362 12.016 87.258 11.904C87.154 11.784 87.102 11.62 87.102 11.412V6.732C87.102 6.524 87.154 6.364 87.258 6.252C87.362 6.14 87.51 6.084 87.702 6.084C87.894 6.084 88.042 6.14 88.146 6.252C88.258 6.364 88.314 6.524 88.314 6.732V11.412C88.314 11.62 88.262 11.784 88.158 11.904C88.054 12.016 87.902 12.072 87.702 12.072ZM87.702 4.836C87.462 4.836 87.274 4.776 87.138 4.656C87.01 4.536 86.946 4.368 86.946 4.152C86.946 3.928 87.01 3.76 87.138 3.648C87.274 3.528 87.462 3.468 87.702 3.468C87.942 3.468 88.126 3.528 88.254 3.648C88.39 3.76 88.458 3.928 88.458 4.152C88.458 4.368 88.39 4.536 88.254 4.656C88.126 4.776 87.942 4.836 87.702 4.836ZM90.644 12.084C90.452 12.084 90.304 12.032 90.2 11.928C90.096 11.816 90.044 11.664 90.044 11.472V6.672C90.044 6.472 90.096 6.32 90.2 6.216C90.304 6.112 90.448 6.06 90.632 6.06C90.824 6.06 90.968 6.112 91.064 6.216C91.168 6.32 91.22 6.472 91.22 6.672V7.656L91.088 7.392C91.248 6.968 91.496 6.636 91.832 6.396C92.168 6.156 92.572 6.036 93.044 6.036C93.532 6.036 93.928 6.152 94.232 6.384C94.536 6.616 94.744 6.972 94.856 7.452H94.688C94.84 7.012 95.1 6.668 95.468 6.42C95.836 6.164 96.264 6.036 96.752 6.036C97.2 6.036 97.568 6.124 97.856 6.3C98.144 6.468 98.36 6.728 98.504 7.08C98.648 7.424 98.72 7.86 98.72 8.388V11.472C98.72 11.664 98.664 11.816 98.552 11.928C98.448 12.032 98.3 12.084 98.108 12.084C97.916 12.084 97.768 12.032 97.664 11.928C97.56 11.816 97.508 11.664 97.508 11.472V8.448C97.508 7.952 97.42 7.588 97.244 7.356C97.076 7.124 96.796 7.008 96.404 7.008C95.964 7.008 95.616 7.16 95.36 7.464C95.104 7.768 94.976 8.188 94.976 8.724V11.472C94.976 11.664 94.924 11.816 94.82 11.928C94.716 12.032 94.568 12.084 94.376 12.084C94.184 12.084 94.032 12.032 93.92 11.928C93.816 11.816 93.764 11.664 93.764 11.472V8.448C93.764 7.952 93.68 7.588 93.512 7.356C93.344 7.124 93.064 7.008 92.672 7.008C92.232 7.008 91.884 7.16 91.628 7.464C91.38 7.768 91.256 8.188 91.256 8.724V11.472C91.256 11.88 91.052 12.084 90.644 12.084ZM103.163 12.108C102.523 12.108 101.971 11.988 101.507 11.748C101.051 11.5 100.695 11.152 100.439 10.704C100.191 10.248 100.067 9.708 100.067 9.084C100.067 8.476 100.191 7.944 100.439 7.488C100.687 7.032 101.027 6.676 101.459 6.42C101.891 6.164 102.383 6.036 102.935 6.036C103.343 6.036 103.707 6.104 104.027 6.24C104.347 6.368 104.619 6.56 104.843 6.816C105.075 7.064 105.247 7.368 105.359 7.728C105.479 8.088 105.539 8.492 105.539 8.94C105.539 9.076 105.499 9.18 105.419 9.252C105.339 9.316 105.219 9.348 105.059 9.348H101.027V8.604H104.723L104.519 8.772C104.519 8.372 104.459 8.032 104.339 7.752C104.227 7.472 104.055 7.26 103.823 7.116C103.599 6.964 103.319 6.888 102.983 6.888C102.607 6.888 102.287 6.976 102.023 7.152C101.767 7.328 101.571 7.572 101.435 7.884C101.299 8.196 101.231 8.56 101.231 8.976V9.048C101.231 9.752 101.395 10.284 101.723 10.644C102.059 10.996 102.543 11.172 103.175 11.172C103.415 11.172 103.667 11.14 103.931 11.076C104.203 11.012 104.459 10.904 104.699 10.752C104.835 10.672 104.955 10.636 105.059 10.644C105.171 10.652 105.259 10.688 105.323 10.752C105.395 10.816 105.439 10.896 105.455 10.992C105.471 11.088 105.455 11.188 105.407 11.292C105.359 11.388 105.275 11.476 105.155 11.556C104.883 11.74 104.567 11.88 104.207 11.976C103.847 12.064 103.499 12.108 103.163 12.108Z" fill="#64728C"/>
<circle cx="108.5" cy="124.5" r="2.5" fill="#64728C" fill-opacity="0.25"/>
<circle cx="108.5" cy="139.5" r="2.5" fill="#64728C" fill-opacity="0.25"/>
<defs>
<filter id="filter0_dd_623_8183" x="0" y="55" width="280" height="164" filterUnits="userSpaceOnUse" color-interpolation-filters="sRGB">
<feFlood flood-opacity="0" result="BackgroundImageFix"/>
<feColorMatrix in="SourceAlpha" type="matrix" values="0 0 0 0 0 0 0 0 0 0 0 0 0 0 0 0 0 0 127 0" result="hardAlpha"/>
<feOffset dy="6"/>
<feGaussianBlur stdDeviation="11.5"/>
<feComposite in2="hardAlpha" operator="out"/>
<feColorMatrix type="matrix" values="0 0 0 0 0 0 0 0 0 0 0 0 0 0 0 0 0 0 0.12 0"/>
<feBlend mode="normal" in2="BackgroundImageFix" result="effect1_dropShadow_623_8183"/>
<feColorMatrix in="SourceAlpha" type="matrix" values="0 0 0 0 0 0 0 0 0 0 0 0 0 0 0 0 0 0 127 0" result="hardAlpha"/>
<feOffset dy="-5"/>
<feGaussianBlur stdDeviation="2"/>
<feComposite in2="hardAlpha" operator="out"/>
<feColorMatrix type="matrix" values="0 0 0 0 1 0 0 0 0 1 0 0 0 0 1 0 0 0 1 0"/>
<feBlend mode="normal" in2="effect1_dropShadow_623_8183" result="effect2_dropShadow_623_8183"/>
<feBlend mode="normal" in="SourceGraphic" in2="effect2_dropShadow_623_8183" result="shape"/>
</filter>
<filter id="filter1_i_623_8183" x="42" y="109" width="56" height="48" filterUnits="userSpaceOnUse" color-interpolation-filters="sRGB">
<feFlood flood-opacity="0" result="BackgroundImageFix"/>
<feBlend mode="normal" in="SourceGraphic" in2="BackgroundImageFix" result="shape"/>
<feColorMatrix in="SourceAlpha" type="matrix" values="0 0 0 0 0 0 0 0 0 0 0 0 0 0 0 0 0 0 127 0" result="hardAlpha"/>
<feOffset dy="4"/>
<feGaussianBlur stdDeviation="3"/>
<feComposite in2="hardAlpha" operator="arithmetic" k2="-1" k3="1"/>
<feColorMatrix type="matrix" values="0 0 0 0 0.392157 0 0 0 0 0.447059 0 0 0 0 0.54902 0 0 0 0.1 0"/>
<feBlend mode="normal" in2="shape" result="effect1_innerShadow_623_8183"/>
</filter>
<filter id="filter2_i_623_8183" x="119" y="110" width="56" height="48" filterUnits="userSpaceOnUse" color-interpolation-filters="sRGB">
<feFlood flood-opacity="0" result="BackgroundImageFix"/>
<feBlend mode="normal" in="SourceGraphic" in2="BackgroundImageFix" result="shape"/>
<feColorMatrix in="SourceAlpha" type="matrix" values="0 0 0 0 0 0 0 0 0 0 0 0 0 0 0 0 0 0 127 0" result="hardAlpha"/>
<feOffset dy="4"/>
<feGaussianBlur stdDeviation="3"/>
<feComposite in2="hardAlpha" operator="arithmetic" k2="-1" k3="1"/>
<feColorMatrix type="matrix" values="0 0 0 0 0.392157 0 0 0 0 0.447059 0 0 0 0 0.54902 0 0 0 0.1 0"/>
<feBlend mode="normal" in2="shape" result="effect1_innerShadow_623_8183"/>
</filter>
<filter id="filter3_dd_623_8183" x="178" y="121" width="70" height="65" filterUnits="userSpaceOnUse" color-interpolation-filters="sRGB">
<feFlood flood-opacity="0" result="BackgroundImageFix"/>
<feColorMatrix in="SourceAlpha" type="matrix" values="0 0 0 0 0 0 0 0 0 0 0 0 0 0 0 0 0 0 127 0" result="hardAlpha"/>
<feOffset dy="-5"/>
<feGaussianBlur stdDeviation="5"/>
<feComposite in2="hardAlpha" operator="out"/>
<feColorMatrix type="matrix" values="0 0 0 0 1 0 0 0 0 1 0 0 0 0 1 0 0 0 1 0"/>
<feBlend mode="normal" in2="BackgroundImageFix" result="effect1_dropShadow_623_8183"/>
<feColorMatrix in="SourceAlpha" type="matrix" values="0 0 0 0 0 0 0 0 0 0 0 0 0 0 0 0 0 0 127 0" result="hardAlpha"/>
<feOffset dy="4"/>
<feGaussianBlur stdDeviation="5"/>
<feComposite in2="hardAlpha" operator="out"/>
<feColorMatrix type="matrix" values="0 0 0 0 0.301961 0 0 0 0 0.901961 0 0 0 0 0.901961 0 0 0 0.25 0"/>
<feBlend mode="normal" in2="effect1_dropShadow_623_8183" result="effect2_dropShadow_623_8183"/>
<feBlend mode="normal" in="SourceGraphic" in2="effect2_dropShadow_623_8183" result="shape"/>
</filter>
<linearGradient id="paint0_linear_623_8183" x1="140" y1="126.959" x2="140" y2="190" gradientUnits="userSpaceOnUse">
<stop stop-color="white" stop-opacity="0.64"/>
<stop offset="1" stop-color="#64728C" stop-opacity="0.18"/>
</linearGradient>
<linearGradient id="paint1_linear_623_8183" x1="140" y1="72" x2="140" y2="190" gradientUnits="userSpaceOnUse">
<stop stop-color="#64728C" stop-opacity="0.09"/>
<stop offset="1" stop-color="#64728C" stop-opacity="0.32"/>
</linearGradient>
<linearGradient id="paint2_linear_623_8183" x1="213" y1="154" x2="213" y2="172" gradientUnits="userSpaceOnUse">
<stop stop-color="#4CE5E5"/>
<stop offset="1" stop-color="#3DD7D7"/>
</linearGradient>
<linearGradient id="paint3_linear_623_8183" x1="213" y1="136" x2="213" y2="172" gradientUnits="userSpaceOnUse">
<stop stop-color="#4DE6E6"/>
<stop offset="1" stop-color="#41CECE"/>
</linearGradient>
</defs>
</svg>
