<svg width="301" height="64" viewBox="0 0 301 64" fill="none" xmlns="http://www.w3.org/2000/svg">
<rect x="0.5" y="20.5" width="300" height="43" rx="9.5" fill="white" stroke="#E8EAEF"/>
<path d="M1.716 12.096C1.468 12.096 1.272 12.028 1.128 11.892C0.992 11.748 0.924 11.544 0.924 11.28V4.356C0.924 4.092 0.992 3.892 1.128 3.756C1.272 3.612 1.476 3.54 1.74 3.54H5.928C6.136 3.54 6.292 3.592 6.396 3.696C6.5 3.8 6.552 3.948 6.552 4.14C6.552 4.34 6.5 4.496 6.396 4.608C6.292 4.712 6.136 4.764 5.928 4.764H2.46V7.152H5.676C5.876 7.152 6.028 7.204 6.132 7.308C6.244 7.412 6.3 7.56 6.3 7.752C6.3 7.952 6.244 8.108 6.132 8.22C6.028 8.324 5.876 8.376 5.676 8.376H2.46V11.28C2.46 11.824 2.212 12.096 1.716 12.096ZM8.74275 12.084C8.50275 12.084 8.31875 12.012 8.19075 11.868C8.06275 11.724 7.99875 11.524 7.99875 11.268V6.864C7.99875 6.6 8.06275 6.4 8.19075 6.264C8.31875 6.12 8.50275 6.048 8.74275 6.048C8.98275 6.048 9.16675 6.12 9.29475 6.264C9.43075 6.4 9.49875 6.6 9.49875 6.864V11.268C9.49875 11.524 9.43475 11.724 9.30675 11.868C9.17875 12.012 8.99075 12.084 8.74275 12.084ZM8.74275 4.932C8.46275 4.932 8.24275 4.864 8.08275 4.728C7.93075 4.584 7.85475 4.388 7.85475 4.14C7.85475 3.884 7.93075 3.688 8.08275 3.552C8.24275 3.416 8.46275 3.348 8.74275 3.348C9.03075 3.348 9.25075 3.416 9.40275 3.552C9.55475 3.688 9.63075 3.884 9.63075 4.14C9.63075 4.388 9.55475 4.584 9.40275 4.728C9.25075 4.864 9.03075 4.932 8.74275 4.932ZM11.8253 12.096C11.5773 12.096 11.3853 12.032 11.2493 11.904C11.1213 11.768 11.0573 11.576 11.0573 11.328V6.792C11.0573 6.544 11.1213 6.356 11.2493 6.228C11.3773 6.1 11.5573 6.036 11.7893 6.036C12.0213 6.036 12.2013 6.1 12.3293 6.228C12.4573 6.356 12.5213 6.544 12.5213 6.792V7.548H12.4013C12.5133 7.068 12.7333 6.704 13.0613 6.456C13.3893 6.208 13.8253 6.06 14.3693 6.012C14.5373 5.996 14.6693 6.04 14.7653 6.144C14.8693 6.24 14.9293 6.392 14.9453 6.6C14.9613 6.8 14.9133 6.964 14.8013 7.092C14.6973 7.212 14.5373 7.284 14.3213 7.308L14.0573 7.332C13.5693 7.38 13.2013 7.532 12.9533 7.788C12.7053 8.036 12.5813 8.388 12.5813 8.844V11.328C12.5813 11.576 12.5173 11.768 12.3893 11.904C12.2613 12.032 12.0733 12.096 11.8253 12.096ZM17.846 12.12C17.502 12.12 17.138 12.084 16.754 12.012C16.37 11.94 16.026 11.816 15.722 11.64C15.594 11.56 15.502 11.468 15.446 11.364C15.398 11.252 15.378 11.144 15.386 11.04C15.402 10.928 15.442 10.832 15.506 10.752C15.578 10.672 15.666 10.62 15.77 10.596C15.882 10.572 16.002 10.592 16.13 10.656C16.45 10.808 16.75 10.916 17.03 10.98C17.31 11.036 17.586 11.064 17.858 11.064C18.242 11.064 18.526 11 18.71 10.872C18.902 10.736 18.998 10.56 18.998 10.344C18.998 10.16 18.934 10.02 18.806 9.924C18.686 9.82 18.502 9.744 18.254 9.696L17.054 9.468C16.558 9.372 16.178 9.192 15.914 8.928C15.658 8.656 15.53 8.308 15.53 7.884C15.53 7.5 15.634 7.168 15.842 6.888C16.058 6.608 16.354 6.392 16.73 6.24C17.106 6.088 17.538 6.012 18.026 6.012C18.378 6.012 18.706 6.052 19.01 6.132C19.322 6.204 19.622 6.32 19.91 6.48C20.03 6.544 20.11 6.628 20.15 6.732C20.198 6.836 20.21 6.944 20.186 7.056C20.162 7.16 20.114 7.256 20.042 7.344C19.97 7.424 19.878 7.476 19.766 7.5C19.662 7.516 19.542 7.492 19.406 7.428C19.158 7.3 18.918 7.208 18.686 7.152C18.462 7.096 18.246 7.068 18.038 7.068C17.646 7.068 17.354 7.136 17.162 7.272C16.978 7.408 16.886 7.588 16.886 7.812C16.886 7.98 16.942 8.12 17.054 8.232C17.166 8.344 17.338 8.42 17.57 8.46L18.77 8.688C19.29 8.784 19.682 8.96 19.946 9.216C20.218 9.472 20.354 9.816 20.354 10.248C20.354 10.832 20.126 11.292 19.67 11.628C19.214 11.956 18.606 12.12 17.846 12.12ZM24.1868 12.12C23.6668 12.12 23.2308 12.032 22.8788 11.856C22.5348 11.68 22.2788 11.424 22.1108 11.088C21.9428 10.744 21.8588 10.32 21.8588 9.816V7.26H21.2348C21.0428 7.26 20.8948 7.212 20.7908 7.116C20.6867 7.012 20.6347 6.872 20.6347 6.696C20.6347 6.512 20.6867 6.372 20.7908 6.276C20.8948 6.18 21.0428 6.132 21.2348 6.132H21.8588V5.04C21.8588 4.792 21.9228 4.604 22.0508 4.476C22.1868 4.348 22.3748 4.284 22.6148 4.284C22.8548 4.284 23.0388 4.348 23.1668 4.476C23.2948 4.604 23.3588 4.792 23.3588 5.04V6.132H24.6308C24.8228 6.132 24.9708 6.18 25.0748 6.276C25.1788 6.372 25.2308 6.512 25.2308 6.696C25.2308 6.872 25.1788 7.012 25.0748 7.116C24.9708 7.212 24.8228 7.26 24.6308 7.26H23.3588V9.732C23.3588 10.116 23.4428 10.404 23.6108 10.596C23.7788 10.788 24.0508 10.884 24.4268 10.884C24.5628 10.884 24.6828 10.872 24.7868 10.848C24.8908 10.824 24.9828 10.808 25.0628 10.8C25.1588 10.792 25.2388 10.824 25.3028 10.896C25.3668 10.96 25.3988 11.096 25.3988 11.304C25.3988 11.464 25.3708 11.608 25.3148 11.736C25.2668 11.856 25.1748 11.94 25.0388 11.988C24.9348 12.02 24.7988 12.048 24.6308 12.072C24.4628 12.104 24.3148 12.12 24.1868 12.12ZM30.226 12.096C29.994 12.096 29.814 12.032 29.686 11.904C29.566 11.776 29.506 11.592 29.506 11.352V4.212C29.506 3.964 29.566 3.776 29.686 3.648C29.814 3.512 29.978 3.444 30.178 3.444C30.362 3.444 30.498 3.48 30.586 3.552C30.682 3.616 30.794 3.728 30.922 3.888L35.518 9.852H35.206V4.176C35.206 3.944 35.266 3.764 35.386 3.636C35.514 3.508 35.694 3.444 35.926 3.444C36.158 3.444 36.334 3.508 36.454 3.636C36.574 3.764 36.634 3.944 36.634 4.176V11.376C36.634 11.6 36.578 11.776 36.466 11.904C36.354 12.032 36.202 12.096 36.01 12.096C35.826 12.096 35.678 12.06 35.566 11.988C35.462 11.916 35.346 11.8 35.218 11.64L30.634 5.676H30.934V11.352C30.934 11.592 30.874 11.776 30.754 11.904C30.634 12.032 30.458 12.096 30.226 12.096ZM40.2706 12.12C39.8466 12.12 39.4666 12.04 39.1306 11.88C38.8026 11.712 38.5426 11.488 38.3506 11.208C38.1666 10.928 38.0746 10.612 38.0746 10.26C38.0746 9.828 38.1866 9.488 38.4106 9.24C38.6346 8.984 38.9986 8.8 39.5026 8.688C40.0066 8.576 40.6826 8.52 41.5306 8.52H42.1306V9.384H41.5426C41.0466 9.384 40.6506 9.408 40.3546 9.456C40.0586 9.504 39.8466 9.588 39.7186 9.708C39.5986 9.82 39.5386 9.98 39.5386 10.188C39.5386 10.452 39.6306 10.668 39.8146 10.836C39.9986 11.004 40.2546 11.088 40.5826 11.088C40.8466 11.088 41.0786 11.028 41.2786 10.908C41.4866 10.78 41.6506 10.608 41.7706 10.392C41.8906 10.176 41.9506 9.928 41.9506 9.648V8.268C41.9506 7.868 41.8626 7.58 41.6866 7.404C41.5106 7.228 41.2146 7.14 40.7986 7.14C40.5666 7.14 40.3146 7.168 40.0426 7.224C39.7786 7.28 39.4986 7.376 39.2026 7.512C39.0506 7.584 38.9146 7.604 38.7946 7.572C38.6826 7.54 38.5946 7.476 38.5306 7.38C38.4666 7.276 38.4346 7.164 38.4346 7.044C38.4346 6.924 38.4666 6.808 38.5306 6.696C38.5946 6.576 38.7026 6.488 38.8546 6.432C39.2226 6.28 39.5746 6.172 39.9106 6.108C40.2546 6.044 40.5666 6.012 40.8466 6.012C41.4226 6.012 41.8946 6.1 42.2626 6.276C42.6386 6.452 42.9186 6.72 43.1026 7.08C43.2866 7.432 43.3786 7.888 43.3786 8.448V11.328C43.3786 11.576 43.3186 11.768 43.1986 11.904C43.0786 12.032 42.9066 12.096 42.6826 12.096C42.4586 12.096 42.2826 12.032 42.1546 11.904C42.0346 11.768 41.9746 11.576 41.9746 11.328V10.752H42.0706C42.0146 11.032 41.9026 11.276 41.7346 11.484C41.5746 11.684 41.3706 11.84 41.1226 11.952C40.8746 12.064 40.5906 12.12 40.2706 12.12ZM45.6691 12.096C45.4291 12.096 45.2451 12.032 45.1171 11.904C44.9891 11.768 44.9251 11.576 44.9251 11.328V6.792C44.9251 6.544 44.9891 6.356 45.1171 6.228C45.2451 6.1 45.4251 6.036 45.6571 6.036C45.8891 6.036 46.0691 6.1 46.1971 6.228C46.3251 6.356 46.3891 6.544 46.3891 6.792V7.668L46.2571 7.308C46.4171 6.908 46.6651 6.592 47.0011 6.36C47.3371 6.128 47.7371 6.012 48.2011 6.012C48.6731 6.012 49.0611 6.124 49.3651 6.348C49.6691 6.572 49.8811 6.916 50.0011 7.38H49.8331C49.9931 6.956 50.2571 6.624 50.6251 6.384C50.9931 6.136 51.4171 6.012 51.8971 6.012C52.3451 6.012 52.7131 6.1 53.0011 6.276C53.2971 6.452 53.5171 6.72 53.6611 7.08C53.8051 7.432 53.8771 7.88 53.8771 8.424V11.328C53.8771 11.576 53.8091 11.768 53.6731 11.904C53.5451 12.032 53.3611 12.096 53.1211 12.096C52.8811 12.096 52.6971 12.032 52.5691 11.904C52.4411 11.768 52.3771 11.576 52.3771 11.328V8.484C52.3771 8.036 52.3011 7.708 52.1491 7.5C52.0051 7.292 51.7571 7.188 51.4051 7.188C51.0131 7.188 50.7051 7.328 50.4811 7.608C50.2571 7.88 50.1451 8.26 50.1451 8.748V11.328C50.1451 11.576 50.0811 11.768 49.9531 11.904C49.8251 12.032 49.6411 12.096 49.4011 12.096C49.1611 12.096 48.9731 12.032 48.8371 11.904C48.7091 11.768 48.6451 11.576 48.6451 11.328V8.484C48.6451 8.036 48.5691 7.708 48.4171 7.5C48.2731 7.292 48.0291 7.188 47.6851 7.188C47.2931 7.188 46.9851 7.328 46.7611 7.608C46.5371 7.88 46.4251 8.26 46.4251 8.748V11.328C46.4251 11.84 46.1731 12.096 45.6691 12.096ZM58.3165 12.12C57.6525 12.12 57.0805 11.996 56.6005 11.748C56.1205 11.5 55.7485 11.148 55.4845 10.692C55.2285 10.236 55.1005 9.696 55.1005 9.072C55.1005 8.464 55.2245 7.932 55.4725 7.476C55.7285 7.02 56.0765 6.664 56.5165 6.408C56.9645 6.144 57.4725 6.012 58.0405 6.012C58.4565 6.012 58.8285 6.08 59.1565 6.216C59.4925 6.352 59.7765 6.548 60.0085 6.804C60.2485 7.06 60.4285 7.372 60.5485 7.74C60.6765 8.1 60.7405 8.508 60.7405 8.964C60.7405 9.108 60.6885 9.22 60.5845 9.3C60.4885 9.372 60.3485 9.408 60.1645 9.408H56.3125V8.544H59.6845L59.4925 8.724C59.4925 8.356 59.4365 8.048 59.3245 7.8C59.2205 7.552 59.0645 7.364 58.8565 7.236C58.6565 7.1 58.4045 7.032 58.1005 7.032C57.7645 7.032 57.4765 7.112 57.2365 7.272C57.0045 7.424 56.8245 7.644 56.6965 7.932C56.5765 8.212 56.5165 8.548 56.5165 8.94V9.024C56.5165 9.68 56.6685 10.172 56.9725 10.5C57.2845 10.82 57.7405 10.98 58.3405 10.98C58.5485 10.98 58.7805 10.956 59.0365 10.908C59.3005 10.852 59.5485 10.76 59.7805 10.632C59.9485 10.536 60.0965 10.496 60.2245 10.512C60.3525 10.52 60.4525 10.564 60.5245 10.644C60.6045 10.724 60.6525 10.824 60.6685 10.944C60.6845 11.056 60.6605 11.172 60.5965 11.292C60.5405 11.412 60.4405 11.516 60.2965 11.604C60.0165 11.78 59.6925 11.912 59.3245 12C58.9645 12.08 58.6285 12.12 58.3165 12.12ZM62.4495 7.704C62.3055 7.616 62.2215 7.504 62.1975 7.368C62.1735 7.232 62.2135 7.088 62.3175 6.936L63.0855 5.76L63.3015 6.072L61.8975 6.144C61.7135 6.152 61.5655 6.116 61.4535 6.036C61.3415 5.948 61.2855 5.82 61.2855 5.652C61.2855 5.492 61.3415 5.368 61.4535 5.28C61.5655 5.192 61.7135 5.156 61.8975 5.172L63.3015 5.256L63.0975 5.568L62.3295 4.38C62.2255 4.22 62.1855 4.072 62.2095 3.936C62.2335 3.8 62.3175 3.692 62.4615 3.612C62.5975 3.524 62.7335 3.512 62.8695 3.576C63.0055 3.64 63.1135 3.756 63.1935 3.924L63.7455 5.076H63.5655L64.1175 3.924C64.1975 3.756 64.3055 3.64 64.4415 3.576C64.5775 3.512 64.7175 3.524 64.8615 3.612C65.0055 3.7 65.0855 3.812 65.1015 3.948C65.1255 4.084 65.0855 4.232 64.9815 4.392L64.2135 5.556L64.0095 5.256L65.4135 5.172C65.5975 5.156 65.7455 5.192 65.8575 5.28C65.9695 5.368 66.0255 5.492 66.0255 5.652C66.0255 5.82 65.9695 5.948 65.8575 6.036C65.7455 6.116 65.5975 6.152 65.4135 6.144L64.0095 6.072L64.2135 5.76L64.9815 6.936C65.0855 7.088 65.1255 7.232 65.1015 7.368C65.0855 7.496 65.0055 7.604 64.8615 7.692C64.7095 7.78 64.5655 7.796 64.4295 7.74C64.3015 7.676 64.1975 7.56 64.1175 7.392L63.5655 6.228H63.7455L63.1815 7.392C63.1015 7.56 62.9935 7.676 62.8575 7.74C62.7295 7.796 62.5935 7.784 62.4495 7.704Z" fill="#64728C"/>
<path d="M17.612 46.084C17.46 46.084 17.34 46.04 17.252 45.952C17.164 45.856 17.12 45.728 17.12 45.568V38.392H14.42C14.276 38.392 14.164 38.352 14.084 38.272C14.004 38.192 13.964 38.088 13.964 37.96C13.964 37.824 14.004 37.72 14.084 37.648C14.164 37.576 14.276 37.54 14.42 37.54H20.816C20.96 37.54 21.072 37.576 21.152 37.648C21.232 37.72 21.272 37.824 21.272 37.96C21.272 38.096 21.232 38.204 21.152 38.284C21.072 38.356 20.96 38.392 20.816 38.392H18.116V45.568C18.116 45.728 18.072 45.856 17.984 45.952C17.904 46.04 17.78 46.084 17.612 46.084ZM22.5596 48.244C22.4396 48.244 22.3436 48.212 22.2716 48.148C22.1996 48.084 22.1556 47.996 22.1396 47.884C22.1316 47.78 22.1516 47.672 22.1996 47.56L23.0276 45.7V46.12L20.7236 40.768C20.6756 40.648 20.6596 40.536 20.6756 40.432C20.6916 40.328 20.7396 40.244 20.8196 40.18C20.8996 40.116 21.0116 40.084 21.1556 40.084C21.2836 40.084 21.3836 40.112 21.4556 40.168C21.5276 40.224 21.5916 40.324 21.6476 40.468L23.6156 45.292H23.2916L25.2836 40.468C25.3476 40.324 25.4156 40.224 25.4876 40.168C25.5596 40.112 25.6636 40.084 25.7996 40.084C25.9276 40.084 26.0236 40.116 26.0876 40.18C26.1596 40.244 26.1996 40.328 26.2076 40.432C26.2236 40.528 26.2076 40.636 26.1596 40.756L23.0876 47.86C23.0236 48.004 22.9516 48.104 22.8716 48.16C22.7996 48.216 22.6956 48.244 22.5596 48.244ZM27.9076 48.244C27.7476 48.244 27.6276 48.2 27.5476 48.112C27.4676 48.032 27.4276 47.912 27.4276 47.752V40.576C27.4276 40.416 27.4676 40.296 27.5476 40.216C27.6276 40.128 27.7436 40.084 27.8956 40.084C28.0556 40.084 28.1756 40.128 28.2556 40.216C28.3436 40.296 28.3876 40.416 28.3876 40.576V41.716L28.2556 41.548C28.3836 41.092 28.6356 40.732 29.0116 40.468C29.3956 40.196 29.8516 40.06 30.3796 40.06C30.8996 40.06 31.3516 40.184 31.7356 40.432C32.1276 40.672 32.4276 41.02 32.6356 41.476C32.8516 41.924 32.9596 42.46 32.9596 43.084C32.9596 43.7 32.8516 44.236 32.6356 44.692C32.4276 45.14 32.1316 45.488 31.7476 45.736C31.3636 45.984 30.9076 46.108 30.3796 46.108C29.8516 46.108 29.3996 45.976 29.0236 45.712C28.6476 45.44 28.3916 45.08 28.2556 44.632H28.3996V47.752C28.3996 47.912 28.3556 48.032 28.2676 48.112C28.1796 48.2 28.0596 48.244 27.9076 48.244ZM30.1756 45.328C30.5436 45.328 30.8596 45.24 31.1236 45.064C31.3956 44.888 31.6036 44.632 31.7476 44.296C31.8996 43.96 31.9756 43.556 31.9756 43.084C31.9756 42.356 31.8116 41.8 31.4836 41.416C31.1636 41.032 30.7276 40.84 30.1756 40.84C29.8156 40.84 29.4996 40.928 29.2276 41.104C28.9556 41.272 28.7436 41.524 28.5916 41.86C28.4476 42.188 28.3756 42.596 28.3756 43.084C28.3756 43.804 28.5396 44.36 28.8676 44.752C29.1956 45.136 29.6316 45.328 30.1756 45.328ZM37.0517 46.108C36.4357 46.108 35.9037 45.988 35.4557 45.748C35.0157 45.5 34.6717 45.152 34.4237 44.704C34.1837 44.256 34.0637 43.72 34.0637 43.096C34.0637 42.488 34.1837 41.96 34.4237 41.512C34.6637 41.056 34.9917 40.7 35.4077 40.444C35.8317 40.188 36.3197 40.06 36.8717 40.06C37.2637 40.06 37.6157 40.128 37.9277 40.264C38.2397 40.392 38.5037 40.58 38.7197 40.828C38.9437 41.076 39.1117 41.376 39.2237 41.728C39.3437 42.08 39.4037 42.476 39.4037 42.916C39.4037 43.044 39.3677 43.14 39.2957 43.204C39.2237 43.26 39.1197 43.288 38.9837 43.288H34.8077V42.652H38.7557L38.5637 42.808C38.5637 42.376 38.4997 42.012 38.3717 41.716C38.2437 41.412 38.0557 41.18 37.8077 41.02C37.5677 40.86 37.2637 40.78 36.8957 40.78C36.4877 40.78 36.1397 40.876 35.8517 41.068C35.5717 41.252 35.3597 41.512 35.2157 41.848C35.0717 42.176 34.9997 42.56 34.9997 43V43.072C34.9997 43.808 35.1757 44.368 35.5277 44.752C35.8877 45.136 36.3957 45.328 37.0517 45.328C37.3237 45.328 37.5917 45.292 37.8557 45.22C38.1277 45.148 38.3917 45.028 38.6477 44.86C38.7597 44.788 38.8597 44.756 38.9477 44.764C39.0437 44.764 39.1197 44.792 39.1757 44.848C39.2317 44.896 39.2677 44.96 39.2837 45.04C39.3077 45.112 39.2997 45.192 39.2597 45.28C39.2277 45.368 39.1597 45.444 39.0557 45.508C38.7917 45.7 38.4797 45.848 38.1197 45.952C37.7597 46.056 37.4037 46.108 37.0517 46.108ZM44.3842 46.084C44.2242 46.084 44.1042 46.04 44.0242 45.952C43.9442 45.864 43.9042 45.74 43.9042 45.58V37.948C43.9042 37.788 43.9442 37.668 44.0242 37.588C44.1042 37.5 44.2242 37.456 44.3842 37.456C44.5362 37.456 44.6562 37.5 44.7442 37.588C44.8322 37.668 44.8762 37.788 44.8762 37.948V41.464H44.7202C44.8882 41 45.1602 40.652 45.5362 40.42C45.9202 40.18 46.3602 40.06 46.8562 40.06C47.3202 40.06 47.7042 40.144 48.0082 40.312C48.3202 40.48 48.5522 40.736 48.7042 41.08C48.8562 41.416 48.9322 41.844 48.9322 42.364V45.58C48.9322 45.74 48.8882 45.864 48.8002 45.952C48.7202 46.04 48.6042 46.084 48.4522 46.084C48.2922 46.084 48.1682 46.04 48.0802 45.952C48.0002 45.864 47.9602 45.74 47.9602 45.58V42.424C47.9602 41.88 47.8522 41.484 47.6362 41.236C47.4282 40.98 47.0922 40.852 46.6282 40.852C46.0922 40.852 45.6642 41.02 45.3442 41.356C45.0322 41.684 44.8762 42.124 44.8762 42.676V45.58C44.8762 45.916 44.7122 46.084 44.3842 46.084ZM53.3525 46.108C52.7365 46.108 52.2045 45.988 51.7565 45.748C51.3165 45.5 50.9725 45.152 50.7245 44.704C50.4845 44.256 50.3645 43.72 50.3645 43.096C50.3645 42.488 50.4845 41.96 50.7245 41.512C50.9645 41.056 51.2925 40.7 51.7085 40.444C52.1325 40.188 52.6205 40.06 53.1725 40.06C53.5645 40.06 53.9165 40.128 54.2285 40.264C54.5405 40.392 54.8045 40.58 55.0205 40.828C55.2445 41.076 55.4125 41.376 55.5245 41.728C55.6445 42.08 55.7045 42.476 55.7045 42.916C55.7045 43.044 55.6685 43.14 55.5965 43.204C55.5245 43.26 55.4205 43.288 55.2845 43.288H51.1085V42.652H55.0565L54.8645 42.808C54.8645 42.376 54.8005 42.012 54.6725 41.716C54.5445 41.412 54.3565 41.18 54.1085 41.02C53.8685 40.86 53.5645 40.78 53.1965 40.78C52.7885 40.78 52.4405 40.876 52.1525 41.068C51.8725 41.252 51.6605 41.512 51.5165 41.848C51.3725 42.176 51.3005 42.56 51.3005 43V43.072C51.3005 43.808 51.4765 44.368 51.8285 44.752C52.1885 45.136 52.6965 45.328 53.3525 45.328C53.6245 45.328 53.8925 45.292 54.1565 45.22C54.4285 45.148 54.6925 45.028 54.9485 44.86C55.0605 44.788 55.1605 44.756 55.2485 44.764C55.3445 44.764 55.4205 44.792 55.4765 44.848C55.5325 44.896 55.5685 44.96 55.5845 45.04C55.6085 45.112 55.6005 45.192 55.5605 45.28C55.5285 45.368 55.4605 45.444 55.3565 45.508C55.0925 45.7 54.7805 45.848 54.4205 45.952C54.0605 46.056 53.7045 46.108 53.3525 46.108ZM57.6032 46.084C57.4432 46.084 57.3192 46.04 57.2312 45.952C57.1512 45.864 57.1112 45.74 57.1112 45.58V40.576C57.1112 40.416 57.1512 40.296 57.2312 40.216C57.3112 40.128 57.4272 40.084 57.5792 40.084C57.7312 40.084 57.8472 40.128 57.9272 40.216C58.0152 40.296 58.0592 40.416 58.0592 40.576V41.548H57.9392C58.0672 41.076 58.3112 40.712 58.6712 40.456C59.0312 40.2 59.4752 40.064 60.0032 40.048C60.1232 40.04 60.2192 40.068 60.2912 40.132C60.3632 40.188 60.4032 40.288 60.4112 40.432C60.4192 40.568 60.3872 40.676 60.3152 40.756C60.2432 40.836 60.1312 40.884 59.9792 40.9L59.7872 40.924C59.2432 40.972 58.8232 41.148 58.5272 41.452C58.2392 41.748 58.0952 42.156 58.0952 42.676V45.58C58.0952 45.74 58.0512 45.864 57.9632 45.952C57.8832 46.04 57.7632 46.084 57.6032 46.084ZM63.9697 46.108C63.3537 46.108 62.8217 45.988 62.3737 45.748C61.9337 45.5 61.5897 45.152 61.3417 44.704C61.1017 44.256 60.9817 43.72 60.9817 43.096C60.9817 42.488 61.1017 41.96 61.3417 41.512C61.5817 41.056 61.9097 40.7 62.3257 40.444C62.7497 40.188 63.2377 40.06 63.7897 40.06C64.1817 40.06 64.5337 40.128 64.8457 40.264C65.1577 40.392 65.4217 40.58 65.6377 40.828C65.8617 41.076 66.0297 41.376 66.1417 41.728C66.2617 42.08 66.3217 42.476 66.3217 42.916C66.3217 43.044 66.2857 43.14 66.2137 43.204C66.1417 43.26 66.0377 43.288 65.9017 43.288H61.7257V42.652H65.6737L65.4817 42.808C65.4817 42.376 65.4177 42.012 65.2897 41.716C65.1617 41.412 64.9737 41.18 64.7257 41.02C64.4857 40.86 64.1817 40.78 63.8137 40.78C63.4057 40.78 63.0577 40.876 62.7697 41.068C62.4897 41.252 62.2777 41.512 62.1337 41.848C61.9897 42.176 61.9177 42.56 61.9177 43V43.072C61.9177 43.808 62.0937 44.368 62.4457 44.752C62.8057 45.136 63.3137 45.328 63.9697 45.328C64.2417 45.328 64.5097 45.292 64.7737 45.22C65.0457 45.148 65.3097 45.028 65.5657 44.86C65.6777 44.788 65.7777 44.756 65.8657 44.764C65.9617 44.764 66.0377 44.792 66.0937 44.848C66.1497 44.896 66.1857 44.96 66.2017 45.04C66.2257 45.112 66.2177 45.192 66.1777 45.28C66.1457 45.368 66.0777 45.444 65.9737 45.508C65.7097 45.7 65.3977 45.848 65.0377 45.952C64.6777 46.056 64.3217 46.108 63.9697 46.108Z" fill="#929BAA"/>
</svg>
