<svg width="321" height="78" viewBox="0 0 321 78" fill="none" xmlns="http://www.w3.org/2000/svg">
<g filter="url(#filter0_d_2711_239)">
<rect x="10" y="20" width="301" height="44" rx="10" fill="white"/>
<rect x="10.5" y="20.5" width="300" height="43" rx="9.5" stroke="#64728C"/>
</g>
<path d="M11.716 12.096C11.468 12.096 11.272 12.028 11.128 11.892C10.992 11.748 10.924 11.544 10.924 11.28V4.356C10.924 4.092 10.992 3.892 11.128 3.756C11.272 3.612 11.476 3.54 11.74 3.54H15.928C16.136 3.54 16.292 3.592 16.396 3.696C16.5 3.8 16.552 3.948 16.552 4.14C16.552 4.34 16.5 4.496 16.396 4.608C16.292 4.712 16.136 4.764 15.928 4.764H12.46V7.152H15.676C15.876 7.152 16.028 7.204 16.132 7.308C16.244 7.412 16.3 7.56 16.3 7.752C16.3 7.952 16.244 8.108 16.132 8.22C16.028 8.324 15.876 8.376 15.676 8.376H12.46V11.28C12.46 11.824 12.212 12.096 11.716 12.096ZM18.7428 12.084C18.5028 12.084 18.3188 12.012 18.1908 11.868C18.0628 11.724 17.9988 11.524 17.9988 11.268V6.864C17.9988 6.6 18.0628 6.4 18.1908 6.264C18.3188 6.12 18.5028 6.048 18.7428 6.048C18.9828 6.048 19.1668 6.12 19.2948 6.264C19.4308 6.4 19.4988 6.6 19.4988 6.864V11.268C19.4988 11.524 19.4348 11.724 19.3068 11.868C19.1788 12.012 18.9908 12.084 18.7428 12.084ZM18.7428 4.932C18.4628 4.932 18.2428 4.864 18.0828 4.728C17.9308 4.584 17.8548 4.388 17.8548 4.14C17.8548 3.884 17.9308 3.688 18.0828 3.552C18.2428 3.416 18.4628 3.348 18.7428 3.348C19.0308 3.348 19.2508 3.416 19.4028 3.552C19.5548 3.688 19.6308 3.884 19.6308 4.14C19.6308 4.388 19.5548 4.584 19.4028 4.728C19.2508 4.864 19.0308 4.932 18.7428 4.932ZM21.8253 12.096C21.5773 12.096 21.3853 12.032 21.2493 11.904C21.1213 11.768 21.0573 11.576 21.0573 11.328V6.792C21.0573 6.544 21.1213 6.356 21.2493 6.228C21.3773 6.1 21.5573 6.036 21.7893 6.036C22.0213 6.036 22.2013 6.1 22.3293 6.228C22.4573 6.356 22.5213 6.544 22.5213 6.792V7.548H22.4013C22.5133 7.068 22.7333 6.704 23.0613 6.456C23.3893 6.208 23.8253 6.06 24.3693 6.012C24.5373 5.996 24.6693 6.04 24.7653 6.144C24.8693 6.24 24.9293 6.392 24.9453 6.6C24.9613 6.8 24.9133 6.964 24.8013 7.092C24.6973 7.212 24.5373 7.284 24.3213 7.308L24.0573 7.332C23.5693 7.38 23.2013 7.532 22.9533 7.788C22.7053 8.036 22.5813 8.388 22.5813 8.844V11.328C22.5813 11.576 22.5173 11.768 22.3893 11.904C22.2613 12.032 22.0733 12.096 21.8253 12.096ZM27.846 12.12C27.502 12.12 27.138 12.084 26.754 12.012C26.37 11.94 26.026 11.816 25.722 11.64C25.594 11.56 25.502 11.468 25.446 11.364C25.398 11.252 25.378 11.144 25.386 11.04C25.402 10.928 25.442 10.832 25.506 10.752C25.578 10.672 25.666 10.62 25.77 10.596C25.882 10.572 26.002 10.592 26.13 10.656C26.45 10.808 26.75 10.916 27.03 10.98C27.31 11.036 27.586 11.064 27.858 11.064C28.242 11.064 28.526 11 28.71 10.872C28.902 10.736 28.998 10.56 28.998 10.344C28.998 10.16 28.934 10.02 28.806 9.924C28.686 9.82 28.502 9.744 28.254 9.696L27.054 9.468C26.558 9.372 26.178 9.192 25.914 8.928C25.658 8.656 25.53 8.308 25.53 7.884C25.53 7.5 25.634 7.168 25.842 6.888C26.058 6.608 26.354 6.392 26.73 6.24C27.106 6.088 27.538 6.012 28.026 6.012C28.378 6.012 28.706 6.052 29.01 6.132C29.322 6.204 29.622 6.32 29.91 6.48C30.03 6.544 30.11 6.628 30.15 6.732C30.198 6.836 30.21 6.944 30.186 7.056C30.162 7.16 30.114 7.256 30.042 7.344C29.97 7.424 29.878 7.476 29.766 7.5C29.662 7.516 29.542 7.492 29.406 7.428C29.158 7.3 28.918 7.208 28.686 7.152C28.462 7.096 28.246 7.068 28.038 7.068C27.646 7.068 27.354 7.136 27.162 7.272C26.978 7.408 26.886 7.588 26.886 7.812C26.886 7.98 26.942 8.12 27.054 8.232C27.166 8.344 27.338 8.42 27.57 8.46L28.77 8.688C29.29 8.784 29.682 8.96 29.946 9.216C30.218 9.472 30.354 9.816 30.354 10.248C30.354 10.832 30.126 11.292 29.67 11.628C29.214 11.956 28.606 12.12 27.846 12.12ZM34.1868 12.12C33.6668 12.12 33.2308 12.032 32.8788 11.856C32.5348 11.68 32.2788 11.424 32.1108 11.088C31.9428 10.744 31.8588 10.32 31.8588 9.816V7.26H31.2348C31.0428 7.26 30.8948 7.212 30.7908 7.116C30.6867 7.012 30.6347 6.872 30.6347 6.696C30.6347 6.512 30.6867 6.372 30.7908 6.276C30.8948 6.18 31.0428 6.132 31.2348 6.132H31.8588V5.04C31.8588 4.792 31.9228 4.604 32.0508 4.476C32.1868 4.348 32.3748 4.284 32.6148 4.284C32.8548 4.284 33.0388 4.348 33.1668 4.476C33.2948 4.604 33.3588 4.792 33.3588 5.04V6.132H34.6308C34.8228 6.132 34.9708 6.18 35.0748 6.276C35.1788 6.372 35.2308 6.512 35.2308 6.696C35.2308 6.872 35.1788 7.012 35.0748 7.116C34.9708 7.212 34.8228 7.26 34.6308 7.26H33.3588V9.732C33.3588 10.116 33.4428 10.404 33.6108 10.596C33.7788 10.788 34.0508 10.884 34.4268 10.884C34.5628 10.884 34.6828 10.872 34.7868 10.848C34.8908 10.824 34.9828 10.808 35.0628 10.8C35.1588 10.792 35.2388 10.824 35.3028 10.896C35.3668 10.96 35.3988 11.096 35.3988 11.304C35.3988 11.464 35.3708 11.608 35.3148 11.736C35.2668 11.856 35.1748 11.94 35.0388 11.988C34.9348 12.02 34.7988 12.048 34.6308 12.072C34.4628 12.104 34.3148 12.12 34.1868 12.12ZM40.226 12.096C39.994 12.096 39.814 12.032 39.686 11.904C39.566 11.776 39.506 11.592 39.506 11.352V4.212C39.506 3.964 39.566 3.776 39.686 3.648C39.814 3.512 39.978 3.444 40.178 3.444C40.362 3.444 40.498 3.48 40.586 3.552C40.682 3.616 40.794 3.728 40.922 3.888L45.518 9.852H45.206V4.176C45.206 3.944 45.266 3.764 45.386 3.636C45.514 3.508 45.694 3.444 45.926 3.444C46.158 3.444 46.334 3.508 46.454 3.636C46.574 3.764 46.634 3.944 46.634 4.176V11.376C46.634 11.6 46.578 11.776 46.466 11.904C46.354 12.032 46.202 12.096 46.01 12.096C45.826 12.096 45.678 12.06 45.566 11.988C45.462 11.916 45.346 11.8 45.218 11.64L40.634 5.676H40.934V11.352C40.934 11.592 40.874 11.776 40.754 11.904C40.634 12.032 40.458 12.096 40.226 12.096ZM50.2706 12.12C49.8466 12.12 49.4666 12.04 49.1306 11.88C48.8026 11.712 48.5426 11.488 48.3506 11.208C48.1666 10.928 48.0746 10.612 48.0746 10.26C48.0746 9.828 48.1866 9.488 48.4106 9.24C48.6346 8.984 48.9986 8.8 49.5026 8.688C50.0066 8.576 50.6826 8.52 51.5306 8.52H52.1306V9.384H51.5426C51.0466 9.384 50.6506 9.408 50.3546 9.456C50.0586 9.504 49.8466 9.588 49.7186 9.708C49.5986 9.82 49.5386 9.98 49.5386 10.188C49.5386 10.452 49.6306 10.668 49.8146 10.836C49.9986 11.004 50.2546 11.088 50.5826 11.088C50.8466 11.088 51.0786 11.028 51.2786 10.908C51.4866 10.78 51.6506 10.608 51.7706 10.392C51.8906 10.176 51.9506 9.928 51.9506 9.648V8.268C51.9506 7.868 51.8626 7.58 51.6866 7.404C51.5106 7.228 51.2146 7.14 50.7986 7.14C50.5666 7.14 50.3146 7.168 50.0426 7.224C49.7786 7.28 49.4986 7.376 49.2026 7.512C49.0506 7.584 48.9146 7.604 48.7946 7.572C48.6826 7.54 48.5946 7.476 48.5306 7.38C48.4666 7.276 48.4346 7.164 48.4346 7.044C48.4346 6.924 48.4666 6.808 48.5306 6.696C48.5946 6.576 48.7026 6.488 48.8546 6.432C49.2226 6.28 49.5746 6.172 49.9106 6.108C50.2546 6.044 50.5666 6.012 50.8466 6.012C51.4226 6.012 51.8946 6.1 52.2626 6.276C52.6386 6.452 52.9186 6.72 53.1026 7.08C53.2866 7.432 53.3786 7.888 53.3786 8.448V11.328C53.3786 11.576 53.3186 11.768 53.1986 11.904C53.0786 12.032 52.9066 12.096 52.6826 12.096C52.4586 12.096 52.2826 12.032 52.1546 11.904C52.0346 11.768 51.9746 11.576 51.9746 11.328V10.752H52.0706C52.0146 11.032 51.9026 11.276 51.7346 11.484C51.5746 11.684 51.3706 11.84 51.1226 11.952C50.8746 12.064 50.5906 12.12 50.2706 12.12ZM55.6691 12.096C55.4291 12.096 55.2451 12.032 55.1171 11.904C54.9891 11.768 54.9251 11.576 54.9251 11.328V6.792C54.9251 6.544 54.9891 6.356 55.1171 6.228C55.2451 6.1 55.4251 6.036 55.6571 6.036C55.8891 6.036 56.0691 6.1 56.1971 6.228C56.3251 6.356 56.3891 6.544 56.3891 6.792V7.668L56.2571 7.308C56.4171 6.908 56.6651 6.592 57.0011 6.36C57.3371 6.128 57.7371 6.012 58.2011 6.012C58.6731 6.012 59.0611 6.124 59.3651 6.348C59.6691 6.572 59.8811 6.916 60.0011 7.38H59.8331C59.9931 6.956 60.2571 6.624 60.6251 6.384C60.9931 6.136 61.4171 6.012 61.8971 6.012C62.3451 6.012 62.7131 6.1 63.0011 6.276C63.2971 6.452 63.5171 6.72 63.6611 7.08C63.8051 7.432 63.8771 7.88 63.8771 8.424V11.328C63.8771 11.576 63.8091 11.768 63.6731 11.904C63.5451 12.032 63.3611 12.096 63.1211 12.096C62.8811 12.096 62.6971 12.032 62.5691 11.904C62.4411 11.768 62.3771 11.576 62.3771 11.328V8.484C62.3771 8.036 62.3011 7.708 62.1491 7.5C62.0051 7.292 61.7571 7.188 61.4051 7.188C61.0131 7.188 60.7051 7.328 60.4811 7.608C60.2571 7.88 60.1451 8.26 60.1451 8.748V11.328C60.1451 11.576 60.0811 11.768 59.9531 11.904C59.8251 12.032 59.6411 12.096 59.4011 12.096C59.1611 12.096 58.9731 12.032 58.8371 11.904C58.7091 11.768 58.6451 11.576 58.6451 11.328V8.484C58.6451 8.036 58.5691 7.708 58.4171 7.5C58.2731 7.292 58.0291 7.188 57.6851 7.188C57.2931 7.188 56.9851 7.328 56.7611 7.608C56.5371 7.88 56.4251 8.26 56.4251 8.748V11.328C56.4251 11.84 56.1731 12.096 55.6691 12.096ZM68.3165 12.12C67.6525 12.12 67.0805 11.996 66.6005 11.748C66.1205 11.5 65.7485 11.148 65.4845 10.692C65.2285 10.236 65.1005 9.696 65.1005 9.072C65.1005 8.464 65.2245 7.932 65.4725 7.476C65.7285 7.02 66.0765 6.664 66.5165 6.408C66.9645 6.144 67.4725 6.012 68.0405 6.012C68.4565 6.012 68.8285 6.08 69.1565 6.216C69.4925 6.352 69.7765 6.548 70.0085 6.804C70.2485 7.06 70.4285 7.372 70.5485 7.74C70.6765 8.1 70.7405 8.508 70.7405 8.964C70.7405 9.108 70.6885 9.22 70.5845 9.3C70.4885 9.372 70.3485 9.408 70.1645 9.408H66.3125V8.544H69.6845L69.4925 8.724C69.4925 8.356 69.4365 8.048 69.3245 7.8C69.2205 7.552 69.0645 7.364 68.8565 7.236C68.6565 7.1 68.4045 7.032 68.1005 7.032C67.7645 7.032 67.4765 7.112 67.2365 7.272C67.0045 7.424 66.8245 7.644 66.6965 7.932C66.5765 8.212 66.5165 8.548 66.5165 8.94V9.024C66.5165 9.68 66.6685 10.172 66.9725 10.5C67.2845 10.82 67.7405 10.98 68.3405 10.98C68.5485 10.98 68.7805 10.956 69.0365 10.908C69.3005 10.852 69.5485 10.76 69.7805 10.632C69.9485 10.536 70.0965 10.496 70.2245 10.512C70.3525 10.52 70.4525 10.564 70.5245 10.644C70.6045 10.724 70.6525 10.824 70.6685 10.944C70.6845 11.056 70.6605 11.172 70.5965 11.292C70.5405 11.412 70.4405 11.516 70.2965 11.604C70.0165 11.78 69.6925 11.912 69.3245 12C68.9645 12.08 68.6285 12.12 68.3165 12.12ZM72.4495 7.704C72.3055 7.616 72.2215 7.504 72.1975 7.368C72.1735 7.232 72.2135 7.088 72.3175 6.936L73.0855 5.76L73.3015 6.072L71.8975 6.144C71.7135 6.152 71.5655 6.116 71.4535 6.036C71.3415 5.948 71.2855 5.82 71.2855 5.652C71.2855 5.492 71.3415 5.368 71.4535 5.28C71.5655 5.192 71.7135 5.156 71.8975 5.172L73.3015 5.256L73.0975 5.568L72.3295 4.38C72.2255 4.22 72.1855 4.072 72.2095 3.936C72.2335 3.8 72.3175 3.692 72.4615 3.612C72.5975 3.524 72.7335 3.512 72.8695 3.576C73.0055 3.64 73.1135 3.756 73.1935 3.924L73.7455 5.076H73.5655L74.1175 3.924C74.1975 3.756 74.3055 3.64 74.4415 3.576C74.5775 3.512 74.7175 3.524 74.8615 3.612C75.0055 3.7 75.0855 3.812 75.1015 3.948C75.1255 4.084 75.0855 4.232 74.9815 4.392L74.2135 5.556L74.0095 5.256L75.4135 5.172C75.5975 5.156 75.7455 5.192 75.8575 5.28C75.9695 5.368 76.0255 5.492 76.0255 5.652C76.0255 5.82 75.9695 5.948 75.8575 6.036C75.7455 6.116 75.5975 6.152 75.4135 6.144L74.0095 6.072L74.2135 5.76L74.9815 6.936C75.0855 7.088 75.1255 7.232 75.1015 7.368C75.0855 7.496 75.0055 7.604 74.8615 7.692C74.7095 7.78 74.5655 7.796 74.4295 7.74C74.3015 7.676 74.1975 7.56 74.1175 7.392L73.5655 6.228H73.7455L73.1815 7.392C73.1015 7.56 72.9935 7.676 72.8575 7.74C72.7295 7.796 72.5935 7.784 72.4495 7.704Z" fill="#64728C"/>
<path d="M27.612 46.084C27.46 46.084 27.34 46.04 27.252 45.952C27.164 45.856 27.12 45.728 27.12 45.568V38.392H24.42C24.276 38.392 24.164 38.352 24.084 38.272C24.004 38.192 23.964 38.088 23.964 37.96C23.964 37.824 24.004 37.72 24.084 37.648C24.164 37.576 24.276 37.54 24.42 37.54H30.816C30.96 37.54 31.072 37.576 31.152 37.648C31.232 37.72 31.272 37.824 31.272 37.96C31.272 38.096 31.232 38.204 31.152 38.284C31.072 38.356 30.96 38.392 30.816 38.392H28.116V45.568C28.116 45.728 28.072 45.856 27.984 45.952C27.904 46.04 27.78 46.084 27.612 46.084ZM32.5596 48.244C32.4396 48.244 32.3436 48.212 32.2716 48.148C32.1996 48.084 32.1556 47.996 32.1396 47.884C32.1316 47.78 32.1516 47.672 32.1996 47.56L33.0276 45.7V46.12L30.7236 40.768C30.6756 40.648 30.6596 40.536 30.6756 40.432C30.6916 40.328 30.7396 40.244 30.8196 40.18C30.8996 40.116 31.0116 40.084 31.1556 40.084C31.2836 40.084 31.3836 40.112 31.4556 40.168C31.5276 40.224 31.5916 40.324 31.6476 40.468L33.6156 45.292H33.2916L35.2836 40.468C35.3476 40.324 35.4156 40.224 35.4876 40.168C35.5596 40.112 35.6636 40.084 35.7996 40.084C35.9276 40.084 36.0236 40.116 36.0876 40.18C36.1596 40.244 36.1996 40.328 36.2076 40.432C36.2236 40.528 36.2076 40.636 36.1596 40.756L33.0876 47.86C33.0236 48.004 32.9516 48.104 32.8716 48.16C32.7996 48.216 32.6956 48.244 32.5596 48.244ZM37.9076 48.244C37.7476 48.244 37.6276 48.2 37.5476 48.112C37.4676 48.032 37.4276 47.912 37.4276 47.752V40.576C37.4276 40.416 37.4676 40.296 37.5476 40.216C37.6276 40.128 37.7436 40.084 37.8956 40.084C38.0556 40.084 38.1756 40.128 38.2556 40.216C38.3436 40.296 38.3876 40.416 38.3876 40.576V41.716L38.2556 41.548C38.3836 41.092 38.6356 40.732 39.0116 40.468C39.3956 40.196 39.8516 40.06 40.3796 40.06C40.8996 40.06 41.3516 40.184 41.7356 40.432C42.1276 40.672 42.4276 41.02 42.6356 41.476C42.8516 41.924 42.9596 42.46 42.9596 43.084C42.9596 43.7 42.8516 44.236 42.6356 44.692C42.4276 45.14 42.1316 45.488 41.7476 45.736C41.3636 45.984 40.9076 46.108 40.3796 46.108C39.8516 46.108 39.3996 45.976 39.0236 45.712C38.6476 45.44 38.3916 45.08 38.2556 44.632H38.3996V47.752C38.3996 47.912 38.3556 48.032 38.2676 48.112C38.1796 48.2 38.0596 48.244 37.9076 48.244ZM40.1756 45.328C40.5436 45.328 40.8596 45.24 41.1236 45.064C41.3956 44.888 41.6036 44.632 41.7476 44.296C41.8996 43.96 41.9756 43.556 41.9756 43.084C41.9756 42.356 41.8116 41.8 41.4836 41.416C41.1636 41.032 40.7276 40.84 40.1756 40.84C39.8156 40.84 39.4996 40.928 39.2276 41.104C38.9556 41.272 38.7436 41.524 38.5916 41.86C38.4476 42.188 38.3756 42.596 38.3756 43.084C38.3756 43.804 38.5396 44.36 38.8676 44.752C39.1956 45.136 39.6316 45.328 40.1756 45.328ZM47.0517 46.108C46.4357 46.108 45.9037 45.988 45.4557 45.748C45.0157 45.5 44.6717 45.152 44.4237 44.704C44.1837 44.256 44.0637 43.72 44.0637 43.096C44.0637 42.488 44.1837 41.96 44.4237 41.512C44.6637 41.056 44.9917 40.7 45.4077 40.444C45.8317 40.188 46.3197 40.06 46.8717 40.06C47.2637 40.06 47.6157 40.128 47.9277 40.264C48.2397 40.392 48.5037 40.58 48.7197 40.828C48.9437 41.076 49.1117 41.376 49.2237 41.728C49.3437 42.08 49.4037 42.476 49.4037 42.916C49.4037 43.044 49.3677 43.14 49.2957 43.204C49.2237 43.26 49.1197 43.288 48.9837 43.288H44.8077V42.652H48.7557L48.5637 42.808C48.5637 42.376 48.4997 42.012 48.3717 41.716C48.2437 41.412 48.0557 41.18 47.8077 41.02C47.5677 40.86 47.2637 40.78 46.8957 40.78C46.4877 40.78 46.1397 40.876 45.8517 41.068C45.5717 41.252 45.3597 41.512 45.2157 41.848C45.0717 42.176 44.9997 42.56 44.9997 43V43.072C44.9997 43.808 45.1757 44.368 45.5277 44.752C45.8877 45.136 46.3957 45.328 47.0517 45.328C47.3237 45.328 47.5917 45.292 47.8557 45.22C48.1277 45.148 48.3917 45.028 48.6477 44.86C48.7597 44.788 48.8597 44.756 48.9477 44.764C49.0437 44.764 49.1197 44.792 49.1757 44.848C49.2317 44.896 49.2677 44.96 49.2837 45.04C49.3077 45.112 49.2997 45.192 49.2597 45.28C49.2277 45.368 49.1597 45.444 49.0557 45.508C48.7917 45.7 48.4797 45.848 48.1197 45.952C47.7597 46.056 47.4037 46.108 47.0517 46.108ZM54.3842 46.084C54.2242 46.084 54.1042 46.04 54.0242 45.952C53.9442 45.864 53.9042 45.74 53.9042 45.58V37.948C53.9042 37.788 53.9442 37.668 54.0242 37.588C54.1042 37.5 54.2242 37.456 54.3842 37.456C54.5362 37.456 54.6562 37.5 54.7442 37.588C54.8322 37.668 54.8762 37.788 54.8762 37.948V41.464H54.7202C54.8882 41 55.1602 40.652 55.5362 40.42C55.9202 40.18 56.3602 40.06 56.8562 40.06C57.3202 40.06 57.7042 40.144 58.0082 40.312C58.3202 40.48 58.5522 40.736 58.7042 41.08C58.8562 41.416 58.9322 41.844 58.9322 42.364V45.58C58.9322 45.74 58.8882 45.864 58.8002 45.952C58.7202 46.04 58.6042 46.084 58.4522 46.084C58.2922 46.084 58.1682 46.04 58.0802 45.952C58.0002 45.864 57.9602 45.74 57.9602 45.58V42.424C57.9602 41.88 57.8522 41.484 57.6362 41.236C57.4282 40.98 57.0922 40.852 56.6282 40.852C56.0922 40.852 55.6642 41.02 55.3442 41.356C55.0322 41.684 54.8762 42.124 54.8762 42.676V45.58C54.8762 45.916 54.7122 46.084 54.3842 46.084ZM63.3525 46.108C62.7365 46.108 62.2045 45.988 61.7565 45.748C61.3165 45.5 60.9725 45.152 60.7245 44.704C60.4845 44.256 60.3645 43.72 60.3645 43.096C60.3645 42.488 60.4845 41.96 60.7245 41.512C60.9645 41.056 61.2925 40.7 61.7085 40.444C62.1325 40.188 62.6205 40.06 63.1725 40.06C63.5645 40.06 63.9165 40.128 64.2285 40.264C64.5405 40.392 64.8045 40.58 65.0205 40.828C65.2445 41.076 65.4125 41.376 65.5245 41.728C65.6445 42.08 65.7045 42.476 65.7045 42.916C65.7045 43.044 65.6685 43.14 65.5965 43.204C65.5245 43.26 65.4205 43.288 65.2845 43.288H61.1085V42.652H65.0565L64.8645 42.808C64.8645 42.376 64.8005 42.012 64.6725 41.716C64.5445 41.412 64.3565 41.18 64.1085 41.02C63.8685 40.86 63.5645 40.78 63.1965 40.78C62.7885 40.78 62.4405 40.876 62.1525 41.068C61.8725 41.252 61.6605 41.512 61.5165 41.848C61.3725 42.176 61.3005 42.56 61.3005 43V43.072C61.3005 43.808 61.4765 44.368 61.8285 44.752C62.1885 45.136 62.6965 45.328 63.3525 45.328C63.6245 45.328 63.8925 45.292 64.1565 45.22C64.4285 45.148 64.6925 45.028 64.9485 44.86C65.0605 44.788 65.1605 44.756 65.2485 44.764C65.3445 44.764 65.4205 44.792 65.4765 44.848C65.5325 44.896 65.5685 44.96 65.5845 45.04C65.6085 45.112 65.6005 45.192 65.5605 45.28C65.5285 45.368 65.4605 45.444 65.3565 45.508C65.0925 45.7 64.7805 45.848 64.4205 45.952C64.0605 46.056 63.7045 46.108 63.3525 46.108ZM67.6032 46.084C67.4432 46.084 67.3192 46.04 67.2312 45.952C67.1512 45.864 67.1112 45.74 67.1112 45.58V40.576C67.1112 40.416 67.1512 40.296 67.2312 40.216C67.3112 40.128 67.4272 40.084 67.5792 40.084C67.7312 40.084 67.8472 40.128 67.9272 40.216C68.0152 40.296 68.0592 40.416 68.0592 40.576V41.548H67.9392C68.0672 41.076 68.3112 40.712 68.6712 40.456C69.0312 40.2 69.4752 40.064 70.0032 40.048C70.1232 40.04 70.2192 40.068 70.2912 40.132C70.3632 40.188 70.4032 40.288 70.4112 40.432C70.4192 40.568 70.3872 40.676 70.3152 40.756C70.2432 40.836 70.1312 40.884 69.9792 40.9L69.7872 40.924C69.2432 40.972 68.8232 41.148 68.5272 41.452C68.2392 41.748 68.0952 42.156 68.0952 42.676V45.58C68.0952 45.74 68.0512 45.864 67.9632 45.952C67.8832 46.04 67.7632 46.084 67.6032 46.084ZM73.9697 46.108C73.3537 46.108 72.8217 45.988 72.3737 45.748C71.9337 45.5 71.5897 45.152 71.3417 44.704C71.1017 44.256 70.9817 43.72 70.9817 43.096C70.9817 42.488 71.1017 41.96 71.3417 41.512C71.5817 41.056 71.9097 40.7 72.3257 40.444C72.7497 40.188 73.2377 40.06 73.7897 40.06C74.1817 40.06 74.5337 40.128 74.8457 40.264C75.1577 40.392 75.4217 40.58 75.6377 40.828C75.8617 41.076 76.0297 41.376 76.1417 41.728C76.2617 42.08 76.3217 42.476 76.3217 42.916C76.3217 43.044 76.2857 43.14 76.2137 43.204C76.1417 43.26 76.0377 43.288 75.9017 43.288H71.7257V42.652H75.6737L75.4817 42.808C75.4817 42.376 75.4177 42.012 75.2897 41.716C75.1617 41.412 74.9737 41.18 74.7257 41.02C74.4857 40.86 74.1817 40.78 73.8137 40.78C73.4057 40.78 73.0577 40.876 72.7697 41.068C72.4897 41.252 72.2777 41.512 72.1337 41.848C71.9897 42.176 71.9177 42.56 71.9177 43V43.072C71.9177 43.808 72.0937 44.368 72.4457 44.752C72.8057 45.136 73.3137 45.328 73.9697 45.328C74.2417 45.328 74.5097 45.292 74.7737 45.22C75.0457 45.148 75.3097 45.028 75.5657 44.86C75.6777 44.788 75.7777 44.756 75.8657 44.764C75.9617 44.764 76.0377 44.792 76.0937 44.848C76.1497 44.896 76.1857 44.96 76.2017 45.04C76.2257 45.112 76.2177 45.192 76.1777 45.28C76.1457 45.368 76.0777 45.444 75.9737 45.508C75.7097 45.7 75.3977 45.848 75.0377 45.952C74.6777 46.056 74.3217 46.108 73.9697 46.108Z" fill="#929BAA"/>
<defs>
<filter id="filter0_d_2711_239" x="0" y="14" width="321" height="64" filterUnits="userSpaceOnUse" color-interpolation-filters="sRGB">
<feFlood flood-opacity="0" result="BackgroundImageFix"/>
<feColorMatrix in="SourceAlpha" type="matrix" values="0 0 0 0 0 0 0 0 0 0 0 0 0 0 0 0 0 0 127 0" result="hardAlpha"/>
<feOffset dy="4"/>
<feGaussianBlur stdDeviation="5"/>
<feComposite in2="hardAlpha" operator="out"/>
<feColorMatrix type="matrix" values="0 0 0 0 0.392157 0 0 0 0 0.447059 0 0 0 0 0.54902 0 0 0 0.1 0"/>
<feBlend mode="normal" in2="BackgroundImageFix" result="effect1_dropShadow_2711_239"/>
<feBlend mode="normal" in="SourceGraphic" in2="effect1_dropShadow_2711_239" result="shape"/>
</filter>
</defs>
</svg>
