<svg width="301" height="64" viewBox="0 0 301 64" fill="none" xmlns="http://www.w3.org/2000/svg">
<rect x="0.5" y="20.5" width="300" height="43" rx="9.5" fill="#64728C" fill-opacity="0.1" stroke="#E8EAEF"/>
<path d="M1.716 12.096C1.468 12.096 1.272 12.028 1.128 11.892C0.992 11.748 0.924 11.544 0.924 11.28V4.356C0.924 4.092 0.992 3.892 1.128 3.756C1.272 3.612 1.476 3.54 1.74 3.54H5.928C6.136 3.54 6.292 3.592 6.396 3.696C6.5 3.8 6.552 3.948 6.552 4.14C6.552 4.34 6.5 4.496 6.396 4.608C6.292 4.712 6.136 4.764 5.928 4.764H2.46V7.152H5.676C5.876 7.152 6.028 7.204 6.132 7.308C6.244 7.412 6.3 7.56 6.3 7.752C6.3 7.952 6.244 8.108 6.132 8.22C6.028 8.324 5.876 8.376 5.676 8.376H2.46V11.28C2.46 11.824 2.212 12.096 1.716 12.096ZM8.74275 12.084C8.50275 12.084 8.31875 12.012 8.19075 11.868C8.06275 11.724 7.99875 11.524 7.99875 11.268V6.864C7.99875 6.6 8.06275 6.4 8.19075 6.264C8.31875 6.12 8.50275 6.048 8.74275 6.048C8.98275 6.048 9.16675 6.12 9.29475 6.264C9.43075 6.4 9.49875 6.6 9.49875 6.864V11.268C9.49875 11.524 9.43475 11.724 9.30675 11.868C9.17875 12.012 8.99075 12.084 8.74275 12.084ZM8.74275 4.932C8.46275 4.932 8.24275 4.864 8.08275 4.728C7.93075 4.584 7.85475 4.388 7.85475 4.14C7.85475 3.884 7.93075 3.688 8.08275 3.552C8.24275 3.416 8.46275 3.348 8.74275 3.348C9.03075 3.348 9.25075 3.416 9.40275 3.552C9.55475 3.688 9.63075 3.884 9.63075 4.14C9.63075 4.388 9.55475 4.584 9.40275 4.728C9.25075 4.864 9.03075 4.932 8.74275 4.932ZM11.8253 12.096C11.5773 12.096 11.3853 12.032 11.2493 11.904C11.1213 11.768 11.0573 11.576 11.0573 11.328V6.792C11.0573 6.544 11.1213 6.356 11.2493 6.228C11.3773 6.1 11.5573 6.036 11.7893 6.036C12.0213 6.036 12.2013 6.1 12.3293 6.228C12.4573 6.356 12.5213 6.544 12.5213 6.792V7.548H12.4013C12.5133 7.068 12.7333 6.704 13.0613 6.456C13.3893 6.208 13.8253 6.06 14.3693 6.012C14.5373 5.996 14.6693 6.04 14.7653 6.144C14.8693 6.24 14.9293 6.392 14.9453 6.6C14.9613 6.8 14.9133 6.964 14.8013 7.092C14.6973 7.212 14.5373 7.284 14.3213 7.308L14.0573 7.332C13.5693 7.38 13.2013 7.532 12.9533 7.788C12.7053 8.036 12.5813 8.388 12.5813 8.844V11.328C12.5813 11.576 12.5173 11.768 12.3893 11.904C12.2613 12.032 12.0733 12.096 11.8253 12.096ZM17.846 12.12C17.502 12.12 17.138 12.084 16.754 12.012C16.37 11.94 16.026 11.816 15.722 11.64C15.594 11.56 15.502 11.468 15.446 11.364C15.398 11.252 15.378 11.144 15.386 11.04C15.402 10.928 15.442 10.832 15.506 10.752C15.578 10.672 15.666 10.62 15.77 10.596C15.882 10.572 16.002 10.592 16.13 10.656C16.45 10.808 16.75 10.916 17.03 10.98C17.31 11.036 17.586 11.064 17.858 11.064C18.242 11.064 18.526 11 18.71 10.872C18.902 10.736 18.998 10.56 18.998 10.344C18.998 10.16 18.934 10.02 18.806 9.924C18.686 9.82 18.502 9.744 18.254 9.696L17.054 9.468C16.558 9.372 16.178 9.192 15.914 8.928C15.658 8.656 15.53 8.308 15.53 7.884C15.53 7.5 15.634 7.168 15.842 6.888C16.058 6.608 16.354 6.392 16.73 6.24C17.106 6.088 17.538 6.012 18.026 6.012C18.378 6.012 18.706 6.052 19.01 6.132C19.322 6.204 19.622 6.32 19.91 6.48C20.03 6.544 20.11 6.628 20.15 6.732C20.198 6.836 20.21 6.944 20.186 7.056C20.162 7.16 20.114 7.256 20.042 7.344C19.97 7.424 19.878 7.476 19.766 7.5C19.662 7.516 19.542 7.492 19.406 7.428C19.158 7.3 18.918 7.208 18.686 7.152C18.462 7.096 18.246 7.068 18.038 7.068C17.646 7.068 17.354 7.136 17.162 7.272C16.978 7.408 16.886 7.588 16.886 7.812C16.886 7.98 16.942 8.12 17.054 8.232C17.166 8.344 17.338 8.42 17.57 8.46L18.77 8.688C19.29 8.784 19.682 8.96 19.946 9.216C20.218 9.472 20.354 9.816 20.354 10.248C20.354 10.832 20.126 11.292 19.67 11.628C19.214 11.956 18.606 12.12 17.846 12.12ZM24.1868 12.12C23.6668 12.12 23.2308 12.032 22.8788 11.856C22.5348 11.68 22.2788 11.424 22.1108 11.088C21.9428 10.744 21.8588 10.32 21.8588 9.816V7.26H21.2348C21.0428 7.26 20.8948 7.212 20.7908 7.116C20.6867 7.012 20.6347 6.872 20.6347 6.696C20.6347 6.512 20.6867 6.372 20.7908 6.276C20.8948 6.18 21.0428 6.132 21.2348 6.132H21.8588V5.04C21.8588 4.792 21.9228 4.604 22.0508 4.476C22.1868 4.348 22.3748 4.284 22.6148 4.284C22.8548 4.284 23.0388 4.348 23.1668 4.476C23.2948 4.604 23.3588 4.792 23.3588 5.04V6.132H24.6308C24.8228 6.132 24.9708 6.18 25.0748 6.276C25.1788 6.372 25.2308 6.512 25.2308 6.696C25.2308 6.872 25.1788 7.012 25.0748 7.116C24.9708 7.212 24.8228 7.26 24.6308 7.26H23.3588V9.732C23.3588 10.116 23.4428 10.404 23.6108 10.596C23.7788 10.788 24.0508 10.884 24.4268 10.884C24.5628 10.884 24.6828 10.872 24.7868 10.848C24.8908 10.824 24.9828 10.808 25.0628 10.8C25.1588 10.792 25.2388 10.824 25.3028 10.896C25.3668 10.96 25.3988 11.096 25.3988 11.304C25.3988 11.464 25.3708 11.608 25.3148 11.736C25.2668 11.856 25.1748 11.94 25.0388 11.988C24.9348 12.02 24.7988 12.048 24.6308 12.072C24.4628 12.104 24.3148 12.12 24.1868 12.12ZM30.226 12.096C29.994 12.096 29.814 12.032 29.686 11.904C29.566 11.776 29.506 11.592 29.506 11.352V4.212C29.506 3.964 29.566 3.776 29.686 3.648C29.814 3.512 29.978 3.444 30.178 3.444C30.362 3.444 30.498 3.48 30.586 3.552C30.682 3.616 30.794 3.728 30.922 3.888L35.518 9.852H35.206V4.176C35.206 3.944 35.266 3.764 35.386 3.636C35.514 3.508 35.694 3.444 35.926 3.444C36.158 3.444 36.334 3.508 36.454 3.636C36.574 3.764 36.634 3.944 36.634 4.176V11.376C36.634 11.6 36.578 11.776 36.466 11.904C36.354 12.032 36.202 12.096 36.01 12.096C35.826 12.096 35.678 12.06 35.566 11.988C35.462 11.916 35.346 11.8 35.218 11.64L30.634 5.676H30.934V11.352C30.934 11.592 30.874 11.776 30.754 11.904C30.634 12.032 30.458 12.096 30.226 12.096ZM40.2706 12.12C39.8466 12.12 39.4666 12.04 39.1306 11.88C38.8026 11.712 38.5426 11.488 38.3506 11.208C38.1666 10.928 38.0746 10.612 38.0746 10.26C38.0746 9.828 38.1866 9.488 38.4106 9.24C38.6346 8.984 38.9986 8.8 39.5026 8.688C40.0066 8.576 40.6826 8.52 41.5306 8.52H42.1306V9.384H41.5426C41.0466 9.384 40.6506 9.408 40.3546 9.456C40.0586 9.504 39.8466 9.588 39.7186 9.708C39.5986 9.82 39.5386 9.98 39.5386 10.188C39.5386 10.452 39.6306 10.668 39.8146 10.836C39.9986 11.004 40.2546 11.088 40.5826 11.088C40.8466 11.088 41.0786 11.028 41.2786 10.908C41.4866 10.78 41.6506 10.608 41.7706 10.392C41.8906 10.176 41.9506 9.928 41.9506 9.648V8.268C41.9506 7.868 41.8626 7.58 41.6866 7.404C41.5106 7.228 41.2146 7.14 40.7986 7.14C40.5666 7.14 40.3146 7.168 40.0426 7.224C39.7786 7.28 39.4986 7.376 39.2026 7.512C39.0506 7.584 38.9146 7.604 38.7946 7.572C38.6826 7.54 38.5946 7.476 38.5306 7.38C38.4666 7.276 38.4346 7.164 38.4346 7.044C38.4346 6.924 38.4666 6.808 38.5306 6.696C38.5946 6.576 38.7026 6.488 38.8546 6.432C39.2226 6.28 39.5746 6.172 39.9106 6.108C40.2546 6.044 40.5666 6.012 40.8466 6.012C41.4226 6.012 41.8946 6.1 42.2626 6.276C42.6386 6.452 42.9186 6.72 43.1026 7.08C43.2866 7.432 43.3786 7.888 43.3786 8.448V11.328C43.3786 11.576 43.3186 11.768 43.1986 11.904C43.0786 12.032 42.9066 12.096 42.6826 12.096C42.4586 12.096 42.2826 12.032 42.1546 11.904C42.0346 11.768 41.9746 11.576 41.9746 11.328V10.752H42.0706C42.0146 11.032 41.9026 11.276 41.7346 11.484C41.5746 11.684 41.3706 11.84 41.1226 11.952C40.8746 12.064 40.5906 12.12 40.2706 12.12ZM45.6691 12.096C45.4291 12.096 45.2451 12.032 45.1171 11.904C44.9891 11.768 44.9251 11.576 44.9251 11.328V6.792C44.9251 6.544 44.9891 6.356 45.1171 6.228C45.2451 6.1 45.4251 6.036 45.6571 6.036C45.8891 6.036 46.0691 6.1 46.1971 6.228C46.3251 6.356 46.3891 6.544 46.3891 6.792V7.668L46.2571 7.308C46.4171 6.908 46.6651 6.592 47.0011 6.36C47.3371 6.128 47.7371 6.012 48.2011 6.012C48.6731 6.012 49.0611 6.124 49.3651 6.348C49.6691 6.572 49.8811 6.916 50.0011 7.38H49.8331C49.9931 6.956 50.2571 6.624 50.6251 6.384C50.9931 6.136 51.4171 6.012 51.8971 6.012C52.3451 6.012 52.7131 6.1 53.0011 6.276C53.2971 6.452 53.5171 6.72 53.6611 7.08C53.8051 7.432 53.8771 7.88 53.8771 8.424V11.328C53.8771 11.576 53.8091 11.768 53.6731 11.904C53.5451 12.032 53.3611 12.096 53.1211 12.096C52.8811 12.096 52.6971 12.032 52.5691 11.904C52.4411 11.768 52.3771 11.576 52.3771 11.328V8.484C52.3771 8.036 52.3011 7.708 52.1491 7.5C52.0051 7.292 51.7571 7.188 51.4051 7.188C51.0131 7.188 50.7051 7.328 50.4811 7.608C50.2571 7.88 50.1451 8.26 50.1451 8.748V11.328C50.1451 11.576 50.0811 11.768 49.9531 11.904C49.8251 12.032 49.6411 12.096 49.4011 12.096C49.1611 12.096 48.9731 12.032 48.8371 11.904C48.7091 11.768 48.6451 11.576 48.6451 11.328V8.484C48.6451 8.036 48.5691 7.708 48.4171 7.5C48.2731 7.292 48.0291 7.188 47.6851 7.188C47.2931 7.188 46.9851 7.328 46.7611 7.608C46.5371 7.88 46.4251 8.26 46.4251 8.748V11.328C46.4251 11.84 46.1731 12.096 45.6691 12.096ZM58.3165 12.12C57.6525 12.12 57.0805 11.996 56.6005 11.748C56.1205 11.5 55.7485 11.148 55.4845 10.692C55.2285 10.236 55.1005 9.696 55.1005 9.072C55.1005 8.464 55.2245 7.932 55.4725 7.476C55.7285 7.02 56.0765 6.664 56.5165 6.408C56.9645 6.144 57.4725 6.012 58.0405 6.012C58.4565 6.012 58.8285 6.08 59.1565 6.216C59.4925 6.352 59.7765 6.548 60.0085 6.804C60.2485 7.06 60.4285 7.372 60.5485 7.74C60.6765 8.1 60.7405 8.508 60.7405 8.964C60.7405 9.108 60.6885 9.22 60.5845 9.3C60.4885 9.372 60.3485 9.408 60.1645 9.408H56.3125V8.544H59.6845L59.4925 8.724C59.4925 8.356 59.4365 8.048 59.3245 7.8C59.2205 7.552 59.0645 7.364 58.8565 7.236C58.6565 7.1 58.4045 7.032 58.1005 7.032C57.7645 7.032 57.4765 7.112 57.2365 7.272C57.0045 7.424 56.8245 7.644 56.6965 7.932C56.5765 8.212 56.5165 8.548 56.5165 8.94V9.024C56.5165 9.68 56.6685 10.172 56.9725 10.5C57.2845 10.82 57.7405 10.98 58.3405 10.98C58.5485 10.98 58.7805 10.956 59.0365 10.908C59.3005 10.852 59.5485 10.76 59.7805 10.632C59.9485 10.536 60.0965 10.496 60.2245 10.512C60.3525 10.52 60.4525 10.564 60.5245 10.644C60.6045 10.724 60.6525 10.824 60.6685 10.944C60.6845 11.056 60.6605 11.172 60.5965 11.292C60.5405 11.412 60.4405 11.516 60.2965 11.604C60.0165 11.78 59.6925 11.912 59.3245 12C58.9645 12.08 58.6285 12.12 58.3165 12.12ZM62.4495 7.704C62.3055 7.616 62.2215 7.504 62.1975 7.368C62.1735 7.232 62.2135 7.088 62.3175 6.936L63.0855 5.76L63.3015 6.072L61.8975 6.144C61.7135 6.152 61.5655 6.116 61.4535 6.036C61.3415 5.948 61.2855 5.82 61.2855 5.652C61.2855 5.492 61.3415 5.368 61.4535 5.28C61.5655 5.192 61.7135 5.156 61.8975 5.172L63.3015 5.256L63.0975 5.568L62.3295 4.38C62.2255 4.22 62.1855 4.072 62.2095 3.936C62.2335 3.8 62.3175 3.692 62.4615 3.612C62.5975 3.524 62.7335 3.512 62.8695 3.576C63.0055 3.64 63.1135 3.756 63.1935 3.924L63.7455 5.076H63.5655L64.1175 3.924C64.1975 3.756 64.3055 3.64 64.4415 3.576C64.5775 3.512 64.7175 3.524 64.8615 3.612C65.0055 3.7 65.0855 3.812 65.1015 3.948C65.1255 4.084 65.0855 4.232 64.9815 4.392L64.2135 5.556L64.0095 5.256L65.4135 5.172C65.5975 5.156 65.7455 5.192 65.8575 5.28C65.9695 5.368 66.0255 5.492 66.0255 5.652C66.0255 5.82 65.9695 5.948 65.8575 6.036C65.7455 6.116 65.5975 6.152 65.4135 6.144L64.0095 6.072L64.2135 5.76L64.9815 6.936C65.0855 7.088 65.1255 7.232 65.1015 7.368C65.0855 7.496 65.0055 7.604 64.8615 7.692C64.7095 7.78 64.5655 7.796 64.4295 7.74C64.3015 7.676 64.1975 7.56 64.1175 7.392L63.5655 6.228H63.7455L63.1815 7.392C63.1015 7.56 62.9935 7.676 62.8575 7.74C62.7295 7.796 62.5935 7.784 62.4495 7.704Z" fill="#64728C"/>
<path d="M15.524 46.084C15.38 46.084 15.268 46.044 15.188 45.964C15.108 45.876 15.068 45.756 15.068 45.604V37.936C15.068 37.776 15.108 37.656 15.188 37.576C15.268 37.496 15.38 37.456 15.524 37.456C15.652 37.456 15.752 37.484 15.824 37.54C15.904 37.588 15.976 37.672 16.04 37.792L19.328 43.984H18.968L22.244 37.792C22.308 37.672 22.376 37.588 22.448 37.54C22.52 37.484 22.624 37.456 22.76 37.456C22.896 37.456 23.004 37.496 23.084 37.576C23.164 37.656 23.204 37.776 23.204 37.936V45.604C23.204 45.756 23.164 45.876 23.084 45.964C23.012 46.044 22.9 46.084 22.748 46.084C22.604 46.084 22.492 46.044 22.412 45.964C22.332 45.876 22.292 45.756 22.292 45.604V38.86H22.58L19.58 44.488C19.524 44.592 19.464 44.668 19.4 44.716C19.344 44.756 19.26 44.776 19.148 44.776C19.036 44.776 18.948 44.752 18.884 44.704C18.82 44.656 18.764 44.584 18.716 44.488L15.68 38.848H15.968V45.604C15.968 45.756 15.928 45.876 15.848 45.964C15.776 46.044 15.668 46.084 15.524 46.084ZM25.6576 46.06C25.4976 46.06 25.3776 46.016 25.2976 45.928C25.2176 45.832 25.1776 45.7 25.1776 45.532V40.624C25.1776 40.456 25.2176 40.328 25.2976 40.24C25.3776 40.152 25.4976 40.108 25.6576 40.108C25.8096 40.108 25.9296 40.152 26.0176 40.24C26.1056 40.328 26.1496 40.456 26.1496 40.624V45.532C26.1496 45.7 26.1056 45.832 26.0176 45.928C25.9376 46.016 25.8176 46.06 25.6576 46.06ZM25.6576 38.764C25.4576 38.764 25.3016 38.712 25.1896 38.608C25.0776 38.496 25.0216 38.348 25.0216 38.164C25.0216 37.972 25.0776 37.828 25.1896 37.732C25.3016 37.628 25.4576 37.576 25.6576 37.576C25.8656 37.576 26.0216 37.628 26.1256 37.732C26.2376 37.828 26.2936 37.972 26.2936 38.164C26.2936 38.348 26.2376 38.496 26.1256 38.608C26.0216 38.712 25.8656 38.764 25.6576 38.764ZM28.4467 46.084C28.2867 46.084 28.1667 46.04 28.0867 45.952C28.0067 45.864 27.9667 45.74 27.9667 45.58V37.948C27.9667 37.788 28.0067 37.668 28.0867 37.588C28.1667 37.5 28.2867 37.456 28.4467 37.456C28.5987 37.456 28.7187 37.5 28.8067 37.588C28.8947 37.668 28.9387 37.788 28.9387 37.948V42.76H28.9627L31.4227 40.408C31.5347 40.304 31.6307 40.224 31.7107 40.168C31.7987 40.112 31.9147 40.084 32.0587 40.084C32.1867 40.084 32.2867 40.12 32.3587 40.192C32.4307 40.256 32.4627 40.34 32.4547 40.444C32.4547 40.54 32.4067 40.644 32.3107 40.756L29.6947 43.24V42.712L32.5387 45.388C32.6507 45.5 32.7067 45.608 32.7067 45.712C32.7067 45.816 32.6667 45.904 32.5867 45.976C32.5147 46.048 32.4187 46.084 32.2987 46.084C32.1547 46.084 32.0387 46.056 31.9507 46C31.8627 45.936 31.7547 45.844 31.6267 45.724L28.9627 43.264H28.9387V45.58C28.9387 45.916 28.7747 46.084 28.4467 46.084ZM36.4423 46.108C35.8263 46.108 35.2943 45.988 34.8463 45.748C34.4063 45.5 34.0623 45.152 33.8143 44.704C33.5743 44.256 33.4543 43.72 33.4543 43.096C33.4543 42.488 33.5743 41.96 33.8143 41.512C34.0543 41.056 34.3823 40.7 34.7983 40.444C35.2223 40.188 35.7103 40.06 36.2623 40.06C36.6543 40.06 37.0063 40.128 37.3183 40.264C37.6303 40.392 37.8943 40.58 38.1103 40.828C38.3343 41.076 38.5023 41.376 38.6143 41.728C38.7343 42.08 38.7943 42.476 38.7943 42.916C38.7943 43.044 38.7583 43.14 38.6863 43.204C38.6143 43.26 38.5103 43.288 38.3743 43.288H34.1983V42.652H38.1463L37.9543 42.808C37.9543 42.376 37.8903 42.012 37.7623 41.716C37.6343 41.412 37.4463 41.18 37.1983 41.02C36.9583 40.86 36.6543 40.78 36.2863 40.78C35.8783 40.78 35.5303 40.876 35.2423 41.068C34.9623 41.252 34.7503 41.512 34.6063 41.848C34.4623 42.176 34.3903 42.56 34.3903 43V43.072C34.3903 43.808 34.5663 44.368 34.9183 44.752C35.2783 45.136 35.7863 45.328 36.4423 45.328C36.7143 45.328 36.9823 45.292 37.2463 45.22C37.5183 45.148 37.7823 45.028 38.0383 44.86C38.1503 44.788 38.2503 44.756 38.3383 44.764C38.4343 44.764 38.5103 44.792 38.5663 44.848C38.6223 44.896 38.6583 44.96 38.6743 45.04C38.6983 45.112 38.6903 45.192 38.6503 45.28C38.6183 45.368 38.5503 45.444 38.4463 45.508C38.1823 45.7 37.8703 45.848 37.5103 45.952C37.1503 46.056 36.7943 46.108 36.4423 46.108Z" fill="#64728C"/>
</svg>
