<svg width="321" height="78" viewBox="0 0 321 78" fill="none" xmlns="http://www.w3.org/2000/svg">
<g filter="url(#filter0_d_391_857)">
<rect x="10" y="20" width="301" height="44" rx="10" fill="white"/>
<rect x="10.5" y="20.5" width="300" height="43" rx="9.5" stroke="#34BC40"/>
</g>
<path d="M11.74 12C11.476 12 11.272 11.932 11.128 11.796C10.992 11.652 10.924 11.448 10.924 11.184V4.356C10.924 4.092 10.992 3.892 11.128 3.756C11.272 3.612 11.476 3.54 11.74 3.54H16.024C16.224 3.54 16.376 3.592 16.48 3.696C16.592 3.8 16.648 3.948 16.648 4.14C16.648 4.34 16.592 4.496 16.48 4.608C16.376 4.712 16.224 4.764 16.024 4.764H12.4V7.092H15.76C15.968 7.092 16.124 7.144 16.228 7.248C16.332 7.352 16.384 7.504 16.384 7.704C16.384 7.904 16.332 8.056 16.228 8.16C16.124 8.264 15.968 8.316 15.76 8.316H12.4V10.776H16.024C16.224 10.776 16.376 10.828 16.48 10.932C16.592 11.036 16.648 11.188 16.648 11.388C16.648 11.588 16.592 11.74 16.48 11.844C16.376 11.948 16.224 12 16.024 12H11.74ZM18.7082 12.096C18.4682 12.096 18.2842 12.032 18.1562 11.904C18.0282 11.768 17.9642 11.576 17.9642 11.328V6.792C17.9642 6.544 18.0282 6.356 18.1562 6.228C18.2842 6.1 18.4642 6.036 18.6962 6.036C18.9282 6.036 19.1082 6.1 19.2362 6.228C19.3642 6.356 19.4282 6.544 19.4282 6.792V7.668L19.2962 7.308C19.4562 6.908 19.7042 6.592 20.0402 6.36C20.3762 6.128 20.7762 6.012 21.2402 6.012C21.7122 6.012 22.1002 6.124 22.4042 6.348C22.7082 6.572 22.9202 6.916 23.0402 7.38H22.8722C23.0322 6.956 23.2962 6.624 23.6642 6.384C24.0322 6.136 24.4562 6.012 24.9362 6.012C25.3842 6.012 25.7522 6.1 26.0402 6.276C26.3362 6.452 26.5562 6.72 26.7002 7.08C26.8442 7.432 26.9162 7.88 26.9162 8.424V11.328C26.9162 11.576 26.8482 11.768 26.7122 11.904C26.5842 12.032 26.4002 12.096 26.1602 12.096C25.9202 12.096 25.7362 12.032 25.6082 11.904C25.4802 11.768 25.4162 11.576 25.4162 11.328V8.484C25.4162 8.036 25.3402 7.708 25.1882 7.5C25.0442 7.292 24.7962 7.188 24.4442 7.188C24.0522 7.188 23.7442 7.328 23.5202 7.608C23.2962 7.88 23.1842 8.26 23.1842 8.748V11.328C23.1842 11.576 23.1202 11.768 22.9922 11.904C22.8642 12.032 22.6802 12.096 22.4402 12.096C22.2002 12.096 22.0122 12.032 21.8762 11.904C21.7482 11.768 21.6842 11.576 21.6842 11.328V8.484C21.6842 8.036 21.6082 7.708 21.4562 7.5C21.3122 7.292 21.0682 7.188 20.7242 7.188C20.3322 7.188 20.0242 7.328 19.8002 7.608C19.5762 7.88 19.4642 8.26 19.4642 8.748V11.328C19.4642 11.84 19.2122 12.096 18.7082 12.096ZM30.3956 12.12C29.9716 12.12 29.5916 12.04 29.2556 11.88C28.9276 11.712 28.6676 11.488 28.4756 11.208C28.2916 10.928 28.1996 10.612 28.1996 10.26C28.1996 9.828 28.3116 9.488 28.5356 9.24C28.7596 8.984 29.1236 8.8 29.6276 8.688C30.1316 8.576 30.8076 8.52 31.6556 8.52H32.2556V9.384H31.6676C31.1716 9.384 30.7756 9.408 30.4796 9.456C30.1836 9.504 29.9716 9.588 29.8436 9.708C29.7236 9.82 29.6636 9.98 29.6636 10.188C29.6636 10.452 29.7556 10.668 29.9396 10.836C30.1236 11.004 30.3796 11.088 30.7076 11.088C30.9716 11.088 31.2036 11.028 31.4036 10.908C31.6116 10.78 31.7756 10.608 31.8956 10.392C32.0156 10.176 32.0756 9.928 32.0756 9.648V8.268C32.0756 7.868 31.9876 7.58 31.8116 7.404C31.6356 7.228 31.3396 7.14 30.9236 7.14C30.6916 7.14 30.4396 7.168 30.1676 7.224C29.9036 7.28 29.6236 7.376 29.3276 7.512C29.1756 7.584 29.0396 7.604 28.9196 7.572C28.8076 7.54 28.7196 7.476 28.6556 7.38C28.5916 7.276 28.5596 7.164 28.5596 7.044C28.5596 6.924 28.5916 6.808 28.6556 6.696C28.7196 6.576 28.8276 6.488 28.9796 6.432C29.3476 6.28 29.6996 6.172 30.0356 6.108C30.3796 6.044 30.6916 6.012 30.9716 6.012C31.5476 6.012 32.0196 6.1 32.3876 6.276C32.7636 6.452 33.0436 6.72 33.2276 7.08C33.4116 7.432 33.5036 7.888 33.5036 8.448V11.328C33.5036 11.576 33.4436 11.768 33.3236 11.904C33.2036 12.032 33.0316 12.096 32.8076 12.096C32.5836 12.096 32.4076 12.032 32.2796 11.904C32.1596 11.768 32.0996 11.576 32.0996 11.328V10.752H32.1956C32.1396 11.032 32.0276 11.276 31.8596 11.484C31.6996 11.684 31.4956 11.84 31.2476 11.952C30.9996 12.064 30.7156 12.12 30.3956 12.12ZM35.7701 12.084C35.5301 12.084 35.3461 12.012 35.2181 11.868C35.0901 11.724 35.0261 11.524 35.0261 11.268V6.864C35.0261 6.6 35.0901 6.4 35.2181 6.264C35.3461 6.12 35.5301 6.048 35.7701 6.048C36.0101 6.048 36.1941 6.12 36.3221 6.264C36.4581 6.4 36.5261 6.6 36.5261 6.864V11.268C36.5261 11.524 36.4621 11.724 36.3341 11.868C36.2061 12.012 36.0181 12.084 35.7701 12.084ZM35.7701 4.932C35.4901 4.932 35.2701 4.864 35.1101 4.728C34.9581 4.584 34.8821 4.388 34.8821 4.14C34.8821 3.884 34.9581 3.688 35.1101 3.552C35.2701 3.416 35.4901 3.348 35.7701 3.348C36.0581 3.348 36.2781 3.416 36.4301 3.552C36.5821 3.688 36.6581 3.884 36.6581 4.14C36.6581 4.388 36.5821 4.584 36.4301 4.728C36.2781 4.864 36.0581 4.932 35.7701 4.932ZM40.0887 12.12C39.4247 12.12 38.9247 11.932 38.5887 11.556C38.2527 11.172 38.0847 10.612 38.0847 9.876V4.2C38.0847 3.952 38.1487 3.764 38.2767 3.636C38.4047 3.508 38.5887 3.444 38.8287 3.444C39.0687 3.444 39.2527 3.508 39.3807 3.636C39.5167 3.764 39.5847 3.952 39.5847 4.2V9.804C39.5847 10.172 39.6607 10.444 39.8127 10.62C39.9727 10.796 40.1967 10.884 40.4847 10.884C40.5487 10.884 40.6087 10.884 40.6647 10.884C40.7207 10.876 40.7767 10.868 40.8327 10.86C40.9447 10.844 41.0207 10.876 41.0607 10.956C41.1007 11.028 41.1207 11.18 41.1207 11.412C41.1207 11.612 41.0807 11.768 41.0007 11.88C40.9207 11.992 40.7887 12.06 40.6047 12.084C40.5247 12.092 40.4407 12.1 40.3527 12.108C40.2647 12.116 40.1767 12.12 40.0887 12.12Z" fill="#64728C"/>
<path d="M25.88 46.108C25.52 46.108 25.156 46.064 24.788 45.976C24.428 45.888 24.092 45.736 23.78 45.52C23.7 45.464 23.644 45.4 23.612 45.328C23.58 45.248 23.568 45.172 23.576 45.1C23.592 45.02 23.624 44.952 23.672 44.896C23.728 44.84 23.792 44.808 23.864 44.8C23.944 44.784 24.032 44.8 24.128 44.848C24.44 45.04 24.74 45.176 25.028 45.256C25.324 45.328 25.616 45.364 25.904 45.364C26.36 45.364 26.704 45.28 26.936 45.112C27.168 44.944 27.284 44.716 27.284 44.428C27.284 44.204 27.208 44.028 27.056 43.9C26.904 43.764 26.664 43.66 26.336 43.588L25.244 43.348C24.74 43.244 24.364 43.064 24.116 42.808C23.876 42.552 23.756 42.22 23.756 41.812C23.756 41.452 23.848 41.144 24.032 40.888C24.224 40.624 24.492 40.42 24.836 40.276C25.18 40.132 25.58 40.06 26.036 40.06C26.388 40.06 26.72 40.108 27.032 40.204C27.352 40.292 27.64 40.436 27.896 40.636C27.976 40.692 28.028 40.76 28.052 40.84C28.084 40.912 28.088 40.988 28.064 41.068C28.048 41.14 28.012 41.204 27.956 41.26C27.9 41.308 27.832 41.336 27.752 41.344C27.672 41.352 27.588 41.328 27.5 41.272C27.26 41.112 27.016 40.996 26.768 40.924C26.52 40.844 26.276 40.804 26.036 40.804C25.588 40.804 25.248 40.892 25.016 41.068C24.784 41.244 24.668 41.476 24.668 41.764C24.668 41.988 24.74 42.172 24.884 42.316C25.028 42.46 25.252 42.564 25.556 42.628L26.648 42.856C27.168 42.968 27.556 43.148 27.812 43.396C28.076 43.636 28.208 43.964 28.208 44.38C28.208 44.908 27.996 45.328 27.572 45.64C27.148 45.952 26.584 46.108 25.88 46.108ZM32.1133 46.108C31.5453 46.108 31.0533 45.984 30.6373 45.736C30.2213 45.488 29.8973 45.14 29.6653 44.692C29.4413 44.236 29.3293 43.7 29.3293 43.084C29.3293 42.62 29.3933 42.204 29.5213 41.836C29.6493 41.46 29.8373 41.14 30.0853 40.876C30.3333 40.612 30.6253 40.412 30.9613 40.276C31.3053 40.132 31.6893 40.06 32.1133 40.06C32.6813 40.06 33.1733 40.184 33.5893 40.432C34.0053 40.68 34.3253 41.032 34.5493 41.488C34.7813 41.936 34.8973 42.468 34.8973 43.084C34.8973 43.548 34.8333 43.964 34.7053 44.332C34.5773 44.7 34.3893 45.02 34.1413 45.292C33.8933 45.556 33.5973 45.76 33.2533 45.904C32.9173 46.04 32.5373 46.108 32.1133 46.108ZM32.1133 45.328C32.4733 45.328 32.7893 45.24 33.0613 45.064C33.3333 44.888 33.5413 44.632 33.6853 44.296C33.8373 43.96 33.9133 43.556 33.9133 43.084C33.9133 42.356 33.7493 41.8 33.4213 41.416C33.1013 41.032 32.6653 40.84 32.1133 40.84C31.7453 40.84 31.4253 40.928 31.1533 41.104C30.8893 41.272 30.6813 41.524 30.5293 41.86C30.3853 42.188 30.3133 42.596 30.3133 43.084C30.3133 43.804 30.4773 44.36 30.8053 44.752C31.1333 45.136 31.5693 45.328 32.1133 45.328ZM36.8613 46.084C36.7013 46.084 36.5813 46.04 36.5013 45.952C36.4213 45.864 36.3813 45.74 36.3813 45.58V40.576C36.3813 40.416 36.4213 40.296 36.5013 40.216C36.5813 40.128 36.6973 40.084 36.8493 40.084C37.0013 40.084 37.1173 40.128 37.1973 40.216C37.2853 40.296 37.3293 40.416 37.3293 40.576V41.632L37.1973 41.464C37.3493 41.016 37.5933 40.672 37.9293 40.432C38.2733 40.184 38.6813 40.06 39.1533 40.06C39.6493 40.06 40.0493 40.18 40.3533 40.42C40.6653 40.652 40.8733 41.016 40.9773 41.512H40.7973C40.9413 41.064 41.1973 40.712 41.5653 40.456C41.9413 40.192 42.3773 40.06 42.8733 40.06C43.3133 40.06 43.6733 40.144 43.9533 40.312C44.2413 40.48 44.4573 40.736 44.6013 41.08C44.7453 41.416 44.8173 41.844 44.8173 42.364V45.58C44.8173 45.74 44.7733 45.864 44.6853 45.952C44.6053 46.04 44.4853 46.084 44.3253 46.084C44.1733 46.084 44.0533 46.04 43.9653 45.952C43.8853 45.864 43.8453 45.74 43.8453 45.58V42.412C43.8453 41.876 43.7533 41.484 43.5693 41.236C43.3853 40.98 43.0733 40.852 42.6333 40.852C42.1533 40.852 41.7733 41.02 41.4933 41.356C41.2213 41.684 41.0853 42.132 41.0853 42.7V45.58C41.0853 45.74 41.0413 45.864 40.9533 45.952C40.8733 46.04 40.7533 46.084 40.5933 46.084C40.4413 46.084 40.3213 46.04 40.2333 45.952C40.1533 45.864 40.1133 45.74 40.1133 45.58V42.412C40.1133 41.876 40.0173 41.484 39.8253 41.236C39.6413 40.98 39.3333 40.852 38.9013 40.852C38.4213 40.852 38.0413 41.02 37.7613 41.356C37.4893 41.684 37.3533 42.132 37.3533 42.7V45.58C37.3533 45.916 37.1893 46.084 36.8613 46.084ZM49.2627 46.108C48.6467 46.108 48.1147 45.988 47.6667 45.748C47.2267 45.5 46.8827 45.152 46.6347 44.704C46.3947 44.256 46.2747 43.72 46.2747 43.096C46.2747 42.488 46.3947 41.96 46.6347 41.512C46.8747 41.056 47.2027 40.7 47.6187 40.444C48.0427 40.188 48.5307 40.06 49.0827 40.06C49.4747 40.06 49.8267 40.128 50.1387 40.264C50.4507 40.392 50.7147 40.58 50.9307 40.828C51.1547 41.076 51.3227 41.376 51.4347 41.728C51.5547 42.08 51.6147 42.476 51.6147 42.916C51.6147 43.044 51.5787 43.14 51.5067 43.204C51.4347 43.26 51.3307 43.288 51.1947 43.288H47.0187V42.652H50.9667L50.7747 42.808C50.7747 42.376 50.7107 42.012 50.5827 41.716C50.4547 41.412 50.2667 41.18 50.0187 41.02C49.7787 40.86 49.4747 40.78 49.1067 40.78C48.6987 40.78 48.3507 40.876 48.0627 41.068C47.7827 41.252 47.5707 41.512 47.4267 41.848C47.2827 42.176 47.2107 42.56 47.2107 43V43.072C47.2107 43.808 47.3867 44.368 47.7387 44.752C48.0987 45.136 48.6067 45.328 49.2627 45.328C49.5347 45.328 49.8027 45.292 50.0667 45.22C50.3387 45.148 50.6027 45.028 50.8587 44.86C50.9707 44.788 51.0707 44.756 51.1587 44.764C51.2547 44.764 51.3307 44.792 51.3867 44.848C51.4427 44.896 51.4787 44.96 51.4947 45.04C51.5187 45.112 51.5107 45.192 51.4707 45.28C51.4387 45.368 51.3707 45.444 51.2667 45.508C51.0027 45.7 50.6907 45.848 50.3307 45.952C49.9707 46.056 49.6147 46.108 49.2627 46.108ZM55.4454 46.108C54.8774 46.108 54.3854 45.984 53.9694 45.736C53.5534 45.488 53.2294 45.14 52.9974 44.692C52.7734 44.236 52.6614 43.7 52.6614 43.084C52.6614 42.62 52.7254 42.204 52.8534 41.836C52.9814 41.46 53.1694 41.14 53.4174 40.876C53.6654 40.612 53.9574 40.412 54.2934 40.276C54.6374 40.132 55.0214 40.06 55.4454 40.06C56.0134 40.06 56.5054 40.184 56.9214 40.432C57.3374 40.68 57.6574 41.032 57.8814 41.488C58.1134 41.936 58.2294 42.468 58.2294 43.084C58.2294 43.548 58.1654 43.964 58.0374 44.332C57.9094 44.7 57.7214 45.02 57.4734 45.292C57.2254 45.556 56.9294 45.76 56.5854 45.904C56.2494 46.04 55.8694 46.108 55.4454 46.108ZM55.4454 45.328C55.8054 45.328 56.1214 45.24 56.3934 45.064C56.6654 44.888 56.8734 44.632 57.0174 44.296C57.1694 43.96 57.2454 43.556 57.2454 43.084C57.2454 42.356 57.0814 41.8 56.7534 41.416C56.4334 41.032 55.9974 40.84 55.4454 40.84C55.0774 40.84 54.7574 40.928 54.4854 41.104C54.2214 41.272 54.0134 41.524 53.8614 41.86C53.7174 42.188 53.6454 42.596 53.6454 43.084C53.6454 43.804 53.8094 44.36 54.1374 44.752C54.4654 45.136 54.9014 45.328 55.4454 45.328ZM60.1693 46.084C60.0093 46.084 59.8893 46.04 59.8093 45.952C59.7293 45.864 59.6893 45.74 59.6893 45.58V40.576C59.6893 40.416 59.7293 40.296 59.8093 40.216C59.8893 40.128 60.0053 40.084 60.1573 40.084C60.3093 40.084 60.4253 40.128 60.5053 40.216C60.5933 40.296 60.6373 40.416 60.6373 40.576V41.608L60.5053 41.464C60.6733 41 60.9453 40.652 61.3213 40.42C61.7053 40.18 62.1453 40.06 62.6413 40.06C63.1053 40.06 63.4893 40.144 63.7933 40.312C64.1053 40.48 64.3373 40.736 64.4893 41.08C64.6413 41.416 64.7173 41.844 64.7173 42.364V45.58C64.7173 45.74 64.6733 45.864 64.5853 45.952C64.5053 46.04 64.3893 46.084 64.2373 46.084C64.0773 46.084 63.9533 46.04 63.8653 45.952C63.7853 45.864 63.7453 45.74 63.7453 45.58V42.424C63.7453 41.88 63.6373 41.484 63.4213 41.236C63.2133 40.98 62.8773 40.852 62.4133 40.852C61.8773 40.852 61.4493 41.02 61.1293 41.356C60.8173 41.684 60.6613 42.124 60.6613 42.676V45.58C60.6613 45.916 60.4973 46.084 60.1693 46.084ZM69.1377 46.108C68.5217 46.108 67.9897 45.988 67.5417 45.748C67.1017 45.5 66.7577 45.152 66.5097 44.704C66.2697 44.256 66.1497 43.72 66.1497 43.096C66.1497 42.488 66.2697 41.96 66.5097 41.512C66.7497 41.056 67.0777 40.7 67.4937 40.444C67.9177 40.188 68.4057 40.06 68.9577 40.06C69.3497 40.06 69.7017 40.128 70.0137 40.264C70.3257 40.392 70.5897 40.58 70.8057 40.828C71.0297 41.076 71.1977 41.376 71.3097 41.728C71.4297 42.08 71.4897 42.476 71.4897 42.916C71.4897 43.044 71.4537 43.14 71.3817 43.204C71.3097 43.26 71.2057 43.288 71.0697 43.288H66.8937V42.652H70.8417L70.6497 42.808C70.6497 42.376 70.5857 42.012 70.4577 41.716C70.3297 41.412 70.1417 41.18 69.8937 41.02C69.6537 40.86 69.3497 40.78 68.9817 40.78C68.5737 40.78 68.2257 40.876 67.9377 41.068C67.6577 41.252 67.4457 41.512 67.3017 41.848C67.1577 42.176 67.0857 42.56 67.0857 43V43.072C67.0857 43.808 67.2617 44.368 67.6137 44.752C67.9737 45.136 68.4817 45.328 69.1377 45.328C69.4097 45.328 69.6777 45.292 69.9417 45.22C70.2137 45.148 70.4777 45.028 70.7337 44.86C70.8457 44.788 70.9457 44.756 71.0337 44.764C71.1297 44.764 71.2057 44.792 71.2617 44.848C71.3177 44.896 71.3537 44.96 71.3697 45.04C71.3937 45.112 71.3857 45.192 71.3457 45.28C71.3137 45.368 71.2457 45.444 71.1417 45.508C70.8777 45.7 70.5657 45.848 70.2057 45.952C69.8457 46.056 69.4897 46.108 69.1377 46.108ZM77.8044 47.956C77.0364 47.956 76.3404 47.832 75.7164 47.584C75.0924 47.344 74.5564 46.996 74.1084 46.54C73.6604 46.084 73.3164 45.536 73.0764 44.896C72.8364 44.248 72.7164 43.524 72.7164 42.724C72.7164 41.94 72.8404 41.224 73.0884 40.576C73.3444 39.928 73.7044 39.372 74.1684 38.908C74.6404 38.436 75.1964 38.072 75.8364 37.816C76.4764 37.56 77.1844 37.432 77.9604 37.432C78.8884 37.432 79.7004 37.62 80.3964 37.996C81.0924 38.364 81.6324 38.88 82.0164 39.544C82.4084 40.208 82.6044 40.984 82.6044 41.872C82.6044 42.568 82.5084 43.172 82.3164 43.684C82.1244 44.196 81.8564 44.592 81.5124 44.872C81.1764 45.152 80.7804 45.292 80.3244 45.292C79.8444 45.292 79.4804 45.156 79.2324 44.884C78.9924 44.604 78.8884 44.228 78.9204 43.756L79.1484 43.816C78.9484 44.296 78.6644 44.664 78.2964 44.92C77.9284 45.168 77.5404 45.292 77.1324 45.292C76.5164 45.292 76.0364 45.1 75.6924 44.716C75.3564 44.324 75.1884 43.788 75.1884 43.108C75.1884 42.524 75.3004 42.004 75.5244 41.548C75.7484 41.084 76.0564 40.72 76.4484 40.456C76.8404 40.192 77.2844 40.06 77.7804 40.06C78.2124 40.06 78.5684 40.168 78.8484 40.384C79.1284 40.6 79.3084 40.904 79.3884 41.296H79.2564L79.3884 40.492C79.4284 40.236 79.5764 40.108 79.8324 40.108C79.9684 40.108 80.0644 40.148 80.1204 40.228C80.1844 40.3 80.2044 40.408 80.1804 40.552L79.7004 43.276C79.6844 43.38 79.6724 43.48 79.6644 43.576C79.6564 43.672 79.6524 43.76 79.6524 43.84C79.6524 44.104 79.7124 44.304 79.8324 44.44C79.9524 44.576 80.1324 44.644 80.3724 44.644C80.6844 44.644 80.9524 44.528 81.1764 44.296C81.4084 44.064 81.5884 43.74 81.7164 43.324C81.8524 42.908 81.9204 42.424 81.9204 41.872C81.9204 41.112 81.7524 40.452 81.4164 39.892C81.0884 39.332 80.6284 38.896 80.0364 38.584C79.4444 38.272 78.7484 38.116 77.9484 38.116C77.0604 38.116 76.2804 38.308 75.6084 38.692C74.9364 39.076 74.4124 39.616 74.0364 40.312C73.6604 41 73.4724 41.804 73.4724 42.724C73.4724 43.676 73.6484 44.492 74.0004 45.172C74.3604 45.852 74.8644 46.372 75.5124 46.732C76.1604 47.1 76.9244 47.284 77.8044 47.284C78.3884 47.284 78.9204 47.2 79.4004 47.032C79.8804 46.864 80.2844 46.636 80.6124 46.348C80.7244 46.26 80.8284 46.22 80.9244 46.228C81.0204 46.244 81.0964 46.288 81.1524 46.36C81.2084 46.432 81.2284 46.516 81.2124 46.612C81.2044 46.708 81.1484 46.804 81.0444 46.9C80.6764 47.22 80.2124 47.476 79.6524 47.668C79.1004 47.86 78.4844 47.956 77.8044 47.956ZM77.2404 44.596C77.6004 44.596 77.9164 44.488 78.1884 44.272C78.4684 44.056 78.6884 43.76 78.8484 43.384C79.0084 43.008 79.0884 42.58 79.0884 42.1C79.0884 41.652 78.9884 41.316 78.7884 41.092C78.5884 40.868 78.2804 40.756 77.8644 40.756C77.5124 40.756 77.1964 40.856 76.9164 41.056C76.6364 41.256 76.4124 41.532 76.2444 41.884C76.0844 42.236 76.0044 42.644 76.0044 43.108C76.0044 43.588 76.1124 43.956 76.3284 44.212C76.5444 44.468 76.8484 44.596 77.2404 44.596ZM86.0878 46.108C85.6878 46.108 85.3278 46.032 85.0078 45.88C84.6958 45.72 84.4478 45.504 84.2638 45.232C84.0798 44.96 83.9878 44.656 83.9878 44.32C83.9878 43.888 84.0958 43.548 84.3118 43.3C84.5358 43.052 84.8998 42.876 85.4038 42.772C85.9158 42.668 86.6118 42.616 87.4918 42.616H88.0318V43.252H87.5038C86.8558 43.252 86.3438 43.284 85.9678 43.348C85.5998 43.404 85.3398 43.504 85.1878 43.648C85.0438 43.792 84.9718 43.996 84.9718 44.26C84.9718 44.588 85.0838 44.856 85.3078 45.064C85.5398 45.272 85.8518 45.376 86.2438 45.376C86.5638 45.376 86.8438 45.3 87.0838 45.148C87.3318 44.996 87.5238 44.788 87.6598 44.524C87.8038 44.26 87.8758 43.956 87.8758 43.612V42.244C87.8758 41.748 87.7758 41.392 87.5758 41.176C87.3758 40.952 87.0478 40.84 86.5918 40.84C86.3118 40.84 86.0318 40.876 85.7518 40.948C85.4718 41.02 85.1758 41.136 84.8638 41.296C84.7518 41.352 84.6558 41.372 84.5758 41.356C84.4958 41.332 84.4318 41.288 84.3838 41.224C84.3358 41.16 84.3078 41.088 84.2998 41.008C84.2918 40.92 84.3078 40.836 84.3478 40.756C84.3958 40.676 84.4678 40.612 84.5638 40.564C84.9158 40.388 85.2638 40.26 85.6078 40.18C85.9518 40.1 86.2798 40.06 86.5918 40.06C87.0958 40.06 87.5118 40.144 87.8398 40.312C88.1678 40.472 88.4118 40.72 88.5718 41.056C88.7318 41.384 88.8118 41.808 88.8118 42.328V45.58C88.8118 45.74 88.7718 45.864 88.6918 45.952C88.6198 46.04 88.5118 46.084 88.3678 46.084C88.2158 46.084 88.0998 46.04 88.0198 45.952C87.9398 45.864 87.8998 45.74 87.8998 45.58V44.644H88.0078C87.9438 44.948 87.8198 45.208 87.6358 45.424C87.4598 45.64 87.2398 45.808 86.9758 45.928C86.7118 46.048 86.4158 46.108 86.0878 46.108ZM93.5671 46.108C93.0391 46.108 92.5831 45.972 92.1991 45.7C91.8231 45.428 91.5711 45.064 91.4431 44.608L91.5751 44.476V45.58C91.5751 45.74 91.5311 45.864 91.4431 45.952C91.3631 46.04 91.2471 46.084 91.0951 46.084C90.9351 46.084 90.8151 46.04 90.7351 45.952C90.6551 45.864 90.6151 45.74 90.6151 45.58V37.948C90.6151 37.788 90.6551 37.668 90.7351 37.588C90.8151 37.5 90.9351 37.456 91.0951 37.456C91.2471 37.456 91.3671 37.5 91.4551 37.588C91.5431 37.668 91.5871 37.788 91.5871 37.948V41.524H91.4431C91.5791 41.076 91.8351 40.72 92.2111 40.456C92.5871 40.192 93.0391 40.06 93.5671 40.06C94.0951 40.06 94.5511 40.184 94.9351 40.432C95.3191 40.672 95.6151 41.02 95.8231 41.476C96.0391 41.924 96.1471 42.46 96.1471 43.084C96.1471 43.7 96.0391 44.236 95.8231 44.692C95.6151 45.14 95.3151 45.488 94.9231 45.736C94.5391 45.984 94.0871 46.108 93.5671 46.108ZM93.3631 45.328C93.7311 45.328 94.0471 45.24 94.3111 45.064C94.5831 44.888 94.7911 44.632 94.9351 44.296C95.0871 43.96 95.1631 43.556 95.1631 43.084C95.1631 42.356 94.9991 41.8 94.6711 41.416C94.3511 41.032 93.9151 40.84 93.3631 40.84C93.0031 40.84 92.6871 40.928 92.4151 41.104C92.1431 41.272 91.9311 41.524 91.7791 41.86C91.6351 42.188 91.5631 42.596 91.5631 43.084C91.5631 43.804 91.7271 44.36 92.0551 44.752C92.3831 45.136 92.8191 45.328 93.3631 45.328ZM100.083 46.108C99.4992 46.108 98.9952 45.98 98.5712 45.724C98.1472 45.468 97.8192 45.112 97.5872 44.656C97.3632 44.192 97.2512 43.656 97.2512 43.048C97.2512 42.584 97.3152 42.168 97.4432 41.8C97.5712 41.432 97.7592 41.12 98.0072 40.864C98.2552 40.6 98.5512 40.4 98.8952 40.264C99.2472 40.128 99.6432 40.06 100.083 40.06C100.371 40.06 100.671 40.104 100.983 40.192C101.295 40.28 101.579 40.432 101.835 40.648C101.915 40.704 101.967 40.772 101.991 40.852C102.015 40.932 102.015 41.012 101.991 41.092C101.967 41.164 101.927 41.228 101.871 41.284C101.815 41.332 101.743 41.36 101.655 41.368C101.575 41.376 101.491 41.348 101.403 41.284C101.195 41.124 100.983 41.012 100.767 40.948C100.551 40.884 100.343 40.852 100.143 40.852C99.8312 40.852 99.5592 40.904 99.3272 41.008C99.0952 41.104 98.8992 41.244 98.7392 41.428C98.5792 41.612 98.4552 41.84 98.3672 42.112C98.2872 42.384 98.2472 42.7 98.2472 43.06C98.2472 43.756 98.4112 44.308 98.7392 44.716C99.0672 45.116 99.5352 45.316 100.143 45.316C100.343 45.316 100.547 45.284 100.755 45.22C100.971 45.156 101.187 45.044 101.403 44.884C101.491 44.82 101.575 44.792 101.655 44.8C101.735 44.808 101.803 44.84 101.859 44.896C101.915 44.944 101.951 45.008 101.967 45.088C101.991 45.168 101.991 45.248 101.967 45.328C101.943 45.4 101.891 45.464 101.811 45.52C101.555 45.728 101.275 45.88 100.971 45.976C100.667 46.064 100.371 46.108 100.083 46.108ZM103.751 46.048C103.551 46.048 103.391 45.988 103.271 45.868C103.151 45.74 103.091 45.58 103.091 45.388C103.091 45.196 103.151 45.04 103.271 44.92C103.391 44.792 103.551 44.728 103.751 44.728C103.951 44.728 104.107 44.792 104.219 44.92C104.339 45.04 104.399 45.196 104.399 45.388C104.399 45.58 104.339 45.74 104.219 45.868C104.107 45.988 103.951 46.048 103.751 46.048ZM108.216 46.108C107.632 46.108 107.128 45.98 106.704 45.724C106.28 45.468 105.952 45.112 105.72 44.656C105.496 44.192 105.384 43.656 105.384 43.048C105.384 42.584 105.448 42.168 105.576 41.8C105.704 41.432 105.892 41.12 106.14 40.864C106.388 40.6 106.684 40.4 107.028 40.264C107.38 40.128 107.776 40.06 108.216 40.06C108.504 40.06 108.804 40.104 109.116 40.192C109.428 40.28 109.712 40.432 109.968 40.648C110.048 40.704 110.1 40.772 110.124 40.852C110.148 40.932 110.148 41.012 110.124 41.092C110.1 41.164 110.06 41.228 110.004 41.284C109.948 41.332 109.876 41.36 109.788 41.368C109.708 41.376 109.624 41.348 109.536 41.284C109.328 41.124 109.116 41.012 108.9 40.948C108.684 40.884 108.476 40.852 108.276 40.852C107.964 40.852 107.692 40.904 107.46 41.008C107.228 41.104 107.032 41.244 106.872 41.428C106.712 41.612 106.588 41.84 106.5 42.112C106.42 42.384 106.38 42.7 106.38 43.06C106.38 43.756 106.544 44.308 106.872 44.716C107.2 45.116 107.668 45.316 108.276 45.316C108.476 45.316 108.68 45.284 108.888 45.22C109.104 45.156 109.32 45.044 109.536 44.884C109.624 44.82 109.708 44.792 109.788 44.8C109.868 44.808 109.936 44.84 109.992 44.896C110.048 44.944 110.084 45.008 110.1 45.088C110.124 45.168 110.124 45.248 110.1 45.328C110.076 45.4 110.024 45.464 109.944 45.52C109.688 45.728 109.408 45.88 109.104 45.976C108.8 46.064 108.504 46.108 108.216 46.108ZM113.606 46.108C113.038 46.108 112.546 45.984 112.13 45.736C111.714 45.488 111.39 45.14 111.158 44.692C110.934 44.236 110.822 43.7 110.822 43.084C110.822 42.62 110.886 42.204 111.014 41.836C111.142 41.46 111.33 41.14 111.578 40.876C111.826 40.612 112.118 40.412 112.454 40.276C112.798 40.132 113.182 40.06 113.606 40.06C114.174 40.06 114.666 40.184 115.082 40.432C115.498 40.68 115.818 41.032 116.042 41.488C116.274 41.936 116.39 42.468 116.39 43.084C116.39 43.548 116.326 43.964 116.198 44.332C116.07 44.7 115.882 45.02 115.634 45.292C115.386 45.556 115.09 45.76 114.746 45.904C114.41 46.04 114.03 46.108 113.606 46.108ZM113.606 45.328C113.966 45.328 114.282 45.24 114.554 45.064C114.826 44.888 115.034 44.632 115.178 44.296C115.33 43.96 115.406 43.556 115.406 43.084C115.406 42.356 115.242 41.8 114.914 41.416C114.594 41.032 114.158 40.84 113.606 40.84C113.238 40.84 112.918 40.928 112.646 41.104C112.382 41.272 112.174 41.524 112.022 41.86C111.878 42.188 111.806 42.596 111.806 43.084C111.806 43.804 111.97 44.36 112.298 44.752C112.626 45.136 113.062 45.328 113.606 45.328ZM118.354 46.084C118.194 46.084 118.074 46.04 117.994 45.952C117.914 45.864 117.874 45.74 117.874 45.58V40.576C117.874 40.416 117.914 40.296 117.994 40.216C118.074 40.128 118.19 40.084 118.342 40.084C118.494 40.084 118.61 40.128 118.69 40.216C118.778 40.296 118.822 40.416 118.822 40.576V41.632L118.69 41.464C118.842 41.016 119.086 40.672 119.422 40.432C119.766 40.184 120.174 40.06 120.646 40.06C121.142 40.06 121.542 40.18 121.846 40.42C122.158 40.652 122.366 41.016 122.47 41.512H122.29C122.434 41.064 122.69 40.712 123.058 40.456C123.434 40.192 123.87 40.06 124.366 40.06C124.806 40.06 125.166 40.144 125.446 40.312C125.734 40.48 125.95 40.736 126.094 41.08C126.238 41.416 126.31 41.844 126.31 42.364V45.58C126.31 45.74 126.266 45.864 126.178 45.952C126.098 46.04 125.978 46.084 125.818 46.084C125.666 46.084 125.546 46.04 125.458 45.952C125.378 45.864 125.338 45.74 125.338 45.58V42.412C125.338 41.876 125.246 41.484 125.062 41.236C124.878 40.98 124.566 40.852 124.126 40.852C123.646 40.852 123.266 41.02 122.986 41.356C122.714 41.684 122.578 42.132 122.578 42.7V45.58C122.578 45.74 122.534 45.864 122.446 45.952C122.366 46.04 122.246 46.084 122.086 46.084C121.934 46.084 121.814 46.04 121.726 45.952C121.646 45.864 121.606 45.74 121.606 45.58V42.412C121.606 41.876 121.51 41.484 121.318 41.236C121.134 40.98 120.826 40.852 120.394 40.852C119.914 40.852 119.534 41.02 119.254 41.356C118.982 41.684 118.846 42.132 118.846 42.7V45.58C118.846 45.916 118.682 46.084 118.354 46.084Z" fill="#64728C"/>
<defs>
<filter id="filter0_d_391_857" x="0" y="14" width="321" height="64" filterUnits="userSpaceOnUse" color-interpolation-filters="sRGB">
<feFlood flood-opacity="0" result="BackgroundImageFix"/>
<feColorMatrix in="SourceAlpha" type="matrix" values="0 0 0 0 0 0 0 0 0 0 0 0 0 0 0 0 0 0 127 0" result="hardAlpha"/>
<feOffset dy="4"/>
<feGaussianBlur stdDeviation="5"/>
<feComposite in2="hardAlpha" operator="out"/>
<feColorMatrix type="matrix" values="0 0 0 0 0.203922 0 0 0 0 0.737255 0 0 0 0 0.25098 0 0 0 0.1 0"/>
<feBlend mode="normal" in2="BackgroundImageFix" result="effect1_dropShadow_391_857"/>
<feBlend mode="normal" in="SourceGraphic" in2="effect1_dropShadow_391_857" result="shape"/>
</filter>
</defs>
</svg>
