<svg width="166" height="166" viewBox="0 0 166 166" fill="none" xmlns="http://www.w3.org/2000/svg">
<g filter="url(#filter0_di_627_8286)">
<rect x="12" y="7" width="136" height="136" rx="25" fill="url(#paint0_linear_627_8286)" shape-rendering="crispEdges"/>
<rect x="12.5" y="7.5" width="135" height="135" rx="24.5" stroke="url(#paint1_linear_627_8286)" stroke-opacity="0.2" shape-rendering="crispEdges"/>
</g>
<path d="M41.776 105.108C40.92 105.108 40.188 104.932 39.58 104.58C38.972 104.228 38.504 103.728 38.176 103.08C37.856 102.424 37.696 101.652 37.696 100.764C37.696 100.1 37.788 99.504 37.972 98.976C38.156 98.44 38.42 97.984 38.764 97.608C39.116 97.224 39.544 96.932 40.048 96.732C40.56 96.532 41.136 96.432 41.776 96.432C42.248 96.432 42.7 96.496 43.132 96.624C43.572 96.752 43.952 96.936 44.272 97.176C44.408 97.264 44.496 97.372 44.536 97.5C44.584 97.62 44.592 97.736 44.56 97.848C44.536 97.96 44.484 98.056 44.404 98.136C44.324 98.208 44.22 98.248 44.092 98.256C43.972 98.264 43.84 98.22 43.696 98.124C43.432 97.924 43.14 97.776 42.82 97.68C42.5 97.584 42.164 97.536 41.812 97.536C41.204 97.536 40.692 97.664 40.276 97.92C39.86 98.168 39.544 98.532 39.328 99.012C39.112 99.492 39.004 100.076 39.004 100.764C39.004 101.452 39.112 102.04 39.328 102.528C39.544 103.008 39.86 103.376 40.276 103.632C40.692 103.88 41.204 104.004 41.812 104.004C42.164 104.004 42.5 103.956 42.82 103.86C43.148 103.756 43.456 103.604 43.744 103.404C43.888 103.316 44.016 103.276 44.128 103.284C44.248 103.292 44.348 103.332 44.428 103.404C44.508 103.476 44.56 103.568 44.584 103.68C44.616 103.784 44.612 103.896 44.572 104.016C44.54 104.128 44.464 104.224 44.344 104.304C44.016 104.568 43.628 104.768 43.18 104.904C42.732 105.04 42.264 105.108 41.776 105.108ZM47.8454 105.108C47.2214 105.108 46.7494 104.928 46.4294 104.568C46.1174 104.2 45.9614 103.672 45.9614 102.984V97.068C45.9614 96.868 46.0134 96.716 46.1174 96.612C46.2214 96.508 46.3694 96.456 46.5614 96.456C46.7534 96.456 46.9014 96.508 47.0054 96.612C47.1174 96.716 47.1734 96.868 47.1734 97.068V102.912C47.1734 103.312 47.2534 103.612 47.4134 103.812C47.5814 104.004 47.8214 104.1 48.1334 104.1C48.2054 104.1 48.2694 104.1 48.3254 104.1C48.3814 104.092 48.4374 104.084 48.4934 104.076C48.5894 104.068 48.6574 104.096 48.6974 104.16C48.7374 104.216 48.7574 104.336 48.7574 104.52C48.7574 104.688 48.7214 104.82 48.6494 104.916C48.5774 105.004 48.4614 105.06 48.3014 105.084C48.2294 105.092 48.1534 105.096 48.0734 105.096C47.9934 105.104 47.9174 105.108 47.8454 105.108ZM50.2293 105.072C50.0373 105.072 49.8893 105.016 49.7853 104.904C49.6813 104.784 49.6293 104.62 49.6293 104.412V99.732C49.6293 99.524 49.6813 99.364 49.7853 99.252C49.8893 99.14 50.0373 99.084 50.2293 99.084C50.4213 99.084 50.5693 99.14 50.6733 99.252C50.7853 99.364 50.8413 99.524 50.8413 99.732V104.412C50.8413 104.62 50.7893 104.784 50.6853 104.904C50.5813 105.016 50.4293 105.072 50.2293 105.072ZM50.2293 97.836C49.9893 97.836 49.8013 97.776 49.6653 97.656C49.5373 97.536 49.4733 97.368 49.4733 97.152C49.4733 96.928 49.5373 96.76 49.6653 96.648C49.8013 96.528 49.9893 96.468 50.2293 96.468C50.4693 96.468 50.6533 96.528 50.7813 96.648C50.9173 96.76 50.9853 96.928 50.9853 97.152C50.9853 97.368 50.9173 97.536 50.7813 97.656C50.6533 97.776 50.4693 97.836 50.2293 97.836ZM55.1273 105.108C54.5273 105.108 54.0073 104.984 53.5673 104.736C53.1353 104.48 52.7993 104.124 52.5593 103.668C52.3193 103.204 52.1993 102.66 52.1993 102.036C52.1993 101.572 52.2673 101.156 52.4033 100.788C52.5393 100.412 52.7313 100.096 52.9793 99.84C53.2353 99.584 53.5433 99.388 53.9033 99.252C54.2713 99.108 54.6793 99.036 55.1273 99.036C55.4073 99.036 55.6993 99.08 56.0033 99.168C56.3153 99.248 56.6033 99.384 56.8673 99.576C56.9713 99.64 57.0353 99.72 57.0593 99.816C57.0913 99.904 57.0953 99.996 57.0713 100.092C57.0553 100.188 57.0113 100.272 56.9393 100.344C56.8753 100.408 56.7953 100.448 56.6993 100.464C56.6033 100.472 56.4993 100.444 56.3873 100.38C56.1953 100.244 55.9993 100.148 55.7993 100.092C55.5993 100.028 55.4073 99.996 55.2233 99.996C54.9353 99.996 54.6793 100.044 54.4553 100.14C54.2393 100.228 54.0553 100.36 53.9033 100.536C53.7513 100.704 53.6353 100.916 53.5553 101.172C53.4833 101.428 53.4473 101.72 53.4473 102.048C53.4473 102.704 53.5993 103.22 53.9033 103.596C54.2153 103.964 54.6553 104.148 55.2233 104.148C55.4073 104.148 55.5993 104.12 55.7993 104.064C55.9993 104.008 56.1953 103.912 56.3873 103.776C56.4993 103.712 56.6033 103.688 56.6993 103.704C56.7953 103.72 56.8713 103.764 56.9273 103.836C56.9913 103.9 57.0313 103.98 57.0473 104.076C57.0713 104.164 57.0673 104.256 57.0353 104.352C57.0033 104.448 56.9353 104.528 56.8313 104.592C56.5753 104.776 56.2953 104.908 55.9913 104.988C55.6953 105.068 55.4073 105.108 55.1273 105.108ZM58.7489 105.084C58.5569 105.084 58.4089 105.032 58.3049 104.928C58.2009 104.816 58.1489 104.664 58.1489 104.472V97.068C58.1489 96.868 58.2009 96.716 58.3049 96.612C58.4089 96.508 58.5569 96.456 58.7489 96.456C58.9409 96.456 59.0889 96.508 59.1929 96.612C59.3049 96.716 59.3609 96.868 59.3609 97.068V101.7H59.3849L61.6289 99.468C61.7569 99.34 61.8729 99.24 61.9769 99.168C62.0809 99.096 62.2169 99.06 62.3849 99.06C62.5529 99.06 62.6809 99.104 62.7689 99.192C62.8569 99.28 62.9009 99.388 62.9009 99.516C62.9009 99.636 62.8409 99.76 62.7209 99.888L60.3449 102.24V101.676L62.9369 104.256C63.0649 104.384 63.1249 104.512 63.1169 104.64C63.1089 104.768 63.0569 104.876 62.9609 104.964C62.8649 105.044 62.7449 105.084 62.6009 105.084C62.4169 105.084 62.2689 105.048 62.1569 104.976C62.0529 104.904 61.9289 104.796 61.7849 104.652L59.3849 102.324H59.3609V104.472C59.3609 104.88 59.1569 105.084 58.7489 105.084ZM70.3204 105.084C70.1204 105.084 69.9644 105.028 69.8524 104.916C69.7484 104.804 69.6964 104.648 69.6964 104.448V97.584H67.1524C66.9844 97.584 66.8524 97.54 66.7564 97.452C66.6604 97.356 66.6124 97.224 66.6124 97.056C66.6124 96.888 66.6604 96.76 66.7564 96.672C66.8524 96.584 66.9844 96.54 67.1524 96.54H73.4764C73.6524 96.54 73.7884 96.584 73.8844 96.672C73.9804 96.76 74.0284 96.888 74.0284 97.056C74.0284 97.224 73.9804 97.356 73.8844 97.452C73.7884 97.54 73.6524 97.584 73.4764 97.584H70.9324V104.448C70.9324 104.648 70.8804 104.804 70.7764 104.916C70.6804 105.028 70.5284 105.084 70.3204 105.084ZM76.4546 105.108C75.8626 105.108 75.3506 104.984 74.9186 104.736C74.4946 104.488 74.1626 104.136 73.9226 103.68C73.6826 103.224 73.5626 102.688 73.5626 102.072C73.5626 101.6 73.6306 101.18 73.7666 100.812C73.9026 100.444 74.0946 100.128 74.3426 99.864C74.5986 99.592 74.9026 99.388 75.2546 99.252C75.6146 99.108 76.0146 99.036 76.4546 99.036C77.0386 99.036 77.5426 99.16 77.9666 99.408C78.3986 99.656 78.7346 100.008 78.9746 100.464C79.2146 100.912 79.3346 101.448 79.3346 102.072C79.3346 102.536 79.2666 102.956 79.1306 103.332C78.9946 103.708 78.7986 104.028 78.5426 104.292C78.2946 104.556 77.9906 104.76 77.6306 104.904C77.2786 105.04 76.8866 105.108 76.4546 105.108ZM76.4546 104.172C76.7826 104.172 77.0706 104.092 77.3186 103.932C77.5666 103.772 77.7586 103.536 77.8946 103.224C78.0386 102.912 78.1106 102.528 78.1106 102.072C78.1106 101.384 77.9586 100.864 77.6546 100.512C77.3506 100.16 76.9506 99.984 76.4546 99.984C76.1186 99.984 75.8266 100.064 75.5786 100.224C75.3306 100.376 75.1346 100.608 74.9906 100.92C74.8546 101.232 74.7866 101.616 74.7866 102.072C74.7866 102.752 74.9386 103.272 75.2426 103.632C75.5466 103.992 75.9506 104.172 76.4546 104.172ZM87.4118 105.108C86.8438 105.108 86.3438 105.036 85.9118 104.892C85.4798 104.74 85.1158 104.516 84.8198 104.22C84.5318 103.924 84.3118 103.556 84.1598 103.116C84.0078 102.676 83.9318 102.168 83.9318 101.592V97.08C83.9318 96.872 83.9838 96.716 84.0878 96.612C84.1998 96.508 84.3558 96.456 84.5558 96.456C84.7558 96.456 84.9078 96.508 85.0118 96.612C85.1238 96.716 85.1798 96.872 85.1798 97.08V101.568C85.1798 102.392 85.3678 103.008 85.7438 103.416C86.1278 103.824 86.6838 104.028 87.4118 104.028C88.1478 104.028 88.7038 103.824 89.0798 103.416C89.4558 103.008 89.6438 102.392 89.6438 101.568V97.08C89.6438 96.872 89.6958 96.716 89.7998 96.612C89.9118 96.508 90.0638 96.456 90.2558 96.456C90.4558 96.456 90.6078 96.508 90.7118 96.612C90.8158 96.716 90.8678 96.872 90.8678 97.08V101.592C90.8678 102.36 90.7358 103.008 90.4718 103.536C90.2158 104.056 89.8318 104.448 89.3198 104.712C88.8078 104.976 88.1718 105.108 87.4118 105.108ZM93.2606 107.244C93.0686 107.244 92.9206 107.192 92.8166 107.088C92.7126 106.984 92.6606 106.832 92.6606 106.632V99.672C92.6606 99.472 92.7126 99.32 92.8166 99.216C92.9206 99.112 93.0646 99.06 93.2486 99.06C93.4406 99.06 93.5886 99.112 93.6926 99.216C93.7966 99.32 93.8486 99.472 93.8486 99.672V100.716L93.7166 100.464C93.8446 100.032 94.0966 99.688 94.4726 99.432C94.8486 99.168 95.2926 99.036 95.8046 99.036C96.3246 99.036 96.7766 99.16 97.1606 99.408C97.5526 99.656 97.8526 100.004 98.0606 100.452C98.2766 100.9 98.3846 101.44 98.3846 102.072C98.3846 102.688 98.2766 103.228 98.0606 103.692C97.8526 104.148 97.5566 104.5 97.1726 104.748C96.7886 104.988 96.3326 105.108 95.8046 105.108C95.3006 105.108 94.8606 104.98 94.4846 104.724C94.1086 104.468 93.8566 104.128 93.7286 103.704H93.8726V106.632C93.8726 106.832 93.8166 106.984 93.7046 107.088C93.6006 107.192 93.4526 107.244 93.2606 107.244ZM95.5046 104.172C95.8406 104.172 96.1326 104.092 96.3806 103.932C96.6286 103.772 96.8206 103.536 96.9566 103.224C97.0926 102.912 97.1606 102.528 97.1606 102.072C97.1606 101.384 97.0086 100.864 96.7046 100.512C96.4086 100.16 96.0086 99.984 95.5046 99.984C95.1766 99.984 94.8846 100.064 94.6286 100.224C94.3806 100.376 94.1886 100.608 94.0526 100.92C93.9166 101.232 93.8486 101.616 93.8486 102.072C93.8486 102.752 94.0006 103.272 94.3046 103.632C94.6086 103.992 95.0086 104.172 95.5046 104.172ZM101.634 105.108C101.01 105.108 100.538 104.928 100.218 104.568C99.9064 104.2 99.7504 103.672 99.7504 102.984V97.068C99.7504 96.868 99.8024 96.716 99.9064 96.612C100.01 96.508 100.158 96.456 100.35 96.456C100.542 96.456 100.69 96.508 100.794 96.612C100.906 96.716 100.962 96.868 100.962 97.068V102.912C100.962 103.312 101.042 103.612 101.202 103.812C101.37 104.004 101.61 104.1 101.922 104.1C101.994 104.1 102.058 104.1 102.114 104.1C102.17 104.092 102.226 104.084 102.282 104.076C102.378 104.068 102.446 104.096 102.486 104.16C102.526 104.216 102.546 104.336 102.546 104.52C102.546 104.688 102.51 104.82 102.438 104.916C102.366 105.004 102.25 105.06 102.09 105.084C102.018 105.092 101.942 105.096 101.862 105.096C101.782 105.104 101.706 105.108 101.634 105.108ZM105.904 105.108C105.312 105.108 104.8 104.984 104.368 104.736C103.944 104.488 103.612 104.136 103.372 103.68C103.132 103.224 103.012 102.688 103.012 102.072C103.012 101.6 103.08 101.18 103.216 100.812C103.352 100.444 103.544 100.128 103.792 99.864C104.048 99.592 104.352 99.388 104.704 99.252C105.064 99.108 105.464 99.036 105.904 99.036C106.488 99.036 106.992 99.16 107.416 99.408C107.848 99.656 108.184 100.008 108.424 100.464C108.664 100.912 108.784 101.448 108.784 102.072C108.784 102.536 108.716 102.956 108.58 103.332C108.444 103.708 108.248 104.028 107.992 104.292C107.744 104.556 107.44 104.76 107.08 104.904C106.728 105.04 106.336 105.108 105.904 105.108ZM105.904 104.172C106.232 104.172 106.52 104.092 106.768 103.932C107.016 103.772 107.208 103.536 107.344 103.224C107.488 102.912 107.56 102.528 107.56 102.072C107.56 101.384 107.408 100.864 107.104 100.512C106.8 100.16 106.4 99.984 105.904 99.984C105.568 99.984 105.276 100.064 105.028 100.224C104.78 100.376 104.584 100.608 104.44 100.92C104.304 101.232 104.236 101.616 104.236 102.072C104.236 102.752 104.388 103.272 104.692 103.632C104.996 103.992 105.4 104.172 105.904 104.172ZM112.017 105.108C111.609 105.108 111.241 105.028 110.913 104.868C110.593 104.708 110.341 104.492 110.157 104.22C109.973 103.948 109.881 103.64 109.881 103.296C109.881 102.864 109.989 102.524 110.205 102.276C110.429 102.02 110.793 101.84 111.297 101.736C111.809 101.624 112.497 101.568 113.361 101.568H113.925V102.312H113.373C112.797 102.312 112.341 102.34 112.005 102.396C111.669 102.452 111.429 102.548 111.285 102.684C111.149 102.812 111.081 102.992 111.081 103.224C111.081 103.528 111.185 103.776 111.393 103.968C111.601 104.152 111.889 104.244 112.257 104.244C112.553 104.244 112.813 104.176 113.037 104.04C113.261 103.896 113.437 103.704 113.565 103.464C113.701 103.224 113.769 102.948 113.769 102.636V101.256C113.769 100.8 113.673 100.472 113.481 100.272C113.289 100.072 112.973 99.972 112.533 99.972C112.277 99.972 112.009 100.004 111.729 100.068C111.457 100.132 111.173 100.24 110.877 100.392C110.741 100.456 110.625 100.476 110.529 100.452C110.433 100.428 110.357 100.376 110.301 100.296C110.245 100.208 110.213 100.116 110.205 100.02C110.205 99.916 110.229 99.816 110.277 99.72C110.333 99.624 110.425 99.552 110.553 99.504C110.905 99.336 111.253 99.216 111.597 99.144C111.941 99.072 112.265 99.036 112.569 99.036C113.105 99.036 113.545 99.12 113.889 99.288C114.241 99.456 114.501 99.712 114.669 100.056C114.837 100.4 114.921 100.844 114.921 101.388V104.472C114.921 104.664 114.873 104.816 114.777 104.928C114.681 105.032 114.541 105.084 114.357 105.084C114.181 105.084 114.041 105.032 113.937 104.928C113.833 104.816 113.781 104.664 113.781 104.472V103.692H113.889C113.825 103.988 113.705 104.244 113.529 104.46C113.361 104.668 113.149 104.828 112.893 104.94C112.637 105.052 112.345 105.108 112.017 105.108ZM118.822 105.108C118.31 105.108 117.858 104.988 117.466 104.748C117.082 104.5 116.782 104.148 116.566 103.692C116.35 103.228 116.242 102.688 116.242 102.072C116.242 101.44 116.35 100.9 116.566 100.452C116.782 100.004 117.082 99.656 117.466 99.408C117.858 99.16 118.31 99.036 118.822 99.036C119.334 99.036 119.774 99.164 120.142 99.42C120.518 99.668 120.77 100.004 120.898 100.428H120.766V97.068C120.766 96.868 120.818 96.716 120.922 96.612C121.026 96.508 121.174 96.456 121.366 96.456C121.558 96.456 121.706 96.508 121.81 96.612C121.922 96.716 121.978 96.868 121.978 97.068V104.472C121.978 104.664 121.926 104.816 121.822 104.928C121.718 105.032 121.57 105.084 121.378 105.084C121.186 105.084 121.038 105.032 120.934 104.928C120.83 104.816 120.778 104.664 120.778 104.472V103.416L120.91 103.68C120.782 104.112 120.53 104.46 120.154 104.724C119.786 104.98 119.342 105.108 118.822 105.108ZM119.134 104.172C119.462 104.172 119.75 104.092 119.998 103.932C120.246 103.772 120.438 103.536 120.574 103.224C120.718 102.912 120.79 102.528 120.79 102.072C120.79 101.384 120.638 100.864 120.334 100.512C120.03 100.16 119.63 99.984 119.134 99.984C118.798 99.984 118.506 100.064 118.258 100.224C118.01 100.376 117.814 100.608 117.67 100.92C117.534 101.232 117.466 101.616 117.466 102.072C117.466 102.752 117.618 103.272 117.922 103.632C118.226 103.992 118.63 104.172 119.134 104.172Z" fill="#64728C"/>
<path d="M99.75 67.25V75.5833C99.75 76.6884 99.311 77.7482 98.5296 78.5296C97.7482 79.311 96.6884 79.75 95.5833 79.75H66.4167C65.3116 79.75 64.2518 79.311 63.4704 78.5296C62.689 77.7482 62.25 76.6884 62.25 75.5833V67.25" stroke="#64728C" stroke-width="2" stroke-linecap="round" stroke-linejoin="round"/>
<path d="M91.4166 52.6667L80.9999 42.25L70.5833 52.6667" stroke="#64728C" stroke-width="2" stroke-linecap="round" stroke-linejoin="round"/>
<path d="M81 42.25V67.25" stroke="#64728C" stroke-width="2" stroke-linecap="round" stroke-linejoin="round"/>
<defs>
<filter id="filter0_di_627_8286" x="0" y="0" width="166" height="166" filterUnits="userSpaceOnUse" color-interpolation-filters="sRGB">
<feFlood flood-opacity="0" result="BackgroundImageFix"/>
<feColorMatrix in="SourceAlpha" type="matrix" values="0 0 0 0 0 0 0 0 0 0 0 0 0 0 0 0 0 0 127 0" result="hardAlpha"/>
<feOffset dx="3" dy="8"/>
<feGaussianBlur stdDeviation="7.5"/>
<feComposite in2="hardAlpha" operator="out"/>
<feColorMatrix type="matrix" values="0 0 0 0 0 0 0 0 0 0 0 0 0 0 0 0 0 0 0.08 0"/>
<feBlend mode="normal" in2="BackgroundImageFix" result="effect1_dropShadow_627_8286"/>
<feBlend mode="normal" in="SourceGraphic" in2="effect1_dropShadow_627_8286" result="shape"/>
<feColorMatrix in="SourceAlpha" type="matrix" values="0 0 0 0 0 0 0 0 0 0 0 0 0 0 0 0 0 0 127 0" result="hardAlpha"/>
<feOffset dy="-10"/>
<feGaussianBlur stdDeviation="2"/>
<feComposite in2="hardAlpha" operator="arithmetic" k2="-1" k3="1"/>
<feColorMatrix type="matrix" values="0 0 0 0 1 0 0 0 0 1 0 0 0 0 1 0 0 0 0.15 0"/>
<feBlend mode="normal" in2="shape" result="effect2_innerShadow_627_8286"/>
</filter>
<linearGradient id="paint0_linear_627_8286" x1="80" y1="7" x2="80" y2="143" gradientUnits="userSpaceOnUse">
<stop stop-color="#64728C" stop-opacity="0.04"/>
<stop offset="1" stop-color="#64728C" stop-opacity="0.15"/>
</linearGradient>
<linearGradient id="paint1_linear_627_8286" x1="80" y1="7" x2="80" y2="143" gradientUnits="userSpaceOnUse">
<stop offset="0.345231" stop-color="#64728C" stop-opacity="0.03"/>
<stop offset="1" stop-color="#64728C" stop-opacity="0.37"/>
</linearGradient>
</defs>
</svg>
