<svg width="170" height="166" viewBox="0 0 170 166" fill="none" xmlns="http://www.w3.org/2000/svg">
<g filter="url(#filter0_di_627_8292)">
<rect x="12" y="7" width="136" height="136" rx="25" fill="url(#paint0_linear_627_8292)" shape-rendering="crispEdges"/>
<rect x="12.5" y="7.5" width="135" height="135" rx="24.5" stroke="url(#paint1_linear_627_8292)" stroke-opacity="0.2" shape-rendering="crispEdges"/>
</g>
<path d="M41.86 105.12C40.98 105.12 40.224 104.944 39.592 104.592C38.968 104.232 38.488 103.728 38.152 103.08C37.816 102.424 37.648 101.652 37.648 100.764C37.648 100.1 37.744 99.504 37.936 98.976C38.128 98.44 38.404 97.984 38.764 97.608C39.124 97.224 39.564 96.932 40.084 96.732C40.612 96.524 41.204 96.42 41.86 96.42C42.3 96.42 42.732 96.476 43.156 96.588C43.58 96.7 43.952 96.86 44.272 97.068C44.44 97.172 44.552 97.3 44.608 97.452C44.664 97.596 44.676 97.74 44.644 97.884C44.612 98.02 44.544 98.136 44.44 98.232C44.344 98.328 44.22 98.384 44.068 98.4C43.924 98.408 43.764 98.356 43.588 98.244C43.34 98.084 43.072 97.968 42.784 97.896C42.496 97.824 42.204 97.788 41.908 97.788C41.34 97.788 40.86 97.904 40.468 98.136C40.076 98.368 39.78 98.704 39.58 99.144C39.38 99.584 39.28 100.124 39.28 100.764C39.28 101.396 39.38 101.936 39.58 102.384C39.78 102.832 40.076 103.172 40.468 103.404C40.86 103.636 41.34 103.752 41.908 103.752C42.212 103.752 42.512 103.716 42.808 103.644C43.104 103.564 43.384 103.444 43.648 103.284C43.824 103.18 43.98 103.136 44.116 103.152C44.26 103.16 44.38 103.208 44.476 103.296C44.572 103.384 44.636 103.496 44.668 103.632C44.7 103.76 44.692 103.896 44.644 104.04C44.596 104.176 44.5 104.296 44.356 104.4C44.036 104.632 43.652 104.812 43.204 104.94C42.764 105.06 42.316 105.12 41.86 105.12ZM47.9403 105.12C47.2763 105.12 46.7763 104.932 46.4403 104.556C46.1043 104.172 45.9363 103.612 45.9363 102.876V97.2C45.9363 96.952 46.0003 96.764 46.1283 96.636C46.2563 96.508 46.4403 96.444 46.6803 96.444C46.9203 96.444 47.1043 96.508 47.2323 96.636C47.3683 96.764 47.4363 96.952 47.4363 97.2V102.804C47.4363 103.172 47.5123 103.444 47.6643 103.62C47.8243 103.796 48.0483 103.884 48.3363 103.884C48.4003 103.884 48.4603 103.884 48.5163 103.884C48.5723 103.876 48.6283 103.868 48.6842 103.86C48.7963 103.844 48.8723 103.876 48.9123 103.956C48.9523 104.028 48.9723 104.18 48.9723 104.412C48.9723 104.612 48.9323 104.768 48.8523 104.88C48.7723 104.992 48.6403 105.06 48.4563 105.084C48.3763 105.092 48.2923 105.1 48.2043 105.108C48.1163 105.116 48.0283 105.12 47.9403 105.12ZM50.5123 105.084C50.2723 105.084 50.0883 105.012 49.9603 104.868C49.8323 104.724 49.7683 104.524 49.7683 104.268V99.864C49.7683 99.6 49.8323 99.4 49.9603 99.264C50.0883 99.12 50.2723 99.048 50.5123 99.048C50.7523 99.048 50.9363 99.12 51.0643 99.264C51.2003 99.4 51.2683 99.6 51.2683 99.864V104.268C51.2683 104.524 51.2043 104.724 51.0763 104.868C50.9483 105.012 50.7603 105.084 50.5123 105.084ZM50.5123 97.932C50.2323 97.932 50.0123 97.864 49.8523 97.728C49.7003 97.584 49.6243 97.388 49.6243 97.14C49.6243 96.884 49.7003 96.688 49.8523 96.552C50.0123 96.416 50.2323 96.348 50.5123 96.348C50.8003 96.348 51.0203 96.416 51.1723 96.552C51.3243 96.688 51.4003 96.884 51.4003 97.14C51.4003 97.388 51.3243 97.584 51.1723 97.728C51.0203 97.864 50.8003 97.932 50.5123 97.932ZM55.7189 105.12C55.0549 105.12 54.4829 104.996 54.0029 104.748C53.5229 104.5 53.1509 104.148 52.8869 103.692C52.6309 103.236 52.5029 102.696 52.5029 102.072C52.5029 101.464 52.6269 100.932 52.8749 100.476C53.1309 100.02 53.4789 99.664 53.9189 99.408C54.3669 99.144 54.8749 99.012 55.4429 99.012C55.8589 99.012 56.2309 99.08 56.5589 99.216C56.8949 99.352 57.1789 99.548 57.4109 99.804C57.6509 100.06 57.8309 100.372 57.9509 100.74C58.0789 101.1 58.1429 101.508 58.1429 101.964C58.1429 102.108 58.0909 102.22 57.9869 102.3C57.8909 102.372 57.7509 102.408 57.5669 102.408H53.7149V101.544H57.0869L56.8949 101.724C56.8949 101.356 56.8389 101.048 56.7269 100.8C56.6229 100.552 56.4669 100.364 56.2589 100.236C56.0589 100.1 55.8069 100.032 55.5029 100.032C55.1669 100.032 54.8789 100.112 54.6389 100.272C54.4069 100.424 54.2269 100.644 54.0989 100.932C53.9789 101.212 53.9189 101.548 53.9189 101.94V102.024C53.9189 102.68 54.0709 103.172 54.3749 103.5C54.6869 103.82 55.1429 103.98 55.7429 103.98C55.9509 103.98 56.1829 103.956 56.4389 103.908C56.7029 103.852 56.9509 103.76 57.1829 103.632C57.3509 103.536 57.4989 103.496 57.6269 103.512C57.7549 103.52 57.8549 103.564 57.9269 103.644C58.0069 103.724 58.0549 103.824 58.0709 103.944C58.0869 104.056 58.0629 104.172 57.9989 104.292C57.9429 104.412 57.8429 104.516 57.6989 104.604C57.4189 104.78 57.0949 104.912 56.7269 105C56.3669 105.08 56.0309 105.12 55.7189 105.12ZM60.0748 105.096C59.8348 105.096 59.6508 105.032 59.5228 104.904C59.3948 104.768 59.3308 104.576 59.3308 104.328V99.792C59.3308 99.544 59.3948 99.356 59.5228 99.228C59.6508 99.1 59.8308 99.036 60.0628 99.036C60.2948 99.036 60.4748 99.1 60.6028 99.228C60.7308 99.356 60.7948 99.544 60.7948 99.792V100.608L60.6628 100.308C60.8388 99.884 61.1108 99.564 61.4788 99.348C61.8548 99.124 62.2788 99.012 62.7508 99.012C63.2228 99.012 63.6108 99.1 63.9148 99.276C64.2188 99.452 64.4468 99.72 64.5988 100.08C64.7508 100.432 64.8268 100.88 64.8268 101.424V104.328C64.8268 104.576 64.7628 104.768 64.6348 104.904C64.5068 105.032 64.3228 105.096 64.0828 105.096C63.8428 105.096 63.6548 105.032 63.5188 104.904C63.3908 104.768 63.3268 104.576 63.3268 104.328V101.496C63.3268 101.04 63.2388 100.708 63.0628 100.5C62.8948 100.292 62.6308 100.188 62.2708 100.188C61.8308 100.188 61.4788 100.328 61.2148 100.608C60.9588 100.88 60.8308 101.244 60.8308 101.7V104.328C60.8308 104.84 60.5788 105.096 60.0748 105.096ZM69.0383 105.12C68.5183 105.12 68.0823 105.032 67.7303 104.856C67.3863 104.68 67.1303 104.424 66.9623 104.088C66.7943 103.744 66.7103 103.32 66.7103 102.816V100.26H66.0863C65.8943 100.26 65.7463 100.212 65.6423 100.116C65.5383 100.012 65.4863 99.872 65.4863 99.696C65.4863 99.512 65.5383 99.372 65.6423 99.276C65.7463 99.18 65.8943 99.132 66.0863 99.132H66.7103V98.04C66.7103 97.792 66.7743 97.604 66.9023 97.476C67.0383 97.348 67.2263 97.284 67.4663 97.284C67.7063 97.284 67.8903 97.348 68.0183 97.476C68.1463 97.604 68.2103 97.792 68.2103 98.04V99.132H69.4823C69.6743 99.132 69.8223 99.18 69.9263 99.276C70.0303 99.372 70.0823 99.512 70.0823 99.696C70.0823 99.872 70.0303 100.012 69.9263 100.116C69.8223 100.212 69.6743 100.26 69.4823 100.26H68.2103V102.732C68.2103 103.116 68.2943 103.404 68.4623 103.596C68.6303 103.788 68.9023 103.884 69.2783 103.884C69.4143 103.884 69.5343 103.872 69.6383 103.848C69.7423 103.824 69.8343 103.808 69.9143 103.8C70.0103 103.792 70.0903 103.824 70.1543 103.896C70.2183 103.96 70.2503 104.096 70.2503 104.304C70.2503 104.464 70.2223 104.608 70.1663 104.736C70.1183 104.856 70.0263 104.94 69.8903 104.988C69.7863 105.02 69.6503 105.048 69.4823 105.072C69.3143 105.104 69.1663 105.12 69.0383 105.12ZM75.1736 105C74.9096 105 74.7056 104.932 74.5616 104.796C74.4256 104.652 74.3576 104.448 74.3576 104.184V97.356C74.3576 97.092 74.4256 96.892 74.5616 96.756C74.7056 96.612 74.9096 96.54 75.1736 96.54H77.5016C78.9176 96.54 80.0096 96.904 80.7776 97.632C81.5536 98.36 81.9416 99.404 81.9416 100.764C81.9416 101.444 81.8416 102.048 81.6416 102.576C81.4496 103.096 81.1616 103.536 80.7776 103.896C80.4016 104.256 79.9376 104.532 79.3856 104.724C78.8416 104.908 78.2136 105 77.5016 105H75.1736ZM75.8936 103.728H77.4056C77.9016 103.728 78.3296 103.668 78.6896 103.548C79.0576 103.42 79.3616 103.236 79.6016 102.996C79.8496 102.748 80.0336 102.44 80.1536 102.072C80.2736 101.696 80.3336 101.26 80.3336 100.764C80.3336 99.772 80.0896 99.032 79.6016 98.544C79.1136 98.056 78.3816 97.812 77.4056 97.812H75.8936V103.728ZM85.2862 105.12C84.8622 105.12 84.4822 105.04 84.1462 104.88C83.8182 104.712 83.5582 104.488 83.3662 104.208C83.1822 103.928 83.0902 103.612 83.0902 103.26C83.0902 102.828 83.2022 102.488 83.4262 102.24C83.6502 101.984 84.0142 101.8 84.5182 101.688C85.0222 101.576 85.6982 101.52 86.5462 101.52H87.1462V102.384H86.5582C86.0622 102.384 85.6662 102.408 85.3702 102.456C85.0742 102.504 84.8622 102.588 84.7342 102.708C84.6142 102.82 84.5542 102.98 84.5542 103.188C84.5542 103.452 84.6462 103.668 84.8302 103.836C85.0142 104.004 85.2702 104.088 85.5982 104.088C85.8622 104.088 86.0942 104.028 86.2942 103.908C86.5022 103.78 86.6662 103.608 86.7862 103.392C86.9062 103.176 86.9662 102.928 86.9662 102.648V101.268C86.9662 100.868 86.8782 100.58 86.7022 100.404C86.5262 100.228 86.2302 100.14 85.8142 100.14C85.5822 100.14 85.3302 100.168 85.0582 100.224C84.7942 100.28 84.5142 100.376 84.2182 100.512C84.0662 100.584 83.9302 100.604 83.8102 100.572C83.6982 100.54 83.6102 100.476 83.5462 100.38C83.4822 100.276 83.4502 100.164 83.4502 100.044C83.4502 99.924 83.4822 99.808 83.5462 99.696C83.6102 99.576 83.7182 99.488 83.8702 99.432C84.2382 99.28 84.5902 99.172 84.9262 99.108C85.2702 99.044 85.5822 99.012 85.8622 99.012C86.4382 99.012 86.9102 99.1 87.2782 99.276C87.6542 99.452 87.9342 99.72 88.1182 100.08C88.3022 100.432 88.3942 100.888 88.3942 101.448V104.328C88.3942 104.576 88.3342 104.768 88.2142 104.904C88.0942 105.032 87.9222 105.096 87.6982 105.096C87.4742 105.096 87.2982 105.032 87.1702 104.904C87.0502 104.768 86.9902 104.576 86.9902 104.328V103.752H87.0862C87.0302 104.032 86.9182 104.276 86.7502 104.484C86.5902 104.684 86.3862 104.84 86.1382 104.952C85.8902 105.064 85.6062 105.12 85.2862 105.12ZM92.6047 105.12C92.0847 105.12 91.6487 105.032 91.2967 104.856C90.9527 104.68 90.6967 104.424 90.5287 104.088C90.3607 103.744 90.2767 103.32 90.2767 102.816V100.26H89.6527C89.4607 100.26 89.3127 100.212 89.2087 100.116C89.1047 100.012 89.0527 99.872 89.0527 99.696C89.0527 99.512 89.1047 99.372 89.2087 99.276C89.3127 99.18 89.4607 99.132 89.6527 99.132H90.2767V98.04C90.2767 97.792 90.3407 97.604 90.4687 97.476C90.6047 97.348 90.7927 97.284 91.0327 97.284C91.2727 97.284 91.4567 97.348 91.5847 97.476C91.7127 97.604 91.7767 97.792 91.7767 98.04V99.132H93.0487C93.2407 99.132 93.3887 99.18 93.4927 99.276C93.5967 99.372 93.6487 99.512 93.6487 99.696C93.6487 99.872 93.5967 100.012 93.4927 100.116C93.3887 100.212 93.2407 100.26 93.0487 100.26H91.7767V102.732C91.7767 103.116 91.8607 103.404 92.0287 103.596C92.1967 103.788 92.4687 103.884 92.8447 103.884C92.9807 103.884 93.1007 103.872 93.2047 103.848C93.3087 103.824 93.4007 103.808 93.4807 103.8C93.5767 103.792 93.6567 103.824 93.7207 103.896C93.7847 103.96 93.8167 104.096 93.8167 104.304C93.8167 104.464 93.7887 104.608 93.7327 104.736C93.6847 104.856 93.5927 104.94 93.4567 104.988C93.3527 105.02 93.2167 105.048 93.0487 105.072C92.8807 105.104 92.7327 105.12 92.6047 105.12ZM96.4542 105.12C96.0302 105.12 95.6502 105.04 95.3142 104.88C94.9862 104.712 94.7262 104.488 94.5342 104.208C94.3502 103.928 94.2582 103.612 94.2582 103.26C94.2582 102.828 94.3702 102.488 94.5942 102.24C94.8182 101.984 95.1822 101.8 95.6862 101.688C96.1902 101.576 96.8662 101.52 97.7142 101.52H98.3142V102.384H97.7262C97.2302 102.384 96.8342 102.408 96.5382 102.456C96.2422 102.504 96.0302 102.588 95.9022 102.708C95.7822 102.82 95.7222 102.98 95.7222 103.188C95.7222 103.452 95.8142 103.668 95.9982 103.836C96.1822 104.004 96.4382 104.088 96.7662 104.088C97.0302 104.088 97.2622 104.028 97.4622 103.908C97.6702 103.78 97.8342 103.608 97.9542 103.392C98.0742 103.176 98.1342 102.928 98.1342 102.648V101.268C98.1342 100.868 98.0462 100.58 97.8702 100.404C97.6942 100.228 97.3982 100.14 96.9822 100.14C96.7502 100.14 96.4982 100.168 96.2262 100.224C95.9622 100.28 95.6822 100.376 95.3862 100.512C95.2342 100.584 95.0982 100.604 94.9782 100.572C94.8662 100.54 94.7782 100.476 94.7142 100.38C94.6502 100.276 94.6182 100.164 94.6182 100.044C94.6182 99.924 94.6502 99.808 94.7142 99.696C94.7782 99.576 94.8862 99.488 95.0382 99.432C95.4062 99.28 95.7582 99.172 96.0942 99.108C96.4382 99.044 96.7502 99.012 97.0302 99.012C97.6062 99.012 98.0782 99.1 98.4462 99.276C98.8222 99.452 99.1022 99.72 99.2862 100.08C99.4702 100.432 99.5622 100.888 99.5622 101.448V104.328C99.5622 104.576 99.5022 104.768 99.3822 104.904C99.2622 105.032 99.0902 105.096 98.8662 105.096C98.6422 105.096 98.4662 105.032 98.3382 104.904C98.2182 104.768 98.1582 104.576 98.1582 104.328V103.752H98.2542C98.1982 104.032 98.0862 104.276 97.9182 104.484C97.7582 104.684 97.5542 104.84 97.3062 104.952C97.0582 105.064 96.7742 105.12 96.4542 105.12ZM101.805 105.06C101.533 105.06 101.313 104.976 101.145 104.808C100.985 104.64 100.905 104.424 100.905 104.16C100.905 103.904 100.985 103.696 101.145 103.536C101.313 103.368 101.533 103.284 101.805 103.284C102.085 103.284 102.301 103.368 102.453 103.536C102.613 103.696 102.693 103.904 102.693 104.16C102.693 104.424 102.613 104.64 102.453 104.808C102.301 104.976 102.085 105.06 101.805 105.06ZM104.805 107.256C104.565 107.256 104.381 107.192 104.253 107.064C104.125 106.936 104.061 106.748 104.061 106.5V99.792C104.061 99.544 104.125 99.356 104.253 99.228C104.381 99.1 104.561 99.036 104.793 99.036C105.033 99.036 105.217 99.1 105.345 99.228C105.473 99.356 105.537 99.544 105.537 99.792V100.728L105.405 100.368C105.525 99.96 105.769 99.632 106.137 99.384C106.513 99.136 106.949 99.012 107.445 99.012C107.957 99.012 108.405 99.136 108.789 99.384C109.181 99.632 109.485 99.984 109.701 100.44C109.917 100.888 110.025 101.428 110.025 102.06C110.025 102.684 109.917 103.228 109.701 103.692C109.485 104.148 109.185 104.5 108.801 104.748C108.417 104.996 107.965 105.12 107.445 105.12C106.957 105.12 106.529 105 106.161 104.76C105.793 104.512 105.545 104.192 105.417 103.8H105.561V106.5C105.561 106.748 105.493 106.936 105.357 107.064C105.229 107.192 105.045 107.256 104.805 107.256ZM107.025 103.98C107.321 103.98 107.581 103.908 107.805 103.764C108.029 103.62 108.201 103.408 108.321 103.128C108.449 102.84 108.513 102.484 108.513 102.06C108.513 101.42 108.377 100.944 108.105 100.632C107.833 100.312 107.473 100.152 107.025 100.152C106.729 100.152 106.469 100.224 106.245 100.368C106.021 100.504 105.845 100.716 105.717 101.004C105.597 101.284 105.537 101.636 105.537 102.06C105.537 102.692 105.673 103.172 105.945 103.5C106.217 103.82 106.577 103.98 107.025 103.98ZM113.513 105.12C113.001 105.12 112.549 104.996 112.157 104.748C111.773 104.5 111.473 104.148 111.257 103.692C111.041 103.228 110.933 102.684 110.933 102.06C110.933 101.428 111.041 100.888 111.257 100.44C111.473 99.984 111.773 99.632 112.157 99.384C112.549 99.136 113.001 99.012 113.513 99.012C114.001 99.012 114.425 99.132 114.785 99.372C115.153 99.612 115.401 99.928 115.529 100.32H115.397V97.2C115.397 96.952 115.461 96.764 115.589 96.636C115.717 96.508 115.901 96.444 116.141 96.444C116.381 96.444 116.565 96.508 116.693 96.636C116.829 96.764 116.897 96.952 116.897 97.2V104.328C116.897 104.576 116.833 104.768 116.705 104.904C116.577 105.032 116.393 105.096 116.153 105.096C115.913 105.096 115.729 105.032 115.601 104.904C115.473 104.768 115.409 104.576 115.409 104.328V103.392L115.541 103.752C115.421 104.168 115.177 104.5 114.809 104.748C114.441 104.996 114.009 105.12 113.513 105.12ZM113.933 103.98C114.229 103.98 114.489 103.908 114.713 103.764C114.937 103.62 115.109 103.408 115.229 103.128C115.357 102.84 115.421 102.484 115.421 102.06C115.421 101.42 115.285 100.944 115.013 100.632C114.741 100.312 114.381 100.152 113.933 100.152C113.637 100.152 113.377 100.224 113.153 100.368C112.929 100.504 112.753 100.716 112.625 101.004C112.505 101.284 112.445 101.636 112.445 102.06C112.445 102.692 112.581 103.172 112.853 103.5C113.125 103.82 113.485 103.98 113.933 103.98ZM119.604 105.096C119.364 105.096 119.176 105.032 119.04 104.904C118.912 104.768 118.848 104.576 118.848 104.328V100.26H118.296C118.104 100.26 117.956 100.212 117.852 100.116C117.748 100.012 117.696 99.872 117.696 99.696C117.696 99.512 117.748 99.372 117.852 99.276C117.956 99.18 118.104 99.132 118.296 99.132H119.28L118.848 99.528V99.12C118.848 98.296 119.056 97.68 119.472 97.272C119.888 96.856 120.488 96.612 121.272 96.54L121.68 96.504C121.84 96.488 121.968 96.516 122.064 96.588C122.16 96.652 122.224 96.74 122.256 96.852C122.288 96.956 122.292 97.064 122.268 97.176C122.244 97.288 122.192 97.388 122.112 97.476C122.04 97.556 121.944 97.6 121.824 97.608L121.656 97.62C121.2 97.652 120.868 97.768 120.66 97.968C120.452 98.168 120.348 98.472 120.348 98.88V99.324L120.156 99.132H121.368C121.56 99.132 121.708 99.18 121.812 99.276C121.916 99.372 121.968 99.512 121.968 99.696C121.968 99.872 121.916 100.012 121.812 100.116C121.708 100.212 121.56 100.26 121.368 100.26H120.348V104.328C120.348 104.84 120.1 105.096 119.604 105.096Z" fill="#64728C"/>
<g filter="url(#filter1_dd_627_8292)">
<circle cx="147.5" cy="133.5" r="17.5" fill="white"/>
<circle cx="147.5" cy="133.5" r="17" stroke="#64728C" stroke-opacity="0.02"/>
<circle cx="147.5" cy="133.5" r="17" stroke="url(#paint2_linear_627_8292)"/>
</g>
<g filter="url(#filter2_dd_627_8292)">
<circle cx="148" cy="94" r="15" fill="#EB0910"/>
<circle cx="148" cy="94" r="14.5" stroke="#EB0910"/>
<circle cx="148" cy="94" r="14.5" stroke="url(#paint3_linear_627_8292)"/>
</g>
<path d="M147.97 137.554C147.896 137.554 147.823 137.538 147.755 137.508C147.688 137.478 147.627 137.433 147.578 137.378L142.645 131.908C142.577 131.832 142.533 131.738 142.517 131.638C142.501 131.537 142.515 131.434 142.556 131.341C142.598 131.249 142.665 131.17 142.75 131.114C142.835 131.059 142.935 131.029 143.036 131.029H145.012V126.215C145.012 126.075 145.067 125.941 145.166 125.842C145.265 125.743 145.399 125.688 145.539 125.688H150.401C150.541 125.688 150.675 125.743 150.774 125.842C150.873 125.941 150.929 126.075 150.929 126.215V131.027H152.903C153.005 131.028 153.104 131.057 153.189 131.113C153.275 131.168 153.342 131.247 153.383 131.34C153.425 131.433 153.438 131.536 153.423 131.636C153.407 131.737 153.362 131.831 153.295 131.906L148.361 137.38C148.312 137.435 148.251 137.479 148.184 137.509C148.116 137.539 148.043 137.554 147.97 137.554ZM144.222 132.082L147.97 136.239L151.718 132.082H150.401C150.261 132.082 150.127 132.027 150.028 131.928C149.93 131.829 149.874 131.695 149.874 131.555V126.742H146.067V131.555C146.067 131.695 146.011 131.829 145.912 131.928C145.813 132.027 145.679 132.082 145.539 132.082H144.222Z" fill="#64728C"/>
<path d="M152.741 139.82H143.199C142.59 139.82 142.007 139.578 141.576 139.147C141.146 138.717 140.904 138.134 140.903 137.525V136.183C140.903 136.043 140.959 135.909 141.058 135.81C141.156 135.711 141.291 135.656 141.43 135.656C141.57 135.656 141.704 135.711 141.803 135.81C141.902 135.909 141.958 136.043 141.958 136.183V137.525C141.958 137.854 142.089 138.169 142.322 138.402C142.554 138.634 142.87 138.765 143.199 138.766H152.741C153.069 138.765 153.385 138.634 153.617 138.402C153.85 138.169 153.981 137.854 153.981 137.525V136.183C153.981 136.043 154.037 135.909 154.136 135.81C154.235 135.711 154.369 135.656 154.509 135.656C154.648 135.656 154.783 135.711 154.881 135.81C154.98 135.909 155.036 136.043 155.036 136.183V137.525C155.035 138.134 154.793 138.717 154.363 139.147C153.932 139.578 153.349 139.82 152.741 139.82Z" fill="#64728C"/>
<g clip-path="url(#clip0_627_8292)">
<path d="M70 44C68.6739 44 67.4021 44.5268 66.4645 45.4645C65.5268 46.4021 65 47.6739 65 49V79C65 80.3261 65.5268 81.5979 66.4645 82.5355C67.4021 83.4732 68.6739 84 70 84H90C91.3261 84 92.5979 83.4732 93.5355 82.5355C94.4732 81.5979 95 80.3261 95 79V49C95 47.6739 94.4732 46.4021 93.5355 45.4645C92.5979 44.5268 91.3261 44 90 44H70ZM70 46.5H90C90.663 46.5 91.2989 46.7634 91.7678 47.2322C92.2366 47.7011 92.5 48.337 92.5 49V79C92.5 79.663 92.2366 80.2989 91.7678 80.7678C91.2989 81.2366 90.663 81.5 90 81.5H70C69.337 81.5 68.7011 81.2366 68.2322 80.7678C67.7634 80.2989 67.5 79.663 67.5 79V49C67.5 48.337 67.7634 47.7011 68.2322 47.2322C68.7011 46.7634 69.337 46.5 70 46.5Z" fill="#64728C"/>
<path d="M71.5075 74.2175C71.0202 74.0226 70.6277 73.6462 70.4125 73.1675C69.925 72.1975 70.0875 71.2275 70.6125 70.4125C71.1075 69.645 71.9275 68.9925 72.855 68.445C74.0299 67.7787 75.2717 67.2382 76.56 66.8325C77.5605 65.034 78.4472 63.1745 79.215 61.265C78.756 60.2219 78.396 59.138 78.14 58.0275C77.925 57.0275 77.8425 56.0375 78.025 55.1875C78.2125 54.3025 78.71 53.5075 79.65 53.13C80.13 52.9375 80.65 52.83 81.155 52.9375C81.409 52.9916 81.6478 53.1015 81.8541 53.2594C82.0604 53.4172 82.2289 53.619 82.3475 53.85C82.5675 54.26 82.6475 54.74 82.665 55.195C82.6825 55.6625 82.635 56.1825 82.5475 56.73C82.3375 58.005 81.8725 59.565 81.2475 61.215C81.9372 62.6901 82.7571 64.1006 83.6975 65.43C84.8103 65.3421 85.9295 65.3841 87.0325 65.555C87.9425 65.7175 88.8675 66.0425 89.4325 66.7175C89.7325 67.0775 89.915 67.5175 89.9325 68.0125C89.95 68.4925 89.815 68.9675 89.5875 69.42C89.3904 69.8393 89.0849 70.1984 88.7025 70.46C88.3245 70.7066 87.8783 70.8273 87.4275 70.805C86.6 70.77 85.7925 70.315 85.095 69.7625C84.2469 69.0612 83.4827 68.2642 82.8175 67.3875C81.1269 67.5793 79.4563 67.9189 77.825 68.4025C77.0771 69.7275 76.2235 70.9899 75.2725 72.1775C74.5475 73.0525 73.7525 73.815 72.9575 74.145C72.5007 74.3517 71.9826 74.3776 71.5075 74.2175ZM74.955 69.465C74.54 69.655 74.155 69.855 73.8075 70.06C72.9875 70.545 72.455 71.0175 72.19 71.4275C71.955 71.79 71.95 72.0525 72.09 72.33C72.115 72.385 72.14 72.42 72.155 72.44C72.1848 72.432 72.2141 72.422 72.2425 72.41C72.585 72.27 73.13 71.8225 73.83 70.98C74.2281 70.4926 74.6035 69.9871 74.955 69.465ZM79.055 66.14C79.8898 65.945 80.7321 65.7841 81.58 65.6575C81.1246 64.961 80.6992 64.2454 80.305 63.5125C79.913 64.399 79.4961 65.2744 79.055 66.1375V66.14ZM85.17 67.265C85.545 67.67 85.91 68.015 86.2575 68.29C86.8575 68.765 87.275 68.9225 87.5025 68.93C87.5634 68.938 87.6252 68.9247 87.6775 68.8925C87.7815 68.8104 87.8625 68.7027 87.9125 68.58C88.0014 68.4277 88.052 68.2562 88.06 68.08C88.0586 68.0213 88.0354 67.9652 87.995 67.9225C87.865 67.7675 87.495 67.5425 86.7 67.4C86.1943 67.3155 85.6827 67.2712 85.17 67.2675V67.265ZM80.195 58.5C80.4054 57.8213 80.5724 57.1299 80.695 56.43C80.7725 55.96 80.8025 55.5725 80.79 55.2675C80.7907 55.0992 80.7637 54.932 80.71 54.7725C80.5849 54.788 80.4628 54.8217 80.3475 54.8725C80.13 54.96 79.9525 55.1375 79.8575 55.58C79.7575 56.06 79.7825 56.7525 79.9725 57.635C80.0325 57.9125 80.1075 58.2025 80.1975 58.5H80.195Z" fill="#64728C"/>
</g>
<g filter="url(#filter3_d_627_8292)">
<path d="M152.025 91.6666H143.975C143.625 91.6666 143.333 91.9583 143.392 92.3083L144.325 99.95C144.383 100.533 144.908 100.942 145.492 100.942H150.45C151.033 100.942 151.558 100.533 151.617 99.95L152.55 92.3083C152.608 91.9583 152.375 91.6666 152.025 91.6666Z" fill="white"/>
<path d="M152.667 88.1667H149.75C149.75 87.525 149.225 87 148.583 87H147.417C146.775 87 146.25 87.525 146.25 88.1667H143.333C142.692 88.1667 142.167 88.6917 142.167 89.3333V89.9167C142.167 90.2667 142.4 90.5 142.75 90.5H153.25C153.6 90.5 153.833 90.2667 153.833 89.9167V89.3333C153.833 88.6917 153.308 88.1667 152.667 88.1667Z" fill="white"/>
</g>
<defs>
<filter id="filter0_di_627_8292" x="0" y="0" width="166" height="166" filterUnits="userSpaceOnUse" color-interpolation-filters="sRGB">
<feFlood flood-opacity="0" result="BackgroundImageFix"/>
<feColorMatrix in="SourceAlpha" type="matrix" values="0 0 0 0 0 0 0 0 0 0 0 0 0 0 0 0 0 0 127 0" result="hardAlpha"/>
<feOffset dx="3" dy="8"/>
<feGaussianBlur stdDeviation="7.5"/>
<feComposite in2="hardAlpha" operator="out"/>
<feColorMatrix type="matrix" values="0 0 0 0 0 0 0 0 0 0 0 0 0 0 0 0 0 0 0.08 0"/>
<feBlend mode="normal" in2="BackgroundImageFix" result="effect1_dropShadow_627_8292"/>
<feBlend mode="normal" in="SourceGraphic" in2="effect1_dropShadow_627_8292" result="shape"/>
<feColorMatrix in="SourceAlpha" type="matrix" values="0 0 0 0 0 0 0 0 0 0 0 0 0 0 0 0 0 0 127 0" result="hardAlpha"/>
<feOffset dy="-10"/>
<feGaussianBlur stdDeviation="2"/>
<feComposite in2="hardAlpha" operator="arithmetic" k2="-1" k3="1"/>
<feColorMatrix type="matrix" values="0 0 0 0 1 0 0 0 0 1 0 0 0 0 1 0 0 0 0.15 0"/>
<feBlend mode="normal" in2="shape" result="effect2_innerShadow_627_8292"/>
</filter>
<filter id="filter1_dd_627_8292" x="124" y="107" width="46" height="53" filterUnits="userSpaceOnUse" color-interpolation-filters="sRGB">
<feFlood flood-opacity="0" result="BackgroundImageFix"/>
<feColorMatrix in="SourceAlpha" type="matrix" values="0 0 0 0 0 0 0 0 0 0 0 0 0 0 0 0 0 0 127 0" result="hardAlpha"/>
<feOffset dx="-2" dy="-5"/>
<feGaussianBlur stdDeviation="2"/>
<feComposite in2="hardAlpha" operator="out"/>
<feColorMatrix type="matrix" values="0 0 0 0 1 0 0 0 0 1 0 0 0 0 1 0 0 0 0.3 0"/>
<feBlend mode="normal" in2="BackgroundImageFix" result="effect1_dropShadow_627_8292"/>
<feColorMatrix in="SourceAlpha" type="matrix" values="0 0 0 0 0 0 0 0 0 0 0 0 0 0 0 0 0 0 127 0" result="hardAlpha"/>
<feOffset dy="4"/>
<feGaussianBlur stdDeviation="2.5"/>
<feComposite in2="hardAlpha" operator="out"/>
<feColorMatrix type="matrix" values="0 0 0 0 0 0 0 0 0 0 0 0 0 0 0 0 0 0 0.1 0"/>
<feBlend mode="normal" in2="effect1_dropShadow_627_8292" result="effect2_dropShadow_627_8292"/>
<feBlend mode="normal" in="SourceGraphic" in2="effect2_dropShadow_627_8292" result="shape"/>
</filter>
<filter id="filter2_dd_627_8292" x="127" y="70" width="41" height="48" filterUnits="userSpaceOnUse" color-interpolation-filters="sRGB">
<feFlood flood-opacity="0" result="BackgroundImageFix"/>
<feColorMatrix in="SourceAlpha" type="matrix" values="0 0 0 0 0 0 0 0 0 0 0 0 0 0 0 0 0 0 127 0" result="hardAlpha"/>
<feOffset dx="-2" dy="-5"/>
<feGaussianBlur stdDeviation="2"/>
<feComposite in2="hardAlpha" operator="out"/>
<feColorMatrix type="matrix" values="0 0 0 0 1 0 0 0 0 1 0 0 0 0 1 0 0 0 0.3 0"/>
<feBlend mode="normal" in2="BackgroundImageFix" result="effect1_dropShadow_627_8292"/>
<feColorMatrix in="SourceAlpha" type="matrix" values="0 0 0 0 0 0 0 0 0 0 0 0 0 0 0 0 0 0 127 0" result="hardAlpha"/>
<feOffset dy="4"/>
<feGaussianBlur stdDeviation="2.5"/>
<feComposite in2="hardAlpha" operator="out"/>
<feColorMatrix type="matrix" values="0 0 0 0 0 0 0 0 0 0 0 0 0 0 0 0 0 0 0.1 0"/>
<feBlend mode="normal" in2="effect1_dropShadow_627_8292" result="effect2_dropShadow_627_8292"/>
<feBlend mode="normal" in="SourceGraphic" in2="effect2_dropShadow_627_8292" result="shape"/>
</filter>
<filter id="filter3_d_627_8292" x="137" y="87" width="22" height="22" filterUnits="userSpaceOnUse" color-interpolation-filters="sRGB">
<feFlood flood-opacity="0" result="BackgroundImageFix"/>
<feColorMatrix in="SourceAlpha" type="matrix" values="0 0 0 0 0 0 0 0 0 0 0 0 0 0 0 0 0 0 127 0" result="hardAlpha"/>
<feOffset dy="4"/>
<feGaussianBlur stdDeviation="2"/>
<feComposite in2="hardAlpha" operator="out"/>
<feColorMatrix type="matrix" values="0 0 0 0 0 0 0 0 0 0 0 0 0 0 0 0 0 0 0.25 0"/>
<feBlend mode="normal" in2="BackgroundImageFix" result="effect1_dropShadow_627_8292"/>
<feBlend mode="normal" in="SourceGraphic" in2="effect1_dropShadow_627_8292" result="shape"/>
</filter>
<linearGradient id="paint0_linear_627_8292" x1="80" y1="7" x2="80" y2="143" gradientUnits="userSpaceOnUse">
<stop offset="0.44" stop-color="#64728C" stop-opacity="0.04"/>
<stop offset="1" stop-color="#64728C" stop-opacity="0.15"/>
</linearGradient>
<linearGradient id="paint1_linear_627_8292" x1="80" y1="7" x2="80" y2="143" gradientUnits="userSpaceOnUse">
<stop offset="0.345231" stop-color="#64728C" stop-opacity="0.03"/>
<stop offset="1" stop-color="#64728C" stop-opacity="0.37"/>
</linearGradient>
<linearGradient id="paint2_linear_627_8292" x1="147.5" y1="116" x2="147.5" y2="151" gradientUnits="userSpaceOnUse">
<stop offset="0.365" stop-color="#64728C" stop-opacity="0"/>
<stop offset="1" stop-color="#64728C" stop-opacity="0.26"/>
</linearGradient>
<linearGradient id="paint3_linear_627_8292" x1="148" y1="79" x2="148" y2="109" gradientUnits="userSpaceOnUse">
<stop offset="0.365" stop-color="#FF989C" stop-opacity="0.31"/>
<stop offset="1" stop-color="#DA0A11" stop-opacity="0.51"/>
</linearGradient>
<clipPath id="clip0_627_8292">
<rect width="40" height="40" fill="white" transform="translate(60 44)"/>
</clipPath>
</defs>
</svg>
