<svg width="166" height="166" viewBox="0 0 166 166" fill="none" xmlns="http://www.w3.org/2000/svg">
<g filter="url(#filter0_di_627_8302)">
<rect x="12" y="7" width="136" height="136" rx="25" fill="url(#paint0_linear_627_8302)" shape-rendering="crispEdges"/>
<rect x="12.5" y="7.5" width="135" height="135" rx="24.5" stroke="url(#paint1_linear_627_8302)" stroke-opacity="0.2" shape-rendering="crispEdges"/>
</g>
<path d="M42.392 102.108C41.832 102.108 41.336 102.036 40.904 101.892C40.48 101.74 40.124 101.52 39.836 101.232C39.548 100.936 39.328 100.572 39.176 100.14C39.032 99.7 38.96 99.192 38.96 98.616V94.02C38.96 93.828 39.008 93.688 39.104 93.6C39.2 93.504 39.336 93.456 39.512 93.456C39.696 93.456 39.836 93.504 39.932 93.6C40.028 93.688 40.076 93.828 40.076 94.02V98.58C40.076 99.436 40.272 100.076 40.664 100.5C41.056 100.916 41.632 101.124 42.392 101.124C43.152 101.124 43.728 100.916 44.12 100.5C44.512 100.076 44.708 99.436 44.708 98.58V94.02C44.708 93.828 44.756 93.688 44.852 93.6C44.948 93.504 45.084 93.456 45.26 93.456C45.436 93.456 45.572 93.504 45.668 93.6C45.764 93.688 45.812 93.828 45.812 94.02V98.616C45.812 99.376 45.68 100.016 45.416 100.536C45.16 101.056 44.776 101.448 44.264 101.712C43.76 101.976 43.136 102.108 42.392 102.108ZM48.1933 104.244C48.0253 104.244 47.8933 104.196 47.7973 104.1C47.7013 104.004 47.6533 103.868 47.6533 103.692V96.624C47.6533 96.44 47.7013 96.304 47.7973 96.216C47.8933 96.12 48.0253 96.072 48.1933 96.072C48.3693 96.072 48.5013 96.12 48.5893 96.216C48.6853 96.304 48.7333 96.44 48.7333 96.624V97.716L48.6013 97.5C48.7293 97.06 48.9813 96.708 49.3573 96.444C49.7333 96.18 50.1853 96.048 50.7133 96.048C51.2333 96.048 51.6853 96.172 52.0693 96.42C52.4533 96.66 52.7533 97.008 52.9693 97.464C53.1853 97.912 53.2933 98.448 53.2933 99.072C53.2933 99.688 53.1853 100.228 52.9693 100.692C52.7613 101.148 52.4613 101.5 52.0693 101.748C51.6853 101.988 51.2333 102.108 50.7133 102.108C50.1933 102.108 49.7453 101.976 49.3693 101.712C48.9933 101.448 48.7413 101.1 48.6133 100.668H48.7453V103.692C48.7453 103.868 48.6973 104.004 48.6013 104.1C48.5053 104.196 48.3693 104.244 48.1933 104.244ZM50.4613 101.244C50.8053 101.244 51.1053 101.16 51.3613 100.992C51.6253 100.824 51.8293 100.58 51.9733 100.26C52.1173 99.94 52.1893 99.544 52.1893 99.072C52.1893 98.368 52.0333 97.832 51.7213 97.464C51.4093 97.096 50.9893 96.912 50.4613 96.912C50.1093 96.912 49.8013 96.996 49.5373 97.164C49.2813 97.324 49.0813 97.564 48.9373 97.884C48.8013 98.204 48.7333 98.6 48.7333 99.072C48.7333 99.776 48.8893 100.316 49.2013 100.692C49.5133 101.06 49.9333 101.244 50.4613 101.244ZM56.5323 102.108C55.9323 102.108 55.4763 101.932 55.1643 101.58C54.8523 101.22 54.6963 100.704 54.6963 100.032V94.008C54.6963 93.824 54.7443 93.688 54.8403 93.6C54.9363 93.504 55.0683 93.456 55.2363 93.456C55.4123 93.456 55.5483 93.504 55.6443 93.6C55.7403 93.688 55.7883 93.824 55.7883 94.008V99.948C55.7883 100.364 55.8723 100.676 56.0403 100.884C56.2163 101.084 56.4643 101.184 56.7843 101.184C56.8563 101.184 56.9203 101.184 56.9763 101.184C57.0323 101.176 57.0883 101.168 57.1443 101.16C57.2323 101.152 57.2963 101.176 57.3363 101.232C57.3763 101.288 57.3963 101.4 57.3963 101.568C57.3963 101.72 57.3603 101.84 57.2883 101.928C57.2243 102.008 57.1163 102.06 56.9643 102.084C56.8923 102.092 56.8203 102.096 56.7483 102.096C56.6763 102.104 56.6043 102.108 56.5323 102.108ZM60.7311 102.108C60.1551 102.108 59.6551 101.984 59.2311 101.736C58.8071 101.488 58.4791 101.136 58.2471 100.68C58.0151 100.224 57.8991 99.688 57.8991 99.072C57.8991 98.608 57.9631 98.192 58.0911 97.824C58.2271 97.448 58.4191 97.128 58.6671 96.864C58.9151 96.6 59.2111 96.4 59.5551 96.264C59.9071 96.12 60.2991 96.048 60.7311 96.048C61.3071 96.048 61.8071 96.172 62.2311 96.42C62.6551 96.668 62.9831 97.02 63.2151 97.476C63.4471 97.924 63.5631 98.456 63.5631 99.072C63.5631 99.536 63.4951 99.956 63.3591 100.332C63.2311 100.708 63.0431 101.028 62.7951 101.292C62.5471 101.556 62.2471 101.76 61.8951 101.904C61.5511 102.04 61.1631 102.108 60.7311 102.108ZM60.7311 101.244C61.0831 101.244 61.3871 101.16 61.6431 100.992C61.9071 100.824 62.1071 100.58 62.2431 100.26C62.3871 99.94 62.4591 99.544 62.4591 99.072C62.4591 98.368 62.3031 97.832 61.9911 97.464C61.6791 97.096 61.2591 96.912 60.7311 96.912C60.3871 96.912 60.0831 96.996 59.8191 97.164C59.5631 97.324 59.3631 97.564 59.2191 97.884C59.0751 98.204 59.0031 98.6 59.0031 99.072C59.0031 99.776 59.1591 100.316 59.4711 100.692C59.7911 101.06 60.2111 101.244 60.7311 101.244ZM66.8219 102.108C66.4219 102.108 66.0579 102.028 65.7299 101.868C65.4099 101.708 65.1579 101.492 64.9739 101.22C64.7979 100.948 64.7099 100.644 64.7099 100.308C64.7099 99.876 64.8179 99.536 65.0339 99.288C65.2499 99.04 65.6139 98.864 66.1259 98.76C66.6379 98.648 67.3259 98.592 68.1899 98.592H68.7539V99.288H68.2139C67.5979 99.288 67.1099 99.316 66.7499 99.372C66.3979 99.428 66.1499 99.528 66.0059 99.672C65.8619 99.808 65.7899 100 65.7899 100.248C65.7899 100.56 65.8979 100.816 66.1139 101.016C66.3379 101.216 66.6419 101.316 67.0259 101.316C67.3299 101.316 67.5979 101.244 67.8299 101.1C68.0619 100.948 68.2459 100.748 68.3819 100.5C68.5179 100.244 68.5859 99.952 68.5859 99.624V98.244C68.5859 97.772 68.4899 97.432 68.2979 97.224C68.1059 97.008 67.7819 96.9 67.3259 96.9C67.0619 96.9 66.7899 96.936 66.5099 97.008C66.2299 97.08 65.9379 97.192 65.6339 97.344C65.5139 97.4 65.4099 97.42 65.3219 97.404C65.2339 97.38 65.1619 97.332 65.1059 97.26C65.0579 97.18 65.0299 97.096 65.0219 97.008C65.0219 96.912 65.0419 96.82 65.0819 96.732C65.1299 96.644 65.2099 96.58 65.3219 96.54C65.6739 96.364 66.0219 96.24 66.3659 96.168C66.7179 96.088 67.0459 96.048 67.3499 96.048C67.8699 96.048 68.2979 96.132 68.6339 96.3C68.9699 96.46 69.2219 96.712 69.3899 97.056C69.5579 97.392 69.6419 97.824 69.6419 98.352V101.52C69.6419 101.704 69.5979 101.844 69.5099 101.94C69.4219 102.036 69.2939 102.084 69.1259 102.084C68.9659 102.084 68.8379 102.036 68.7419 101.94C68.6539 101.844 68.6099 101.704 68.6099 101.52V100.668H68.7179C68.6539 100.964 68.5339 101.22 68.3579 101.436C68.1819 101.652 67.9619 101.82 67.6979 101.94C67.4419 102.052 67.1499 102.108 66.8219 102.108ZM73.5924 102.108C73.0804 102.108 72.6284 101.988 72.2364 101.748C71.8524 101.5 71.5524 101.148 71.3364 100.692C71.1204 100.228 71.0124 99.688 71.0124 99.072C71.0124 98.448 71.1164 97.912 71.3244 97.464C71.5404 97.008 71.8404 96.66 72.2244 96.42C72.6164 96.172 73.0724 96.048 73.5924 96.048C74.1124 96.048 74.5604 96.18 74.9364 96.444C75.3124 96.7 75.5644 97.044 75.6924 97.476H75.5604V94.008C75.5604 93.824 75.6044 93.688 75.6924 93.6C75.7884 93.504 75.9244 93.456 76.1004 93.456C76.2764 93.456 76.4124 93.504 76.5084 93.6C76.6044 93.688 76.6524 93.824 76.6524 94.008V101.52C76.6524 101.704 76.6044 101.844 76.5084 101.94C76.4124 102.036 76.2764 102.084 76.1004 102.084C75.9324 102.084 75.8004 102.036 75.7044 101.94C75.6084 101.844 75.5604 101.704 75.5604 101.52V100.428L75.6924 100.644C75.5724 101.092 75.3204 101.448 74.9364 101.712C74.5604 101.976 74.1124 102.108 73.5924 102.108ZM73.8444 101.244C74.1964 101.244 74.5004 101.16 74.7564 100.992C75.0204 100.824 75.2204 100.58 75.3564 100.26C75.5004 99.94 75.5724 99.544 75.5724 99.072C75.5724 98.368 75.4164 97.832 75.1044 97.464C74.7924 97.096 74.3724 96.912 73.8444 96.912C73.5004 96.912 73.1964 96.996 72.9324 97.164C72.6764 97.324 72.4764 97.564 72.3324 97.884C72.1884 98.204 72.1164 98.6 72.1164 99.072C72.1164 99.776 72.2724 100.316 72.5844 100.692C72.9044 101.06 73.3244 101.244 73.8444 101.244ZM78.9433 102.06C78.7753 102.06 78.6433 102.008 78.5473 101.904C78.4513 101.8 78.4033 101.656 78.4033 101.472V96.684C78.4033 96.492 78.4513 96.348 78.5473 96.252C78.6433 96.148 78.7753 96.096 78.9433 96.096C79.1193 96.096 79.2553 96.148 79.3513 96.252C79.4473 96.348 79.4953 96.492 79.4953 96.684V101.472C79.4953 101.656 79.4473 101.8 79.3513 101.904C79.2633 102.008 79.1273 102.06 78.9433 102.06ZM78.9433 94.8C78.7273 94.8 78.5553 94.744 78.4273 94.632C78.3073 94.512 78.2473 94.356 78.2473 94.164C78.2473 93.956 78.3073 93.8 78.4273 93.696C78.5553 93.584 78.7273 93.528 78.9433 93.528C79.1753 93.528 79.3473 93.584 79.4593 93.696C79.5793 93.8 79.6393 93.956 79.6393 94.164C79.6393 94.356 79.5793 94.512 79.4593 94.632C79.3473 94.744 79.1753 94.8 78.9433 94.8ZM81.791 102.084C81.623 102.084 81.491 102.036 81.395 101.94C81.299 101.844 81.251 101.704 81.251 101.52V96.624C81.251 96.44 81.299 96.304 81.395 96.216C81.491 96.12 81.623 96.072 81.791 96.072C81.959 96.072 82.087 96.12 82.175 96.216C82.271 96.304 82.319 96.44 82.319 96.624V97.608L82.187 97.428C82.355 96.972 82.627 96.628 83.003 96.396C83.387 96.164 83.823 96.048 84.311 96.048C84.783 96.048 85.171 96.132 85.475 96.3C85.779 96.468 86.007 96.724 86.159 97.068C86.311 97.412 86.387 97.848 86.387 98.376V101.52C86.387 101.704 86.339 101.844 86.243 101.94C86.155 102.036 86.023 102.084 85.847 102.084C85.671 102.084 85.535 102.036 85.439 101.94C85.343 101.844 85.295 101.704 85.295 101.52V98.436C85.295 97.916 85.195 97.536 84.995 97.296C84.795 97.056 84.475 96.936 84.035 96.936C83.523 96.936 83.111 97.096 82.799 97.416C82.495 97.728 82.343 98.152 82.343 98.688V101.52C82.343 101.896 82.159 102.084 81.791 102.084ZM90.7462 104.268C90.3142 104.268 89.8942 104.22 89.4862 104.124C89.0862 104.028 88.7222 103.88 88.3942 103.68C88.2902 103.616 88.2182 103.54 88.1782 103.452C88.1462 103.372 88.1382 103.288 88.1542 103.2C88.1782 103.112 88.2182 103.032 88.2742 102.96C88.3382 102.896 88.4102 102.852 88.4902 102.828C88.5782 102.812 88.6662 102.832 88.7542 102.888C89.1062 103.088 89.4422 103.224 89.7622 103.296C90.0822 103.368 90.3862 103.404 90.6742 103.404C91.2422 103.404 91.6662 103.256 91.9462 102.96C92.2342 102.672 92.3782 102.248 92.3782 101.688V100.392H92.4862C92.3742 100.84 92.1222 101.196 91.7302 101.46C91.3462 101.724 90.8982 101.856 90.3862 101.856C89.8582 101.856 89.3982 101.736 89.0062 101.496C88.6142 101.248 88.3102 100.908 88.0942 100.476C87.8782 100.036 87.7702 99.528 87.7702 98.952C87.7702 98.512 87.8302 98.116 87.9502 97.764C88.0782 97.404 88.2542 97.1 88.4782 96.852C88.7102 96.596 88.9862 96.4 89.3062 96.264C89.6262 96.12 89.9862 96.048 90.3862 96.048C90.9062 96.048 91.3582 96.18 91.7422 96.444C92.1262 96.708 92.3742 97.064 92.4862 97.512L92.3542 97.68V96.624C92.3542 96.44 92.4022 96.304 92.4982 96.216C92.5942 96.12 92.7302 96.072 92.9062 96.072C93.0742 96.072 93.2062 96.12 93.3022 96.216C93.3982 96.304 93.4462 96.44 93.4462 96.624V101.544C93.4462 102.448 93.2142 103.128 92.7502 103.584C92.2942 104.04 91.6262 104.268 90.7462 104.268ZM90.6262 100.992C90.9862 100.992 91.2942 100.912 91.5502 100.752C91.8142 100.584 92.0142 100.348 92.1502 100.044C92.2942 99.732 92.3662 99.368 92.3662 98.952C92.3662 98.32 92.2102 97.824 91.8982 97.464C91.5862 97.096 91.1622 96.912 90.6262 96.912C90.2662 96.912 89.9542 96.996 89.6902 97.164C89.4342 97.324 89.2342 97.556 89.0902 97.86C88.9462 98.164 88.8742 98.528 88.8742 98.952C88.8742 99.576 89.0302 100.072 89.3422 100.44C89.6622 100.808 90.0902 100.992 90.6262 100.992ZM102.453 102.084C102.277 102.084 102.141 102.036 102.045 101.94C101.949 101.844 101.901 101.704 101.901 101.52V100.236H98.5652C98.3892 100.236 98.2452 100.196 98.1332 100.116C98.0292 100.036 97.9772 99.912 97.9772 99.744C97.9772 99.648 98.0012 99.548 98.0492 99.444C98.0972 99.34 98.1812 99.2 98.3012 99.024L101.865 93.828C101.953 93.708 102.045 93.616 102.141 93.552C102.245 93.488 102.361 93.456 102.489 93.456C102.633 93.456 102.753 93.504 102.849 93.6C102.953 93.688 103.005 93.828 103.005 94.02V99.288H103.821C103.997 99.288 104.129 99.328 104.217 99.408C104.305 99.488 104.349 99.604 104.349 99.756C104.349 99.916 104.305 100.036 104.217 100.116C104.129 100.196 103.997 100.236 103.821 100.236H103.005V101.52C103.005 101.704 102.957 101.844 102.861 101.94C102.765 102.036 102.629 102.084 102.453 102.084ZM101.901 99.288V94.848H102.201L98.9612 99.588V99.288H101.901ZM108.401 102.108C107.953 102.108 107.501 102.044 107.045 101.916C106.597 101.78 106.189 101.576 105.821 101.304C105.717 101.232 105.645 101.148 105.605 101.052C105.573 100.948 105.569 100.848 105.593 100.752C105.617 100.656 105.665 100.576 105.737 100.512C105.809 100.44 105.893 100.4 105.989 100.392C106.093 100.384 106.201 100.416 106.313 100.488C106.633 100.712 106.965 100.88 107.309 100.992C107.653 101.096 108.013 101.148 108.389 101.148C108.765 101.148 109.089 101.076 109.361 100.932C109.633 100.788 109.841 100.588 109.985 100.332C110.137 100.076 110.213 99.776 110.213 99.432C110.213 98.904 110.057 98.472 109.745 98.136C109.433 97.8 109.009 97.632 108.473 97.632C108.145 97.632 107.841 97.692 107.561 97.812C107.289 97.924 107.033 98.116 106.793 98.388C106.737 98.452 106.665 98.508 106.577 98.556C106.497 98.604 106.405 98.628 106.301 98.628C106.149 98.628 106.033 98.588 105.953 98.508C105.873 98.42 105.833 98.304 105.833 98.16V94.044C105.833 93.884 105.877 93.76 105.965 93.672C106.053 93.584 106.177 93.54 106.337 93.54H110.381C110.541 93.54 110.665 93.58 110.753 93.66C110.841 93.74 110.885 93.856 110.885 94.008C110.885 94.16 110.841 94.28 110.753 94.368C110.665 94.448 110.541 94.488 110.381 94.488H106.925V97.692H106.613C106.829 97.372 107.117 97.124 107.477 96.948C107.845 96.772 108.249 96.684 108.689 96.684C109.225 96.684 109.685 96.8 110.069 97.032C110.461 97.256 110.765 97.572 110.981 97.98C111.197 98.38 111.305 98.848 111.305 99.384C111.305 99.912 111.185 100.384 110.945 100.8C110.713 101.208 110.381 101.528 109.949 101.76C109.517 101.992 109.001 102.108 108.401 102.108ZM115.524 101.988C115.46 102.1 115.38 102.172 115.284 102.204C115.196 102.244 115.108 102.252 115.02 102.228C114.932 102.212 114.856 102.168 114.792 102.096C114.736 102.032 114.704 101.952 114.696 101.856C114.688 101.76 114.712 101.656 114.768 101.544L119.352 93.576C119.416 93.464 119.492 93.388 119.58 93.348C119.668 93.308 119.756 93.3 119.844 93.324C119.932 93.34 120.004 93.384 120.06 93.456C120.124 93.52 120.164 93.6 120.18 93.696C120.196 93.792 120.172 93.896 120.108 94.008L115.524 101.988ZM114.54 98.604C113.892 98.604 113.384 98.376 113.016 97.92C112.656 97.464 112.476 96.828 112.476 96.012C112.476 95.468 112.556 95.004 112.716 94.62C112.884 94.236 113.12 93.944 113.424 93.744C113.736 93.536 114.108 93.432 114.54 93.432C115.18 93.432 115.684 93.66 116.052 94.116C116.42 94.572 116.604 95.204 116.604 96.012C116.604 96.556 116.52 97.024 116.352 97.416C116.192 97.8 115.956 98.096 115.644 98.304C115.34 98.504 114.972 98.604 114.54 98.604ZM114.54 97.824C114.78 97.824 114.984 97.76 115.152 97.632C115.32 97.496 115.448 97.296 115.536 97.032C115.624 96.76 115.668 96.42 115.668 96.012C115.668 95.412 115.568 94.964 115.368 94.668C115.168 94.364 114.892 94.212 114.54 94.212C114.308 94.212 114.104 94.28 113.928 94.416C113.76 94.544 113.628 94.744 113.532 95.016C113.444 95.28 113.4 95.612 113.4 96.012C113.4 96.62 113.5 97.076 113.7 97.38C113.908 97.676 114.188 97.824 114.54 97.824ZM120.348 102.108C119.7 102.108 119.192 101.88 118.824 101.424C118.464 100.968 118.284 100.332 118.284 99.516C118.284 98.972 118.364 98.508 118.524 98.124C118.692 97.74 118.928 97.448 119.232 97.248C119.544 97.04 119.916 96.936 120.348 96.936C120.988 96.936 121.492 97.164 121.86 97.62C122.228 98.076 122.412 98.708 122.412 99.516C122.412 100.06 122.328 100.528 122.16 100.92C122 101.304 121.764 101.6 121.452 101.808C121.148 102.008 120.78 102.108 120.348 102.108ZM120.348 101.328C120.588 101.328 120.792 101.264 120.96 101.136C121.128 101 121.256 100.8 121.344 100.536C121.432 100.264 121.476 99.924 121.476 99.516C121.476 98.916 121.376 98.468 121.176 98.172C120.976 97.868 120.7 97.716 120.348 97.716C120.116 97.716 119.912 97.784 119.736 97.92C119.568 98.048 119.436 98.248 119.34 98.52C119.252 98.784 119.208 99.116 119.208 99.516C119.208 100.124 119.308 100.58 119.508 100.884C119.716 101.18 119.996 101.328 120.348 101.328Z" fill="#64728C"/>
<g filter="url(#filter1_i_627_8302)">
<rect x="35" y="61" width="91" height="10" rx="5" fill="#64728C" fill-opacity="0.15"/>
</g>
<rect x="35" y="61" width="46" height="10" rx="5" fill="url(#paint2_linear_627_8302)"/>
<defs>
<filter id="filter0_di_627_8302" x="0" y="0" width="166" height="166" filterUnits="userSpaceOnUse" color-interpolation-filters="sRGB">
<feFlood flood-opacity="0" result="BackgroundImageFix"/>
<feColorMatrix in="SourceAlpha" type="matrix" values="0 0 0 0 0 0 0 0 0 0 0 0 0 0 0 0 0 0 127 0" result="hardAlpha"/>
<feOffset dx="3" dy="8"/>
<feGaussianBlur stdDeviation="7.5"/>
<feComposite in2="hardAlpha" operator="out"/>
<feColorMatrix type="matrix" values="0 0 0 0 0 0 0 0 0 0 0 0 0 0 0 0 0 0 0.08 0"/>
<feBlend mode="normal" in2="BackgroundImageFix" result="effect1_dropShadow_627_8302"/>
<feBlend mode="normal" in="SourceGraphic" in2="effect1_dropShadow_627_8302" result="shape"/>
<feColorMatrix in="SourceAlpha" type="matrix" values="0 0 0 0 0 0 0 0 0 0 0 0 0 0 0 0 0 0 127 0" result="hardAlpha"/>
<feOffset dy="-10"/>
<feGaussianBlur stdDeviation="2"/>
<feComposite in2="hardAlpha" operator="arithmetic" k2="-1" k3="1"/>
<feColorMatrix type="matrix" values="0 0 0 0 1 0 0 0 0 1 0 0 0 0 1 0 0 0 0.15 0"/>
<feBlend mode="normal" in2="shape" result="effect2_innerShadow_627_8302"/>
</filter>
<filter id="filter1_i_627_8302" x="35" y="61" width="91" height="14" filterUnits="userSpaceOnUse" color-interpolation-filters="sRGB">
<feFlood flood-opacity="0" result="BackgroundImageFix"/>
<feBlend mode="normal" in="SourceGraphic" in2="BackgroundImageFix" result="shape"/>
<feColorMatrix in="SourceAlpha" type="matrix" values="0 0 0 0 0 0 0 0 0 0 0 0 0 0 0 0 0 0 127 0" result="hardAlpha"/>
<feOffset dy="4"/>
<feGaussianBlur stdDeviation="2"/>
<feComposite in2="hardAlpha" operator="arithmetic" k2="-1" k3="1"/>
<feColorMatrix type="matrix" values="0 0 0 0 0 0 0 0 0 0 0 0 0 0 0 0 0 0 0.15 0"/>
<feBlend mode="normal" in2="shape" result="effect1_innerShadow_627_8302"/>
</filter>
<linearGradient id="paint0_linear_627_8302" x1="80" y1="7" x2="80" y2="143" gradientUnits="userSpaceOnUse">
<stop stop-color="#64728C" stop-opacity="0.04"/>
<stop offset="1" stop-color="#64728C" stop-opacity="0.15"/>
</linearGradient>
<linearGradient id="paint1_linear_627_8302" x1="80" y1="7" x2="80" y2="143" gradientUnits="userSpaceOnUse">
<stop offset="0.345231" stop-color="#64728C" stop-opacity="0.03"/>
<stop offset="1" stop-color="#64728C" stop-opacity="0.37"/>
</linearGradient>
<linearGradient id="paint2_linear_627_8302" x1="58" y1="61" x2="58" y2="71" gradientUnits="userSpaceOnUse">
<stop stop-color="#8C97AB"/>
<stop offset="1" stop-color="#64728C"/>
</linearGradient>
</defs>
</svg>
