<svg width="148" height="53" viewBox="0 0 148 53" fill="none" xmlns="http://www.w3.org/2000/svg">
<g filter="url(#filter0_d_620_7576)">
<rect x="4" width="140" height="45" rx="22.5" fill="white"/>
<rect x="4.5" y="0.5" width="139" height="44" rx="22" stroke="#64728C" stroke-opacity="0.79"/>
</g>
<circle cx="27" cy="22" r="19" fill="#64728C" fill-opacity="0.1"/>
<circle cx="121" cy="22" r="19" fill="#64728C" fill-opacity="0.1"/>
<g clip-path="url(#clip0_620_7576)">
<path d="M128 22.0002C128 22.6768 127.452 23.2252 126.775 23.2252H122.225V27.7749C122.225 28.4518 121.677 29.0002 121 29C120.662 29 120.355 28.8631 120.134 28.6415C119.912 28.4195 119.775 28.1134 119.775 27.7753L119.775 23.225H115.225C114.887 23.225 114.581 23.0881 114.359 22.8662C114.137 22.6448 114 22.3385 114 22.0002C114 21.3236 114.549 20.7751 115.226 20.7751H119.775V16.2253C119.775 15.5486 120.324 15 121.001 15C121.677 15.0002 122.225 15.5482 122.226 16.2249V20.7751H126.776C127.452 20.7755 128 21.3236 128 22.0002Z" fill="#64728C"/>
</g>
<rect x="20" y="20" width="14" height="3.29412" rx="1.64706" fill="#64728C"/>
<path d="M69.8 27.16C68.4667 27.16 67.448 26.6587 66.744 25.656C66.04 24.6427 65.688 23.2027 65.688 21.336C65.688 20.0773 65.8427 19.0213 66.152 18.168C66.472 17.304 66.936 16.6533 67.544 16.216C68.1627 15.7787 68.9147 15.56 69.8 15.56C71.144 15.56 72.1627 16.0507 72.856 17.032C73.56 18.0133 73.912 19.4427 73.912 21.32C73.912 22.568 73.752 23.6293 73.432 24.504C73.1227 25.368 72.664 26.0293 72.056 26.488C71.448 26.936 70.696 27.16 69.8 27.16ZM69.8 25.48C70.5253 25.48 71.0587 25.144 71.4 24.472C71.752 23.8 71.928 22.7493 71.928 21.32C71.928 19.8907 71.752 18.856 71.4 18.216C71.0587 17.5653 70.5253 17.24 69.8 17.24C69.0853 17.24 68.552 17.5653 68.2 18.216C67.848 18.856 67.672 19.8907 67.672 21.32C67.672 22.7493 67.848 23.8 68.2 24.472C68.552 25.144 69.0853 25.48 69.8 25.48ZM79.4898 27.16C78.9244 27.16 78.3484 27.0853 77.7618 26.936C77.1751 26.7867 76.6364 26.5573 76.1458 26.248C75.9431 26.12 75.8044 25.9707 75.7298 25.8C75.6658 25.6187 75.6498 25.4427 75.6818 25.272C75.7244 25.0907 75.8044 24.9413 75.9218 24.824C76.0498 24.696 76.1991 24.6213 76.3698 24.6C76.5511 24.5787 76.7484 24.6267 76.9618 24.744C77.3564 24.968 77.7564 25.1387 78.1618 25.256C78.5671 25.3733 78.9991 25.432 79.4578 25.432C79.9058 25.432 80.2898 25.352 80.6098 25.192C80.9298 25.032 81.1751 24.808 81.3458 24.52C81.5164 24.232 81.6018 23.896 81.6018 23.512C81.6018 22.9147 81.4204 22.4347 81.0578 22.072C80.6951 21.6987 80.1991 21.512 79.5698 21.512C79.2284 21.512 78.8978 21.5707 78.5778 21.688C78.2578 21.7947 77.9431 21.9867 77.6338 22.264C77.5378 22.3493 77.4151 22.4347 77.2658 22.52C77.1164 22.5947 76.9564 22.632 76.7858 22.632C76.5191 22.632 76.3164 22.5627 76.1778 22.424C76.0391 22.2853 75.9698 22.0933 75.9698 21.848V16.616C75.9698 16.328 76.0444 16.1093 76.1938 15.96C76.3538 15.8 76.5778 15.72 76.8658 15.72H82.1298C82.4178 15.72 82.6364 15.7947 82.7858 15.944C82.9458 16.0827 83.0258 16.2907 83.0258 16.568C83.0258 16.8347 82.9458 17.0427 82.7858 17.192C82.6364 17.3413 82.4178 17.416 82.1298 17.416H77.9698V21H77.4418C77.7191 20.6267 78.0871 20.3387 78.5458 20.136C79.0044 19.9333 79.5058 19.832 80.0498 19.832C80.7644 19.832 81.3831 19.9867 81.9058 20.296C82.4391 20.5947 82.8498 21.016 83.1378 21.56C83.4364 22.0933 83.5858 22.7173 83.5858 23.432C83.5858 24.168 83.4204 24.8187 83.0898 25.384C82.7591 25.9387 82.2844 26.376 81.6658 26.696C81.0578 27.0053 80.3324 27.16 79.4898 27.16Z" fill="#64728C"/>
<defs>
<filter id="filter0_d_620_7576" x="0" y="0" width="148" height="53" filterUnits="userSpaceOnUse" color-interpolation-filters="sRGB">
<feFlood flood-opacity="0" result="BackgroundImageFix"/>
<feColorMatrix in="SourceAlpha" type="matrix" values="0 0 0 0 0 0 0 0 0 0 0 0 0 0 0 0 0 0 127 0" result="hardAlpha"/>
<feOffset dy="4"/>
<feGaussianBlur stdDeviation="2"/>
<feComposite in2="hardAlpha" operator="out"/>
<feColorMatrix type="matrix" values="0 0 0 0 0.392157 0 0 0 0 0.447059 0 0 0 0 0.54902 0 0 0 0.16 0"/>
<feBlend mode="normal" in2="BackgroundImageFix" result="effect1_dropShadow_620_7576"/>
<feBlend mode="normal" in="SourceGraphic" in2="effect1_dropShadow_620_7576" result="shape"/>
</filter>
<clipPath id="clip0_620_7576">
<rect width="14" height="14" fill="white" transform="translate(114 15)"/>
</clipPath>
</defs>
</svg>
