<svg width="140" height="45" viewBox="0 0 140 45" fill="none" xmlns="http://www.w3.org/2000/svg">
<rect x="0.5" y="0.5" width="139" height="44" rx="22" fill="white" stroke="#E8EAEF"/>
<circle cx="23" cy="22" r="19" fill="#64728C" fill-opacity="0.1"/>
<circle cx="117" cy="22" r="19" fill="#64728C"/>
<g clip-path="url(#clip0_620_7577)">
<path d="M124 22.0002C124 22.6768 123.452 23.2252 122.775 23.2252H118.225V27.7749C118.225 28.4518 117.677 29.0002 117 29C116.662 29 116.355 28.8631 116.134 28.6415C115.912 28.4195 115.775 28.1134 115.775 27.7753L115.775 23.225H111.225C110.887 23.225 110.581 23.0881 110.359 22.8662C110.137 22.6448 110 22.3385 110 22.0002C110 21.3236 110.549 20.7751 111.226 20.7751H115.775V16.2253C115.775 15.5486 116.324 15 117.001 15C117.677 15.0002 118.225 15.5482 118.226 16.2249V20.7751H122.776C123.452 20.7755 124 21.3236 124 22.0002Z" fill="white"/>
</g>
<rect x="16" y="20" width="14" height="3.29412" rx="1.64706" fill="#64728C"/>
<path d="M63.496 27C63.2187 27 63 26.9253 62.84 26.776C62.6907 26.616 62.616 26.4027 62.616 26.136C62.616 25.8587 62.6907 25.6507 62.84 25.512C63 25.3733 63.2187 25.304 63.496 25.304H65.288V17.448H66.28L63.928 18.872C63.7253 18.9893 63.5333 19.0373 63.352 19.016C63.1813 18.984 63.032 18.9093 62.904 18.792C62.7867 18.664 62.7067 18.5147 62.664 18.344C62.6213 18.1733 62.632 18.0027 62.696 17.832C62.7707 17.6507 62.9093 17.5013 63.112 17.384L65.32 16.056C65.5333 15.928 65.7467 15.8213 65.96 15.736C66.1733 15.64 66.3707 15.592 66.552 15.592C66.776 15.592 66.9627 15.656 67.112 15.784C67.2613 15.9013 67.336 16.0987 67.336 16.376V25.304H68.968C69.2453 25.304 69.4587 25.3733 69.608 25.512C69.768 25.6507 69.848 25.8587 69.848 26.136C69.848 26.4133 69.768 26.6267 69.608 26.776C69.4587 26.9253 69.2453 27 68.968 27H63.496ZM72.7218 27C72.3804 27 72.1298 26.9253 71.9698 26.776C71.8204 26.616 71.7458 26.3867 71.7458 26.088C71.7458 25.9067 71.7938 25.7307 71.8898 25.56C71.9858 25.3893 72.1244 25.208 72.3058 25.016L75.5218 21.592C76.0124 21.08 76.3644 20.616 76.5778 20.2C76.7911 19.7733 76.8978 19.3467 76.8978 18.92C76.8978 18.3867 76.7271 17.9813 76.3858 17.704C76.0551 17.4267 75.5698 17.288 74.9298 17.288C74.5671 17.288 74.2044 17.3413 73.8418 17.448C73.4791 17.544 73.1111 17.7147 72.7378 17.96C72.5458 18.088 72.3644 18.1413 72.1938 18.12C72.0338 18.0987 71.8898 18.0293 71.7618 17.912C71.6444 17.7947 71.5644 17.6507 71.5218 17.48C71.4791 17.3093 71.4844 17.1387 71.5378 16.968C71.6018 16.7867 71.7298 16.632 71.9218 16.504C72.3804 16.1947 72.8924 15.96 73.4578 15.8C74.0338 15.64 74.6098 15.56 75.1858 15.56C75.9964 15.56 76.6791 15.6827 77.2338 15.928C77.7884 16.1733 78.2098 16.5307 78.4978 17C78.7858 17.4693 78.9298 18.04 78.9298 18.712C78.9298 19.16 78.8551 19.5973 78.7058 20.024C78.5671 20.4507 78.3484 20.8827 78.0498 21.32C77.7618 21.7573 77.3831 22.2213 76.9138 22.712L73.9058 25.848V25.304H78.6098C78.8978 25.304 79.1164 25.3733 79.2658 25.512C79.4151 25.6507 79.4898 25.8587 79.4898 26.136C79.4898 26.4133 79.4151 26.6267 79.2658 26.776C79.1164 26.9253 78.8978 27 78.6098 27H72.7218Z" fill="#64728C"/>
<defs>
<clipPath id="clip0_620_7577">
<rect width="14" height="14" fill="white" transform="translate(110 15)"/>
</clipPath>
</defs>
</svg>
